<?xml version="1.0" encoding="utf-8" standalone="no"?>
<!DOCTYPE svg PUBLIC "-//W3C//DTD SVG 1.1//EN"
  "http://www.w3.org/Graphics/SVG/1.1/DTD/svg11.dtd">
<svg xmlns:xlink="http://www.w3.org/1999/xlink" width="720pt" height="432pt" viewBox="0 0 720 432" xmlns="http://www.w3.org/2000/svg" version="1.1">
 <metadata>
  <rdf:RDF xmlns:dc="http://purl.org/dc/elements/1.1/" xmlns:cc="http://creativecommons.org/ns#" xmlns:rdf="http://www.w3.org/1999/02/22-rdf-syntax-ns#">
   <cc:Work>
    <dc:type rdf:resource="http://purl.org/dc/dcmitype/StillImage"/>
    <dc:date>2023-11-07T14:23:05.752521</dc:date>
    <dc:format>image/svg+xml</dc:format>
    <dc:creator>
     <cc:Agent>
      <dc:title>Matplotlib v3.7.1, https://matplotlib.org/</dc:title>
     </cc:Agent>
    </dc:creator>
   </cc:Work>
  </rdf:RDF>
 </metadata>
 <defs>
  <style type="text/css">*{stroke-linejoin: round; stroke-linecap: butt}</style>
 </defs>
 <g id="figure_1">
  <g id="patch_1">
   <path d="M 0 432 
L 720 432 
L 720 0 
L 0 0 
z
" style="fill: #ffffff"/>
  </g>
  <g id="axes_1">
   <g id="patch_2">
    <path d="M 90 384.48 
L 648 384.48 
L 648 51.84 
L 90 51.84 
z
" style="fill: #ffffff"/>
   </g>
   <g id="patch_3">
    <path d="M 307 384.48 
L 369 384.48 
L 369 51.84 
L 307 51.84 
z
" clip-path="url(#pb753963e09)" style="fill: #ffd700; opacity: 0.35; stroke: #ffffff; stroke-width: 0.8; stroke-linejoin: miter"/>
   </g>
   <g id="line2d_1">
    <path d="M 90 384.48 
L 648 384.48 
" clip-path="url(#pb753963e09)" style="fill: none; stroke: #000000; stroke-width: 0.5; stroke-linecap: round"/>
   </g>
   <g id="patch_4">
    <path d="M 125.65 384.156794 
L 134.762642 384.156794 
L 141.132798 384.38566 
L 147.455534 384.156794 
L 156.615597 384.156794 
L 162.938332 384.38566 
L 169.316392 384.156794 
L 178.35 384.156794 
L 169.656239 384.471713 
L 158.694196 384.471713 
L 152 384.232318 
L 145.384838 384.471713 
L 134.414892 384.471713 
L 125.65 384.156794 
z
" clip-path="url(#pb753963e09)" style="fill: #21599c"/>
   </g>
   <g id="patch_5">
    <path d="M 178.35 384.10397 
Q 173.035119 384.12122 167.318669 384.129885 
Q 161.602219 384.138471 155.507822 384.138471 
Q 141.736374 384.138471 133.693187 384.087112 
Q 125.65 384.035754 125.65 383.947924 
Q 125.65 383.85907 133.834917 383.808105 
Q 142.031645 383.75714 156.287338 383.75714 
Q 161.779381 383.75714 166.810802 383.764072 
Q 171.854034 383.770925 176.318534 383.784474 
L 176.318534 383.860488 
Q 171.712304 383.843079 167.153317 383.834493 
Q 162.59433 383.825829 158.011721 383.825829 
Q 149.531533 383.825829 144.937113 383.857495 
Q 140.342694 383.889082 140.342694 383.947924 
Q 140.342694 384.006215 144.771762 384.038038 
Q 149.200829 384.069783 157.350314 384.069783 
Q 159.570753 384.069783 161.472299 384.067971 
Q 163.373846 384.066081 164.885634 384.062142 
L 164.885634 383.990775 
L 156.204662 383.990775 
L 156.204662 383.927207 
L 178.35 383.927207 
L 178.35 384.10397 
z
" clip-path="url(#pb753963e09)" style="fill: #787800"/>
   </g>
   <g id="patch_6">
    <path d="M 173.955948 383.176887 
L 173.955948 383.295808 
Q 168.459804 383.275105 163.221293 383.264634 
Q 157.997094 383.254041 153.34541 383.254041 
Q 147.176562 383.254041 144.213797 383.268365 
Q 141.265345 383.282568 141.265345 383.312659 
Q 141.265345 383.335288 143.254834 383.347926 
Q 145.244324 383.360444 150.482835 383.369472 
L 157.811027 383.381869 
Q 168.946442 383.400767 173.641065 383.439163 
Q 178.35 383.477439 178.35 383.548214 
Q 178.35 383.641016 171.794704 383.686394 
Q 165.239408 383.731771 151.770994 383.731771 
Q 145.430391 383.731771 139.032537 383.72154 
Q 132.634682 383.711429 126.236828 383.691449 
L 126.236828 383.569278 
Q 132.634682 383.597805 138.60315 383.612369 
Q 144.571619 383.626813 150.125014 383.626813 
Q 155.764286 383.626813 158.755676 383.611045 
Q 161.747067 383.595157 161.747067 383.565788 
Q 161.747067 383.539548 159.714639 383.525224 
Q 157.682211 383.510901 151.59924 383.499587 
L 144.929441 383.487189 
Q 134.910429 383.469134 130.273058 383.429654 
Q 125.65 383.390175 125.65 383.323252 
Q 125.65 383.239357 132.090793 383.19422 
Q 138.531586 383.149083 150.611651 383.149083 
Q 156.122108 383.149083 161.933134 383.156064 
Q 167.744161 383.163045 173.955948 383.176887 
z
" clip-path="url(#pb753963e09)" style="fill: #40ba47"/>
   </g>
   <g id="patch_7">
    <path d="M 125.65 382.442941 
L 177.253077 382.442941 
L 177.253077 382.574213 
L 144.774615 382.574213 
L 144.774615 382.699427 
L 175.329487 382.699427 
L 175.329487 382.830699 
L 144.774615 382.830699 
L 144.774615 382.984908 
L 178.35 382.984908 
L 178.35 383.116036 
L 125.65 383.116036 
L 125.65 382.442941 
z
" clip-path="url(#pb753963e09)" style="fill: #6b296b"/>
   </g>
   <g id="patch_8">
    <path d="M 125.65 381.59136 
L 144.774615 381.59136 
L 144.774615 382.245563 
L 178.35 382.245563 
L 178.35 382.403847 
L 125.65 382.403847 
L 125.65 381.59136 
z
" clip-path="url(#pb753963e09)" style="fill: #21599c"/>
   </g>
   <g id="patch_9">
    <path d="M 126.198462 379.698047 
L 177.801538 379.698047 
L 177.801538 380.053765 
L 145.323077 380.053765 
L 145.323077 380.393065 
L 175.877949 380.393065 
L 175.877949 380.748783 
L 145.323077 380.748783 
L 145.323077 381.521981 
L 126.198462 381.521981 
L 126.198462 379.698047 
z
" clip-path="url(#pb753963e09)" style="fill: #21599c"/>
   </g>
   <g id="patch_10">
    <path d="M 162.155336 378.655336 
L 141.887763 378.655336 
L 138.68762 379.524492 
L 125.65 379.524492 
L 144.269015 374.753336 
L 159.730985 374.753336 
L 178.35 379.524492 
L 165.323155 379.524492 
L 162.155336 378.655336 
z
M 145.120231 377.769819 
L 158.890544 377.769819 
L 152.016162 375.871991 
L 145.120231 377.769819 
z
" clip-path="url(#pb753963e09)" style="fill: #21599c"/>
   </g>
   <g id="patch_11">
    <path d="M 125.65 369.622659 
L 139.537864 369.622659 
L 139.537864 371.402591 
L 159.555783 369.622659 
L 175.683253 369.622659 
L 149.743078 371.932494 
L 178.35 374.499443 
L 160.964195 374.499443 
L 139.537864 372.578412 
L 139.537864 374.499443 
L 125.65 374.499443 
L 125.65 369.622659 
z
" clip-path="url(#pb753963e09)" style="fill: #bd2e1f"/>
   </g>
   <g id="patch_12">
    <path d="M 125.65 363.726952 
L 141.195992 363.726952 
L 151.979692 366.73421 
L 162.83447 363.726952 
L 178.35 363.726952 
L 178.35 369.346441 
L 166.80474 369.346441 
L 166.80474 365.236 
L 155.889037 368.266141 
L 148.141426 368.266141 
L 137.225723 365.236 
L 137.225723 369.346441 
L 125.65 369.346441 
L 125.65 363.726952 
z
" clip-path="url(#pb753963e09)" style="fill: #21599c"/>
   </g>
   <g id="patch_13">
    <path d="M 125.65 339.370757 
L 153.043021 339.370757 
Q 165.271068 339.370757 171.803672 341.372618 
Q 178.35 343.369425 178.35 347.06478 
Q 178.35 350.780355 171.803672 352.777161 
Q 165.271068 354.773967 153.043021 354.773967 
L 142.159922 354.773967 
L 142.159922 362.958345 
L 125.65 362.958345 
L 125.65 339.370757 
z
M 142.159922 343.778896 
L 142.159922 350.365829 
L 151.286354 350.365829 
Q 156.08974 350.365829 158.711016 349.506444 
Q 161.332292 348.647059 161.332292 347.06478 
Q 161.332292 345.487556 158.711016 344.633226 
Q 156.08974 343.778896 151.286354 343.778896 
L 142.159922 343.778896 
z
" clip-path="url(#pb753963e09)" style="fill: #787800"/>
   </g>
   <g id="patch_14">
    <path d="M 187.65 384.201013 
L 196.762642 384.201013 
L 203.132798 384.398567 
L 209.455534 384.201013 
L 218.615597 384.201013 
L 224.938332 384.398567 
L 231.316392 384.201013 
L 240.35 384.201013 
L 231.656239 384.472846 
L 220.694196 384.472846 
L 214 384.266204 
L 207.384838 384.472846 
L 196.414892 384.472846 
L 187.65 384.201013 
z
" clip-path="url(#pb753963e09)" style="fill: #21599c"/>
   </g>
   <g id="patch_15">
    <path d="M 224.155336 384.135266 
L 203.887763 384.135266 
L 200.68762 384.186464 
L 187.65 384.186464 
L 206.269015 383.905417 
L 221.730985 383.905417 
L 240.35 384.186464 
L 227.323155 384.186464 
L 224.155336 384.135266 
z
M 207.120231 384.083104 
L 220.890544 384.083104 
L 214.016162 383.971312 
L 207.120231 384.083104 
z
" clip-path="url(#pb753963e09)" style="fill: #21599c"/>
   </g>
   <g id="patch_16">
    <path d="M 215.405333 383.579541 
L 214.373292 383.579541 
Q 201.714313 383.579541 194.676667 383.376584 
Q 187.65 383.173309 187.65 382.811045 
Q 187.65 382.449419 194.665687 382.24455 
Q 201.681375 382.039363 214 382.039363 
Q 226.450375 382.039363 233.400187 382.242639 
Q 240.35 382.445596 240.35 382.811045 
Q 240.35 383.061794 236.661 383.243085 
Q 232.972 383.424376 226.044146 383.515819 
L 236.364562 383.850363 
L 223.771458 383.850363 
L 215.405333 383.579541 
z
M 214 382.317194 
Q 207.961458 382.317194 204.634771 382.446551 
Q 201.308083 382.575909 201.308083 382.811045 
Q 201.308083 383.050006 204.557917 383.177132 
Q 207.818729 383.303941 214 383.303941 
Q 220.071479 383.303941 223.398167 383.174583 
Q 226.724854 383.044908 226.724854 382.811045 
Q 226.724854 382.575909 223.398167 382.446551 
Q 220.071479 382.317194 214 382.317194 
z
" clip-path="url(#pb753963e09)" style="fill: #40ba47"/>
   </g>
   <g id="patch_17">
    <path d="M 187.65 379.437829 
L 206.774615 379.437829 
L 206.774615 381.441449 
L 240.35 381.441449 
L 240.35 381.926221 
L 187.65 381.926221 
L 187.65 379.437829 
z
" clip-path="url(#pb753963e09)" style="fill: #21599c"/>
   </g>
   <g id="patch_18">
    <path d="M 240.35 379.060975 
Q 235.035119 379.181581 229.318669 379.242159 
Q 223.602219 379.302187 217.507822 379.302187 
Q 203.736374 379.302187 195.693187 378.943122 
Q 187.65 378.584058 187.65 377.970013 
Q 187.65 377.348809 195.834917 376.992498 
Q 204.031645 376.636187 218.287338 376.636187 
Q 223.779381 376.636187 228.810802 376.68465 
Q 233.854034 376.732562 238.318534 376.827284 
L 238.318534 377.358722 
Q 233.712304 377.237014 229.153317 377.176987 
Q 224.59433 377.116408 220.011721 377.116408 
Q 211.531533 377.116408 206.937113 377.337795 
Q 202.342694 377.558631 202.342694 377.970013 
Q 202.342694 378.37754 206.771762 378.600028 
Q 211.200829 378.821965 219.350314 378.821965 
Q 221.570753 378.821965 223.472299 378.809299 
Q 225.373846 378.796082 226.885634 378.768546 
L 226.885634 378.269601 
L 218.204662 378.269601 
L 218.204662 377.825175 
L 240.35 377.825175 
L 240.35 379.060975 
z
" clip-path="url(#pb753963e09)" style="fill: #787800"/>
   </g>
   <g id="patch_19">
    <path d="M 187.65 373.788797 
L 201.537864 373.788797 
L 201.537864 374.776442 
L 221.555783 373.788797 
L 237.683253 373.788797 
L 211.743078 375.070474 
L 240.35 376.494818 
L 222.964195 376.494818 
L 201.537864 375.42888 
L 201.537864 376.494818 
L 187.65 376.494818 
L 187.65 373.788797 
z
" clip-path="url(#pb753963e09)" style="fill: #bd2e1f"/>
   </g>
   <g id="patch_20">
    <path d="M 187.65 369.74781 
L 215.043021 369.74781 
Q 227.271068 369.74781 233.803672 370.076083 
Q 240.35 370.403528 240.35 371.009507 
Q 240.35 371.618802 233.803672 371.946246 
Q 227.271068 372.27369 215.043021 372.27369 
L 204.159922 372.27369 
L 204.159922 373.615797 
L 187.65 373.615797 
L 187.65 369.74781 
z
M 204.159922 370.470674 
L 204.159922 371.550826 
L 213.286354 371.550826 
Q 218.08974 371.550826 220.711016 371.4099 
Q 223.332292 371.268975 223.332292 371.009507 
Q 223.332292 370.750867 220.711016 370.610771 
Q 218.08974 370.470674 213.286354 370.470674 
L 204.159922 370.470674 
z
" clip-path="url(#pb753963e09)" style="fill: #787800"/>
   </g>
   <g id="patch_21">
    <path d="M 202.091481 364.332604 
L 202.091481 368.232609 
L 207.265444 368.232609 
Q 216.112802 368.232609 220.782574 367.731238 
Q 225.464351 367.229868 225.464351 366.275072 
Q 225.464351 365.325756 220.806583 364.829865 
Q 216.16082 364.332604 207.265444 364.332604 
L 202.091481 364.332604 
z
M 187.65 363.086027 
L 202.871777 363.086027 
Q 215.63262 363.086027 221.874989 363.294247 
Q 228.117358 363.501096 232.583052 363.998357 
Q 236.520547 364.431234 238.429271 364.996989 
Q 240.35 365.561373 240.35 366.275072 
Q 240.35 366.999731 238.429271 367.566855 
Q 236.520547 368.133979 232.583052 368.565486 
Q 228.081344 369.062747 221.778952 369.270966 
Q 215.47656 369.477816 202.871777 369.477816 
L 187.65 369.477816 
L 187.65 363.086027 
z
" clip-path="url(#pb753963e09)" style="fill: #6b296b"/>
   </g>
   <g id="patch_22">
    <path d="M 187.65 353.625544 
L 239.253077 353.625544 
L 239.253077 355.391329 
L 206.774615 355.391329 
L 206.774615 357.075617 
L 237.329487 357.075617 
L 237.329487 358.841402 
L 206.774615 358.841402 
L 206.774615 360.915714 
L 240.35 360.915714 
L 240.35 362.679559 
L 187.65 362.679559 
L 187.65 353.625544 
z
" clip-path="url(#pb753963e09)" style="fill: #6b296b"/>
   </g>
   <g id="patch_23">
    <path d="M 302.35 384.396385 
Q 297.035119 384.428772 291.318669 384.44504 
Q 285.602219 384.46116 279.507822 384.46116 
Q 265.736374 384.46116 257.693187 384.364737 
Q 249.65 384.268314 249.65 384.103419 
Q 249.65 383.936601 257.834917 383.840917 
Q 266.031645 383.745234 280.287338 383.745234 
Q 285.779381 383.745234 290.810802 383.758248 
Q 295.854034 383.771114 300.318534 383.796551 
L 300.318534 383.939263 
Q 295.712304 383.90658 291.153317 383.89046 
Q 286.59433 383.874192 282.011721 383.874192 
Q 273.531533 383.874192 268.937113 383.933643 
Q 264.342694 383.992946 264.342694 384.103419 
Q 264.342694 384.212856 268.771762 384.272603 
Q 273.200829 384.332201 281.350314 384.332201 
Q 283.570753 384.332201 285.472299 384.3288 
Q 287.373846 384.325251 288.885634 384.317856 
L 288.885634 384.18387 
L 280.204662 384.18387 
L 280.204662 384.064524 
L 302.35 384.064524 
L 302.35 384.396385 
z
" clip-path="url(#pb753963e09)" style="fill: #787800"/>
   </g>
   <g id="patch_24">
    <path d="M 249.65 382.591724 
L 301.253077 382.591724 
L 301.253077 382.807342 
L 268.774615 382.807342 
L 268.774615 383.013008 
L 299.329487 383.013008 
L 299.329487 383.228627 
L 268.774615 383.228627 
L 268.774615 383.481919 
L 302.35 383.481919 
L 302.35 383.6973 
L 249.65 383.6973 
L 249.65 382.591724 
z
" clip-path="url(#pb753963e09)" style="fill: #6b296b"/>
   </g>
   <g id="patch_25">
    <path d="M 264.091481 381.475804 
L 264.091481 382.273525 
L 269.265444 382.273525 
Q 278.112802 382.273525 282.782574 382.170973 
Q 287.464351 382.068421 287.464351 381.873124 
Q 287.464351 381.678947 282.806583 381.577516 
Q 278.16082 381.475804 269.265444 381.475804 
L 264.091481 381.475804 
z
M 249.65 381.220825 
L 264.871777 381.220825 
Q 277.63262 381.220825 283.874989 381.263415 
Q 290.117358 381.305725 294.583052 381.407436 
Q 298.520547 381.495979 300.429271 381.6117 
Q 302.35 381.727141 302.35 381.873124 
Q 302.35 382.021348 300.429271 382.13735 
Q 298.520547 382.253351 294.583052 382.341613 
Q 290.081344 382.443325 283.778952 382.485915 
Q 277.47656 382.528225 264.871777 382.528225 
L 249.65 382.528225 
L 249.65 381.220825 
z
" clip-path="url(#pb753963e09)" style="fill: #6b296b"/>
   </g>
   <g id="patch_26">
    <path d="M 249.65 379.625178 
L 264.22 379.625178 
L 275.988929 380.167349 
L 287.746786 379.625178 
L 302.35 379.625178 
L 282.665 380.505432 
L 282.665 381.146388 
L 269.346071 381.146388 
L 269.346071 380.505432 
L 249.65 379.625178 
z
" clip-path="url(#pb753963e09)" style="fill: #177875"/>
   </g>
   <g id="patch_27">
    <path d="M 249.65 376.92623 
L 266.578032 376.92623 
L 287.968106 378.702991 
L 287.968106 376.92623 
L 302.35 376.92623 
L 302.35 379.516969 
L 285.409364 379.516969 
L 264.01929 377.740209 
L 264.01929 379.516969 
L 249.65 379.516969 
L 249.65 376.92623 
z
" clip-path="url(#pb753963e09)" style="fill: #40ba47"/>
   </g>
   <g id="patch_28">
    <path d="M 249.65 374.191677 
L 265.195992 374.191677 
L 275.979692 375.581995 
L 286.83447 374.191677 
L 302.35 374.191677 
L 302.35 376.789684 
L 290.80474 376.789684 
L 290.80474 374.889342 
L 279.889037 376.290239 
L 272.141426 376.290239 
L 261.225723 374.889342 
L 261.225723 376.789684 
L 249.65 376.789684 
L 249.65 374.191677 
z
" clip-path="url(#pb753963e09)" style="fill: #21599c"/>
   </g>
   <g id="patch_29">
    <path d="M 286.155336 373.527548 
L 265.887763 373.527548 
L 262.68762 374.048109 
L 249.65 374.048109 
L 268.269015 371.190533 
L 283.730985 371.190533 
L 302.35 374.048109 
L 289.323155 374.048109 
L 286.155336 373.527548 
z
M 269.120231 372.997188 
L 282.890544 372.997188 
L 276.016162 371.860526 
L 269.120231 372.997188 
z
" clip-path="url(#pb753963e09)" style="fill: #21599c"/>
   </g>
   <g id="patch_30">
    <path d="M 271.032787 369.100476 
Q 275.762274 369.100476 277.814221 368.996762 
Q 279.866168 368.892307 279.866168 368.653765 
Q 279.866168 368.417445 277.814221 368.315953 
Q 275.762274 368.213721 271.032787 368.213721 
L 264.701781 368.213721 
L 264.701781 369.100476 
L 271.032787 369.100476 
z
M 264.701781 369.716092 
L 264.701781 371.024369 
L 249.65 371.024369 
L 249.65 367.567731 
L 272.634307 367.567731 
Q 284.170252 367.567731 289.537844 367.797384 
Q 294.917949 368.026295 294.917949 368.5219 
Q 294.917949 368.864156 292.11529 369.084178 
Q 289.325142 369.304199 283.694801 369.408654 
Q 286.785233 369.45014 289.225047 369.597562 
Q 291.677374 369.744243 294.179748 370.042791 
L 302.35 371.024369 
L 286.322293 371.024369 
L 279.203039 370.165766 
Q 277.050997 369.906481 274.836396 369.811657 
Q 272.634307 369.716092 268.955817 369.716092 
L 264.701781 369.716092 
z
" clip-path="url(#pb753963e09)" style="fill: #bd2e1f"/>
   </g>
   <g id="patch_31">
    <path d="M 249.65 352.154791 
L 277.043021 352.154791 
Q 289.271068 352.154791 295.803672 353.421813 
Q 302.35 354.685636 302.35 357.024508 
Q 302.35 359.376178 295.803672 360.64 
Q 289.271068 361.903823 277.043021 361.903823 
L 266.159922 361.903823 
L 266.159922 367.083896 
L 249.65 367.083896 
L 249.65 352.154791 
z
M 266.159922 354.9448 
L 266.159922 359.113815 
L 275.286354 359.113815 
Q 280.08974 359.113815 282.711016 358.569891 
Q 285.332292 358.025967 285.332292 357.024508 
Q 285.332292 356.026248 282.711016 355.485524 
Q 280.08974 354.9448 275.286354 354.9448 
L 266.159922 354.9448 
z
" clip-path="url(#pb753963e09)" style="fill: #787800"/>
   </g>
   <g id="patch_32">
    <path d="M 297.955948 335.390945 
L 297.955948 338.805168 
Q 292.459804 338.210789 287.221293 337.910144 
Q 281.997094 337.606043 277.34541 337.606043 
Q 271.176562 337.606043 268.213797 338.017271 
Q 265.265345 338.425042 265.265345 339.288965 
Q 265.265345 339.938635 267.254834 340.301483 
Q 269.244324 340.660875 274.482835 340.920052 
L 281.811027 341.275988 
Q 292.946442 341.818531 297.641065 342.920897 
Q 302.35 344.019807 302.35 346.051754 
Q 302.35 348.716092 295.794704 350.018888 
Q 289.239408 351.321683 275.770994 351.321683 
Q 269.430391 351.321683 263.032537 351.027949 
Q 256.634682 350.737671 250.236828 350.164027 
L 250.236828 346.6565 
Q 256.634682 347.475499 262.60315 347.893637 
Q 268.571619 348.30832 274.125014 348.30832 
Q 279.764286 348.30832 282.755676 347.855625 
Q 285.747067 347.399473 285.747067 346.556285 
Q 285.747067 345.802944 283.714639 345.391717 
Q 281.682211 344.980489 275.59924 344.655654 
L 268.929441 344.299718 
Q 258.910429 343.781364 254.273058 342.647897 
Q 249.65 341.514431 249.65 339.593066 
Q 249.65 337.184449 256.090793 335.888565 
Q 262.531586 334.59268 274.611651 334.59268 
Q 280.122108 334.59268 285.933134 334.793111 
Q 291.744161 334.993541 297.955948 335.390945 
z
" clip-path="url(#pb753963e09)" style="fill: #40ba47"/>
   </g>
   <g id="patch_33">
    <path d="M 311.65 383.244038 
L 326.813382 383.244038 
L 326.813382 383.702931 
L 349.186618 383.702931 
L 349.186618 383.244038 
L 364.35 383.244038 
L 364.35 384.448309 
L 349.186618 384.448309 
L 349.186618 383.937797 
L 326.813382 383.937797 
L 326.813382 384.448309 
L 311.65 384.448309 
L 311.65 383.244038 
z
" clip-path="url(#pb753963e09)" style="fill: #177875"/>
   </g>
   <g id="patch_34">
    <path d="M 311.65 378.441938 
L 325.537864 378.441938 
L 325.537864 380.138402 
L 345.555783 378.441938 
L 361.683253 378.441938 
L 335.743078 380.643456 
L 364.35 383.090029 
L 346.964195 383.090029 
L 325.537864 381.259084 
L 325.537864 383.090029 
L 311.65 383.090029 
L 311.65 378.441938 
z
" clip-path="url(#pb753963e09)" style="fill: #bd2e1f"/>
   </g>
   <g id="patch_35">
    <path d="M 333.032787 197.531355 
Q 337.762274 197.531355 339.814221 188.225357 
Q 341.866168 178.852887 341.866168 157.44909 
Q 341.866168 136.244708 339.814221 127.138123 
Q 337.762274 117.965067 333.032787 117.965067 
L 326.701781 117.965067 
L 326.701781 197.531355 
L 333.032787 197.531355 
z
M 326.701781 252.769104 
L 326.701781 370.157629 
L 311.65 370.157629 
L 311.65 60.00199 
L 334.634307 60.00199 
Q 346.170252 60.00199 351.537844 80.60813 
Q 356.917949 101.147799 356.917949 145.617178 
Q 356.917949 176.326973 354.11529 196.068984 
Q 351.325142 215.810996 345.694801 225.183466 
Q 348.785233 228.905865 351.225047 242.133677 
Q 353.677374 255.295018 356.179748 282.083 
L 364.35 370.157629 
L 348.322293 370.157629 
L 341.203039 293.117255 
Q 339.050997 269.852259 336.836396 261.343917 
Q 334.634307 252.769104 330.955817 252.769104 
L 326.701781 252.769104 
z
" clip-path="url(#pb753963e09)" style="fill: #bd2e1f"/>
   </g>
   <g id="patch_36">
    <path d="M 373.65 383.309397 
L 425.253077 383.309397 
L 425.253077 383.531843 
L 392.774615 383.531843 
L 392.774615 383.744023 
L 423.329487 383.744023 
L 423.329487 383.966469 
L 392.774615 383.966469 
L 392.774615 384.227783 
L 426.35 384.227783 
L 426.35 384.449985 
L 373.65 384.449985 
L 373.65 383.309397 
z
" clip-path="url(#pb753963e09)" style="fill: #6b296b"/>
   </g>
   <g id="patch_37">
    <path d="M 401.405333 382.996999 
L 400.373292 382.996999 
Q 387.714313 382.996999 380.676667 382.817045 
Q 373.65 382.636809 373.65 382.315605 
Q 373.65 381.994966 380.665687 381.813317 
Q 387.681375 381.631386 400 381.631386 
Q 412.450375 381.631386 419.400188 381.811622 
Q 426.35 381.991576 426.35 382.315605 
Q 426.35 382.537934 422.661 382.698677 
Q 418.972 382.85942 412.044146 382.940498 
L 422.364563 383.237125 
L 409.771458 383.237125 
L 401.405333 382.996999 
z
M 400 381.877728 
Q 393.961458 381.877728 390.634771 381.992423 
Q 387.308083 382.107119 387.308083 382.315605 
Q 387.308083 382.527481 390.557917 382.640199 
Q 393.818729 382.752635 400 382.752635 
Q 406.071479 382.752635 409.398167 382.637939 
Q 412.724854 382.522961 412.724854 382.315605 
Q 412.724854 382.107119 409.398167 381.992423 
Q 406.071479 381.877728 400 381.877728 
z
" clip-path="url(#pb753963e09)" style="fill: #40ba47"/>
   </g>
   <g id="patch_38">
    <path d="M 421.955948 367.280028 
L 421.955948 370.26424 
Q 416.459804 369.744721 411.221293 369.481942 
Q 405.997094 369.216141 401.34541 369.216141 
Q 395.176562 369.216141 392.213797 369.575576 
Q 389.265345 369.93199 389.265345 370.687104 
Q 389.265345 371.254951 391.254834 371.572099 
Q 393.244324 371.886226 398.482835 372.112761 
L 405.811027 372.423868 
Q 416.946442 372.89808 421.641065 373.861606 
Q 426.35 374.822112 426.35 376.598141 
Q 426.35 378.926914 419.794704 380.065627 
Q 413.239408 381.20434 399.770994 381.20434 
Q 393.430391 381.20434 387.032537 380.947601 
Q 380.634682 380.693882 374.236828 380.192486 
L 374.236828 377.126721 
Q 380.634682 377.84257 386.60315 378.208045 
Q 392.571619 378.5705 398.125014 378.5705 
Q 403.764286 378.5705 406.755676 378.17482 
Q 409.747067 377.77612 409.747067 377.039128 
Q 409.747067 376.380668 407.714639 376.021234 
Q 405.682211 375.661799 399.59924 375.377876 
L 392.929441 375.066769 
Q 382.910429 374.6137 378.273058 373.62299 
Q 373.65 372.632279 373.65 370.952905 
Q 373.65 368.847645 380.090793 367.714974 
Q 386.531586 366.582302 398.611651 366.582302 
Q 404.122108 366.582302 409.933134 366.757488 
Q 415.744161 366.932675 421.955948 367.280028 
z
" clip-path="url(#pb753963e09)" style="fill: #40ba47"/>
   </g>
   <g id="patch_39">
    <path d="M 410.155336 358.926776 
L 389.887763 358.926776 
L 386.68762 365.279769 
L 373.65 365.279769 
L 392.269015 330.405573 
L 407.730985 330.405573 
L 426.35 365.279769 
L 413.323155 365.279769 
L 410.155336 358.926776 
z
M 393.120231 352.454197 
L 406.890544 352.454197 
L 400.016162 338.582249 
L 393.120231 352.454197 
z
" clip-path="url(#pb753963e09)" style="fill: #21599c"/>
   </g>
   <g id="patch_40">
    <path d="M 426.35 325.16134 
Q 421.035119 326.837163 415.318669 327.678901 
Q 409.602219 328.512986 403.507822 328.512986 
Q 389.736374 328.512986 381.693187 323.523778 
Q 373.65 318.534571 373.65 310.002413 
Q 373.65 301.370778 381.834917 296.419831 
Q 390.031645 291.468884 404.287338 291.468884 
Q 409.779381 291.468884 414.810802 292.142274 
Q 419.854034 292.808012 424.318534 294.124183 
L 424.318534 301.508517 
Q 419.712304 299.817389 415.153317 298.983304 
Q 410.59433 298.141566 406.011721 298.141566 
Q 397.531533 298.141566 392.937113 301.217734 
Q 388.342694 304.28625 388.342694 310.002413 
Q 388.342694 315.665011 392.771762 318.756483 
Q 397.200829 321.840303 405.350314 321.840303 
Q 407.570753 321.840303 409.472299 321.664304 
Q 411.373846 321.480652 412.885634 321.098044 
L 412.885634 314.165188 
L 404.204662 314.165188 
L 404.204662 307.989895 
L 426.35 307.989895 
L 426.35 325.16134 
z
" clip-path="url(#pb753963e09)" style="fill: #787800"/>
   </g>
   <g id="patch_41">
    <path d="M 435.65 383.279478 
L 488.35 383.279478 
L 488.35 383.50761 
L 469.390256 383.50761 
L 469.390256 384.449217 
L 454.646512 384.449217 
L 454.646512 383.50761 
L 435.65 383.50761 
L 435.65 383.279478 
z
" clip-path="url(#pb753963e09)" style="fill: #40ba47"/>
   </g>
   <g id="patch_42">
    <path d="M 435.65 380.958385 
L 452.578032 380.958385 
L 473.968106 382.488833 
L 473.968106 380.958385 
L 488.35 380.958385 
L 488.35 383.189969 
L 471.409364 383.189969 
L 450.01929 381.659521 
L 450.01929 383.189969 
L 435.65 383.189969 
L 435.65 380.958385 
z
" clip-path="url(#pb753963e09)" style="fill: #40ba47"/>
   </g>
   <g id="patch_43">
    <path d="M 463.405333 380.253314 
L 462.373292 380.253314 
Q 449.714313 380.253314 442.676667 379.841418 
Q 435.65 379.428877 435.65 378.693673 
Q 435.65 377.959762 442.665687 377.543987 
Q 449.681375 377.127566 462 377.127566 
Q 474.450375 377.127566 481.400187 377.540108 
Q 488.35 377.952003 488.35 378.693673 
Q 488.35 379.202561 484.661 379.570486 
Q 480.972 379.938411 474.044146 380.12399 
L 484.364562 380.802938 
L 471.771458 380.802938 
L 463.405333 380.253314 
z
M 462 377.691416 
Q 455.961458 377.691416 452.634771 377.953943 
Q 449.308083 378.216469 449.308083 378.693673 
Q 449.308083 379.178636 452.557917 379.436636 
Q 455.818729 379.69399 462 379.69399 
Q 468.071479 379.69399 471.398167 379.431463 
Q 474.724854 379.16829 474.724854 378.693673 
Q 474.724854 378.216469 471.398167 377.953943 
Q 468.071479 377.691416 462 377.691416 
z
" clip-path="url(#pb753963e09)" style="fill: #40ba47"/>
   </g>
   <g id="patch_44">
    <path d="M 472.155336 374.322589 
L 451.887763 374.322589 
L 448.68762 376.688998 
L 435.65 376.688998 
L 454.269015 363.698802 
L 469.730985 363.698802 
L 488.35 376.688998 
L 475.323155 376.688998 
L 472.155336 374.322589 
z
M 455.120231 371.911635 
L 468.890544 371.911635 
L 462.016162 366.74451 
L 455.120231 371.911635 
z
" clip-path="url(#pb753963e09)" style="fill: #21599c"/>
   </g>
   <g id="patch_45">
    <path d="M 488.35 361.082232 
Q 483.035119 361.963323 477.318669 362.40588 
Q 471.602219 362.844414 465.507822 362.844414 
Q 451.736374 362.844414 443.693187 360.221257 
Q 435.65 357.5981 435.65 353.112178 
Q 435.65 348.573955 443.834917 345.970914 
Q 452.031645 343.367873 466.287338 343.367873 
Q 471.779381 343.367873 476.810802 343.721919 
Q 481.854034 344.071941 486.318534 344.76394 
L 486.318534 348.646374 
Q 481.712304 347.757236 477.153317 347.318702 
Q 472.59433 346.876145 468.011721 346.876145 
Q 459.531533 346.876145 454.937113 348.49349 
Q 450.342694 350.106812 450.342694 353.112178 
Q 450.342694 356.089382 454.771762 357.714774 
Q 459.200829 359.336143 467.350314 359.336143 
Q 469.570753 359.336143 471.472299 359.243608 
Q 473.373846 359.14705 474.885634 358.945888 
L 474.885634 355.300825 
L 466.204662 355.300825 
L 466.204662 352.054064 
L 488.35 352.054064 
L 488.35 361.082232 
z
" clip-path="url(#pb753963e09)" style="fill: #787800"/>
   </g>
   <g id="patch_46">
    <path d="M 435.65 318.595546 
L 463.043021 318.595546 
Q 475.271068 318.595546 481.803672 320.601663 
Q 488.35 322.602715 488.35 326.305927 
Q 488.35 330.029404 481.803672 332.030455 
Q 475.271068 334.031507 463.043021 334.031507 
L 452.159922 334.031507 
L 452.159922 342.233286 
L 435.65 342.233286 
L 435.65 318.595546 
z
M 452.159922 323.013057 
L 452.159922 329.613995 
L 461.286354 329.613995 
Q 466.08974 329.613995 468.711016 328.752783 
Q 471.332292 327.891571 471.332292 326.305927 
Q 471.332292 324.72535 468.711016 323.869204 
Q 466.08974 323.013057 461.286354 323.013057 
L 452.159922 323.013057 
z
" clip-path="url(#pb753963e09)" style="fill: #787800"/>
   </g>
   <g id="patch_47">
    <path d="M 550.35 384.408549 
Q 545.035119 384.436225 539.318669 384.450126 
Q 533.602219 384.463901 527.507822 384.463901 
Q 513.736374 384.463901 505.693187 384.381505 
Q 497.65 384.299109 497.65 384.158202 
Q 497.65 384.015652 505.834917 383.933887 
Q 514.031645 383.852123 528.287338 383.852123 
Q 533.779381 383.852123 538.810802 383.863244 
Q 543.854034 383.874239 548.318534 383.895975 
L 548.318534 384.017926 
Q 543.712304 383.989998 539.153317 383.976223 
Q 534.59433 383.962322 530.011721 383.962322 
Q 521.531533 383.962322 516.937113 384.013124 
Q 512.342694 384.0638 512.342694 384.158202 
Q 512.342694 384.251718 516.771762 384.302774 
Q 521.200829 384.353702 529.350314 384.353702 
Q 531.570753 384.353702 533.472299 384.350796 
Q 535.373846 384.347763 536.885634 384.341444 
L 536.885634 384.226949 
L 528.204662 384.226949 
L 528.204662 384.124965 
L 550.35 384.124965 
L 550.35 384.408549 
z
" clip-path="url(#pb753963e09)" style="fill: #787800"/>
   </g>
   <g id="patch_48">
    <path d="M 497.65 382.121688 
L 550.35 382.121688 
L 550.35 382.447458 
L 531.390256 382.447458 
L 531.390256 383.792067 
L 516.646512 383.792067 
L 516.646512 382.447458 
L 497.65 382.447458 
L 497.65 382.121688 
z
" clip-path="url(#pb753963e09)" style="fill: #40ba47"/>
   </g>
   <g id="patch_49">
    <path d="M 534.155336 381.43796 
L 513.887763 381.43796 
L 510.68762 381.996976 
L 497.65 381.996976 
L 516.269015 378.928304 
L 531.730985 378.928304 
L 550.35 381.996976 
L 537.323155 381.996976 
L 534.155336 381.43796 
z
M 517.120231 380.86842 
L 530.890544 380.86842 
L 524.016162 379.647791 
L 517.120231 380.86842 
z
" clip-path="url(#pb753963e09)" style="fill: #21599c"/>
   </g>
   <g id="patch_50">
    <path d="M 497.65 370.714603 
L 511.537864 370.714603 
L 511.537864 373.60686 
L 531.555783 370.714603 
L 547.683253 370.714603 
L 521.743078 374.467913 
L 550.35 378.639013 
L 532.964195 378.639013 
L 511.537864 375.517481 
L 511.537864 378.639013 
L 497.65 378.639013 
L 497.65 370.714603 
z
" clip-path="url(#pb753963e09)" style="fill: #bd2e1f"/>
   </g>
   <g id="patch_51">
    <path d="M 497.65 358.218483 
L 549.253077 358.218483 
L 549.253077 360.553457 
L 516.774615 360.553457 
L 516.774615 362.780664 
L 547.329487 362.780664 
L 547.329487 365.115638 
L 516.774615 365.115638 
L 516.774615 367.858591 
L 550.35 367.858591 
L 550.35 370.191 
L 497.65 370.191 
L 497.65 358.218483 
z
" clip-path="url(#pb753963e09)" style="fill: #6b296b"/>
   </g>
   <g id="patch_52">
    <path d="M 545.955948 344.424604 
L 545.955948 347.235657 
Q 540.459804 346.746283 535.221293 346.498751 
Q 529.997094 346.248374 525.34541 346.248374 
Q 519.176562 346.248374 516.213797 346.586952 
Q 513.265345 346.922685 513.265345 347.633984 
Q 513.265345 348.168881 515.254834 348.467626 
Q 517.244324 348.763527 522.482835 348.976916 
L 529.811027 349.269971 
Q 540.946442 349.716667 545.641065 350.624284 
Q 550.35 351.529056 550.35 353.202031 
Q 550.35 355.395677 543.794704 356.468315 
Q 537.239408 357.540954 523.770994 357.540954 
Q 517.430391 357.540954 511.032537 357.299112 
Q 504.634682 357.060116 498.236828 356.587813 
L 498.236828 353.69994 
Q 504.634682 354.374252 510.60315 354.71852 
Q 516.571619 355.059944 522.125014 355.059944 
Q 527.764286 355.059944 530.755676 354.687223 
Q 533.747067 354.311657 533.747067 353.61743 
Q 533.747067 352.997177 531.714639 352.658599 
Q 529.682211 352.320021 523.59924 352.052572 
L 516.929441 351.759517 
Q 506.910429 351.332738 502.273058 350.399514 
Q 497.65 349.46629 497.65 347.884361 
Q 497.65 345.90126 504.090793 344.834312 
Q 510.531586 343.767364 522.611651 343.767364 
Q 528.122108 343.767364 533.933134 343.932385 
Q 539.744161 344.097406 545.955948 344.424604 
z
" clip-path="url(#pb753963e09)" style="fill: #40ba47"/>
   </g>
   <g id="patch_53">
    <path d="M 497.65 323.490552 
L 525.043021 323.490552 
Q 537.271068 323.490552 543.803672 325.137332 
Q 550.35 326.779953 550.35 329.819843 
Q 550.35 332.876366 543.803672 334.518987 
Q 537.271068 336.161608 525.043021 336.161608 
L 514.159922 336.161608 
L 514.159922 342.894277 
L 497.65 342.894277 
L 497.65 323.490552 
z
M 514.159922 327.116795 
L 514.159922 332.535366 
L 523.286354 332.535366 
Q 528.08974 332.535366 530.711016 331.828415 
Q 533.332292 331.121464 533.332292 329.819843 
Q 533.332292 328.52238 530.711016 327.819587 
Q 528.08974 327.116795 523.286354 327.116795 
L 514.159922 327.116795 
z
" clip-path="url(#pb753963e09)" style="fill: #787800"/>
   </g>
   <g id="patch_54">
    <path d="M 559.65 384.353553 
L 576.578032 384.353553 
L 597.968106 384.438048 
L 597.968106 384.353553 
L 612.35 384.353553 
L 612.35 384.476758 
L 595.409364 384.476758 
L 574.01929 384.392263 
L 574.01929 384.476758 
L 559.65 384.476758 
L 559.65 384.353553 
z
" clip-path="url(#pb753963e09)" style="fill: #40ba47"/>
   </g>
   <g id="patch_55">
    <path d="M 596.155336 384.274515 
L 575.887763 384.274515 
L 572.68762 384.340744 
L 559.65 384.340744 
L 578.269015 383.977188 
L 593.730985 383.977188 
L 612.35 384.340744 
L 599.323155 384.340744 
L 596.155336 384.274515 
z
M 579.120231 384.20704 
L 592.890544 384.20704 
L 586.016162 384.062428 
L 579.120231 384.20704 
z
" clip-path="url(#pb753963e09)" style="fill: #21599c"/>
   </g>
   <g id="patch_56">
    <path d="M 576.437692 383.573274 
L 595.562308 383.573274 
L 595.562308 383.95751 
L 576.437692 383.95751 
L 576.437692 383.573274 
z
" clip-path="url(#pb753963e09)" style="fill: #21599c"/>
   </g>
   <g id="patch_57">
    <path d="M 607.955948 383.091021 
L 607.955948 383.189488 
Q 602.459804 383.172346 597.221293 383.163675 
Q 591.997094 383.154905 587.34541 383.154905 
Q 581.176562 383.154905 578.213797 383.166765 
Q 575.265345 383.178525 575.265345 383.203441 
Q 575.265345 383.222177 577.254834 383.232642 
Q 579.244324 383.243007 584.482835 383.250481 
L 591.811027 383.260747 
Q 602.946442 383.276394 607.641065 383.308186 
Q 612.35 383.339879 612.35 383.398481 
Q 612.35 383.475321 605.794704 383.512893 
Q 599.239408 383.550466 585.770994 383.550466 
Q 579.430391 383.550466 573.032537 383.541995 
Q 566.634682 383.533623 560.236828 383.517079 
L 560.236828 383.415922 
Q 566.634682 383.439542 572.60315 383.451601 
Q 578.571619 383.46356 584.125014 383.46356 
Q 589.764286 383.46356 592.755676 383.450505 
Q 595.747067 383.437349 595.747067 383.413031 
Q 595.747067 383.391305 593.714639 383.379445 
Q 591.682211 383.367585 585.59924 383.358217 
L 578.929441 383.347952 
Q 568.910429 383.333002 564.273058 383.300313 
Q 559.65 383.267623 559.65 383.212211 
Q 559.65 383.142746 566.090793 383.105372 
Q 572.531586 383.067999 584.611651 383.067999 
Q 590.122108 383.067999 595.933134 383.073779 
Q 601.744161 383.07956 607.955948 383.091021 
z
" clip-path="url(#pb753963e09)" style="fill: #40ba47"/>
   </g>
   <g id="patch_58">
    <path d="M 574.091481 382.069616 
L 574.091481 382.793102 
L 579.265444 382.793102 
Q 588.112802 382.793102 592.782574 382.700093 
Q 597.464351 382.607084 597.464351 382.429961 
Q 597.464351 382.253855 592.806583 382.161862 
Q 588.16082 382.069616 579.265444 382.069616 
L 574.091481 382.069616 
z
M 559.65 381.838365 
L 574.871777 381.838365 
Q 587.63262 381.838365 593.874989 381.876991 
Q 600.117358 381.915364 604.583052 382.00761 
Q 608.520547 382.087913 610.429271 382.192865 
Q 612.35 382.297564 612.35 382.429961 
Q 612.35 382.564392 610.429271 382.669598 
Q 608.520547 382.774805 604.583052 382.854854 
Q 600.081344 382.9471 593.778952 382.985726 
Q 587.47656 383.024099 574.871777 383.024099 
L 559.65 383.024099 
L 559.65 381.838365 
z
" clip-path="url(#pb753963e09)" style="fill: #6b296b"/>
   </g>
   <g id="patch_59">
    <path d="M 559.65 380.286443 
L 611.253077 380.286443 
L 611.253077 380.575421 
L 578.774615 380.575421 
L 578.774615 380.851061 
L 609.329487 380.851061 
L 609.329487 381.140039 
L 578.774615 381.140039 
L 578.774615 381.479508 
L 612.35 381.479508 
L 612.35 381.768169 
L 559.65 381.768169 
L 559.65 380.286443 
z
" clip-path="url(#pb753963e09)" style="fill: #6b296b"/>
   </g>
   <g id="patch_60">
    <path d="M 559.65 376.609655 
L 568.762642 376.609655 
L 575.132798 379.185622 
L 581.455534 376.609655 
L 590.615597 376.609655 
L 596.938332 379.185622 
L 603.316392 376.609655 
L 612.35 376.609655 
L 603.656239 380.154174 
L 592.694196 380.154174 
L 586 377.459701 
L 579.384838 380.154174 
L 568.414892 380.154174 
L 559.65 376.609655 
z
" clip-path="url(#pb753963e09)" style="fill: #21599c"/>
   </g>
   <g id="patch_61">
    <path d="M 612.35 375.506813 
Q 607.035119 375.897858 601.318669 376.094273 
Q 595.602219 376.288903 589.507822 376.288903 
Q 575.736374 376.288903 567.693187 375.124696 
Q 559.65 373.960489 559.65 371.969552 
Q 559.65 369.955402 567.834917 368.800124 
Q 576.031645 367.644845 590.287338 367.644845 
Q 595.779381 367.644845 600.810802 367.801977 
Q 605.854034 367.957323 610.318534 368.264445 
L 610.318534 369.987543 
Q 605.712304 369.592927 601.153317 369.398297 
Q 596.59433 369.201882 592.011721 369.201882 
Q 583.531533 369.201882 578.937113 369.919691 
Q 574.342694 370.635714 574.342694 371.969552 
Q 574.342694 373.290891 578.771762 374.012271 
Q 583.200829 374.731865 591.350314 374.731865 
Q 593.570753 374.731865 595.472299 374.690796 
Q 597.373846 374.647942 598.885634 374.558662 
L 598.885634 372.940915 
L 590.204662 372.940915 
L 590.204662 371.499941 
L 612.35 371.499941 
L 612.35 375.506813 
z
" clip-path="url(#pb753963e09)" style="fill: #787800"/>
   </g>
   <g id="patch_62">
    <path d="M 559.65 356.391513 
L 587.043021 356.391513 
Q 599.271068 356.391513 605.803672 357.303275 
Q 612.35 358.212735 612.35 359.895812 
Q 612.35 361.588099 605.803672 362.497559 
Q 599.271068 363.407019 587.043021 363.407019 
L 576.159922 363.407019 
L 576.159922 367.134655 
L 559.65 367.134655 
L 559.65 356.391513 
z
M 576.159922 358.399232 
L 576.159922 361.3993 
L 585.286354 361.3993 
Q 590.08974 361.3993 592.711016 361.007887 
Q 595.332292 360.616473 595.332292 359.895812 
Q 595.332292 359.177454 592.711016 358.788343 
Q 590.08974 358.399232 585.286354 358.399232 
L 576.159922 358.399232 
z
" clip-path="url(#pb753963e09)" style="fill: #787800"/>
   </g>
   <g id="patch_63">
    <path d="M 587.405333 352.494442 
L 586.373292 352.494442 
Q 573.714313 352.494442 566.676667 350.191127 
Q 559.65 347.884197 559.65 343.772943 
Q 559.65 339.66892 566.665687 337.34391 
Q 573.681375 335.015285 586 335.015285 
Q 598.450375 335.015285 605.400187 337.322215 
Q 612.35 339.62553 612.35 343.772943 
Q 612.35 346.618639 608.661 348.676074 
Q 604.972 350.733509 598.044146 351.771266 
L 608.364562 355.567939 
L 595.771458 355.567939 
L 587.405333 352.494442 
z
M 586 338.168331 
Q 579.961458 338.168331 576.634771 339.636378 
Q 573.308083 341.104424 573.308083 343.772943 
Q 573.308083 346.484852 576.557917 347.927587 
Q 579.818729 349.366707 586 349.366707 
Q 592.071479 349.366707 595.398167 347.89866 
Q 598.724854 346.426998 598.724854 343.772943 
Q 598.724854 341.104424 595.398167 339.636378 
Q 592.071479 338.168331 586 338.168331 
z
" clip-path="url(#pb753963e09)" style="fill: #40ba47"/>
   </g>
   <g id="matplotlib.axis_1">
    <g id="xtick_1">
     <g id="line2d_2">
      <defs>
       <path id="m40dc2035ba" d="M 0 0 
L 0 4.8 
" style="stroke: #262626"/>
      </defs>
      <g>
       <use xlink:href="#m40dc2035ba" x="152" y="384.48" style="fill: #262626; stroke: #262626"/>
      </g>
     </g>
     <g id="text_1">
      <!-- P4 -->
      <g style="fill: #262626" transform="translate(146.61825 399.078875) scale(0.088 -0.088)">
       <defs>
        <path id="ArialMT-50" d="M 494 0 
L 494 4581 
L 2222 4581 
Q 2678 4581 2919 4538 
Q 3256 4481 3484 4323 
Q 3713 4166 3852 3881 
Q 3991 3597 3991 3256 
Q 3991 2672 3619 2267 
Q 3247 1863 2275 1863 
L 1100 1863 
L 1100 0 
L 494 0 
z
M 1100 2403 
L 2284 2403 
Q 2872 2403 3119 2622 
Q 3366 2841 3366 3238 
Q 3366 3525 3220 3729 
Q 3075 3934 2838 4000 
Q 2684 4041 2272 4041 
L 1100 4041 
L 1100 2403 
z
" transform="scale(0.015625)"/>
        <path id="ArialMT-34" d="M 2069 0 
L 2069 1097 
L 81 1097 
L 81 1613 
L 2172 4581 
L 2631 4581 
L 2631 1613 
L 3250 1613 
L 3250 1097 
L 2631 1097 
L 2631 0 
L 2069 0 
z
M 2069 1613 
L 2069 3678 
L 634 1613 
L 2069 1613 
z
" transform="scale(0.015625)"/>
       </defs>
       <use xlink:href="#ArialMT-50"/>
       <use xlink:href="#ArialMT-34" x="66.699219"/>
      </g>
     </g>
    </g>
    <g id="xtick_2">
     <g id="line2d_3">
      <g>
       <use xlink:href="#m40dc2035ba" x="214" y="384.48" style="fill: #262626; stroke: #262626"/>
      </g>
     </g>
     <g id="text_2">
      <!-- P3 -->
      <g style="fill: #262626" transform="translate(208.61825 399.078875) scale(0.088 -0.088)">
       <defs>
        <path id="ArialMT-33" d="M 269 1209 
L 831 1284 
Q 928 806 1161 595 
Q 1394 384 1728 384 
Q 2125 384 2398 659 
Q 2672 934 2672 1341 
Q 2672 1728 2419 1979 
Q 2166 2231 1775 2231 
Q 1616 2231 1378 2169 
L 1441 2663 
Q 1497 2656 1531 2656 
Q 1891 2656 2178 2843 
Q 2466 3031 2466 3422 
Q 2466 3731 2256 3934 
Q 2047 4138 1716 4138 
Q 1388 4138 1169 3931 
Q 950 3725 888 3313 
L 325 3413 
Q 428 3978 793 4289 
Q 1159 4600 1703 4600 
Q 2078 4600 2393 4439 
Q 2709 4278 2876 4000 
Q 3044 3722 3044 3409 
Q 3044 3113 2884 2869 
Q 2725 2625 2413 2481 
Q 2819 2388 3044 2092 
Q 3269 1797 3269 1353 
Q 3269 753 2831 336 
Q 2394 -81 1725 -81 
Q 1122 -81 723 278 
Q 325 638 269 1209 
z
" transform="scale(0.015625)"/>
       </defs>
       <use xlink:href="#ArialMT-50"/>
       <use xlink:href="#ArialMT-33" x="66.699219"/>
      </g>
     </g>
    </g>
    <g id="xtick_3">
     <g id="line2d_4">
      <g>
       <use xlink:href="#m40dc2035ba" x="276" y="384.48" style="fill: #262626; stroke: #262626"/>
      </g>
     </g>
     <g id="text_3">
      <!-- P2 -->
      <g style="fill: #262626" transform="translate(270.61825 399.078875) scale(0.088 -0.088)">
       <defs>
        <path id="ArialMT-32" d="M 3222 541 
L 3222 0 
L 194 0 
Q 188 203 259 391 
Q 375 700 629 1000 
Q 884 1300 1366 1694 
Q 2113 2306 2375 2664 
Q 2638 3022 2638 3341 
Q 2638 3675 2398 3904 
Q 2159 4134 1775 4134 
Q 1369 4134 1125 3890 
Q 881 3647 878 3216 
L 300 3275 
Q 359 3922 746 4261 
Q 1134 4600 1788 4600 
Q 2447 4600 2831 4234 
Q 3216 3869 3216 3328 
Q 3216 3053 3103 2787 
Q 2991 2522 2730 2228 
Q 2469 1934 1863 1422 
Q 1356 997 1212 845 
Q 1069 694 975 541 
L 3222 541 
z
" transform="scale(0.015625)"/>
       </defs>
       <use xlink:href="#ArialMT-50"/>
       <use xlink:href="#ArialMT-32" x="66.699219"/>
      </g>
     </g>
    </g>
    <g id="xtick_4">
     <g id="line2d_5">
      <g>
       <use xlink:href="#m40dc2035ba" x="338" y="384.48" style="fill: #262626; stroke: #262626"/>
      </g>
     </g>
     <g id="text_4">
      <!-- P1 -->
      <g style="fill: #262626" transform="translate(332.61825 399.078875) scale(0.088 -0.088)">
       <defs>
        <path id="ArialMT-31" d="M 2384 0 
L 1822 0 
L 1822 3584 
Q 1619 3391 1289 3197 
Q 959 3003 697 2906 
L 697 3450 
Q 1169 3672 1522 3987 
Q 1875 4303 2022 4600 
L 2384 4600 
L 2384 0 
z
" transform="scale(0.015625)"/>
       </defs>
       <use xlink:href="#ArialMT-50"/>
       <use xlink:href="#ArialMT-31" x="66.699219"/>
      </g>
     </g>
    </g>
    <g id="xtick_5">
     <g id="line2d_6">
      <g>
       <use xlink:href="#m40dc2035ba" x="400" y="384.48" style="fill: #262626; stroke: #262626"/>
      </g>
     </g>
     <g id="text_5">
      <!-- P1' -->
      <g style="fill: #262626" transform="translate(393.778125 399.078875) scale(0.088 -0.088)">
       <defs>
        <path id="ArialMT-27" d="M 425 2959 
L 281 3816 
L 281 4581 
L 922 4581 
L 922 3816 
L 772 2959 
L 425 2959 
z
" transform="scale(0.015625)"/>
       </defs>
       <use xlink:href="#ArialMT-50"/>
       <use xlink:href="#ArialMT-31" x="66.699219"/>
       <use xlink:href="#ArialMT-27" x="122.314453"/>
      </g>
     </g>
    </g>
    <g id="xtick_6">
     <g id="line2d_7">
      <g>
       <use xlink:href="#m40dc2035ba" x="462" y="384.48" style="fill: #262626; stroke: #262626"/>
      </g>
     </g>
     <g id="text_6">
      <!-- P2' -->
      <g style="fill: #262626" transform="translate(455.778125 399.078875) scale(0.088 -0.088)">
       <use xlink:href="#ArialMT-50"/>
       <use xlink:href="#ArialMT-32" x="66.699219"/>
       <use xlink:href="#ArialMT-27" x="122.314453"/>
      </g>
     </g>
    </g>
    <g id="xtick_7">
     <g id="line2d_8">
      <g>
       <use xlink:href="#m40dc2035ba" x="524" y="384.48" style="fill: #262626; stroke: #262626"/>
      </g>
     </g>
     <g id="text_7">
      <!-- P3' -->
      <g style="fill: #262626" transform="translate(517.778125 399.078875) scale(0.088 -0.088)">
       <use xlink:href="#ArialMT-50"/>
       <use xlink:href="#ArialMT-33" x="66.699219"/>
       <use xlink:href="#ArialMT-27" x="122.314453"/>
      </g>
     </g>
    </g>
    <g id="xtick_8">
     <g id="line2d_9">
      <g>
       <use xlink:href="#m40dc2035ba" x="586" y="384.48" style="fill: #262626; stroke: #262626"/>
      </g>
     </g>
     <g id="text_8">
      <!-- P4' -->
      <g style="fill: #262626" transform="translate(579.778125 399.078875) scale(0.088 -0.088)">
       <use xlink:href="#ArialMT-50"/>
       <use xlink:href="#ArialMT-34" x="66.699219"/>
       <use xlink:href="#ArialMT-27" x="122.314453"/>
      </g>
     </g>
    </g>
   </g>
   <g id="matplotlib.axis_2">
    <g id="ytick_1">
     <g id="line2d_10">
      <defs>
       <path id="maac836637e" d="M 0 0 
L -4.8 0 
" style="stroke: #262626"/>
      </defs>
      <g>
       <use xlink:href="#maac836637e" x="90" y="384.48" style="fill: #262626; stroke: #262626"/>
      </g>
     </g>
     <g id="text_9">
      <!-- 0.0 -->
      <g style="fill: #262626" transform="translate(69.468 387.629437) scale(0.088 -0.088)">
       <defs>
        <path id="ArialMT-30" d="M 266 2259 
Q 266 3072 433 3567 
Q 600 4063 929 4331 
Q 1259 4600 1759 4600 
Q 2128 4600 2406 4451 
Q 2684 4303 2865 4023 
Q 3047 3744 3150 3342 
Q 3253 2941 3253 2259 
Q 3253 1453 3087 958 
Q 2922 463 2592 192 
Q 2263 -78 1759 -78 
Q 1097 -78 719 397 
Q 266 969 266 2259 
z
M 844 2259 
Q 844 1131 1108 757 
Q 1372 384 1759 384 
Q 2147 384 2411 759 
Q 2675 1134 2675 2259 
Q 2675 3391 2411 3762 
Q 2147 4134 1753 4134 
Q 1366 4134 1134 3806 
Q 844 3388 844 2259 
z
" transform="scale(0.015625)"/>
        <path id="ArialMT-2e" d="M 581 0 
L 581 641 
L 1222 641 
L 1222 0 
L 581 0 
z
" transform="scale(0.015625)"/>
       </defs>
       <use xlink:href="#ArialMT-30"/>
       <use xlink:href="#ArialMT-2e" x="55.615234"/>
       <use xlink:href="#ArialMT-30" x="83.398438"/>
      </g>
     </g>
    </g>
    <g id="ytick_2">
     <g id="line2d_11">
      <g>
       <use xlink:href="#maac836637e" x="90" y="314.415956" style="fill: #262626; stroke: #262626"/>
      </g>
     </g>
     <g id="text_10">
      <!-- 0.5 -->
      <g style="fill: #262626" transform="translate(69.468 317.565394) scale(0.088 -0.088)">
       <defs>
        <path id="ArialMT-35" d="M 266 1200 
L 856 1250 
Q 922 819 1161 601 
Q 1400 384 1738 384 
Q 2144 384 2425 690 
Q 2706 997 2706 1503 
Q 2706 1984 2436 2262 
Q 2166 2541 1728 2541 
Q 1456 2541 1237 2417 
Q 1019 2294 894 2097 
L 366 2166 
L 809 4519 
L 3088 4519 
L 3088 3981 
L 1259 3981 
L 1013 2750 
Q 1425 3038 1878 3038 
Q 2478 3038 2890 2622 
Q 3303 2206 3303 1553 
Q 3303 931 2941 478 
Q 2500 -78 1738 -78 
Q 1113 -78 717 272 
Q 322 622 266 1200 
z
" transform="scale(0.015625)"/>
       </defs>
       <use xlink:href="#ArialMT-30"/>
       <use xlink:href="#ArialMT-2e" x="55.615234"/>
       <use xlink:href="#ArialMT-35" x="83.398438"/>
      </g>
     </g>
    </g>
    <g id="ytick_3">
     <g id="line2d_12">
      <g>
       <use xlink:href="#maac836637e" x="90" y="244.351912" style="fill: #262626; stroke: #262626"/>
      </g>
     </g>
     <g id="text_11">
      <!-- 1.0 -->
      <g style="fill: #262626" transform="translate(69.468 247.50135) scale(0.088 -0.088)">
       <use xlink:href="#ArialMT-31"/>
       <use xlink:href="#ArialMT-2e" x="55.615234"/>
       <use xlink:href="#ArialMT-30" x="83.398438"/>
      </g>
     </g>
    </g>
    <g id="ytick_4">
     <g id="line2d_13">
      <g>
       <use xlink:href="#maac836637e" x="90" y="174.287868" style="fill: #262626; stroke: #262626"/>
      </g>
     </g>
     <g id="text_12">
      <!-- 1.5 -->
      <g style="fill: #262626" transform="translate(69.468 177.437306) scale(0.088 -0.088)">
       <use xlink:href="#ArialMT-31"/>
       <use xlink:href="#ArialMT-2e" x="55.615234"/>
       <use xlink:href="#ArialMT-35" x="83.398438"/>
      </g>
     </g>
    </g>
    <g id="ytick_5">
     <g id="line2d_14">
      <g>
       <use xlink:href="#maac836637e" x="90" y="104.223825" style="fill: #262626; stroke: #262626"/>
      </g>
     </g>
     <g id="text_13">
      <!-- 2.0 -->
      <g style="fill: #262626" transform="translate(69.468 107.373262) scale(0.088 -0.088)">
       <use xlink:href="#ArialMT-32"/>
       <use xlink:href="#ArialMT-2e" x="55.615234"/>
       <use xlink:href="#ArialMT-30" x="83.398438"/>
      </g>
     </g>
    </g>
    <g id="text_14">
     <!-- information (bits) -->
     <g style="fill: #262626" transform="translate(63.4475 253.902) rotate(-90) scale(0.096 -0.096)">
      <defs>
       <path id="ArialMT-69" d="M 425 3934 
L 425 4581 
L 988 4581 
L 988 3934 
L 425 3934 
z
M 425 0 
L 425 3319 
L 988 3319 
L 988 0 
L 425 0 
z
" transform="scale(0.015625)"/>
       <path id="ArialMT-6e" d="M 422 0 
L 422 3319 
L 928 3319 
L 928 2847 
Q 1294 3394 1984 3394 
Q 2284 3394 2536 3286 
Q 2788 3178 2913 3003 
Q 3038 2828 3088 2588 
Q 3119 2431 3119 2041 
L 3119 0 
L 2556 0 
L 2556 2019 
Q 2556 2363 2490 2533 
Q 2425 2703 2258 2804 
Q 2091 2906 1866 2906 
Q 1506 2906 1245 2678 
Q 984 2450 984 1813 
L 984 0 
L 422 0 
z
" transform="scale(0.015625)"/>
       <path id="ArialMT-66" d="M 556 0 
L 556 2881 
L 59 2881 
L 59 3319 
L 556 3319 
L 556 3672 
Q 556 4006 616 4169 
Q 697 4388 901 4523 
Q 1106 4659 1475 4659 
Q 1713 4659 2000 4603 
L 1916 4113 
Q 1741 4144 1584 4144 
Q 1328 4144 1222 4034 
Q 1116 3925 1116 3625 
L 1116 3319 
L 1763 3319 
L 1763 2881 
L 1116 2881 
L 1116 0 
L 556 0 
z
" transform="scale(0.015625)"/>
       <path id="ArialMT-6f" d="M 213 1659 
Q 213 2581 725 3025 
Q 1153 3394 1769 3394 
Q 2453 3394 2887 2945 
Q 3322 2497 3322 1706 
Q 3322 1066 3130 698 
Q 2938 331 2570 128 
Q 2203 -75 1769 -75 
Q 1072 -75 642 372 
Q 213 819 213 1659 
z
M 791 1659 
Q 791 1022 1069 705 
Q 1347 388 1769 388 
Q 2188 388 2466 706 
Q 2744 1025 2744 1678 
Q 2744 2294 2464 2611 
Q 2184 2928 1769 2928 
Q 1347 2928 1069 2612 
Q 791 2297 791 1659 
z
" transform="scale(0.015625)"/>
       <path id="ArialMT-72" d="M 416 0 
L 416 3319 
L 922 3319 
L 922 2816 
Q 1116 3169 1280 3281 
Q 1444 3394 1641 3394 
Q 1925 3394 2219 3213 
L 2025 2691 
Q 1819 2813 1613 2813 
Q 1428 2813 1281 2702 
Q 1134 2591 1072 2394 
Q 978 2094 978 1738 
L 978 0 
L 416 0 
z
" transform="scale(0.015625)"/>
       <path id="ArialMT-6d" d="M 422 0 
L 422 3319 
L 925 3319 
L 925 2853 
Q 1081 3097 1340 3245 
Q 1600 3394 1931 3394 
Q 2300 3394 2536 3241 
Q 2772 3088 2869 2813 
Q 3263 3394 3894 3394 
Q 4388 3394 4653 3120 
Q 4919 2847 4919 2278 
L 4919 0 
L 4359 0 
L 4359 2091 
Q 4359 2428 4304 2576 
Q 4250 2725 4106 2815 
Q 3963 2906 3769 2906 
Q 3419 2906 3187 2673 
Q 2956 2441 2956 1928 
L 2956 0 
L 2394 0 
L 2394 2156 
Q 2394 2531 2256 2718 
Q 2119 2906 1806 2906 
Q 1569 2906 1367 2781 
Q 1166 2656 1075 2415 
Q 984 2175 984 1722 
L 984 0 
L 422 0 
z
" transform="scale(0.015625)"/>
       <path id="ArialMT-61" d="M 2588 409 
Q 2275 144 1986 34 
Q 1697 -75 1366 -75 
Q 819 -75 525 192 
Q 231 459 231 875 
Q 231 1119 342 1320 
Q 453 1522 633 1644 
Q 813 1766 1038 1828 
Q 1203 1872 1538 1913 
Q 2219 1994 2541 2106 
Q 2544 2222 2544 2253 
Q 2544 2597 2384 2738 
Q 2169 2928 1744 2928 
Q 1347 2928 1158 2789 
Q 969 2650 878 2297 
L 328 2372 
Q 403 2725 575 2942 
Q 747 3159 1072 3276 
Q 1397 3394 1825 3394 
Q 2250 3394 2515 3294 
Q 2781 3194 2906 3042 
Q 3031 2891 3081 2659 
Q 3109 2516 3109 2141 
L 3109 1391 
Q 3109 606 3145 398 
Q 3181 191 3288 0 
L 2700 0 
Q 2613 175 2588 409 
z
M 2541 1666 
Q 2234 1541 1622 1453 
Q 1275 1403 1131 1340 
Q 988 1278 909 1158 
Q 831 1038 831 891 
Q 831 666 1001 516 
Q 1172 366 1500 366 
Q 1825 366 2078 508 
Q 2331 650 2450 897 
Q 2541 1088 2541 1459 
L 2541 1666 
z
" transform="scale(0.015625)"/>
       <path id="ArialMT-74" d="M 1650 503 
L 1731 6 
Q 1494 -44 1306 -44 
Q 1000 -44 831 53 
Q 663 150 594 308 
Q 525 466 525 972 
L 525 2881 
L 113 2881 
L 113 3319 
L 525 3319 
L 525 4141 
L 1084 4478 
L 1084 3319 
L 1650 3319 
L 1650 2881 
L 1084 2881 
L 1084 941 
Q 1084 700 1114 631 
Q 1144 563 1211 522 
Q 1278 481 1403 481 
Q 1497 481 1650 503 
z
" transform="scale(0.015625)"/>
       <path id="ArialMT-20" transform="scale(0.015625)"/>
       <path id="ArialMT-28" d="M 1497 -1347 
Q 1031 -759 709 28 
Q 388 816 388 1659 
Q 388 2403 628 3084 
Q 909 3875 1497 4659 
L 1900 4659 
Q 1522 4009 1400 3731 
Q 1209 3300 1100 2831 
Q 966 2247 966 1656 
Q 966 153 1900 -1347 
L 1497 -1347 
z
" transform="scale(0.015625)"/>
       <path id="ArialMT-62" d="M 941 0 
L 419 0 
L 419 4581 
L 981 4581 
L 981 2947 
Q 1338 3394 1891 3394 
Q 2197 3394 2470 3270 
Q 2744 3147 2920 2923 
Q 3097 2700 3197 2384 
Q 3297 2069 3297 1709 
Q 3297 856 2875 390 
Q 2453 -75 1863 -75 
Q 1275 -75 941 416 
L 941 0 
z
M 934 1684 
Q 934 1088 1097 822 
Q 1363 388 1816 388 
Q 2184 388 2453 708 
Q 2722 1028 2722 1663 
Q 2722 2313 2464 2622 
Q 2206 2931 1841 2931 
Q 1472 2931 1203 2611 
Q 934 2291 934 1684 
z
" transform="scale(0.015625)"/>
       <path id="ArialMT-73" d="M 197 991 
L 753 1078 
Q 800 744 1014 566 
Q 1228 388 1613 388 
Q 2000 388 2187 545 
Q 2375 703 2375 916 
Q 2375 1106 2209 1216 
Q 2094 1291 1634 1406 
Q 1016 1563 777 1677 
Q 538 1791 414 1992 
Q 291 2194 291 2438 
Q 291 2659 392 2848 
Q 494 3038 669 3163 
Q 800 3259 1026 3326 
Q 1253 3394 1513 3394 
Q 1903 3394 2198 3281 
Q 2494 3169 2634 2976 
Q 2775 2784 2828 2463 
L 2278 2388 
Q 2241 2644 2061 2787 
Q 1881 2931 1553 2931 
Q 1166 2931 1000 2803 
Q 834 2675 834 2503 
Q 834 2394 903 2306 
Q 972 2216 1119 2156 
Q 1203 2125 1616 2013 
Q 2213 1853 2448 1751 
Q 2684 1650 2818 1456 
Q 2953 1263 2953 975 
Q 2953 694 2789 445 
Q 2625 197 2315 61 
Q 2006 -75 1616 -75 
Q 969 -75 630 194 
Q 291 463 197 991 
z
" transform="scale(0.015625)"/>
       <path id="ArialMT-29" d="M 791 -1347 
L 388 -1347 
Q 1322 153 1322 1656 
Q 1322 2244 1188 2822 
Q 1081 3291 891 3722 
Q 769 4003 388 4659 
L 791 4659 
Q 1378 3875 1659 3084 
Q 1900 2403 1900 1659 
Q 1900 816 1576 28 
Q 1253 -759 791 -1347 
z
" transform="scale(0.015625)"/>
      </defs>
      <use xlink:href="#ArialMT-69"/>
      <use xlink:href="#ArialMT-6e" x="22.216797"/>
      <use xlink:href="#ArialMT-66" x="77.832031"/>
      <use xlink:href="#ArialMT-6f" x="105.615234"/>
      <use xlink:href="#ArialMT-72" x="161.230469"/>
      <use xlink:href="#ArialMT-6d" x="194.53125"/>
      <use xlink:href="#ArialMT-61" x="277.832031"/>
      <use xlink:href="#ArialMT-74" x="333.447266"/>
      <use xlink:href="#ArialMT-69" x="361.230469"/>
      <use xlink:href="#ArialMT-6f" x="383.447266"/>
      <use xlink:href="#ArialMT-6e" x="439.0625"/>
      <use xlink:href="#ArialMT-20" x="494.677734"/>
      <use xlink:href="#ArialMT-28" x="522.460938"/>
      <use xlink:href="#ArialMT-62" x="555.761719"/>
      <use xlink:href="#ArialMT-69" x="611.376953"/>
      <use xlink:href="#ArialMT-74" x="633.59375"/>
      <use xlink:href="#ArialMT-73" x="661.376953"/>
      <use xlink:href="#ArialMT-29" x="711.376953"/>
     </g>
    </g>
   </g>
   <g id="line2d_15">
    <path d="M 369 384.48 
L 369 51.84 
" clip-path="url(#pb753963e09)" style="fill: none; stroke: #daa520; stroke-width: 2; stroke-linecap: round"/>
   </g>
   <g id="patch_64">
    <path d="M 90 384.48 
L 648 384.48 
" style="fill: none; stroke: #262626; stroke-linejoin: miter; stroke-linecap: square"/>
   </g>
   <g id="patch_65">
    <path d="M 90 51.84 
L 648 51.84 
" style="fill: none; stroke: #262626; stroke-linejoin: miter; stroke-linecap: square"/>
   </g>
   <g id="text_15">
    <!-- ctrl vs. MMP9 information content, Kullback n=66 -->
    <g style="fill: #262626" transform="translate(264.82575 45.84) scale(0.096 -0.096)">
     <defs>
      <path id="ArialMT-63" d="M 2588 1216 
L 3141 1144 
Q 3050 572 2676 248 
Q 2303 -75 1759 -75 
Q 1078 -75 664 370 
Q 250 816 250 1647 
Q 250 2184 428 2587 
Q 606 2991 970 3192 
Q 1334 3394 1763 3394 
Q 2303 3394 2647 3120 
Q 2991 2847 3088 2344 
L 2541 2259 
Q 2463 2594 2264 2762 
Q 2066 2931 1784 2931 
Q 1359 2931 1093 2626 
Q 828 2322 828 1663 
Q 828 994 1084 691 
Q 1341 388 1753 388 
Q 2084 388 2306 591 
Q 2528 794 2588 1216 
z
" transform="scale(0.015625)"/>
      <path id="ArialMT-6c" d="M 409 0 
L 409 4581 
L 972 4581 
L 972 0 
L 409 0 
z
" transform="scale(0.015625)"/>
      <path id="ArialMT-76" d="M 1344 0 
L 81 3319 
L 675 3319 
L 1388 1331 
Q 1503 1009 1600 663 
Q 1675 925 1809 1294 
L 2547 3319 
L 3125 3319 
L 1869 0 
L 1344 0 
z
" transform="scale(0.015625)"/>
      <path id="ArialMT-4d" d="M 475 0 
L 475 4581 
L 1388 4581 
L 2472 1338 
Q 2622 884 2691 659 
Q 2769 909 2934 1394 
L 4031 4581 
L 4847 4581 
L 4847 0 
L 4263 0 
L 4263 3834 
L 2931 0 
L 2384 0 
L 1059 3900 
L 1059 0 
L 475 0 
z
" transform="scale(0.015625)"/>
      <path id="ArialMT-39" d="M 350 1059 
L 891 1109 
Q 959 728 1153 556 
Q 1347 384 1650 384 
Q 1909 384 2104 503 
Q 2300 622 2425 820 
Q 2550 1019 2634 1356 
Q 2719 1694 2719 2044 
Q 2719 2081 2716 2156 
Q 2547 1888 2255 1720 
Q 1963 1553 1622 1553 
Q 1053 1553 659 1965 
Q 266 2378 266 3053 
Q 266 3750 677 4175 
Q 1088 4600 1706 4600 
Q 2153 4600 2523 4359 
Q 2894 4119 3086 3673 
Q 3278 3228 3278 2384 
Q 3278 1506 3087 986 
Q 2897 466 2520 194 
Q 2144 -78 1638 -78 
Q 1100 -78 759 220 
Q 419 519 350 1059 
z
M 2653 3081 
Q 2653 3566 2395 3850 
Q 2138 4134 1775 4134 
Q 1400 4134 1122 3828 
Q 844 3522 844 3034 
Q 844 2597 1108 2323 
Q 1372 2050 1759 2050 
Q 2150 2050 2401 2323 
Q 2653 2597 2653 3081 
z
" transform="scale(0.015625)"/>
      <path id="ArialMT-65" d="M 2694 1069 
L 3275 997 
Q 3138 488 2766 206 
Q 2394 -75 1816 -75 
Q 1088 -75 661 373 
Q 234 822 234 1631 
Q 234 2469 665 2931 
Q 1097 3394 1784 3394 
Q 2450 3394 2872 2941 
Q 3294 2488 3294 1666 
Q 3294 1616 3291 1516 
L 816 1516 
Q 847 969 1125 678 
Q 1403 388 1819 388 
Q 2128 388 2347 550 
Q 2566 713 2694 1069 
z
M 847 1978 
L 2700 1978 
Q 2663 2397 2488 2606 
Q 2219 2931 1791 2931 
Q 1403 2931 1139 2672 
Q 875 2413 847 1978 
z
" transform="scale(0.015625)"/>
      <path id="ArialMT-2c" d="M 569 0 
L 569 641 
L 1209 641 
L 1209 0 
Q 1209 -353 1084 -570 
Q 959 -788 688 -906 
L 531 -666 
Q 709 -588 793 -436 
Q 878 -284 888 0 
L 569 0 
z
" transform="scale(0.015625)"/>
      <path id="ArialMT-4b" d="M 469 0 
L 469 4581 
L 1075 4581 
L 1075 2309 
L 3350 4581 
L 4172 4581 
L 2250 2725 
L 4256 0 
L 3456 0 
L 1825 2319 
L 1075 1588 
L 1075 0 
L 469 0 
z
" transform="scale(0.015625)"/>
      <path id="ArialMT-75" d="M 2597 0 
L 2597 488 
Q 2209 -75 1544 -75 
Q 1250 -75 995 37 
Q 741 150 617 320 
Q 494 491 444 738 
Q 409 903 409 1263 
L 409 3319 
L 972 3319 
L 972 1478 
Q 972 1038 1006 884 
Q 1059 663 1231 536 
Q 1403 409 1656 409 
Q 1909 409 2131 539 
Q 2353 669 2445 892 
Q 2538 1116 2538 1541 
L 2538 3319 
L 3100 3319 
L 3100 0 
L 2597 0 
z
" transform="scale(0.015625)"/>
      <path id="ArialMT-6b" d="M 425 0 
L 425 4581 
L 988 4581 
L 988 1969 
L 2319 3319 
L 3047 3319 
L 1778 2088 
L 3175 0 
L 2481 0 
L 1384 1697 
L 988 1316 
L 988 0 
L 425 0 
z
" transform="scale(0.015625)"/>
      <path id="ArialMT-3d" d="M 3381 2694 
L 356 2694 
L 356 3219 
L 3381 3219 
L 3381 2694 
z
M 3381 1303 
L 356 1303 
L 356 1828 
L 3381 1828 
L 3381 1303 
z
" transform="scale(0.015625)"/>
      <path id="ArialMT-36" d="M 3184 3459 
L 2625 3416 
Q 2550 3747 2413 3897 
Q 2184 4138 1850 4138 
Q 1581 4138 1378 3988 
Q 1113 3794 959 3422 
Q 806 3050 800 2363 
Q 1003 2672 1297 2822 
Q 1591 2972 1913 2972 
Q 2475 2972 2870 2558 
Q 3266 2144 3266 1488 
Q 3266 1056 3080 686 
Q 2894 316 2569 119 
Q 2244 -78 1831 -78 
Q 1128 -78 684 439 
Q 241 956 241 2144 
Q 241 3472 731 4075 
Q 1159 4600 1884 4600 
Q 2425 4600 2770 4297 
Q 3116 3994 3184 3459 
z
M 888 1484 
Q 888 1194 1011 928 
Q 1134 663 1356 523 
Q 1578 384 1822 384 
Q 2178 384 2434 671 
Q 2691 959 2691 1453 
Q 2691 1928 2437 2201 
Q 2184 2475 1800 2475 
Q 1419 2475 1153 2201 
Q 888 1928 888 1484 
z
" transform="scale(0.015625)"/>
     </defs>
     <use xlink:href="#ArialMT-63"/>
     <use xlink:href="#ArialMT-74" x="50"/>
     <use xlink:href="#ArialMT-72" x="77.783203"/>
     <use xlink:href="#ArialMT-6c" x="111.083984"/>
     <use xlink:href="#ArialMT-20" x="133.300781"/>
     <use xlink:href="#ArialMT-76" x="161.083984"/>
     <use xlink:href="#ArialMT-73" x="211.083984"/>
     <use xlink:href="#ArialMT-2e" x="261.083984"/>
     <use xlink:href="#ArialMT-20" x="288.867188"/>
     <use xlink:href="#ArialMT-4d" x="316.650391"/>
     <use xlink:href="#ArialMT-4d" x="399.951172"/>
     <use xlink:href="#ArialMT-50" x="483.251953"/>
     <use xlink:href="#ArialMT-39" x="549.951172"/>
     <use xlink:href="#ArialMT-20" x="605.566406"/>
     <use xlink:href="#ArialMT-69" x="633.349609"/>
     <use xlink:href="#ArialMT-6e" x="655.566406"/>
     <use xlink:href="#ArialMT-66" x="711.181641"/>
     <use xlink:href="#ArialMT-6f" x="738.964844"/>
     <use xlink:href="#ArialMT-72" x="794.580078"/>
     <use xlink:href="#ArialMT-6d" x="827.880859"/>
     <use xlink:href="#ArialMT-61" x="911.181641"/>
     <use xlink:href="#ArialMT-74" x="966.796875"/>
     <use xlink:href="#ArialMT-69" x="994.580078"/>
     <use xlink:href="#ArialMT-6f" x="1016.796875"/>
     <use xlink:href="#ArialMT-6e" x="1072.412109"/>
     <use xlink:href="#ArialMT-20" x="1128.027344"/>
     <use xlink:href="#ArialMT-63" x="1155.810547"/>
     <use xlink:href="#ArialMT-6f" x="1205.810547"/>
     <use xlink:href="#ArialMT-6e" x="1261.425781"/>
     <use xlink:href="#ArialMT-74" x="1317.041016"/>
     <use xlink:href="#ArialMT-65" x="1344.824219"/>
     <use xlink:href="#ArialMT-6e" x="1400.439453"/>
     <use xlink:href="#ArialMT-74" x="1456.054688"/>
     <use xlink:href="#ArialMT-2c" x="1483.837891"/>
     <use xlink:href="#ArialMT-20" x="1511.621094"/>
     <use xlink:href="#ArialMT-4b" x="1539.404297"/>
     <use xlink:href="#ArialMT-75" x="1606.103516"/>
     <use xlink:href="#ArialMT-6c" x="1661.71875"/>
     <use xlink:href="#ArialMT-6c" x="1683.935547"/>
     <use xlink:href="#ArialMT-62" x="1706.152344"/>
     <use xlink:href="#ArialMT-61" x="1761.767578"/>
     <use xlink:href="#ArialMT-63" x="1817.382812"/>
     <use xlink:href="#ArialMT-6b" x="1867.382812"/>
     <use xlink:href="#ArialMT-20" x="1917.382812"/>
     <use xlink:href="#ArialMT-6e" x="1945.166016"/>
     <use xlink:href="#ArialMT-3d" x="2000.78125"/>
     <use xlink:href="#ArialMT-36" x="2059.179688"/>
     <use xlink:href="#ArialMT-36" x="2114.794922"/>
    </g>
   </g>
  </g>
 </g>
 <defs>
  <clipPath id="pb753963e09">
   <rect x="90" y="51.84" width="558" height="332.64"/>
  </clipPath>
 </defs>
</svg>
