<?xml version="1.0" encoding="utf-8" standalone="no"?>
<!DOCTYPE svg PUBLIC "-//W3C//DTD SVG 1.1//EN"
  "http://www.w3.org/Graphics/SVG/1.1/DTD/svg11.dtd">
<svg xmlns:xlink="http://www.w3.org/1999/xlink" width="720pt" height="432pt" viewBox="0 0 720 432" xmlns="http://www.w3.org/2000/svg" version="1.1">
 <metadata>
  <rdf:RDF xmlns:dc="http://purl.org/dc/elements/1.1/" xmlns:cc="http://creativecommons.org/ns#" xmlns:rdf="http://www.w3.org/1999/02/22-rdf-syntax-ns#">
   <cc:Work>
    <dc:type rdf:resource="http://purl.org/dc/dcmitype/StillImage"/>
    <dc:date>2023-11-07T14:23:07.224517</dc:date>
    <dc:format>image/svg+xml</dc:format>
    <dc:creator>
     <cc:Agent>
      <dc:title>Matplotlib v3.7.1, https://matplotlib.org/</dc:title>
     </cc:Agent>
    </dc:creator>
   </cc:Work>
  </rdf:RDF>
 </metadata>
 <defs>
  <style type="text/css">*{stroke-linejoin: round; stroke-linecap: butt}</style>
 </defs>
 <g id="figure_1">
  <g id="patch_1">
   <path d="M 0 432 
L 720 432 
L 720 0 
L 0 0 
z
" style="fill: #ffffff"/>
  </g>
  <g id="axes_1">
   <g id="patch_2">
    <path d="M 90 384.48 
L 648 384.48 
L 648 51.84 
L 90 51.84 
z
" style="fill: #ffffff"/>
   </g>
   <g id="patch_3">
    <path d="M 307 384.48 
L 369 384.48 
L 369 51.84 
L 307 51.84 
z
" clip-path="url(#p9657edef87)" style="fill: #ffd700; opacity: 0.35; stroke: #ffffff; stroke-width: 0.8; stroke-linejoin: miter"/>
   </g>
   <g id="line2d_1">
    <path d="M 90 384.48 
L 648 384.48 
" clip-path="url(#p9657edef87)" style="fill: none; stroke: #000000; stroke-width: 0.5; stroke-linecap: round"/>
   </g>
   <g id="patch_4">
    <path d="M 153.405333 384.396877 
L 152.373292 384.396877 
Q 139.714313 384.396877 132.676667 384.343906 
Q 125.65 384.290851 125.65 384.196301 
Q 125.65 384.101917 132.665687 384.048446 
Q 139.681375 383.994893 152 383.994893 
Q 164.450375 383.994893 171.400188 384.047947 
Q 178.35 384.100919 178.35 384.196301 
Q 178.35 384.261746 174.661 384.309063 
Q 170.972 384.356379 164.044146 384.380246 
L 174.364563 384.467561 
L 161.771458 384.467561 
L 153.405333 384.396877 
z
M 152 384.067406 
Q 145.961458 384.067406 142.634771 384.101168 
Q 139.308083 384.13493 139.308083 384.196301 
Q 139.308083 384.258669 142.557917 384.291849 
Q 145.818729 384.324946 152 384.324946 
Q 158.071479 384.324946 161.398167 384.291184 
Q 164.724854 384.257339 164.724854 384.196301 
Q 164.724854 384.13493 161.398167 384.101168 
Q 158.071479 384.067406 152 384.067406 
z
" clip-path="url(#p9657edef87)" style="fill: #40ba47"/>
   </g>
   <g id="patch_5">
    <path d="M 125.65 381.892787 
L 140.813382 381.892787 
L 140.813382 382.668647 
L 163.186618 382.668647 
L 163.186618 381.892787 
L 178.35 381.892787 
L 178.35 383.928873 
L 163.186618 383.928873 
L 163.186618 383.06574 
L 140.813382 383.06574 
L 140.813382 383.928873 
L 125.65 383.928873 
L 125.65 381.892787 
z
" clip-path="url(#p9657edef87)" style="fill: #177875"/>
   </g>
   <g id="patch_6">
    <path d="M 125.65 375.499873 
L 134.762642 375.499873 
L 141.132798 379.988832 
L 147.455534 375.499873 
L 156.615597 375.499873 
L 162.938332 379.988832 
L 169.316392 375.499873 
L 178.35 375.499873 
L 169.656239 381.676659 
L 158.694196 381.676659 
L 152 376.98119 
L 145.384838 381.676659 
L 134.414892 381.676659 
L 125.65 375.499873 
z
" clip-path="url(#p9657edef87)" style="fill: #21599c"/>
   </g>
   <g id="patch_7">
    <path d="M 125.65 368.188285 
L 141.195992 368.188285 
L 151.979692 371.915982 
L 162.83447 368.188285 
L 178.35 368.188285 
L 178.35 375.154017 
L 166.80474 375.154017 
L 166.80474 370.058852 
L 155.889037 373.814913 
L 148.141426 373.814913 
L 137.225723 370.058852 
L 137.225723 375.154017 
L 125.65 375.154017 
L 125.65 368.188285 
z
" clip-path="url(#p9657edef87)" style="fill: #21599c"/>
   </g>
   <g id="patch_8">
    <path d="M 125.65 360.821504 
L 153.043021 360.821504 
Q 165.271068 360.821504 171.803672 361.415528 
Q 178.35 362.008052 178.35 363.104596 
Q 178.35 364.20714 171.803672 364.799664 
Q 165.271068 365.392188 153.043021 365.392188 
L 142.159922 365.392188 
L 142.159922 367.820785 
L 125.65 367.820785 
L 125.65 360.821504 
z
M 142.159922 362.129557 
L 142.159922 364.084135 
L 151.286354 364.084135 
Q 156.08974 364.084135 158.711016 363.829125 
Q 161.332292 363.574115 161.332292 363.104596 
Q 161.332292 362.636577 158.711016 362.383067 
Q 156.08974 362.129557 151.286354 362.129557 
L 142.159922 362.129557 
z
" clip-path="url(#p9657edef87)" style="fill: #787800"/>
   </g>
   <g id="patch_9">
    <path d="M 125.65 353.386097 
L 140.22 353.386097 
L 151.988929 355.904222 
L 163.746786 353.386097 
L 178.35 353.386097 
L 158.665 357.474454 
L 158.665 360.451384 
L 145.346071 360.451384 
L 145.346071 357.474454 
L 125.65 353.386097 
z
" clip-path="url(#p9657edef87)" style="fill: #177875"/>
   </g>
   <g id="patch_10">
    <path d="M 178.35 351.450801 
Q 173.035119 352.128401 167.318669 352.468748 
Q 161.602219 352.806001 155.507822 352.806001 
Q 141.736374 352.806001 133.693187 350.788671 
Q 125.65 348.771341 125.65 345.321459 
Q 125.65 341.831354 133.834917 339.829494 
Q 142.031645 337.827635 156.287338 337.827635 
Q 161.779381 337.827635 166.810802 338.099912 
Q 171.854034 338.369096 176.318534 338.901275 
L 176.318534 341.887047 
Q 171.712304 341.203259 167.153317 340.866006 
Q 162.59433 340.525659 158.011721 340.525659 
Q 149.531533 340.525659 144.937113 341.769473 
Q 140.342694 343.010193 140.342694 345.321459 
Q 140.342694 347.611067 144.771762 348.861069 
Q 149.200829 350.107977 157.350314 350.107977 
Q 159.570753 350.107977 161.472299 350.036813 
Q 163.373846 349.962556 164.885634 349.807852 
L 164.885634 347.00463 
L 156.204662 347.00463 
L 156.204662 344.50772 
L 178.35 344.50772 
L 178.35 351.450801 
z
" clip-path="url(#p9657edef87)" style="fill: #787800"/>
   </g>
   <g id="patch_11">
    <path d="M 125.65 321.050908 
L 177.253077 321.050908 
L 177.253077 324.164039 
L 144.774615 324.164039 
L 144.774615 327.133487 
L 175.329487 327.133487 
L 175.329487 330.246618 
L 144.774615 330.246618 
L 144.774615 333.903692 
L 178.35 333.903692 
L 178.35 337.013402 
L 125.65 337.013402 
L 125.65 321.050908 
z
" clip-path="url(#p9657edef87)" style="fill: #6b296b"/>
   </g>
   <g id="patch_12">
    <path d="M 187.65 384.293791 
L 206.774615 384.293791 
L 206.774615 384.43988 
L 240.35 384.43988 
L 240.35 384.475225 
L 187.65 384.475225 
L 187.65 384.293791 
z
" clip-path="url(#p9657edef87)" style="fill: #21599c"/>
   </g>
   <g id="patch_13">
    <path d="M 215.405333 384.21379 
L 214.373292 384.21379 
Q 201.714313 384.21379 194.676667 384.16585 
Q 187.65 384.117835 187.65 384.032267 
Q 187.65 383.946848 194.665687 383.898457 
Q 201.681375 383.849991 214 383.849991 
Q 226.450375 383.849991 233.400187 383.898006 
Q 240.35 383.945945 240.35 384.032267 
Q 240.35 384.091495 236.661 384.134317 
Q 232.972 384.177139 226.044146 384.198738 
L 236.364562 384.27776 
L 223.771458 384.27776 
L 215.405333 384.21379 
z
M 214 383.915616 
Q 207.961458 383.915616 204.634771 383.946171 
Q 201.308083 383.976726 201.308083 384.032267 
Q 201.308083 384.08871 204.557917 384.118739 
Q 207.818729 384.148691 214 384.148691 
Q 220.071479 384.148691 223.398167 384.118137 
Q 226.724854 384.087506 226.724854 384.032267 
Q 226.724854 383.976726 223.398167 383.946171 
Q 220.071479 383.915616 214 383.915616 
z
" clip-path="url(#p9657edef87)" style="fill: #40ba47"/>
   </g>
   <g id="patch_14">
    <path d="M 202.091481 381.457152 
L 202.091481 383.205214 
L 207.265444 383.205214 
Q 216.112802 383.205214 220.782574 382.980489 
Q 225.464351 382.755765 225.464351 382.327806 
Q 225.464351 381.902303 220.806583 381.680035 
Q 216.16082 381.457152 207.265444 381.457152 
L 202.091481 381.457152 
z
M 187.65 380.898411 
L 202.871777 380.898411 
Q 215.63262 380.898411 221.874989 380.99174 
Q 228.117358 381.084454 232.583052 381.307336 
Q 236.520547 381.501361 238.429271 381.754943 
Q 240.35 382.007911 240.35 382.327806 
Q 240.35 382.652613 238.429271 382.906809 
Q 236.520547 383.161006 232.583052 383.354416 
Q 228.081344 383.577298 221.778952 383.670627 
Q 215.47656 383.763341 202.871777 383.763341 
L 187.65 383.763341 
L 187.65 380.898411 
z
" clip-path="url(#p9657edef87)" style="fill: #6b296b"/>
   </g>
   <g id="patch_15">
    <path d="M 235.955948 377.462028 
L 235.955948 378.162974 
Q 230.459804 378.040947 225.221293 377.979224 
Q 219.997094 377.916792 215.34541 377.916792 
Q 209.176562 377.916792 206.213797 378.001217 
Q 203.265345 378.084934 203.265345 378.262298 
Q 203.265345 378.395677 205.254834 378.47017 
Q 207.244324 378.543954 212.482835 378.597163 
L 219.811027 378.670238 
Q 230.946442 378.781623 235.641065 379.007941 
Q 240.35 379.233549 240.35 379.650711 
Q 240.35 380.197704 233.794704 380.465171 
Q 227.239408 380.732637 213.770994 380.732637 
Q 207.430391 380.732637 201.032537 380.672333 
Q 194.634682 380.612738 188.236828 380.494968 
L 188.236828 379.774866 
Q 194.634682 379.943008 200.60315 380.028853 
Q 206.571619 380.113988 212.125014 380.113988 
Q 217.764286 380.113988 220.755676 380.021049 
Q 223.747067 379.9274 223.747067 379.754292 
Q 223.747067 379.59963 221.714639 379.515204 
Q 219.682211 379.430779 213.59924 379.364089 
L 206.929441 379.291015 
Q 196.910429 379.184596 192.273058 378.951893 
Q 187.65 378.71919 187.65 378.324731 
Q 187.65 377.830238 194.090793 377.56419 
Q 200.531586 377.298143 212.611651 377.298143 
Q 218.122108 377.298143 223.933134 377.339291 
Q 229.744161 377.38044 235.955948 377.462028 
z
" clip-path="url(#p9657edef87)" style="fill: #40ba47"/>
   </g>
   <g id="patch_16">
    <path d="M 187.65 372.263185 
L 200.68762 372.263185 
L 214.016162 375.819224 
L 227.323155 372.263185 
L 240.35 372.263185 
L 221.730985 377.080977 
L 206.269015 377.080977 
L 187.65 372.263185 
z
" clip-path="url(#p9657edef87)" style="fill: #21599c"/>
   </g>
   <g id="patch_17">
    <path d="M 224.155336 370.801899 
L 203.887763 370.801899 
L 200.68762 371.967955 
L 187.65 371.967955 
L 206.269015 365.566995 
L 221.730985 365.566995 
L 240.35 371.967955 
L 227.323155 371.967955 
L 224.155336 370.801899 
z
M 207.120231 369.613894 
L 220.890544 369.613894 
L 214.016162 367.067777 
L 207.120231 369.613894 
z
" clip-path="url(#p9657edef87)" style="fill: #21599c"/>
   </g>
   <g id="patch_18">
    <path d="M 240.35 364.528292 
Q 235.035119 364.865377 229.318669 365.034689 
Q 223.602219 365.202462 217.507822 365.202462 
Q 203.736374 365.202462 195.693187 364.198903 
Q 187.65 363.195343 187.65 361.479134 
Q 187.65 359.742915 195.834917 358.747051 
Q 204.031645 357.751188 218.287338 357.751188 
Q 223.779381 357.751188 228.810802 357.886638 
Q 233.854034 358.020548 238.318534 358.285291 
L 238.318534 359.77062 
Q 233.712304 359.430457 229.153317 359.262684 
Q 224.59433 359.093372 220.011721 359.093372 
Q 211.531533 359.093372 206.937113 359.712131 
Q 202.342694 360.32935 202.342694 361.479134 
Q 202.342694 362.618143 206.771762 363.23998 
Q 211.200829 363.860278 219.350314 363.860278 
Q 221.570753 363.860278 223.472299 363.824877 
Q 225.373846 363.787936 226.885634 363.710976 
L 226.885634 362.316459 
L 218.204662 362.316459 
L 218.204662 361.074324 
L 240.35 361.074324 
L 240.35 364.528292 
z
" clip-path="url(#p9657edef87)" style="fill: #787800"/>
   </g>
   <g id="patch_19">
    <path d="M 187.65 349.250798 
L 201.537864 349.250798 
L 201.537864 352.203993 
L 221.555783 349.250798 
L 237.683253 349.250798 
L 211.743078 353.083188 
L 240.35 357.342171 
L 222.964195 357.342171 
L 201.537864 354.15487 
L 201.537864 357.342171 
L 187.65 357.342171 
L 187.65 349.250798 
z
" clip-path="url(#p9657edef87)" style="fill: #bd2e1f"/>
   </g>
   <g id="patch_20">
    <path d="M 187.65 331.513367 
L 240.35 331.513367 
L 240.35 334.843498 
L 221.390256 334.843498 
L 221.390256 348.588521 
L 206.646512 348.588521 
L 206.646512 334.843498 
L 187.65 334.843498 
L 187.65 331.513367 
z
" clip-path="url(#p9657edef87)" style="fill: #40ba47"/>
   </g>
   <g id="patch_21">
    <path d="M 249.65 384.339774 
L 264.22 384.339774 
L 275.988929 384.38847 
L 287.746786 384.339774 
L 302.35 384.339774 
L 282.665 384.418836 
L 282.665 384.476404 
L 269.346071 384.476404 
L 269.346071 384.418836 
L 249.65 384.339774 
z
" clip-path="url(#p9657edef87)" style="fill: #177875"/>
   </g>
   <g id="patch_22">
    <path d="M 286.155336 384.300062 
L 265.887763 384.300062 
L 262.68762 384.33162 
L 249.65 384.33162 
L 268.269015 384.158387 
L 283.730985 384.158387 
L 302.35 384.33162 
L 289.323155 384.33162 
L 286.155336 384.300062 
z
M 269.120231 384.26791 
L 282.890544 384.26791 
L 276.016162 384.199003 
L 269.120231 384.26791 
z
" clip-path="url(#p9657edef87)" style="fill: #21599c"/>
   </g>
   <g id="patch_23">
    <path d="M 249.65 382.423802 
L 264.813382 382.423802 
L 264.813382 383.066133 
L 287.186618 383.066133 
L 287.186618 382.423802 
L 302.35 382.423802 
L 302.35 384.109468 
L 287.186618 384.109468 
L 287.186618 383.394884 
L 264.813382 383.394884 
L 264.813382 384.109468 
L 249.65 384.109468 
L 249.65 382.423802 
z
" clip-path="url(#p9657edef87)" style="fill: #177875"/>
   </g>
   <g id="patch_24">
    <path d="M 302.35 382.19369 
Q 297.941736 382.261038 293.174969 382.295103 
Q 288.408201 382.32956 283.216541 382.32956 
Q 267.734505 382.32956 258.692252 382.074265 
Q 249.65 381.818971 249.65 381.382386 
Q 249.65 380.944234 258.692252 380.689331 
Q 267.734505 380.434037 283.216541 380.434037 
Q 288.408201 380.434037 293.174969 380.468494 
Q 297.941736 380.502559 302.35 380.569907 
L 302.35 380.947758 
Q 297.901902 380.858484 293.586584 380.816979 
Q 289.271265 380.775474 284.504497 380.775474 
Q 275.953527 380.775474 271.053981 380.937186 
Q 266.167712 381.098508 266.167712 381.382386 
Q 266.167712 381.665089 271.053981 381.826802 
Q 275.953527 381.988123 284.504497 381.988123 
Q 289.271265 381.988123 293.586584 381.946618 
Q 297.901902 381.904722 302.35 381.815447 
L 302.35 382.19369 
z
" clip-path="url(#p9657edef87)" style="fill: #6b296b"/>
   </g>
   <g id="patch_25">
    <path d="M 277.405333 379.356167 
L 276.373292 379.356167 
Q 263.714313 379.356167 256.676667 378.701062 
Q 249.65 378.04493 249.65 376.875615 
Q 249.65 375.708357 256.665687 375.047082 
Q 263.681375 374.384779 276 374.384779 
Q 288.450375 374.384779 295.400188 375.040912 
Q 302.35 375.696016 302.35 376.875615 
Q 302.35 377.684982 298.661 378.270154 
Q 294.972 378.855325 288.044146 379.150482 
L 298.364562 380.230324 
L 285.771458 380.230324 
L 277.405333 379.356167 
z
M 276 375.281562 
Q 269.961458 375.281562 266.634771 375.699101 
Q 263.308083 376.11664 263.308083 376.875615 
Q 263.308083 377.646931 266.557917 378.057271 
Q 269.818729 378.466582 276 378.466582 
Q 282.071479 378.466582 285.398167 378.049043 
Q 288.724854 377.630476 288.724854 376.875615 
Q 288.724854 376.11664 285.398167 375.699101 
Q 282.071479 375.281562 276 375.281562 
z
" clip-path="url(#p9657edef87)" style="fill: #40ba47"/>
   </g>
   <g id="patch_26">
    <path d="M 249.65 365.056817 
L 263.537864 365.056817 
L 263.537864 368.319342 
L 283.555783 365.056817 
L 299.683253 365.056817 
L 273.743078 369.290628 
L 302.35 373.995715 
L 284.964195 373.995715 
L 263.537864 370.474563 
L 263.537864 373.995715 
L 249.65 373.995715 
L 249.65 365.056817 
z
" clip-path="url(#p9657edef87)" style="fill: #bd2e1f"/>
   </g>
   <g id="patch_27">
    <path d="M 271.032787 358.268928 
Q 275.762274 358.268928 277.814221 357.931633 
Q 279.866168 357.591929 279.866168 356.81615 
Q 279.866168 356.047599 277.814221 355.717531 
Q 275.762274 355.385055 271.032787 355.385055 
L 264.701781 355.385055 
L 264.701781 358.268928 
L 271.032787 358.268928 
z
M 264.701781 360.271015 
L 264.701781 364.525752 
L 249.65 364.525752 
L 249.65 353.284188 
L 272.634307 353.284188 
Q 284.170252 353.284188 289.537844 354.031056 
Q 294.917949 354.775514 294.917949 356.387303 
Q 294.917949 357.500377 292.11529 358.215924 
Q 289.325142 358.931472 283.694801 359.271176 
Q 286.785233 359.406094 289.225047 359.885535 
Q 291.677374 360.362567 294.179748 361.333495 
L 302.35 364.525752 
L 286.322293 364.525752 
L 279.203039 361.733431 
Q 277.050997 360.890193 274.836396 360.581809 
Q 272.634307 360.271015 268.955817 360.271015 
L 264.701781 360.271015 
z
" clip-path="url(#p9657edef87)" style="fill: #bd2e1f"/>
   </g>
   <g id="patch_28">
    <path d="M 302.35 345.762962 
Q 297.035119 348.561647 291.318669 349.967379 
Q 285.602219 351.360332 279.507822 351.360332 
Q 265.736374 351.360332 257.693187 343.028175 
Q 249.65 334.696018 249.65 320.447008 
Q 249.65 306.031865 257.834917 297.763605 
Q 266.031645 289.495345 280.287338 289.495345 
Q 285.779381 289.495345 290.810802 290.619931 
Q 295.854034 291.731737 300.318534 293.929791 
L 300.318534 306.261894 
Q 295.712304 303.437651 291.153317 302.044698 
Q 286.59433 300.638966 282.011721 300.638966 
Q 273.531533 300.638966 268.937113 305.776277 
Q 264.342694 310.900809 264.342694 320.447008 
Q 264.342694 329.90375 268.771762 335.06662 
Q 273.200829 340.216711 281.350314 340.216711 
Q 283.570753 340.216711 285.472299 339.922785 
Q 287.373846 339.61608 288.885634 338.977111 
L 288.885634 327.398991 
L 280.204662 327.398991 
L 280.204662 317.08603 
L 302.35 317.08603 
L 302.35 345.762962 
z
" clip-path="url(#p9657edef87)" style="fill: #787800"/>
   </g>
   <g id="patch_29">
    <path d="M 311.65 378.692055 
L 320.762642 378.692055 
L 327.132798 382.790569 
L 333.455534 378.692055 
L 342.615597 378.692055 
L 348.938332 382.790569 
L 355.316392 378.692055 
L 364.35 378.692055 
L 355.656239 384.331591 
L 344.694196 384.331591 
L 338 380.044529 
L 331.384838 384.331591 
L 320.414892 384.331591 
L 311.65 378.692055 
z
" clip-path="url(#p9657edef87)" style="fill: #21599c"/>
   </g>
   <g id="patch_30">
    <path d="M 311.65 363.578558 
L 325.537864 363.578558 
L 325.537864 368.900476 
L 345.555783 363.578558 
L 361.683253 363.578558 
L 335.743078 370.484864 
L 364.35 378.159926 
L 346.964195 378.159926 
L 325.537864 372.41613 
L 325.537864 378.159926 
L 311.65 378.159926 
L 311.65 363.578558 
z
" clip-path="url(#p9657edef87)" style="fill: #bd2e1f"/>
   </g>
   <g id="patch_31">
    <path d="M 364.35 359.483837 
Q 359.941736 360.829324 355.174969 361.509891 
Q 350.408201 362.198279 345.216541 362.198279 
Q 329.734505 362.198279 320.692252 357.097944 
Q 311.65 351.997608 311.65 343.275408 
Q 311.65 334.521918 320.692252 329.429405 
Q 329.734505 324.329069 345.216541 324.329069 
Q 350.408201 324.329069 355.174969 325.017458 
Q 359.941736 325.698024 364.35 327.043512 
L 364.35 334.592321 
Q 359.901902 332.808768 355.586584 331.979573 
Q 351.271265 331.150377 346.504497 331.150377 
Q 337.953527 331.150377 333.053981 334.381111 
Q 328.167712 337.604023 328.167712 343.275408 
Q 328.167712 348.923326 333.053981 352.15406 
Q 337.953527 355.376972 346.504497 355.376972 
Q 351.271265 355.376972 355.586584 354.547776 
Q 359.901902 353.710758 364.35 351.927205 
L 364.35 359.483837 
z
" clip-path="url(#p9657edef87)" style="fill: #6b296b"/>
   </g>
   <g id="patch_32">
    <path d="M 333.032787 172.993388 
Q 337.762274 172.993388 339.814221 165.254746 
Q 341.866168 157.460827 341.866168 139.661951 
Q 341.866168 122.028902 339.814221 114.456088 
Q 337.762274 106.827998 333.032787 106.827998 
L 326.701781 106.827998 
L 326.701781 172.993388 
L 333.032787 172.993388 
z
M 326.701781 218.927756 
L 326.701781 316.545198 
L 311.65 316.545198 
L 311.65 58.627313 
L 334.634307 58.627313 
Q 346.170252 58.627313 351.537844 75.762877 
Q 356.917949 92.843166 356.917949 129.82282 
Q 356.917949 155.360339 354.11529 171.777315 
Q 351.325142 188.194292 345.694801 195.98821 
Q 348.785233 199.083667 351.225047 210.083594 
Q 353.677374 221.028245 356.179748 243.304479 
L 364.35 316.545198 
L 348.322293 316.545198 
L 341.203039 252.480297 
Q 339.050997 233.133692 336.836396 226.058362 
Q 334.634307 218.927756 330.955817 218.927756 
L 326.701781 218.927756 
z
" clip-path="url(#p9657edef87)" style="fill: #bd2e1f"/>
   </g>
   <g id="patch_33">
    <path d="M 410.155336 384.405048 
L 389.887763 384.405048 
L 386.68762 384.470539 
L 373.65 384.470539 
L 392.269015 384.11103 
L 407.730985 384.11103 
L 426.35 384.470539 
L 413.323155 384.470539 
L 410.155336 384.405048 
z
M 393.120231 384.338324 
L 406.890544 384.338324 
L 400.016162 384.195321 
L 393.120231 384.338324 
z
" clip-path="url(#p9657edef87)" style="fill: #21599c"/>
   </g>
   <g id="patch_34">
    <path d="M 373.65 382.808043 
L 389.195992 382.808043 
L 399.979692 383.482521 
L 410.83447 382.808043 
L 426.35 382.808043 
L 426.35 384.068402 
L 414.80474 384.068402 
L 414.80474 383.146498 
L 403.889037 383.826108 
L 396.141426 383.826108 
L 385.225723 383.146498 
L 385.225723 384.068402 
L 373.65 384.068402 
L 373.65 382.808043 
z
" clip-path="url(#p9657edef87)" style="fill: #21599c"/>
   </g>
   <g id="patch_35">
    <path d="M 421.955948 380.972817 
L 421.955948 381.348642 
Q 416.459804 381.283215 411.221293 381.250121 
Q 405.997094 381.216647 401.34541 381.216647 
Q 395.176562 381.216647 392.213797 381.261913 
Q 389.265345 381.306799 389.265345 381.401897 
Q 389.265345 381.47341 391.254834 381.513351 
Q 393.244324 381.552912 398.482835 381.581441 
L 405.811027 381.620621 
Q 416.946442 381.680343 421.641065 381.801687 
Q 426.35 381.922651 426.35 382.146321 
Q 426.35 382.439602 419.794704 382.583009 
Q 413.239408 382.726416 399.770994 382.726416 
Q 393.430391 382.726416 387.032537 382.694083 
Q 380.634682 382.66213 374.236828 382.598985 
L 374.236828 382.212889 
Q 380.634682 382.303041 386.60315 382.349069 
Q 392.571619 382.394716 398.125014 382.394716 
Q 403.764286 382.394716 406.755676 382.344884 
Q 409.747067 382.294673 409.747067 382.201858 
Q 409.747067 382.118933 407.714639 382.073666 
Q 405.682211 382.0284 399.59924 381.992643 
L 392.929441 381.953463 
Q 382.910429 381.896404 378.273058 381.771636 
Q 373.65 381.646868 373.65 381.435371 
Q 373.65 381.170239 380.090793 381.027593 
Q 386.531586 380.884947 398.611651 380.884947 
Q 404.122108 380.884947 409.933134 380.907009 
Q 415.744161 380.929072 421.955948 380.972817 
z
" clip-path="url(#p9657edef87)" style="fill: #40ba47"/>
   </g>
   <g id="patch_36">
    <path d="M 373.65 374.378338 
L 382.762642 374.378338 
L 389.132798 378.951432 
L 395.455534 374.378338 
L 404.615597 374.378338 
L 410.938332 378.951432 
L 417.316392 374.378338 
L 426.35 374.378338 
L 417.656239 380.670893 
L 406.694196 380.670893 
L 400 375.887418 
L 393.384838 380.670893 
L 382.414892 380.670893 
L 373.65 374.378338 
z
" clip-path="url(#p9657edef87)" style="fill: #21599c"/>
   </g>
   <g id="patch_37">
    <path d="M 373.65 366.602984 
L 388.22 366.602984 
L 399.988929 369.245621 
L 411.746786 366.602984 
L 426.35 366.602984 
L 406.665 370.893494 
L 406.665 374.017622 
L 393.346071 374.017622 
L 393.346071 370.893494 
L 373.65 366.602984 
z
" clip-path="url(#p9657edef87)" style="fill: #177875"/>
   </g>
   <g id="patch_38">
    <path d="M 373.65 356.01621 
L 386.68762 356.01621 
L 400.016162 363.489674 
L 413.323155 356.01621 
L 426.35 356.01621 
L 407.730985 366.141409 
L 392.269015 366.141409 
L 373.65 356.01621 
z
" clip-path="url(#p9657edef87)" style="fill: #21599c"/>
   </g>
   <g id="patch_39">
    <path d="M 373.65 341.998644 
L 387.537864 341.998644 
L 387.537864 346.888845 
L 407.555783 341.998644 
L 423.683253 341.998644 
L 397.743078 348.344707 
L 426.35 355.397164 
L 408.964195 355.397164 
L 387.537864 350.119307 
L 387.537864 355.397164 
L 373.65 355.397164 
L 373.65 341.998644 
z
" clip-path="url(#p9657edef87)" style="fill: #bd2e1f"/>
   </g>
   <g id="patch_40">
    <path d="M 426.35 339.802946 
Q 421.035119 340.516854 415.318669 340.875438 
Q 409.602219 341.230763 403.507822 341.230763 
Q 389.736374 341.230763 381.693187 339.105336 
Q 373.65 336.97991 373.65 333.345171 
Q 373.65 329.668053 381.834917 327.558926 
Q 390.031645 325.449799 404.287338 325.449799 
Q 409.779381 325.449799 414.810802 325.736667 
Q 419.854034 326.020274 424.318534 326.580969 
L 424.318534 329.72673 
Q 419.712304 329.006302 415.153317 328.650978 
Q 410.59433 328.292394 406.011721 328.292394 
Q 397.531533 328.292394 392.937113 329.602856 
Q 388.342694 330.910058 388.342694 333.345171 
Q 388.342694 335.757464 392.771762 337.074446 
Q 397.200829 338.388168 405.350314 338.388168 
Q 407.570753 338.388168 409.472299 338.313191 
Q 411.373846 338.234955 412.885634 338.071962 
L 412.885634 335.118532 
L 404.204662 335.118532 
L 404.204662 332.487829 
L 426.35 332.487829 
L 426.35 339.802946 
z
" clip-path="url(#p9657edef87)" style="fill: #787800"/>
   </g>
   <g id="patch_41">
    <path d="M 452.437692 381.238388 
L 471.562308 381.238388 
L 471.562308 384.396882 
L 452.437692 384.396882 
L 452.437692 381.238388 
z
" clip-path="url(#p9657edef87)" style="fill: #21599c"/>
   </g>
   <g id="patch_42">
    <path d="M 435.65 376.136321 
L 452.578032 376.136321 
L 473.968106 379.49012 
L 473.968106 376.136321 
L 488.35 376.136321 
L 488.35 381.026579 
L 471.409364 381.026579 
L 450.01929 377.67278 
L 450.01929 381.026579 
L 435.65 381.026579 
L 435.65 376.136321 
z
" clip-path="url(#p9657edef87)" style="fill: #40ba47"/>
   </g>
   <g id="patch_43">
    <path d="M 463.405333 374.622717 
L 462.373292 374.622717 
Q 449.714313 374.622717 442.676667 373.740156 
Q 435.65 372.85621 435.65 371.280901 
Q 435.65 369.708363 442.665687 368.817489 
Q 449.681375 367.92523 462 367.92523 
Q 474.450375 367.92523 481.400187 368.809176 
Q 488.35 369.691737 488.35 371.280901 
Q 488.35 372.371286 484.661 373.159633 
Q 480.972 373.947981 474.044146 374.345618 
L 484.364562 375.800389 
L 471.771458 375.800389 
L 463.405333 374.622717 
z
M 462 369.133382 
Q 455.961458 369.133382 452.634771 369.695894 
Q 449.308083 370.258405 449.308083 371.280901 
Q 449.308083 372.320023 452.557917 372.872836 
Q 455.818729 373.424263 462 373.424263 
Q 468.071479 373.424263 471.398167 372.861752 
Q 474.724854 372.297855 474.724854 371.280901 
Q 474.724854 370.258405 471.398167 369.695894 
Q 468.071479 369.133382 462 369.133382 
z
" clip-path="url(#p9657edef87)" style="fill: #40ba47"/>
   </g>
   <g id="patch_44">
    <path d="M 488.35 365.907901 
Q 483.035119 366.60902 477.318669 366.961181 
Q 471.602219 367.31014 465.507822 367.31014 
Q 451.736374 367.31014 443.693187 365.222789 
Q 435.65 363.135437 435.65 359.56581 
Q 435.65 355.954564 443.834917 353.88322 
Q 452.031645 351.811876 466.287338 351.811876 
Q 471.779381 351.811876 476.810802 352.093604 
Q 481.854034 352.372131 486.318534 352.922782 
L 486.318534 356.012191 
Q 481.712304 355.304668 477.153317 354.955709 
Q 472.59433 354.603548 468.011721 354.603548 
Q 459.531533 354.603548 454.937113 355.890535 
Q 450.342694 357.17432 450.342694 359.56581 
Q 450.342694 361.93489 454.771762 363.228279 
Q 459.200829 364.518468 467.350314 364.518468 
Q 469.570753 364.518468 471.472299 364.444834 
Q 473.373846 364.367999 474.885634 364.207926 
L 474.885634 361.307404 
L 466.204662 361.307404 
L 466.204662 358.723826 
L 488.35 358.723826 
L 488.35 365.907901 
z
" clip-path="url(#p9657edef87)" style="fill: #787800"/>
   </g>
   <g id="patch_45">
    <path d="M 435.65 293.335518 
L 487.253077 293.335518 
L 487.253077 304.370111 
L 454.774615 304.370111 
L 454.774615 314.895415 
L 485.329487 314.895415 
L 485.329487 325.930008 
L 454.774615 325.930008 
L 454.774615 338.892624 
L 488.35 338.892624 
L 488.35 349.915091 
L 435.65 349.915091 
L 435.65 293.335518 
z
" clip-path="url(#p9657edef87)" style="fill: #6b296b"/>
   </g>
   <g id="patch_46">
    <path d="M 497.65 384.018765 
L 512.22 384.018765 
L 523.988929 384.178938 
L 535.746786 384.018765 
L 550.35 384.018765 
L 530.665 384.278817 
L 530.665 384.468173 
L 517.346071 384.468173 
L 517.346071 384.278817 
L 497.65 384.018765 
z
" clip-path="url(#p9657edef87)" style="fill: #177875"/>
   </g>
   <g id="patch_47">
    <path d="M 514.437692 382.924098 
L 533.562308 382.924098 
L 533.562308 383.979173 
L 514.437692 383.979173 
L 514.437692 382.924098 
z
" clip-path="url(#p9657edef87)" style="fill: #21599c"/>
   </g>
   <g id="patch_48">
    <path d="M 497.65 381.671024 
L 513.195992 381.671024 
L 523.979692 382.309932 
L 534.83447 381.671024 
L 550.35 381.671024 
L 550.35 382.864914 
L 538.80474 382.864914 
L 538.80474 381.991629 
L 527.889037 382.635399 
L 520.141426 382.635399 
L 509.225723 381.991629 
L 509.225723 382.864914 
L 497.65 382.864914 
L 497.65 381.671024 
z
" clip-path="url(#p9657edef87)" style="fill: #21599c"/>
   </g>
   <g id="patch_49">
    <path d="M 525.405333 381.370837 
L 524.373292 381.370837 
Q 511.714313 381.370837 504.676667 381.199558 
Q 497.65 381.028011 497.65 380.722292 
Q 497.65 380.417111 504.665687 380.244219 
Q 511.681375 380.071059 524 380.071059 
Q 536.450375 380.071059 543.400187 380.242606 
Q 550.35 380.413884 550.35 380.722292 
Q 550.35 380.933903 546.661 381.086897 
Q 542.972 381.239891 536.044146 381.31706 
L 546.364562 381.599387 
L 533.771458 381.599387 
L 525.405333 381.370837 
z
M 524 380.305524 
Q 517.961458 380.305524 514.634771 380.414691 
Q 511.308083 380.523857 511.308083 380.722292 
Q 511.308083 380.923954 514.557917 381.031238 
Q 517.818729 381.138253 524 381.138253 
Q 530.071479 381.138253 533.398167 381.029087 
Q 536.724854 380.919652 536.724854 380.722292 
Q 536.724854 380.523857 533.398167 380.414691 
Q 530.071479 380.305524 524 380.305524 
z
" clip-path="url(#p9657edef87)" style="fill: #40ba47"/>
   </g>
   <g id="patch_50">
    <path d="M 497.65 377.982236 
L 512.813382 377.982236 
L 512.813382 378.74285 
L 535.186618 378.74285 
L 535.186618 377.982236 
L 550.35 377.982236 
L 550.35 379.978311 
L 535.186618 379.978311 
L 535.186618 379.13214 
L 512.813382 379.13214 
L 512.813382 379.978311 
L 497.65 379.978311 
L 497.65 377.982236 
z
" clip-path="url(#p9657edef87)" style="fill: #177875"/>
   </g>
   <g id="patch_51">
    <path d="M 497.65 374.957794 
L 550.35 374.957794 
L 550.35 375.522539 
L 531.390256 375.522539 
L 531.390256 377.853505 
L 516.646512 377.853505 
L 516.646512 375.522539 
L 497.65 375.522539 
L 497.65 374.957794 
z
" clip-path="url(#p9657edef87)" style="fill: #40ba47"/>
   </g>
   <g id="patch_52">
    <path d="M 497.65 364.224166 
L 510.68762 364.224166 
L 524.016162 371.888769 
L 537.323155 364.224166 
L 550.35 364.224166 
L 531.730985 374.608324 
L 516.269015 374.608324 
L 497.65 364.224166 
z
" clip-path="url(#p9657edef87)" style="fill: #21599c"/>
   </g>
   <g id="patch_53">
    <path d="M 497.65 348.002297 
L 511.537864 348.002297 
L 511.537864 353.673974 
L 531.555783 348.002297 
L 547.683253 348.002297 
L 521.743078 355.362489 
L 550.35 363.54196 
L 532.964195 363.54196 
L 511.537864 357.420678 
L 511.537864 363.54196 
L 497.65 363.54196 
L 497.65 348.002297 
z
" clip-path="url(#p9657edef87)" style="fill: #bd2e1f"/>
   </g>
   <g id="patch_54">
    <path d="M 497.65 320.482125 
L 549.253077 320.482125 
L 549.253077 325.633995 
L 516.774615 325.633995 
L 516.774615 330.548087 
L 547.329487 330.548087 
L 547.329487 335.699957 
L 516.774615 335.699957 
L 516.774615 341.75199 
L 550.35 341.75199 
L 550.35 346.898199 
L 497.65 346.898199 
L 497.65 320.482125 
z
" clip-path="url(#p9657edef87)" style="fill: #6b296b"/>
   </g>
   <g id="patch_55">
    <path d="M 559.65 383.19864 
L 573.537864 383.19864 
L 573.537864 383.65432 
L 593.555783 383.19864 
L 609.683253 383.19864 
L 583.743078 383.789981 
L 612.35 384.447145 
L 594.964195 384.447145 
L 573.537864 383.955342 
L 573.537864 384.447145 
L 559.65 384.447145 
L 559.65 383.19864 
z
" clip-path="url(#p9657edef87)" style="fill: #bd2e1f"/>
   </g>
   <g id="patch_56">
    <path d="M 559.65 381.261926 
L 574.813382 381.261926 
L 574.813382 381.968798 
L 597.186618 381.968798 
L 597.186618 381.261926 
L 612.35 381.261926 
L 612.35 383.116968 
L 597.186618 383.116968 
L 597.186618 382.330583 
L 574.813382 382.330583 
L 574.813382 383.116968 
L 559.65 383.116968 
L 559.65 381.261926 
z
" clip-path="url(#p9657edef87)" style="fill: #177875"/>
   </g>
   <g id="patch_57">
    <path d="M 559.65 378.843396 
L 572.68762 378.843396 
L 586.016162 380.547645 
L 599.323155 378.843396 
L 612.35 378.843396 
L 593.730985 381.152347 
L 578.269015 381.152347 
L 559.65 378.843396 
z
" clip-path="url(#p9657edef87)" style="fill: #21599c"/>
   </g>
   <g id="patch_58">
    <path d="M 560.198462 374.185292 
L 611.801538 374.185292 
L 611.801538 375.058912 
L 579.323077 375.058912 
L 579.323077 375.892211 
L 609.877949 375.892211 
L 609.877949 376.76583 
L 579.323077 376.76583 
L 579.323077 378.664753 
L 560.198462 378.664753 
L 560.198462 374.185292 
z
" clip-path="url(#p9657edef87)" style="fill: #21599c"/>
   </g>
   <g id="patch_59">
    <path d="M 559.65 366.318114 
L 587.043021 366.318114 
Q 599.271068 366.318114 605.803672 366.958927 
Q 612.35 367.598123 612.35 368.781039 
Q 612.35 369.970428 605.803672 370.609624 
Q 599.271068 371.248819 587.043021 371.248819 
L 576.159922 371.248819 
L 576.159922 373.868712 
L 559.65 373.868712 
L 559.65 366.318114 
z
M 576.159922 367.729198 
L 576.159922 369.837734 
L 585.286354 369.837734 
Q 590.08974 369.837734 592.711016 369.562638 
Q 595.332292 369.287541 595.332292 368.781039 
Q 595.332292 368.276156 592.711016 368.002677 
Q 590.08974 367.729198 585.286354 367.729198 
L 576.159922 367.729198 
z
" clip-path="url(#p9657edef87)" style="fill: #787800"/>
   </g>
   <g id="patch_60">
    <path d="M 559.65 358.192301 
L 574.22 358.192301 
L 585.988929 360.945145 
L 597.746786 358.192301 
L 612.35 358.192301 
L 592.665 362.66174 
L 592.665 365.916154 
L 579.346071 365.916154 
L 579.346071 362.66174 
L 559.65 358.192301 
z
" clip-path="url(#p9657edef87)" style="fill: #177875"/>
   </g>
   <g id="patch_61">
    <path d="M 607.955948 350.124455 
L 607.955948 351.764642 
Q 602.459804 351.479103 597.221293 351.334674 
Q 591.997094 351.188584 587.34541 351.188584 
Q 581.176562 351.188584 578.213797 351.386137 
Q 575.265345 351.58203 575.265345 351.997057 
Q 575.265345 352.309157 577.254834 352.483469 
Q 579.244324 352.65612 584.482835 352.780628 
L 591.811027 352.951619 
Q 602.946442 353.212256 607.641065 353.74183 
Q 612.35 354.269745 612.35 355.245888 
Q 612.35 356.525831 605.794704 357.151692 
Q 599.239408 357.777553 585.770994 357.777553 
Q 579.430391 357.777553 573.032537 357.636443 
Q 566.634682 357.496994 560.236828 357.221416 
L 560.236828 355.536407 
Q 566.634682 355.929853 572.60315 356.130726 
Q 578.571619 356.329939 584.125014 356.329939 
Q 589.764286 356.329939 592.755676 356.112464 
Q 595.747067 355.89333 595.747067 355.488264 
Q 595.747067 355.12636 593.714639 354.928807 
Q 591.682211 354.731255 585.59924 354.575205 
L 578.929441 354.404213 
Q 568.910429 354.155197 564.273058 353.610682 
Q 559.65 353.066166 559.65 352.143146 
Q 559.65 350.986051 566.090793 350.363511 
Q 572.531586 349.74097 584.611651 349.74097 
Q 590.122108 349.74097 595.933134 349.837257 
Q 601.744161 349.933543 607.955948 350.124455 
z
" clip-path="url(#p9657edef87)" style="fill: #40ba47"/>
   </g>
   <g id="patch_62">
    <path d="M 596.155336 346.785471 
L 575.887763 346.785471 
L 572.68762 349.183121 
L 559.65 349.183121 
L 578.269015 336.021433 
L 593.730985 336.021433 
L 612.35 349.183121 
L 599.323155 349.183121 
L 596.155336 346.785471 
z
M 579.120231 344.342689 
L 592.890544 344.342689 
L 586.016162 339.10735 
L 579.120231 344.342689 
z
" clip-path="url(#p9657edef87)" style="fill: #21599c"/>
   </g>
   <g id="patch_63">
    <path d="M 612.35 332.49476 
Q 607.035119 333.726623 601.318669 334.345366 
Q 595.602219 334.958485 589.507822 334.958485 
Q 575.736374 334.958485 567.693187 331.291023 
Q 559.65 327.623561 559.65 321.351751 
Q 559.65 315.006816 567.834917 311.367479 
Q 576.031645 307.728142 590.287338 307.728142 
Q 595.779381 307.728142 600.810802 308.223136 
Q 605.854034 308.712506 610.318534 309.679996 
L 610.318534 315.108065 
Q 605.712304 313.864953 601.153317 313.251834 
Q 596.59433 312.633091 592.011721 312.633091 
Q 583.531533 312.633091 578.937113 314.894317 
Q 574.342694 317.149919 574.342694 321.351751 
Q 574.342694 325.514208 578.771762 327.786684 
Q 583.200829 330.053536 591.350314 330.053536 
Q 593.570753 330.053536 595.472299 329.924162 
Q 597.373846 329.789163 598.885634 329.507916 
L 598.885634 324.411719 
L 590.204662 324.411719 
L 590.204662 319.872391 
L 612.35 319.872391 
L 612.35 332.49476 
z
" clip-path="url(#p9657edef87)" style="fill: #787800"/>
   </g>
   <g id="matplotlib.axis_1">
    <g id="xtick_1">
     <g id="line2d_2">
      <defs>
       <path id="mdedc2b1442" d="M 0 0 
L 0 4.8 
" style="stroke: #262626"/>
      </defs>
      <g>
       <use xlink:href="#mdedc2b1442" x="152" y="384.48" style="fill: #262626; stroke: #262626"/>
      </g>
     </g>
     <g id="text_1">
      <!-- P4 -->
      <g style="fill: #262626" transform="translate(146.61825 399.078875) scale(0.088 -0.088)">
       <defs>
        <path id="ArialMT-50" d="M 494 0 
L 494 4581 
L 2222 4581 
Q 2678 4581 2919 4538 
Q 3256 4481 3484 4323 
Q 3713 4166 3852 3881 
Q 3991 3597 3991 3256 
Q 3991 2672 3619 2267 
Q 3247 1863 2275 1863 
L 1100 1863 
L 1100 0 
L 494 0 
z
M 1100 2403 
L 2284 2403 
Q 2872 2403 3119 2622 
Q 3366 2841 3366 3238 
Q 3366 3525 3220 3729 
Q 3075 3934 2838 4000 
Q 2684 4041 2272 4041 
L 1100 4041 
L 1100 2403 
z
" transform="scale(0.015625)"/>
        <path id="ArialMT-34" d="M 2069 0 
L 2069 1097 
L 81 1097 
L 81 1613 
L 2172 4581 
L 2631 4581 
L 2631 1613 
L 3250 1613 
L 3250 1097 
L 2631 1097 
L 2631 0 
L 2069 0 
z
M 2069 1613 
L 2069 3678 
L 634 1613 
L 2069 1613 
z
" transform="scale(0.015625)"/>
       </defs>
       <use xlink:href="#ArialMT-50"/>
       <use xlink:href="#ArialMT-34" x="66.699219"/>
      </g>
     </g>
    </g>
    <g id="xtick_2">
     <g id="line2d_3">
      <g>
       <use xlink:href="#mdedc2b1442" x="214" y="384.48" style="fill: #262626; stroke: #262626"/>
      </g>
     </g>
     <g id="text_2">
      <!-- P3 -->
      <g style="fill: #262626" transform="translate(208.61825 399.078875) scale(0.088 -0.088)">
       <defs>
        <path id="ArialMT-33" d="M 269 1209 
L 831 1284 
Q 928 806 1161 595 
Q 1394 384 1728 384 
Q 2125 384 2398 659 
Q 2672 934 2672 1341 
Q 2672 1728 2419 1979 
Q 2166 2231 1775 2231 
Q 1616 2231 1378 2169 
L 1441 2663 
Q 1497 2656 1531 2656 
Q 1891 2656 2178 2843 
Q 2466 3031 2466 3422 
Q 2466 3731 2256 3934 
Q 2047 4138 1716 4138 
Q 1388 4138 1169 3931 
Q 950 3725 888 3313 
L 325 3413 
Q 428 3978 793 4289 
Q 1159 4600 1703 4600 
Q 2078 4600 2393 4439 
Q 2709 4278 2876 4000 
Q 3044 3722 3044 3409 
Q 3044 3113 2884 2869 
Q 2725 2625 2413 2481 
Q 2819 2388 3044 2092 
Q 3269 1797 3269 1353 
Q 3269 753 2831 336 
Q 2394 -81 1725 -81 
Q 1122 -81 723 278 
Q 325 638 269 1209 
z
" transform="scale(0.015625)"/>
       </defs>
       <use xlink:href="#ArialMT-50"/>
       <use xlink:href="#ArialMT-33" x="66.699219"/>
      </g>
     </g>
    </g>
    <g id="xtick_3">
     <g id="line2d_4">
      <g>
       <use xlink:href="#mdedc2b1442" x="276" y="384.48" style="fill: #262626; stroke: #262626"/>
      </g>
     </g>
     <g id="text_3">
      <!-- P2 -->
      <g style="fill: #262626" transform="translate(270.61825 399.078875) scale(0.088 -0.088)">
       <defs>
        <path id="ArialMT-32" d="M 3222 541 
L 3222 0 
L 194 0 
Q 188 203 259 391 
Q 375 700 629 1000 
Q 884 1300 1366 1694 
Q 2113 2306 2375 2664 
Q 2638 3022 2638 3341 
Q 2638 3675 2398 3904 
Q 2159 4134 1775 4134 
Q 1369 4134 1125 3890 
Q 881 3647 878 3216 
L 300 3275 
Q 359 3922 746 4261 
Q 1134 4600 1788 4600 
Q 2447 4600 2831 4234 
Q 3216 3869 3216 3328 
Q 3216 3053 3103 2787 
Q 2991 2522 2730 2228 
Q 2469 1934 1863 1422 
Q 1356 997 1212 845 
Q 1069 694 975 541 
L 3222 541 
z
" transform="scale(0.015625)"/>
       </defs>
       <use xlink:href="#ArialMT-50"/>
       <use xlink:href="#ArialMT-32" x="66.699219"/>
      </g>
     </g>
    </g>
    <g id="xtick_4">
     <g id="line2d_5">
      <g>
       <use xlink:href="#mdedc2b1442" x="338" y="384.48" style="fill: #262626; stroke: #262626"/>
      </g>
     </g>
     <g id="text_4">
      <!-- P1 -->
      <g style="fill: #262626" transform="translate(332.61825 399.078875) scale(0.088 -0.088)">
       <defs>
        <path id="ArialMT-31" d="M 2384 0 
L 1822 0 
L 1822 3584 
Q 1619 3391 1289 3197 
Q 959 3003 697 2906 
L 697 3450 
Q 1169 3672 1522 3987 
Q 1875 4303 2022 4600 
L 2384 4600 
L 2384 0 
z
" transform="scale(0.015625)"/>
       </defs>
       <use xlink:href="#ArialMT-50"/>
       <use xlink:href="#ArialMT-31" x="66.699219"/>
      </g>
     </g>
    </g>
    <g id="xtick_5">
     <g id="line2d_6">
      <g>
       <use xlink:href="#mdedc2b1442" x="400" y="384.48" style="fill: #262626; stroke: #262626"/>
      </g>
     </g>
     <g id="text_5">
      <!-- P1' -->
      <g style="fill: #262626" transform="translate(393.778125 399.078875) scale(0.088 -0.088)">
       <defs>
        <path id="ArialMT-27" d="M 425 2959 
L 281 3816 
L 281 4581 
L 922 4581 
L 922 3816 
L 772 2959 
L 425 2959 
z
" transform="scale(0.015625)"/>
       </defs>
       <use xlink:href="#ArialMT-50"/>
       <use xlink:href="#ArialMT-31" x="66.699219"/>
       <use xlink:href="#ArialMT-27" x="122.314453"/>
      </g>
     </g>
    </g>
    <g id="xtick_6">
     <g id="line2d_7">
      <g>
       <use xlink:href="#mdedc2b1442" x="462" y="384.48" style="fill: #262626; stroke: #262626"/>
      </g>
     </g>
     <g id="text_6">
      <!-- P2' -->
      <g style="fill: #262626" transform="translate(455.778125 399.078875) scale(0.088 -0.088)">
       <use xlink:href="#ArialMT-50"/>
       <use xlink:href="#ArialMT-32" x="66.699219"/>
       <use xlink:href="#ArialMT-27" x="122.314453"/>
      </g>
     </g>
    </g>
    <g id="xtick_7">
     <g id="line2d_8">
      <g>
       <use xlink:href="#mdedc2b1442" x="524" y="384.48" style="fill: #262626; stroke: #262626"/>
      </g>
     </g>
     <g id="text_7">
      <!-- P3' -->
      <g style="fill: #262626" transform="translate(517.778125 399.078875) scale(0.088 -0.088)">
       <use xlink:href="#ArialMT-50"/>
       <use xlink:href="#ArialMT-33" x="66.699219"/>
       <use xlink:href="#ArialMT-27" x="122.314453"/>
      </g>
     </g>
    </g>
    <g id="xtick_8">
     <g id="line2d_9">
      <g>
       <use xlink:href="#mdedc2b1442" x="586" y="384.48" style="fill: #262626; stroke: #262626"/>
      </g>
     </g>
     <g id="text_8">
      <!-- P4' -->
      <g style="fill: #262626" transform="translate(579.778125 399.078875) scale(0.088 -0.088)">
       <use xlink:href="#ArialMT-50"/>
       <use xlink:href="#ArialMT-34" x="66.699219"/>
       <use xlink:href="#ArialMT-27" x="122.314453"/>
      </g>
     </g>
    </g>
   </g>
   <g id="matplotlib.axis_2">
    <g id="ytick_1">
     <g id="line2d_10">
      <defs>
       <path id="m30ed859936" d="M 0 0 
L -4.8 0 
" style="stroke: #262626"/>
      </defs>
      <g>
       <use xlink:href="#m30ed859936" x="90" y="384.48" style="fill: #262626; stroke: #262626"/>
      </g>
     </g>
     <g id="text_9">
      <!-- 0.0 -->
      <g style="fill: #262626" transform="translate(69.468 387.629437) scale(0.088 -0.088)">
       <defs>
        <path id="ArialMT-30" d="M 266 2259 
Q 266 3072 433 3567 
Q 600 4063 929 4331 
Q 1259 4600 1759 4600 
Q 2128 4600 2406 4451 
Q 2684 4303 2865 4023 
Q 3047 3744 3150 3342 
Q 3253 2941 3253 2259 
Q 3253 1453 3087 958 
Q 2922 463 2592 192 
Q 2263 -78 1759 -78 
Q 1097 -78 719 397 
Q 266 969 266 2259 
z
M 844 2259 
Q 844 1131 1108 757 
Q 1372 384 1759 384 
Q 2147 384 2411 759 
Q 2675 1134 2675 2259 
Q 2675 3391 2411 3762 
Q 2147 4134 1753 4134 
Q 1366 4134 1134 3806 
Q 844 3388 844 2259 
z
" transform="scale(0.015625)"/>
        <path id="ArialMT-2e" d="M 581 0 
L 581 641 
L 1222 641 
L 1222 0 
L 581 0 
z
" transform="scale(0.015625)"/>
       </defs>
       <use xlink:href="#ArialMT-30"/>
       <use xlink:href="#ArialMT-2e" x="55.615234"/>
       <use xlink:href="#ArialMT-30" x="83.398438"/>
      </g>
     </g>
    </g>
    <g id="ytick_2">
     <g id="line2d_11">
      <g>
       <use xlink:href="#m30ed859936" x="90" y="344.157954" style="fill: #262626; stroke: #262626"/>
      </g>
     </g>
     <g id="text_10">
      <!-- 0.2 -->
      <g style="fill: #262626" transform="translate(69.468 347.307391) scale(0.088 -0.088)">
       <use xlink:href="#ArialMT-30"/>
       <use xlink:href="#ArialMT-2e" x="55.615234"/>
       <use xlink:href="#ArialMT-32" x="83.398438"/>
      </g>
     </g>
    </g>
    <g id="ytick_3">
     <g id="line2d_12">
      <g>
       <use xlink:href="#m30ed859936" x="90" y="303.835908" style="fill: #262626; stroke: #262626"/>
      </g>
     </g>
     <g id="text_11">
      <!-- 0.4 -->
      <g style="fill: #262626" transform="translate(69.468 306.985345) scale(0.088 -0.088)">
       <use xlink:href="#ArialMT-30"/>
       <use xlink:href="#ArialMT-2e" x="55.615234"/>
       <use xlink:href="#ArialMT-34" x="83.398438"/>
      </g>
     </g>
    </g>
    <g id="ytick_4">
     <g id="line2d_13">
      <g>
       <use xlink:href="#m30ed859936" x="90" y="263.513861" style="fill: #262626; stroke: #262626"/>
      </g>
     </g>
     <g id="text_12">
      <!-- 0.6 -->
      <g style="fill: #262626" transform="translate(69.468 266.663299) scale(0.088 -0.088)">
       <defs>
        <path id="ArialMT-36" d="M 3184 3459 
L 2625 3416 
Q 2550 3747 2413 3897 
Q 2184 4138 1850 4138 
Q 1581 4138 1378 3988 
Q 1113 3794 959 3422 
Q 806 3050 800 2363 
Q 1003 2672 1297 2822 
Q 1591 2972 1913 2972 
Q 2475 2972 2870 2558 
Q 3266 2144 3266 1488 
Q 3266 1056 3080 686 
Q 2894 316 2569 119 
Q 2244 -78 1831 -78 
Q 1128 -78 684 439 
Q 241 956 241 2144 
Q 241 3472 731 4075 
Q 1159 4600 1884 4600 
Q 2425 4600 2770 4297 
Q 3116 3994 3184 3459 
z
M 888 1484 
Q 888 1194 1011 928 
Q 1134 663 1356 523 
Q 1578 384 1822 384 
Q 2178 384 2434 671 
Q 2691 959 2691 1453 
Q 2691 1928 2437 2201 
Q 2184 2475 1800 2475 
Q 1419 2475 1153 2201 
Q 888 1928 888 1484 
z
" transform="scale(0.015625)"/>
       </defs>
       <use xlink:href="#ArialMT-30"/>
       <use xlink:href="#ArialMT-2e" x="55.615234"/>
       <use xlink:href="#ArialMT-36" x="83.398438"/>
      </g>
     </g>
    </g>
    <g id="ytick_5">
     <g id="line2d_14">
      <g>
       <use xlink:href="#m30ed859936" x="90" y="223.191815" style="fill: #262626; stroke: #262626"/>
      </g>
     </g>
     <g id="text_13">
      <!-- 0.8 -->
      <g style="fill: #262626" transform="translate(69.468 226.341253) scale(0.088 -0.088)">
       <defs>
        <path id="ArialMT-38" d="M 1131 2484 
Q 781 2613 612 2850 
Q 444 3088 444 3419 
Q 444 3919 803 4259 
Q 1163 4600 1759 4600 
Q 2359 4600 2725 4251 
Q 3091 3903 3091 3403 
Q 3091 3084 2923 2848 
Q 2756 2613 2416 2484 
Q 2838 2347 3058 2040 
Q 3278 1734 3278 1309 
Q 3278 722 2862 322 
Q 2447 -78 1769 -78 
Q 1091 -78 675 323 
Q 259 725 259 1325 
Q 259 1772 486 2073 
Q 713 2375 1131 2484 
z
M 1019 3438 
Q 1019 3113 1228 2906 
Q 1438 2700 1772 2700 
Q 2097 2700 2305 2904 
Q 2513 3109 2513 3406 
Q 2513 3716 2298 3927 
Q 2084 4138 1766 4138 
Q 1444 4138 1231 3931 
Q 1019 3725 1019 3438 
z
M 838 1322 
Q 838 1081 952 856 
Q 1066 631 1291 507 
Q 1516 384 1775 384 
Q 2178 384 2440 643 
Q 2703 903 2703 1303 
Q 2703 1709 2433 1975 
Q 2163 2241 1756 2241 
Q 1359 2241 1098 1978 
Q 838 1716 838 1322 
z
" transform="scale(0.015625)"/>
       </defs>
       <use xlink:href="#ArialMT-30"/>
       <use xlink:href="#ArialMT-2e" x="55.615234"/>
       <use xlink:href="#ArialMT-38" x="83.398438"/>
      </g>
     </g>
    </g>
    <g id="ytick_6">
     <g id="line2d_15">
      <g>
       <use xlink:href="#m30ed859936" x="90" y="182.869769" style="fill: #262626; stroke: #262626"/>
      </g>
     </g>
     <g id="text_14">
      <!-- 1.0 -->
      <g style="fill: #262626" transform="translate(69.468 186.019207) scale(0.088 -0.088)">
       <use xlink:href="#ArialMT-31"/>
       <use xlink:href="#ArialMT-2e" x="55.615234"/>
       <use xlink:href="#ArialMT-30" x="83.398438"/>
      </g>
     </g>
    </g>
    <g id="ytick_7">
     <g id="line2d_16">
      <g>
       <use xlink:href="#m30ed859936" x="90" y="142.547723" style="fill: #262626; stroke: #262626"/>
      </g>
     </g>
     <g id="text_15">
      <!-- 1.2 -->
      <g style="fill: #262626" transform="translate(69.468 145.69716) scale(0.088 -0.088)">
       <use xlink:href="#ArialMT-31"/>
       <use xlink:href="#ArialMT-2e" x="55.615234"/>
       <use xlink:href="#ArialMT-32" x="83.398438"/>
      </g>
     </g>
    </g>
    <g id="ytick_8">
     <g id="line2d_17">
      <g>
       <use xlink:href="#m30ed859936" x="90" y="102.225677" style="fill: #262626; stroke: #262626"/>
      </g>
     </g>
     <g id="text_16">
      <!-- 1.4 -->
      <g style="fill: #262626" transform="translate(69.468 105.375114) scale(0.088 -0.088)">
       <use xlink:href="#ArialMT-31"/>
       <use xlink:href="#ArialMT-2e" x="55.615234"/>
       <use xlink:href="#ArialMT-34" x="83.398438"/>
      </g>
     </g>
    </g>
    <g id="ytick_9">
     <g id="line2d_18">
      <g>
       <use xlink:href="#m30ed859936" x="90" y="61.90363" style="fill: #262626; stroke: #262626"/>
      </g>
     </g>
     <g id="text_17">
      <!-- 1.6 -->
      <g style="fill: #262626" transform="translate(69.468 65.053068) scale(0.088 -0.088)">
       <use xlink:href="#ArialMT-31"/>
       <use xlink:href="#ArialMT-2e" x="55.615234"/>
       <use xlink:href="#ArialMT-36" x="83.398438"/>
      </g>
     </g>
    </g>
    <g id="text_18">
     <!-- information (bits) -->
     <g style="fill: #262626" transform="translate(63.4475 253.902) rotate(-90) scale(0.096 -0.096)">
      <defs>
       <path id="ArialMT-69" d="M 425 3934 
L 425 4581 
L 988 4581 
L 988 3934 
L 425 3934 
z
M 425 0 
L 425 3319 
L 988 3319 
L 988 0 
L 425 0 
z
" transform="scale(0.015625)"/>
       <path id="ArialMT-6e" d="M 422 0 
L 422 3319 
L 928 3319 
L 928 2847 
Q 1294 3394 1984 3394 
Q 2284 3394 2536 3286 
Q 2788 3178 2913 3003 
Q 3038 2828 3088 2588 
Q 3119 2431 3119 2041 
L 3119 0 
L 2556 0 
L 2556 2019 
Q 2556 2363 2490 2533 
Q 2425 2703 2258 2804 
Q 2091 2906 1866 2906 
Q 1506 2906 1245 2678 
Q 984 2450 984 1813 
L 984 0 
L 422 0 
z
" transform="scale(0.015625)"/>
       <path id="ArialMT-66" d="M 556 0 
L 556 2881 
L 59 2881 
L 59 3319 
L 556 3319 
L 556 3672 
Q 556 4006 616 4169 
Q 697 4388 901 4523 
Q 1106 4659 1475 4659 
Q 1713 4659 2000 4603 
L 1916 4113 
Q 1741 4144 1584 4144 
Q 1328 4144 1222 4034 
Q 1116 3925 1116 3625 
L 1116 3319 
L 1763 3319 
L 1763 2881 
L 1116 2881 
L 1116 0 
L 556 0 
z
" transform="scale(0.015625)"/>
       <path id="ArialMT-6f" d="M 213 1659 
Q 213 2581 725 3025 
Q 1153 3394 1769 3394 
Q 2453 3394 2887 2945 
Q 3322 2497 3322 1706 
Q 3322 1066 3130 698 
Q 2938 331 2570 128 
Q 2203 -75 1769 -75 
Q 1072 -75 642 372 
Q 213 819 213 1659 
z
M 791 1659 
Q 791 1022 1069 705 
Q 1347 388 1769 388 
Q 2188 388 2466 706 
Q 2744 1025 2744 1678 
Q 2744 2294 2464 2611 
Q 2184 2928 1769 2928 
Q 1347 2928 1069 2612 
Q 791 2297 791 1659 
z
" transform="scale(0.015625)"/>
       <path id="ArialMT-72" d="M 416 0 
L 416 3319 
L 922 3319 
L 922 2816 
Q 1116 3169 1280 3281 
Q 1444 3394 1641 3394 
Q 1925 3394 2219 3213 
L 2025 2691 
Q 1819 2813 1613 2813 
Q 1428 2813 1281 2702 
Q 1134 2591 1072 2394 
Q 978 2094 978 1738 
L 978 0 
L 416 0 
z
" transform="scale(0.015625)"/>
       <path id="ArialMT-6d" d="M 422 0 
L 422 3319 
L 925 3319 
L 925 2853 
Q 1081 3097 1340 3245 
Q 1600 3394 1931 3394 
Q 2300 3394 2536 3241 
Q 2772 3088 2869 2813 
Q 3263 3394 3894 3394 
Q 4388 3394 4653 3120 
Q 4919 2847 4919 2278 
L 4919 0 
L 4359 0 
L 4359 2091 
Q 4359 2428 4304 2576 
Q 4250 2725 4106 2815 
Q 3963 2906 3769 2906 
Q 3419 2906 3187 2673 
Q 2956 2441 2956 1928 
L 2956 0 
L 2394 0 
L 2394 2156 
Q 2394 2531 2256 2718 
Q 2119 2906 1806 2906 
Q 1569 2906 1367 2781 
Q 1166 2656 1075 2415 
Q 984 2175 984 1722 
L 984 0 
L 422 0 
z
" transform="scale(0.015625)"/>
       <path id="ArialMT-61" d="M 2588 409 
Q 2275 144 1986 34 
Q 1697 -75 1366 -75 
Q 819 -75 525 192 
Q 231 459 231 875 
Q 231 1119 342 1320 
Q 453 1522 633 1644 
Q 813 1766 1038 1828 
Q 1203 1872 1538 1913 
Q 2219 1994 2541 2106 
Q 2544 2222 2544 2253 
Q 2544 2597 2384 2738 
Q 2169 2928 1744 2928 
Q 1347 2928 1158 2789 
Q 969 2650 878 2297 
L 328 2372 
Q 403 2725 575 2942 
Q 747 3159 1072 3276 
Q 1397 3394 1825 3394 
Q 2250 3394 2515 3294 
Q 2781 3194 2906 3042 
Q 3031 2891 3081 2659 
Q 3109 2516 3109 2141 
L 3109 1391 
Q 3109 606 3145 398 
Q 3181 191 3288 0 
L 2700 0 
Q 2613 175 2588 409 
z
M 2541 1666 
Q 2234 1541 1622 1453 
Q 1275 1403 1131 1340 
Q 988 1278 909 1158 
Q 831 1038 831 891 
Q 831 666 1001 516 
Q 1172 366 1500 366 
Q 1825 366 2078 508 
Q 2331 650 2450 897 
Q 2541 1088 2541 1459 
L 2541 1666 
z
" transform="scale(0.015625)"/>
       <path id="ArialMT-74" d="M 1650 503 
L 1731 6 
Q 1494 -44 1306 -44 
Q 1000 -44 831 53 
Q 663 150 594 308 
Q 525 466 525 972 
L 525 2881 
L 113 2881 
L 113 3319 
L 525 3319 
L 525 4141 
L 1084 4478 
L 1084 3319 
L 1650 3319 
L 1650 2881 
L 1084 2881 
L 1084 941 
Q 1084 700 1114 631 
Q 1144 563 1211 522 
Q 1278 481 1403 481 
Q 1497 481 1650 503 
z
" transform="scale(0.015625)"/>
       <path id="ArialMT-20" transform="scale(0.015625)"/>
       <path id="ArialMT-28" d="M 1497 -1347 
Q 1031 -759 709 28 
Q 388 816 388 1659 
Q 388 2403 628 3084 
Q 909 3875 1497 4659 
L 1900 4659 
Q 1522 4009 1400 3731 
Q 1209 3300 1100 2831 
Q 966 2247 966 1656 
Q 966 153 1900 -1347 
L 1497 -1347 
z
" transform="scale(0.015625)"/>
       <path id="ArialMT-62" d="M 941 0 
L 419 0 
L 419 4581 
L 981 4581 
L 981 2947 
Q 1338 3394 1891 3394 
Q 2197 3394 2470 3270 
Q 2744 3147 2920 2923 
Q 3097 2700 3197 2384 
Q 3297 2069 3297 1709 
Q 3297 856 2875 390 
Q 2453 -75 1863 -75 
Q 1275 -75 941 416 
L 941 0 
z
M 934 1684 
Q 934 1088 1097 822 
Q 1363 388 1816 388 
Q 2184 388 2453 708 
Q 2722 1028 2722 1663 
Q 2722 2313 2464 2622 
Q 2206 2931 1841 2931 
Q 1472 2931 1203 2611 
Q 934 2291 934 1684 
z
" transform="scale(0.015625)"/>
       <path id="ArialMT-73" d="M 197 991 
L 753 1078 
Q 800 744 1014 566 
Q 1228 388 1613 388 
Q 2000 388 2187 545 
Q 2375 703 2375 916 
Q 2375 1106 2209 1216 
Q 2094 1291 1634 1406 
Q 1016 1563 777 1677 
Q 538 1791 414 1992 
Q 291 2194 291 2438 
Q 291 2659 392 2848 
Q 494 3038 669 3163 
Q 800 3259 1026 3326 
Q 1253 3394 1513 3394 
Q 1903 3394 2198 3281 
Q 2494 3169 2634 2976 
Q 2775 2784 2828 2463 
L 2278 2388 
Q 2241 2644 2061 2787 
Q 1881 2931 1553 2931 
Q 1166 2931 1000 2803 
Q 834 2675 834 2503 
Q 834 2394 903 2306 
Q 972 2216 1119 2156 
Q 1203 2125 1616 2013 
Q 2213 1853 2448 1751 
Q 2684 1650 2818 1456 
Q 2953 1263 2953 975 
Q 2953 694 2789 445 
Q 2625 197 2315 61 
Q 2006 -75 1616 -75 
Q 969 -75 630 194 
Q 291 463 197 991 
z
" transform="scale(0.015625)"/>
       <path id="ArialMT-29" d="M 791 -1347 
L 388 -1347 
Q 1322 153 1322 1656 
Q 1322 2244 1188 2822 
Q 1081 3291 891 3722 
Q 769 4003 388 4659 
L 791 4659 
Q 1378 3875 1659 3084 
Q 1900 2403 1900 1659 
Q 1900 816 1576 28 
Q 1253 -759 791 -1347 
z
" transform="scale(0.015625)"/>
      </defs>
      <use xlink:href="#ArialMT-69"/>
      <use xlink:href="#ArialMT-6e" x="22.216797"/>
      <use xlink:href="#ArialMT-66" x="77.832031"/>
      <use xlink:href="#ArialMT-6f" x="105.615234"/>
      <use xlink:href="#ArialMT-72" x="161.230469"/>
      <use xlink:href="#ArialMT-6d" x="194.53125"/>
      <use xlink:href="#ArialMT-61" x="277.832031"/>
      <use xlink:href="#ArialMT-74" x="333.447266"/>
      <use xlink:href="#ArialMT-69" x="361.230469"/>
      <use xlink:href="#ArialMT-6f" x="383.447266"/>
      <use xlink:href="#ArialMT-6e" x="439.0625"/>
      <use xlink:href="#ArialMT-20" x="494.677734"/>
      <use xlink:href="#ArialMT-28" x="522.460938"/>
      <use xlink:href="#ArialMT-62" x="555.761719"/>
      <use xlink:href="#ArialMT-69" x="611.376953"/>
      <use xlink:href="#ArialMT-74" x="633.59375"/>
      <use xlink:href="#ArialMT-73" x="661.376953"/>
      <use xlink:href="#ArialMT-29" x="711.376953"/>
     </g>
    </g>
   </g>
   <g id="line2d_19">
    <path d="M 369 384.48 
L 369 51.84 
" clip-path="url(#p9657edef87)" style="fill: none; stroke: #daa520; stroke-width: 2; stroke-linecap: round"/>
   </g>
   <g id="patch_64">
    <path d="M 90 384.48 
L 648 384.48 
" style="fill: none; stroke: #262626; stroke-linejoin: miter; stroke-linecap: square"/>
   </g>
   <g id="patch_65">
    <path d="M 90 51.84 
L 648 51.84 
" style="fill: none; stroke: #262626; stroke-linejoin: miter; stroke-linecap: square"/>
   </g>
   <g id="text_19">
    <!-- ctrl vs. MMP9 information content, Kullback n=28 -->
    <g style="fill: #262626" transform="translate(264.82575 45.84) scale(0.096 -0.096)">
     <defs>
      <path id="ArialMT-63" d="M 2588 1216 
L 3141 1144 
Q 3050 572 2676 248 
Q 2303 -75 1759 -75 
Q 1078 -75 664 370 
Q 250 816 250 1647 
Q 250 2184 428 2587 
Q 606 2991 970 3192 
Q 1334 3394 1763 3394 
Q 2303 3394 2647 3120 
Q 2991 2847 3088 2344 
L 2541 2259 
Q 2463 2594 2264 2762 
Q 2066 2931 1784 2931 
Q 1359 2931 1093 2626 
Q 828 2322 828 1663 
Q 828 994 1084 691 
Q 1341 388 1753 388 
Q 2084 388 2306 591 
Q 2528 794 2588 1216 
z
" transform="scale(0.015625)"/>
      <path id="ArialMT-6c" d="M 409 0 
L 409 4581 
L 972 4581 
L 972 0 
L 409 0 
z
" transform="scale(0.015625)"/>
      <path id="ArialMT-76" d="M 1344 0 
L 81 3319 
L 675 3319 
L 1388 1331 
Q 1503 1009 1600 663 
Q 1675 925 1809 1294 
L 2547 3319 
L 3125 3319 
L 1869 0 
L 1344 0 
z
" transform="scale(0.015625)"/>
      <path id="ArialMT-4d" d="M 475 0 
L 475 4581 
L 1388 4581 
L 2472 1338 
Q 2622 884 2691 659 
Q 2769 909 2934 1394 
L 4031 4581 
L 4847 4581 
L 4847 0 
L 4263 0 
L 4263 3834 
L 2931 0 
L 2384 0 
L 1059 3900 
L 1059 0 
L 475 0 
z
" transform="scale(0.015625)"/>
      <path id="ArialMT-39" d="M 350 1059 
L 891 1109 
Q 959 728 1153 556 
Q 1347 384 1650 384 
Q 1909 384 2104 503 
Q 2300 622 2425 820 
Q 2550 1019 2634 1356 
Q 2719 1694 2719 2044 
Q 2719 2081 2716 2156 
Q 2547 1888 2255 1720 
Q 1963 1553 1622 1553 
Q 1053 1553 659 1965 
Q 266 2378 266 3053 
Q 266 3750 677 4175 
Q 1088 4600 1706 4600 
Q 2153 4600 2523 4359 
Q 2894 4119 3086 3673 
Q 3278 3228 3278 2384 
Q 3278 1506 3087 986 
Q 2897 466 2520 194 
Q 2144 -78 1638 -78 
Q 1100 -78 759 220 
Q 419 519 350 1059 
z
M 2653 3081 
Q 2653 3566 2395 3850 
Q 2138 4134 1775 4134 
Q 1400 4134 1122 3828 
Q 844 3522 844 3034 
Q 844 2597 1108 2323 
Q 1372 2050 1759 2050 
Q 2150 2050 2401 2323 
Q 2653 2597 2653 3081 
z
" transform="scale(0.015625)"/>
      <path id="ArialMT-65" d="M 2694 1069 
L 3275 997 
Q 3138 488 2766 206 
Q 2394 -75 1816 -75 
Q 1088 -75 661 373 
Q 234 822 234 1631 
Q 234 2469 665 2931 
Q 1097 3394 1784 3394 
Q 2450 3394 2872 2941 
Q 3294 2488 3294 1666 
Q 3294 1616 3291 1516 
L 816 1516 
Q 847 969 1125 678 
Q 1403 388 1819 388 
Q 2128 388 2347 550 
Q 2566 713 2694 1069 
z
M 847 1978 
L 2700 1978 
Q 2663 2397 2488 2606 
Q 2219 2931 1791 2931 
Q 1403 2931 1139 2672 
Q 875 2413 847 1978 
z
" transform="scale(0.015625)"/>
      <path id="ArialMT-2c" d="M 569 0 
L 569 641 
L 1209 641 
L 1209 0 
Q 1209 -353 1084 -570 
Q 959 -788 688 -906 
L 531 -666 
Q 709 -588 793 -436 
Q 878 -284 888 0 
L 569 0 
z
" transform="scale(0.015625)"/>
      <path id="ArialMT-4b" d="M 469 0 
L 469 4581 
L 1075 4581 
L 1075 2309 
L 3350 4581 
L 4172 4581 
L 2250 2725 
L 4256 0 
L 3456 0 
L 1825 2319 
L 1075 1588 
L 1075 0 
L 469 0 
z
" transform="scale(0.015625)"/>
      <path id="ArialMT-75" d="M 2597 0 
L 2597 488 
Q 2209 -75 1544 -75 
Q 1250 -75 995 37 
Q 741 150 617 320 
Q 494 491 444 738 
Q 409 903 409 1263 
L 409 3319 
L 972 3319 
L 972 1478 
Q 972 1038 1006 884 
Q 1059 663 1231 536 
Q 1403 409 1656 409 
Q 1909 409 2131 539 
Q 2353 669 2445 892 
Q 2538 1116 2538 1541 
L 2538 3319 
L 3100 3319 
L 3100 0 
L 2597 0 
z
" transform="scale(0.015625)"/>
      <path id="ArialMT-6b" d="M 425 0 
L 425 4581 
L 988 4581 
L 988 1969 
L 2319 3319 
L 3047 3319 
L 1778 2088 
L 3175 0 
L 2481 0 
L 1384 1697 
L 988 1316 
L 988 0 
L 425 0 
z
" transform="scale(0.015625)"/>
      <path id="ArialMT-3d" d="M 3381 2694 
L 356 2694 
L 356 3219 
L 3381 3219 
L 3381 2694 
z
M 3381 1303 
L 356 1303 
L 356 1828 
L 3381 1828 
L 3381 1303 
z
" transform="scale(0.015625)"/>
     </defs>
     <use xlink:href="#ArialMT-63"/>
     <use xlink:href="#ArialMT-74" x="50"/>
     <use xlink:href="#ArialMT-72" x="77.783203"/>
     <use xlink:href="#ArialMT-6c" x="111.083984"/>
     <use xlink:href="#ArialMT-20" x="133.300781"/>
     <use xlink:href="#ArialMT-76" x="161.083984"/>
     <use xlink:href="#ArialMT-73" x="211.083984"/>
     <use xlink:href="#ArialMT-2e" x="261.083984"/>
     <use xlink:href="#ArialMT-20" x="288.867188"/>
     <use xlink:href="#ArialMT-4d" x="316.650391"/>
     <use xlink:href="#ArialMT-4d" x="399.951172"/>
     <use xlink:href="#ArialMT-50" x="483.251953"/>
     <use xlink:href="#ArialMT-39" x="549.951172"/>
     <use xlink:href="#ArialMT-20" x="605.566406"/>
     <use xlink:href="#ArialMT-69" x="633.349609"/>
     <use xlink:href="#ArialMT-6e" x="655.566406"/>
     <use xlink:href="#ArialMT-66" x="711.181641"/>
     <use xlink:href="#ArialMT-6f" x="738.964844"/>
     <use xlink:href="#ArialMT-72" x="794.580078"/>
     <use xlink:href="#ArialMT-6d" x="827.880859"/>
     <use xlink:href="#ArialMT-61" x="911.181641"/>
     <use xlink:href="#ArialMT-74" x="966.796875"/>
     <use xlink:href="#ArialMT-69" x="994.580078"/>
     <use xlink:href="#ArialMT-6f" x="1016.796875"/>
     <use xlink:href="#ArialMT-6e" x="1072.412109"/>
     <use xlink:href="#ArialMT-20" x="1128.027344"/>
     <use xlink:href="#ArialMT-63" x="1155.810547"/>
     <use xlink:href="#ArialMT-6f" x="1205.810547"/>
     <use xlink:href="#ArialMT-6e" x="1261.425781"/>
     <use xlink:href="#ArialMT-74" x="1317.041016"/>
     <use xlink:href="#ArialMT-65" x="1344.824219"/>
     <use xlink:href="#ArialMT-6e" x="1400.439453"/>
     <use xlink:href="#ArialMT-74" x="1456.054688"/>
     <use xlink:href="#ArialMT-2c" x="1483.837891"/>
     <use xlink:href="#ArialMT-20" x="1511.621094"/>
     <use xlink:href="#ArialMT-4b" x="1539.404297"/>
     <use xlink:href="#ArialMT-75" x="1606.103516"/>
     <use xlink:href="#ArialMT-6c" x="1661.71875"/>
     <use xlink:href="#ArialMT-6c" x="1683.935547"/>
     <use xlink:href="#ArialMT-62" x="1706.152344"/>
     <use xlink:href="#ArialMT-61" x="1761.767578"/>
     <use xlink:href="#ArialMT-63" x="1817.382812"/>
     <use xlink:href="#ArialMT-6b" x="1867.382812"/>
     <use xlink:href="#ArialMT-20" x="1917.382812"/>
     <use xlink:href="#ArialMT-6e" x="1945.166016"/>
     <use xlink:href="#ArialMT-3d" x="2000.78125"/>
     <use xlink:href="#ArialMT-32" x="2059.179688"/>
     <use xlink:href="#ArialMT-38" x="2114.794922"/>
    </g>
   </g>
  </g>
 </g>
 <defs>
  <clipPath id="p9657edef87">
   <rect x="90" y="51.84" width="558" height="332.64"/>
  </clipPath>
 </defs>
</svg>
