<?xml version="1.0" encoding="utf-8" standalone="no"?>
<!DOCTYPE svg PUBLIC "-//W3C//DTD SVG 1.1//EN"
  "http://www.w3.org/Graphics/SVG/1.1/DTD/svg11.dtd">
<svg xmlns:xlink="http://www.w3.org/1999/xlink" width="720pt" height="432pt" viewBox="0 0 720 432" xmlns="http://www.w3.org/2000/svg" version="1.1">
 <metadata>
  <rdf:RDF xmlns:dc="http://purl.org/dc/elements/1.1/" xmlns:cc="http://creativecommons.org/ns#" xmlns:rdf="http://www.w3.org/1999/02/22-rdf-syntax-ns#">
   <cc:Work>
    <dc:type rdf:resource="http://purl.org/dc/dcmitype/StillImage"/>
    <dc:date>2023-11-07T14:23:06.147273</dc:date>
    <dc:format>image/svg+xml</dc:format>
    <dc:creator>
     <cc:Agent>
      <dc:title>Matplotlib v3.7.1, https://matplotlib.org/</dc:title>
     </cc:Agent>
    </dc:creator>
   </cc:Work>
  </rdf:RDF>
 </metadata>
 <defs>
  <style type="text/css">*{stroke-linejoin: round; stroke-linecap: butt}</style>
 </defs>
 <g id="figure_1">
  <g id="patch_1">
   <path d="M 0 432 
L 720 432 
L 720 0 
L 0 0 
z
" style="fill: #ffffff"/>
  </g>
  <g id="axes_1">
   <g id="patch_2">
    <path d="M 90 384.48 
L 648 384.48 
L 648 51.84 
L 90 51.84 
z
" style="fill: #ffffff"/>
   </g>
   <g id="patch_3">
    <path d="M 307 384.48 
L 369 384.48 
L 369 51.84 
L 307 51.84 
z
" clip-path="url(#pae301dd288)" style="fill: #ffd700; opacity: 0.35; stroke: #ffffff; stroke-width: 0.8; stroke-linejoin: miter"/>
   </g>
   <g id="line2d_1">
    <path d="M 90 384.48 
L 648 384.48 
" clip-path="url(#pae301dd288)" style="fill: none; stroke: #000000; stroke-width: 0.5; stroke-linecap: round"/>
   </g>
   <g id="patch_4">
    <path d="M 140.091481 375.098084 
L 140.091481 381.984334 
L 145.265444 381.984334 
Q 154.112802 381.984334 158.782574 381.099063 
Q 163.464351 380.213792 163.464351 378.527906 
Q 163.464351 376.851696 158.806583 375.976099 
Q 154.16082 375.098084 145.265444 375.098084 
L 140.091481 375.098084 
z
M 125.65 372.897 
L 140.871777 372.897 
Q 153.63262 372.897 159.874989 373.264654 
Q 166.117358 373.629889 170.583052 374.507904 
Q 174.520547 375.272236 176.429271 376.27119 
Q 178.35 377.267725 178.35 378.527906 
Q 178.35 379.807438 176.429271 380.80881 
Q 174.520547 381.810183 170.583052 382.572096 
Q 166.081344 383.450111 159.778952 383.817765 
Q 153.47656 384.183 140.871777 384.183 
L 125.65 384.183 
L 125.65 372.897 
z
" clip-path="url(#pae301dd288)" style="fill: #6b296b"/>
   </g>
   <g id="patch_5">
    <path d="M 125.65 361.017 
L 140.813382 361.017 
L 140.813382 365.31758 
L 163.186618 365.31758 
L 163.186618 361.017 
L 178.35 361.017 
L 178.35 372.303 
L 163.186618 372.303 
L 163.186618 367.518665 
L 140.813382 367.518665 
L 140.813382 372.303 
L 125.65 372.303 
L 125.65 361.017 
z
" clip-path="url(#pae301dd288)" style="fill: #177875"/>
   </g>
   <g id="patch_6">
    <path d="M 125.65 349.137 
L 134.762642 349.137 
L 141.132798 357.339063 
L 147.455534 349.137 
L 156.615597 349.137 
L 162.938332 357.339063 
L 169.316392 349.137 
L 178.35 349.137 
L 169.656239 360.423 
L 158.694196 360.423 
L 152 351.843608 
L 145.384838 360.423 
L 134.414892 360.423 
L 125.65 349.137 
z
" clip-path="url(#pae301dd288)" style="fill: #21599c"/>
   </g>
   <g id="patch_7">
    <path d="M 147.032787 342.261444 
Q 151.762274 342.261444 153.814221 341.922815 
Q 155.866168 341.581768 155.866168 340.802923 
Q 155.866168 340.031334 153.814221 339.699962 
Q 151.762274 339.366171 147.032787 339.366171 
L 140.701781 339.366171 
L 140.701781 342.261444 
L 147.032787 342.261444 
z
M 140.701781 344.271445 
L 140.701781 348.543 
L 125.65 348.543 
L 125.65 337.257 
L 148.634307 337.257 
Q 160.170252 337.257 165.537844 338.00682 
Q 170.917949 338.754221 170.917949 340.372381 
Q 170.917949 341.489855 168.11529 342.208231 
Q 165.325142 342.926607 159.694801 343.267654 
Q 162.785233 343.403105 165.225047 343.884441 
Q 167.677374 344.363358 170.179748 345.338124 
L 178.35 348.543 
L 162.322293 348.543 
L 155.203039 345.739641 
Q 153.050997 344.89307 150.836396 344.583467 
Q 148.634307 344.271445 144.955817 344.271445 
L 140.701781 344.271445 
z
" clip-path="url(#pae301dd288)" style="fill: #bd2e1f"/>
   </g>
   <g id="patch_8">
    <path d="M 125.65 325.377 
L 142.578032 325.377 
L 163.968106 333.117077 
L 163.968106 325.377 
L 178.35 325.377 
L 178.35 336.663 
L 161.409364 336.663 
L 140.01929 328.922923 
L 140.01929 336.663 
L 125.65 336.663 
L 125.65 325.377 
z
" clip-path="url(#pae301dd288)" style="fill: #40ba47"/>
   </g>
   <g id="patch_9">
    <path d="M 153.405333 323.095262 
L 152.373292 323.095262 
Q 139.714313 323.095262 132.676667 321.830452 
Q 125.65 320.563656 125.65 318.306059 
Q 125.65 316.052433 132.665687 314.775709 
Q 139.681375 313.497 152 313.497 
Q 164.450375 313.497 171.400188 314.763796 
Q 178.35 316.028606 178.35 318.306059 
Q 178.35 319.868705 174.661 320.998497 
Q 170.972 322.128288 164.044146 322.698148 
L 174.364563 324.783 
L 161.771458 324.783 
L 153.405333 323.095262 
z
M 152 315.22842 
Q 145.961458 315.22842 142.634771 316.034563 
Q 139.308083 316.840706 139.308083 318.306059 
Q 139.308083 319.795239 142.557917 320.587483 
Q 145.818729 321.377741 152 321.377741 
Q 158.071479 321.377741 161.398167 320.571599 
Q 164.724854 319.76347 164.724854 318.306059 
Q 164.724854 316.840706 161.398167 316.034563 
Q 158.071479 315.22842 152 315.22842 
z
" clip-path="url(#pae301dd288)" style="fill: #40ba47"/>
   </g>
   <g id="patch_10">
    <path d="M 162.155336 308.494084 
L 141.887763 308.494084 
L 138.68762 312.606 
L 125.65 312.606 
L 144.269015 290.034 
L 159.730985 290.034 
L 178.35 312.606 
L 165.323155 312.606 
L 162.155336 308.494084 
z
M 145.120231 304.304767 
L 158.890544 304.304767 
L 152.016162 295.326278 
L 145.120231 304.304767 
z
" clip-path="url(#pae301dd288)" style="fill: #21599c"/>
   </g>
   <g id="patch_11">
    <path d="M 125.65 266.274 
L 138.68762 266.274 
L 152.016162 282.934516 
L 165.323155 266.274 
L 178.35 266.274 
L 159.730985 288.846 
L 144.269015 288.846 
L 125.65 266.274 
z
" clip-path="url(#pae301dd288)" style="fill: #21599c"/>
   </g>
   <g id="patch_12">
    <path d="M 125.65 242.514 
L 144.774615 242.514 
L 144.774615 260.688669 
L 178.35 260.688669 
L 178.35 265.086 
L 125.65 265.086 
L 125.65 242.514 
z
" clip-path="url(#pae301dd288)" style="fill: #21599c"/>
   </g>
   <g id="patch_13">
    <path d="M 125.65 218.754 
L 141.195992 218.754 
L 151.979692 230.833358 
L 162.83447 218.754 
L 178.35 218.754 
L 178.35 241.326 
L 166.80474 241.326 
L 166.80474 224.815448 
L 155.889037 236.986719 
L 148.141426 236.986719 
L 137.225723 224.815448 
L 137.225723 241.326 
L 125.65 241.326 
L 125.65 218.754 
z
" clip-path="url(#pae301dd288)" style="fill: #21599c"/>
   </g>
   <g id="patch_14">
    <path d="M 142.437692 194.994 
L 161.562308 194.994 
L 161.562308 217.566 
L 142.437692 217.566 
L 142.437692 194.994 
z
" clip-path="url(#pae301dd288)" style="fill: #21599c"/>
   </g>
   <g id="patch_15">
    <path d="M 125.65 171.234 
L 153.043021 171.234 
Q 165.271068 171.234 171.803672 173.149669 
Q 178.35 175.060501 178.35 178.596748 
Q 178.35 182.152346 171.803672 184.063178 
Q 165.271068 185.974009 153.043021 185.974009 
L 142.159922 185.974009 
L 142.159922 193.806 
L 125.65 193.806 
L 125.65 171.234 
z
M 142.159922 175.452342 
L 142.159922 181.755667 
L 151.286354 181.755667 
Q 156.08974 181.755667 158.711016 180.933284 
Q 161.332292 180.110901 161.332292 178.596748 
Q 161.332292 177.087433 158.711016 176.269888 
Q 156.08974 175.452342 151.286354 175.452342 
L 142.159922 175.452342 
z
" clip-path="url(#pae301dd288)" style="fill: #787800"/>
   </g>
   <g id="patch_16">
    <path d="M 125.65 147.474 
L 140.22 147.474 
L 151.988929 155.518843 
L 163.746786 147.474 
L 178.35 147.474 
L 158.665 160.53538 
L 158.665 170.046 
L 145.346071 170.046 
L 145.346071 160.53538 
L 125.65 147.474 
z
" clip-path="url(#pae301dd288)" style="fill: #177875"/>
   </g>
   <g id="patch_17">
    <path d="M 178.35 141.607498 
Q 173.035119 143.649749 167.318669 144.675537 
Q 161.602219 145.692 155.507822 145.692 
Q 141.736374 145.692 133.693187 139.611874 
Q 125.65 133.531749 125.65 123.133988 
Q 125.65 112.614998 133.834917 106.581499 
Q 142.031645 100.548 156.287338 100.548 
Q 161.779381 100.548 166.810802 101.36863 
Q 171.854034 102.179936 176.318534 103.783895 
L 176.318534 112.782854 
Q 171.712304 110.721952 167.153317 109.70549 
Q 162.59433 108.679702 158.011721 108.679702 
Q 149.531533 108.679702 144.937113 112.428491 
Q 140.342694 116.167955 140.342694 123.133988 
Q 140.342694 130.034744 144.771762 133.802184 
Q 149.200829 137.560298 157.350314 137.560298 
Q 159.570753 137.560298 161.472299 137.345815 
Q 163.373846 137.122007 164.885634 136.65574 
L 164.885634 128.206976 
L 156.204662 128.206976 
L 156.204662 120.681422 
L 178.35 120.681422 
L 178.35 141.607498 
z
" clip-path="url(#pae301dd288)" style="fill: #787800"/>
   </g>
   <g id="patch_18">
    <path d="M 125.65 53.028 
L 177.253077 53.028 
L 177.253077 61.832338 
L 144.774615 61.832338 
L 144.774615 70.230321 
L 175.329487 70.230321 
L 175.329487 79.034659 
L 144.774615 79.034659 
L 144.774615 89.377337 
L 178.35 89.377337 
L 178.35 98.172 
L 125.65 98.172 
L 125.65 53.028 
z
" clip-path="url(#pae301dd288)" style="fill: #6b296b"/>
   </g>
   <g id="patch_19">
    <path d="M 187.65 372.897 
L 202.22 372.897 
L 213.988929 376.919421 
L 225.746786 372.897 
L 240.35 372.897 
L 220.665 379.42769 
L 220.665 384.183 
L 207.346071 384.183 
L 207.346071 379.42769 
L 187.65 372.897 
z
" clip-path="url(#pae301dd288)" style="fill: #177875"/>
   </g>
   <g id="patch_20">
    <path d="M 187.65 361.017 
L 239.253077 361.017 
L 239.253077 363.218084 
L 206.774615 363.218084 
L 206.774615 365.31758 
L 237.329487 365.31758 
L 237.329487 367.518665 
L 206.774615 367.518665 
L 206.774615 370.104334 
L 240.35 370.104334 
L 240.35 372.303 
L 187.65 372.303 
L 187.65 361.017 
z
" clip-path="url(#pae301dd288)" style="fill: #6b296b"/>
   </g>
   <g id="patch_21">
    <path d="M 204.437692 349.137 
L 223.562308 349.137 
L 223.562308 360.423 
L 204.437692 360.423 
L 204.437692 349.137 
z
" clip-path="url(#pae301dd288)" style="fill: #21599c"/>
   </g>
   <g id="patch_22">
    <path d="M 215.405333 346.855262 
L 214.373292 346.855262 
Q 201.714313 346.855262 194.676667 345.590452 
Q 187.65 344.323656 187.65 342.066059 
Q 187.65 339.812433 194.665687 338.535709 
Q 201.681375 337.257 214 337.257 
Q 226.450375 337.257 233.400187 338.523796 
Q 240.35 339.788606 240.35 342.066059 
Q 240.35 343.628705 236.661 344.758497 
Q 232.972 345.888288 226.044146 346.458148 
L 236.364562 348.543 
L 223.771458 348.543 
L 215.405333 346.855262 
z
M 214 338.98842 
Q 207.961458 338.98842 204.634771 339.794563 
Q 201.308083 340.600706 201.308083 342.066059 
Q 201.308083 343.555239 204.557917 344.347483 
Q 207.818729 345.137741 214 345.137741 
Q 220.071479 345.137741 223.398167 344.331599 
Q 226.724854 343.52347 226.724854 342.066059 
Q 226.724854 340.600706 223.398167 339.794563 
Q 220.071479 338.98842 214 338.98842 
z
" clip-path="url(#pae301dd288)" style="fill: #40ba47"/>
   </g>
   <g id="patch_23">
    <path d="M 209.032787 330.381444 
Q 213.762274 330.381444 215.814221 330.042815 
Q 217.866168 329.701768 217.866168 328.922923 
Q 217.866168 328.151334 215.814221 327.819962 
Q 213.762274 327.486171 209.032787 327.486171 
L 202.701781 327.486171 
L 202.701781 330.381444 
L 209.032787 330.381444 
z
M 202.701781 332.391445 
L 202.701781 336.663 
L 187.65 336.663 
L 187.65 325.377 
L 210.634307 325.377 
Q 222.170252 325.377 227.537844 326.12682 
Q 232.917949 326.874221 232.917949 328.492381 
Q 232.917949 329.609855 230.11529 330.328231 
Q 227.325142 331.046607 221.694801 331.387654 
Q 224.785233 331.523105 227.225047 332.004441 
Q 229.677374 332.483358 232.179748 333.458124 
L 240.35 336.663 
L 224.322293 336.663 
L 217.203039 333.859641 
Q 215.050997 333.01307 212.836396 332.703467 
Q 210.634307 332.391445 206.955817 332.391445 
L 202.701781 332.391445 
z
" clip-path="url(#pae301dd288)" style="fill: #bd2e1f"/>
   </g>
   <g id="patch_24">
    <path d="M 202.091481 306.316169 
L 202.091481 320.088669 
L 207.265444 320.088669 
Q 216.112802 320.088669 220.782574 318.318126 
Q 225.464351 316.547583 225.464351 313.175812 
Q 225.464351 309.823391 220.806583 308.072199 
Q 216.16082 306.316169 207.265444 306.316169 
L 202.091481 306.316169 
z
M 187.65 301.914 
L 202.871777 301.914 
Q 215.63262 301.914 221.874989 302.649307 
Q 228.117358 303.379777 232.583052 305.135807 
Q 236.520547 306.664472 238.429271 308.66238 
Q 240.35 310.65545 240.35 313.175812 
Q 240.35 315.734875 238.429271 317.73762 
Q 236.520547 319.740365 232.583052 321.264193 
Q 228.081344 323.020223 221.778952 323.75553 
Q 215.47656 324.486 202.871777 324.486 
L 187.65 324.486 
L 187.65 301.914 
z
" clip-path="url(#pae301dd288)" style="fill: #6b296b"/>
   </g>
   <g id="patch_25">
    <path d="M 235.955948 279.231077 
L 235.955948 283.837798 
Q 230.459804 283.035819 225.221293 282.630166 
Q 219.997094 282.219851 215.34541 282.219851 
Q 209.176562 282.219851 206.213797 282.774709 
Q 203.265345 283.324904 203.265345 284.490573 
Q 203.265345 285.367155 205.254834 285.856736 
Q 207.244324 286.341654 212.482835 286.691354 
L 219.811027 287.17161 
Q 230.946442 287.903649 235.641065 289.391042 
Q 240.35 290.873772 240.35 293.615424 
Q 240.35 297.210345 233.794704 298.968172 
Q 227.239408 300.726 213.770994 300.726 
Q 207.430391 300.726 201.032537 300.329673 
Q 194.634682 299.938008 188.236828 299.164005 
L 188.236828 294.431391 
Q 194.634682 295.536445 200.60315 296.100628 
Q 206.571619 296.660149 212.125014 296.660149 
Q 217.764286 296.660149 220.755676 296.049339 
Q 223.747067 295.433866 223.747067 294.296174 
Q 223.747067 293.279711 221.714639 292.724853 
Q 219.682211 292.169995 213.59924 291.731704 
L 206.929441 291.251448 
Q 196.910429 290.552048 192.273058 289.022691 
Q 187.65 287.493334 187.65 284.900888 
Q 187.65 281.651005 194.090793 279.902502 
Q 200.531586 278.154 212.611651 278.154 
Q 218.122108 278.154 223.933134 278.424435 
Q 229.744161 278.69487 235.955948 279.231077 
z
" clip-path="url(#pae301dd288)" style="fill: #40ba47"/>
   </g>
   <g id="patch_26">
    <path d="M 187.65 242.811 
L 200.68762 242.811 
L 214.016162 267.801774 
L 227.323155 242.811 
L 240.35 242.811 
L 221.730985 276.669 
L 206.269015 276.669 
L 187.65 242.811 
z
" clip-path="url(#pae301dd288)" style="fill: #21599c"/>
   </g>
   <g id="patch_27">
    <path d="M 224.155336 234.861126 
L 203.887763 234.861126 
L 200.68762 241.029 
L 187.65 241.029 
L 206.269015 207.171 
L 221.730985 207.171 
L 240.35 241.029 
L 227.323155 241.029 
L 224.155336 234.861126 
z
M 207.120231 228.577151 
L 220.890544 228.577151 
L 214.016162 215.109417 
L 207.120231 228.577151 
z
" clip-path="url(#pae301dd288)" style="fill: #21599c"/>
   </g>
   <g id="patch_28">
    <path d="M 240.35 202.325624 
Q 235.035119 203.857312 229.318669 204.626653 
Q 223.602219 205.389 217.507822 205.389 
Q 203.736374 205.389 195.693187 200.828906 
Q 187.65 196.268812 187.65 188.470491 
Q 187.65 180.581248 195.834917 176.056124 
Q 204.031645 171.531 218.287338 171.531 
Q 223.779381 171.531 228.810802 172.146473 
Q 233.854034 172.754952 238.318534 173.957921 
L 238.318534 180.70714 
Q 233.712304 179.161464 229.153317 178.399117 
Q 224.59433 177.629776 220.011721 177.629776 
Q 211.531533 177.629776 206.937113 180.441368 
Q 202.342694 183.245966 202.342694 188.470491 
Q 202.342694 193.646058 206.771762 196.471638 
Q 211.200829 199.290224 219.350314 199.290224 
Q 221.570753 199.290224 223.472299 199.129361 
Q 225.373846 198.961505 226.885634 198.611805 
L 226.885634 192.275232 
L 218.204662 192.275232 
L 218.204662 186.631067 
L 240.35 186.631067 
L 240.35 202.325624 
z
" clip-path="url(#pae301dd288)" style="fill: #787800"/>
   </g>
   <g id="patch_29">
    <path d="M 187.65 135.891 
L 201.537864 135.891 
L 201.537864 148.248517 
L 221.555783 135.891 
L 237.683253 135.891 
L 211.743078 151.927472 
L 240.35 169.749 
L 222.964195 169.749 
L 201.537864 156.41188 
L 201.537864 169.749 
L 187.65 169.749 
L 187.65 135.891 
z
" clip-path="url(#pae301dd288)" style="fill: #bd2e1f"/>
   </g>
   <g id="patch_30">
    <path d="M 187.65 100.251 
L 206.774615 100.251 
L 206.774615 127.513003 
L 240.35 127.513003 
L 240.35 134.109 
L 187.65 134.109 
L 187.65 100.251 
z
" clip-path="url(#pae301dd288)" style="fill: #21599c"/>
   </g>
   <g id="patch_31">
    <path d="M 187.65 53.028 
L 240.35 53.028 
L 240.35 61.832338 
L 221.390256 61.832338 
L 221.390256 98.172 
L 206.646512 98.172 
L 206.646512 61.832338 
L 187.65 61.832338 
L 187.65 53.028 
z
" clip-path="url(#pae301dd288)" style="fill: #40ba47"/>
   </g>
   <g id="patch_32">
    <path d="M 249.65 372.897 
L 264.22 372.897 
L 275.988929 376.919421 
L 287.746786 372.897 
L 302.35 372.897 
L 282.665 379.42769 
L 282.665 384.183 
L 269.346071 384.183 
L 269.346071 379.42769 
L 249.65 372.897 
z
" clip-path="url(#pae301dd288)" style="fill: #177875"/>
   </g>
   <g id="patch_33">
    <path d="M 302.35 371.494026 
Q 297.941736 371.895016 293.174969 372.097842 
Q 288.408201 372.303 283.216541 372.303 
Q 267.734505 372.303 258.692252 370.782969 
Q 249.65 369.262937 249.65 366.663497 
Q 249.65 364.054731 258.692252 362.537031 
Q 267.734505 361.017 283.216541 361.017 
Q 288.408201 361.017 293.174969 361.222158 
Q 297.941736 361.424984 302.35 361.825974 
L 302.35 364.075713 
Q 297.901902 363.544169 293.586584 363.297047 
Q 289.271265 363.049925 284.504497 363.049925 
Q 275.953527 363.049925 271.053981 364.012767 
Q 266.167712 364.973278 266.167712 366.663497 
Q 266.167712 368.346722 271.053981 369.309564 
Q 275.953527 370.270075 284.504497 370.270075 
Q 289.271265 370.270075 293.586584 370.022953 
Q 297.901902 369.7735 302.35 369.241955 
L 302.35 371.494026 
z
" clip-path="url(#pae301dd288)" style="fill: #6b296b"/>
   </g>
   <g id="patch_34">
    <path d="M 250.198462 349.137 
L 301.801538 349.137 
L 301.801538 351.338084 
L 269.323077 351.338084 
L 269.323077 353.43758 
L 299.877949 353.43758 
L 299.877949 355.638665 
L 269.323077 355.638665 
L 269.323077 360.423 
L 250.198462 360.423 
L 250.198462 349.137 
z
" clip-path="url(#pae301dd288)" style="fill: #21599c"/>
   </g>
   <g id="patch_35">
    <path d="M 249.65 337.257 
L 262.68762 337.257 
L 276.016162 345.587258 
L 289.323155 337.257 
L 302.35 337.257 
L 283.730985 348.543 
L 268.269015 348.543 
L 249.65 337.257 
z
" clip-path="url(#pae301dd288)" style="fill: #21599c"/>
   </g>
   <g id="patch_36">
    <path d="M 249.65 325.377 
L 264.813382 325.377 
L 264.813382 329.67758 
L 287.186618 329.67758 
L 287.186618 325.377 
L 302.35 325.377 
L 302.35 336.663 
L 287.186618 336.663 
L 287.186618 331.878665 
L 264.813382 331.878665 
L 264.813382 336.663 
L 249.65 336.663 
L 249.65 325.377 
z
" clip-path="url(#pae301dd288)" style="fill: #177875"/>
   </g>
   <g id="patch_37">
    <path d="M 249.65 313.497 
L 302.35 313.497 
L 302.35 315.698084 
L 283.390256 315.698084 
L 283.390256 324.783 
L 268.646512 324.783 
L 268.646512 315.698084 
L 249.65 315.698084 
L 249.65 313.497 
z
" clip-path="url(#pae301dd288)" style="fill: #40ba47"/>
   </g>
   <g id="patch_38">
    <path d="M 249.65 301.617 
L 277.043021 301.617 
Q 289.271068 301.617 295.803672 302.574835 
Q 302.35 303.53025 302.35 305.298374 
Q 302.35 307.076173 295.803672 308.031589 
Q 289.271068 308.987005 277.043021 308.987005 
L 266.159922 308.987005 
L 266.159922 312.903 
L 249.65 312.903 
L 249.65 301.617 
z
M 266.159922 303.726171 
L 266.159922 306.877834 
L 275.286354 306.877834 
Q 280.08974 306.877834 282.711016 306.466642 
Q 285.332292 306.05545 285.332292 305.298374 
Q 285.332292 304.543717 282.711016 304.134944 
Q 280.08974 303.726171 275.286354 303.726171 
L 266.159922 303.726171 
z
" clip-path="url(#pae301dd288)" style="fill: #787800"/>
   </g>
   <g id="patch_39">
    <path d="M 286.155336 296.614084 
L 265.887763 296.614084 
L 262.68762 300.726 
L 249.65 300.726 
L 268.269015 278.154 
L 283.730985 278.154 
L 302.35 300.726 
L 289.323155 300.726 
L 286.155336 296.614084 
z
M 269.120231 292.424767 
L 282.890544 292.424767 
L 276.016162 283.446278 
L 269.120231 292.424767 
z
" clip-path="url(#pae301dd288)" style="fill: #21599c"/>
   </g>
   <g id="patch_40">
    <path d="M 277.405333 273.590525 
L 276.373292 273.590525 
Q 263.714313 273.590525 256.676667 271.060904 
Q 249.65 268.527312 249.65 264.012118 
Q 249.65 259.504866 256.665687 256.951419 
Q 263.681375 254.394 276 254.394 
Q 288.450375 254.394 295.400188 256.927592 
Q 302.35 259.457213 302.35 264.012118 
Q 302.35 267.137411 298.661 269.396994 
Q 294.972 271.656576 288.044146 272.796296 
L 298.364562 276.966 
L 285.771458 276.966 
L 277.405333 273.590525 
z
M 276 257.85684 
Q 269.961458 257.85684 266.634771 259.469126 
Q 263.308083 261.081412 263.308083 264.012118 
Q 263.308083 266.990479 266.557917 268.574966 
Q 269.818729 270.155483 276 270.155483 
Q 282.071479 270.155483 285.398167 268.543197 
Q 288.724854 266.92694 288.724854 264.012118 
Q 288.724854 261.081412 285.398167 259.469126 
Q 282.071479 257.85684 276 257.85684 
z
" clip-path="url(#pae301dd288)" style="fill: #40ba47"/>
   </g>
   <g id="patch_41">
    <path d="M 249.65 219.051 
L 263.537864 219.051 
L 263.537864 231.408517 
L 283.555783 219.051 
L 299.683253 219.051 
L 273.743078 235.087472 
L 302.35 252.909 
L 284.964195 252.909 
L 263.537864 239.57188 
L 263.537864 252.909 
L 249.65 252.909 
L 249.65 219.051 
z
" clip-path="url(#pae301dd288)" style="fill: #bd2e1f"/>
   </g>
   <g id="patch_42">
    <path d="M 271.032787 198.424331 
Q 275.762274 198.424331 277.814221 197.408446 
Q 279.866168 196.385304 279.866168 194.048769 
Q 279.866168 191.734002 277.814221 190.739886 
Q 275.762274 189.738513 271.032787 189.738513 
L 264.701781 189.738513 
L 264.701781 198.424331 
L 271.032787 198.424331 
z
M 264.701781 204.454335 
L 264.701781 217.269 
L 249.65 217.269 
L 249.65 183.411 
L 272.634307 183.411 
Q 284.170252 183.411 289.537844 185.66046 
Q 294.917949 187.902664 294.917949 192.757143 
Q 294.917949 196.109564 292.11529 198.264692 
Q 289.325142 200.41982 283.694801 201.442961 
Q 286.785233 201.849315 289.225047 203.293323 
Q 291.677374 204.730075 294.179748 207.654373 
L 302.35 217.269 
L 286.322293 217.269 
L 279.203039 208.858922 
Q 277.050997 206.31921 274.836396 205.3904 
Q 272.634307 204.454335 268.955817 204.454335 
L 264.701781 204.454335 
z
" clip-path="url(#pae301dd288)" style="fill: #bd2e1f"/>
   </g>
   <g id="patch_43">
    <path d="M 249.65 147.771 
L 268.774615 147.771 
L 268.774615 175.033003 
L 302.35 175.033003 
L 302.35 181.629 
L 249.65 181.629 
L 249.65 147.771 
z
" clip-path="url(#pae301dd288)" style="fill: #21599c"/>
   </g>
   <g id="patch_44">
    <path d="M 302.35 136.334997 
Q 297.035119 140.419498 291.318669 142.471075 
Q 285.602219 144.504 279.507822 144.504 
Q 265.736374 144.504 257.693187 132.343749 
Q 249.65 120.183498 249.65 99.387976 
Q 249.65 78.349995 257.834917 66.282998 
Q 266.031645 54.216 280.287338 54.216 
Q 285.779381 54.216 290.810802 55.857261 
Q 295.854034 57.479871 300.318534 60.68779 
L 300.318534 78.685708 
Q 295.712304 74.563905 291.153317 72.53098 
Q 286.59433 70.479403 282.011721 70.479403 
Q 273.531533 70.479403 268.937113 77.976982 
Q 264.342694 85.455909 264.342694 99.387976 
Q 264.342694 113.189488 268.771762 120.724368 
Q 273.200829 128.240597 281.350314 128.240597 
Q 283.570753 128.240597 285.472299 127.811631 
Q 287.373846 127.364014 288.885634 126.431479 
L 288.885634 109.533952 
L 280.204662 109.533952 
L 280.204662 94.482844 
L 302.35 94.482844 
L 302.35 136.334997 
z
" clip-path="url(#pae301dd288)" style="fill: #787800"/>
   </g>
   <g id="patch_45">
    <path d="M 311.65 372.897 
L 320.762642 372.897 
L 327.132798 381.099063 
L 333.455534 372.897 
L 342.615597 372.897 
L 348.938332 381.099063 
L 355.316392 372.897 
L 364.35 372.897 
L 355.656239 384.183 
L 344.694196 384.183 
L 338 375.603608 
L 331.384838 384.183 
L 320.414892 384.183 
L 311.65 372.897 
z
" clip-path="url(#pae301dd288)" style="fill: #21599c"/>
   </g>
   <g id="patch_46">
    <path d="M 311.65 349.434 
L 325.537864 349.434 
L 325.537864 357.672345 
L 345.555783 349.434 
L 361.683253 349.434 
L 335.743078 360.124982 
L 364.35 372.006 
L 346.964195 372.006 
L 325.537864 363.114586 
L 325.537864 372.006 
L 311.65 372.006 
L 311.65 349.434 
z
" clip-path="url(#pae301dd288)" style="fill: #bd2e1f"/>
   </g>
   <g id="patch_47">
    <path d="M 364.35 344.416105 
Q 359.941736 346.020064 355.174969 346.83137 
Q 350.408201 347.652 345.216541 347.652 
Q 329.734505 347.652 320.692252 341.571874 
Q 311.65 335.491749 311.65 325.093988 
Q 311.65 314.658926 320.692252 308.588126 
Q 329.734505 302.508 345.216541 302.508 
Q 350.408201 302.508 355.174969 303.32863 
Q 359.941736 304.139936 364.35 305.743895 
L 364.35 314.742854 
Q 359.901902 312.616675 355.586584 311.628188 
Q 351.271265 310.639702 346.504497 310.639702 
Q 337.953527 310.639702 333.053981 314.49107 
Q 328.167712 318.333112 328.167712 325.093988 
Q 328.167712 331.826888 333.053981 335.678256 
Q 337.953527 339.520298 346.504497 339.520298 
Q 351.271265 339.520298 355.586584 338.531812 
Q 359.901902 337.534 364.35 335.407821 
L 364.35 344.416105 
z
" clip-path="url(#pae301dd288)" style="fill: #6b296b"/>
   </g>
   <g id="patch_48">
    <path d="M 333.032787 163.170316 
Q 337.762274 163.170316 339.814221 156.05912 
Q 341.866168 148.89713 341.866168 132.54138 
Q 341.866168 116.338012 339.814221 109.379199 
Q 337.762274 102.369592 333.032787 102.369592 
L 326.701781 102.369592 
L 326.701781 163.170316 
L 333.032787 163.170316 
z
M 326.701781 205.380343 
L 326.701781 295.083 
L 311.65 295.083 
L 311.65 58.077 
L 334.634307 58.077 
Q 346.170252 58.077 351.537844 73.823219 
Q 356.917949 89.518645 356.917949 123.500002 
Q 356.917949 146.966949 354.11529 162.052843 
Q 351.325142 177.138737 345.694801 184.300727 
Q 348.785233 187.145205 351.225047 197.253262 
Q 353.677374 207.310525 356.179748 227.78061 
L 364.35 295.083 
L 348.322293 295.083 
L 341.203039 236.212457 
Q 339.050997 218.434467 336.836396 211.932802 
Q 334.634307 205.380343 330.955817 205.380343 
L 326.701781 205.380343 
z
" clip-path="url(#pae301dd288)" style="fill: #bd2e1f"/>
   </g>
   <g id="patch_49">
    <path d="M 388.091481 375.098084 
L 388.091481 381.984334 
L 393.265444 381.984334 
Q 402.112802 381.984334 406.782574 381.099063 
Q 411.464351 380.213792 411.464351 378.527906 
Q 411.464351 376.851696 406.806583 375.976099 
Q 402.16082 375.098084 393.265444 375.098084 
L 388.091481 375.098084 
z
M 373.65 372.897 
L 388.871777 372.897 
Q 401.63262 372.897 407.874989 373.264654 
Q 414.117358 373.629889 418.583052 374.507904 
Q 422.520547 375.272236 424.429271 376.27119 
Q 426.35 377.267725 426.35 378.527906 
Q 426.35 379.807438 424.429271 380.80881 
Q 422.520547 381.810183 418.583052 382.572096 
Q 414.081344 383.450111 407.778952 383.817765 
Q 401.47656 384.183 388.871777 384.183 
L 373.65 384.183 
L 373.65 372.897 
z
" clip-path="url(#pae301dd288)" style="fill: #6b296b"/>
   </g>
   <g id="patch_50">
    <path d="M 373.65 361.017 
L 425.253077 361.017 
L 425.253077 363.218084 
L 392.774615 363.218084 
L 392.774615 365.31758 
L 423.329487 365.31758 
L 423.329487 367.518665 
L 392.774615 367.518665 
L 392.774615 370.104334 
L 426.35 370.104334 
L 426.35 372.303 
L 373.65 372.303 
L 373.65 361.017 
z
" clip-path="url(#pae301dd288)" style="fill: #6b296b"/>
   </g>
   <g id="patch_51">
    <path d="M 374.198462 349.137 
L 425.801538 349.137 
L 425.801538 351.338084 
L 393.323077 351.338084 
L 393.323077 353.43758 
L 423.877949 353.43758 
L 423.877949 355.638665 
L 393.323077 355.638665 
L 393.323077 360.423 
L 374.198462 360.423 
L 374.198462 349.137 
z
" clip-path="url(#pae301dd288)" style="fill: #21599c"/>
   </g>
   <g id="patch_52">
    <path d="M 373.65 337.257 
L 426.35 337.257 
L 426.35 339.458084 
L 407.390256 339.458084 
L 407.390256 348.543 
L 392.646512 348.543 
L 392.646512 339.458084 
L 373.65 339.458084 
L 373.65 337.257 
z
" clip-path="url(#pae301dd288)" style="fill: #40ba47"/>
   </g>
   <g id="patch_53">
    <path d="M 390.437692 325.377 
L 409.562308 325.377 
L 409.562308 336.663 
L 390.437692 336.663 
L 390.437692 325.377 
z
" clip-path="url(#pae301dd288)" style="fill: #21599c"/>
   </g>
   <g id="patch_54">
    <path d="M 373.65 313.497 
L 382.762642 313.497 
L 389.132798 321.699063 
L 395.455534 313.497 
L 404.615597 313.497 
L 410.938332 321.699063 
L 417.316392 313.497 
L 426.35 313.497 
L 417.656239 324.783 
L 406.694196 324.783 
L 400 316.203608 
L 393.384838 324.783 
L 382.414892 324.783 
L 373.65 313.497 
z
" clip-path="url(#pae301dd288)" style="fill: #21599c"/>
   </g>
   <g id="patch_55">
    <path d="M 373.65 301.617 
L 389.195992 301.617 
L 399.979692 307.656679 
L 410.83447 301.617 
L 426.35 301.617 
L 426.35 312.903 
L 414.80474 312.903 
L 414.80474 304.647724 
L 403.889037 310.73336 
L 396.141426 310.73336 
L 385.225723 304.647724 
L 385.225723 312.903 
L 373.65 312.903 
L 373.65 301.617 
z
" clip-path="url(#pae301dd288)" style="fill: #21599c"/>
   </g>
   <g id="patch_56">
    <path d="M 373.65 289.737 
L 390.578032 289.737 
L 411.968106 297.477077 
L 411.968106 289.737 
L 426.35 289.737 
L 426.35 301.023 
L 409.409364 301.023 
L 388.01929 293.282923 
L 388.01929 301.023 
L 373.65 301.023 
L 373.65 289.737 
z
" clip-path="url(#pae301dd288)" style="fill: #40ba47"/>
   </g>
   <g id="patch_57">
    <path d="M 410.155336 284.734084 
L 389.887763 284.734084 
L 386.68762 288.846 
L 373.65 288.846 
L 392.269015 266.274 
L 407.730985 266.274 
L 426.35 288.846 
L 413.323155 288.846 
L 410.155336 284.734084 
z
M 393.120231 280.544767 
L 406.890544 280.544767 
L 400.016162 271.566278 
L 393.120231 280.544767 
z
" clip-path="url(#pae301dd288)" style="fill: #21599c"/>
   </g>
   <g id="patch_58">
    <path d="M 421.955948 243.591077 
L 421.955948 248.197798 
Q 416.459804 247.395819 411.221293 246.990166 
Q 405.997094 246.579851 401.34541 246.579851 
Q 395.176562 246.579851 392.213797 247.134709 
Q 389.265345 247.684904 389.265345 248.850573 
Q 389.265345 249.727155 391.254834 250.216736 
Q 393.244324 250.701654 398.482835 251.051354 
L 405.811027 251.53161 
Q 416.946442 252.263649 421.641065 253.751042 
Q 426.35 255.233772 426.35 257.975424 
Q 426.35 261.570345 419.794704 263.328172 
Q 413.239408 265.086 399.770994 265.086 
Q 393.430391 265.086 387.032537 264.689673 
Q 380.634682 264.298008 374.236828 263.524005 
L 374.236828 258.791391 
Q 380.634682 259.896445 386.60315 260.460628 
Q 392.571619 261.020149 398.125014 261.020149 
Q 403.764286 261.020149 406.755676 260.409339 
Q 409.747067 259.793866 409.747067 258.656174 
Q 409.747067 257.639711 407.714639 257.084853 
Q 405.682211 256.529995 399.59924 256.091704 
L 392.929441 255.611448 
Q 382.910429 254.912048 378.273058 253.382691 
Q 373.65 251.853334 373.65 249.260888 
Q 373.65 246.011005 380.090793 244.262502 
Q 386.531586 242.514 398.611651 242.514 
Q 404.122108 242.514 409.933134 242.784435 
Q 415.744161 243.05487 421.955948 243.591077 
z
" clip-path="url(#pae301dd288)" style="fill: #40ba47"/>
   </g>
   <g id="patch_59">
    <path d="M 373.65 218.754 
L 392.774615 218.754 
L 392.774615 236.928669 
L 426.35 236.928669 
L 426.35 241.326 
L 373.65 241.326 
L 373.65 218.754 
z
" clip-path="url(#pae301dd288)" style="fill: #21599c"/>
   </g>
   <g id="patch_60">
    <path d="M 373.65 194.994 
L 388.22 194.994 
L 399.988929 203.038843 
L 411.746786 194.994 
L 426.35 194.994 
L 406.665 208.05538 
L 406.665 217.566 
L 393.346071 217.566 
L 393.346071 208.05538 
L 373.65 194.994 
z
" clip-path="url(#pae301dd288)" style="fill: #177875"/>
   </g>
   <g id="patch_61">
    <path d="M 426.35 189.127498 
Q 421.035119 191.169749 415.318669 192.195537 
Q 409.602219 193.212 403.507822 193.212 
Q 389.736374 193.212 381.693187 187.131874 
Q 373.65 181.051749 373.65 170.653988 
Q 373.65 160.134998 381.834917 154.101499 
Q 390.031645 148.068 404.287338 148.068 
Q 409.779381 148.068 414.810802 148.88863 
Q 419.854034 149.699936 424.318534 151.303895 
L 424.318534 160.302854 
Q 419.712304 158.241952 415.153317 157.22549 
Q 410.59433 156.199702 406.011721 156.199702 
Q 397.531533 156.199702 392.937113 159.948491 
Q 388.342694 163.687955 388.342694 170.653988 
Q 388.342694 177.554744 392.771762 181.322184 
Q 397.200829 185.080298 405.350314 185.080298 
Q 407.570753 185.080298 409.472299 184.865815 
Q 411.373846 184.642007 412.885634 184.17574 
L 412.885634 175.726976 
L 404.204662 175.726976 
L 404.204662 168.201422 
L 426.35 168.201422 
L 426.35 189.127498 
z
" clip-path="url(#pae301dd288)" style="fill: #787800"/>
   </g>
   <g id="patch_62">
    <path d="M 373.65 100.548 
L 386.68762 100.548 
L 400.016162 133.869032 
L 413.323155 100.548 
L 426.35 100.548 
L 407.730985 145.692 
L 392.269015 145.692 
L 373.65 100.548 
z
" clip-path="url(#pae301dd288)" style="fill: #21599c"/>
   </g>
   <g id="patch_63">
    <path d="M 373.65 53.028 
L 387.537864 53.028 
L 387.537864 69.504689 
L 407.555783 53.028 
L 423.683253 53.028 
L 397.743078 74.409963 
L 426.35 98.172 
L 408.964195 98.172 
L 387.537864 80.389173 
L 387.537864 98.172 
L 373.65 98.172 
L 373.65 53.028 
z
" clip-path="url(#pae301dd288)" style="fill: #bd2e1f"/>
   </g>
   <g id="patch_64">
    <path d="M 435.65 372.897 
L 448.68762 372.897 
L 462.016162 381.227258 
L 475.323155 372.897 
L 488.35 372.897 
L 469.730985 384.183 
L 454.269015 384.183 
L 435.65 372.897 
z
" clip-path="url(#pae301dd288)" style="fill: #21599c"/>
   </g>
   <g id="patch_65">
    <path d="M 483.955948 361.555539 
L 483.955948 363.858899 
Q 478.459804 363.457909 473.221293 363.255083 
Q 467.997094 363.049925 463.34541 363.049925 
Q 457.176562 363.049925 454.213797 363.327354 
Q 451.265345 363.602452 451.265345 364.185286 
Q 451.265345 364.623578 453.254834 364.868368 
Q 455.244324 365.110827 460.482835 365.285677 
L 467.811027 365.525805 
Q 478.946442 365.891825 483.641065 366.635521 
Q 488.35 367.376886 488.35 368.747712 
Q 488.35 370.545172 481.794704 371.424086 
Q 475.239408 372.303 461.770994 372.303 
Q 455.430391 372.303 449.032537 372.104836 
Q 442.634682 371.909004 436.236828 371.522002 
L 436.236828 369.155696 
Q 442.634682 369.708222 448.60315 369.990314 
Q 454.571619 370.270075 460.125014 370.270075 
Q 465.764286 370.270075 468.755676 369.964669 
Q 471.747067 369.656933 471.747067 369.088087 
Q 471.747067 368.579856 469.714639 368.302427 
Q 467.682211 368.024998 461.59924 367.805852 
L 454.929441 367.565724 
Q 444.910429 367.216024 440.273058 366.451345 
Q 435.65 365.686667 435.65 364.390444 
Q 435.65 362.765502 442.090793 361.891251 
Q 448.531586 361.017 460.611651 361.017 
Q 466.122108 361.017 471.933134 361.152218 
Q 477.744161 361.287435 483.955948 361.555539 
z
" clip-path="url(#pae301dd288)" style="fill: #40ba47"/>
   </g>
   <g id="patch_66">
    <path d="M 435.65 349.137 
L 463.043021 349.137 
Q 475.271068 349.137 481.803672 350.094835 
Q 488.35 351.05025 488.35 352.818374 
Q 488.35 354.596173 481.803672 355.551589 
Q 475.271068 356.507005 463.043021 356.507005 
L 452.159922 356.507005 
L 452.159922 360.423 
L 435.65 360.423 
L 435.65 349.137 
z
M 452.159922 351.246171 
L 452.159922 354.397834 
L 461.286354 354.397834 
Q 466.08974 354.397834 468.711016 353.986642 
Q 471.332292 353.57545 471.332292 352.818374 
Q 471.332292 352.063717 468.711016 351.654944 
Q 466.08974 351.246171 461.286354 351.246171 
L 452.159922 351.246171 
z
" clip-path="url(#pae301dd288)" style="fill: #787800"/>
   </g>
   <g id="patch_67">
    <path d="M 472.155336 346.487042 
L 451.887763 346.487042 
L 448.68762 348.543 
L 435.65 348.543 
L 454.269015 337.257 
L 469.730985 337.257 
L 488.35 348.543 
L 475.323155 348.543 
L 472.155336 346.487042 
z
M 455.120231 344.392384 
L 468.890544 344.392384 
L 462.016162 339.903139 
L 455.120231 344.392384 
z
" clip-path="url(#pae301dd288)" style="fill: #21599c"/>
   </g>
   <g id="patch_68">
    <path d="M 436.198462 325.377 
L 487.801538 325.377 
L 487.801538 327.578084 
L 455.323077 327.578084 
L 455.323077 329.67758 
L 485.877949 329.67758 
L 485.877949 331.878665 
L 455.323077 331.878665 
L 455.323077 336.663 
L 436.198462 336.663 
L 436.198462 325.377 
z
" clip-path="url(#pae301dd288)" style="fill: #21599c"/>
   </g>
   <g id="patch_69">
    <path d="M 450.091481 315.698084 
L 450.091481 322.584334 
L 455.265444 322.584334 
Q 464.112802 322.584334 468.782574 321.699063 
Q 473.464351 320.813792 473.464351 319.127906 
Q 473.464351 317.451696 468.806583 316.576099 
Q 464.16082 315.698084 455.265444 315.698084 
L 450.091481 315.698084 
z
M 435.65 313.497 
L 450.871777 313.497 
Q 463.63262 313.497 469.874989 313.864654 
Q 476.117358 314.229889 480.583052 315.107904 
Q 484.520547 315.872236 486.429271 316.87119 
Q 488.35 317.867725 488.35 319.127906 
Q 488.35 320.407438 486.429271 321.40881 
Q 484.520547 322.410183 480.583052 323.172096 
Q 476.081344 324.050111 469.778952 324.417765 
Q 463.47656 324.783 450.871777 324.783 
L 435.65 324.783 
L 435.65 313.497 
z
" clip-path="url(#pae301dd288)" style="fill: #6b296b"/>
   </g>
   <g id="patch_70">
    <path d="M 435.65 301.617 
L 449.537864 301.617 
L 449.537864 305.736172 
L 469.555783 301.617 
L 485.683253 301.617 
L 459.743078 306.962491 
L 488.35 312.903 
L 470.964195 312.903 
L 449.537864 308.457293 
L 449.537864 312.903 
L 435.65 312.903 
L 435.65 301.617 
z
" clip-path="url(#pae301dd288)" style="fill: #bd2e1f"/>
   </g>
   <g id="patch_71">
    <path d="M 435.65 278.154 
L 452.578032 278.154 
L 473.968106 293.634154 
L 473.968106 278.154 
L 488.35 278.154 
L 488.35 300.726 
L 471.409364 300.726 
L 450.01929 285.245846 
L 450.01929 300.726 
L 435.65 300.726 
L 435.65 278.154 
z
" clip-path="url(#pae301dd288)" style="fill: #40ba47"/>
   </g>
   <g id="patch_72">
    <path d="M 463.405333 273.590525 
L 462.373292 273.590525 
Q 449.714313 273.590525 442.676667 271.060904 
Q 435.65 268.527312 435.65 264.012118 
Q 435.65 259.504866 442.665687 256.951419 
Q 449.681375 254.394 462 254.394 
Q 474.450375 254.394 481.400187 256.927592 
Q 488.35 259.457213 488.35 264.012118 
Q 488.35 267.137411 484.661 269.396994 
Q 480.972 271.656576 474.044146 272.796296 
L 484.364562 276.966 
L 471.771458 276.966 
L 463.405333 273.590525 
z
M 462 257.85684 
Q 455.961458 257.85684 452.634771 259.469126 
Q 449.308083 261.081412 449.308083 264.012118 
Q 449.308083 266.990479 452.557917 268.574966 
Q 455.818729 270.155483 462 270.155483 
Q 468.071479 270.155483 471.398167 268.543197 
Q 474.724854 266.92694 474.724854 264.012118 
Q 474.724854 261.081412 471.398167 259.469126 
Q 468.071479 257.85684 462 257.85684 
z
" clip-path="url(#pae301dd288)" style="fill: #40ba47"/>
   </g>
   <g id="patch_73">
    <path d="M 435.65 230.634 
L 454.774615 230.634 
L 454.774615 248.808669 
L 488.35 248.808669 
L 488.35 253.206 
L 435.65 253.206 
L 435.65 230.634 
z
" clip-path="url(#pae301dd288)" style="fill: #21599c"/>
   </g>
   <g id="patch_74">
    <path d="M 452.437692 195.291 
L 471.562308 195.291 
L 471.562308 229.149 
L 452.437692 229.149 
L 452.437692 195.291 
z
" clip-path="url(#pae301dd288)" style="fill: #21599c"/>
   </g>
   <g id="patch_75">
    <path d="M 488.35 189.127498 
Q 483.035119 191.169749 477.318669 192.195537 
Q 471.602219 193.212 465.507822 193.212 
Q 451.736374 193.212 443.693187 187.131874 
Q 435.65 181.051749 435.65 170.653988 
Q 435.65 160.134998 443.834917 154.101499 
Q 452.031645 148.068 466.287338 148.068 
Q 471.779381 148.068 476.810802 148.88863 
Q 481.854034 149.699936 486.318534 151.303895 
L 486.318534 160.302854 
Q 481.712304 158.241952 477.153317 157.22549 
Q 472.59433 156.199702 468.011721 156.199702 
Q 459.531533 156.199702 454.937113 159.948491 
Q 450.342694 163.687955 450.342694 170.653988 
Q 450.342694 177.554744 454.771762 181.322184 
Q 459.200829 185.080298 467.350314 185.080298 
Q 469.570753 185.080298 471.472299 184.865815 
Q 473.373846 184.642007 474.885634 184.17574 
L 474.885634 175.726976 
L 466.204662 175.726976 
L 466.204662 168.201422 
L 488.35 168.201422 
L 488.35 189.127498 
z
" clip-path="url(#pae301dd288)" style="fill: #787800"/>
   </g>
   <g id="patch_76">
    <path d="M 435.65 54.216 
L 487.253077 54.216 
L 487.253077 71.824676 
L 454.774615 71.824676 
L 454.774615 88.620643 
L 485.329487 88.620643 
L 485.329487 106.229318 
L 454.774615 106.229318 
L 454.774615 126.914675 
L 488.35 126.914675 
L 488.35 144.504 
L 435.65 144.504 
L 435.65 54.216 
z
" clip-path="url(#pae301dd288)" style="fill: #6b296b"/>
   </g>
   <g id="patch_77">
    <path d="M 545.955948 373.435539 
L 545.955948 375.738899 
Q 540.459804 375.337909 535.221293 375.135083 
Q 529.997094 374.929925 525.34541 374.929925 
Q 519.176562 374.929925 516.213797 375.207354 
Q 513.265345 375.482452 513.265345 376.065286 
Q 513.265345 376.503578 515.254834 376.748368 
Q 517.244324 376.990827 522.482835 377.165677 
L 529.811027 377.405805 
Q 540.946442 377.771825 545.641065 378.515521 
Q 550.35 379.256886 550.35 380.627712 
Q 550.35 382.425172 543.794704 383.304086 
Q 537.239408 384.183 523.770994 384.183 
Q 517.430391 384.183 511.032537 383.984836 
Q 504.634682 383.789004 498.236828 383.402002 
L 498.236828 381.035696 
Q 504.634682 381.588222 510.60315 381.870314 
Q 516.571619 382.150075 522.125014 382.150075 
Q 527.764286 382.150075 530.755676 381.844669 
Q 533.747067 381.536933 533.747067 380.968087 
Q 533.747067 380.459856 531.714639 380.182427 
Q 529.682211 379.904998 523.59924 379.685852 
L 516.929441 379.445724 
Q 506.910429 379.096024 502.273058 378.331345 
Q 497.65 377.566667 497.65 376.270444 
Q 497.65 374.645502 504.090793 373.771251 
Q 510.531586 372.897 522.611651 372.897 
Q 528.122108 372.897 533.933134 373.032218 
Q 539.744161 373.167435 545.955948 373.435539 
z
" clip-path="url(#pae301dd288)" style="fill: #40ba47"/>
   </g>
   <g id="patch_78">
    <path d="M 525.405333 370.615262 
L 524.373292 370.615262 
Q 511.714313 370.615262 504.676667 369.350452 
Q 497.65 368.083656 497.65 365.826059 
Q 497.65 363.572433 504.665687 362.295709 
Q 511.681375 361.017 524 361.017 
Q 536.450375 361.017 543.400187 362.283796 
Q 550.35 363.548606 550.35 365.826059 
Q 550.35 367.388705 546.661 368.518497 
Q 542.972 369.648288 536.044146 370.218148 
L 546.364562 372.303 
L 533.771458 372.303 
L 525.405333 370.615262 
z
M 524 362.74842 
Q 517.961458 362.74842 514.634771 363.554563 
Q 511.308083 364.360706 511.308083 365.826059 
Q 511.308083 367.315239 514.557917 368.107483 
Q 517.818729 368.897741 524 368.897741 
Q 530.071479 368.897741 533.398167 368.091599 
Q 536.724854 367.28347 536.724854 365.826059 
Q 536.724854 364.360706 533.398167 363.554563 
Q 530.071479 362.74842 524 362.74842 
z
" clip-path="url(#pae301dd288)" style="fill: #40ba47"/>
   </g>
   <g id="patch_79">
    <path d="M 497.65 349.137 
L 514.578032 349.137 
L 535.968106 356.877077 
L 535.968106 349.137 
L 550.35 349.137 
L 550.35 360.423 
L 533.409364 360.423 
L 512.01929 352.682923 
L 512.01929 360.423 
L 497.65 360.423 
L 497.65 349.137 
z
" clip-path="url(#pae301dd288)" style="fill: #40ba47"/>
   </g>
   <g id="patch_80">
    <path d="M 497.65 337.257 
L 513.195992 337.257 
L 523.979692 343.296679 
L 534.83447 337.257 
L 550.35 337.257 
L 550.35 348.543 
L 538.80474 348.543 
L 538.80474 340.287724 
L 527.889037 346.37336 
L 520.141426 346.37336 
L 509.225723 340.287724 
L 509.225723 348.543 
L 497.65 348.543 
L 497.65 337.257 
z
" clip-path="url(#pae301dd288)" style="fill: #21599c"/>
   </g>
   <g id="patch_81">
    <path d="M 497.65 325.377 
L 516.774615 325.377 
L 516.774615 334.464334 
L 550.35 334.464334 
L 550.35 336.663 
L 497.65 336.663 
L 497.65 325.377 
z
" clip-path="url(#pae301dd288)" style="fill: #21599c"/>
   </g>
   <g id="patch_82">
    <path d="M 497.65 313.497 
L 512.813382 313.497 
L 512.813382 317.79758 
L 535.186618 317.79758 
L 535.186618 313.497 
L 550.35 313.497 
L 550.35 324.783 
L 535.186618 324.783 
L 535.186618 319.998665 
L 512.813382 319.998665 
L 512.813382 324.783 
L 497.65 324.783 
L 497.65 313.497 
z
" clip-path="url(#pae301dd288)" style="fill: #177875"/>
   </g>
   <g id="patch_83">
    <path d="M 498.198462 301.617 
L 549.801538 301.617 
L 549.801538 303.818084 
L 517.323077 303.818084 
L 517.323077 305.91758 
L 547.877949 305.91758 
L 547.877949 308.118665 
L 517.323077 308.118665 
L 517.323077 312.903 
L 498.198462 312.903 
L 498.198462 301.617 
z
" clip-path="url(#pae301dd288)" style="fill: #21599c"/>
   </g>
   <g id="patch_84">
    <path d="M 512.091481 291.938084 
L 512.091481 298.824334 
L 517.265444 298.824334 
Q 526.112802 298.824334 530.782574 297.939063 
Q 535.464351 297.053792 535.464351 295.367906 
Q 535.464351 293.691696 530.806583 292.816099 
Q 526.16082 291.938084 517.265444 291.938084 
L 512.091481 291.938084 
z
M 497.65 289.737 
L 512.871777 289.737 
Q 525.63262 289.737 531.874989 290.104654 
Q 538.117358 290.469889 542.583052 291.347904 
Q 546.520547 292.112236 548.429271 293.11119 
Q 550.35 294.107725 550.35 295.367906 
Q 550.35 296.647438 548.429271 297.64881 
Q 546.520547 298.650183 542.583052 299.412096 
Q 538.081344 300.290111 531.778952 300.657765 
Q 525.47656 301.023 512.871777 301.023 
L 497.65 301.023 
L 497.65 289.737 
z
" clip-path="url(#pae301dd288)" style="fill: #6b296b"/>
   </g>
   <g id="patch_85">
    <path d="M 497.65 277.857 
L 512.22 277.857 
L 523.988929 281.879421 
L 535.746786 277.857 
L 550.35 277.857 
L 530.665 284.38769 
L 530.665 289.143 
L 517.346071 289.143 
L 517.346071 284.38769 
L 497.65 277.857 
z
" clip-path="url(#pae301dd288)" style="fill: #177875"/>
   </g>
   <g id="patch_86">
    <path d="M 514.437692 254.394 
L 533.562308 254.394 
L 533.562308 276.966 
L 514.437692 276.966 
L 514.437692 254.394 
z
" clip-path="url(#pae301dd288)" style="fill: #21599c"/>
   </g>
   <g id="patch_87">
    <path d="M 550.35 251.163749 
Q 545.035119 252.184875 539.318669 252.697769 
Q 533.602219 253.206 527.507822 253.206 
Q 513.736374 253.206 505.693187 250.165937 
Q 497.65 247.125874 497.65 241.926994 
Q 497.65 236.667499 505.834917 233.650749 
Q 514.031645 230.634 528.287338 230.634 
Q 533.779381 230.634 538.810802 231.044315 
Q 543.854034 231.449968 548.318534 232.251948 
L 548.318534 236.751427 
Q 543.712304 235.720976 539.153317 235.212745 
Q 534.59433 234.699851 530.011721 234.699851 
Q 521.531533 234.699851 516.937113 236.574245 
Q 512.342694 238.443977 512.342694 241.926994 
Q 512.342694 245.377372 516.771762 247.261092 
Q 521.200829 249.140149 529.350314 249.140149 
Q 531.570753 249.140149 533.472299 249.032908 
Q 535.373846 248.921004 536.885634 248.68787 
L 536.885634 244.463488 
L 528.204662 244.463488 
L 528.204662 240.700711 
L 550.35 240.700711 
L 550.35 251.163749 
z
" clip-path="url(#pae301dd288)" style="fill: #787800"/>
   </g>
   <g id="patch_88">
    <path d="M 497.65 206.874 
L 550.35 206.874 
L 550.35 211.276169 
L 531.390256 211.276169 
L 531.390256 229.446 
L 516.646512 229.446 
L 516.646512 211.276169 
L 497.65 211.276169 
L 497.65 206.874 
z
" clip-path="url(#pae301dd288)" style="fill: #40ba47"/>
   </g>
   <g id="patch_89">
    <path d="M 497.65 159.948 
L 510.68762 159.948 
L 524.016162 193.269032 
L 537.323155 159.948 
L 550.35 159.948 
L 531.730985 205.092 
L 516.269015 205.092 
L 497.65 159.948 
z
" clip-path="url(#pae301dd288)" style="fill: #21599c"/>
   </g>
   <g id="patch_90">
    <path d="M 497.65 112.428 
L 511.537864 112.428 
L 511.537864 128.904689 
L 531.555783 112.428 
L 547.683253 112.428 
L 521.743078 133.809963 
L 550.35 157.572 
L 532.964195 157.572 
L 511.537864 139.789173 
L 511.537864 157.572 
L 497.65 157.572 
L 497.65 112.428 
z
" clip-path="url(#pae301dd288)" style="fill: #bd2e1f"/>
   </g>
   <g id="patch_91">
    <path d="M 497.65 53.325 
L 549.253077 53.325 
L 549.253077 64.330422 
L 516.774615 64.330422 
L 516.774615 74.827902 
L 547.329487 74.827902 
L 547.329487 85.833324 
L 516.774615 85.833324 
L 516.774615 98.761672 
L 550.35 98.761672 
L 550.35 109.755 
L 497.65 109.755 
L 497.65 53.325 
z
" clip-path="url(#pae301dd288)" style="fill: #6b296b"/>
   </g>
   <g id="patch_92">
    <path d="M 559.65 372.897 
L 578.774615 372.897 
L 578.774615 381.984334 
L 612.35 381.984334 
L 612.35 384.183 
L 559.65 384.183 
L 559.65 372.897 
z
" clip-path="url(#pae301dd288)" style="fill: #21599c"/>
   </g>
   <g id="patch_93">
    <path d="M 574.091481 363.218084 
L 574.091481 370.104334 
L 579.265444 370.104334 
Q 588.112802 370.104334 592.782574 369.219063 
Q 597.464351 368.333792 597.464351 366.647906 
Q 597.464351 364.971696 592.806583 364.096099 
Q 588.16082 363.218084 579.265444 363.218084 
L 574.091481 363.218084 
z
M 559.65 361.017 
L 574.871777 361.017 
Q 587.63262 361.017 593.874989 361.384654 
Q 600.117358 361.749889 604.583052 362.627904 
Q 608.520547 363.392236 610.429271 364.39119 
Q 612.35 365.387725 612.35 366.647906 
Q 612.35 367.927438 610.429271 368.92881 
Q 608.520547 369.930183 604.583052 370.692096 
Q 600.081344 371.570111 593.778952 371.937765 
Q 587.47656 372.303 574.871777 372.303 
L 559.65 372.303 
L 559.65 361.017 
z
" clip-path="url(#pae301dd288)" style="fill: #6b296b"/>
   </g>
   <g id="patch_94">
    <path d="M 559.65 349.137 
L 611.253077 349.137 
L 611.253077 351.338084 
L 578.774615 351.338084 
L 578.774615 353.43758 
L 609.329487 353.43758 
L 609.329487 355.638665 
L 578.774615 355.638665 
L 578.774615 358.224334 
L 612.35 358.224334 
L 612.35 360.423 
L 559.65 360.423 
L 559.65 349.137 
z
" clip-path="url(#pae301dd288)" style="fill: #6b296b"/>
   </g>
   <g id="patch_95">
    <path d="M 559.65 337.257 
L 574.813382 337.257 
L 574.813382 341.55758 
L 597.186618 341.55758 
L 597.186618 337.257 
L 612.35 337.257 
L 612.35 348.543 
L 597.186618 348.543 
L 597.186618 343.758665 
L 574.813382 343.758665 
L 574.813382 348.543 
L 559.65 348.543 
L 559.65 337.257 
z
" clip-path="url(#pae301dd288)" style="fill: #177875"/>
   </g>
   <g id="patch_96">
    <path d="M 587.405333 334.975262 
L 586.373292 334.975262 
Q 573.714313 334.975262 566.676667 333.710452 
Q 559.65 332.443656 559.65 330.186059 
Q 559.65 327.932433 566.665687 326.655709 
Q 573.681375 325.377 586 325.377 
Q 598.450375 325.377 605.400187 326.643796 
Q 612.35 327.908606 612.35 330.186059 
Q 612.35 331.748705 608.661 332.878497 
Q 604.972 334.008288 598.044146 334.578148 
L 608.364562 336.663 
L 595.771458 336.663 
L 587.405333 334.975262 
z
M 586 327.10842 
Q 579.961458 327.10842 576.634771 327.914563 
Q 573.308083 328.720706 573.308083 330.186059 
Q 573.308083 331.675239 576.557917 332.467483 
Q 579.818729 333.257741 586 333.257741 
Q 592.071479 333.257741 595.398167 332.451599 
Q 598.724854 331.64347 598.724854 330.186059 
Q 598.724854 328.720706 595.398167 327.914563 
Q 592.071479 327.10842 586 327.10842 
z
" clip-path="url(#pae301dd288)" style="fill: #40ba47"/>
   </g>
   <g id="patch_97">
    <path d="M 559.65 301.914 
L 574.22 301.914 
L 585.988929 309.958843 
L 597.746786 301.914 
L 612.35 301.914 
L 592.665 314.97538 
L 592.665 324.486 
L 579.346071 324.486 
L 579.346071 314.97538 
L 559.65 301.914 
z
" clip-path="url(#pae301dd288)" style="fill: #177875"/>
   </g>
   <g id="patch_98">
    <path d="M 559.65 278.154 
L 573.537864 278.154 
L 573.537864 286.392345 
L 593.555783 278.154 
L 609.683253 278.154 
L 583.743078 288.844982 
L 612.35 300.726 
L 594.964195 300.726 
L 573.537864 291.834586 
L 573.537864 300.726 
L 559.65 300.726 
L 559.65 278.154 
z
" clip-path="url(#pae301dd288)" style="fill: #bd2e1f"/>
   </g>
   <g id="patch_99">
    <path d="M 560.198462 254.394 
L 611.801538 254.394 
L 611.801538 258.796169 
L 579.323077 258.796169 
L 579.323077 262.995161 
L 609.877949 262.995161 
L 609.877949 267.39733 
L 579.323077 267.39733 
L 579.323077 276.966 
L 560.198462 276.966 
L 560.198462 254.394 
z
" clip-path="url(#pae301dd288)" style="fill: #21599c"/>
   </g>
   <g id="patch_100">
    <path d="M 559.65 230.634 
L 587.043021 230.634 
Q 599.271068 230.634 605.803672 232.549669 
Q 612.35 234.460501 612.35 237.996748 
Q 612.35 241.552346 605.803672 243.463178 
Q 599.271068 245.374009 587.043021 245.374009 
L 576.159922 245.374009 
L 576.159922 253.206 
L 559.65 253.206 
L 559.65 230.634 
z
M 576.159922 234.852342 
L 576.159922 241.155667 
L 585.286354 241.155667 
Q 590.08974 241.155667 592.711016 240.333284 
Q 595.332292 239.510901 595.332292 237.996748 
Q 595.332292 236.487433 592.711016 235.669888 
Q 590.08974 234.852342 585.286354 234.852342 
L 576.159922 234.852342 
z
" clip-path="url(#pae301dd288)" style="fill: #787800"/>
   </g>
   <g id="patch_101">
    <path d="M 607.955948 196.906616 
L 607.955948 203.816698 
Q 602.459804 202.613728 597.221293 202.005249 
Q 591.997094 201.389776 587.34541 201.389776 
Q 581.176562 201.389776 578.213797 202.222063 
Q 575.265345 203.047357 575.265345 204.795859 
Q 575.265345 206.110733 577.254834 206.845104 
Q 579.244324 207.572481 584.482835 208.097031 
L 591.811027 208.817414 
Q 602.946442 209.915474 607.641065 212.146563 
Q 612.35 214.370658 612.35 218.483136 
Q 612.35 223.875517 605.794704 226.512258 
Q 599.239408 229.149 585.770994 229.149 
Q 579.430391 229.149 573.032537 228.554509 
Q 566.634682 227.967012 560.236828 226.806007 
L 560.236828 219.707087 
Q 566.634682 221.364667 572.60315 222.210943 
Q 578.571619 223.050224 584.125014 223.050224 
Q 589.764286 223.050224 592.755676 222.134008 
Q 595.747067 221.210799 595.747067 219.504261 
Q 595.747067 217.979567 593.714639 217.14728 
Q 591.682211 216.314993 585.59924 215.657556 
L 578.929441 214.937173 
Q 568.910429 213.888071 564.273058 211.594036 
Q 559.65 209.300001 559.65 205.411332 
Q 559.65 200.536507 566.090793 197.913754 
Q 572.531586 195.291 584.611651 195.291 
Q 590.122108 195.291 595.933134 195.696653 
Q 601.744161 196.102305 607.955948 196.906616 
z
" clip-path="url(#pae301dd288)" style="fill: #40ba47"/>
   </g>
   <g id="patch_102">
    <path d="M 559.65 159.651 
L 572.68762 159.651 
L 586.016162 184.641774 
L 599.323155 159.651 
L 612.35 159.651 
L 593.730985 193.509 
L 578.269015 193.509 
L 559.65 159.651 
z
" clip-path="url(#pae301dd288)" style="fill: #21599c"/>
   </g>
   <g id="patch_103">
    <path d="M 596.155336 149.348168 
L 575.887763 149.348168 
L 572.68762 157.572 
L 559.65 157.572 
L 578.269015 112.428 
L 593.730985 112.428 
L 612.35 157.572 
L 599.323155 157.572 
L 596.155336 149.348168 
z
M 579.120231 140.969535 
L 592.890544 140.969535 
L 586.016162 123.012556 
L 579.120231 140.969535 
z
" clip-path="url(#pae301dd288)" style="fill: #21599c"/>
   </g>
   <g id="patch_104">
    <path d="M 612.35 104.649373 
Q 607.035119 107.202187 601.318669 108.484422 
Q 595.602219 109.755 589.507822 109.755 
Q 575.736374 109.755 567.693187 102.154843 
Q 559.65 94.554686 559.65 81.557485 
Q 559.65 68.408747 567.834917 60.866874 
Q 576.031645 53.325 590.287338 53.325 
Q 595.779381 53.325 600.810802 54.350788 
Q 605.854034 55.364919 610.318534 57.369869 
L 610.318534 68.618567 
Q 605.712304 66.042441 601.153317 64.771862 
Q 596.59433 63.489627 592.011721 63.489627 
Q 583.531533 63.489627 578.937113 68.175614 
Q 574.342694 72.849943 574.342694 81.557485 
Q 574.342694 90.18343 578.771762 94.89273 
Q 583.200829 99.590373 591.350314 99.590373 
Q 593.570753 99.590373 595.472299 99.322269 
Q 597.373846 99.042509 598.885634 98.459675 
L 598.885634 87.89872 
L 590.204662 87.89872 
L 590.204662 78.491778 
L 612.35 78.491778 
L 612.35 104.649373 
z
" clip-path="url(#pae301dd288)" style="fill: #787800"/>
   </g>
   <g id="matplotlib.axis_1">
    <g id="xtick_1">
     <g id="line2d_2">
      <defs>
       <path id="m51076065b4" d="M 0 0 
L 0 4.8 
" style="stroke: #262626"/>
      </defs>
      <g>
       <use xlink:href="#m51076065b4" x="152" y="384.48" style="fill: #262626; stroke: #262626"/>
      </g>
     </g>
     <g id="text_1">
      <!-- P4 -->
      <g style="fill: #262626" transform="translate(146.61825 399.078875) scale(0.088 -0.088)">
       <defs>
        <path id="ArialMT-50" d="M 494 0 
L 494 4581 
L 2222 4581 
Q 2678 4581 2919 4538 
Q 3256 4481 3484 4323 
Q 3713 4166 3852 3881 
Q 3991 3597 3991 3256 
Q 3991 2672 3619 2267 
Q 3247 1863 2275 1863 
L 1100 1863 
L 1100 0 
L 494 0 
z
M 1100 2403 
L 2284 2403 
Q 2872 2403 3119 2622 
Q 3366 2841 3366 3238 
Q 3366 3525 3220 3729 
Q 3075 3934 2838 4000 
Q 2684 4041 2272 4041 
L 1100 4041 
L 1100 2403 
z
" transform="scale(0.015625)"/>
        <path id="ArialMT-34" d="M 2069 0 
L 2069 1097 
L 81 1097 
L 81 1613 
L 2172 4581 
L 2631 4581 
L 2631 1613 
L 3250 1613 
L 3250 1097 
L 2631 1097 
L 2631 0 
L 2069 0 
z
M 2069 1613 
L 2069 3678 
L 634 1613 
L 2069 1613 
z
" transform="scale(0.015625)"/>
       </defs>
       <use xlink:href="#ArialMT-50"/>
       <use xlink:href="#ArialMT-34" x="66.699219"/>
      </g>
     </g>
    </g>
    <g id="xtick_2">
     <g id="line2d_3">
      <g>
       <use xlink:href="#m51076065b4" x="214" y="384.48" style="fill: #262626; stroke: #262626"/>
      </g>
     </g>
     <g id="text_2">
      <!-- P3 -->
      <g style="fill: #262626" transform="translate(208.61825 399.078875) scale(0.088 -0.088)">
       <defs>
        <path id="ArialMT-33" d="M 269 1209 
L 831 1284 
Q 928 806 1161 595 
Q 1394 384 1728 384 
Q 2125 384 2398 659 
Q 2672 934 2672 1341 
Q 2672 1728 2419 1979 
Q 2166 2231 1775 2231 
Q 1616 2231 1378 2169 
L 1441 2663 
Q 1497 2656 1531 2656 
Q 1891 2656 2178 2843 
Q 2466 3031 2466 3422 
Q 2466 3731 2256 3934 
Q 2047 4138 1716 4138 
Q 1388 4138 1169 3931 
Q 950 3725 888 3313 
L 325 3413 
Q 428 3978 793 4289 
Q 1159 4600 1703 4600 
Q 2078 4600 2393 4439 
Q 2709 4278 2876 4000 
Q 3044 3722 3044 3409 
Q 3044 3113 2884 2869 
Q 2725 2625 2413 2481 
Q 2819 2388 3044 2092 
Q 3269 1797 3269 1353 
Q 3269 753 2831 336 
Q 2394 -81 1725 -81 
Q 1122 -81 723 278 
Q 325 638 269 1209 
z
" transform="scale(0.015625)"/>
       </defs>
       <use xlink:href="#ArialMT-50"/>
       <use xlink:href="#ArialMT-33" x="66.699219"/>
      </g>
     </g>
    </g>
    <g id="xtick_3">
     <g id="line2d_4">
      <g>
       <use xlink:href="#m51076065b4" x="276" y="384.48" style="fill: #262626; stroke: #262626"/>
      </g>
     </g>
     <g id="text_3">
      <!-- P2 -->
      <g style="fill: #262626" transform="translate(270.61825 399.078875) scale(0.088 -0.088)">
       <defs>
        <path id="ArialMT-32" d="M 3222 541 
L 3222 0 
L 194 0 
Q 188 203 259 391 
Q 375 700 629 1000 
Q 884 1300 1366 1694 
Q 2113 2306 2375 2664 
Q 2638 3022 2638 3341 
Q 2638 3675 2398 3904 
Q 2159 4134 1775 4134 
Q 1369 4134 1125 3890 
Q 881 3647 878 3216 
L 300 3275 
Q 359 3922 746 4261 
Q 1134 4600 1788 4600 
Q 2447 4600 2831 4234 
Q 3216 3869 3216 3328 
Q 3216 3053 3103 2787 
Q 2991 2522 2730 2228 
Q 2469 1934 1863 1422 
Q 1356 997 1212 845 
Q 1069 694 975 541 
L 3222 541 
z
" transform="scale(0.015625)"/>
       </defs>
       <use xlink:href="#ArialMT-50"/>
       <use xlink:href="#ArialMT-32" x="66.699219"/>
      </g>
     </g>
    </g>
    <g id="xtick_4">
     <g id="line2d_5">
      <g>
       <use xlink:href="#m51076065b4" x="338" y="384.48" style="fill: #262626; stroke: #262626"/>
      </g>
     </g>
     <g id="text_4">
      <!-- P1 -->
      <g style="fill: #262626" transform="translate(332.61825 399.078875) scale(0.088 -0.088)">
       <defs>
        <path id="ArialMT-31" d="M 2384 0 
L 1822 0 
L 1822 3584 
Q 1619 3391 1289 3197 
Q 959 3003 697 2906 
L 697 3450 
Q 1169 3672 1522 3987 
Q 1875 4303 2022 4600 
L 2384 4600 
L 2384 0 
z
" transform="scale(0.015625)"/>
       </defs>
       <use xlink:href="#ArialMT-50"/>
       <use xlink:href="#ArialMT-31" x="66.699219"/>
      </g>
     </g>
    </g>
    <g id="xtick_5">
     <g id="line2d_6">
      <g>
       <use xlink:href="#m51076065b4" x="400" y="384.48" style="fill: #262626; stroke: #262626"/>
      </g>
     </g>
     <g id="text_5">
      <!-- P1' -->
      <g style="fill: #262626" transform="translate(393.778125 399.078875) scale(0.088 -0.088)">
       <defs>
        <path id="ArialMT-27" d="M 425 2959 
L 281 3816 
L 281 4581 
L 922 4581 
L 922 3816 
L 772 2959 
L 425 2959 
z
" transform="scale(0.015625)"/>
       </defs>
       <use xlink:href="#ArialMT-50"/>
       <use xlink:href="#ArialMT-31" x="66.699219"/>
       <use xlink:href="#ArialMT-27" x="122.314453"/>
      </g>
     </g>
    </g>
    <g id="xtick_6">
     <g id="line2d_7">
      <g>
       <use xlink:href="#m51076065b4" x="462" y="384.48" style="fill: #262626; stroke: #262626"/>
      </g>
     </g>
     <g id="text_6">
      <!-- P2' -->
      <g style="fill: #262626" transform="translate(455.778125 399.078875) scale(0.088 -0.088)">
       <use xlink:href="#ArialMT-50"/>
       <use xlink:href="#ArialMT-32" x="66.699219"/>
       <use xlink:href="#ArialMT-27" x="122.314453"/>
      </g>
     </g>
    </g>
    <g id="xtick_7">
     <g id="line2d_8">
      <g>
       <use xlink:href="#m51076065b4" x="524" y="384.48" style="fill: #262626; stroke: #262626"/>
      </g>
     </g>
     <g id="text_7">
      <!-- P3' -->
      <g style="fill: #262626" transform="translate(517.778125 399.078875) scale(0.088 -0.088)">
       <use xlink:href="#ArialMT-50"/>
       <use xlink:href="#ArialMT-33" x="66.699219"/>
       <use xlink:href="#ArialMT-27" x="122.314453"/>
      </g>
     </g>
    </g>
    <g id="xtick_8">
     <g id="line2d_9">
      <g>
       <use xlink:href="#m51076065b4" x="586" y="384.48" style="fill: #262626; stroke: #262626"/>
      </g>
     </g>
     <g id="text_8">
      <!-- P4' -->
      <g style="fill: #262626" transform="translate(579.778125 399.078875) scale(0.088 -0.088)">
       <use xlink:href="#ArialMT-50"/>
       <use xlink:href="#ArialMT-34" x="66.699219"/>
       <use xlink:href="#ArialMT-27" x="122.314453"/>
      </g>
     </g>
    </g>
   </g>
   <g id="matplotlib.axis_2">
    <g id="ytick_1">
     <g id="line2d_10">
      <defs>
       <path id="mc5a011ab6f" d="M 0 0 
L -4.8 0 
" style="stroke: #262626"/>
      </defs>
      <g>
       <use xlink:href="#mc5a011ab6f" x="90" y="384.48" style="fill: #262626; stroke: #262626"/>
      </g>
     </g>
     <g id="text_9">
      <!-- 0.0 -->
      <g style="fill: #262626" transform="translate(69.468 387.629437) scale(0.088 -0.088)">
       <defs>
        <path id="ArialMT-30" d="M 266 2259 
Q 266 3072 433 3567 
Q 600 4063 929 4331 
Q 1259 4600 1759 4600 
Q 2128 4600 2406 4451 
Q 2684 4303 2865 4023 
Q 3047 3744 3150 3342 
Q 3253 2941 3253 2259 
Q 3253 1453 3087 958 
Q 2922 463 2592 192 
Q 2263 -78 1759 -78 
Q 1097 -78 719 397 
Q 266 969 266 2259 
z
M 844 2259 
Q 844 1131 1108 757 
Q 1372 384 1759 384 
Q 2147 384 2411 759 
Q 2675 1134 2675 2259 
Q 2675 3391 2411 3762 
Q 2147 4134 1753 4134 
Q 1366 4134 1134 3806 
Q 844 3388 844 2259 
z
" transform="scale(0.015625)"/>
        <path id="ArialMT-2e" d="M 581 0 
L 581 641 
L 1222 641 
L 1222 0 
L 581 0 
z
" transform="scale(0.015625)"/>
       </defs>
       <use xlink:href="#ArialMT-30"/>
       <use xlink:href="#ArialMT-2e" x="55.615234"/>
       <use xlink:href="#ArialMT-30" x="83.398438"/>
      </g>
     </g>
    </g>
    <g id="ytick_2">
     <g id="line2d_11">
      <g>
       <use xlink:href="#mc5a011ab6f" x="90" y="317.952" style="fill: #262626; stroke: #262626"/>
      </g>
     </g>
     <g id="text_10">
      <!-- 0.2 -->
      <g style="fill: #262626" transform="translate(69.468 321.101437) scale(0.088 -0.088)">
       <use xlink:href="#ArialMT-30"/>
       <use xlink:href="#ArialMT-2e" x="55.615234"/>
       <use xlink:href="#ArialMT-32" x="83.398438"/>
      </g>
     </g>
    </g>
    <g id="ytick_3">
     <g id="line2d_12">
      <g>
       <use xlink:href="#mc5a011ab6f" x="90" y="251.424" style="fill: #262626; stroke: #262626"/>
      </g>
     </g>
     <g id="text_11">
      <!-- 0.4 -->
      <g style="fill: #262626" transform="translate(69.468 254.573437) scale(0.088 -0.088)">
       <use xlink:href="#ArialMT-30"/>
       <use xlink:href="#ArialMT-2e" x="55.615234"/>
       <use xlink:href="#ArialMT-34" x="83.398438"/>
      </g>
     </g>
    </g>
    <g id="ytick_4">
     <g id="line2d_13">
      <g>
       <use xlink:href="#mc5a011ab6f" x="90" y="184.896" style="fill: #262626; stroke: #262626"/>
      </g>
     </g>
     <g id="text_12">
      <!-- 0.6 -->
      <g style="fill: #262626" transform="translate(69.468 188.045437) scale(0.088 -0.088)">
       <defs>
        <path id="ArialMT-36" d="M 3184 3459 
L 2625 3416 
Q 2550 3747 2413 3897 
Q 2184 4138 1850 4138 
Q 1581 4138 1378 3988 
Q 1113 3794 959 3422 
Q 806 3050 800 2363 
Q 1003 2672 1297 2822 
Q 1591 2972 1913 2972 
Q 2475 2972 2870 2558 
Q 3266 2144 3266 1488 
Q 3266 1056 3080 686 
Q 2894 316 2569 119 
Q 2244 -78 1831 -78 
Q 1128 -78 684 439 
Q 241 956 241 2144 
Q 241 3472 731 4075 
Q 1159 4600 1884 4600 
Q 2425 4600 2770 4297 
Q 3116 3994 3184 3459 
z
M 888 1484 
Q 888 1194 1011 928 
Q 1134 663 1356 523 
Q 1578 384 1822 384 
Q 2178 384 2434 671 
Q 2691 959 2691 1453 
Q 2691 1928 2437 2201 
Q 2184 2475 1800 2475 
Q 1419 2475 1153 2201 
Q 888 1928 888 1484 
z
" transform="scale(0.015625)"/>
       </defs>
       <use xlink:href="#ArialMT-30"/>
       <use xlink:href="#ArialMT-2e" x="55.615234"/>
       <use xlink:href="#ArialMT-36" x="83.398438"/>
      </g>
     </g>
    </g>
    <g id="ytick_5">
     <g id="line2d_14">
      <g>
       <use xlink:href="#mc5a011ab6f" x="90" y="118.368" style="fill: #262626; stroke: #262626"/>
      </g>
     </g>
     <g id="text_13">
      <!-- 0.8 -->
      <g style="fill: #262626" transform="translate(69.468 121.517437) scale(0.088 -0.088)">
       <defs>
        <path id="ArialMT-38" d="M 1131 2484 
Q 781 2613 612 2850 
Q 444 3088 444 3419 
Q 444 3919 803 4259 
Q 1163 4600 1759 4600 
Q 2359 4600 2725 4251 
Q 3091 3903 3091 3403 
Q 3091 3084 2923 2848 
Q 2756 2613 2416 2484 
Q 2838 2347 3058 2040 
Q 3278 1734 3278 1309 
Q 3278 722 2862 322 
Q 2447 -78 1769 -78 
Q 1091 -78 675 323 
Q 259 725 259 1325 
Q 259 1772 486 2073 
Q 713 2375 1131 2484 
z
M 1019 3438 
Q 1019 3113 1228 2906 
Q 1438 2700 1772 2700 
Q 2097 2700 2305 2904 
Q 2513 3109 2513 3406 
Q 2513 3716 2298 3927 
Q 2084 4138 1766 4138 
Q 1444 4138 1231 3931 
Q 1019 3725 1019 3438 
z
M 838 1322 
Q 838 1081 952 856 
Q 1066 631 1291 507 
Q 1516 384 1775 384 
Q 2178 384 2440 643 
Q 2703 903 2703 1303 
Q 2703 1709 2433 1975 
Q 2163 2241 1756 2241 
Q 1359 2241 1098 1978 
Q 838 1716 838 1322 
z
" transform="scale(0.015625)"/>
       </defs>
       <use xlink:href="#ArialMT-30"/>
       <use xlink:href="#ArialMT-2e" x="55.615234"/>
       <use xlink:href="#ArialMT-38" x="83.398438"/>
      </g>
     </g>
    </g>
    <g id="ytick_6">
     <g id="line2d_15">
      <g>
       <use xlink:href="#mc5a011ab6f" x="90" y="51.84" style="fill: #262626; stroke: #262626"/>
      </g>
     </g>
     <g id="text_14">
      <!-- 1.0 -->
      <g style="fill: #262626" transform="translate(69.468 54.989437) scale(0.088 -0.088)">
       <use xlink:href="#ArialMT-31"/>
       <use xlink:href="#ArialMT-2e" x="55.615234"/>
       <use xlink:href="#ArialMT-30" x="83.398438"/>
      </g>
     </g>
    </g>
    <g id="text_15">
     <!-- percentage -->
     <g style="fill: #262626" transform="translate(63.4475 242.1765) rotate(-90) scale(0.096 -0.096)">
      <defs>
       <path id="ArialMT-70" d="M 422 -1272 
L 422 3319 
L 934 3319 
L 934 2888 
Q 1116 3141 1344 3267 
Q 1572 3394 1897 3394 
Q 2322 3394 2647 3175 
Q 2972 2956 3137 2557 
Q 3303 2159 3303 1684 
Q 3303 1175 3120 767 
Q 2938 359 2589 142 
Q 2241 -75 1856 -75 
Q 1575 -75 1351 44 
Q 1128 163 984 344 
L 984 -1272 
L 422 -1272 
z
M 931 1641 
Q 931 1000 1190 694 
Q 1450 388 1819 388 
Q 2194 388 2461 705 
Q 2728 1022 2728 1688 
Q 2728 2322 2467 2637 
Q 2206 2953 1844 2953 
Q 1484 2953 1207 2617 
Q 931 2281 931 1641 
z
" transform="scale(0.015625)"/>
       <path id="ArialMT-65" d="M 2694 1069 
L 3275 997 
Q 3138 488 2766 206 
Q 2394 -75 1816 -75 
Q 1088 -75 661 373 
Q 234 822 234 1631 
Q 234 2469 665 2931 
Q 1097 3394 1784 3394 
Q 2450 3394 2872 2941 
Q 3294 2488 3294 1666 
Q 3294 1616 3291 1516 
L 816 1516 
Q 847 969 1125 678 
Q 1403 388 1819 388 
Q 2128 388 2347 550 
Q 2566 713 2694 1069 
z
M 847 1978 
L 2700 1978 
Q 2663 2397 2488 2606 
Q 2219 2931 1791 2931 
Q 1403 2931 1139 2672 
Q 875 2413 847 1978 
z
" transform="scale(0.015625)"/>
       <path id="ArialMT-72" d="M 416 0 
L 416 3319 
L 922 3319 
L 922 2816 
Q 1116 3169 1280 3281 
Q 1444 3394 1641 3394 
Q 1925 3394 2219 3213 
L 2025 2691 
Q 1819 2813 1613 2813 
Q 1428 2813 1281 2702 
Q 1134 2591 1072 2394 
Q 978 2094 978 1738 
L 978 0 
L 416 0 
z
" transform="scale(0.015625)"/>
       <path id="ArialMT-63" d="M 2588 1216 
L 3141 1144 
Q 3050 572 2676 248 
Q 2303 -75 1759 -75 
Q 1078 -75 664 370 
Q 250 816 250 1647 
Q 250 2184 428 2587 
Q 606 2991 970 3192 
Q 1334 3394 1763 3394 
Q 2303 3394 2647 3120 
Q 2991 2847 3088 2344 
L 2541 2259 
Q 2463 2594 2264 2762 
Q 2066 2931 1784 2931 
Q 1359 2931 1093 2626 
Q 828 2322 828 1663 
Q 828 994 1084 691 
Q 1341 388 1753 388 
Q 2084 388 2306 591 
Q 2528 794 2588 1216 
z
" transform="scale(0.015625)"/>
       <path id="ArialMT-6e" d="M 422 0 
L 422 3319 
L 928 3319 
L 928 2847 
Q 1294 3394 1984 3394 
Q 2284 3394 2536 3286 
Q 2788 3178 2913 3003 
Q 3038 2828 3088 2588 
Q 3119 2431 3119 2041 
L 3119 0 
L 2556 0 
L 2556 2019 
Q 2556 2363 2490 2533 
Q 2425 2703 2258 2804 
Q 2091 2906 1866 2906 
Q 1506 2906 1245 2678 
Q 984 2450 984 1813 
L 984 0 
L 422 0 
z
" transform="scale(0.015625)"/>
       <path id="ArialMT-74" d="M 1650 503 
L 1731 6 
Q 1494 -44 1306 -44 
Q 1000 -44 831 53 
Q 663 150 594 308 
Q 525 466 525 972 
L 525 2881 
L 113 2881 
L 113 3319 
L 525 3319 
L 525 4141 
L 1084 4478 
L 1084 3319 
L 1650 3319 
L 1650 2881 
L 1084 2881 
L 1084 941 
Q 1084 700 1114 631 
Q 1144 563 1211 522 
Q 1278 481 1403 481 
Q 1497 481 1650 503 
z
" transform="scale(0.015625)"/>
       <path id="ArialMT-61" d="M 2588 409 
Q 2275 144 1986 34 
Q 1697 -75 1366 -75 
Q 819 -75 525 192 
Q 231 459 231 875 
Q 231 1119 342 1320 
Q 453 1522 633 1644 
Q 813 1766 1038 1828 
Q 1203 1872 1538 1913 
Q 2219 1994 2541 2106 
Q 2544 2222 2544 2253 
Q 2544 2597 2384 2738 
Q 2169 2928 1744 2928 
Q 1347 2928 1158 2789 
Q 969 2650 878 2297 
L 328 2372 
Q 403 2725 575 2942 
Q 747 3159 1072 3276 
Q 1397 3394 1825 3394 
Q 2250 3394 2515 3294 
Q 2781 3194 2906 3042 
Q 3031 2891 3081 2659 
Q 3109 2516 3109 2141 
L 3109 1391 
Q 3109 606 3145 398 
Q 3181 191 3288 0 
L 2700 0 
Q 2613 175 2588 409 
z
M 2541 1666 
Q 2234 1541 1622 1453 
Q 1275 1403 1131 1340 
Q 988 1278 909 1158 
Q 831 1038 831 891 
Q 831 666 1001 516 
Q 1172 366 1500 366 
Q 1825 366 2078 508 
Q 2331 650 2450 897 
Q 2541 1088 2541 1459 
L 2541 1666 
z
" transform="scale(0.015625)"/>
       <path id="ArialMT-67" d="M 319 -275 
L 866 -356 
Q 900 -609 1056 -725 
Q 1266 -881 1628 -881 
Q 2019 -881 2231 -725 
Q 2444 -569 2519 -288 
Q 2563 -116 2559 434 
Q 2191 0 1641 0 
Q 956 0 581 494 
Q 206 988 206 1678 
Q 206 2153 378 2554 
Q 550 2956 876 3175 
Q 1203 3394 1644 3394 
Q 2231 3394 2613 2919 
L 2613 3319 
L 3131 3319 
L 3131 450 
Q 3131 -325 2973 -648 
Q 2816 -972 2473 -1159 
Q 2131 -1347 1631 -1347 
Q 1038 -1347 672 -1080 
Q 306 -813 319 -275 
z
M 784 1719 
Q 784 1066 1043 766 
Q 1303 466 1694 466 
Q 2081 466 2343 764 
Q 2606 1063 2606 1700 
Q 2606 2309 2336 2618 
Q 2066 2928 1684 2928 
Q 1309 2928 1046 2623 
Q 784 2319 784 1719 
z
" transform="scale(0.015625)"/>
      </defs>
      <use xlink:href="#ArialMT-70"/>
      <use xlink:href="#ArialMT-65" x="55.615234"/>
      <use xlink:href="#ArialMT-72" x="111.230469"/>
      <use xlink:href="#ArialMT-63" x="144.53125"/>
      <use xlink:href="#ArialMT-65" x="194.53125"/>
      <use xlink:href="#ArialMT-6e" x="250.146484"/>
      <use xlink:href="#ArialMT-74" x="305.761719"/>
      <use xlink:href="#ArialMT-61" x="333.544922"/>
      <use xlink:href="#ArialMT-67" x="389.160156"/>
      <use xlink:href="#ArialMT-65" x="444.775391"/>
     </g>
    </g>
   </g>
   <g id="line2d_16">
    <path d="M 369 384.48 
L 369 51.84 
" clip-path="url(#pae301dd288)" style="fill: none; stroke: #daa520; stroke-width: 2; stroke-linecap: round"/>
   </g>
   <g id="patch_105">
    <path d="M 90 384.48 
L 648 384.48 
" style="fill: none; stroke: #262626; stroke-linejoin: miter; stroke-linecap: square"/>
   </g>
   <g id="patch_106">
    <path d="M 90 51.84 
L 648 51.84 
" style="fill: none; stroke: #262626; stroke-linejoin: miter; stroke-linecap: square"/>
   </g>
   <g id="text_16">
    <!-- ctrl vs. MMP9 probability PPSM n=28 -->
    <g style="fill: #262626" transform="translate(289.641 45.84) scale(0.096 -0.096)">
     <defs>
      <path id="ArialMT-6c" d="M 409 0 
L 409 4581 
L 972 4581 
L 972 0 
L 409 0 
z
" transform="scale(0.015625)"/>
      <path id="ArialMT-20" transform="scale(0.015625)"/>
      <path id="ArialMT-76" d="M 1344 0 
L 81 3319 
L 675 3319 
L 1388 1331 
Q 1503 1009 1600 663 
Q 1675 925 1809 1294 
L 2547 3319 
L 3125 3319 
L 1869 0 
L 1344 0 
z
" transform="scale(0.015625)"/>
      <path id="ArialMT-73" d="M 197 991 
L 753 1078 
Q 800 744 1014 566 
Q 1228 388 1613 388 
Q 2000 388 2187 545 
Q 2375 703 2375 916 
Q 2375 1106 2209 1216 
Q 2094 1291 1634 1406 
Q 1016 1563 777 1677 
Q 538 1791 414 1992 
Q 291 2194 291 2438 
Q 291 2659 392 2848 
Q 494 3038 669 3163 
Q 800 3259 1026 3326 
Q 1253 3394 1513 3394 
Q 1903 3394 2198 3281 
Q 2494 3169 2634 2976 
Q 2775 2784 2828 2463 
L 2278 2388 
Q 2241 2644 2061 2787 
Q 1881 2931 1553 2931 
Q 1166 2931 1000 2803 
Q 834 2675 834 2503 
Q 834 2394 903 2306 
Q 972 2216 1119 2156 
Q 1203 2125 1616 2013 
Q 2213 1853 2448 1751 
Q 2684 1650 2818 1456 
Q 2953 1263 2953 975 
Q 2953 694 2789 445 
Q 2625 197 2315 61 
Q 2006 -75 1616 -75 
Q 969 -75 630 194 
Q 291 463 197 991 
z
" transform="scale(0.015625)"/>
      <path id="ArialMT-4d" d="M 475 0 
L 475 4581 
L 1388 4581 
L 2472 1338 
Q 2622 884 2691 659 
Q 2769 909 2934 1394 
L 4031 4581 
L 4847 4581 
L 4847 0 
L 4263 0 
L 4263 3834 
L 2931 0 
L 2384 0 
L 1059 3900 
L 1059 0 
L 475 0 
z
" transform="scale(0.015625)"/>
      <path id="ArialMT-39" d="M 350 1059 
L 891 1109 
Q 959 728 1153 556 
Q 1347 384 1650 384 
Q 1909 384 2104 503 
Q 2300 622 2425 820 
Q 2550 1019 2634 1356 
Q 2719 1694 2719 2044 
Q 2719 2081 2716 2156 
Q 2547 1888 2255 1720 
Q 1963 1553 1622 1553 
Q 1053 1553 659 1965 
Q 266 2378 266 3053 
Q 266 3750 677 4175 
Q 1088 4600 1706 4600 
Q 2153 4600 2523 4359 
Q 2894 4119 3086 3673 
Q 3278 3228 3278 2384 
Q 3278 1506 3087 986 
Q 2897 466 2520 194 
Q 2144 -78 1638 -78 
Q 1100 -78 759 220 
Q 419 519 350 1059 
z
M 2653 3081 
Q 2653 3566 2395 3850 
Q 2138 4134 1775 4134 
Q 1400 4134 1122 3828 
Q 844 3522 844 3034 
Q 844 2597 1108 2323 
Q 1372 2050 1759 2050 
Q 2150 2050 2401 2323 
Q 2653 2597 2653 3081 
z
" transform="scale(0.015625)"/>
      <path id="ArialMT-6f" d="M 213 1659 
Q 213 2581 725 3025 
Q 1153 3394 1769 3394 
Q 2453 3394 2887 2945 
Q 3322 2497 3322 1706 
Q 3322 1066 3130 698 
Q 2938 331 2570 128 
Q 2203 -75 1769 -75 
Q 1072 -75 642 372 
Q 213 819 213 1659 
z
M 791 1659 
Q 791 1022 1069 705 
Q 1347 388 1769 388 
Q 2188 388 2466 706 
Q 2744 1025 2744 1678 
Q 2744 2294 2464 2611 
Q 2184 2928 1769 2928 
Q 1347 2928 1069 2612 
Q 791 2297 791 1659 
z
" transform="scale(0.015625)"/>
      <path id="ArialMT-62" d="M 941 0 
L 419 0 
L 419 4581 
L 981 4581 
L 981 2947 
Q 1338 3394 1891 3394 
Q 2197 3394 2470 3270 
Q 2744 3147 2920 2923 
Q 3097 2700 3197 2384 
Q 3297 2069 3297 1709 
Q 3297 856 2875 390 
Q 2453 -75 1863 -75 
Q 1275 -75 941 416 
L 941 0 
z
M 934 1684 
Q 934 1088 1097 822 
Q 1363 388 1816 388 
Q 2184 388 2453 708 
Q 2722 1028 2722 1663 
Q 2722 2313 2464 2622 
Q 2206 2931 1841 2931 
Q 1472 2931 1203 2611 
Q 934 2291 934 1684 
z
" transform="scale(0.015625)"/>
      <path id="ArialMT-69" d="M 425 3934 
L 425 4581 
L 988 4581 
L 988 3934 
L 425 3934 
z
M 425 0 
L 425 3319 
L 988 3319 
L 988 0 
L 425 0 
z
" transform="scale(0.015625)"/>
      <path id="ArialMT-79" d="M 397 -1278 
L 334 -750 
Q 519 -800 656 -800 
Q 844 -800 956 -737 
Q 1069 -675 1141 -563 
Q 1194 -478 1313 -144 
Q 1328 -97 1363 -6 
L 103 3319 
L 709 3319 
L 1400 1397 
Q 1534 1031 1641 628 
Q 1738 1016 1872 1384 
L 2581 3319 
L 3144 3319 
L 1881 -56 
Q 1678 -603 1566 -809 
Q 1416 -1088 1222 -1217 
Q 1028 -1347 759 -1347 
Q 597 -1347 397 -1278 
z
" transform="scale(0.015625)"/>
      <path id="ArialMT-53" d="M 288 1472 
L 859 1522 
Q 900 1178 1048 958 
Q 1197 738 1509 602 
Q 1822 466 2213 466 
Q 2559 466 2825 569 
Q 3091 672 3220 851 
Q 3350 1031 3350 1244 
Q 3350 1459 3225 1620 
Q 3100 1781 2813 1891 
Q 2628 1963 1997 2114 
Q 1366 2266 1113 2400 
Q 784 2572 623 2826 
Q 463 3081 463 3397 
Q 463 3744 659 4045 
Q 856 4347 1234 4503 
Q 1613 4659 2075 4659 
Q 2584 4659 2973 4495 
Q 3363 4331 3572 4012 
Q 3781 3694 3797 3291 
L 3216 3247 
Q 3169 3681 2898 3903 
Q 2628 4125 2100 4125 
Q 1550 4125 1298 3923 
Q 1047 3722 1047 3438 
Q 1047 3191 1225 3031 
Q 1400 2872 2139 2705 
Q 2878 2538 3153 2413 
Q 3553 2228 3743 1945 
Q 3934 1663 3934 1294 
Q 3934 928 3725 604 
Q 3516 281 3123 101 
Q 2731 -78 2241 -78 
Q 1619 -78 1198 103 
Q 778 284 539 648 
Q 300 1013 288 1472 
z
" transform="scale(0.015625)"/>
      <path id="ArialMT-3d" d="M 3381 2694 
L 356 2694 
L 356 3219 
L 3381 3219 
L 3381 2694 
z
M 3381 1303 
L 356 1303 
L 356 1828 
L 3381 1828 
L 3381 1303 
z
" transform="scale(0.015625)"/>
     </defs>
     <use xlink:href="#ArialMT-63"/>
     <use xlink:href="#ArialMT-74" x="50"/>
     <use xlink:href="#ArialMT-72" x="77.783203"/>
     <use xlink:href="#ArialMT-6c" x="111.083984"/>
     <use xlink:href="#ArialMT-20" x="133.300781"/>
     <use xlink:href="#ArialMT-76" x="161.083984"/>
     <use xlink:href="#ArialMT-73" x="211.083984"/>
     <use xlink:href="#ArialMT-2e" x="261.083984"/>
     <use xlink:href="#ArialMT-20" x="288.867188"/>
     <use xlink:href="#ArialMT-4d" x="316.650391"/>
     <use xlink:href="#ArialMT-4d" x="399.951172"/>
     <use xlink:href="#ArialMT-50" x="483.251953"/>
     <use xlink:href="#ArialMT-39" x="549.951172"/>
     <use xlink:href="#ArialMT-20" x="605.566406"/>
     <use xlink:href="#ArialMT-70" x="633.349609"/>
     <use xlink:href="#ArialMT-72" x="688.964844"/>
     <use xlink:href="#ArialMT-6f" x="722.265625"/>
     <use xlink:href="#ArialMT-62" x="777.880859"/>
     <use xlink:href="#ArialMT-61" x="833.496094"/>
     <use xlink:href="#ArialMT-62" x="889.111328"/>
     <use xlink:href="#ArialMT-69" x="944.726562"/>
     <use xlink:href="#ArialMT-6c" x="966.943359"/>
     <use xlink:href="#ArialMT-69" x="989.160156"/>
     <use xlink:href="#ArialMT-74" x="1011.376953"/>
     <use xlink:href="#ArialMT-79" x="1039.160156"/>
     <use xlink:href="#ArialMT-20" x="1089.160156"/>
     <use xlink:href="#ArialMT-50" x="1116.943359"/>
     <use xlink:href="#ArialMT-50" x="1183.642578"/>
     <use xlink:href="#ArialMT-53" x="1250.341797"/>
     <use xlink:href="#ArialMT-4d" x="1317.041016"/>
     <use xlink:href="#ArialMT-20" x="1400.341797"/>
     <use xlink:href="#ArialMT-6e" x="1428.125"/>
     <use xlink:href="#ArialMT-3d" x="1483.740234"/>
     <use xlink:href="#ArialMT-32" x="1542.138672"/>
     <use xlink:href="#ArialMT-38" x="1597.753906"/>
    </g>
   </g>
  </g>
 </g>
 <defs>
  <clipPath id="pae301dd288">
   <rect x="90" y="51.84" width="558" height="332.64"/>
  </clipPath>
 </defs>
</svg>
