<?xml version="1.0" encoding="utf-8" standalone="no"?>
<!DOCTYPE svg PUBLIC "-//W3C//DTD SVG 1.1//EN"
  "http://www.w3.org/Graphics/SVG/1.1/DTD/svg11.dtd">
<svg xmlns:xlink="http://www.w3.org/1999/xlink" width="720pt" height="432pt" viewBox="0 0 720 432" xmlns="http://www.w3.org/2000/svg" version="1.1">
 <metadata>
  <rdf:RDF xmlns:dc="http://purl.org/dc/elements/1.1/" xmlns:cc="http://creativecommons.org/ns#" xmlns:rdf="http://www.w3.org/1999/02/22-rdf-syntax-ns#">
   <cc:Work>
    <dc:type rdf:resource="http://purl.org/dc/dcmitype/StillImage"/>
    <dc:date>2023-11-07T14:23:04.666202</dc:date>
    <dc:format>image/svg+xml</dc:format>
    <dc:creator>
     <cc:Agent>
      <dc:title>Matplotlib v3.7.1, https://matplotlib.org/</dc:title>
     </cc:Agent>
    </dc:creator>
   </cc:Work>
  </rdf:RDF>
 </metadata>
 <defs>
  <style type="text/css">*{stroke-linejoin: round; stroke-linecap: butt}</style>
 </defs>
 <g id="figure_1">
  <g id="patch_1">
   <path d="M 0 432 
L 720 432 
L 720 0 
L 0 0 
z
" style="fill: #ffffff"/>
  </g>
  <g id="axes_1">
   <g id="patch_2">
    <path d="M 90 384.48 
L 648 384.48 
L 648 51.84 
L 90 51.84 
z
" style="fill: #ffffff"/>
   </g>
   <g id="patch_3">
    <path d="M 307 384.48 
L 369 384.48 
L 369 51.84 
L 307 51.84 
z
" clip-path="url(#p156999e0fe)" style="fill: #ffd700; opacity: 0.35; stroke: #ffffff; stroke-width: 0.8; stroke-linejoin: miter"/>
   </g>
   <g id="line2d_1">
    <path d="M 90 384.48 
L 648 384.48 
" clip-path="url(#p156999e0fe)" style="fill: none; stroke: #000000; stroke-width: 0.5; stroke-linecap: round"/>
   </g>
   <g id="patch_4">
    <path d="M 125.65 379.566 
L 140.22 379.566 
L 151.988929 381.272482 
L 163.746786 379.566 
L 178.35 379.566 
L 158.665 382.336596 
L 158.665 384.354 
L 145.346071 384.354 
L 145.346071 382.336596 
L 125.65 379.566 
z
" clip-path="url(#p156999e0fe)" style="fill: #177875"/>
   </g>
   <g id="patch_5">
    <path d="M 178.35 378.970799 
Q 173.941736 379.140916 169.174969 379.226963 
Q 164.408201 379.314 159.216541 379.314 
Q 143.734505 379.314 134.692252 378.669138 
Q 125.65 378.024276 125.65 376.921484 
Q 125.65 375.814735 134.692252 375.170862 
Q 143.734505 374.526 159.216541 374.526 
Q 164.408201 374.526 169.174969 374.613037 
Q 173.941736 374.699084 178.35 374.869201 
L 178.35 375.823636 
Q 173.901902 375.598132 169.586584 375.493293 
Q 165.271265 375.388453 160.504497 375.388453 
Q 151.953527 375.388453 147.053981 375.796932 
Q 142.167712 376.204421 142.167712 376.921484 
Q 142.167712 377.635579 147.053981 378.044057 
Q 151.953527 378.451547 160.504497 378.451547 
Q 165.271265 378.451547 169.586584 378.346707 
Q 173.901902 378.240879 178.35 378.015375 
L 178.35 378.970799 
z
" clip-path="url(#p156999e0fe)" style="fill: #6b296b"/>
   </g>
   <g id="patch_6">
    <path d="M 153.405333 373.55799 
L 152.373292 373.55799 
Q 139.714313 373.55799 132.676667 373.021404 
Q 125.65 372.483975 125.65 371.526207 
Q 125.65 370.570123 132.665687 370.028483 
Q 139.681375 369.486 152 369.486 
Q 164.450375 369.486 171.400188 370.023429 
Q 178.35 370.560015 178.35 371.526207 
Q 178.35 372.189148 174.661 372.668453 
Q 170.972 373.147759 164.044146 373.389517 
L 174.364563 374.274 
L 161.771458 374.274 
L 153.405333 373.55799 
z
M 152 370.220542 
Q 145.961458 370.220542 142.634771 370.562542 
Q 139.308083 370.904542 139.308083 371.526207 
Q 139.308083 372.15798 142.557917 372.494084 
Q 145.818729 372.829345 152 372.829345 
Q 158.071479 372.829345 161.398167 372.487345 
Q 164.724854 372.144502 164.724854 371.526207 
Q 164.724854 370.904542 161.398167 370.562542 
Q 158.071479 370.220542 152 370.220542 
z
" clip-path="url(#p156999e0fe)" style="fill: #40ba47"/>
   </g>
   <g id="patch_7">
    <path d="M 125.65 364.446 
L 134.762642 364.446 
L 141.132798 367.925663 
L 147.455534 364.446 
L 156.615597 364.446 
L 162.938332 367.925663 
L 169.316392 364.446 
L 178.35 364.446 
L 169.656239 369.234 
L 158.694196 369.234 
L 152 365.594258 
L 145.384838 369.234 
L 134.414892 369.234 
L 125.65 364.446 
z
" clip-path="url(#p156999e0fe)" style="fill: #21599c"/>
   </g>
   <g id="patch_8">
    <path d="M 125.65 354.492 
L 138.68762 354.492 
L 152.016162 361.560098 
L 165.323155 354.492 
L 178.35 354.492 
L 159.730985 364.068 
L 144.269015 364.068 
L 125.65 354.492 
z
" clip-path="url(#p156999e0fe)" style="fill: #21599c"/>
   </g>
   <g id="patch_9">
    <path d="M 142.437692 344.412 
L 161.562308 344.412 
L 161.562308 353.988 
L 142.437692 353.988 
L 142.437692 344.412 
z
" clip-path="url(#p156999e0fe)" style="fill: #21599c"/>
   </g>
   <g id="patch_10">
    <path d="M 125.65 334.332 
L 142.578032 334.332 
L 163.968106 340.899338 
L 163.968106 334.332 
L 178.35 334.332 
L 178.35 343.908 
L 161.409364 343.908 
L 140.01929 337.340662 
L 140.01929 343.908 
L 125.65 343.908 
L 125.65 334.332 
z
" clip-path="url(#p156999e0fe)" style="fill: #40ba47"/>
   </g>
   <g id="patch_11">
    <path d="M 147.032787 325.707292 
Q 151.762274 325.707292 153.814221 325.27631 
Q 155.866168 324.84225 155.866168 323.850993 
Q 155.866168 322.86897 153.814221 322.447224 
Q 151.762274 322.022399 147.032787 322.022399 
L 140.701781 322.022399 
L 140.701781 325.707292 
L 147.032787 325.707292 
z
M 140.701781 328.265475 
L 140.701781 333.702 
L 125.65 333.702 
L 125.65 319.338 
L 148.634307 319.338 
Q 160.170252 319.338 165.537844 320.292316 
Q 170.917949 321.243554 170.917949 323.30303 
Q 170.917949 324.72527 168.11529 325.639566 
Q 165.325142 326.553863 159.694801 326.987923 
Q 162.785233 327.160315 165.225047 327.772925 
Q 167.677374 328.382456 170.179748 329.623067 
L 178.35 333.702 
L 162.322293 333.702 
L 155.203039 330.134088 
Q 153.050997 329.056634 150.836396 328.662594 
Q 148.634307 328.265475 144.955817 328.265475 
L 140.701781 328.265475 
z
" clip-path="url(#p156999e0fe)" style="fill: #bd2e1f"/>
   </g>
   <g id="patch_12">
    <path d="M 125.65 304.218 
L 178.35 304.218 
L 178.35 307.01938 
L 159.390256 307.01938 
L 159.390256 318.582 
L 144.646512 318.582 
L 144.646512 307.01938 
L 125.65 307.01938 
L 125.65 304.218 
z
" clip-path="url(#p156999e0fe)" style="fill: #40ba47"/>
   </g>
   <g id="patch_13">
    <path d="M 173.955948 285.097884 
L 173.955948 289.006617 
Q 168.459804 288.326149 163.221293 287.981959 
Q 157.997094 287.633813 153.34541 287.633813 
Q 147.176562 287.633813 144.213797 288.104602 
Q 141.265345 288.571434 141.265345 289.560486 
Q 141.265345 290.304253 143.254834 290.719655 
Q 145.244324 291.1311 150.482835 291.427816 
L 157.811027 291.835305 
Q 168.946442 292.45643 173.641065 293.71846 
Q 178.35 294.976534 178.35 297.302784 
Q 178.35 300.35302 171.794704 301.84451 
Q 165.239408 303.336 151.770994 303.336 
Q 145.430391 303.336 139.032537 302.999722 
Q 132.634682 302.667401 126.236828 302.010671 
L 126.236828 297.99512 
Q 132.634682 298.932741 138.60315 299.411442 
Q 144.571619 299.886187 150.125014 299.886187 
Q 155.764286 299.886187 158.755676 299.367924 
Q 161.747067 298.845705 161.747067 297.88039 
Q 161.747067 297.017937 159.714639 296.547148 
Q 157.682211 296.076359 151.59924 295.704476 
L 144.929441 295.296987 
Q 134.910429 294.703555 130.273058 293.405919 
Q 125.65 292.108283 125.65 289.908632 
Q 125.65 287.151156 132.090793 285.667578 
Q 138.531586 284.184 150.611651 284.184 
Q 156.122108 284.184 161.933134 284.41346 
Q 167.744161 284.64292 173.955948 285.097884 
z
" clip-path="url(#p156999e0fe)" style="fill: #40ba47"/>
   </g>
   <g id="patch_14">
    <path d="M 126.198462 264.024 
L 177.801538 264.024 
L 177.801538 267.759174 
L 145.323077 267.759174 
L 145.323077 271.321955 
L 175.877949 271.321955 
L 175.877949 275.057128 
L 145.323077 275.057128 
L 145.323077 283.176 
L 126.198462 283.176 
L 126.198462 264.024 
z
" clip-path="url(#p156999e0fe)" style="fill: #21599c"/>
   </g>
   <g id="patch_15">
    <path d="M 125.65 243.864 
L 177.253077 243.864 
L 177.253077 247.599174 
L 144.774615 247.599174 
L 144.774615 251.161955 
L 175.329487 251.161955 
L 175.329487 254.897128 
L 144.774615 254.897128 
L 144.774615 259.284931 
L 178.35 259.284931 
L 178.35 263.016 
L 125.65 263.016 
L 125.65 243.864 
z
" clip-path="url(#p156999e0fe)" style="fill: #6b296b"/>
   </g>
   <g id="patch_16">
    <path d="M 125.65 223.704 
L 141.195992 223.704 
L 151.979692 233.953152 
L 162.83447 223.704 
L 178.35 223.704 
L 178.35 242.856 
L 166.80474 242.856 
L 166.80474 228.847047 
L 155.889037 239.174186 
L 148.141426 239.174186 
L 137.225723 228.847047 
L 137.225723 242.856 
L 125.65 242.856 
L 125.65 223.704 
z
" clip-path="url(#p156999e0fe)" style="fill: #21599c"/>
   </g>
   <g id="patch_17">
    <path d="M 178.35 220.403976 
Q 173.035119 221.486988 167.318669 222.030967 
Q 161.602219 222.57 155.507822 222.57 
Q 141.736374 222.57 133.693187 219.345691 
Q 125.65 216.121382 125.65 210.607418 
Q 125.65 205.029165 133.834917 201.829583 
Q 142.031645 198.63 156.287338 198.63 
Q 161.779381 198.63 166.810802 199.065183 
Q 171.854034 199.49542 176.318534 200.346005 
L 176.318534 205.11818 
Q 171.712304 204.025278 167.153317 203.486245 
Q 162.59433 202.942266 158.011721 202.942266 
Q 149.531533 202.942266 144.937113 204.93026 
Q 140.342694 206.913309 140.342694 210.607418 
Q 140.342694 214.26691 144.771762 216.264794 
Q 149.200829 218.257734 157.350314 218.257734 
Q 159.570753 218.257734 161.472299 218.143993 
Q 163.373846 218.025307 164.885634 217.778044 
L 164.885634 213.297639 
L 156.204662 213.297639 
L 156.204662 209.306815 
L 178.35 209.306815 
L 178.35 220.403976 
z
" clip-path="url(#p156999e0fe)" style="fill: #787800"/>
   </g>
   <g id="patch_18">
    <path d="M 125.65 168.516 
L 139.537864 168.516 
L 139.537864 179.001166 
L 159.555783 168.516 
L 175.683253 168.516 
L 149.743078 182.122704 
L 178.35 197.244 
L 160.964195 197.244 
L 139.537864 185.927655 
L 139.537864 197.244 
L 125.65 197.244 
L 125.65 168.516 
z
" clip-path="url(#p156999e0fe)" style="fill: #bd2e1f"/>
   </g>
   <g id="patch_19">
    <path d="M 162.155336 160.772428 
L 141.887763 160.772428 
L 138.68762 166.878 
L 125.65 166.878 
L 144.269015 133.362 
L 159.730985 133.362 
L 178.35 166.878 
L 165.323155 166.878 
L 162.155336 160.772428 
z
M 145.120231 154.551927 
L 158.890544 154.551927 
L 152.016162 141.220231 
L 145.120231 154.551927 
z
" clip-path="url(#p156999e0fe)" style="fill: #21599c"/>
   </g>
   <g id="patch_20">
    <path d="M 125.65 98.082 
L 144.774615 98.082 
L 144.774615 125.068629 
L 178.35 125.068629 
L 178.35 131.598 
L 125.65 131.598 
L 125.65 98.082 
z
" clip-path="url(#p156999e0fe)" style="fill: #21599c"/>
   </g>
   <g id="patch_21">
    <path d="M 125.65 52.974 
L 153.043021 52.974 
Q 165.271068 52.974 171.803672 56.631186 
Q 178.35 60.279138 178.35 67.030156 
Q 178.35 73.818116 171.803672 77.466067 
Q 165.271068 81.114018 153.043021 81.114018 
L 142.159922 81.114018 
L 142.159922 96.066 
L 125.65 96.066 
L 125.65 52.974 
z
M 142.159922 61.027198 
L 142.159922 73.06082 
L 151.286354 73.06082 
Q 156.08974 73.06082 158.711016 71.490815 
Q 161.332292 69.920811 161.332292 67.030156 
Q 161.332292 64.148736 158.711016 62.587967 
Q 156.08974 61.027198 151.286354 61.027198 
L 142.159922 61.027198 
z
" clip-path="url(#p156999e0fe)" style="fill: #787800"/>
   </g>
   <g id="patch_22">
    <path d="M 187.65 379.566 
L 202.22 379.566 
L 213.988929 381.272482 
L 225.746786 379.566 
L 240.35 379.566 
L 220.665 382.336596 
L 220.665 384.354 
L 207.346071 384.354 
L 207.346071 382.336596 
L 187.65 379.566 
z
" clip-path="url(#p156999e0fe)" style="fill: #177875"/>
   </g>
   <g id="patch_23">
    <path d="M 240.35 378.970799 
Q 235.941736 379.140916 231.174969 379.226963 
Q 226.408201 379.314 221.216541 379.314 
Q 205.734505 379.314 196.692252 378.669138 
Q 187.65 378.024276 187.65 376.921484 
Q 187.65 375.814735 196.692252 375.170862 
Q 205.734505 374.526 221.216541 374.526 
Q 226.408201 374.526 231.174969 374.613037 
Q 235.941736 374.699084 240.35 374.869201 
L 240.35 375.823636 
Q 235.901902 375.598132 231.586584 375.493293 
Q 227.271265 375.388453 222.504497 375.388453 
Q 213.953527 375.388453 209.053981 375.796932 
Q 204.167712 376.204421 204.167712 376.921484 
Q 204.167712 377.635579 209.053981 378.044057 
Q 213.953527 378.451547 222.504497 378.451547 
Q 227.271265 378.451547 231.586584 378.346707 
Q 235.901902 378.240879 240.35 378.015375 
L 240.35 378.970799 
z
" clip-path="url(#p156999e0fe)" style="fill: #6b296b"/>
   </g>
   <g id="patch_24">
    <path d="M 188.198462 369.486 
L 239.801538 369.486 
L 239.801538 370.419793 
L 207.323077 370.419793 
L 207.323077 371.310489 
L 237.877949 371.310489 
L 237.877949 372.244282 
L 207.323077 372.244282 
L 207.323077 374.274 
L 188.198462 374.274 
L 188.198462 369.486 
z
" clip-path="url(#p156999e0fe)" style="fill: #21599c"/>
   </g>
   <g id="patch_25">
    <path d="M 187.65 364.446 
L 202.813382 364.446 
L 202.813382 366.270489 
L 225.186618 366.270489 
L 225.186618 364.446 
L 240.35 364.446 
L 240.35 369.234 
L 225.186618 369.234 
L 225.186618 367.204282 
L 202.813382 367.204282 
L 202.813382 369.234 
L 187.65 369.234 
L 187.65 364.446 
z
" clip-path="url(#p156999e0fe)" style="fill: #177875"/>
   </g>
   <g id="patch_26">
    <path d="M 187.65 359.406 
L 196.762642 359.406 
L 203.132798 362.885663 
L 209.455534 359.406 
L 218.615597 359.406 
L 224.938332 362.885663 
L 231.316392 359.406 
L 240.35 359.406 
L 231.656239 364.194 
L 220.694196 364.194 
L 214 360.554258 
L 207.384838 364.194 
L 196.414892 364.194 
L 187.65 359.406 
z
" clip-path="url(#p156999e0fe)" style="fill: #21599c"/>
   </g>
   <g id="patch_27">
    <path d="M 187.65 354.366 
L 203.195992 354.366 
L 213.979692 356.928288 
L 224.83447 354.366 
L 240.35 354.366 
L 240.35 359.154 
L 228.80474 359.154 
L 228.80474 355.651762 
L 217.889037 358.233547 
L 210.141426 358.233547 
L 199.225723 355.651762 
L 199.225723 359.154 
L 187.65 359.154 
L 187.65 354.366 
z
" clip-path="url(#p156999e0fe)" style="fill: #21599c"/>
   </g>
   <g id="patch_28">
    <path d="M 187.65 344.412 
L 240.35 344.412 
L 240.35 346.279587 
L 221.390256 346.279587 
L 221.390256 353.988 
L 206.646512 353.988 
L 206.646512 346.279587 
L 187.65 346.279587 
L 187.65 344.412 
z
" clip-path="url(#p156999e0fe)" style="fill: #40ba47"/>
   </g>
   <g id="patch_29">
    <path d="M 235.955948 330.103413 
L 235.955948 333.034963 
Q 230.459804 332.524612 225.221293 332.266469 
Q 219.997094 332.00536 215.34541 332.00536 
Q 209.176562 332.00536 206.213797 332.358451 
Q 203.265345 332.708576 203.265345 333.450364 
Q 203.265345 334.00819 205.254834 334.319741 
Q 207.244324 334.628325 212.482835 334.850862 
L 219.811027 335.156479 
Q 230.946442 335.622322 235.641065 336.568845 
Q 240.35 337.5124 240.35 339.257088 
Q 240.35 341.544765 233.794704 342.663382 
Q 227.239408 343.782 213.770994 343.782 
Q 207.430391 343.782 201.032537 343.529792 
Q 194.634682 343.280551 188.236828 342.788003 
L 188.236828 339.77634 
Q 194.634682 340.479556 200.60315 340.838582 
Q 206.571619 341.19464 212.125014 341.19464 
Q 217.764286 341.19464 220.755676 340.805943 
Q 223.747067 340.414278 223.747067 339.690293 
Q 223.747067 339.043453 221.714639 338.690361 
Q 219.682211 338.33727 213.59924 338.058357 
L 206.929441 337.75274 
Q 196.910429 337.307667 192.273058 336.33444 
Q 187.65 335.361213 187.65 333.711474 
Q 187.65 331.643367 194.090793 330.530683 
Q 200.531586 329.418 212.611651 329.418 
Q 218.122108 329.418 223.933134 329.590095 
Q 229.744161 329.76219 235.955948 330.103413 
z
" clip-path="url(#p156999e0fe)" style="fill: #40ba47"/>
   </g>
   <g id="patch_30">
    <path d="M 204.437692 314.298 
L 223.562308 314.298 
L 223.562308 328.662 
L 204.437692 328.662 
L 204.437692 314.298 
z
" clip-path="url(#p156999e0fe)" style="fill: #21599c"/>
   </g>
   <g id="patch_31">
    <path d="M 209.032787 305.547292 
Q 213.762274 305.547292 215.814221 305.11631 
Q 217.866168 304.68225 217.866168 303.690993 
Q 217.866168 302.70897 215.814221 302.287224 
Q 213.762274 301.862399 209.032787 301.862399 
L 202.701781 301.862399 
L 202.701781 305.547292 
L 209.032787 305.547292 
z
M 202.701781 308.105475 
L 202.701781 313.542 
L 187.65 313.542 
L 187.65 299.178 
L 210.634307 299.178 
Q 222.170252 299.178 227.537844 300.132316 
Q 232.917949 301.083554 232.917949 303.14303 
Q 232.917949 304.56527 230.11529 305.479566 
Q 227.325142 306.393863 221.694801 306.827923 
Q 224.785233 307.000315 227.225047 307.612925 
Q 229.677374 308.222456 232.179748 309.463067 
L 240.35 313.542 
L 224.322293 313.542 
L 217.203039 309.974088 
Q 215.050997 308.896634 212.836396 308.502594 
Q 210.634307 308.105475 206.955817 308.105475 
L 202.701781 308.105475 
z
" clip-path="url(#p156999e0fe)" style="fill: #bd2e1f"/>
   </g>
   <g id="patch_32">
    <path d="M 215.405333 296.27397 
L 214.373292 296.27397 
Q 201.714313 296.27397 194.676667 294.664212 
Q 187.65 293.051926 187.65 290.178621 
Q 187.65 287.310369 194.665687 285.685448 
Q 201.681375 284.058 214 284.058 
Q 226.450375 284.058 233.400187 285.670286 
Q 240.35 287.280044 240.35 290.178621 
Q 240.35 292.167443 236.661 293.60536 
Q 232.972 295.043276 226.044146 295.768552 
L 236.364562 298.422 
L 223.771458 298.422 
L 215.405333 296.27397 
z
M 214 286.261626 
Q 207.961458 286.261626 204.634771 287.287626 
Q 201.308083 288.313626 201.308083 290.178621 
Q 201.308083 292.073941 204.557917 293.082251 
Q 207.818729 294.088034 214 294.088034 
Q 220.071479 294.088034 223.398167 293.062034 
Q 226.724854 292.033507 226.724854 290.178621 
Q 226.724854 288.313626 223.398167 287.287626 
Q 220.071479 286.261626 214 286.261626 
z
" clip-path="url(#p156999e0fe)" style="fill: #40ba47"/>
   </g>
   <g id="patch_33">
    <path d="M 187.65 264.024 
L 215.043021 264.024 
Q 227.271068 264.024 233.803672 265.649416 
Q 240.35 267.270728 240.35 270.27118 
Q 240.35 273.288051 233.803672 274.909363 
Q 227.271068 276.530675 215.043021 276.530675 
L 204.159922 276.530675 
L 204.159922 283.176 
L 187.65 283.176 
L 187.65 264.024 
z
M 204.159922 267.603199 
L 204.159922 272.951475 
L 213.286354 272.951475 
Q 218.08974 272.951475 220.711016 272.253696 
Q 223.332292 271.555916 223.332292 270.27118 
Q 223.332292 268.99055 220.711016 268.296874 
Q 218.08974 267.603199 213.286354 267.603199 
L 204.159922 267.603199 
z
" clip-path="url(#p156999e0fe)" style="fill: #787800"/>
   </g>
   <g id="patch_34">
    <path d="M 187.65 238.95 
L 200.68762 238.95 
L 214.016162 256.620244 
L 227.323155 238.95 
L 240.35 238.95 
L 221.730985 262.89 
L 206.269015 262.89 
L 187.65 238.95 
z
" clip-path="url(#p156999e0fe)" style="fill: #21599c"/>
   </g>
   <g id="patch_35">
    <path d="M 224.155336 233.328877 
L 203.887763 233.328877 
L 200.68762 237.69 
L 187.65 237.69 
L 206.269015 213.75 
L 221.730985 213.75 
L 240.35 237.69 
L 227.323155 237.69 
L 224.155336 233.328877 
z
M 207.120231 228.885662 
L 220.890544 228.885662 
L 214.016162 219.363022 
L 207.120231 228.885662 
z
" clip-path="url(#p156999e0fe)" style="fill: #21599c"/>
   </g>
   <g id="patch_36">
    <path d="M 187.65 188.55 
L 201.537864 188.55 
L 201.537864 197.287638 
L 221.555783 188.55 
L 237.683253 188.55 
L 211.743078 199.88892 
L 240.35 212.49 
L 222.964195 212.49 
L 201.537864 203.059713 
L 201.537864 212.49 
L 187.65 212.49 
L 187.65 188.55 
z
" clip-path="url(#p156999e0fe)" style="fill: #bd2e1f"/>
   </g>
   <g id="patch_37">
    <path d="M 240.35 184.564772 
Q 235.035119 185.864386 229.318669 186.51716 
Q 223.602219 187.164 217.507822 187.164 
Q 203.736374 187.164 195.693187 183.294829 
Q 187.65 179.425658 187.65 172.808901 
Q 187.65 166.114999 195.834917 162.275499 
Q 204.031645 158.436 218.287338 158.436 
Q 223.779381 158.436 228.810802 158.958219 
Q 233.854034 159.474504 238.318534 160.495206 
L 238.318534 166.221816 
Q 233.712304 164.910333 229.153317 164.263493 
Q 224.59433 163.610719 220.011721 163.610719 
Q 211.531533 163.610719 206.937113 165.996312 
Q 202.342694 168.375971 202.342694 172.808901 
Q 202.342694 177.200292 206.771762 179.597753 
Q 211.200829 181.989281 219.350314 181.989281 
Q 221.570753 181.989281 223.472299 181.852792 
Q 225.373846 181.710368 226.885634 181.413653 
L 226.885634 176.037167 
L 218.204662 176.037167 
L 218.204662 171.248178 
L 240.35 171.248178 
L 240.35 184.564772 
z
" clip-path="url(#p156999e0fe)" style="fill: #787800"/>
   </g>
   <g id="patch_38">
    <path d="M 202.091481 133.79876 
L 202.091481 151.327396 
L 207.265444 151.327396 
Q 216.112802 151.327396 220.782574 149.073979 
Q 225.464351 146.820561 225.464351 142.529216 
Q 225.464351 138.262498 220.806583 136.033708 
Q 216.16082 133.79876 207.265444 133.79876 
L 202.091481 133.79876 
z
M 187.65 128.196 
L 202.871777 128.196 
Q 215.63262 128.196 221.874989 129.131846 
Q 228.117358 130.061535 232.583052 132.296482 
Q 236.520547 134.242056 238.429271 136.784847 
Q 240.35 139.321481 240.35 142.529216 
Q 240.35 145.786205 238.429271 148.335153 
Q 236.520547 150.884101 232.583052 152.823518 
Q 228.081344 155.058465 221.778952 155.994311 
Q 215.47656 156.924 202.871777 156.924 
L 187.65 156.924 
L 187.65 128.196 
z
" clip-path="url(#p156999e0fe)" style="fill: #6b296b"/>
   </g>
   <g id="patch_39">
    <path d="M 187.65 93.042 
L 239.253077 93.042 
L 239.253077 99.578554 
L 206.774615 99.578554 
L 206.774615 105.81342 
L 237.329487 105.81342 
L 237.329487 112.349974 
L 206.774615 112.349974 
L 206.774615 120.028629 
L 240.35 120.028629 
L 240.35 126.558 
L 187.65 126.558 
L 187.65 93.042 
z
" clip-path="url(#p156999e0fe)" style="fill: #6b296b"/>
   </g>
   <g id="patch_40">
    <path d="M 187.65 52.848 
L 206.774615 52.848 
L 206.774615 83.689862 
L 240.35 83.689862 
L 240.35 91.152 
L 187.65 91.152 
L 187.65 52.848 
z
" clip-path="url(#p156999e0fe)" style="fill: #21599c"/>
   </g>
   <g id="patch_41">
    <path d="M 302.35 384.010799 
Q 297.941736 384.180916 293.174969 384.266963 
Q 288.408201 384.354 283.216541 384.354 
Q 267.734505 384.354 258.692252 383.709138 
Q 249.65 383.064276 249.65 381.961484 
Q 249.65 380.854735 258.692252 380.210862 
Q 267.734505 379.566 283.216541 379.566 
Q 288.408201 379.566 293.174969 379.653037 
Q 297.941736 379.739084 302.35 379.909201 
L 302.35 380.863636 
Q 297.901902 380.638132 293.586584 380.533293 
Q 289.271265 380.428453 284.504497 380.428453 
Q 275.953527 380.428453 271.053981 380.836932 
Q 266.167712 381.244421 266.167712 381.961484 
Q 266.167712 382.675579 271.053981 383.084057 
Q 275.953527 383.491547 284.504497 383.491547 
Q 289.271265 383.491547 293.586584 383.386707 
Q 297.901902 383.280879 302.35 383.055375 
L 302.35 384.010799 
z
" clip-path="url(#p156999e0fe)" style="fill: #6b296b"/>
   </g>
   <g id="patch_42">
    <path d="M 277.405333 378.59799 
L 276.373292 378.59799 
Q 263.714313 378.59799 256.676667 378.061404 
Q 249.65 377.523975 249.65 376.566207 
Q 249.65 375.610123 256.665687 375.068483 
Q 263.681375 374.526 276 374.526 
Q 288.450375 374.526 295.400188 375.063429 
Q 302.35 375.600015 302.35 376.566207 
Q 302.35 377.229148 298.661 377.708453 
Q 294.972 378.187759 288.044146 378.429517 
L 298.364562 379.314 
L 285.771458 379.314 
L 277.405333 378.59799 
z
M 276 375.260542 
Q 269.961458 375.260542 266.634771 375.602542 
Q 263.308083 375.944542 263.308083 376.566207 
Q 263.308083 377.19798 266.557917 377.534084 
Q 269.818729 377.869345 276 377.869345 
Q 282.071479 377.869345 285.398167 377.527345 
Q 288.724854 377.184502 288.724854 376.566207 
Q 288.724854 375.944542 285.398167 375.602542 
Q 282.071479 375.260542 276 375.260542 
z
" clip-path="url(#p156999e0fe)" style="fill: #40ba47"/>
   </g>
   <g id="patch_43">
    <path d="M 249.65 369.486 
L 264.813382 369.486 
L 264.813382 371.310489 
L 287.186618 371.310489 
L 287.186618 369.486 
L 302.35 369.486 
L 302.35 374.274 
L 287.186618 374.274 
L 287.186618 372.244282 
L 264.813382 372.244282 
L 264.813382 374.274 
L 249.65 374.274 
L 249.65 369.486 
z
" clip-path="url(#p156999e0fe)" style="fill: #177875"/>
   </g>
   <g id="patch_44">
    <path d="M 249.65 364.446 
L 263.537864 364.446 
L 263.537864 366.193528 
L 283.555783 364.446 
L 299.683253 364.446 
L 273.743078 366.713784 
L 302.35 369.234 
L 284.964195 369.234 
L 263.537864 367.347943 
L 263.537864 369.234 
L 249.65 369.234 
L 249.65 364.446 
z
" clip-path="url(#p156999e0fe)" style="fill: #bd2e1f"/>
   </g>
   <g id="patch_45">
    <path d="M 249.65 354.492 
L 262.68762 354.492 
L 276.016162 361.560098 
L 289.323155 354.492 
L 302.35 354.492 
L 283.730985 364.068 
L 268.269015 364.068 
L 249.65 354.492 
z
" clip-path="url(#p156999e0fe)" style="fill: #21599c"/>
   </g>
   <g id="patch_46">
    <path d="M 249.65 344.412 
L 302.35 344.412 
L 302.35 346.279587 
L 283.390256 346.279587 
L 283.390256 353.988 
L 268.646512 353.988 
L 268.646512 346.279587 
L 249.65 346.279587 
L 249.65 344.412 
z
" clip-path="url(#p156999e0fe)" style="fill: #40ba47"/>
   </g>
   <g id="patch_47">
    <path d="M 249.65 329.418 
L 264.22 329.418 
L 275.988929 334.537445 
L 287.746786 329.418 
L 302.35 329.418 
L 282.665 337.729787 
L 282.665 343.782 
L 269.346071 343.782 
L 269.346071 337.729787 
L 249.65 329.418 
z
" clip-path="url(#p156999e0fe)" style="fill: #177875"/>
   </g>
   <g id="patch_48">
    <path d="M 266.437692 314.298 
L 285.562308 314.298 
L 285.562308 328.662 
L 266.437692 328.662 
L 266.437692 314.298 
z
" clip-path="url(#p156999e0fe)" style="fill: #21599c"/>
   </g>
   <g id="patch_49">
    <path d="M 249.65 299.178 
L 265.195992 299.178 
L 275.979692 306.864864 
L 286.83447 299.178 
L 302.35 299.178 
L 302.35 313.542 
L 290.80474 313.542 
L 290.80474 303.035285 
L 279.889037 310.78064 
L 272.141426 310.78064 
L 261.225723 303.035285 
L 261.225723 313.542 
L 249.65 313.542 
L 249.65 299.178 
z
" clip-path="url(#p156999e0fe)" style="fill: #21599c"/>
   </g>
   <g id="patch_50">
    <path d="M 249.65 279.144 
L 268.774615 279.144 
L 268.774615 294.564931 
L 302.35 294.564931 
L 302.35 298.296 
L 249.65 298.296 
L 249.65 279.144 
z
" clip-path="url(#p156999e0fe)" style="fill: #21599c"/>
   </g>
   <g id="patch_51">
    <path d="M 249.65 258.984 
L 301.253077 258.984 
L 301.253077 262.719174 
L 268.774615 262.719174 
L 268.774615 266.281955 
L 299.329487 266.281955 
L 299.329487 270.017128 
L 268.774615 270.017128 
L 268.774615 274.404931 
L 302.35 274.404931 
L 302.35 278.136 
L 249.65 278.136 
L 249.65 258.984 
z
" clip-path="url(#p156999e0fe)" style="fill: #6b296b"/>
   </g>
   <g id="patch_52">
    <path d="M 264.091481 242.559174 
L 264.091481 254.244931 
L 269.265444 254.244931 
Q 278.112802 254.244931 282.782574 252.742652 
Q 287.464351 251.240374 287.464351 248.379477 
Q 287.464351 245.534999 282.806583 244.049138 
Q 278.16082 242.559174 269.265444 242.559174 
L 264.091481 242.559174 
z
M 249.65 238.824 
L 264.871777 238.824 
Q 277.63262 238.824 283.874989 239.447897 
Q 290.117358 240.06769 294.583052 241.557655 
Q 298.520547 242.854704 300.429271 244.549898 
Q 302.35 246.240988 302.35 248.379477 
Q 302.35 250.550803 300.429271 252.250102 
Q 298.520547 253.949401 294.583052 255.242345 
Q 290.081344 256.73231 283.778952 257.356207 
Q 277.47656 257.976 264.871777 257.976 
L 249.65 257.976 
L 249.65 238.824 
z
" clip-path="url(#p156999e0fe)" style="fill: #6b296b"/>
   </g>
   <g id="patch_53">
    <path d="M 249.65 218.664 
L 266.578032 218.664 
L 287.968106 231.798676 
L 287.968106 218.664 
L 302.35 218.664 
L 302.35 237.816 
L 285.409364 237.816 
L 264.01929 224.681324 
L 264.01929 237.816 
L 249.65 237.816 
L 249.65 218.664 
z
" clip-path="url(#p156999e0fe)" style="fill: #40ba47"/>
   </g>
   <g id="patch_54">
    <path d="M 302.35 215.363976 
Q 297.035119 216.446988 291.318669 216.990967 
Q 285.602219 217.53 279.507822 217.53 
Q 265.736374 217.53 257.693187 214.305691 
Q 249.65 211.081382 249.65 205.567418 
Q 249.65 199.989165 257.834917 196.789583 
Q 266.031645 193.59 280.287338 193.59 
Q 285.779381 193.59 290.810802 194.025183 
Q 295.854034 194.45542 300.318534 195.306005 
L 300.318534 200.07818 
Q 295.712304 198.985278 291.153317 198.446245 
Q 286.59433 197.902266 282.011721 197.902266 
Q 273.531533 197.902266 268.937113 199.89026 
Q 264.342694 201.873309 264.342694 205.567418 
Q 264.342694 209.22691 268.771762 211.224794 
Q 273.200829 213.217734 281.350314 213.217734 
Q 283.570753 213.217734 285.472299 213.103993 
Q 287.373846 212.985307 288.885634 212.738044 
L 288.885634 208.257639 
L 280.204662 208.257639 
L 280.204662 204.266815 
L 302.35 204.266815 
L 302.35 215.363976 
z
" clip-path="url(#p156999e0fe)" style="fill: #787800"/>
   </g>
   <g id="patch_55">
    <path d="M 271.032787 179.005486 
Q 275.762274 179.005486 277.814221 178.287184 
Q 279.866168 177.563751 279.866168 175.911655 
Q 279.866168 174.274951 277.814221 173.57204 
Q 275.762274 172.863999 271.032787 172.863999 
L 264.701781 172.863999 
L 264.701781 179.005486 
L 271.032787 179.005486 
z
M 264.701781 183.269126 
L 264.701781 192.33 
L 249.65 192.33 
L 249.65 168.39 
L 272.634307 168.39 
Q 284.170252 168.39 289.537844 169.980527 
Q 294.917949 171.565924 294.917949 174.998384 
Q 294.917949 177.368783 292.11529 178.89261 
Q 289.325142 180.416438 283.694801 181.139871 
Q 286.785233 181.427192 289.225047 182.448208 
Q 291.677374 183.464093 294.179748 185.531779 
L 302.35 192.33 
L 286.322293 192.33 
L 279.203039 186.38348 
Q 277.050997 184.587724 274.836396 183.93099 
Q 272.634307 183.269126 268.955817 183.269126 
L 264.701781 183.269126 
z
" clip-path="url(#p156999e0fe)" style="fill: #bd2e1f"/>
   </g>
   <g id="patch_56">
    <path d="M 286.155336 161.770652 
L 265.887763 161.770652 
L 262.68762 167.004 
L 249.65 167.004 
L 268.269015 138.276 
L 283.730985 138.276 
L 302.35 167.004 
L 289.323155 167.004 
L 286.155336 161.770652 
z
M 269.120231 156.438795 
L 282.890544 156.438795 
L 276.016162 145.011626 
L 269.120231 156.438795 
z
" clip-path="url(#p156999e0fe)" style="fill: #21599c"/>
   </g>
   <g id="patch_57">
    <path d="M 249.65 103.122 
L 277.043021 103.122 
Q 289.271068 103.122 295.803672 105.966478 
Q 302.35 108.803774 302.35 114.054566 
Q 302.35 119.33409 295.803672 122.171385 
Q 289.271068 125.008681 277.043021 125.008681 
L 266.159922 125.008681 
L 266.159922 136.638 
L 249.65 136.638 
L 249.65 103.122 
z
M 266.159922 109.385599 
L 266.159922 118.745082 
L 275.286354 118.745082 
Q 280.08974 118.745082 282.711016 117.523967 
Q 285.332292 116.302853 285.332292 114.054566 
Q 285.332292 111.813462 282.711016 110.59953 
Q 280.08974 109.385599 275.286354 109.385599 
L 266.159922 109.385599 
z
" clip-path="url(#p156999e0fe)" style="fill: #787800"/>
   </g>
   <g id="patch_58">
    <path d="M 297.955948 55.38471 
L 297.955948 65.156542 
Q 292.459804 63.455373 287.221293 62.594898 
Q 281.997094 61.724532 277.34541 61.724532 
Q 271.176562 61.724532 268.213797 62.901504 
Q 265.265345 64.068585 265.265345 66.541215 
Q 265.265345 68.400632 267.254834 69.439137 
Q 269.244324 70.46775 274.482835 71.209539 
L 281.811027 72.228263 
Q 292.946442 73.781074 297.641065 76.93615 
Q 302.35 80.081334 302.35 85.896959 
Q 302.35 93.522549 295.794704 97.251275 
Q 289.239408 100.98 275.770994 100.98 
Q 269.430391 100.98 263.032537 100.139306 
Q 256.634682 99.308502 250.236828 97.666676 
L 250.236828 87.6278 
Q 256.634682 89.971853 262.60315 91.168606 
Q 268.571619 92.355468 274.125014 92.355468 
Q 279.764286 92.355468 282.755676 91.05981 
Q 285.747067 89.754262 285.747067 87.340975 
Q 285.747067 85.184842 283.714639 84.00787 
Q 281.682211 82.830899 275.59924 81.90119 
L 268.929441 80.882466 
Q 258.910429 79.398889 254.273058 76.154799 
Q 249.65 72.910709 249.65 67.41158 
Q 249.65 60.517889 256.090793 56.808944 
Q 262.531586 53.1 274.611651 53.1 
Q 280.122108 53.1 285.933134 53.67365 
Q 291.744161 54.2473 297.955948 55.38471 
z
" clip-path="url(#p156999e0fe)" style="fill: #40ba47"/>
   </g>
   <g id="patch_59">
    <path d="M 312.198462 379.566 
L 363.801538 379.566 
L 363.801538 380.499793 
L 331.323077 380.499793 
L 331.323077 381.390489 
L 361.877949 381.390489 
L 361.877949 382.324282 
L 331.323077 382.324282 
L 331.323077 384.354 
L 312.198462 384.354 
L 312.198462 379.566 
z
" clip-path="url(#p156999e0fe)" style="fill: #21599c"/>
   </g>
   <g id="patch_60">
    <path d="M 311.65 374.526 
L 326.22 374.526 
L 337.988929 376.232482 
L 349.746786 374.526 
L 364.35 374.526 
L 344.665 377.296596 
L 344.665 379.314 
L 331.346071 379.314 
L 331.346071 377.296596 
L 311.65 374.526 
z
" clip-path="url(#p156999e0fe)" style="fill: #177875"/>
   </g>
   <g id="patch_61">
    <path d="M 311.65 364.572 
L 326.813382 364.572 
L 326.813382 368.220977 
L 349.186618 368.220977 
L 349.186618 364.572 
L 364.35 364.572 
L 364.35 374.148 
L 349.186618 374.148 
L 349.186618 370.088564 
L 326.813382 370.088564 
L 326.813382 374.148 
L 311.65 374.148 
L 311.65 364.572 
z
" clip-path="url(#p156999e0fe)" style="fill: #177875"/>
   </g>
   <g id="patch_62">
    <path d="M 311.65 349.578 
L 325.537864 349.578 
L 325.537864 354.820583 
L 345.555783 349.578 
L 361.683253 349.578 
L 335.743078 356.381352 
L 364.35 363.942 
L 346.964195 363.942 
L 325.537864 358.283828 
L 325.537864 363.942 
L 311.65 363.942 
L 311.65 349.578 
z
" clip-path="url(#p156999e0fe)" style="fill: #bd2e1f"/>
   </g>
   <g id="patch_63">
    <path d="M 333.032787 184.536741 
Q 337.762274 184.536741 339.814221 176.06077 
Q 341.866168 167.524256 341.866168 148.029523 
Q 341.866168 128.716418 339.814221 120.422075 
Q 337.762274 112.06719 333.032787 112.06719 
L 326.701781 112.06719 
L 326.701781 184.536741 
L 333.032787 184.536741 
z
M 326.701781 234.847682 
L 326.701781 341.766 
L 311.65 341.766 
L 311.65 59.274 
L 334.634307 59.274 
Q 346.170252 59.274 351.537844 78.042221 
Q 356.917949 96.7499 356.917949 137.252932 
Q 356.917949 165.223636 354.11529 183.204802 
Q 351.325142 201.185969 345.694801 209.722483 
Q 348.785233 213.112871 351.225047 225.160858 
Q 353.677374 237.148303 356.179748 261.54699 
L 364.35 341.766 
L 348.322293 341.766 
L 341.203039 271.59707 
Q 339.050997 250.407143 336.836396 242.657684 
Q 334.634307 234.847682 330.955817 234.847682 
L 326.701781 234.847682 
z
" clip-path="url(#p156999e0fe)" style="fill: #bd2e1f"/>
   </g>
   <g id="patch_64">
    <path d="M 373.65 379.566 
L 388.22 379.566 
L 399.988929 381.272482 
L 411.746786 379.566 
L 426.35 379.566 
L 406.665 382.336596 
L 406.665 384.354 
L 393.346071 384.354 
L 393.346071 382.336596 
L 373.65 379.566 
z
" clip-path="url(#p156999e0fe)" style="fill: #177875"/>
   </g>
   <g id="patch_65">
    <path d="M 373.65 374.526 
L 388.813382 374.526 
L 388.813382 376.350489 
L 411.186618 376.350489 
L 411.186618 374.526 
L 426.35 374.526 
L 426.35 379.314 
L 411.186618 379.314 
L 411.186618 377.284282 
L 388.813382 377.284282 
L 388.813382 379.314 
L 373.65 379.314 
L 373.65 374.526 
z
" clip-path="url(#p156999e0fe)" style="fill: #177875"/>
   </g>
   <g id="patch_66">
    <path d="M 373.65 369.486 
L 401.043021 369.486 
Q 413.271068 369.486 419.803672 369.892354 
Q 426.35 370.297682 426.35 371.047795 
Q 426.35 371.802013 419.803672 372.207341 
Q 413.271068 372.612669 401.043021 372.612669 
L 390.159922 372.612669 
L 390.159922 374.274 
L 373.65 374.274 
L 373.65 369.486 
z
M 390.159922 370.3808 
L 390.159922 371.717869 
L 399.286354 371.717869 
Q 404.08974 371.717869 406.711016 371.543424 
Q 409.332292 371.368979 409.332292 371.047795 
Q 409.332292 370.727637 406.711016 370.554219 
Q 404.08974 370.3808 399.286354 370.3808 
L 390.159922 370.3808 
z
" clip-path="url(#p156999e0fe)" style="fill: #787800"/>
   </g>
   <g id="patch_67">
    <path d="M 373.65 359.532 
L 426.35 359.532 
L 426.35 361.399587 
L 407.390256 361.399587 
L 407.390256 369.108 
L 392.646512 369.108 
L 392.646512 361.399587 
L 373.65 361.399587 
L 373.65 359.532 
z
" clip-path="url(#p156999e0fe)" style="fill: #40ba47"/>
   </g>
   <g id="patch_68">
    <path d="M 388.091481 347.33938 
L 388.091481 356.103698 
L 393.265444 356.103698 
Q 402.112802 356.103698 406.782574 354.976989 
Q 411.464351 353.85028 411.464351 351.704608 
Q 411.464351 349.571249 406.806583 348.456854 
Q 402.16082 347.33938 393.265444 347.33938 
L 388.091481 347.33938 
z
M 373.65 344.538 
L 388.871777 344.538 
Q 401.63262 344.538 407.874989 345.005923 
Q 414.117358 345.470767 418.583052 346.588241 
Q 422.520547 347.561028 424.429271 348.832423 
Q 426.35 350.100741 426.35 351.704608 
Q 426.35 353.333102 424.429271 354.607577 
Q 422.520547 355.882051 418.583052 356.851759 
Q 414.081344 357.969233 407.778952 358.437156 
Q 401.47656 358.902 388.871777 358.902 
L 373.65 358.902 
L 373.65 344.538 
z
" clip-path="url(#p156999e0fe)" style="fill: #6b296b"/>
   </g>
   <g id="patch_69">
    <path d="M 373.65 329.418 
L 387.537864 329.418 
L 387.537864 334.660583 
L 407.555783 329.418 
L 423.683253 329.418 
L 397.743078 336.221352 
L 426.35 343.782 
L 408.964195 343.782 
L 387.537864 338.123828 
L 387.537864 343.782 
L 373.65 343.782 
L 373.65 329.418 
z
" clip-path="url(#p156999e0fe)" style="fill: #bd2e1f"/>
   </g>
   <g id="patch_70">
    <path d="M 401.405333 326.51397 
L 400.373292 326.51397 
Q 387.714313 326.51397 380.676667 324.904212 
Q 373.65 323.291926 373.65 320.418621 
Q 373.65 317.550369 380.665687 315.925448 
Q 387.681375 314.298 400 314.298 
Q 412.450375 314.298 419.400188 315.910286 
Q 426.35 317.520044 426.35 320.418621 
Q 426.35 322.407443 422.661 323.84536 
Q 418.972 325.283276 412.044146 326.008552 
L 422.364563 328.662 
L 409.771458 328.662 
L 401.405333 326.51397 
z
M 400 316.501626 
Q 393.961458 316.501626 390.634771 317.527626 
Q 387.308083 318.553626 387.308083 320.418621 
Q 387.308083 322.313941 390.557917 323.322251 
Q 393.818729 324.328034 400 324.328034 
Q 406.071479 324.328034 409.398167 323.302034 
Q 412.724854 322.273507 412.724854 320.418621 
Q 412.724854 318.553626 409.398167 317.527626 
Q 406.071479 316.501626 400 316.501626 
z
" clip-path="url(#p156999e0fe)" style="fill: #40ba47"/>
   </g>
   <g id="patch_71">
    <path d="M 373.65 294.264 
L 386.68762 294.264 
L 400.016162 308.400195 
L 413.323155 294.264 
L 426.35 294.264 
L 407.730985 313.416 
L 392.269015 313.416 
L 373.65 294.264 
z
" clip-path="url(#p156999e0fe)" style="fill: #21599c"/>
   </g>
   <g id="patch_72">
    <path d="M 373.65 274.104 
L 392.774615 274.104 
L 392.774615 289.524931 
L 426.35 289.524931 
L 426.35 293.256 
L 373.65 293.256 
L 373.65 274.104 
z
" clip-path="url(#p156999e0fe)" style="fill: #21599c"/>
   </g>
   <g id="patch_73">
    <path d="M 373.65 253.944 
L 425.253077 253.944 
L 425.253077 257.679174 
L 392.774615 257.679174 
L 392.774615 261.241955 
L 423.329487 261.241955 
L 423.329487 264.977128 
L 392.774615 264.977128 
L 392.774615 269.364931 
L 426.35 269.364931 
L 426.35 273.096 
L 373.65 273.096 
L 373.65 253.944 
z
" clip-path="url(#p156999e0fe)" style="fill: #6b296b"/>
   </g>
   <g id="patch_74">
    <path d="M 421.955948 211.270239 
L 421.955948 220.064888 
Q 416.459804 218.533836 411.221293 217.759408 
Q 405.997094 216.976079 401.34541 216.976079 
Q 395.176562 216.976079 392.213797 218.035353 
Q 389.265345 219.085727 389.265345 221.311093 
Q 389.265345 222.984569 391.254834 223.919223 
Q 393.244324 224.844975 398.482835 225.512585 
L 405.811027 226.429436 
Q 416.946442 227.826967 421.641065 230.666535 
Q 426.35 233.497201 426.35 238.731263 
Q 426.35 245.594294 419.794704 248.950147 
Q 413.239408 252.306 399.770994 252.306 
Q 393.430391 252.306 387.032537 251.549375 
Q 380.634682 250.801652 374.236828 249.324009 
L 374.236828 240.28902 
Q 380.634682 242.398668 386.60315 243.475745 
Q 392.571619 244.543921 398.125014 244.543921 
Q 403.764286 244.543921 406.755676 243.377829 
Q 409.747067 242.202835 409.747067 240.030878 
Q 409.747067 238.090358 407.714639 237.031083 
Q 405.682211 235.971809 399.59924 235.135071 
L 392.929441 234.21822 
Q 382.910429 232.883 378.273058 229.963319 
Q 373.65 227.043638 373.65 222.094422 
Q 373.65 215.8901 380.090793 212.55205 
Q 386.531586 209.214 398.611651 209.214 
Q 404.122108 209.214 409.933134 209.730285 
Q 415.744161 210.24657 421.955948 211.270239 
z
" clip-path="url(#p156999e0fe)" style="fill: #40ba47"/>
   </g>
   <g id="patch_75">
    <path d="M 426.35 199.691929 
Q 421.035119 202.940965 415.318669 204.5729 
Q 409.602219 206.19 403.507822 206.19 
Q 389.736374 206.19 381.693187 196.517073 
Q 373.65 186.844146 373.65 170.302254 
Q 373.65 153.567496 381.834917 143.968748 
Q 390.031645 134.37 404.287338 134.37 
Q 409.779381 134.37 414.810802 135.675548 
Q 419.854034 136.966261 424.318534 139.518015 
L 424.318534 153.83454 
Q 419.712304 150.555834 415.153317 148.938734 
Q 410.59433 147.306798 406.011721 147.306798 
Q 397.531533 147.306798 392.937113 153.270781 
Q 388.342694 159.219928 388.342694 170.302254 
Q 388.342694 181.280729 392.771762 187.274383 
Q 397.200829 193.253202 405.350314 193.253202 
Q 407.570753 193.253202 409.472299 192.911979 
Q 411.373846 192.55592 412.885634 191.814131 
L 412.885634 178.372917 
L 404.204662 178.372917 
L 404.204662 166.400444 
L 426.35 166.400444 
L 426.35 199.691929 
z
" clip-path="url(#p156999e0fe)" style="fill: #787800"/>
   </g>
   <g id="patch_76">
    <path d="M 410.155336 116.508406 
L 389.887763 116.508406 
L 386.68762 130.464 
L 373.65 130.464 
L 392.269015 53.856 
L 407.730985 53.856 
L 426.35 130.464 
L 413.323155 130.464 
L 410.155336 116.508406 
z
M 393.120231 102.290119 
L 406.890544 102.290119 
L 400.016162 71.81767 
L 393.120231 102.290119 
z
" clip-path="url(#p156999e0fe)" style="fill: #21599c"/>
   </g>
   <g id="patch_77">
    <path d="M 435.65 379.566 
L 487.253077 379.566 
L 487.253077 380.499793 
L 454.774615 380.499793 
L 454.774615 381.390489 
L 485.329487 381.390489 
L 485.329487 382.324282 
L 454.774615 382.324282 
L 454.774615 383.421233 
L 488.35 383.421233 
L 488.35 384.354 
L 435.65 384.354 
L 435.65 379.566 
z
" clip-path="url(#p156999e0fe)" style="fill: #6b296b"/>
   </g>
   <g id="patch_78">
    <path d="M 435.65 374.526 
L 450.813382 374.526 
L 450.813382 376.350489 
L 473.186618 376.350489 
L 473.186618 374.526 
L 488.35 374.526 
L 488.35 379.314 
L 473.186618 379.314 
L 473.186618 377.284282 
L 450.813382 377.284282 
L 450.813382 379.314 
L 435.65 379.314 
L 435.65 374.526 
z
" clip-path="url(#p156999e0fe)" style="fill: #177875"/>
   </g>
   <g id="patch_79">
    <path d="M 435.65 369.486 
L 451.195992 369.486 
L 461.979692 372.048288 
L 472.83447 369.486 
L 488.35 369.486 
L 488.35 374.274 
L 476.80474 374.274 
L 476.80474 370.771762 
L 465.889037 373.353547 
L 458.141426 373.353547 
L 447.225723 370.771762 
L 447.225723 374.274 
L 435.65 374.274 
L 435.65 369.486 
z
" clip-path="url(#p156999e0fe)" style="fill: #21599c"/>
   </g>
   <g id="patch_80">
    <path d="M 457.032787 366.569097 
Q 461.762274 366.569097 463.814221 366.425437 
Q 465.866168 366.28075 465.866168 365.950331 
Q 465.866168 365.62299 463.814221 365.482408 
Q 461.762274 365.3408 457.032787 365.3408 
L 450.701781 365.3408 
L 450.701781 366.569097 
L 457.032787 366.569097 
z
M 450.701781 367.421825 
L 450.701781 369.234 
L 435.65 369.234 
L 435.65 364.446 
L 458.634307 364.446 
Q 470.170252 364.446 475.537844 364.764105 
Q 480.917949 365.081185 480.917949 365.767677 
Q 480.917949 366.241757 478.11529 366.546522 
Q 475.325142 366.851288 469.694801 366.995974 
Q 472.785233 367.053438 475.225047 367.257642 
Q 477.677374 367.460819 480.179748 367.874356 
L 488.35 369.234 
L 472.322293 369.234 
L 465.203039 368.044696 
Q 463.050997 367.685545 460.836396 367.554198 
Q 458.634307 367.421825 454.955817 367.421825 
L 450.701781 367.421825 
z
" clip-path="url(#p156999e0fe)" style="fill: #bd2e1f"/>
   </g>
   <g id="patch_81">
    <path d="M 483.955948 359.634471 
L 483.955948 360.611654 
Q 478.459804 360.441537 473.221293 360.35549 
Q 467.997094 360.268453 463.34541 360.268453 
Q 457.176562 360.268453 454.213797 360.38615 
Q 451.265345 360.502859 451.265345 360.750121 
Q 451.265345 360.936063 453.254834 361.039914 
Q 455.244324 361.142775 460.482835 361.216954 
L 467.811027 361.318826 
Q 478.946442 361.474107 483.641065 361.789615 
Q 488.35 362.104133 488.35 362.685696 
Q 488.35 363.448255 481.794704 363.821127 
Q 475.239408 364.194 461.770994 364.194 
Q 455.430391 364.194 449.032537 364.109931 
Q 442.634682 364.02685 436.236828 363.862668 
L 436.236828 362.85878 
Q 442.634682 363.093185 448.60315 363.212861 
Q 454.571619 363.331547 460.125014 363.331547 
Q 465.764286 363.331547 468.755676 363.201981 
Q 471.747067 363.071426 471.747067 362.830098 
Q 471.747067 362.614484 469.714639 362.496787 
Q 467.682211 362.37909 461.59924 362.286119 
L 454.929441 362.184247 
Q 444.910429 362.035889 440.273058 361.71148 
Q 435.65 361.387071 435.65 360.837158 
Q 435.65 360.147789 442.090793 359.776894 
Q 448.531586 359.406 460.611651 359.406 
Q 466.122108 359.406 471.933134 359.463365 
Q 477.744161 359.52073 483.955948 359.634471 
z
" clip-path="url(#p156999e0fe)" style="fill: #40ba47"/>
   </g>
   <g id="patch_82">
    <path d="M 436.198462 349.452 
L 487.801538 349.452 
L 487.801538 351.319587 
L 455.323077 351.319587 
L 455.323077 353.100977 
L 485.877949 353.100977 
L 485.877949 354.968564 
L 455.323077 354.968564 
L 455.323077 359.028 
L 436.198462 359.028 
L 436.198462 349.452 
z
" clip-path="url(#p156999e0fe)" style="fill: #21599c"/>
   </g>
   <g id="patch_83">
    <path d="M 452.437692 339.372 
L 471.562308 339.372 
L 471.562308 348.948 
L 452.437692 348.948 
L 452.437692 339.372 
z
" clip-path="url(#p156999e0fe)" style="fill: #21599c"/>
   </g>
   <g id="patch_84">
    <path d="M 435.65 329.292 
L 449.537864 329.292 
L 449.537864 332.787055 
L 469.555783 329.292 
L 485.683253 329.292 
L 459.743078 333.827568 
L 488.35 338.868 
L 470.964195 338.868 
L 449.537864 335.095885 
L 449.537864 338.868 
L 435.65 338.868 
L 435.65 329.292 
z
" clip-path="url(#p156999e0fe)" style="fill: #bd2e1f"/>
   </g>
   <g id="patch_85">
    <path d="M 450.091481 317.09938 
L 450.091481 325.863698 
L 455.265444 325.863698 
Q 464.112802 325.863698 468.782574 324.736989 
Q 473.464351 323.61028 473.464351 321.464608 
Q 473.464351 319.331249 468.806583 318.216854 
Q 464.16082 317.09938 455.265444 317.09938 
L 450.091481 317.09938 
z
M 435.65 314.298 
L 450.871777 314.298 
Q 463.63262 314.298 469.874989 314.765923 
Q 476.117358 315.230767 480.583052 316.348241 
Q 484.520547 317.321028 486.429271 318.592423 
Q 488.35 319.860741 488.35 321.464608 
Q 488.35 323.093102 486.429271 324.367577 
Q 484.520547 325.642051 480.583052 326.611759 
Q 476.081344 327.729233 469.778952 328.197156 
Q 463.47656 328.662 450.871777 328.662 
L 435.65 328.662 
L 435.65 314.298 
z
" clip-path="url(#p156999e0fe)" style="fill: #6b296b"/>
   </g>
   <g id="patch_86">
    <path d="M 435.65 299.178 
L 448.68762 299.178 
L 462.016162 309.780147 
L 475.323155 299.178 
L 488.35 299.178 
L 469.730985 313.542 
L 454.269015 313.542 
L 435.65 299.178 
z
" clip-path="url(#p156999e0fe)" style="fill: #21599c"/>
   </g>
   <g id="patch_87">
    <path d="M 435.65 279.144 
L 452.578032 279.144 
L 473.968106 292.278676 
L 473.968106 279.144 
L 488.35 279.144 
L 488.35 298.296 
L 471.409364 298.296 
L 450.01929 285.161324 
L 450.01929 298.296 
L 435.65 298.296 
L 435.65 279.144 
z
" clip-path="url(#p156999e0fe)" style="fill: #40ba47"/>
   </g>
   <g id="patch_88">
    <path d="M 435.65 258.984 
L 488.35 258.984 
L 488.35 262.719174 
L 469.390256 262.719174 
L 469.390256 278.136 
L 454.646512 278.136 
L 454.646512 262.719174 
L 435.65 262.719174 
L 435.65 258.984 
z
" clip-path="url(#p156999e0fe)" style="fill: #40ba47"/>
   </g>
   <g id="patch_89">
    <path d="M 463.405333 255.111961 
L 462.373292 255.111961 
Q 449.714313 255.111961 442.676667 252.965616 
Q 435.65 250.815901 435.65 246.984828 
Q 435.65 243.160493 442.665687 240.993931 
Q 449.681375 238.824 462 238.824 
Q 474.450375 238.824 481.400187 240.973714 
Q 488.35 243.120059 488.35 246.984828 
Q 488.35 249.636591 484.661 251.553813 
Q 480.972 253.471034 474.044146 254.438069 
L 484.364562 257.976 
L 471.771458 257.976 
L 463.405333 255.111961 
z
M 462 241.762167 
Q 455.961458 241.762167 452.634771 243.130167 
Q 449.308083 244.498167 449.308083 246.984828 
Q 449.308083 249.511921 452.557917 250.856335 
Q 455.818729 252.197379 462 252.197379 
Q 468.071479 252.197379 471.398167 250.829379 
Q 474.724854 249.45801 474.724854 246.984828 
Q 474.724854 244.498167 471.398167 243.130167 
Q 468.071479 241.762167 462 241.762167 
z
" clip-path="url(#p156999e0fe)" style="fill: #40ba47"/>
   </g>
   <g id="patch_90">
    <path d="M 435.65 203.922 
L 454.774615 203.922 
L 454.774615 230.908629 
L 488.35 230.908629 
L 488.35 237.438 
L 435.65 237.438 
L 435.65 203.922 
z
" clip-path="url(#p156999e0fe)" style="fill: #21599c"/>
   </g>
   <g id="patch_91">
    <path d="M 435.65 158.814 
L 463.043021 158.814 
Q 475.271068 158.814 481.803672 162.471186 
Q 488.35 166.119138 488.35 172.870156 
Q 488.35 179.658116 481.803672 183.306067 
Q 475.271068 186.954018 463.043021 186.954018 
L 452.159922 186.954018 
L 452.159922 201.906 
L 435.65 201.906 
L 435.65 158.814 
z
M 452.159922 166.867198 
L 452.159922 178.90082 
L 461.286354 178.90082 
Q 466.08974 178.90082 468.711016 177.330815 
Q 471.332292 175.760811 471.332292 172.870156 
Q 471.332292 169.988736 468.711016 168.427967 
Q 466.08974 166.867198 461.286354 166.867198 
L 452.159922 166.867198 
z
" clip-path="url(#p156999e0fe)" style="fill: #787800"/>
   </g>
   <g id="patch_92">
    <path d="M 472.155336 147.697754 
L 451.887763 147.697754 
L 448.68762 156.42 
L 435.65 156.42 
L 454.269015 108.54 
L 469.730985 108.54 
L 488.35 156.42 
L 475.323155 156.42 
L 472.155336 147.697754 
z
M 455.120231 138.811324 
L 468.890544 138.811324 
L 462.016162 119.766044 
L 455.120231 138.811324 
z
" clip-path="url(#p156999e0fe)" style="fill: #21599c"/>
   </g>
   <g id="patch_93">
    <path d="M 488.35 101.128748 
Q 483.035119 103.511374 477.318669 104.708127 
Q 471.602219 105.894 465.507822 105.894 
Q 451.736374 105.894 443.693187 98.80052 
Q 435.65 91.70704 435.65 79.576319 
Q 435.65 67.304164 443.834917 60.265082 
Q 452.031645 53.226 466.287338 53.226 
Q 471.779381 53.226 476.810802 54.183402 
Q 481.854034 55.129925 486.318534 57.001211 
L 486.318534 67.499996 
Q 481.712304 65.095611 477.153317 63.909738 
Q 472.59433 62.712985 468.011721 62.712985 
Q 459.531533 62.712985 454.937113 67.086573 
Q 450.342694 71.44928 450.342694 79.576319 
Q 450.342694 87.627201 454.771762 92.022548 
Q 459.200829 96.407015 467.350314 96.407015 
Q 469.570753 96.407015 471.472299 96.156785 
Q 473.373846 95.895675 474.885634 95.351696 
L 474.885634 85.494806 
L 466.204662 85.494806 
L 466.204662 76.714992 
L 488.35 76.714992 
L 488.35 101.128748 
z
" clip-path="url(#p156999e0fe)" style="fill: #787800"/>
   </g>
   <g id="patch_94">
    <path d="M 512.091481 380.499793 
L 512.091481 383.421233 
L 517.265444 383.421233 
Q 526.112802 383.421233 530.782574 383.045663 
Q 535.464351 382.670093 535.464351 381.954869 
Q 535.464351 381.24375 530.806583 380.872285 
Q 526.16082 380.499793 517.265444 380.499793 
L 512.091481 380.499793 
z
M 497.65 379.566 
L 512.871777 379.566 
Q 525.63262 379.566 531.874989 379.721974 
Q 538.117358 379.876922 542.583052 380.249414 
Q 546.520547 380.573676 548.429271 380.997474 
Q 550.35 381.420247 550.35 381.954869 
Q 550.35 382.497701 548.429271 382.922526 
Q 546.520547 383.34735 542.583052 383.670586 
Q 538.081344 384.043078 531.778952 384.199052 
Q 525.47656 384.354 512.871777 384.354 
L 497.65 384.354 
L 497.65 379.566 
z
" clip-path="url(#p156999e0fe)" style="fill: #6b296b"/>
   </g>
   <g id="patch_95">
    <path d="M 498.198462 374.526 
L 549.801538 374.526 
L 549.801538 375.459793 
L 517.323077 375.459793 
L 517.323077 376.350489 
L 547.877949 376.350489 
L 547.877949 377.284282 
L 517.323077 377.284282 
L 517.323077 379.314 
L 498.198462 379.314 
L 498.198462 374.526 
z
" clip-path="url(#p156999e0fe)" style="fill: #21599c"/>
   </g>
   <g id="patch_96">
    <path d="M 497.65 369.486 
L 513.195992 369.486 
L 523.979692 372.048288 
L 534.83447 369.486 
L 550.35 369.486 
L 550.35 374.274 
L 538.80474 374.274 
L 538.80474 370.771762 
L 527.889037 373.353547 
L 520.141426 373.353547 
L 509.225723 370.771762 
L 509.225723 374.274 
L 497.65 374.274 
L 497.65 369.486 
z
" clip-path="url(#p156999e0fe)" style="fill: #21599c"/>
   </g>
   <g id="patch_97">
    <path d="M 497.65 364.446 
L 514.578032 364.446 
L 535.968106 367.729669 
L 535.968106 364.446 
L 550.35 364.446 
L 550.35 369.234 
L 533.409364 369.234 
L 512.01929 365.950331 
L 512.01929 369.234 
L 497.65 369.234 
L 497.65 364.446 
z
" clip-path="url(#p156999e0fe)" style="fill: #40ba47"/>
   </g>
   <g id="patch_98">
    <path d="M 519.032787 361.529097 
Q 523.762274 361.529097 525.814221 361.385437 
Q 527.866168 361.24075 527.866168 360.910331 
Q 527.866168 360.58299 525.814221 360.442408 
Q 523.762274 360.3008 519.032787 360.3008 
L 512.701781 360.3008 
L 512.701781 361.529097 
L 519.032787 361.529097 
z
M 512.701781 362.381825 
L 512.701781 364.194 
L 497.65 364.194 
L 497.65 359.406 
L 520.634307 359.406 
Q 532.170252 359.406 537.537844 359.724105 
Q 542.917949 360.041185 542.917949 360.727677 
Q 542.917949 361.201757 540.11529 361.506522 
Q 537.325142 361.811288 531.694801 361.955974 
Q 534.785233 362.013438 537.225047 362.217642 
Q 539.677374 362.420819 542.179748 362.834356 
L 550.35 364.194 
L 534.322293 364.194 
L 527.203039 363.004696 
Q 525.050997 362.645545 522.836396 362.514198 
Q 520.634307 362.381825 516.955817 362.381825 
L 512.701781 362.381825 
z
" clip-path="url(#p156999e0fe)" style="fill: #bd2e1f"/>
   </g>
   <g id="patch_99">
    <path d="M 525.405333 357.59598 
L 524.373292 357.59598 
Q 511.714313 357.59598 504.676667 356.522808 
Q 497.65 355.447951 497.65 353.532414 
Q 497.65 351.620246 504.665687 350.536966 
Q 511.681375 349.452 524 349.452 
Q 536.450375 349.452 543.400187 350.526857 
Q 550.35 351.60003 550.35 353.532414 
Q 550.35 354.858296 546.661 355.816906 
Q 542.972 356.775517 536.044146 357.259034 
L 546.364562 359.028 
L 533.771458 359.028 
L 525.405333 357.59598 
z
M 524 350.921084 
Q 517.961458 350.921084 514.634771 351.605084 
Q 511.308083 352.289084 511.308083 353.532414 
Q 511.308083 354.795961 514.557917 355.468167 
Q 517.818729 356.13869 524 356.13869 
Q 530.071479 356.13869 533.398167 355.45469 
Q 536.724854 354.769005 536.724854 353.532414 
Q 536.724854 352.289084 533.398167 351.605084 
Q 530.071479 350.921084 524 350.921084 
z
" clip-path="url(#p156999e0fe)" style="fill: #40ba47"/>
   </g>
   <g id="patch_100">
    <path d="M 497.65 334.458 
L 510.68762 334.458 
L 524.016162 345.060147 
L 537.323155 334.458 
L 550.35 334.458 
L 531.730985 348.822 
L 516.269015 348.822 
L 497.65 334.458 
z
" clip-path="url(#p156999e0fe)" style="fill: #21599c"/>
   </g>
   <g id="patch_101">
    <path d="M 514.437692 319.338 
L 533.562308 319.338 
L 533.562308 333.702 
L 514.437692 333.702 
L 514.437692 319.338 
z
" clip-path="url(#p156999e0fe)" style="fill: #21599c"/>
   </g>
   <g id="patch_102">
    <path d="M 497.65 299.304 
L 550.35 299.304 
L 550.35 303.039174 
L 531.390256 303.039174 
L 531.390256 318.456 
L 516.646512 318.456 
L 516.646512 303.039174 
L 497.65 303.039174 
L 497.65 299.304 
z
" clip-path="url(#p156999e0fe)" style="fill: #40ba47"/>
   </g>
   <g id="patch_103">
    <path d="M 550.35 296.003976 
Q 545.035119 297.086988 539.318669 297.630967 
Q 533.602219 298.17 527.507822 298.17 
Q 513.736374 298.17 505.693187 294.945691 
Q 497.65 291.721382 497.65 286.207418 
Q 497.65 280.629165 505.834917 277.429583 
Q 514.031645 274.23 528.287338 274.23 
Q 533.779381 274.23 538.810802 274.665183 
Q 543.854034 275.09542 548.318534 275.946005 
L 548.318534 280.71818 
Q 543.712304 279.625278 539.153317 279.086245 
Q 534.59433 278.542266 530.011721 278.542266 
Q 521.531533 278.542266 516.937113 280.53026 
Q 512.342694 282.513309 512.342694 286.207418 
Q 512.342694 289.86691 516.771762 291.864794 
Q 521.200829 293.857734 529.350314 293.857734 
Q 531.570753 293.857734 533.472299 293.743993 
Q 535.373846 293.625307 536.885634 293.378044 
L 536.885634 288.897639 
L 528.204662 288.897639 
L 528.204662 284.906815 
L 550.35 284.906815 
L 550.35 296.003976 
z
" clip-path="url(#p156999e0fe)" style="fill: #787800"/>
   </g>
   <g id="patch_104">
    <path d="M 534.155336 267.610652 
L 513.887763 267.610652 
L 510.68762 272.844 
L 497.65 272.844 
L 516.269015 244.116 
L 531.730985 244.116 
L 550.35 272.844 
L 537.323155 272.844 
L 534.155336 267.610652 
z
M 517.120231 262.278795 
L 530.890544 262.278795 
L 524.016162 250.851626 
L 517.120231 262.278795 
z
" clip-path="url(#p156999e0fe)" style="fill: #21599c"/>
   </g>
   <g id="patch_105">
    <path d="M 497.65 213.876 
L 516.774615 213.876 
L 516.774615 237.007396 
L 550.35 237.007396 
L 550.35 242.604 
L 497.65 242.604 
L 497.65 213.876 
z
" clip-path="url(#p156999e0fe)" style="fill: #21599c"/>
   </g>
   <g id="patch_106">
    <path d="M 497.65 178.722 
L 511.537864 178.722 
L 511.537864 190.954694 
L 531.555783 178.722 
L 547.683253 178.722 
L 521.743078 194.596488 
L 550.35 212.238 
L 532.964195 212.238 
L 511.537864 199.035598 
L 511.537864 212.238 
L 497.65 212.238 
L 497.65 178.722 
z
" clip-path="url(#p156999e0fe)" style="fill: #bd2e1f"/>
   </g>
   <g id="patch_107">
    <path d="M 497.65 138.528 
L 549.253077 138.528 
L 549.253077 145.998347 
L 516.774615 145.998347 
L 516.774615 153.123909 
L 547.329487 153.123909 
L 547.329487 160.594256 
L 516.774615 160.594256 
L 516.774615 169.369862 
L 550.35 169.369862 
L 550.35 176.832 
L 497.65 176.832 
L 497.65 138.528 
z
" clip-path="url(#p156999e0fe)" style="fill: #6b296b"/>
   </g>
   <g id="patch_108">
    <path d="M 497.65 98.208 
L 525.043021 98.208 
Q 537.271068 98.208 543.803672 101.458832 
Q 550.35 104.701456 550.35 110.702361 
Q 550.35 116.736103 543.803672 119.978726 
Q 537.271068 123.221349 525.043021 123.221349 
L 514.159922 123.221349 
L 514.159922 136.512 
L 497.65 136.512 
L 497.65 98.208 
z
M 514.159922 105.366399 
L 514.159922 116.062951 
L 523.286354 116.062951 
Q 528.08974 116.062951 530.711016 114.667391 
Q 533.332292 113.271832 533.332292 110.702361 
Q 533.332292 108.141099 530.711016 106.753749 
Q 528.08974 105.366399 523.286354 105.366399 
L 514.159922 105.366399 
z
" clip-path="url(#p156999e0fe)" style="fill: #787800"/>
   </g>
   <g id="patch_109">
    <path d="M 545.955948 55.030239 
L 545.955948 63.824888 
Q 540.459804 62.293836 535.221293 61.519408 
Q 529.997094 60.736079 525.34541 60.736079 
Q 519.176562 60.736079 516.213797 61.795353 
Q 513.265345 62.845727 513.265345 65.071093 
Q 513.265345 66.744569 515.254834 67.679223 
Q 517.244324 68.604975 522.482835 69.272585 
L 529.811027 70.189436 
Q 540.946442 71.586967 545.641065 74.426535 
Q 550.35 77.257201 550.35 82.491263 
Q 550.35 89.354294 543.794704 92.710147 
Q 537.239408 96.066 523.770994 96.066 
Q 517.430391 96.066 511.032537 95.309375 
Q 504.634682 94.561652 498.236828 93.084009 
L 498.236828 84.04902 
Q 504.634682 86.158668 510.60315 87.235745 
Q 516.571619 88.303921 522.125014 88.303921 
Q 527.764286 88.303921 530.755676 87.137829 
Q 533.747067 85.962835 533.747067 83.790878 
Q 533.747067 81.850358 531.714639 80.791083 
Q 529.682211 79.731809 523.59924 78.895071 
L 516.929441 77.97822 
Q 506.910429 76.643 502.273058 73.723319 
Q 497.65 70.803638 497.65 65.854422 
Q 497.65 59.6501 504.090793 56.31205 
Q 510.531586 52.974 522.611651 52.974 
Q 528.122108 52.974 533.933134 53.490285 
Q 539.744161 54.00657 545.955948 55.030239 
z
" clip-path="url(#p156999e0fe)" style="fill: #40ba47"/>
   </g>
   <g id="patch_110">
    <path d="M 559.65 374.652 
L 574.22 374.652 
L 585.988929 378.064964 
L 597.746786 374.652 
L 612.35 374.652 
L 592.665 380.193192 
L 592.665 384.228 
L 579.346071 384.228 
L 579.346071 380.193192 
L 559.65 374.652 
z
" clip-path="url(#p156999e0fe)" style="fill: #177875"/>
   </g>
   <g id="patch_111">
    <path d="M 560.198462 364.572 
L 611.801538 364.572 
L 611.801538 366.439587 
L 579.323077 366.439587 
L 579.323077 368.220977 
L 609.877949 368.220977 
L 609.877949 370.088564 
L 579.323077 370.088564 
L 579.323077 374.148 
L 560.198462 374.148 
L 560.198462 364.572 
z
" clip-path="url(#p156999e0fe)" style="fill: #21599c"/>
   </g>
   <g id="patch_112">
    <path d="M 559.65 354.492 
L 568.762642 354.492 
L 575.132798 361.451326 
L 581.455534 354.492 
L 590.615597 354.492 
L 596.938332 361.451326 
L 603.316392 354.492 
L 612.35 354.492 
L 603.656239 364.068 
L 592.694196 364.068 
L 586 356.788516 
L 579.384838 364.068 
L 568.414892 364.068 
L 559.65 354.492 
z
" clip-path="url(#p156999e0fe)" style="fill: #21599c"/>
   </g>
   <g id="patch_113">
    <path d="M 559.65 339.498 
L 576.578032 339.498 
L 597.968106 349.349007 
L 597.968106 339.498 
L 612.35 339.498 
L 612.35 353.862 
L 595.409364 353.862 
L 574.01929 344.010993 
L 574.01929 353.862 
L 559.65 353.862 
L 559.65 339.498 
z
" clip-path="url(#p156999e0fe)" style="fill: #40ba47"/>
   </g>
   <g id="patch_114">
    <path d="M 559.65 324.378 
L 573.537864 324.378 
L 573.537864 329.620583 
L 593.555783 324.378 
L 609.683253 324.378 
L 583.743078 331.181352 
L 612.35 338.742 
L 594.964195 338.742 
L 573.537864 333.083828 
L 573.537864 338.742 
L 559.65 338.742 
L 559.65 324.378 
z
" clip-path="url(#p156999e0fe)" style="fill: #bd2e1f"/>
   </g>
   <g id="patch_115">
    <path d="M 607.955948 305.257884 
L 607.955948 309.166617 
Q 602.459804 308.486149 597.221293 308.141959 
Q 591.997094 307.793813 587.34541 307.793813 
Q 581.176562 307.793813 578.213797 308.264602 
Q 575.265345 308.731434 575.265345 309.720486 
Q 575.265345 310.464253 577.254834 310.879655 
Q 579.244324 311.2911 584.482835 311.587816 
L 591.811027 311.995305 
Q 602.946442 312.61643 607.641065 313.87846 
Q 612.35 315.136534 612.35 317.462784 
Q 612.35 320.51302 605.794704 322.00451 
Q 599.239408 323.496 585.770994 323.496 
Q 579.430391 323.496 573.032537 323.159722 
Q 566.634682 322.827401 560.236828 322.170671 
L 560.236828 318.15512 
Q 566.634682 319.092741 572.60315 319.571442 
Q 578.571619 320.046187 584.125014 320.046187 
Q 589.764286 320.046187 592.755676 319.527924 
Q 595.747067 319.005705 595.747067 318.04039 
Q 595.747067 317.177937 593.714639 316.707148 
Q 591.682211 316.236359 585.59924 315.864476 
L 578.929441 315.456987 
Q 568.910429 314.863555 564.273058 313.565919 
Q 559.65 312.268283 559.65 310.068632 
Q 559.65 307.311156 566.090793 305.827578 
Q 572.531586 304.344 584.611651 304.344 
Q 590.122108 304.344 595.933134 304.57346 
Q 601.744161 304.80292 607.955948 305.257884 
z
" clip-path="url(#p156999e0fe)" style="fill: #40ba47"/>
   </g>
   <g id="patch_116">
    <path d="M 559.65 284.184 
L 578.774615 284.184 
L 578.774615 299.604931 
L 612.35 299.604931 
L 612.35 303.336 
L 559.65 303.336 
L 559.65 284.184 
z
" clip-path="url(#p156999e0fe)" style="fill: #21599c"/>
   </g>
   <g id="patch_117">
    <path d="M 559.65 264.024 
L 611.253077 264.024 
L 611.253077 267.759174 
L 578.774615 267.759174 
L 578.774615 271.321955 
L 609.329487 271.321955 
L 609.329487 275.057128 
L 578.774615 275.057128 
L 578.774615 279.444931 
L 612.35 279.444931 
L 612.35 283.176 
L 559.65 283.176 
L 559.65 264.024 
z
" clip-path="url(#p156999e0fe)" style="fill: #6b296b"/>
   </g>
   <g id="patch_118">
    <path d="M 574.091481 247.599174 
L 574.091481 259.284931 
L 579.265444 259.284931 
Q 588.112802 259.284931 592.782574 257.782652 
Q 597.464351 256.280374 597.464351 253.419477 
Q 597.464351 250.574999 592.806583 249.089138 
Q 588.16082 247.599174 579.265444 247.599174 
L 574.091481 247.599174 
z
M 559.65 243.864 
L 574.871777 243.864 
Q 587.63262 243.864 593.874989 244.487897 
Q 600.117358 245.10769 604.583052 246.597655 
Q 608.520547 247.894704 610.429271 249.589898 
Q 612.35 251.280988 612.35 253.419477 
Q 612.35 255.590803 610.429271 257.290102 
Q 608.520547 258.989401 604.583052 260.282345 
Q 600.081344 261.77231 593.778952 262.396207 
Q 587.47656 263.016 574.871777 263.016 
L 559.65 263.016 
L 559.65 243.864 
z
" clip-path="url(#p156999e0fe)" style="fill: #6b296b"/>
   </g>
   <g id="patch_119">
    <path d="M 559.65 218.79 
L 572.68762 218.79 
L 586.016162 236.460244 
L 599.323155 218.79 
L 612.35 218.79 
L 593.730985 242.73 
L 578.269015 242.73 
L 559.65 218.79 
z
" clip-path="url(#p156999e0fe)" style="fill: #21599c"/>
   </g>
   <g id="patch_120">
    <path d="M 576.437692 193.59 
L 595.562308 193.59 
L 595.562308 217.53 
L 576.437692 217.53 
L 576.437692 193.59 
z
" clip-path="url(#p156999e0fe)" style="fill: #21599c"/>
   </g>
   <g id="patch_121">
    <path d="M 596.155336 187.968877 
L 575.887763 187.968877 
L 572.68762 192.33 
L 559.65 192.33 
L 578.269015 168.39 
L 593.730985 168.39 
L 612.35 192.33 
L 599.323155 192.33 
L 596.155336 187.968877 
z
M 579.120231 183.525662 
L 592.890544 183.525662 
L 586.016162 174.003022 
L 579.120231 183.525662 
z
" clip-path="url(#p156999e0fe)" style="fill: #21599c"/>
   </g>
   <g id="patch_122">
    <path d="M 559.65 138.276 
L 587.043021 138.276 
Q 599.271068 138.276 605.803672 140.714124 
Q 612.35 143.146092 612.35 147.646771 
Q 612.35 152.172077 605.803672 154.604045 
Q 599.271068 157.036012 587.043021 157.036012 
L 576.159922 157.036012 
L 576.159922 167.004 
L 559.65 167.004 
L 559.65 138.276 
z
M 576.159922 143.644799 
L 576.159922 151.667213 
L 585.286354 151.667213 
Q 590.08974 151.667213 592.711016 150.620544 
Q 595.332292 149.573874 595.332292 147.646771 
Q 595.332292 145.725824 592.711016 144.685312 
Q 590.08974 143.644799 585.286354 143.644799 
L 576.159922 143.644799 
z
" clip-path="url(#p156999e0fe)" style="fill: #787800"/>
   </g>
   <g id="patch_123">
    <path d="M 612.35 133.046362 
Q 607.035119 134.779181 601.318669 135.649547 
Q 595.602219 136.512 589.507822 136.512 
Q 575.736374 136.512 567.693187 131.353106 
Q 559.65 126.194211 559.65 117.371869 
Q 559.65 108.446665 567.834917 103.327332 
Q 576.031645 98.208 590.287338 98.208 
Q 595.779381 98.208 600.810802 98.904293 
Q 605.854034 99.592673 610.318534 100.953608 
L 610.318534 108.589088 
Q 605.712304 106.840445 601.153317 105.977991 
Q 596.59433 105.107626 592.011721 105.107626 
Q 583.531533 105.107626 578.937113 108.288416 
Q 574.342694 111.461295 574.342694 117.371869 
Q 574.342694 123.227056 578.771762 126.423671 
Q 583.200829 129.612374 591.350314 129.612374 
Q 593.570753 129.612374 595.472299 129.430389 
Q 597.373846 129.240491 598.885634 128.84487 
L 598.885634 121.676222 
L 590.204662 121.676222 
L 590.204662 115.290904 
L 612.35 115.290904 
L 612.35 133.046362 
z
" clip-path="url(#p156999e0fe)" style="fill: #787800"/>
   </g>
   <g id="patch_124">
    <path d="M 587.405333 89.621911 
L 586.373292 89.621911 
Q 573.714313 89.621911 566.676667 84.792635 
Q 559.65 79.955778 559.65 71.335862 
Q 559.65 62.731108 566.665687 57.856345 
Q 573.681375 52.974 586 52.974 
Q 598.450375 52.974 605.400187 57.810857 
Q 612.35 62.640133 612.35 71.335862 
Q 612.35 77.30233 608.661 81.616079 
Q 604.972 85.929828 598.044146 88.105655 
L 608.364562 96.066 
L 595.771458 96.066 
L 587.405333 89.621911 
z
M 586 59.584877 
Q 579.961458 59.584877 576.634771 62.662877 
Q 573.308083 65.740877 573.308083 71.335862 
Q 573.308083 77.021823 576.557917 80.046754 
Q 579.818729 83.064103 586 83.064103 
Q 592.071479 83.064103 595.398167 79.986103 
Q 598.724854 76.900522 598.724854 71.335862 
Q 598.724854 65.740877 595.398167 62.662877 
Q 592.071479 59.584877 586 59.584877 
z
" clip-path="url(#p156999e0fe)" style="fill: #40ba47"/>
   </g>
   <g id="matplotlib.axis_1">
    <g id="xtick_1">
     <g id="line2d_2">
      <defs>
       <path id="me54889d07a" d="M 0 0 
L 0 4.8 
" style="stroke: #262626"/>
      </defs>
      <g>
       <use xlink:href="#me54889d07a" x="152" y="384.48" style="fill: #262626; stroke: #262626"/>
      </g>
     </g>
     <g id="text_1">
      <!-- P4 -->
      <g style="fill: #262626" transform="translate(146.61825 399.078875) scale(0.088 -0.088)">
       <defs>
        <path id="ArialMT-50" d="M 494 0 
L 494 4581 
L 2222 4581 
Q 2678 4581 2919 4538 
Q 3256 4481 3484 4323 
Q 3713 4166 3852 3881 
Q 3991 3597 3991 3256 
Q 3991 2672 3619 2267 
Q 3247 1863 2275 1863 
L 1100 1863 
L 1100 0 
L 494 0 
z
M 1100 2403 
L 2284 2403 
Q 2872 2403 3119 2622 
Q 3366 2841 3366 3238 
Q 3366 3525 3220 3729 
Q 3075 3934 2838 4000 
Q 2684 4041 2272 4041 
L 1100 4041 
L 1100 2403 
z
" transform="scale(0.015625)"/>
        <path id="ArialMT-34" d="M 2069 0 
L 2069 1097 
L 81 1097 
L 81 1613 
L 2172 4581 
L 2631 4581 
L 2631 1613 
L 3250 1613 
L 3250 1097 
L 2631 1097 
L 2631 0 
L 2069 0 
z
M 2069 1613 
L 2069 3678 
L 634 1613 
L 2069 1613 
z
" transform="scale(0.015625)"/>
       </defs>
       <use xlink:href="#ArialMT-50"/>
       <use xlink:href="#ArialMT-34" x="66.699219"/>
      </g>
     </g>
    </g>
    <g id="xtick_2">
     <g id="line2d_3">
      <g>
       <use xlink:href="#me54889d07a" x="214" y="384.48" style="fill: #262626; stroke: #262626"/>
      </g>
     </g>
     <g id="text_2">
      <!-- P3 -->
      <g style="fill: #262626" transform="translate(208.61825 399.078875) scale(0.088 -0.088)">
       <defs>
        <path id="ArialMT-33" d="M 269 1209 
L 831 1284 
Q 928 806 1161 595 
Q 1394 384 1728 384 
Q 2125 384 2398 659 
Q 2672 934 2672 1341 
Q 2672 1728 2419 1979 
Q 2166 2231 1775 2231 
Q 1616 2231 1378 2169 
L 1441 2663 
Q 1497 2656 1531 2656 
Q 1891 2656 2178 2843 
Q 2466 3031 2466 3422 
Q 2466 3731 2256 3934 
Q 2047 4138 1716 4138 
Q 1388 4138 1169 3931 
Q 950 3725 888 3313 
L 325 3413 
Q 428 3978 793 4289 
Q 1159 4600 1703 4600 
Q 2078 4600 2393 4439 
Q 2709 4278 2876 4000 
Q 3044 3722 3044 3409 
Q 3044 3113 2884 2869 
Q 2725 2625 2413 2481 
Q 2819 2388 3044 2092 
Q 3269 1797 3269 1353 
Q 3269 753 2831 336 
Q 2394 -81 1725 -81 
Q 1122 -81 723 278 
Q 325 638 269 1209 
z
" transform="scale(0.015625)"/>
       </defs>
       <use xlink:href="#ArialMT-50"/>
       <use xlink:href="#ArialMT-33" x="66.699219"/>
      </g>
     </g>
    </g>
    <g id="xtick_3">
     <g id="line2d_4">
      <g>
       <use xlink:href="#me54889d07a" x="276" y="384.48" style="fill: #262626; stroke: #262626"/>
      </g>
     </g>
     <g id="text_3">
      <!-- P2 -->
      <g style="fill: #262626" transform="translate(270.61825 399.078875) scale(0.088 -0.088)">
       <defs>
        <path id="ArialMT-32" d="M 3222 541 
L 3222 0 
L 194 0 
Q 188 203 259 391 
Q 375 700 629 1000 
Q 884 1300 1366 1694 
Q 2113 2306 2375 2664 
Q 2638 3022 2638 3341 
Q 2638 3675 2398 3904 
Q 2159 4134 1775 4134 
Q 1369 4134 1125 3890 
Q 881 3647 878 3216 
L 300 3275 
Q 359 3922 746 4261 
Q 1134 4600 1788 4600 
Q 2447 4600 2831 4234 
Q 3216 3869 3216 3328 
Q 3216 3053 3103 2787 
Q 2991 2522 2730 2228 
Q 2469 1934 1863 1422 
Q 1356 997 1212 845 
Q 1069 694 975 541 
L 3222 541 
z
" transform="scale(0.015625)"/>
       </defs>
       <use xlink:href="#ArialMT-50"/>
       <use xlink:href="#ArialMT-32" x="66.699219"/>
      </g>
     </g>
    </g>
    <g id="xtick_4">
     <g id="line2d_5">
      <g>
       <use xlink:href="#me54889d07a" x="338" y="384.48" style="fill: #262626; stroke: #262626"/>
      </g>
     </g>
     <g id="text_4">
      <!-- P1 -->
      <g style="fill: #262626" transform="translate(332.61825 399.078875) scale(0.088 -0.088)">
       <defs>
        <path id="ArialMT-31" d="M 2384 0 
L 1822 0 
L 1822 3584 
Q 1619 3391 1289 3197 
Q 959 3003 697 2906 
L 697 3450 
Q 1169 3672 1522 3987 
Q 1875 4303 2022 4600 
L 2384 4600 
L 2384 0 
z
" transform="scale(0.015625)"/>
       </defs>
       <use xlink:href="#ArialMT-50"/>
       <use xlink:href="#ArialMT-31" x="66.699219"/>
      </g>
     </g>
    </g>
    <g id="xtick_5">
     <g id="line2d_6">
      <g>
       <use xlink:href="#me54889d07a" x="400" y="384.48" style="fill: #262626; stroke: #262626"/>
      </g>
     </g>
     <g id="text_5">
      <!-- P1' -->
      <g style="fill: #262626" transform="translate(393.778125 399.078875) scale(0.088 -0.088)">
       <defs>
        <path id="ArialMT-27" d="M 425 2959 
L 281 3816 
L 281 4581 
L 922 4581 
L 922 3816 
L 772 2959 
L 425 2959 
z
" transform="scale(0.015625)"/>
       </defs>
       <use xlink:href="#ArialMT-50"/>
       <use xlink:href="#ArialMT-31" x="66.699219"/>
       <use xlink:href="#ArialMT-27" x="122.314453"/>
      </g>
     </g>
    </g>
    <g id="xtick_6">
     <g id="line2d_7">
      <g>
       <use xlink:href="#me54889d07a" x="462" y="384.48" style="fill: #262626; stroke: #262626"/>
      </g>
     </g>
     <g id="text_6">
      <!-- P2' -->
      <g style="fill: #262626" transform="translate(455.778125 399.078875) scale(0.088 -0.088)">
       <use xlink:href="#ArialMT-50"/>
       <use xlink:href="#ArialMT-32" x="66.699219"/>
       <use xlink:href="#ArialMT-27" x="122.314453"/>
      </g>
     </g>
    </g>
    <g id="xtick_7">
     <g id="line2d_8">
      <g>
       <use xlink:href="#me54889d07a" x="524" y="384.48" style="fill: #262626; stroke: #262626"/>
      </g>
     </g>
     <g id="text_7">
      <!-- P3' -->
      <g style="fill: #262626" transform="translate(517.778125 399.078875) scale(0.088 -0.088)">
       <use xlink:href="#ArialMT-50"/>
       <use xlink:href="#ArialMT-33" x="66.699219"/>
       <use xlink:href="#ArialMT-27" x="122.314453"/>
      </g>
     </g>
    </g>
    <g id="xtick_8">
     <g id="line2d_9">
      <g>
       <use xlink:href="#me54889d07a" x="586" y="384.48" style="fill: #262626; stroke: #262626"/>
      </g>
     </g>
     <g id="text_8">
      <!-- P4' -->
      <g style="fill: #262626" transform="translate(579.778125 399.078875) scale(0.088 -0.088)">
       <use xlink:href="#ArialMT-50"/>
       <use xlink:href="#ArialMT-34" x="66.699219"/>
       <use xlink:href="#ArialMT-27" x="122.314453"/>
      </g>
     </g>
    </g>
   </g>
   <g id="matplotlib.axis_2">
    <g id="ytick_1">
     <g id="line2d_10">
      <defs>
       <path id="m05c47e5d76" d="M 0 0 
L -4.8 0 
" style="stroke: #262626"/>
      </defs>
      <g>
       <use xlink:href="#m05c47e5d76" x="90" y="384.48" style="fill: #262626; stroke: #262626"/>
      </g>
     </g>
     <g id="text_9">
      <!-- 0.0 -->
      <g style="fill: #262626" transform="translate(69.468 387.629437) scale(0.088 -0.088)">
       <defs>
        <path id="ArialMT-30" d="M 266 2259 
Q 266 3072 433 3567 
Q 600 4063 929 4331 
Q 1259 4600 1759 4600 
Q 2128 4600 2406 4451 
Q 2684 4303 2865 4023 
Q 3047 3744 3150 3342 
Q 3253 2941 3253 2259 
Q 3253 1453 3087 958 
Q 2922 463 2592 192 
Q 2263 -78 1759 -78 
Q 1097 -78 719 397 
Q 266 969 266 2259 
z
M 844 2259 
Q 844 1131 1108 757 
Q 1372 384 1759 384 
Q 2147 384 2411 759 
Q 2675 1134 2675 2259 
Q 2675 3391 2411 3762 
Q 2147 4134 1753 4134 
Q 1366 4134 1134 3806 
Q 844 3388 844 2259 
z
" transform="scale(0.015625)"/>
        <path id="ArialMT-2e" d="M 581 0 
L 581 641 
L 1222 641 
L 1222 0 
L 581 0 
z
" transform="scale(0.015625)"/>
       </defs>
       <use xlink:href="#ArialMT-30"/>
       <use xlink:href="#ArialMT-2e" x="55.615234"/>
       <use xlink:href="#ArialMT-30" x="83.398438"/>
      </g>
     </g>
    </g>
    <g id="ytick_2">
     <g id="line2d_11">
      <g>
       <use xlink:href="#m05c47e5d76" x="90" y="317.952" style="fill: #262626; stroke: #262626"/>
      </g>
     </g>
     <g id="text_10">
      <!-- 0.2 -->
      <g style="fill: #262626" transform="translate(69.468 321.101437) scale(0.088 -0.088)">
       <use xlink:href="#ArialMT-30"/>
       <use xlink:href="#ArialMT-2e" x="55.615234"/>
       <use xlink:href="#ArialMT-32" x="83.398438"/>
      </g>
     </g>
    </g>
    <g id="ytick_3">
     <g id="line2d_12">
      <g>
       <use xlink:href="#m05c47e5d76" x="90" y="251.424" style="fill: #262626; stroke: #262626"/>
      </g>
     </g>
     <g id="text_11">
      <!-- 0.4 -->
      <g style="fill: #262626" transform="translate(69.468 254.573437) scale(0.088 -0.088)">
       <use xlink:href="#ArialMT-30"/>
       <use xlink:href="#ArialMT-2e" x="55.615234"/>
       <use xlink:href="#ArialMT-34" x="83.398438"/>
      </g>
     </g>
    </g>
    <g id="ytick_4">
     <g id="line2d_13">
      <g>
       <use xlink:href="#m05c47e5d76" x="90" y="184.896" style="fill: #262626; stroke: #262626"/>
      </g>
     </g>
     <g id="text_12">
      <!-- 0.6 -->
      <g style="fill: #262626" transform="translate(69.468 188.045437) scale(0.088 -0.088)">
       <defs>
        <path id="ArialMT-36" d="M 3184 3459 
L 2625 3416 
Q 2550 3747 2413 3897 
Q 2184 4138 1850 4138 
Q 1581 4138 1378 3988 
Q 1113 3794 959 3422 
Q 806 3050 800 2363 
Q 1003 2672 1297 2822 
Q 1591 2972 1913 2972 
Q 2475 2972 2870 2558 
Q 3266 2144 3266 1488 
Q 3266 1056 3080 686 
Q 2894 316 2569 119 
Q 2244 -78 1831 -78 
Q 1128 -78 684 439 
Q 241 956 241 2144 
Q 241 3472 731 4075 
Q 1159 4600 1884 4600 
Q 2425 4600 2770 4297 
Q 3116 3994 3184 3459 
z
M 888 1484 
Q 888 1194 1011 928 
Q 1134 663 1356 523 
Q 1578 384 1822 384 
Q 2178 384 2434 671 
Q 2691 959 2691 1453 
Q 2691 1928 2437 2201 
Q 2184 2475 1800 2475 
Q 1419 2475 1153 2201 
Q 888 1928 888 1484 
z
" transform="scale(0.015625)"/>
       </defs>
       <use xlink:href="#ArialMT-30"/>
       <use xlink:href="#ArialMT-2e" x="55.615234"/>
       <use xlink:href="#ArialMT-36" x="83.398438"/>
      </g>
     </g>
    </g>
    <g id="ytick_5">
     <g id="line2d_14">
      <g>
       <use xlink:href="#m05c47e5d76" x="90" y="118.368" style="fill: #262626; stroke: #262626"/>
      </g>
     </g>
     <g id="text_13">
      <!-- 0.8 -->
      <g style="fill: #262626" transform="translate(69.468 121.517437) scale(0.088 -0.088)">
       <defs>
        <path id="ArialMT-38" d="M 1131 2484 
Q 781 2613 612 2850 
Q 444 3088 444 3419 
Q 444 3919 803 4259 
Q 1163 4600 1759 4600 
Q 2359 4600 2725 4251 
Q 3091 3903 3091 3403 
Q 3091 3084 2923 2848 
Q 2756 2613 2416 2484 
Q 2838 2347 3058 2040 
Q 3278 1734 3278 1309 
Q 3278 722 2862 322 
Q 2447 -78 1769 -78 
Q 1091 -78 675 323 
Q 259 725 259 1325 
Q 259 1772 486 2073 
Q 713 2375 1131 2484 
z
M 1019 3438 
Q 1019 3113 1228 2906 
Q 1438 2700 1772 2700 
Q 2097 2700 2305 2904 
Q 2513 3109 2513 3406 
Q 2513 3716 2298 3927 
Q 2084 4138 1766 4138 
Q 1444 4138 1231 3931 
Q 1019 3725 1019 3438 
z
M 838 1322 
Q 838 1081 952 856 
Q 1066 631 1291 507 
Q 1516 384 1775 384 
Q 2178 384 2440 643 
Q 2703 903 2703 1303 
Q 2703 1709 2433 1975 
Q 2163 2241 1756 2241 
Q 1359 2241 1098 1978 
Q 838 1716 838 1322 
z
" transform="scale(0.015625)"/>
       </defs>
       <use xlink:href="#ArialMT-30"/>
       <use xlink:href="#ArialMT-2e" x="55.615234"/>
       <use xlink:href="#ArialMT-38" x="83.398438"/>
      </g>
     </g>
    </g>
    <g id="ytick_6">
     <g id="line2d_15">
      <g>
       <use xlink:href="#m05c47e5d76" x="90" y="51.84" style="fill: #262626; stroke: #262626"/>
      </g>
     </g>
     <g id="text_14">
      <!-- 1.0 -->
      <g style="fill: #262626" transform="translate(69.468 54.989438) scale(0.088 -0.088)">
       <use xlink:href="#ArialMT-31"/>
       <use xlink:href="#ArialMT-2e" x="55.615234"/>
       <use xlink:href="#ArialMT-30" x="83.398438"/>
      </g>
     </g>
    </g>
    <g id="text_15">
     <!-- percentage -->
     <g style="fill: #262626" transform="translate(63.4475 242.1765) rotate(-90) scale(0.096 -0.096)">
      <defs>
       <path id="ArialMT-70" d="M 422 -1272 
L 422 3319 
L 934 3319 
L 934 2888 
Q 1116 3141 1344 3267 
Q 1572 3394 1897 3394 
Q 2322 3394 2647 3175 
Q 2972 2956 3137 2557 
Q 3303 2159 3303 1684 
Q 3303 1175 3120 767 
Q 2938 359 2589 142 
Q 2241 -75 1856 -75 
Q 1575 -75 1351 44 
Q 1128 163 984 344 
L 984 -1272 
L 422 -1272 
z
M 931 1641 
Q 931 1000 1190 694 
Q 1450 388 1819 388 
Q 2194 388 2461 705 
Q 2728 1022 2728 1688 
Q 2728 2322 2467 2637 
Q 2206 2953 1844 2953 
Q 1484 2953 1207 2617 
Q 931 2281 931 1641 
z
" transform="scale(0.015625)"/>
       <path id="ArialMT-65" d="M 2694 1069 
L 3275 997 
Q 3138 488 2766 206 
Q 2394 -75 1816 -75 
Q 1088 -75 661 373 
Q 234 822 234 1631 
Q 234 2469 665 2931 
Q 1097 3394 1784 3394 
Q 2450 3394 2872 2941 
Q 3294 2488 3294 1666 
Q 3294 1616 3291 1516 
L 816 1516 
Q 847 969 1125 678 
Q 1403 388 1819 388 
Q 2128 388 2347 550 
Q 2566 713 2694 1069 
z
M 847 1978 
L 2700 1978 
Q 2663 2397 2488 2606 
Q 2219 2931 1791 2931 
Q 1403 2931 1139 2672 
Q 875 2413 847 1978 
z
" transform="scale(0.015625)"/>
       <path id="ArialMT-72" d="M 416 0 
L 416 3319 
L 922 3319 
L 922 2816 
Q 1116 3169 1280 3281 
Q 1444 3394 1641 3394 
Q 1925 3394 2219 3213 
L 2025 2691 
Q 1819 2813 1613 2813 
Q 1428 2813 1281 2702 
Q 1134 2591 1072 2394 
Q 978 2094 978 1738 
L 978 0 
L 416 0 
z
" transform="scale(0.015625)"/>
       <path id="ArialMT-63" d="M 2588 1216 
L 3141 1144 
Q 3050 572 2676 248 
Q 2303 -75 1759 -75 
Q 1078 -75 664 370 
Q 250 816 250 1647 
Q 250 2184 428 2587 
Q 606 2991 970 3192 
Q 1334 3394 1763 3394 
Q 2303 3394 2647 3120 
Q 2991 2847 3088 2344 
L 2541 2259 
Q 2463 2594 2264 2762 
Q 2066 2931 1784 2931 
Q 1359 2931 1093 2626 
Q 828 2322 828 1663 
Q 828 994 1084 691 
Q 1341 388 1753 388 
Q 2084 388 2306 591 
Q 2528 794 2588 1216 
z
" transform="scale(0.015625)"/>
       <path id="ArialMT-6e" d="M 422 0 
L 422 3319 
L 928 3319 
L 928 2847 
Q 1294 3394 1984 3394 
Q 2284 3394 2536 3286 
Q 2788 3178 2913 3003 
Q 3038 2828 3088 2588 
Q 3119 2431 3119 2041 
L 3119 0 
L 2556 0 
L 2556 2019 
Q 2556 2363 2490 2533 
Q 2425 2703 2258 2804 
Q 2091 2906 1866 2906 
Q 1506 2906 1245 2678 
Q 984 2450 984 1813 
L 984 0 
L 422 0 
z
" transform="scale(0.015625)"/>
       <path id="ArialMT-74" d="M 1650 503 
L 1731 6 
Q 1494 -44 1306 -44 
Q 1000 -44 831 53 
Q 663 150 594 308 
Q 525 466 525 972 
L 525 2881 
L 113 2881 
L 113 3319 
L 525 3319 
L 525 4141 
L 1084 4478 
L 1084 3319 
L 1650 3319 
L 1650 2881 
L 1084 2881 
L 1084 941 
Q 1084 700 1114 631 
Q 1144 563 1211 522 
Q 1278 481 1403 481 
Q 1497 481 1650 503 
z
" transform="scale(0.015625)"/>
       <path id="ArialMT-61" d="M 2588 409 
Q 2275 144 1986 34 
Q 1697 -75 1366 -75 
Q 819 -75 525 192 
Q 231 459 231 875 
Q 231 1119 342 1320 
Q 453 1522 633 1644 
Q 813 1766 1038 1828 
Q 1203 1872 1538 1913 
Q 2219 1994 2541 2106 
Q 2544 2222 2544 2253 
Q 2544 2597 2384 2738 
Q 2169 2928 1744 2928 
Q 1347 2928 1158 2789 
Q 969 2650 878 2297 
L 328 2372 
Q 403 2725 575 2942 
Q 747 3159 1072 3276 
Q 1397 3394 1825 3394 
Q 2250 3394 2515 3294 
Q 2781 3194 2906 3042 
Q 3031 2891 3081 2659 
Q 3109 2516 3109 2141 
L 3109 1391 
Q 3109 606 3145 398 
Q 3181 191 3288 0 
L 2700 0 
Q 2613 175 2588 409 
z
M 2541 1666 
Q 2234 1541 1622 1453 
Q 1275 1403 1131 1340 
Q 988 1278 909 1158 
Q 831 1038 831 891 
Q 831 666 1001 516 
Q 1172 366 1500 366 
Q 1825 366 2078 508 
Q 2331 650 2450 897 
Q 2541 1088 2541 1459 
L 2541 1666 
z
" transform="scale(0.015625)"/>
       <path id="ArialMT-67" d="M 319 -275 
L 866 -356 
Q 900 -609 1056 -725 
Q 1266 -881 1628 -881 
Q 2019 -881 2231 -725 
Q 2444 -569 2519 -288 
Q 2563 -116 2559 434 
Q 2191 0 1641 0 
Q 956 0 581 494 
Q 206 988 206 1678 
Q 206 2153 378 2554 
Q 550 2956 876 3175 
Q 1203 3394 1644 3394 
Q 2231 3394 2613 2919 
L 2613 3319 
L 3131 3319 
L 3131 450 
Q 3131 -325 2973 -648 
Q 2816 -972 2473 -1159 
Q 2131 -1347 1631 -1347 
Q 1038 -1347 672 -1080 
Q 306 -813 319 -275 
z
M 784 1719 
Q 784 1066 1043 766 
Q 1303 466 1694 466 
Q 2081 466 2343 764 
Q 2606 1063 2606 1700 
Q 2606 2309 2336 2618 
Q 2066 2928 1684 2928 
Q 1309 2928 1046 2623 
Q 784 2319 784 1719 
z
" transform="scale(0.015625)"/>
      </defs>
      <use xlink:href="#ArialMT-70"/>
      <use xlink:href="#ArialMT-65" x="55.615234"/>
      <use xlink:href="#ArialMT-72" x="111.230469"/>
      <use xlink:href="#ArialMT-63" x="144.53125"/>
      <use xlink:href="#ArialMT-65" x="194.53125"/>
      <use xlink:href="#ArialMT-6e" x="250.146484"/>
      <use xlink:href="#ArialMT-74" x="305.761719"/>
      <use xlink:href="#ArialMT-61" x="333.544922"/>
      <use xlink:href="#ArialMT-67" x="389.160156"/>
      <use xlink:href="#ArialMT-65" x="444.775391"/>
     </g>
    </g>
   </g>
   <g id="line2d_16">
    <path d="M 369 384.48 
L 369 51.84 
" clip-path="url(#p156999e0fe)" style="fill: none; stroke: #daa520; stroke-width: 2; stroke-linecap: round"/>
   </g>
   <g id="patch_125">
    <path d="M 90 384.48 
L 648 384.48 
" style="fill: none; stroke: #262626; stroke-linejoin: miter; stroke-linecap: square"/>
   </g>
   <g id="patch_126">
    <path d="M 90 51.84 
L 648 51.84 
" style="fill: none; stroke: #262626; stroke-linejoin: miter; stroke-linecap: square"/>
   </g>
   <g id="text_16">
    <!-- ctrl vs. MMP9 probability PPSM n=66 -->
    <g style="fill: #262626" transform="translate(289.641 45.84) scale(0.096 -0.096)">
     <defs>
      <path id="ArialMT-6c" d="M 409 0 
L 409 4581 
L 972 4581 
L 972 0 
L 409 0 
z
" transform="scale(0.015625)"/>
      <path id="ArialMT-20" transform="scale(0.015625)"/>
      <path id="ArialMT-76" d="M 1344 0 
L 81 3319 
L 675 3319 
L 1388 1331 
Q 1503 1009 1600 663 
Q 1675 925 1809 1294 
L 2547 3319 
L 3125 3319 
L 1869 0 
L 1344 0 
z
" transform="scale(0.015625)"/>
      <path id="ArialMT-73" d="M 197 991 
L 753 1078 
Q 800 744 1014 566 
Q 1228 388 1613 388 
Q 2000 388 2187 545 
Q 2375 703 2375 916 
Q 2375 1106 2209 1216 
Q 2094 1291 1634 1406 
Q 1016 1563 777 1677 
Q 538 1791 414 1992 
Q 291 2194 291 2438 
Q 291 2659 392 2848 
Q 494 3038 669 3163 
Q 800 3259 1026 3326 
Q 1253 3394 1513 3394 
Q 1903 3394 2198 3281 
Q 2494 3169 2634 2976 
Q 2775 2784 2828 2463 
L 2278 2388 
Q 2241 2644 2061 2787 
Q 1881 2931 1553 2931 
Q 1166 2931 1000 2803 
Q 834 2675 834 2503 
Q 834 2394 903 2306 
Q 972 2216 1119 2156 
Q 1203 2125 1616 2013 
Q 2213 1853 2448 1751 
Q 2684 1650 2818 1456 
Q 2953 1263 2953 975 
Q 2953 694 2789 445 
Q 2625 197 2315 61 
Q 2006 -75 1616 -75 
Q 969 -75 630 194 
Q 291 463 197 991 
z
" transform="scale(0.015625)"/>
      <path id="ArialMT-4d" d="M 475 0 
L 475 4581 
L 1388 4581 
L 2472 1338 
Q 2622 884 2691 659 
Q 2769 909 2934 1394 
L 4031 4581 
L 4847 4581 
L 4847 0 
L 4263 0 
L 4263 3834 
L 2931 0 
L 2384 0 
L 1059 3900 
L 1059 0 
L 475 0 
z
" transform="scale(0.015625)"/>
      <path id="ArialMT-39" d="M 350 1059 
L 891 1109 
Q 959 728 1153 556 
Q 1347 384 1650 384 
Q 1909 384 2104 503 
Q 2300 622 2425 820 
Q 2550 1019 2634 1356 
Q 2719 1694 2719 2044 
Q 2719 2081 2716 2156 
Q 2547 1888 2255 1720 
Q 1963 1553 1622 1553 
Q 1053 1553 659 1965 
Q 266 2378 266 3053 
Q 266 3750 677 4175 
Q 1088 4600 1706 4600 
Q 2153 4600 2523 4359 
Q 2894 4119 3086 3673 
Q 3278 3228 3278 2384 
Q 3278 1506 3087 986 
Q 2897 466 2520 194 
Q 2144 -78 1638 -78 
Q 1100 -78 759 220 
Q 419 519 350 1059 
z
M 2653 3081 
Q 2653 3566 2395 3850 
Q 2138 4134 1775 4134 
Q 1400 4134 1122 3828 
Q 844 3522 844 3034 
Q 844 2597 1108 2323 
Q 1372 2050 1759 2050 
Q 2150 2050 2401 2323 
Q 2653 2597 2653 3081 
z
" transform="scale(0.015625)"/>
      <path id="ArialMT-6f" d="M 213 1659 
Q 213 2581 725 3025 
Q 1153 3394 1769 3394 
Q 2453 3394 2887 2945 
Q 3322 2497 3322 1706 
Q 3322 1066 3130 698 
Q 2938 331 2570 128 
Q 2203 -75 1769 -75 
Q 1072 -75 642 372 
Q 213 819 213 1659 
z
M 791 1659 
Q 791 1022 1069 705 
Q 1347 388 1769 388 
Q 2188 388 2466 706 
Q 2744 1025 2744 1678 
Q 2744 2294 2464 2611 
Q 2184 2928 1769 2928 
Q 1347 2928 1069 2612 
Q 791 2297 791 1659 
z
" transform="scale(0.015625)"/>
      <path id="ArialMT-62" d="M 941 0 
L 419 0 
L 419 4581 
L 981 4581 
L 981 2947 
Q 1338 3394 1891 3394 
Q 2197 3394 2470 3270 
Q 2744 3147 2920 2923 
Q 3097 2700 3197 2384 
Q 3297 2069 3297 1709 
Q 3297 856 2875 390 
Q 2453 -75 1863 -75 
Q 1275 -75 941 416 
L 941 0 
z
M 934 1684 
Q 934 1088 1097 822 
Q 1363 388 1816 388 
Q 2184 388 2453 708 
Q 2722 1028 2722 1663 
Q 2722 2313 2464 2622 
Q 2206 2931 1841 2931 
Q 1472 2931 1203 2611 
Q 934 2291 934 1684 
z
" transform="scale(0.015625)"/>
      <path id="ArialMT-69" d="M 425 3934 
L 425 4581 
L 988 4581 
L 988 3934 
L 425 3934 
z
M 425 0 
L 425 3319 
L 988 3319 
L 988 0 
L 425 0 
z
" transform="scale(0.015625)"/>
      <path id="ArialMT-79" d="M 397 -1278 
L 334 -750 
Q 519 -800 656 -800 
Q 844 -800 956 -737 
Q 1069 -675 1141 -563 
Q 1194 -478 1313 -144 
Q 1328 -97 1363 -6 
L 103 3319 
L 709 3319 
L 1400 1397 
Q 1534 1031 1641 628 
Q 1738 1016 1872 1384 
L 2581 3319 
L 3144 3319 
L 1881 -56 
Q 1678 -603 1566 -809 
Q 1416 -1088 1222 -1217 
Q 1028 -1347 759 -1347 
Q 597 -1347 397 -1278 
z
" transform="scale(0.015625)"/>
      <path id="ArialMT-53" d="M 288 1472 
L 859 1522 
Q 900 1178 1048 958 
Q 1197 738 1509 602 
Q 1822 466 2213 466 
Q 2559 466 2825 569 
Q 3091 672 3220 851 
Q 3350 1031 3350 1244 
Q 3350 1459 3225 1620 
Q 3100 1781 2813 1891 
Q 2628 1963 1997 2114 
Q 1366 2266 1113 2400 
Q 784 2572 623 2826 
Q 463 3081 463 3397 
Q 463 3744 659 4045 
Q 856 4347 1234 4503 
Q 1613 4659 2075 4659 
Q 2584 4659 2973 4495 
Q 3363 4331 3572 4012 
Q 3781 3694 3797 3291 
L 3216 3247 
Q 3169 3681 2898 3903 
Q 2628 4125 2100 4125 
Q 1550 4125 1298 3923 
Q 1047 3722 1047 3438 
Q 1047 3191 1225 3031 
Q 1400 2872 2139 2705 
Q 2878 2538 3153 2413 
Q 3553 2228 3743 1945 
Q 3934 1663 3934 1294 
Q 3934 928 3725 604 
Q 3516 281 3123 101 
Q 2731 -78 2241 -78 
Q 1619 -78 1198 103 
Q 778 284 539 648 
Q 300 1013 288 1472 
z
" transform="scale(0.015625)"/>
      <path id="ArialMT-3d" d="M 3381 2694 
L 356 2694 
L 356 3219 
L 3381 3219 
L 3381 2694 
z
M 3381 1303 
L 356 1303 
L 356 1828 
L 3381 1828 
L 3381 1303 
z
" transform="scale(0.015625)"/>
     </defs>
     <use xlink:href="#ArialMT-63"/>
     <use xlink:href="#ArialMT-74" x="50"/>
     <use xlink:href="#ArialMT-72" x="77.783203"/>
     <use xlink:href="#ArialMT-6c" x="111.083984"/>
     <use xlink:href="#ArialMT-20" x="133.300781"/>
     <use xlink:href="#ArialMT-76" x="161.083984"/>
     <use xlink:href="#ArialMT-73" x="211.083984"/>
     <use xlink:href="#ArialMT-2e" x="261.083984"/>
     <use xlink:href="#ArialMT-20" x="288.867188"/>
     <use xlink:href="#ArialMT-4d" x="316.650391"/>
     <use xlink:href="#ArialMT-4d" x="399.951172"/>
     <use xlink:href="#ArialMT-50" x="483.251953"/>
     <use xlink:href="#ArialMT-39" x="549.951172"/>
     <use xlink:href="#ArialMT-20" x="605.566406"/>
     <use xlink:href="#ArialMT-70" x="633.349609"/>
     <use xlink:href="#ArialMT-72" x="688.964844"/>
     <use xlink:href="#ArialMT-6f" x="722.265625"/>
     <use xlink:href="#ArialMT-62" x="777.880859"/>
     <use xlink:href="#ArialMT-61" x="833.496094"/>
     <use xlink:href="#ArialMT-62" x="889.111328"/>
     <use xlink:href="#ArialMT-69" x="944.726562"/>
     <use xlink:href="#ArialMT-6c" x="966.943359"/>
     <use xlink:href="#ArialMT-69" x="989.160156"/>
     <use xlink:href="#ArialMT-74" x="1011.376953"/>
     <use xlink:href="#ArialMT-79" x="1039.160156"/>
     <use xlink:href="#ArialMT-20" x="1089.160156"/>
     <use xlink:href="#ArialMT-50" x="1116.943359"/>
     <use xlink:href="#ArialMT-50" x="1183.642578"/>
     <use xlink:href="#ArialMT-53" x="1250.341797"/>
     <use xlink:href="#ArialMT-4d" x="1317.041016"/>
     <use xlink:href="#ArialMT-20" x="1400.341797"/>
     <use xlink:href="#ArialMT-6e" x="1428.125"/>
     <use xlink:href="#ArialMT-3d" x="1483.740234"/>
     <use xlink:href="#ArialMT-36" x="1542.138672"/>
     <use xlink:href="#ArialMT-36" x="1597.753906"/>
    </g>
   </g>
  </g>
 </g>
 <defs>
  <clipPath id="p156999e0fe">
   <rect x="90" y="51.84" width="558" height="332.64"/>
  </clipPath>
 </defs>
</svg>
