<?xml version="1.0" encoding="utf-8" standalone="no"?>
<!DOCTYPE svg PUBLIC "-//W3C//DTD SVG 1.1//EN"
  "http://www.w3.org/Graphics/SVG/1.1/DTD/svg11.dtd">
<svg xmlns:xlink="http://www.w3.org/1999/xlink" width="720pt" height="432pt" viewBox="0 0 720 432" xmlns="http://www.w3.org/2000/svg" version="1.1">
 <metadata>
  <rdf:RDF xmlns:dc="http://purl.org/dc/elements/1.1/" xmlns:cc="http://creativecommons.org/ns#" xmlns:rdf="http://www.w3.org/1999/02/22-rdf-syntax-ns#">
   <cc:Work>
    <dc:type rdf:resource="http://purl.org/dc/dcmitype/StillImage"/>
    <dc:date>2023-11-26T14:31:07.785949</dc:date>
    <dc:format>image/svg+xml</dc:format>
    <dc:creator>
     <cc:Agent>
      <dc:title>Matplotlib v3.7.1, https://matplotlib.org/</dc:title>
     </cc:Agent>
    </dc:creator>
   </cc:Work>
  </rdf:RDF>
 </metadata>
 <defs>
  <style type="text/css">*{stroke-linejoin: round; stroke-linecap: butt}</style>
 </defs>
 <g id="figure_1">
  <g id="patch_1">
   <path d="M 0 432 
L 720 432 
L 720 0 
L 0 0 
z
" style="fill: #ffffff"/>
  </g>
  <g id="axes_1">
   <g id="patch_2">
    <path d="M 90 384.48 
L 648 384.48 
L 648 51.84 
L 90 51.84 
z
" style="fill: #ffffff"/>
   </g>
   <g id="patch_3">
    <path d="M 307 384.48 
L 369 384.48 
L 369 51.84 
L 307 51.84 
z
" clip-path="url(#p90541cddb2)" style="fill: #ffd700; opacity: 0.35; stroke: #ffffff; stroke-width: 0.8; stroke-linejoin: miter"/>
   </g>
   <g id="line2d_1">
    <path d="M 90 384.48 
L 648 384.48 
" clip-path="url(#p90541cddb2)" style="fill: none; stroke: #000000; stroke-width: 0.5; stroke-linecap: round"/>
   </g>
   <g id="patch_4">
    <path d="M 125.65 384.244812 
L 177.253077 384.244812 
L 177.253077 384.289504 
L 144.774615 384.289504 
L 144.774615 384.332133 
L 175.329487 384.332133 
L 175.329487 384.376826 
L 144.774615 384.376826 
L 144.774615 384.429327 
L 178.35 384.429327 
L 178.35 384.47397 
L 125.65 384.47397 
L 125.65 384.244812 
z
" clip-path="url(#p90541cddb2)" style="fill: #6b296b"/>
   </g>
   <g id="patch_5">
    <path d="M 125.65 383.961509 
L 153.043021 383.961509 
Q 165.271068 383.961509 171.803672 383.984437 
Q 178.35 384.007308 178.35 384.049633 
Q 178.35 384.09219 171.803672 384.11506 
Q 165.271068 384.137931 153.043021 384.137931 
L 142.159922 384.137931 
L 142.159922 384.231672 
L 125.65 384.231672 
L 125.65 383.961509 
z
M 142.159922 384.011998 
L 142.159922 384.087442 
L 151.286354 384.087442 
Q 156.08974 384.087442 158.711016 384.077599 
Q 161.332292 384.067756 161.332292 384.049633 
Q 161.332292 384.031568 158.711016 384.021783 
Q 156.08974 384.011998 151.286354 384.011998 
L 142.159922 384.011998 
z
" clip-path="url(#p90541cddb2)" style="fill: #787800"/>
   </g>
   <g id="patch_6">
    <path d="M 125.65 383.30594 
L 141.195992 383.30594 
L 151.979692 383.644064 
L 162.83447 383.30594 
L 178.35 383.30594 
L 178.35 383.937772 
L 166.80474 383.937772 
L 166.80474 383.475611 
L 155.889037 383.816307 
L 148.141426 383.816307 
L 137.225723 383.475611 
L 137.225723 383.937772 
L 125.65 383.937772 
L 125.65 383.30594 
z
" clip-path="url(#p90541cddb2)" style="fill: #21599c"/>
   </g>
   <g id="patch_7">
    <path d="M 142.437692 382.484031 
L 161.562308 382.484031 
L 161.562308 383.268665 
L 142.437692 383.268665 
L 142.437692 382.484031 
z
" clip-path="url(#p90541cddb2)" style="fill: #21599c"/>
   </g>
   <g id="patch_8">
    <path d="M 126.198462 381.459034 
L 177.801538 381.459034 
L 177.801538 381.649888 
L 145.323077 381.649888 
L 145.323077 381.831932 
L 175.877949 381.831932 
L 175.877949 382.022786 
L 145.323077 382.022786 
L 145.323077 382.437631 
L 126.198462 382.437631 
L 126.198462 381.459034 
z
" clip-path="url(#p90541cddb2)" style="fill: #21599c"/>
   </g>
   <g id="patch_9">
    <path d="M 125.65 380.328454 
L 140.813382 380.328454 
L 140.813382 380.738658 
L 163.186618 380.738658 
L 163.186618 380.328454 
L 178.35 380.328454 
L 178.35 381.404952 
L 163.186618 381.404952 
L 163.186618 380.948606 
L 140.813382 380.948606 
L 140.813382 381.404952 
L 125.65 381.404952 
L 125.65 380.328454 
z
" clip-path="url(#p90541cddb2)" style="fill: #177875"/>
   </g>
   <g id="patch_10">
    <path d="M 125.65 378.057434 
L 138.68762 378.057434 
L 152.016162 379.670332 
L 165.323155 378.057434 
L 178.35 378.057434 
L 159.730985 380.24262 
L 144.269015 380.24262 
L 125.65 378.057434 
z
" clip-path="url(#p90541cddb2)" style="fill: #21599c"/>
   </g>
   <g id="patch_11">
    <path d="M 147.032787 375.937798 
Q 151.762274 375.937798 153.814221 375.83165 
Q 155.866168 375.724745 155.866168 375.480606 
Q 155.866168 375.238742 153.814221 375.134869 
Q 151.762274 375.030238 147.032787 375.030238 
L 140.701781 375.030238 
L 140.701781 375.937798 
L 147.032787 375.937798 
z
M 140.701781 376.567858 
L 140.701781 377.906831 
L 125.65 377.906831 
L 125.65 374.369092 
L 148.634307 374.369092 
Q 160.170252 374.369092 165.537844 374.604132 
Q 170.917949 374.838415 170.917949 375.345647 
Q 170.917949 375.695933 168.11529 375.921117 
Q 165.325142 376.146301 159.694801 376.253207 
Q 162.785233 376.295666 165.225047 376.446547 
Q 167.677374 376.596669 170.179748 376.902222 
L 178.35 377.906831 
L 162.322293 377.906831 
L 155.203039 377.028082 
Q 153.050997 376.762714 150.836396 376.665665 
Q 148.634307 376.567858 144.955817 376.567858 
L 140.701781 376.567858 
z
" clip-path="url(#p90541cddb2)" style="fill: #bd2e1f"/>
   </g>
   <g id="patch_12">
    <path d="M 125.65 370.60759 
L 178.35 370.60759 
L 178.35 371.304686 
L 159.390256 371.304686 
L 159.390256 374.181932 
L 144.646512 374.181932 
L 144.646512 371.304686 
L 125.65 371.304686 
L 125.65 370.60759 
z
" clip-path="url(#p90541cddb2)" style="fill: #40ba47"/>
   </g>
   <g id="patch_13">
    <path d="M 162.155336 369.312282 
L 141.887763 369.312282 
L 138.68762 370.361902 
L 125.65 370.361902 
L 144.269015 364.600106 
L 159.730985 364.600106 
L 178.35 370.361902 
L 165.323155 370.361902 
L 162.155336 369.312282 
z
M 145.120231 368.242905 
L 158.890544 368.242905 
L 152.016162 365.951029 
L 145.120231 368.242905 
z
" clip-path="url(#p90541cddb2)" style="fill: #21599c"/>
   </g>
   <g id="patch_14">
    <path d="M 125.65 356.521771 
L 140.22 356.521771 
L 151.988929 359.274474 
L 163.746786 356.521771 
L 178.35 356.521771 
L 158.665 360.990982 
L 158.665 364.245231 
L 145.346071 364.245231 
L 145.346071 360.990982 
L 125.65 356.521771 
z
" clip-path="url(#p90541cddb2)" style="fill: #177875"/>
   </g>
   <g id="patch_15">
    <path d="M 125.65 344.225003 
L 139.537864 344.225003 
L 139.537864 348.525727 
L 159.555783 344.225003 
L 175.683253 344.225003 
L 149.743078 349.806095 
L 178.35 356.008431 
L 160.964195 356.008431 
L 139.537864 351.366781 
L 139.537864 356.008431 
L 125.65 356.008431 
L 125.65 344.225003 
z
" clip-path="url(#p90541cddb2)" style="fill: #bd2e1f"/>
   </g>
   <g id="patch_16">
    <path d="M 187.65 384.467393 
L 239.253077 384.467393 
L 239.253077 384.469789 
L 206.774615 384.469789 
L 206.774615 384.472074 
L 237.329487 384.472074 
L 237.329487 384.474469 
L 206.774615 384.474469 
L 206.774615 384.477284 
L 240.35 384.477284 
L 240.35 384.479677 
L 187.65 384.479677 
L 187.65 384.467393 
z
" clip-path="url(#p90541cddb2)" style="fill: #6b296b"/>
   </g>
   <g id="patch_17">
    <path d="M 188.198462 383.44941 
L 239.801538 383.44941 
L 239.801538 383.642793 
L 207.323077 383.642793 
L 207.323077 383.82725 
L 237.877949 383.82725 
L 237.877949 384.020633 
L 207.323077 384.020633 
L 207.323077 384.440976 
L 188.198462 384.440976 
L 188.198462 383.44941 
z
" clip-path="url(#p90541cddb2)" style="fill: #21599c"/>
   </g>
   <g id="patch_18">
    <path d="M 215.405333 383.063898 
L 214.373292 383.063898 
Q 201.714313 383.063898 194.676667 382.834852 
Q 187.65 382.605447 187.65 382.196617 
Q 187.65 381.788506 194.665687 381.557303 
Q 201.681375 381.325741 214 381.325741 
Q 226.450375 381.325741 233.400187 381.555146 
Q 240.35 381.784191 240.35 382.196617 
Q 240.35 382.479598 236.661 382.684193 
Q 232.972 382.888788 226.044146 382.991984 
L 236.364562 383.369532 
L 223.771458 383.369532 
L 215.405333 383.063898 
z
M 214 381.639285 
Q 207.961458 381.639285 204.634771 381.78527 
Q 201.308083 381.931255 201.308083 382.196617 
Q 201.308083 382.466294 204.557917 382.609762 
Q 207.818729 382.752871 214 382.752871 
Q 220.071479 382.752871 223.398167 382.606886 
Q 226.724854 382.460541 226.724854 382.196617 
Q 226.724854 381.931255 223.398167 381.78527 
Q 220.071479 381.639285 214 381.639285 
z
" clip-path="url(#p90541cddb2)" style="fill: #40ba47"/>
   </g>
   <g id="patch_19">
    <path d="M 187.65 377.693457 
L 203.195992 377.693457 
L 213.979692 379.55938 
L 224.83447 377.693457 
L 240.35 377.693457 
L 240.35 381.1802 
L 228.80474 381.1802 
L 228.80474 378.629782 
L 217.889037 380.509903 
L 210.141426 380.509903 
L 199.225723 378.629782 
L 199.225723 381.1802 
L 187.65 381.1802 
L 187.65 377.693457 
z
" clip-path="url(#p90541cddb2)" style="fill: #21599c"/>
   </g>
   <g id="patch_20">
    <path d="M 187.65 373.970459 
L 201.537864 373.970459 
L 201.537864 375.26181 
L 221.555783 373.970459 
L 237.683253 373.970459 
L 211.743078 375.646257 
L 240.35 377.508592 
L 222.964195 377.508592 
L 201.537864 376.114874 
L 201.537864 377.508592 
L 187.65 377.508592 
L 187.65 373.970459 
z
" clip-path="url(#p90541cddb2)" style="fill: #bd2e1f"/>
   </g>
   <g id="patch_21">
    <path d="M 209.032787 370.615421 
Q 213.762274 370.615421 215.814221 370.447515 
Q 217.866168 370.278409 217.866168 369.892224 
Q 217.866168 369.509637 215.814221 369.345329 
Q 213.762274 369.179821 209.032787 369.179821 
L 202.701781 369.179821 
L 202.701781 370.615421 
L 209.032787 370.615421 
z
M 202.701781 371.612066 
L 202.701781 373.730085 
L 187.65 373.730085 
L 187.65 368.134004 
L 210.634307 368.134004 
Q 222.170252 368.134004 227.537844 368.505797 
Q 232.917949 368.87639 232.917949 369.678743 
Q 232.917949 370.232834 230.11529 370.589036 
Q 227.325142 370.945237 221.694801 371.114343 
Q 224.785233 371.181506 227.225047 371.420173 
Q 229.677374 371.65764 232.179748 372.140971 
L 240.35 373.730085 
L 224.322293 373.730085 
L 217.203039 372.34006 
Q 215.050997 371.920294 212.836396 371.766779 
Q 210.634307 371.612066 206.955817 371.612066 
L 202.701781 371.612066 
z
" clip-path="url(#p90541cddb2)" style="fill: #bd2e1f"/>
   </g>
   <g id="patch_22">
    <path d="M 187.65 357.068588 
L 206.774615 357.068588 
L 206.774615 365.634321 
L 240.35 365.634321 
L 240.35 367.706786 
L 187.65 367.706786 
L 187.65 357.068588 
z
" clip-path="url(#p90541cddb2)" style="fill: #21599c"/>
   </g>
   <g id="patch_23">
    <path d="M 204.437692 339.950516 
L 223.562308 339.950516 
L 223.562308 356.356889 
L 204.437692 356.356889 
L 204.437692 339.950516 
z
" clip-path="url(#p90541cddb2)" style="fill: #21599c"/>
   </g>
   <g id="patch_24">
    <path d="M 187.65 306.393962 
L 200.68762 306.393962 
L 214.016162 330.21665 
L 227.323155 306.393962 
L 240.35 306.393962 
L 221.730985 338.669415 
L 206.269015 338.669415 
L 187.65 306.393962 
z
" clip-path="url(#p90541cddb2)" style="fill: #21599c"/>
   </g>
   <g id="patch_25">
    <path d="M 249.65 384.431181 
L 258.762642 384.431181 
L 265.132798 384.46575 
L 271.455534 384.431181 
L 280.615597 384.431181 
L 286.938332 384.46575 
L 293.316392 384.431181 
L 302.35 384.431181 
L 293.656239 384.478748 
L 282.694196 384.478748 
L 276 384.442588 
L 269.384838 384.478748 
L 258.414892 384.478748 
L 249.65 384.431181 
z
" clip-path="url(#p90541cddb2)" style="fill: #21599c"/>
   </g>
   <g id="patch_26">
    <path d="M 250.198462 383.826006 
L 301.801538 383.826006 
L 301.801538 383.940768 
L 269.323077 383.940768 
L 269.323077 384.050233 
L 299.877949 384.050233 
L 299.877949 384.164995 
L 269.323077 384.164995 
L 269.323077 384.414444 
L 250.198462 384.414444 
L 250.198462 383.826006 
z
" clip-path="url(#p90541cddb2)" style="fill: #21599c"/>
   </g>
   <g id="patch_27">
    <path d="M 249.65 380.626053 
L 265.195992 380.626053 
L 275.979692 382.286518 
L 286.83447 380.626053 
L 302.35 380.626053 
L 302.35 383.728868 
L 290.80474 383.728868 
L 290.80474 381.459278 
L 279.889037 383.132378 
L 272.141426 383.132378 
L 261.225723 381.459278 
L 261.225723 383.728868 
L 249.65 383.728868 
L 249.65 380.626053 
z
" clip-path="url(#p90541cddb2)" style="fill: #21599c"/>
   </g>
   <g id="patch_28">
    <path d="M 249.65 376.835517 
L 264.813382 376.835517 
L 264.813382 378.212565 
L 287.186618 378.212565 
L 287.186618 376.835517 
L 302.35 376.835517 
L 302.35 380.4493 
L 287.186618 380.4493 
L 287.186618 378.917353 
L 264.813382 378.917353 
L 264.813382 380.4493 
L 249.65 380.4493 
L 249.65 376.835517 
z
" clip-path="url(#p90541cddb2)" style="fill: #177875"/>
   </g>
   <g id="patch_29">
    <path d="M 302.35 376.382401 
Q 297.941736 376.512206 293.174969 376.577863 
Q 288.408201 376.644275 283.216541 376.644275 
Q 267.734505 376.644275 258.692252 376.152224 
Q 249.65 375.660173 249.65 374.818706 
Q 249.65 373.97422 258.692252 373.482924 
Q 267.734505 372.990873 283.216541 372.990873 
Q 288.408201 372.990873 293.174969 373.057285 
Q 297.941736 373.122942 302.35 373.252747 
L 302.35 373.981012 
Q 297.901902 373.808945 293.586584 373.728949 
Q 289.271265 373.648953 284.504497 373.648953 
Q 275.953527 373.648953 271.053981 373.960636 
Q 266.167712 374.271564 266.167712 374.818706 
Q 266.167712 375.363584 271.053981 375.675267 
Q 275.953527 375.986195 284.504497 375.986195 
Q 289.271265 375.986195 293.586584 375.906199 
Q 297.901902 375.825448 302.35 375.653381 
L 302.35 376.382401 
z
" clip-path="url(#p90541cddb2)" style="fill: #6b296b"/>
   </g>
   <g id="patch_30">
    <path d="M 249.65 365.242253 
L 301.253077 365.242253 
L 301.253077 366.696431 
L 268.774615 366.696431 
L 268.774615 368.083494 
L 299.329487 368.083494 
L 299.329487 369.537673 
L 268.774615 369.537673 
L 268.774615 371.245933 
L 302.35 371.245933 
L 302.35 372.698513 
L 249.65 372.698513 
L 249.65 365.242253 
z
" clip-path="url(#p90541cddb2)" style="fill: #6b296b"/>
   </g>
   <g id="patch_31">
    <path d="M 277.405333 363.725348 
L 276.373292 363.725348 
Q 263.714313 363.725348 256.676667 362.883716 
Q 249.65 362.040762 249.65 360.538508 
Q 249.65 359.038896 256.665687 358.189337 
Q 263.681375 357.338456 276 357.338456 
Q 288.450375 357.338456 295.400188 358.181409 
Q 302.35 359.023042 302.35 360.538508 
Q 302.35 361.578327 298.661 362.330115 
Q 294.972 363.081902 288.044146 363.461099 
L 298.364562 364.848405 
L 285.771458 364.848405 
L 277.405333 363.725348 
z
M 276 358.49058 
Q 269.961458 358.49058 266.634771 359.027005 
Q 263.308083 359.56343 263.308083 360.538508 
Q 263.308083 361.529441 266.557917 362.056617 
Q 269.818729 362.582472 276 362.582472 
Q 282.071479 362.582472 285.398167 362.046047 
Q 288.724854 361.508301 288.724854 360.538508 
Q 288.724854 359.56343 285.398167 359.027005 
Q 282.071479 358.49058 276 358.49058 
z
" clip-path="url(#p90541cddb2)" style="fill: #40ba47"/>
   </g>
   <g id="patch_32">
    <path d="M 249.65 341.712283 
L 263.537864 341.712283 
L 263.537864 347.199016 
L 283.555783 341.712283 
L 299.683253 341.712283 
L 273.743078 348.83247 
L 302.35 356.745222 
L 284.964195 356.745222 
L 263.537864 350.823545 
L 263.537864 356.745222 
L 249.65 356.745222 
L 249.65 341.712283 
z
" clip-path="url(#p90541cddb2)" style="fill: #bd2e1f"/>
   </g>
   <g id="patch_33">
    <path d="M 249.65 322.071973 
L 268.774615 322.071973 
L 268.774615 337.170227 
L 302.35 337.170227 
L 302.35 340.823225 
L 249.65 340.823225 
L 249.65 322.071973 
z
" clip-path="url(#p90541cddb2)" style="fill: #21599c"/>
   </g>
   <g id="patch_34">
    <path d="M 311.65 60.156 
L 363.253077 60.156 
L 363.253077 121.786364 
L 330.774615 121.786364 
L 330.774615 180.57225 
L 361.329487 180.57225 
L 361.329487 242.202615 
L 330.774615 242.202615 
L 330.774615 314.601361 
L 364.35 314.601361 
L 364.35 376.164 
L 311.65 376.164 
L 311.65 60.156 
z
" clip-path="url(#p90541cddb2)" style="fill: #6b296b"/>
   </g>
   <g id="patch_35">
    <path d="M 374.198462 382.690446 
L 425.801538 382.690446 
L 425.801538 383.030509 
L 393.323077 383.030509 
L 393.323077 383.354878 
L 423.877949 383.354878 
L 423.877949 383.694942 
L 393.323077 383.694942 
L 393.323077 384.434114 
L 374.198462 384.434114 
L 374.198462 382.690446 
z
" clip-path="url(#p90541cddb2)" style="fill: #21599c"/>
   </g>
   <g id="patch_36">
    <path d="M 373.65 377.744128 
L 388.22 377.744128 
L 399.988929 379.445898 
L 411.746786 377.744128 
L 426.35 377.744128 
L 406.665 380.507074 
L 406.665 382.518907 
L 393.346071 382.518907 
L 393.346071 380.507074 
L 373.65 377.744128 
z
" clip-path="url(#p90541cddb2)" style="fill: #177875"/>
   </g>
   <g id="patch_37">
    <path d="M 390.437692 371.147074 
L 409.562308 371.147074 
L 409.562308 377.452542 
L 390.437692 377.452542 
L 390.437692 371.147074 
z
" clip-path="url(#p90541cddb2)" style="fill: #21599c"/>
   </g>
   <g id="patch_38">
    <path d="M 373.65 362.379188 
L 426.35 362.379188 
L 426.35 364.013793 
L 407.390256 364.013793 
L 407.390256 370.760578 
L 392.646512 370.760578 
L 392.646512 364.013793 
L 373.65 364.013793 
L 373.65 362.379188 
z
" clip-path="url(#p90541cddb2)" style="fill: #40ba47"/>
   </g>
   <g id="patch_39">
    <path d="M 373.65 345.215532 
L 389.195992 345.215532 
L 399.979692 354.050104 
L 410.83447 345.215532 
L 426.35 345.215532 
L 426.35 361.724187 
L 414.80474 361.724187 
L 414.80474 349.648739 
L 403.889037 358.550535 
L 396.141426 358.550535 
L 385.225723 349.648739 
L 385.225723 361.724187 
L 373.65 361.724187 
L 373.65 345.215532 
z
" clip-path="url(#p90541cddb2)" style="fill: #21599c"/>
   </g>
   <g id="patch_40">
    <path d="M 373.65 317.76734 
L 386.68762 317.76734 
L 400.016162 337.195082 
L 413.323155 317.76734 
L 426.35 317.76734 
L 407.730985 344.088433 
L 392.269015 344.088433 
L 373.65 317.76734 
z
" clip-path="url(#p90541cddb2)" style="fill: #21599c"/>
   </g>
   <g id="patch_41">
    <path d="M 373.65 287.242551 
L 392.774615 287.242551 
L 392.774615 310.647069 
L 426.35 310.647069 
L 426.35 316.309754 
L 373.65 316.309754 
L 373.65 287.242551 
z
" clip-path="url(#p90541cddb2)" style="fill: #21599c"/>
   </g>
   <g id="patch_42">
    <path d="M 463.405333 384.437129 
L 462.373292 384.437129 
Q 449.714313 384.437129 442.676667 384.409809 
Q 435.65 384.382446 435.65 384.333681 
Q 435.65 384.285002 442.665687 384.257424 
Q 449.681375 384.229804 462 384.229804 
Q 474.450375 384.229804 481.400187 384.257167 
Q 488.35 384.284487 488.35 384.333681 
Q 488.35 384.367434 484.661 384.391838 
Q 480.972 384.416242 474.044146 384.428551 
L 484.364562 384.473585 
L 471.771458 384.473585 
L 463.405333 384.437129 
z
M 462 384.267203 
Q 455.961458 384.267203 452.634771 384.284616 
Q 449.308083 384.302029 449.308083 384.333681 
Q 449.308083 384.365848 452.557917 384.38296 
Q 455.818729 384.40003 462 384.40003 
Q 468.071479 384.40003 471.398167 384.382617 
Q 474.724854 384.365161 474.724854 384.333681 
Q 474.724854 384.302029 471.398167 384.284616 
Q 468.071479 384.267203 462 384.267203 
z
" clip-path="url(#p90541cddb2)" style="fill: #40ba47"/>
   </g>
   <g id="patch_43">
    <path d="M 452.437692 383.767359 
L 471.562308 383.767359 
L 471.562308 384.211695 
L 452.437692 384.211695 
L 452.437692 383.767359 
z
" clip-path="url(#p90541cddb2)" style="fill: #21599c"/>
   </g>
   <g id="patch_44">
    <path d="M 436.198462 383.04503 
L 487.801538 383.04503 
L 487.801538 383.18007 
L 455.323077 383.18007 
L 455.323077 383.308878 
L 485.877949 383.308878 
L 485.877949 383.443918 
L 455.323077 383.443918 
L 455.323077 383.737445 
L 436.198462 383.737445 
L 436.198462 383.04503 
z
" clip-path="url(#p90541cddb2)" style="fill: #21599c"/>
   </g>
   <g id="patch_45">
    <path d="M 435.65 380.927436 
L 450.22 380.927436 
L 461.988929 381.656484 
L 473.746786 380.927436 
L 488.35 380.927436 
L 468.665 382.111097 
L 468.665 382.972978 
L 455.346071 382.972978 
L 455.346071 382.111097 
L 435.65 380.927436 
z
" clip-path="url(#p90541cddb2)" style="fill: #177875"/>
   </g>
   <g id="patch_46">
    <path d="M 435.65 377.403412 
L 488.35 377.403412 
L 488.35 378.062843 
L 469.390256 378.062843 
L 469.390256 380.784627 
L 454.646512 380.784627 
L 454.646512 378.062843 
L 435.65 378.062843 
L 435.65 377.403412 
z
" clip-path="url(#p90541cddb2)" style="fill: #40ba47"/>
   </g>
   <g id="patch_47">
    <path d="M 435.65 373.570316 
L 450.813382 373.570316 
L 450.813382 374.960446 
L 473.186618 374.960446 
L 473.186618 373.570316 
L 488.35 373.570316 
L 488.35 377.21843 
L 473.186618 377.21843 
L 473.186618 375.67193 
L 450.813382 375.67193 
L 450.813382 377.21843 
L 435.65 377.21843 
L 435.65 373.570316 
z
" clip-path="url(#p90541cddb2)" style="fill: #177875"/>
   </g>
   <g id="patch_48">
    <path d="M 488.35 373.101647 
Q 483.941736 373.236763 479.174969 373.305107 
Q 474.408201 373.374237 469.216541 373.374237 
Q 453.734505 373.374237 444.692252 372.86205 
Q 435.65 372.349863 435.65 371.47396 
Q 435.65 370.594915 444.692252 370.083514 
Q 453.734505 369.571327 469.216541 369.571327 
Q 474.408201 369.571327 479.174969 369.640456 
Q 483.941736 369.7088 488.35 369.843917 
L 488.35 370.601985 
Q 483.901902 370.422877 479.586584 370.339607 
Q 475.271265 370.256338 470.504497 370.256338 
Q 461.953527 370.256338 457.053981 370.580775 
Q 452.167712 370.904427 452.167712 371.47396 
Q 452.167712 372.041137 457.053981 372.365574 
Q 461.953527 372.689226 470.504497 372.689226 
Q 475.271265 372.689226 479.586584 372.605956 
Q 483.901902 372.521901 488.35 372.342793 
L 488.35 373.101647 
z
" clip-path="url(#p90541cddb2)" style="fill: #6b296b"/>
   </g>
   <g id="patch_49">
    <path d="M 488.35 368.994581 
Q 483.035119 369.179214 477.318669 369.271952 
Q 471.602219 369.363847 465.507822 369.363847 
Q 451.736374 369.363847 443.693187 368.814163 
Q 435.65 368.264479 435.65 367.324452 
Q 435.65 366.373465 443.834917 365.827996 
Q 452.031645 365.282528 466.287338 365.282528 
Q 471.779381 365.282528 476.810802 365.356718 
Q 481.854034 365.430066 486.318534 365.575074 
L 486.318534 366.38864 
Q 481.712304 366.202321 477.153317 366.110426 
Q 472.59433 366.017688 468.011721 366.017688 
Q 459.531533 366.017688 454.937113 366.356604 
Q 450.342694 366.694676 450.342694 367.324452 
Q 450.342694 367.948326 454.771762 368.288928 
Q 459.200829 368.628687 467.350314 368.628687 
Q 469.570753 368.628687 471.472299 368.609296 
Q 473.373846 368.589062 474.885634 368.546909 
L 474.885634 367.783084 
L 466.204662 367.783084 
L 466.204662 367.102724 
L 488.35 367.102724 
L 488.35 368.994581 
z
" clip-path="url(#p90541cddb2)" style="fill: #787800"/>
   </g>
   <g id="patch_50">
    <path d="M 435.65 360.520623 
L 487.253077 360.520623 
L 487.253077 361.405105 
L 454.774615 361.405105 
L 454.774615 362.248764 
L 485.329487 362.248764 
L 485.329487 363.133246 
L 454.774615 363.133246 
L 454.774615 364.172269 
L 488.35 364.172269 
L 488.35 365.055779 
L 435.65 365.055779 
L 435.65 360.520623 
z
" clip-path="url(#p90541cddb2)" style="fill: #6b296b"/>
   </g>
   <g id="patch_51">
    <path d="M 472.155336 358.710741 
L 451.887763 358.710741 
L 448.68762 360.187891 
L 435.65 360.187891 
L 454.269015 352.079207 
L 469.730985 352.079207 
L 488.35 360.187891 
L 475.323155 360.187891 
L 472.155336 358.710741 
z
M 455.120231 357.205786 
L 468.890544 357.205786 
L 462.016162 353.980386 
L 455.120231 357.205786 
z
" clip-path="url(#p90541cddb2)" style="fill: #21599c"/>
   </g>
   <g id="patch_52">
    <path d="M 435.65 340.41222 
L 449.537864 340.41222 
L 449.537864 344.485375 
L 469.555783 340.41222 
L 485.683253 340.41222 
L 459.743078 345.697994 
L 488.35 351.572138 
L 470.964195 351.572138 
L 449.537864 347.176097 
L 449.537864 351.572138 
L 435.65 351.572138 
L 435.65 340.41222 
z
" clip-path="url(#p90541cddb2)" style="fill: #bd2e1f"/>
   </g>
   <g id="patch_53">
    <path d="M 497.65 384.414612 
L 512.22 384.414612 
L 523.988929 384.43732 
L 535.746786 384.414612 
L 550.35 384.414612 
L 530.665 384.451479 
L 530.665 384.478323 
L 517.346071 384.478323 
L 517.346071 384.451479 
L 497.65 384.414612 
z
" clip-path="url(#p90541cddb2)" style="fill: #177875"/>
   </g>
   <g id="patch_54">
    <path d="M 514.437692 384.176928 
L 533.562308 384.176928 
L 533.562308 384.406884 
L 514.437692 384.406884 
L 514.437692 384.176928 
z
" clip-path="url(#p90541cddb2)" style="fill: #21599c"/>
   </g>
   <g id="patch_55">
    <path d="M 497.65 383.59163 
L 513.195992 383.59163 
L 523.979692 383.893664 
L 534.83447 383.59163 
L 550.35 383.59163 
L 550.35 384.156024 
L 538.80474 384.156024 
L 538.80474 383.743191 
L 527.889037 384.047524 
L 520.141426 384.047524 
L 509.225723 383.743191 
L 509.225723 384.156024 
L 497.65 384.156024 
L 497.65 383.59163 
z
" clip-path="url(#p90541cddb2)" style="fill: #21599c"/>
   </g>
   <g id="patch_56">
    <path d="M 550.35 383.515221 
Q 545.941736 383.537539 541.174969 383.548828 
Q 536.408201 383.560247 531.216541 383.560247 
Q 515.734505 383.560247 506.692252 383.475645 
Q 497.65 383.391044 497.65 383.246365 
Q 497.65 383.101167 506.692252 383.016695 
Q 515.734505 382.932093 531.216541 382.932093 
Q 536.408201 382.932093 541.174969 382.943512 
Q 545.941736 382.954801 550.35 382.977119 
L 550.35 383.102334 
Q 545.901902 383.07275 541.586584 383.058996 
Q 537.271265 383.045241 532.504497 383.045241 
Q 523.953527 383.045241 519.053981 383.098831 
Q 514.167712 383.152291 514.167712 383.246365 
Q 514.167712 383.340049 519.053981 383.393639 
Q 523.953527 383.447099 532.504497 383.447099 
Q 537.271265 383.447099 541.586584 383.433344 
Q 545.901902 383.41946 550.35 383.389876 
L 550.35 383.515221 
z
" clip-path="url(#p90541cddb2)" style="fill: #6b296b"/>
   </g>
   <g id="patch_57">
    <path d="M 497.65 381.98434 
L 514.578032 381.98434 
L 535.968106 382.606608 
L 535.968106 381.98434 
L 550.35 381.98434 
L 550.35 382.891685 
L 533.409364 382.891685 
L 512.01929 382.269417 
L 512.01929 382.891685 
L 497.65 382.891685 
L 497.65 381.98434 
z
" clip-path="url(#p90541cddb2)" style="fill: #40ba47"/>
   </g>
   <g id="patch_58">
    <path d="M 534.155336 381.661395 
L 513.887763 381.661395 
L 510.68762 381.922713 
L 497.65 381.922713 
L 516.269015 380.488233 
L 531.730985 380.488233 
L 550.35 381.922713 
L 537.323155 381.922713 
L 534.155336 381.661395 
z
M 517.120231 381.395159 
L 530.890544 381.395159 
L 524.016162 380.824564 
L 517.120231 381.395159 
z
" clip-path="url(#p90541cddb2)" style="fill: #21599c"/>
   </g>
   <g id="patch_59">
    <path d="M 497.65 376.61495 
L 512.813382 376.61495 
L 512.813382 378.039022 
L 535.186618 378.039022 
L 535.186618 376.61495 
L 550.35 376.61495 
L 550.35 380.352137 
L 535.186618 380.352137 
L 535.186618 378.767877 
L 512.813382 378.767877 
L 512.813382 380.352137 
L 497.65 380.352137 
L 497.65 376.61495 
z
" clip-path="url(#p90541cddb2)" style="fill: #177875"/>
   </g>
   <g id="patch_60">
    <path d="M 498.198462 370.865607 
L 549.801538 370.865607 
L 549.801538 371.93945 
L 517.323077 371.93945 
L 517.323077 372.96373 
L 547.877949 372.96373 
L 547.877949 374.037573 
L 517.323077 374.037573 
L 517.323077 376.371706 
L 498.198462 376.371706 
L 498.198462 370.865607 
z
" clip-path="url(#p90541cddb2)" style="fill: #21599c"/>
   </g>
   <g id="patch_61">
    <path d="M 525.405333 369.442729 
L 524.373292 369.442729 
Q 511.714313 369.442729 504.676667 368.628312 
Q 497.65 367.812617 497.65 366.358941 
Q 497.65 364.907822 504.665687 364.085734 
Q 511.681375 363.262368 524 363.262368 
Q 536.450375 363.262368 543.400187 364.078063 
Q 550.35 364.89248 550.35 366.358941 
Q 550.35 367.365136 546.661 368.092613 
Q 542.972 368.82009 536.044146 369.187025 
L 546.364562 370.52947 
L 533.771458 370.52947 
L 525.405333 369.442729 
z
M 524 364.377236 
Q 517.961458 364.377236 514.634771 364.896315 
Q 511.308083 365.415394 511.308083 366.358941 
Q 511.308083 367.31783 514.557917 367.827959 
Q 517.818729 368.33681 524 368.33681 
Q 530.071479 368.33681 533.398167 367.817731 
Q 536.724854 367.297374 536.724854 366.358941 
Q 536.724854 365.415394 533.398167 364.896315 
Q 530.071479 364.377236 524 364.377236 
z
" clip-path="url(#p90541cddb2)" style="fill: #40ba47"/>
   </g>
   <g id="patch_62">
    <path d="M 497.65 344.827017 
L 511.537864 344.827017 
L 511.537864 351.315029 
L 531.555783 344.827017 
L 547.683253 344.827017 
L 521.743078 353.246574 
L 550.35 362.603331 
L 532.964195 362.603331 
L 511.537864 355.601002 
L 511.537864 362.603331 
L 497.65 362.603331 
L 497.65 344.827017 
z
" clip-path="url(#p90541cddb2)" style="fill: #bd2e1f"/>
   </g>
   <g id="patch_63">
    <path d="M 559.65 384.053587 
L 576.578032 384.053587 
L 597.968106 384.338528 
L 597.968106 384.053587 
L 612.35 384.053587 
L 612.35 384.469066 
L 595.409364 384.469066 
L 574.01929 384.184126 
L 574.01929 384.469066 
L 559.65 384.469066 
L 559.65 384.053587 
z
" clip-path="url(#p90541cddb2)" style="fill: #40ba47"/>
   </g>
   <g id="patch_64">
    <path d="M 560.198462 382.739471 
L 611.801538 382.739471 
L 611.801538 382.987111 
L 579.323077 382.987111 
L 579.323077 383.223322 
L 609.877949 383.223322 
L 609.877949 383.470962 
L 579.323077 383.470962 
L 579.323077 384.009239 
L 560.198462 384.009239 
L 560.198462 382.739471 
z
" clip-path="url(#p90541cddb2)" style="fill: #21599c"/>
   </g>
   <g id="patch_65">
    <path d="M 587.405333 381.958404 
L 586.373292 381.958404 
Q 573.714313 381.958404 566.676667 381.481949 
Q 559.65 381.004747 559.65 380.154308 
Q 559.65 379.305366 566.665687 378.824423 
Q 573.681375 378.342733 586 378.342733 
Q 598.450375 378.342733 605.400187 378.819936 
Q 612.35 379.29639 612.35 380.154308 
Q 612.35 380.742958 608.661 381.168551 
Q 604.972 381.594145 598.044146 381.808811 
L 608.364562 382.594176 
L 595.771458 382.594176 
L 587.405333 381.958404 
z
M 586 378.99496 
Q 579.961458 378.99496 576.634771 379.298634 
Q 573.308083 379.602309 573.308083 380.154308 
Q 573.308083 380.715284 576.557917 381.013722 
Q 579.818729 381.311413 586 381.311413 
Q 592.071479 381.311413 595.398167 381.007739 
Q 598.724854 380.703316 598.724854 380.154308 
Q 598.724854 379.602309 595.398167 379.298634 
Q 592.071479 378.99496 586 378.99496 
z
" clip-path="url(#p90541cddb2)" style="fill: #40ba47"/>
   </g>
   <g id="patch_66">
    <path d="M 559.65 373.365067 
L 574.22 373.365067 
L 585.988929 375.054805 
L 597.746786 373.365067 
L 612.35 373.365067 
L 592.665 376.108479 
L 592.665 378.106089 
L 579.346071 378.106089 
L 579.346071 376.108479 
L 559.65 373.365067 
z
" clip-path="url(#p90541cddb2)" style="fill: #177875"/>
   </g>
   <g id="patch_67">
    <path d="M 559.65 367.635168 
L 578.774615 367.635168 
L 578.774615 372.032624 
L 612.35 372.032624 
L 612.35 373.096582 
L 559.65 373.096582 
L 559.65 367.635168 
z
" clip-path="url(#p90541cddb2)" style="fill: #21599c"/>
   </g>
   <g id="patch_68">
    <path d="M 559.65 361.339979 
L 575.195992 361.339979 
L 585.979692 364.547515 
L 596.83447 361.339979 
L 612.35 361.339979 
L 612.35 367.333716 
L 600.80474 367.333716 
L 600.80474 362.949528 
L 589.889037 366.18147 
L 582.141426 366.18147 
L 571.225723 362.949528 
L 571.225723 367.333716 
L 559.65 367.333716 
L 559.65 361.339979 
z
" clip-path="url(#p90541cddb2)" style="fill: #21599c"/>
   </g>
   <g id="patch_69">
    <path d="M 559.65 352.581417 
L 572.68762 352.581417 
L 586.016162 358.766961 
L 599.323155 352.581417 
L 612.35 352.581417 
L 593.730985 360.961715 
L 578.269015 360.961715 
L 559.65 352.581417 
z
" clip-path="url(#p90541cddb2)" style="fill: #21599c"/>
   </g>
   <g id="patch_70">
    <path d="M 559.65 335.013105 
L 573.537864 335.013105 
L 573.537864 341.182361 
L 593.555783 335.013105 
L 609.683253 335.013105 
L 583.743078 343.019009 
L 612.35 351.916068 
L 594.964195 351.916068 
L 573.537864 345.257764 
L 573.537864 351.916068 
L 559.65 351.916068 
L 559.65 335.013105 
z
" clip-path="url(#p90541cddb2)" style="fill: #bd2e1f"/>
   </g>
   <g id="patch_71">
    <path d="M 576.437692 309.649787 
L 595.562308 309.649787 
L 595.562308 333.929355 
L 576.437692 333.929355 
L 576.437692 309.649787 
z
" clip-path="url(#p90541cddb2)" style="fill: #21599c"/>
   </g>
   <g id="matplotlib.axis_1">
    <g id="xtick_1">
     <g id="line2d_2">
      <defs>
       <path id="m385313e054" d="M 0 0 
L 0 4.8 
" style="stroke: #262626"/>
      </defs>
      <g>
       <use xlink:href="#m385313e054" x="152" y="384.48" style="fill: #262626; stroke: #262626"/>
      </g>
     </g>
     <g id="text_1">
      <!-- P4 -->
      <g style="fill: #262626" transform="translate(146.61825 399.078875) scale(0.088 -0.088)">
       <defs>
        <path id="ArialMT-50" d="M 494 0 
L 494 4581 
L 2222 4581 
Q 2678 4581 2919 4538 
Q 3256 4481 3484 4323 
Q 3713 4166 3852 3881 
Q 3991 3597 3991 3256 
Q 3991 2672 3619 2267 
Q 3247 1863 2275 1863 
L 1100 1863 
L 1100 0 
L 494 0 
z
M 1100 2403 
L 2284 2403 
Q 2872 2403 3119 2622 
Q 3366 2841 3366 3238 
Q 3366 3525 3220 3729 
Q 3075 3934 2838 4000 
Q 2684 4041 2272 4041 
L 1100 4041 
L 1100 2403 
z
" transform="scale(0.015625)"/>
        <path id="ArialMT-34" d="M 2069 0 
L 2069 1097 
L 81 1097 
L 81 1613 
L 2172 4581 
L 2631 4581 
L 2631 1613 
L 3250 1613 
L 3250 1097 
L 2631 1097 
L 2631 0 
L 2069 0 
z
M 2069 1613 
L 2069 3678 
L 634 1613 
L 2069 1613 
z
" transform="scale(0.015625)"/>
       </defs>
       <use xlink:href="#ArialMT-50"/>
       <use xlink:href="#ArialMT-34" x="66.699219"/>
      </g>
     </g>
    </g>
    <g id="xtick_2">
     <g id="line2d_3">
      <g>
       <use xlink:href="#m385313e054" x="214" y="384.48" style="fill: #262626; stroke: #262626"/>
      </g>
     </g>
     <g id="text_2">
      <!-- P3 -->
      <g style="fill: #262626" transform="translate(208.61825 399.078875) scale(0.088 -0.088)">
       <defs>
        <path id="ArialMT-33" d="M 269 1209 
L 831 1284 
Q 928 806 1161 595 
Q 1394 384 1728 384 
Q 2125 384 2398 659 
Q 2672 934 2672 1341 
Q 2672 1728 2419 1979 
Q 2166 2231 1775 2231 
Q 1616 2231 1378 2169 
L 1441 2663 
Q 1497 2656 1531 2656 
Q 1891 2656 2178 2843 
Q 2466 3031 2466 3422 
Q 2466 3731 2256 3934 
Q 2047 4138 1716 4138 
Q 1388 4138 1169 3931 
Q 950 3725 888 3313 
L 325 3413 
Q 428 3978 793 4289 
Q 1159 4600 1703 4600 
Q 2078 4600 2393 4439 
Q 2709 4278 2876 4000 
Q 3044 3722 3044 3409 
Q 3044 3113 2884 2869 
Q 2725 2625 2413 2481 
Q 2819 2388 3044 2092 
Q 3269 1797 3269 1353 
Q 3269 753 2831 336 
Q 2394 -81 1725 -81 
Q 1122 -81 723 278 
Q 325 638 269 1209 
z
" transform="scale(0.015625)"/>
       </defs>
       <use xlink:href="#ArialMT-50"/>
       <use xlink:href="#ArialMT-33" x="66.699219"/>
      </g>
     </g>
    </g>
    <g id="xtick_3">
     <g id="line2d_4">
      <g>
       <use xlink:href="#m385313e054" x="276" y="384.48" style="fill: #262626; stroke: #262626"/>
      </g>
     </g>
     <g id="text_3">
      <!-- P2 -->
      <g style="fill: #262626" transform="translate(270.61825 399.078875) scale(0.088 -0.088)">
       <defs>
        <path id="ArialMT-32" d="M 3222 541 
L 3222 0 
L 194 0 
Q 188 203 259 391 
Q 375 700 629 1000 
Q 884 1300 1366 1694 
Q 2113 2306 2375 2664 
Q 2638 3022 2638 3341 
Q 2638 3675 2398 3904 
Q 2159 4134 1775 4134 
Q 1369 4134 1125 3890 
Q 881 3647 878 3216 
L 300 3275 
Q 359 3922 746 4261 
Q 1134 4600 1788 4600 
Q 2447 4600 2831 4234 
Q 3216 3869 3216 3328 
Q 3216 3053 3103 2787 
Q 2991 2522 2730 2228 
Q 2469 1934 1863 1422 
Q 1356 997 1212 845 
Q 1069 694 975 541 
L 3222 541 
z
" transform="scale(0.015625)"/>
       </defs>
       <use xlink:href="#ArialMT-50"/>
       <use xlink:href="#ArialMT-32" x="66.699219"/>
      </g>
     </g>
    </g>
    <g id="xtick_4">
     <g id="line2d_5">
      <g>
       <use xlink:href="#m385313e054" x="338" y="384.48" style="fill: #262626; stroke: #262626"/>
      </g>
     </g>
     <g id="text_4">
      <!-- P1 -->
      <g style="fill: #262626" transform="translate(332.61825 399.078875) scale(0.088 -0.088)">
       <defs>
        <path id="ArialMT-31" d="M 2384 0 
L 1822 0 
L 1822 3584 
Q 1619 3391 1289 3197 
Q 959 3003 697 2906 
L 697 3450 
Q 1169 3672 1522 3987 
Q 1875 4303 2022 4600 
L 2384 4600 
L 2384 0 
z
" transform="scale(0.015625)"/>
       </defs>
       <use xlink:href="#ArialMT-50"/>
       <use xlink:href="#ArialMT-31" x="66.699219"/>
      </g>
     </g>
    </g>
    <g id="xtick_5">
     <g id="line2d_6">
      <g>
       <use xlink:href="#m385313e054" x="400" y="384.48" style="fill: #262626; stroke: #262626"/>
      </g>
     </g>
     <g id="text_5">
      <!-- P1' -->
      <g style="fill: #262626" transform="translate(393.778125 399.078875) scale(0.088 -0.088)">
       <defs>
        <path id="ArialMT-27" d="M 425 2959 
L 281 3816 
L 281 4581 
L 922 4581 
L 922 3816 
L 772 2959 
L 425 2959 
z
" transform="scale(0.015625)"/>
       </defs>
       <use xlink:href="#ArialMT-50"/>
       <use xlink:href="#ArialMT-31" x="66.699219"/>
       <use xlink:href="#ArialMT-27" x="122.314453"/>
      </g>
     </g>
    </g>
    <g id="xtick_6">
     <g id="line2d_7">
      <g>
       <use xlink:href="#m385313e054" x="462" y="384.48" style="fill: #262626; stroke: #262626"/>
      </g>
     </g>
     <g id="text_6">
      <!-- P2' -->
      <g style="fill: #262626" transform="translate(455.778125 399.078875) scale(0.088 -0.088)">
       <use xlink:href="#ArialMT-50"/>
       <use xlink:href="#ArialMT-32" x="66.699219"/>
       <use xlink:href="#ArialMT-27" x="122.314453"/>
      </g>
     </g>
    </g>
    <g id="xtick_7">
     <g id="line2d_8">
      <g>
       <use xlink:href="#m385313e054" x="524" y="384.48" style="fill: #262626; stroke: #262626"/>
      </g>
     </g>
     <g id="text_7">
      <!-- P3' -->
      <g style="fill: #262626" transform="translate(517.778125 399.078875) scale(0.088 -0.088)">
       <use xlink:href="#ArialMT-50"/>
       <use xlink:href="#ArialMT-33" x="66.699219"/>
       <use xlink:href="#ArialMT-27" x="122.314453"/>
      </g>
     </g>
    </g>
    <g id="xtick_8">
     <g id="line2d_9">
      <g>
       <use xlink:href="#m385313e054" x="586" y="384.48" style="fill: #262626; stroke: #262626"/>
      </g>
     </g>
     <g id="text_8">
      <!-- P4' -->
      <g style="fill: #262626" transform="translate(579.778125 399.078875) scale(0.088 -0.088)">
       <use xlink:href="#ArialMT-50"/>
       <use xlink:href="#ArialMT-34" x="66.699219"/>
       <use xlink:href="#ArialMT-27" x="122.314453"/>
      </g>
     </g>
    </g>
   </g>
   <g id="matplotlib.axis_2">
    <g id="ytick_1">
     <g id="line2d_10">
      <defs>
       <path id="mf472c8f413" d="M 0 0 
L -4.8 0 
" style="stroke: #262626"/>
      </defs>
      <g>
       <use xlink:href="#mf472c8f413" x="90" y="384.48" style="fill: #262626; stroke: #262626"/>
      </g>
     </g>
     <g id="text_9">
      <!-- 0.0 -->
      <g style="fill: #262626" transform="translate(69.468 387.629437) scale(0.088 -0.088)">
       <defs>
        <path id="ArialMT-30" d="M 266 2259 
Q 266 3072 433 3567 
Q 600 4063 929 4331 
Q 1259 4600 1759 4600 
Q 2128 4600 2406 4451 
Q 2684 4303 2865 4023 
Q 3047 3744 3150 3342 
Q 3253 2941 3253 2259 
Q 3253 1453 3087 958 
Q 2922 463 2592 192 
Q 2263 -78 1759 -78 
Q 1097 -78 719 397 
Q 266 969 266 2259 
z
M 844 2259 
Q 844 1131 1108 757 
Q 1372 384 1759 384 
Q 2147 384 2411 759 
Q 2675 1134 2675 2259 
Q 2675 3391 2411 3762 
Q 2147 4134 1753 4134 
Q 1366 4134 1134 3806 
Q 844 3388 844 2259 
z
" transform="scale(0.015625)"/>
        <path id="ArialMT-2e" d="M 581 0 
L 581 641 
L 1222 641 
L 1222 0 
L 581 0 
z
" transform="scale(0.015625)"/>
       </defs>
       <use xlink:href="#ArialMT-30"/>
       <use xlink:href="#ArialMT-2e" x="55.615234"/>
       <use xlink:href="#ArialMT-30" x="83.398438"/>
      </g>
     </g>
    </g>
    <g id="ytick_2">
     <g id="line2d_11">
      <g>
       <use xlink:href="#mf472c8f413" x="90" y="312.981082" style="fill: #262626; stroke: #262626"/>
      </g>
     </g>
     <g id="text_10">
      <!-- 0.5 -->
      <g style="fill: #262626" transform="translate(69.468 316.13052) scale(0.088 -0.088)">
       <defs>
        <path id="ArialMT-35" d="M 266 1200 
L 856 1250 
Q 922 819 1161 601 
Q 1400 384 1738 384 
Q 2144 384 2425 690 
Q 2706 997 2706 1503 
Q 2706 1984 2436 2262 
Q 2166 2541 1728 2541 
Q 1456 2541 1237 2417 
Q 1019 2294 894 2097 
L 366 2166 
L 809 4519 
L 3088 4519 
L 3088 3981 
L 1259 3981 
L 1013 2750 
Q 1425 3038 1878 3038 
Q 2478 3038 2890 2622 
Q 3303 2206 3303 1553 
Q 3303 931 2941 478 
Q 2500 -78 1738 -78 
Q 1113 -78 717 272 
Q 322 622 266 1200 
z
" transform="scale(0.015625)"/>
       </defs>
       <use xlink:href="#ArialMT-30"/>
       <use xlink:href="#ArialMT-2e" x="55.615234"/>
       <use xlink:href="#ArialMT-35" x="83.398438"/>
      </g>
     </g>
    </g>
    <g id="ytick_3">
     <g id="line2d_12">
      <g>
       <use xlink:href="#mf472c8f413" x="90" y="241.482164" style="fill: #262626; stroke: #262626"/>
      </g>
     </g>
     <g id="text_11">
      <!-- 1.0 -->
      <g style="fill: #262626" transform="translate(69.468 244.631602) scale(0.088 -0.088)">
       <use xlink:href="#ArialMT-31"/>
       <use xlink:href="#ArialMT-2e" x="55.615234"/>
       <use xlink:href="#ArialMT-30" x="83.398438"/>
      </g>
     </g>
    </g>
    <g id="ytick_4">
     <g id="line2d_13">
      <g>
       <use xlink:href="#mf472c8f413" x="90" y="169.983246" style="fill: #262626; stroke: #262626"/>
      </g>
     </g>
     <g id="text_12">
      <!-- 1.5 -->
      <g style="fill: #262626" transform="translate(69.468 173.132684) scale(0.088 -0.088)">
       <use xlink:href="#ArialMT-31"/>
       <use xlink:href="#ArialMT-2e" x="55.615234"/>
       <use xlink:href="#ArialMT-35" x="83.398438"/>
      </g>
     </g>
    </g>
    <g id="ytick_5">
     <g id="line2d_14">
      <g>
       <use xlink:href="#mf472c8f413" x="90" y="98.484329" style="fill: #262626; stroke: #262626"/>
      </g>
     </g>
     <g id="text_13">
      <!-- 2.0 -->
      <g style="fill: #262626" transform="translate(69.468 101.633766) scale(0.088 -0.088)">
       <use xlink:href="#ArialMT-32"/>
       <use xlink:href="#ArialMT-2e" x="55.615234"/>
       <use xlink:href="#ArialMT-30" x="83.398438"/>
      </g>
     </g>
    </g>
    <g id="text_14">
     <!-- information (bits) -->
     <g style="fill: #262626" transform="translate(63.4475 253.902) rotate(-90) scale(0.096 -0.096)">
      <defs>
       <path id="ArialMT-69" d="M 425 3934 
L 425 4581 
L 988 4581 
L 988 3934 
L 425 3934 
z
M 425 0 
L 425 3319 
L 988 3319 
L 988 0 
L 425 0 
z
" transform="scale(0.015625)"/>
       <path id="ArialMT-6e" d="M 422 0 
L 422 3319 
L 928 3319 
L 928 2847 
Q 1294 3394 1984 3394 
Q 2284 3394 2536 3286 
Q 2788 3178 2913 3003 
Q 3038 2828 3088 2588 
Q 3119 2431 3119 2041 
L 3119 0 
L 2556 0 
L 2556 2019 
Q 2556 2363 2490 2533 
Q 2425 2703 2258 2804 
Q 2091 2906 1866 2906 
Q 1506 2906 1245 2678 
Q 984 2450 984 1813 
L 984 0 
L 422 0 
z
" transform="scale(0.015625)"/>
       <path id="ArialMT-66" d="M 556 0 
L 556 2881 
L 59 2881 
L 59 3319 
L 556 3319 
L 556 3672 
Q 556 4006 616 4169 
Q 697 4388 901 4523 
Q 1106 4659 1475 4659 
Q 1713 4659 2000 4603 
L 1916 4113 
Q 1741 4144 1584 4144 
Q 1328 4144 1222 4034 
Q 1116 3925 1116 3625 
L 1116 3319 
L 1763 3319 
L 1763 2881 
L 1116 2881 
L 1116 0 
L 556 0 
z
" transform="scale(0.015625)"/>
       <path id="ArialMT-6f" d="M 213 1659 
Q 213 2581 725 3025 
Q 1153 3394 1769 3394 
Q 2453 3394 2887 2945 
Q 3322 2497 3322 1706 
Q 3322 1066 3130 698 
Q 2938 331 2570 128 
Q 2203 -75 1769 -75 
Q 1072 -75 642 372 
Q 213 819 213 1659 
z
M 791 1659 
Q 791 1022 1069 705 
Q 1347 388 1769 388 
Q 2188 388 2466 706 
Q 2744 1025 2744 1678 
Q 2744 2294 2464 2611 
Q 2184 2928 1769 2928 
Q 1347 2928 1069 2612 
Q 791 2297 791 1659 
z
" transform="scale(0.015625)"/>
       <path id="ArialMT-72" d="M 416 0 
L 416 3319 
L 922 3319 
L 922 2816 
Q 1116 3169 1280 3281 
Q 1444 3394 1641 3394 
Q 1925 3394 2219 3213 
L 2025 2691 
Q 1819 2813 1613 2813 
Q 1428 2813 1281 2702 
Q 1134 2591 1072 2394 
Q 978 2094 978 1738 
L 978 0 
L 416 0 
z
" transform="scale(0.015625)"/>
       <path id="ArialMT-6d" d="M 422 0 
L 422 3319 
L 925 3319 
L 925 2853 
Q 1081 3097 1340 3245 
Q 1600 3394 1931 3394 
Q 2300 3394 2536 3241 
Q 2772 3088 2869 2813 
Q 3263 3394 3894 3394 
Q 4388 3394 4653 3120 
Q 4919 2847 4919 2278 
L 4919 0 
L 4359 0 
L 4359 2091 
Q 4359 2428 4304 2576 
Q 4250 2725 4106 2815 
Q 3963 2906 3769 2906 
Q 3419 2906 3187 2673 
Q 2956 2441 2956 1928 
L 2956 0 
L 2394 0 
L 2394 2156 
Q 2394 2531 2256 2718 
Q 2119 2906 1806 2906 
Q 1569 2906 1367 2781 
Q 1166 2656 1075 2415 
Q 984 2175 984 1722 
L 984 0 
L 422 0 
z
" transform="scale(0.015625)"/>
       <path id="ArialMT-61" d="M 2588 409 
Q 2275 144 1986 34 
Q 1697 -75 1366 -75 
Q 819 -75 525 192 
Q 231 459 231 875 
Q 231 1119 342 1320 
Q 453 1522 633 1644 
Q 813 1766 1038 1828 
Q 1203 1872 1538 1913 
Q 2219 1994 2541 2106 
Q 2544 2222 2544 2253 
Q 2544 2597 2384 2738 
Q 2169 2928 1744 2928 
Q 1347 2928 1158 2789 
Q 969 2650 878 2297 
L 328 2372 
Q 403 2725 575 2942 
Q 747 3159 1072 3276 
Q 1397 3394 1825 3394 
Q 2250 3394 2515 3294 
Q 2781 3194 2906 3042 
Q 3031 2891 3081 2659 
Q 3109 2516 3109 2141 
L 3109 1391 
Q 3109 606 3145 398 
Q 3181 191 3288 0 
L 2700 0 
Q 2613 175 2588 409 
z
M 2541 1666 
Q 2234 1541 1622 1453 
Q 1275 1403 1131 1340 
Q 988 1278 909 1158 
Q 831 1038 831 891 
Q 831 666 1001 516 
Q 1172 366 1500 366 
Q 1825 366 2078 508 
Q 2331 650 2450 897 
Q 2541 1088 2541 1459 
L 2541 1666 
z
" transform="scale(0.015625)"/>
       <path id="ArialMT-74" d="M 1650 503 
L 1731 6 
Q 1494 -44 1306 -44 
Q 1000 -44 831 53 
Q 663 150 594 308 
Q 525 466 525 972 
L 525 2881 
L 113 2881 
L 113 3319 
L 525 3319 
L 525 4141 
L 1084 4478 
L 1084 3319 
L 1650 3319 
L 1650 2881 
L 1084 2881 
L 1084 941 
Q 1084 700 1114 631 
Q 1144 563 1211 522 
Q 1278 481 1403 481 
Q 1497 481 1650 503 
z
" transform="scale(0.015625)"/>
       <path id="ArialMT-20" transform="scale(0.015625)"/>
       <path id="ArialMT-28" d="M 1497 -1347 
Q 1031 -759 709 28 
Q 388 816 388 1659 
Q 388 2403 628 3084 
Q 909 3875 1497 4659 
L 1900 4659 
Q 1522 4009 1400 3731 
Q 1209 3300 1100 2831 
Q 966 2247 966 1656 
Q 966 153 1900 -1347 
L 1497 -1347 
z
" transform="scale(0.015625)"/>
       <path id="ArialMT-62" d="M 941 0 
L 419 0 
L 419 4581 
L 981 4581 
L 981 2947 
Q 1338 3394 1891 3394 
Q 2197 3394 2470 3270 
Q 2744 3147 2920 2923 
Q 3097 2700 3197 2384 
Q 3297 2069 3297 1709 
Q 3297 856 2875 390 
Q 2453 -75 1863 -75 
Q 1275 -75 941 416 
L 941 0 
z
M 934 1684 
Q 934 1088 1097 822 
Q 1363 388 1816 388 
Q 2184 388 2453 708 
Q 2722 1028 2722 1663 
Q 2722 2313 2464 2622 
Q 2206 2931 1841 2931 
Q 1472 2931 1203 2611 
Q 934 2291 934 1684 
z
" transform="scale(0.015625)"/>
       <path id="ArialMT-73" d="M 197 991 
L 753 1078 
Q 800 744 1014 566 
Q 1228 388 1613 388 
Q 2000 388 2187 545 
Q 2375 703 2375 916 
Q 2375 1106 2209 1216 
Q 2094 1291 1634 1406 
Q 1016 1563 777 1677 
Q 538 1791 414 1992 
Q 291 2194 291 2438 
Q 291 2659 392 2848 
Q 494 3038 669 3163 
Q 800 3259 1026 3326 
Q 1253 3394 1513 3394 
Q 1903 3394 2198 3281 
Q 2494 3169 2634 2976 
Q 2775 2784 2828 2463 
L 2278 2388 
Q 2241 2644 2061 2787 
Q 1881 2931 1553 2931 
Q 1166 2931 1000 2803 
Q 834 2675 834 2503 
Q 834 2394 903 2306 
Q 972 2216 1119 2156 
Q 1203 2125 1616 2013 
Q 2213 1853 2448 1751 
Q 2684 1650 2818 1456 
Q 2953 1263 2953 975 
Q 2953 694 2789 445 
Q 2625 197 2315 61 
Q 2006 -75 1616 -75 
Q 969 -75 630 194 
Q 291 463 197 991 
z
" transform="scale(0.015625)"/>
       <path id="ArialMT-29" d="M 791 -1347 
L 388 -1347 
Q 1322 153 1322 1656 
Q 1322 2244 1188 2822 
Q 1081 3291 891 3722 
Q 769 4003 388 4659 
L 791 4659 
Q 1378 3875 1659 3084 
Q 1900 2403 1900 1659 
Q 1900 816 1576 28 
Q 1253 -759 791 -1347 
z
" transform="scale(0.015625)"/>
      </defs>
      <use xlink:href="#ArialMT-69"/>
      <use xlink:href="#ArialMT-6e" x="22.216797"/>
      <use xlink:href="#ArialMT-66" x="77.832031"/>
      <use xlink:href="#ArialMT-6f" x="105.615234"/>
      <use xlink:href="#ArialMT-72" x="161.230469"/>
      <use xlink:href="#ArialMT-6d" x="194.53125"/>
      <use xlink:href="#ArialMT-61" x="277.832031"/>
      <use xlink:href="#ArialMT-74" x="333.447266"/>
      <use xlink:href="#ArialMT-69" x="361.230469"/>
      <use xlink:href="#ArialMT-6f" x="383.447266"/>
      <use xlink:href="#ArialMT-6e" x="439.0625"/>
      <use xlink:href="#ArialMT-20" x="494.677734"/>
      <use xlink:href="#ArialMT-28" x="522.460938"/>
      <use xlink:href="#ArialMT-62" x="555.761719"/>
      <use xlink:href="#ArialMT-69" x="611.376953"/>
      <use xlink:href="#ArialMT-74" x="633.59375"/>
      <use xlink:href="#ArialMT-73" x="661.376953"/>
      <use xlink:href="#ArialMT-29" x="711.376953"/>
     </g>
    </g>
   </g>
   <g id="line2d_15">
    <path d="M 369 384.48 
L 369 51.84 
" clip-path="url(#p90541cddb2)" style="fill: none; stroke: #daa520; stroke-width: 2; stroke-linecap: round"/>
   </g>
   <g id="patch_72">
    <path d="M 90 384.48 
L 648 384.48 
" style="fill: none; stroke: #262626; stroke-linejoin: miter; stroke-linecap: square"/>
   </g>
   <g id="patch_73">
    <path d="M 90 51.84 
L 648 51.84 
" style="fill: none; stroke: #262626; stroke-linejoin: miter; stroke-linecap: square"/>
   </g>
   <g id="text_15">
    <!-- GluC vs. Ctrl information content, Kullback n=74 -->
    <g style="fill: #262626" transform="translate(266.691 45.84) scale(0.096 -0.096)">
     <defs>
      <path id="ArialMT-47" d="M 2638 1797 
L 2638 2334 
L 4578 2338 
L 4578 638 
Q 4131 281 3656 101 
Q 3181 -78 2681 -78 
Q 2006 -78 1454 211 
Q 903 500 622 1047 
Q 341 1594 341 2269 
Q 341 2938 620 3517 
Q 900 4097 1425 4378 
Q 1950 4659 2634 4659 
Q 3131 4659 3532 4498 
Q 3934 4338 4162 4050 
Q 4391 3763 4509 3300 
L 3963 3150 
Q 3859 3500 3706 3700 
Q 3553 3900 3268 4020 
Q 2984 4141 2638 4141 
Q 2222 4141 1919 4014 
Q 1616 3888 1430 3681 
Q 1244 3475 1141 3228 
Q 966 2803 966 2306 
Q 966 1694 1177 1281 
Q 1388 869 1791 669 
Q 2194 469 2647 469 
Q 3041 469 3416 620 
Q 3791 772 3984 944 
L 3984 1797 
L 2638 1797 
z
" transform="scale(0.015625)"/>
      <path id="ArialMT-6c" d="M 409 0 
L 409 4581 
L 972 4581 
L 972 0 
L 409 0 
z
" transform="scale(0.015625)"/>
      <path id="ArialMT-75" d="M 2597 0 
L 2597 488 
Q 2209 -75 1544 -75 
Q 1250 -75 995 37 
Q 741 150 617 320 
Q 494 491 444 738 
Q 409 903 409 1263 
L 409 3319 
L 972 3319 
L 972 1478 
Q 972 1038 1006 884 
Q 1059 663 1231 536 
Q 1403 409 1656 409 
Q 1909 409 2131 539 
Q 2353 669 2445 892 
Q 2538 1116 2538 1541 
L 2538 3319 
L 3100 3319 
L 3100 0 
L 2597 0 
z
" transform="scale(0.015625)"/>
      <path id="ArialMT-43" d="M 3763 1606 
L 4369 1453 
Q 4178 706 3683 314 
Q 3188 -78 2472 -78 
Q 1731 -78 1267 223 
Q 803 525 561 1097 
Q 319 1669 319 2325 
Q 319 3041 592 3573 
Q 866 4106 1370 4382 
Q 1875 4659 2481 4659 
Q 3169 4659 3637 4309 
Q 4106 3959 4291 3325 
L 3694 3184 
Q 3534 3684 3231 3912 
Q 2928 4141 2469 4141 
Q 1941 4141 1586 3887 
Q 1231 3634 1087 3207 
Q 944 2781 944 2328 
Q 944 1744 1114 1308 
Q 1284 872 1643 656 
Q 2003 441 2422 441 
Q 2931 441 3284 734 
Q 3638 1028 3763 1606 
z
" transform="scale(0.015625)"/>
      <path id="ArialMT-76" d="M 1344 0 
L 81 3319 
L 675 3319 
L 1388 1331 
Q 1503 1009 1600 663 
Q 1675 925 1809 1294 
L 2547 3319 
L 3125 3319 
L 1869 0 
L 1344 0 
z
" transform="scale(0.015625)"/>
      <path id="ArialMT-63" d="M 2588 1216 
L 3141 1144 
Q 3050 572 2676 248 
Q 2303 -75 1759 -75 
Q 1078 -75 664 370 
Q 250 816 250 1647 
Q 250 2184 428 2587 
Q 606 2991 970 3192 
Q 1334 3394 1763 3394 
Q 2303 3394 2647 3120 
Q 2991 2847 3088 2344 
L 2541 2259 
Q 2463 2594 2264 2762 
Q 2066 2931 1784 2931 
Q 1359 2931 1093 2626 
Q 828 2322 828 1663 
Q 828 994 1084 691 
Q 1341 388 1753 388 
Q 2084 388 2306 591 
Q 2528 794 2588 1216 
z
" transform="scale(0.015625)"/>
      <path id="ArialMT-65" d="M 2694 1069 
L 3275 997 
Q 3138 488 2766 206 
Q 2394 -75 1816 -75 
Q 1088 -75 661 373 
Q 234 822 234 1631 
Q 234 2469 665 2931 
Q 1097 3394 1784 3394 
Q 2450 3394 2872 2941 
Q 3294 2488 3294 1666 
Q 3294 1616 3291 1516 
L 816 1516 
Q 847 969 1125 678 
Q 1403 388 1819 388 
Q 2128 388 2347 550 
Q 2566 713 2694 1069 
z
M 847 1978 
L 2700 1978 
Q 2663 2397 2488 2606 
Q 2219 2931 1791 2931 
Q 1403 2931 1139 2672 
Q 875 2413 847 1978 
z
" transform="scale(0.015625)"/>
      <path id="ArialMT-2c" d="M 569 0 
L 569 641 
L 1209 641 
L 1209 0 
Q 1209 -353 1084 -570 
Q 959 -788 688 -906 
L 531 -666 
Q 709 -588 793 -436 
Q 878 -284 888 0 
L 569 0 
z
" transform="scale(0.015625)"/>
      <path id="ArialMT-4b" d="M 469 0 
L 469 4581 
L 1075 4581 
L 1075 2309 
L 3350 4581 
L 4172 4581 
L 2250 2725 
L 4256 0 
L 3456 0 
L 1825 2319 
L 1075 1588 
L 1075 0 
L 469 0 
z
" transform="scale(0.015625)"/>
      <path id="ArialMT-6b" d="M 425 0 
L 425 4581 
L 988 4581 
L 988 1969 
L 2319 3319 
L 3047 3319 
L 1778 2088 
L 3175 0 
L 2481 0 
L 1384 1697 
L 988 1316 
L 988 0 
L 425 0 
z
" transform="scale(0.015625)"/>
      <path id="ArialMT-3d" d="M 3381 2694 
L 356 2694 
L 356 3219 
L 3381 3219 
L 3381 2694 
z
M 3381 1303 
L 356 1303 
L 356 1828 
L 3381 1828 
L 3381 1303 
z
" transform="scale(0.015625)"/>
      <path id="ArialMT-37" d="M 303 3981 
L 303 4522 
L 3269 4522 
L 3269 4084 
Q 2831 3619 2401 2847 
Q 1972 2075 1738 1259 
Q 1569 684 1522 0 
L 944 0 
Q 953 541 1156 1306 
Q 1359 2072 1739 2783 
Q 2119 3494 2547 3981 
L 303 3981 
z
" transform="scale(0.015625)"/>
     </defs>
     <use xlink:href="#ArialMT-47"/>
     <use xlink:href="#ArialMT-6c" x="77.783203"/>
     <use xlink:href="#ArialMT-75" x="100"/>
     <use xlink:href="#ArialMT-43" x="155.615234"/>
     <use xlink:href="#ArialMT-20" x="227.832031"/>
     <use xlink:href="#ArialMT-76" x="255.615234"/>
     <use xlink:href="#ArialMT-73" x="305.615234"/>
     <use xlink:href="#ArialMT-2e" x="355.615234"/>
     <use xlink:href="#ArialMT-20" x="383.398438"/>
     <use xlink:href="#ArialMT-43" x="411.181641"/>
     <use xlink:href="#ArialMT-74" x="483.398438"/>
     <use xlink:href="#ArialMT-72" x="511.181641"/>
     <use xlink:href="#ArialMT-6c" x="544.482422"/>
     <use xlink:href="#ArialMT-20" x="566.699219"/>
     <use xlink:href="#ArialMT-69" x="594.482422"/>
     <use xlink:href="#ArialMT-6e" x="616.699219"/>
     <use xlink:href="#ArialMT-66" x="672.314453"/>
     <use xlink:href="#ArialMT-6f" x="700.097656"/>
     <use xlink:href="#ArialMT-72" x="755.712891"/>
     <use xlink:href="#ArialMT-6d" x="789.013672"/>
     <use xlink:href="#ArialMT-61" x="872.314453"/>
     <use xlink:href="#ArialMT-74" x="927.929688"/>
     <use xlink:href="#ArialMT-69" x="955.712891"/>
     <use xlink:href="#ArialMT-6f" x="977.929688"/>
     <use xlink:href="#ArialMT-6e" x="1033.544922"/>
     <use xlink:href="#ArialMT-20" x="1089.160156"/>
     <use xlink:href="#ArialMT-63" x="1116.943359"/>
     <use xlink:href="#ArialMT-6f" x="1166.943359"/>
     <use xlink:href="#ArialMT-6e" x="1222.558594"/>
     <use xlink:href="#ArialMT-74" x="1278.173828"/>
     <use xlink:href="#ArialMT-65" x="1305.957031"/>
     <use xlink:href="#ArialMT-6e" x="1361.572266"/>
     <use xlink:href="#ArialMT-74" x="1417.1875"/>
     <use xlink:href="#ArialMT-2c" x="1444.970703"/>
     <use xlink:href="#ArialMT-20" x="1472.753906"/>
     <use xlink:href="#ArialMT-4b" x="1500.537109"/>
     <use xlink:href="#ArialMT-75" x="1567.236328"/>
     <use xlink:href="#ArialMT-6c" x="1622.851562"/>
     <use xlink:href="#ArialMT-6c" x="1645.068359"/>
     <use xlink:href="#ArialMT-62" x="1667.285156"/>
     <use xlink:href="#ArialMT-61" x="1722.900391"/>
     <use xlink:href="#ArialMT-63" x="1778.515625"/>
     <use xlink:href="#ArialMT-6b" x="1828.515625"/>
     <use xlink:href="#ArialMT-20" x="1878.515625"/>
     <use xlink:href="#ArialMT-6e" x="1906.298828"/>
     <use xlink:href="#ArialMT-3d" x="1961.914062"/>
     <use xlink:href="#ArialMT-37" x="2020.3125"/>
     <use xlink:href="#ArialMT-34" x="2075.927734"/>
    </g>
   </g>
  </g>
 </g>
 <defs>
  <clipPath id="p90541cddb2">
   <rect x="90" y="51.84" width="558" height="332.64"/>
  </clipPath>
 </defs>
</svg>
