<?xml version="1.0" encoding="utf-8" standalone="no"?>
<!DOCTYPE svg PUBLIC "-//W3C//DTD SVG 1.1//EN"
  "http://www.w3.org/Graphics/SVG/1.1/DTD/svg11.dtd">
<svg xmlns:xlink="http://www.w3.org/1999/xlink" width="460.8pt" height="345.6pt" viewBox="0 0 460.8 345.6" xmlns="http://www.w3.org/2000/svg" version="1.1">
 <metadata>
  <rdf:RDF xmlns:dc="http://purl.org/dc/elements/1.1/" xmlns:cc="http://creativecommons.org/ns#" xmlns:rdf="http://www.w3.org/1999/02/22-rdf-syntax-ns#">
   <cc:Work>
    <dc:type rdf:resource="http://purl.org/dc/dcmitype/StillImage"/>
    <dc:date>2023-08-03T13:13:39.854058</dc:date>
    <dc:format>image/svg+xml</dc:format>
    <dc:creator>
     <cc:Agent>
      <dc:title>Matplotlib v3.7.1, https://matplotlib.org/</dc:title>
     </cc:Agent>
    </dc:creator>
   </cc:Work>
  </rdf:RDF>
 </metadata>
 <defs>
  <style type="text/css">*{stroke-linejoin: round; stroke-linecap: butt}</style>
 </defs>
 <g id="figure_1">
  <g id="patch_1">
   <path d="M 0 345.6 
L 460.8 345.6 
L 460.8 0 
L 0 0 
z
" style="fill: #ffffff"/>
  </g>
  <g id="axes_1">
   <g id="patch_2">
    <path d="M 57.6 307.584 
L 414.72 307.584 
L 414.72 41.472 
L 57.6 41.472 
z
" style="fill: #ffffff"/>
   </g>
   <g id="matplotlib.axis_1">
    <g id="xtick_1">
     <g id="line2d_1">
      <defs>
       <path id="m89ffe439e7" d="M 0 0 
L 0 3.5 
" style="stroke: #000000; stroke-width: 0.8"/>
      </defs>
      <g>
       <use xlink:href="#m89ffe439e7" x="87.417409" y="307.584" style="stroke: #000000; stroke-width: 0.8"/>
      </g>
     </g>
     <g id="text_1">
      <!-- −0.5 -->
      <g transform="translate(77.547096 321.741812) scale(0.1 -0.1)">
       <defs>
        <path id="ArialMT-2212" d="M 3381 1997 
L 356 1997 
L 356 2522 
L 3381 2522 
L 3381 1997 
z
" transform="scale(0.015625)"/>
        <path id="ArialMT-30" d="M 266 2259 
Q 266 3072 433 3567 
Q 600 4063 929 4331 
Q 1259 4600 1759 4600 
Q 2128 4600 2406 4451 
Q 2684 4303 2865 4023 
Q 3047 3744 3150 3342 
Q 3253 2941 3253 2259 
Q 3253 1453 3087 958 
Q 2922 463 2592 192 
Q 2263 -78 1759 -78 
Q 1097 -78 719 397 
Q 266 969 266 2259 
z
M 844 2259 
Q 844 1131 1108 757 
Q 1372 384 1759 384 
Q 2147 384 2411 759 
Q 2675 1134 2675 2259 
Q 2675 3391 2411 3762 
Q 2147 4134 1753 4134 
Q 1366 4134 1134 3806 
Q 844 3388 844 2259 
z
" transform="scale(0.015625)"/>
        <path id="ArialMT-2e" d="M 581 0 
L 581 641 
L 1222 641 
L 1222 0 
L 581 0 
z
" transform="scale(0.015625)"/>
        <path id="ArialMT-35" d="M 266 1200 
L 856 1250 
Q 922 819 1161 601 
Q 1400 384 1738 384 
Q 2144 384 2425 690 
Q 2706 997 2706 1503 
Q 2706 1984 2436 2262 
Q 2166 2541 1728 2541 
Q 1456 2541 1237 2417 
Q 1019 2294 894 2097 
L 366 2166 
L 809 4519 
L 3088 4519 
L 3088 3981 
L 1259 3981 
L 1013 2750 
Q 1425 3038 1878 3038 
Q 2478 3038 2890 2622 
Q 3303 2206 3303 1553 
Q 3303 931 2941 478 
Q 2500 -78 1738 -78 
Q 1113 -78 717 272 
Q 322 622 266 1200 
z
" transform="scale(0.015625)"/>
       </defs>
       <use xlink:href="#ArialMT-2212"/>
       <use xlink:href="#ArialMT-30" x="58.398438"/>
       <use xlink:href="#ArialMT-2e" x="114.013672"/>
       <use xlink:href="#ArialMT-35" x="141.796875"/>
      </g>
     </g>
    </g>
    <g id="xtick_2">
     <g id="line2d_2">
      <g>
       <use xlink:href="#m89ffe439e7" x="139.975456" y="307.584" style="stroke: #000000; stroke-width: 0.8"/>
      </g>
     </g>
     <g id="text_2">
      <!-- 0.0 -->
      <g transform="translate(133.025456 321.741812) scale(0.1 -0.1)">
       <use xlink:href="#ArialMT-30"/>
       <use xlink:href="#ArialMT-2e" x="55.615234"/>
       <use xlink:href="#ArialMT-30" x="83.398438"/>
      </g>
     </g>
    </g>
    <g id="xtick_3">
     <g id="line2d_3">
      <g>
       <use xlink:href="#m89ffe439e7" x="192.533504" y="307.584" style="stroke: #000000; stroke-width: 0.8"/>
      </g>
     </g>
     <g id="text_3">
      <!-- 0.5 -->
      <g transform="translate(185.583504 321.741812) scale(0.1 -0.1)">
       <use xlink:href="#ArialMT-30"/>
       <use xlink:href="#ArialMT-2e" x="55.615234"/>
       <use xlink:href="#ArialMT-35" x="83.398438"/>
      </g>
     </g>
    </g>
    <g id="xtick_4">
     <g id="line2d_4">
      <g>
       <use xlink:href="#m89ffe439e7" x="245.091551" y="307.584" style="stroke: #000000; stroke-width: 0.8"/>
      </g>
     </g>
     <g id="text_4">
      <!-- 1.0 -->
      <g transform="translate(238.141551 321.741812) scale(0.1 -0.1)">
       <defs>
        <path id="ArialMT-31" d="M 2384 0 
L 1822 0 
L 1822 3584 
Q 1619 3391 1289 3197 
Q 959 3003 697 2906 
L 697 3450 
Q 1169 3672 1522 3987 
Q 1875 4303 2022 4600 
L 2384 4600 
L 2384 0 
z
" transform="scale(0.015625)"/>
       </defs>
       <use xlink:href="#ArialMT-31"/>
       <use xlink:href="#ArialMT-2e" x="55.615234"/>
       <use xlink:href="#ArialMT-30" x="83.398438"/>
      </g>
     </g>
    </g>
    <g id="xtick_5">
     <g id="line2d_5">
      <g>
       <use xlink:href="#m89ffe439e7" x="297.649598" y="307.584" style="stroke: #000000; stroke-width: 0.8"/>
      </g>
     </g>
     <g id="text_5">
      <!-- 1.5 -->
      <g transform="translate(290.699598 321.741812) scale(0.1 -0.1)">
       <use xlink:href="#ArialMT-31"/>
       <use xlink:href="#ArialMT-2e" x="55.615234"/>
       <use xlink:href="#ArialMT-35" x="83.398438"/>
      </g>
     </g>
    </g>
    <g id="xtick_6">
     <g id="line2d_6">
      <g>
       <use xlink:href="#m89ffe439e7" x="350.207646" y="307.584" style="stroke: #000000; stroke-width: 0.8"/>
      </g>
     </g>
     <g id="text_6">
      <!-- 2.0 -->
      <g transform="translate(343.257646 321.741812) scale(0.1 -0.1)">
       <defs>
        <path id="ArialMT-32" d="M 3222 541 
L 3222 0 
L 194 0 
Q 188 203 259 391 
Q 375 700 629 1000 
Q 884 1300 1366 1694 
Q 2113 2306 2375 2664 
Q 2638 3022 2638 3341 
Q 2638 3675 2398 3904 
Q 2159 4134 1775 4134 
Q 1369 4134 1125 3890 
Q 881 3647 878 3216 
L 300 3275 
Q 359 3922 746 4261 
Q 1134 4600 1788 4600 
Q 2447 4600 2831 4234 
Q 3216 3869 3216 3328 
Q 3216 3053 3103 2787 
Q 2991 2522 2730 2228 
Q 2469 1934 1863 1422 
Q 1356 997 1212 845 
Q 1069 694 975 541 
L 3222 541 
z
" transform="scale(0.015625)"/>
       </defs>
       <use xlink:href="#ArialMT-32"/>
       <use xlink:href="#ArialMT-2e" x="55.615234"/>
       <use xlink:href="#ArialMT-30" x="83.398438"/>
      </g>
     </g>
    </g>
    <g id="xtick_7">
     <g id="line2d_7">
      <g>
       <use xlink:href="#m89ffe439e7" x="402.765693" y="307.584" style="stroke: #000000; stroke-width: 0.8"/>
      </g>
     </g>
     <g id="text_7">
      <!-- 2.5 -->
      <g transform="translate(395.815693 321.741812) scale(0.1 -0.1)">
       <use xlink:href="#ArialMT-32"/>
       <use xlink:href="#ArialMT-2e" x="55.615234"/>
       <use xlink:href="#ArialMT-35" x="83.398438"/>
      </g>
     </g>
    </g>
   </g>
   <g id="matplotlib.axis_2">
    <g id="ytick_1">
     <g id="line2d_8">
      <defs>
       <path id="mafc1a5482a" d="M 0 0 
L -3.5 0 
" style="stroke: #000000; stroke-width: 0.8"/>
      </defs>
      <g>
       <use xlink:href="#mafc1a5482a" x="57.6" y="307.584" style="stroke: #000000; stroke-width: 0.8"/>
      </g>
     </g>
     <g id="text_8">
      <!-- 0.0 -->
      <g transform="translate(36.7 311.162906) scale(0.1 -0.1)">
       <use xlink:href="#ArialMT-30"/>
       <use xlink:href="#ArialMT-2e" x="55.615234"/>
       <use xlink:href="#ArialMT-30" x="83.398438"/>
      </g>
     </g>
    </g>
    <g id="ytick_2">
     <g id="line2d_9">
      <g>
       <use xlink:href="#mafc1a5482a" x="57.6" y="272.787278" style="stroke: #000000; stroke-width: 0.8"/>
      </g>
     </g>
     <g id="text_9">
      <!-- 0.1 -->
      <g transform="translate(36.7 276.366184) scale(0.1 -0.1)">
       <use xlink:href="#ArialMT-30"/>
       <use xlink:href="#ArialMT-2e" x="55.615234"/>
       <use xlink:href="#ArialMT-31" x="83.398438"/>
      </g>
     </g>
    </g>
    <g id="ytick_3">
     <g id="line2d_10">
      <g>
       <use xlink:href="#mafc1a5482a" x="57.6" y="237.990555" style="stroke: #000000; stroke-width: 0.8"/>
      </g>
     </g>
     <g id="text_10">
      <!-- 0.2 -->
      <g transform="translate(36.7 241.569462) scale(0.1 -0.1)">
       <use xlink:href="#ArialMT-30"/>
       <use xlink:href="#ArialMT-2e" x="55.615234"/>
       <use xlink:href="#ArialMT-32" x="83.398438"/>
      </g>
     </g>
    </g>
    <g id="ytick_4">
     <g id="line2d_11">
      <g>
       <use xlink:href="#mafc1a5482a" x="57.6" y="203.193833" style="stroke: #000000; stroke-width: 0.8"/>
      </g>
     </g>
     <g id="text_11">
      <!-- 0.3 -->
      <g transform="translate(36.7 206.772739) scale(0.1 -0.1)">
       <defs>
        <path id="ArialMT-33" d="M 269 1209 
L 831 1284 
Q 928 806 1161 595 
Q 1394 384 1728 384 
Q 2125 384 2398 659 
Q 2672 934 2672 1341 
Q 2672 1728 2419 1979 
Q 2166 2231 1775 2231 
Q 1616 2231 1378 2169 
L 1441 2663 
Q 1497 2656 1531 2656 
Q 1891 2656 2178 2843 
Q 2466 3031 2466 3422 
Q 2466 3731 2256 3934 
Q 2047 4138 1716 4138 
Q 1388 4138 1169 3931 
Q 950 3725 888 3313 
L 325 3413 
Q 428 3978 793 4289 
Q 1159 4600 1703 4600 
Q 2078 4600 2393 4439 
Q 2709 4278 2876 4000 
Q 3044 3722 3044 3409 
Q 3044 3113 2884 2869 
Q 2725 2625 2413 2481 
Q 2819 2388 3044 2092 
Q 3269 1797 3269 1353 
Q 3269 753 2831 336 
Q 2394 -81 1725 -81 
Q 1122 -81 723 278 
Q 325 638 269 1209 
z
" transform="scale(0.015625)"/>
       </defs>
       <use xlink:href="#ArialMT-30"/>
       <use xlink:href="#ArialMT-2e" x="55.615234"/>
       <use xlink:href="#ArialMT-33" x="83.398438"/>
      </g>
     </g>
    </g>
    <g id="ytick_5">
     <g id="line2d_12">
      <g>
       <use xlink:href="#mafc1a5482a" x="57.6" y="168.397111" style="stroke: #000000; stroke-width: 0.8"/>
      </g>
     </g>
     <g id="text_12">
      <!-- 0.4 -->
      <g transform="translate(36.7 171.976017) scale(0.1 -0.1)">
       <defs>
        <path id="ArialMT-34" d="M 2069 0 
L 2069 1097 
L 81 1097 
L 81 1613 
L 2172 4581 
L 2631 4581 
L 2631 1613 
L 3250 1613 
L 3250 1097 
L 2631 1097 
L 2631 0 
L 2069 0 
z
M 2069 1613 
L 2069 3678 
L 634 1613 
L 2069 1613 
z
" transform="scale(0.015625)"/>
       </defs>
       <use xlink:href="#ArialMT-30"/>
       <use xlink:href="#ArialMT-2e" x="55.615234"/>
       <use xlink:href="#ArialMT-34" x="83.398438"/>
      </g>
     </g>
    </g>
    <g id="ytick_6">
     <g id="line2d_13">
      <g>
       <use xlink:href="#mafc1a5482a" x="57.6" y="133.600388" style="stroke: #000000; stroke-width: 0.8"/>
      </g>
     </g>
     <g id="text_13">
      <!-- 0.5 -->
      <g transform="translate(36.7 137.179295) scale(0.1 -0.1)">
       <use xlink:href="#ArialMT-30"/>
       <use xlink:href="#ArialMT-2e" x="55.615234"/>
       <use xlink:href="#ArialMT-35" x="83.398438"/>
      </g>
     </g>
    </g>
    <g id="ytick_7">
     <g id="line2d_14">
      <g>
       <use xlink:href="#mafc1a5482a" x="57.6" y="98.803666" style="stroke: #000000; stroke-width: 0.8"/>
      </g>
     </g>
     <g id="text_14">
      <!-- 0.6 -->
      <g transform="translate(36.7 102.382572) scale(0.1 -0.1)">
       <defs>
        <path id="ArialMT-36" d="M 3184 3459 
L 2625 3416 
Q 2550 3747 2413 3897 
Q 2184 4138 1850 4138 
Q 1581 4138 1378 3988 
Q 1113 3794 959 3422 
Q 806 3050 800 2363 
Q 1003 2672 1297 2822 
Q 1591 2972 1913 2972 
Q 2475 2972 2870 2558 
Q 3266 2144 3266 1488 
Q 3266 1056 3080 686 
Q 2894 316 2569 119 
Q 2244 -78 1831 -78 
Q 1128 -78 684 439 
Q 241 956 241 2144 
Q 241 3472 731 4075 
Q 1159 4600 1884 4600 
Q 2425 4600 2770 4297 
Q 3116 3994 3184 3459 
z
M 888 1484 
Q 888 1194 1011 928 
Q 1134 663 1356 523 
Q 1578 384 1822 384 
Q 2178 384 2434 671 
Q 2691 959 2691 1453 
Q 2691 1928 2437 2201 
Q 2184 2475 1800 2475 
Q 1419 2475 1153 2201 
Q 888 1928 888 1484 
z
" transform="scale(0.015625)"/>
       </defs>
       <use xlink:href="#ArialMT-30"/>
       <use xlink:href="#ArialMT-2e" x="55.615234"/>
       <use xlink:href="#ArialMT-36" x="83.398438"/>
      </g>
     </g>
    </g>
    <g id="ytick_8">
     <g id="line2d_15">
      <g>
       <use xlink:href="#mafc1a5482a" x="57.6" y="64.006944" style="stroke: #000000; stroke-width: 0.8"/>
      </g>
     </g>
     <g id="text_15">
      <!-- 0.7 -->
      <g transform="translate(36.7 67.58585) scale(0.1 -0.1)">
       <defs>
        <path id="ArialMT-37" d="M 303 3981 
L 303 4522 
L 3269 4522 
L 3269 4084 
Q 2831 3619 2401 2847 
Q 1972 2075 1738 1259 
Q 1569 684 1522 0 
L 944 0 
Q 953 541 1156 1306 
Q 1359 2072 1739 2783 
Q 2119 3494 2547 3981 
L 303 3981 
z
" transform="scale(0.015625)"/>
       </defs>
       <use xlink:href="#ArialMT-30"/>
       <use xlink:href="#ArialMT-2e" x="55.615234"/>
       <use xlink:href="#ArialMT-37" x="83.398438"/>
      </g>
     </g>
    </g>
    <g id="text_16">
     <!-- Density -->
     <g transform="translate(30.595312 191.199875) rotate(-90) scale(0.1 -0.1)">
      <defs>
       <path id="ArialMT-44" d="M 494 0 
L 494 4581 
L 2072 4581 
Q 2606 4581 2888 4516 
Q 3281 4425 3559 4188 
Q 3922 3881 4101 3404 
Q 4281 2928 4281 2316 
Q 4281 1794 4159 1391 
Q 4038 988 3847 723 
Q 3656 459 3429 307 
Q 3203 156 2883 78 
Q 2563 0 2147 0 
L 494 0 
z
M 1100 541 
L 2078 541 
Q 2531 541 2789 625 
Q 3047 709 3200 863 
Q 3416 1078 3536 1442 
Q 3656 1806 3656 2325 
Q 3656 3044 3420 3430 
Q 3184 3816 2847 3947 
Q 2603 4041 2063 4041 
L 1100 4041 
L 1100 541 
z
" transform="scale(0.015625)"/>
       <path id="ArialMT-65" d="M 2694 1069 
L 3275 997 
Q 3138 488 2766 206 
Q 2394 -75 1816 -75 
Q 1088 -75 661 373 
Q 234 822 234 1631 
Q 234 2469 665 2931 
Q 1097 3394 1784 3394 
Q 2450 3394 2872 2941 
Q 3294 2488 3294 1666 
Q 3294 1616 3291 1516 
L 816 1516 
Q 847 969 1125 678 
Q 1403 388 1819 388 
Q 2128 388 2347 550 
Q 2566 713 2694 1069 
z
M 847 1978 
L 2700 1978 
Q 2663 2397 2488 2606 
Q 2219 2931 1791 2931 
Q 1403 2931 1139 2672 
Q 875 2413 847 1978 
z
" transform="scale(0.015625)"/>
       <path id="ArialMT-6e" d="M 422 0 
L 422 3319 
L 928 3319 
L 928 2847 
Q 1294 3394 1984 3394 
Q 2284 3394 2536 3286 
Q 2788 3178 2913 3003 
Q 3038 2828 3088 2588 
Q 3119 2431 3119 2041 
L 3119 0 
L 2556 0 
L 2556 2019 
Q 2556 2363 2490 2533 
Q 2425 2703 2258 2804 
Q 2091 2906 1866 2906 
Q 1506 2906 1245 2678 
Q 984 2450 984 1813 
L 984 0 
L 422 0 
z
" transform="scale(0.015625)"/>
       <path id="ArialMT-73" d="M 197 991 
L 753 1078 
Q 800 744 1014 566 
Q 1228 388 1613 388 
Q 2000 388 2187 545 
Q 2375 703 2375 916 
Q 2375 1106 2209 1216 
Q 2094 1291 1634 1406 
Q 1016 1563 777 1677 
Q 538 1791 414 1992 
Q 291 2194 291 2438 
Q 291 2659 392 2848 
Q 494 3038 669 3163 
Q 800 3259 1026 3326 
Q 1253 3394 1513 3394 
Q 1903 3394 2198 3281 
Q 2494 3169 2634 2976 
Q 2775 2784 2828 2463 
L 2278 2388 
Q 2241 2644 2061 2787 
Q 1881 2931 1553 2931 
Q 1166 2931 1000 2803 
Q 834 2675 834 2503 
Q 834 2394 903 2306 
Q 972 2216 1119 2156 
Q 1203 2125 1616 2013 
Q 2213 1853 2448 1751 
Q 2684 1650 2818 1456 
Q 2953 1263 2953 975 
Q 2953 694 2789 445 
Q 2625 197 2315 61 
Q 2006 -75 1616 -75 
Q 969 -75 630 194 
Q 291 463 197 991 
z
" transform="scale(0.015625)"/>
       <path id="ArialMT-69" d="M 425 3934 
L 425 4581 
L 988 4581 
L 988 3934 
L 425 3934 
z
M 425 0 
L 425 3319 
L 988 3319 
L 988 0 
L 425 0 
z
" transform="scale(0.015625)"/>
       <path id="ArialMT-74" d="M 1650 503 
L 1731 6 
Q 1494 -44 1306 -44 
Q 1000 -44 831 53 
Q 663 150 594 308 
Q 525 466 525 972 
L 525 2881 
L 113 2881 
L 113 3319 
L 525 3319 
L 525 4141 
L 1084 4478 
L 1084 3319 
L 1650 3319 
L 1650 2881 
L 1084 2881 
L 1084 941 
Q 1084 700 1114 631 
Q 1144 563 1211 522 
Q 1278 481 1403 481 
Q 1497 481 1650 503 
z
" transform="scale(0.015625)"/>
       <path id="ArialMT-79" d="M 397 -1278 
L 334 -750 
Q 519 -800 656 -800 
Q 844 -800 956 -737 
Q 1069 -675 1141 -563 
Q 1194 -478 1313 -144 
Q 1328 -97 1363 -6 
L 103 3319 
L 709 3319 
L 1400 1397 
Q 1534 1031 1641 628 
Q 1738 1016 1872 1384 
L 2581 3319 
L 3144 3319 
L 1881 -56 
Q 1678 -603 1566 -809 
Q 1416 -1088 1222 -1217 
Q 1028 -1347 759 -1347 
Q 597 -1347 397 -1278 
z
" transform="scale(0.015625)"/>
      </defs>
      <use xlink:href="#ArialMT-44"/>
      <use xlink:href="#ArialMT-65" x="72.216797"/>
      <use xlink:href="#ArialMT-6e" x="127.832031"/>
      <use xlink:href="#ArialMT-73" x="183.447266"/>
      <use xlink:href="#ArialMT-69" x="233.447266"/>
      <use xlink:href="#ArialMT-74" x="255.664062"/>
      <use xlink:href="#ArialMT-79" x="283.447266"/>
     </g>
    </g>
   </g>
   <g id="line2d_16">
    <path d="M 76.799289 307.339294 
L 83.224375 307.047672 
L 88.04319 306.656007 
L 92.862004 306.031868 
L 96.074547 305.437166 
L 99.28709 304.657623 
L 102.499633 303.651895 
L 105.712176 302.374511 
L 108.924719 300.776867 
L 112.137262 298.808561 
L 115.349805 296.419008 
L 118.562348 293.559239 
L 121.774891 290.183747 
L 124.987434 286.252244 
L 128.199977 281.731182 
L 131.41252 276.594955 
L 134.625063 270.826714 
L 137.837606 264.41882 
L 141.050149 257.37301 
L 144.262692 249.700417 
L 147.475235 241.421618 
L 150.687778 232.566866 
L 153.900321 223.176652 
L 158.719136 208.20374 
L 163.537951 192.373768 
L 171.569308 164.945532 
L 177.994394 143.182671 
L 182.813209 127.76657 
L 186.025752 118.23932 
L 189.238295 109.512589 
L 192.450838 101.748848 
L 194.057109 98.274335 
L 195.663381 95.09313 
L 197.269652 92.219259 
L 198.875924 89.664643 
L 200.482195 87.43889 
L 202.088467 85.549111 
L 203.694738 83.999774 
L 205.30101 82.792598 
L 206.907281 81.92649 
L 208.513553 81.397525 
L 210.119824 81.198982 
L 211.726096 81.321419 
L 213.332367 81.752808 
L 214.938639 82.478703 
L 216.54491 83.48247 
L 218.151182 84.745532 
L 219.757453 86.247671 
L 221.363725 87.967334 
L 224.576268 91.96839 
L 227.788811 96.562528 
L 231.001354 101.563824 
L 245.457797 124.840868 
L 248.67034 129.473774 
L 251.882883 133.734242 
L 255.095426 137.565374 
L 258.307969 140.913198 
L 261.520512 143.721811 
L 263.126784 144.905243 
L 264.733055 145.930897 
L 266.339327 146.790656 
L 267.945598 147.476404 
L 269.55187 147.980245 
L 271.158141 148.294767 
L 272.764413 148.413354 
L 274.370684 148.330534 
L 275.976956 148.04235 
L 277.583227 147.546755 
L 279.189499 146.843995 
L 280.79577 145.936996 
L 282.402042 144.831713 
L 284.008313 143.537442 
L 285.614585 142.067083 
L 288.827128 138.668765 
L 292.039671 134.817134 
L 298.464757 126.771342 
L 301.6773 123.204712 
L 303.283571 121.687155 
L 304.889843 120.405787 
L 306.496114 119.403666 
L 308.102386 118.721879 
L 309.708657 118.398713 
L 311.314929 118.468857 
L 312.9212 118.962648 
L 314.527472 119.905404 
L 316.133743 121.316844 
L 317.740015 123.210613 
L 319.346286 125.593942 
L 320.952558 128.467431 
L 322.558829 131.824982 
L 324.165101 135.653873 
L 325.771372 139.934964 
L 327.377644 144.643054 
L 330.590187 155.212065 
L 333.80273 167.058722 
L 337.015273 179.824324 
L 349.865445 232.399244 
L 353.077988 244.217446 
L 356.290531 255.010965 
L 359.503074 264.651587 
L 362.715617 273.079036 
L 364.321888 276.835763 
L 365.92816 280.293381 
L 367.534431 283.459567 
L 369.140703 286.344329 
L 370.746974 288.959614 
L 372.353246 291.318908 
L 373.959517 293.436864 
L 375.565789 295.328945 
L 377.17206 297.011099 
L 378.778332 298.499461 
L 380.384604 299.810094 
L 381.990875 300.958767 
L 383.597147 301.960759 
L 386.80969 303.582512 
L 390.022233 304.782887 
L 393.234776 305.655133 
L 396.447319 306.277448 
L 396.447319 306.277448 
" clip-path="url(#p496d1d8929)" style="fill: none; stroke: #f77189; stroke-width: 1.5; stroke-linecap: square"/>
   </g>
   <g id="line2d_17">
    <path d="M 90.891221 307.287215 
L 96.893691 306.932317 
L 101.395544 306.457806 
L 105.897397 305.706642 
L 108.898632 304.995908 
L 111.899867 304.070608 
L 114.901102 302.885963 
L 117.902338 301.393998 
L 120.903573 299.544944 
L 123.904808 297.288941 
L 126.906043 294.577936 
L 129.907278 291.367628 
L 132.908514 287.619302 
L 135.909749 283.301396 
L 138.910984 278.390699 
L 141.912219 272.873091 
L 144.913454 266.743832 
L 147.91469 260.007462 
L 150.915925 252.677401 
L 153.91716 244.775396 
L 156.918395 236.330945 
L 159.919631 227.380809 
L 164.421483 213.104841 
L 168.923336 197.966774 
L 174.925807 176.809371 
L 189.931983 123.009058 
L 194.433835 107.940089 
L 197.435071 98.509288 
L 200.436306 89.70702 
L 203.437541 81.6506 
L 206.438776 74.454217 
L 209.440011 68.224704 
L 210.940629 65.502653 
L 212.441247 63.05643 
L 213.941864 60.894953 
L 215.442482 59.025652 
L 216.943099 57.454296 
L 218.443717 56.184846 
L 219.944335 55.219326 
L 221.444952 54.557723 
L 222.94557 54.197924 
L 224.446188 54.13569 
L 225.946805 54.364668 
L 227.447423 54.876452 
L 228.94804 55.660688 
L 230.448658 56.705213 
L 231.949276 57.996245 
L 233.449893 59.518596 
L 234.950511 61.255916 
L 237.951746 65.305851 
L 240.952981 70.002169 
L 243.954216 75.199279 
L 248.456069 83.629706 
L 261.961628 109.748848 
L 264.962863 115.04343 
L 267.964098 119.91942 
L 270.965333 124.258223 
L 273.966568 127.939569 
L 275.467186 129.497851 
L 276.967804 130.850788 
L 278.468421 131.987639 
L 279.969039 132.899923 
L 281.469656 133.581922 
L 282.970274 134.031176 
L 284.470892 134.248935 
L 285.971509 134.24056 
L 287.472127 134.015851 
L 288.972744 133.589273 
L 290.473362 132.980084 
L 291.97398 132.212341 
L 294.975215 130.320515 
L 300.977685 126.168659 
L 302.478303 125.308418 
L 303.978921 124.61282 
L 305.479538 124.128628 
L 306.980156 123.901066 
L 308.480773 123.97285 
L 309.981391 124.383257 
L 311.482009 125.167253 
L 312.982626 126.354698 
L 314.483244 127.969669 
L 315.983861 130.029894 
L 317.484479 132.546343 
L 318.985097 135.522965 
L 320.485714 138.956581 
L 321.986332 142.836948 
L 323.486949 147.146976 
L 324.987567 151.863101 
L 327.988802 162.390199 
L 330.990037 174.122569 
L 335.49189 193.193927 
L 342.994978 225.693895 
L 345.996213 237.908947 
L 348.997449 249.255911 
L 351.998684 259.548535 
L 354.999919 268.673191 
L 358.001154 276.584717 
L 359.501772 280.088072 
L 361.002389 283.297635 
L 362.503007 286.222608 
L 364.003625 288.874369 
L 365.504242 291.26605 
L 367.00486 293.412136 
L 368.505478 295.328081 
L 370.006095 297.029952 
L 371.506713 298.534106 
L 373.00733 299.856906 
L 374.507948 301.014466 
L 376.008566 302.022449 
L 379.009801 303.64906 
L 382.011036 304.847315 
L 385.012271 305.713147 
L 388.013506 306.326905 
L 389.514124 306.560187 
L 389.514124 306.560187 
" clip-path="url(#p496d1d8929)" style="fill: none; stroke: #97a431; stroke-width: 1.5; stroke-linecap: square"/>
   </g>
   <g id="line2d_18">
    <path d="M 73.832727 307.288349 
L 80.358447 306.915785 
L 85.252736 306.398336 
L 88.515596 305.877251 
L 91.778456 305.162071 
L 95.041316 304.19577 
L 98.304175 302.910502 
L 101.567035 301.227647 
L 103.198465 300.209799 
L 104.829895 299.058664 
L 106.461325 297.761935 
L 108.092755 296.306979 
L 109.724185 294.680971 
L 111.355614 292.871032 
L 112.987044 290.8644 
L 114.618474 288.648609 
L 116.249904 286.211694 
L 117.881334 283.542406 
L 119.512764 280.630447 
L 121.144194 277.466703 
L 122.775624 274.043493 
L 126.038483 266.396602 
L 129.301343 257.666237 
L 132.564203 247.866735 
L 135.827063 237.05617 
L 139.089922 225.340204 
L 142.352782 212.873243 
L 147.247072 193.216232 
L 155.404221 160.082643 
L 158.667081 147.555291 
L 161.929941 135.887312 
L 165.1928 125.347942 
L 166.82423 120.575344 
L 168.45566 116.167533 
L 170.08709 112.145211 
L 171.71852 108.52529 
L 173.34995 105.320693 
L 174.98138 102.540227 
L 176.61281 100.188522 
L 178.244239 98.266034 
L 179.875669 96.769113 
L 181.507099 95.690138 
L 183.138529 95.017707 
L 184.769959 94.736872 
L 186.401389 94.829432 
L 188.032819 95.274249 
L 189.664249 96.047607 
L 191.295678 97.123582 
L 192.927108 98.47443 
L 194.558538 100.070979 
L 196.189968 101.883021 
L 199.452828 106.029843 
L 202.715688 110.66661 
L 212.504267 125.176569 
L 215.767127 129.536326 
L 219.029986 133.390458 
L 220.661416 135.092049 
L 222.292846 136.628621 
L 223.924276 137.99194 
L 225.555706 139.175999 
L 227.187136 140.17699 
L 228.818566 140.99326 
L 230.449995 141.625247 
L 232.081425 142.075399 
L 233.712855 142.348082 
L 235.344285 142.449458 
L 236.975715 142.387358 
L 238.607145 142.171132 
L 240.238575 141.811482 
L 241.870005 141.32029 
L 245.132864 139.995527 
L 248.395724 138.307968 
L 253.290014 135.352442 
L 261.447163 130.226668 
L 264.710023 128.385597 
L 267.972883 126.773805 
L 271.235742 125.442565 
L 274.498602 124.429911 
L 277.761462 123.764819 
L 281.024322 123.472488 
L 284.287181 123.579978 
L 285.918611 123.79391 
L 287.550041 124.121353 
L 289.181471 124.568287 
L 290.812901 125.141497 
L 292.444331 125.848573 
L 294.075761 126.697855 
L 295.70719 127.69835 
L 297.33862 128.85959 
L 298.97005 130.191462 
L 300.60148 131.703986 
L 302.23291 133.407073 
L 303.86434 135.310249 
L 305.49577 137.422365 
L 307.1272 139.751297 
L 308.75863 142.30364 
L 310.390059 145.084419 
L 313.652919 151.341917 
L 316.915779 158.522936 
L 320.178639 166.58759 
L 323.441498 175.454269 
L 326.704358 185.000619 
L 331.598648 200.240141 
L 343.018657 236.63733 
L 346.281517 246.35074 
L 349.544376 255.445367 
L 352.807236 263.800038 
L 356.070096 271.331681 
L 359.332956 277.995831 
L 362.595815 283.784346 
L 364.227245 286.356552 
L 365.858675 288.720898 
L 367.490105 290.884322 
L 369.121535 292.854952 
L 370.752965 294.641883 
L 372.384395 296.254964 
L 374.015825 297.704593 
L 377.278684 300.156667 
L 380.541544 302.08523 
L 383.804404 303.575441 
L 387.067264 304.706834 
L 390.330123 305.550878 
L 393.592983 306.169656 
L 398.487273 306.787246 
L 398.487273 306.787246 
" clip-path="url(#p496d1d8929)" style="fill: none; stroke: #36ada4; stroke-width: 1.5; stroke-linecap: square"/>
   </g>
   <g id="line2d_19">
    <path d="M 82.340899 307.409493 
L 90.124449 307.108011 
L 94.794579 306.753564 
L 99.464709 306.182507 
L 102.578129 305.632917 
L 105.691549 304.905949 
L 108.804969 303.958764 
L 111.918389 302.742871 
L 115.031809 301.20472 
L 118.145229 299.286747 
L 121.258649 296.928879 
L 124.372069 294.070522 
L 127.485489 290.653005 
L 130.598909 286.622421 
L 133.712329 281.932764 
L 136.825749 276.549241 
L 139.939169 270.451569 
L 143.052589 263.63707 
L 146.166009 256.123323 
L 149.279429 247.950149 
L 152.392849 239.180673 
L 157.062979 225.103405 
L 163.289819 205.228762 
L 171.073369 180.221544 
L 175.743499 166.04279 
L 178.856919 157.224547 
L 181.970339 149.042738 
L 185.083759 141.576308 
L 188.197179 134.871271 
L 191.310599 128.938817 
L 194.424019 123.756117 
L 197.537439 119.270019 
L 200.650859 115.403496 
L 203.764279 112.064382 
L 206.877699 109.155612 
L 209.991119 106.585911 
L 213.104539 104.279723 
L 216.217959 102.18517 
L 219.331379 100.27904 
L 222.444799 98.568093 
L 225.558219 97.086493 
L 228.671639 95.889638 
L 231.785059 95.045142 
L 233.341769 94.776876 
L 234.898479 94.622117 
L 236.455189 94.587905 
L 238.011899 94.680019 
L 239.568609 94.902694 
L 241.125319 95.258383 
L 242.682029 95.747552 
L 244.238739 96.368539 
L 247.352159 97.988088 
L 250.465579 100.058549 
L 253.578999 102.486208 
L 258.249129 106.516715 
L 262.919259 110.54485 
L 266.032679 112.944605 
L 269.146099 114.919414 
L 270.702809 115.6996 
L 272.259519 116.31946 
L 273.816229 116.765164 
L 275.372939 117.025606 
L 276.929649 117.092792 
L 278.486359 116.962199 
L 280.043069 116.633109 
L 281.599779 116.108896 
L 283.156489 115.397256 
L 284.713199 114.510384 
L 286.269909 113.465065 
L 289.383329 110.989156 
L 298.723589 102.846049 
L 300.280299 101.814755 
L 301.837009 100.998529 
L 303.393719 100.443561 
L 304.950429 100.194471 
L 306.507139 100.293385 
L 308.063849 100.779035 
L 309.620559 101.685894 
L 311.177269 103.043385 
L 312.733979 104.875183 
L 314.290689 107.198624 
L 315.847399 110.024248 
L 317.404109 113.355482 
L 318.960819 117.188484 
L 320.517529 121.512144 
L 322.074239 126.308246 
L 323.630949 131.551786 
L 326.744369 143.250185 
L 329.857789 156.292625 
L 332.971209 170.298176 
L 345.424889 227.654114 
L 348.538309 240.470841 
L 351.651729 252.140545 
L 354.765149 262.526415 
L 357.878569 271.567481 
L 359.435279 275.583356 
L 360.991989 279.269982 
L 362.548699 282.636622 
L 364.105409 285.695091 
L 365.662119 288.459297 
L 367.218829 290.944798 
L 368.775539 293.168369 
L 370.332249 295.147602 
L 371.888959 296.900539 
L 373.445669 298.445337 
L 375.002379 299.799983 
L 376.559089 300.982045 
L 378.115799 302.008466 
L 381.229219 303.65809 
L 384.342639 304.866634 
L 387.456059 305.73518 
L 390.569479 306.347579 
L 392.126189 306.579395 
L 392.126189 306.579395 
" clip-path="url(#p496d1d8929)" style="fill: none; stroke: #a48cf4; stroke-width: 1.5; stroke-linecap: square"/>
   </g>
   <g id="patch_3">
    <path d="M 57.6 307.584 
L 57.6 41.472 
" style="fill: none; stroke: #000000; stroke-width: 0.8; stroke-linejoin: miter; stroke-linecap: square"/>
   </g>
   <g id="patch_4">
    <path d="M 414.72 307.584 
L 414.72 41.472 
" style="fill: none; stroke: #000000; stroke-width: 0.8; stroke-linejoin: miter; stroke-linecap: square"/>
   </g>
   <g id="patch_5">
    <path d="M 57.6 307.584 
L 414.72 307.584 
" style="fill: none; stroke: #000000; stroke-width: 0.8; stroke-linejoin: miter; stroke-linecap: square"/>
   </g>
   <g id="patch_6">
    <path d="M 57.6 41.472 
L 414.72 41.472 
" style="fill: none; stroke: #000000; stroke-width: 0.8; stroke-linejoin: miter; stroke-linecap: square"/>
   </g>
   <g id="legend_1">
    <g id="patch_7">
     <path d="M 64.6 106.3095 
L 159.959375 106.3095 
Q 161.959375 106.3095 161.959375 104.3095 
L 161.959375 48.472 
Q 161.959375 46.472 159.959375 46.472 
L 64.6 46.472 
Q 62.6 46.472 62.6 48.472 
L 62.6 104.3095 
Q 62.6 106.3095 64.6 106.3095 
z
" style="fill: #ffffff; opacity: 0.8; stroke: #cccccc; stroke-linejoin: miter"/>
    </g>
    <g id="line2d_20">
     <path d="M 66.6 54.129813 
L 76.6 54.129813 
L 86.6 54.129813 
" style="fill: none; stroke: #f77189; stroke-width: 1.5; stroke-linecap: square"/>
    </g>
    <g id="text_17">
     <!-- WT_untreated -->
     <g transform="translate(94.6 57.629813) scale(0.1 -0.1)">
      <defs>
       <path id="ArialMT-57" d="M 1294 0 
L 78 4581 
L 700 4581 
L 1397 1578 
Q 1509 1106 1591 641 
Q 1766 1375 1797 1488 
L 2669 4581 
L 3400 4581 
L 4056 2263 
Q 4303 1400 4413 641 
Q 4500 1075 4641 1638 
L 5359 4581 
L 5969 4581 
L 4713 0 
L 4128 0 
L 3163 3491 
Q 3041 3928 3019 4028 
Q 2947 3713 2884 3491 
L 1913 0 
L 1294 0 
z
" transform="scale(0.015625)"/>
       <path id="ArialMT-54" d="M 1659 0 
L 1659 4041 
L 150 4041 
L 150 4581 
L 3781 4581 
L 3781 4041 
L 2266 4041 
L 2266 0 
L 1659 0 
z
" transform="scale(0.015625)"/>
       <path id="ArialMT-5f" d="M -97 -1272 
L -97 -866 
L 3631 -866 
L 3631 -1272 
L -97 -1272 
z
" transform="scale(0.015625)"/>
       <path id="ArialMT-75" d="M 2597 0 
L 2597 488 
Q 2209 -75 1544 -75 
Q 1250 -75 995 37 
Q 741 150 617 320 
Q 494 491 444 738 
Q 409 903 409 1263 
L 409 3319 
L 972 3319 
L 972 1478 
Q 972 1038 1006 884 
Q 1059 663 1231 536 
Q 1403 409 1656 409 
Q 1909 409 2131 539 
Q 2353 669 2445 892 
Q 2538 1116 2538 1541 
L 2538 3319 
L 3100 3319 
L 3100 0 
L 2597 0 
z
" transform="scale(0.015625)"/>
       <path id="ArialMT-72" d="M 416 0 
L 416 3319 
L 922 3319 
L 922 2816 
Q 1116 3169 1280 3281 
Q 1444 3394 1641 3394 
Q 1925 3394 2219 3213 
L 2025 2691 
Q 1819 2813 1613 2813 
Q 1428 2813 1281 2702 
Q 1134 2591 1072 2394 
Q 978 2094 978 1738 
L 978 0 
L 416 0 
z
" transform="scale(0.015625)"/>
       <path id="ArialMT-61" d="M 2588 409 
Q 2275 144 1986 34 
Q 1697 -75 1366 -75 
Q 819 -75 525 192 
Q 231 459 231 875 
Q 231 1119 342 1320 
Q 453 1522 633 1644 
Q 813 1766 1038 1828 
Q 1203 1872 1538 1913 
Q 2219 1994 2541 2106 
Q 2544 2222 2544 2253 
Q 2544 2597 2384 2738 
Q 2169 2928 1744 2928 
Q 1347 2928 1158 2789 
Q 969 2650 878 2297 
L 328 2372 
Q 403 2725 575 2942 
Q 747 3159 1072 3276 
Q 1397 3394 1825 3394 
Q 2250 3394 2515 3294 
Q 2781 3194 2906 3042 
Q 3031 2891 3081 2659 
Q 3109 2516 3109 2141 
L 3109 1391 
Q 3109 606 3145 398 
Q 3181 191 3288 0 
L 2700 0 
Q 2613 175 2588 409 
z
M 2541 1666 
Q 2234 1541 1622 1453 
Q 1275 1403 1131 1340 
Q 988 1278 909 1158 
Q 831 1038 831 891 
Q 831 666 1001 516 
Q 1172 366 1500 366 
Q 1825 366 2078 508 
Q 2331 650 2450 897 
Q 2541 1088 2541 1459 
L 2541 1666 
z
" transform="scale(0.015625)"/>
       <path id="ArialMT-64" d="M 2575 0 
L 2575 419 
Q 2259 -75 1647 -75 
Q 1250 -75 917 144 
Q 584 363 401 755 
Q 219 1147 219 1656 
Q 219 2153 384 2558 
Q 550 2963 881 3178 
Q 1213 3394 1622 3394 
Q 1922 3394 2156 3267 
Q 2391 3141 2538 2938 
L 2538 4581 
L 3097 4581 
L 3097 0 
L 2575 0 
z
M 797 1656 
Q 797 1019 1065 703 
Q 1334 388 1700 388 
Q 2069 388 2326 689 
Q 2584 991 2584 1609 
Q 2584 2291 2321 2609 
Q 2059 2928 1675 2928 
Q 1300 2928 1048 2622 
Q 797 2316 797 1656 
z
" transform="scale(0.015625)"/>
      </defs>
      <use xlink:href="#ArialMT-57"/>
      <use xlink:href="#ArialMT-54" x="94.384766"/>
      <use xlink:href="#ArialMT-5f" x="155.46875"/>
      <use xlink:href="#ArialMT-75" x="211.083984"/>
      <use xlink:href="#ArialMT-6e" x="266.699219"/>
      <use xlink:href="#ArialMT-74" x="322.314453"/>
      <use xlink:href="#ArialMT-72" x="350.097656"/>
      <use xlink:href="#ArialMT-65" x="383.398438"/>
      <use xlink:href="#ArialMT-61" x="439.013672"/>
      <use xlink:href="#ArialMT-74" x="494.628906"/>
      <use xlink:href="#ArialMT-65" x="522.412109"/>
      <use xlink:href="#ArialMT-64" x="578.027344"/>
     </g>
    </g>
    <g id="line2d_21">
     <path d="M 66.6 68.275125 
L 76.6 68.275125 
L 86.6 68.275125 
" style="fill: none; stroke: #97a431; stroke-width: 1.5; stroke-linecap: square"/>
    </g>
    <g id="text_18">
     <!-- WT_Treated -->
     <g transform="translate(94.6 71.775125) scale(0.1 -0.1)">
      <use xlink:href="#ArialMT-57"/>
      <use xlink:href="#ArialMT-54" x="94.384766"/>
      <use xlink:href="#ArialMT-5f" x="155.46875"/>
      <use xlink:href="#ArialMT-54" x="211.083984"/>
      <use xlink:href="#ArialMT-72" x="268.417969"/>
      <use xlink:href="#ArialMT-65" x="301.71875"/>
      <use xlink:href="#ArialMT-61" x="357.333984"/>
      <use xlink:href="#ArialMT-74" x="412.949219"/>
      <use xlink:href="#ArialMT-65" x="440.732422"/>
      <use xlink:href="#ArialMT-64" x="496.347656"/>
     </g>
    </g>
    <g id="line2d_22">
     <path d="M 66.6 82.548563 
L 76.6 82.548563 
L 86.6 82.548563 
" style="fill: none; stroke: #36ada4; stroke-width: 1.5; stroke-linecap: square"/>
    </g>
    <g id="text_19">
     <!-- KO_untreated -->
     <g transform="translate(94.6 86.048563) scale(0.1 -0.1)">
      <defs>
       <path id="ArialMT-4b" d="M 469 0 
L 469 4581 
L 1075 4581 
L 1075 2309 
L 3350 4581 
L 4172 4581 
L 2250 2725 
L 4256 0 
L 3456 0 
L 1825 2319 
L 1075 1588 
L 1075 0 
L 469 0 
z
" transform="scale(0.015625)"/>
       <path id="ArialMT-4f" d="M 309 2231 
Q 309 3372 921 4017 
Q 1534 4663 2503 4663 
Q 3138 4663 3647 4359 
Q 4156 4056 4423 3514 
Q 4691 2972 4691 2284 
Q 4691 1588 4409 1038 
Q 4128 488 3612 205 
Q 3097 -78 2500 -78 
Q 1853 -78 1343 234 
Q 834 547 571 1087 
Q 309 1628 309 2231 
z
M 934 2222 
Q 934 1394 1379 917 
Q 1825 441 2497 441 
Q 3181 441 3623 922 
Q 4066 1403 4066 2288 
Q 4066 2847 3877 3264 
Q 3688 3681 3323 3911 
Q 2959 4141 2506 4141 
Q 1863 4141 1398 3698 
Q 934 3256 934 2222 
z
" transform="scale(0.015625)"/>
      </defs>
      <use xlink:href="#ArialMT-4b"/>
      <use xlink:href="#ArialMT-4f" x="66.699219"/>
      <use xlink:href="#ArialMT-5f" x="144.482422"/>
      <use xlink:href="#ArialMT-75" x="200.097656"/>
      <use xlink:href="#ArialMT-6e" x="255.712891"/>
      <use xlink:href="#ArialMT-74" x="311.328125"/>
      <use xlink:href="#ArialMT-72" x="339.111328"/>
      <use xlink:href="#ArialMT-65" x="372.412109"/>
      <use xlink:href="#ArialMT-61" x="428.027344"/>
      <use xlink:href="#ArialMT-74" x="483.642578"/>
      <use xlink:href="#ArialMT-65" x="511.425781"/>
      <use xlink:href="#ArialMT-64" x="567.041016"/>
     </g>
    </g>
    <g id="line2d_23">
     <path d="M 66.6 96.822 
L 76.6 96.822 
L 86.6 96.822 
" style="fill: none; stroke: #a48cf4; stroke-width: 1.5; stroke-linecap: square"/>
    </g>
    <g id="text_20">
     <!-- KO_treated -->
     <g transform="translate(94.6 100.322) scale(0.1 -0.1)">
      <use xlink:href="#ArialMT-4b"/>
      <use xlink:href="#ArialMT-4f" x="66.699219"/>
      <use xlink:href="#ArialMT-5f" x="144.482422"/>
      <use xlink:href="#ArialMT-74" x="200.097656"/>
      <use xlink:href="#ArialMT-72" x="227.880859"/>
      <use xlink:href="#ArialMT-65" x="261.181641"/>
      <use xlink:href="#ArialMT-61" x="316.796875"/>
      <use xlink:href="#ArialMT-74" x="372.412109"/>
      <use xlink:href="#ArialMT-65" x="400.195312"/>
      <use xlink:href="#ArialMT-64" x="455.810547"/>
     </g>
    </g>
   </g>
  </g>
 </g>
 <defs>
  <clipPath id="p496d1d8929">
   <rect x="57.6" y="41.472" width="357.12" height="266.112"/>
  </clipPath>
 </defs>
</svg>
