<?xml version="1.0" encoding="utf-8" standalone="no"?>
<!DOCTYPE svg PUBLIC "-//W3C//DTD SVG 1.1//EN"
  "http://www.w3.org/Graphics/SVG/1.1/DTD/svg11.dtd">
<svg xmlns:xlink="http://www.w3.org/1999/xlink" width="460.8pt" height="345.6pt" viewBox="0 0 460.8 345.6" xmlns="http://www.w3.org/2000/svg" version="1.1">
 <metadata>
  <rdf:RDF xmlns:dc="http://purl.org/dc/elements/1.1/" xmlns:cc="http://creativecommons.org/ns#" xmlns:rdf="http://www.w3.org/1999/02/22-rdf-syntax-ns#">
   <cc:Work>
    <dc:type rdf:resource="http://purl.org/dc/dcmitype/StillImage"/>
    <dc:date>2023-05-16T13:48:11.200928</dc:date>
    <dc:format>image/svg+xml</dc:format>
    <dc:creator>
     <cc:Agent>
      <dc:title>Matplotlib v3.7.1, https://matplotlib.org/</dc:title>
     </cc:Agent>
    </dc:creator>
   </cc:Work>
  </rdf:RDF>
 </metadata>
 <defs>
  <style type="text/css">*{stroke-linejoin: round; stroke-linecap: butt}</style>
 </defs>
 <g id="figure_1">
  <g id="patch_1">
   <path d="M 0 345.6 
L 460.8 345.6 
L 460.8 0 
L 0 0 
z
" style="fill: #ffffff"/>
  </g>
  <g id="axes_1">
   <g id="patch_2">
    <path d="M 57.6 307.584 
L 414.72 307.584 
L 414.72 41.472 
L 57.6 41.472 
z
" style="fill: #ffffff"/>
   </g>
   <g id="PathCollection_1">
    <defs>
     <path id="C0_0_f69bf41655" d="M 0 3 
C 0.795609 3 1.55874 2.683901 2.12132 2.12132 
C 2.683901 1.55874 3 0.795609 3 -0 
C 3 -0.795609 2.683901 -1.55874 2.12132 -2.12132 
C 1.55874 -2.683901 0.795609 -3 0 -3 
C -0.795609 -3 -1.55874 -2.683901 -2.12132 -2.12132 
C -2.683901 -1.55874 -3 -0.795609 -3 0 
C -3 0.795609 -2.683901 1.55874 -2.12132 2.12132 
C -1.55874 2.683901 -0.795609 3 0 3 
z
"/>
    </defs>
    <g clip-path="url(#p8303b379e3)">
     <use xlink:href="#C0_0_f69bf41655" x="286.877565" y="284.291111" style="fill: #808080; stroke: #ffffff; stroke-width: 0.48"/>
    </g>
    <g clip-path="url(#p8303b379e3)">
     <use xlink:href="#C0_0_f69bf41655" x="166.04451" y="269.033964" style="fill: #808080; stroke: #ffffff; stroke-width: 0.48"/>
    </g>
    <g clip-path="url(#p8303b379e3)">
     <use xlink:href="#C0_0_f69bf41655" x="265.264743" y="266.349423" style="fill: #808080; stroke: #ffffff; stroke-width: 0.48"/>
    </g>
    <g clip-path="url(#p8303b379e3)">
     <use xlink:href="#C0_0_f69bf41655" x="192.268206" y="195.779832" style="fill: #808080; stroke: #ffffff; stroke-width: 0.48"/>
    </g>
    <g clip-path="url(#p8303b379e3)">
     <use xlink:href="#C0_0_f69bf41655" x="184.39367" y="266.43177" style="fill: #808080; stroke: #ffffff; stroke-width: 0.48"/>
    </g>
    <g clip-path="url(#p8303b379e3)">
     <use xlink:href="#C0_0_f69bf41655" x="200.39221" y="264.821687" style="fill: #808080; stroke: #ffffff; stroke-width: 0.48"/>
    </g>
    <g clip-path="url(#p8303b379e3)">
     <use xlink:href="#C0_0_f69bf41655" x="131.239495" y="231.665334" style="fill: #808080; stroke: #ffffff; stroke-width: 0.48"/>
    </g>
    <g clip-path="url(#p8303b379e3)">
     <use xlink:href="#C0_0_f69bf41655" x="207.646848" y="253.308028" style="fill: #808080; stroke: #ffffff; stroke-width: 0.48"/>
    </g>
    <g clip-path="url(#p8303b379e3)">
     <use xlink:href="#C0_0_f69bf41655" x="187.26971" y="229.723283" style="fill: #808080; stroke: #ffffff; stroke-width: 0.48"/>
    </g>
    <g clip-path="url(#p8303b379e3)">
     <use xlink:href="#C0_0_f69bf41655" x="194.325909" y="272.180759" style="fill: #808080; stroke: #ffffff; stroke-width: 0.48"/>
    </g>
    <g clip-path="url(#p8303b379e3)">
     <use xlink:href="#C0_0_f69bf41655" x="184.274253" y="271.567679" style="fill: #808080; stroke: #ffffff; stroke-width: 0.48"/>
    </g>
    <g clip-path="url(#p8303b379e3)">
     <use xlink:href="#C0_0_f69bf41655" x="158.294028" y="272.82942" style="fill: #808080; stroke: #ffffff; stroke-width: 0.48"/>
    </g>
    <g clip-path="url(#p8303b379e3)">
     <use xlink:href="#C0_0_f69bf41655" x="208.203613" y="233.768648" style="fill: #808080; stroke: #ffffff; stroke-width: 0.48"/>
    </g>
    <g clip-path="url(#p8303b379e3)">
     <use xlink:href="#C0_0_f69bf41655" x="227.428124" y="247.150219" style="fill: #808080; stroke: #ffffff; stroke-width: 0.48"/>
    </g>
    <g clip-path="url(#p8303b379e3)">
     <use xlink:href="#C0_0_f69bf41655" x="135.635079" y="227.601531" style="fill: #808080; stroke: #ffffff; stroke-width: 0.48"/>
    </g>
    <g clip-path="url(#p8303b379e3)">
     <use xlink:href="#C0_0_f69bf41655" x="267.19305" y="274.644193" style="fill: #808080; stroke: #ffffff; stroke-width: 0.48"/>
    </g>
    <g clip-path="url(#p8303b379e3)">
     <use xlink:href="#C0_0_f69bf41655" x="143.245944" y="257.217352" style="fill: #808080; stroke: #ffffff; stroke-width: 0.48"/>
    </g>
    <g clip-path="url(#p8303b379e3)">
     <use xlink:href="#C0_0_f69bf41655" x="144.853318" y="216.268486" style="fill: #808080; stroke: #ffffff; stroke-width: 0.48"/>
    </g>
    <g clip-path="url(#p8303b379e3)">
     <use xlink:href="#C0_0_f69bf41655" x="261.940785" y="271.325483" style="fill: #808080; stroke: #ffffff; stroke-width: 0.48"/>
    </g>
    <g clip-path="url(#p8303b379e3)">
     <use xlink:href="#C0_0_f69bf41655" x="134.469858" y="246.339789" style="fill: #808080; stroke: #ffffff; stroke-width: 0.48"/>
    </g>
    <g clip-path="url(#p8303b379e3)">
     <use xlink:href="#C0_0_f69bf41655" x="226.248424" y="269.422505" style="fill: #808080; stroke: #ffffff; stroke-width: 0.48"/>
    </g>
    <g clip-path="url(#p8303b379e3)">
     <use xlink:href="#C0_0_f69bf41655" x="140.851225" y="206.651108" style="fill: #808080; stroke: #ffffff; stroke-width: 0.48"/>
    </g>
    <g clip-path="url(#p8303b379e3)">
     <use xlink:href="#C0_0_f69bf41655" x="251.614278" y="273.021905" style="fill: #808080; stroke: #ffffff; stroke-width: 0.48"/>
    </g>
    <g clip-path="url(#p8303b379e3)">
     <use xlink:href="#C0_0_f69bf41655" x="211.34583" y="253.430726" style="fill: #808080; stroke: #ffffff; stroke-width: 0.48"/>
    </g>
    <g clip-path="url(#p8303b379e3)">
     <use xlink:href="#C0_0_f69bf41655" x="206.721228" y="273.940863" style="fill: #808080; stroke: #ffffff; stroke-width: 0.48"/>
    </g>
    <g clip-path="url(#p8303b379e3)">
     <use xlink:href="#C0_0_f69bf41655" x="193.711841" y="261.260085" style="fill: #808080; stroke: #ffffff; stroke-width: 0.48"/>
    </g>
    <g clip-path="url(#p8303b379e3)">
     <use xlink:href="#C0_0_f69bf41655" x="149.962941" y="193.354561" style="fill: #808080; stroke: #ffffff; stroke-width: 0.48"/>
    </g>
    <g clip-path="url(#p8303b379e3)">
     <use xlink:href="#C0_0_f69bf41655" x="189.427725" y="261.893675" style="fill: #808080; stroke: #ffffff; stroke-width: 0.48"/>
    </g>
    <g clip-path="url(#p8303b379e3)">
     <use xlink:href="#C0_0_f69bf41655" x="166.043756" y="129.889975" style="fill: #dc143c; stroke: #ffffff; stroke-width: 0.48"/>
    </g>
    <g clip-path="url(#p8303b379e3)">
     <use xlink:href="#C0_0_f69bf41655" x="83.97772" y="64.554815" style="fill: #dc143c; stroke: #ffffff; stroke-width: 0.48"/>
    </g>
   </g>
   <g id="PathCollection_2"/>
   <g id="PathCollection_3"/>
   <g id="matplotlib.axis_1">
    <g id="xtick_1">
     <g id="line2d_1">
      <defs>
       <path id="m33a2f4817e" d="M 0 0 
L 0 3.5 
" style="stroke: #000000; stroke-width: 0.8"/>
      </defs>
      <g>
       <use xlink:href="#m33a2f4817e" x="128.590986" y="307.584" style="stroke: #000000; stroke-width: 0.8"/>
      </g>
     </g>
     <g id="text_1">
      <!-- −2 -->
      <g transform="translate(122.890205 321.741812) scale(0.1 -0.1)">
       <defs>
        <path id="ArialMT-2212" d="M 3381 1997 
L 356 1997 
L 356 2522 
L 3381 2522 
L 3381 1997 
z
" transform="scale(0.015625)"/>
        <path id="ArialMT-32" d="M 3222 541 
L 3222 0 
L 194 0 
Q 188 203 259 391 
Q 375 700 629 1000 
Q 884 1300 1366 1694 
Q 2113 2306 2375 2664 
Q 2638 3022 2638 3341 
Q 2638 3675 2398 3904 
Q 2159 4134 1775 4134 
Q 1369 4134 1125 3890 
Q 881 3647 878 3216 
L 300 3275 
Q 359 3922 746 4261 
Q 1134 4600 1788 4600 
Q 2447 4600 2831 4234 
Q 3216 3869 3216 3328 
Q 3216 3053 3103 2787 
Q 2991 2522 2730 2228 
Q 2469 1934 1863 1422 
Q 1356 997 1212 845 
Q 1069 694 975 541 
L 3222 541 
z
" transform="scale(0.015625)"/>
       </defs>
       <use xlink:href="#ArialMT-2212"/>
       <use xlink:href="#ArialMT-32" x="58.398438"/>
      </g>
     </g>
    </g>
    <g id="xtick_2">
     <g id="line2d_2">
      <g>
       <use xlink:href="#m33a2f4817e" x="205.704211" y="307.584" style="stroke: #000000; stroke-width: 0.8"/>
      </g>
     </g>
     <g id="text_2">
      <!-- −1 -->
      <g transform="translate(200.00343 321.741812) scale(0.1 -0.1)">
       <defs>
        <path id="ArialMT-31" d="M 2384 0 
L 1822 0 
L 1822 3584 
Q 1619 3391 1289 3197 
Q 959 3003 697 2906 
L 697 3450 
Q 1169 3672 1522 3987 
Q 1875 4303 2022 4600 
L 2384 4600 
L 2384 0 
z
" transform="scale(0.015625)"/>
       </defs>
       <use xlink:href="#ArialMT-2212"/>
       <use xlink:href="#ArialMT-31" x="58.398438"/>
      </g>
     </g>
    </g>
    <g id="xtick_3">
     <g id="line2d_3">
      <g>
       <use xlink:href="#m33a2f4817e" x="282.817436" y="307.584" style="stroke: #000000; stroke-width: 0.8"/>
      </g>
     </g>
     <g id="text_3">
      <!-- 0 -->
      <g transform="translate(280.036967 321.741812) scale(0.1 -0.1)">
       <defs>
        <path id="ArialMT-30" d="M 266 2259 
Q 266 3072 433 3567 
Q 600 4063 929 4331 
Q 1259 4600 1759 4600 
Q 2128 4600 2406 4451 
Q 2684 4303 2865 4023 
Q 3047 3744 3150 3342 
Q 3253 2941 3253 2259 
Q 3253 1453 3087 958 
Q 2922 463 2592 192 
Q 2263 -78 1759 -78 
Q 1097 -78 719 397 
Q 266 969 266 2259 
z
M 844 2259 
Q 844 1131 1108 757 
Q 1372 384 1759 384 
Q 2147 384 2411 759 
Q 2675 1134 2675 2259 
Q 2675 3391 2411 3762 
Q 2147 4134 1753 4134 
Q 1366 4134 1134 3806 
Q 844 3388 844 2259 
z
" transform="scale(0.015625)"/>
       </defs>
       <use xlink:href="#ArialMT-30"/>
      </g>
     </g>
    </g>
    <g id="xtick_4">
     <g id="line2d_4">
      <g>
       <use xlink:href="#m33a2f4817e" x="359.93066" y="307.584" style="stroke: #000000; stroke-width: 0.8"/>
      </g>
     </g>
     <g id="text_4">
      <!-- 1 -->
      <g transform="translate(357.150192 321.741812) scale(0.1 -0.1)">
       <use xlink:href="#ArialMT-31"/>
      </g>
     </g>
    </g>
    <g id="text_5">
     <!-- Log2_fold_change: WT-1h/WT-3h -->
     <g transform="translate(161.398281 335.009) scale(0.1 -0.1)">
      <defs>
       <path id="ArialMT-4c" d="M 469 0 
L 469 4581 
L 1075 4581 
L 1075 541 
L 3331 541 
L 3331 0 
L 469 0 
z
" transform="scale(0.015625)"/>
       <path id="ArialMT-6f" d="M 213 1659 
Q 213 2581 725 3025 
Q 1153 3394 1769 3394 
Q 2453 3394 2887 2945 
Q 3322 2497 3322 1706 
Q 3322 1066 3130 698 
Q 2938 331 2570 128 
Q 2203 -75 1769 -75 
Q 1072 -75 642 372 
Q 213 819 213 1659 
z
M 791 1659 
Q 791 1022 1069 705 
Q 1347 388 1769 388 
Q 2188 388 2466 706 
Q 2744 1025 2744 1678 
Q 2744 2294 2464 2611 
Q 2184 2928 1769 2928 
Q 1347 2928 1069 2612 
Q 791 2297 791 1659 
z
" transform="scale(0.015625)"/>
       <path id="ArialMT-67" d="M 319 -275 
L 866 -356 
Q 900 -609 1056 -725 
Q 1266 -881 1628 -881 
Q 2019 -881 2231 -725 
Q 2444 -569 2519 -288 
Q 2563 -116 2559 434 
Q 2191 0 1641 0 
Q 956 0 581 494 
Q 206 988 206 1678 
Q 206 2153 378 2554 
Q 550 2956 876 3175 
Q 1203 3394 1644 3394 
Q 2231 3394 2613 2919 
L 2613 3319 
L 3131 3319 
L 3131 450 
Q 3131 -325 2973 -648 
Q 2816 -972 2473 -1159 
Q 2131 -1347 1631 -1347 
Q 1038 -1347 672 -1080 
Q 306 -813 319 -275 
z
M 784 1719 
Q 784 1066 1043 766 
Q 1303 466 1694 466 
Q 2081 466 2343 764 
Q 2606 1063 2606 1700 
Q 2606 2309 2336 2618 
Q 2066 2928 1684 2928 
Q 1309 2928 1046 2623 
Q 784 2319 784 1719 
z
" transform="scale(0.015625)"/>
       <path id="ArialMT-5f" d="M -97 -1272 
L -97 -866 
L 3631 -866 
L 3631 -1272 
L -97 -1272 
z
" transform="scale(0.015625)"/>
       <path id="ArialMT-66" d="M 556 0 
L 556 2881 
L 59 2881 
L 59 3319 
L 556 3319 
L 556 3672 
Q 556 4006 616 4169 
Q 697 4388 901 4523 
Q 1106 4659 1475 4659 
Q 1713 4659 2000 4603 
L 1916 4113 
Q 1741 4144 1584 4144 
Q 1328 4144 1222 4034 
Q 1116 3925 1116 3625 
L 1116 3319 
L 1763 3319 
L 1763 2881 
L 1116 2881 
L 1116 0 
L 556 0 
z
" transform="scale(0.015625)"/>
       <path id="ArialMT-6c" d="M 409 0 
L 409 4581 
L 972 4581 
L 972 0 
L 409 0 
z
" transform="scale(0.015625)"/>
       <path id="ArialMT-64" d="M 2575 0 
L 2575 419 
Q 2259 -75 1647 -75 
Q 1250 -75 917 144 
Q 584 363 401 755 
Q 219 1147 219 1656 
Q 219 2153 384 2558 
Q 550 2963 881 3178 
Q 1213 3394 1622 3394 
Q 1922 3394 2156 3267 
Q 2391 3141 2538 2938 
L 2538 4581 
L 3097 4581 
L 3097 0 
L 2575 0 
z
M 797 1656 
Q 797 1019 1065 703 
Q 1334 388 1700 388 
Q 2069 388 2326 689 
Q 2584 991 2584 1609 
Q 2584 2291 2321 2609 
Q 2059 2928 1675 2928 
Q 1300 2928 1048 2622 
Q 797 2316 797 1656 
z
" transform="scale(0.015625)"/>
       <path id="ArialMT-63" d="M 2588 1216 
L 3141 1144 
Q 3050 572 2676 248 
Q 2303 -75 1759 -75 
Q 1078 -75 664 370 
Q 250 816 250 1647 
Q 250 2184 428 2587 
Q 606 2991 970 3192 
Q 1334 3394 1763 3394 
Q 2303 3394 2647 3120 
Q 2991 2847 3088 2344 
L 2541 2259 
Q 2463 2594 2264 2762 
Q 2066 2931 1784 2931 
Q 1359 2931 1093 2626 
Q 828 2322 828 1663 
Q 828 994 1084 691 
Q 1341 388 1753 388 
Q 2084 388 2306 591 
Q 2528 794 2588 1216 
z
" transform="scale(0.015625)"/>
       <path id="ArialMT-68" d="M 422 0 
L 422 4581 
L 984 4581 
L 984 2938 
Q 1378 3394 1978 3394 
Q 2347 3394 2619 3248 
Q 2891 3103 3008 2847 
Q 3125 2591 3125 2103 
L 3125 0 
L 2563 0 
L 2563 2103 
Q 2563 2525 2380 2717 
Q 2197 2909 1863 2909 
Q 1613 2909 1392 2779 
Q 1172 2650 1078 2428 
Q 984 2206 984 1816 
L 984 0 
L 422 0 
z
" transform="scale(0.015625)"/>
       <path id="ArialMT-61" d="M 2588 409 
Q 2275 144 1986 34 
Q 1697 -75 1366 -75 
Q 819 -75 525 192 
Q 231 459 231 875 
Q 231 1119 342 1320 
Q 453 1522 633 1644 
Q 813 1766 1038 1828 
Q 1203 1872 1538 1913 
Q 2219 1994 2541 2106 
Q 2544 2222 2544 2253 
Q 2544 2597 2384 2738 
Q 2169 2928 1744 2928 
Q 1347 2928 1158 2789 
Q 969 2650 878 2297 
L 328 2372 
Q 403 2725 575 2942 
Q 747 3159 1072 3276 
Q 1397 3394 1825 3394 
Q 2250 3394 2515 3294 
Q 2781 3194 2906 3042 
Q 3031 2891 3081 2659 
Q 3109 2516 3109 2141 
L 3109 1391 
Q 3109 606 3145 398 
Q 3181 191 3288 0 
L 2700 0 
Q 2613 175 2588 409 
z
M 2541 1666 
Q 2234 1541 1622 1453 
Q 1275 1403 1131 1340 
Q 988 1278 909 1158 
Q 831 1038 831 891 
Q 831 666 1001 516 
Q 1172 366 1500 366 
Q 1825 366 2078 508 
Q 2331 650 2450 897 
Q 2541 1088 2541 1459 
L 2541 1666 
z
" transform="scale(0.015625)"/>
       <path id="ArialMT-6e" d="M 422 0 
L 422 3319 
L 928 3319 
L 928 2847 
Q 1294 3394 1984 3394 
Q 2284 3394 2536 3286 
Q 2788 3178 2913 3003 
Q 3038 2828 3088 2588 
Q 3119 2431 3119 2041 
L 3119 0 
L 2556 0 
L 2556 2019 
Q 2556 2363 2490 2533 
Q 2425 2703 2258 2804 
Q 2091 2906 1866 2906 
Q 1506 2906 1245 2678 
Q 984 2450 984 1813 
L 984 0 
L 422 0 
z
" transform="scale(0.015625)"/>
       <path id="ArialMT-65" d="M 2694 1069 
L 3275 997 
Q 3138 488 2766 206 
Q 2394 -75 1816 -75 
Q 1088 -75 661 373 
Q 234 822 234 1631 
Q 234 2469 665 2931 
Q 1097 3394 1784 3394 
Q 2450 3394 2872 2941 
Q 3294 2488 3294 1666 
Q 3294 1616 3291 1516 
L 816 1516 
Q 847 969 1125 678 
Q 1403 388 1819 388 
Q 2128 388 2347 550 
Q 2566 713 2694 1069 
z
M 847 1978 
L 2700 1978 
Q 2663 2397 2488 2606 
Q 2219 2931 1791 2931 
Q 1403 2931 1139 2672 
Q 875 2413 847 1978 
z
" transform="scale(0.015625)"/>
       <path id="ArialMT-3a" d="M 578 2678 
L 578 3319 
L 1219 3319 
L 1219 2678 
L 578 2678 
z
M 578 0 
L 578 641 
L 1219 641 
L 1219 0 
L 578 0 
z
" transform="scale(0.015625)"/>
       <path id="ArialMT-20" transform="scale(0.015625)"/>
       <path id="ArialMT-57" d="M 1294 0 
L 78 4581 
L 700 4581 
L 1397 1578 
Q 1509 1106 1591 641 
Q 1766 1375 1797 1488 
L 2669 4581 
L 3400 4581 
L 4056 2263 
Q 4303 1400 4413 641 
Q 4500 1075 4641 1638 
L 5359 4581 
L 5969 4581 
L 4713 0 
L 4128 0 
L 3163 3491 
Q 3041 3928 3019 4028 
Q 2947 3713 2884 3491 
L 1913 0 
L 1294 0 
z
" transform="scale(0.015625)"/>
       <path id="ArialMT-54" d="M 1659 0 
L 1659 4041 
L 150 4041 
L 150 4581 
L 3781 4581 
L 3781 4041 
L 2266 4041 
L 2266 0 
L 1659 0 
z
" transform="scale(0.015625)"/>
       <path id="ArialMT-2d" d="M 203 1375 
L 203 1941 
L 1931 1941 
L 1931 1375 
L 203 1375 
z
" transform="scale(0.015625)"/>
       <path id="ArialMT-2f" d="M 0 -78 
L 1328 4659 
L 1778 4659 
L 453 -78 
L 0 -78 
z
" transform="scale(0.015625)"/>
       <path id="ArialMT-33" d="M 269 1209 
L 831 1284 
Q 928 806 1161 595 
Q 1394 384 1728 384 
Q 2125 384 2398 659 
Q 2672 934 2672 1341 
Q 2672 1728 2419 1979 
Q 2166 2231 1775 2231 
Q 1616 2231 1378 2169 
L 1441 2663 
Q 1497 2656 1531 2656 
Q 1891 2656 2178 2843 
Q 2466 3031 2466 3422 
Q 2466 3731 2256 3934 
Q 2047 4138 1716 4138 
Q 1388 4138 1169 3931 
Q 950 3725 888 3313 
L 325 3413 
Q 428 3978 793 4289 
Q 1159 4600 1703 4600 
Q 2078 4600 2393 4439 
Q 2709 4278 2876 4000 
Q 3044 3722 3044 3409 
Q 3044 3113 2884 2869 
Q 2725 2625 2413 2481 
Q 2819 2388 3044 2092 
Q 3269 1797 3269 1353 
Q 3269 753 2831 336 
Q 2394 -81 1725 -81 
Q 1122 -81 723 278 
Q 325 638 269 1209 
z
" transform="scale(0.015625)"/>
      </defs>
      <use xlink:href="#ArialMT-4c"/>
      <use xlink:href="#ArialMT-6f" x="55.615234"/>
      <use xlink:href="#ArialMT-67" x="111.230469"/>
      <use xlink:href="#ArialMT-32" x="166.845703"/>
      <use xlink:href="#ArialMT-5f" x="222.460938"/>
      <use xlink:href="#ArialMT-66" x="278.076172"/>
      <use xlink:href="#ArialMT-6f" x="305.859375"/>
      <use xlink:href="#ArialMT-6c" x="361.474609"/>
      <use xlink:href="#ArialMT-64" x="383.691406"/>
      <use xlink:href="#ArialMT-5f" x="439.306641"/>
      <use xlink:href="#ArialMT-63" x="494.921875"/>
      <use xlink:href="#ArialMT-68" x="544.921875"/>
      <use xlink:href="#ArialMT-61" x="600.537109"/>
      <use xlink:href="#ArialMT-6e" x="656.152344"/>
      <use xlink:href="#ArialMT-67" x="711.767578"/>
      <use xlink:href="#ArialMT-65" x="767.382812"/>
      <use xlink:href="#ArialMT-3a" x="822.998047"/>
      <use xlink:href="#ArialMT-20" x="850.78125"/>
      <use xlink:href="#ArialMT-57" x="878.564453"/>
      <use xlink:href="#ArialMT-54" x="972.949219"/>
      <use xlink:href="#ArialMT-2d" x="1028.533203"/>
      <use xlink:href="#ArialMT-31" x="1061.833984"/>
      <use xlink:href="#ArialMT-68" x="1117.449219"/>
      <use xlink:href="#ArialMT-2f" x="1173.064453"/>
      <use xlink:href="#ArialMT-57" x="1200.847656"/>
      <use xlink:href="#ArialMT-54" x="1295.232422"/>
      <use xlink:href="#ArialMT-2d" x="1350.816406"/>
      <use xlink:href="#ArialMT-33" x="1384.117188"/>
      <use xlink:href="#ArialMT-68" x="1439.732422"/>
     </g>
    </g>
   </g>
   <g id="matplotlib.axis_2">
    <g id="ytick_1">
     <g id="line2d_5">
      <defs>
       <path id="m07612ba828" d="M 0 0 
L -3.5 0 
" style="stroke: #000000; stroke-width: 0.8"/>
      </defs>
      <g>
       <use xlink:href="#m07612ba828" x="57.6" y="295.488" style="stroke: #000000; stroke-width: 0.8"/>
      </g>
     </g>
     <g id="text_6">
      <!-- 0.0 -->
      <g transform="translate(36.7 299.066906) scale(0.1 -0.1)">
       <defs>
        <path id="ArialMT-2e" d="M 581 0 
L 581 641 
L 1222 641 
L 1222 0 
L 581 0 
z
" transform="scale(0.015625)"/>
       </defs>
       <use xlink:href="#ArialMT-30"/>
       <use xlink:href="#ArialMT-2e" x="55.615234"/>
       <use xlink:href="#ArialMT-30" x="83.398438"/>
      </g>
     </g>
    </g>
    <g id="ytick_2">
     <g id="line2d_6">
      <g>
       <use xlink:href="#m07612ba828" x="57.6" y="256.117011" style="stroke: #000000; stroke-width: 0.8"/>
      </g>
     </g>
     <g id="text_7">
      <!-- 0.5 -->
      <g transform="translate(36.7 259.695917) scale(0.1 -0.1)">
       <defs>
        <path id="ArialMT-35" d="M 266 1200 
L 856 1250 
Q 922 819 1161 601 
Q 1400 384 1738 384 
Q 2144 384 2425 690 
Q 2706 997 2706 1503 
Q 2706 1984 2436 2262 
Q 2166 2541 1728 2541 
Q 1456 2541 1237 2417 
Q 1019 2294 894 2097 
L 366 2166 
L 809 4519 
L 3088 4519 
L 3088 3981 
L 1259 3981 
L 1013 2750 
Q 1425 3038 1878 3038 
Q 2478 3038 2890 2622 
Q 3303 2206 3303 1553 
Q 3303 931 2941 478 
Q 2500 -78 1738 -78 
Q 1113 -78 717 272 
Q 322 622 266 1200 
z
" transform="scale(0.015625)"/>
       </defs>
       <use xlink:href="#ArialMT-30"/>
       <use xlink:href="#ArialMT-2e" x="55.615234"/>
       <use xlink:href="#ArialMT-35" x="83.398438"/>
      </g>
     </g>
    </g>
    <g id="ytick_3">
     <g id="line2d_7">
      <g>
       <use xlink:href="#m07612ba828" x="57.6" y="216.746022" style="stroke: #000000; stroke-width: 0.8"/>
      </g>
     </g>
     <g id="text_8">
      <!-- 1.0 -->
      <g transform="translate(36.7 220.324928) scale(0.1 -0.1)">
       <use xlink:href="#ArialMT-31"/>
       <use xlink:href="#ArialMT-2e" x="55.615234"/>
       <use xlink:href="#ArialMT-30" x="83.398438"/>
      </g>
     </g>
    </g>
    <g id="ytick_4">
     <g id="line2d_8">
      <g>
       <use xlink:href="#m07612ba828" x="57.6" y="177.375033" style="stroke: #000000; stroke-width: 0.8"/>
      </g>
     </g>
     <g id="text_9">
      <!-- 1.5 -->
      <g transform="translate(36.7 180.953939) scale(0.1 -0.1)">
       <use xlink:href="#ArialMT-31"/>
       <use xlink:href="#ArialMT-2e" x="55.615234"/>
       <use xlink:href="#ArialMT-35" x="83.398438"/>
      </g>
     </g>
    </g>
    <g id="ytick_5">
     <g id="line2d_9">
      <g>
       <use xlink:href="#m07612ba828" x="57.6" y="138.004044" style="stroke: #000000; stroke-width: 0.8"/>
      </g>
     </g>
     <g id="text_10">
      <!-- 2.0 -->
      <g transform="translate(36.7 141.58295) scale(0.1 -0.1)">
       <use xlink:href="#ArialMT-32"/>
       <use xlink:href="#ArialMT-2e" x="55.615234"/>
       <use xlink:href="#ArialMT-30" x="83.398438"/>
      </g>
     </g>
    </g>
    <g id="ytick_6">
     <g id="line2d_10">
      <g>
       <use xlink:href="#m07612ba828" x="57.6" y="98.633055" style="stroke: #000000; stroke-width: 0.8"/>
      </g>
     </g>
     <g id="text_11">
      <!-- 2.5 -->
      <g transform="translate(36.7 102.211961) scale(0.1 -0.1)">
       <use xlink:href="#ArialMT-32"/>
       <use xlink:href="#ArialMT-2e" x="55.615234"/>
       <use xlink:href="#ArialMT-35" x="83.398438"/>
      </g>
     </g>
    </g>
    <g id="ytick_7">
     <g id="line2d_11">
      <g>
       <use xlink:href="#m07612ba828" x="57.6" y="59.262066" style="stroke: #000000; stroke-width: 0.8"/>
      </g>
     </g>
     <g id="text_12">
      <!-- 3.0 -->
      <g transform="translate(36.7 62.840972) scale(0.1 -0.1)">
       <use xlink:href="#ArialMT-33"/>
       <use xlink:href="#ArialMT-2e" x="55.615234"/>
       <use xlink:href="#ArialMT-30" x="83.398438"/>
      </g>
     </g>
    </g>
    <g id="text_13">
     <!-- - Log10_ttest: WT-1h_WT-3h -->
     <g transform="translate(30.595312 238.719406) rotate(-90) scale(0.1 -0.1)">
      <defs>
       <path id="ArialMT-74" d="M 1650 503 
L 1731 6 
Q 1494 -44 1306 -44 
Q 1000 -44 831 53 
Q 663 150 594 308 
Q 525 466 525 972 
L 525 2881 
L 113 2881 
L 113 3319 
L 525 3319 
L 525 4141 
L 1084 4478 
L 1084 3319 
L 1650 3319 
L 1650 2881 
L 1084 2881 
L 1084 941 
Q 1084 700 1114 631 
Q 1144 563 1211 522 
Q 1278 481 1403 481 
Q 1497 481 1650 503 
z
" transform="scale(0.015625)"/>
       <path id="ArialMT-73" d="M 197 991 
L 753 1078 
Q 800 744 1014 566 
Q 1228 388 1613 388 
Q 2000 388 2187 545 
Q 2375 703 2375 916 
Q 2375 1106 2209 1216 
Q 2094 1291 1634 1406 
Q 1016 1563 777 1677 
Q 538 1791 414 1992 
Q 291 2194 291 2438 
Q 291 2659 392 2848 
Q 494 3038 669 3163 
Q 800 3259 1026 3326 
Q 1253 3394 1513 3394 
Q 1903 3394 2198 3281 
Q 2494 3169 2634 2976 
Q 2775 2784 2828 2463 
L 2278 2388 
Q 2241 2644 2061 2787 
Q 1881 2931 1553 2931 
Q 1166 2931 1000 2803 
Q 834 2675 834 2503 
Q 834 2394 903 2306 
Q 972 2216 1119 2156 
Q 1203 2125 1616 2013 
Q 2213 1853 2448 1751 
Q 2684 1650 2818 1456 
Q 2953 1263 2953 975 
Q 2953 694 2789 445 
Q 2625 197 2315 61 
Q 2006 -75 1616 -75 
Q 969 -75 630 194 
Q 291 463 197 991 
z
" transform="scale(0.015625)"/>
      </defs>
      <use xlink:href="#ArialMT-2d"/>
      <use xlink:href="#ArialMT-20" x="33.300781"/>
      <use xlink:href="#ArialMT-4c" x="61.083984"/>
      <use xlink:href="#ArialMT-6f" x="116.699219"/>
      <use xlink:href="#ArialMT-67" x="172.314453"/>
      <use xlink:href="#ArialMT-31" x="227.929688"/>
      <use xlink:href="#ArialMT-30" x="283.544922"/>
      <use xlink:href="#ArialMT-5f" x="339.160156"/>
      <use xlink:href="#ArialMT-74" x="394.775391"/>
      <use xlink:href="#ArialMT-74" x="422.558594"/>
      <use xlink:href="#ArialMT-65" x="450.341797"/>
      <use xlink:href="#ArialMT-73" x="505.957031"/>
      <use xlink:href="#ArialMT-74" x="555.957031"/>
      <use xlink:href="#ArialMT-3a" x="583.740234"/>
      <use xlink:href="#ArialMT-20" x="611.523438"/>
      <use xlink:href="#ArialMT-57" x="639.306641"/>
      <use xlink:href="#ArialMT-54" x="733.691406"/>
      <use xlink:href="#ArialMT-2d" x="789.275391"/>
      <use xlink:href="#ArialMT-31" x="822.576172"/>
      <use xlink:href="#ArialMT-68" x="878.191406"/>
      <use xlink:href="#ArialMT-5f" x="933.806641"/>
      <use xlink:href="#ArialMT-57" x="989.421875"/>
      <use xlink:href="#ArialMT-54" x="1083.806641"/>
      <use xlink:href="#ArialMT-2d" x="1139.390625"/>
      <use xlink:href="#ArialMT-33" x="1172.691406"/>
      <use xlink:href="#ArialMT-68" x="1228.306641"/>
     </g>
    </g>
   </g>
   <g id="line2d_12">
    <path d="M 73.832727 177.375033 
L 297.022557 177.375033 
" clip-path="url(#p8303b379e3)" style="fill: none; stroke-dasharray: 5.55,2.4; stroke-dashoffset: 0; stroke: #4c72b0; stroke-opacity: 0.2; stroke-width: 1.5"/>
   </g>
   <g id="line2d_13">
    <path d="M 398.487273 295.488 
L 398.487273 53.568 
" clip-path="url(#p8303b379e3)" style="fill: none; stroke-dasharray: 5.55,2.4; stroke-dashoffset: 0; stroke: #4c72b0; stroke-opacity: 0.2; stroke-width: 1.5"/>
   </g>
   <g id="line2d_14">
    <path d="M 167.147599 295.488 
L 167.147599 53.568 
" clip-path="url(#p8303b379e3)" style="fill: none; stroke-dasharray: 5.55,2.4; stroke-dashoffset: 0; stroke: #4c72b0; stroke-opacity: 0.2; stroke-width: 1.5"/>
   </g>
   <g id="patch_3">
    <path d="M 57.6 307.584 
L 57.6 41.472 
" style="fill: none; stroke: #000000; stroke-width: 0.8; stroke-linejoin: miter; stroke-linecap: square"/>
   </g>
   <g id="patch_4">
    <path d="M 414.72 307.584 
L 414.72 41.472 
" style="fill: none; stroke: #000000; stroke-width: 0.8; stroke-linejoin: miter; stroke-linecap: square"/>
   </g>
   <g id="patch_5">
    <path d="M 57.6 307.584 
L 414.72 307.584 
" style="fill: none; stroke: #000000; stroke-width: 0.8; stroke-linejoin: miter; stroke-linecap: square"/>
   </g>
   <g id="patch_6">
    <path d="M 57.6 41.472 
L 414.72 41.472 
" style="fill: none; stroke: #000000; stroke-width: 0.8; stroke-linejoin: miter; stroke-linecap: square"/>
   </g>
  </g>
 </g>
 <defs>
  <clipPath id="p8303b379e3">
   <rect x="57.6" y="41.472" width="357.12" height="266.112"/>
  </clipPath>
 </defs>
</svg>
