<?xml version="1.0" encoding="utf-8" standalone="no"?>
<!DOCTYPE svg PUBLIC "-//W3C//DTD SVG 1.1//EN"
  "http://www.w3.org/Graphics/SVG/1.1/DTD/svg11.dtd">
<svg xmlns:xlink="http://www.w3.org/1999/xlink" width="720pt" height="432pt" viewBox="0 0 720 432" xmlns="http://www.w3.org/2000/svg" version="1.1">
 <metadata>
  <rdf:RDF xmlns:dc="http://purl.org/dc/elements/1.1/" xmlns:cc="http://creativecommons.org/ns#" xmlns:rdf="http://www.w3.org/1999/02/22-rdf-syntax-ns#">
   <cc:Work>
    <dc:type rdf:resource="http://purl.org/dc/dcmitype/StillImage"/>
    <dc:date>2023-08-03T13:34:44.510639</dc:date>
    <dc:format>image/svg+xml</dc:format>
    <dc:creator>
     <cc:Agent>
      <dc:title>Matplotlib v3.7.1, https://matplotlib.org/</dc:title>
     </cc:Agent>
    </dc:creator>
   </cc:Work>
  </rdf:RDF>
 </metadata>
 <defs>
  <style type="text/css">*{stroke-linejoin: round; stroke-linecap: butt}</style>
 </defs>
 <g id="figure_1">
  <g id="patch_1">
   <path d="M 0 432 
L 720 432 
L 720 0 
L 0 0 
z
" style="fill: #ffffff"/>
  </g>
  <g id="axes_1">
   <g id="patch_2">
    <path d="M 90 384.48 
L 648 384.48 
L 648 51.84 
L 90 51.84 
z
" style="fill: #ffffff"/>
   </g>
   <g id="patch_3">
    <path d="M 121 384.48 
L 183 384.48 
L 183 51.84 
L 121 51.84 
z
" clip-path="url(#p391e795806)" style="fill: #ffd700; opacity: 0.35; stroke: #ffffff; stroke-width: 0.8; stroke-linejoin: miter"/>
   </g>
   <g id="patch_4">
    <path d="M 183 384.48 
L 245 384.48 
L 245 51.84 
L 183 51.84 
z
" clip-path="url(#p391e795806)" style="fill: #ffd700; opacity: 0.35; stroke: #ffffff; stroke-width: 0.8; stroke-linejoin: miter"/>
   </g>
   <g id="patch_5">
    <path d="M 245 384.48 
L 307 384.48 
L 307 51.84 
L 245 51.84 
z
" clip-path="url(#p391e795806)" style="fill: #ffd700; opacity: 0.35; stroke: #ffffff; stroke-width: 0.8; stroke-linejoin: miter"/>
   </g>
   <g id="patch_6">
    <path d="M 307 384.48 
L 369 384.48 
L 369 51.84 
L 307 51.84 
z
" clip-path="url(#p391e795806)" style="fill: #ffd700; opacity: 0.35; stroke: #ffffff; stroke-width: 0.8; stroke-linejoin: miter"/>
   </g>
   <g id="patch_7">
    <path d="M 369 384.48 
L 431 384.48 
L 431 51.84 
L 369 51.84 
z
" clip-path="url(#p391e795806)" style="fill: #ffd700; opacity: 0.35; stroke: #ffffff; stroke-width: 0.8; stroke-linejoin: miter"/>
   </g>
   <g id="patch_8">
    <path d="M 493 384.48 
L 555 384.48 
L 555 51.84 
L 493 51.84 
z
" clip-path="url(#p391e795806)" style="fill: #ffd700; opacity: 0.35; stroke: #ffffff; stroke-width: 0.8; stroke-linejoin: miter"/>
   </g>
   <g id="patch_9">
    <path d="M 555 384.48 
L 617 384.48 
L 617 51.84 
L 555 51.84 
z
" clip-path="url(#p391e795806)" style="fill: #ffd700; opacity: 0.35; stroke: #ffffff; stroke-width: 0.8; stroke-linejoin: miter"/>
   </g>
   <g id="line2d_1">
    <path d="M 90 384.48 
L 648 384.48 
" clip-path="url(#p391e795806)" style="fill: none; stroke: #000000; stroke-width: 0.5; stroke-linecap: round"/>
   </g>
   <g id="patch_10">
    <path d="M 125.65 376.966856 
L 134.762642 376.966856 
L 141.132798 382.287005 
L 147.455534 376.966856 
L 156.615597 376.966856 
L 162.938332 382.287005 
L 169.316392 376.966856 
L 178.35 376.966856 
L 169.656239 384.287355 
L 158.694196 384.287355 
L 152 378.722458 
L 145.384838 384.287355 
L 134.414892 384.287355 
L 125.65 376.966856 
z
" clip-path="url(#p391e795806)" style="fill: #21599c"/>
   </g>
   <g id="patch_11">
    <path d="M 125.65 367.209385 
L 140.813382 367.209385 
L 140.813382 370.76065 
L 163.186618 370.76065 
L 163.186618 367.209385 
L 178.35 367.209385 
L 178.35 376.52896 
L 163.186618 376.52896 
L 163.186618 372.578227 
L 140.813382 372.578227 
L 140.813382 376.52896 
L 125.65 376.52896 
L 125.65 367.209385 
z
" clip-path="url(#p391e795806)" style="fill: #177875"/>
   </g>
   <g id="patch_12">
    <path d="M 126.198462 320.144425 
L 177.801538 320.144425 
L 177.801538 329.04144 
L 145.323077 329.04144 
L 145.323077 337.527824 
L 175.877949 337.527824 
L 175.877949 346.42484 
L 145.323077 346.42484 
L 145.323077 365.763627 
L 126.198462 365.763627 
L 126.198462 320.144425 
z
" clip-path="url(#p391e795806)" style="fill: #21599c"/>
   </g>
   <g id="patch_13">
    <path d="M 125.65 63.797022 
L 140.22 63.797022 
L 151.988929 152.40173 
L 163.746786 63.797022 
L 178.35 63.797022 
L 158.665 207.653132 
L 158.665 312.401691 
L 145.346071 312.401691 
L 145.346071 207.653132 
L 125.65 63.797022 
z
" clip-path="url(#p391e795806)" style="fill: #177875"/>
   </g>
   <g id="patch_14">
    <path d="M 187.65 384.338998 
L 203.195992 384.338998 
L 213.979692 384.41252 
L 224.83447 384.338998 
L 240.35 384.338998 
L 240.35 384.476385 
L 228.80474 384.476385 
L 228.80474 384.375891 
L 217.889037 384.449973 
L 210.141426 384.449973 
L 199.225723 384.375891 
L 199.225723 384.476385 
L 187.65 384.476385 
L 187.65 384.338998 
z
" clip-path="url(#p391e795806)" style="fill: #21599c"/>
   </g>
   <g id="patch_15">
    <path d="M 187.65 382.784727 
L 196.762642 382.784727 
L 203.132798 383.882765 
L 209.455534 382.784727 
L 218.615597 382.784727 
L 224.938332 383.882765 
L 231.316392 382.784727 
L 240.35 382.784727 
L 231.656239 384.295622 
L 220.694196 384.295622 
L 214 383.14707 
L 207.384838 384.295622 
L 196.414892 384.295622 
L 187.65 382.784727 
z
" clip-path="url(#p391e795806)" style="fill: #21599c"/>
   </g>
   <g id="patch_16">
    <path d="M 187.65 377.040517 
L 206.774615 377.040517 
L 206.774615 381.51589 
L 240.35 381.51589 
L 240.35 382.598699 
L 187.65 382.598699 
L 187.65 377.040517 
z
" clip-path="url(#p391e795806)" style="fill: #21599c"/>
   </g>
   <g id="patch_17">
    <path d="M 187.65 345.197554 
L 202.22 345.197554 
L 213.988929 356.204846 
L 225.746786 345.197554 
L 240.35 345.197554 
L 220.665 363.068683 
L 220.665 376.081513 
L 207.346071 376.081513 
L 207.346071 363.068683 
L 187.65 345.197554 
z
" clip-path="url(#p391e795806)" style="fill: #177875"/>
   </g>
   <g id="patch_18">
    <path d="M 188.198462 59.15362 
L 239.801538 59.15362 
L 239.801538 113.355291 
L 207.323077 113.355291 
L 207.323077 165.055346 
L 237.877949 165.055346 
L 237.877949 219.257017 
L 207.323077 219.257017 
L 207.323077 337.071198 
L 188.198462 337.071198 
L 188.198462 59.15362 
z
" clip-path="url(#p391e795806)" style="fill: #21599c"/>
   </g>
   <g id="patch_19">
    <path d="M 250.198462 381.577696 
L 301.801538 381.577696 
L 301.801538 382.129213 
L 269.323077 382.129213 
L 269.323077 382.655275 
L 299.877949 382.655275 
L 299.877949 383.206791 
L 269.323077 383.206791 
L 269.323077 384.405582 
L 250.198462 384.405582 
L 250.198462 381.577696 
z
" clip-path="url(#p391e795806)" style="fill: #21599c"/>
   </g>
   <g id="patch_20">
    <path d="M 249.65 372.218732 
L 262.68762 372.218732 
L 276.016162 378.895989 
L 289.323155 372.218732 
L 302.35 372.218732 
L 283.730985 381.265213 
L 268.269015 381.265213 
L 249.65 372.218732 
z
" clip-path="url(#p391e795806)" style="fill: #21599c"/>
   </g>
   <g id="patch_21">
    <path d="M 249.65 360.096493 
L 265.195992 360.096493 
L 275.979692 366.293212 
L 286.83447 360.096493 
L 302.35 360.096493 
L 302.35 371.675945 
L 290.80474 371.675945 
L 290.80474 363.20602 
L 279.889037 369.449891 
L 272.141426 369.449891 
L 261.225723 363.20602 
L 261.225723 371.675945 
L 249.65 371.675945 
L 249.65 360.096493 
z
" clip-path="url(#p391e795806)" style="fill: #21599c"/>
   </g>
   <g id="patch_22">
    <path d="M 266.437692 338.446559 
L 285.562308 338.446559 
L 285.562308 359.244458 
L 266.437692 359.244458 
L 266.437692 338.446559 
z
" clip-path="url(#p391e795806)" style="fill: #21599c"/>
   </g>
   <g id="patch_23">
    <path d="M 249.65 162.830308 
L 268.774615 162.830308 
L 268.774615 300.179006 
L 302.35 300.179006 
L 302.35 333.410299 
L 249.65 333.410299 
L 249.65 162.830308 
z
" clip-path="url(#p391e795806)" style="fill: #21599c"/>
   </g>
   <g id="patch_24">
    <path d="M 339.405333 383.455771 
L 338.373292 383.455771 
Q 325.714313 383.455771 318.676667 382.803062 
Q 311.65 382.149328 311.65 380.984288 
Q 311.65 379.821298 318.665687 379.162441 
Q 325.681375 378.50256 338 378.50256 
Q 350.450375 378.50256 357.400188 379.156293 
Q 364.35 379.809002 364.35 380.984288 
Q 364.35 381.790697 360.661 382.373729 
Q 356.972 382.956761 350.044146 383.250838 
L 360.364563 384.326732 
L 347.771458 384.326732 
L 339.405333 383.455771 
z
M 338 379.396064 
Q 331.961458 379.396064 328.634771 379.812076 
Q 325.308083 380.228089 325.308083 380.984288 
Q 325.308083 381.752784 328.557917 382.161624 
Q 331.818729 382.569439 338 382.569439 
Q 344.071479 382.569439 347.398167 382.153427 
Q 350.724854 381.73639 350.724854 380.984288 
Q 350.724854 380.228089 347.398167 379.812076 
Q 344.071479 379.396064 338 379.396064 
z
" clip-path="url(#p391e795806)" style="fill: #40ba47"/>
   </g>
   <g id="patch_25">
    <path d="M 311.65 347.716581 
L 325.537864 347.716581 
L 325.537864 358.610254 
L 345.555783 347.716581 
L 361.683253 347.716581 
L 335.743078 361.853409 
L 364.35 377.563838 
L 346.964195 377.563838 
L 325.537864 365.806603 
L 325.537864 377.563838 
L 311.65 377.563838 
L 311.65 347.716581 
z
" clip-path="url(#p391e795806)" style="fill: #bd2e1f"/>
   </g>
   <g id="patch_26">
    <path d="M 333.032787 217.260194 
Q 337.762274 217.260194 339.814221 210.585439 
Q 341.866168 203.863006 341.866168 188.511068 
Q 341.866168 173.30216 339.814221 166.770434 
Q 337.762274 160.191032 333.032787 160.191032 
L 326.701781 160.191032 
L 326.701781 217.260194 
L 333.032787 217.260194 
z
M 326.701781 256.879638 
L 326.701781 341.076914 
L 311.65 341.076914 
L 311.65 118.616839 
L 334.634307 118.616839 
Q 346.170252 118.616839 351.537844 133.396655 
Q 356.917949 148.128795 356.917949 180.024592 
Q 356.917949 202.051286 354.11529 216.211304 
Q 351.325142 230.371322 345.694801 237.093754 
Q 348.785233 239.763657 351.225047 249.251345 
Q 353.677374 258.691357 356.179748 277.905118 
L 364.35 341.076914 
L 348.322293 341.076914 
L 341.203039 285.819472 
Q 339.050997 269.132582 336.836396 263.029948 
Q 334.634307 256.879638 330.955817 256.879638 
L 326.701781 256.879638 
z
" clip-path="url(#p391e795806)" style="fill: #bd2e1f"/>
   </g>
   <g id="patch_27">
    <path d="M 373.65 382.366078 
L 388.813382 382.366078 
L 388.813382 383.150943 
L 411.186618 383.150943 
L 411.186618 382.366078 
L 426.35 382.366078 
L 426.35 384.425797 
L 411.186618 384.425797 
L 411.186618 383.552645 
L 388.813382 383.552645 
L 388.813382 384.425797 
L 373.65 384.425797 
L 373.65 382.366078 
z
" clip-path="url(#p391e795806)" style="fill: #177875"/>
   </g>
   <g id="patch_28">
    <path d="M 421.955948 377.636697 
L 421.955948 378.611722 
Q 416.459804 378.44198 411.221293 378.356123 
Q 405.997094 378.269279 401.34541 378.269279 
Q 395.176562 378.269279 392.213797 378.386716 
Q 389.265345 378.503166 389.265345 378.749883 
Q 389.265345 378.935414 391.254834 379.039035 
Q 393.244324 379.141669 398.482835 379.215684 
L 405.811027 379.317331 
Q 416.946442 379.472269 421.641065 379.78708 
Q 426.35 380.100903 426.35 380.681181 
Q 426.35 381.442055 419.794704 381.814104 
Q 413.239408 382.186153 399.770994 382.186153 
Q 393.430391 382.186153 387.032537 382.102269 
Q 380.634682 382.019372 374.236828 381.855553 
L 374.236828 380.853883 
Q 380.634682 381.08777 386.60315 381.207181 
Q 392.571619 381.325605 398.125014 381.325605 
Q 403.764286 381.325605 406.755676 381.196326 
Q 409.747067 381.066059 409.747067 380.825264 
Q 409.747067 380.610127 407.714639 380.49269 
Q 405.682211 380.375252 399.59924 380.282487 
L 392.929441 380.18084 
Q 382.910429 380.03281 378.273058 379.709117 
Q 373.65 379.385425 373.65 378.836727 
Q 373.65 378.148881 380.090793 377.778806 
Q 386.531586 377.408731 398.611651 377.408731 
Q 404.122108 377.408731 409.933134 377.465969 
Q 415.744161 377.523208 421.955948 377.636697 
z
" clip-path="url(#p391e795806)" style="fill: #40ba47"/>
   </g>
   <g id="patch_29">
    <path d="M 388.091481 367.136101 
L 388.091481 374.58385 
L 393.265444 374.58385 
Q 402.112802 374.58385 406.782574 373.626394 
Q 411.464351 372.668939 411.464351 370.845588 
Q 411.464351 369.0327 406.806583 368.085709 
Q 402.16082 367.136101 393.265444 367.136101 
L 388.091481 367.136101 
z
M 373.65 364.755543 
L 388.871777 364.755543 
Q 401.63262 364.755543 407.874989 365.153175 
Q 414.117358 365.54819 418.583052 366.497798 
Q 422.520547 367.324453 424.429271 368.404861 
Q 426.35 369.482652 426.35 370.845588 
Q 426.35 372.229451 424.429271 373.312474 
Q 422.520547 374.395498 418.583052 375.219537 
Q 414.081344 376.169145 407.778952 376.566776 
Q 401.47656 376.961792 388.871777 376.961792 
L 373.65 376.961792 
L 373.65 364.755543 
z
" clip-path="url(#p391e795806)" style="fill: #6b296b"/>
   </g>
   <g id="patch_30">
    <path d="M 373.65 148.108216 
L 390.578032 148.108216 
L 411.968106 292.663235 
L 411.968106 148.108216 
L 426.35 148.108216 
L 426.35 358.887502 
L 409.409364 358.887502 
L 388.01929 214.332484 
L 388.01929 358.887502 
L 373.65 358.887502 
L 373.65 148.108216 
z
" clip-path="url(#p391e795806)" style="fill: #40ba47"/>
   </g>
   <g id="patch_31">
    <path d="M 435.65 381.890902 
L 451.195992 381.890902 
L 461.979692 383.240925 
L 472.83447 381.890902 
L 488.35 381.890902 
L 488.35 384.413613 
L 476.80474 384.413613 
L 476.80474 382.568346 
L 465.889037 383.928642 
L 458.141426 383.928642 
L 447.225723 382.568346 
L 447.225723 384.413613 
L 435.65 384.413613 
L 435.65 381.890902 
z
" clip-path="url(#p391e795806)" style="fill: #21599c"/>
   </g>
   <g id="patch_32">
    <path d="M 435.65 369.305851 
L 454.774615 369.305851 
L 454.774615 379.127251 
L 488.35 379.127251 
L 488.35 381.503523 
L 435.65 381.503523 
L 435.65 369.305851 
z
" clip-path="url(#p391e795806)" style="fill: #21599c"/>
   </g>
   <g id="patch_33">
    <path d="M 452.437692 318.097357 
L 471.562308 318.097357 
L 471.562308 367.680052 
L 452.437692 367.680052 
L 452.437692 318.097357 
z
" clip-path="url(#p391e795806)" style="fill: #21599c"/>
   </g>
   <g id="patch_34">
    <path d="M 435.65 194.17509 
L 448.68762 194.17509 
L 462.016162 282.359073 
L 475.323155 194.17509 
L 488.35 194.17509 
L 469.730985 313.648512 
L 454.269015 313.648512 
L 435.65 194.17509 
z
" clip-path="url(#p391e795806)" style="fill: #21599c"/>
   </g>
   <g id="patch_35">
    <path d="M 545.955948 369.446964 
L 545.955948 372.582156 
Q 540.459804 372.036353 535.221293 371.760278 
Q 529.997094 371.481031 525.34541 371.481031 
Q 519.176562 371.481031 516.213797 371.85865 
Q 513.265345 372.233096 513.265345 373.026413 
Q 513.265345 373.622988 515.254834 373.956182 
Q 517.244324 374.286202 522.482835 374.524197 
L 529.811027 374.851044 
Q 540.946442 375.349248 545.641065 376.361521 
Q 550.35 377.370621 550.35 379.236504 
Q 550.35 381.683096 543.794704 382.879419 
Q 537.239408 384.075742 523.770994 384.075742 
Q 517.430391 384.075742 511.032537 383.806014 
Q 504.634682 383.539459 498.236828 383.012696 
L 498.236828 379.791827 
Q 504.634682 380.543892 510.60315 380.927857 
Q 516.571619 381.30865 522.125014 381.30865 
Q 527.764286 381.30865 530.755676 380.892952 
Q 533.747067 380.47408 533.747067 379.699802 
Q 533.747067 379.008029 531.714639 378.63041 
Q 529.682211 378.25279 523.59924 377.954503 
L 516.929441 377.627656 
Q 506.910429 377.151665 502.273058 376.110833 
Q 497.65 375.07 497.65 373.305661 
Q 497.65 371.093892 504.090793 369.903915 
Q 510.531586 368.713939 522.611651 368.713939 
Q 528.122108 368.713939 533.933134 368.897988 
Q 539.744161 369.082038 545.955948 369.446964 
z
" clip-path="url(#p391e795806)" style="fill: #40ba47"/>
   </g>
   <g id="patch_36">
    <path d="M 497.65 232.487969 
L 550.35 232.487969 
L 550.35 258.297781 
L 531.390256 258.297781 
L 531.390256 364.827073 
L 516.646512 364.827073 
L 516.646512 258.297781 
L 497.65 258.297781 
L 497.65 232.487969 
z
" clip-path="url(#p391e795806)" style="fill: #40ba47"/>
   </g>
   <g id="patch_37">
    <path d="M 559.65 374.165405 
L 576.578032 374.165405 
L 597.968106 381.057899 
L 597.968106 374.165405 
L 612.35 374.165405 
L 612.35 384.215523 
L 595.409364 384.215523 
L 574.01929 377.323029 
L 574.01929 384.215523 
L 559.65 384.215523 
L 559.65 374.165405 
z
" clip-path="url(#p391e795806)" style="fill: #40ba47"/>
   </g>
   <g id="patch_38">
    <path d="M 559.65 357.079162 
L 611.253077 357.079162 
L 611.253077 360.275755 
L 578.774615 360.275755 
L 578.774615 363.324812 
L 609.329487 363.324812 
L 609.329487 366.521404 
L 578.774615 366.521404 
L 578.774615 370.276522 
L 612.35 370.276522 
L 612.35 373.469601 
L 559.65 373.469601 
L 559.65 357.079162 
z
" clip-path="url(#p391e795806)" style="fill: #6b296b"/>
   </g>
   <g id="patch_39">
    <path d="M 574.091481 131.962954 
L 574.091481 296.879834 
L 579.265444 296.879834 
Q 588.112802 296.879834 592.782574 275.678717 
Q 597.464351 254.477601 597.464351 214.102798 
Q 597.464351 173.959701 592.806583 152.990291 
Q 588.16082 131.962954 579.265444 131.962954 
L 574.091481 131.962954 
z
M 559.65 79.249796 
L 574.871777 79.249796 
Q 587.63262 79.249796 593.874989 88.054631 
Q 600.117358 96.80154 604.583052 117.828877 
Q 608.520547 136.133665 610.429271 160.057329 
Q 612.35 183.923067 612.35 214.102798 
Q 612.35 244.745941 610.429271 268.727532 
Q 608.520547 292.709122 604.583052 310.955984 
Q 600.081344 331.983321 593.778952 340.788156 
Q 587.47656 349.535065 574.871777 349.535065 
L 559.65 349.535065 
L 559.65 79.249796 
z
" clip-path="url(#p391e795806)" style="fill: #6b296b"/>
   </g>
   <g id="matplotlib.axis_1">
    <g id="xtick_1">
     <g id="line2d_2">
      <defs>
       <path id="m1fc45b0717" d="M 0 0 
L 0 4.8 
" style="stroke: #262626"/>
      </defs>
      <g>
       <use xlink:href="#m1fc45b0717" x="152" y="384.48" style="fill: #262626; stroke: #262626"/>
      </g>
     </g>
     <g id="text_1">
      <!-- P4 -->
      <g style="fill: #262626" transform="translate(146.61825 399.078875) scale(0.088 -0.088)">
       <defs>
        <path id="ArialMT-50" d="M 494 0 
L 494 4581 
L 2222 4581 
Q 2678 4581 2919 4538 
Q 3256 4481 3484 4323 
Q 3713 4166 3852 3881 
Q 3991 3597 3991 3256 
Q 3991 2672 3619 2267 
Q 3247 1863 2275 1863 
L 1100 1863 
L 1100 0 
L 494 0 
z
M 1100 2403 
L 2284 2403 
Q 2872 2403 3119 2622 
Q 3366 2841 3366 3238 
Q 3366 3525 3220 3729 
Q 3075 3934 2838 4000 
Q 2684 4041 2272 4041 
L 1100 4041 
L 1100 2403 
z
" transform="scale(0.015625)"/>
        <path id="ArialMT-34" d="M 2069 0 
L 2069 1097 
L 81 1097 
L 81 1613 
L 2172 4581 
L 2631 4581 
L 2631 1613 
L 3250 1613 
L 3250 1097 
L 2631 1097 
L 2631 0 
L 2069 0 
z
M 2069 1613 
L 2069 3678 
L 634 1613 
L 2069 1613 
z
" transform="scale(0.015625)"/>
       </defs>
       <use xlink:href="#ArialMT-50"/>
       <use xlink:href="#ArialMT-34" x="66.699219"/>
      </g>
     </g>
    </g>
    <g id="xtick_2">
     <g id="line2d_3">
      <g>
       <use xlink:href="#m1fc45b0717" x="214" y="384.48" style="fill: #262626; stroke: #262626"/>
      </g>
     </g>
     <g id="text_2">
      <!-- P3 -->
      <g style="fill: #262626" transform="translate(208.61825 399.078875) scale(0.088 -0.088)">
       <defs>
        <path id="ArialMT-33" d="M 269 1209 
L 831 1284 
Q 928 806 1161 595 
Q 1394 384 1728 384 
Q 2125 384 2398 659 
Q 2672 934 2672 1341 
Q 2672 1728 2419 1979 
Q 2166 2231 1775 2231 
Q 1616 2231 1378 2169 
L 1441 2663 
Q 1497 2656 1531 2656 
Q 1891 2656 2178 2843 
Q 2466 3031 2466 3422 
Q 2466 3731 2256 3934 
Q 2047 4138 1716 4138 
Q 1388 4138 1169 3931 
Q 950 3725 888 3313 
L 325 3413 
Q 428 3978 793 4289 
Q 1159 4600 1703 4600 
Q 2078 4600 2393 4439 
Q 2709 4278 2876 4000 
Q 3044 3722 3044 3409 
Q 3044 3113 2884 2869 
Q 2725 2625 2413 2481 
Q 2819 2388 3044 2092 
Q 3269 1797 3269 1353 
Q 3269 753 2831 336 
Q 2394 -81 1725 -81 
Q 1122 -81 723 278 
Q 325 638 269 1209 
z
" transform="scale(0.015625)"/>
       </defs>
       <use xlink:href="#ArialMT-50"/>
       <use xlink:href="#ArialMT-33" x="66.699219"/>
      </g>
     </g>
    </g>
    <g id="xtick_3">
     <g id="line2d_4">
      <g>
       <use xlink:href="#m1fc45b0717" x="276" y="384.48" style="fill: #262626; stroke: #262626"/>
      </g>
     </g>
     <g id="text_3">
      <!-- P2 -->
      <g style="fill: #262626" transform="translate(270.61825 399.078875) scale(0.088 -0.088)">
       <defs>
        <path id="ArialMT-32" d="M 3222 541 
L 3222 0 
L 194 0 
Q 188 203 259 391 
Q 375 700 629 1000 
Q 884 1300 1366 1694 
Q 2113 2306 2375 2664 
Q 2638 3022 2638 3341 
Q 2638 3675 2398 3904 
Q 2159 4134 1775 4134 
Q 1369 4134 1125 3890 
Q 881 3647 878 3216 
L 300 3275 
Q 359 3922 746 4261 
Q 1134 4600 1788 4600 
Q 2447 4600 2831 4234 
Q 3216 3869 3216 3328 
Q 3216 3053 3103 2787 
Q 2991 2522 2730 2228 
Q 2469 1934 1863 1422 
Q 1356 997 1212 845 
Q 1069 694 975 541 
L 3222 541 
z
" transform="scale(0.015625)"/>
       </defs>
       <use xlink:href="#ArialMT-50"/>
       <use xlink:href="#ArialMT-32" x="66.699219"/>
      </g>
     </g>
    </g>
    <g id="xtick_4">
     <g id="line2d_5">
      <g>
       <use xlink:href="#m1fc45b0717" x="338" y="384.48" style="fill: #262626; stroke: #262626"/>
      </g>
     </g>
     <g id="text_4">
      <!-- P1 -->
      <g style="fill: #262626" transform="translate(332.61825 399.078875) scale(0.088 -0.088)">
       <defs>
        <path id="ArialMT-31" d="M 2384 0 
L 1822 0 
L 1822 3584 
Q 1619 3391 1289 3197 
Q 959 3003 697 2906 
L 697 3450 
Q 1169 3672 1522 3987 
Q 1875 4303 2022 4600 
L 2384 4600 
L 2384 0 
z
" transform="scale(0.015625)"/>
       </defs>
       <use xlink:href="#ArialMT-50"/>
       <use xlink:href="#ArialMT-31" x="66.699219"/>
      </g>
     </g>
    </g>
    <g id="xtick_5">
     <g id="line2d_6">
      <g>
       <use xlink:href="#m1fc45b0717" x="400" y="384.48" style="fill: #262626; stroke: #262626"/>
      </g>
     </g>
     <g id="text_5">
      <!-- P1' -->
      <g style="fill: #262626" transform="translate(393.778125 399.078875) scale(0.088 -0.088)">
       <defs>
        <path id="ArialMT-27" d="M 425 2959 
L 281 3816 
L 281 4581 
L 922 4581 
L 922 3816 
L 772 2959 
L 425 2959 
z
" transform="scale(0.015625)"/>
       </defs>
       <use xlink:href="#ArialMT-50"/>
       <use xlink:href="#ArialMT-31" x="66.699219"/>
       <use xlink:href="#ArialMT-27" x="122.314453"/>
      </g>
     </g>
    </g>
    <g id="xtick_6">
     <g id="line2d_7">
      <g>
       <use xlink:href="#m1fc45b0717" x="462" y="384.48" style="fill: #262626; stroke: #262626"/>
      </g>
     </g>
     <g id="text_6">
      <!-- P2' -->
      <g style="fill: #262626" transform="translate(455.778125 399.078875) scale(0.088 -0.088)">
       <use xlink:href="#ArialMT-50"/>
       <use xlink:href="#ArialMT-32" x="66.699219"/>
       <use xlink:href="#ArialMT-27" x="122.314453"/>
      </g>
     </g>
    </g>
    <g id="xtick_7">
     <g id="line2d_8">
      <g>
       <use xlink:href="#m1fc45b0717" x="524" y="384.48" style="fill: #262626; stroke: #262626"/>
      </g>
     </g>
     <g id="text_7">
      <!-- P3' -->
      <g style="fill: #262626" transform="translate(517.778125 399.078875) scale(0.088 -0.088)">
       <use xlink:href="#ArialMT-50"/>
       <use xlink:href="#ArialMT-33" x="66.699219"/>
       <use xlink:href="#ArialMT-27" x="122.314453"/>
      </g>
     </g>
    </g>
    <g id="xtick_8">
     <g id="line2d_9">
      <g>
       <use xlink:href="#m1fc45b0717" x="586" y="384.48" style="fill: #262626; stroke: #262626"/>
      </g>
     </g>
     <g id="text_8">
      <!-- P4' -->
      <g style="fill: #262626" transform="translate(579.778125 399.078875) scale(0.088 -0.088)">
       <use xlink:href="#ArialMT-50"/>
       <use xlink:href="#ArialMT-34" x="66.699219"/>
       <use xlink:href="#ArialMT-27" x="122.314453"/>
      </g>
     </g>
    </g>
   </g>
   <g id="matplotlib.axis_2">
    <g id="ytick_1">
     <g id="line2d_10">
      <defs>
       <path id="m5d2b81a37a" d="M 0 0 
L -4.8 0 
" style="stroke: #262626"/>
      </defs>
      <g>
       <use xlink:href="#m5d2b81a37a" x="90" y="384.48" style="fill: #262626; stroke: #262626"/>
      </g>
     </g>
     <g id="text_9">
      <!-- 0.0 -->
      <g style="fill: #262626" transform="translate(69.468 387.629437) scale(0.088 -0.088)">
       <defs>
        <path id="ArialMT-30" d="M 266 2259 
Q 266 3072 433 3567 
Q 600 4063 929 4331 
Q 1259 4600 1759 4600 
Q 2128 4600 2406 4451 
Q 2684 4303 2865 4023 
Q 3047 3744 3150 3342 
Q 3253 2941 3253 2259 
Q 3253 1453 3087 958 
Q 2922 463 2592 192 
Q 2263 -78 1759 -78 
Q 1097 -78 719 397 
Q 266 969 266 2259 
z
M 844 2259 
Q 844 1131 1108 757 
Q 1372 384 1759 384 
Q 2147 384 2411 759 
Q 2675 1134 2675 2259 
Q 2675 3391 2411 3762 
Q 2147 4134 1753 4134 
Q 1366 4134 1134 3806 
Q 844 3388 844 2259 
z
" transform="scale(0.015625)"/>
        <path id="ArialMT-2e" d="M 581 0 
L 581 641 
L 1222 641 
L 1222 0 
L 581 0 
z
" transform="scale(0.015625)"/>
       </defs>
       <use xlink:href="#ArialMT-30"/>
       <use xlink:href="#ArialMT-2e" x="55.615234"/>
       <use xlink:href="#ArialMT-30" x="83.398438"/>
      </g>
     </g>
    </g>
    <g id="ytick_2">
     <g id="line2d_11">
      <g>
       <use xlink:href="#m5d2b81a37a" x="90" y="334.755012" style="fill: #262626; stroke: #262626"/>
      </g>
     </g>
     <g id="text_10">
      <!-- 0.2 -->
      <g style="fill: #262626" transform="translate(69.468 337.90445) scale(0.088 -0.088)">
       <use xlink:href="#ArialMT-30"/>
       <use xlink:href="#ArialMT-2e" x="55.615234"/>
       <use xlink:href="#ArialMT-32" x="83.398438"/>
      </g>
     </g>
    </g>
    <g id="ytick_3">
     <g id="line2d_12">
      <g>
       <use xlink:href="#m5d2b81a37a" x="90" y="285.030024" style="fill: #262626; stroke: #262626"/>
      </g>
     </g>
     <g id="text_11">
      <!-- 0.4 -->
      <g style="fill: #262626" transform="translate(69.468 288.179462) scale(0.088 -0.088)">
       <use xlink:href="#ArialMT-30"/>
       <use xlink:href="#ArialMT-2e" x="55.615234"/>
       <use xlink:href="#ArialMT-34" x="83.398438"/>
      </g>
     </g>
    </g>
    <g id="ytick_4">
     <g id="line2d_13">
      <g>
       <use xlink:href="#m5d2b81a37a" x="90" y="235.305036" style="fill: #262626; stroke: #262626"/>
      </g>
     </g>
     <g id="text_12">
      <!-- 0.6 -->
      <g style="fill: #262626" transform="translate(69.468 238.454474) scale(0.088 -0.088)">
       <defs>
        <path id="ArialMT-36" d="M 3184 3459 
L 2625 3416 
Q 2550 3747 2413 3897 
Q 2184 4138 1850 4138 
Q 1581 4138 1378 3988 
Q 1113 3794 959 3422 
Q 806 3050 800 2363 
Q 1003 2672 1297 2822 
Q 1591 2972 1913 2972 
Q 2475 2972 2870 2558 
Q 3266 2144 3266 1488 
Q 3266 1056 3080 686 
Q 2894 316 2569 119 
Q 2244 -78 1831 -78 
Q 1128 -78 684 439 
Q 241 956 241 2144 
Q 241 3472 731 4075 
Q 1159 4600 1884 4600 
Q 2425 4600 2770 4297 
Q 3116 3994 3184 3459 
z
M 888 1484 
Q 888 1194 1011 928 
Q 1134 663 1356 523 
Q 1578 384 1822 384 
Q 2178 384 2434 671 
Q 2691 959 2691 1453 
Q 2691 1928 2437 2201 
Q 2184 2475 1800 2475 
Q 1419 2475 1153 2201 
Q 888 1928 888 1484 
z
" transform="scale(0.015625)"/>
       </defs>
       <use xlink:href="#ArialMT-30"/>
       <use xlink:href="#ArialMT-2e" x="55.615234"/>
       <use xlink:href="#ArialMT-36" x="83.398438"/>
      </g>
     </g>
    </g>
    <g id="ytick_5">
     <g id="line2d_14">
      <g>
       <use xlink:href="#m5d2b81a37a" x="90" y="185.580048" style="fill: #262626; stroke: #262626"/>
      </g>
     </g>
     <g id="text_13">
      <!-- 0.8 -->
      <g style="fill: #262626" transform="translate(69.468 188.729486) scale(0.088 -0.088)">
       <defs>
        <path id="ArialMT-38" d="M 1131 2484 
Q 781 2613 612 2850 
Q 444 3088 444 3419 
Q 444 3919 803 4259 
Q 1163 4600 1759 4600 
Q 2359 4600 2725 4251 
Q 3091 3903 3091 3403 
Q 3091 3084 2923 2848 
Q 2756 2613 2416 2484 
Q 2838 2347 3058 2040 
Q 3278 1734 3278 1309 
Q 3278 722 2862 322 
Q 2447 -78 1769 -78 
Q 1091 -78 675 323 
Q 259 725 259 1325 
Q 259 1772 486 2073 
Q 713 2375 1131 2484 
z
M 1019 3438 
Q 1019 3113 1228 2906 
Q 1438 2700 1772 2700 
Q 2097 2700 2305 2904 
Q 2513 3109 2513 3406 
Q 2513 3716 2298 3927 
Q 2084 4138 1766 4138 
Q 1444 4138 1231 3931 
Q 1019 3725 1019 3438 
z
M 838 1322 
Q 838 1081 952 856 
Q 1066 631 1291 507 
Q 1516 384 1775 384 
Q 2178 384 2440 643 
Q 2703 903 2703 1303 
Q 2703 1709 2433 1975 
Q 2163 2241 1756 2241 
Q 1359 2241 1098 1978 
Q 838 1716 838 1322 
z
" transform="scale(0.015625)"/>
       </defs>
       <use xlink:href="#ArialMT-30"/>
       <use xlink:href="#ArialMT-2e" x="55.615234"/>
       <use xlink:href="#ArialMT-38" x="83.398438"/>
      </g>
     </g>
    </g>
    <g id="ytick_6">
     <g id="line2d_15">
      <g>
       <use xlink:href="#m5d2b81a37a" x="90" y="135.85506" style="fill: #262626; stroke: #262626"/>
      </g>
     </g>
     <g id="text_14">
      <!-- 1.0 -->
      <g style="fill: #262626" transform="translate(69.468 139.004498) scale(0.088 -0.088)">
       <use xlink:href="#ArialMT-31"/>
       <use xlink:href="#ArialMT-2e" x="55.615234"/>
       <use xlink:href="#ArialMT-30" x="83.398438"/>
      </g>
     </g>
    </g>
    <g id="ytick_7">
     <g id="line2d_16">
      <g>
       <use xlink:href="#m5d2b81a37a" x="90" y="86.130072" style="fill: #262626; stroke: #262626"/>
      </g>
     </g>
     <g id="text_15">
      <!-- 1.2 -->
      <g style="fill: #262626" transform="translate(69.468 89.27951) scale(0.088 -0.088)">
       <use xlink:href="#ArialMT-31"/>
       <use xlink:href="#ArialMT-2e" x="55.615234"/>
       <use xlink:href="#ArialMT-32" x="83.398438"/>
      </g>
     </g>
    </g>
    <g id="text_16">
     <!-- information (bits) -->
     <g style="fill: #262626" transform="translate(63.4475 253.902) rotate(-90) scale(0.096 -0.096)">
      <defs>
       <path id="ArialMT-69" d="M 425 3934 
L 425 4581 
L 988 4581 
L 988 3934 
L 425 3934 
z
M 425 0 
L 425 3319 
L 988 3319 
L 988 0 
L 425 0 
z
" transform="scale(0.015625)"/>
       <path id="ArialMT-6e" d="M 422 0 
L 422 3319 
L 928 3319 
L 928 2847 
Q 1294 3394 1984 3394 
Q 2284 3394 2536 3286 
Q 2788 3178 2913 3003 
Q 3038 2828 3088 2588 
Q 3119 2431 3119 2041 
L 3119 0 
L 2556 0 
L 2556 2019 
Q 2556 2363 2490 2533 
Q 2425 2703 2258 2804 
Q 2091 2906 1866 2906 
Q 1506 2906 1245 2678 
Q 984 2450 984 1813 
L 984 0 
L 422 0 
z
" transform="scale(0.015625)"/>
       <path id="ArialMT-66" d="M 556 0 
L 556 2881 
L 59 2881 
L 59 3319 
L 556 3319 
L 556 3672 
Q 556 4006 616 4169 
Q 697 4388 901 4523 
Q 1106 4659 1475 4659 
Q 1713 4659 2000 4603 
L 1916 4113 
Q 1741 4144 1584 4144 
Q 1328 4144 1222 4034 
Q 1116 3925 1116 3625 
L 1116 3319 
L 1763 3319 
L 1763 2881 
L 1116 2881 
L 1116 0 
L 556 0 
z
" transform="scale(0.015625)"/>
       <path id="ArialMT-6f" d="M 213 1659 
Q 213 2581 725 3025 
Q 1153 3394 1769 3394 
Q 2453 3394 2887 2945 
Q 3322 2497 3322 1706 
Q 3322 1066 3130 698 
Q 2938 331 2570 128 
Q 2203 -75 1769 -75 
Q 1072 -75 642 372 
Q 213 819 213 1659 
z
M 791 1659 
Q 791 1022 1069 705 
Q 1347 388 1769 388 
Q 2188 388 2466 706 
Q 2744 1025 2744 1678 
Q 2744 2294 2464 2611 
Q 2184 2928 1769 2928 
Q 1347 2928 1069 2612 
Q 791 2297 791 1659 
z
" transform="scale(0.015625)"/>
       <path id="ArialMT-72" d="M 416 0 
L 416 3319 
L 922 3319 
L 922 2816 
Q 1116 3169 1280 3281 
Q 1444 3394 1641 3394 
Q 1925 3394 2219 3213 
L 2025 2691 
Q 1819 2813 1613 2813 
Q 1428 2813 1281 2702 
Q 1134 2591 1072 2394 
Q 978 2094 978 1738 
L 978 0 
L 416 0 
z
" transform="scale(0.015625)"/>
       <path id="ArialMT-6d" d="M 422 0 
L 422 3319 
L 925 3319 
L 925 2853 
Q 1081 3097 1340 3245 
Q 1600 3394 1931 3394 
Q 2300 3394 2536 3241 
Q 2772 3088 2869 2813 
Q 3263 3394 3894 3394 
Q 4388 3394 4653 3120 
Q 4919 2847 4919 2278 
L 4919 0 
L 4359 0 
L 4359 2091 
Q 4359 2428 4304 2576 
Q 4250 2725 4106 2815 
Q 3963 2906 3769 2906 
Q 3419 2906 3187 2673 
Q 2956 2441 2956 1928 
L 2956 0 
L 2394 0 
L 2394 2156 
Q 2394 2531 2256 2718 
Q 2119 2906 1806 2906 
Q 1569 2906 1367 2781 
Q 1166 2656 1075 2415 
Q 984 2175 984 1722 
L 984 0 
L 422 0 
z
" transform="scale(0.015625)"/>
       <path id="ArialMT-61" d="M 2588 409 
Q 2275 144 1986 34 
Q 1697 -75 1366 -75 
Q 819 -75 525 192 
Q 231 459 231 875 
Q 231 1119 342 1320 
Q 453 1522 633 1644 
Q 813 1766 1038 1828 
Q 1203 1872 1538 1913 
Q 2219 1994 2541 2106 
Q 2544 2222 2544 2253 
Q 2544 2597 2384 2738 
Q 2169 2928 1744 2928 
Q 1347 2928 1158 2789 
Q 969 2650 878 2297 
L 328 2372 
Q 403 2725 575 2942 
Q 747 3159 1072 3276 
Q 1397 3394 1825 3394 
Q 2250 3394 2515 3294 
Q 2781 3194 2906 3042 
Q 3031 2891 3081 2659 
Q 3109 2516 3109 2141 
L 3109 1391 
Q 3109 606 3145 398 
Q 3181 191 3288 0 
L 2700 0 
Q 2613 175 2588 409 
z
M 2541 1666 
Q 2234 1541 1622 1453 
Q 1275 1403 1131 1340 
Q 988 1278 909 1158 
Q 831 1038 831 891 
Q 831 666 1001 516 
Q 1172 366 1500 366 
Q 1825 366 2078 508 
Q 2331 650 2450 897 
Q 2541 1088 2541 1459 
L 2541 1666 
z
" transform="scale(0.015625)"/>
       <path id="ArialMT-74" d="M 1650 503 
L 1731 6 
Q 1494 -44 1306 -44 
Q 1000 -44 831 53 
Q 663 150 594 308 
Q 525 466 525 972 
L 525 2881 
L 113 2881 
L 113 3319 
L 525 3319 
L 525 4141 
L 1084 4478 
L 1084 3319 
L 1650 3319 
L 1650 2881 
L 1084 2881 
L 1084 941 
Q 1084 700 1114 631 
Q 1144 563 1211 522 
Q 1278 481 1403 481 
Q 1497 481 1650 503 
z
" transform="scale(0.015625)"/>
       <path id="ArialMT-20" transform="scale(0.015625)"/>
       <path id="ArialMT-28" d="M 1497 -1347 
Q 1031 -759 709 28 
Q 388 816 388 1659 
Q 388 2403 628 3084 
Q 909 3875 1497 4659 
L 1900 4659 
Q 1522 4009 1400 3731 
Q 1209 3300 1100 2831 
Q 966 2247 966 1656 
Q 966 153 1900 -1347 
L 1497 -1347 
z
" transform="scale(0.015625)"/>
       <path id="ArialMT-62" d="M 941 0 
L 419 0 
L 419 4581 
L 981 4581 
L 981 2947 
Q 1338 3394 1891 3394 
Q 2197 3394 2470 3270 
Q 2744 3147 2920 2923 
Q 3097 2700 3197 2384 
Q 3297 2069 3297 1709 
Q 3297 856 2875 390 
Q 2453 -75 1863 -75 
Q 1275 -75 941 416 
L 941 0 
z
M 934 1684 
Q 934 1088 1097 822 
Q 1363 388 1816 388 
Q 2184 388 2453 708 
Q 2722 1028 2722 1663 
Q 2722 2313 2464 2622 
Q 2206 2931 1841 2931 
Q 1472 2931 1203 2611 
Q 934 2291 934 1684 
z
" transform="scale(0.015625)"/>
       <path id="ArialMT-73" d="M 197 991 
L 753 1078 
Q 800 744 1014 566 
Q 1228 388 1613 388 
Q 2000 388 2187 545 
Q 2375 703 2375 916 
Q 2375 1106 2209 1216 
Q 2094 1291 1634 1406 
Q 1016 1563 777 1677 
Q 538 1791 414 1992 
Q 291 2194 291 2438 
Q 291 2659 392 2848 
Q 494 3038 669 3163 
Q 800 3259 1026 3326 
Q 1253 3394 1513 3394 
Q 1903 3394 2198 3281 
Q 2494 3169 2634 2976 
Q 2775 2784 2828 2463 
L 2278 2388 
Q 2241 2644 2061 2787 
Q 1881 2931 1553 2931 
Q 1166 2931 1000 2803 
Q 834 2675 834 2503 
Q 834 2394 903 2306 
Q 972 2216 1119 2156 
Q 1203 2125 1616 2013 
Q 2213 1853 2448 1751 
Q 2684 1650 2818 1456 
Q 2953 1263 2953 975 
Q 2953 694 2789 445 
Q 2625 197 2315 61 
Q 2006 -75 1616 -75 
Q 969 -75 630 194 
Q 291 463 197 991 
z
" transform="scale(0.015625)"/>
       <path id="ArialMT-29" d="M 791 -1347 
L 388 -1347 
Q 1322 153 1322 1656 
Q 1322 2244 1188 2822 
Q 1081 3291 891 3722 
Q 769 4003 388 4659 
L 791 4659 
Q 1378 3875 1659 3084 
Q 1900 2403 1900 1659 
Q 1900 816 1576 28 
Q 1253 -759 791 -1347 
z
" transform="scale(0.015625)"/>
      </defs>
      <use xlink:href="#ArialMT-69"/>
      <use xlink:href="#ArialMT-6e" x="22.216797"/>
      <use xlink:href="#ArialMT-66" x="77.832031"/>
      <use xlink:href="#ArialMT-6f" x="105.615234"/>
      <use xlink:href="#ArialMT-72" x="161.230469"/>
      <use xlink:href="#ArialMT-6d" x="194.53125"/>
      <use xlink:href="#ArialMT-61" x="277.832031"/>
      <use xlink:href="#ArialMT-74" x="333.447266"/>
      <use xlink:href="#ArialMT-69" x="361.230469"/>
      <use xlink:href="#ArialMT-6f" x="383.447266"/>
      <use xlink:href="#ArialMT-6e" x="439.0625"/>
      <use xlink:href="#ArialMT-20" x="494.677734"/>
      <use xlink:href="#ArialMT-28" x="522.460938"/>
      <use xlink:href="#ArialMT-62" x="555.761719"/>
      <use xlink:href="#ArialMT-69" x="611.376953"/>
      <use xlink:href="#ArialMT-74" x="633.59375"/>
      <use xlink:href="#ArialMT-73" x="661.376953"/>
      <use xlink:href="#ArialMT-29" x="711.376953"/>
     </g>
    </g>
   </g>
   <g id="line2d_17">
    <path d="M 369 384.48 
L 369 51.84 
" clip-path="url(#p391e795806)" style="fill: none; stroke: #daa520; stroke-width: 2; stroke-linecap: round"/>
   </g>
   <g id="patch_40">
    <path d="M 90 384.48 
L 648 384.48 
" style="fill: none; stroke: #262626; stroke-linejoin: miter; stroke-linecap: square"/>
   </g>
   <g id="patch_41">
    <path d="M 90 51.84 
L 648 51.84 
" style="fill: none; stroke: #262626; stroke-linejoin: miter; stroke-linecap: square"/>
   </g>
   <g id="text_17">
    <!-- KO_treated vs. WT_untreated information content, Kullback n=1 -->
    <g style="fill: #262626" transform="translate(232.8015 45.84) scale(0.096 -0.096)">
     <defs>
      <path id="ArialMT-4b" d="M 469 0 
L 469 4581 
L 1075 4581 
L 1075 2309 
L 3350 4581 
L 4172 4581 
L 2250 2725 
L 4256 0 
L 3456 0 
L 1825 2319 
L 1075 1588 
L 1075 0 
L 469 0 
z
" transform="scale(0.015625)"/>
      <path id="ArialMT-4f" d="M 309 2231 
Q 309 3372 921 4017 
Q 1534 4663 2503 4663 
Q 3138 4663 3647 4359 
Q 4156 4056 4423 3514 
Q 4691 2972 4691 2284 
Q 4691 1588 4409 1038 
Q 4128 488 3612 205 
Q 3097 -78 2500 -78 
Q 1853 -78 1343 234 
Q 834 547 571 1087 
Q 309 1628 309 2231 
z
M 934 2222 
Q 934 1394 1379 917 
Q 1825 441 2497 441 
Q 3181 441 3623 922 
Q 4066 1403 4066 2288 
Q 4066 2847 3877 3264 
Q 3688 3681 3323 3911 
Q 2959 4141 2506 4141 
Q 1863 4141 1398 3698 
Q 934 3256 934 2222 
z
" transform="scale(0.015625)"/>
      <path id="ArialMT-5f" d="M -97 -1272 
L -97 -866 
L 3631 -866 
L 3631 -1272 
L -97 -1272 
z
" transform="scale(0.015625)"/>
      <path id="ArialMT-65" d="M 2694 1069 
L 3275 997 
Q 3138 488 2766 206 
Q 2394 -75 1816 -75 
Q 1088 -75 661 373 
Q 234 822 234 1631 
Q 234 2469 665 2931 
Q 1097 3394 1784 3394 
Q 2450 3394 2872 2941 
Q 3294 2488 3294 1666 
Q 3294 1616 3291 1516 
L 816 1516 
Q 847 969 1125 678 
Q 1403 388 1819 388 
Q 2128 388 2347 550 
Q 2566 713 2694 1069 
z
M 847 1978 
L 2700 1978 
Q 2663 2397 2488 2606 
Q 2219 2931 1791 2931 
Q 1403 2931 1139 2672 
Q 875 2413 847 1978 
z
" transform="scale(0.015625)"/>
      <path id="ArialMT-64" d="M 2575 0 
L 2575 419 
Q 2259 -75 1647 -75 
Q 1250 -75 917 144 
Q 584 363 401 755 
Q 219 1147 219 1656 
Q 219 2153 384 2558 
Q 550 2963 881 3178 
Q 1213 3394 1622 3394 
Q 1922 3394 2156 3267 
Q 2391 3141 2538 2938 
L 2538 4581 
L 3097 4581 
L 3097 0 
L 2575 0 
z
M 797 1656 
Q 797 1019 1065 703 
Q 1334 388 1700 388 
Q 2069 388 2326 689 
Q 2584 991 2584 1609 
Q 2584 2291 2321 2609 
Q 2059 2928 1675 2928 
Q 1300 2928 1048 2622 
Q 797 2316 797 1656 
z
" transform="scale(0.015625)"/>
      <path id="ArialMT-76" d="M 1344 0 
L 81 3319 
L 675 3319 
L 1388 1331 
Q 1503 1009 1600 663 
Q 1675 925 1809 1294 
L 2547 3319 
L 3125 3319 
L 1869 0 
L 1344 0 
z
" transform="scale(0.015625)"/>
      <path id="ArialMT-57" d="M 1294 0 
L 78 4581 
L 700 4581 
L 1397 1578 
Q 1509 1106 1591 641 
Q 1766 1375 1797 1488 
L 2669 4581 
L 3400 4581 
L 4056 2263 
Q 4303 1400 4413 641 
Q 4500 1075 4641 1638 
L 5359 4581 
L 5969 4581 
L 4713 0 
L 4128 0 
L 3163 3491 
Q 3041 3928 3019 4028 
Q 2947 3713 2884 3491 
L 1913 0 
L 1294 0 
z
" transform="scale(0.015625)"/>
      <path id="ArialMT-54" d="M 1659 0 
L 1659 4041 
L 150 4041 
L 150 4581 
L 3781 4581 
L 3781 4041 
L 2266 4041 
L 2266 0 
L 1659 0 
z
" transform="scale(0.015625)"/>
      <path id="ArialMT-75" d="M 2597 0 
L 2597 488 
Q 2209 -75 1544 -75 
Q 1250 -75 995 37 
Q 741 150 617 320 
Q 494 491 444 738 
Q 409 903 409 1263 
L 409 3319 
L 972 3319 
L 972 1478 
Q 972 1038 1006 884 
Q 1059 663 1231 536 
Q 1403 409 1656 409 
Q 1909 409 2131 539 
Q 2353 669 2445 892 
Q 2538 1116 2538 1541 
L 2538 3319 
L 3100 3319 
L 3100 0 
L 2597 0 
z
" transform="scale(0.015625)"/>
      <path id="ArialMT-63" d="M 2588 1216 
L 3141 1144 
Q 3050 572 2676 248 
Q 2303 -75 1759 -75 
Q 1078 -75 664 370 
Q 250 816 250 1647 
Q 250 2184 428 2587 
Q 606 2991 970 3192 
Q 1334 3394 1763 3394 
Q 2303 3394 2647 3120 
Q 2991 2847 3088 2344 
L 2541 2259 
Q 2463 2594 2264 2762 
Q 2066 2931 1784 2931 
Q 1359 2931 1093 2626 
Q 828 2322 828 1663 
Q 828 994 1084 691 
Q 1341 388 1753 388 
Q 2084 388 2306 591 
Q 2528 794 2588 1216 
z
" transform="scale(0.015625)"/>
      <path id="ArialMT-2c" d="M 569 0 
L 569 641 
L 1209 641 
L 1209 0 
Q 1209 -353 1084 -570 
Q 959 -788 688 -906 
L 531 -666 
Q 709 -588 793 -436 
Q 878 -284 888 0 
L 569 0 
z
" transform="scale(0.015625)"/>
      <path id="ArialMT-6c" d="M 409 0 
L 409 4581 
L 972 4581 
L 972 0 
L 409 0 
z
" transform="scale(0.015625)"/>
      <path id="ArialMT-6b" d="M 425 0 
L 425 4581 
L 988 4581 
L 988 1969 
L 2319 3319 
L 3047 3319 
L 1778 2088 
L 3175 0 
L 2481 0 
L 1384 1697 
L 988 1316 
L 988 0 
L 425 0 
z
" transform="scale(0.015625)"/>
      <path id="ArialMT-3d" d="M 3381 2694 
L 356 2694 
L 356 3219 
L 3381 3219 
L 3381 2694 
z
M 3381 1303 
L 356 1303 
L 356 1828 
L 3381 1828 
L 3381 1303 
z
" transform="scale(0.015625)"/>
     </defs>
     <use xlink:href="#ArialMT-4b"/>
     <use xlink:href="#ArialMT-4f" x="66.699219"/>
     <use xlink:href="#ArialMT-5f" x="144.482422"/>
     <use xlink:href="#ArialMT-74" x="200.097656"/>
     <use xlink:href="#ArialMT-72" x="227.880859"/>
     <use xlink:href="#ArialMT-65" x="261.181641"/>
     <use xlink:href="#ArialMT-61" x="316.796875"/>
     <use xlink:href="#ArialMT-74" x="372.412109"/>
     <use xlink:href="#ArialMT-65" x="400.195312"/>
     <use xlink:href="#ArialMT-64" x="455.810547"/>
     <use xlink:href="#ArialMT-20" x="511.425781"/>
     <use xlink:href="#ArialMT-76" x="539.208984"/>
     <use xlink:href="#ArialMT-73" x="589.208984"/>
     <use xlink:href="#ArialMT-2e" x="639.208984"/>
     <use xlink:href="#ArialMT-20" x="666.992188"/>
     <use xlink:href="#ArialMT-57" x="694.775391"/>
     <use xlink:href="#ArialMT-54" x="789.160156"/>
     <use xlink:href="#ArialMT-5f" x="850.244141"/>
     <use xlink:href="#ArialMT-75" x="905.859375"/>
     <use xlink:href="#ArialMT-6e" x="961.474609"/>
     <use xlink:href="#ArialMT-74" x="1017.089844"/>
     <use xlink:href="#ArialMT-72" x="1044.873047"/>
     <use xlink:href="#ArialMT-65" x="1078.173828"/>
     <use xlink:href="#ArialMT-61" x="1133.789062"/>
     <use xlink:href="#ArialMT-74" x="1189.404297"/>
     <use xlink:href="#ArialMT-65" x="1217.1875"/>
     <use xlink:href="#ArialMT-64" x="1272.802734"/>
     <use xlink:href="#ArialMT-20" x="1328.417969"/>
     <use xlink:href="#ArialMT-69" x="1356.201172"/>
     <use xlink:href="#ArialMT-6e" x="1378.417969"/>
     <use xlink:href="#ArialMT-66" x="1434.033203"/>
     <use xlink:href="#ArialMT-6f" x="1461.816406"/>
     <use xlink:href="#ArialMT-72" x="1517.431641"/>
     <use xlink:href="#ArialMT-6d" x="1550.732422"/>
     <use xlink:href="#ArialMT-61" x="1634.033203"/>
     <use xlink:href="#ArialMT-74" x="1689.648438"/>
     <use xlink:href="#ArialMT-69" x="1717.431641"/>
     <use xlink:href="#ArialMT-6f" x="1739.648438"/>
     <use xlink:href="#ArialMT-6e" x="1795.263672"/>
     <use xlink:href="#ArialMT-20" x="1850.878906"/>
     <use xlink:href="#ArialMT-63" x="1878.662109"/>
     <use xlink:href="#ArialMT-6f" x="1928.662109"/>
     <use xlink:href="#ArialMT-6e" x="1984.277344"/>
     <use xlink:href="#ArialMT-74" x="2039.892578"/>
     <use xlink:href="#ArialMT-65" x="2067.675781"/>
     <use xlink:href="#ArialMT-6e" x="2123.291016"/>
     <use xlink:href="#ArialMT-74" x="2178.90625"/>
     <use xlink:href="#ArialMT-2c" x="2206.689453"/>
     <use xlink:href="#ArialMT-20" x="2234.472656"/>
     <use xlink:href="#ArialMT-4b" x="2262.255859"/>
     <use xlink:href="#ArialMT-75" x="2328.955078"/>
     <use xlink:href="#ArialMT-6c" x="2384.570312"/>
     <use xlink:href="#ArialMT-6c" x="2406.787109"/>
     <use xlink:href="#ArialMT-62" x="2429.003906"/>
     <use xlink:href="#ArialMT-61" x="2484.619141"/>
     <use xlink:href="#ArialMT-63" x="2540.234375"/>
     <use xlink:href="#ArialMT-6b" x="2590.234375"/>
     <use xlink:href="#ArialMT-20" x="2640.234375"/>
     <use xlink:href="#ArialMT-6e" x="2668.017578"/>
     <use xlink:href="#ArialMT-3d" x="2723.632812"/>
     <use xlink:href="#ArialMT-31" x="2782.03125"/>
    </g>
   </g>
  </g>
 </g>
 <defs>
  <clipPath id="p391e795806">
   <rect x="90" y="51.84" width="558" height="332.64"/>
  </clipPath>
 </defs>
</svg>
