<?xml version="1.0" encoding="utf-8" standalone="no"?>
<!DOCTYPE svg PUBLIC "-//W3C//DTD SVG 1.1//EN"
  "http://www.w3.org/Graphics/SVG/1.1/DTD/svg11.dtd">
<svg xmlns:xlink="http://www.w3.org/1999/xlink" width="720pt" height="432pt" viewBox="0 0 720 432" xmlns="http://www.w3.org/2000/svg" version="1.1">
 <metadata>
  <rdf:RDF xmlns:dc="http://purl.org/dc/elements/1.1/" xmlns:cc="http://creativecommons.org/ns#" xmlns:rdf="http://www.w3.org/1999/02/22-rdf-syntax-ns#">
   <cc:Work>
    <dc:type rdf:resource="http://purl.org/dc/dcmitype/StillImage"/>
    <dc:date>2023-05-05T18:22:21.909988</dc:date>
    <dc:format>image/svg+xml</dc:format>
    <dc:creator>
     <cc:Agent>
      <dc:title>Matplotlib v3.7.1, https://matplotlib.org/</dc:title>
     </cc:Agent>
    </dc:creator>
   </cc:Work>
  </rdf:RDF>
 </metadata>
 <defs>
  <style type="text/css">*{stroke-linejoin: round; stroke-linecap: butt}</style>
 </defs>
 <g id="figure_1">
  <g id="patch_1">
   <path d="M 0 432 
L 720 432 
L 720 0 
L 0 0 
z
" style="fill: #ffffff"/>
  </g>
  <g id="axes_1">
   <g id="patch_2">
    <path d="M 90 384.48 
L 648 384.48 
L 648 51.84 
L 90 51.84 
z
" style="fill: #ffffff"/>
   </g>
   <g id="patch_3">
    <path d="M 307 384.48 
L 369 384.48 
L 369 51.84 
L 307 51.84 
z
" clip-path="url(#p762fe6e87a)" style="fill: #ffd700; opacity: 0.35; stroke: #ffffff; stroke-width: 0.8; stroke-linejoin: miter"/>
   </g>
   <g id="patch_4">
    <path d="M 369 384.48 
L 431 384.48 
L 431 51.84 
L 369 51.84 
z
" clip-path="url(#p762fe6e87a)" style="fill: #ffd700; opacity: 0.35; stroke: #ffffff; stroke-width: 0.8; stroke-linejoin: miter"/>
   </g>
   <g id="line2d_1">
    <path d="M 90 384.48 
L 648 384.48 
" clip-path="url(#p762fe6e87a)" style="fill: none; stroke: #000000; stroke-width: 0.5; stroke-linecap: round"/>
   </g>
   <g id="patch_5">
    <path d="M 125.65 384.430113 
L 139.537864 384.430113 
L 139.537864 384.447854 
L 159.555783 384.430113 
L 175.683253 384.430113 
L 149.743078 384.453136 
L 178.35 384.478721 
L 160.964195 384.478721 
L 139.537864 384.459574 
L 139.537864 384.478721 
L 125.65 384.478721 
L 125.65 384.430113 
z
" clip-path="url(#p762fe6e87a)" style="fill: #bd2e1f"/>
   </g>
   <g id="patch_6">
    <path d="M 173.955948 383.929654 
L 173.955948 384.03376 
Q 168.459804 384.015636 163.221293 384.006469 
Q 157.997094 383.997196 153.34541 383.997196 
Q 147.176562 383.997196 144.213797 384.009735 
Q 141.265345 384.022169 141.265345 384.048511 
Q 141.265345 384.068321 143.254834 384.079385 
Q 145.244324 384.090343 150.482835 384.098246 
L 157.811027 384.109099 
Q 168.946442 384.125642 173.641065 384.159256 
Q 178.35 384.192763 178.35 384.254721 
Q 178.35 384.335961 171.794704 384.375686 
Q 165.239408 384.41541 151.770994 384.41541 
Q 145.430391 384.41541 139.032537 384.406454 
Q 132.634682 384.397603 126.236828 384.380111 
L 126.236828 384.273161 
Q 132.634682 384.298133 138.60315 384.310883 
Q 144.571619 384.323528 150.125014 384.323528 
Q 155.764286 384.323528 158.755676 384.309724 
Q 161.747067 384.295815 161.747067 384.270105 
Q 161.747067 384.247134 159.714639 384.234595 
Q 157.682211 384.222056 151.59924 384.212151 
L 144.929441 384.201298 
Q 134.910429 384.185493 130.273058 384.150931 
Q 125.65 384.11637 125.65 384.057784 
Q 125.65 383.984341 132.090793 383.944827 
Q 138.531586 383.905313 150.611651 383.905313 
Q 156.122108 383.905313 161.933134 383.911425 
Q 167.744161 383.917536 173.955948 383.929654 
z
" clip-path="url(#p762fe6e87a)" style="fill: #40ba47"/>
   </g>
   <g id="patch_7">
    <path d="M 126.198462 382.290255 
L 177.801538 382.290255 
L 177.801538 382.594609 
L 145.323077 382.594609 
L 145.323077 382.884916 
L 175.877949 382.884916 
L 175.877949 383.18927 
L 145.323077 383.18927 
L 145.323077 383.850822 
L 126.198462 383.850822 
L 126.198462 382.290255 
z
" clip-path="url(#p762fe6e87a)" style="fill: #21599c"/>
   </g>
   <g id="patch_8">
    <path d="M 153.405333 381.945251 
L 152.373292 381.945251 
Q 139.714313 381.945251 132.676667 381.751562 
Q 125.65 381.557569 125.65 381.211848 
Q 125.65 380.866735 132.665687 380.671222 
Q 139.681375 380.475404 152 380.475404 
Q 164.450375 380.475404 171.400188 380.669397 
Q 178.35 380.863086 178.35 381.211848 
Q 178.35 381.451146 174.661 381.624159 
Q 170.972 381.797172 164.044146 381.884438 
L 174.364563 382.203705 
L 161.771458 382.203705 
L 153.405333 381.945251 
z
M 152 380.740548 
Q 145.961458 380.740548 142.634771 380.863998 
Q 139.308083 380.987448 139.308083 381.211848 
Q 139.308083 381.439896 142.557917 381.561218 
Q 145.818729 381.682235 152 381.682235 
Q 158.071479 381.682235 161.398167 381.558785 
Q 164.724854 381.435031 164.724854 381.211848 
Q 164.724854 380.987448 161.398167 380.863998 
Q 158.071479 380.740548 152 380.740548 
z
" clip-path="url(#p762fe6e87a)" style="fill: #40ba47"/>
   </g>
   <g id="patch_9">
    <path d="M 125.65 378.307458 
L 142.578032 378.307458 
L 163.968106 379.725747 
L 163.968106 378.307458 
L 178.35 378.307458 
L 178.35 380.3755 
L 161.409364 380.3755 
L 140.01929 378.957212 
L 140.01929 380.3755 
L 125.65 380.3755 
L 125.65 378.307458 
z
" clip-path="url(#p762fe6e87a)" style="fill: #40ba47"/>
   </g>
   <g id="patch_10">
    <path d="M 125.65 374.026918 
L 153.043021 374.026918 
Q 165.271068 374.026918 171.803672 374.376389 
Q 178.35 374.724977 178.35 375.370087 
Q 178.35 376.018726 171.803672 376.367314 
Q 165.271068 376.715903 153.043021 376.715903 
L 142.159922 376.715903 
L 142.159922 378.144674 
L 125.65 378.144674 
L 125.65 374.026918 
z
M 142.159922 374.79646 
L 142.159922 375.946361 
L 151.286354 375.946361 
Q 156.08974 375.946361 158.711016 375.796335 
Q 161.332292 375.64631 161.332292 375.370087 
Q 161.332292 375.094746 158.711016 374.945603 
Q 156.08974 374.79646 151.286354 374.79646 
L 142.159922 374.79646 
z
" clip-path="url(#p762fe6e87a)" style="fill: #787800"/>
   </g>
   <g id="patch_11">
    <path d="M 178.35 373.208548 
Q 173.035119 373.483562 167.318669 373.621698 
Q 161.602219 373.758577 155.507822 373.758577 
Q 141.736374 373.758577 133.693187 372.939812 
Q 125.65 372.121047 125.65 370.720858 
Q 125.65 369.304344 133.834917 368.491858 
Q 142.031645 367.679372 156.287338 367.679372 
Q 161.779381 367.679372 166.810802 367.78988 
Q 171.854034 367.899132 176.318534 368.115125 
L 176.318534 369.326948 
Q 171.712304 369.049422 167.153317 368.912542 
Q 162.59433 368.774407 158.011721 368.774407 
Q 149.531533 368.774407 144.937113 369.279229 
Q 140.342694 369.782794 140.342694 370.720858 
Q 140.342694 371.650131 144.771762 372.157464 
Q 149.200829 372.663542 157.350314 372.663542 
Q 159.570753 372.663542 161.472299 372.634659 
Q 163.373846 372.60452 164.885634 372.541731 
L 164.885634 371.403999 
L 156.204662 371.403999 
L 156.204662 370.390589 
L 178.35 370.390589 
L 178.35 373.208548 
z
" clip-path="url(#p762fe6e87a)" style="fill: #787800"/>
   </g>
   <g id="patch_12">
    <path d="M 125.65 356.573924 
L 144.774615 356.573924 
L 144.774615 365.161089 
L 178.35 365.161089 
L 178.35 367.23874 
L 125.65 367.23874 
L 125.65 356.573924 
z
" clip-path="url(#p762fe6e87a)" style="fill: #21599c"/>
   </g>
   <g id="patch_13">
    <path d="M 125.65 343.18313 
L 177.253077 343.18313 
L 177.253077 345.674413 
L 144.774615 345.674413 
L 144.774615 348.050713 
L 175.329487 348.050713 
L 175.329487 350.541996 
L 144.774615 350.541996 
L 144.774615 353.468569 
L 178.35 353.468569 
L 178.35 355.957114 
L 125.65 355.957114 
L 125.65 343.18313 
z
" clip-path="url(#p762fe6e87a)" style="fill: #6b296b"/>
   </g>
   <g id="patch_14">
    <path d="M 162.155336 339.156508 
L 141.887763 339.156508 
L 138.68762 342.381147 
L 125.65 342.381147 
L 144.269015 324.679776 
L 159.730985 324.679776 
L 178.35 342.381147 
L 165.323155 342.381147 
L 162.155336 339.156508 
z
M 145.120231 335.87117 
L 158.890544 335.87117 
L 152.016162 328.830076 
L 145.120231 335.87117 
z
" clip-path="url(#p762fe6e87a)" style="fill: #21599c"/>
   </g>
   <g id="patch_15">
    <path d="M 235.955948 384.214623 
L 235.955948 384.269968 
Q 230.459804 384.260333 225.221293 384.25546 
Q 219.997094 384.25053 215.34541 384.25053 
Q 209.176562 384.25053 206.213797 384.257196 
Q 203.265345 384.263806 203.265345 384.277811 
Q 203.265345 384.288342 205.254834 384.294224 
Q 207.244324 384.30005 212.482835 384.304251 
L 219.811027 384.310021 
Q 230.946442 384.318815 235.641065 384.336685 
Q 240.35 384.354499 240.35 384.387437 
Q 240.35 384.430626 233.794704 384.451745 
Q 227.239408 384.472864 213.770994 384.472864 
Q 207.430391 384.472864 201.032537 384.468102 
Q 194.634682 384.463397 188.236828 384.454098 
L 188.236828 384.39724 
Q 194.634682 384.410516 200.60315 384.417294 
Q 206.571619 384.424016 212.125014 384.424016 
Q 217.764286 384.424016 220.755676 384.416678 
Q 223.747067 384.409284 223.747067 384.395615 
Q 223.747067 384.383404 221.714639 384.376738 
Q 219.682211 384.370072 213.59924 384.364806 
L 206.929441 384.359036 
Q 196.910429 384.350633 192.273058 384.33226 
Q 187.65 384.313886 187.65 384.28274 
Q 187.65 384.243696 194.090793 384.222689 
Q 200.531586 384.201683 212.611651 384.201683 
Q 218.122108 384.201683 223.933134 384.204932 
Q 229.744161 384.208181 235.955948 384.214623 
z
" clip-path="url(#p762fe6e87a)" style="fill: #40ba47"/>
   </g>
   <g id="patch_16">
    <path d="M 187.65 383.641182 
L 202.813382 383.641182 
L 202.813382 383.846637 
L 225.186618 383.846637 
L 225.186618 383.641182 
L 240.35 383.641182 
L 240.35 384.180358 
L 225.186618 384.180358 
L 225.186618 383.951791 
L 202.813382 383.951791 
L 202.813382 384.180358 
L 187.65 384.180358 
L 187.65 383.641182 
z
" clip-path="url(#p762fe6e87a)" style="fill: #177875"/>
   </g>
   <g id="patch_17">
    <path d="M 187.65 380.609347 
L 239.253077 380.609347 
L 239.253077 381.182781 
L 206.774615 381.182781 
L 206.774615 381.72975 
L 237.329487 381.72975 
L 237.329487 382.303184 
L 206.774615 382.303184 
L 206.774615 382.976813 
L 240.35 382.976813 
L 240.35 383.549617 
L 187.65 383.549617 
L 187.65 380.609347 
z
" clip-path="url(#p762fe6e87a)" style="fill: #6b296b"/>
   </g>
   <g id="patch_18">
    <path d="M 187.65 376.805975 
L 203.195992 376.805975 
L 213.979692 378.748807 
L 224.83447 376.805975 
L 240.35 376.805975 
L 240.35 380.436433 
L 228.80474 380.436433 
L 228.80474 377.780892 
L 217.889037 379.738507 
L 210.141426 379.738507 
L 199.225723 377.780892 
L 199.225723 380.436433 
L 187.65 380.436433 
L 187.65 376.805975 
z
" clip-path="url(#p762fe6e87a)" style="fill: #21599c"/>
   </g>
   <g id="patch_19">
    <path d="M 187.65 371.249312 
L 202.22 371.249312 
L 213.988929 373.145793 
L 225.746786 371.249312 
L 240.35 371.249312 
L 220.665 374.328386 
L 220.665 376.570408 
L 207.346071 376.570408 
L 207.346071 374.328386 
L 187.65 371.249312 
z
" clip-path="url(#p762fe6e87a)" style="fill: #177875"/>
   </g>
   <g id="patch_20">
    <path d="M 187.65 364.099086 
L 206.774615 364.099086 
L 206.774615 369.59887 
L 240.35 369.59887 
L 240.35 370.929534 
L 187.65 370.929534 
L 187.65 364.099086 
z
" clip-path="url(#p762fe6e87a)" style="fill: #21599c"/>
   </g>
   <g id="patch_21">
    <path d="M 187.65 351.878736 
L 200.68762 351.878736 
L 214.016162 360.538092 
L 227.323155 351.878736 
L 240.35 351.878736 
L 221.730985 363.610604 
L 206.269015 363.610604 
L 187.65 351.878736 
z
" clip-path="url(#p762fe6e87a)" style="fill: #21599c"/>
   </g>
   <g id="patch_22">
    <path d="M 224.155336 347.919878 
L 203.887763 347.919878 
L 200.68762 351.109269 
L 187.65 351.109269 
L 206.269015 333.601389 
L 221.730985 333.601389 
L 240.35 351.109269 
L 227.323155 351.109269 
L 224.155336 347.919878 
z
M 207.120231 344.670452 
L 220.890544 344.670452 
L 214.016162 337.706323 
L 207.120231 344.670452 
z
" clip-path="url(#p762fe6e87a)" style="fill: #21599c"/>
   </g>
   <g id="patch_23">
    <path d="M 297.955948 384.240533 
L 297.955948 384.290474 
Q 292.459804 384.28178 287.221293 384.277382 
Q 281.997094 384.272934 277.34541 384.272934 
Q 271.176562 384.272934 268.213797 384.278949 
Q 265.265345 384.284914 265.265345 384.297551 
Q 265.265345 384.307054 267.254834 384.312362 
Q 269.244324 384.317619 274.482835 384.32141 
L 281.811027 384.326617 
Q 292.946442 384.334553 297.641065 384.350678 
Q 302.35 384.366752 302.35 384.396474 
Q 302.35 384.435447 295.794704 384.454504 
Q 289.239408 384.47356 275.770994 384.47356 
Q 269.430391 384.47356 263.032537 384.469264 
Q 256.634682 384.465018 250.236828 384.456627 
L 250.236828 384.40532 
Q 256.634682 384.4173 262.60315 384.423417 
Q 268.571619 384.429482 274.125014 384.429482 
Q 279.764286 384.429482 282.755676 384.42286 
Q 285.747067 384.416188 285.747067 384.403854 
Q 285.747067 384.392835 283.714639 384.38682 
Q 281.682211 384.380804 275.59924 384.376053 
L 268.929441 384.370846 
Q 258.910429 384.363264 254.273058 384.346684 
Q 249.65 384.330104 249.65 384.301999 
Q 249.65 384.266767 256.090793 384.247812 
Q 262.531586 384.228856 274.611651 384.228856 
Q 280.122108 384.228856 285.933134 384.231788 
Q 291.744161 384.23472 297.955948 384.240533 
z
" clip-path="url(#p762fe6e87a)" style="fill: #40ba47"/>
   </g>
   <g id="patch_24">
    <path d="M 266.437692 383.883159 
L 285.562308 383.883159 
L 285.562308 384.213718 
L 266.437692 384.213718 
L 266.437692 383.883159 
z
" clip-path="url(#p762fe6e87a)" style="fill: #21599c"/>
   </g>
   <g id="patch_25">
    <path d="M 249.65 383.230999 
L 264.813382 383.230999 
L 264.813382 383.469906 
L 287.186618 383.469906 
L 287.186618 383.230999 
L 302.35 383.230999 
L 302.35 383.857962 
L 287.186618 383.857962 
L 287.186618 383.592181 
L 264.813382 383.592181 
L 264.813382 383.857962 
L 249.65 383.857962 
L 249.65 383.230999 
z
" clip-path="url(#p762fe6e87a)" style="fill: #177875"/>
   </g>
   <g id="patch_26">
    <path d="M 302.35 383.142328 
Q 297.941736 383.168496 293.174969 383.181731 
Q 288.408201 383.195119 283.216541 383.195119 
Q 267.734505 383.195119 258.692252 383.095927 
Q 249.65 382.996735 249.65 382.827105 
Q 249.65 382.656866 258.692252 382.557826 
Q 267.734505 382.458634 283.216541 382.458634 
Q 288.408201 382.458634 293.174969 382.472022 
Q 297.941736 382.485258 302.35 382.511425 
L 302.35 382.658235 
Q 297.901902 382.623549 293.586584 382.607422 
Q 289.271265 382.591296 284.504497 382.591296 
Q 275.953527 382.591296 271.053981 382.654128 
Q 266.167712 382.716807 266.167712 382.827105 
Q 266.167712 382.936946 271.053981 382.999778 
Q 275.953527 383.062458 284.504497 383.062458 
Q 289.271265 383.062458 293.586584 383.046331 
Q 297.901902 383.030053 302.35 382.995366 
L 302.35 383.142328 
z
" clip-path="url(#p762fe6e87a)" style="fill: #6b296b"/>
   </g>
   <g id="patch_27">
    <path d="M 249.65 381.521503 
L 277.043021 381.521503 
Q 289.271068 381.521503 295.803672 381.597395 
Q 302.35 381.673095 302.35 381.813188 
Q 302.35 381.954047 295.803672 382.029747 
Q 289.271068 382.105447 277.043021 382.105447 
L 266.159922 382.105447 
L 266.159922 382.415721 
L 249.65 382.415721 
L 249.65 381.521503 
z
M 266.159922 381.688618 
L 266.159922 381.938332 
L 275.286354 381.938332 
Q 280.08974 381.938332 282.711016 381.905753 
Q 285.332292 381.873173 285.332292 381.813188 
Q 285.332292 381.753394 282.711016 381.721006 
Q 280.08974 381.688618 275.286354 381.688618 
L 266.159922 381.688618 
z
" clip-path="url(#p762fe6e87a)" style="fill: #787800"/>
   </g>
   <g id="patch_28">
    <path d="M 286.155336 381.078666 
L 265.887763 381.078666 
L 262.68762 381.445045 
L 249.65 381.445045 
L 268.269015 379.43384 
L 283.730985 379.43384 
L 302.35 381.445045 
L 289.323155 381.445045 
L 286.155336 381.078666 
z
M 269.120231 380.70539 
L 282.890544 380.70539 
L 276.016162 379.905391 
L 269.120231 380.70539 
z
" clip-path="url(#p762fe6e87a)" style="fill: #21599c"/>
   </g>
   <g id="patch_29">
    <path d="M 249.65 376.451137 
L 268.774615 376.451137 
L 268.774615 378.749665 
L 302.35 378.749665 
L 302.35 379.305791 
L 249.65 379.305791 
L 249.65 376.451137 
z
" clip-path="url(#p762fe6e87a)" style="fill: #21599c"/>
   </g>
   <g id="patch_30">
    <path d="M 250.198462 370.643752 
L 301.801538 370.643752 
L 301.801538 371.733038 
L 269.323077 371.733038 
L 269.323077 372.772049 
L 299.877949 372.772049 
L 299.877949 373.861334 
L 269.323077 373.861334 
L 269.323077 376.229033 
L 250.198462 376.229033 
L 250.198462 370.643752 
z
" clip-path="url(#p762fe6e87a)" style="fill: #21599c"/>
   </g>
   <g id="patch_31">
    <path d="M 249.65 363.851759 
L 302.35 363.851759 
L 302.35 365.114491 
L 283.390256 365.114491 
L 283.390256 370.326386 
L 268.646512 370.326386 
L 268.646512 365.114491 
L 249.65 365.114491 
L 249.65 363.851759 
z
" clip-path="url(#p762fe6e87a)" style="fill: #40ba47"/>
   </g>
   <g id="patch_32">
    <path d="M 249.65 354.291953 
L 264.22 354.291953 
L 275.988929 357.552611 
L 287.746786 354.291953 
L 302.35 354.291953 
L 282.665 359.585866 
L 282.665 363.440619 
L 269.346071 363.440619 
L 269.346071 359.585866 
L 249.65 354.291953 
z
" clip-path="url(#p762fe6e87a)" style="fill: #177875"/>
   </g>
   <g id="patch_33">
    <path d="M 249.65 342.379372 
L 263.537864 342.379372 
L 263.537864 346.530133 
L 283.555783 342.379372 
L 299.683253 342.379372 
L 273.743078 347.765856 
L 302.35 353.751921 
L 284.964195 353.751921 
L 263.537864 349.272121 
L 263.537864 353.751921 
L 249.65 353.751921 
L 249.65 342.379372 
z
" clip-path="url(#p762fe6e87a)" style="fill: #bd2e1f"/>
   </g>
   <g id="patch_34">
    <path d="M 311.65 383.133753 
L 326.813382 383.133753 
L 326.813382 383.633592 
L 349.186618 383.633592 
L 349.186618 383.133753 
L 364.35 383.133753 
L 364.35 384.445481 
L 349.186618 384.445481 
L 349.186618 383.889416 
L 326.813382 383.889416 
L 326.813382 384.445481 
L 311.65 384.445481 
L 311.65 383.133753 
z
" clip-path="url(#p762fe6e87a)" style="fill: #177875"/>
   </g>
   <g id="patch_35">
    <path d="M 364.35 382.844153 
Q 359.035119 382.942956 353.318669 382.992583 
Q 347.602219 383.041759 341.507822 383.041759 
Q 327.736374 383.041759 319.693187 382.747606 
Q 311.65 382.453454 311.65 381.950417 
Q 311.65 381.441515 319.834917 381.149619 
Q 328.031645 380.857722 342.287338 380.857722 
Q 347.779381 380.857722 352.810802 380.897424 
Q 357.854034 380.936674 362.318534 381.014273 
L 362.318534 381.449636 
Q 357.712304 381.349931 353.153317 381.300755 
Q 348.59433 381.251128 344.011721 381.251128 
Q 335.531533 381.251128 330.937113 381.432492 
Q 326.342694 381.613405 326.342694 381.950417 
Q 326.342694 382.284271 330.771762 382.466537 
Q 335.200829 382.648352 343.350314 382.648352 
Q 345.570753 382.648352 347.472299 382.637976 
Q 349.373846 382.627148 350.885634 382.604591 
L 350.885634 382.195845 
L 342.204662 382.195845 
L 342.204662 381.831764 
L 364.35 381.831764 
L 364.35 382.844153 
z
" clip-path="url(#p762fe6e87a)" style="fill: #787800"/>
   </g>
   <g id="patch_36">
    <path d="M 311.65 60.064006 
L 363.253077 60.064006 
L 363.253077 121.012599 
L 330.774615 121.012599 
L 330.774615 179.14818 
L 361.329487 179.14818 
L 361.329487 240.096773 
L 330.774615 240.096773 
L 330.774615 311.694625 
L 364.35 311.694625 
L 364.35 372.576241 
L 311.65 372.576241 
L 311.65 60.064006 
z
" clip-path="url(#p762fe6e87a)" style="fill: #6b296b"/>
   </g>
   <g id="patch_37">
    <path d="M 373.65 384.461225 
L 386.68762 384.461225 
L 400.016162 384.474728 
L 413.323155 384.461225 
L 426.35 384.461225 
L 407.730985 384.479519 
L 392.269015 384.479519 
L 373.65 384.461225 
z
" clip-path="url(#p762fe6e87a)" style="fill: #21599c"/>
   </g>
   <g id="patch_38">
    <path d="M 373.65 382.184448 
L 392.774615 382.184448 
L 392.774615 383.970294 
L 426.35 383.970294 
L 426.35 384.402377 
L 373.65 384.402377 
L 373.65 382.184448 
z
" clip-path="url(#p762fe6e87a)" style="fill: #21599c"/>
   </g>
   <g id="patch_39">
    <path d="M 401.405333 381.41494 
L 400.373292 381.41494 
Q 387.714313 381.41494 380.676667 380.961753 
Q 373.65 380.507854 373.65 379.698946 
Q 373.65 378.891461 380.665687 378.434005 
Q 387.681375 377.975837 400 377.975837 
Q 412.450375 377.975837 419.400188 378.429736 
Q 426.35 378.882924 426.35 379.698946 
Q 426.35 380.25885 422.661 380.663659 
Q 418.972 381.068469 412.044146 381.272652 
L 422.364563 382.019665 
L 409.771458 382.019665 
L 401.405333 381.41494 
z
M 400 378.596213 
Q 393.961458 378.596213 390.634771 378.885058 
Q 387.308083 379.173903 387.308083 379.698946 
Q 387.308083 380.232526 390.557917 380.516391 
Q 393.818729 380.799544 400 380.799544 
Q 406.071479 380.799544 409.398167 380.5107 
Q 412.724854 380.221143 412.724854 379.698946 
Q 412.724854 379.173903 409.398167 378.885058 
Q 406.071479 378.596213 400 378.596213 
z
" clip-path="url(#p762fe6e87a)" style="fill: #40ba47"/>
   </g>
   <g id="patch_40">
    <path d="M 421.955948 371.394725 
L 421.955948 372.745045 
Q 416.459804 372.509969 411.221293 372.391064 
Q 405.997094 372.270793 401.34541 372.270793 
Q 395.176562 372.270793 392.213797 372.433433 
Q 389.265345 372.594706 389.265345 372.936386 
Q 389.265345 373.19333 391.254834 373.336835 
Q 393.244324 373.478974 398.482835 373.581478 
L 405.811027 373.72225 
Q 416.946442 373.936826 421.641065 374.37281 
Q 426.35 374.807427 426.35 375.611059 
Q 426.35 376.6648 419.794704 377.180054 
Q 413.239408 377.695308 399.770994 377.695308 
Q 393.430391 377.695308 387.032537 377.579137 
Q 380.634682 377.464332 374.236828 377.237456 
L 374.236828 375.850235 
Q 380.634682 376.174148 386.60315 376.339521 
Q 392.571619 376.503527 398.125014 376.503527 
Q 403.764286 376.503527 406.755676 376.324487 
Q 409.747067 376.14408 409.747067 375.8106 
Q 409.747067 375.512655 407.714639 375.350015 
Q 405.682211 375.187375 399.59924 375.058903 
L 392.929441 374.918131 
Q 382.910429 374.713123 378.273058 374.264839 
Q 373.65 373.816554 373.65 373.056657 
Q 373.65 372.104053 380.090793 371.591533 
Q 386.531586 371.079012 398.611651 371.079012 
Q 404.122108 371.079012 409.933134 371.158282 
Q 415.744161 371.237552 421.955948 371.394725 
z
" clip-path="url(#p762fe6e87a)" style="fill: #40ba47"/>
   </g>
   <g id="patch_41">
    <path d="M 426.35 370.07123 
Q 421.035119 370.394143 415.318669 370.556337 
Q 409.602219 370.717057 403.507822 370.717057 
Q 389.736374 370.717057 381.693187 369.755688 
Q 373.65 368.79432 373.65 367.150262 
Q 373.65 365.487035 381.834917 364.533039 
Q 390.031645 363.579043 404.287338 363.579043 
Q 409.779381 363.579043 414.810802 363.708799 
Q 419.854034 363.837079 424.318534 364.090692 
L 424.318534 365.513576 
Q 419.712304 365.187714 415.153317 365.026994 
Q 410.59433 364.8648 406.011721 364.8648 
Q 397.531533 364.8648 392.937113 365.457546 
Q 388.342694 366.048817 388.342694 367.150262 
Q 388.342694 368.241386 392.771762 368.83708 
Q 397.200829 369.4313 405.350314 369.4313 
Q 407.570753 369.4313 409.472299 369.397387 
Q 411.373846 369.361999 412.885634 369.288275 
L 412.885634 367.952385 
L 404.204662 367.952385 
L 404.204662 366.762471 
L 426.35 366.762471 
L 426.35 370.07123 
z
" clip-path="url(#p762fe6e87a)" style="fill: #787800"/>
   </g>
   <g id="patch_42">
    <path d="M 410.155336 347.571655 
L 389.887763 347.571655 
L 386.68762 361.394393 
L 373.65 361.394393 
L 392.269015 285.515693 
L 407.730985 285.515693 
L 426.35 361.394393 
L 413.323155 361.394393 
L 410.155336 347.571655 
z
M 393.120231 333.488724 
L 406.890544 333.488724 
L 400.016162 303.30637 
L 393.120231 333.488724 
z
" clip-path="url(#p762fe6e87a)" style="fill: #21599c"/>
   </g>
   <g id="patch_43">
    <path d="M 435.65 384.189816 
L 451.195992 384.189816 
L 461.979692 384.341126 
L 472.83447 384.189816 
L 488.35 384.189816 
L 488.35 384.472559 
L 476.80474 384.472559 
L 476.80474 384.265744 
L 465.889037 384.418204 
L 458.141426 384.418204 
L 447.225723 384.265744 
L 447.225723 384.472559 
L 435.65 384.472559 
L 435.65 384.189816 
z
" clip-path="url(#p762fe6e87a)" style="fill: #21599c"/>
   </g>
   <g id="patch_44">
    <path d="M 435.65 383.130262 
L 463.043021 383.130262 
Q 475.271068 383.130262 481.803672 383.217265 
Q 488.35 383.304047 488.35 383.464651 
Q 488.35 383.626133 481.803672 383.712916 
Q 475.271068 383.799699 463.043021 383.799699 
L 452.159922 383.799699 
L 452.159922 384.155399 
L 435.65 384.155399 
L 435.65 383.130262 
z
M 452.159922 383.321843 
L 452.159922 383.608117 
L 461.286354 383.608117 
Q 466.08974 383.608117 468.711016 383.570768 
Q 471.332292 383.533418 471.332292 383.464651 
Q 471.332292 383.396103 468.711016 383.358973 
Q 466.08974 383.321843 461.286354 383.321843 
L 452.159922 383.321843 
z
" clip-path="url(#p762fe6e87a)" style="fill: #787800"/>
   </g>
   <g id="patch_45">
    <path d="M 435.65 381.922133 
L 487.253077 381.922133 
L 487.253077 382.146584 
L 454.774615 382.146584 
L 454.774615 382.360676 
L 485.329487 382.360676 
L 485.329487 382.585127 
L 454.774615 382.585127 
L 454.774615 382.848795 
L 488.35 382.848795 
L 488.35 383.072999 
L 435.65 383.072999 
L 435.65 381.922133 
z
" clip-path="url(#p762fe6e87a)" style="fill: #6b296b"/>
   </g>
   <g id="patch_46">
    <path d="M 463.405333 381.596814 
L 462.373292 381.596814 
Q 449.714313 381.596814 442.676667 381.408798 
Q 435.65 381.220487 435.65 380.884892 
Q 435.65 380.549888 442.665687 380.360101 
Q 449.681375 380.170019 462 380.170019 
Q 474.450375 380.170019 481.400187 380.35833 
Q 488.35 380.546346 488.35 380.884892 
Q 488.35 381.117182 484.661 381.285127 
Q 480.972 381.453072 474.044146 381.537782 
L 484.364562 381.847698 
L 471.771458 381.847698 
L 463.405333 381.596814 
z
M 462 380.427397 
Q 455.961458 380.427397 452.634771 380.547231 
Q 449.308083 380.667066 449.308083 380.884892 
Q 449.308083 381.106261 452.557917 381.224029 
Q 455.818729 381.341502 462 381.341502 
Q 468.071479 381.341502 471.398167 381.221668 
Q 474.724854 381.101538 474.724854 380.884892 
Q 474.724854 380.667066 471.398167 380.547231 
Q 468.071479 380.427397 462 380.427397 
z
" clip-path="url(#p762fe6e87a)" style="fill: #40ba47"/>
   </g>
   <g id="patch_47">
    <path d="M 472.155336 378.959178 
L 451.887763 378.959178 
L 448.68762 379.978605 
L 435.65 379.978605 
L 454.269015 374.382547 
L 469.730985 374.382547 
L 488.35 379.978605 
L 475.323155 379.978605 
L 472.155336 378.959178 
z
M 455.120231 377.920561 
L 468.890544 377.920561 
L 462.016162 375.694611 
L 455.120231 377.920561 
z
" clip-path="url(#p762fe6e87a)" style="fill: #21599c"/>
   </g>
   <g id="patch_48">
    <path d="M 450.091481 368.426628 
L 450.091481 372.690134 
L 455.265444 372.690134 
Q 464.112802 372.690134 468.782574 372.142033 
Q 473.464351 371.593932 473.464351 370.550144 
Q 473.464351 369.512347 468.806583 368.970236 
Q 464.16082 368.426628 455.265444 368.426628 
L 450.091481 368.426628 
z
M 435.65 367.063864 
L 450.871777 367.063864 
Q 463.63262 367.063864 469.874989 367.291491 
Q 476.117358 367.51762 480.583052 368.061228 
Q 484.520547 368.534451 486.429271 369.152937 
Q 488.35 369.769925 488.35 370.550144 
Q 488.35 371.342345 486.429271 371.962328 
Q 484.520547 372.58231 480.583052 373.054037 
Q 476.081344 373.597645 469.778952 373.825271 
Q 463.47656 374.0514 450.871777 374.0514 
L 435.65 374.0514 
L 435.65 367.063864 
z
" clip-path="url(#p762fe6e87a)" style="fill: #6b296b"/>
   </g>
   <g id="patch_49">
    <path d="M 435.65 359.560751 
L 450.813382 359.560751 
L 450.813382 362.278263 
L 473.186618 362.278263 
L 473.186618 359.560751 
L 488.35 359.560751 
L 488.35 366.692309 
L 473.186618 366.692309 
L 473.186618 363.669116 
L 450.813382 363.669116 
L 450.813382 366.692309 
L 435.65 366.692309 
L 435.65 359.560751 
z
" clip-path="url(#p762fe6e87a)" style="fill: #177875"/>
   </g>
   <g id="patch_50">
    <path d="M 483.955948 347.709642 
L 483.955948 350.142092 
Q 478.459804 349.718629 473.221293 349.504436 
Q 467.997094 349.28778 463.34541 349.28778 
Q 457.176562 349.28778 454.213797 349.580758 
Q 451.265345 349.871273 451.265345 350.486771 
Q 451.265345 350.949626 453.254834 351.208135 
Q 455.244324 351.464183 460.482835 351.648832 
L 467.811027 351.902418 
Q 478.946442 352.288951 483.641065 353.074327 
Q 488.35 353.857241 488.35 355.304893 
Q 488.35 357.20309 481.794704 358.131262 
Q 475.239408 359.059434 461.770994 359.059434 
Q 455.430391 359.059434 449.032537 358.850164 
Q 442.634682 358.643357 436.236828 358.234666 
L 436.236828 355.735742 
Q 442.634682 356.319235 448.60315 356.617136 
Q 454.571619 356.912575 460.125014 356.912575 
Q 465.764286 356.912575 468.755676 356.590054 
Q 471.747067 356.265071 471.747067 355.664344 
Q 471.747067 355.12763 469.714639 354.834652 
Q 467.682211 354.541675 461.59924 354.310248 
L 454.929441 354.056662 
Q 444.910429 353.687363 440.273058 352.879829 
Q 435.65 352.072295 435.65 350.703427 
Q 435.65 348.987417 442.090793 348.064169 
Q 448.531586 347.140922 460.611651 347.140922 
Q 466.122108 347.140922 471.933134 347.283717 
Q 477.744161 347.426513 483.955948 347.709642 
z
" clip-path="url(#p762fe6e87a)" style="fill: #40ba47"/>
   </g>
   <g id="patch_51">
    <path d="M 488.35 344.314544 
Q 483.035119 345.287826 477.318669 345.776689 
Q 471.602219 346.261108 465.507822 346.261108 
Q 451.736374 346.261108 443.693187 343.363483 
Q 435.65 340.465858 435.65 335.510563 
Q 435.65 330.497494 443.834917 327.62209 
Q 452.031645 324.746686 466.287338 324.746686 
Q 471.779381 324.746686 476.810802 325.137777 
Q 481.854034 325.524423 486.318534 326.288827 
L 486.318534 330.57749 
Q 481.712304 329.59532 477.153317 329.110901 
Q 472.59433 328.622037 468.011721 328.622037 
Q 459.531533 328.622037 454.937113 330.40861 
Q 450.342694 332.190738 450.342694 335.510563 
Q 450.342694 338.799279 454.771762 340.59474 
Q 459.200829 342.385756 467.350314 342.385756 
Q 469.570753 342.385756 471.472299 342.28354 
Q 473.373846 342.176878 474.885634 341.954668 
L 474.885634 337.928214 
L 466.204662 337.928214 
L 466.204662 334.341736 
L 488.35 334.341736 
L 488.35 344.314544 
z
" clip-path="url(#p762fe6e87a)" style="fill: #787800"/>
   </g>
   <g id="patch_52">
    <path d="M 550.35 384.401591 
Q 545.941736 384.430019 541.174969 384.444399 
Q 536.408201 384.458944 531.216541 384.458944 
Q 515.734505 384.458944 506.692252 384.35118 
Q 497.65 384.243415 497.65 384.059125 
Q 497.65 383.874174 506.692252 383.766575 
Q 515.734505 383.658811 531.216541 383.658811 
Q 536.408201 383.658811 541.174969 383.673356 
Q 545.941736 383.687736 550.35 383.716164 
L 550.35 383.875662 
Q 545.901902 383.837977 541.586584 383.820458 
Q 537.271265 383.802938 532.504497 383.802938 
Q 523.953527 383.802938 519.053981 383.871199 
Q 514.167712 383.939296 514.167712 384.059125 
Q 514.167712 384.178459 519.053981 384.246721 
Q 523.953527 384.314818 532.504497 384.314818 
Q 537.271265 384.314818 541.586584 384.297298 
Q 545.901902 384.279612 550.35 384.241928 
L 550.35 384.401591 
z
" clip-path="url(#p762fe6e87a)" style="fill: #6b296b"/>
   </g>
   <g id="patch_53">
    <path d="M 497.65 382.586766 
L 525.043021 382.586766 
Q 537.271068 382.586766 543.803672 382.673675 
Q 550.35 382.760365 550.35 382.920797 
Q 550.35 383.082107 543.803672 383.168797 
Q 537.271068 383.255487 525.043021 383.255487 
L 514.159922 383.255487 
L 514.159922 383.610807 
L 497.65 383.610807 
L 497.65 382.586766 
z
M 514.159922 382.778142 
L 514.159922 383.06411 
L 523.286354 383.06411 
Q 528.08974 383.06411 530.711016 383.0268 
Q 533.332292 382.989491 533.332292 382.920797 
Q 533.332292 382.852323 530.711016 382.815233 
Q 528.08974 382.778142 523.286354 382.778142 
L 514.159922 382.778142 
z
" clip-path="url(#p762fe6e87a)" style="fill: #787800"/>
   </g>
   <g id="patch_54">
    <path d="M 497.65 381.145113 
L 510.68762 381.145113 
L 524.016162 382.162539 
L 537.323155 381.145113 
L 550.35 381.145113 
L 531.730985 382.523543 
L 516.269015 382.523543 
L 497.65 381.145113 
z
" clip-path="url(#p762fe6e87a)" style="fill: #21599c"/>
   </g>
   <g id="patch_55">
    <path d="M 497.65 378.771872 
L 511.537864 378.771872 
L 511.537864 379.602949 
L 531.555783 378.771872 
L 547.683253 378.771872 
L 521.743078 379.850369 
L 550.35 381.048916 
L 532.964195 381.048916 
L 511.537864 380.151958 
L 511.537864 381.048916 
L 497.65 381.048916 
L 497.65 378.771872 
z
" clip-path="url(#p762fe6e87a)" style="fill: #bd2e1f"/>
   </g>
   <g id="patch_56">
    <path d="M 497.65 376.178187 
L 514.578032 376.178187 
L 535.968106 377.871317 
L 535.968106 376.178187 
L 550.35 376.178187 
L 550.35 378.646982 
L 533.409364 378.646982 
L 512.01929 376.953852 
L 512.01929 378.646982 
L 497.65 378.646982 
L 497.65 376.178187 
z
" clip-path="url(#p762fe6e87a)" style="fill: #40ba47"/>
   </g>
   <g id="patch_57">
    <path d="M 497.65 372.654679 
L 549.253077 372.654679 
L 549.253077 373.311896 
L 516.774615 373.311896 
L 516.774615 373.938779 
L 547.329487 373.938779 
L 547.329487 374.595996 
L 516.774615 374.595996 
L 516.774615 375.368044 
L 550.35 375.368044 
L 550.35 376.024538 
L 497.65 376.024538 
L 497.65 372.654679 
z
" clip-path="url(#p762fe6e87a)" style="fill: #6b296b"/>
   </g>
   <g id="patch_58">
    <path d="M 497.65 367.681836 
L 512.22 367.681836 
L 523.988929 369.377956 
L 535.746786 367.681836 
L 550.35 367.681836 
L 530.665 370.435609 
L 530.665 372.440764 
L 517.346071 372.440764 
L 517.346071 370.435609 
L 497.65 367.681836 
z
" clip-path="url(#p762fe6e87a)" style="fill: #177875"/>
   </g>
   <g id="patch_59">
    <path d="M 534.155336 366.416318 
L 513.887763 366.416318 
L 510.68762 367.41267 
L 497.65 367.41267 
L 516.269015 361.943282 
L 531.730985 361.943282 
L 550.35 367.41267 
L 537.323155 367.41267 
L 534.155336 366.416318 
z
M 517.120231 365.401211 
L 530.890544 365.401211 
L 524.016162 363.225646 
L 517.120231 365.401211 
z
" clip-path="url(#p762fe6e87a)" style="fill: #21599c"/>
   </g>
   <g id="patch_60">
    <path d="M 545.955948 355.869642 
L 545.955948 357.106303 
Q 540.459804 356.891014 535.221293 356.782117 
Q 529.997094 356.67197 525.34541 356.67197 
Q 519.176562 356.67197 516.213797 356.82092 
Q 513.265345 356.968618 513.265345 357.281538 
Q 513.265345 357.516855 515.254834 357.648281 
Q 517.244324 357.778456 522.482835 357.872332 
L 529.811027 358.001255 
Q 540.946442 358.197769 545.641065 358.597056 
Q 550.35 358.99509 550.35 359.731079 
Q 550.35 360.696126 543.794704 361.168009 
Q 537.239408 361.639893 523.770994 361.639893 
Q 517.430391 361.639893 511.032537 361.5335 
Q 504.634682 361.428359 498.236828 361.22058 
L 498.236828 359.950123 
Q 504.634682 360.246772 510.60315 360.398225 
Q 516.571619 360.548427 522.125014 360.548427 
Q 527.764286 360.548427 530.755676 360.384457 
Q 533.747067 360.219235 533.747067 359.913825 
Q 533.747067 359.640958 531.714639 359.492008 
Q 529.682211 359.343058 523.59924 359.2254 
L 516.929441 359.096477 
Q 506.910429 358.908724 502.273058 358.498173 
Q 497.65 358.087621 497.65 357.391686 
Q 497.65 356.519264 504.090793 356.049884 
Q 510.531586 355.580503 522.611651 355.580503 
Q 528.122108 355.580503 533.933134 355.653101 
Q 539.744161 355.725698 545.955948 355.869642 
z
" clip-path="url(#p762fe6e87a)" style="fill: #40ba47"/>
   </g>
   <g id="patch_61">
    <path d="M 550.35 354.706863 
Q 545.035119 354.983494 539.318669 355.122442 
Q 533.602219 355.260126 527.507822 355.260126 
Q 513.736374 355.260126 505.693187 354.436547 
Q 497.65 353.612968 497.65 352.204547 
Q 497.65 350.779705 505.834917 349.962442 
Q 514.031645 349.145178 528.287338 349.145178 
Q 533.779381 349.145178 538.810802 349.256336 
Q 543.854034 349.366231 548.318534 349.583494 
L 548.318534 350.802442 
Q 543.712304 350.523284 539.153317 350.385599 
Q 534.59433 350.246652 530.011721 350.246652 
Q 521.531533 350.246652 516.937113 350.754442 
Q 512.342694 351.260968 512.342694 352.204547 
Q 512.342694 353.139284 516.771762 353.6496 
Q 521.200829 354.158652 529.350314 354.158652 
Q 531.570753 354.158652 533.472299 354.1296 
Q 535.373846 354.099284 536.885634 354.036126 
L 536.885634 352.891705 
L 528.204662 352.891705 
L 528.204662 351.872336 
L 550.35 351.872336 
L 550.35 354.706863 
z
" clip-path="url(#p762fe6e87a)" style="fill: #787800"/>
   </g>
   <g id="patch_62">
    <path d="M 497.65 338.528404 
L 550.35 338.528404 
L 550.35 340.5153 
L 531.390256 340.5153 
L 531.390256 348.71616 
L 516.646512 348.71616 
L 516.646512 340.5153 
L 497.65 340.5153 
L 497.65 338.528404 
z
" clip-path="url(#p762fe6e87a)" style="fill: #40ba47"/>
   </g>
   <g id="patch_63">
    <path d="M 607.955948 384.327808 
L 607.955948 384.359548 
Q 602.459804 384.354023 597.221293 384.351228 
Q 591.997094 384.348401 587.34541 384.348401 
Q 581.176562 384.348401 578.213797 384.352223 
Q 575.265345 384.356014 575.265345 384.364046 
Q 575.265345 384.370085 577.254834 384.373459 
Q 579.244324 384.3768 584.482835 384.379209 
L 591.811027 384.382518 
Q 602.946442 384.387562 607.641065 384.39781 
Q 612.35 384.408026 612.35 384.426916 
Q 612.35 384.451685 605.794704 384.463796 
Q 599.239408 384.475907 585.770994 384.475907 
Q 579.430391 384.475907 573.032537 384.473177 
Q 566.634682 384.470478 560.236828 384.465145 
L 560.236828 384.432538 
Q 566.634682 384.440151 572.60315 384.444039 
Q 578.571619 384.447894 584.125014 384.447894 
Q 589.764286 384.447894 592.755676 384.443685 
Q 595.747067 384.439445 595.747067 384.431606 
Q 595.747067 384.424603 593.714639 384.42078 
Q 591.682211 384.416957 585.59924 384.413937 
L 578.929441 384.410628 
Q 568.910429 384.405809 564.273058 384.395272 
Q 559.65 384.384735 559.65 384.366873 
Q 559.65 384.344481 566.090793 384.332434 
Q 572.531586 384.320387 584.611651 384.320387 
Q 590.122108 384.320387 595.933134 384.32225 
Q 601.744161 384.324114 607.955948 384.327808 
z
" clip-path="url(#p762fe6e87a)" style="fill: #40ba47"/>
   </g>
   <g id="patch_64">
    <path d="M 574.091481 383.672712 
L 574.091481 384.145096 
L 579.265444 384.145096 
Q 588.112802 384.145096 592.782574 384.084368 
Q 597.464351 384.02364 597.464351 383.907992 
Q 597.464351 383.793007 592.806583 383.732942 
Q 588.16082 383.672712 579.265444 383.672712 
L 574.091481 383.672712 
z
M 559.65 383.521722 
L 574.871777 383.521722 
Q 587.63262 383.521722 593.874989 383.546942 
Q 600.117358 383.571997 604.583052 383.632227 
Q 608.520547 383.684659 610.429271 383.753185 
Q 612.35 383.821545 612.35 383.907992 
Q 612.35 383.995765 610.429271 384.064457 
Q 608.520547 384.13315 604.583052 384.185416 
Q 600.081344 384.245646 593.778952 384.270866 
Q 587.47656 384.295921 574.871777 384.295921 
L 559.65 384.295921 
L 559.65 383.521722 
z
" clip-path="url(#p762fe6e87a)" style="fill: #6b296b"/>
   </g>
   <g id="patch_65">
    <path d="M 559.65 382.34419 
L 612.35 382.34419 
L 612.35 382.564081 
L 593.390256 382.564081 
L 593.390256 383.471677 
L 578.646512 383.471677 
L 578.646512 382.564081 
L 559.65 382.564081 
L 559.65 382.34419 
z
" clip-path="url(#p762fe6e87a)" style="fill: #40ba47"/>
   </g>
   <g id="patch_66">
    <path d="M 559.65 379.787741 
L 572.68762 379.787741 
L 586.016162 381.604948 
L 599.323155 379.787741 
L 612.35 379.787741 
L 593.730985 382.24973 
L 578.269015 382.24973 
L 559.65 379.787741 
z
" clip-path="url(#p762fe6e87a)" style="fill: #21599c"/>
   </g>
   <g id="patch_67">
    <path d="M 559.65 376.660206 
L 611.253077 376.660206 
L 611.253077 377.242211 
L 578.774615 377.242211 
L 578.774615 377.797354 
L 609.329487 377.797354 
L 609.329487 378.379359 
L 578.774615 378.379359 
L 578.774615 379.063054 
L 612.35 379.063054 
L 612.35 379.64442 
L 559.65 379.64442 
L 559.65 376.660206 
z
" clip-path="url(#p762fe6e87a)" style="fill: #6b296b"/>
   </g>
   <g id="patch_68">
    <path d="M 576.437692 373.148146 
L 595.562308 373.148146 
L 595.562308 376.493634 
L 576.437692 376.493634 
L 576.437692 373.148146 
z
" clip-path="url(#p762fe6e87a)" style="fill: #21599c"/>
   </g>
   <g id="patch_69">
    <path d="M 559.65 367.732591 
L 578.774615 367.732591 
L 578.774615 371.912244 
L 612.35 371.912244 
L 612.35 372.923504 
L 559.65 372.923504 
L 559.65 367.732591 
z
" clip-path="url(#p762fe6e87a)" style="fill: #21599c"/>
   </g>
   <g id="patch_70">
    <path d="M 612.35 366.954571 
Q 607.035119 367.203017 601.318669 367.327808 
Q 595.602219 367.451464 589.507822 367.451464 
Q 575.736374 367.451464 567.693187 366.711796 
Q 559.65 365.972129 559.65 364.707207 
Q 559.65 363.427538 567.834917 362.693542 
Q 576.031645 361.959547 590.287338 361.959547 
Q 595.779381 361.959547 600.810802 362.05938 
Q 605.854034 362.158078 610.318534 362.353205 
L 610.318534 363.447958 
Q 605.712304 363.197242 601.153317 363.073586 
Q 596.59433 362.948796 592.011721 362.948796 
Q 583.531533 362.948796 578.937113 363.404848 
Q 574.342694 363.859766 574.342694 364.707207 
Q 574.342694 365.546707 578.771762 366.005028 
Q 583.200829 366.462215 591.350314 366.462215 
Q 593.570753 366.462215 595.472299 366.436123 
Q 597.373846 366.408896 598.885634 366.352173 
L 598.885634 365.324353 
L 590.204662 365.324353 
L 590.204662 364.408845 
L 612.35 364.408845 
L 612.35 366.954571 
z
" clip-path="url(#p762fe6e87a)" style="fill: #787800"/>
   </g>
   <g id="patch_71">
    <path d="M 559.65 334.722928 
L 587.043021 334.722928 
Q 599.271068 334.722928 605.803672 336.963258 
Q 612.35 339.197931 612.35 343.33349 
Q 612.35 347.491679 605.803672 349.726352 
Q 599.271068 351.961024 587.043021 351.961024 
L 576.159922 351.961024 
L 576.159922 361.120354 
L 559.65 361.120354 
L 559.65 334.722928 
z
M 576.159922 339.65618 
L 576.159922 347.027772 
L 585.286354 347.027772 
Q 590.08974 347.027772 592.711016 346.066014 
Q 595.332292 345.104256 595.332292 343.33349 
Q 595.332292 341.568382 592.711016 340.612281 
Q 590.08974 339.65618 585.286354 339.65618 
L 576.159922 339.65618 
z
" clip-path="url(#p762fe6e87a)" style="fill: #787800"/>
   </g>
   <g id="matplotlib.axis_1">
    <g id="xtick_1">
     <g id="line2d_2">
      <defs>
       <path id="m50f9794e53" d="M 0 0 
L 0 4.8 
" style="stroke: #262626"/>
      </defs>
      <g>
       <use xlink:href="#m50f9794e53" x="152" y="384.48" style="fill: #262626; stroke: #262626"/>
      </g>
     </g>
     <g id="text_1">
      <!-- P4 -->
      <g style="fill: #262626" transform="translate(146.61825 399.078875) scale(0.088 -0.088)">
       <defs>
        <path id="ArialMT-50" d="M 494 0 
L 494 4581 
L 2222 4581 
Q 2678 4581 2919 4538 
Q 3256 4481 3484 4323 
Q 3713 4166 3852 3881 
Q 3991 3597 3991 3256 
Q 3991 2672 3619 2267 
Q 3247 1863 2275 1863 
L 1100 1863 
L 1100 0 
L 494 0 
z
M 1100 2403 
L 2284 2403 
Q 2872 2403 3119 2622 
Q 3366 2841 3366 3238 
Q 3366 3525 3220 3729 
Q 3075 3934 2838 4000 
Q 2684 4041 2272 4041 
L 1100 4041 
L 1100 2403 
z
" transform="scale(0.015625)"/>
        <path id="ArialMT-34" d="M 2069 0 
L 2069 1097 
L 81 1097 
L 81 1613 
L 2172 4581 
L 2631 4581 
L 2631 1613 
L 3250 1613 
L 3250 1097 
L 2631 1097 
L 2631 0 
L 2069 0 
z
M 2069 1613 
L 2069 3678 
L 634 1613 
L 2069 1613 
z
" transform="scale(0.015625)"/>
       </defs>
       <use xlink:href="#ArialMT-50"/>
       <use xlink:href="#ArialMT-34" x="66.699219"/>
      </g>
     </g>
    </g>
    <g id="xtick_2">
     <g id="line2d_3">
      <g>
       <use xlink:href="#m50f9794e53" x="214" y="384.48" style="fill: #262626; stroke: #262626"/>
      </g>
     </g>
     <g id="text_2">
      <!-- P3 -->
      <g style="fill: #262626" transform="translate(208.61825 399.078875) scale(0.088 -0.088)">
       <defs>
        <path id="ArialMT-33" d="M 269 1209 
L 831 1284 
Q 928 806 1161 595 
Q 1394 384 1728 384 
Q 2125 384 2398 659 
Q 2672 934 2672 1341 
Q 2672 1728 2419 1979 
Q 2166 2231 1775 2231 
Q 1616 2231 1378 2169 
L 1441 2663 
Q 1497 2656 1531 2656 
Q 1891 2656 2178 2843 
Q 2466 3031 2466 3422 
Q 2466 3731 2256 3934 
Q 2047 4138 1716 4138 
Q 1388 4138 1169 3931 
Q 950 3725 888 3313 
L 325 3413 
Q 428 3978 793 4289 
Q 1159 4600 1703 4600 
Q 2078 4600 2393 4439 
Q 2709 4278 2876 4000 
Q 3044 3722 3044 3409 
Q 3044 3113 2884 2869 
Q 2725 2625 2413 2481 
Q 2819 2388 3044 2092 
Q 3269 1797 3269 1353 
Q 3269 753 2831 336 
Q 2394 -81 1725 -81 
Q 1122 -81 723 278 
Q 325 638 269 1209 
z
" transform="scale(0.015625)"/>
       </defs>
       <use xlink:href="#ArialMT-50"/>
       <use xlink:href="#ArialMT-33" x="66.699219"/>
      </g>
     </g>
    </g>
    <g id="xtick_3">
     <g id="line2d_4">
      <g>
       <use xlink:href="#m50f9794e53" x="276" y="384.48" style="fill: #262626; stroke: #262626"/>
      </g>
     </g>
     <g id="text_3">
      <!-- P2 -->
      <g style="fill: #262626" transform="translate(270.61825 399.078875) scale(0.088 -0.088)">
       <defs>
        <path id="ArialMT-32" d="M 3222 541 
L 3222 0 
L 194 0 
Q 188 203 259 391 
Q 375 700 629 1000 
Q 884 1300 1366 1694 
Q 2113 2306 2375 2664 
Q 2638 3022 2638 3341 
Q 2638 3675 2398 3904 
Q 2159 4134 1775 4134 
Q 1369 4134 1125 3890 
Q 881 3647 878 3216 
L 300 3275 
Q 359 3922 746 4261 
Q 1134 4600 1788 4600 
Q 2447 4600 2831 4234 
Q 3216 3869 3216 3328 
Q 3216 3053 3103 2787 
Q 2991 2522 2730 2228 
Q 2469 1934 1863 1422 
Q 1356 997 1212 845 
Q 1069 694 975 541 
L 3222 541 
z
" transform="scale(0.015625)"/>
       </defs>
       <use xlink:href="#ArialMT-50"/>
       <use xlink:href="#ArialMT-32" x="66.699219"/>
      </g>
     </g>
    </g>
    <g id="xtick_4">
     <g id="line2d_5">
      <g>
       <use xlink:href="#m50f9794e53" x="338" y="384.48" style="fill: #262626; stroke: #262626"/>
      </g>
     </g>
     <g id="text_4">
      <!-- P1 -->
      <g style="fill: #262626" transform="translate(332.61825 399.078875) scale(0.088 -0.088)">
       <defs>
        <path id="ArialMT-31" d="M 2384 0 
L 1822 0 
L 1822 3584 
Q 1619 3391 1289 3197 
Q 959 3003 697 2906 
L 697 3450 
Q 1169 3672 1522 3987 
Q 1875 4303 2022 4600 
L 2384 4600 
L 2384 0 
z
" transform="scale(0.015625)"/>
       </defs>
       <use xlink:href="#ArialMT-50"/>
       <use xlink:href="#ArialMT-31" x="66.699219"/>
      </g>
     </g>
    </g>
    <g id="xtick_5">
     <g id="line2d_6">
      <g>
       <use xlink:href="#m50f9794e53" x="400" y="384.48" style="fill: #262626; stroke: #262626"/>
      </g>
     </g>
     <g id="text_5">
      <!-- P1' -->
      <g style="fill: #262626" transform="translate(393.778125 399.078875) scale(0.088 -0.088)">
       <defs>
        <path id="ArialMT-27" d="M 425 2959 
L 281 3816 
L 281 4581 
L 922 4581 
L 922 3816 
L 772 2959 
L 425 2959 
z
" transform="scale(0.015625)"/>
       </defs>
       <use xlink:href="#ArialMT-50"/>
       <use xlink:href="#ArialMT-31" x="66.699219"/>
       <use xlink:href="#ArialMT-27" x="122.314453"/>
      </g>
     </g>
    </g>
    <g id="xtick_6">
     <g id="line2d_7">
      <g>
       <use xlink:href="#m50f9794e53" x="462" y="384.48" style="fill: #262626; stroke: #262626"/>
      </g>
     </g>
     <g id="text_6">
      <!-- P2' -->
      <g style="fill: #262626" transform="translate(455.778125 399.078875) scale(0.088 -0.088)">
       <use xlink:href="#ArialMT-50"/>
       <use xlink:href="#ArialMT-32" x="66.699219"/>
       <use xlink:href="#ArialMT-27" x="122.314453"/>
      </g>
     </g>
    </g>
    <g id="xtick_7">
     <g id="line2d_8">
      <g>
       <use xlink:href="#m50f9794e53" x="524" y="384.48" style="fill: #262626; stroke: #262626"/>
      </g>
     </g>
     <g id="text_7">
      <!-- P3' -->
      <g style="fill: #262626" transform="translate(517.778125 399.078875) scale(0.088 -0.088)">
       <use xlink:href="#ArialMT-50"/>
       <use xlink:href="#ArialMT-33" x="66.699219"/>
       <use xlink:href="#ArialMT-27" x="122.314453"/>
      </g>
     </g>
    </g>
    <g id="xtick_8">
     <g id="line2d_9">
      <g>
       <use xlink:href="#m50f9794e53" x="586" y="384.48" style="fill: #262626; stroke: #262626"/>
      </g>
     </g>
     <g id="text_8">
      <!-- P4' -->
      <g style="fill: #262626" transform="translate(579.778125 399.078875) scale(0.088 -0.088)">
       <use xlink:href="#ArialMT-50"/>
       <use xlink:href="#ArialMT-34" x="66.699219"/>
       <use xlink:href="#ArialMT-27" x="122.314453"/>
      </g>
     </g>
    </g>
   </g>
   <g id="matplotlib.axis_2">
    <g id="ytick_1">
     <g id="line2d_10">
      <defs>
       <path id="mbdf9c4269f" d="M 0 0 
L -4.8 0 
" style="stroke: #262626"/>
      </defs>
      <g>
       <use xlink:href="#mbdf9c4269f" x="90" y="384.48" style="fill: #262626; stroke: #262626"/>
      </g>
     </g>
     <g id="text_9">
      <!-- 0.00 -->
      <g style="fill: #262626" transform="translate(64.574375 387.629437) scale(0.088 -0.088)">
       <defs>
        <path id="ArialMT-30" d="M 266 2259 
Q 266 3072 433 3567 
Q 600 4063 929 4331 
Q 1259 4600 1759 4600 
Q 2128 4600 2406 4451 
Q 2684 4303 2865 4023 
Q 3047 3744 3150 3342 
Q 3253 2941 3253 2259 
Q 3253 1453 3087 958 
Q 2922 463 2592 192 
Q 2263 -78 1759 -78 
Q 1097 -78 719 397 
Q 266 969 266 2259 
z
M 844 2259 
Q 844 1131 1108 757 
Q 1372 384 1759 384 
Q 2147 384 2411 759 
Q 2675 1134 2675 2259 
Q 2675 3391 2411 3762 
Q 2147 4134 1753 4134 
Q 1366 4134 1134 3806 
Q 844 3388 844 2259 
z
" transform="scale(0.015625)"/>
        <path id="ArialMT-2e" d="M 581 0 
L 581 641 
L 1222 641 
L 1222 0 
L 581 0 
z
" transform="scale(0.015625)"/>
       </defs>
       <use xlink:href="#ArialMT-30"/>
       <use xlink:href="#ArialMT-2e" x="55.615234"/>
       <use xlink:href="#ArialMT-30" x="83.398438"/>
       <use xlink:href="#ArialMT-30" x="139.013672"/>
      </g>
     </g>
    </g>
    <g id="ytick_2">
     <g id="line2d_11">
      <g>
       <use xlink:href="#mbdf9c4269f" x="90" y="342.31502" style="fill: #262626; stroke: #262626"/>
      </g>
     </g>
     <g id="text_10">
      <!-- 0.25 -->
      <g style="fill: #262626" transform="translate(64.574375 345.464458) scale(0.088 -0.088)">
       <defs>
        <path id="ArialMT-35" d="M 266 1200 
L 856 1250 
Q 922 819 1161 601 
Q 1400 384 1738 384 
Q 2144 384 2425 690 
Q 2706 997 2706 1503 
Q 2706 1984 2436 2262 
Q 2166 2541 1728 2541 
Q 1456 2541 1237 2417 
Q 1019 2294 894 2097 
L 366 2166 
L 809 4519 
L 3088 4519 
L 3088 3981 
L 1259 3981 
L 1013 2750 
Q 1425 3038 1878 3038 
Q 2478 3038 2890 2622 
Q 3303 2206 3303 1553 
Q 3303 931 2941 478 
Q 2500 -78 1738 -78 
Q 1113 -78 717 272 
Q 322 622 266 1200 
z
" transform="scale(0.015625)"/>
       </defs>
       <use xlink:href="#ArialMT-30"/>
       <use xlink:href="#ArialMT-2e" x="55.615234"/>
       <use xlink:href="#ArialMT-32" x="83.398438"/>
       <use xlink:href="#ArialMT-35" x="139.013672"/>
      </g>
     </g>
    </g>
    <g id="ytick_3">
     <g id="line2d_12">
      <g>
       <use xlink:href="#mbdf9c4269f" x="90" y="300.15004" style="fill: #262626; stroke: #262626"/>
      </g>
     </g>
     <g id="text_11">
      <!-- 0.50 -->
      <g style="fill: #262626" transform="translate(64.574375 303.299478) scale(0.088 -0.088)">
       <use xlink:href="#ArialMT-30"/>
       <use xlink:href="#ArialMT-2e" x="55.615234"/>
       <use xlink:href="#ArialMT-35" x="83.398438"/>
       <use xlink:href="#ArialMT-30" x="139.013672"/>
      </g>
     </g>
    </g>
    <g id="ytick_4">
     <g id="line2d_13">
      <g>
       <use xlink:href="#mbdf9c4269f" x="90" y="257.98506" style="fill: #262626; stroke: #262626"/>
      </g>
     </g>
     <g id="text_12">
      <!-- 0.75 -->
      <g style="fill: #262626" transform="translate(64.574375 261.134498) scale(0.088 -0.088)">
       <defs>
        <path id="ArialMT-37" d="M 303 3981 
L 303 4522 
L 3269 4522 
L 3269 4084 
Q 2831 3619 2401 2847 
Q 1972 2075 1738 1259 
Q 1569 684 1522 0 
L 944 0 
Q 953 541 1156 1306 
Q 1359 2072 1739 2783 
Q 2119 3494 2547 3981 
L 303 3981 
z
" transform="scale(0.015625)"/>
       </defs>
       <use xlink:href="#ArialMT-30"/>
       <use xlink:href="#ArialMT-2e" x="55.615234"/>
       <use xlink:href="#ArialMT-37" x="83.398438"/>
       <use xlink:href="#ArialMT-35" x="139.013672"/>
      </g>
     </g>
    </g>
    <g id="ytick_5">
     <g id="line2d_14">
      <g>
       <use xlink:href="#mbdf9c4269f" x="90" y="215.82008" style="fill: #262626; stroke: #262626"/>
      </g>
     </g>
     <g id="text_13">
      <!-- 1.00 -->
      <g style="fill: #262626" transform="translate(64.574375 218.969518) scale(0.088 -0.088)">
       <use xlink:href="#ArialMT-31"/>
       <use xlink:href="#ArialMT-2e" x="55.615234"/>
       <use xlink:href="#ArialMT-30" x="83.398438"/>
       <use xlink:href="#ArialMT-30" x="139.013672"/>
      </g>
     </g>
    </g>
    <g id="ytick_6">
     <g id="line2d_15">
      <g>
       <use xlink:href="#mbdf9c4269f" x="90" y="173.655101" style="fill: #262626; stroke: #262626"/>
      </g>
     </g>
     <g id="text_14">
      <!-- 1.25 -->
      <g style="fill: #262626" transform="translate(64.574375 176.804538) scale(0.088 -0.088)">
       <use xlink:href="#ArialMT-31"/>
       <use xlink:href="#ArialMT-2e" x="55.615234"/>
       <use xlink:href="#ArialMT-32" x="83.398438"/>
       <use xlink:href="#ArialMT-35" x="139.013672"/>
      </g>
     </g>
    </g>
    <g id="ytick_7">
     <g id="line2d_16">
      <g>
       <use xlink:href="#mbdf9c4269f" x="90" y="131.490121" style="fill: #262626; stroke: #262626"/>
      </g>
     </g>
     <g id="text_15">
      <!-- 1.50 -->
      <g style="fill: #262626" transform="translate(64.574375 134.639558) scale(0.088 -0.088)">
       <use xlink:href="#ArialMT-31"/>
       <use xlink:href="#ArialMT-2e" x="55.615234"/>
       <use xlink:href="#ArialMT-35" x="83.398438"/>
       <use xlink:href="#ArialMT-30" x="139.013672"/>
      </g>
     </g>
    </g>
    <g id="ytick_8">
     <g id="line2d_17">
      <g>
       <use xlink:href="#mbdf9c4269f" x="90" y="89.325141" style="fill: #262626; stroke: #262626"/>
      </g>
     </g>
     <g id="text_16">
      <!-- 1.75 -->
      <g style="fill: #262626" transform="translate(64.574375 92.474578) scale(0.088 -0.088)">
       <use xlink:href="#ArialMT-31"/>
       <use xlink:href="#ArialMT-2e" x="55.615234"/>
       <use xlink:href="#ArialMT-37" x="83.398438"/>
       <use xlink:href="#ArialMT-35" x="139.013672"/>
      </g>
     </g>
    </g>
    <g id="text_17">
     <!-- information (bits) -->
     <g style="fill: #262626" transform="translate(58.553875 253.902) rotate(-90) scale(0.096 -0.096)">
      <defs>
       <path id="ArialMT-69" d="M 425 3934 
L 425 4581 
L 988 4581 
L 988 3934 
L 425 3934 
z
M 425 0 
L 425 3319 
L 988 3319 
L 988 0 
L 425 0 
z
" transform="scale(0.015625)"/>
       <path id="ArialMT-6e" d="M 422 0 
L 422 3319 
L 928 3319 
L 928 2847 
Q 1294 3394 1984 3394 
Q 2284 3394 2536 3286 
Q 2788 3178 2913 3003 
Q 3038 2828 3088 2588 
Q 3119 2431 3119 2041 
L 3119 0 
L 2556 0 
L 2556 2019 
Q 2556 2363 2490 2533 
Q 2425 2703 2258 2804 
Q 2091 2906 1866 2906 
Q 1506 2906 1245 2678 
Q 984 2450 984 1813 
L 984 0 
L 422 0 
z
" transform="scale(0.015625)"/>
       <path id="ArialMT-66" d="M 556 0 
L 556 2881 
L 59 2881 
L 59 3319 
L 556 3319 
L 556 3672 
Q 556 4006 616 4169 
Q 697 4388 901 4523 
Q 1106 4659 1475 4659 
Q 1713 4659 2000 4603 
L 1916 4113 
Q 1741 4144 1584 4144 
Q 1328 4144 1222 4034 
Q 1116 3925 1116 3625 
L 1116 3319 
L 1763 3319 
L 1763 2881 
L 1116 2881 
L 1116 0 
L 556 0 
z
" transform="scale(0.015625)"/>
       <path id="ArialMT-6f" d="M 213 1659 
Q 213 2581 725 3025 
Q 1153 3394 1769 3394 
Q 2453 3394 2887 2945 
Q 3322 2497 3322 1706 
Q 3322 1066 3130 698 
Q 2938 331 2570 128 
Q 2203 -75 1769 -75 
Q 1072 -75 642 372 
Q 213 819 213 1659 
z
M 791 1659 
Q 791 1022 1069 705 
Q 1347 388 1769 388 
Q 2188 388 2466 706 
Q 2744 1025 2744 1678 
Q 2744 2294 2464 2611 
Q 2184 2928 1769 2928 
Q 1347 2928 1069 2612 
Q 791 2297 791 1659 
z
" transform="scale(0.015625)"/>
       <path id="ArialMT-72" d="M 416 0 
L 416 3319 
L 922 3319 
L 922 2816 
Q 1116 3169 1280 3281 
Q 1444 3394 1641 3394 
Q 1925 3394 2219 3213 
L 2025 2691 
Q 1819 2813 1613 2813 
Q 1428 2813 1281 2702 
Q 1134 2591 1072 2394 
Q 978 2094 978 1738 
L 978 0 
L 416 0 
z
" transform="scale(0.015625)"/>
       <path id="ArialMT-6d" d="M 422 0 
L 422 3319 
L 925 3319 
L 925 2853 
Q 1081 3097 1340 3245 
Q 1600 3394 1931 3394 
Q 2300 3394 2536 3241 
Q 2772 3088 2869 2813 
Q 3263 3394 3894 3394 
Q 4388 3394 4653 3120 
Q 4919 2847 4919 2278 
L 4919 0 
L 4359 0 
L 4359 2091 
Q 4359 2428 4304 2576 
Q 4250 2725 4106 2815 
Q 3963 2906 3769 2906 
Q 3419 2906 3187 2673 
Q 2956 2441 2956 1928 
L 2956 0 
L 2394 0 
L 2394 2156 
Q 2394 2531 2256 2718 
Q 2119 2906 1806 2906 
Q 1569 2906 1367 2781 
Q 1166 2656 1075 2415 
Q 984 2175 984 1722 
L 984 0 
L 422 0 
z
" transform="scale(0.015625)"/>
       <path id="ArialMT-61" d="M 2588 409 
Q 2275 144 1986 34 
Q 1697 -75 1366 -75 
Q 819 -75 525 192 
Q 231 459 231 875 
Q 231 1119 342 1320 
Q 453 1522 633 1644 
Q 813 1766 1038 1828 
Q 1203 1872 1538 1913 
Q 2219 1994 2541 2106 
Q 2544 2222 2544 2253 
Q 2544 2597 2384 2738 
Q 2169 2928 1744 2928 
Q 1347 2928 1158 2789 
Q 969 2650 878 2297 
L 328 2372 
Q 403 2725 575 2942 
Q 747 3159 1072 3276 
Q 1397 3394 1825 3394 
Q 2250 3394 2515 3294 
Q 2781 3194 2906 3042 
Q 3031 2891 3081 2659 
Q 3109 2516 3109 2141 
L 3109 1391 
Q 3109 606 3145 398 
Q 3181 191 3288 0 
L 2700 0 
Q 2613 175 2588 409 
z
M 2541 1666 
Q 2234 1541 1622 1453 
Q 1275 1403 1131 1340 
Q 988 1278 909 1158 
Q 831 1038 831 891 
Q 831 666 1001 516 
Q 1172 366 1500 366 
Q 1825 366 2078 508 
Q 2331 650 2450 897 
Q 2541 1088 2541 1459 
L 2541 1666 
z
" transform="scale(0.015625)"/>
       <path id="ArialMT-74" d="M 1650 503 
L 1731 6 
Q 1494 -44 1306 -44 
Q 1000 -44 831 53 
Q 663 150 594 308 
Q 525 466 525 972 
L 525 2881 
L 113 2881 
L 113 3319 
L 525 3319 
L 525 4141 
L 1084 4478 
L 1084 3319 
L 1650 3319 
L 1650 2881 
L 1084 2881 
L 1084 941 
Q 1084 700 1114 631 
Q 1144 563 1211 522 
Q 1278 481 1403 481 
Q 1497 481 1650 503 
z
" transform="scale(0.015625)"/>
       <path id="ArialMT-20" transform="scale(0.015625)"/>
       <path id="ArialMT-28" d="M 1497 -1347 
Q 1031 -759 709 28 
Q 388 816 388 1659 
Q 388 2403 628 3084 
Q 909 3875 1497 4659 
L 1900 4659 
Q 1522 4009 1400 3731 
Q 1209 3300 1100 2831 
Q 966 2247 966 1656 
Q 966 153 1900 -1347 
L 1497 -1347 
z
" transform="scale(0.015625)"/>
       <path id="ArialMT-62" d="M 941 0 
L 419 0 
L 419 4581 
L 981 4581 
L 981 2947 
Q 1338 3394 1891 3394 
Q 2197 3394 2470 3270 
Q 2744 3147 2920 2923 
Q 3097 2700 3197 2384 
Q 3297 2069 3297 1709 
Q 3297 856 2875 390 
Q 2453 -75 1863 -75 
Q 1275 -75 941 416 
L 941 0 
z
M 934 1684 
Q 934 1088 1097 822 
Q 1363 388 1816 388 
Q 2184 388 2453 708 
Q 2722 1028 2722 1663 
Q 2722 2313 2464 2622 
Q 2206 2931 1841 2931 
Q 1472 2931 1203 2611 
Q 934 2291 934 1684 
z
" transform="scale(0.015625)"/>
       <path id="ArialMT-73" d="M 197 991 
L 753 1078 
Q 800 744 1014 566 
Q 1228 388 1613 388 
Q 2000 388 2187 545 
Q 2375 703 2375 916 
Q 2375 1106 2209 1216 
Q 2094 1291 1634 1406 
Q 1016 1563 777 1677 
Q 538 1791 414 1992 
Q 291 2194 291 2438 
Q 291 2659 392 2848 
Q 494 3038 669 3163 
Q 800 3259 1026 3326 
Q 1253 3394 1513 3394 
Q 1903 3394 2198 3281 
Q 2494 3169 2634 2976 
Q 2775 2784 2828 2463 
L 2278 2388 
Q 2241 2644 2061 2787 
Q 1881 2931 1553 2931 
Q 1166 2931 1000 2803 
Q 834 2675 834 2503 
Q 834 2394 903 2306 
Q 972 2216 1119 2156 
Q 1203 2125 1616 2013 
Q 2213 1853 2448 1751 
Q 2684 1650 2818 1456 
Q 2953 1263 2953 975 
Q 2953 694 2789 445 
Q 2625 197 2315 61 
Q 2006 -75 1616 -75 
Q 969 -75 630 194 
Q 291 463 197 991 
z
" transform="scale(0.015625)"/>
       <path id="ArialMT-29" d="M 791 -1347 
L 388 -1347 
Q 1322 153 1322 1656 
Q 1322 2244 1188 2822 
Q 1081 3291 891 3722 
Q 769 4003 388 4659 
L 791 4659 
Q 1378 3875 1659 3084 
Q 1900 2403 1900 1659 
Q 1900 816 1576 28 
Q 1253 -759 791 -1347 
z
" transform="scale(0.015625)"/>
      </defs>
      <use xlink:href="#ArialMT-69"/>
      <use xlink:href="#ArialMT-6e" x="22.216797"/>
      <use xlink:href="#ArialMT-66" x="77.832031"/>
      <use xlink:href="#ArialMT-6f" x="105.615234"/>
      <use xlink:href="#ArialMT-72" x="161.230469"/>
      <use xlink:href="#ArialMT-6d" x="194.53125"/>
      <use xlink:href="#ArialMT-61" x="277.832031"/>
      <use xlink:href="#ArialMT-74" x="333.447266"/>
      <use xlink:href="#ArialMT-69" x="361.230469"/>
      <use xlink:href="#ArialMT-6f" x="383.447266"/>
      <use xlink:href="#ArialMT-6e" x="439.0625"/>
      <use xlink:href="#ArialMT-20" x="494.677734"/>
      <use xlink:href="#ArialMT-28" x="522.460938"/>
      <use xlink:href="#ArialMT-62" x="555.761719"/>
      <use xlink:href="#ArialMT-69" x="611.376953"/>
      <use xlink:href="#ArialMT-74" x="633.59375"/>
      <use xlink:href="#ArialMT-73" x="661.376953"/>
      <use xlink:href="#ArialMT-29" x="711.376953"/>
     </g>
    </g>
   </g>
   <g id="line2d_18">
    <path d="M 369 384.48 
L 369 51.84 
" clip-path="url(#p762fe6e87a)" style="fill: none; stroke: #daa520; stroke-width: 2; stroke-linecap: round"/>
   </g>
   <g id="patch_72">
    <path d="M 90 384.48 
L 648 384.48 
" style="fill: none; stroke: #262626; stroke-linejoin: miter; stroke-linecap: square"/>
   </g>
   <g id="patch_73">
    <path d="M 90 51.84 
L 648 51.84 
" style="fill: none; stroke: #262626; stroke-linejoin: miter; stroke-linecap: square"/>
   </g>
   <g id="text_18">
    <!-- gluc_control information content, Kullback n=69 -->
    <g style="fill: #262626" transform="translate(268.01175 45.84) scale(0.096 -0.096)">
     <defs>
      <path id="ArialMT-67" d="M 319 -275 
L 866 -356 
Q 900 -609 1056 -725 
Q 1266 -881 1628 -881 
Q 2019 -881 2231 -725 
Q 2444 -569 2519 -288 
Q 2563 -116 2559 434 
Q 2191 0 1641 0 
Q 956 0 581 494 
Q 206 988 206 1678 
Q 206 2153 378 2554 
Q 550 2956 876 3175 
Q 1203 3394 1644 3394 
Q 2231 3394 2613 2919 
L 2613 3319 
L 3131 3319 
L 3131 450 
Q 3131 -325 2973 -648 
Q 2816 -972 2473 -1159 
Q 2131 -1347 1631 -1347 
Q 1038 -1347 672 -1080 
Q 306 -813 319 -275 
z
M 784 1719 
Q 784 1066 1043 766 
Q 1303 466 1694 466 
Q 2081 466 2343 764 
Q 2606 1063 2606 1700 
Q 2606 2309 2336 2618 
Q 2066 2928 1684 2928 
Q 1309 2928 1046 2623 
Q 784 2319 784 1719 
z
" transform="scale(0.015625)"/>
      <path id="ArialMT-6c" d="M 409 0 
L 409 4581 
L 972 4581 
L 972 0 
L 409 0 
z
" transform="scale(0.015625)"/>
      <path id="ArialMT-75" d="M 2597 0 
L 2597 488 
Q 2209 -75 1544 -75 
Q 1250 -75 995 37 
Q 741 150 617 320 
Q 494 491 444 738 
Q 409 903 409 1263 
L 409 3319 
L 972 3319 
L 972 1478 
Q 972 1038 1006 884 
Q 1059 663 1231 536 
Q 1403 409 1656 409 
Q 1909 409 2131 539 
Q 2353 669 2445 892 
Q 2538 1116 2538 1541 
L 2538 3319 
L 3100 3319 
L 3100 0 
L 2597 0 
z
" transform="scale(0.015625)"/>
      <path id="ArialMT-63" d="M 2588 1216 
L 3141 1144 
Q 3050 572 2676 248 
Q 2303 -75 1759 -75 
Q 1078 -75 664 370 
Q 250 816 250 1647 
Q 250 2184 428 2587 
Q 606 2991 970 3192 
Q 1334 3394 1763 3394 
Q 2303 3394 2647 3120 
Q 2991 2847 3088 2344 
L 2541 2259 
Q 2463 2594 2264 2762 
Q 2066 2931 1784 2931 
Q 1359 2931 1093 2626 
Q 828 2322 828 1663 
Q 828 994 1084 691 
Q 1341 388 1753 388 
Q 2084 388 2306 591 
Q 2528 794 2588 1216 
z
" transform="scale(0.015625)"/>
      <path id="ArialMT-5f" d="M -97 -1272 
L -97 -866 
L 3631 -866 
L 3631 -1272 
L -97 -1272 
z
" transform="scale(0.015625)"/>
      <path id="ArialMT-65" d="M 2694 1069 
L 3275 997 
Q 3138 488 2766 206 
Q 2394 -75 1816 -75 
Q 1088 -75 661 373 
Q 234 822 234 1631 
Q 234 2469 665 2931 
Q 1097 3394 1784 3394 
Q 2450 3394 2872 2941 
Q 3294 2488 3294 1666 
Q 3294 1616 3291 1516 
L 816 1516 
Q 847 969 1125 678 
Q 1403 388 1819 388 
Q 2128 388 2347 550 
Q 2566 713 2694 1069 
z
M 847 1978 
L 2700 1978 
Q 2663 2397 2488 2606 
Q 2219 2931 1791 2931 
Q 1403 2931 1139 2672 
Q 875 2413 847 1978 
z
" transform="scale(0.015625)"/>
      <path id="ArialMT-2c" d="M 569 0 
L 569 641 
L 1209 641 
L 1209 0 
Q 1209 -353 1084 -570 
Q 959 -788 688 -906 
L 531 -666 
Q 709 -588 793 -436 
Q 878 -284 888 0 
L 569 0 
z
" transform="scale(0.015625)"/>
      <path id="ArialMT-4b" d="M 469 0 
L 469 4581 
L 1075 4581 
L 1075 2309 
L 3350 4581 
L 4172 4581 
L 2250 2725 
L 4256 0 
L 3456 0 
L 1825 2319 
L 1075 1588 
L 1075 0 
L 469 0 
z
" transform="scale(0.015625)"/>
      <path id="ArialMT-6b" d="M 425 0 
L 425 4581 
L 988 4581 
L 988 1969 
L 2319 3319 
L 3047 3319 
L 1778 2088 
L 3175 0 
L 2481 0 
L 1384 1697 
L 988 1316 
L 988 0 
L 425 0 
z
" transform="scale(0.015625)"/>
      <path id="ArialMT-3d" d="M 3381 2694 
L 356 2694 
L 356 3219 
L 3381 3219 
L 3381 2694 
z
M 3381 1303 
L 356 1303 
L 356 1828 
L 3381 1828 
L 3381 1303 
z
" transform="scale(0.015625)"/>
      <path id="ArialMT-36" d="M 3184 3459 
L 2625 3416 
Q 2550 3747 2413 3897 
Q 2184 4138 1850 4138 
Q 1581 4138 1378 3988 
Q 1113 3794 959 3422 
Q 806 3050 800 2363 
Q 1003 2672 1297 2822 
Q 1591 2972 1913 2972 
Q 2475 2972 2870 2558 
Q 3266 2144 3266 1488 
Q 3266 1056 3080 686 
Q 2894 316 2569 119 
Q 2244 -78 1831 -78 
Q 1128 -78 684 439 
Q 241 956 241 2144 
Q 241 3472 731 4075 
Q 1159 4600 1884 4600 
Q 2425 4600 2770 4297 
Q 3116 3994 3184 3459 
z
M 888 1484 
Q 888 1194 1011 928 
Q 1134 663 1356 523 
Q 1578 384 1822 384 
Q 2178 384 2434 671 
Q 2691 959 2691 1453 
Q 2691 1928 2437 2201 
Q 2184 2475 1800 2475 
Q 1419 2475 1153 2201 
Q 888 1928 888 1484 
z
" transform="scale(0.015625)"/>
      <path id="ArialMT-39" d="M 350 1059 
L 891 1109 
Q 959 728 1153 556 
Q 1347 384 1650 384 
Q 1909 384 2104 503 
Q 2300 622 2425 820 
Q 2550 1019 2634 1356 
Q 2719 1694 2719 2044 
Q 2719 2081 2716 2156 
Q 2547 1888 2255 1720 
Q 1963 1553 1622 1553 
Q 1053 1553 659 1965 
Q 266 2378 266 3053 
Q 266 3750 677 4175 
Q 1088 4600 1706 4600 
Q 2153 4600 2523 4359 
Q 2894 4119 3086 3673 
Q 3278 3228 3278 2384 
Q 3278 1506 3087 986 
Q 2897 466 2520 194 
Q 2144 -78 1638 -78 
Q 1100 -78 759 220 
Q 419 519 350 1059 
z
M 2653 3081 
Q 2653 3566 2395 3850 
Q 2138 4134 1775 4134 
Q 1400 4134 1122 3828 
Q 844 3522 844 3034 
Q 844 2597 1108 2323 
Q 1372 2050 1759 2050 
Q 2150 2050 2401 2323 
Q 2653 2597 2653 3081 
z
" transform="scale(0.015625)"/>
     </defs>
     <use xlink:href="#ArialMT-67"/>
     <use xlink:href="#ArialMT-6c" x="55.615234"/>
     <use xlink:href="#ArialMT-75" x="77.832031"/>
     <use xlink:href="#ArialMT-63" x="133.447266"/>
     <use xlink:href="#ArialMT-5f" x="183.447266"/>
     <use xlink:href="#ArialMT-63" x="239.0625"/>
     <use xlink:href="#ArialMT-6f" x="289.0625"/>
     <use xlink:href="#ArialMT-6e" x="344.677734"/>
     <use xlink:href="#ArialMT-74" x="400.292969"/>
     <use xlink:href="#ArialMT-72" x="428.076172"/>
     <use xlink:href="#ArialMT-6f" x="461.376953"/>
     <use xlink:href="#ArialMT-6c" x="516.992188"/>
     <use xlink:href="#ArialMT-20" x="539.208984"/>
     <use xlink:href="#ArialMT-69" x="566.992188"/>
     <use xlink:href="#ArialMT-6e" x="589.208984"/>
     <use xlink:href="#ArialMT-66" x="644.824219"/>
     <use xlink:href="#ArialMT-6f" x="672.607422"/>
     <use xlink:href="#ArialMT-72" x="728.222656"/>
     <use xlink:href="#ArialMT-6d" x="761.523438"/>
     <use xlink:href="#ArialMT-61" x="844.824219"/>
     <use xlink:href="#ArialMT-74" x="900.439453"/>
     <use xlink:href="#ArialMT-69" x="928.222656"/>
     <use xlink:href="#ArialMT-6f" x="950.439453"/>
     <use xlink:href="#ArialMT-6e" x="1006.054688"/>
     <use xlink:href="#ArialMT-20" x="1061.669922"/>
     <use xlink:href="#ArialMT-63" x="1089.453125"/>
     <use xlink:href="#ArialMT-6f" x="1139.453125"/>
     <use xlink:href="#ArialMT-6e" x="1195.068359"/>
     <use xlink:href="#ArialMT-74" x="1250.683594"/>
     <use xlink:href="#ArialMT-65" x="1278.466797"/>
     <use xlink:href="#ArialMT-6e" x="1334.082031"/>
     <use xlink:href="#ArialMT-74" x="1389.697266"/>
     <use xlink:href="#ArialMT-2c" x="1417.480469"/>
     <use xlink:href="#ArialMT-20" x="1445.263672"/>
     <use xlink:href="#ArialMT-4b" x="1473.046875"/>
     <use xlink:href="#ArialMT-75" x="1539.746094"/>
     <use xlink:href="#ArialMT-6c" x="1595.361328"/>
     <use xlink:href="#ArialMT-6c" x="1617.578125"/>
     <use xlink:href="#ArialMT-62" x="1639.794922"/>
     <use xlink:href="#ArialMT-61" x="1695.410156"/>
     <use xlink:href="#ArialMT-63" x="1751.025391"/>
     <use xlink:href="#ArialMT-6b" x="1801.025391"/>
     <use xlink:href="#ArialMT-20" x="1851.025391"/>
     <use xlink:href="#ArialMT-6e" x="1878.808594"/>
     <use xlink:href="#ArialMT-3d" x="1934.423828"/>
     <use xlink:href="#ArialMT-36" x="1992.822266"/>
     <use xlink:href="#ArialMT-39" x="2048.4375"/>
    </g>
   </g>
  </g>
 </g>
 <defs>
  <clipPath id="p762fe6e87a">
   <rect x="90" y="51.84" width="558" height="332.64"/>
  </clipPath>
 </defs>
</svg>
