<?xml version="1.0" encoding="utf-8" standalone="no"?>
<!DOCTYPE svg PUBLIC "-//W3C//DTD SVG 1.1//EN"
  "http://www.w3.org/Graphics/SVG/1.1/DTD/svg11.dtd">
<svg xmlns:xlink="http://www.w3.org/1999/xlink" width="460.8pt" height="345.6pt" viewBox="0 0 460.8 345.6" xmlns="http://www.w3.org/2000/svg" version="1.1">
 <metadata>
  <rdf:RDF xmlns:dc="http://purl.org/dc/elements/1.1/" xmlns:cc="http://creativecommons.org/ns#" xmlns:rdf="http://www.w3.org/1999/02/22-rdf-syntax-ns#">
   <cc:Work>
    <dc:type rdf:resource="http://purl.org/dc/dcmitype/StillImage"/>
    <dc:date>2023-05-16T13:47:57.796527</dc:date>
    <dc:format>image/svg+xml</dc:format>
    <dc:creator>
     <cc:Agent>
      <dc:title>Matplotlib v3.7.1, https://matplotlib.org/</dc:title>
     </cc:Agent>
    </dc:creator>
   </cc:Work>
  </rdf:RDF>
 </metadata>
 <defs>
  <style type="text/css">*{stroke-linejoin: round; stroke-linecap: butt}</style>
 </defs>
 <g id="figure_1">
  <g id="patch_1">
   <path d="M 0 345.6 
L 460.8 345.6 
L 460.8 0 
L 0 0 
z
" style="fill: #ffffff"/>
  </g>
  <g id="axes_1">
   <g id="patch_2">
    <path d="M 57.6 307.584 
L 414.72 307.584 
L 414.72 41.472 
L 57.6 41.472 
z
" style="fill: #ffffff"/>
   </g>
   <g id="matplotlib.axis_1">
    <g id="xtick_1">
     <g id="line2d_1">
      <defs>
       <path id="ma8c99bdc94" d="M 0 0 
L 0 3.5 
" style="stroke: #000000; stroke-width: 0.8"/>
      </defs>
      <g>
       <use xlink:href="#ma8c99bdc94" x="65.618434" y="307.584" style="stroke: #000000; stroke-width: 0.8"/>
      </g>
     </g>
     <g id="text_1">
      <!-- −0.5 -->
      <g transform="translate(55.748121 321.741812) scale(0.1 -0.1)">
       <defs>
        <path id="ArialMT-2212" d="M 3381 1997 
L 356 1997 
L 356 2522 
L 3381 2522 
L 3381 1997 
z
" transform="scale(0.015625)"/>
        <path id="ArialMT-30" d="M 266 2259 
Q 266 3072 433 3567 
Q 600 4063 929 4331 
Q 1259 4600 1759 4600 
Q 2128 4600 2406 4451 
Q 2684 4303 2865 4023 
Q 3047 3744 3150 3342 
Q 3253 2941 3253 2259 
Q 3253 1453 3087 958 
Q 2922 463 2592 192 
Q 2263 -78 1759 -78 
Q 1097 -78 719 397 
Q 266 969 266 2259 
z
M 844 2259 
Q 844 1131 1108 757 
Q 1372 384 1759 384 
Q 2147 384 2411 759 
Q 2675 1134 2675 2259 
Q 2675 3391 2411 3762 
Q 2147 4134 1753 4134 
Q 1366 4134 1134 3806 
Q 844 3388 844 2259 
z
" transform="scale(0.015625)"/>
        <path id="ArialMT-2e" d="M 581 0 
L 581 641 
L 1222 641 
L 1222 0 
L 581 0 
z
" transform="scale(0.015625)"/>
        <path id="ArialMT-35" d="M 266 1200 
L 856 1250 
Q 922 819 1161 601 
Q 1400 384 1738 384 
Q 2144 384 2425 690 
Q 2706 997 2706 1503 
Q 2706 1984 2436 2262 
Q 2166 2541 1728 2541 
Q 1456 2541 1237 2417 
Q 1019 2294 894 2097 
L 366 2166 
L 809 4519 
L 3088 4519 
L 3088 3981 
L 1259 3981 
L 1013 2750 
Q 1425 3038 1878 3038 
Q 2478 3038 2890 2622 
Q 3303 2206 3303 1553 
Q 3303 931 2941 478 
Q 2500 -78 1738 -78 
Q 1113 -78 717 272 
Q 322 622 266 1200 
z
" transform="scale(0.015625)"/>
       </defs>
       <use xlink:href="#ArialMT-2212"/>
       <use xlink:href="#ArialMT-30" x="58.398438"/>
       <use xlink:href="#ArialMT-2e" x="114.013672"/>
       <use xlink:href="#ArialMT-35" x="141.796875"/>
      </g>
     </g>
    </g>
    <g id="xtick_2">
     <g id="line2d_2">
      <g>
       <use xlink:href="#ma8c99bdc94" x="112.038933" y="307.584" style="stroke: #000000; stroke-width: 0.8"/>
      </g>
     </g>
     <g id="text_2">
      <!-- 0.0 -->
      <g transform="translate(105.088933 321.741812) scale(0.1 -0.1)">
       <use xlink:href="#ArialMT-30"/>
       <use xlink:href="#ArialMT-2e" x="55.615234"/>
       <use xlink:href="#ArialMT-30" x="83.398438"/>
      </g>
     </g>
    </g>
    <g id="xtick_3">
     <g id="line2d_3">
      <g>
       <use xlink:href="#ma8c99bdc94" x="158.459432" y="307.584" style="stroke: #000000; stroke-width: 0.8"/>
      </g>
     </g>
     <g id="text_3">
      <!-- 0.5 -->
      <g transform="translate(151.509432 321.741812) scale(0.1 -0.1)">
       <use xlink:href="#ArialMT-30"/>
       <use xlink:href="#ArialMT-2e" x="55.615234"/>
       <use xlink:href="#ArialMT-35" x="83.398438"/>
      </g>
     </g>
    </g>
    <g id="xtick_4">
     <g id="line2d_4">
      <g>
       <use xlink:href="#ma8c99bdc94" x="204.879931" y="307.584" style="stroke: #000000; stroke-width: 0.8"/>
      </g>
     </g>
     <g id="text_4">
      <!-- 1.0 -->
      <g transform="translate(197.929931 321.741812) scale(0.1 -0.1)">
       <defs>
        <path id="ArialMT-31" d="M 2384 0 
L 1822 0 
L 1822 3584 
Q 1619 3391 1289 3197 
Q 959 3003 697 2906 
L 697 3450 
Q 1169 3672 1522 3987 
Q 1875 4303 2022 4600 
L 2384 4600 
L 2384 0 
z
" transform="scale(0.015625)"/>
       </defs>
       <use xlink:href="#ArialMT-31"/>
       <use xlink:href="#ArialMT-2e" x="55.615234"/>
       <use xlink:href="#ArialMT-30" x="83.398438"/>
      </g>
     </g>
    </g>
    <g id="xtick_5">
     <g id="line2d_5">
      <g>
       <use xlink:href="#ma8c99bdc94" x="251.30043" y="307.584" style="stroke: #000000; stroke-width: 0.8"/>
      </g>
     </g>
     <g id="text_5">
      <!-- 1.5 -->
      <g transform="translate(244.35043 321.741812) scale(0.1 -0.1)">
       <use xlink:href="#ArialMT-31"/>
       <use xlink:href="#ArialMT-2e" x="55.615234"/>
       <use xlink:href="#ArialMT-35" x="83.398438"/>
      </g>
     </g>
    </g>
    <g id="xtick_6">
     <g id="line2d_6">
      <g>
       <use xlink:href="#ma8c99bdc94" x="297.720929" y="307.584" style="stroke: #000000; stroke-width: 0.8"/>
      </g>
     </g>
     <g id="text_6">
      <!-- 2.0 -->
      <g transform="translate(290.770929 321.741812) scale(0.1 -0.1)">
       <defs>
        <path id="ArialMT-32" d="M 3222 541 
L 3222 0 
L 194 0 
Q 188 203 259 391 
Q 375 700 629 1000 
Q 884 1300 1366 1694 
Q 2113 2306 2375 2664 
Q 2638 3022 2638 3341 
Q 2638 3675 2398 3904 
Q 2159 4134 1775 4134 
Q 1369 4134 1125 3890 
Q 881 3647 878 3216 
L 300 3275 
Q 359 3922 746 4261 
Q 1134 4600 1788 4600 
Q 2447 4600 2831 4234 
Q 3216 3869 3216 3328 
Q 3216 3053 3103 2787 
Q 2991 2522 2730 2228 
Q 2469 1934 1863 1422 
Q 1356 997 1212 845 
Q 1069 694 975 541 
L 3222 541 
z
" transform="scale(0.015625)"/>
       </defs>
       <use xlink:href="#ArialMT-32"/>
       <use xlink:href="#ArialMT-2e" x="55.615234"/>
       <use xlink:href="#ArialMT-30" x="83.398438"/>
      </g>
     </g>
    </g>
    <g id="xtick_7">
     <g id="line2d_7">
      <g>
       <use xlink:href="#ma8c99bdc94" x="344.141428" y="307.584" style="stroke: #000000; stroke-width: 0.8"/>
      </g>
     </g>
     <g id="text_7">
      <!-- 2.5 -->
      <g transform="translate(337.191428 321.741812) scale(0.1 -0.1)">
       <use xlink:href="#ArialMT-32"/>
       <use xlink:href="#ArialMT-2e" x="55.615234"/>
       <use xlink:href="#ArialMT-35" x="83.398438"/>
      </g>
     </g>
    </g>
    <g id="xtick_8">
     <g id="line2d_8">
      <g>
       <use xlink:href="#ma8c99bdc94" x="390.561926" y="307.584" style="stroke: #000000; stroke-width: 0.8"/>
      </g>
     </g>
     <g id="text_8">
      <!-- 3.0 -->
      <g transform="translate(383.611926 321.741812) scale(0.1 -0.1)">
       <defs>
        <path id="ArialMT-33" d="M 269 1209 
L 831 1284 
Q 928 806 1161 595 
Q 1394 384 1728 384 
Q 2125 384 2398 659 
Q 2672 934 2672 1341 
Q 2672 1728 2419 1979 
Q 2166 2231 1775 2231 
Q 1616 2231 1378 2169 
L 1441 2663 
Q 1497 2656 1531 2656 
Q 1891 2656 2178 2843 
Q 2466 3031 2466 3422 
Q 2466 3731 2256 3934 
Q 2047 4138 1716 4138 
Q 1388 4138 1169 3931 
Q 950 3725 888 3313 
L 325 3413 
Q 428 3978 793 4289 
Q 1159 4600 1703 4600 
Q 2078 4600 2393 4439 
Q 2709 4278 2876 4000 
Q 3044 3722 3044 3409 
Q 3044 3113 2884 2869 
Q 2725 2625 2413 2481 
Q 2819 2388 3044 2092 
Q 3269 1797 3269 1353 
Q 3269 753 2831 336 
Q 2394 -81 1725 -81 
Q 1122 -81 723 278 
Q 325 638 269 1209 
z
" transform="scale(0.015625)"/>
       </defs>
       <use xlink:href="#ArialMT-33"/>
       <use xlink:href="#ArialMT-2e" x="55.615234"/>
       <use xlink:href="#ArialMT-30" x="83.398438"/>
      </g>
     </g>
    </g>
   </g>
   <g id="matplotlib.axis_2">
    <g id="ytick_1">
     <g id="line2d_9">
      <defs>
       <path id="mafef295d5f" d="M 0 0 
L -3.5 0 
" style="stroke: #000000; stroke-width: 0.8"/>
      </defs>
      <g>
       <use xlink:href="#mafef295d5f" x="57.6" y="307.584" style="stroke: #000000; stroke-width: 0.8"/>
      </g>
     </g>
     <g id="text_9">
      <!-- 0.0 -->
      <g transform="translate(36.7 311.162906) scale(0.1 -0.1)">
       <use xlink:href="#ArialMT-30"/>
       <use xlink:href="#ArialMT-2e" x="55.615234"/>
       <use xlink:href="#ArialMT-30" x="83.398438"/>
      </g>
     </g>
    </g>
    <g id="ytick_2">
     <g id="line2d_10">
      <g>
       <use xlink:href="#mafef295d5f" x="57.6" y="267.180405" style="stroke: #000000; stroke-width: 0.8"/>
      </g>
     </g>
     <g id="text_10">
      <!-- 0.2 -->
      <g transform="translate(36.7 270.759311) scale(0.1 -0.1)">
       <use xlink:href="#ArialMT-30"/>
       <use xlink:href="#ArialMT-2e" x="55.615234"/>
       <use xlink:href="#ArialMT-32" x="83.398438"/>
      </g>
     </g>
    </g>
    <g id="ytick_3">
     <g id="line2d_11">
      <g>
       <use xlink:href="#mafef295d5f" x="57.6" y="226.77681" style="stroke: #000000; stroke-width: 0.8"/>
      </g>
     </g>
     <g id="text_11">
      <!-- 0.4 -->
      <g transform="translate(36.7 230.355716) scale(0.1 -0.1)">
       <defs>
        <path id="ArialMT-34" d="M 2069 0 
L 2069 1097 
L 81 1097 
L 81 1613 
L 2172 4581 
L 2631 4581 
L 2631 1613 
L 3250 1613 
L 3250 1097 
L 2631 1097 
L 2631 0 
L 2069 0 
z
M 2069 1613 
L 2069 3678 
L 634 1613 
L 2069 1613 
z
" transform="scale(0.015625)"/>
       </defs>
       <use xlink:href="#ArialMT-30"/>
       <use xlink:href="#ArialMT-2e" x="55.615234"/>
       <use xlink:href="#ArialMT-34" x="83.398438"/>
      </g>
     </g>
    </g>
    <g id="ytick_4">
     <g id="line2d_12">
      <g>
       <use xlink:href="#mafef295d5f" x="57.6" y="186.373214" style="stroke: #000000; stroke-width: 0.8"/>
      </g>
     </g>
     <g id="text_12">
      <!-- 0.6 -->
      <g transform="translate(36.7 189.952121) scale(0.1 -0.1)">
       <defs>
        <path id="ArialMT-36" d="M 3184 3459 
L 2625 3416 
Q 2550 3747 2413 3897 
Q 2184 4138 1850 4138 
Q 1581 4138 1378 3988 
Q 1113 3794 959 3422 
Q 806 3050 800 2363 
Q 1003 2672 1297 2822 
Q 1591 2972 1913 2972 
Q 2475 2972 2870 2558 
Q 3266 2144 3266 1488 
Q 3266 1056 3080 686 
Q 2894 316 2569 119 
Q 2244 -78 1831 -78 
Q 1128 -78 684 439 
Q 241 956 241 2144 
Q 241 3472 731 4075 
Q 1159 4600 1884 4600 
Q 2425 4600 2770 4297 
Q 3116 3994 3184 3459 
z
M 888 1484 
Q 888 1194 1011 928 
Q 1134 663 1356 523 
Q 1578 384 1822 384 
Q 2178 384 2434 671 
Q 2691 959 2691 1453 
Q 2691 1928 2437 2201 
Q 2184 2475 1800 2475 
Q 1419 2475 1153 2201 
Q 888 1928 888 1484 
z
" transform="scale(0.015625)"/>
       </defs>
       <use xlink:href="#ArialMT-30"/>
       <use xlink:href="#ArialMT-2e" x="55.615234"/>
       <use xlink:href="#ArialMT-36" x="83.398438"/>
      </g>
     </g>
    </g>
    <g id="ytick_5">
     <g id="line2d_13">
      <g>
       <use xlink:href="#mafef295d5f" x="57.6" y="145.969619" style="stroke: #000000; stroke-width: 0.8"/>
      </g>
     </g>
     <g id="text_13">
      <!-- 0.8 -->
      <g transform="translate(36.7 149.548525) scale(0.1 -0.1)">
       <defs>
        <path id="ArialMT-38" d="M 1131 2484 
Q 781 2613 612 2850 
Q 444 3088 444 3419 
Q 444 3919 803 4259 
Q 1163 4600 1759 4600 
Q 2359 4600 2725 4251 
Q 3091 3903 3091 3403 
Q 3091 3084 2923 2848 
Q 2756 2613 2416 2484 
Q 2838 2347 3058 2040 
Q 3278 1734 3278 1309 
Q 3278 722 2862 322 
Q 2447 -78 1769 -78 
Q 1091 -78 675 323 
Q 259 725 259 1325 
Q 259 1772 486 2073 
Q 713 2375 1131 2484 
z
M 1019 3438 
Q 1019 3113 1228 2906 
Q 1438 2700 1772 2700 
Q 2097 2700 2305 2904 
Q 2513 3109 2513 3406 
Q 2513 3716 2298 3927 
Q 2084 4138 1766 4138 
Q 1444 4138 1231 3931 
Q 1019 3725 1019 3438 
z
M 838 1322 
Q 838 1081 952 856 
Q 1066 631 1291 507 
Q 1516 384 1775 384 
Q 2178 384 2440 643 
Q 2703 903 2703 1303 
Q 2703 1709 2433 1975 
Q 2163 2241 1756 2241 
Q 1359 2241 1098 1978 
Q 838 1716 838 1322 
z
" transform="scale(0.015625)"/>
       </defs>
       <use xlink:href="#ArialMT-30"/>
       <use xlink:href="#ArialMT-2e" x="55.615234"/>
       <use xlink:href="#ArialMT-38" x="83.398438"/>
      </g>
     </g>
    </g>
    <g id="ytick_6">
     <g id="line2d_14">
      <g>
       <use xlink:href="#mafef295d5f" x="57.6" y="105.566024" style="stroke: #000000; stroke-width: 0.8"/>
      </g>
     </g>
     <g id="text_14">
      <!-- 1.0 -->
      <g transform="translate(36.7 109.14493) scale(0.1 -0.1)">
       <use xlink:href="#ArialMT-31"/>
       <use xlink:href="#ArialMT-2e" x="55.615234"/>
       <use xlink:href="#ArialMT-30" x="83.398438"/>
      </g>
     </g>
    </g>
    <g id="ytick_7">
     <g id="line2d_15">
      <g>
       <use xlink:href="#mafef295d5f" x="57.6" y="65.162429" style="stroke: #000000; stroke-width: 0.8"/>
      </g>
     </g>
     <g id="text_15">
      <!-- 1.2 -->
      <g transform="translate(36.7 68.741335) scale(0.1 -0.1)">
       <use xlink:href="#ArialMT-31"/>
       <use xlink:href="#ArialMT-2e" x="55.615234"/>
       <use xlink:href="#ArialMT-32" x="83.398438"/>
      </g>
     </g>
    </g>
    <g id="text_16">
     <!-- Density -->
     <g transform="translate(30.595312 191.199875) rotate(-90) scale(0.1 -0.1)">
      <defs>
       <path id="ArialMT-44" d="M 494 0 
L 494 4581 
L 2072 4581 
Q 2606 4581 2888 4516 
Q 3281 4425 3559 4188 
Q 3922 3881 4101 3404 
Q 4281 2928 4281 2316 
Q 4281 1794 4159 1391 
Q 4038 988 3847 723 
Q 3656 459 3429 307 
Q 3203 156 2883 78 
Q 2563 0 2147 0 
L 494 0 
z
M 1100 541 
L 2078 541 
Q 2531 541 2789 625 
Q 3047 709 3200 863 
Q 3416 1078 3536 1442 
Q 3656 1806 3656 2325 
Q 3656 3044 3420 3430 
Q 3184 3816 2847 3947 
Q 2603 4041 2063 4041 
L 1100 4041 
L 1100 541 
z
" transform="scale(0.015625)"/>
       <path id="ArialMT-65" d="M 2694 1069 
L 3275 997 
Q 3138 488 2766 206 
Q 2394 -75 1816 -75 
Q 1088 -75 661 373 
Q 234 822 234 1631 
Q 234 2469 665 2931 
Q 1097 3394 1784 3394 
Q 2450 3394 2872 2941 
Q 3294 2488 3294 1666 
Q 3294 1616 3291 1516 
L 816 1516 
Q 847 969 1125 678 
Q 1403 388 1819 388 
Q 2128 388 2347 550 
Q 2566 713 2694 1069 
z
M 847 1978 
L 2700 1978 
Q 2663 2397 2488 2606 
Q 2219 2931 1791 2931 
Q 1403 2931 1139 2672 
Q 875 2413 847 1978 
z
" transform="scale(0.015625)"/>
       <path id="ArialMT-6e" d="M 422 0 
L 422 3319 
L 928 3319 
L 928 2847 
Q 1294 3394 1984 3394 
Q 2284 3394 2536 3286 
Q 2788 3178 2913 3003 
Q 3038 2828 3088 2588 
Q 3119 2431 3119 2041 
L 3119 0 
L 2556 0 
L 2556 2019 
Q 2556 2363 2490 2533 
Q 2425 2703 2258 2804 
Q 2091 2906 1866 2906 
Q 1506 2906 1245 2678 
Q 984 2450 984 1813 
L 984 0 
L 422 0 
z
" transform="scale(0.015625)"/>
       <path id="ArialMT-73" d="M 197 991 
L 753 1078 
Q 800 744 1014 566 
Q 1228 388 1613 388 
Q 2000 388 2187 545 
Q 2375 703 2375 916 
Q 2375 1106 2209 1216 
Q 2094 1291 1634 1406 
Q 1016 1563 777 1677 
Q 538 1791 414 1992 
Q 291 2194 291 2438 
Q 291 2659 392 2848 
Q 494 3038 669 3163 
Q 800 3259 1026 3326 
Q 1253 3394 1513 3394 
Q 1903 3394 2198 3281 
Q 2494 3169 2634 2976 
Q 2775 2784 2828 2463 
L 2278 2388 
Q 2241 2644 2061 2787 
Q 1881 2931 1553 2931 
Q 1166 2931 1000 2803 
Q 834 2675 834 2503 
Q 834 2394 903 2306 
Q 972 2216 1119 2156 
Q 1203 2125 1616 2013 
Q 2213 1853 2448 1751 
Q 2684 1650 2818 1456 
Q 2953 1263 2953 975 
Q 2953 694 2789 445 
Q 2625 197 2315 61 
Q 2006 -75 1616 -75 
Q 969 -75 630 194 
Q 291 463 197 991 
z
" transform="scale(0.015625)"/>
       <path id="ArialMT-69" d="M 425 3934 
L 425 4581 
L 988 4581 
L 988 3934 
L 425 3934 
z
M 425 0 
L 425 3319 
L 988 3319 
L 988 0 
L 425 0 
z
" transform="scale(0.015625)"/>
       <path id="ArialMT-74" d="M 1650 503 
L 1731 6 
Q 1494 -44 1306 -44 
Q 1000 -44 831 53 
Q 663 150 594 308 
Q 525 466 525 972 
L 525 2881 
L 113 2881 
L 113 3319 
L 525 3319 
L 525 4141 
L 1084 4478 
L 1084 3319 
L 1650 3319 
L 1650 2881 
L 1084 2881 
L 1084 941 
Q 1084 700 1114 631 
Q 1144 563 1211 522 
Q 1278 481 1403 481 
Q 1497 481 1650 503 
z
" transform="scale(0.015625)"/>
       <path id="ArialMT-79" d="M 397 -1278 
L 334 -750 
Q 519 -800 656 -800 
Q 844 -800 956 -737 
Q 1069 -675 1141 -563 
Q 1194 -478 1313 -144 
Q 1328 -97 1363 -6 
L 103 3319 
L 709 3319 
L 1400 1397 
Q 1534 1031 1641 628 
Q 1738 1016 1872 1384 
L 2581 3319 
L 3144 3319 
L 1881 -56 
Q 1678 -603 1566 -809 
Q 1416 -1088 1222 -1217 
Q 1028 -1347 759 -1347 
Q 597 -1347 397 -1278 
z
" transform="scale(0.015625)"/>
      </defs>
      <use xlink:href="#ArialMT-44"/>
      <use xlink:href="#ArialMT-65" x="72.216797"/>
      <use xlink:href="#ArialMT-6e" x="127.832031"/>
      <use xlink:href="#ArialMT-73" x="183.447266"/>
      <use xlink:href="#ArialMT-69" x="233.447266"/>
      <use xlink:href="#ArialMT-74" x="255.664062"/>
      <use xlink:href="#ArialMT-79" x="283.447266"/>
     </g>
    </g>
   </g>
   <g id="line2d_16">
    <path d="M 73.832727 307.518997 
L 80.020333 307.327789 
L 84.661037 306.966155 
L 87.754839 306.547101 
L 90.848642 305.93463 
L 93.942445 305.091888 
L 97.036247 303.995989 
L 100.13005 302.639434 
L 103.223853 301.021252 
L 106.317655 299.126237 
L 109.411458 296.896227 
L 112.505261 294.203251 
L 114.052162 292.620609 
L 115.599063 290.837454 
L 117.145965 288.816916 
L 118.692866 286.520221 
L 120.239767 283.908544 
L 121.786669 280.945093 
L 123.33357 277.597244 
L 124.880471 273.838597 
L 126.427373 269.650769 
L 127.974274 265.02482 
L 129.521175 259.962178 
L 132.614978 248.586066 
L 135.708781 235.741578 
L 138.802583 221.782537 
L 144.990189 192.290228 
L 149.630893 170.547619 
L 152.724695 156.967487 
L 155.818498 144.502492 
L 158.912301 133.435741 
L 160.459202 128.502755 
L 162.006103 124.002783 
L 163.553005 119.95385 
L 165.099906 116.367647 
L 166.646807 113.248946 
L 168.193709 110.595491 
L 169.74061 108.398512 
L 171.287511 106.643872 
L 172.834413 105.313794 
L 174.381314 104.388979 
L 175.928215 103.850874 
L 177.475116 103.68377 
L 179.022018 103.876442 
L 180.568919 104.423057 
L 182.11582 105.323176 
L 183.662722 106.580821 
L 185.209623 108.202662 
L 186.756524 110.195561 
L 188.303426 112.563756 
L 189.850327 115.306065 
L 191.397228 118.413481 
L 192.94413 121.86746 
L 196.037932 129.68965 
L 199.131735 138.429573 
L 208.413143 165.69104 
L 211.506946 173.847209 
L 214.600748 181.17951 
L 217.694551 187.659812 
L 220.788354 193.369045 
L 223.882156 198.489347 
L 231.616663 210.665659 
L 234.710466 216.17751 
L 237.804268 222.432904 
L 240.898071 229.456541 
L 245.538775 240.966875 
L 250.179479 252.43002 
L 253.273282 259.294572 
L 254.820183 262.360193 
L 256.367084 265.146858 
L 257.913986 267.644517 
L 259.460887 269.855734 
L 261.007788 271.794675 
L 262.55469 273.485414 
L 264.101591 274.959741 
L 267.195394 277.409755 
L 270.289196 279.45709 
L 276.476802 283.381652 
L 281.117506 286.696785 
L 295.039618 297.276417 
L 298.13342 299.244242 
L 301.227223 300.962121 
L 304.321026 302.404824 
L 307.414828 303.551966 
L 310.508631 304.388335 
L 313.602434 304.908416 
L 316.696236 305.122663 
L 319.790039 305.062832 
L 322.883842 304.78423 
L 329.071447 303.892019 
L 333.712151 303.29321 
L 336.805954 303.080836 
L 339.899756 303.074504 
L 342.993559 303.283547 
L 346.087362 303.682552 
L 350.728066 304.518337 
L 358.462572 305.999376 
L 363.103276 306.673431 
L 367.74398 307.120417 
L 373.931586 307.428414 
L 381.666092 307.554959 
L 381.666092 307.554959 
" clip-path="url(#pf00c7af45c)" style="fill: none; stroke: #f77189; stroke-width: 1.5; stroke-linecap: square"/>
   </g>
   <g id="line2d_17">
    <path d="M 95.240232 307.544121 
L 101.335649 307.394175 
L 105.907213 307.047099 
L 108.954922 306.572549 
L 112.002631 305.765393 
L 113.526485 305.18703 
L 115.05034 304.46032 
L 116.574194 303.558701 
L 118.098049 302.45411 
L 119.621903 301.117759 
L 121.145758 299.521059 
L 122.669612 297.636655 
L 124.193467 295.439477 
L 125.717321 292.907694 
L 127.241176 290.023477 
L 128.76503 286.773441 
L 130.288885 283.148695 
L 131.812739 279.144459 
L 133.336593 274.759259 
L 134.860448 269.993802 
L 137.908157 259.328137 
L 140.955866 247.15074 
L 144.003575 233.442922 
L 147.051284 218.188183 
L 150.098993 201.444119 
L 153.146702 183.438619 
L 162.289829 127.768985 
L 165.337538 111.500715 
L 166.861392 104.27104 
L 168.385246 97.743255 
L 169.909101 91.965397 
L 171.432955 86.963255 
L 172.95681 82.741085 
L 174.480664 79.283685 
L 176.004519 76.559515 
L 177.528373 74.524447 
L 179.052228 73.125725 
L 180.576082 72.305739 
L 182.099937 72.005311 
L 183.623791 72.166339 
L 185.147646 72.733737 
L 186.6715 73.65679 
L 188.195355 74.890098 
L 189.719209 76.394319 
L 191.243064 78.136935 
L 192.766918 80.093147 
L 195.814627 84.592227 
L 198.862336 89.887916 
L 200.386191 92.88217 
L 201.910045 96.154372 
L 203.433899 99.750365 
L 204.957754 103.720747 
L 206.481608 108.116642 
L 208.005463 112.98486 
L 209.529317 118.362827 
L 211.053172 124.273802 
L 212.577026 130.722824 
L 215.624735 145.148271 
L 218.672444 161.243623 
L 227.815571 211.66272 
L 230.86328 226.290391 
L 232.387135 232.832948 
L 233.910989 238.816213 
L 235.434844 244.232572 
L 236.958698 249.093497 
L 238.482552 253.426725 
L 240.006407 257.272673 
L 241.530261 260.680403 
L 243.054116 263.703456 
L 244.57797 266.395881 
L 246.101825 268.808734 
L 247.625679 270.98727 
L 250.673388 274.782583 
L 253.721097 277.976488 
L 256.768806 280.638448 
L 259.816515 282.763131 
L 261.34037 283.618668 
L 262.864224 284.338243 
L 265.911933 285.402375 
L 268.959642 286.072339 
L 276.578914 287.28766 
L 279.626623 288.082616 
L 282.674332 289.211974 
L 285.722041 290.66843 
L 288.76975 292.382261 
L 294.865168 296.181724 
L 299.436732 298.992196 
L 302.484441 300.709337 
L 305.53215 302.229258 
L 308.579859 303.494328 
L 311.627567 304.45329 
L 314.675276 305.068148 
L 317.722985 305.321882 
L 320.770694 305.224711 
L 323.818403 304.817639 
L 326.866112 304.172027 
L 339.056948 301.188522 
L 342.104657 300.764105 
L 345.152366 300.539222 
L 348.200075 300.501735 
L 351.247784 300.632109 
L 355.819347 301.111349 
L 360.390911 301.907538 
L 364.962474 302.968429 
L 375.629456 305.648897 
L 380.201019 306.486424 
L 384.772582 307.035918 
L 389.344146 307.34408 
L 395.439564 307.519356 
L 398.487273 307.553376 
L 398.487273 307.553376 
" clip-path="url(#pf00c7af45c)" style="fill: none; stroke: #bb9832; stroke-width: 1.5; stroke-linecap: square"/>
   </g>
   <g id="line2d_18">
    <path d="M 96.975931 307.501401 
L 102.586789 307.245406 
L 105.392218 306.940973 
L 108.197647 306.412424 
L 111.003076 305.534113 
L 112.40579 304.912499 
L 113.808505 304.136099 
L 115.211219 303.176555 
L 116.613934 302.003006 
L 118.016648 300.582531 
L 119.419363 298.880761 
L 120.822077 296.862676 
L 122.224792 294.493581 
L 123.627506 291.740233 
L 125.030221 288.572113 
L 126.432935 284.962788 
L 127.835649 280.89132 
L 129.238364 276.343667 
L 130.641078 271.314011 
L 132.043793 265.805932 
L 134.849222 253.421327 
L 137.654651 239.435369 
L 140.46008 224.270103 
L 147.473652 185.168522 
L 150.279081 170.79833 
L 153.08451 157.996425 
L 154.487224 152.287208 
L 155.889939 147.062541 
L 157.292653 142.318999 
L 158.695368 138.037153 
L 160.098082 134.183325 
L 161.500797 130.712233 
L 164.306226 124.699908 
L 167.111654 119.545061 
L 171.319798 112.599808 
L 175.527941 106.158959 
L 178.33337 102.348918 
L 179.736085 100.706387 
L 181.138799 99.302611 
L 182.541514 98.184776 
L 183.944228 97.395651 
L 185.346943 96.970841 
L 186.749657 96.936691 
L 188.152371 97.308918 
L 189.555086 98.092027 
L 190.9578 99.279476 
L 192.360515 100.85453 
L 193.763229 102.7917 
L 195.165944 105.058621 
L 196.568658 107.618231 
L 199.374087 113.457724 
L 202.179516 120.006576 
L 206.38766 130.653784 
L 210.595803 141.972563 
L 214.803946 154.01794 
L 219.01209 167.009979 
L 223.220233 180.989754 
L 230.233805 205.557764 
L 235.844663 224.86686 
L 240.052807 238.385638 
L 242.858236 246.760213 
L 245.663665 254.547672 
L 248.469093 261.698645 
L 251.274522 268.178522 
L 254.079951 273.970256 
L 256.88538 279.074996 
L 259.690809 283.507635 
L 262.496238 287.287827 
L 265.301667 290.430207 
L 266.704382 291.763843 
L 268.107096 292.938585 
L 269.50981 293.953496 
L 270.912525 294.807628 
L 272.315239 295.500489 
L 273.717954 296.032574 
L 275.120668 296.405905 
L 276.523383 296.624555 
L 277.926097 296.695095 
L 279.328812 296.626943 
L 282.134241 296.127498 
L 284.93967 295.261839 
L 291.953242 292.693993 
L 294.758671 292.002077 
L 296.161385 291.804497 
L 297.5641 291.720606 
L 298.966814 291.755657 
L 300.369529 291.910052 
L 303.174958 292.555121 
L 305.980387 293.571574 
L 310.18853 295.491458 
L 314.396673 297.41349 
L 317.202102 298.466325 
L 320.007531 299.234283 
L 322.81296 299.691492 
L 325.618389 299.869386 
L 329.826533 299.800382 
L 334.034676 299.687168 
L 336.840105 299.782119 
L 339.645534 300.104792 
L 342.450963 300.677196 
L 345.256392 301.469118 
L 350.86725 303.407659 
L 355.075393 304.819536 
L 359.283536 305.947279 
L 362.088965 306.500071 
L 366.297109 307.052547 
L 370.505252 307.351476 
L 376.11611 307.519333 
L 376.11611 307.519333 
" clip-path="url(#pf00c7af45c)" style="fill: none; stroke: #50b131; stroke-width: 1.5; stroke-linecap: square"/>
   </g>
   <g id="line2d_19">
    <path d="M 75.98822 307.493863 
L 80.671948 307.289202 
L 84.184744 306.925264 
L 86.526608 306.50109 
L 88.868472 305.856725 
L 91.210336 304.908535 
L 93.5522 303.555889 
L 94.723132 302.692375 
L 95.894064 301.683708 
L 97.064996 300.51409 
L 98.235928 299.167614 
L 99.40686 297.628565 
L 100.577792 295.881757 
L 101.748724 293.91289 
L 102.919656 291.708916 
L 105.26152 286.551863 
L 107.603384 280.344355 
L 109.945248 273.059583 
L 112.287112 264.713871 
L 114.628976 255.363984 
L 116.97084 245.097914 
L 119.312704 234.02112 
L 122.8255 216.122566 
L 126.338296 196.990365 
L 132.192956 163.452058 
L 136.876684 137.061918 
L 139.218548 125.000135 
L 141.560412 114.31978 
L 142.731344 109.646505 
L 143.902276 105.489379 
L 145.073208 101.893125 
L 146.24414 98.892803 
L 147.415072 96.512091 
L 148.586004 94.762043 
L 149.756936 93.640384 
L 150.927868 93.131407 
L 152.0988 93.206485 
L 153.269732 93.825165 
L 154.440664 94.936799 
L 155.611596 96.482613 
L 156.782528 98.398109 
L 159.124392 103.067241 
L 162.637188 111.192242 
L 167.320916 122.05897 
L 170.833712 129.520948 
L 176.688372 141.689445 
L 179.030236 147.10003 
L 181.3721 153.069376 
L 183.713964 159.61247 
L 187.22676 170.186017 
L 190.739556 180.770073 
L 193.08142 187.179936 
L 195.423284 192.615638 
L 196.594216 194.867811 
L 197.765148 196.771375 
L 198.93608 198.309763 
L 200.107012 199.477155 
L 201.277944 200.278927 
L 202.448876 200.731657 
L 203.619808 200.862691 
L 204.79074 200.709276 
L 205.961672 200.317301 
L 207.132604 199.73968 
L 209.474468 198.262816 
L 211.816332 196.766891 
L 212.987264 196.160707 
L 214.158196 195.720282 
L 215.329128 195.490908 
L 216.50006 195.509827 
L 217.670992 195.805401 
L 218.841924 196.39673 
L 220.012856 197.293696 
L 221.183788 198.497415 
L 222.35472 200.001055 
L 223.525652 201.790937 
L 224.696584 203.847852 
L 227.038448 208.666861 
L 229.380312 214.247837 
L 231.722176 220.37827 
L 235.234972 230.206692 
L 246.944292 263.685368 
L 250.457088 272.669568 
L 252.798952 278.056069 
L 255.140816 282.858085 
L 257.48268 287.025197 
L 259.824544 290.548415 
L 262.166408 293.459904 
L 264.508272 295.825721 
L 266.850136 297.733707 
L 269.192 299.279531 
L 271.533864 300.553838 
L 275.04666 302.117308 
L 278.559456 303.409418 
L 282.072252 304.508287 
L 285.585048 305.428793 
L 289.097844 306.162605 
L 292.61064 306.708001 
L 297.294368 307.173917 
L 303.149028 307.453027 
L 309.003688 307.550497 
L 309.003688 307.550497 
" clip-path="url(#pf00c7af45c)" style="fill: none; stroke: #36ada4; stroke-width: 1.5; stroke-linecap: square"/>
   </g>
   <g id="line2d_20">
    <path d="M 80.470605 307.5276 
L 85.339738 307.359533 
L 88.991588 307.026557 
L 91.426155 306.620455 
L 93.860721 305.994452 
L 96.295288 305.079829 
L 98.729854 303.814189 
L 101.164421 302.157147 
L 103.598987 300.107298 
L 106.033554 297.715385 
L 109.685404 293.73094 
L 113.337253 289.738879 
L 115.77182 287.323217 
L 118.206387 285.197064 
L 121.858236 282.445234 
L 124.292803 280.643281 
L 126.727369 278.538094 
L 127.944653 277.267479 
L 129.161936 275.795161 
L 130.379219 274.081066 
L 131.596503 272.088352 
L 132.813786 269.784308 
L 134.031069 267.140964 
L 135.248352 264.135431 
L 136.465636 260.750075 
L 137.682919 256.97258 
L 138.900202 252.796015 
L 141.334769 243.245786 
L 143.769335 232.159402 
L 146.203902 219.70085 
L 148.638468 206.144898 
L 153.507601 177.286909 
L 158.376734 148.771475 
L 162.028584 128.761178 
L 165.680434 109.889016 
L 169.332284 91.930296 
L 171.76685 80.694866 
L 174.201417 70.579283 
L 175.4187 66.156187 
L 176.635984 62.28656 
L 177.853267 59.068076 
L 179.07055 56.590635 
L 180.287833 54.930081 
L 181.505117 54.142617 
L 182.7224 54.260364 
L 183.939683 55.288409 
L 185.156966 57.20353 
L 186.37425 59.954681 
L 187.591533 63.465128 
L 188.808816 67.636068 
L 191.243383 77.48331 
L 198.547082 109.876961 
L 200.981649 118.898886 
L 203.416216 126.412318 
L 205.850782 132.568143 
L 208.285349 137.801041 
L 211.937198 145.257046 
L 214.371765 150.861844 
L 216.806331 157.502808 
L 219.240898 165.357863 
L 221.675465 174.332701 
L 225.327314 189.163693 
L 230.196447 209.199225 
L 232.631014 218.543423 
L 235.065581 227.233853 
L 237.500147 235.286869 
L 241.151997 246.36681 
L 244.803847 256.491391 
L 247.238413 262.750076 
L 249.67298 268.57665 
L 252.107546 273.915229 
L 254.542113 278.717724 
L 256.976679 282.958221 
L 259.411246 286.634243 
L 261.845813 289.758736 
L 264.280379 292.34955 
L 266.714946 294.422596 
L 269.149512 295.992068 
L 271.584079 297.077834 
L 274.018645 297.717326 
L 276.453212 297.977333 
L 278.887778 297.960385 
L 284.974195 297.62653 
L 287.408761 297.751828 
L 289.843328 298.174766 
L 292.277894 298.915612 
L 294.712461 299.93095 
L 298.364311 301.75894 
L 303.233444 304.166134 
L 305.66801 305.15418 
L 308.102577 305.941597 
L 310.537143 306.528818 
L 312.97171 306.939811 
L 316.62356 307.30486 
L 321.492693 307.507549 
L 322.709976 307.530448 
L 322.709976 307.530448 
" clip-path="url(#pf00c7af45c)" style="fill: none; stroke: #3ba3ec; stroke-width: 1.5; stroke-linecap: square"/>
   </g>
   <g id="line2d_21">
    <path d="M 82.816403 307.515448 
L 88.34248 307.28386 
L 91.658125 306.936026 
L 93.868556 306.55075 
L 96.078986 305.993953 
L 98.289417 305.218441 
L 100.499847 304.174346 
L 102.710278 302.810301 
L 104.920708 301.072822 
L 107.131139 298.903307 
L 109.341569 296.233044 
L 111.552 292.97792 
L 113.76243 289.035725 
L 115.972861 284.289251 
L 118.183291 278.617512 
L 120.393722 271.915272 
L 122.604152 264.118184 
L 124.814583 255.228225 
L 127.025013 245.332731 
L 130.340659 229.019165 
L 139.182381 183.99439 
L 141.392812 173.960991 
L 143.603242 164.737189 
L 145.813673 156.296188 
L 149.129319 144.806943 
L 154.655395 127.098992 
L 163.497117 98.959425 
L 165.707547 92.723404 
L 167.917978 87.424795 
L 169.023193 85.233349 
L 170.128408 83.396873 
L 171.233624 81.945611 
L 172.338839 80.902683 
L 173.444054 80.28319 
L 174.549269 80.093664 
L 175.654485 80.33187 
L 176.7597 80.986952 
L 177.864915 82.039922 
L 178.97013 83.464441 
L 180.075346 85.227863 
L 181.180561 87.292472 
L 183.390991 92.157431 
L 185.601422 97.710321 
L 194.443144 120.958445 
L 197.75879 128.820422 
L 203.284866 141.620654 
L 205.495296 147.188231 
L 207.705727 153.319701 
L 209.916157 160.180314 
L 212.126588 167.870226 
L 214.337018 176.401553 
L 216.547449 185.684277 
L 220.96831 205.649627 
L 225.389171 225.429466 
L 227.599602 234.472912 
L 229.810032 242.664381 
L 232.020463 249.921522 
L 234.230893 256.269328 
L 236.441324 261.811572 
L 238.651754 266.685421 
L 240.862185 271.012273 
L 243.072615 274.85903 
L 245.283046 278.221014 
L 247.493476 281.031332 
L 248.598691 282.199443 
L 249.703907 283.19371 
L 250.809122 284.005168 
L 251.914337 284.628913 
L 253.019552 285.065307 
L 254.124768 285.320841 
L 255.229983 285.408612 
L 256.335198 285.348348 
L 258.545629 284.892786 
L 262.96649 283.627267 
L 264.071705 283.455346 
L 265.17692 283.40784 
L 266.282135 283.509361 
L 267.387351 283.777597 
L 268.492566 284.22266 
L 269.597781 284.846846 
L 270.702996 285.64484 
L 272.913427 287.706832 
L 275.123857 290.244428 
L 281.755149 298.505913 
L 283.965579 300.835156 
L 286.17601 302.76727 
L 288.38644 304.283985 
L 290.596871 305.41385 
L 292.807301 306.214212 
L 295.017732 306.754166 
L 297.228162 307.101506 
L 300.543808 307.385952 
L 302.754239 307.480097 
L 302.754239 307.480097 
" clip-path="url(#pf00c7af45c)" style="fill: none; stroke: #e866f4; stroke-width: 1.5; stroke-linecap: square"/>
   </g>
   <g id="patch_3">
    <path d="M 57.6 307.584 
L 57.6 41.472 
" style="fill: none; stroke: #000000; stroke-width: 0.8; stroke-linejoin: miter; stroke-linecap: square"/>
   </g>
   <g id="patch_4">
    <path d="M 414.72 307.584 
L 414.72 41.472 
" style="fill: none; stroke: #000000; stroke-width: 0.8; stroke-linejoin: miter; stroke-linecap: square"/>
   </g>
   <g id="patch_5">
    <path d="M 57.6 307.584 
L 414.72 307.584 
" style="fill: none; stroke: #000000; stroke-width: 0.8; stroke-linejoin: miter; stroke-linecap: square"/>
   </g>
   <g id="patch_6">
    <path d="M 57.6 41.472 
L 414.72 41.472 
" style="fill: none; stroke: #000000; stroke-width: 0.8; stroke-linejoin: miter; stroke-linecap: square"/>
   </g>
   <g id="legend_1">
    <g id="patch_7">
     <path d="M 339.03875 134.343875 
L 407.72 134.343875 
Q 409.72 134.343875 409.72 132.343875 
L 409.72 48.472 
Q 409.72 46.472 407.72 46.472 
L 339.03875 46.472 
Q 337.03875 46.472 337.03875 48.472 
L 337.03875 132.343875 
Q 337.03875 134.343875 339.03875 134.343875 
z
" style="fill: #ffffff; opacity: 0.8; stroke: #cccccc; stroke-linejoin: miter"/>
    </g>
    <g id="line2d_22">
     <path d="M 341.03875 54.129813 
L 351.03875 54.129813 
L 361.03875 54.129813 
" style="fill: none; stroke: #f77189; stroke-width: 1.5; stroke-linecap: square"/>
    </g>
    <g id="text_17">
     <!-- Mut-1h -->
     <g transform="translate(369.03875 57.629813) scale(0.1 -0.1)">
      <defs>
       <path id="ArialMT-4d" d="M 475 0 
L 475 4581 
L 1388 4581 
L 2472 1338 
Q 2622 884 2691 659 
Q 2769 909 2934 1394 
L 4031 4581 
L 4847 4581 
L 4847 0 
L 4263 0 
L 4263 3834 
L 2931 0 
L 2384 0 
L 1059 3900 
L 1059 0 
L 475 0 
z
" transform="scale(0.015625)"/>
       <path id="ArialMT-75" d="M 2597 0 
L 2597 488 
Q 2209 -75 1544 -75 
Q 1250 -75 995 37 
Q 741 150 617 320 
Q 494 491 444 738 
Q 409 903 409 1263 
L 409 3319 
L 972 3319 
L 972 1478 
Q 972 1038 1006 884 
Q 1059 663 1231 536 
Q 1403 409 1656 409 
Q 1909 409 2131 539 
Q 2353 669 2445 892 
Q 2538 1116 2538 1541 
L 2538 3319 
L 3100 3319 
L 3100 0 
L 2597 0 
z
" transform="scale(0.015625)"/>
       <path id="ArialMT-2d" d="M 203 1375 
L 203 1941 
L 1931 1941 
L 1931 1375 
L 203 1375 
z
" transform="scale(0.015625)"/>
       <path id="ArialMT-68" d="M 422 0 
L 422 4581 
L 984 4581 
L 984 2938 
Q 1378 3394 1978 3394 
Q 2347 3394 2619 3248 
Q 2891 3103 3008 2847 
Q 3125 2591 3125 2103 
L 3125 0 
L 2563 0 
L 2563 2103 
Q 2563 2525 2380 2717 
Q 2197 2909 1863 2909 
Q 1613 2909 1392 2779 
Q 1172 2650 1078 2428 
Q 984 2206 984 1816 
L 984 0 
L 422 0 
z
" transform="scale(0.015625)"/>
      </defs>
      <use xlink:href="#ArialMT-4d"/>
      <use xlink:href="#ArialMT-75" x="83.300781"/>
      <use xlink:href="#ArialMT-74" x="138.916016"/>
      <use xlink:href="#ArialMT-2d" x="166.699219"/>
      <use xlink:href="#ArialMT-31" x="200"/>
      <use xlink:href="#ArialMT-68" x="255.615234"/>
     </g>
    </g>
    <g id="line2d_23">
     <path d="M 341.03875 68.275125 
L 351.03875 68.275125 
L 361.03875 68.275125 
" style="fill: none; stroke: #bb9832; stroke-width: 1.5; stroke-linecap: square"/>
    </g>
    <g id="text_18">
     <!-- Mut-3h -->
     <g transform="translate(369.03875 71.775125) scale(0.1 -0.1)">
      <use xlink:href="#ArialMT-4d"/>
      <use xlink:href="#ArialMT-75" x="83.300781"/>
      <use xlink:href="#ArialMT-74" x="138.916016"/>
      <use xlink:href="#ArialMT-2d" x="166.699219"/>
      <use xlink:href="#ArialMT-33" x="200"/>
      <use xlink:href="#ArialMT-68" x="255.615234"/>
     </g>
    </g>
    <g id="line2d_24">
     <path d="M 341.03875 82.420437 
L 351.03875 82.420437 
L 361.03875 82.420437 
" style="fill: none; stroke: #50b131; stroke-width: 1.5; stroke-linecap: square"/>
    </g>
    <g id="text_19">
     <!-- Mut-24h -->
     <g transform="translate(369.03875 85.920437) scale(0.1 -0.1)">
      <use xlink:href="#ArialMT-4d"/>
      <use xlink:href="#ArialMT-75" x="83.300781"/>
      <use xlink:href="#ArialMT-74" x="138.916016"/>
      <use xlink:href="#ArialMT-2d" x="166.699219"/>
      <use xlink:href="#ArialMT-32" x="200"/>
      <use xlink:href="#ArialMT-34" x="255.615234"/>
      <use xlink:href="#ArialMT-68" x="311.230469"/>
     </g>
    </g>
    <g id="line2d_25">
     <path d="M 341.03875 96.56575 
L 351.03875 96.56575 
L 361.03875 96.56575 
" style="fill: none; stroke: #36ada4; stroke-width: 1.5; stroke-linecap: square"/>
    </g>
    <g id="text_20">
     <!-- WT-1h -->
     <g transform="translate(369.03875 100.06575) scale(0.1 -0.1)">
      <defs>
       <path id="ArialMT-57" d="M 1294 0 
L 78 4581 
L 700 4581 
L 1397 1578 
Q 1509 1106 1591 641 
Q 1766 1375 1797 1488 
L 2669 4581 
L 3400 4581 
L 4056 2263 
Q 4303 1400 4413 641 
Q 4500 1075 4641 1638 
L 5359 4581 
L 5969 4581 
L 4713 0 
L 4128 0 
L 3163 3491 
Q 3041 3928 3019 4028 
Q 2947 3713 2884 3491 
L 1913 0 
L 1294 0 
z
" transform="scale(0.015625)"/>
       <path id="ArialMT-54" d="M 1659 0 
L 1659 4041 
L 150 4041 
L 150 4581 
L 3781 4581 
L 3781 4041 
L 2266 4041 
L 2266 0 
L 1659 0 
z
" transform="scale(0.015625)"/>
      </defs>
      <use xlink:href="#ArialMT-57"/>
      <use xlink:href="#ArialMT-54" x="94.384766"/>
      <use xlink:href="#ArialMT-2d" x="149.96875"/>
      <use xlink:href="#ArialMT-31" x="183.269531"/>
      <use xlink:href="#ArialMT-68" x="238.884766"/>
     </g>
    </g>
    <g id="line2d_26">
     <path d="M 341.03875 110.711063 
L 351.03875 110.711063 
L 361.03875 110.711063 
" style="fill: none; stroke: #3ba3ec; stroke-width: 1.5; stroke-linecap: square"/>
    </g>
    <g id="text_21">
     <!-- WT-3h -->
     <g transform="translate(369.03875 114.211063) scale(0.1 -0.1)">
      <use xlink:href="#ArialMT-57"/>
      <use xlink:href="#ArialMT-54" x="94.384766"/>
      <use xlink:href="#ArialMT-2d" x="149.96875"/>
      <use xlink:href="#ArialMT-33" x="183.269531"/>
      <use xlink:href="#ArialMT-68" x="238.884766"/>
     </g>
    </g>
    <g id="line2d_27">
     <path d="M 341.03875 124.856375 
L 351.03875 124.856375 
L 361.03875 124.856375 
" style="fill: none; stroke: #e866f4; stroke-width: 1.5; stroke-linecap: square"/>
    </g>
    <g id="text_22">
     <!-- WT-24h -->
     <g transform="translate(369.03875 128.356375) scale(0.1 -0.1)">
      <use xlink:href="#ArialMT-57"/>
      <use xlink:href="#ArialMT-54" x="94.384766"/>
      <use xlink:href="#ArialMT-2d" x="149.96875"/>
      <use xlink:href="#ArialMT-32" x="183.269531"/>
      <use xlink:href="#ArialMT-34" x="238.884766"/>
      <use xlink:href="#ArialMT-68" x="294.5"/>
     </g>
    </g>
   </g>
  </g>
 </g>
 <defs>
  <clipPath id="pf00c7af45c">
   <rect x="57.6" y="41.472" width="357.12" height="266.112"/>
  </clipPath>
 </defs>
</svg>
