<?xml version="1.0" encoding="utf-8" standalone="no"?>
<!DOCTYPE svg PUBLIC "-//W3C//DTD SVG 1.1//EN"
  "http://www.w3.org/Graphics/SVG/1.1/DTD/svg11.dtd">
<svg xmlns:xlink="http://www.w3.org/1999/xlink" width="460.8pt" height="345.6pt" viewBox="0 0 460.8 345.6" xmlns="http://www.w3.org/2000/svg" version="1.1">
 <metadata>
  <rdf:RDF xmlns:dc="http://purl.org/dc/elements/1.1/" xmlns:cc="http://creativecommons.org/ns#" xmlns:rdf="http://www.w3.org/1999/02/22-rdf-syntax-ns#">
   <cc:Work>
    <dc:type rdf:resource="http://purl.org/dc/dcmitype/StillImage"/>
    <dc:date>2023-05-16T13:48:02.545432</dc:date>
    <dc:format>image/svg+xml</dc:format>
    <dc:creator>
     <cc:Agent>
      <dc:title>Matplotlib v3.7.1, https://matplotlib.org/</dc:title>
     </cc:Agent>
    </dc:creator>
   </cc:Work>
  </rdf:RDF>
 </metadata>
 <defs>
  <style type="text/css">*{stroke-linejoin: round; stroke-linecap: butt}</style>
 </defs>
 <g id="figure_1">
  <g id="patch_1">
   <path d="M 0 345.6 
L 460.8 345.6 
L 460.8 0 
L 0 0 
z
" style="fill: #ffffff"/>
  </g>
  <g id="axes_1">
   <g id="patch_2">
    <path d="M 62.39 303.64 
L 450 303.64 
L 450 10.8 
L 62.39 10.8 
z
" style="fill: #ffffff"/>
   </g>
   <g id="PathCollection_1">
    <defs>
     <path id="mbbcdbf4987" d="M 0 3 
C 0.795609 3 1.55874 2.683901 2.12132 2.12132 
C 2.683901 1.55874 3 0.795609 3 0 
C 3 -0.795609 2.683901 -1.55874 2.12132 -2.12132 
C 1.55874 -2.683901 0.795609 -3 0 -3 
C -0.795609 -3 -1.55874 -2.683901 -2.12132 -2.12132 
C -2.683901 -1.55874 -3 -0.795609 -3 0 
C -3 0.795609 -2.683901 1.55874 -2.12132 2.12132 
C -1.55874 2.683901 -0.795609 3 0 3 
z
" style="stroke: #1f77b4"/>
    </defs>
    <g clip-path="url(#p9401c68680)">
     <use xlink:href="#mbbcdbf4987" x="306.738925" y="181.859791" style="fill: #1f77b4; stroke: #1f77b4"/>
     <use xlink:href="#mbbcdbf4987" x="242.220916" y="170.014544" style="fill: #1f77b4; stroke: #1f77b4"/>
     <use xlink:href="#mbbcdbf4987" x="356.802872" y="48.560012" style="fill: #1f77b4; stroke: #1f77b4"/>
     <use xlink:href="#mbbcdbf4987" x="220.652508" y="214.550745" style="fill: #1f77b4; stroke: #1f77b4"/>
     <use xlink:href="#mbbcdbf4987" x="349.685272" y="127.15485" style="fill: #1f77b4; stroke: #1f77b4"/>
     <use xlink:href="#mbbcdbf4987" x="144.810986" y="195.758378" style="fill: #1f77b4; stroke: #1f77b4"/>
    </g>
   </g>
   <g id="PathCollection_2">
    <defs>
     <path id="m7355186c04" d="M 0 3 
C 0.795609 3 1.55874 2.683901 2.12132 2.12132 
C 2.683901 1.55874 3 0.795609 3 0 
C 3 -0.795609 2.683901 -1.55874 2.12132 -2.12132 
C 1.55874 -2.683901 0.795609 -3 0 -3 
C -0.795609 -3 -1.55874 -2.683901 -2.12132 -2.12132 
C -2.683901 -1.55874 -3 -0.795609 -3 0 
C -3 0.795609 -2.683901 1.55874 -2.12132 2.12132 
C -1.55874 2.683901 -0.795609 3 0 3 
z
" style="stroke: #ff7f0e"/>
    </defs>
    <g clip-path="url(#p9401c68680)">
     <use xlink:href="#m7355186c04" x="338.383956" y="72.874023" style="fill: #ff7f0e; stroke: #ff7f0e"/>
     <use xlink:href="#m7355186c04" x="207.446738" y="240.070705" style="fill: #ff7f0e; stroke: #ff7f0e"/>
     <use xlink:href="#m7355186c04" x="414.459403" y="112.08673" style="fill: #ff7f0e; stroke: #ff7f0e"/>
     <use xlink:href="#m7355186c04" x="110.755441" y="153.731647" style="fill: #ff7f0e; stroke: #ff7f0e"/>
     <use xlink:href="#m7355186c04" x="373.422614" y="98.081196" style="fill: #ff7f0e; stroke: #ff7f0e"/>
     <use xlink:href="#m7355186c04" x="87.211625" y="210.768526" style="fill: #ff7f0e; stroke: #ff7f0e"/>
    </g>
   </g>
   <g id="PathCollection_3">
    <defs>
     <path id="m3f4a197606" d="M 0 3 
C 0.795609 3 1.55874 2.683901 2.12132 2.12132 
C 2.683901 1.55874 3 0.795609 3 0 
C 3 -0.795609 2.683901 -1.55874 2.12132 -2.12132 
C 1.55874 -2.683901 0.795609 -3 0 -3 
C -0.795609 -3 -1.55874 -2.683901 -2.12132 -2.12132 
C -2.683901 -1.55874 -3 -0.795609 -3 0 
C -3 0.795609 -2.683901 1.55874 -2.12132 2.12132 
C -1.55874 2.683901 -0.795609 3 0 3 
z
" style="stroke: #2ca02c"/>
    </defs>
    <g clip-path="url(#p9401c68680)">
     <use xlink:href="#m3f4a197606" x="358.705379" y="141.618976" style="fill: #2ca02c; stroke: #2ca02c"/>
     <use xlink:href="#m3f4a197606" x="108.015526" y="241.173232" style="fill: #2ca02c; stroke: #2ca02c"/>
     <use xlink:href="#m3f4a197606" x="278.08058" y="154.540812" style="fill: #2ca02c; stroke: #2ca02c"/>
     <use xlink:href="#m3f4a197606" x="101.605882" y="290.329091" style="fill: #2ca02c; stroke: #2ca02c"/>
     <use xlink:href="#m3f4a197606" x="394.124665" y="133.525192" style="fill: #2ca02c; stroke: #2ca02c"/>
     <use xlink:href="#m3f4a197606" x="129.615534" y="266.03483" style="fill: #2ca02c; stroke: #2ca02c"/>
    </g>
   </g>
   <g id="PathCollection_4">
    <defs>
     <path id="m87051e3d0a" d="M 0 3 
C 0.795609 3 1.55874 2.683901 2.12132 2.12132 
C 2.683901 1.55874 3 0.795609 3 0 
C 3 -0.795609 2.683901 -1.55874 2.12132 -2.12132 
C 1.55874 -2.683901 0.795609 -3 0 -3 
C -0.795609 -3 -1.55874 -2.683901 -2.12132 -2.12132 
C -2.683901 -1.55874 -3 -0.795609 -3 0 
C -3 0.795609 -2.683901 1.55874 -2.12132 2.12132 
C -1.55874 2.683901 -0.795609 3 0 3 
z
" style="stroke: #d62728"/>
    </defs>
    <g clip-path="url(#p9401c68680)">
     <use xlink:href="#m87051e3d0a" x="314.679302" y="50.114094" style="fill: #d62728; stroke: #d62728"/>
     <use xlink:href="#m87051e3d0a" x="94.574941" y="152.428523" style="fill: #d62728; stroke: #d62728"/>
     <use xlink:href="#m87051e3d0a" x="307.736027" y="130.825747" style="fill: #d62728; stroke: #d62728"/>
     <use xlink:href="#m87051e3d0a" x="229.322049" y="198.106935" style="fill: #d62728; stroke: #d62728"/>
     <use xlink:href="#m87051e3d0a" x="288.337908" y="189.346195" style="fill: #d62728; stroke: #d62728"/>
     <use xlink:href="#m87051e3d0a" x="173.760563" y="206.980333" style="fill: #d62728; stroke: #d62728"/>
    </g>
   </g>
   <g id="PathCollection_5">
    <defs>
     <path id="made53377a0" d="M 0 3 
C 0.795609 3 1.55874 2.683901 2.12132 2.12132 
C 2.683901 1.55874 3 0.795609 3 0 
C 3 -0.795609 2.683901 -1.55874 2.12132 -2.12132 
C 1.55874 -2.683901 0.795609 -3 0 -3 
C -0.795609 -3 -1.55874 -2.683901 -2.12132 -2.12132 
C -2.683901 -1.55874 -3 -0.795609 -3 0 
C -3 0.795609 -2.683901 1.55874 -2.12132 2.12132 
C -1.55874 2.683901 -0.795609 3 0 3 
z
" style="stroke: #9467bd"/>
    </defs>
    <g clip-path="url(#p9401c68680)">
     <use xlink:href="#made53377a0" x="415.958673" y="194.565624" style="fill: #9467bd; stroke: #9467bd"/>
     <use xlink:href="#made53377a0" x="207.939262" y="185.359725" style="fill: #9467bd; stroke: #9467bd"/>
     <use xlink:href="#made53377a0" x="432.381364" y="143.847348" style="fill: #9467bd; stroke: #9467bd"/>
     <use xlink:href="#made53377a0" x="133.741063" y="139.260815" style="fill: #9467bd; stroke: #9467bd"/>
     <use xlink:href="#made53377a0" x="399.847005" y="181.932552" style="fill: #9467bd; stroke: #9467bd"/>
     <use xlink:href="#made53377a0" x="80.008636" y="239.158397" style="fill: #9467bd; stroke: #9467bd"/>
    </g>
   </g>
   <g id="PathCollection_6">
    <defs>
     <path id="ma455092921" d="M 0 3 
C 0.795609 3 1.55874 2.683901 2.12132 2.12132 
C 2.683901 1.55874 3 0.795609 3 0 
C 3 -0.795609 2.683901 -1.55874 2.12132 -2.12132 
C 1.55874 -2.683901 0.795609 -3 0 -3 
C -0.795609 -3 -1.55874 -2.683901 -2.12132 -2.12132 
C -2.683901 -1.55874 -3 -0.795609 -3 0 
C -3 0.795609 -2.683901 1.55874 -2.12132 2.12132 
C -1.55874 2.683901 -0.795609 3 0 3 
z
" style="stroke: #8c564b"/>
    </defs>
    <g clip-path="url(#p9401c68680)">
     <use xlink:href="#ma455092921" x="332.753607" y="24.110909" style="fill: #8c564b; stroke: #8c564b"/>
     <use xlink:href="#ma455092921" x="121.008023" y="208.878409" style="fill: #8c564b; stroke: #8c564b"/>
     <use xlink:href="#ma455092921" x="296.364092" y="93.211632" style="fill: #8c564b; stroke: #8c564b"/>
     <use xlink:href="#ma455092921" x="105.684122" y="257.560412" style="fill: #8c564b; stroke: #8c564b"/>
     <use xlink:href="#ma455092921" x="416.394763" y="151.935972" style="fill: #8c564b; stroke: #8c564b"/>
     <use xlink:href="#ma455092921" x="150.542232" y="254.860113" style="fill: #8c564b; stroke: #8c564b"/>
    </g>
   </g>
   <g id="matplotlib.axis_1">
    <g id="xtick_1">
     <g id="line2d_1">
      <defs>
       <path id="m6c1832a436" d="M 0 0 
L 0 3.5 
" style="stroke: #000000; stroke-width: 0.8"/>
      </defs>
      <g>
       <use xlink:href="#m6c1832a436" x="92.349387" y="303.64" style="stroke: #000000; stroke-width: 0.8"/>
      </g>
     </g>
     <g id="text_1">
      <!-- −4 -->
      <g transform="translate(86.648605 317.797812) scale(0.1 -0.1)">
       <defs>
        <path id="ArialMT-2212" d="M 3381 1997 
L 356 1997 
L 356 2522 
L 3381 2522 
L 3381 1997 
z
" transform="scale(0.015625)"/>
        <path id="ArialMT-34" d="M 2069 0 
L 2069 1097 
L 81 1097 
L 81 1613 
L 2172 4581 
L 2631 4581 
L 2631 1613 
L 3250 1613 
L 3250 1097 
L 2631 1097 
L 2631 0 
L 2069 0 
z
M 2069 1613 
L 2069 3678 
L 634 1613 
L 2069 1613 
z
" transform="scale(0.015625)"/>
       </defs>
       <use xlink:href="#ArialMT-2212"/>
       <use xlink:href="#ArialMT-34" x="58.398438"/>
      </g>
     </g>
    </g>
    <g id="xtick_2">
     <g id="line2d_2">
      <g>
       <use xlink:href="#m6c1832a436" x="137.081489" y="303.64" style="stroke: #000000; stroke-width: 0.8"/>
      </g>
     </g>
     <g id="text_2">
      <!-- −3 -->
      <g transform="translate(131.380708 317.797812) scale(0.1 -0.1)">
       <defs>
        <path id="ArialMT-33" d="M 269 1209 
L 831 1284 
Q 928 806 1161 595 
Q 1394 384 1728 384 
Q 2125 384 2398 659 
Q 2672 934 2672 1341 
Q 2672 1728 2419 1979 
Q 2166 2231 1775 2231 
Q 1616 2231 1378 2169 
L 1441 2663 
Q 1497 2656 1531 2656 
Q 1891 2656 2178 2843 
Q 2466 3031 2466 3422 
Q 2466 3731 2256 3934 
Q 2047 4138 1716 4138 
Q 1388 4138 1169 3931 
Q 950 3725 888 3313 
L 325 3413 
Q 428 3978 793 4289 
Q 1159 4600 1703 4600 
Q 2078 4600 2393 4439 
Q 2709 4278 2876 4000 
Q 3044 3722 3044 3409 
Q 3044 3113 2884 2869 
Q 2725 2625 2413 2481 
Q 2819 2388 3044 2092 
Q 3269 1797 3269 1353 
Q 3269 753 2831 336 
Q 2394 -81 1725 -81 
Q 1122 -81 723 278 
Q 325 638 269 1209 
z
" transform="scale(0.015625)"/>
       </defs>
       <use xlink:href="#ArialMT-2212"/>
       <use xlink:href="#ArialMT-33" x="58.398438"/>
      </g>
     </g>
    </g>
    <g id="xtick_3">
     <g id="line2d_3">
      <g>
       <use xlink:href="#m6c1832a436" x="181.813592" y="303.64" style="stroke: #000000; stroke-width: 0.8"/>
      </g>
     </g>
     <g id="text_3">
      <!-- −2 -->
      <g transform="translate(176.112811 317.797812) scale(0.1 -0.1)">
       <defs>
        <path id="ArialMT-32" d="M 3222 541 
L 3222 0 
L 194 0 
Q 188 203 259 391 
Q 375 700 629 1000 
Q 884 1300 1366 1694 
Q 2113 2306 2375 2664 
Q 2638 3022 2638 3341 
Q 2638 3675 2398 3904 
Q 2159 4134 1775 4134 
Q 1369 4134 1125 3890 
Q 881 3647 878 3216 
L 300 3275 
Q 359 3922 746 4261 
Q 1134 4600 1788 4600 
Q 2447 4600 2831 4234 
Q 3216 3869 3216 3328 
Q 3216 3053 3103 2787 
Q 2991 2522 2730 2228 
Q 2469 1934 1863 1422 
Q 1356 997 1212 845 
Q 1069 694 975 541 
L 3222 541 
z
" transform="scale(0.015625)"/>
       </defs>
       <use xlink:href="#ArialMT-2212"/>
       <use xlink:href="#ArialMT-32" x="58.398438"/>
      </g>
     </g>
    </g>
    <g id="xtick_4">
     <g id="line2d_4">
      <g>
       <use xlink:href="#m6c1832a436" x="226.545695" y="303.64" style="stroke: #000000; stroke-width: 0.8"/>
      </g>
     </g>
     <g id="text_4">
      <!-- −1 -->
      <g transform="translate(220.844914 317.797812) scale(0.1 -0.1)">
       <defs>
        <path id="ArialMT-31" d="M 2384 0 
L 1822 0 
L 1822 3584 
Q 1619 3391 1289 3197 
Q 959 3003 697 2906 
L 697 3450 
Q 1169 3672 1522 3987 
Q 1875 4303 2022 4600 
L 2384 4600 
L 2384 0 
z
" transform="scale(0.015625)"/>
       </defs>
       <use xlink:href="#ArialMT-2212"/>
       <use xlink:href="#ArialMT-31" x="58.398438"/>
      </g>
     </g>
    </g>
    <g id="xtick_5">
     <g id="line2d_5">
      <g>
       <use xlink:href="#m6c1832a436" x="271.277798" y="303.64" style="stroke: #000000; stroke-width: 0.8"/>
      </g>
     </g>
     <g id="text_5">
      <!-- 0 -->
      <g transform="translate(268.497329 317.797812) scale(0.1 -0.1)">
       <defs>
        <path id="ArialMT-30" d="M 266 2259 
Q 266 3072 433 3567 
Q 600 4063 929 4331 
Q 1259 4600 1759 4600 
Q 2128 4600 2406 4451 
Q 2684 4303 2865 4023 
Q 3047 3744 3150 3342 
Q 3253 2941 3253 2259 
Q 3253 1453 3087 958 
Q 2922 463 2592 192 
Q 2263 -78 1759 -78 
Q 1097 -78 719 397 
Q 266 969 266 2259 
z
M 844 2259 
Q 844 1131 1108 757 
Q 1372 384 1759 384 
Q 2147 384 2411 759 
Q 2675 1134 2675 2259 
Q 2675 3391 2411 3762 
Q 2147 4134 1753 4134 
Q 1366 4134 1134 3806 
Q 844 3388 844 2259 
z
" transform="scale(0.015625)"/>
       </defs>
       <use xlink:href="#ArialMT-30"/>
      </g>
     </g>
    </g>
    <g id="xtick_6">
     <g id="line2d_6">
      <g>
       <use xlink:href="#m6c1832a436" x="316.009901" y="303.64" style="stroke: #000000; stroke-width: 0.8"/>
      </g>
     </g>
     <g id="text_6">
      <!-- 1 -->
      <g transform="translate(313.229432 317.797812) scale(0.1 -0.1)">
       <use xlink:href="#ArialMT-31"/>
      </g>
     </g>
    </g>
    <g id="xtick_7">
     <g id="line2d_7">
      <g>
       <use xlink:href="#m6c1832a436" x="360.742004" y="303.64" style="stroke: #000000; stroke-width: 0.8"/>
      </g>
     </g>
     <g id="text_7">
      <!-- 2 -->
      <g transform="translate(357.961535 317.797812) scale(0.1 -0.1)">
       <use xlink:href="#ArialMT-32"/>
      </g>
     </g>
    </g>
    <g id="xtick_8">
     <g id="line2d_8">
      <g>
       <use xlink:href="#m6c1832a436" x="405.474106" y="303.64" style="stroke: #000000; stroke-width: 0.8"/>
      </g>
     </g>
     <g id="text_8">
      <!-- 3 -->
      <g transform="translate(402.693638 317.797812) scale(0.1 -0.1)">
       <use xlink:href="#ArialMT-33"/>
      </g>
     </g>
    </g>
    <g id="text_9">
     <!-- UMAP1 -->
     <g transform="translate(238.968438 330.943125) scale(0.1 -0.1)">
      <defs>
       <path id="ArialMT-55" d="M 3500 4581 
L 4106 4581 
L 4106 1934 
Q 4106 1244 3950 837 
Q 3794 431 3386 176 
Q 2978 -78 2316 -78 
Q 1672 -78 1262 144 
Q 853 366 678 786 
Q 503 1206 503 1934 
L 503 4581 
L 1109 4581 
L 1109 1938 
Q 1109 1341 1220 1058 
Q 1331 775 1601 622 
Q 1872 469 2263 469 
Q 2931 469 3215 772 
Q 3500 1075 3500 1938 
L 3500 4581 
z
" transform="scale(0.015625)"/>
       <path id="ArialMT-4d" d="M 475 0 
L 475 4581 
L 1388 4581 
L 2472 1338 
Q 2622 884 2691 659 
Q 2769 909 2934 1394 
L 4031 4581 
L 4847 4581 
L 4847 0 
L 4263 0 
L 4263 3834 
L 2931 0 
L 2384 0 
L 1059 3900 
L 1059 0 
L 475 0 
z
" transform="scale(0.015625)"/>
       <path id="ArialMT-41" d="M -9 0 
L 1750 4581 
L 2403 4581 
L 4278 0 
L 3588 0 
L 3053 1388 
L 1138 1388 
L 634 0 
L -9 0 
z
M 1313 1881 
L 2866 1881 
L 2388 3150 
Q 2169 3728 2063 4100 
Q 1975 3659 1816 3225 
L 1313 1881 
z
" transform="scale(0.015625)"/>
       <path id="ArialMT-50" d="M 494 0 
L 494 4581 
L 2222 4581 
Q 2678 4581 2919 4538 
Q 3256 4481 3484 4323 
Q 3713 4166 3852 3881 
Q 3991 3597 3991 3256 
Q 3991 2672 3619 2267 
Q 3247 1863 2275 1863 
L 1100 1863 
L 1100 0 
L 494 0 
z
M 1100 2403 
L 2284 2403 
Q 2872 2403 3119 2622 
Q 3366 2841 3366 3238 
Q 3366 3525 3220 3729 
Q 3075 3934 2838 4000 
Q 2684 4041 2272 4041 
L 1100 4041 
L 1100 2403 
z
" transform="scale(0.015625)"/>
      </defs>
      <use xlink:href="#ArialMT-55"/>
      <use xlink:href="#ArialMT-4d" x="72.216797"/>
      <use xlink:href="#ArialMT-41" x="155.517578"/>
      <use xlink:href="#ArialMT-50" x="222.216797"/>
      <use xlink:href="#ArialMT-31" x="288.916016"/>
     </g>
    </g>
   </g>
   <g id="matplotlib.axis_2">
    <g id="ytick_1">
     <g id="line2d_9">
      <defs>
       <path id="m15700ba698" d="M 0 0 
L -3.5 0 
" style="stroke: #000000; stroke-width: 0.8"/>
      </defs>
      <g>
       <use xlink:href="#m15700ba698" x="62.39" y="278.017273" style="stroke: #000000; stroke-width: 0.8"/>
      </g>
     </g>
     <g id="text_10">
      <!-- −1.75 -->
      <g transform="translate(30.088438 281.596179) scale(0.1 -0.1)">
       <defs>
        <path id="ArialMT-2e" d="M 581 0 
L 581 641 
L 1222 641 
L 1222 0 
L 581 0 
z
" transform="scale(0.015625)"/>
        <path id="ArialMT-37" d="M 303 3981 
L 303 4522 
L 3269 4522 
L 3269 4084 
Q 2831 3619 2401 2847 
Q 1972 2075 1738 1259 
Q 1569 684 1522 0 
L 944 0 
Q 953 541 1156 1306 
Q 1359 2072 1739 2783 
Q 2119 3494 2547 3981 
L 303 3981 
z
" transform="scale(0.015625)"/>
        <path id="ArialMT-35" d="M 266 1200 
L 856 1250 
Q 922 819 1161 601 
Q 1400 384 1738 384 
Q 2144 384 2425 690 
Q 2706 997 2706 1503 
Q 2706 1984 2436 2262 
Q 2166 2541 1728 2541 
Q 1456 2541 1237 2417 
Q 1019 2294 894 2097 
L 366 2166 
L 809 4519 
L 3088 4519 
L 3088 3981 
L 1259 3981 
L 1013 2750 
Q 1425 3038 1878 3038 
Q 2478 3038 2890 2622 
Q 3303 2206 3303 1553 
Q 3303 931 2941 478 
Q 2500 -78 1738 -78 
Q 1113 -78 717 272 
Q 322 622 266 1200 
z
" transform="scale(0.015625)"/>
       </defs>
       <use xlink:href="#ArialMT-2212"/>
       <use xlink:href="#ArialMT-31" x="58.398438"/>
       <use xlink:href="#ArialMT-2e" x="114.013672"/>
       <use xlink:href="#ArialMT-37" x="141.796875"/>
       <use xlink:href="#ArialMT-35" x="197.412109"/>
      </g>
     </g>
    </g>
    <g id="ytick_2">
     <g id="line2d_10">
      <g>
       <use xlink:href="#m15700ba698" x="62.39" y="243.880775" style="stroke: #000000; stroke-width: 0.8"/>
      </g>
     </g>
     <g id="text_11">
      <!-- −1.50 -->
      <g transform="translate(30.088438 247.459681) scale(0.1 -0.1)">
       <use xlink:href="#ArialMT-2212"/>
       <use xlink:href="#ArialMT-31" x="58.398438"/>
       <use xlink:href="#ArialMT-2e" x="114.013672"/>
       <use xlink:href="#ArialMT-35" x="141.796875"/>
       <use xlink:href="#ArialMT-30" x="197.412109"/>
      </g>
     </g>
    </g>
    <g id="ytick_3">
     <g id="line2d_11">
      <g>
       <use xlink:href="#m15700ba698" x="62.39" y="209.744277" style="stroke: #000000; stroke-width: 0.8"/>
      </g>
     </g>
     <g id="text_12">
      <!-- −1.25 -->
      <g transform="translate(30.088438 213.323183) scale(0.1 -0.1)">
       <use xlink:href="#ArialMT-2212"/>
       <use xlink:href="#ArialMT-31" x="58.398438"/>
       <use xlink:href="#ArialMT-2e" x="114.013672"/>
       <use xlink:href="#ArialMT-32" x="141.796875"/>
       <use xlink:href="#ArialMT-35" x="197.412109"/>
      </g>
     </g>
    </g>
    <g id="ytick_4">
     <g id="line2d_12">
      <g>
       <use xlink:href="#m15700ba698" x="62.39" y="175.607779" style="stroke: #000000; stroke-width: 0.8"/>
      </g>
     </g>
     <g id="text_13">
      <!-- −1.00 -->
      <g transform="translate(30.088438 179.186686) scale(0.1 -0.1)">
       <use xlink:href="#ArialMT-2212"/>
       <use xlink:href="#ArialMT-31" x="58.398438"/>
       <use xlink:href="#ArialMT-2e" x="114.013672"/>
       <use xlink:href="#ArialMT-30" x="141.796875"/>
       <use xlink:href="#ArialMT-30" x="197.412109"/>
      </g>
     </g>
    </g>
    <g id="ytick_5">
     <g id="line2d_13">
      <g>
       <use xlink:href="#m15700ba698" x="62.39" y="141.471282" style="stroke: #000000; stroke-width: 0.8"/>
      </g>
     </g>
     <g id="text_14">
      <!-- −0.75 -->
      <g transform="translate(30.088438 145.050188) scale(0.1 -0.1)">
       <use xlink:href="#ArialMT-2212"/>
       <use xlink:href="#ArialMT-30" x="58.398438"/>
       <use xlink:href="#ArialMT-2e" x="114.013672"/>
       <use xlink:href="#ArialMT-37" x="141.796875"/>
       <use xlink:href="#ArialMT-35" x="197.412109"/>
      </g>
     </g>
    </g>
    <g id="ytick_6">
     <g id="line2d_14">
      <g>
       <use xlink:href="#m15700ba698" x="62.39" y="107.334784" style="stroke: #000000; stroke-width: 0.8"/>
      </g>
     </g>
     <g id="text_15">
      <!-- −0.50 -->
      <g transform="translate(30.088438 110.91369) scale(0.1 -0.1)">
       <use xlink:href="#ArialMT-2212"/>
       <use xlink:href="#ArialMT-30" x="58.398438"/>
       <use xlink:href="#ArialMT-2e" x="114.013672"/>
       <use xlink:href="#ArialMT-35" x="141.796875"/>
       <use xlink:href="#ArialMT-30" x="197.412109"/>
      </g>
     </g>
    </g>
    <g id="ytick_7">
     <g id="line2d_15">
      <g>
       <use xlink:href="#m15700ba698" x="62.39" y="73.198286" style="stroke: #000000; stroke-width: 0.8"/>
      </g>
     </g>
     <g id="text_16">
      <!-- −0.25 -->
      <g transform="translate(30.088438 76.777192) scale(0.1 -0.1)">
       <use xlink:href="#ArialMT-2212"/>
       <use xlink:href="#ArialMT-30" x="58.398438"/>
       <use xlink:href="#ArialMT-2e" x="114.013672"/>
       <use xlink:href="#ArialMT-32" x="141.796875"/>
       <use xlink:href="#ArialMT-35" x="197.412109"/>
      </g>
     </g>
    </g>
    <g id="ytick_8">
     <g id="line2d_16">
      <g>
       <use xlink:href="#m15700ba698" x="62.39" y="39.061788" style="stroke: #000000; stroke-width: 0.8"/>
      </g>
     </g>
     <g id="text_17">
      <!-- 0.00 -->
      <g transform="translate(35.929063 42.640695) scale(0.1 -0.1)">
       <use xlink:href="#ArialMT-30"/>
       <use xlink:href="#ArialMT-2e" x="55.615234"/>
       <use xlink:href="#ArialMT-30" x="83.398438"/>
       <use xlink:href="#ArialMT-30" x="139.013672"/>
      </g>
     </g>
    </g>
    <g id="text_18">
     <!-- UMAP2 -->
     <g transform="translate(24.100938 174.446562) rotate(-90) scale(0.1 -0.1)">
      <use xlink:href="#ArialMT-55"/>
      <use xlink:href="#ArialMT-4d" x="72.216797"/>
      <use xlink:href="#ArialMT-41" x="155.517578"/>
      <use xlink:href="#ArialMT-50" x="222.216797"/>
      <use xlink:href="#ArialMT-32" x="288.916016"/>
     </g>
    </g>
   </g>
   <g id="patch_3">
    <path d="M 62.39 303.64 
L 62.39 10.8 
" style="fill: none; stroke: #000000; stroke-width: 0.8; stroke-linejoin: miter; stroke-linecap: square"/>
   </g>
   <g id="patch_4">
    <path d="M 450 303.64 
L 450 10.8 
" style="fill: none; stroke: #000000; stroke-width: 0.8; stroke-linejoin: miter; stroke-linecap: square"/>
   </g>
   <g id="patch_5">
    <path d="M 62.39 303.64 
L 450 303.64 
" style="fill: none; stroke: #000000; stroke-width: 0.8; stroke-linejoin: miter; stroke-linecap: square"/>
   </g>
   <g id="patch_6">
    <path d="M 62.39 10.8 
L 450 10.8 
" style="fill: none; stroke: #000000; stroke-width: 0.8; stroke-linejoin: miter; stroke-linecap: square"/>
   </g>
   <g id="text_19">
    <!-- 1_NPO -->
    <g transform="translate(293.62205 176.859791) scale(0.08 -0.08)">
     <defs>
      <path id="ArialMT-5f" d="M -97 -1272 
L -97 -866 
L 3631 -866 
L 3631 -1272 
L -97 -1272 
z
" transform="scale(0.015625)"/>
      <path id="ArialMT-4e" d="M 488 0 
L 488 4581 
L 1109 4581 
L 3516 984 
L 3516 4581 
L 4097 4581 
L 4097 0 
L 3475 0 
L 1069 3600 
L 1069 0 
L 488 0 
z
" transform="scale(0.015625)"/>
      <path id="ArialMT-4f" d="M 309 2231 
Q 309 3372 921 4017 
Q 1534 4663 2503 4663 
Q 3138 4663 3647 4359 
Q 4156 4056 4423 3514 
Q 4691 2972 4691 2284 
Q 4691 1588 4409 1038 
Q 4128 488 3612 205 
Q 3097 -78 2500 -78 
Q 1853 -78 1343 234 
Q 834 547 571 1087 
Q 309 1628 309 2231 
z
M 934 2222 
Q 934 1394 1379 917 
Q 1825 441 2497 441 
Q 3181 441 3623 922 
Q 4066 1403 4066 2288 
Q 4066 2847 3877 3264 
Q 3688 3681 3323 3911 
Q 2959 4141 2506 4141 
Q 1863 4141 1398 3698 
Q 934 3256 934 2222 
z
" transform="scale(0.015625)"/>
     </defs>
     <use xlink:href="#ArialMT-31"/>
     <use xlink:href="#ArialMT-5f" x="55.615234"/>
     <use xlink:href="#ArialMT-4e" x="111.230469"/>
     <use xlink:href="#ArialMT-50" x="183.447266"/>
     <use xlink:href="#ArialMT-4f" x="250.146484"/>
    </g>
   </g>
   <g id="text_20">
    <!-- 1_PO -->
    <g transform="translate(231.992791 165.014544) scale(0.08 -0.08)">
     <use xlink:href="#ArialMT-31"/>
     <use xlink:href="#ArialMT-5f" x="55.615234"/>
     <use xlink:href="#ArialMT-50" x="111.230469"/>
     <use xlink:href="#ArialMT-4f" x="177.929688"/>
    </g>
   </g>
   <g id="text_21">
    <!-- 2_NPO -->
    <g transform="translate(343.685997 43.560012) scale(0.08 -0.08)">
     <use xlink:href="#ArialMT-32"/>
     <use xlink:href="#ArialMT-5f" x="55.615234"/>
     <use xlink:href="#ArialMT-4e" x="111.230469"/>
     <use xlink:href="#ArialMT-50" x="183.447266"/>
     <use xlink:href="#ArialMT-4f" x="250.146484"/>
    </g>
   </g>
   <g id="text_22">
    <!-- 2_PO -->
    <g transform="translate(210.424383 209.550745) scale(0.08 -0.08)">
     <use xlink:href="#ArialMT-32"/>
     <use xlink:href="#ArialMT-5f" x="55.615234"/>
     <use xlink:href="#ArialMT-50" x="111.230469"/>
     <use xlink:href="#ArialMT-4f" x="177.929688"/>
    </g>
   </g>
   <g id="text_23">
    <!-- 3_NPO -->
    <g transform="translate(336.568397 122.15485) scale(0.08 -0.08)">
     <use xlink:href="#ArialMT-33"/>
     <use xlink:href="#ArialMT-5f" x="55.615234"/>
     <use xlink:href="#ArialMT-4e" x="111.230469"/>
     <use xlink:href="#ArialMT-50" x="183.447266"/>
     <use xlink:href="#ArialMT-4f" x="250.146484"/>
    </g>
   </g>
   <g id="text_24">
    <!-- 3_PO -->
    <g transform="translate(134.582861 190.758378) scale(0.08 -0.08)">
     <use xlink:href="#ArialMT-33"/>
     <use xlink:href="#ArialMT-5f" x="55.615234"/>
     <use xlink:href="#ArialMT-50" x="111.230469"/>
     <use xlink:href="#ArialMT-4f" x="177.929688"/>
    </g>
   </g>
   <g id="text_25">
    <!-- 4_NPO -->
    <g transform="translate(325.267081 67.874023) scale(0.08 -0.08)">
     <use xlink:href="#ArialMT-34"/>
     <use xlink:href="#ArialMT-5f" x="55.615234"/>
     <use xlink:href="#ArialMT-4e" x="111.230469"/>
     <use xlink:href="#ArialMT-50" x="183.447266"/>
     <use xlink:href="#ArialMT-4f" x="250.146484"/>
    </g>
   </g>
   <g id="text_26">
    <!-- 4_PO -->
    <g transform="translate(197.218613 235.070705) scale(0.08 -0.08)">
     <use xlink:href="#ArialMT-34"/>
     <use xlink:href="#ArialMT-5f" x="55.615234"/>
     <use xlink:href="#ArialMT-50" x="111.230469"/>
     <use xlink:href="#ArialMT-4f" x="177.929688"/>
    </g>
   </g>
   <g id="text_27">
    <!-- 5_NPO -->
    <g transform="translate(401.342528 107.08673) scale(0.08 -0.08)">
     <use xlink:href="#ArialMT-35"/>
     <use xlink:href="#ArialMT-5f" x="55.615234"/>
     <use xlink:href="#ArialMT-4e" x="111.230469"/>
     <use xlink:href="#ArialMT-50" x="183.447266"/>
     <use xlink:href="#ArialMT-4f" x="250.146484"/>
    </g>
   </g>
   <g id="text_28">
    <!-- 5_PO -->
    <g transform="translate(100.527316 148.731647) scale(0.08 -0.08)">
     <use xlink:href="#ArialMT-35"/>
     <use xlink:href="#ArialMT-5f" x="55.615234"/>
     <use xlink:href="#ArialMT-50" x="111.230469"/>
     <use xlink:href="#ArialMT-4f" x="177.929688"/>
    </g>
   </g>
   <g id="text_29">
    <!-- 6_NPO -->
    <g transform="translate(360.305739 93.081196) scale(0.08 -0.08)">
     <defs>
      <path id="ArialMT-36" d="M 3184 3459 
L 2625 3416 
Q 2550 3747 2413 3897 
Q 2184 4138 1850 4138 
Q 1581 4138 1378 3988 
Q 1113 3794 959 3422 
Q 806 3050 800 2363 
Q 1003 2672 1297 2822 
Q 1591 2972 1913 2972 
Q 2475 2972 2870 2558 
Q 3266 2144 3266 1488 
Q 3266 1056 3080 686 
Q 2894 316 2569 119 
Q 2244 -78 1831 -78 
Q 1128 -78 684 439 
Q 241 956 241 2144 
Q 241 3472 731 4075 
Q 1159 4600 1884 4600 
Q 2425 4600 2770 4297 
Q 3116 3994 3184 3459 
z
M 888 1484 
Q 888 1194 1011 928 
Q 1134 663 1356 523 
Q 1578 384 1822 384 
Q 2178 384 2434 671 
Q 2691 959 2691 1453 
Q 2691 1928 2437 2201 
Q 2184 2475 1800 2475 
Q 1419 2475 1153 2201 
Q 888 1928 888 1484 
z
" transform="scale(0.015625)"/>
     </defs>
     <use xlink:href="#ArialMT-36"/>
     <use xlink:href="#ArialMT-5f" x="55.615234"/>
     <use xlink:href="#ArialMT-4e" x="111.230469"/>
     <use xlink:href="#ArialMT-50" x="183.447266"/>
     <use xlink:href="#ArialMT-4f" x="250.146484"/>
    </g>
   </g>
   <g id="text_30">
    <!-- 6_PO -->
    <g transform="translate(76.9835 205.768526) scale(0.08 -0.08)">
     <use xlink:href="#ArialMT-36"/>
     <use xlink:href="#ArialMT-5f" x="55.615234"/>
     <use xlink:href="#ArialMT-50" x="111.230469"/>
     <use xlink:href="#ArialMT-4f" x="177.929688"/>
    </g>
   </g>
   <g id="text_31">
    <!-- 7_NPO -->
    <g transform="translate(345.588504 136.618976) scale(0.08 -0.08)">
     <use xlink:href="#ArialMT-37"/>
     <use xlink:href="#ArialMT-5f" x="55.615234"/>
     <use xlink:href="#ArialMT-4e" x="111.230469"/>
     <use xlink:href="#ArialMT-50" x="183.447266"/>
     <use xlink:href="#ArialMT-4f" x="250.146484"/>
    </g>
   </g>
   <g id="text_32">
    <!-- 7_PO -->
    <g transform="translate(97.787401 236.173232) scale(0.08 -0.08)">
     <use xlink:href="#ArialMT-37"/>
     <use xlink:href="#ArialMT-5f" x="55.615234"/>
     <use xlink:href="#ArialMT-50" x="111.230469"/>
     <use xlink:href="#ArialMT-4f" x="177.929688"/>
    </g>
   </g>
   <g id="text_33">
    <!-- 8_NPO -->
    <g transform="translate(264.963705 149.540812) scale(0.08 -0.08)">
     <defs>
      <path id="ArialMT-38" d="M 1131 2484 
Q 781 2613 612 2850 
Q 444 3088 444 3419 
Q 444 3919 803 4259 
Q 1163 4600 1759 4600 
Q 2359 4600 2725 4251 
Q 3091 3903 3091 3403 
Q 3091 3084 2923 2848 
Q 2756 2613 2416 2484 
Q 2838 2347 3058 2040 
Q 3278 1734 3278 1309 
Q 3278 722 2862 322 
Q 2447 -78 1769 -78 
Q 1091 -78 675 323 
Q 259 725 259 1325 
Q 259 1772 486 2073 
Q 713 2375 1131 2484 
z
M 1019 3438 
Q 1019 3113 1228 2906 
Q 1438 2700 1772 2700 
Q 2097 2700 2305 2904 
Q 2513 3109 2513 3406 
Q 2513 3716 2298 3927 
Q 2084 4138 1766 4138 
Q 1444 4138 1231 3931 
Q 1019 3725 1019 3438 
z
M 838 1322 
Q 838 1081 952 856 
Q 1066 631 1291 507 
Q 1516 384 1775 384 
Q 2178 384 2440 643 
Q 2703 903 2703 1303 
Q 2703 1709 2433 1975 
Q 2163 2241 1756 2241 
Q 1359 2241 1098 1978 
Q 838 1716 838 1322 
z
" transform="scale(0.015625)"/>
     </defs>
     <use xlink:href="#ArialMT-38"/>
     <use xlink:href="#ArialMT-5f" x="55.615234"/>
     <use xlink:href="#ArialMT-4e" x="111.230469"/>
     <use xlink:href="#ArialMT-50" x="183.447266"/>
     <use xlink:href="#ArialMT-4f" x="250.146484"/>
    </g>
   </g>
   <g id="text_34">
    <!-- 8_PO -->
    <g transform="translate(91.377757 285.329091) scale(0.08 -0.08)">
     <use xlink:href="#ArialMT-38"/>
     <use xlink:href="#ArialMT-5f" x="55.615234"/>
     <use xlink:href="#ArialMT-50" x="111.230469"/>
     <use xlink:href="#ArialMT-4f" x="177.929688"/>
    </g>
   </g>
   <g id="text_35">
    <!-- 9_NPO -->
    <g transform="translate(381.00779 128.525192) scale(0.08 -0.08)">
     <defs>
      <path id="ArialMT-39" d="M 350 1059 
L 891 1109 
Q 959 728 1153 556 
Q 1347 384 1650 384 
Q 1909 384 2104 503 
Q 2300 622 2425 820 
Q 2550 1019 2634 1356 
Q 2719 1694 2719 2044 
Q 2719 2081 2716 2156 
Q 2547 1888 2255 1720 
Q 1963 1553 1622 1553 
Q 1053 1553 659 1965 
Q 266 2378 266 3053 
Q 266 3750 677 4175 
Q 1088 4600 1706 4600 
Q 2153 4600 2523 4359 
Q 2894 4119 3086 3673 
Q 3278 3228 3278 2384 
Q 3278 1506 3087 986 
Q 2897 466 2520 194 
Q 2144 -78 1638 -78 
Q 1100 -78 759 220 
Q 419 519 350 1059 
z
M 2653 3081 
Q 2653 3566 2395 3850 
Q 2138 4134 1775 4134 
Q 1400 4134 1122 3828 
Q 844 3522 844 3034 
Q 844 2597 1108 2323 
Q 1372 2050 1759 2050 
Q 2150 2050 2401 2323 
Q 2653 2597 2653 3081 
z
" transform="scale(0.015625)"/>
     </defs>
     <use xlink:href="#ArialMT-39"/>
     <use xlink:href="#ArialMT-5f" x="55.615234"/>
     <use xlink:href="#ArialMT-4e" x="111.230469"/>
     <use xlink:href="#ArialMT-50" x="183.447266"/>
     <use xlink:href="#ArialMT-4f" x="250.146484"/>
    </g>
   </g>
   <g id="text_36">
    <!-- 9_PO -->
    <g transform="translate(119.387409 261.03483) scale(0.08 -0.08)">
     <use xlink:href="#ArialMT-39"/>
     <use xlink:href="#ArialMT-5f" x="55.615234"/>
     <use xlink:href="#ArialMT-50" x="111.230469"/>
     <use xlink:href="#ArialMT-4f" x="177.929688"/>
    </g>
   </g>
   <g id="text_37">
    <!-- 10_NPO -->
    <g transform="translate(299.338052 45.114094) scale(0.08 -0.08)">
     <use xlink:href="#ArialMT-31"/>
     <use xlink:href="#ArialMT-30" x="55.615234"/>
     <use xlink:href="#ArialMT-5f" x="111.230469"/>
     <use xlink:href="#ArialMT-4e" x="166.845703"/>
     <use xlink:href="#ArialMT-50" x="239.0625"/>
     <use xlink:href="#ArialMT-4f" x="305.761719"/>
    </g>
   </g>
   <g id="text_38">
    <!-- 10_PO -->
    <g transform="translate(82.122441 147.428523) scale(0.08 -0.08)">
     <use xlink:href="#ArialMT-31"/>
     <use xlink:href="#ArialMT-30" x="55.615234"/>
     <use xlink:href="#ArialMT-5f" x="111.230469"/>
     <use xlink:href="#ArialMT-50" x="166.845703"/>
     <use xlink:href="#ArialMT-4f" x="233.544922"/>
    </g>
   </g>
   <g id="text_39">
    <!-- 11_NPO -->
    <g transform="translate(292.689777 125.825747) scale(0.08 -0.08)">
     <use xlink:href="#ArialMT-31"/>
     <use xlink:href="#ArialMT-31" x="48.240234"/>
     <use xlink:href="#ArialMT-5f" x="103.855469"/>
     <use xlink:href="#ArialMT-4e" x="159.470703"/>
     <use xlink:href="#ArialMT-50" x="231.6875"/>
     <use xlink:href="#ArialMT-4f" x="298.386719"/>
    </g>
   </g>
   <g id="text_40">
    <!-- 11_PO -->
    <g transform="translate(217.164549 193.106935) scale(0.08 -0.08)">
     <use xlink:href="#ArialMT-31"/>
     <use xlink:href="#ArialMT-31" x="48.240234"/>
     <use xlink:href="#ArialMT-5f" x="103.855469"/>
     <use xlink:href="#ArialMT-50" x="159.470703"/>
     <use xlink:href="#ArialMT-4f" x="226.169922"/>
    </g>
   </g>
   <g id="text_41">
    <!-- 12_NPO -->
    <g transform="translate(272.996658 184.346195) scale(0.08 -0.08)">
     <use xlink:href="#ArialMT-31"/>
     <use xlink:href="#ArialMT-32" x="55.615234"/>
     <use xlink:href="#ArialMT-5f" x="111.230469"/>
     <use xlink:href="#ArialMT-4e" x="166.845703"/>
     <use xlink:href="#ArialMT-50" x="239.0625"/>
     <use xlink:href="#ArialMT-4f" x="305.761719"/>
    </g>
   </g>
   <g id="text_42">
    <!-- 12_PO -->
    <g transform="translate(161.308063 201.980333) scale(0.08 -0.08)">
     <use xlink:href="#ArialMT-31"/>
     <use xlink:href="#ArialMT-32" x="55.615234"/>
     <use xlink:href="#ArialMT-5f" x="111.230469"/>
     <use xlink:href="#ArialMT-50" x="166.845703"/>
     <use xlink:href="#ArialMT-4f" x="233.544922"/>
    </g>
   </g>
   <g id="text_43">
    <!-- 13_NPO -->
    <g transform="translate(400.617423 189.565624) scale(0.08 -0.08)">
     <use xlink:href="#ArialMT-31"/>
     <use xlink:href="#ArialMT-33" x="55.615234"/>
     <use xlink:href="#ArialMT-5f" x="111.230469"/>
     <use xlink:href="#ArialMT-4e" x="166.845703"/>
     <use xlink:href="#ArialMT-50" x="239.0625"/>
     <use xlink:href="#ArialMT-4f" x="305.761719"/>
    </g>
   </g>
   <g id="text_44">
    <!-- 13_PO -->
    <g transform="translate(195.486762 180.359725) scale(0.08 -0.08)">
     <use xlink:href="#ArialMT-31"/>
     <use xlink:href="#ArialMT-33" x="55.615234"/>
     <use xlink:href="#ArialMT-5f" x="111.230469"/>
     <use xlink:href="#ArialMT-50" x="166.845703"/>
     <use xlink:href="#ArialMT-4f" x="233.544922"/>
    </g>
   </g>
   <g id="text_45">
    <!-- 14_NPO -->
    <g transform="translate(417.040114 138.847348) scale(0.08 -0.08)">
     <use xlink:href="#ArialMT-31"/>
     <use xlink:href="#ArialMT-34" x="55.615234"/>
     <use xlink:href="#ArialMT-5f" x="111.230469"/>
     <use xlink:href="#ArialMT-4e" x="166.845703"/>
     <use xlink:href="#ArialMT-50" x="239.0625"/>
     <use xlink:href="#ArialMT-4f" x="305.761719"/>
    </g>
   </g>
   <g id="text_46">
    <!-- 14_PO -->
    <g transform="translate(121.288563 134.260815) scale(0.08 -0.08)">
     <use xlink:href="#ArialMT-31"/>
     <use xlink:href="#ArialMT-34" x="55.615234"/>
     <use xlink:href="#ArialMT-5f" x="111.230469"/>
     <use xlink:href="#ArialMT-50" x="166.845703"/>
     <use xlink:href="#ArialMT-4f" x="233.544922"/>
    </g>
   </g>
   <g id="text_47">
    <!-- 15_NPO -->
    <g transform="translate(384.505755 176.932552) scale(0.08 -0.08)">
     <use xlink:href="#ArialMT-31"/>
     <use xlink:href="#ArialMT-35" x="55.615234"/>
     <use xlink:href="#ArialMT-5f" x="111.230469"/>
     <use xlink:href="#ArialMT-4e" x="166.845703"/>
     <use xlink:href="#ArialMT-50" x="239.0625"/>
     <use xlink:href="#ArialMT-4f" x="305.761719"/>
    </g>
   </g>
   <g id="text_48">
    <!-- 15_PO -->
    <g transform="translate(67.556136 234.158397) scale(0.08 -0.08)">
     <use xlink:href="#ArialMT-31"/>
     <use xlink:href="#ArialMT-35" x="55.615234"/>
     <use xlink:href="#ArialMT-5f" x="111.230469"/>
     <use xlink:href="#ArialMT-50" x="166.845703"/>
     <use xlink:href="#ArialMT-4f" x="233.544922"/>
    </g>
   </g>
   <g id="text_49">
    <!-- 16_NPO -->
    <g transform="translate(317.412357 19.110909) scale(0.08 -0.08)">
     <use xlink:href="#ArialMT-31"/>
     <use xlink:href="#ArialMT-36" x="55.615234"/>
     <use xlink:href="#ArialMT-5f" x="111.230469"/>
     <use xlink:href="#ArialMT-4e" x="166.845703"/>
     <use xlink:href="#ArialMT-50" x="239.0625"/>
     <use xlink:href="#ArialMT-4f" x="305.761719"/>
    </g>
   </g>
   <g id="text_50">
    <!-- 16_PO -->
    <g transform="translate(108.555523 203.878409) scale(0.08 -0.08)">
     <use xlink:href="#ArialMT-31"/>
     <use xlink:href="#ArialMT-36" x="55.615234"/>
     <use xlink:href="#ArialMT-5f" x="111.230469"/>
     <use xlink:href="#ArialMT-50" x="166.845703"/>
     <use xlink:href="#ArialMT-4f" x="233.544922"/>
    </g>
   </g>
   <g id="text_51">
    <!-- 17_NPO -->
    <g transform="translate(281.022842 88.211632) scale(0.08 -0.08)">
     <use xlink:href="#ArialMT-31"/>
     <use xlink:href="#ArialMT-37" x="55.615234"/>
     <use xlink:href="#ArialMT-5f" x="111.230469"/>
     <use xlink:href="#ArialMT-4e" x="166.845703"/>
     <use xlink:href="#ArialMT-50" x="239.0625"/>
     <use xlink:href="#ArialMT-4f" x="305.761719"/>
    </g>
   </g>
   <g id="text_52">
    <!-- 17_PO -->
    <g transform="translate(93.231622 252.560412) scale(0.08 -0.08)">
     <use xlink:href="#ArialMT-31"/>
     <use xlink:href="#ArialMT-37" x="55.615234"/>
     <use xlink:href="#ArialMT-5f" x="111.230469"/>
     <use xlink:href="#ArialMT-50" x="166.845703"/>
     <use xlink:href="#ArialMT-4f" x="233.544922"/>
    </g>
   </g>
   <g id="text_53">
    <!-- 18_NPO -->
    <g transform="translate(401.053513 146.935972) scale(0.08 -0.08)">
     <use xlink:href="#ArialMT-31"/>
     <use xlink:href="#ArialMT-38" x="55.615234"/>
     <use xlink:href="#ArialMT-5f" x="111.230469"/>
     <use xlink:href="#ArialMT-4e" x="166.845703"/>
     <use xlink:href="#ArialMT-50" x="239.0625"/>
     <use xlink:href="#ArialMT-4f" x="305.761719"/>
    </g>
   </g>
   <g id="text_54">
    <!-- 18_PO -->
    <g transform="translate(138.089732 249.860113) scale(0.08 -0.08)">
     <use xlink:href="#ArialMT-31"/>
     <use xlink:href="#ArialMT-38" x="55.615234"/>
     <use xlink:href="#ArialMT-5f" x="111.230469"/>
     <use xlink:href="#ArialMT-50" x="166.845703"/>
     <use xlink:href="#ArialMT-4f" x="233.544922"/>
    </g>
   </g>
   <g id="legend_1">
    <g id="patch_7">
     <path d="M 69.39 103.671875 
L 138.07125 103.671875 
Q 140.07125 103.671875 140.07125 101.671875 
L 140.07125 17.8 
Q 140.07125 15.8 138.07125 15.8 
L 69.39 15.8 
Q 67.39 15.8 67.39 17.8 
L 67.39 101.671875 
Q 67.39 103.671875 69.39 103.671875 
z
" style="fill: #ffffff; opacity: 0.8; stroke: #cccccc; stroke-linejoin: miter"/>
    </g>
    <g id="PathCollection_7">
     <g>
      <use xlink:href="#mbbcdbf4987" x="81.39" y="24.332813" style="fill: #1f77b4; stroke: #1f77b4"/>
     </g>
    </g>
    <g id="text_55">
     <!-- Mut-1h -->
     <g transform="translate(99.39 26.957813) scale(0.1 -0.1)">
      <defs>
       <path id="ArialMT-75" d="M 2597 0 
L 2597 488 
Q 2209 -75 1544 -75 
Q 1250 -75 995 37 
Q 741 150 617 320 
Q 494 491 444 738 
Q 409 903 409 1263 
L 409 3319 
L 972 3319 
L 972 1478 
Q 972 1038 1006 884 
Q 1059 663 1231 536 
Q 1403 409 1656 409 
Q 1909 409 2131 539 
Q 2353 669 2445 892 
Q 2538 1116 2538 1541 
L 2538 3319 
L 3100 3319 
L 3100 0 
L 2597 0 
z
" transform="scale(0.015625)"/>
       <path id="ArialMT-74" d="M 1650 503 
L 1731 6 
Q 1494 -44 1306 -44 
Q 1000 -44 831 53 
Q 663 150 594 308 
Q 525 466 525 972 
L 525 2881 
L 113 2881 
L 113 3319 
L 525 3319 
L 525 4141 
L 1084 4478 
L 1084 3319 
L 1650 3319 
L 1650 2881 
L 1084 2881 
L 1084 941 
Q 1084 700 1114 631 
Q 1144 563 1211 522 
Q 1278 481 1403 481 
Q 1497 481 1650 503 
z
" transform="scale(0.015625)"/>
       <path id="ArialMT-2d" d="M 203 1375 
L 203 1941 
L 1931 1941 
L 1931 1375 
L 203 1375 
z
" transform="scale(0.015625)"/>
       <path id="ArialMT-68" d="M 422 0 
L 422 4581 
L 984 4581 
L 984 2938 
Q 1378 3394 1978 3394 
Q 2347 3394 2619 3248 
Q 2891 3103 3008 2847 
Q 3125 2591 3125 2103 
L 3125 0 
L 2563 0 
L 2563 2103 
Q 2563 2525 2380 2717 
Q 2197 2909 1863 2909 
Q 1613 2909 1392 2779 
Q 1172 2650 1078 2428 
Q 984 2206 984 1816 
L 984 0 
L 422 0 
z
" transform="scale(0.015625)"/>
      </defs>
      <use xlink:href="#ArialMT-4d"/>
      <use xlink:href="#ArialMT-75" x="83.300781"/>
      <use xlink:href="#ArialMT-74" x="138.916016"/>
      <use xlink:href="#ArialMT-2d" x="166.699219"/>
      <use xlink:href="#ArialMT-31" x="200"/>
      <use xlink:href="#ArialMT-68" x="255.615234"/>
     </g>
    </g>
    <g id="PathCollection_8">
     <g>
      <use xlink:href="#m7355186c04" x="81.39" y="38.478125" style="fill: #ff7f0e; stroke: #ff7f0e"/>
     </g>
    </g>
    <g id="text_56">
     <!-- Mut-3h -->
     <g transform="translate(99.39 41.103125) scale(0.1 -0.1)">
      <use xlink:href="#ArialMT-4d"/>
      <use xlink:href="#ArialMT-75" x="83.300781"/>
      <use xlink:href="#ArialMT-74" x="138.916016"/>
      <use xlink:href="#ArialMT-2d" x="166.699219"/>
      <use xlink:href="#ArialMT-33" x="200"/>
      <use xlink:href="#ArialMT-68" x="255.615234"/>
     </g>
    </g>
    <g id="PathCollection_9">
     <g>
      <use xlink:href="#m3f4a197606" x="81.39" y="52.623438" style="fill: #2ca02c; stroke: #2ca02c"/>
     </g>
    </g>
    <g id="text_57">
     <!-- Mut-24h -->
     <g transform="translate(99.39 55.248438) scale(0.1 -0.1)">
      <use xlink:href="#ArialMT-4d"/>
      <use xlink:href="#ArialMT-75" x="83.300781"/>
      <use xlink:href="#ArialMT-74" x="138.916016"/>
      <use xlink:href="#ArialMT-2d" x="166.699219"/>
      <use xlink:href="#ArialMT-32" x="200"/>
      <use xlink:href="#ArialMT-34" x="255.615234"/>
      <use xlink:href="#ArialMT-68" x="311.230469"/>
     </g>
    </g>
    <g id="PathCollection_10">
     <g>
      <use xlink:href="#m87051e3d0a" x="81.39" y="66.76875" style="fill: #d62728; stroke: #d62728"/>
     </g>
    </g>
    <g id="text_58">
     <!-- WT-1h -->
     <g transform="translate(99.39 69.39375) scale(0.1 -0.1)">
      <defs>
       <path id="ArialMT-57" d="M 1294 0 
L 78 4581 
L 700 4581 
L 1397 1578 
Q 1509 1106 1591 641 
Q 1766 1375 1797 1488 
L 2669 4581 
L 3400 4581 
L 4056 2263 
Q 4303 1400 4413 641 
Q 4500 1075 4641 1638 
L 5359 4581 
L 5969 4581 
L 4713 0 
L 4128 0 
L 3163 3491 
Q 3041 3928 3019 4028 
Q 2947 3713 2884 3491 
L 1913 0 
L 1294 0 
z
" transform="scale(0.015625)"/>
       <path id="ArialMT-54" d="M 1659 0 
L 1659 4041 
L 150 4041 
L 150 4581 
L 3781 4581 
L 3781 4041 
L 2266 4041 
L 2266 0 
L 1659 0 
z
" transform="scale(0.015625)"/>
      </defs>
      <use xlink:href="#ArialMT-57"/>
      <use xlink:href="#ArialMT-54" x="94.384766"/>
      <use xlink:href="#ArialMT-2d" x="149.96875"/>
      <use xlink:href="#ArialMT-31" x="183.269531"/>
      <use xlink:href="#ArialMT-68" x="238.884766"/>
     </g>
    </g>
    <g id="PathCollection_11">
     <g>
      <use xlink:href="#made53377a0" x="81.39" y="80.914063" style="fill: #9467bd; stroke: #9467bd"/>
     </g>
    </g>
    <g id="text_59">
     <!-- WT-3h -->
     <g transform="translate(99.39 83.539063) scale(0.1 -0.1)">
      <use xlink:href="#ArialMT-57"/>
      <use xlink:href="#ArialMT-54" x="94.384766"/>
      <use xlink:href="#ArialMT-2d" x="149.96875"/>
      <use xlink:href="#ArialMT-33" x="183.269531"/>
      <use xlink:href="#ArialMT-68" x="238.884766"/>
     </g>
    </g>
    <g id="PathCollection_12">
     <g>
      <use xlink:href="#ma455092921" x="81.39" y="95.059375" style="fill: #8c564b; stroke: #8c564b"/>
     </g>
    </g>
    <g id="text_60">
     <!-- WT-24h -->
     <g transform="translate(99.39 97.684375) scale(0.1 -0.1)">
      <use xlink:href="#ArialMT-57"/>
      <use xlink:href="#ArialMT-54" x="94.384766"/>
      <use xlink:href="#ArialMT-2d" x="149.96875"/>
      <use xlink:href="#ArialMT-32" x="183.269531"/>
      <use xlink:href="#ArialMT-34" x="238.884766"/>
      <use xlink:href="#ArialMT-68" x="294.5"/>
     </g>
    </g>
   </g>
  </g>
 </g>
 <defs>
  <clipPath id="p9401c68680">
   <rect x="62.39" y="10.8" width="387.61" height="292.84"/>
  </clipPath>
 </defs>
</svg>
