<?xml version="1.0" encoding="utf-8" standalone="no"?>
<!DOCTYPE svg PUBLIC "-//W3C//DTD SVG 1.1//EN"
  "http://www.w3.org/Graphics/SVG/1.1/DTD/svg11.dtd">
<svg xmlns:xlink="http://www.w3.org/1999/xlink" width="720pt" height="432pt" viewBox="0 0 720 432" xmlns="http://www.w3.org/2000/svg" version="1.1">
 <metadata>
  <rdf:RDF xmlns:dc="http://purl.org/dc/elements/1.1/" xmlns:cc="http://creativecommons.org/ns#" xmlns:rdf="http://www.w3.org/1999/02/22-rdf-syntax-ns#">
   <cc:Work>
    <dc:type rdf:resource="http://purl.org/dc/dcmitype/StillImage"/>
    <dc:date>2023-06-23T17:21:38.317241</dc:date>
    <dc:format>image/svg+xml</dc:format>
    <dc:creator>
     <cc:Agent>
      <dc:title>Matplotlib v3.7.1, https://matplotlib.org/</dc:title>
     </cc:Agent>
    </dc:creator>
   </cc:Work>
  </rdf:RDF>
 </metadata>
 <defs>
  <style type="text/css">*{stroke-linejoin: round; stroke-linecap: butt}</style>
 </defs>
 <g id="figure_1">
  <g id="patch_1">
   <path d="M 0 432 
L 720 432 
L 720 0 
L 0 0 
z
" style="fill: #ffffff"/>
  </g>
  <g id="axes_1">
   <g id="patch_2">
    <path d="M 90 384.48 
L 648 384.48 
L 648 51.84 
L 90 51.84 
z
" style="fill: #ffffff"/>
   </g>
   <g id="patch_3">
    <path d="M 307 384.48 
L 369 384.48 
L 369 51.84 
L 307 51.84 
z
" clip-path="url(#p88bb246bbe)" style="fill: #ffd700; opacity: 0.35; stroke: #ffffff; stroke-width: 0.8; stroke-linejoin: miter"/>
   </g>
   <g id="line2d_1">
    <path d="M 90 384.48 
L 648 384.48 
" clip-path="url(#p88bb246bbe)" style="fill: none; stroke: #000000; stroke-width: 0.5; stroke-linecap: round"/>
   </g>
   <g id="patch_4">
    <path d="M 140.091481 380.672846 
L 140.091481 383.467266 
L 145.265444 383.467266 
Q 154.112802 383.467266 158.782574 383.108026 
Q 163.464351 382.748785 163.464351 382.064658 
Q 163.464351 381.384456 158.806583 381.029142 
Q 154.16082 380.672846 145.265444 380.672846 
L 140.091481 380.672846 
z
M 125.65 379.779652 
L 140.871777 379.779652 
Q 153.63262 379.779652 159.874989 379.928845 
Q 166.117358 380.077056 170.583052 380.433352 
Q 174.520547 380.743516 176.429271 381.148889 
Q 178.35 381.55328 178.35 382.064658 
Q 178.35 382.583888 176.429271 382.990242 
Q 174.520547 383.396596 170.583052 383.705778 
Q 166.081344 384.062074 159.778952 384.211267 
Q 153.47656 384.359478 140.871777 384.359478 
L 125.65 384.359478 
L 125.65 379.779652 
z
" clip-path="url(#p88bb246bbe)" style="fill: #6b296b"/>
   </g>
   <g id="patch_5">
    <path d="M 147.032787 376.989571 
Q 151.762274 376.989571 153.814221 376.852157 
Q 155.866168 376.713761 155.866168 376.397708 
Q 155.866168 376.084599 153.814221 375.950129 
Q 151.762274 375.814678 147.032787 375.814678 
L 140.701781 375.814678 
L 140.701781 376.989571 
L 147.032787 376.989571 
z
M 140.701781 377.805224 
L 140.701781 379.538609 
L 125.65 379.538609 
L 125.65 374.958783 
L 148.634307 374.958783 
Q 160.170252 374.958783 165.537844 375.263057 
Q 170.917949 375.566351 170.917949 376.222995 
Q 170.917949 376.676463 168.11529 376.967978 
Q 165.325142 377.259492 159.694801 377.397888 
Q 162.785233 377.452854 165.225047 377.648179 
Q 167.677374 377.842522 170.179748 378.238079 
L 178.35 379.538609 
L 162.322293 379.538609 
L 155.203039 378.401014 
Q 153.050997 378.057478 150.836396 377.931842 
Q 148.634307 377.805224 144.955817 377.805224 
L 140.701781 377.805224 
z
" clip-path="url(#p88bb246bbe)" style="fill: #bd2e1f"/>
   </g>
   <g id="patch_6">
    <path d="M 125.65 370.137913 
L 141.195992 370.137913 
L 151.979692 372.588797 
L 162.83447 370.137913 
L 178.35 370.137913 
L 178.35 374.717739 
L 166.80474 374.717739 
L 166.80474 371.367772 
L 155.889037 373.837305 
L 148.141426 373.837305 
L 137.225723 371.367772 
L 137.225723 374.717739 
L 125.65 374.717739 
L 125.65 370.137913 
z
" clip-path="url(#p88bb246bbe)" style="fill: #21599c"/>
   </g>
   <g id="patch_7">
    <path d="M 125.65 365.317043 
L 178.35 365.317043 
L 178.35 366.210237 
L 159.390256 366.210237 
L 159.390256 369.89687 
L 144.646512 369.89687 
L 144.646512 366.210237 
L 125.65 366.210237 
L 125.65 365.317043 
z
" clip-path="url(#p88bb246bbe)" style="fill: #40ba47"/>
   </g>
   <g id="patch_8">
    <path d="M 142.437692 355.795826 
L 161.562308 355.795826 
L 161.562308 364.955478 
L 142.437692 364.955478 
L 142.437692 355.795826 
z
" clip-path="url(#p88bb246bbe)" style="fill: #21599c"/>
   </g>
   <g id="patch_9">
    <path d="M 153.405333 353.13858 
L 152.373292 353.13858 
Q 139.714313 353.13858 132.676667 351.598811 
Q 125.65 350.056625 125.65 347.308246 
Q 125.65 344.564701 132.665687 343.010429 
Q 139.681375 341.453739 152 341.453739 
Q 164.450375 341.453739 171.400188 342.995925 
Q 178.35 344.535695 178.35 347.308246 
Q 178.35 349.210598 174.661 350.585996 
Q 170.972 351.961394 164.044146 352.655136 
L 174.364563 355.193217 
L 161.771458 355.193217 
L 153.405333 353.13858 
z
M 152 343.561555 
Q 145.961458 343.561555 142.634771 344.542946 
Q 139.308083 345.524338 139.308083 347.308246 
Q 139.308083 349.121161 142.557917 350.085632 
Q 145.818729 351.047685 152 351.047685 
Q 158.071479 351.047685 161.398167 350.066294 
Q 164.724854 349.082485 164.724854 347.308246 
Q 164.724854 345.524338 161.398167 344.542946 
Q 158.071479 343.561555 152 343.561555 
z
" clip-path="url(#p88bb246bbe)" style="fill: #40ba47"/>
   </g>
   <g id="patch_10">
    <path d="M 125.65 326.99113 
L 138.68762 326.99113 
L 152.016162 337.132314 
L 165.323155 326.99113 
L 178.35 326.99113 
L 159.730985 340.730609 
L 144.269015 340.730609 
L 125.65 326.99113 
z
" clip-path="url(#p88bb246bbe)" style="fill: #21599c"/>
   </g>
   <g id="patch_11">
    <path d="M 125.65 307.828174 
L 142.578032 307.828174 
L 163.968106 320.391777 
L 163.968106 307.828174 
L 178.35 307.828174 
L 178.35 326.147478 
L 161.409364 326.147478 
L 140.01929 313.583875 
L 140.01929 326.147478 
L 125.65 326.147478 
L 125.65 307.828174 
z
" clip-path="url(#p88bb246bbe)" style="fill: #40ba47"/>
   </g>
   <g id="patch_12">
    <path d="M 125.65 288.544696 
L 153.043021 288.544696 
Q 165.271068 288.544696 171.803672 290.099442 
Q 178.35 291.650261 178.35 294.52026 
Q 178.35 297.405962 171.803672 298.956782 
Q 165.271068 300.507602 153.043021 300.507602 
L 142.159922 300.507602 
L 142.159922 306.864 
L 125.65 306.864 
L 125.65 288.544696 
z
M 142.159922 291.968278 
L 142.159922 297.08402 
L 151.286354 297.08402 
Q 156.08974 297.08402 158.711016 296.416578 
Q 161.332292 295.749137 161.332292 294.52026 
Q 161.332292 293.295308 158.711016 292.631793 
Q 156.08974 291.968278 151.286354 291.968278 
L 142.159922 291.968278 
z
" clip-path="url(#p88bb246bbe)" style="fill: #787800"/>
   </g>
   <g id="patch_13">
    <path d="M 126.198462 269.261217 
L 177.801538 269.261217 
L 177.801538 272.833992 
L 145.323077 272.833992 
L 145.323077 276.24187 
L 175.877949 276.24187 
L 175.877949 279.814644 
L 145.323077 279.814644 
L 145.323077 287.580522 
L 126.198462 287.580522 
L 126.198462 269.261217 
z
" clip-path="url(#p88bb246bbe)" style="fill: #21599c"/>
   </g>
   <g id="patch_14">
    <path d="M 173.955948 250.851889 
L 173.955948 254.590677 
Q 168.459804 253.939795 163.221293 253.61057 
Q 157.997094 253.27756 153.34541 253.27756 
Q 147.176562 253.27756 144.213797 253.72788 
Q 141.265345 254.174415 141.265345 255.120465 
Q 141.265345 255.831894 143.254834 256.229235 
Q 145.244324 256.622791 150.482835 256.906606 
L 157.811027 257.296379 
Q 168.946442 257.890498 173.641065 259.097657 
Q 178.35 260.301032 178.35 262.526141 
Q 178.35 265.443758 171.794704 266.870401 
Q 165.239408 268.297043 151.770994 268.297043 
Q 145.430391 268.297043 139.032537 267.975387 
Q 132.634682 267.657514 126.236828 267.029337 
L 126.236828 263.188376 
Q 132.634682 264.085231 138.60315 264.543119 
Q 144.571619 264.997222 150.125014 264.997222 
Q 155.764286 264.997222 158.755676 264.501493 
Q 161.747067 264.001978 161.747067 263.078634 
Q 161.747067 262.253679 159.714639 261.803359 
Q 157.682211 261.353039 151.59924 260.997325 
L 144.929441 260.607552 
Q 134.910429 260.039923 130.273058 258.798706 
Q 125.65 257.557488 125.65 255.453474 
Q 125.65 252.815888 132.090793 251.396814 
Q 138.531586 249.977739 150.611651 249.977739 
Q 156.122108 249.977739 161.933134 250.197223 
Q 167.744161 250.416706 173.955948 250.851889 
z
" clip-path="url(#p88bb246bbe)" style="fill: #40ba47"/>
   </g>
   <g id="patch_15">
    <path d="M 125.65 230.694261 
L 139.537864 230.694261 
L 139.537864 237.380454 
L 159.555783 230.694261 
L 175.683253 230.694261 
L 149.743078 239.371 
L 178.35 249.013565 
L 160.964195 249.013565 
L 139.537864 241.797345 
L 139.537864 249.013565 
L 125.65 249.013565 
L 125.65 230.694261 
z
" clip-path="url(#p88bb246bbe)" style="fill: #bd2e1f"/>
   </g>
   <g id="patch_16">
    <path d="M 178.35 226.467934 
Q 173.035119 227.918228 167.318669 228.646686 
Q 161.602219 229.368522 155.507822 229.368522 
Q 141.736374 229.368522 133.693187 225.050751 
Q 125.65 220.732981 125.65 213.349064 
Q 125.65 205.879056 133.834917 201.594398 
Q 142.031645 197.309739 156.287338 197.309739 
Q 161.779381 197.309739 166.810802 197.892506 
Q 171.854034 198.46865 176.318534 199.607694 
L 176.318534 205.998259 
Q 171.712304 204.53472 167.153317 203.812884 
Q 162.59433 203.084426 158.011721 203.084426 
Q 149.531533 203.084426 144.937113 205.746609 
Q 140.342694 208.402171 140.342694 213.349064 
Q 140.342694 218.249601 144.771762 220.925029 
Q 149.200829 223.593835 157.350314 223.593835 
Q 159.570753 223.593835 161.472299 223.441521 
Q 163.373846 223.282585 164.885634 222.951467 
L 164.885634 216.951621 
L 156.204662 216.951621 
L 156.204662 211.607387 
L 178.35 211.607387 
L 178.35 226.467934 
z
" clip-path="url(#p88bb246bbe)" style="fill: #787800"/>
   </g>
   <g id="patch_17">
    <path d="M 125.65 158.863304 
L 177.253077 158.863304 
L 177.253077 166.008854 
L 144.774615 166.008854 
L 144.774615 172.824609 
L 175.329487 172.824609 
L 175.329487 179.970158 
L 144.774615 179.970158 
L 144.774615 188.364216 
L 178.35 188.364216 
L 178.35 195.501913 
L 125.65 195.501913 
L 125.65 158.863304 
z
" clip-path="url(#p88bb246bbe)" style="fill: #6b296b"/>
   </g>
   <g id="patch_18">
    <path d="M 162.155336 147.396072 
L 141.887763 147.396072 
L 138.68762 156.573391 
L 125.65 156.573391 
L 144.269015 106.195304 
L 159.730985 106.195304 
L 178.35 156.573391 
L 165.323155 156.573391 
L 162.155336 147.396072 
z
M 145.120231 138.046002 
L 158.890544 138.046002 
L 152.016162 118.007055 
L 145.120231 138.046002 
z
" clip-path="url(#p88bb246bbe)" style="fill: #21599c"/>
   </g>
   <g id="patch_19">
    <path d="M 125.65 53.165739 
L 144.774615 53.165739 
L 144.774615 93.729492 
L 178.35 93.729492 
L 178.35 103.543826 
L 125.65 103.543826 
L 125.65 53.165739 
z
" clip-path="url(#p88bb246bbe)" style="fill: #21599c"/>
   </g>
   <g id="patch_20">
    <path d="M 240.35 383.945109 
Q 235.035119 384.152293 229.318669 384.256359 
Q 223.602219 384.359478 217.507822 384.359478 
Q 203.736374 384.359478 195.693187 383.742654 
Q 187.65 383.12583 187.65 382.070984 
Q 187.65 381.00384 195.834917 380.391746 
Q 204.031645 379.779652 218.287338 379.779652 
Q 223.779381 379.779652 228.810802 379.862905 
Q 233.854034 379.945211 238.318534 380.107931 
L 238.318534 381.020869 
Q 233.712304 380.811792 229.153317 380.708673 
Q 224.59433 380.604607 220.011721 380.604607 
Q 211.531533 380.604607 206.937113 380.984919 
Q 202.342694 381.364285 202.342694 382.070984 
Q 202.342694 382.771061 206.771762 383.153265 
Q 211.200829 383.534523 219.350314 383.534523 
Q 221.570753 383.534523 223.472299 383.512764 
Q 225.373846 383.490059 226.885634 383.442756 
L 226.885634 382.585635 
L 218.204662 382.585635 
L 218.204662 381.822173 
L 240.35 381.822173 
L 240.35 383.945109 
z
" clip-path="url(#p88bb246bbe)" style="fill: #787800"/>
   </g>
   <g id="patch_21">
    <path d="M 215.405333 378.85373 
L 214.373292 378.85373 
Q 201.714313 378.85373 194.676667 378.340473 
Q 187.65 377.826411 187.65 376.910285 
Q 187.65 375.99577 194.665687 375.477679 
Q 201.681375 374.958783 214 374.958783 
Q 226.450375 374.958783 233.400187 375.472845 
Q 240.35 375.986101 240.35 376.910285 
Q 240.35 377.544402 236.661 378.002868 
Q 232.972 378.461334 226.044146 378.692582 
L 236.364562 379.538609 
L 223.771458 379.538609 
L 215.405333 378.85373 
z
M 214 375.661388 
Q 207.961458 375.661388 204.634771 375.988518 
Q 201.308083 376.315649 201.308083 376.910285 
Q 201.308083 377.51459 204.557917 377.83608 
Q 207.818729 378.156765 214 378.156765 
Q 220.071479 378.156765 223.398167 377.829634 
Q 226.724854 377.501698 226.724854 376.910285 
Q 226.724854 376.315649 223.398167 375.988518 
Q 220.071479 375.661388 214 375.661388 
z
" clip-path="url(#p88bb246bbe)" style="fill: #40ba47"/>
   </g>
   <g id="patch_22">
    <path d="M 202.091481 367.223953 
L 202.091481 372.812793 
L 207.265444 372.812793 
Q 216.112802 372.812793 220.782574 372.094312 
Q 225.464351 371.375831 225.464351 370.007576 
Q 225.464351 368.647173 220.806583 367.936544 
Q 216.16082 367.223953 207.265444 367.223953 
L 202.091481 367.223953 
z
M 187.65 365.437565 
L 202.871777 365.437565 
Q 215.63262 365.437565 221.874989 365.735951 
Q 228.117358 366.032373 232.583052 366.744965 
Q 236.520547 367.365293 238.429271 368.176038 
Q 240.35 368.98482 240.35 370.007576 
Q 240.35 371.046036 238.429271 371.858744 
Q 236.520547 372.671453 232.583052 373.289817 
Q 228.081344 374.002409 221.778952 374.300795 
Q 215.47656 374.597217 202.871777 374.597217 
L 187.65 374.597217 
L 187.65 365.437565 
z
" clip-path="url(#p88bb246bbe)" style="fill: #6b296b"/>
   </g>
   <g id="patch_23">
    <path d="M 209.032787 359.857404 
Q 213.762274 359.857404 215.814221 359.582575 
Q 217.866168 359.305783 217.866168 358.673677 
Q 217.866168 358.047459 215.814221 357.77852 
Q 213.762274 357.507617 209.032787 357.507617 
L 202.701781 357.507617 
L 202.701781 359.857404 
L 209.032787 359.857404 
z
M 202.701781 361.488709 
L 202.701781 364.955478 
L 187.65 364.955478 
L 187.65 355.795826 
L 210.634307 355.795826 
Q 222.170252 355.795826 227.537844 356.404376 
Q 232.917949 357.010962 232.917949 358.324251 
Q 232.917949 359.231186 230.11529 359.814216 
Q 227.325142 360.397246 221.694801 360.674038 
Q 224.785233 360.783969 227.225047 361.174619 
Q 229.677374 361.563305 232.179748 362.35442 
L 240.35 364.955478 
L 224.322293 364.955478 
L 217.203039 362.680288 
Q 215.050997 361.993216 212.836396 361.741944 
Q 210.634307 361.488709 206.955817 361.488709 
L 202.701781 361.488709 
z
" clip-path="url(#p88bb246bbe)" style="fill: #bd2e1f"/>
   </g>
   <g id="patch_24">
    <path d="M 187.65 346.154087 
L 202.813382 346.154087 
L 202.813382 349.644413 
L 225.186618 349.644413 
L 225.186618 346.154087 
L 240.35 346.154087 
L 240.35 355.313739 
L 225.186618 355.313739 
L 225.186618 351.4308 
L 202.813382 351.4308 
L 202.813382 355.313739 
L 187.65 355.313739 
L 187.65 346.154087 
z
" clip-path="url(#p88bb246bbe)" style="fill: #177875"/>
   </g>
   <g id="patch_25">
    <path d="M 187.65 336.512348 
L 204.578032 336.512348 
L 225.968106 342.79415 
L 225.968106 336.512348 
L 240.35 336.512348 
L 240.35 345.672 
L 223.409364 345.672 
L 202.01929 339.390198 
L 202.01929 345.672 
L 187.65 345.672 
L 187.65 336.512348 
z
" clip-path="url(#p88bb246bbe)" style="fill: #40ba47"/>
   </g>
   <g id="patch_26">
    <path d="M 187.65 322.170261 
L 240.35 322.170261 
L 240.35 324.849842 
L 221.390256 324.849842 
L 221.390256 335.909739 
L 206.646512 335.909739 
L 206.646512 324.849842 
L 187.65 324.849842 
L 187.65 322.170261 
z
" clip-path="url(#p88bb246bbe)" style="fill: #40ba47"/>
   </g>
   <g id="patch_27">
    <path d="M 188.198462 307.707652 
L 239.801538 307.707652 
L 239.801538 310.387233 
L 207.323077 310.387233 
L 207.323077 312.943141 
L 237.877949 312.943141 
L 237.877949 315.622722 
L 207.323077 315.622722 
L 207.323077 321.44713 
L 188.198462 321.44713 
L 188.198462 307.707652 
z
" clip-path="url(#p88bb246bbe)" style="fill: #21599c"/>
   </g>
   <g id="patch_28">
    <path d="M 187.65 293.245043 
L 203.195992 293.245043 
L 213.979692 300.597696 
L 224.83447 293.245043 
L 240.35 293.245043 
L 240.35 306.984522 
L 228.80474 306.984522 
L 228.80474 296.93462 
L 217.889037 304.34322 
L 210.141426 304.34322 
L 199.225723 296.93462 
L 199.225723 306.984522 
L 187.65 306.984522 
L 187.65 293.245043 
z
" clip-path="url(#p88bb246bbe)" style="fill: #21599c"/>
   </g>
   <g id="patch_29">
    <path d="M 187.65 274.082087 
L 202.22 274.082087 
L 213.988929 280.611235 
L 225.746786 274.082087 
L 240.35 274.082087 
L 220.665 284.682627 
L 220.665 292.401391 
L 207.346071 292.401391 
L 207.346071 284.682627 
L 187.65 274.082087 
z
" clip-path="url(#p88bb246bbe)" style="fill: #177875"/>
   </g>
   <g id="patch_30">
    <path d="M 204.437692 254.798609 
L 223.562308 254.798609 
L 223.562308 273.117913 
L 204.437692 273.117913 
L 204.437692 254.798609 
z
" clip-path="url(#p88bb246bbe)" style="fill: #21599c"/>
   </g>
   <g id="patch_31">
    <path d="M 235.955948 236.38928 
L 235.955948 240.128068 
Q 230.459804 239.477186 225.221293 239.147961 
Q 219.997094 238.814951 215.34541 238.814951 
Q 209.176562 238.814951 206.213797 239.265271 
Q 203.265345 239.711806 203.265345 240.657856 
Q 203.265345 241.369285 205.254834 241.766626 
Q 207.244324 242.160183 212.482835 242.443998 
L 219.811027 242.83377 
Q 230.946442 243.427889 235.641065 244.635049 
Q 240.35 245.838424 240.35 248.063532 
Q 240.35 250.981149 233.794704 252.407792 
Q 227.239408 253.834435 213.770994 253.834435 
Q 207.430391 253.834435 201.032537 253.512778 
Q 194.634682 253.194905 188.236828 252.566728 
L 188.236828 248.725767 
Q 194.634682 249.622622 200.60315 250.08051 
Q 206.571619 250.534614 212.125014 250.534614 
Q 217.764286 250.534614 220.755676 250.038884 
Q 223.747067 249.53937 223.747067 248.616025 
Q 223.747067 247.79107 221.714639 247.34075 
Q 219.682211 246.890431 213.59924 246.534716 
L 206.929441 246.144944 
Q 196.910429 245.577314 192.273058 244.336097 
Q 187.65 243.09488 187.65 240.990865 
Q 187.65 238.353279 194.090793 236.934205 
Q 200.531586 235.51513 212.611651 235.51513 
Q 218.122108 235.51513 223.933134 235.734614 
Q 229.744161 235.954097 235.955948 236.38928 
z
" clip-path="url(#p88bb246bbe)" style="fill: #40ba47"/>
   </g>
   <g id="patch_32">
    <path d="M 187.65 216.231652 
L 201.537864 216.231652 
L 201.537864 222.917845 
L 221.555783 216.231652 
L 237.683253 216.231652 
L 211.743078 224.908391 
L 240.35 234.550957 
L 222.964195 234.550957 
L 201.537864 227.334737 
L 201.537864 234.550957 
L 187.65 234.550957 
L 187.65 216.231652 
z
" clip-path="url(#p88bb246bbe)" style="fill: #bd2e1f"/>
   </g>
   <g id="patch_33">
    <path d="M 187.65 192.247826 
L 239.253077 192.247826 
L 239.253077 196.713795 
L 206.774615 196.713795 
L 206.774615 200.973641 
L 237.329487 200.973641 
L 237.329487 205.43961 
L 206.774615 205.43961 
L 206.774615 210.685896 
L 240.35 210.685896 
L 240.35 215.146957 
L 187.65 215.146957 
L 187.65 192.247826 
z
" clip-path="url(#p88bb246bbe)" style="fill: #6b296b"/>
   </g>
   <g id="patch_34">
    <path d="M 187.65 149.342087 
L 206.774615 149.342087 
L 206.774615 182.530612 
L 240.35 182.530612 
L 240.35 190.560522 
L 187.65 190.560522 
L 187.65 149.342087 
z
" clip-path="url(#p88bb246bbe)" style="fill: #21599c"/>
   </g>
   <g id="patch_35">
    <path d="M 187.65 105.954261 
L 200.68762 105.954261 
L 214.016162 136.377812 
L 227.323155 105.954261 
L 240.35 105.954261 
L 221.730985 147.172696 
L 206.269015 147.172696 
L 187.65 105.954261 
z
" clip-path="url(#p88bb246bbe)" style="fill: #21599c"/>
   </g>
   <g id="patch_36">
    <path d="M 224.155336 94.366506 
L 203.887763 94.366506 
L 200.68762 103.543826 
L 187.65 103.543826 
L 206.269015 53.165739 
L 221.730985 53.165739 
L 240.35 103.543826 
L 227.323155 103.543826 
L 224.155336 94.366506 
z
M 207.120231 85.016437 
L 220.890544 85.016437 
L 214.016162 64.977489 
L 207.120231 85.016437 
z
" clip-path="url(#p88bb246bbe)" style="fill: #21599c"/>
   </g>
   <g id="patch_37">
    <path d="M 249.65 379.779652 
L 262.68762 379.779652 
L 276.016162 383.160047 
L 289.323155 379.779652 
L 302.35 379.779652 
L 283.730985 384.359478 
L 268.269015 384.359478 
L 249.65 379.779652 
z
" clip-path="url(#p88bb246bbe)" style="fill: #21599c"/>
   </g>
   <g id="patch_38">
    <path d="M 249.65 374.958783 
L 265.195992 374.958783 
L 275.979692 377.409667 
L 286.83447 374.958783 
L 302.35 374.958783 
L 302.35 379.538609 
L 290.80474 379.538609 
L 290.80474 376.188642 
L 279.889037 378.658175 
L 272.141426 378.658175 
L 261.225723 376.188642 
L 261.225723 379.538609 
L 249.65 379.538609 
L 249.65 374.958783 
z
" clip-path="url(#p88bb246bbe)" style="fill: #21599c"/>
   </g>
   <g id="patch_39">
    <path d="M 302.35 373.940659 
Q 297.941736 374.2661 293.174969 374.430713 
Q 288.408201 374.597217 283.216541 374.597217 
Q 267.734505 374.597217 258.692252 373.363569 
Q 249.65 372.12992 249.65 370.020229 
Q 249.65 367.90297 258.692252 366.671214 
Q 267.734505 365.437565 283.216541 365.437565 
Q 288.408201 365.437565 293.174969 365.60407 
Q 297.941736 365.768683 302.35 366.094124 
L 302.35 367.919999 
Q 297.901902 367.488601 293.586584 367.288038 
Q 289.271265 367.087476 284.504497 367.087476 
Q 275.953527 367.087476 271.053981 367.868913 
Q 266.167712 368.648458 266.167712 370.020229 
Q 266.167712 371.386325 271.053981 372.167762 
Q 275.953527 372.947307 284.504497 372.947307 
Q 289.271265 372.947307 293.586584 372.746744 
Q 297.901902 372.54429 302.35 372.112891 
L 302.35 373.940659 
z
" clip-path="url(#p88bb246bbe)" style="fill: #6b296b"/>
   </g>
   <g id="patch_40">
    <path d="M 302.35 364.126739 
Q 297.035119 364.541109 291.318669 364.749239 
Q 285.602219 364.955478 279.507822 364.955478 
Q 265.736374 364.955478 257.693187 363.72183 
Q 249.65 362.488181 249.65 360.37849 
Q 249.65 358.244202 257.834917 357.020014 
Q 266.031645 355.795826 280.287338 355.795826 
Q 285.779381 355.795826 290.810802 355.962331 
Q 295.854034 356.126943 300.318534 356.452385 
L 300.318534 358.27826 
Q 295.712304 357.860106 291.153317 357.653867 
Q 286.59433 357.445737 282.011721 357.445737 
Q 273.531533 357.445737 268.937113 358.20636 
Q 264.342694 358.965092 264.342694 360.37849 
Q 264.342694 361.778644 268.771762 362.543052 
Q 273.200829 363.305568 281.350314 363.305568 
Q 283.570753 363.305568 285.472299 363.262049 
Q 287.373846 363.216639 288.885634 363.122034 
L 288.885634 361.407792 
L 280.204662 361.407792 
L 280.204662 359.880868 
L 302.35 359.880868 
L 302.35 364.126739 
z
" clip-path="url(#p88bb246bbe)" style="fill: #787800"/>
   </g>
   <g id="patch_41">
    <path d="M 249.65 346.154087 
L 264.813382 346.154087 
L 264.813382 349.644413 
L 287.186618 349.644413 
L 287.186618 346.154087 
L 302.35 346.154087 
L 302.35 355.313739 
L 287.186618 355.313739 
L 287.186618 351.4308 
L 264.813382 351.4308 
L 264.813382 355.313739 
L 249.65 355.313739 
L 249.65 346.154087 
z
" clip-path="url(#p88bb246bbe)" style="fill: #177875"/>
   </g>
   <g id="patch_42">
    <path d="M 277.405333 344.302242 
L 276.373292 344.302242 
Q 263.714313 344.302242 256.676667 343.275729 
Q 249.65 342.247605 249.65 340.415352 
Q 249.65 338.586323 256.665687 337.550141 
Q 263.681375 336.512348 276 336.512348 
Q 288.450375 336.512348 295.400188 337.540472 
Q 302.35 338.566985 302.35 340.415352 
Q 302.35 341.683587 298.661 342.600519 
Q 294.972 343.517451 288.044146 343.979946 
L 298.364562 345.672 
L 285.771458 345.672 
L 277.405333 344.302242 
z
M 276 337.917558 
Q 269.961458 337.917558 266.634771 338.571819 
Q 263.308083 339.22608 263.308083 340.415352 
Q 263.308083 341.623962 266.557917 342.266943 
Q 269.818729 342.908312 276 342.908312 
Q 282.071479 342.908312 285.398167 342.254051 
Q 288.724854 341.598179 288.724854 340.415352 
Q 288.724854 339.22608 285.398167 338.571819 
Q 282.071479 337.917558 276 337.917558 
z
" clip-path="url(#p88bb246bbe)" style="fill: #40ba47"/>
   </g>
   <g id="patch_43">
    <path d="M 264.091481 324.849842 
L 264.091481 333.233103 
L 269.265444 333.233103 
Q 278.112802 333.233103 282.782574 332.155381 
Q 287.464351 331.077659 287.464351 329.025277 
Q 287.464351 326.984673 282.806583 325.91873 
Q 278.16082 324.849842 269.265444 324.849842 
L 264.091481 324.849842 
z
M 249.65 322.170261 
L 264.871777 322.170261 
Q 277.63262 322.170261 283.874989 322.617839 
Q 290.117358 323.062473 294.583052 324.131361 
Q 298.520547 325.061853 300.429271 326.27797 
Q 302.35 327.491143 302.35 329.025277 
Q 302.35 330.582968 300.429271 331.80203 
Q 298.520547 333.021092 294.583052 333.948639 
Q 290.081344 335.017527 283.778952 335.465105 
Q 277.47656 335.909739 264.871777 335.909739 
L 249.65 335.909739 
L 249.65 322.170261 
z
" clip-path="url(#p88bb246bbe)" style="fill: #6b296b"/>
   </g>
   <g id="patch_44">
    <path d="M 249.65 307.707652 
L 301.253077 307.707652 
L 301.253077 310.387233 
L 268.774615 310.387233 
L 268.774615 312.943141 
L 299.329487 312.943141 
L 299.329487 315.622722 
L 268.774615 315.622722 
L 268.774615 318.770494 
L 302.35 318.770494 
L 302.35 321.44713 
L 249.65 321.44713 
L 249.65 307.707652 
z
" clip-path="url(#p88bb246bbe)" style="fill: #6b296b"/>
   </g>
   <g id="patch_45">
    <path d="M 249.65 293.245043 
L 277.043021 293.245043 
Q 289.271068 293.245043 295.803672 294.411103 
Q 302.35 295.574218 302.35 297.726716 
Q 302.35 299.890993 295.803672 301.054108 
Q 289.271068 302.217223 277.043021 302.217223 
L 266.159922 302.217223 
L 266.159922 306.984522 
L 249.65 306.984522 
L 249.65 293.245043 
z
M 266.159922 295.81273 
L 266.159922 299.649537 
L 275.286354 299.649537 
Q 280.08974 299.649537 282.711016 299.148956 
Q 285.332292 298.648375 285.332292 297.726716 
Q 285.332292 296.808003 282.711016 296.310366 
Q 280.08974 295.81273 275.286354 295.81273 
L 266.159922 295.81273 
z
" clip-path="url(#p88bb246bbe)" style="fill: #787800"/>
   </g>
   <g id="patch_46">
    <path d="M 271.032787 284.874801 
Q 275.762274 284.874801 277.814221 284.462558 
Q 279.866168 284.04737 279.866168 283.09921 
Q 279.866168 282.159885 277.814221 281.756475 
Q 275.762274 281.350121 271.032787 281.350121 
L 264.701781 281.350121 
L 264.701781 284.874801 
L 271.032787 284.874801 
z
M 264.701781 287.321759 
L 264.701781 292.521913 
L 249.65 292.521913 
L 249.65 278.782435 
L 272.634307 278.782435 
Q 284.170252 278.782435 289.537844 279.695259 
Q 294.917949 280.605139 294.917949 282.575073 
Q 294.917949 283.935475 292.11529 284.81002 
Q 289.325142 285.684564 283.694801 286.099752 
Q 286.785233 286.26465 289.225047 286.850624 
Q 291.677374 287.433654 294.179748 288.620325 
L 302.35 292.521913 
L 286.322293 292.521913 
L 279.203039 289.109128 
Q 277.050997 288.07852 274.836396 287.701612 
Q 272.634307 287.321759 268.955817 287.321759 
L 264.701781 287.321759 
z
" clip-path="url(#p88bb246bbe)" style="fill: #bd2e1f"/>
   </g>
   <g id="patch_47">
    <path d="M 297.955948 260.493628 
L 297.955948 264.232416 
Q 292.459804 263.581534 287.221293 263.252309 
Q 281.997094 262.919299 277.34541 262.919299 
Q 271.176562 262.919299 268.213797 263.369619 
Q 265.265345 263.816154 265.265345 264.762204 
Q 265.265345 265.473633 267.254834 265.870974 
Q 269.244324 266.264531 274.482835 266.548345 
L 281.811027 266.938118 
Q 292.946442 267.532237 297.641065 268.739396 
Q 302.35 269.942771 302.35 272.16788 
Q 302.35 275.085497 295.794704 276.51214 
Q 289.239408 277.938783 275.770994 277.938783 
Q 269.430391 277.938783 263.032537 277.617126 
Q 256.634682 277.299253 250.236828 276.671076 
L 250.236828 272.830115 
Q 256.634682 273.72697 262.60315 274.184858 
Q 268.571619 274.638962 274.125014 274.638962 
Q 279.764286 274.638962 282.755676 274.143232 
Q 285.747067 273.643717 285.747067 272.720373 
Q 285.747067 271.895418 283.714639 271.445098 
Q 281.682211 270.994779 275.59924 270.639064 
L 268.929441 270.249292 
Q 258.910429 269.681662 254.273058 268.440445 
Q 249.65 267.199228 249.65 265.095213 
Q 249.65 262.457627 256.090793 261.038553 
Q 262.531586 259.619478 274.611651 259.619478 
Q 280.122108 259.619478 285.933134 259.838962 
Q 291.744161 260.058445 297.955948 260.493628 
z
" clip-path="url(#p88bb246bbe)" style="fill: #40ba47"/>
   </g>
   <g id="patch_48">
    <path d="M 249.65 235.635652 
L 264.22 235.635652 
L 275.988929 243.797087 
L 287.746786 235.635652 
L 302.35 235.635652 
L 282.665 248.886328 
L 282.665 258.534783 
L 269.346071 258.534783 
L 269.346071 248.886328 
L 249.65 235.635652 
z
" clip-path="url(#p88bb246bbe)" style="fill: #177875"/>
   </g>
   <g id="patch_49">
    <path d="M 250.198462 211.531304 
L 301.801538 211.531304 
L 301.801538 215.997273 
L 269.323077 215.997273 
L 269.323077 220.25712 
L 299.877949 220.25712 
L 299.877949 224.723088 
L 269.323077 224.723088 
L 269.323077 234.430435 
L 250.198462 234.430435 
L 250.198462 211.531304 
z
" clip-path="url(#p88bb246bbe)" style="fill: #21599c"/>
   </g>
   <g id="patch_50">
    <path d="M 266.437692 187.426957 
L 285.562308 187.426957 
L 285.562308 210.326087 
L 266.437692 210.326087 
L 266.437692 187.426957 
z
" clip-path="url(#p88bb246bbe)" style="fill: #21599c"/>
   </g>
   <g id="patch_51">
    <path d="M 286.155336 181.095407 
L 265.887763 181.095407 
L 262.68762 186.101217 
L 249.65 186.101217 
L 268.269015 158.622261 
L 283.730985 158.622261 
L 302.35 186.101217 
L 289.323155 186.101217 
L 286.155336 181.095407 
z
M 269.120231 175.995369 
L 282.890544 175.995369 
L 276.016162 165.065034 
L 269.120231 175.995369 
z
" clip-path="url(#p88bb246bbe)" style="fill: #21599c"/>
   </g>
   <g id="patch_52">
    <path d="M 249.65 129.697043 
L 302.35 129.697043 
L 302.35 135.056206 
L 283.390256 135.056206 
L 283.390256 157.176 
L 268.646512 157.176 
L 268.646512 135.056206 
L 249.65 135.056206 
L 249.65 129.697043 
z
" clip-path="url(#p88bb246bbe)" style="fill: #40ba47"/>
   </g>
   <g id="patch_53">
    <path d="M 249.65 91.37113 
L 263.537864 91.37113 
L 263.537864 104.743516 
L 283.555783 91.37113 
L 299.683253 91.37113 
L 273.743078 108.724608 
L 302.35 128.009739 
L 284.964195 128.009739 
L 263.537864 113.5773 
L 263.537864 128.009739 
L 249.65 128.009739 
L 249.65 91.37113 
z
" clip-path="url(#p88bb246bbe)" style="fill: #bd2e1f"/>
   </g>
   <g id="patch_54">
    <path d="M 249.65 52.804174 
L 268.774615 52.804174 
L 268.774615 82.305085 
L 302.35 82.305085 
L 302.35 89.442783 
L 249.65 89.442783 
L 249.65 52.804174 
z
" clip-path="url(#p88bb246bbe)" style="fill: #21599c"/>
   </g>
   <g id="patch_55">
    <path d="M 311.65 379.779652 
L 326.22 379.779652 
L 337.988929 381.411939 
L 349.746786 379.779652 
L 364.35 379.779652 
L 344.665 382.429787 
L 344.665 384.359478 
L 331.346071 384.359478 
L 331.346071 382.429787 
L 311.65 379.779652 
z
" clip-path="url(#p88bb246bbe)" style="fill: #177875"/>
   </g>
   <g id="patch_56">
    <path d="M 311.65 370.258435 
L 326.813382 370.258435 
L 326.813382 373.748761 
L 349.186618 373.748761 
L 349.186618 370.258435 
L 364.35 370.258435 
L 364.35 379.418087 
L 349.186618 379.418087 
L 349.186618 375.535148 
L 326.813382 375.535148 
L 326.813382 379.418087 
L 311.65 379.418087 
L 311.65 370.258435 
z
" clip-path="url(#p88bb246bbe)" style="fill: #177875"/>
   </g>
   <g id="patch_57">
    <path d="M 333.032787 364.678273 
Q 337.762274 364.678273 339.814221 364.403444 
Q 341.866168 364.126652 341.866168 363.494546 
Q 341.866168 362.868329 339.814221 362.599389 
Q 337.762274 362.328487 333.032787 362.328487 
L 326.701781 362.328487 
L 326.701781 364.678273 
L 333.032787 364.678273 
z
M 326.701781 366.309578 
L 326.701781 369.776348 
L 311.65 369.776348 
L 311.65 360.616696 
L 334.634307 360.616696 
Q 346.170252 360.616696 351.537844 361.225245 
Q 356.917949 361.831832 356.917949 363.145121 
Q 356.917949 364.052056 354.11529 364.635086 
Q 351.325142 365.218115 345.694801 365.494907 
Q 348.785233 365.604839 351.225047 365.995488 
Q 353.677374 366.384175 356.179748 367.175289 
L 364.35 369.776348 
L 348.322293 369.776348 
L 341.203039 367.501158 
Q 339.050997 366.814086 336.836396 366.562814 
Q 334.634307 366.309578 330.955817 366.309578 
L 326.701781 366.309578 
z
" clip-path="url(#p88bb246bbe)" style="fill: #bd2e1f"/>
   </g>
   <g id="patch_58">
    <path d="M 348.155336 358.466005 
L 327.887763 358.466005 
L 324.68762 360.134609 
L 311.65 360.134609 
L 330.269015 350.974957 
L 345.730985 350.974957 
L 364.35 360.134609 
L 351.323155 360.134609 
L 348.155336 358.466005 
z
M 331.120231 356.765993 
L 344.890544 356.765993 
L 338.016162 353.122547 
L 331.120231 356.765993 
z
" clip-path="url(#p88bb246bbe)" style="fill: #21599c"/>
   </g>
   <g id="patch_59">
    <path d="M 364.35 347.524564 
Q 359.035119 348.767673 353.318669 349.392066 
Q 347.602219 350.010783 341.507822 350.010783 
Q 327.736374 350.010783 319.693187 346.309837 
Q 311.65 342.608891 311.65 336.279819 
Q 311.65 329.876955 319.834917 326.204391 
Q 328.031645 322.531826 342.287338 322.531826 
Q 347.779381 322.531826 352.810802 323.03134 
Q 357.854034 323.525178 362.318534 324.501501 
L 362.318534 329.979128 
Q 357.712304 328.724667 353.153317 328.10595 
Q 348.59433 327.481558 344.011721 327.481558 
Q 335.531533 327.481558 330.937113 329.763429 
Q 326.342694 332.039625 326.342694 336.279819 
Q 326.342694 340.480279 330.771762 342.773503 
Q 335.200829 345.061051 343.350314 345.061051 
Q 345.570753 345.061051 347.472299 344.930496 
Q 349.373846 344.794265 350.885634 344.51045 
L 350.885634 339.367725 
L 342.204662 339.367725 
L 342.204662 334.786953 
L 364.35 334.786953 
L 364.35 347.524564 
z
" clip-path="url(#p88bb246bbe)" style="fill: #787800"/>
   </g>
   <g id="patch_60">
    <path d="M 311.65 58.589217 
L 363.253077 58.589217 
L 363.253077 108.608064 
L 330.774615 108.608064 
L 330.774615 156.318348 
L 361.329487 156.318348 
L 361.329487 206.337195 
L 330.774615 206.337195 
L 330.774615 265.095598 
L 364.35 265.095598 
L 364.35 315.059478 
L 311.65 315.059478 
L 311.65 58.589217 
z
" clip-path="url(#p88bb246bbe)" style="fill: #6b296b"/>
   </g>
   <g id="patch_61">
    <path d="M 388.091481 380.672846 
L 388.091481 383.467266 
L 393.265444 383.467266 
Q 402.112802 383.467266 406.782574 383.108026 
Q 411.464351 382.748785 411.464351 382.064658 
Q 411.464351 381.384456 406.806583 381.029142 
Q 402.16082 380.672846 393.265444 380.672846 
L 388.091481 380.672846 
z
M 373.65 379.779652 
L 388.871777 379.779652 
Q 401.63262 379.779652 407.874989 379.928845 
Q 414.117358 380.077056 418.583052 380.433352 
Q 422.520547 380.743516 424.429271 381.148889 
Q 426.35 381.55328 426.35 382.064658 
Q 426.35 382.583888 424.429271 382.990242 
Q 422.520547 383.396596 418.583052 383.705778 
Q 414.081344 384.062074 407.778952 384.211267 
Q 401.47656 384.359478 388.871777 384.359478 
L 373.65 384.359478 
L 373.65 379.779652 
z
" clip-path="url(#p88bb246bbe)" style="fill: #6b296b"/>
   </g>
   <g id="patch_62">
    <path d="M 373.65 374.958783 
L 388.813382 374.958783 
L 388.813382 376.703946 
L 411.186618 376.703946 
L 411.186618 374.958783 
L 426.35 374.958783 
L 426.35 379.538609 
L 411.186618 379.538609 
L 411.186618 377.597139 
L 388.813382 377.597139 
L 388.813382 379.538609 
L 373.65 379.538609 
L 373.65 374.958783 
z
" clip-path="url(#p88bb246bbe)" style="fill: #177875"/>
   </g>
   <g id="patch_63">
    <path d="M 390.437692 370.137913 
L 409.562308 370.137913 
L 409.562308 374.717739 
L 390.437692 374.717739 
L 390.437692 370.137913 
z
" clip-path="url(#p88bb246bbe)" style="fill: #21599c"/>
   </g>
   <g id="patch_64">
    <path d="M 373.65 360.616696 
L 390.578032 360.616696 
L 411.968106 366.898497 
L 411.968106 360.616696 
L 426.35 360.616696 
L 426.35 369.776348 
L 409.409364 369.776348 
L 388.01929 363.494546 
L 388.01929 369.776348 
L 373.65 369.776348 
L 373.65 360.616696 
z
" clip-path="url(#p88bb246bbe)" style="fill: #40ba47"/>
   </g>
   <g id="patch_65">
    <path d="M 373.65 350.974957 
L 388.22 350.974957 
L 399.988929 354.23953 
L 411.746786 350.974957 
L 426.35 350.974957 
L 406.665 356.275227 
L 406.665 360.134609 
L 393.346071 360.134609 
L 393.346071 356.275227 
L 373.65 350.974957 
z
" clip-path="url(#p88bb246bbe)" style="fill: #177875"/>
   </g>
   <g id="patch_66">
    <path d="M 373.65 341.333217 
L 426.35 341.333217 
L 426.35 343.119605 
L 407.390256 343.119605 
L 407.390256 350.49287 
L 392.646512 350.49287 
L 392.646512 343.119605 
L 373.65 343.119605 
L 373.65 341.333217 
z
" clip-path="url(#p88bb246bbe)" style="fill: #40ba47"/>
   </g>
   <g id="patch_67">
    <path d="M 374.198462 326.99113 
L 425.801538 326.99113 
L 425.801538 329.670711 
L 393.323077 329.670711 
L 393.323077 332.22662 
L 423.877949 332.22662 
L 423.877949 334.906201 
L 393.323077 334.906201 
L 393.323077 340.730609 
L 374.198462 340.730609 
L 374.198462 326.99113 
z
" clip-path="url(#p88bb246bbe)" style="fill: #21599c"/>
   </g>
   <g id="patch_68">
    <path d="M 373.65 312.528522 
L 425.253077 312.528522 
L 425.253077 315.208103 
L 392.774615 315.208103 
L 392.774615 317.764011 
L 423.329487 317.764011 
L 423.329487 320.443592 
L 392.774615 320.443592 
L 392.774615 323.591364 
L 426.35 323.591364 
L 426.35 326.268 
L 373.65 326.268 
L 373.65 312.528522 
z
" clip-path="url(#p88bb246bbe)" style="fill: #6b296b"/>
   </g>
   <g id="patch_69">
    <path d="M 401.405333 308.945354 
L 400.373292 308.945354 
Q 387.714313 308.945354 380.676667 306.892328 
Q 373.65 304.83608 373.65 301.171574 
Q 373.65 297.513515 380.665687 295.441151 
Q 387.681375 293.365565 400 293.365565 
Q 412.450375 293.365565 419.400188 295.421814 
Q 426.35 297.474839 426.35 301.171574 
Q 426.35 303.708044 422.661 305.541908 
Q 418.972 307.375772 412.044146 308.300762 
L 422.364563 311.68487 
L 409.771458 311.68487 
L 401.405333 308.945354 
z
M 400 296.175986 
Q 393.961458 296.175986 390.634771 297.484508 
Q 387.308083 298.79303 387.308083 301.171574 
Q 387.308083 303.588794 390.557917 304.874755 
Q 393.818729 306.157493 400 306.157493 
Q 406.071479 306.157493 409.398167 304.848972 
Q 412.724854 303.537227 412.724854 301.171574 
Q 412.724854 298.79303 409.398167 297.484508 
Q 406.071479 296.175986 400 296.175986 
z
" clip-path="url(#p88bb246bbe)" style="fill: #40ba47"/>
   </g>
   <g id="patch_70">
    <path d="M 373.65 269.381739 
L 386.68762 269.381739 
L 400.016162 286.283712 
L 413.323155 269.381739 
L 426.35 269.381739 
L 407.730985 292.28087 
L 392.269015 292.28087 
L 373.65 269.381739 
z
" clip-path="url(#p88bb246bbe)" style="fill: #21599c"/>
   </g>
   <g id="patch_71">
    <path d="M 421.955948 241.888268 
L 421.955948 247.49645 
Q 416.459804 246.520127 411.221293 246.026289 
Q 405.997094 245.526775 401.34541 245.526775 
Q 395.176562 245.526775 392.213797 246.202254 
Q 389.265345 246.872057 389.265345 248.291132 
Q 389.265345 249.358276 391.254834 249.954287 
Q 393.244324 250.544622 398.482835 250.970344 
L 405.811027 251.555003 
Q 416.946442 252.446182 421.641065 254.256921 
Q 426.35 256.061983 426.35 259.399646 
Q 426.35 263.776072 419.794704 265.916036 
Q 413.239408 268.056 399.770994 268.056 
Q 393.430391 268.056 387.032537 267.573515 
Q 380.634682 267.096706 374.236828 266.15444 
L 374.236828 260.392998 
Q 380.634682 261.738281 386.60315 262.425113 
Q 392.571619 263.106269 398.125014 263.106269 
Q 403.764286 263.106269 406.755676 262.362674 
Q 409.747067 261.613402 409.747067 260.228386 
Q 409.747067 258.990953 407.714639 258.315473 
Q 405.682211 257.639994 399.59924 257.106422 
L 392.929441 256.521763 
Q 382.910429 255.670319 378.273058 253.808493 
Q 373.65 251.946668 373.65 248.790646 
Q 373.65 244.834267 380.090793 242.705655 
Q 386.531586 240.577043 398.611651 240.577043 
Q 404.122108 240.577043 409.933134 240.906269 
Q 415.744161 241.235494 421.955948 241.888268 
z
" clip-path="url(#p88bb246bbe)" style="fill: #40ba47"/>
   </g>
   <g id="patch_72">
    <path d="M 426.35 236.109673 
Q 421.035119 237.559967 415.318669 238.288425 
Q 409.602219 239.010261 403.507822 239.010261 
Q 389.736374 239.010261 381.693187 234.692491 
Q 373.65 230.37472 373.65 222.990803 
Q 373.65 215.520795 381.834917 211.236137 
Q 390.031645 206.951478 404.287338 206.951478 
Q 409.779381 206.951478 414.810802 207.534245 
Q 419.854034 208.110389 424.318534 209.249433 
L 424.318534 215.639998 
Q 419.712304 214.176459 415.153317 213.454623 
Q 410.59433 212.726165 406.011721 212.726165 
Q 397.531533 212.726165 392.937113 215.388349 
Q 388.342694 218.04391 388.342694 222.990803 
Q 388.342694 227.89134 392.771762 230.566768 
Q 397.200829 233.235574 405.350314 233.235574 
Q 407.570753 233.235574 409.472299 233.08326 
Q 411.373846 232.924324 412.885634 232.593206 
L 412.885634 226.59336 
L 404.204662 226.59336 
L 404.204662 221.249126 
L 426.35 221.249126 
L 426.35 236.109673 
z
" clip-path="url(#p88bb246bbe)" style="fill: #787800"/>
   </g>
   <g id="patch_73">
    <path d="M 373.65 168.505043 
L 392.774615 168.505043 
L 392.774615 198.005955 
L 426.35 198.005955 
L 426.35 205.143652 
L 373.65 205.143652 
L 373.65 168.505043 
z
" clip-path="url(#p88bb246bbe)" style="fill: #21599c"/>
   </g>
   <g id="patch_74">
    <path d="M 410.155336 144.625105 
L 389.887763 144.625105 
L 386.68762 164.648348 
L 373.65 164.648348 
L 392.269015 54.732522 
L 407.730985 54.732522 
L 426.35 164.648348 
L 413.323155 164.648348 
L 410.155336 144.625105 
z
M 393.120231 124.224954 
L 406.890544 124.224954 
L 400.016162 80.503613 
L 393.120231 124.224954 
z
" clip-path="url(#p88bb246bbe)" style="fill: #21599c"/>
   </g>
   <g id="patch_75">
    <path d="M 435.65 379.779652 
L 450.22 379.779652 
L 461.988929 381.411939 
L 473.746786 379.779652 
L 488.35 379.779652 
L 468.665 382.429787 
L 468.665 384.359478 
L 455.346071 384.359478 
L 455.346071 382.429787 
L 435.65 379.779652 
z
" clip-path="url(#p88bb246bbe)" style="fill: #177875"/>
   </g>
   <g id="patch_76">
    <path d="M 436.198462 374.958783 
L 487.801538 374.958783 
L 487.801538 375.851976 
L 455.323077 375.851976 
L 455.323077 376.703946 
L 485.877949 376.703946 
L 485.877949 377.597139 
L 455.323077 377.597139 
L 455.323077 379.538609 
L 436.198462 379.538609 
L 436.198462 374.958783 
z
" clip-path="url(#p88bb246bbe)" style="fill: #21599c"/>
   </g>
   <g id="patch_77">
    <path d="M 435.65 370.137913 
L 452.578032 370.137913 
L 473.968106 373.278814 
L 473.968106 370.137913 
L 488.35 370.137913 
L 488.35 374.717739 
L 471.409364 374.717739 
L 450.01929 371.576838 
L 450.01929 374.717739 
L 435.65 374.717739 
L 435.65 370.137913 
z
" clip-path="url(#p88bb246bbe)" style="fill: #40ba47"/>
   </g>
   <g id="patch_78">
    <path d="M 435.65 360.616696 
L 451.195992 360.616696 
L 461.979692 365.518464 
L 472.83447 360.616696 
L 488.35 360.616696 
L 488.35 369.776348 
L 476.80474 369.776348 
L 476.80474 363.076414 
L 465.889037 368.01548 
L 458.141426 368.01548 
L 447.225723 363.076414 
L 447.225723 369.776348 
L 435.65 369.776348 
L 435.65 360.616696 
z
" clip-path="url(#p88bb246bbe)" style="fill: #21599c"/>
   </g>
   <g id="patch_79">
    <path d="M 435.65 346.274609 
L 488.35 346.274609 
L 488.35 348.95419 
L 469.390256 348.95419 
L 469.390256 360.014087 
L 454.646512 360.014087 
L 454.646512 348.95419 
L 435.65 348.95419 
L 435.65 346.274609 
z
" clip-path="url(#p88bb246bbe)" style="fill: #40ba47"/>
   </g>
   <g id="patch_80">
    <path d="M 463.405333 343.496841 
L 462.373292 343.496841 
Q 449.714313 343.496841 442.676667 341.957072 
Q 435.65 340.414886 435.65 337.666507 
Q 435.65 334.922962 442.665687 333.36869 
Q 449.681375 331.812 462 331.812 
Q 474.450375 331.812 481.400187 333.354186 
Q 488.35 334.893955 488.35 337.666507 
Q 488.35 339.568859 484.661 340.944257 
Q 480.972 342.319655 474.044146 343.013397 
L 484.364562 345.551478 
L 471.771458 345.551478 
L 463.405333 343.496841 
z
M 462 333.919816 
Q 455.961458 333.919816 452.634771 334.901207 
Q 449.308083 335.882598 449.308083 337.666507 
Q 449.308083 339.479422 452.557917 340.443892 
Q 455.818729 341.405946 462 341.405946 
Q 468.071479 341.405946 471.398167 340.424555 
Q 474.724854 339.440746 474.724854 337.666507 
Q 474.724854 335.882598 471.398167 334.901207 
Q 468.071479 333.919816 462 333.919816 
z
" clip-path="url(#p88bb246bbe)" style="fill: #40ba47"/>
   </g>
   <g id="patch_81">
    <path d="M 452.437692 317.349391 
L 471.562308 317.349391 
L 471.562308 331.08887 
L 452.437692 331.08887 
L 452.437692 317.349391 
z
" clip-path="url(#p88bb246bbe)" style="fill: #21599c"/>
   </g>
   <g id="patch_82">
    <path d="M 435.65 302.886783 
L 463.043021 302.886783 
Q 475.271068 302.886783 481.803672 304.052842 
Q 488.35 305.215957 488.35 307.368456 
Q 488.35 309.532733 481.803672 310.695847 
Q 475.271068 311.858962 463.043021 311.858962 
L 452.159922 311.858962 
L 452.159922 316.626261 
L 435.65 316.626261 
L 435.65 302.886783 
z
M 452.159922 305.454469 
L 452.159922 309.291276 
L 461.286354 309.291276 
Q 466.08974 309.291276 468.711016 308.790695 
Q 471.332292 308.290114 471.332292 307.368456 
Q 471.332292 306.449742 468.711016 305.952106 
Q 466.08974 305.454469 461.286354 305.454469 
L 452.159922 305.454469 
z
" clip-path="url(#p88bb246bbe)" style="fill: #787800"/>
   </g>
   <g id="patch_83">
    <path d="M 435.65 283.723826 
L 448.68762 283.723826 
L 462.016162 297.245404 
L 475.323155 283.723826 
L 488.35 283.723826 
L 469.730985 302.04313 
L 454.269015 302.04313 
L 435.65 283.723826 
z
" clip-path="url(#p88bb246bbe)" style="fill: #21599c"/>
   </g>
   <g id="patch_84">
    <path d="M 435.65 264.440348 
L 454.774615 264.440348 
L 454.774615 279.190804 
L 488.35 279.190804 
L 488.35 282.759652 
L 435.65 282.759652 
L 435.65 264.440348 
z
" clip-path="url(#p88bb246bbe)" style="fill: #21599c"/>
   </g>
   <g id="patch_85">
    <path d="M 435.65 245.15687 
L 450.813382 245.15687 
L 450.813382 252.137522 
L 473.186618 252.137522 
L 473.186618 245.15687 
L 488.35 245.15687 
L 488.35 263.476174 
L 473.186618 263.476174 
L 473.186618 255.710297 
L 450.813382 255.710297 
L 450.813382 263.476174 
L 435.65 263.476174 
L 435.65 245.15687 
z
" clip-path="url(#p88bb246bbe)" style="fill: #177875"/>
   </g>
   <g id="patch_86">
    <path d="M 435.65 225.873391 
L 487.253077 225.873391 
L 487.253077 229.446166 
L 454.774615 229.446166 
L 454.774615 232.854043 
L 485.329487 232.854043 
L 485.329487 236.426818 
L 454.774615 236.426818 
L 454.774615 240.623847 
L 488.35 240.623847 
L 488.35 244.192696 
L 435.65 244.192696 
L 435.65 225.873391 
z
" clip-path="url(#p88bb246bbe)" style="fill: #6b296b"/>
   </g>
   <g id="patch_87">
    <path d="M 435.65 206.589913 
L 449.537864 206.589913 
L 449.537864 213.276106 
L 469.555783 206.589913 
L 485.683253 206.589913 
L 459.743078 215.266652 
L 488.35 224.909217 
L 470.964195 224.909217 
L 449.537864 217.692998 
L 449.537864 224.909217 
L 435.65 224.909217 
L 435.65 206.589913 
z
" clip-path="url(#p88bb246bbe)" style="fill: #bd2e1f"/>
   </g>
   <g id="patch_88">
    <path d="M 450.091481 183.264901 
L 450.091481 200.031423 
L 455.265444 200.031423 
Q 464.112802 200.031423 468.782574 197.87598 
Q 473.464351 195.720536 473.464351 191.615771 
Q 473.464351 187.534563 468.806583 185.402677 
Q 464.16082 183.264901 455.265444 183.264901 
L 450.091481 183.264901 
z
M 435.65 177.905739 
L 450.871777 177.905739 
Q 463.63262 177.905739 469.874989 178.800896 
Q 476.117358 179.690163 480.583052 181.827939 
Q 484.520547 183.688923 486.429271 186.121158 
Q 488.35 188.547504 488.35 191.615771 
Q 488.35 194.731153 486.429271 197.169277 
Q 484.520547 199.607401 480.583052 201.462496 
Q 476.081344 203.600271 469.778952 204.495428 
Q 463.47656 205.384696 450.871777 205.384696 
L 435.65 205.384696 
L 435.65 177.905739 
z
" clip-path="url(#p88bb246bbe)" style="fill: #6b296b"/>
   </g>
   <g id="patch_89">
    <path d="M 472.155336 170.498844 
L 451.887763 170.498844 
L 448.68762 176.338957 
L 435.65 176.338957 
L 454.269015 144.280174 
L 469.730985 144.280174 
L 488.35 176.338957 
L 475.323155 176.338957 
L 472.155336 170.498844 
z
M 455.120231 164.5488 
L 468.890544 164.5488 
L 462.016162 151.796742 
L 455.120231 164.5488 
z
" clip-path="url(#p88bb246bbe)" style="fill: #21599c"/>
   </g>
   <g id="patch_90">
    <path d="M 483.955948 107.582039 
L 483.955948 115.059615 
Q 478.459804 113.757851 473.221293 113.0994 
Q 467.997094 112.433381 463.34541 112.433381 
Q 457.176562 112.433381 454.213797 113.33402 
Q 451.265345 114.227091 451.265345 116.11919 
Q 451.265345 117.542049 453.254834 118.336731 
Q 455.244324 119.123844 460.482835 119.691474 
L 467.811027 120.471018 
Q 478.946442 121.659257 483.641065 124.073575 
Q 488.35 126.480325 488.35 130.930543 
Q 488.35 136.765777 481.794704 139.619062 
Q 475.239408 142.472348 461.770994 142.472348 
Q 455.430391 142.472348 449.032537 141.829034 
Q 442.634682 141.193289 436.236828 139.936935 
L 436.236828 132.255012 
Q 442.634682 134.048722 448.60315 134.964498 
Q 454.571619 135.872706 460.125014 135.872706 
Q 465.764286 135.872706 468.755676 134.881246 
Q 471.747067 133.882218 471.747067 132.035529 
Q 471.747067 130.385618 469.714639 129.484979 
Q 467.682211 128.58434 461.59924 127.87291 
L 454.929441 127.093366 
Q 444.910429 125.958106 440.273058 123.475672 
Q 435.65 120.993238 435.65 116.785209 
Q 435.65 111.510037 442.090793 108.671888 
Q 448.531586 105.833739 460.611651 105.833739 
Q 466.122108 105.833739 471.933134 106.272706 
Q 477.744161 106.711673 483.955948 107.582039 
z
" clip-path="url(#p88bb246bbe)" style="fill: #40ba47"/>
   </g>
   <g id="patch_91">
    <path d="M 488.35 98.985759 
Q 483.035119 101.264793 477.318669 102.409513 
Q 471.602219 103.543826 465.507822 103.543826 
Q 451.736374 103.543826 443.693187 96.758758 
Q 435.65 89.973691 435.65 78.370392 
Q 435.65 66.631809 443.834917 59.898774 
Q 452.031645 53.165739 466.287338 53.165739 
Q 471.779381 53.165739 476.810802 54.081515 
Q 481.854034 54.986885 486.318534 56.77681 
L 486.318534 66.819127 
Q 481.712304 64.51928 477.153317 63.384967 
Q 472.59433 62.240247 468.011721 62.240247 
Q 459.531533 62.240247 454.937113 66.423678 
Q 450.342694 70.596703 450.342694 78.370392 
Q 450.342694 86.071236 454.771762 90.275481 
Q 459.200829 94.469318 467.350314 94.469318 
Q 469.570753 94.469318 471.472299 94.229968 
Q 473.373846 93.980211 474.885634 93.459883 
L 474.885634 84.031553 
L 466.204662 84.031553 
L 466.204662 75.633471 
L 488.35 75.633471 
L 488.35 98.985759 
z
" clip-path="url(#p88bb246bbe)" style="fill: #787800"/>
   </g>
   <g id="patch_92">
    <path d="M 497.65 379.779652 
L 513.195992 379.779652 
L 523.979692 382.230536 
L 534.83447 379.779652 
L 550.35 379.779652 
L 550.35 384.359478 
L 538.80474 384.359478 
L 538.80474 381.009511 
L 527.889037 383.479044 
L 520.141426 383.479044 
L 509.225723 381.009511 
L 509.225723 384.359478 
L 497.65 384.359478 
L 497.65 379.779652 
z
" clip-path="url(#p88bb246bbe)" style="fill: #21599c"/>
   </g>
   <g id="patch_93">
    <path d="M 550.35 378.761529 
Q 545.941736 379.08697 541.174969 379.251582 
Q 536.408201 379.418087 531.216541 379.418087 
Q 515.734505 379.418087 506.692252 378.184438 
Q 497.65 376.95079 497.65 374.841099 
Q 497.65 372.72384 506.692252 371.492083 
Q 515.734505 370.258435 531.216541 370.258435 
Q 536.408201 370.258435 541.174969 370.42494 
Q 545.941736 370.589552 550.35 370.914993 
L 550.35 372.740869 
Q 545.901902 372.30947 541.586584 372.108908 
Q 537.271265 371.908345 532.504497 371.908345 
Q 523.953527 371.908345 519.053981 372.689782 
Q 514.167712 373.469327 514.167712 374.841099 
Q 514.167712 376.207195 519.053981 376.988632 
Q 523.953527 377.768176 532.504497 377.768176 
Q 537.271265 377.768176 541.586584 377.567614 
Q 545.901902 377.365159 550.35 376.933761 
L 550.35 378.761529 
z
" clip-path="url(#p88bb246bbe)" style="fill: #6b296b"/>
   </g>
   <g id="patch_94">
    <path d="M 498.198462 360.616696 
L 549.801538 360.616696 
L 549.801538 362.403083 
L 517.323077 362.403083 
L 517.323077 364.107022 
L 547.877949 364.107022 
L 547.877949 365.893409 
L 517.323077 365.893409 
L 517.323077 369.776348 
L 498.198462 369.776348 
L 498.198462 360.616696 
z
" clip-path="url(#p88bb246bbe)" style="fill: #21599c"/>
   </g>
   <g id="patch_95">
    <path d="M 525.405333 358.764851 
L 524.373292 358.764851 
Q 511.714313 358.764851 504.676667 357.738338 
Q 497.65 356.710214 497.65 354.877961 
Q 497.65 353.048931 504.665687 352.01275 
Q 511.681375 350.974957 524 350.974957 
Q 536.450375 350.974957 543.400187 352.003081 
Q 550.35 353.029593 550.35 354.877961 
Q 550.35 356.146196 546.661 357.063128 
Q 542.972 357.98006 536.044146 358.442555 
L 546.364562 360.134609 
L 533.771458 360.134609 
L 525.405333 358.764851 
z
M 524 352.380167 
Q 517.961458 352.380167 514.634771 353.034428 
Q 511.308083 353.688689 511.308083 354.877961 
Q 511.308083 356.086571 514.557917 356.729552 
Q 517.818729 357.370921 524 357.370921 
Q 530.071479 357.370921 533.398167 356.71666 
Q 536.724854 356.060787 536.724854 354.877961 
Q 536.724854 353.688689 533.398167 353.034428 
Q 530.071479 352.380167 524 352.380167 
z
" clip-path="url(#p88bb246bbe)" style="fill: #40ba47"/>
   </g>
   <g id="patch_96">
    <path d="M 512.091481 339.312451 
L 512.091481 347.695711 
L 517.265444 347.695711 
Q 526.112802 347.695711 530.782574 346.61799 
Q 535.464351 345.540268 535.464351 343.487886 
Q 535.464351 341.447282 530.806583 340.381338 
Q 526.16082 339.312451 517.265444 339.312451 
L 512.091481 339.312451 
z
M 497.65 336.63287 
L 512.871777 336.63287 
Q 525.63262 336.63287 531.874989 337.080448 
Q 538.117358 337.525082 542.583052 338.59397 
Q 546.520547 339.524461 548.429271 340.740579 
Q 550.35 341.953752 550.35 343.487886 
Q 550.35 345.045576 548.429271 346.264638 
Q 546.520547 347.483701 542.583052 348.411248 
Q 538.081344 349.480136 531.778952 349.927714 
Q 525.47656 350.372348 512.871777 350.372348 
L 497.65 350.372348 
L 497.65 336.63287 
z
" clip-path="url(#p88bb246bbe)" style="fill: #6b296b"/>
   </g>
   <g id="patch_97">
    <path d="M 497.65 322.170261 
L 525.043021 322.170261 
Q 537.271068 322.170261 543.803672 323.33632 
Q 550.35 324.499435 550.35 326.651934 
Q 550.35 328.816211 543.803672 329.979326 
Q 537.271068 331.142441 525.043021 331.142441 
L 514.159922 331.142441 
L 514.159922 335.909739 
L 497.65 335.909739 
L 497.65 322.170261 
z
M 514.159922 324.737947 
L 514.159922 328.574754 
L 523.286354 328.574754 
Q 528.08974 328.574754 530.711016 328.074173 
Q 533.332292 327.573592 533.332292 326.651934 
Q 533.332292 325.73322 530.711016 325.235584 
Q 528.08974 324.737947 523.286354 324.737947 
L 514.159922 324.737947 
z
" clip-path="url(#p88bb246bbe)" style="fill: #787800"/>
   </g>
   <g id="patch_98">
    <path d="M 497.65 303.007304 
L 512.22 303.007304 
L 523.988929 309.536452 
L 535.746786 303.007304 
L 550.35 303.007304 
L 530.665 313.607845 
L 530.665 321.326609 
L 517.346071 321.326609 
L 517.346071 313.607845 
L 497.65 303.007304 
z
" clip-path="url(#p88bb246bbe)" style="fill: #177875"/>
   </g>
   <g id="patch_99">
    <path d="M 497.65 283.723826 
L 514.578032 283.723826 
L 535.968106 296.28743 
L 535.968106 283.723826 
L 550.35 283.723826 
L 550.35 302.04313 
L 533.409364 302.04313 
L 512.01929 289.479527 
L 512.01929 302.04313 
L 497.65 302.04313 
L 497.65 283.723826 
z
" clip-path="url(#p88bb246bbe)" style="fill: #40ba47"/>
   </g>
   <g id="patch_100">
    <path d="M 497.65 259.74 
L 516.774615 259.74 
L 516.774615 278.17807 
L 550.35 278.17807 
L 550.35 282.63913 
L 497.65 282.63913 
L 497.65 259.74 
z
" clip-path="url(#p88bb246bbe)" style="fill: #21599c"/>
   </g>
   <g id="patch_101">
    <path d="M 497.65 235.635652 
L 549.253077 235.635652 
L 549.253077 240.101621 
L 516.774615 240.101621 
L 516.774615 244.361467 
L 547.329487 244.361467 
L 547.329487 248.827436 
L 516.774615 248.827436 
L 516.774615 254.073722 
L 550.35 254.073722 
L 550.35 258.534783 
L 497.65 258.534783 
L 497.65 235.635652 
z
" clip-path="url(#p88bb246bbe)" style="fill: #6b296b"/>
   </g>
   <g id="patch_102">
    <path d="M 497.65 211.531304 
L 511.537864 211.531304 
L 511.537864 219.889045 
L 531.555783 211.531304 
L 547.683253 211.531304 
L 521.743078 222.377228 
L 550.35 234.430435 
L 532.964195 234.430435 
L 511.537864 225.41016 
L 511.537864 234.430435 
L 497.65 234.430435 
L 497.65 211.531304 
z
" clip-path="url(#p88bb246bbe)" style="fill: #bd2e1f"/>
   </g>
   <g id="patch_103">
    <path d="M 545.955948 184.037833 
L 545.955948 189.646015 
Q 540.459804 188.669692 535.221293 188.175854 
Q 529.997094 187.67634 525.34541 187.67634 
Q 519.176562 187.67634 516.213797 188.35182 
Q 513.265345 189.021623 513.265345 190.440697 
Q 513.265345 191.507841 515.254834 192.103852 
Q 517.244324 192.694187 522.482835 193.11991 
L 529.811027 193.704568 
Q 540.946442 194.595747 545.641065 196.406486 
Q 550.35 198.211548 550.35 201.549211 
Q 550.35 205.925637 543.794704 208.065601 
Q 537.239408 210.205565 523.770994 210.205565 
Q 517.430391 210.205565 511.032537 209.72308 
Q 504.634682 209.246271 498.236828 208.304006 
L 498.236828 202.542564 
Q 504.634682 203.887846 510.60315 204.574678 
Q 516.571619 205.255834 522.125014 205.255834 
Q 527.764286 205.255834 530.755676 204.512239 
Q 533.747067 203.762967 533.747067 202.377951 
Q 533.747067 201.140518 531.714639 200.465039 
Q 529.682211 199.789559 523.59924 199.255987 
L 516.929441 198.671329 
Q 506.910429 197.819884 502.273058 195.958058 
Q 497.65 194.096233 497.65 190.940211 
Q 497.65 186.983832 504.090793 184.85522 
Q 510.531586 182.726609 522.611651 182.726609 
Q 528.122108 182.726609 533.933134 183.055834 
Q 539.744161 183.385059 545.955948 184.037833 
z
" clip-path="url(#p88bb246bbe)" style="fill: #40ba47"/>
   </g>
   <g id="patch_104">
    <path d="M 497.65 153.801391 
L 510.68762 153.801391 
L 524.016162 174.083759 
L 537.323155 153.801391 
L 550.35 153.801391 
L 531.730985 181.280348 
L 516.269015 181.280348 
L 497.65 153.801391 
z
" clip-path="url(#p88bb246bbe)" style="fill: #21599c"/>
   </g>
   <g id="patch_105">
    <path d="M 550.35 149.334021 
Q 545.035119 150.784315 539.318669 151.512773 
Q 533.602219 152.234609 527.507822 152.234609 
Q 513.736374 152.234609 505.693187 147.916838 
Q 497.65 143.599068 497.65 136.215151 
Q 497.65 128.745143 505.834917 124.460485 
Q 514.031645 120.175826 528.287338 120.175826 
Q 533.779381 120.175826 538.810802 120.758593 
Q 543.854034 121.334737 548.318534 122.473781 
L 548.318534 128.864346 
Q 543.712304 127.400807 539.153317 126.678971 
Q 534.59433 125.950513 530.011721 125.950513 
Q 521.531533 125.950513 516.937113 128.612696 
Q 512.342694 131.268258 512.342694 136.215151 
Q 512.342694 141.115688 516.771762 143.791116 
Q 521.200829 146.459922 529.350314 146.459922 
Q 531.570753 146.459922 533.472299 146.307608 
Q 535.373846 146.148672 536.885634 145.817554 
L 536.885634 139.817708 
L 528.204662 139.817708 
L 528.204662 134.473474 
L 550.35 134.473474 
L 550.35 149.334021 
z
" clip-path="url(#p88bb246bbe)" style="fill: #787800"/>
   </g>
   <g id="patch_106">
    <path d="M 497.65 86.429739 
L 550.35 86.429739 
L 550.35 92.682095 
L 531.390256 92.682095 
L 531.390256 118.488522 
L 516.646512 118.488522 
L 516.646512 92.682095 
L 497.65 92.682095 
L 497.65 86.429739 
z
" clip-path="url(#p88bb246bbe)" style="fill: #40ba47"/>
   </g>
   <g id="patch_107">
    <path d="M 534.155336 78.902322 
L 513.887763 78.902322 
L 510.68762 84.742435 
L 497.65 84.742435 
L 516.269015 52.683652 
L 531.730985 52.683652 
L 550.35 84.742435 
L 537.323155 84.742435 
L 534.155336 78.902322 
z
M 517.120231 72.952278 
L 530.890544 72.952278 
L 524.016162 60.200221 
L 517.120231 72.952278 
z
" clip-path="url(#p88bb246bbe)" style="fill: #21599c"/>
   </g>
   <g id="patch_108">
    <path d="M 560.198462 379.779652 
L 611.801538 379.779652 
L 611.801538 380.672846 
L 579.323077 380.672846 
L 579.323077 381.524815 
L 609.877949 381.524815 
L 609.877949 382.418009 
L 579.323077 382.418009 
L 579.323077 384.359478 
L 560.198462 384.359478 
L 560.198462 379.779652 
z
" clip-path="url(#p88bb246bbe)" style="fill: #21599c"/>
   </g>
   <g id="patch_109">
    <path d="M 559.65 374.958783 
L 574.813382 374.958783 
L 574.813382 376.703946 
L 597.186618 376.703946 
L 597.186618 374.958783 
L 612.35 374.958783 
L 612.35 379.538609 
L 597.186618 379.538609 
L 597.186618 377.597139 
L 574.813382 377.597139 
L 574.813382 379.538609 
L 559.65 379.538609 
L 559.65 374.958783 
z
" clip-path="url(#p88bb246bbe)" style="fill: #177875"/>
   </g>
   <g id="patch_110">
    <path d="M 587.405333 374.03286 
L 586.373292 374.03286 
Q 573.714313 374.03286 566.676667 373.519604 
Q 559.65 373.005542 559.65 372.089415 
Q 559.65 371.1749 566.665687 370.65681 
Q 573.681375 370.137913 586 370.137913 
Q 598.450375 370.137913 605.400187 370.651975 
Q 612.35 371.165232 612.35 372.089415 
Q 612.35 372.723533 608.661 373.181999 
Q 604.972 373.640465 598.044146 373.871712 
L 608.364562 374.717739 
L 595.771458 374.717739 
L 587.405333 374.03286 
z
M 586 370.840518 
Q 579.961458 370.840518 576.634771 371.167649 
Q 573.308083 371.494779 573.308083 372.089415 
Q 573.308083 372.69372 576.557917 373.015211 
Q 579.818729 373.335895 586 373.335895 
Q 592.071479 373.335895 595.398167 373.008765 
Q 598.724854 372.680828 598.724854 372.089415 
Q 598.724854 371.494779 595.398167 371.167649 
Q 592.071479 370.840518 586 370.840518 
z
" clip-path="url(#p88bb246bbe)" style="fill: #40ba47"/>
   </g>
   <g id="patch_111">
    <path d="M 559.65 360.616696 
L 574.22 360.616696 
L 585.988929 363.881269 
L 597.746786 360.616696 
L 612.35 360.616696 
L 592.665 365.916966 
L 592.665 369.776348 
L 579.346071 369.776348 
L 579.346071 365.916966 
L 559.65 360.616696 
z
" clip-path="url(#p88bb246bbe)" style="fill: #177875"/>
   </g>
   <g id="patch_112">
    <path d="M 559.65 346.274609 
L 573.537864 346.274609 
L 573.537864 351.289253 
L 593.555783 346.274609 
L 609.683253 346.274609 
L 583.743078 352.782163 
L 612.35 360.014087 
L 594.964195 360.014087 
L 573.537864 354.601922 
L 573.537864 360.014087 
L 559.65 360.014087 
L 559.65 346.274609 
z
" clip-path="url(#p88bb246bbe)" style="fill: #bd2e1f"/>
   </g>
   <g id="patch_113">
    <path d="M 559.65 331.812 
L 576.578032 331.812 
L 597.968106 341.234703 
L 597.968106 331.812 
L 612.35 331.812 
L 612.35 345.551478 
L 595.409364 345.551478 
L 574.01929 336.128776 
L 574.01929 345.551478 
L 559.65 345.551478 
L 559.65 331.812 
z
" clip-path="url(#p88bb246bbe)" style="fill: #40ba47"/>
   </g>
   <g id="patch_114">
    <path d="M 559.65 312.649043 
L 612.35 312.649043 
L 612.35 316.221818 
L 593.390256 316.221818 
L 593.390256 330.968348 
L 578.646512 330.968348 
L 578.646512 316.221818 
L 559.65 316.221818 
L 559.65 312.649043 
z
" clip-path="url(#p88bb246bbe)" style="fill: #40ba47"/>
   </g>
   <g id="patch_115">
    <path d="M 607.955948 294.239715 
L 607.955948 297.978503 
Q 602.459804 297.327621 597.221293 296.998396 
Q 591.997094 296.665386 587.34541 296.665386 
Q 581.176562 296.665386 578.213797 297.115706 
Q 575.265345 297.562241 575.265345 298.508291 
Q 575.265345 299.21972 577.254834 299.617061 
Q 579.244324 300.010618 584.482835 300.294432 
L 591.811027 300.684205 
Q 602.946442 301.278324 607.641065 302.485483 
Q 612.35 303.688858 612.35 305.913967 
Q 612.35 308.831584 605.794704 310.258227 
Q 599.239408 311.68487 585.770994 311.68487 
Q 579.430391 311.68487 573.032537 311.363213 
Q 566.634682 311.04534 560.236828 310.417163 
L 560.236828 306.576202 
Q 566.634682 307.473057 572.60315 307.930945 
Q 578.571619 308.385049 584.125014 308.385049 
Q 589.764286 308.385049 592.755676 307.889319 
Q 595.747067 307.389804 595.747067 306.46646 
Q 595.747067 305.641505 593.714639 305.191185 
Q 591.682211 304.740866 585.59924 304.385151 
L 578.929441 303.995378 
Q 568.910429 303.427749 564.273058 302.186532 
Q 559.65 300.945315 559.65 298.8413 
Q 559.65 296.203714 566.090793 294.78464 
Q 572.531586 293.365565 584.611651 293.365565 
Q 590.122108 293.365565 595.933134 293.585049 
Q 601.744161 293.804532 607.955948 294.239715 
z
" clip-path="url(#p88bb246bbe)" style="fill: #40ba47"/>
   </g>
   <g id="patch_116">
    <path d="M 596.155336 289.064184 
L 575.887763 289.064184 
L 572.68762 292.401391 
L 559.65 292.401391 
L 578.269015 274.082087 
L 593.730985 274.082087 
L 612.35 292.401391 
L 599.323155 292.401391 
L 596.155336 289.064184 
z
M 579.120231 285.664159 
L 592.890544 285.664159 
L 586.016162 278.377269 
L 579.120231 285.664159 
z
" clip-path="url(#p88bb246bbe)" style="fill: #21599c"/>
   </g>
   <g id="patch_117">
    <path d="M 574.091481 258.371383 
L 574.091481 269.549064 
L 579.265444 269.549064 
Q 588.112802 269.549064 592.782574 268.112102 
Q 597.464351 266.67514 597.464351 263.93863 
Q 597.464351 261.217825 592.806583 259.796567 
Q 588.16082 258.371383 579.265444 258.371383 
L 574.091481 258.371383 
z
M 559.65 254.798609 
L 574.871777 254.798609 
Q 587.63262 254.798609 593.874989 255.39538 
Q 600.117358 255.988225 604.583052 257.413409 
Q 608.520547 258.654065 610.429271 260.275555 
Q 612.35 261.893119 612.35 263.93863 
Q 612.35 266.015551 610.429271 267.640967 
Q 608.520547 269.266383 604.583052 270.503113 
Q 600.081344 271.928297 593.778952 272.525068 
Q 587.47656 273.117913 574.871777 273.117913 
L 559.65 273.117913 
L 559.65 254.798609 
z
" clip-path="url(#p88bb246bbe)" style="fill: #6b296b"/>
   </g>
   <g id="patch_118">
    <path d="M 559.65 230.814783 
L 611.253077 230.814783 
L 611.253077 235.280751 
L 578.774615 235.280751 
L 578.774615 239.540598 
L 609.329487 239.540598 
L 609.329487 244.006566 
L 578.774615 244.006566 
L 578.774615 249.252852 
L 612.35 249.252852 
L 612.35 253.713913 
L 559.65 253.713913 
L 559.65 230.814783 
z
" clip-path="url(#p88bb246bbe)" style="fill: #6b296b"/>
   </g>
   <g id="patch_119">
    <path d="M 576.437692 202.010087 
L 595.562308 202.010087 
L 595.562308 229.489043 
L 576.437692 229.489043 
L 576.437692 202.010087 
z
" clip-path="url(#p88bb246bbe)" style="fill: #21599c"/>
   </g>
   <g id="patch_120">
    <path d="M 559.65 173.08487 
L 572.68762 173.08487 
L 586.016162 193.367237 
L 599.323155 173.08487 
L 612.35 173.08487 
L 593.730985 200.563826 
L 578.269015 200.563826 
L 559.65 173.08487 
z
" clip-path="url(#p88bb246bbe)" style="fill: #21599c"/>
   </g>
   <g id="patch_121">
    <path d="M 612.35 168.617499 
Q 607.035119 170.067793 601.318669 170.796251 
Q 595.602219 171.518087 589.507822 171.518087 
Q 575.736374 171.518087 567.693187 167.200317 
Q 559.65 162.882546 559.65 155.498629 
Q 559.65 148.028622 567.834917 143.743963 
Q 576.031645 139.459304 590.287338 139.459304 
Q 595.779381 139.459304 600.810802 140.042071 
Q 605.854034 140.618215 610.318534 141.757259 
L 610.318534 148.147824 
Q 605.712304 146.684285 601.153317 145.962449 
Q 596.59433 145.233991 592.011721 145.233991 
Q 583.531533 145.233991 578.937113 147.896175 
Q 574.342694 150.551736 574.342694 155.498629 
Q 574.342694 160.399166 578.771762 163.074594 
Q 583.200829 165.7434 591.350314 165.7434 
Q 593.570753 165.7434 595.472299 165.591086 
Q 597.373846 165.43215 598.885634 165.101033 
L 598.885634 159.101186 
L 590.204662 159.101186 
L 590.204662 153.756952 
L 612.35 153.756952 
L 612.35 168.617499 
z
" clip-path="url(#p88bb246bbe)" style="fill: #787800"/>
   </g>
   <g id="patch_122">
    <path d="M 559.65 96.312522 
L 587.043021 96.312522 
Q 599.271068 96.312522 605.803672 99.8107 
Q 612.35 103.300045 612.35 109.757541 
Q 612.35 116.250372 605.803672 119.739716 
Q 599.271068 123.229061 587.043021 123.229061 
L 576.159922 123.229061 
L 576.159922 137.530957 
L 559.65 137.530957 
L 559.65 96.312522 
z
M 576.159922 104.015581 
L 576.159922 115.526001 
L 585.286354 115.526001 
Q 590.08974 115.526001 592.711016 114.024258 
Q 595.332292 112.522515 595.332292 109.757541 
Q 595.332292 107.0014 592.711016 105.508491 
Q 590.08974 104.015581 585.286354 104.015581 
L 576.159922 104.015581 
z
" clip-path="url(#p88bb246bbe)" style="fill: #787800"/>
   </g>
   <g id="patch_123">
    <path d="M 559.65 52.924696 
L 578.774615 52.924696 
L 578.774615 86.113221 
L 612.35 86.113221 
L 612.35 94.14313 
L 559.65 94.14313 
L 559.65 52.924696 
z
" clip-path="url(#p88bb246bbe)" style="fill: #21599c"/>
   </g>
   <g id="matplotlib.axis_1">
    <g id="xtick_1">
     <g id="line2d_2">
      <defs>
       <path id="m335c9b0eab" d="M 0 0 
L 0 4.8 
" style="stroke: #262626"/>
      </defs>
      <g>
       <use xlink:href="#m335c9b0eab" x="152" y="384.48" style="fill: #262626; stroke: #262626"/>
      </g>
     </g>
     <g id="text_1">
      <!-- P4 -->
      <g style="fill: #262626" transform="translate(146.61825 399.078875) scale(0.088 -0.088)">
       <defs>
        <path id="ArialMT-50" d="M 494 0 
L 494 4581 
L 2222 4581 
Q 2678 4581 2919 4538 
Q 3256 4481 3484 4323 
Q 3713 4166 3852 3881 
Q 3991 3597 3991 3256 
Q 3991 2672 3619 2267 
Q 3247 1863 2275 1863 
L 1100 1863 
L 1100 0 
L 494 0 
z
M 1100 2403 
L 2284 2403 
Q 2872 2403 3119 2622 
Q 3366 2841 3366 3238 
Q 3366 3525 3220 3729 
Q 3075 3934 2838 4000 
Q 2684 4041 2272 4041 
L 1100 4041 
L 1100 2403 
z
" transform="scale(0.015625)"/>
        <path id="ArialMT-34" d="M 2069 0 
L 2069 1097 
L 81 1097 
L 81 1613 
L 2172 4581 
L 2631 4581 
L 2631 1613 
L 3250 1613 
L 3250 1097 
L 2631 1097 
L 2631 0 
L 2069 0 
z
M 2069 1613 
L 2069 3678 
L 634 1613 
L 2069 1613 
z
" transform="scale(0.015625)"/>
       </defs>
       <use xlink:href="#ArialMT-50"/>
       <use xlink:href="#ArialMT-34" x="66.699219"/>
      </g>
     </g>
    </g>
    <g id="xtick_2">
     <g id="line2d_3">
      <g>
       <use xlink:href="#m335c9b0eab" x="214" y="384.48" style="fill: #262626; stroke: #262626"/>
      </g>
     </g>
     <g id="text_2">
      <!-- P3 -->
      <g style="fill: #262626" transform="translate(208.61825 399.078875) scale(0.088 -0.088)">
       <defs>
        <path id="ArialMT-33" d="M 269 1209 
L 831 1284 
Q 928 806 1161 595 
Q 1394 384 1728 384 
Q 2125 384 2398 659 
Q 2672 934 2672 1341 
Q 2672 1728 2419 1979 
Q 2166 2231 1775 2231 
Q 1616 2231 1378 2169 
L 1441 2663 
Q 1497 2656 1531 2656 
Q 1891 2656 2178 2843 
Q 2466 3031 2466 3422 
Q 2466 3731 2256 3934 
Q 2047 4138 1716 4138 
Q 1388 4138 1169 3931 
Q 950 3725 888 3313 
L 325 3413 
Q 428 3978 793 4289 
Q 1159 4600 1703 4600 
Q 2078 4600 2393 4439 
Q 2709 4278 2876 4000 
Q 3044 3722 3044 3409 
Q 3044 3113 2884 2869 
Q 2725 2625 2413 2481 
Q 2819 2388 3044 2092 
Q 3269 1797 3269 1353 
Q 3269 753 2831 336 
Q 2394 -81 1725 -81 
Q 1122 -81 723 278 
Q 325 638 269 1209 
z
" transform="scale(0.015625)"/>
       </defs>
       <use xlink:href="#ArialMT-50"/>
       <use xlink:href="#ArialMT-33" x="66.699219"/>
      </g>
     </g>
    </g>
    <g id="xtick_3">
     <g id="line2d_4">
      <g>
       <use xlink:href="#m335c9b0eab" x="276" y="384.48" style="fill: #262626; stroke: #262626"/>
      </g>
     </g>
     <g id="text_3">
      <!-- P2 -->
      <g style="fill: #262626" transform="translate(270.61825 399.078875) scale(0.088 -0.088)">
       <defs>
        <path id="ArialMT-32" d="M 3222 541 
L 3222 0 
L 194 0 
Q 188 203 259 391 
Q 375 700 629 1000 
Q 884 1300 1366 1694 
Q 2113 2306 2375 2664 
Q 2638 3022 2638 3341 
Q 2638 3675 2398 3904 
Q 2159 4134 1775 4134 
Q 1369 4134 1125 3890 
Q 881 3647 878 3216 
L 300 3275 
Q 359 3922 746 4261 
Q 1134 4600 1788 4600 
Q 2447 4600 2831 4234 
Q 3216 3869 3216 3328 
Q 3216 3053 3103 2787 
Q 2991 2522 2730 2228 
Q 2469 1934 1863 1422 
Q 1356 997 1212 845 
Q 1069 694 975 541 
L 3222 541 
z
" transform="scale(0.015625)"/>
       </defs>
       <use xlink:href="#ArialMT-50"/>
       <use xlink:href="#ArialMT-32" x="66.699219"/>
      </g>
     </g>
    </g>
    <g id="xtick_4">
     <g id="line2d_5">
      <g>
       <use xlink:href="#m335c9b0eab" x="338" y="384.48" style="fill: #262626; stroke: #262626"/>
      </g>
     </g>
     <g id="text_4">
      <!-- P1 -->
      <g style="fill: #262626" transform="translate(332.61825 399.078875) scale(0.088 -0.088)">
       <defs>
        <path id="ArialMT-31" d="M 2384 0 
L 1822 0 
L 1822 3584 
Q 1619 3391 1289 3197 
Q 959 3003 697 2906 
L 697 3450 
Q 1169 3672 1522 3987 
Q 1875 4303 2022 4600 
L 2384 4600 
L 2384 0 
z
" transform="scale(0.015625)"/>
       </defs>
       <use xlink:href="#ArialMT-50"/>
       <use xlink:href="#ArialMT-31" x="66.699219"/>
      </g>
     </g>
    </g>
    <g id="xtick_5">
     <g id="line2d_6">
      <g>
       <use xlink:href="#m335c9b0eab" x="400" y="384.48" style="fill: #262626; stroke: #262626"/>
      </g>
     </g>
     <g id="text_5">
      <!-- P1' -->
      <g style="fill: #262626" transform="translate(393.778125 399.078875) scale(0.088 -0.088)">
       <defs>
        <path id="ArialMT-27" d="M 425 2959 
L 281 3816 
L 281 4581 
L 922 4581 
L 922 3816 
L 772 2959 
L 425 2959 
z
" transform="scale(0.015625)"/>
       </defs>
       <use xlink:href="#ArialMT-50"/>
       <use xlink:href="#ArialMT-31" x="66.699219"/>
       <use xlink:href="#ArialMT-27" x="122.314453"/>
      </g>
     </g>
    </g>
    <g id="xtick_6">
     <g id="line2d_7">
      <g>
       <use xlink:href="#m335c9b0eab" x="462" y="384.48" style="fill: #262626; stroke: #262626"/>
      </g>
     </g>
     <g id="text_6">
      <!-- P2' -->
      <g style="fill: #262626" transform="translate(455.778125 399.078875) scale(0.088 -0.088)">
       <use xlink:href="#ArialMT-50"/>
       <use xlink:href="#ArialMT-32" x="66.699219"/>
       <use xlink:href="#ArialMT-27" x="122.314453"/>
      </g>
     </g>
    </g>
    <g id="xtick_7">
     <g id="line2d_8">
      <g>
       <use xlink:href="#m335c9b0eab" x="524" y="384.48" style="fill: #262626; stroke: #262626"/>
      </g>
     </g>
     <g id="text_7">
      <!-- P3' -->
      <g style="fill: #262626" transform="translate(517.778125 399.078875) scale(0.088 -0.088)">
       <use xlink:href="#ArialMT-50"/>
       <use xlink:href="#ArialMT-33" x="66.699219"/>
       <use xlink:href="#ArialMT-27" x="122.314453"/>
      </g>
     </g>
    </g>
    <g id="xtick_8">
     <g id="line2d_9">
      <g>
       <use xlink:href="#m335c9b0eab" x="586" y="384.48" style="fill: #262626; stroke: #262626"/>
      </g>
     </g>
     <g id="text_8">
      <!-- P4' -->
      <g style="fill: #262626" transform="translate(579.778125 399.078875) scale(0.088 -0.088)">
       <use xlink:href="#ArialMT-50"/>
       <use xlink:href="#ArialMT-34" x="66.699219"/>
       <use xlink:href="#ArialMT-27" x="122.314453"/>
      </g>
     </g>
    </g>
   </g>
   <g id="matplotlib.axis_2">
    <g id="ytick_1">
     <g id="line2d_10">
      <defs>
       <path id="mc6b3e53a6e" d="M 0 0 
L -4.8 0 
" style="stroke: #262626"/>
      </defs>
      <g>
       <use xlink:href="#mc6b3e53a6e" x="90" y="384.48" style="fill: #262626; stroke: #262626"/>
      </g>
     </g>
     <g id="text_9">
      <!-- 0.0 -->
      <g style="fill: #262626" transform="translate(69.468 387.629437) scale(0.088 -0.088)">
       <defs>
        <path id="ArialMT-30" d="M 266 2259 
Q 266 3072 433 3567 
Q 600 4063 929 4331 
Q 1259 4600 1759 4600 
Q 2128 4600 2406 4451 
Q 2684 4303 2865 4023 
Q 3047 3744 3150 3342 
Q 3253 2941 3253 2259 
Q 3253 1453 3087 958 
Q 2922 463 2592 192 
Q 2263 -78 1759 -78 
Q 1097 -78 719 397 
Q 266 969 266 2259 
z
M 844 2259 
Q 844 1131 1108 757 
Q 1372 384 1759 384 
Q 2147 384 2411 759 
Q 2675 1134 2675 2259 
Q 2675 3391 2411 3762 
Q 2147 4134 1753 4134 
Q 1366 4134 1134 3806 
Q 844 3388 844 2259 
z
" transform="scale(0.015625)"/>
        <path id="ArialMT-2e" d="M 581 0 
L 581 641 
L 1222 641 
L 1222 0 
L 581 0 
z
" transform="scale(0.015625)"/>
       </defs>
       <use xlink:href="#ArialMT-30"/>
       <use xlink:href="#ArialMT-2e" x="55.615234"/>
       <use xlink:href="#ArialMT-30" x="83.398438"/>
      </g>
     </g>
    </g>
    <g id="ytick_2">
     <g id="line2d_11">
      <g>
       <use xlink:href="#mc6b3e53a6e" x="90" y="317.952" style="fill: #262626; stroke: #262626"/>
      </g>
     </g>
     <g id="text_10">
      <!-- 0.2 -->
      <g style="fill: #262626" transform="translate(69.468 321.101437) scale(0.088 -0.088)">
       <use xlink:href="#ArialMT-30"/>
       <use xlink:href="#ArialMT-2e" x="55.615234"/>
       <use xlink:href="#ArialMT-32" x="83.398438"/>
      </g>
     </g>
    </g>
    <g id="ytick_3">
     <g id="line2d_12">
      <g>
       <use xlink:href="#mc6b3e53a6e" x="90" y="251.424" style="fill: #262626; stroke: #262626"/>
      </g>
     </g>
     <g id="text_11">
      <!-- 0.4 -->
      <g style="fill: #262626" transform="translate(69.468 254.573437) scale(0.088 -0.088)">
       <use xlink:href="#ArialMT-30"/>
       <use xlink:href="#ArialMT-2e" x="55.615234"/>
       <use xlink:href="#ArialMT-34" x="83.398438"/>
      </g>
     </g>
    </g>
    <g id="ytick_4">
     <g id="line2d_13">
      <g>
       <use xlink:href="#mc6b3e53a6e" x="90" y="184.896" style="fill: #262626; stroke: #262626"/>
      </g>
     </g>
     <g id="text_12">
      <!-- 0.6 -->
      <g style="fill: #262626" transform="translate(69.468 188.045437) scale(0.088 -0.088)">
       <defs>
        <path id="ArialMT-36" d="M 3184 3459 
L 2625 3416 
Q 2550 3747 2413 3897 
Q 2184 4138 1850 4138 
Q 1581 4138 1378 3988 
Q 1113 3794 959 3422 
Q 806 3050 800 2363 
Q 1003 2672 1297 2822 
Q 1591 2972 1913 2972 
Q 2475 2972 2870 2558 
Q 3266 2144 3266 1488 
Q 3266 1056 3080 686 
Q 2894 316 2569 119 
Q 2244 -78 1831 -78 
Q 1128 -78 684 439 
Q 241 956 241 2144 
Q 241 3472 731 4075 
Q 1159 4600 1884 4600 
Q 2425 4600 2770 4297 
Q 3116 3994 3184 3459 
z
M 888 1484 
Q 888 1194 1011 928 
Q 1134 663 1356 523 
Q 1578 384 1822 384 
Q 2178 384 2434 671 
Q 2691 959 2691 1453 
Q 2691 1928 2437 2201 
Q 2184 2475 1800 2475 
Q 1419 2475 1153 2201 
Q 888 1928 888 1484 
z
" transform="scale(0.015625)"/>
       </defs>
       <use xlink:href="#ArialMT-30"/>
       <use xlink:href="#ArialMT-2e" x="55.615234"/>
       <use xlink:href="#ArialMT-36" x="83.398438"/>
      </g>
     </g>
    </g>
    <g id="ytick_5">
     <g id="line2d_14">
      <g>
       <use xlink:href="#mc6b3e53a6e" x="90" y="118.368" style="fill: #262626; stroke: #262626"/>
      </g>
     </g>
     <g id="text_13">
      <!-- 0.8 -->
      <g style="fill: #262626" transform="translate(69.468 121.517437) scale(0.088 -0.088)">
       <defs>
        <path id="ArialMT-38" d="M 1131 2484 
Q 781 2613 612 2850 
Q 444 3088 444 3419 
Q 444 3919 803 4259 
Q 1163 4600 1759 4600 
Q 2359 4600 2725 4251 
Q 3091 3903 3091 3403 
Q 3091 3084 2923 2848 
Q 2756 2613 2416 2484 
Q 2838 2347 3058 2040 
Q 3278 1734 3278 1309 
Q 3278 722 2862 322 
Q 2447 -78 1769 -78 
Q 1091 -78 675 323 
Q 259 725 259 1325 
Q 259 1772 486 2073 
Q 713 2375 1131 2484 
z
M 1019 3438 
Q 1019 3113 1228 2906 
Q 1438 2700 1772 2700 
Q 2097 2700 2305 2904 
Q 2513 3109 2513 3406 
Q 2513 3716 2298 3927 
Q 2084 4138 1766 4138 
Q 1444 4138 1231 3931 
Q 1019 3725 1019 3438 
z
M 838 1322 
Q 838 1081 952 856 
Q 1066 631 1291 507 
Q 1516 384 1775 384 
Q 2178 384 2440 643 
Q 2703 903 2703 1303 
Q 2703 1709 2433 1975 
Q 2163 2241 1756 2241 
Q 1359 2241 1098 1978 
Q 838 1716 838 1322 
z
" transform="scale(0.015625)"/>
       </defs>
       <use xlink:href="#ArialMT-30"/>
       <use xlink:href="#ArialMT-2e" x="55.615234"/>
       <use xlink:href="#ArialMT-38" x="83.398438"/>
      </g>
     </g>
    </g>
    <g id="ytick_6">
     <g id="line2d_15">
      <g>
       <use xlink:href="#mc6b3e53a6e" x="90" y="51.84" style="fill: #262626; stroke: #262626"/>
      </g>
     </g>
     <g id="text_14">
      <!-- 1.0 -->
      <g style="fill: #262626" transform="translate(69.468 54.989437) scale(0.088 -0.088)">
       <use xlink:href="#ArialMT-31"/>
       <use xlink:href="#ArialMT-2e" x="55.615234"/>
       <use xlink:href="#ArialMT-30" x="83.398438"/>
      </g>
     </g>
    </g>
    <g id="text_15">
     <!-- percentage -->
     <g style="fill: #262626" transform="translate(63.4475 242.1765) rotate(-90) scale(0.096 -0.096)">
      <defs>
       <path id="ArialMT-70" d="M 422 -1272 
L 422 3319 
L 934 3319 
L 934 2888 
Q 1116 3141 1344 3267 
Q 1572 3394 1897 3394 
Q 2322 3394 2647 3175 
Q 2972 2956 3137 2557 
Q 3303 2159 3303 1684 
Q 3303 1175 3120 767 
Q 2938 359 2589 142 
Q 2241 -75 1856 -75 
Q 1575 -75 1351 44 
Q 1128 163 984 344 
L 984 -1272 
L 422 -1272 
z
M 931 1641 
Q 931 1000 1190 694 
Q 1450 388 1819 388 
Q 2194 388 2461 705 
Q 2728 1022 2728 1688 
Q 2728 2322 2467 2637 
Q 2206 2953 1844 2953 
Q 1484 2953 1207 2617 
Q 931 2281 931 1641 
z
" transform="scale(0.015625)"/>
       <path id="ArialMT-65" d="M 2694 1069 
L 3275 997 
Q 3138 488 2766 206 
Q 2394 -75 1816 -75 
Q 1088 -75 661 373 
Q 234 822 234 1631 
Q 234 2469 665 2931 
Q 1097 3394 1784 3394 
Q 2450 3394 2872 2941 
Q 3294 2488 3294 1666 
Q 3294 1616 3291 1516 
L 816 1516 
Q 847 969 1125 678 
Q 1403 388 1819 388 
Q 2128 388 2347 550 
Q 2566 713 2694 1069 
z
M 847 1978 
L 2700 1978 
Q 2663 2397 2488 2606 
Q 2219 2931 1791 2931 
Q 1403 2931 1139 2672 
Q 875 2413 847 1978 
z
" transform="scale(0.015625)"/>
       <path id="ArialMT-72" d="M 416 0 
L 416 3319 
L 922 3319 
L 922 2816 
Q 1116 3169 1280 3281 
Q 1444 3394 1641 3394 
Q 1925 3394 2219 3213 
L 2025 2691 
Q 1819 2813 1613 2813 
Q 1428 2813 1281 2702 
Q 1134 2591 1072 2394 
Q 978 2094 978 1738 
L 978 0 
L 416 0 
z
" transform="scale(0.015625)"/>
       <path id="ArialMT-63" d="M 2588 1216 
L 3141 1144 
Q 3050 572 2676 248 
Q 2303 -75 1759 -75 
Q 1078 -75 664 370 
Q 250 816 250 1647 
Q 250 2184 428 2587 
Q 606 2991 970 3192 
Q 1334 3394 1763 3394 
Q 2303 3394 2647 3120 
Q 2991 2847 3088 2344 
L 2541 2259 
Q 2463 2594 2264 2762 
Q 2066 2931 1784 2931 
Q 1359 2931 1093 2626 
Q 828 2322 828 1663 
Q 828 994 1084 691 
Q 1341 388 1753 388 
Q 2084 388 2306 591 
Q 2528 794 2588 1216 
z
" transform="scale(0.015625)"/>
       <path id="ArialMT-6e" d="M 422 0 
L 422 3319 
L 928 3319 
L 928 2847 
Q 1294 3394 1984 3394 
Q 2284 3394 2536 3286 
Q 2788 3178 2913 3003 
Q 3038 2828 3088 2588 
Q 3119 2431 3119 2041 
L 3119 0 
L 2556 0 
L 2556 2019 
Q 2556 2363 2490 2533 
Q 2425 2703 2258 2804 
Q 2091 2906 1866 2906 
Q 1506 2906 1245 2678 
Q 984 2450 984 1813 
L 984 0 
L 422 0 
z
" transform="scale(0.015625)"/>
       <path id="ArialMT-74" d="M 1650 503 
L 1731 6 
Q 1494 -44 1306 -44 
Q 1000 -44 831 53 
Q 663 150 594 308 
Q 525 466 525 972 
L 525 2881 
L 113 2881 
L 113 3319 
L 525 3319 
L 525 4141 
L 1084 4478 
L 1084 3319 
L 1650 3319 
L 1650 2881 
L 1084 2881 
L 1084 941 
Q 1084 700 1114 631 
Q 1144 563 1211 522 
Q 1278 481 1403 481 
Q 1497 481 1650 503 
z
" transform="scale(0.015625)"/>
       <path id="ArialMT-61" d="M 2588 409 
Q 2275 144 1986 34 
Q 1697 -75 1366 -75 
Q 819 -75 525 192 
Q 231 459 231 875 
Q 231 1119 342 1320 
Q 453 1522 633 1644 
Q 813 1766 1038 1828 
Q 1203 1872 1538 1913 
Q 2219 1994 2541 2106 
Q 2544 2222 2544 2253 
Q 2544 2597 2384 2738 
Q 2169 2928 1744 2928 
Q 1347 2928 1158 2789 
Q 969 2650 878 2297 
L 328 2372 
Q 403 2725 575 2942 
Q 747 3159 1072 3276 
Q 1397 3394 1825 3394 
Q 2250 3394 2515 3294 
Q 2781 3194 2906 3042 
Q 3031 2891 3081 2659 
Q 3109 2516 3109 2141 
L 3109 1391 
Q 3109 606 3145 398 
Q 3181 191 3288 0 
L 2700 0 
Q 2613 175 2588 409 
z
M 2541 1666 
Q 2234 1541 1622 1453 
Q 1275 1403 1131 1340 
Q 988 1278 909 1158 
Q 831 1038 831 891 
Q 831 666 1001 516 
Q 1172 366 1500 366 
Q 1825 366 2078 508 
Q 2331 650 2450 897 
Q 2541 1088 2541 1459 
L 2541 1666 
z
" transform="scale(0.015625)"/>
       <path id="ArialMT-67" d="M 319 -275 
L 866 -356 
Q 900 -609 1056 -725 
Q 1266 -881 1628 -881 
Q 2019 -881 2231 -725 
Q 2444 -569 2519 -288 
Q 2563 -116 2559 434 
Q 2191 0 1641 0 
Q 956 0 581 494 
Q 206 988 206 1678 
Q 206 2153 378 2554 
Q 550 2956 876 3175 
Q 1203 3394 1644 3394 
Q 2231 3394 2613 2919 
L 2613 3319 
L 3131 3319 
L 3131 450 
Q 3131 -325 2973 -648 
Q 2816 -972 2473 -1159 
Q 2131 -1347 1631 -1347 
Q 1038 -1347 672 -1080 
Q 306 -813 319 -275 
z
M 784 1719 
Q 784 1066 1043 766 
Q 1303 466 1694 466 
Q 2081 466 2343 764 
Q 2606 1063 2606 1700 
Q 2606 2309 2336 2618 
Q 2066 2928 1684 2928 
Q 1309 2928 1046 2623 
Q 784 2319 784 1719 
z
" transform="scale(0.015625)"/>
      </defs>
      <use xlink:href="#ArialMT-70"/>
      <use xlink:href="#ArialMT-65" x="55.615234"/>
      <use xlink:href="#ArialMT-72" x="111.230469"/>
      <use xlink:href="#ArialMT-63" x="144.53125"/>
      <use xlink:href="#ArialMT-65" x="194.53125"/>
      <use xlink:href="#ArialMT-6e" x="250.146484"/>
      <use xlink:href="#ArialMT-74" x="305.761719"/>
      <use xlink:href="#ArialMT-61" x="333.544922"/>
      <use xlink:href="#ArialMT-67" x="389.160156"/>
      <use xlink:href="#ArialMT-65" x="444.775391"/>
     </g>
    </g>
   </g>
   <g id="line2d_16">
    <path d="M 369 384.48 
L 369 51.84 
" clip-path="url(#p88bb246bbe)" style="fill: none; stroke: #daa520; stroke-width: 2; stroke-linecap: round"/>
   </g>
   <g id="patch_124">
    <path d="M 90 384.48 
L 648 384.48 
" style="fill: none; stroke: #262626; stroke-linejoin: miter; stroke-linecap: square"/>
   </g>
   <g id="patch_125">
    <path d="M 90 51.84 
L 648 51.84 
" style="fill: none; stroke: #262626; stroke-linejoin: miter; stroke-linecap: square"/>
   </g>
   <g id="text_16">
    <!-- gluc vs. control probability PPSM n=69 -->
    <g style="fill: #262626" transform="translate(286.69575 45.84) scale(0.096 -0.096)">
     <defs>
      <path id="ArialMT-6c" d="M 409 0 
L 409 4581 
L 972 4581 
L 972 0 
L 409 0 
z
" transform="scale(0.015625)"/>
      <path id="ArialMT-75" d="M 2597 0 
L 2597 488 
Q 2209 -75 1544 -75 
Q 1250 -75 995 37 
Q 741 150 617 320 
Q 494 491 444 738 
Q 409 903 409 1263 
L 409 3319 
L 972 3319 
L 972 1478 
Q 972 1038 1006 884 
Q 1059 663 1231 536 
Q 1403 409 1656 409 
Q 1909 409 2131 539 
Q 2353 669 2445 892 
Q 2538 1116 2538 1541 
L 2538 3319 
L 3100 3319 
L 3100 0 
L 2597 0 
z
" transform="scale(0.015625)"/>
      <path id="ArialMT-20" transform="scale(0.015625)"/>
      <path id="ArialMT-76" d="M 1344 0 
L 81 3319 
L 675 3319 
L 1388 1331 
Q 1503 1009 1600 663 
Q 1675 925 1809 1294 
L 2547 3319 
L 3125 3319 
L 1869 0 
L 1344 0 
z
" transform="scale(0.015625)"/>
      <path id="ArialMT-73" d="M 197 991 
L 753 1078 
Q 800 744 1014 566 
Q 1228 388 1613 388 
Q 2000 388 2187 545 
Q 2375 703 2375 916 
Q 2375 1106 2209 1216 
Q 2094 1291 1634 1406 
Q 1016 1563 777 1677 
Q 538 1791 414 1992 
Q 291 2194 291 2438 
Q 291 2659 392 2848 
Q 494 3038 669 3163 
Q 800 3259 1026 3326 
Q 1253 3394 1513 3394 
Q 1903 3394 2198 3281 
Q 2494 3169 2634 2976 
Q 2775 2784 2828 2463 
L 2278 2388 
Q 2241 2644 2061 2787 
Q 1881 2931 1553 2931 
Q 1166 2931 1000 2803 
Q 834 2675 834 2503 
Q 834 2394 903 2306 
Q 972 2216 1119 2156 
Q 1203 2125 1616 2013 
Q 2213 1853 2448 1751 
Q 2684 1650 2818 1456 
Q 2953 1263 2953 975 
Q 2953 694 2789 445 
Q 2625 197 2315 61 
Q 2006 -75 1616 -75 
Q 969 -75 630 194 
Q 291 463 197 991 
z
" transform="scale(0.015625)"/>
      <path id="ArialMT-6f" d="M 213 1659 
Q 213 2581 725 3025 
Q 1153 3394 1769 3394 
Q 2453 3394 2887 2945 
Q 3322 2497 3322 1706 
Q 3322 1066 3130 698 
Q 2938 331 2570 128 
Q 2203 -75 1769 -75 
Q 1072 -75 642 372 
Q 213 819 213 1659 
z
M 791 1659 
Q 791 1022 1069 705 
Q 1347 388 1769 388 
Q 2188 388 2466 706 
Q 2744 1025 2744 1678 
Q 2744 2294 2464 2611 
Q 2184 2928 1769 2928 
Q 1347 2928 1069 2612 
Q 791 2297 791 1659 
z
" transform="scale(0.015625)"/>
      <path id="ArialMT-62" d="M 941 0 
L 419 0 
L 419 4581 
L 981 4581 
L 981 2947 
Q 1338 3394 1891 3394 
Q 2197 3394 2470 3270 
Q 2744 3147 2920 2923 
Q 3097 2700 3197 2384 
Q 3297 2069 3297 1709 
Q 3297 856 2875 390 
Q 2453 -75 1863 -75 
Q 1275 -75 941 416 
L 941 0 
z
M 934 1684 
Q 934 1088 1097 822 
Q 1363 388 1816 388 
Q 2184 388 2453 708 
Q 2722 1028 2722 1663 
Q 2722 2313 2464 2622 
Q 2206 2931 1841 2931 
Q 1472 2931 1203 2611 
Q 934 2291 934 1684 
z
" transform="scale(0.015625)"/>
      <path id="ArialMT-69" d="M 425 3934 
L 425 4581 
L 988 4581 
L 988 3934 
L 425 3934 
z
M 425 0 
L 425 3319 
L 988 3319 
L 988 0 
L 425 0 
z
" transform="scale(0.015625)"/>
      <path id="ArialMT-79" d="M 397 -1278 
L 334 -750 
Q 519 -800 656 -800 
Q 844 -800 956 -737 
Q 1069 -675 1141 -563 
Q 1194 -478 1313 -144 
Q 1328 -97 1363 -6 
L 103 3319 
L 709 3319 
L 1400 1397 
Q 1534 1031 1641 628 
Q 1738 1016 1872 1384 
L 2581 3319 
L 3144 3319 
L 1881 -56 
Q 1678 -603 1566 -809 
Q 1416 -1088 1222 -1217 
Q 1028 -1347 759 -1347 
Q 597 -1347 397 -1278 
z
" transform="scale(0.015625)"/>
      <path id="ArialMT-53" d="M 288 1472 
L 859 1522 
Q 900 1178 1048 958 
Q 1197 738 1509 602 
Q 1822 466 2213 466 
Q 2559 466 2825 569 
Q 3091 672 3220 851 
Q 3350 1031 3350 1244 
Q 3350 1459 3225 1620 
Q 3100 1781 2813 1891 
Q 2628 1963 1997 2114 
Q 1366 2266 1113 2400 
Q 784 2572 623 2826 
Q 463 3081 463 3397 
Q 463 3744 659 4045 
Q 856 4347 1234 4503 
Q 1613 4659 2075 4659 
Q 2584 4659 2973 4495 
Q 3363 4331 3572 4012 
Q 3781 3694 3797 3291 
L 3216 3247 
Q 3169 3681 2898 3903 
Q 2628 4125 2100 4125 
Q 1550 4125 1298 3923 
Q 1047 3722 1047 3438 
Q 1047 3191 1225 3031 
Q 1400 2872 2139 2705 
Q 2878 2538 3153 2413 
Q 3553 2228 3743 1945 
Q 3934 1663 3934 1294 
Q 3934 928 3725 604 
Q 3516 281 3123 101 
Q 2731 -78 2241 -78 
Q 1619 -78 1198 103 
Q 778 284 539 648 
Q 300 1013 288 1472 
z
" transform="scale(0.015625)"/>
      <path id="ArialMT-4d" d="M 475 0 
L 475 4581 
L 1388 4581 
L 2472 1338 
Q 2622 884 2691 659 
Q 2769 909 2934 1394 
L 4031 4581 
L 4847 4581 
L 4847 0 
L 4263 0 
L 4263 3834 
L 2931 0 
L 2384 0 
L 1059 3900 
L 1059 0 
L 475 0 
z
" transform="scale(0.015625)"/>
      <path id="ArialMT-3d" d="M 3381 2694 
L 356 2694 
L 356 3219 
L 3381 3219 
L 3381 2694 
z
M 3381 1303 
L 356 1303 
L 356 1828 
L 3381 1828 
L 3381 1303 
z
" transform="scale(0.015625)"/>
      <path id="ArialMT-39" d="M 350 1059 
L 891 1109 
Q 959 728 1153 556 
Q 1347 384 1650 384 
Q 1909 384 2104 503 
Q 2300 622 2425 820 
Q 2550 1019 2634 1356 
Q 2719 1694 2719 2044 
Q 2719 2081 2716 2156 
Q 2547 1888 2255 1720 
Q 1963 1553 1622 1553 
Q 1053 1553 659 1965 
Q 266 2378 266 3053 
Q 266 3750 677 4175 
Q 1088 4600 1706 4600 
Q 2153 4600 2523 4359 
Q 2894 4119 3086 3673 
Q 3278 3228 3278 2384 
Q 3278 1506 3087 986 
Q 2897 466 2520 194 
Q 2144 -78 1638 -78 
Q 1100 -78 759 220 
Q 419 519 350 1059 
z
M 2653 3081 
Q 2653 3566 2395 3850 
Q 2138 4134 1775 4134 
Q 1400 4134 1122 3828 
Q 844 3522 844 3034 
Q 844 2597 1108 2323 
Q 1372 2050 1759 2050 
Q 2150 2050 2401 2323 
Q 2653 2597 2653 3081 
z
" transform="scale(0.015625)"/>
     </defs>
     <use xlink:href="#ArialMT-67"/>
     <use xlink:href="#ArialMT-6c" x="55.615234"/>
     <use xlink:href="#ArialMT-75" x="77.832031"/>
     <use xlink:href="#ArialMT-63" x="133.447266"/>
     <use xlink:href="#ArialMT-20" x="183.447266"/>
     <use xlink:href="#ArialMT-76" x="211.230469"/>
     <use xlink:href="#ArialMT-73" x="261.230469"/>
     <use xlink:href="#ArialMT-2e" x="311.230469"/>
     <use xlink:href="#ArialMT-20" x="339.013672"/>
     <use xlink:href="#ArialMT-63" x="366.796875"/>
     <use xlink:href="#ArialMT-6f" x="416.796875"/>
     <use xlink:href="#ArialMT-6e" x="472.412109"/>
     <use xlink:href="#ArialMT-74" x="528.027344"/>
     <use xlink:href="#ArialMT-72" x="555.810547"/>
     <use xlink:href="#ArialMT-6f" x="589.111328"/>
     <use xlink:href="#ArialMT-6c" x="644.726562"/>
     <use xlink:href="#ArialMT-20" x="666.943359"/>
     <use xlink:href="#ArialMT-70" x="694.726562"/>
     <use xlink:href="#ArialMT-72" x="750.341797"/>
     <use xlink:href="#ArialMT-6f" x="783.642578"/>
     <use xlink:href="#ArialMT-62" x="839.257812"/>
     <use xlink:href="#ArialMT-61" x="894.873047"/>
     <use xlink:href="#ArialMT-62" x="950.488281"/>
     <use xlink:href="#ArialMT-69" x="1006.103516"/>
     <use xlink:href="#ArialMT-6c" x="1028.320312"/>
     <use xlink:href="#ArialMT-69" x="1050.537109"/>
     <use xlink:href="#ArialMT-74" x="1072.753906"/>
     <use xlink:href="#ArialMT-79" x="1100.537109"/>
     <use xlink:href="#ArialMT-20" x="1150.537109"/>
     <use xlink:href="#ArialMT-50" x="1178.320312"/>
     <use xlink:href="#ArialMT-50" x="1245.019531"/>
     <use xlink:href="#ArialMT-53" x="1311.71875"/>
     <use xlink:href="#ArialMT-4d" x="1378.417969"/>
     <use xlink:href="#ArialMT-20" x="1461.71875"/>
     <use xlink:href="#ArialMT-6e" x="1489.501953"/>
     <use xlink:href="#ArialMT-3d" x="1545.117188"/>
     <use xlink:href="#ArialMT-36" x="1603.515625"/>
     <use xlink:href="#ArialMT-39" x="1659.130859"/>
    </g>
   </g>
  </g>
 </g>
 <defs>
  <clipPath id="p88bb246bbe">
   <rect x="90" y="51.84" width="558" height="332.64"/>
  </clipPath>
 </defs>
</svg>
