<?xml version="1.0" encoding="utf-8" standalone="no"?>
<!DOCTYPE svg PUBLIC "-//W3C//DTD SVG 1.1//EN"
  "http://www.w3.org/Graphics/SVG/1.1/DTD/svg11.dtd">
<svg xmlns:xlink="http://www.w3.org/1999/xlink" width="720pt" height="432pt" viewBox="0 0 720 432" xmlns="http://www.w3.org/2000/svg" version="1.1">
 <metadata>
  <rdf:RDF xmlns:dc="http://purl.org/dc/elements/1.1/" xmlns:cc="http://creativecommons.org/ns#" xmlns:rdf="http://www.w3.org/1999/02/22-rdf-syntax-ns#">
   <cc:Work>
    <dc:type rdf:resource="http://purl.org/dc/dcmitype/StillImage"/>
    <dc:date>2023-11-09T21:09:34.223062</dc:date>
    <dc:format>image/svg+xml</dc:format>
    <dc:creator>
     <cc:Agent>
      <dc:title>Matplotlib v3.7.1, https://matplotlib.org/</dc:title>
     </cc:Agent>
    </dc:creator>
   </cc:Work>
  </rdf:RDF>
 </metadata>
 <defs>
  <style type="text/css">*{stroke-linejoin: round; stroke-linecap: butt}</style>
 </defs>
 <g id="figure_1">
  <g id="patch_1">
   <path d="M 0 432 
L 720 432 
L 720 0 
L 0 0 
z
" style="fill: #ffffff"/>
  </g>
  <g id="axes_1">
   <g id="patch_2">
    <path d="M 90 384.48 
L 648 384.48 
L 648 51.84 
L 90 51.84 
z
" style="fill: #ffffff"/>
   </g>
   <g id="patch_3">
    <path d="M 307 384.48 
L 369 384.48 
L 369 51.84 
L 307 51.84 
z
" clip-path="url(#pd918329dc6)" style="fill: #ffd700; opacity: 0.35; stroke: #ffffff; stroke-width: 0.8; stroke-linejoin: miter"/>
   </g>
   <g id="line2d_1">
    <path d="M 90 384.48 
L 648 384.48 
" clip-path="url(#pd918329dc6)" style="fill: none; stroke: #000000; stroke-width: 0.5; stroke-linecap: round"/>
   </g>
   <g id="patch_4">
    <path d="M 147.032787 383.660488 
Q 151.762274 383.660488 153.814221 383.618304 
Q 155.866168 383.575819 155.866168 383.478796 
Q 155.866168 383.382676 153.814221 383.341396 
Q 151.762274 383.299815 147.032787 383.299815 
L 140.701781 383.299815 
L 140.701781 383.660488 
L 147.032787 383.660488 
z
M 140.701781 383.91088 
L 140.701781 384.443002 
L 125.65 384.443002 
L 125.65 383.037069 
L 148.634307 383.037069 
Q 160.170252 383.037069 165.537844 383.130476 
Q 170.917949 383.223582 170.917949 383.425162 
Q 170.917949 383.564369 168.11529 383.653859 
Q 165.325142 383.74335 159.694801 383.785835 
Q 162.785233 383.802709 165.225047 383.86267 
Q 167.677374 383.92233 170.179748 384.04376 
L 178.35 384.443002 
L 162.322293 384.443002 
L 155.203039 384.093778 
Q 153.050997 383.988318 150.836396 383.94975 
Q 148.634307 383.91088 144.955817 383.91088 
L 140.701781 383.91088 
z
" clip-path="url(#pd918329dc6)" style="fill: #bd2e1f"/>
   </g>
   <g id="patch_5">
    <path d="M 142.437692 381.146337 
L 161.562308 381.146337 
L 161.562308 382.952539 
L 142.437692 382.952539 
L 142.437692 381.146337 
z
" clip-path="url(#pd918329dc6)" style="fill: #21599c"/>
   </g>
   <g id="patch_6">
    <path d="M 125.65 379.183261 
L 142.578032 379.183261 
L 163.968106 380.46328 
L 163.968106 379.183261 
L 178.35 379.183261 
L 178.35 381.049689 
L 161.409364 381.049689 
L 140.01929 379.76967 
L 140.01929 381.049689 
L 125.65 381.049689 
L 125.65 379.183261 
z
" clip-path="url(#pd918329dc6)" style="fill: #40ba47"/>
   </g>
   <g id="patch_7">
    <path d="M 125.65 377.149187 
L 139.537864 377.149187 
L 139.537864 377.855082 
L 159.555783 377.149187 
L 175.683253 377.149187 
L 149.743078 378.065234 
L 178.35 379.083248 
L 160.964195 379.083248 
L 139.537864 378.321395 
L 139.537864 379.083248 
L 125.65 379.083248 
L 125.65 377.149187 
z
" clip-path="url(#pd918329dc6)" style="fill: #bd2e1f"/>
   </g>
   <g id="patch_8">
    <path d="M 162.155336 376.27697 
L 141.887763 376.27697 
L 138.68762 376.99462 
L 125.65 376.99462 
L 144.269015 373.055145 
L 159.730985 373.055145 
L 178.35 376.99462 
L 165.323155 376.99462 
L 162.155336 376.27697 
z
M 145.120231 375.545812 
L 158.890544 375.545812 
L 152.016162 373.978802 
L 145.120231 375.545812 
z
" clip-path="url(#pd918329dc6)" style="fill: #21599c"/>
   </g>
   <g id="patch_9">
    <path d="M 140.091481 361.448562 
L 140.091481 369.891606 
L 145.265444 369.891606 
Q 154.112802 369.891606 158.782574 368.806199 
Q 163.464351 367.720792 163.464351 365.653773 
Q 163.464351 363.598617 158.806583 362.525072 
Q 154.16082 361.448562 145.265444 361.448562 
L 140.091481 361.448562 
z
M 125.65 358.749872 
L 140.871777 358.749872 
Q 153.63262 358.749872 159.874989 359.200642 
Q 166.117358 359.648447 170.583052 360.724957 
Q 174.520547 361.662084 176.429271 362.886875 
Q 178.35 364.108699 178.35 365.653773 
Q 178.35 367.222572 176.429271 368.450328 
Q 174.520547 369.678083 170.583052 370.612245 
Q 166.081344 371.688756 159.778952 372.139526 
Q 153.47656 372.587331 140.871777 372.587331 
L 125.65 372.587331 
L 125.65 358.749872 
z
" clip-path="url(#pd918329dc6)" style="fill: #6b296b"/>
   </g>
   <g id="patch_10">
    <path d="M 125.65 338.801877 
L 153.043021 338.801877 
Q 165.271068 338.801877 171.803672 340.421327 
Q 178.35 342.036687 178.35 345.026127 
Q 178.35 348.031924 171.803672 349.647284 
Q 165.271068 351.262645 153.043021 351.262645 
L 142.159922 351.262645 
L 142.159922 357.883578 
L 125.65 357.883578 
L 125.65 338.801877 
z
M 142.159922 342.367939 
L 142.159922 347.696583 
L 151.286354 347.696583 
Q 156.08974 347.696583 158.711016 347.001365 
Q 161.332292 346.306146 161.332292 345.026127 
Q 161.332292 343.750196 158.711016 343.059067 
Q 156.08974 342.367939 151.286354 342.367939 
L 142.159922 342.367939 
z
" clip-path="url(#pd918329dc6)" style="fill: #787800"/>
   </g>
   <g id="patch_11">
    <path d="M 125.65 311.342369 
L 177.253077 311.342369 
L 177.253077 316.464999 
L 144.774615 316.464999 
L 144.774615 321.3512 
L 175.329487 321.3512 
L 175.329487 326.47383 
L 144.774615 326.47383 
L 144.774615 332.491512 
L 178.35 332.491512 
L 178.35 337.608513 
L 125.65 337.608513 
L 125.65 311.342369 
z
" clip-path="url(#pd918329dc6)" style="fill: #6b296b"/>
   </g>
   <g id="patch_12">
    <path d="M 153.405333 305.783115 
L 152.373292 305.783115 
Q 139.714313 305.783115 132.676667 302.680868 
Q 125.65 299.57375 125.65 294.036457 
Q 125.65 288.508904 132.665687 285.377436 
Q 139.681375 282.241098 152 282.241098 
Q 164.450375 282.241098 171.400188 285.348216 
Q 178.35 288.450463 178.35 294.036457 
Q 178.35 297.869218 174.661 300.6403 
Q 170.972 303.411381 164.044146 304.809097 
L 174.364563 309.922692 
L 161.771458 309.922692 
L 153.405333 305.783115 
z
M 152 286.487817 
Q 145.961458 286.487817 142.634771 288.465074 
Q 139.308083 290.44233 139.308083 294.036457 
Q 139.308083 297.689025 142.557917 299.632191 
Q 145.818729 301.570487 152 301.570487 
Q 158.071479 301.570487 161.398167 299.59323 
Q 164.724854 297.611103 164.724854 294.036457 
Q 164.724854 290.44233 161.398167 288.465074 
Q 158.071479 286.487817 152 286.487817 
z
" clip-path="url(#pd918329dc6)" style="fill: #40ba47"/>
   </g>
   <g id="patch_13">
    <path d="M 187.65 381.741012 
L 239.253077 381.741012 
L 239.253077 382.261494 
L 206.774615 382.261494 
L 206.774615 382.757954 
L 237.329487 382.757954 
L 237.329487 383.278436 
L 206.774615 383.278436 
L 206.774615 383.88986 
L 240.35 383.88986 
L 240.35 384.40977 
L 187.65 384.40977 
L 187.65 381.741012 
z
" clip-path="url(#pd918329dc6)" style="fill: #6b296b"/>
   </g>
   <g id="patch_14">
    <path d="M 215.405333 380.822915 
L 214.373292 380.822915 
Q 201.714313 380.822915 194.676667 380.282596 
Q 187.65 379.741429 187.65 378.776999 
Q 187.65 377.814264 194.665687 377.268856 
Q 201.681375 376.7226 214 376.7226 
Q 226.450375 376.7226 233.400187 377.263767 
Q 240.35 377.804086 240.35 378.776999 
Q 240.35 379.444551 236.661 379.92719 
Q 232.972 380.40983 226.044146 380.65327 
L 236.364562 381.543905 
L 223.771458 381.543905 
L 215.405333 380.822915 
z
M 214 377.462251 
Q 207.961458 377.462251 204.634771 377.80663 
Q 201.308083 378.151009 201.308083 378.776999 
Q 201.308083 379.413167 204.557917 379.751608 
Q 207.818729 380.089201 214 380.089201 
Q 220.071479 380.089201 223.398167 379.744822 
Q 226.724854 379.399595 226.724854 378.776999 
Q 226.724854 378.151009 223.398167 377.80663 
Q 220.071479 377.462251 214 377.462251 
z
" clip-path="url(#pd918329dc6)" style="fill: #40ba47"/>
   </g>
   <g id="patch_15">
    <path d="M 187.65 370.061459 
L 202.813382 370.061459 
L 202.813382 372.487525 
L 225.186618 372.487525 
L 225.186618 370.061459 
L 240.35 370.061459 
L 240.35 376.428178 
L 225.186618 376.428178 
L 225.186618 373.729213 
L 202.813382 373.729213 
L 202.813382 376.428178 
L 187.65 376.428178 
L 187.65 370.061459 
z
" clip-path="url(#pd918329dc6)" style="fill: #177875"/>
   </g>
   <g id="patch_16">
    <path d="M 202.091481 359.418341 
L 202.091481 367.107326 
L 207.265444 367.107326 
Q 216.112802 367.107326 220.782574 366.118858 
Q 225.464351 365.13039 225.464351 363.24798 
Q 225.464351 361.376372 220.806583 360.398707 
Q 216.16082 359.418341 207.265444 359.418341 
L 202.091481 359.418341 
z
M 187.65 356.960675 
L 202.871777 356.960675 
Q 215.63262 356.960675 221.874989 357.371186 
Q 228.117358 357.778997 232.583052 358.759363 
Q 236.520547 359.612794 238.429271 360.728197 
Q 240.35 361.840898 240.35 363.24798 
Q 240.35 364.676667 238.429271 365.79477 
Q 236.520547 366.912873 232.583052 367.763604 
Q 228.081344 368.74397 221.778952 369.154481 
Q 215.47656 369.562292 202.871777 369.562292 
L 187.65 369.562292 
L 187.65 356.960675 
z
" clip-path="url(#pd918329dc6)" style="fill: #6b296b"/>
   </g>
   <g id="patch_17">
    <path d="M 187.65 342.883945 
L 201.537864 342.883945 
L 201.537864 347.772011 
L 221.555783 342.883945 
L 237.683253 342.883945 
L 211.743078 349.227237 
L 240.35 356.276615 
L 222.964195 356.276615 
L 201.537864 351.001063 
L 201.537864 356.276615 
L 187.65 356.276615 
L 187.65 342.883945 
z
" clip-path="url(#pd918329dc6)" style="fill: #bd2e1f"/>
   </g>
   <g id="patch_18">
    <path d="M 187.65 328.505936 
L 204.578032 328.505936 
L 225.968106 337.878205 
L 225.968106 328.505936 
L 240.35 328.505936 
L 240.35 342.171876 
L 223.409364 342.171876 
L 202.01929 332.799607 
L 202.01929 342.171876 
L 187.65 342.171876 
L 187.65 328.505936 
z
" clip-path="url(#pd918329dc6)" style="fill: #40ba47"/>
   </g>
   <g id="patch_19">
    <path d="M 187.65 309.088094 
L 215.043021 309.088094 
Q 227.271068 309.088094 233.803672 310.664077 
Q 240.35 312.23608 240.35 315.145282 
Q 240.35 318.070402 233.803672 319.642406 
Q 227.271068 321.214409 215.043021 321.214409 
L 204.159922 321.214409 
L 204.159922 327.657634 
L 187.65 327.657634 
L 187.65 309.088094 
z
M 204.159922 312.558441 
L 204.159922 317.744062 
L 213.286354 317.744062 
Q 218.08974 317.744062 220.711016 317.067504 
Q 223.332292 316.390945 223.332292 315.145282 
Q 223.332292 313.903598 220.711016 313.231019 
Q 218.08974 312.558441 213.286354 312.558441 
L 204.159922 312.558441 
z
" clip-path="url(#pd918329dc6)" style="fill: #787800"/>
   </g>
   <g id="patch_20">
    <path d="M 209.032787 283.778938 
Q 213.762274 283.778938 215.814221 282.501314 
Q 217.866168 281.214564 217.866168 278.27603 
Q 217.866168 275.364872 215.814221 274.114626 
Q 213.762274 272.855254 209.032787 272.855254 
L 202.701781 272.855254 
L 202.701781 283.778938 
L 209.032787 283.778938 
z
M 202.701781 291.362548 
L 202.701781 307.478859 
L 187.65 307.478859 
L 187.65 264.897483 
L 210.634307 264.897483 
Q 222.170252 264.897483 227.537844 267.726507 
Q 232.917949 270.546406 232.917949 276.651622 
Q 232.917949 280.867781 230.11529 283.578168 
Q 227.325142 286.288556 221.694801 287.575306 
Q 224.785233 288.086355 227.225047 289.902406 
Q 229.677374 291.709331 232.179748 295.387062 
L 240.35 307.478859 
L 224.322293 307.478859 
L 217.203039 296.901959 
Q 215.050997 293.7079 212.836396 292.539787 
Q 210.634307 291.362548 206.955817 291.362548 
L 202.701781 291.362548 
z
" clip-path="url(#pd918329dc6)" style="fill: #bd2e1f"/>
   </g>
   <g id="patch_21">
    <path d="M 249.65 383.616256 
L 302.35 383.616256 
L 302.35 383.780391 
L 283.390256 383.780391 
L 283.390256 384.457853 
L 268.646512 384.457853 
L 268.646512 383.780391 
L 249.65 383.780391 
L 249.65 383.616256 
z
" clip-path="url(#pd918329dc6)" style="fill: #40ba47"/>
   </g>
   <g id="patch_22">
    <path d="M 271.032787 382.717178 
Q 275.762274 382.717178 277.814221 382.672038 
Q 279.866168 382.626576 279.866168 382.522755 
Q 279.866168 382.419901 277.814221 382.375729 
Q 275.762274 382.331234 271.032787 382.331234 
L 264.701781 382.331234 
L 264.701781 382.717178 
L 271.032787 382.717178 
z
M 264.701781 382.985114 
L 264.701781 383.554518 
L 249.65 383.554518 
L 249.65 382.050078 
L 272.634307 382.050078 
Q 284.170252 382.050078 289.537844 382.150031 
Q 294.917949 382.24966 294.917949 382.465363 
Q 294.917949 382.614324 292.11529 382.710085 
Q 289.325142 382.805845 283.694801 382.851307 
Q 286.785233 382.869363 289.225047 382.933526 
Q 291.677374 382.997366 294.179748 383.127304 
L 302.35 383.554518 
L 286.322293 383.554518 
L 279.203039 383.180827 
Q 277.050997 383.067977 274.836396 383.026707 
Q 272.634307 382.985114 268.955817 382.985114 
L 264.701781 382.985114 
z
" clip-path="url(#pd918329dc6)" style="fill: #bd2e1f"/>
   </g>
   <g id="patch_23">
    <path d="M 249.65 380.295606 
L 263.537864 380.295606 
L 263.537864 380.905456 
L 283.555783 380.295606 
L 299.683253 380.295606 
L 273.743078 381.087014 
L 302.35 381.966517 
L 284.964195 381.966517 
L 263.537864 381.308322 
L 263.537864 381.966517 
L 249.65 381.966517 
L 249.65 380.295606 
z
" clip-path="url(#pd918329dc6)" style="fill: #bd2e1f"/>
   </g>
   <g id="patch_24">
    <path d="M 249.65 377.015934 
L 301.253077 377.015934 
L 301.253077 377.630805 
L 268.774615 377.630805 
L 268.774615 378.217297 
L 299.329487 378.217297 
L 299.329487 378.832168 
L 268.774615 378.832168 
L 268.774615 379.554473 
L 302.35 379.554473 
L 302.35 380.168668 
L 249.65 380.168668 
L 249.65 377.015934 
z
" clip-path="url(#pd918329dc6)" style="fill: #6b296b"/>
   </g>
   <g id="patch_25">
    <path d="M 297.955948 368.199083 
L 297.955948 370.020565 
Q 292.459804 369.703464 287.221293 369.543071 
Q 281.997094 369.380834 277.34541 369.380834 
Q 271.176562 369.380834 268.213797 369.600223 
Q 265.265345 369.817768 265.265345 370.278669 
Q 265.265345 370.625267 267.254834 370.818846 
Q 269.244324 371.01058 274.482835 371.148851 
L 281.811027 371.338742 
Q 292.946442 371.628188 297.641065 372.216298 
Q 302.35 372.802565 302.35 373.886604 
Q 302.35 375.308024 295.794704 376.003063 
Q 289.239408 376.698102 275.770994 376.698102 
Q 269.430391 376.698102 263.032537 376.541395 
Q 256.634682 376.386533 250.236828 376.080494 
L 250.236828 374.209235 
Q 256.634682 374.64617 262.60315 374.869246 
Q 268.571619 375.090478 274.125014 375.090478 
Q 279.764286 375.090478 282.755676 374.848966 
Q 285.747067 374.60561 285.747067 374.155771 
Q 285.747067 373.753865 283.714639 373.534476 
Q 281.682211 373.315087 275.59924 373.141788 
L 268.929441 372.951897 
Q 258.910429 372.675356 254.273058 372.070653 
Q 249.65 371.465951 249.65 370.440906 
Q 249.65 369.155914 256.090793 368.464562 
Q 262.531586 367.77321 274.611651 367.77321 
Q 280.122108 367.77321 285.933134 367.880139 
Q 291.744161 367.987068 297.955948 368.199083 
z
" clip-path="url(#pd918329dc6)" style="fill: #40ba47"/>
   </g>
   <g id="patch_26">
    <path d="M 286.155336 364.350999 
L 265.887763 364.350999 
L 262.68762 367.136025 
L 249.65 367.136025 
L 268.269015 351.847872 
L 283.730985 351.847872 
L 302.35 367.136025 
L 289.323155 367.136025 
L 286.155336 364.350999 
z
M 269.120231 361.513549 
L 282.890544 361.513549 
L 276.016162 355.432364 
L 269.120231 361.513549 
z
" clip-path="url(#pd918329dc6)" style="fill: #21599c"/>
   </g>
   <g id="patch_27">
    <path d="M 249.65 331.590922 
L 277.043021 331.590922 
Q 289.271068 331.590922 295.803672 333.232763 
Q 302.35 334.870459 302.35 337.901232 
Q 302.35 340.948589 295.803672 342.586285 
Q 289.271068 344.22398 277.043021 344.22398 
L 266.159922 344.22398 
L 266.159922 350.936459 
L 249.65 350.936459 
L 249.65 331.590922 
z
M 266.159922 335.20629 
L 266.159922 340.608612 
L 275.286354 340.608612 
Q 280.08974 340.608612 282.711016 339.903781 
Q 285.332292 339.19895 285.332292 337.901232 
Q 285.332292 336.60766 282.711016 335.906975 
Q 280.08974 335.20629 275.286354 335.20629 
L 266.159922 335.20629 
z
" clip-path="url(#pd918329dc6)" style="fill: #787800"/>
   </g>
   <g id="patch_28">
    <path d="M 277.405333 324.017398 
L 276.373292 324.017398 
Q 263.714313 324.017398 256.676667 319.51546 
Q 249.65 315.006455 249.65 306.970814 
Q 249.65 298.949308 256.665687 294.404966 
Q 263.681375 289.853556 276 289.853556 
Q 288.450375 289.853556 295.400188 294.362562 
Q 302.35 298.864499 302.35 306.970814 
Q 302.35 312.532863 298.661 316.554217 
Q 294.972 320.575571 288.044146 322.603917 
L 298.364562 330.024693 
L 285.771458 330.024693 
L 277.405333 324.017398 
z
M 276 296.016335 
Q 269.961458 296.016335 266.634771 298.885702 
Q 263.308083 301.755068 263.308083 306.970814 
Q 263.308083 312.271369 266.557917 315.091264 
Q 269.818729 317.904092 276 317.904092 
Q 282.071479 317.904092 285.398167 315.034725 
Q 288.724854 312.15829 288.724854 306.970814 
Q 288.724854 301.755068 285.398167 298.885702 
Q 282.071479 296.016335 276 296.016335 
z
" clip-path="url(#pd918329dc6)" style="fill: #40ba47"/>
   </g>
   <g id="patch_29">
    <path d="M 311.65 381.745848 
L 326.22 381.745848 
L 337.988929 382.695335 
L 349.746786 381.745848 
L 364.35 381.745848 
L 344.665 383.287409 
L 344.665 384.409894 
L 331.346071 384.409894 
L 331.346071 383.287409 
L 311.65 381.745848 
z
" clip-path="url(#pd918329dc6)" style="fill: #177875"/>
   </g>
   <g id="patch_30">
    <path d="M 311.65 374.064796 
L 326.813382 374.064796 
L 326.813382 376.890617 
L 349.186618 376.890617 
L 349.186618 374.064796 
L 364.35 374.064796 
L 364.35 381.480589 
L 349.186618 381.480589 
L 349.186618 378.336903 
L 326.813382 378.336903 
L 326.813382 381.480589 
L 311.65 381.480589 
L 311.65 374.064796 
z
" clip-path="url(#pd918329dc6)" style="fill: #177875"/>
   </g>
   <g id="patch_31">
    <path d="M 311.65 357.228121 
L 325.537864 357.228121 
L 325.537864 363.146216 
L 345.555783 357.228121 
L 361.683253 357.228121 
L 335.743078 364.908092 
L 364.35 373.442937 
L 346.964195 373.442937 
L 325.537864 367.055704 
L 325.537864 373.442937 
L 311.65 373.442937 
L 311.65 357.228121 
z
" clip-path="url(#pd918329dc6)" style="fill: #bd2e1f"/>
   </g>
   <g id="patch_32">
    <path d="M 333.032787 187.928868 
Q 337.762274 187.928868 339.814221 179.236226 
Q 341.866168 170.481494 341.866168 150.488417 
Q 341.866168 130.681611 339.814221 122.175239 
Q 337.762274 113.606778 333.032787 113.606778 
L 326.701781 113.606778 
L 326.701781 187.928868 
L 333.032787 187.928868 
z
M 326.701781 239.525908 
L 326.701781 349.17738 
L 311.65 349.17738 
L 311.65 59.464035 
L 334.634307 59.464035 
Q 346.170252 59.464035 351.537844 78.712029 
Q 356.917949 97.897932 356.917949 139.436343 
Q 356.917949 168.122062 354.11529 186.562882 
Q 351.325142 205.003701 345.694801 213.758433 
Q 348.785233 217.23549 351.225047 229.59146 
Q 353.677374 241.88534 356.179748 266.907731 
L 364.35 349.17738 
L 348.322293 349.17738 
L 341.203039 277.214721 
Q 339.050997 255.483116 336.836396 247.535557 
Q 334.634307 239.525908 330.955817 239.525908 
L 326.701781 239.525908 
z
" clip-path="url(#pd918329dc6)" style="fill: #bd2e1f"/>
   </g>
   <g id="patch_33">
    <path d="M 401.405333 383.757041 
L 400.373292 383.757041 
Q 387.714313 383.757041 380.676667 383.296322 
Q 373.65 382.834879 373.65 382.012528 
Q 373.65 381.191624 380.665687 380.726565 
Q 387.681375 380.260783 400 380.260783 
Q 412.450375 380.260783 419.400188 380.722226 
Q 426.35 381.182945 426.35 382.012528 
Q 426.35 382.581737 422.661 382.993274 
Q 418.972 383.404811 412.044146 383.612388 
L 422.364563 384.371815 
L 409.771458 384.371815 
L 401.405333 383.757041 
z
M 400 380.891469 
Q 393.961458 380.891469 390.634771 381.185115 
Q 387.308083 381.47876 387.308083 382.012528 
Q 387.308083 382.554976 390.557917 382.843559 
Q 393.818729 383.131418 400 383.131418 
Q 406.071479 383.131418 409.398167 382.837772 
Q 412.724854 382.543404 412.724854 382.012528 
Q 412.724854 381.47876 409.398167 381.185115 
Q 406.071479 380.891469 400 380.891469 
z
" clip-path="url(#pd918329dc6)" style="fill: #40ba47"/>
   </g>
   <g id="patch_34">
    <path d="M 421.955948 369.932223 
L 421.955948 372.063717 
Q 416.459804 371.692647 411.221293 371.504955 
Q 405.997094 371.315105 401.34541 371.315105 
Q 395.176562 371.315105 392.213797 371.571834 
Q 389.265345 371.826405 389.265345 372.365751 
Q 389.265345 372.771339 391.254834 372.997864 
Q 393.244324 373.222232 398.482835 373.384036 
L 405.811027 373.606246 
Q 416.946442 373.944955 421.641065 374.633161 
Q 426.35 375.319208 426.35 376.58775 
Q 426.35 378.251092 419.794704 379.064426 
Q 413.239408 379.877759 399.770994 379.877759 
Q 393.430391 379.877759 387.032537 379.694382 
Q 380.634682 379.513161 374.236828 379.155036 
L 374.236828 376.965292 
Q 380.634682 377.476592 386.60315 377.737635 
Q 392.571619 377.996521 398.125014 377.996521 
Q 403.764286 377.996521 406.755676 377.713904 
Q 409.747067 377.429129 409.747067 376.902728 
Q 409.747067 376.432418 407.714639 376.17569 
Q 405.682211 375.918961 399.59924 375.716167 
L 392.929441 375.493956 
Q 382.910429 375.170349 378.273058 374.462727 
Q 373.65 373.755106 373.65 372.555601 
Q 373.65 371.051904 380.090793 370.242886 
Q 386.531586 369.433867 398.611651 369.433867 
Q 404.122108 369.433867 409.933134 369.558995 
Q 415.744161 369.684123 421.955948 369.932223 
z
" clip-path="url(#pd918329dc6)" style="fill: #40ba47"/>
   </g>
   <g id="patch_35">
    <path d="M 373.65 354.841458 
L 390.578032 354.841458 
L 411.968106 364.408849 
L 411.968106 354.841458 
L 426.35 354.841458 
L 426.35 368.791911 
L 409.409364 368.791911 
L 388.01929 359.224519 
L 388.01929 368.791911 
L 373.65 368.791911 
L 373.65 354.841458 
z
" clip-path="url(#pd918329dc6)" style="fill: #40ba47"/>
   </g>
   <g id="patch_36">
    <path d="M 388.091481 342.045106 
L 388.091481 351.168063 
L 393.265444 351.168063 
Q 402.112802 351.168063 406.782574 349.995249 
Q 411.464351 348.822434 411.464351 346.58896 
Q 411.464351 344.368304 406.806583 343.208307 
Q 402.16082 342.045106 393.265444 342.045106 
L 388.091481 342.045106 
z
M 373.65 339.129092 
L 388.871777 339.129092 
Q 401.63262 339.129092 407.874989 339.616162 
Q 414.117358 340.100028 418.583052 341.26323 
Q 422.520547 342.275823 424.429271 343.599245 
Q 426.35 344.919462 426.35 346.58896 
Q 426.35 348.284093 424.429271 349.610719 
Q 422.520547 350.937346 418.583052 351.946735 
Q 414.081344 353.109936 407.778952 353.597006 
Q 401.47656 354.080872 388.871777 354.080872 
L 373.65 354.080872 
L 373.65 339.129092 
z
" clip-path="url(#pd918329dc6)" style="fill: #6b296b"/>
   </g>
   <g id="patch_37">
    <path d="M 373.65 314.504997 
L 425.253077 314.504997 
L 425.253077 319.109474 
L 392.774615 319.109474 
L 392.774615 323.501436 
L 423.329487 323.501436 
L 423.329487 328.105913 
L 392.774615 328.105913 
L 392.774615 333.514909 
L 426.35 333.514909 
L 426.35 338.114326 
L 373.65 338.114326 
L 373.65 314.504997 
z
" clip-path="url(#pd918329dc6)" style="fill: #6b296b"/>
   </g>
   <g id="patch_38">
    <path d="M 426.35 310.92938 
Q 421.035119 312.073706 415.318669 312.648481 
Q 409.602219 313.218032 403.507822 313.218032 
Q 389.736374 313.218032 381.693187 309.81118 
Q 373.65 306.404329 373.65 300.578194 
Q 373.65 294.684132 381.834917 291.303407 
Q 390.031645 287.922681 404.287338 287.922681 
Q 409.779381 287.922681 414.810802 288.382502 
Q 419.854034 288.837097 424.318534 289.735837 
L 424.318534 294.778186 
Q 419.712304 293.62341 415.153317 293.05386 
Q 410.59433 292.479084 406.011721 292.479084 
Q 397.531533 292.479084 392.937113 294.579628 
Q 388.342694 296.674946 388.342694 300.578194 
Q 388.342694 304.444866 392.771762 306.55586 
Q 397.200829 308.661629 405.350314 308.661629 
Q 407.570753 308.661629 409.472299 308.541449 
Q 411.373846 308.416043 412.885634 308.154781 
L 412.885634 303.420721 
L 404.204662 303.420721 
L 404.204662 299.203958 
L 426.35 299.203958 
L 426.35 310.92938 
z
" clip-path="url(#pd918329dc6)" style="fill: #787800"/>
   </g>
   <g id="patch_39">
    <path d="M 410.155336 281.488942 
L 389.887763 281.488942 
L 386.68762 286.528945 
L 373.65 286.528945 
L 392.269015 258.862294 
L 407.730985 258.862294 
L 426.35 286.528945 
L 413.323155 286.528945 
L 410.155336 281.488942 
z
M 393.120231 276.354069 
L 406.890544 276.354069 
L 400.016162 265.349074 
L 393.120231 276.354069 
z
" clip-path="url(#pd918329dc6)" style="fill: #21599c"/>
   </g>
   <g id="patch_40">
    <path d="M 435.65 383.896286 
L 487.253077 383.896286 
L 487.253077 384.007207 
L 454.774615 384.007207 
L 454.774615 384.113009 
L 485.329487 384.113009 
L 485.329487 384.223931 
L 454.774615 384.223931 
L 454.774615 384.354233 
L 488.35 384.354233 
L 488.35 384.465033 
L 435.65 384.465033 
L 435.65 383.896286 
z
" clip-path="url(#pd918329dc6)" style="fill: #6b296b"/>
   </g>
   <g id="patch_41">
    <path d="M 472.155336 383.050969 
L 451.887763 383.050969 
L 448.68762 383.776508 
L 435.65 383.776508 
L 454.269015 379.793721 
L 469.730985 379.793721 
L 488.35 383.776508 
L 475.323155 383.776508 
L 472.155336 383.050969 
z
M 455.120231 382.311771 
L 468.890544 382.311771 
L 462.016162 380.727534 
L 455.120231 382.311771 
z
" clip-path="url(#pd918329dc6)" style="fill: #21599c"/>
   </g>
   <g id="patch_42">
    <path d="M 435.65 373.387181 
L 450.22 373.387181 
L 461.988929 375.575579 
L 473.746786 373.387181 
L 488.35 373.387181 
L 468.665 376.940202 
L 468.665 379.527328 
L 455.346071 379.527328 
L 455.346071 376.940202 
L 435.65 373.387181 
z
" clip-path="url(#pd918329dc6)" style="fill: #177875"/>
   </g>
   <g id="patch_43">
    <path d="M 483.955948 366.036595 
L 483.955948 367.535886 
Q 478.459804 367.274876 473.221293 367.142854 
Q 467.997094 367.009313 463.34541 367.009313 
Q 457.176562 367.009313 454.213797 367.189896 
Q 451.265345 367.368961 451.265345 367.748337 
Q 451.265345 368.033627 453.254834 368.192965 
Q 455.244324 368.350785 460.482835 368.464597 
L 467.811027 368.6209 
Q 478.946442 368.859148 483.641065 369.343231 
Q 488.35 369.825796 488.35 370.718087 
Q 488.35 371.888081 481.794704 372.460179 
Q 475.239408 373.032277 461.770994 373.032277 
Q 455.430391 373.032277 449.032537 372.903289 
Q 442.634682 372.775819 436.236828 372.523914 
L 436.236828 370.98365 
Q 442.634682 371.343298 448.60315 371.526915 
Q 454.571619 371.709015 460.125014 371.709015 
Q 465.764286 371.709015 468.755676 371.510223 
Q 471.747067 371.309913 471.747067 370.939642 
Q 471.747067 370.608827 469.714639 370.428244 
Q 467.682211 370.247662 461.59924 370.105016 
L 454.929441 369.948714 
Q 444.910429 369.721089 440.273058 369.223348 
Q 435.65 368.725608 435.65 367.881877 
Q 435.65 366.824178 442.090793 366.255115 
Q 448.531586 365.686052 460.611651 365.686052 
Q 466.122108 365.686052 471.933134 365.774067 
Q 477.744161 365.862082 483.955948 366.036595 
z
" clip-path="url(#pd918329dc6)" style="fill: #40ba47"/>
   </g>
   <g id="patch_44">
    <path d="M 435.65 357.511362 
L 449.537864 357.511362 
L 449.537864 360.349714 
L 469.555783 357.511362 
L 485.683253 357.511362 
L 459.743078 361.19472 
L 488.35 365.28808 
L 470.964195 365.28808 
L 449.537864 362.224726 
L 449.537864 365.28808 
L 435.65 365.28808 
L 435.65 357.511362 
z
" clip-path="url(#pd918329dc6)" style="fill: #bd2e1f"/>
   </g>
   <g id="patch_45">
    <path d="M 435.65 345.757646 
L 452.578032 345.757646 
L 473.968106 353.475047 
L 473.968106 345.757646 
L 488.35 345.757646 
L 488.35 357.010582 
L 471.409364 357.010582 
L 450.01929 349.29318 
L 450.01929 357.010582 
L 435.65 357.010582 
L 435.65 345.757646 
z
" clip-path="url(#pd918329dc6)" style="fill: #40ba47"/>
   </g>
   <g id="patch_46">
    <path d="M 463.405333 343.229742 
L 462.373292 343.229742 
Q 449.714313 343.229742 442.676667 341.807504 
Q 435.65 340.383032 435.65 337.844437 
Q 435.65 335.310307 442.665687 333.874672 
Q 449.681375 332.436804 462 332.436804 
Q 474.450375 332.436804 481.400187 333.861275 
Q 488.35 335.283514 488.35 337.844437 
Q 488.35 339.601582 484.661 340.871997 
Q 480.972 342.142411 474.044146 342.7832 
L 484.364562 345.127549 
L 471.771458 345.127549 
L 463.405333 343.229742 
z
M 462 334.38373 
Q 455.961458 334.38373 452.634771 335.290212 
Q 449.308083 336.196694 449.308083 337.844437 
Q 449.308083 339.518972 452.557917 340.409825 
Q 455.818729 341.298445 462 341.298445 
Q 468.071479 341.298445 471.398167 340.391963 
Q 474.724854 339.483249 474.724854 337.844437 
Q 474.724854 336.196694 471.398167 335.290212 
Q 468.071479 334.38373 462 334.38373 
z
" clip-path="url(#pd918329dc6)" style="fill: #40ba47"/>
   </g>
   <g id="patch_47">
    <path d="M 435.65 317.989432 
L 444.762642 317.989432 
L 451.132798 327.983305 
L 457.455534 317.989432 
L 466.615597 317.989432 
L 472.938332 327.983305 
L 479.316392 317.989432 
L 488.35 317.989432 
L 479.656239 331.740955 
L 468.694196 331.740955 
L 462 321.287322 
L 455.384838 331.740955 
L 444.414892 331.740955 
L 435.65 317.989432 
z
" clip-path="url(#pd918329dc6)" style="fill: #21599c"/>
   </g>
   <g id="patch_48">
    <path d="M 435.65 298.78916 
L 463.043021 298.78916 
Q 475.271068 298.78916 481.803672 300.346965 
Q 488.35 301.900837 488.35 304.776483 
Q 488.35 307.667864 481.803672 309.221736 
Q 475.271068 310.775607 463.043021 310.775607 
L 452.159922 310.775607 
L 452.159922 317.144514 
L 435.65 317.144514 
L 435.65 298.78916 
z
M 452.159922 302.219479 
L 452.159922 307.345288 
L 461.286354 307.345288 
Q 466.08974 307.345288 468.711016 306.676534 
Q 471.332292 306.007779 471.332292 304.776483 
Q 471.332292 303.549121 468.711016 302.8843 
Q 466.08974 302.219479 461.286354 302.219479 
L 452.159922 302.219479 
z
" clip-path="url(#pd918329dc6)" style="fill: #787800"/>
   </g>
   <g id="patch_49">
    <path d="M 436.198462 270.442733 
L 487.801538 270.442733 
L 487.801538 275.737534 
L 455.323077 275.737534 
L 455.323077 280.787959 
L 485.877949 280.787959 
L 485.877949 286.08276 
L 455.323077 286.08276 
L 455.323077 297.591678 
L 436.198462 297.591678 
L 436.198462 270.442733 
z
" clip-path="url(#pd918329dc6)" style="fill: #21599c"/>
   </g>
   <g id="patch_50">
    <path d="M 512.091481 383.689373 
L 512.091481 384.269687 
L 517.265444 384.269687 
Q 526.112802 384.269687 530.782574 384.195084 
Q 535.464351 384.120481 535.464351 383.978409 
Q 535.464351 383.837152 530.806583 383.763365 
Q 526.16082 383.689373 517.265444 383.689373 
L 512.091481 383.689373 
z
M 497.65 383.503885 
L 512.871777 383.503885 
Q 525.63262 383.503885 531.874989 383.534867 
Q 538.117358 383.565646 542.583052 383.639638 
Q 546.520547 383.704049 548.429271 383.788232 
Q 550.35 383.872212 550.35 383.978409 
Q 550.35 384.086237 548.429271 384.170624 
Q 546.520547 384.255011 542.583052 384.319218 
Q 538.081344 384.39321 531.778952 384.424193 
Q 525.47656 384.454971 512.871777 384.454971 
L 497.65 384.454971 
L 497.65 383.503885 
z
" clip-path="url(#pd918329dc6)" style="fill: #6b296b"/>
   </g>
   <g id="patch_51">
    <path d="M 497.65 381.512636 
L 514.578032 381.512636 
L 535.968106 382.826518 
L 535.968106 381.512636 
L 550.35 381.512636 
L 550.35 383.42844 
L 533.409364 383.42844 
L 512.01929 382.114558 
L 512.01929 383.42844 
L 497.65 383.42844 
L 497.65 381.512636 
z
" clip-path="url(#pd918329dc6)" style="fill: #40ba47"/>
   </g>
   <g id="patch_52">
    <path d="M 497.65 378.743684 
L 512.22 378.743684 
L 523.988929 379.687749 
L 535.746786 378.743684 
L 550.35 378.743684 
L 530.665 380.27644 
L 530.665 381.392514 
L 517.346071 381.392514 
L 517.346071 380.27644 
L 497.65 378.743684 
z
" clip-path="url(#pd918329dc6)" style="fill: #177875"/>
   </g>
   <g id="patch_53">
    <path d="M 514.437692 375.537635 
L 533.562308 375.537635 
L 533.562308 378.593559 
L 514.437692 378.593559 
L 514.437692 375.537635 
z
" clip-path="url(#pd918329dc6)" style="fill: #21599c"/>
   </g>
   <g id="patch_54">
    <path d="M 497.65 372.096244 
L 525.043021 372.096244 
Q 537.271068 372.096244 543.803672 372.374173 
Q 550.35 372.651401 550.35 373.164447 
Q 550.35 373.680301 543.803672 373.957528 
Q 537.271068 374.234756 525.043021 374.234756 
L 514.159922 374.234756 
L 514.159922 375.371037 
L 497.65 375.371037 
L 497.65 372.096244 
z
M 514.159922 372.70825 
L 514.159922 373.62275 
L 523.286354 373.62275 
Q 528.08974 373.62275 530.711016 373.503437 
Q 533.332292 373.384124 533.332292 373.164447 
Q 533.332292 372.945473 530.711016 372.826861 
Q 528.08974 372.70825 523.286354 372.70825 
L 514.159922 372.70825 
z
" clip-path="url(#pd918329dc6)" style="fill: #787800"/>
   </g>
   <g id="patch_55">
    <path d="M 497.65 368.229597 
L 510.68762 368.229597 
L 524.016162 370.948433 
L 537.323155 368.229597 
L 550.35 368.229597 
L 531.730985 371.91313 
L 516.269015 371.91313 
L 497.65 368.229597 
z
" clip-path="url(#pd918329dc6)" style="fill: #21599c"/>
   </g>
   <g id="patch_56">
    <path d="M 534.155336 366.353682 
L 513.887763 366.353682 
L 510.68762 367.908112 
L 497.65 367.908112 
L 516.269015 359.375209 
L 531.730985 359.375209 
L 550.35 367.908112 
L 537.323155 367.908112 
L 534.155336 366.353682 
z
M 517.120231 364.769993 
L 530.890544 364.769993 
L 524.016162 361.375851 
L 517.120231 364.769993 
z
" clip-path="url(#pd918329dc6)" style="fill: #21599c"/>
   </g>
   <g id="patch_57">
    <path d="M 497.65 350.02098 
L 549.253077 350.02098 
L 549.253077 351.755866 
L 516.774615 351.755866 
L 516.774615 353.410682 
L 547.329487 353.410682 
L 547.329487 355.145569 
L 516.774615 355.145569 
L 516.774615 357.183584 
L 550.35 357.183584 
L 550.35 358.916564 
L 497.65 358.916564 
L 497.65 350.02098 
z
" clip-path="url(#pd918329dc6)" style="fill: #6b296b"/>
   </g>
   <g id="patch_58">
    <path d="M 497.65 336.58588 
L 506.762642 336.58588 
L 513.132798 345.933672 
L 519.455534 336.58588 
L 528.615597 336.58588 
L 534.938332 345.933672 
L 541.316392 336.58588 
L 550.35 336.58588 
L 541.656239 349.448398 
L 530.694196 349.448398 
L 524 339.670569 
L 517.384838 349.448398 
L 506.414892 349.448398 
L 497.65 336.58588 
z
" clip-path="url(#pd918329dc6)" style="fill: #21599c"/>
   </g>
   <g id="patch_59">
    <path d="M 545.955948 283.176931 
L 545.955948 294.244959 
Q 540.459804 292.318136 535.221293 291.343523 
Q 529.997094 290.357706 525.34541 290.357706 
Q 519.176562 290.357706 516.213797 291.690799 
Q 513.265345 293.012689 513.265345 295.813303 
Q 513.265345 297.919365 515.254834 299.095623 
Q 517.244324 300.260679 522.482835 301.100863 
L 529.811027 302.254716 
Q 540.946442 304.013502 545.641065 307.587086 
Q 550.35 311.149467 550.35 317.736512 
Q 550.35 326.373606 543.794704 330.596933 
Q 537.239408 334.820259 523.770994 334.820259 
Q 517.430391 334.820259 511.032537 333.86805 
Q 504.634682 332.927044 498.236828 331.067436 
L 498.236828 319.696942 
Q 504.634682 322.351924 510.60315 323.707422 
Q 516.571619 325.051716 522.125014 325.051716 
Q 527.764286 325.051716 530.755676 323.584195 
Q 533.747067 322.10547 533.747067 319.372071 
Q 533.747067 316.929935 531.714639 315.596843 
Q 529.682211 314.26375 523.59924 313.210719 
L 516.929441 312.056866 
Q 506.910429 310.376497 502.273058 306.702091 
Q 497.65 303.027686 497.65 296.799119 
Q 497.65 288.991007 504.090793 284.790085 
Q 510.531586 280.589164 522.611651 280.589164 
Q 528.122108 280.589164 533.933134 281.238906 
Q 539.744161 281.888649 545.955948 283.176931 
z
" clip-path="url(#pd918329dc6)" style="fill: #40ba47"/>
   </g>
   <g id="patch_60">
    <path d="M 559.65 384.130515 
L 578.774615 384.130515 
L 578.774615 384.4047 
L 612.35 384.4047 
L 612.35 384.471039 
L 559.65 384.471039 
L 559.65 384.130515 
z
" clip-path="url(#pd918329dc6)" style="fill: #21599c"/>
   </g>
   <g id="patch_61">
    <path d="M 559.65 381.349192 
L 587.043021 381.349192 
Q 599.271068 381.349192 605.803672 381.578447 
Q 612.35 381.807124 612.35 382.23032 
Q 612.35 382.655831 605.803672 382.884508 
Q 599.271068 383.113184 587.043021 383.113184 
L 576.159922 383.113184 
L 576.159922 384.050467 
L 559.65 384.050467 
L 559.65 381.349192 
z
M 576.159922 381.854017 
L 576.159922 382.608359 
L 585.286354 382.608359 
Q 590.08974 382.608359 592.711016 382.509942 
Q 595.332292 382.411524 595.332292 382.23032 
Q 595.332292 382.049694 592.711016 381.951855 
Q 590.08974 381.854017 585.286354 381.854017 
L 576.159922 381.854017 
z
" clip-path="url(#pd918329dc6)" style="fill: #787800"/>
   </g>
   <g id="patch_62">
    <path d="M 559.65 378.372534 
L 611.253077 378.372534 
L 611.253077 378.924671 
L 578.774615 378.924671 
L 578.774615 379.451326 
L 609.329487 379.451326 
L 609.329487 380.003463 
L 578.774615 380.003463 
L 578.774615 380.652073 
L 612.35 380.652073 
L 612.35 381.203604 
L 559.65 381.203604 
L 559.65 378.372534 
z
" clip-path="url(#pd918329dc6)" style="fill: #6b296b"/>
   </g>
   <g id="patch_63">
    <path d="M 559.65 374.184091 
L 575.195992 374.184091 
L 585.979692 376.329207 
L 596.83447 374.184091 
L 612.35 374.184091 
L 612.35 378.192546 
L 600.80474 378.192546 
L 600.80474 375.260515 
L 589.889037 377.421954 
L 582.141426 377.421954 
L 571.225723 375.260515 
L 571.225723 378.192546 
L 559.65 378.192546 
L 559.65 374.184091 
z
" clip-path="url(#pd918329dc6)" style="fill: #21599c"/>
   </g>
   <g id="patch_64">
    <path d="M 576.437692 369.871568 
L 595.562308 369.871568 
L 595.562308 373.970733 
L 576.437692 373.970733 
L 576.437692 369.871568 
z
" clip-path="url(#pd918329dc6)" style="fill: #21599c"/>
   </g>
   <g id="patch_65">
    <path d="M 607.955948 363.67019 
L 607.955948 364.941012 
Q 602.459804 364.719776 597.221293 364.607871 
Q 591.997094 364.494681 587.34541 364.494681 
Q 581.176562 364.494681 578.213797 364.647745 
Q 575.265345 364.799524 575.265345 365.121088 
Q 575.265345 365.362904 577.254834 365.497961 
Q 579.244324 365.631732 584.482835 365.728201 
L 591.811027 365.860685 
Q 602.946442 366.062628 607.641065 366.472944 
Q 612.35 366.881973 612.35 367.638292 
Q 612.35 368.629996 605.794704 369.114915 
Q 599.239408 369.599833 585.770994 369.599833 
Q 579.430391 369.599833 573.032537 369.490501 
Q 566.634682 369.382456 560.236828 369.168937 
L 560.236828 367.863387 
Q 566.634682 368.16823 572.60315 368.323867 
Q 578.571619 368.478218 584.125014 368.478218 
Q 589.764286 368.478218 592.755676 368.309718 
Q 595.747067 368.139932 595.747067 367.826085 
Q 595.747067 367.545681 593.714639 367.392617 
Q 591.682211 367.239552 585.59924 367.118644 
L 578.929441 366.98616 
Q 568.910429 366.793221 564.273058 366.371329 
Q 559.65 365.949437 559.65 365.234278 
Q 559.65 364.337758 566.090793 363.855411 
Q 572.531586 363.373065 584.611651 363.373065 
Q 590.122108 363.373065 595.933134 363.447668 
Q 601.744161 363.522271 607.955948 363.67019 
z
" clip-path="url(#pd918329dc6)" style="fill: #40ba47"/>
   </g>
   <g id="patch_66">
    <path d="M 574.091481 354.341784 
L 574.091481 360.850398 
L 579.265444 360.850398 
Q 588.112802 360.850398 592.782574 360.013674 
Q 597.464351 359.17695 597.464351 357.583517 
Q 597.464351 355.999229 592.806583 355.17165 
Q 588.16082 354.341784 579.265444 354.341784 
L 574.091481 354.341784 
z
M 559.65 352.261406 
L 574.871777 352.261406 
Q 587.63262 352.261406 593.874989 352.608898 
Q 600.117358 352.954103 604.583052 353.783969 
Q 608.520547 354.506386 610.429271 355.450558 
Q 612.35 356.392443 612.35 357.583517 
Q 612.35 358.79288 610.429271 359.739338 
Q 608.520547 360.685796 604.583052 361.405927 
Q 600.081344 362.235793 593.778952 362.583284 
Q 587.47656 362.92849 574.871777 362.92849 
L 559.65 362.92849 
L 559.65 352.261406 
z
" clip-path="url(#pd918329dc6)" style="fill: #6b296b"/>
   </g>
   <g id="patch_67">
    <path d="M 559.65 339.173857 
L 568.762642 339.173857 
L 575.132798 348.242533 
L 581.455534 339.173857 
L 590.615597 339.173857 
L 596.938332 348.242533 
L 603.316392 339.173857 
L 612.35 339.173857 
L 603.656239 351.652313 
L 592.694196 351.652313 
L 586 342.16644 
L 579.384838 351.652313 
L 568.414892 351.652313 
L 559.65 339.173857 
z
" clip-path="url(#pd918329dc6)" style="fill: #21599c"/>
   </g>
   <g id="patch_68">
    <path d="M 587.405333 331.95484 
L 586.373292 331.95484 
Q 573.714313 331.95484 566.676667 327.563656 
Q 559.65 323.165578 559.65 315.327625 
Q 559.65 307.503458 566.665687 303.070913 
Q 573.681375 298.631474 586 298.631474 
Q 598.450375 298.631474 605.400187 303.029552 
Q 612.35 307.420736 612.35 315.327625 
Q 612.35 320.75284 608.661 324.675263 
Q 604.972 328.597687 598.044146 330.576132 
L 608.364562 337.814348 
L 595.771458 337.814348 
L 587.405333 331.95484 
z
M 586 304.64264 
Q 579.961458 304.64264 576.634771 307.441416 
Q 573.308083 310.240193 573.308083 315.327625 
Q 573.308083 320.497779 576.557917 323.248301 
Q 579.818729 325.991929 586 325.991929 
Q 592.071479 325.991929 595.398167 323.193152 
Q 598.724854 320.387482 598.724854 315.327625 
Q 598.724854 310.240193 595.398167 307.441416 
Q 592.071479 304.64264 586 304.64264 
z
" clip-path="url(#pd918329dc6)" style="fill: #40ba47"/>
   </g>
   <g id="matplotlib.axis_1">
    <g id="xtick_1">
     <g id="line2d_2">
      <defs>
       <path id="mdff0f9bf1b" d="M 0 0 
L 0 4.8 
" style="stroke: #262626"/>
      </defs>
      <g>
       <use xlink:href="#mdff0f9bf1b" x="152" y="384.48" style="fill: #262626; stroke: #262626"/>
      </g>
     </g>
     <g id="text_1">
      <!-- P4 -->
      <g style="fill: #262626" transform="translate(146.61825 399.078875) scale(0.088 -0.088)">
       <defs>
        <path id="ArialMT-50" d="M 494 0 
L 494 4581 
L 2222 4581 
Q 2678 4581 2919 4538 
Q 3256 4481 3484 4323 
Q 3713 4166 3852 3881 
Q 3991 3597 3991 3256 
Q 3991 2672 3619 2267 
Q 3247 1863 2275 1863 
L 1100 1863 
L 1100 0 
L 494 0 
z
M 1100 2403 
L 2284 2403 
Q 2872 2403 3119 2622 
Q 3366 2841 3366 3238 
Q 3366 3525 3220 3729 
Q 3075 3934 2838 4000 
Q 2684 4041 2272 4041 
L 1100 4041 
L 1100 2403 
z
" transform="scale(0.015625)"/>
        <path id="ArialMT-34" d="M 2069 0 
L 2069 1097 
L 81 1097 
L 81 1613 
L 2172 4581 
L 2631 4581 
L 2631 1613 
L 3250 1613 
L 3250 1097 
L 2631 1097 
L 2631 0 
L 2069 0 
z
M 2069 1613 
L 2069 3678 
L 634 1613 
L 2069 1613 
z
" transform="scale(0.015625)"/>
       </defs>
       <use xlink:href="#ArialMT-50"/>
       <use xlink:href="#ArialMT-34" x="66.699219"/>
      </g>
     </g>
    </g>
    <g id="xtick_2">
     <g id="line2d_3">
      <g>
       <use xlink:href="#mdff0f9bf1b" x="214" y="384.48" style="fill: #262626; stroke: #262626"/>
      </g>
     </g>
     <g id="text_2">
      <!-- P3 -->
      <g style="fill: #262626" transform="translate(208.61825 399.078875) scale(0.088 -0.088)">
       <defs>
        <path id="ArialMT-33" d="M 269 1209 
L 831 1284 
Q 928 806 1161 595 
Q 1394 384 1728 384 
Q 2125 384 2398 659 
Q 2672 934 2672 1341 
Q 2672 1728 2419 1979 
Q 2166 2231 1775 2231 
Q 1616 2231 1378 2169 
L 1441 2663 
Q 1497 2656 1531 2656 
Q 1891 2656 2178 2843 
Q 2466 3031 2466 3422 
Q 2466 3731 2256 3934 
Q 2047 4138 1716 4138 
Q 1388 4138 1169 3931 
Q 950 3725 888 3313 
L 325 3413 
Q 428 3978 793 4289 
Q 1159 4600 1703 4600 
Q 2078 4600 2393 4439 
Q 2709 4278 2876 4000 
Q 3044 3722 3044 3409 
Q 3044 3113 2884 2869 
Q 2725 2625 2413 2481 
Q 2819 2388 3044 2092 
Q 3269 1797 3269 1353 
Q 3269 753 2831 336 
Q 2394 -81 1725 -81 
Q 1122 -81 723 278 
Q 325 638 269 1209 
z
" transform="scale(0.015625)"/>
       </defs>
       <use xlink:href="#ArialMT-50"/>
       <use xlink:href="#ArialMT-33" x="66.699219"/>
      </g>
     </g>
    </g>
    <g id="xtick_3">
     <g id="line2d_4">
      <g>
       <use xlink:href="#mdff0f9bf1b" x="276" y="384.48" style="fill: #262626; stroke: #262626"/>
      </g>
     </g>
     <g id="text_3">
      <!-- P2 -->
      <g style="fill: #262626" transform="translate(270.61825 399.078875) scale(0.088 -0.088)">
       <defs>
        <path id="ArialMT-32" d="M 3222 541 
L 3222 0 
L 194 0 
Q 188 203 259 391 
Q 375 700 629 1000 
Q 884 1300 1366 1694 
Q 2113 2306 2375 2664 
Q 2638 3022 2638 3341 
Q 2638 3675 2398 3904 
Q 2159 4134 1775 4134 
Q 1369 4134 1125 3890 
Q 881 3647 878 3216 
L 300 3275 
Q 359 3922 746 4261 
Q 1134 4600 1788 4600 
Q 2447 4600 2831 4234 
Q 3216 3869 3216 3328 
Q 3216 3053 3103 2787 
Q 2991 2522 2730 2228 
Q 2469 1934 1863 1422 
Q 1356 997 1212 845 
Q 1069 694 975 541 
L 3222 541 
z
" transform="scale(0.015625)"/>
       </defs>
       <use xlink:href="#ArialMT-50"/>
       <use xlink:href="#ArialMT-32" x="66.699219"/>
      </g>
     </g>
    </g>
    <g id="xtick_4">
     <g id="line2d_5">
      <g>
       <use xlink:href="#mdff0f9bf1b" x="338" y="384.48" style="fill: #262626; stroke: #262626"/>
      </g>
     </g>
     <g id="text_4">
      <!-- P1 -->
      <g style="fill: #262626" transform="translate(332.61825 399.078875) scale(0.088 -0.088)">
       <defs>
        <path id="ArialMT-31" d="M 2384 0 
L 1822 0 
L 1822 3584 
Q 1619 3391 1289 3197 
Q 959 3003 697 2906 
L 697 3450 
Q 1169 3672 1522 3987 
Q 1875 4303 2022 4600 
L 2384 4600 
L 2384 0 
z
" transform="scale(0.015625)"/>
       </defs>
       <use xlink:href="#ArialMT-50"/>
       <use xlink:href="#ArialMT-31" x="66.699219"/>
      </g>
     </g>
    </g>
    <g id="xtick_5">
     <g id="line2d_6">
      <g>
       <use xlink:href="#mdff0f9bf1b" x="400" y="384.48" style="fill: #262626; stroke: #262626"/>
      </g>
     </g>
     <g id="text_5">
      <!-- P1' -->
      <g style="fill: #262626" transform="translate(393.778125 399.078875) scale(0.088 -0.088)">
       <defs>
        <path id="ArialMT-27" d="M 425 2959 
L 281 3816 
L 281 4581 
L 922 4581 
L 922 3816 
L 772 2959 
L 425 2959 
z
" transform="scale(0.015625)"/>
       </defs>
       <use xlink:href="#ArialMT-50"/>
       <use xlink:href="#ArialMT-31" x="66.699219"/>
       <use xlink:href="#ArialMT-27" x="122.314453"/>
      </g>
     </g>
    </g>
    <g id="xtick_6">
     <g id="line2d_7">
      <g>
       <use xlink:href="#mdff0f9bf1b" x="462" y="384.48" style="fill: #262626; stroke: #262626"/>
      </g>
     </g>
     <g id="text_6">
      <!-- P2' -->
      <g style="fill: #262626" transform="translate(455.778125 399.078875) scale(0.088 -0.088)">
       <use xlink:href="#ArialMT-50"/>
       <use xlink:href="#ArialMT-32" x="66.699219"/>
       <use xlink:href="#ArialMT-27" x="122.314453"/>
      </g>
     </g>
    </g>
    <g id="xtick_7">
     <g id="line2d_8">
      <g>
       <use xlink:href="#mdff0f9bf1b" x="524" y="384.48" style="fill: #262626; stroke: #262626"/>
      </g>
     </g>
     <g id="text_7">
      <!-- P3' -->
      <g style="fill: #262626" transform="translate(517.778125 399.078875) scale(0.088 -0.088)">
       <use xlink:href="#ArialMT-50"/>
       <use xlink:href="#ArialMT-33" x="66.699219"/>
       <use xlink:href="#ArialMT-27" x="122.314453"/>
      </g>
     </g>
    </g>
    <g id="xtick_8">
     <g id="line2d_9">
      <g>
       <use xlink:href="#mdff0f9bf1b" x="586" y="384.48" style="fill: #262626; stroke: #262626"/>
      </g>
     </g>
     <g id="text_8">
      <!-- P4' -->
      <g style="fill: #262626" transform="translate(579.778125 399.078875) scale(0.088 -0.088)">
       <use xlink:href="#ArialMT-50"/>
       <use xlink:href="#ArialMT-34" x="66.699219"/>
       <use xlink:href="#ArialMT-27" x="122.314453"/>
      </g>
     </g>
    </g>
   </g>
   <g id="matplotlib.axis_2">
    <g id="ytick_1">
     <g id="line2d_10">
      <defs>
       <path id="m982bfae84c" d="M 0 0 
L -4.8 0 
" style="stroke: #262626"/>
      </defs>
      <g>
       <use xlink:href="#m982bfae84c" x="90" y="384.48" style="fill: #262626; stroke: #262626"/>
      </g>
     </g>
     <g id="text_9">
      <!-- 0.0 -->
      <g style="fill: #262626" transform="translate(69.468 387.629437) scale(0.088 -0.088)">
       <defs>
        <path id="ArialMT-30" d="M 266 2259 
Q 266 3072 433 3567 
Q 600 4063 929 4331 
Q 1259 4600 1759 4600 
Q 2128 4600 2406 4451 
Q 2684 4303 2865 4023 
Q 3047 3744 3150 3342 
Q 3253 2941 3253 2259 
Q 3253 1453 3087 958 
Q 2922 463 2592 192 
Q 2263 -78 1759 -78 
Q 1097 -78 719 397 
Q 266 969 266 2259 
z
M 844 2259 
Q 844 1131 1108 757 
Q 1372 384 1759 384 
Q 2147 384 2411 759 
Q 2675 1134 2675 2259 
Q 2675 3391 2411 3762 
Q 2147 4134 1753 4134 
Q 1366 4134 1134 3806 
Q 844 3388 844 2259 
z
" transform="scale(0.015625)"/>
        <path id="ArialMT-2e" d="M 581 0 
L 581 641 
L 1222 641 
L 1222 0 
L 581 0 
z
" transform="scale(0.015625)"/>
       </defs>
       <use xlink:href="#ArialMT-30"/>
       <use xlink:href="#ArialMT-2e" x="55.615234"/>
       <use xlink:href="#ArialMT-30" x="83.398438"/>
      </g>
     </g>
    </g>
    <g id="ytick_2">
     <g id="line2d_11">
      <g>
       <use xlink:href="#m982bfae84c" x="90" y="333.169645" style="fill: #262626; stroke: #262626"/>
      </g>
     </g>
     <g id="text_10">
      <!-- 0.2 -->
      <g style="fill: #262626" transform="translate(69.468 336.319083) scale(0.088 -0.088)">
       <use xlink:href="#ArialMT-30"/>
       <use xlink:href="#ArialMT-2e" x="55.615234"/>
       <use xlink:href="#ArialMT-32" x="83.398438"/>
      </g>
     </g>
    </g>
    <g id="ytick_3">
     <g id="line2d_12">
      <g>
       <use xlink:href="#m982bfae84c" x="90" y="281.859291" style="fill: #262626; stroke: #262626"/>
      </g>
     </g>
     <g id="text_11">
      <!-- 0.4 -->
      <g style="fill: #262626" transform="translate(69.468 285.008728) scale(0.088 -0.088)">
       <use xlink:href="#ArialMT-30"/>
       <use xlink:href="#ArialMT-2e" x="55.615234"/>
       <use xlink:href="#ArialMT-34" x="83.398438"/>
      </g>
     </g>
    </g>
    <g id="ytick_4">
     <g id="line2d_13">
      <g>
       <use xlink:href="#m982bfae84c" x="90" y="230.548936" style="fill: #262626; stroke: #262626"/>
      </g>
     </g>
     <g id="text_12">
      <!-- 0.6 -->
      <g style="fill: #262626" transform="translate(69.468 233.698373) scale(0.088 -0.088)">
       <defs>
        <path id="ArialMT-36" d="M 3184 3459 
L 2625 3416 
Q 2550 3747 2413 3897 
Q 2184 4138 1850 4138 
Q 1581 4138 1378 3988 
Q 1113 3794 959 3422 
Q 806 3050 800 2363 
Q 1003 2672 1297 2822 
Q 1591 2972 1913 2972 
Q 2475 2972 2870 2558 
Q 3266 2144 3266 1488 
Q 3266 1056 3080 686 
Q 2894 316 2569 119 
Q 2244 -78 1831 -78 
Q 1128 -78 684 439 
Q 241 956 241 2144 
Q 241 3472 731 4075 
Q 1159 4600 1884 4600 
Q 2425 4600 2770 4297 
Q 3116 3994 3184 3459 
z
M 888 1484 
Q 888 1194 1011 928 
Q 1134 663 1356 523 
Q 1578 384 1822 384 
Q 2178 384 2434 671 
Q 2691 959 2691 1453 
Q 2691 1928 2437 2201 
Q 2184 2475 1800 2475 
Q 1419 2475 1153 2201 
Q 888 1928 888 1484 
z
" transform="scale(0.015625)"/>
       </defs>
       <use xlink:href="#ArialMT-30"/>
       <use xlink:href="#ArialMT-2e" x="55.615234"/>
       <use xlink:href="#ArialMT-36" x="83.398438"/>
      </g>
     </g>
    </g>
    <g id="ytick_5">
     <g id="line2d_14">
      <g>
       <use xlink:href="#m982bfae84c" x="90" y="179.238581" style="fill: #262626; stroke: #262626"/>
      </g>
     </g>
     <g id="text_13">
      <!-- 0.8 -->
      <g style="fill: #262626" transform="translate(69.468 182.388019) scale(0.088 -0.088)">
       <defs>
        <path id="ArialMT-38" d="M 1131 2484 
Q 781 2613 612 2850 
Q 444 3088 444 3419 
Q 444 3919 803 4259 
Q 1163 4600 1759 4600 
Q 2359 4600 2725 4251 
Q 3091 3903 3091 3403 
Q 3091 3084 2923 2848 
Q 2756 2613 2416 2484 
Q 2838 2347 3058 2040 
Q 3278 1734 3278 1309 
Q 3278 722 2862 322 
Q 2447 -78 1769 -78 
Q 1091 -78 675 323 
Q 259 725 259 1325 
Q 259 1772 486 2073 
Q 713 2375 1131 2484 
z
M 1019 3438 
Q 1019 3113 1228 2906 
Q 1438 2700 1772 2700 
Q 2097 2700 2305 2904 
Q 2513 3109 2513 3406 
Q 2513 3716 2298 3927 
Q 2084 4138 1766 4138 
Q 1444 4138 1231 3931 
Q 1019 3725 1019 3438 
z
M 838 1322 
Q 838 1081 952 856 
Q 1066 631 1291 507 
Q 1516 384 1775 384 
Q 2178 384 2440 643 
Q 2703 903 2703 1303 
Q 2703 1709 2433 1975 
Q 2163 2241 1756 2241 
Q 1359 2241 1098 1978 
Q 838 1716 838 1322 
z
" transform="scale(0.015625)"/>
       </defs>
       <use xlink:href="#ArialMT-30"/>
       <use xlink:href="#ArialMT-2e" x="55.615234"/>
       <use xlink:href="#ArialMT-38" x="83.398438"/>
      </g>
     </g>
    </g>
    <g id="ytick_6">
     <g id="line2d_15">
      <g>
       <use xlink:href="#m982bfae84c" x="90" y="127.928226" style="fill: #262626; stroke: #262626"/>
      </g>
     </g>
     <g id="text_14">
      <!-- 1.0 -->
      <g style="fill: #262626" transform="translate(69.468 131.077664) scale(0.088 -0.088)">
       <use xlink:href="#ArialMT-31"/>
       <use xlink:href="#ArialMT-2e" x="55.615234"/>
       <use xlink:href="#ArialMT-30" x="83.398438"/>
      </g>
     </g>
    </g>
    <g id="ytick_7">
     <g id="line2d_16">
      <g>
       <use xlink:href="#m982bfae84c" x="90" y="76.617872" style="fill: #262626; stroke: #262626"/>
      </g>
     </g>
     <g id="text_15">
      <!-- 1.2 -->
      <g style="fill: #262626" transform="translate(69.468 79.767309) scale(0.088 -0.088)">
       <use xlink:href="#ArialMT-31"/>
       <use xlink:href="#ArialMT-2e" x="55.615234"/>
       <use xlink:href="#ArialMT-32" x="83.398438"/>
      </g>
     </g>
    </g>
    <g id="text_16">
     <!-- information (bits) -->
     <g style="fill: #262626" transform="translate(63.4475 253.902) rotate(-90) scale(0.096 -0.096)">
      <defs>
       <path id="ArialMT-69" d="M 425 3934 
L 425 4581 
L 988 4581 
L 988 3934 
L 425 3934 
z
M 425 0 
L 425 3319 
L 988 3319 
L 988 0 
L 425 0 
z
" transform="scale(0.015625)"/>
       <path id="ArialMT-6e" d="M 422 0 
L 422 3319 
L 928 3319 
L 928 2847 
Q 1294 3394 1984 3394 
Q 2284 3394 2536 3286 
Q 2788 3178 2913 3003 
Q 3038 2828 3088 2588 
Q 3119 2431 3119 2041 
L 3119 0 
L 2556 0 
L 2556 2019 
Q 2556 2363 2490 2533 
Q 2425 2703 2258 2804 
Q 2091 2906 1866 2906 
Q 1506 2906 1245 2678 
Q 984 2450 984 1813 
L 984 0 
L 422 0 
z
" transform="scale(0.015625)"/>
       <path id="ArialMT-66" d="M 556 0 
L 556 2881 
L 59 2881 
L 59 3319 
L 556 3319 
L 556 3672 
Q 556 4006 616 4169 
Q 697 4388 901 4523 
Q 1106 4659 1475 4659 
Q 1713 4659 2000 4603 
L 1916 4113 
Q 1741 4144 1584 4144 
Q 1328 4144 1222 4034 
Q 1116 3925 1116 3625 
L 1116 3319 
L 1763 3319 
L 1763 2881 
L 1116 2881 
L 1116 0 
L 556 0 
z
" transform="scale(0.015625)"/>
       <path id="ArialMT-6f" d="M 213 1659 
Q 213 2581 725 3025 
Q 1153 3394 1769 3394 
Q 2453 3394 2887 2945 
Q 3322 2497 3322 1706 
Q 3322 1066 3130 698 
Q 2938 331 2570 128 
Q 2203 -75 1769 -75 
Q 1072 -75 642 372 
Q 213 819 213 1659 
z
M 791 1659 
Q 791 1022 1069 705 
Q 1347 388 1769 388 
Q 2188 388 2466 706 
Q 2744 1025 2744 1678 
Q 2744 2294 2464 2611 
Q 2184 2928 1769 2928 
Q 1347 2928 1069 2612 
Q 791 2297 791 1659 
z
" transform="scale(0.015625)"/>
       <path id="ArialMT-72" d="M 416 0 
L 416 3319 
L 922 3319 
L 922 2816 
Q 1116 3169 1280 3281 
Q 1444 3394 1641 3394 
Q 1925 3394 2219 3213 
L 2025 2691 
Q 1819 2813 1613 2813 
Q 1428 2813 1281 2702 
Q 1134 2591 1072 2394 
Q 978 2094 978 1738 
L 978 0 
L 416 0 
z
" transform="scale(0.015625)"/>
       <path id="ArialMT-6d" d="M 422 0 
L 422 3319 
L 925 3319 
L 925 2853 
Q 1081 3097 1340 3245 
Q 1600 3394 1931 3394 
Q 2300 3394 2536 3241 
Q 2772 3088 2869 2813 
Q 3263 3394 3894 3394 
Q 4388 3394 4653 3120 
Q 4919 2847 4919 2278 
L 4919 0 
L 4359 0 
L 4359 2091 
Q 4359 2428 4304 2576 
Q 4250 2725 4106 2815 
Q 3963 2906 3769 2906 
Q 3419 2906 3187 2673 
Q 2956 2441 2956 1928 
L 2956 0 
L 2394 0 
L 2394 2156 
Q 2394 2531 2256 2718 
Q 2119 2906 1806 2906 
Q 1569 2906 1367 2781 
Q 1166 2656 1075 2415 
Q 984 2175 984 1722 
L 984 0 
L 422 0 
z
" transform="scale(0.015625)"/>
       <path id="ArialMT-61" d="M 2588 409 
Q 2275 144 1986 34 
Q 1697 -75 1366 -75 
Q 819 -75 525 192 
Q 231 459 231 875 
Q 231 1119 342 1320 
Q 453 1522 633 1644 
Q 813 1766 1038 1828 
Q 1203 1872 1538 1913 
Q 2219 1994 2541 2106 
Q 2544 2222 2544 2253 
Q 2544 2597 2384 2738 
Q 2169 2928 1744 2928 
Q 1347 2928 1158 2789 
Q 969 2650 878 2297 
L 328 2372 
Q 403 2725 575 2942 
Q 747 3159 1072 3276 
Q 1397 3394 1825 3394 
Q 2250 3394 2515 3294 
Q 2781 3194 2906 3042 
Q 3031 2891 3081 2659 
Q 3109 2516 3109 2141 
L 3109 1391 
Q 3109 606 3145 398 
Q 3181 191 3288 0 
L 2700 0 
Q 2613 175 2588 409 
z
M 2541 1666 
Q 2234 1541 1622 1453 
Q 1275 1403 1131 1340 
Q 988 1278 909 1158 
Q 831 1038 831 891 
Q 831 666 1001 516 
Q 1172 366 1500 366 
Q 1825 366 2078 508 
Q 2331 650 2450 897 
Q 2541 1088 2541 1459 
L 2541 1666 
z
" transform="scale(0.015625)"/>
       <path id="ArialMT-74" d="M 1650 503 
L 1731 6 
Q 1494 -44 1306 -44 
Q 1000 -44 831 53 
Q 663 150 594 308 
Q 525 466 525 972 
L 525 2881 
L 113 2881 
L 113 3319 
L 525 3319 
L 525 4141 
L 1084 4478 
L 1084 3319 
L 1650 3319 
L 1650 2881 
L 1084 2881 
L 1084 941 
Q 1084 700 1114 631 
Q 1144 563 1211 522 
Q 1278 481 1403 481 
Q 1497 481 1650 503 
z
" transform="scale(0.015625)"/>
       <path id="ArialMT-20" transform="scale(0.015625)"/>
       <path id="ArialMT-28" d="M 1497 -1347 
Q 1031 -759 709 28 
Q 388 816 388 1659 
Q 388 2403 628 3084 
Q 909 3875 1497 4659 
L 1900 4659 
Q 1522 4009 1400 3731 
Q 1209 3300 1100 2831 
Q 966 2247 966 1656 
Q 966 153 1900 -1347 
L 1497 -1347 
z
" transform="scale(0.015625)"/>
       <path id="ArialMT-62" d="M 941 0 
L 419 0 
L 419 4581 
L 981 4581 
L 981 2947 
Q 1338 3394 1891 3394 
Q 2197 3394 2470 3270 
Q 2744 3147 2920 2923 
Q 3097 2700 3197 2384 
Q 3297 2069 3297 1709 
Q 3297 856 2875 390 
Q 2453 -75 1863 -75 
Q 1275 -75 941 416 
L 941 0 
z
M 934 1684 
Q 934 1088 1097 822 
Q 1363 388 1816 388 
Q 2184 388 2453 708 
Q 2722 1028 2722 1663 
Q 2722 2313 2464 2622 
Q 2206 2931 1841 2931 
Q 1472 2931 1203 2611 
Q 934 2291 934 1684 
z
" transform="scale(0.015625)"/>
       <path id="ArialMT-73" d="M 197 991 
L 753 1078 
Q 800 744 1014 566 
Q 1228 388 1613 388 
Q 2000 388 2187 545 
Q 2375 703 2375 916 
Q 2375 1106 2209 1216 
Q 2094 1291 1634 1406 
Q 1016 1563 777 1677 
Q 538 1791 414 1992 
Q 291 2194 291 2438 
Q 291 2659 392 2848 
Q 494 3038 669 3163 
Q 800 3259 1026 3326 
Q 1253 3394 1513 3394 
Q 1903 3394 2198 3281 
Q 2494 3169 2634 2976 
Q 2775 2784 2828 2463 
L 2278 2388 
Q 2241 2644 2061 2787 
Q 1881 2931 1553 2931 
Q 1166 2931 1000 2803 
Q 834 2675 834 2503 
Q 834 2394 903 2306 
Q 972 2216 1119 2156 
Q 1203 2125 1616 2013 
Q 2213 1853 2448 1751 
Q 2684 1650 2818 1456 
Q 2953 1263 2953 975 
Q 2953 694 2789 445 
Q 2625 197 2315 61 
Q 2006 -75 1616 -75 
Q 969 -75 630 194 
Q 291 463 197 991 
z
" transform="scale(0.015625)"/>
       <path id="ArialMT-29" d="M 791 -1347 
L 388 -1347 
Q 1322 153 1322 1656 
Q 1322 2244 1188 2822 
Q 1081 3291 891 3722 
Q 769 4003 388 4659 
L 791 4659 
Q 1378 3875 1659 3084 
Q 1900 2403 1900 1659 
Q 1900 816 1576 28 
Q 1253 -759 791 -1347 
z
" transform="scale(0.015625)"/>
      </defs>
      <use xlink:href="#ArialMT-69"/>
      <use xlink:href="#ArialMT-6e" x="22.216797"/>
      <use xlink:href="#ArialMT-66" x="77.832031"/>
      <use xlink:href="#ArialMT-6f" x="105.615234"/>
      <use xlink:href="#ArialMT-72" x="161.230469"/>
      <use xlink:href="#ArialMT-6d" x="194.53125"/>
      <use xlink:href="#ArialMT-61" x="277.832031"/>
      <use xlink:href="#ArialMT-74" x="333.447266"/>
      <use xlink:href="#ArialMT-69" x="361.230469"/>
      <use xlink:href="#ArialMT-6f" x="383.447266"/>
      <use xlink:href="#ArialMT-6e" x="439.0625"/>
      <use xlink:href="#ArialMT-20" x="494.677734"/>
      <use xlink:href="#ArialMT-28" x="522.460938"/>
      <use xlink:href="#ArialMT-62" x="555.761719"/>
      <use xlink:href="#ArialMT-69" x="611.376953"/>
      <use xlink:href="#ArialMT-74" x="633.59375"/>
      <use xlink:href="#ArialMT-73" x="661.376953"/>
      <use xlink:href="#ArialMT-29" x="711.376953"/>
     </g>
    </g>
   </g>
   <g id="line2d_17">
    <path d="M 369 384.48 
L 369 51.84 
" clip-path="url(#pd918329dc6)" style="fill: none; stroke: #daa520; stroke-width: 2; stroke-linecap: round"/>
   </g>
   <g id="patch_69">
    <path d="M 90 384.48 
L 648 384.48 
" style="fill: none; stroke: #262626; stroke-linejoin: miter; stroke-linecap: square"/>
   </g>
   <g id="patch_70">
    <path d="M 90 51.84 
L 648 51.84 
" style="fill: none; stroke: #262626; stroke-linejoin: miter; stroke-linecap: square"/>
   </g>
   <g id="text_17">
    <!-- Ctrl vs. MMP9 information content, Kullback n=20 -->
    <g style="fill: #262626" transform="translate(263.75925 45.84) scale(0.096 -0.096)">
     <defs>
      <path id="ArialMT-43" d="M 3763 1606 
L 4369 1453 
Q 4178 706 3683 314 
Q 3188 -78 2472 -78 
Q 1731 -78 1267 223 
Q 803 525 561 1097 
Q 319 1669 319 2325 
Q 319 3041 592 3573 
Q 866 4106 1370 4382 
Q 1875 4659 2481 4659 
Q 3169 4659 3637 4309 
Q 4106 3959 4291 3325 
L 3694 3184 
Q 3534 3684 3231 3912 
Q 2928 4141 2469 4141 
Q 1941 4141 1586 3887 
Q 1231 3634 1087 3207 
Q 944 2781 944 2328 
Q 944 1744 1114 1308 
Q 1284 872 1643 656 
Q 2003 441 2422 441 
Q 2931 441 3284 734 
Q 3638 1028 3763 1606 
z
" transform="scale(0.015625)"/>
      <path id="ArialMT-6c" d="M 409 0 
L 409 4581 
L 972 4581 
L 972 0 
L 409 0 
z
" transform="scale(0.015625)"/>
      <path id="ArialMT-76" d="M 1344 0 
L 81 3319 
L 675 3319 
L 1388 1331 
Q 1503 1009 1600 663 
Q 1675 925 1809 1294 
L 2547 3319 
L 3125 3319 
L 1869 0 
L 1344 0 
z
" transform="scale(0.015625)"/>
      <path id="ArialMT-4d" d="M 475 0 
L 475 4581 
L 1388 4581 
L 2472 1338 
Q 2622 884 2691 659 
Q 2769 909 2934 1394 
L 4031 4581 
L 4847 4581 
L 4847 0 
L 4263 0 
L 4263 3834 
L 2931 0 
L 2384 0 
L 1059 3900 
L 1059 0 
L 475 0 
z
" transform="scale(0.015625)"/>
      <path id="ArialMT-39" d="M 350 1059 
L 891 1109 
Q 959 728 1153 556 
Q 1347 384 1650 384 
Q 1909 384 2104 503 
Q 2300 622 2425 820 
Q 2550 1019 2634 1356 
Q 2719 1694 2719 2044 
Q 2719 2081 2716 2156 
Q 2547 1888 2255 1720 
Q 1963 1553 1622 1553 
Q 1053 1553 659 1965 
Q 266 2378 266 3053 
Q 266 3750 677 4175 
Q 1088 4600 1706 4600 
Q 2153 4600 2523 4359 
Q 2894 4119 3086 3673 
Q 3278 3228 3278 2384 
Q 3278 1506 3087 986 
Q 2897 466 2520 194 
Q 2144 -78 1638 -78 
Q 1100 -78 759 220 
Q 419 519 350 1059 
z
M 2653 3081 
Q 2653 3566 2395 3850 
Q 2138 4134 1775 4134 
Q 1400 4134 1122 3828 
Q 844 3522 844 3034 
Q 844 2597 1108 2323 
Q 1372 2050 1759 2050 
Q 2150 2050 2401 2323 
Q 2653 2597 2653 3081 
z
" transform="scale(0.015625)"/>
      <path id="ArialMT-63" d="M 2588 1216 
L 3141 1144 
Q 3050 572 2676 248 
Q 2303 -75 1759 -75 
Q 1078 -75 664 370 
Q 250 816 250 1647 
Q 250 2184 428 2587 
Q 606 2991 970 3192 
Q 1334 3394 1763 3394 
Q 2303 3394 2647 3120 
Q 2991 2847 3088 2344 
L 2541 2259 
Q 2463 2594 2264 2762 
Q 2066 2931 1784 2931 
Q 1359 2931 1093 2626 
Q 828 2322 828 1663 
Q 828 994 1084 691 
Q 1341 388 1753 388 
Q 2084 388 2306 591 
Q 2528 794 2588 1216 
z
" transform="scale(0.015625)"/>
      <path id="ArialMT-65" d="M 2694 1069 
L 3275 997 
Q 3138 488 2766 206 
Q 2394 -75 1816 -75 
Q 1088 -75 661 373 
Q 234 822 234 1631 
Q 234 2469 665 2931 
Q 1097 3394 1784 3394 
Q 2450 3394 2872 2941 
Q 3294 2488 3294 1666 
Q 3294 1616 3291 1516 
L 816 1516 
Q 847 969 1125 678 
Q 1403 388 1819 388 
Q 2128 388 2347 550 
Q 2566 713 2694 1069 
z
M 847 1978 
L 2700 1978 
Q 2663 2397 2488 2606 
Q 2219 2931 1791 2931 
Q 1403 2931 1139 2672 
Q 875 2413 847 1978 
z
" transform="scale(0.015625)"/>
      <path id="ArialMT-2c" d="M 569 0 
L 569 641 
L 1209 641 
L 1209 0 
Q 1209 -353 1084 -570 
Q 959 -788 688 -906 
L 531 -666 
Q 709 -588 793 -436 
Q 878 -284 888 0 
L 569 0 
z
" transform="scale(0.015625)"/>
      <path id="ArialMT-4b" d="M 469 0 
L 469 4581 
L 1075 4581 
L 1075 2309 
L 3350 4581 
L 4172 4581 
L 2250 2725 
L 4256 0 
L 3456 0 
L 1825 2319 
L 1075 1588 
L 1075 0 
L 469 0 
z
" transform="scale(0.015625)"/>
      <path id="ArialMT-75" d="M 2597 0 
L 2597 488 
Q 2209 -75 1544 -75 
Q 1250 -75 995 37 
Q 741 150 617 320 
Q 494 491 444 738 
Q 409 903 409 1263 
L 409 3319 
L 972 3319 
L 972 1478 
Q 972 1038 1006 884 
Q 1059 663 1231 536 
Q 1403 409 1656 409 
Q 1909 409 2131 539 
Q 2353 669 2445 892 
Q 2538 1116 2538 1541 
L 2538 3319 
L 3100 3319 
L 3100 0 
L 2597 0 
z
" transform="scale(0.015625)"/>
      <path id="ArialMT-6b" d="M 425 0 
L 425 4581 
L 988 4581 
L 988 1969 
L 2319 3319 
L 3047 3319 
L 1778 2088 
L 3175 0 
L 2481 0 
L 1384 1697 
L 988 1316 
L 988 0 
L 425 0 
z
" transform="scale(0.015625)"/>
      <path id="ArialMT-3d" d="M 3381 2694 
L 356 2694 
L 356 3219 
L 3381 3219 
L 3381 2694 
z
M 3381 1303 
L 356 1303 
L 356 1828 
L 3381 1828 
L 3381 1303 
z
" transform="scale(0.015625)"/>
     </defs>
     <use xlink:href="#ArialMT-43"/>
     <use xlink:href="#ArialMT-74" x="72.216797"/>
     <use xlink:href="#ArialMT-72" x="100"/>
     <use xlink:href="#ArialMT-6c" x="133.300781"/>
     <use xlink:href="#ArialMT-20" x="155.517578"/>
     <use xlink:href="#ArialMT-76" x="183.300781"/>
     <use xlink:href="#ArialMT-73" x="233.300781"/>
     <use xlink:href="#ArialMT-2e" x="283.300781"/>
     <use xlink:href="#ArialMT-20" x="311.083984"/>
     <use xlink:href="#ArialMT-4d" x="338.867188"/>
     <use xlink:href="#ArialMT-4d" x="422.167969"/>
     <use xlink:href="#ArialMT-50" x="505.46875"/>
     <use xlink:href="#ArialMT-39" x="572.167969"/>
     <use xlink:href="#ArialMT-20" x="627.783203"/>
     <use xlink:href="#ArialMT-69" x="655.566406"/>
     <use xlink:href="#ArialMT-6e" x="677.783203"/>
     <use xlink:href="#ArialMT-66" x="733.398438"/>
     <use xlink:href="#ArialMT-6f" x="761.181641"/>
     <use xlink:href="#ArialMT-72" x="816.796875"/>
     <use xlink:href="#ArialMT-6d" x="850.097656"/>
     <use xlink:href="#ArialMT-61" x="933.398438"/>
     <use xlink:href="#ArialMT-74" x="989.013672"/>
     <use xlink:href="#ArialMT-69" x="1016.796875"/>
     <use xlink:href="#ArialMT-6f" x="1039.013672"/>
     <use xlink:href="#ArialMT-6e" x="1094.628906"/>
     <use xlink:href="#ArialMT-20" x="1150.244141"/>
     <use xlink:href="#ArialMT-63" x="1178.027344"/>
     <use xlink:href="#ArialMT-6f" x="1228.027344"/>
     <use xlink:href="#ArialMT-6e" x="1283.642578"/>
     <use xlink:href="#ArialMT-74" x="1339.257812"/>
     <use xlink:href="#ArialMT-65" x="1367.041016"/>
     <use xlink:href="#ArialMT-6e" x="1422.65625"/>
     <use xlink:href="#ArialMT-74" x="1478.271484"/>
     <use xlink:href="#ArialMT-2c" x="1506.054688"/>
     <use xlink:href="#ArialMT-20" x="1533.837891"/>
     <use xlink:href="#ArialMT-4b" x="1561.621094"/>
     <use xlink:href="#ArialMT-75" x="1628.320312"/>
     <use xlink:href="#ArialMT-6c" x="1683.935547"/>
     <use xlink:href="#ArialMT-6c" x="1706.152344"/>
     <use xlink:href="#ArialMT-62" x="1728.369141"/>
     <use xlink:href="#ArialMT-61" x="1783.984375"/>
     <use xlink:href="#ArialMT-63" x="1839.599609"/>
     <use xlink:href="#ArialMT-6b" x="1889.599609"/>
     <use xlink:href="#ArialMT-20" x="1939.599609"/>
     <use xlink:href="#ArialMT-6e" x="1967.382812"/>
     <use xlink:href="#ArialMT-3d" x="2022.998047"/>
     <use xlink:href="#ArialMT-32" x="2081.396484"/>
     <use xlink:href="#ArialMT-30" x="2137.011719"/>
    </g>
   </g>
  </g>
 </g>
 <defs>
  <clipPath id="pd918329dc6">
   <rect x="90" y="51.84" width="558" height="332.64"/>
  </clipPath>
 </defs>
</svg>
