<?xml version="1.0" encoding="utf-8" standalone="no"?>
<!DOCTYPE svg PUBLIC "-//W3C//DTD SVG 1.1//EN"
  "http://www.w3.org/Graphics/SVG/1.1/DTD/svg11.dtd">
<svg xmlns:xlink="http://www.w3.org/1999/xlink" width="720pt" height="432pt" viewBox="0 0 720 432" xmlns="http://www.w3.org/2000/svg" version="1.1">
 <metadata>
  <rdf:RDF xmlns:dc="http://purl.org/dc/elements/1.1/" xmlns:cc="http://creativecommons.org/ns#" xmlns:rdf="http://www.w3.org/1999/02/22-rdf-syntax-ns#">
   <cc:Work>
    <dc:type rdf:resource="http://purl.org/dc/dcmitype/StillImage"/>
    <dc:date>2023-11-09T08:00:53.172956</dc:date>
    <dc:format>image/svg+xml</dc:format>
    <dc:creator>
     <cc:Agent>
      <dc:title>Matplotlib v3.7.1, https://matplotlib.org/</dc:title>
     </cc:Agent>
    </dc:creator>
   </cc:Work>
  </rdf:RDF>
 </metadata>
 <defs>
  <style type="text/css">*{stroke-linejoin: round; stroke-linecap: butt}</style>
 </defs>
 <g id="figure_1">
  <g id="patch_1">
   <path d="M 0 432 
L 720 432 
L 720 0 
L 0 0 
z
" style="fill: #ffffff"/>
  </g>
  <g id="axes_1">
   <g id="patch_2">
    <path d="M 90 384.48 
L 648 384.48 
L 648 51.84 
L 90 51.84 
z
" style="fill: #ffffff"/>
   </g>
   <g id="line2d_1">
    <path d="M 90 384.48 
L 648 384.48 
" clip-path="url(#p4413d6b731)" style="fill: none; stroke: #000000; stroke-width: 0.5; stroke-linecap: round"/>
   </g>
   <g id="patch_3">
    <path d="M 178.35 383.763864 
Q 173.035119 384.041252 167.318669 384.180579 
Q 161.602219 384.31864 155.507822 384.31864 
Q 141.736374 384.31864 133.693187 383.492809 
Q 125.65 382.666977 125.65 381.254703 
Q 125.65 379.825964 133.834917 379.006466 
Q 142.031645 378.186967 156.287338 378.186967 
Q 161.779381 378.186967 166.810802 378.298429 
Q 171.854034 378.408624 176.318534 378.626482 
L 176.318534 379.848763 
Q 171.712304 379.568842 167.153317 379.430781 
Q 162.59433 379.291453 158.011721 379.291453 
Q 149.531533 379.291453 144.937113 379.800632 
Q 140.342694 380.308544 140.342694 381.254703 
Q 140.342694 382.191997 144.771762 382.703709 
Q 149.200829 383.214154 157.350314 383.214154 
Q 159.570753 383.214154 161.472299 383.185022 
Q 163.373846 383.154623 164.885634 383.091292 
L 164.885634 381.943741 
L 156.204662 381.943741 
L 156.204662 380.921584 
L 178.35 380.921584 
L 178.35 383.763864 
z
" clip-path="url(#p4413d6b731)" style="fill: #787800"/>
   </g>
   <g id="patch_4">
    <path d="M 125.65 366.878488 
L 139.537864 366.878488 
L 139.537864 370.842651 
L 159.555783 366.878488 
L 175.683253 366.878488 
L 149.743078 372.022822 
L 178.35 377.739784 
L 160.964195 377.739784 
L 139.537864 373.461373 
L 139.537864 377.739784 
L 125.65 377.739784 
L 125.65 366.878488 
z
" clip-path="url(#p4413d6b731)" style="fill: #bd2e1f"/>
   </g>
   <g id="patch_5">
    <path d="M 178.35 363.705841 
Q 173.941736 364.752509 169.174969 365.281928 
Q 164.408201 365.817432 159.216541 365.817432 
Q 143.734505 365.817432 134.692252 361.849832 
Q 125.65 357.882233 125.65 351.097151 
Q 125.65 344.287728 134.692252 340.326213 
Q 143.734505 336.358614 159.216541 336.358614 
Q 164.408201 336.358614 169.174969 336.894118 
Q 173.941736 337.423537 178.35 338.470204 
L 178.35 344.342495 
Q 173.901902 342.955052 169.586584 342.310013 
Q 165.271265 341.664974 160.504497 341.664974 
Q 151.953527 341.664974 147.053981 344.178193 
Q 142.167712 346.685326 142.167712 351.097151 
Q 142.167712 355.49072 147.053981 358.003938 
Q 151.953527 360.511072 160.504497 360.511072 
Q 165.271265 360.511072 169.586584 359.866033 
Q 173.901902 359.214908 178.35 357.827465 
L 178.35 363.705841 
z
" clip-path="url(#p4413d6b731)" style="fill: #6b296b"/>
   </g>
   <g id="patch_6">
    <path d="M 162.155336 329.132991 
L 141.887763 329.132991 
L 138.68762 334.769187 
L 125.65 334.769187 
L 144.269015 303.829785 
L 159.730985 303.829785 
L 178.35 334.769187 
L 165.323155 334.769187 
L 162.155336 329.132991 
z
M 145.120231 323.390701 
L 158.890544 323.390701 
L 152.016162 311.083901 
L 145.120231 323.390701 
z
" clip-path="url(#p4413d6b731)" style="fill: #21599c"/>
   </g>
   <g id="patch_7">
    <path d="M 125.65 262.792094 
L 178.35 262.792094 
L 178.35 270.43565 
L 159.390256 270.43565 
L 159.390256 301.984218 
L 144.646512 301.984218 
L 144.646512 270.43565 
L 125.65 270.43565 
L 125.65 262.792094 
z
" clip-path="url(#p4413d6b731)" style="fill: #40ba47"/>
   </g>
   <g id="patch_8">
    <path d="M 173.955948 223.228726 
L 173.955948 231.264707 
Q 168.459804 229.86573 163.221293 229.158108 
Q 157.997094 228.442353 153.34541 228.442353 
Q 147.176562 228.442353 144.213797 229.41025 
Q 141.265345 230.370012 141.265345 232.403408 
Q 141.265345 233.932522 143.254834 234.786548 
Q 145.244324 235.632441 150.482835 236.24246 
L 157.811027 237.080219 
Q 168.946442 238.357191 173.641065 240.951805 
Q 178.35 243.538284 178.35 248.320831 
Q 178.35 254.591824 171.794704 257.658185 
Q 165.239408 260.724546 151.770994 260.724546 
Q 145.430391 260.724546 139.032537 260.033192 
Q 132.634682 259.34997 126.236828 257.999796 
L 126.236828 249.744208 
Q 132.634682 251.671868 138.60315 252.656031 
Q 144.571619 253.632061 150.125014 253.632061 
Q 155.764286 253.632061 158.755676 252.566562 
Q 161.747067 251.492929 161.747067 249.508334 
Q 161.747067 247.735213 159.714639 246.767317 
Q 157.682211 245.79942 151.59924 245.034864 
L 144.929441 244.197104 
Q 134.910429 242.977067 130.273058 240.309251 
Q 125.65 237.641436 125.65 233.119164 
Q 125.65 227.450056 132.090793 224.399962 
Q 138.531586 221.349868 150.611651 221.349868 
Q 156.122108 221.349868 161.933134 221.821616 
Q 167.744161 222.293364 173.955948 223.228726 
z
" clip-path="url(#p4413d6b731)" style="fill: #40ba47"/>
   </g>
   <g id="patch_9">
    <path d="M 147.032787 195.089606 
Q 151.762274 195.089606 153.814221 193.791207 
Q 155.866168 192.483533 155.866168 189.497215 
Q 155.866168 186.53872 153.814221 185.268144 
Q 151.762274 183.988293 147.032787 183.988293 
L 140.701781 183.988293 
L 140.701781 195.089606 
L 147.032787 195.089606 
z
M 140.701781 202.796532 
L 140.701781 219.174909 
L 125.65 219.174909 
L 125.65 175.901122 
L 148.634307 175.901122 
Q 160.170252 175.901122 165.537844 178.776148 
Q 170.917949 181.641901 170.917949 187.846394 
Q 170.917949 192.131111 168.11529 194.885571 
Q 165.325142 197.640032 159.694801 198.947706 
Q 162.785233 199.467065 165.225047 201.312647 
Q 167.677374 203.148954 170.179748 206.886489 
L 178.35 219.174909 
L 162.322293 219.174909 
L 155.203039 208.426019 
Q 153.050997 205.180021 150.836396 203.992914 
Q 148.634307 202.796532 144.955817 202.796532 
L 140.701781 202.796532 
z
" clip-path="url(#p4413d6b731)" style="fill: #bd2e1f"/>
   </g>
   <g id="patch_10">
    <path d="M 125.65 126.528131 
L 142.578032 126.528131 
L 163.968106 158.759546 
L 163.968106 126.528131 
L 178.35 126.528131 
L 178.35 173.525563 
L 161.409364 173.525563 
L 140.01929 141.294148 
L 140.01929 173.525563 
L 125.65 173.525563 
L 125.65 126.528131 
z
" clip-path="url(#p4413d6b731)" style="fill: #40ba47"/>
   </g>
   <g id="patch_11">
    <path d="M 235.955948 378.55677 
L 235.955948 379.79208 
Q 230.459804 379.577026 225.221293 379.468249 
Q 219.997094 379.358221 215.34541 379.358221 
Q 209.176562 379.358221 206.213797 379.507008 
Q 203.265345 379.654545 203.265345 379.967124 
Q 203.265345 380.202183 205.254834 380.333466 
Q 207.244324 380.463498 212.482835 380.557272 
L 219.811027 380.686054 
Q 230.946442 380.882354 235.641065 381.281204 
Q 240.35 381.678803 240.35 382.413988 
Q 240.35 383.37798 233.794704 383.849348 
Q 227.239408 384.320717 213.770994 384.320717 
Q 207.430391 384.320717 201.032537 384.21444 
Q 194.634682 384.109414 188.236828 383.901861 
L 188.236828 382.632793 
Q 194.634682 382.929117 200.60315 383.080405 
Q 206.571619 383.230443 212.125014 383.230443 
Q 217.764286 383.230443 220.755676 383.066652 
Q 223.747067 382.90161 223.747067 382.596534 
Q 223.747067 382.323965 221.714639 382.175178 
Q 219.682211 382.026391 213.59924 381.908861 
L 206.929441 381.780079 
Q 196.910429 381.592532 192.273058 381.182429 
Q 187.65 380.772326 187.65 380.077151 
Q 187.65 379.205683 194.090793 378.736815 
Q 200.531586 378.267947 212.611651 378.267947 
Q 218.122108 378.267947 223.933134 378.340465 
Q 229.744161 378.412984 235.955948 378.55677 
z
" clip-path="url(#p4413d6b731)" style="fill: #40ba47"/>
   </g>
   <g id="patch_12">
    <path d="M 187.65 369.030274 
L 239.253077 369.030274 
L 239.253077 370.755414 
L 206.774615 370.755414 
L 206.774615 372.400933 
L 237.329487 372.400933 
L 237.329487 374.126074 
L 206.774615 374.126074 
L 206.774615 376.15264 
L 240.35 376.15264 
L 240.35 377.875885 
L 187.65 377.875885 
L 187.65 369.030274 
z
" clip-path="url(#p4413d6b731)" style="fill: #6b296b"/>
   </g>
   <g id="patch_13">
    <path d="M 202.091481 361.364862 
L 202.091481 366.820354 
L 207.265444 366.820354 
Q 216.112802 366.820354 220.782574 366.119016 
Q 225.464351 365.417677 225.464351 364.082069 
Q 225.464351 362.754125 220.806583 362.060451 
Q 216.16082 361.364862 207.265444 361.364862 
L 202.091481 361.364862 
z
M 187.65 359.621097 
L 202.871777 359.621097 
Q 215.63262 359.621097 221.874989 359.912363 
Q 228.117358 360.201713 232.583052 360.897303 
Q 236.520547 361.50283 238.429271 362.294231 
Q 240.35 363.083716 240.35 364.082069 
Q 240.35 365.095752 238.429271 365.889069 
Q 236.520547 366.682386 232.583052 367.285997 
Q 228.081344 367.981586 221.778952 368.272853 
Q 215.47656 368.562203 202.871777 368.562203 
L 187.65 368.562203 
L 187.65 359.621097 
z
" clip-path="url(#p4413d6b731)" style="fill: #6b296b"/>
   </g>
   <g id="patch_14">
    <path d="M 187.65 348.37626 
L 204.578032 348.37626 
L 225.968106 355.733139 
L 225.968106 348.37626 
L 240.35 348.37626 
L 240.35 359.103509 
L 223.409364 359.103509 
L 202.01929 351.74663 
L 202.01929 359.103509 
L 187.65 359.103509 
L 187.65 348.37626 
z
" clip-path="url(#p4413d6b731)" style="fill: #40ba47"/>
   </g>
   <g id="patch_15">
    <path d="M 187.65 334.468042 
L 200.68762 334.468042 
L 214.016162 344.267528 
L 227.323155 334.468042 
L 240.35 334.468042 
L 221.730985 347.744582 
L 206.269015 347.744582 
L 187.65 334.468042 
z
" clip-path="url(#p4413d6b731)" style="fill: #21599c"/>
   </g>
   <g id="patch_16">
    <path d="M 187.65 315.637412 
L 215.043021 315.637412 
Q 227.271068 315.637412 233.803672 317.165684 
Q 240.35 318.690097 240.35 321.511226 
Q 240.35 324.347792 233.803672 325.872205 
Q 227.271068 327.396618 215.043021 327.396618 
L 204.159922 327.396618 
L 204.159922 333.644782 
L 187.65 333.644782 
L 187.65 315.637412 
z
M 204.159922 319.002698 
L 204.159922 324.031332 
L 213.286354 324.031332 
Q 218.08974 324.031332 220.711016 323.375255 
Q 223.332292 322.719179 223.332292 321.511226 
Q 223.332292 320.307133 220.711016 319.654916 
Q 218.08974 319.002698 213.286354 319.002698 
L 204.159922 319.002698 
z
" clip-path="url(#p4413d6b731)" style="fill: #787800"/>
   </g>
   <g id="patch_17">
    <path d="M 224.155336 310.404623 
L 203.887763 310.404623 
L 200.68762 314.562845 
L 187.65 314.562845 
L 206.269015 291.736654 
L 221.730985 291.736654 
L 240.35 314.562845 
L 227.323155 314.562845 
L 224.155336 310.404623 
z
M 207.120231 306.168129 
L 220.890544 306.168129 
L 214.016162 297.08853 
L 207.120231 306.168129 
z
" clip-path="url(#p4413d6b731)" style="fill: #21599c"/>
   </g>
   <g id="patch_18">
    <path d="M 209.032787 216.856374 
Q 213.762274 216.856374 215.814221 213.032863 
Q 217.866168 209.182042 217.866168 200.387969 
Q 217.866168 191.675828 215.814221 187.93425 
Q 213.762274 184.165361 209.032787 184.165361 
L 202.701781 184.165361 
L 202.701781 216.856374 
L 209.032787 216.856374 
z
M 202.701781 239.551638 
L 202.701781 287.782488 
L 187.65 287.782488 
L 187.65 160.350355 
L 210.634307 160.350355 
Q 222.170252 160.350355 227.537844 168.816699 
Q 232.917949 177.255732 232.917949 195.526649 
Q 232.917949 208.144232 230.11529 216.255536 
Q 227.325142 224.36684 221.694801 228.217661 
Q 224.785233 229.747065 227.225047 235.181912 
Q 229.677374 240.589448 232.179748 251.595695 
L 240.35 287.782488 
L 224.322293 287.782488 
L 217.203039 256.129286 
Q 215.050997 246.57051 212.836396 243.074729 
Q 210.634307 239.551638 206.955817 239.551638 
L 202.701781 239.551638 
z
" clip-path="url(#p4413d6b731)" style="fill: #bd2e1f"/>
   </g>
   <g id="patch_19">
    <path d="M 297.955948 384.462534 
L 297.955948 384.466177 
Q 292.459804 384.465543 287.221293 384.465222 
Q 281.997094 384.464898 277.34541 384.464898 
Q 271.176562 384.464898 268.213797 384.465336 
Q 265.265345 384.465771 265.265345 384.466693 
Q 265.265345 384.467386 267.254834 384.467773 
Q 269.244324 384.468157 274.482835 384.468433 
L 281.811027 384.468813 
Q 292.946442 384.469392 297.641065 384.470568 
Q 302.35 384.47174 302.35 384.473908 
Q 302.35 384.476751 295.794704 384.47814 
Q 289.239408 384.47953 275.770994 384.47953 
Q 269.430391 384.47953 263.032537 384.479217 
Q 256.634682 384.478907 250.236828 384.478295 
L 250.236828 384.474553 
Q 256.634682 384.475427 262.60315 384.475873 
Q 268.571619 384.476315 274.125014 384.476315 
Q 279.764286 384.476315 282.755676 384.475833 
Q 285.747067 384.475346 285.747067 384.474446 
Q 285.747067 384.473643 283.714639 384.473204 
Q 281.682211 384.472765 275.59924 384.472419 
L 268.929441 384.472039 
Q 258.910429 384.471486 254.273058 384.470277 
Q 249.65 384.469067 249.65 384.467017 
Q 249.65 384.464448 256.090793 384.463065 
Q 262.531586 384.461683 274.611651 384.461683 
Q 280.122108 384.461683 285.933134 384.461897 
Q 291.744161 384.46211 297.955948 384.462534 
z
" clip-path="url(#p4413d6b731)" style="fill: #40ba47"/>
   </g>
   <g id="patch_20">
    <path d="M 264.091481 382.807606 
L 264.091481 384.02134 
L 269.265444 384.02134 
Q 278.112802 384.02134 282.782574 383.865307 
Q 287.464351 383.709274 287.464351 383.412128 
Q 287.464351 383.116688 282.806583 382.96236 
Q 278.16082 382.807606 269.265444 382.807606 
L 264.091481 382.807606 
z
M 249.65 382.419654 
L 264.871777 382.419654 
Q 277.63262 382.419654 283.874989 382.484455 
Q 290.117358 382.548829 294.583052 382.703584 
Q 298.520547 382.838301 300.429271 383.014371 
Q 302.35 383.190015 302.35 383.412128 
Q 302.35 383.637652 300.429271 383.814148 
Q 298.520547 383.990645 294.583052 384.124936 
Q 290.081344 384.27969 283.778952 384.344491 
Q 277.47656 384.408865 264.871777 384.408865 
L 249.65 384.408865 
L 249.65 382.419654 
z
" clip-path="url(#p4413d6b731)" style="fill: #6b296b"/>
   </g>
   <g id="patch_21">
    <path d="M 249.65 379.211526 
L 262.68762 379.211526 
L 276.016162 381.481099 
L 289.323155 379.211526 
L 302.35 379.211526 
L 283.730985 382.286389 
L 268.269015 382.286389 
L 249.65 379.211526 
z
" clip-path="url(#p4413d6b731)" style="fill: #21599c"/>
   </g>
   <g id="patch_22">
    <path d="M 249.65 374.010425 
L 302.35 374.010425 
L 302.35 374.983399 
L 283.390256 374.983399 
L 283.390256 378.999321 
L 268.646512 378.999321 
L 268.646512 374.983399 
L 249.65 374.983399 
L 249.65 374.010425 
z
" clip-path="url(#p4413d6b731)" style="fill: #40ba47"/>
   </g>
   <g id="patch_23">
    <path d="M 277.405333 372.739083 
L 276.373292 372.739083 
Q 263.714313 372.739083 256.676667 372.012561 
Q 249.65 371.2849 249.65 369.98811 
Q 249.65 368.693602 256.665687 367.960238 
Q 263.681375 367.225733 276 367.225733 
Q 288.450375 367.225733 295.400188 367.953394 
Q 302.35 368.679916 302.35 369.98811 
Q 302.35 370.885712 298.661 371.534677 
Q 294.972 372.183642 288.044146 372.510976 
L 298.364562 373.708538 
L 285.771458 373.708538 
L 277.405333 372.739083 
z
M 276 368.22028 
Q 269.961458 368.22028 266.634771 368.683337 
Q 263.308083 369.146395 263.308083 369.98811 
Q 263.308083 370.843512 266.557917 371.298586 
Q 269.818729 371.752519 276 371.752519 
Q 282.071479 371.752519 285.398167 371.289462 
Q 288.724854 370.825264 288.724854 369.98811 
Q 288.724854 369.146395 285.398167 368.683337 
Q 282.071479 368.22028 276 368.22028 
z
" clip-path="url(#p4413d6b731)" style="fill: #40ba47"/>
   </g>
   <g id="patch_24">
    <path d="M 249.65 350.973709 
L 277.043021 350.973709 
Q 289.271068 350.973709 295.803672 352.303533 
Q 302.35 353.629998 302.35 356.084798 
Q 302.35 358.55303 295.803672 359.879495 
Q 289.271068 361.20596 277.043021 361.20596 
L 266.159922 361.20596 
L 266.159922 366.642788 
L 249.65 366.642788 
L 249.65 350.973709 
z
M 266.159922 353.902007 
L 266.159922 358.277663 
L 275.286354 358.277663 
Q 280.08974 358.277663 282.711016 357.706779 
Q 285.332292 357.135895 285.332292 356.084798 
Q 285.332292 355.037058 282.711016 354.469533 
Q 280.08974 353.902007 275.286354 353.902007 
L 266.159922 353.902007 
z
" clip-path="url(#p4413d6b731)" style="fill: #787800"/>
   </g>
   <g id="patch_25">
    <path d="M 302.35 346.841328 
Q 297.035119 348.282247 291.318669 349.005997 
Q 285.602219 349.723167 279.507822 349.723167 
Q 265.736374 349.723167 257.693187 345.433307 
Q 249.65 341.143447 249.65 333.807261 
Q 249.65 326.38554 257.834917 322.128578 
Q 266.031645 317.871616 280.287338 317.871616 
Q 285.779381 317.871616 290.810802 318.450615 
Q 295.854034 319.023035 300.318534 320.154716 
L 300.318534 326.503972 
Q 295.712304 325.049893 291.153317 324.332724 
Q 286.59433 323.608974 282.011721 323.608974 
Q 273.531533 323.608974 268.937113 326.253949 
Q 264.342694 328.892345 264.342694 333.807261 
Q 264.342694 338.67612 268.771762 341.334254 
Q 273.200829 343.985808 281.350314 343.985808 
Q 283.570753 343.985808 285.472299 343.834479 
Q 287.373846 343.67657 288.885634 343.347593 
L 288.885634 337.38653 
L 280.204662 337.38653 
L 280.204662 332.076842 
L 302.35 332.076842 
L 302.35 346.841328 
z
" clip-path="url(#p4413d6b731)" style="fill: #787800"/>
   </g>
   <g id="patch_26">
    <path d="M 249.65 154.831749 
L 268.774615 154.831749 
L 268.774615 282.085551 
L 302.35 282.085551 
L 302.35 312.8744 
L 249.65 312.8744 
L 249.65 154.831749 
z
" clip-path="url(#p4413d6b731)" style="fill: #21599c"/>
   </g>
   <g id="patch_27">
    <path d="M 339.405333 382.878608 
L 338.373292 382.878608 
Q 325.714313 382.878608 318.676667 381.858092 
Q 311.65 380.835974 311.65 379.014424 
Q 311.65 377.196079 318.665687 376.16595 
Q 325.681375 375.13422 338 375.13422 
Q 350.450375 375.13422 357.400188 376.156338 
Q 364.35 377.176854 364.35 379.014424 
Q 364.35 380.275251 360.661 381.186826 
Q 356.972 382.098402 350.044146 382.558195 
L 360.364563 384.240365 
L 347.771458 384.240365 
L 339.405333 382.878608 
z
M 338 376.531222 
Q 331.961458 376.531222 328.634771 377.18166 
Q 325.308083 377.832099 325.308083 379.014424 
Q 325.308083 380.215974 328.557917 380.855199 
Q 331.818729 381.492821 338 381.492821 
Q 344.071479 381.492821 347.398167 380.842382 
Q 350.724854 380.190341 350.724854 379.014424 
Q 350.724854 377.832099 347.398167 377.18166 
Q 344.071479 376.531222 338 376.531222 
z
" clip-path="url(#p4413d6b731)" style="fill: #40ba47"/>
   </g>
   <g id="patch_28">
    <path d="M 348.155336 370.654756 
L 327.887763 370.654756 
L 324.68762 374.359416 
L 311.65 374.359416 
L 330.269015 354.023011 
L 345.730985 354.023011 
L 364.35 374.359416 
L 351.323155 374.359416 
L 348.155336 370.654756 
z
M 331.120231 366.880361 
L 344.890544 366.880361 
L 338.016162 358.791126 
L 331.120231 366.880361 
z
" clip-path="url(#p4413d6b731)" style="fill: #21599c"/>
   </g>
   <g id="patch_29">
    <path d="M 311.65 332.353686 
L 326.813382 332.353686 
L 326.813382 340.200456 
L 349.186618 340.200456 
L 349.186618 332.353686 
L 364.35 332.353686 
L 364.35 352.945941 
L 349.186618 352.945941 
L 349.186618 344.216519 
L 326.813382 344.216519 
L 326.813382 352.945941 
L 311.65 352.945941 
L 311.65 332.353686 
z
" clip-path="url(#p4413d6b731)" style="fill: #177875"/>
   </g>
   <g id="patch_30">
    <path d="M 333.032787 310.882497 
Q 337.762274 310.882497 339.814221 309.805171 
Q 341.866168 308.72015 341.866168 306.2423 
Q 341.866168 303.787535 339.814221 302.733294 
Q 337.762274 301.671359 333.032787 301.671359 
L 326.701781 301.671359 
L 326.701781 310.882497 
L 333.032787 310.882497 
z
M 326.701781 317.277197 
L 326.701781 330.866897 
L 311.65 330.866897 
L 311.65 294.961156 
L 334.634307 294.961156 
Q 346.170252 294.961156 351.537844 297.346664 
Q 356.917949 299.724477 356.917949 304.872556 
Q 356.917949 308.427733 354.11529 310.713203 
Q 351.325142 312.998673 345.694801 314.083695 
Q 348.785233 314.514625 351.225047 316.045967 
Q 353.677374 317.569614 356.179748 320.670774 
L 364.35 330.866897 
L 348.322293 330.866897 
L 341.203039 321.948175 
Q 339.050997 319.25486 336.836396 318.269876 
Q 334.634307 317.277197 330.955817 317.277197 
L 326.701781 317.277197 
z
" clip-path="url(#p4413d6b731)" style="fill: #bd2e1f"/>
   </g>
   <g id="patch_31">
    <path d="M 311.65 253.904868 
L 330.774615 253.904868 
L 330.774615 285.373892 
L 364.35 285.373892 
L 364.35 292.987771 
L 311.65 292.987771 
L 311.65 253.904868 
z
" clip-path="url(#p4413d6b731)" style="fill: #21599c"/>
   </g>
   <g id="patch_32">
    <path d="M 312.198462 204.851163 
L 363.801538 204.851163 
L 363.801538 213.977256 
L 331.323077 213.977256 
L 331.323077 222.682145 
L 361.877949 222.682145 
L 361.877949 231.808238 
L 331.323077 231.808238 
L 331.323077 251.644955 
L 312.198462 251.644955 
L 312.198462 204.851163 
z
" clip-path="url(#p4413d6b731)" style="fill: #21599c"/>
   </g>
   <g id="patch_33">
    <path d="M 364.35 193.652591 
Q 359.035119 197.513269 353.318669 199.452423 
Q 347.602219 201.373948 341.507822 201.373948 
Q 327.736374 201.373948 319.693187 189.880056 
Q 311.65 178.386164 311.65 158.730199 
Q 311.65 138.845062 319.834917 127.439313 
Q 328.031645 116.033565 342.287338 116.033565 
Q 347.779381 116.033565 352.810802 117.584888 
Q 357.854034 119.118582 362.318534 122.150713 
L 362.318534 139.162378 
Q 357.712304 135.266442 353.153317 133.344917 
Q 348.59433 131.405764 344.011721 131.405764 
Q 335.531533 131.405764 330.937113 138.492488 
Q 326.342694 145.561584 326.342694 158.730199 
Q 326.342694 171.775414 330.771762 178.897396 
Q 335.200829 186.001749 343.350314 186.001749 
Q 345.570753 186.001749 347.472299 185.59629 
Q 349.373846 185.173202 350.885634 184.291768 
L 350.885634 168.320195 
L 342.204662 168.320195 
L 342.204662 154.09386 
L 364.35 154.09386 
L 364.35 193.652591 
z
" clip-path="url(#p4413d6b731)" style="fill: #787800"/>
   </g>
   <g id="patch_34">
    <path d="M 395.032787 382.84049 
Q 399.762274 382.84049 401.814221 382.756097 
Q 403.866168 382.671101 403.866168 382.476997 
Q 403.866168 382.284702 401.814221 382.202117 
Q 399.762274 382.11893 395.032787 382.11893 
L 388.701781 382.11893 
L 388.701781 382.84049 
L 395.032787 382.84049 
z
M 388.701781 383.341423 
L 388.701781 384.405982 
L 373.65 384.405982 
L 373.65 381.593282 
L 396.634307 381.593282 
Q 408.170252 381.593282 413.537844 381.780152 
Q 418.917949 381.966419 418.917949 382.369698 
Q 418.917949 382.648195 416.11529 382.827229 
Q 413.325142 383.006262 407.694801 383.091258 
Q 410.785233 383.125016 413.225047 383.244974 
Q 415.677374 383.36433 418.179748 383.607262 
L 426.35 384.405982 
L 410.322293 384.405982 
L 403.203039 383.707328 
Q 401.050997 383.496345 398.836396 383.419186 
Q 396.634307 383.341423 392.955817 383.341423 
L 388.701781 383.341423 
z
" clip-path="url(#p4413d6b731)" style="fill: #bd2e1f"/>
   </g>
   <g id="patch_35">
    <path d="M 373.65 367.673536 
L 386.68762 367.673536 
L 400.016162 377.631101 
L 413.323155 367.673536 
L 426.35 367.673536 
L 407.730985 381.164245 
L 392.269015 381.164245 
L 373.65 367.673536 
z
" clip-path="url(#p4413d6b731)" style="fill: #21599c"/>
   </g>
   <g id="patch_36">
    <path d="M 421.955948 333.966505 
L 421.955948 340.922182 
Q 416.459804 339.711275 411.221293 339.098781 
Q 405.997094 338.479247 401.34541 338.479247 
Q 395.176562 338.479247 392.213797 339.317026 
Q 389.265345 340.147765 389.265345 341.907805 
Q 389.265345 343.231354 391.254834 343.970571 
Q 393.244324 344.702748 398.482835 345.23076 
L 405.811027 345.955896 
Q 416.946442 347.061201 421.641065 349.307012 
Q 426.35 351.545782 426.35 355.685396 
Q 426.35 361.113358 419.794704 363.767498 
Q 413.239408 366.421638 399.770994 366.421638 
Q 393.430391 366.421638 387.032537 365.823225 
Q 380.634682 365.231851 374.236828 364.063185 
L 374.236828 356.917423 
Q 380.634682 358.585941 386.60315 359.4378 
Q 392.571619 360.282619 398.125014 360.282619 
Q 403.764286 360.282619 406.755676 359.360359 
Q 409.747067 358.431058 409.747067 356.713259 
Q 409.747067 355.178504 407.714639 354.340725 
Q 405.682211 353.502946 399.59924 352.841171 
L 392.929441 352.116035 
Q 382.910429 351.060011 378.273058 348.750839 
Q 373.65 346.441667 373.65 342.527339 
Q 373.65 337.620348 380.090793 334.980288 
Q 386.531586 332.340229 398.611651 332.340229 
Q 404.122108 332.340229 409.933134 332.748558 
Q 415.744161 333.156887 421.955948 333.966505 
z
" clip-path="url(#p4413d6b731)" style="fill: #40ba47"/>
   </g>
   <g id="patch_37">
    <path d="M 388.091481 297.744468 
L 388.091481 322.479174 
L 393.265444 322.479174 
Q 402.112802 322.479174 406.782574 319.299369 
Q 411.464351 316.119565 411.464351 310.064037 
Q 411.464351 304.04326 406.806583 300.898208 
Q 402.16082 297.744468 393.265444 297.744468 
L 388.091481 297.744468 
z
M 373.65 289.838398 
L 388.871777 289.838398 
Q 401.63262 289.838398 407.874989 291.158972 
Q 414.117358 292.470859 418.583052 295.624599 
Q 422.520547 298.370003 424.429271 301.958143 
Q 426.35 305.537595 426.35 310.064037 
Q 426.35 314.659983 424.429271 318.256811 
Q 422.520547 321.853638 418.583052 324.590355 
Q 414.081344 327.744095 407.778952 329.064669 
Q 401.47656 330.376556 388.871777 330.376556 
L 373.65 330.376556 
L 373.65 289.838398 
z
" clip-path="url(#p4413d6b731)" style="fill: #6b296b"/>
   </g>
   <g id="patch_38">
    <path d="M 373.65 243.272758 
L 382.762642 243.272758 
L 389.132798 275.491044 
L 395.455534 243.272758 
L 404.615597 243.272758 
L 410.938332 275.491044 
L 417.316392 243.272758 
L 426.35 243.272758 
L 417.656239 287.604967 
L 406.694196 287.604967 
L 400 253.904507 
L 393.384838 287.604967 
L 382.414892 287.604967 
L 373.65 243.272758 
z
" clip-path="url(#p4413d6b731)" style="fill: #21599c"/>
   </g>
   <g id="patch_39">
    <path d="M 426.35 236.469845 
Q 421.035119 238.653 415.318669 239.749562 
Q 409.602219 240.836155 403.507822 240.836155 
Q 389.736374 240.836155 381.693187 234.336533 
Q 373.65 227.836911 373.65 216.72176 
Q 373.65 205.477015 381.834917 199.027237 
Q 390.031645 192.577458 404.287338 192.577458 
Q 409.779381 192.577458 414.810802 193.454708 
Q 419.854034 194.321989 424.318534 196.036613 
L 424.318534 205.656452 
Q 419.712304 203.45336 415.153317 202.366766 
Q 410.59433 201.270204 406.011721 201.270204 
Q 397.531533 201.270204 392.937113 205.27764 
Q 388.342694 209.275107 388.342694 216.72176 
Q 388.342694 224.098632 392.771762 228.126005 
Q 397.200829 232.143409 405.350314 232.143409 
Q 407.570753 232.143409 409.472299 231.914128 
Q 411.373846 231.674878 412.885634 231.176441 
L 412.885634 222.144758 
L 404.204662 222.144758 
L 404.204662 214.09998 
L 426.35 214.09998 
L 426.35 236.469845 
z
" clip-path="url(#p4413d6b731)" style="fill: #787800"/>
   </g>
   <g id="patch_40">
    <path d="M 410.155336 171.221208 
L 389.887763 171.221208 
L 386.68762 188.772119 
L 373.65 188.772119 
L 392.269015 92.427938 
L 407.730985 92.427938 
L 426.35 188.772119 
L 413.323155 188.772119 
L 410.155336 171.221208 
z
M 393.120231 153.339926 
L 406.890544 153.339926 
L 400.016162 115.016994 
L 393.120231 153.339926 
z
" clip-path="url(#p4413d6b731)" style="fill: #21599c"/>
   </g>
   <g id="patch_41">
    <path d="M 435.65 381.279019 
L 487.253077 381.279019 
L 487.253077 381.887292 
L 454.774615 381.887292 
L 454.774615 382.467491 
L 485.329487 382.467491 
L 485.329487 383.075765 
L 454.774615 383.075765 
L 454.774615 383.790319 
L 488.35 383.790319 
L 488.35 384.397924 
L 435.65 384.397924 
L 435.65 381.279019 
z
" clip-path="url(#p4413d6b731)" style="fill: #6b296b"/>
   </g>
   <g id="patch_42">
    <path d="M 435.65 361.552188 
L 450.813382 361.552188 
L 450.813382 368.845967 
L 473.186618 368.845967 
L 473.186618 361.552188 
L 488.35 361.552188 
L 488.35 380.69323 
L 473.186618 380.69323 
L 473.186618 372.579004 
L 450.813382 372.579004 
L 450.813382 380.69323 
L 435.65 380.69323 
L 435.65 361.552188 
z
" clip-path="url(#p4413d6b731)" style="fill: #177875"/>
   </g>
   <g id="patch_43">
    <path d="M 483.955948 327.094708 
L 483.955948 334.175883 
Q 478.459804 332.943128 473.221293 332.319583 
Q 467.997094 331.688871 463.34541 331.688871 
Q 457.176562 331.688871 454.213797 332.541766 
Q 451.265345 333.387493 451.265345 335.179289 
Q 451.265345 336.526719 453.254834 337.279273 
Q 455.244324 338.02466 460.482835 338.562198 
L 467.811027 339.300418 
Q 478.946442 340.425666 483.641065 342.711997 
Q 488.35 344.99116 488.35 349.205463 
Q 488.35 354.73136 481.794704 357.433388 
Q 475.239408 360.135415 461.770994 360.135415 
Q 455.430391 360.135415 449.032537 359.526205 
Q 442.634682 358.924161 436.236828 357.734409 
L 436.236828 350.45972 
Q 442.634682 352.158342 448.60315 353.025571 
Q 454.571619 353.885633 460.125014 353.885633 
Q 465.764286 353.885633 468.755676 352.946732 
Q 471.747067 352.000664 471.747067 350.251872 
Q 471.747067 348.689426 469.714639 347.836531 
Q 467.682211 346.983637 461.59924 346.309922 
L 454.929441 345.571702 
Q 444.910429 344.496625 440.273058 342.145789 
Q 435.65 339.794954 435.65 335.810001 
Q 435.65 330.814475 442.090793 328.126782 
Q 448.531586 325.439089 460.611651 325.439089 
Q 466.122108 325.439089 471.933134 325.854785 
Q 477.744161 326.270482 483.955948 327.094708 
z
" clip-path="url(#p4413d6b731)" style="fill: #40ba47"/>
   </g>
   <g id="patch_44">
    <path d="M 435.65 281.502077 
L 448.68762 281.502077 
L 462.016162 312.444027 
L 475.323155 281.502077 
L 488.35 281.502077 
L 469.730985 323.422849 
L 454.269015 323.422849 
L 435.65 281.502077 
z
" clip-path="url(#p4413d6b731)" style="fill: #21599c"/>
   </g>
   <g id="patch_45">
    <path d="M 488.35 268.882152 
Q 483.035119 273.343048 477.318669 275.583682 
Q 471.602219 277.803945 465.507822 277.803945 
Q 451.736374 277.803945 443.693187 264.523102 
Q 435.65 251.242259 435.65 228.530387 
Q 435.65 205.553713 443.834917 192.374717 
Q 452.031645 179.195721 466.287338 179.195721 
Q 471.779381 179.195721 476.810802 180.988227 
Q 481.854034 182.760364 486.318534 186.263899 
L 486.318534 205.920362 
Q 481.712304 201.418727 477.153317 199.198463 
Q 472.59433 196.95783 468.011721 196.95783 
Q 459.531533 196.95783 454.937113 205.146325 
Q 450.342694 213.314451 450.342694 228.530387 
Q 450.342694 243.603737 454.771762 251.832971 
Q 459.200829 260.041836 467.350314 260.041836 
Q 469.570753 260.041836 471.472299 259.57334 
Q 473.373846 259.084474 474.885634 258.066005 
L 474.885634 239.611336 
L 466.204662 239.611336 
L 466.204662 223.173237 
L 488.35 223.173237 
L 488.35 268.882152 
z
" clip-path="url(#p4413d6b731)" style="fill: #787800"/>
   </g>
   <g id="patch_46">
    <path d="M 472.155336 155.09844 
L 451.887763 155.09844 
L 448.68762 173.886655 
L 435.65 173.886655 
L 454.269015 70.750404 
L 469.730985 70.750404 
L 488.35 173.886655 
L 475.323155 173.886655 
L 472.155336 155.09844 
z
M 455.120231 135.956564 
L 468.890544 135.956564 
L 462.016162 94.931942 
L 455.120231 135.956564 
z
" clip-path="url(#p4413d6b731)" style="fill: #21599c"/>
   </g>
   <g id="patch_47">
    <path d="M 497.65 377.947356 
L 514.578032 377.947356 
L 535.968106 382.312647 
L 535.968106 377.947356 
L 550.35 377.947356 
L 550.35 384.312496 
L 533.409364 384.312496 
L 512.01929 379.947205 
L 512.01929 384.312496 
L 497.65 384.312496 
L 497.65 377.947356 
z
" clip-path="url(#p4413d6b731)" style="fill: #40ba47"/>
   </g>
   <g id="patch_48">
    <path d="M 497.65 368.990727 
L 516.774615 368.990727 
L 516.774615 375.886153 
L 550.35 375.886153 
L 550.35 377.55449 
L 497.65 377.55449 
L 497.65 368.990727 
z
" clip-path="url(#p4413d6b731)" style="fill: #21599c"/>
   </g>
   <g id="patch_49">
    <path d="M 534.155336 364.076805 
L 513.887763 364.076805 
L 510.68762 368.173556 
L 497.65 368.173556 
L 516.269015 345.684803 
L 531.730985 345.684803 
L 550.35 368.173556 
L 537.323155 368.173556 
L 534.155336 364.076805 
z
M 517.120231 359.902939 
L 530.890544 359.902939 
L 524.016162 350.957563 
L 517.120231 359.902939 
z
" clip-path="url(#p4413d6b731)" style="fill: #21599c"/>
   </g>
   <g id="patch_50">
    <path d="M 497.65 313.794115 
L 549.253077 313.794115 
L 549.253077 319.741752 
L 516.774615 319.741752 
L 516.774615 325.414882 
L 547.329487 325.414882 
L 547.329487 331.362519 
L 516.774615 331.362519 
L 516.774615 338.349358 
L 550.35 338.349358 
L 550.35 344.290459 
L 497.65 344.290459 
L 497.65 313.794115 
z
" clip-path="url(#p4413d6b731)" style="fill: #6b296b"/>
   </g>
   <g id="patch_51">
    <path d="M 497.65 280.395812 
L 550.35 280.395812 
L 550.35 286.589893 
L 531.390256 286.589893 
L 531.390256 312.155791 
L 516.646512 312.155791 
L 516.646512 286.589893 
L 497.65 286.589893 
L 497.65 280.395812 
z
" clip-path="url(#p4413d6b731)" style="fill: #40ba47"/>
   </g>
   <g id="patch_52">
    <path d="M 497.65 60.250956 
L 525.043021 60.250956 
Q 537.271068 60.250956 543.803672 78.38631 
Q 550.35 96.475867 550.35 129.952997 
Q 550.35 163.613312 543.803672 181.70287 
Q 537.271068 199.792427 525.043021 199.792427 
L 514.159922 199.792427 
L 514.159922 273.936714 
L 497.65 273.936714 
L 497.65 60.250956 
z
M 514.159922 100.185371 
L 514.159922 159.858012 
L 523.286354 159.858012 
Q 528.08974 159.858012 530.711016 152.072633 
Q 533.332292 144.287254 533.332292 129.952997 
Q 533.332292 115.664536 530.711016 107.924954 
Q 528.08974 100.185371 523.286354 100.185371 
L 514.159922 100.185371 
z
" clip-path="url(#p4413d6b731)" style="fill: #787800"/>
   </g>
   <g id="patch_53">
    <path d="M 607.955948 367.29439 
L 607.955948 370.878508 
Q 602.459804 370.254552 597.221293 369.938947 
Q 591.997094 369.619713 587.34541 369.619713 
Q 581.176562 369.619713 578.213797 370.051404 
Q 575.265345 370.479466 575.265345 371.386379 
Q 575.265345 372.068377 577.254834 372.44928 
Q 579.244324 372.826556 584.482835 373.09863 
L 591.811027 373.472278 
Q 602.946442 374.041819 607.641065 375.199039 
Q 612.35 376.352632 612.35 378.48569 
Q 612.35 381.282608 605.794704 382.650232 
Q 599.239408 384.017856 585.770994 384.017856 
Q 579.430391 384.017856 573.032537 383.709506 
Q 566.634682 383.404784 560.236828 382.802594 
L 560.236828 379.120529 
Q 566.634682 379.980282 572.60315 380.419228 
Q 578.571619 380.854546 584.125014 380.854546 
Q 589.764286 380.854546 592.755676 380.379323 
Q 595.747067 379.900474 595.747067 379.015327 
Q 595.747067 378.224499 593.714639 377.792809 
Q 591.682211 377.361119 585.59924 377.020119 
L 578.929441 376.646472 
Q 568.910429 376.102324 564.273058 374.912455 
Q 559.65 373.722586 559.65 371.705612 
Q 559.65 369.17714 566.090793 367.816771 
Q 572.531586 366.456402 584.611651 366.456402 
Q 590.122108 366.456402 595.933134 366.666806 
Q 601.744161 366.87721 607.955948 367.29439 
z
" clip-path="url(#p4413d6b731)" style="fill: #40ba47"/>
   </g>
   <g id="patch_54">
    <path d="M 559.65 344.70698 
L 572.68762 344.70698 
L 586.016162 360.016358 
L 599.323155 344.70698 
L 612.35 344.70698 
L 593.730985 365.448431 
L 578.269015 365.448431 
L 559.65 344.70698 
z
" clip-path="url(#p4413d6b731)" style="fill: #21599c"/>
   </g>
   <g id="patch_55">
    <path d="M 559.65 310.307182 
L 611.253077 310.307182 
L 611.253077 316.740356 
L 578.774615 316.740356 
L 578.774615 322.876613 
L 609.329487 322.876613 
L 609.329487 329.309787 
L 578.774615 329.309787 
L 578.774615 336.866998 
L 612.35 336.866998 
L 612.35 343.293102 
L 559.65 343.293102 
L 559.65 310.307182 
z
" clip-path="url(#p4413d6b731)" style="fill: #6b296b"/>
   </g>
   <g id="patch_56">
    <path d="M 559.65 236.145683 
L 612.35 236.145683 
L 612.35 250.073428 
L 593.390256 250.073428 
L 593.390256 307.559813 
L 578.646512 307.559813 
L 578.646512 250.073428 
L 559.65 250.073428 
L 559.65 236.145683 
z
" clip-path="url(#p4413d6b731)" style="fill: #40ba47"/>
   </g>
   <g id="patch_57">
    <path d="M 559.65 156.812155 
L 587.043021 156.812155 
Q 599.271068 156.812155 605.803672 163.217086 
Q 612.35 169.605843 612.35 181.429087 
Q 612.35 193.317028 605.803672 199.705785 
Q 599.271068 206.094542 587.043021 206.094542 
L 576.159922 206.094542 
L 576.159922 232.280358 
L 559.65 232.280358 
L 559.65 156.812155 
z
M 576.159922 170.915943 
L 576.159922 191.990754 
L 585.286354 191.990754 
Q 590.08974 191.990754 592.711016 189.241162 
Q 595.332292 186.491571 595.332292 181.429087 
Q 595.332292 176.382778 592.711016 173.64936 
Q 590.08974 170.915943 585.286354 170.915943 
L 576.159922 170.915943 
z
" clip-path="url(#p4413d6b731)" style="fill: #787800"/>
   </g>
   <g id="patch_58">
    <path d="M 596.155336 134.428668 
L 575.887763 134.428668 
L 572.68762 152.251496 
L 559.65 152.251496 
L 578.269015 54.414654 
L 593.730985 54.414654 
L 612.35 152.251496 
L 599.323155 152.251496 
L 596.155336 134.428668 
z
M 579.120231 116.270351 
L 592.890544 116.270351 
L 586.016162 77.353682 
L 579.120231 116.270351 
z
" clip-path="url(#p4413d6b731)" style="fill: #21599c"/>
   </g>
   <g id="matplotlib.axis_1">
    <g id="xtick_1">
     <g id="line2d_2">
      <defs>
       <path id="md2f3a4e1f2" d="M 0 0 
L 0 4.8 
" style="stroke: #262626"/>
      </defs>
      <g>
       <use xlink:href="#md2f3a4e1f2" x="152" y="384.48" style="fill: #262626; stroke: #262626"/>
      </g>
     </g>
     <g id="text_1">
      <!-- P4 -->
      <g style="fill: #262626" transform="translate(146.61825 399.078875) scale(0.088 -0.088)">
       <defs>
        <path id="ArialMT-50" d="M 494 0 
L 494 4581 
L 2222 4581 
Q 2678 4581 2919 4538 
Q 3256 4481 3484 4323 
Q 3713 4166 3852 3881 
Q 3991 3597 3991 3256 
Q 3991 2672 3619 2267 
Q 3247 1863 2275 1863 
L 1100 1863 
L 1100 0 
L 494 0 
z
M 1100 2403 
L 2284 2403 
Q 2872 2403 3119 2622 
Q 3366 2841 3366 3238 
Q 3366 3525 3220 3729 
Q 3075 3934 2838 4000 
Q 2684 4041 2272 4041 
L 1100 4041 
L 1100 2403 
z
" transform="scale(0.015625)"/>
        <path id="ArialMT-34" d="M 2069 0 
L 2069 1097 
L 81 1097 
L 81 1613 
L 2172 4581 
L 2631 4581 
L 2631 1613 
L 3250 1613 
L 3250 1097 
L 2631 1097 
L 2631 0 
L 2069 0 
z
M 2069 1613 
L 2069 3678 
L 634 1613 
L 2069 1613 
z
" transform="scale(0.015625)"/>
       </defs>
       <use xlink:href="#ArialMT-50"/>
       <use xlink:href="#ArialMT-34" x="66.699219"/>
      </g>
     </g>
    </g>
    <g id="xtick_2">
     <g id="line2d_3">
      <g>
       <use xlink:href="#md2f3a4e1f2" x="214" y="384.48" style="fill: #262626; stroke: #262626"/>
      </g>
     </g>
     <g id="text_2">
      <!-- P3 -->
      <g style="fill: #262626" transform="translate(208.61825 399.078875) scale(0.088 -0.088)">
       <defs>
        <path id="ArialMT-33" d="M 269 1209 
L 831 1284 
Q 928 806 1161 595 
Q 1394 384 1728 384 
Q 2125 384 2398 659 
Q 2672 934 2672 1341 
Q 2672 1728 2419 1979 
Q 2166 2231 1775 2231 
Q 1616 2231 1378 2169 
L 1441 2663 
Q 1497 2656 1531 2656 
Q 1891 2656 2178 2843 
Q 2466 3031 2466 3422 
Q 2466 3731 2256 3934 
Q 2047 4138 1716 4138 
Q 1388 4138 1169 3931 
Q 950 3725 888 3313 
L 325 3413 
Q 428 3978 793 4289 
Q 1159 4600 1703 4600 
Q 2078 4600 2393 4439 
Q 2709 4278 2876 4000 
Q 3044 3722 3044 3409 
Q 3044 3113 2884 2869 
Q 2725 2625 2413 2481 
Q 2819 2388 3044 2092 
Q 3269 1797 3269 1353 
Q 3269 753 2831 336 
Q 2394 -81 1725 -81 
Q 1122 -81 723 278 
Q 325 638 269 1209 
z
" transform="scale(0.015625)"/>
       </defs>
       <use xlink:href="#ArialMT-50"/>
       <use xlink:href="#ArialMT-33" x="66.699219"/>
      </g>
     </g>
    </g>
    <g id="xtick_3">
     <g id="line2d_4">
      <g>
       <use xlink:href="#md2f3a4e1f2" x="276" y="384.48" style="fill: #262626; stroke: #262626"/>
      </g>
     </g>
     <g id="text_3">
      <!-- P2 -->
      <g style="fill: #262626" transform="translate(270.61825 399.078875) scale(0.088 -0.088)">
       <defs>
        <path id="ArialMT-32" d="M 3222 541 
L 3222 0 
L 194 0 
Q 188 203 259 391 
Q 375 700 629 1000 
Q 884 1300 1366 1694 
Q 2113 2306 2375 2664 
Q 2638 3022 2638 3341 
Q 2638 3675 2398 3904 
Q 2159 4134 1775 4134 
Q 1369 4134 1125 3890 
Q 881 3647 878 3216 
L 300 3275 
Q 359 3922 746 4261 
Q 1134 4600 1788 4600 
Q 2447 4600 2831 4234 
Q 3216 3869 3216 3328 
Q 3216 3053 3103 2787 
Q 2991 2522 2730 2228 
Q 2469 1934 1863 1422 
Q 1356 997 1212 845 
Q 1069 694 975 541 
L 3222 541 
z
" transform="scale(0.015625)"/>
       </defs>
       <use xlink:href="#ArialMT-50"/>
       <use xlink:href="#ArialMT-32" x="66.699219"/>
      </g>
     </g>
    </g>
    <g id="xtick_4">
     <g id="line2d_5">
      <g>
       <use xlink:href="#md2f3a4e1f2" x="338" y="384.48" style="fill: #262626; stroke: #262626"/>
      </g>
     </g>
     <g id="text_4">
      <!-- P1 -->
      <g style="fill: #262626" transform="translate(332.61825 399.078875) scale(0.088 -0.088)">
       <defs>
        <path id="ArialMT-31" d="M 2384 0 
L 1822 0 
L 1822 3584 
Q 1619 3391 1289 3197 
Q 959 3003 697 2906 
L 697 3450 
Q 1169 3672 1522 3987 
Q 1875 4303 2022 4600 
L 2384 4600 
L 2384 0 
z
" transform="scale(0.015625)"/>
       </defs>
       <use xlink:href="#ArialMT-50"/>
       <use xlink:href="#ArialMT-31" x="66.699219"/>
      </g>
     </g>
    </g>
    <g id="xtick_5">
     <g id="line2d_6">
      <g>
       <use xlink:href="#md2f3a4e1f2" x="400" y="384.48" style="fill: #262626; stroke: #262626"/>
      </g>
     </g>
     <g id="text_5">
      <!-- P1' -->
      <g style="fill: #262626" transform="translate(393.778125 399.078875) scale(0.088 -0.088)">
       <defs>
        <path id="ArialMT-27" d="M 425 2959 
L 281 3816 
L 281 4581 
L 922 4581 
L 922 3816 
L 772 2959 
L 425 2959 
z
" transform="scale(0.015625)"/>
       </defs>
       <use xlink:href="#ArialMT-50"/>
       <use xlink:href="#ArialMT-31" x="66.699219"/>
       <use xlink:href="#ArialMT-27" x="122.314453"/>
      </g>
     </g>
    </g>
    <g id="xtick_6">
     <g id="line2d_7">
      <g>
       <use xlink:href="#md2f3a4e1f2" x="462" y="384.48" style="fill: #262626; stroke: #262626"/>
      </g>
     </g>
     <g id="text_6">
      <!-- P2' -->
      <g style="fill: #262626" transform="translate(455.778125 399.078875) scale(0.088 -0.088)">
       <use xlink:href="#ArialMT-50"/>
       <use xlink:href="#ArialMT-32" x="66.699219"/>
       <use xlink:href="#ArialMT-27" x="122.314453"/>
      </g>
     </g>
    </g>
    <g id="xtick_7">
     <g id="line2d_8">
      <g>
       <use xlink:href="#md2f3a4e1f2" x="524" y="384.48" style="fill: #262626; stroke: #262626"/>
      </g>
     </g>
     <g id="text_7">
      <!-- P3' -->
      <g style="fill: #262626" transform="translate(517.778125 399.078875) scale(0.088 -0.088)">
       <use xlink:href="#ArialMT-50"/>
       <use xlink:href="#ArialMT-33" x="66.699219"/>
       <use xlink:href="#ArialMT-27" x="122.314453"/>
      </g>
     </g>
    </g>
    <g id="xtick_8">
     <g id="line2d_9">
      <g>
       <use xlink:href="#md2f3a4e1f2" x="586" y="384.48" style="fill: #262626; stroke: #262626"/>
      </g>
     </g>
     <g id="text_8">
      <!-- P4' -->
      <g style="fill: #262626" transform="translate(579.778125 399.078875) scale(0.088 -0.088)">
       <use xlink:href="#ArialMT-50"/>
       <use xlink:href="#ArialMT-34" x="66.699219"/>
       <use xlink:href="#ArialMT-27" x="122.314453"/>
      </g>
     </g>
    </g>
   </g>
   <g id="matplotlib.axis_2">
    <g id="ytick_1">
     <g id="line2d_10">
      <defs>
       <path id="m0163b9d167" d="M 0 0 
L -4.8 0 
" style="stroke: #262626"/>
      </defs>
      <g>
       <use xlink:href="#m0163b9d167" x="90" y="384.48" style="fill: #262626; stroke: #262626"/>
      </g>
     </g>
     <g id="text_9">
      <!-- 0.0 -->
      <g style="fill: #262626" transform="translate(69.468 387.629437) scale(0.088 -0.088)">
       <defs>
        <path id="ArialMT-30" d="M 266 2259 
Q 266 3072 433 3567 
Q 600 4063 929 4331 
Q 1259 4600 1759 4600 
Q 2128 4600 2406 4451 
Q 2684 4303 2865 4023 
Q 3047 3744 3150 3342 
Q 3253 2941 3253 2259 
Q 3253 1453 3087 958 
Q 2922 463 2592 192 
Q 2263 -78 1759 -78 
Q 1097 -78 719 397 
Q 266 969 266 2259 
z
M 844 2259 
Q 844 1131 1108 757 
Q 1372 384 1759 384 
Q 2147 384 2411 759 
Q 2675 1134 2675 2259 
Q 2675 3391 2411 3762 
Q 2147 4134 1753 4134 
Q 1366 4134 1134 3806 
Q 844 3388 844 2259 
z
" transform="scale(0.015625)"/>
        <path id="ArialMT-2e" d="M 581 0 
L 581 641 
L 1222 641 
L 1222 0 
L 581 0 
z
" transform="scale(0.015625)"/>
       </defs>
       <use xlink:href="#ArialMT-30"/>
       <use xlink:href="#ArialMT-2e" x="55.615234"/>
       <use xlink:href="#ArialMT-30" x="83.398438"/>
      </g>
     </g>
    </g>
    <g id="ytick_2">
     <g id="line2d_11">
      <g>
       <use xlink:href="#m0163b9d167" x="90" y="329.798477" style="fill: #262626; stroke: #262626"/>
      </g>
     </g>
     <g id="text_10">
      <!-- 0.1 -->
      <g style="fill: #262626" transform="translate(69.468 332.947914) scale(0.088 -0.088)">
       <use xlink:href="#ArialMT-30"/>
       <use xlink:href="#ArialMT-2e" x="55.615234"/>
       <use xlink:href="#ArialMT-31" x="83.398438"/>
      </g>
     </g>
    </g>
    <g id="ytick_3">
     <g id="line2d_12">
      <g>
       <use xlink:href="#m0163b9d167" x="90" y="275.116953" style="fill: #262626; stroke: #262626"/>
      </g>
     </g>
     <g id="text_11">
      <!-- 0.2 -->
      <g style="fill: #262626" transform="translate(69.468 278.266391) scale(0.088 -0.088)">
       <use xlink:href="#ArialMT-30"/>
       <use xlink:href="#ArialMT-2e" x="55.615234"/>
       <use xlink:href="#ArialMT-32" x="83.398438"/>
      </g>
     </g>
    </g>
    <g id="ytick_4">
     <g id="line2d_13">
      <g>
       <use xlink:href="#m0163b9d167" x="90" y="220.43543" style="fill: #262626; stroke: #262626"/>
      </g>
     </g>
     <g id="text_12">
      <!-- 0.3 -->
      <g style="fill: #262626" transform="translate(69.468 223.584868) scale(0.088 -0.088)">
       <use xlink:href="#ArialMT-30"/>
       <use xlink:href="#ArialMT-2e" x="55.615234"/>
       <use xlink:href="#ArialMT-33" x="83.398438"/>
      </g>
     </g>
    </g>
    <g id="ytick_5">
     <g id="line2d_14">
      <g>
       <use xlink:href="#m0163b9d167" x="90" y="165.753907" style="fill: #262626; stroke: #262626"/>
      </g>
     </g>
     <g id="text_13">
      <!-- 0.4 -->
      <g style="fill: #262626" transform="translate(69.468 168.903344) scale(0.088 -0.088)">
       <use xlink:href="#ArialMT-30"/>
       <use xlink:href="#ArialMT-2e" x="55.615234"/>
       <use xlink:href="#ArialMT-34" x="83.398438"/>
      </g>
     </g>
    </g>
    <g id="ytick_6">
     <g id="line2d_15">
      <g>
       <use xlink:href="#m0163b9d167" x="90" y="111.072383" style="fill: #262626; stroke: #262626"/>
      </g>
     </g>
     <g id="text_14">
      <!-- 0.5 -->
      <g style="fill: #262626" transform="translate(69.468 114.221821) scale(0.088 -0.088)">
       <defs>
        <path id="ArialMT-35" d="M 266 1200 
L 856 1250 
Q 922 819 1161 601 
Q 1400 384 1738 384 
Q 2144 384 2425 690 
Q 2706 997 2706 1503 
Q 2706 1984 2436 2262 
Q 2166 2541 1728 2541 
Q 1456 2541 1237 2417 
Q 1019 2294 894 2097 
L 366 2166 
L 809 4519 
L 3088 4519 
L 3088 3981 
L 1259 3981 
L 1013 2750 
Q 1425 3038 1878 3038 
Q 2478 3038 2890 2622 
Q 3303 2206 3303 1553 
Q 3303 931 2941 478 
Q 2500 -78 1738 -78 
Q 1113 -78 717 272 
Q 322 622 266 1200 
z
" transform="scale(0.015625)"/>
       </defs>
       <use xlink:href="#ArialMT-30"/>
       <use xlink:href="#ArialMT-2e" x="55.615234"/>
       <use xlink:href="#ArialMT-35" x="83.398438"/>
      </g>
     </g>
    </g>
    <g id="ytick_7">
     <g id="line2d_16">
      <g>
       <use xlink:href="#m0163b9d167" x="90" y="56.39086" style="fill: #262626; stroke: #262626"/>
      </g>
     </g>
     <g id="text_15">
      <!-- 0.6 -->
      <g style="fill: #262626" transform="translate(69.468 59.540298) scale(0.088 -0.088)">
       <defs>
        <path id="ArialMT-36" d="M 3184 3459 
L 2625 3416 
Q 2550 3747 2413 3897 
Q 2184 4138 1850 4138 
Q 1581 4138 1378 3988 
Q 1113 3794 959 3422 
Q 806 3050 800 2363 
Q 1003 2672 1297 2822 
Q 1591 2972 1913 2972 
Q 2475 2972 2870 2558 
Q 3266 2144 3266 1488 
Q 3266 1056 3080 686 
Q 2894 316 2569 119 
Q 2244 -78 1831 -78 
Q 1128 -78 684 439 
Q 241 956 241 2144 
Q 241 3472 731 4075 
Q 1159 4600 1884 4600 
Q 2425 4600 2770 4297 
Q 3116 3994 3184 3459 
z
M 888 1484 
Q 888 1194 1011 928 
Q 1134 663 1356 523 
Q 1578 384 1822 384 
Q 2178 384 2434 671 
Q 2691 959 2691 1453 
Q 2691 1928 2437 2201 
Q 2184 2475 1800 2475 
Q 1419 2475 1153 2201 
Q 888 1928 888 1484 
z
" transform="scale(0.015625)"/>
       </defs>
       <use xlink:href="#ArialMT-30"/>
       <use xlink:href="#ArialMT-2e" x="55.615234"/>
       <use xlink:href="#ArialMT-36" x="83.398438"/>
      </g>
     </g>
    </g>
    <g id="text_16">
     <!-- information (bits) -->
     <g style="fill: #262626" transform="translate(63.4475 253.902) rotate(-90) scale(0.096 -0.096)">
      <defs>
       <path id="ArialMT-69" d="M 425 3934 
L 425 4581 
L 988 4581 
L 988 3934 
L 425 3934 
z
M 425 0 
L 425 3319 
L 988 3319 
L 988 0 
L 425 0 
z
" transform="scale(0.015625)"/>
       <path id="ArialMT-6e" d="M 422 0 
L 422 3319 
L 928 3319 
L 928 2847 
Q 1294 3394 1984 3394 
Q 2284 3394 2536 3286 
Q 2788 3178 2913 3003 
Q 3038 2828 3088 2588 
Q 3119 2431 3119 2041 
L 3119 0 
L 2556 0 
L 2556 2019 
Q 2556 2363 2490 2533 
Q 2425 2703 2258 2804 
Q 2091 2906 1866 2906 
Q 1506 2906 1245 2678 
Q 984 2450 984 1813 
L 984 0 
L 422 0 
z
" transform="scale(0.015625)"/>
       <path id="ArialMT-66" d="M 556 0 
L 556 2881 
L 59 2881 
L 59 3319 
L 556 3319 
L 556 3672 
Q 556 4006 616 4169 
Q 697 4388 901 4523 
Q 1106 4659 1475 4659 
Q 1713 4659 2000 4603 
L 1916 4113 
Q 1741 4144 1584 4144 
Q 1328 4144 1222 4034 
Q 1116 3925 1116 3625 
L 1116 3319 
L 1763 3319 
L 1763 2881 
L 1116 2881 
L 1116 0 
L 556 0 
z
" transform="scale(0.015625)"/>
       <path id="ArialMT-6f" d="M 213 1659 
Q 213 2581 725 3025 
Q 1153 3394 1769 3394 
Q 2453 3394 2887 2945 
Q 3322 2497 3322 1706 
Q 3322 1066 3130 698 
Q 2938 331 2570 128 
Q 2203 -75 1769 -75 
Q 1072 -75 642 372 
Q 213 819 213 1659 
z
M 791 1659 
Q 791 1022 1069 705 
Q 1347 388 1769 388 
Q 2188 388 2466 706 
Q 2744 1025 2744 1678 
Q 2744 2294 2464 2611 
Q 2184 2928 1769 2928 
Q 1347 2928 1069 2612 
Q 791 2297 791 1659 
z
" transform="scale(0.015625)"/>
       <path id="ArialMT-72" d="M 416 0 
L 416 3319 
L 922 3319 
L 922 2816 
Q 1116 3169 1280 3281 
Q 1444 3394 1641 3394 
Q 1925 3394 2219 3213 
L 2025 2691 
Q 1819 2813 1613 2813 
Q 1428 2813 1281 2702 
Q 1134 2591 1072 2394 
Q 978 2094 978 1738 
L 978 0 
L 416 0 
z
" transform="scale(0.015625)"/>
       <path id="ArialMT-6d" d="M 422 0 
L 422 3319 
L 925 3319 
L 925 2853 
Q 1081 3097 1340 3245 
Q 1600 3394 1931 3394 
Q 2300 3394 2536 3241 
Q 2772 3088 2869 2813 
Q 3263 3394 3894 3394 
Q 4388 3394 4653 3120 
Q 4919 2847 4919 2278 
L 4919 0 
L 4359 0 
L 4359 2091 
Q 4359 2428 4304 2576 
Q 4250 2725 4106 2815 
Q 3963 2906 3769 2906 
Q 3419 2906 3187 2673 
Q 2956 2441 2956 1928 
L 2956 0 
L 2394 0 
L 2394 2156 
Q 2394 2531 2256 2718 
Q 2119 2906 1806 2906 
Q 1569 2906 1367 2781 
Q 1166 2656 1075 2415 
Q 984 2175 984 1722 
L 984 0 
L 422 0 
z
" transform="scale(0.015625)"/>
       <path id="ArialMT-61" d="M 2588 409 
Q 2275 144 1986 34 
Q 1697 -75 1366 -75 
Q 819 -75 525 192 
Q 231 459 231 875 
Q 231 1119 342 1320 
Q 453 1522 633 1644 
Q 813 1766 1038 1828 
Q 1203 1872 1538 1913 
Q 2219 1994 2541 2106 
Q 2544 2222 2544 2253 
Q 2544 2597 2384 2738 
Q 2169 2928 1744 2928 
Q 1347 2928 1158 2789 
Q 969 2650 878 2297 
L 328 2372 
Q 403 2725 575 2942 
Q 747 3159 1072 3276 
Q 1397 3394 1825 3394 
Q 2250 3394 2515 3294 
Q 2781 3194 2906 3042 
Q 3031 2891 3081 2659 
Q 3109 2516 3109 2141 
L 3109 1391 
Q 3109 606 3145 398 
Q 3181 191 3288 0 
L 2700 0 
Q 2613 175 2588 409 
z
M 2541 1666 
Q 2234 1541 1622 1453 
Q 1275 1403 1131 1340 
Q 988 1278 909 1158 
Q 831 1038 831 891 
Q 831 666 1001 516 
Q 1172 366 1500 366 
Q 1825 366 2078 508 
Q 2331 650 2450 897 
Q 2541 1088 2541 1459 
L 2541 1666 
z
" transform="scale(0.015625)"/>
       <path id="ArialMT-74" d="M 1650 503 
L 1731 6 
Q 1494 -44 1306 -44 
Q 1000 -44 831 53 
Q 663 150 594 308 
Q 525 466 525 972 
L 525 2881 
L 113 2881 
L 113 3319 
L 525 3319 
L 525 4141 
L 1084 4478 
L 1084 3319 
L 1650 3319 
L 1650 2881 
L 1084 2881 
L 1084 941 
Q 1084 700 1114 631 
Q 1144 563 1211 522 
Q 1278 481 1403 481 
Q 1497 481 1650 503 
z
" transform="scale(0.015625)"/>
       <path id="ArialMT-20" transform="scale(0.015625)"/>
       <path id="ArialMT-28" d="M 1497 -1347 
Q 1031 -759 709 28 
Q 388 816 388 1659 
Q 388 2403 628 3084 
Q 909 3875 1497 4659 
L 1900 4659 
Q 1522 4009 1400 3731 
Q 1209 3300 1100 2831 
Q 966 2247 966 1656 
Q 966 153 1900 -1347 
L 1497 -1347 
z
" transform="scale(0.015625)"/>
       <path id="ArialMT-62" d="M 941 0 
L 419 0 
L 419 4581 
L 981 4581 
L 981 2947 
Q 1338 3394 1891 3394 
Q 2197 3394 2470 3270 
Q 2744 3147 2920 2923 
Q 3097 2700 3197 2384 
Q 3297 2069 3297 1709 
Q 3297 856 2875 390 
Q 2453 -75 1863 -75 
Q 1275 -75 941 416 
L 941 0 
z
M 934 1684 
Q 934 1088 1097 822 
Q 1363 388 1816 388 
Q 2184 388 2453 708 
Q 2722 1028 2722 1663 
Q 2722 2313 2464 2622 
Q 2206 2931 1841 2931 
Q 1472 2931 1203 2611 
Q 934 2291 934 1684 
z
" transform="scale(0.015625)"/>
       <path id="ArialMT-73" d="M 197 991 
L 753 1078 
Q 800 744 1014 566 
Q 1228 388 1613 388 
Q 2000 388 2187 545 
Q 2375 703 2375 916 
Q 2375 1106 2209 1216 
Q 2094 1291 1634 1406 
Q 1016 1563 777 1677 
Q 538 1791 414 1992 
Q 291 2194 291 2438 
Q 291 2659 392 2848 
Q 494 3038 669 3163 
Q 800 3259 1026 3326 
Q 1253 3394 1513 3394 
Q 1903 3394 2198 3281 
Q 2494 3169 2634 2976 
Q 2775 2784 2828 2463 
L 2278 2388 
Q 2241 2644 2061 2787 
Q 1881 2931 1553 2931 
Q 1166 2931 1000 2803 
Q 834 2675 834 2503 
Q 834 2394 903 2306 
Q 972 2216 1119 2156 
Q 1203 2125 1616 2013 
Q 2213 1853 2448 1751 
Q 2684 1650 2818 1456 
Q 2953 1263 2953 975 
Q 2953 694 2789 445 
Q 2625 197 2315 61 
Q 2006 -75 1616 -75 
Q 969 -75 630 194 
Q 291 463 197 991 
z
" transform="scale(0.015625)"/>
       <path id="ArialMT-29" d="M 791 -1347 
L 388 -1347 
Q 1322 153 1322 1656 
Q 1322 2244 1188 2822 
Q 1081 3291 891 3722 
Q 769 4003 388 4659 
L 791 4659 
Q 1378 3875 1659 3084 
Q 1900 2403 1900 1659 
Q 1900 816 1576 28 
Q 1253 -759 791 -1347 
z
" transform="scale(0.015625)"/>
      </defs>
      <use xlink:href="#ArialMT-69"/>
      <use xlink:href="#ArialMT-6e" x="22.216797"/>
      <use xlink:href="#ArialMT-66" x="77.832031"/>
      <use xlink:href="#ArialMT-6f" x="105.615234"/>
      <use xlink:href="#ArialMT-72" x="161.230469"/>
      <use xlink:href="#ArialMT-6d" x="194.53125"/>
      <use xlink:href="#ArialMT-61" x="277.832031"/>
      <use xlink:href="#ArialMT-74" x="333.447266"/>
      <use xlink:href="#ArialMT-69" x="361.230469"/>
      <use xlink:href="#ArialMT-6f" x="383.447266"/>
      <use xlink:href="#ArialMT-6e" x="439.0625"/>
      <use xlink:href="#ArialMT-20" x="494.677734"/>
      <use xlink:href="#ArialMT-28" x="522.460938"/>
      <use xlink:href="#ArialMT-62" x="555.761719"/>
      <use xlink:href="#ArialMT-69" x="611.376953"/>
      <use xlink:href="#ArialMT-74" x="633.59375"/>
      <use xlink:href="#ArialMT-73" x="661.376953"/>
      <use xlink:href="#ArialMT-29" x="711.376953"/>
     </g>
    </g>
   </g>
   <g id="line2d_17">
    <path d="M 369 384.48 
L 369 51.84 
" clip-path="url(#p4413d6b731)" style="fill: none; stroke: #daa520; stroke-width: 2; stroke-linecap: round"/>
   </g>
   <g id="patch_59">
    <path d="M 90 384.48 
L 648 384.48 
" style="fill: none; stroke: #262626; stroke-linejoin: miter; stroke-linecap: square"/>
   </g>
   <g id="patch_60">
    <path d="M 90 51.84 
L 648 51.84 
" style="fill: none; stroke: #262626; stroke-linejoin: miter; stroke-linecap: square"/>
   </g>
   <g id="text_17">
    <!-- BALL_380 vs. BALL_697 information content, Kullback n=14 -->
    <g style="fill: #262626" transform="translate(240.2535 45.84) scale(0.096 -0.096)">
     <defs>
      <path id="ArialMT-42" d="M 469 0 
L 469 4581 
L 2188 4581 
Q 2713 4581 3030 4442 
Q 3347 4303 3526 4014 
Q 3706 3725 3706 3409 
Q 3706 3116 3547 2856 
Q 3388 2597 3066 2438 
Q 3481 2316 3704 2022 
Q 3928 1728 3928 1328 
Q 3928 1006 3792 729 
Q 3656 453 3456 303 
Q 3256 153 2954 76 
Q 2653 0 2216 0 
L 469 0 
z
M 1075 2656 
L 2066 2656 
Q 2469 2656 2644 2709 
Q 2875 2778 2992 2937 
Q 3109 3097 3109 3338 
Q 3109 3566 3000 3739 
Q 2891 3913 2687 3977 
Q 2484 4041 1991 4041 
L 1075 4041 
L 1075 2656 
z
M 1075 541 
L 2216 541 
Q 2509 541 2628 563 
Q 2838 600 2978 687 
Q 3119 775 3209 942 
Q 3300 1109 3300 1328 
Q 3300 1584 3169 1773 
Q 3038 1963 2805 2039 
Q 2572 2116 2134 2116 
L 1075 2116 
L 1075 541 
z
" transform="scale(0.015625)"/>
      <path id="ArialMT-41" d="M -9 0 
L 1750 4581 
L 2403 4581 
L 4278 0 
L 3588 0 
L 3053 1388 
L 1138 1388 
L 634 0 
L -9 0 
z
M 1313 1881 
L 2866 1881 
L 2388 3150 
Q 2169 3728 2063 4100 
Q 1975 3659 1816 3225 
L 1313 1881 
z
" transform="scale(0.015625)"/>
      <path id="ArialMT-4c" d="M 469 0 
L 469 4581 
L 1075 4581 
L 1075 541 
L 3331 541 
L 3331 0 
L 469 0 
z
" transform="scale(0.015625)"/>
      <path id="ArialMT-5f" d="M -97 -1272 
L -97 -866 
L 3631 -866 
L 3631 -1272 
L -97 -1272 
z
" transform="scale(0.015625)"/>
      <path id="ArialMT-38" d="M 1131 2484 
Q 781 2613 612 2850 
Q 444 3088 444 3419 
Q 444 3919 803 4259 
Q 1163 4600 1759 4600 
Q 2359 4600 2725 4251 
Q 3091 3903 3091 3403 
Q 3091 3084 2923 2848 
Q 2756 2613 2416 2484 
Q 2838 2347 3058 2040 
Q 3278 1734 3278 1309 
Q 3278 722 2862 322 
Q 2447 -78 1769 -78 
Q 1091 -78 675 323 
Q 259 725 259 1325 
Q 259 1772 486 2073 
Q 713 2375 1131 2484 
z
M 1019 3438 
Q 1019 3113 1228 2906 
Q 1438 2700 1772 2700 
Q 2097 2700 2305 2904 
Q 2513 3109 2513 3406 
Q 2513 3716 2298 3927 
Q 2084 4138 1766 4138 
Q 1444 4138 1231 3931 
Q 1019 3725 1019 3438 
z
M 838 1322 
Q 838 1081 952 856 
Q 1066 631 1291 507 
Q 1516 384 1775 384 
Q 2178 384 2440 643 
Q 2703 903 2703 1303 
Q 2703 1709 2433 1975 
Q 2163 2241 1756 2241 
Q 1359 2241 1098 1978 
Q 838 1716 838 1322 
z
" transform="scale(0.015625)"/>
      <path id="ArialMT-76" d="M 1344 0 
L 81 3319 
L 675 3319 
L 1388 1331 
Q 1503 1009 1600 663 
Q 1675 925 1809 1294 
L 2547 3319 
L 3125 3319 
L 1869 0 
L 1344 0 
z
" transform="scale(0.015625)"/>
      <path id="ArialMT-39" d="M 350 1059 
L 891 1109 
Q 959 728 1153 556 
Q 1347 384 1650 384 
Q 1909 384 2104 503 
Q 2300 622 2425 820 
Q 2550 1019 2634 1356 
Q 2719 1694 2719 2044 
Q 2719 2081 2716 2156 
Q 2547 1888 2255 1720 
Q 1963 1553 1622 1553 
Q 1053 1553 659 1965 
Q 266 2378 266 3053 
Q 266 3750 677 4175 
Q 1088 4600 1706 4600 
Q 2153 4600 2523 4359 
Q 2894 4119 3086 3673 
Q 3278 3228 3278 2384 
Q 3278 1506 3087 986 
Q 2897 466 2520 194 
Q 2144 -78 1638 -78 
Q 1100 -78 759 220 
Q 419 519 350 1059 
z
M 2653 3081 
Q 2653 3566 2395 3850 
Q 2138 4134 1775 4134 
Q 1400 4134 1122 3828 
Q 844 3522 844 3034 
Q 844 2597 1108 2323 
Q 1372 2050 1759 2050 
Q 2150 2050 2401 2323 
Q 2653 2597 2653 3081 
z
" transform="scale(0.015625)"/>
      <path id="ArialMT-37" d="M 303 3981 
L 303 4522 
L 3269 4522 
L 3269 4084 
Q 2831 3619 2401 2847 
Q 1972 2075 1738 1259 
Q 1569 684 1522 0 
L 944 0 
Q 953 541 1156 1306 
Q 1359 2072 1739 2783 
Q 2119 3494 2547 3981 
L 303 3981 
z
" transform="scale(0.015625)"/>
      <path id="ArialMT-63" d="M 2588 1216 
L 3141 1144 
Q 3050 572 2676 248 
Q 2303 -75 1759 -75 
Q 1078 -75 664 370 
Q 250 816 250 1647 
Q 250 2184 428 2587 
Q 606 2991 970 3192 
Q 1334 3394 1763 3394 
Q 2303 3394 2647 3120 
Q 2991 2847 3088 2344 
L 2541 2259 
Q 2463 2594 2264 2762 
Q 2066 2931 1784 2931 
Q 1359 2931 1093 2626 
Q 828 2322 828 1663 
Q 828 994 1084 691 
Q 1341 388 1753 388 
Q 2084 388 2306 591 
Q 2528 794 2588 1216 
z
" transform="scale(0.015625)"/>
      <path id="ArialMT-65" d="M 2694 1069 
L 3275 997 
Q 3138 488 2766 206 
Q 2394 -75 1816 -75 
Q 1088 -75 661 373 
Q 234 822 234 1631 
Q 234 2469 665 2931 
Q 1097 3394 1784 3394 
Q 2450 3394 2872 2941 
Q 3294 2488 3294 1666 
Q 3294 1616 3291 1516 
L 816 1516 
Q 847 969 1125 678 
Q 1403 388 1819 388 
Q 2128 388 2347 550 
Q 2566 713 2694 1069 
z
M 847 1978 
L 2700 1978 
Q 2663 2397 2488 2606 
Q 2219 2931 1791 2931 
Q 1403 2931 1139 2672 
Q 875 2413 847 1978 
z
" transform="scale(0.015625)"/>
      <path id="ArialMT-2c" d="M 569 0 
L 569 641 
L 1209 641 
L 1209 0 
Q 1209 -353 1084 -570 
Q 959 -788 688 -906 
L 531 -666 
Q 709 -588 793 -436 
Q 878 -284 888 0 
L 569 0 
z
" transform="scale(0.015625)"/>
      <path id="ArialMT-4b" d="M 469 0 
L 469 4581 
L 1075 4581 
L 1075 2309 
L 3350 4581 
L 4172 4581 
L 2250 2725 
L 4256 0 
L 3456 0 
L 1825 2319 
L 1075 1588 
L 1075 0 
L 469 0 
z
" transform="scale(0.015625)"/>
      <path id="ArialMT-75" d="M 2597 0 
L 2597 488 
Q 2209 -75 1544 -75 
Q 1250 -75 995 37 
Q 741 150 617 320 
Q 494 491 444 738 
Q 409 903 409 1263 
L 409 3319 
L 972 3319 
L 972 1478 
Q 972 1038 1006 884 
Q 1059 663 1231 536 
Q 1403 409 1656 409 
Q 1909 409 2131 539 
Q 2353 669 2445 892 
Q 2538 1116 2538 1541 
L 2538 3319 
L 3100 3319 
L 3100 0 
L 2597 0 
z
" transform="scale(0.015625)"/>
      <path id="ArialMT-6c" d="M 409 0 
L 409 4581 
L 972 4581 
L 972 0 
L 409 0 
z
" transform="scale(0.015625)"/>
      <path id="ArialMT-6b" d="M 425 0 
L 425 4581 
L 988 4581 
L 988 1969 
L 2319 3319 
L 3047 3319 
L 1778 2088 
L 3175 0 
L 2481 0 
L 1384 1697 
L 988 1316 
L 988 0 
L 425 0 
z
" transform="scale(0.015625)"/>
      <path id="ArialMT-3d" d="M 3381 2694 
L 356 2694 
L 356 3219 
L 3381 3219 
L 3381 2694 
z
M 3381 1303 
L 356 1303 
L 356 1828 
L 3381 1828 
L 3381 1303 
z
" transform="scale(0.015625)"/>
     </defs>
     <use xlink:href="#ArialMT-42"/>
     <use xlink:href="#ArialMT-41" x="66.699219"/>
     <use xlink:href="#ArialMT-4c" x="133.398438"/>
     <use xlink:href="#ArialMT-4c" x="189.013672"/>
     <use xlink:href="#ArialMT-5f" x="244.628906"/>
     <use xlink:href="#ArialMT-33" x="300.244141"/>
     <use xlink:href="#ArialMT-38" x="355.859375"/>
     <use xlink:href="#ArialMT-30" x="411.474609"/>
     <use xlink:href="#ArialMT-20" x="467.089844"/>
     <use xlink:href="#ArialMT-76" x="494.873047"/>
     <use xlink:href="#ArialMT-73" x="544.873047"/>
     <use xlink:href="#ArialMT-2e" x="594.873047"/>
     <use xlink:href="#ArialMT-20" x="622.65625"/>
     <use xlink:href="#ArialMT-42" x="650.439453"/>
     <use xlink:href="#ArialMT-41" x="717.138672"/>
     <use xlink:href="#ArialMT-4c" x="783.837891"/>
     <use xlink:href="#ArialMT-4c" x="839.453125"/>
     <use xlink:href="#ArialMT-5f" x="895.068359"/>
     <use xlink:href="#ArialMT-36" x="950.683594"/>
     <use xlink:href="#ArialMT-39" x="1006.298828"/>
     <use xlink:href="#ArialMT-37" x="1061.914062"/>
     <use xlink:href="#ArialMT-20" x="1117.529297"/>
     <use xlink:href="#ArialMT-69" x="1145.3125"/>
     <use xlink:href="#ArialMT-6e" x="1167.529297"/>
     <use xlink:href="#ArialMT-66" x="1223.144531"/>
     <use xlink:href="#ArialMT-6f" x="1250.927734"/>
     <use xlink:href="#ArialMT-72" x="1306.542969"/>
     <use xlink:href="#ArialMT-6d" x="1339.84375"/>
     <use xlink:href="#ArialMT-61" x="1423.144531"/>
     <use xlink:href="#ArialMT-74" x="1478.759766"/>
     <use xlink:href="#ArialMT-69" x="1506.542969"/>
     <use xlink:href="#ArialMT-6f" x="1528.759766"/>
     <use xlink:href="#ArialMT-6e" x="1584.375"/>
     <use xlink:href="#ArialMT-20" x="1639.990234"/>
     <use xlink:href="#ArialMT-63" x="1667.773438"/>
     <use xlink:href="#ArialMT-6f" x="1717.773438"/>
     <use xlink:href="#ArialMT-6e" x="1773.388672"/>
     <use xlink:href="#ArialMT-74" x="1829.003906"/>
     <use xlink:href="#ArialMT-65" x="1856.787109"/>
     <use xlink:href="#ArialMT-6e" x="1912.402344"/>
     <use xlink:href="#ArialMT-74" x="1968.017578"/>
     <use xlink:href="#ArialMT-2c" x="1995.800781"/>
     <use xlink:href="#ArialMT-20" x="2023.583984"/>
     <use xlink:href="#ArialMT-4b" x="2051.367188"/>
     <use xlink:href="#ArialMT-75" x="2118.066406"/>
     <use xlink:href="#ArialMT-6c" x="2173.681641"/>
     <use xlink:href="#ArialMT-6c" x="2195.898438"/>
     <use xlink:href="#ArialMT-62" x="2218.115234"/>
     <use xlink:href="#ArialMT-61" x="2273.730469"/>
     <use xlink:href="#ArialMT-63" x="2329.345703"/>
     <use xlink:href="#ArialMT-6b" x="2379.345703"/>
     <use xlink:href="#ArialMT-20" x="2429.345703"/>
     <use xlink:href="#ArialMT-6e" x="2457.128906"/>
     <use xlink:href="#ArialMT-3d" x="2512.744141"/>
     <use xlink:href="#ArialMT-31" x="2571.142578"/>
     <use xlink:href="#ArialMT-34" x="2626.757812"/>
    </g>
   </g>
  </g>
 </g>
 <defs>
  <clipPath id="p4413d6b731">
   <rect x="90" y="51.84" width="558" height="332.64"/>
  </clipPath>
 </defs>
</svg>
