<?xml version="1.0" encoding="utf-8" standalone="no"?>
<!DOCTYPE svg PUBLIC "-//W3C//DTD SVG 1.1//EN"
  "http://www.w3.org/Graphics/SVG/1.1/DTD/svg11.dtd">
<svg xmlns:xlink="http://www.w3.org/1999/xlink" width="720pt" height="432pt" viewBox="0 0 720 432" xmlns="http://www.w3.org/2000/svg" version="1.1">
 <metadata>
  <rdf:RDF xmlns:dc="http://purl.org/dc/elements/1.1/" xmlns:cc="http://creativecommons.org/ns#" xmlns:rdf="http://www.w3.org/1999/02/22-rdf-syntax-ns#">
   <cc:Work>
    <dc:type rdf:resource="http://purl.org/dc/dcmitype/StillImage"/>
    <dc:date>2023-11-09T08:00:52.014019</dc:date>
    <dc:format>image/svg+xml</dc:format>
    <dc:creator>
     <cc:Agent>
      <dc:title>Matplotlib v3.7.1, https://matplotlib.org/</dc:title>
     </cc:Agent>
    </dc:creator>
   </cc:Work>
  </rdf:RDF>
 </metadata>
 <defs>
  <style type="text/css">*{stroke-linejoin: round; stroke-linecap: butt}</style>
 </defs>
 <g id="figure_1">
  <g id="patch_1">
   <path d="M 0 432 
L 720 432 
L 720 0 
L 0 0 
z
" style="fill: #ffffff"/>
  </g>
  <g id="axes_1">
   <g id="patch_2">
    <path d="M 90 384.48 
L 648 384.48 
L 648 51.84 
L 90 51.84 
z
" style="fill: #ffffff"/>
   </g>
   <g id="line2d_1">
    <path d="M 90 384.48 
L 648 384.48 
" clip-path="url(#pea3d28a9b7)" style="fill: none; stroke: #000000; stroke-width: 0.5; stroke-linecap: round"/>
   </g>
   <g id="patch_3">
    <path d="M 178.35 381.843749 
Q 173.035119 382.864875 167.318669 383.377769 
Q 161.602219 383.886 155.507822 383.886 
Q 141.736374 383.886 133.693187 380.845937 
Q 125.65 377.805874 125.65 372.606994 
Q 125.65 367.347499 133.834917 364.330749 
Q 142.031645 361.314 156.287338 361.314 
Q 161.779381 361.314 166.810802 361.724315 
Q 171.854034 362.129968 176.318534 362.931948 
L 176.318534 367.431427 
Q 171.712304 366.400976 167.153317 365.892745 
Q 162.59433 365.379851 158.011721 365.379851 
Q 149.531533 365.379851 144.937113 367.254245 
Q 140.342694 369.123977 140.342694 372.606994 
Q 140.342694 376.057372 144.771762 377.941092 
Q 149.200829 379.820149 157.350314 379.820149 
Q 159.570753 379.820149 161.472299 379.712908 
Q 163.373846 379.601004 164.885634 379.36787 
L 164.885634 375.143488 
L 156.204662 375.143488 
L 156.204662 371.380711 
L 178.35 371.380711 
L 178.35 381.843749 
z
" clip-path="url(#pea3d28a9b7)" style="fill: #787800"/>
   </g>
   <g id="patch_4">
    <path d="M 125.65 337.554 
L 139.537864 337.554 
L 139.537864 345.792345 
L 159.555783 337.554 
L 175.683253 337.554 
L 149.743078 348.244982 
L 178.35 360.126 
L 160.964195 360.126 
L 139.537864 351.234586 
L 139.537864 360.126 
L 125.65 360.126 
L 125.65 337.554 
z
" clip-path="url(#pea3d28a9b7)" style="fill: #bd2e1f"/>
   </g>
   <g id="patch_5">
    <path d="M 178.35 334.748052 
Q 173.941736 335.550032 169.174969 335.955685 
Q 164.408201 336.366 159.216541 336.366 
Q 143.734505 336.366 134.692252 333.325937 
Q 125.65 330.285874 125.65 325.086994 
Q 125.65 319.869463 134.692252 316.834063 
Q 143.734505 313.794 159.216541 313.794 
Q 164.408201 313.794 169.174969 314.204315 
Q 173.941736 314.609968 178.35 315.411948 
L 178.35 319.911427 
Q 173.901902 318.848338 169.586584 318.354094 
Q 165.271265 317.859851 160.504497 317.859851 
Q 151.953527 317.859851 147.053981 319.785535 
Q 142.167712 321.706556 142.167712 325.086994 
Q 142.167712 328.453444 147.053981 330.379128 
Q 151.953527 332.300149 160.504497 332.300149 
Q 165.271265 332.300149 169.586584 331.805906 
Q 173.901902 331.307 178.35 330.24391 
L 178.35 334.748052 
z
" clip-path="url(#pea3d28a9b7)" style="fill: #6b296b"/>
   </g>
   <g id="patch_6">
    <path d="M 125.65 290.034 
L 138.68762 290.034 
L 152.016162 306.694516 
L 165.323155 290.034 
L 178.35 290.034 
L 159.730985 312.606 
L 144.269015 312.606 
L 125.65 290.034 
z
" clip-path="url(#pea3d28a9b7)" style="fill: #21599c"/>
   </g>
   <g id="patch_7">
    <path d="M 125.65 243.108 
L 142.578032 243.108 
L 163.968106 274.068309 
L 163.968106 243.108 
L 178.35 243.108 
L 178.35 288.252 
L 161.409364 288.252 
L 140.01929 257.291691 
L 140.01929 288.252 
L 125.65 288.252 
L 125.65 243.108 
z
" clip-path="url(#pea3d28a9b7)" style="fill: #40ba47"/>
   </g>
   <g id="patch_8">
    <path d="M 147.032787 215.605775 
Q 151.762274 215.605775 153.814221 214.251261 
Q 155.866168 212.887072 155.866168 209.771691 
Q 155.866168 206.685336 153.814221 205.359847 
Q 151.762274 204.024684 147.032787 204.024684 
L 140.701781 204.024684 
L 140.701781 215.605775 
L 147.032787 215.605775 
z
M 140.701781 223.64578 
L 140.701781 240.732 
L 125.65 240.732 
L 125.65 195.588 
L 148.634307 195.588 
Q 160.170252 195.588 165.537844 198.58728 
Q 170.917949 201.576885 170.917949 208.049524 
Q 170.917949 212.519419 168.11529 215.392922 
Q 165.325142 218.266426 159.694801 219.630615 
Q 162.785233 220.17242 165.225047 222.097764 
Q 167.677374 224.013433 170.179748 227.912497 
L 178.35 240.732 
L 162.322293 240.732 
L 155.203039 229.518563 
Q 153.050997 226.132279 150.836396 224.893867 
Q 148.634307 223.64578 144.955817 223.64578 
L 140.701781 223.64578 
z
" clip-path="url(#pea3d28a9b7)" style="fill: #bd2e1f"/>
   </g>
   <g id="patch_9">
    <path d="M 173.955948 150.222155 
L 173.955948 159.435597 
Q 168.459804 157.831637 163.221293 157.020332 
Q 157.997094 156.199702 153.34541 156.199702 
Q 147.176562 156.199702 144.213797 157.309418 
Q 141.265345 158.409809 141.265345 160.741145 
Q 141.265345 162.49431 143.254834 163.473472 
Q 145.244324 164.443308 150.482835 165.142709 
L 157.811027 166.103219 
Q 168.946442 167.567298 173.641065 170.542084 
Q 178.35 173.507544 178.35 178.990847 
Q 178.35 186.180689 171.794704 189.696345 
Q 165.239408 193.212 151.770994 193.212 
Q 145.430391 193.212 139.032537 192.419346 
Q 132.634682 191.636017 126.236828 190.088009 
L 126.236828 180.622783 
Q 132.634682 182.83289 138.60315 183.961257 
Q 144.571619 185.080298 150.125014 185.080298 
Q 155.764286 185.080298 158.755676 183.858678 
Q 161.747067 182.627732 161.747067 180.352348 
Q 161.747067 178.319422 159.714639 177.209706 
Q 157.682211 176.09999 151.59924 175.223408 
L 144.929441 174.262897 
Q 134.910429 172.864095 130.273058 169.805382 
Q 125.65 166.746668 125.65 161.561776 
Q 125.65 155.06201 132.090793 151.565005 
Q 138.531586 148.068 150.611651 148.068 
Q 156.122108 148.068 161.933134 148.60887 
Q 167.744161 149.14974 173.955948 150.222155 
z
" clip-path="url(#pea3d28a9b7)" style="fill: #40ba47"/>
   </g>
   <g id="patch_10">
    <path d="M 125.65 100.548 
L 178.35 100.548 
L 178.35 109.352338 
L 159.390256 109.352338 
L 159.390256 145.692 
L 144.646512 145.692 
L 144.646512 109.352338 
L 125.65 109.352338 
L 125.65 100.548 
z
" clip-path="url(#pea3d28a9b7)" style="fill: #40ba47"/>
   </g>
   <g id="patch_11">
    <path d="M 162.155336 89.948168 
L 141.887763 89.948168 
L 138.68762 98.172 
L 125.65 98.172 
L 144.269015 53.028 
L 159.730985 53.028 
L 178.35 98.172 
L 165.323155 98.172 
L 162.155336 89.948168 
z
M 145.120231 81.569535 
L 158.890544 81.569535 
L 152.016162 63.612556 
L 145.120231 81.569535 
z
" clip-path="url(#pea3d28a9b7)" style="fill: #21599c"/>
   </g>
   <g id="patch_12">
    <path d="M 235.955948 362.391077 
L 235.955948 366.997798 
Q 230.459804 366.195819 225.221293 365.790166 
Q 219.997094 365.379851 215.34541 365.379851 
Q 209.176562 365.379851 206.213797 365.934709 
Q 203.265345 366.484904 203.265345 367.650573 
Q 203.265345 368.527155 205.254834 369.016736 
Q 207.244324 369.501654 212.482835 369.851354 
L 219.811027 370.33161 
Q 230.946442 371.063649 235.641065 372.551042 
Q 240.35 374.033772 240.35 376.775424 
Q 240.35 380.370345 233.794704 382.128172 
Q 227.239408 383.886 213.770994 383.886 
Q 207.430391 383.886 201.032537 383.489673 
Q 194.634682 383.098008 188.236828 382.324005 
L 188.236828 377.591391 
Q 194.634682 378.696445 200.60315 379.260628 
Q 206.571619 379.820149 212.125014 379.820149 
Q 217.764286 379.820149 220.755676 379.209339 
Q 223.747067 378.593866 223.747067 377.456174 
Q 223.747067 376.439711 221.714639 375.884853 
Q 219.682211 375.329995 213.59924 374.891704 
L 206.929441 374.411448 
Q 196.910429 373.712048 192.273058 372.182691 
Q 187.65 370.653334 187.65 368.060888 
Q 187.65 364.811005 194.090793 363.062502 
Q 200.531586 361.314 212.611651 361.314 
Q 218.122108 361.314 223.933134 361.584435 
Q 229.744161 361.85487 235.955948 362.391077 
z
" clip-path="url(#pea3d28a9b7)" style="fill: #40ba47"/>
   </g>
   <g id="patch_13">
    <path d="M 187.65 337.554 
L 206.774615 337.554 
L 206.774615 355.728669 
L 240.35 355.728669 
L 240.35 360.126 
L 187.65 360.126 
L 187.65 337.554 
z
" clip-path="url(#pea3d28a9b7)" style="fill: #21599c"/>
   </g>
   <g id="patch_14">
    <path d="M 187.65 313.794 
L 204.578032 313.794 
L 225.968106 329.274154 
L 225.968106 313.794 
L 240.35 313.794 
L 240.35 336.366 
L 223.409364 336.366 
L 202.01929 320.885846 
L 202.01929 336.366 
L 187.65 336.366 
L 187.65 313.794 
z
" clip-path="url(#pea3d28a9b7)" style="fill: #40ba47"/>
   </g>
   <g id="patch_15">
    <path d="M 187.65 290.034 
L 239.253077 290.034 
L 239.253077 294.436169 
L 206.774615 294.436169 
L 206.774615 298.635161 
L 237.329487 298.635161 
L 237.329487 303.03733 
L 206.774615 303.03733 
L 206.774615 308.208669 
L 240.35 308.208669 
L 240.35 312.606 
L 187.65 312.606 
L 187.65 290.034 
z
" clip-path="url(#pea3d28a9b7)" style="fill: #6b296b"/>
   </g>
   <g id="patch_16">
    <path d="M 202.091481 270.676169 
L 202.091481 284.448669 
L 207.265444 284.448669 
Q 216.112802 284.448669 220.782574 282.678126 
Q 225.464351 280.907583 225.464351 277.535812 
Q 225.464351 274.183391 220.806583 272.432199 
Q 216.16082 270.676169 207.265444 270.676169 
L 202.091481 270.676169 
z
M 187.65 266.274 
L 202.871777 266.274 
Q 215.63262 266.274 221.874989 267.009307 
Q 228.117358 267.739777 232.583052 269.495807 
Q 236.520547 271.024472 238.429271 273.02238 
Q 240.35 275.01545 240.35 277.535812 
Q 240.35 280.094875 238.429271 282.09762 
Q 236.520547 284.100365 232.583052 285.624193 
Q 228.081344 287.380223 221.778952 288.11553 
Q 215.47656 288.846 202.871777 288.846 
L 187.65 288.846 
L 187.65 266.274 
z
" clip-path="url(#pea3d28a9b7)" style="fill: #6b296b"/>
   </g>
   <g id="patch_17">
    <path d="M 187.65 242.514 
L 215.043021 242.514 
Q 227.271068 242.514 233.803672 244.429669 
Q 240.35 246.340501 240.35 249.876748 
Q 240.35 253.432346 233.803672 255.343178 
Q 227.271068 257.254009 215.043021 257.254009 
L 204.159922 257.254009 
L 204.159922 265.086 
L 187.65 265.086 
L 187.65 242.514 
z
M 204.159922 246.732342 
L 204.159922 253.035667 
L 213.286354 253.035667 
Q 218.08974 253.035667 220.711016 252.213284 
Q 223.332292 251.390901 223.332292 249.876748 
Q 223.332292 248.367433 220.711016 247.549888 
Q 218.08974 246.732342 213.286354 246.732342 
L 204.159922 246.732342 
z
" clip-path="url(#pea3d28a9b7)" style="fill: #787800"/>
   </g>
   <g id="patch_18">
    <path d="M 187.65 195.588 
L 200.68762 195.588 
L 214.016162 228.909032 
L 227.323155 195.588 
L 240.35 195.588 
L 221.730985 240.732 
L 206.269015 240.732 
L 187.65 195.588 
z
" clip-path="url(#pea3d28a9b7)" style="fill: #21599c"/>
   </g>
   <g id="patch_19">
    <path d="M 224.155336 184.988168 
L 203.887763 184.988168 
L 200.68762 193.212 
L 187.65 193.212 
L 206.269015 148.068 
L 221.730985 148.068 
L 240.35 193.212 
L 227.323155 193.212 
L 224.155336 184.988168 
z
M 207.120231 176.609535 
L 220.890544 176.609535 
L 214.016162 158.652556 
L 207.120231 176.609535 
z
" clip-path="url(#pea3d28a9b7)" style="fill: #21599c"/>
   </g>
   <g id="patch_20">
    <path d="M 209.032787 94.251549 
Q 213.762274 94.251549 215.814221 91.542522 
Q 217.866168 88.814145 217.866168 82.583383 
Q 217.866168 76.410671 215.814221 73.759695 
Q 213.762274 71.089368 209.032787 71.089368 
L 202.701781 71.089368 
L 202.701781 94.251549 
L 209.032787 94.251549 
z
M 202.701781 110.331559 
L 202.701781 144.504 
L 187.65 144.504 
L 187.65 54.216 
L 210.634307 54.216 
Q 222.170252 54.216 227.537844 60.21456 
Q 232.917949 66.193769 232.917949 79.139048 
Q 232.917949 88.078838 230.11529 93.825845 
Q 227.325142 99.572852 221.694801 102.301229 
Q 224.785233 103.38484 227.225047 107.235529 
Q 229.677374 111.066867 232.179748 118.864994 
L 240.35 144.504 
L 224.322293 144.504 
L 217.203039 122.077126 
Q 215.050997 115.304559 212.836396 112.827734 
Q 210.634307 110.331559 206.955817 110.331559 
L 202.701781 110.331559 
z
" clip-path="url(#pea3d28a9b7)" style="fill: #bd2e1f"/>
   </g>
   <g id="patch_21">
    <path d="M 264.091481 365.716169 
L 264.091481 379.488669 
L 269.265444 379.488669 
Q 278.112802 379.488669 282.782574 377.718126 
Q 287.464351 375.947583 287.464351 372.575812 
Q 287.464351 369.223391 282.806583 367.472199 
Q 278.16082 365.716169 269.265444 365.716169 
L 264.091481 365.716169 
z
M 249.65 361.314 
L 264.871777 361.314 
Q 277.63262 361.314 283.874989 362.049307 
Q 290.117358 362.779777 294.583052 364.535807 
Q 298.520547 366.064472 300.429271 368.06238 
Q 302.35 370.05545 302.35 372.575812 
Q 302.35 375.134875 300.429271 377.13762 
Q 298.520547 379.140365 294.583052 380.664193 
Q 290.081344 382.420223 283.778952 383.15553 
Q 277.47656 383.886 264.871777 383.886 
L 249.65 383.886 
L 249.65 361.314 
z
" clip-path="url(#pea3d28a9b7)" style="fill: #6b296b"/>
   </g>
   <g id="patch_22">
    <path d="M 249.65 337.554 
L 277.043021 337.554 
Q 289.271068 337.554 295.803672 339.469669 
Q 302.35 341.380501 302.35 344.916748 
Q 302.35 348.472346 295.803672 350.383178 
Q 289.271068 352.294009 277.043021 352.294009 
L 266.159922 352.294009 
L 266.159922 360.126 
L 249.65 360.126 
L 249.65 337.554 
z
M 266.159922 341.772342 
L 266.159922 348.075667 
L 275.286354 348.075667 
Q 280.08974 348.075667 282.711016 347.253284 
Q 285.332292 346.430901 285.332292 344.916748 
Q 285.332292 343.407433 282.711016 342.589888 
Q 280.08974 341.772342 275.286354 341.772342 
L 266.159922 341.772342 
z
" clip-path="url(#pea3d28a9b7)" style="fill: #787800"/>
   </g>
   <g id="patch_23">
    <path d="M 277.405333 332.990525 
L 276.373292 332.990525 
Q 263.714313 332.990525 256.676667 330.460904 
Q 249.65 327.927312 249.65 323.412118 
Q 249.65 318.904866 256.665687 316.351419 
Q 263.681375 313.794 276 313.794 
Q 288.450375 313.794 295.400188 316.327592 
Q 302.35 318.857213 302.35 323.412118 
Q 302.35 326.537411 298.661 328.796994 
Q 294.972 331.056576 288.044146 332.196296 
L 298.364562 336.366 
L 285.771458 336.366 
L 277.405333 332.990525 
z
M 276 317.25684 
Q 269.961458 317.25684 266.634771 318.869126 
Q 263.308083 320.481412 263.308083 323.412118 
Q 263.308083 326.390479 266.557917 327.974966 
Q 269.818729 329.555483 276 329.555483 
Q 282.071479 329.555483 285.398167 327.943197 
Q 288.724854 326.32694 288.724854 323.412118 
Q 288.724854 320.481412 285.398167 318.869126 
Q 282.071479 317.25684 276 317.25684 
z
" clip-path="url(#pea3d28a9b7)" style="fill: #40ba47"/>
   </g>
   <g id="patch_24">
    <path d="M 297.955948 291.111077 
L 297.955948 295.717798 
Q 292.459804 294.915819 287.221293 294.510166 
Q 281.997094 294.099851 277.34541 294.099851 
Q 271.176562 294.099851 268.213797 294.654709 
Q 265.265345 295.204904 265.265345 296.370573 
Q 265.265345 297.247155 267.254834 297.736736 
Q 269.244324 298.221654 274.482835 298.571354 
L 281.811027 299.05161 
Q 292.946442 299.783649 297.641065 301.271042 
Q 302.35 302.753772 302.35 305.495424 
Q 302.35 309.090345 295.794704 310.848172 
Q 289.239408 312.606 275.770994 312.606 
Q 269.430391 312.606 263.032537 312.209673 
Q 256.634682 311.818008 250.236828 311.044005 
L 250.236828 306.311391 
Q 256.634682 307.416445 262.60315 307.980628 
Q 268.571619 308.540149 274.125014 308.540149 
Q 279.764286 308.540149 282.755676 307.929339 
Q 285.747067 307.313866 285.747067 306.176174 
Q 285.747067 305.159711 283.714639 304.604853 
Q 281.682211 304.049995 275.59924 303.611704 
L 268.929441 303.131448 
Q 258.910429 302.432048 254.273058 300.902691 
Q 249.65 299.373334 249.65 296.780888 
Q 249.65 293.531005 256.090793 291.782502 
Q 262.531586 290.034 274.611651 290.034 
Q 280.122108 290.034 285.933134 290.304435 
Q 291.744161 290.57487 297.955948 291.111077 
z
" clip-path="url(#pea3d28a9b7)" style="fill: #40ba47"/>
   </g>
   <g id="patch_25">
    <path d="M 249.65 266.274 
L 302.35 266.274 
L 302.35 270.676169 
L 283.390256 270.676169 
L 283.390256 288.846 
L 268.646512 288.846 
L 268.646512 270.676169 
L 249.65 270.676169 
L 249.65 266.274 
z
" clip-path="url(#pea3d28a9b7)" style="fill: #40ba47"/>
   </g>
   <g id="patch_26">
    <path d="M 249.65 242.514 
L 262.68762 242.514 
L 276.016162 259.174516 
L 289.323155 242.514 
L 302.35 242.514 
L 283.730985 265.086 
L 268.269015 265.086 
L 249.65 242.514 
z
" clip-path="url(#pea3d28a9b7)" style="fill: #21599c"/>
   </g>
   <g id="patch_27">
    <path d="M 302.35 236.647498 
Q 297.035119 238.689749 291.318669 239.715537 
Q 285.602219 240.732 279.507822 240.732 
Q 265.736374 240.732 257.693187 234.651874 
Q 249.65 228.571749 249.65 218.173988 
Q 249.65 207.654998 257.834917 201.621499 
Q 266.031645 195.588 280.287338 195.588 
Q 285.779381 195.588 290.810802 196.40863 
Q 295.854034 197.219936 300.318534 198.823895 
L 300.318534 207.822854 
Q 295.712304 205.761952 291.153317 204.74549 
Q 286.59433 203.719702 282.011721 203.719702 
Q 273.531533 203.719702 268.937113 207.468491 
Q 264.342694 211.207955 264.342694 218.173988 
Q 264.342694 225.074744 268.771762 228.842184 
Q 273.200829 232.600298 281.350314 232.600298 
Q 283.570753 232.600298 285.472299 232.385815 
Q 287.373846 232.162007 288.885634 231.69574 
L 288.885634 223.246976 
L 280.204662 223.246976 
L 280.204662 215.721422 
L 302.35 215.721422 
L 302.35 236.647498 
z
" clip-path="url(#pea3d28a9b7)" style="fill: #787800"/>
   </g>
   <g id="patch_28">
    <path d="M 249.65 55.404 
L 268.774615 55.404 
L 268.774615 164.452012 
L 302.35 164.452012 
L 302.35 190.836 
L 249.65 190.836 
L 249.65 55.404 
z
" clip-path="url(#pea3d28a9b7)" style="fill: #21599c"/>
   </g>
   <g id="patch_29">
    <path d="M 311.65 361.314 
L 326.813382 361.314 
L 326.813382 369.915161 
L 349.186618 369.915161 
L 349.186618 361.314 
L 364.35 361.314 
L 364.35 383.886 
L 349.186618 383.886 
L 349.186618 374.31733 
L 326.813382 374.31733 
L 326.813382 383.886 
L 311.65 383.886 
L 311.65 361.314 
z
" clip-path="url(#pea3d28a9b7)" style="fill: #177875"/>
   </g>
   <g id="patch_30">
    <path d="M 339.405333 356.750525 
L 338.373292 356.750525 
Q 325.714313 356.750525 318.676667 354.220904 
Q 311.65 351.687312 311.65 347.172118 
Q 311.65 342.664866 318.665687 340.111419 
Q 325.681375 337.554 338 337.554 
Q 350.450375 337.554 357.400188 340.087592 
Q 364.35 342.617213 364.35 347.172118 
Q 364.35 350.297411 360.661 352.556994 
Q 356.972 354.816576 350.044146 355.956296 
L 360.364563 360.126 
L 347.771458 360.126 
L 339.405333 356.750525 
z
M 338 341.01684 
Q 331.961458 341.01684 328.634771 342.629126 
Q 325.308083 344.241412 325.308083 347.172118 
Q 325.308083 350.150479 328.557917 351.734966 
Q 331.818729 353.315483 338 353.315483 
Q 344.071479 353.315483 347.398167 351.703197 
Q 350.724854 350.08694 350.724854 347.172118 
Q 350.724854 344.241412 347.398167 342.629126 
Q 344.071479 341.01684 338 341.01684 
z
" clip-path="url(#pea3d28a9b7)" style="fill: #40ba47"/>
   </g>
   <g id="patch_31">
    <path d="M 348.155336 327.548168 
L 327.887763 327.548168 
L 324.68762 335.772 
L 311.65 335.772 
L 330.269015 290.628 
L 345.730985 290.628 
L 364.35 335.772 
L 351.323155 335.772 
L 348.155336 327.548168 
z
M 331.120231 319.169535 
L 344.890544 319.169535 
L 338.016162 301.212556 
L 331.120231 319.169535 
z
" clip-path="url(#pea3d28a9b7)" style="fill: #21599c"/>
   </g>
   <g id="patch_32">
    <path d="M 312.198462 243.108 
L 363.801538 243.108 
L 363.801538 251.912338 
L 331.323077 251.912338 
L 331.323077 260.310321 
L 361.877949 260.310321 
L 361.877949 269.114659 
L 331.323077 269.114659 
L 331.323077 288.252 
L 312.198462 288.252 
L 312.198462 243.108 
z
" clip-path="url(#pea3d28a9b7)" style="fill: #21599c"/>
   </g>
   <g id="patch_33">
    <path d="M 333.032787 215.605775 
Q 337.762274 215.605775 339.814221 214.251261 
Q 341.866168 212.887072 341.866168 209.771691 
Q 341.866168 206.685336 339.814221 205.359847 
Q 337.762274 204.024684 333.032787 204.024684 
L 326.701781 204.024684 
L 326.701781 215.605775 
L 333.032787 215.605775 
z
M 326.701781 223.64578 
L 326.701781 240.732 
L 311.65 240.732 
L 311.65 195.588 
L 334.634307 195.588 
Q 346.170252 195.588 351.537844 198.58728 
Q 356.917949 201.576885 356.917949 208.049524 
Q 356.917949 212.519419 354.11529 215.392922 
Q 351.325142 218.266426 345.694801 219.630615 
Q 348.785233 220.17242 351.225047 222.097764 
Q 353.677374 224.013433 356.179748 227.912497 
L 364.35 240.732 
L 348.322293 240.732 
L 341.203039 229.518563 
Q 339.050997 226.132279 336.836396 224.893867 
Q 334.634307 223.64578 330.955817 223.64578 
L 326.701781 223.64578 
z
" clip-path="url(#pea3d28a9b7)" style="fill: #bd2e1f"/>
   </g>
   <g id="patch_34">
    <path d="M 364.35 186.491248 
Q 359.035119 189.554624 353.318669 191.093306 
Q 347.602219 192.618 341.507822 192.618 
Q 327.736374 192.618 319.693187 183.497812 
Q 311.65 174.377623 311.65 158.780982 
Q 311.65 143.002497 319.834917 133.952248 
Q 328.031645 124.902 342.287338 124.902 
Q 347.779381 124.902 352.810802 126.132946 
Q 357.854034 127.349903 362.318534 129.755843 
L 362.318534 143.254281 
Q 357.712304 140.162929 353.153317 138.638235 
Q 348.59433 137.099553 344.011721 137.099553 
Q 335.531533 137.099553 330.937113 142.722736 
Q 326.342694 148.331932 326.342694 158.780982 
Q 326.342694 169.132116 330.771762 174.783276 
Q 335.200829 180.420447 343.350314 180.420447 
Q 345.570753 180.420447 347.472299 180.098723 
Q 349.373846 179.763011 350.885634 179.06361 
L 350.885634 166.390464 
L 342.204662 166.390464 
L 342.204662 155.102133 
L 364.35 155.102133 
L 364.35 186.491248 
z
" clip-path="url(#pea3d28a9b7)" style="fill: #787800"/>
   </g>
   <g id="patch_35">
    <path d="M 311.65 53.622 
L 330.774615 53.622 
L 330.774615 108.146006 
L 364.35 108.146006 
L 364.35 121.338 
L 311.65 121.338 
L 311.65 53.622 
z
" clip-path="url(#pea3d28a9b7)" style="fill: #21599c"/>
   </g>
   <g id="patch_36">
    <path d="M 373.65 361.314 
L 382.762642 361.314 
L 389.132798 377.718126 
L 395.455534 361.314 
L 404.615597 361.314 
L 410.938332 377.718126 
L 417.316392 361.314 
L 426.35 361.314 
L 417.656239 383.886 
L 406.694196 383.886 
L 400 366.727216 
L 393.384838 383.886 
L 382.414892 383.886 
L 373.65 361.314 
z
" clip-path="url(#pea3d28a9b7)" style="fill: #21599c"/>
   </g>
   <g id="patch_37">
    <path d="M 395.032787 347.562887 
Q 399.762274 347.562887 401.814221 346.885631 
Q 403.866168 346.203536 403.866168 344.645846 
Q 403.866168 343.102668 401.814221 342.439924 
Q 399.762274 341.772342 395.032787 341.772342 
L 388.701781 341.772342 
L 388.701781 347.562887 
L 395.032787 347.562887 
z
M 388.701781 351.58289 
L 388.701781 360.126 
L 373.65 360.126 
L 373.65 337.554 
L 396.634307 337.554 
Q 408.170252 337.554 413.537844 339.05364 
Q 418.917949 340.548442 418.917949 343.784762 
Q 418.917949 346.019709 416.11529 347.456461 
Q 413.325142 348.893213 407.694801 349.575307 
Q 410.785233 349.84621 413.225047 350.808882 
Q 415.677374 351.766717 418.179748 353.716249 
L 426.35 360.126 
L 410.322293 360.126 
L 403.203039 354.519282 
Q 401.050997 352.82614 398.836396 352.206934 
Q 396.634307 351.58289 392.955817 351.58289 
L 388.701781 351.58289 
z
" clip-path="url(#pea3d28a9b7)" style="fill: #bd2e1f"/>
   </g>
   <g id="patch_38">
    <path d="M 426.35 331.687498 
Q 421.035119 333.729749 415.318669 334.755537 
Q 409.602219 335.772 403.507822 335.772 
Q 389.736374 335.772 381.693187 329.691874 
Q 373.65 323.611749 373.65 313.213988 
Q 373.65 302.694998 381.834917 296.661499 
Q 390.031645 290.628 404.287338 290.628 
Q 409.779381 290.628 414.810802 291.44863 
Q 419.854034 292.259936 424.318534 293.863895 
L 424.318534 302.862854 
Q 419.712304 300.801952 415.153317 299.78549 
Q 410.59433 298.759702 406.011721 298.759702 
Q 397.531533 298.759702 392.937113 302.508491 
Q 388.342694 306.247955 388.342694 313.213988 
Q 388.342694 320.114744 392.771762 323.882184 
Q 397.200829 327.640298 405.350314 327.640298 
Q 407.570753 327.640298 409.472299 327.425815 
Q 411.373846 327.202007 412.885634 326.73574 
L 412.885634 318.286976 
L 404.204662 318.286976 
L 404.204662 310.761422 
L 426.35 310.761422 
L 426.35 331.687498 
z
" clip-path="url(#pea3d28a9b7)" style="fill: #787800"/>
   </g>
   <g id="patch_39">
    <path d="M 388.091481 251.912338 
L 388.091481 279.457337 
L 393.265444 279.457337 
Q 402.112802 279.457337 406.782574 275.916252 
Q 411.464351 272.375167 411.464351 265.631625 
Q 411.464351 258.926783 406.806583 255.424398 
Q 402.16082 251.912338 393.265444 251.912338 
L 388.091481 251.912338 
z
M 373.65 243.108 
L 388.871777 243.108 
Q 401.63262 243.108 407.874989 244.578615 
Q 414.117358 246.039554 418.583052 249.551614 
Q 422.520547 252.608945 424.429271 256.60476 
Q 426.35 260.590899 426.35 265.631625 
Q 426.35 270.749751 424.429271 274.75524 
Q 422.520547 278.76073 418.583052 281.808386 
Q 414.081344 285.320446 407.778952 286.79106 
Q 401.47656 288.252 388.871777 288.252 
L 373.65 288.252 
L 373.65 243.108 
z
" clip-path="url(#pea3d28a9b7)" style="fill: #6b296b"/>
   </g>
   <g id="patch_40">
    <path d="M 421.955948 197.742155 
L 421.955948 206.955597 
Q 416.459804 205.351637 411.221293 204.540332 
Q 405.997094 203.719702 401.34541 203.719702 
Q 395.176562 203.719702 392.213797 204.829418 
Q 389.265345 205.929809 389.265345 208.261145 
Q 389.265345 210.01431 391.254834 210.993472 
Q 393.244324 211.963308 398.482835 212.662709 
L 405.811027 213.623219 
Q 416.946442 215.087298 421.641065 218.062084 
Q 426.35 221.027544 426.35 226.510847 
Q 426.35 233.700689 419.794704 237.216345 
Q 413.239408 240.732 399.770994 240.732 
Q 393.430391 240.732 387.032537 239.939346 
Q 380.634682 239.156017 374.236828 237.608009 
L 374.236828 228.142783 
Q 380.634682 230.35289 386.60315 231.481257 
Q 392.571619 232.600298 398.125014 232.600298 
Q 403.764286 232.600298 406.755676 231.378678 
Q 409.747067 230.147732 409.747067 227.872348 
Q 409.747067 225.839422 407.714639 224.729706 
Q 405.682211 223.61999 399.59924 222.743408 
L 392.929441 221.782897 
Q 382.910429 220.384095 378.273058 217.325382 
Q 373.65 214.266668 373.65 209.081776 
Q 373.65 202.58201 380.090793 199.085005 
Q 386.531586 195.588 398.611651 195.588 
Q 404.122108 195.588 409.933134 196.12887 
Q 415.744161 196.66974 421.955948 197.742155 
z
" clip-path="url(#pea3d28a9b7)" style="fill: #40ba47"/>
   </g>
   <g id="patch_41">
    <path d="M 373.65 148.068 
L 386.68762 148.068 
L 400.016162 181.389032 
L 413.323155 148.068 
L 426.35 148.068 
L 407.730985 193.212 
L 392.269015 193.212 
L 373.65 148.068 
z
" clip-path="url(#pea3d28a9b7)" style="fill: #21599c"/>
   </g>
   <g id="patch_42">
    <path d="M 410.155336 128.056336 
L 389.887763 128.056336 
L 386.68762 144.504 
L 373.65 144.504 
L 392.269015 54.216 
L 407.730985 54.216 
L 426.35 144.504 
L 413.323155 144.504 
L 410.155336 128.056336 
z
M 393.120231 111.299069 
L 406.890544 111.299069 
L 400.016162 75.385111 
L 393.120231 111.299069 
z
" clip-path="url(#pea3d28a9b7)" style="fill: #21599c"/>
   </g>
   <g id="patch_43">
    <path d="M 435.65 361.314 
L 450.813382 361.314 
L 450.813382 369.915161 
L 473.186618 369.915161 
L 473.186618 361.314 
L 488.35 361.314 
L 488.35 383.886 
L 473.186618 383.886 
L 473.186618 374.31733 
L 450.813382 374.31733 
L 450.813382 383.886 
L 435.65 383.886 
L 435.65 361.314 
z
" clip-path="url(#pea3d28a9b7)" style="fill: #177875"/>
   </g>
   <g id="patch_44">
    <path d="M 435.65 337.554 
L 487.253077 337.554 
L 487.253077 341.956169 
L 454.774615 341.956169 
L 454.774615 346.155161 
L 485.329487 346.155161 
L 485.329487 350.55733 
L 454.774615 350.55733 
L 454.774615 355.728669 
L 488.35 355.728669 
L 488.35 360.126 
L 435.65 360.126 
L 435.65 337.554 
z
" clip-path="url(#pea3d28a9b7)" style="fill: #6b296b"/>
   </g>
   <g id="patch_45">
    <path d="M 483.955948 292.782155 
L 483.955948 301.995597 
Q 478.459804 300.391637 473.221293 299.580332 
Q 467.997094 298.759702 463.34541 298.759702 
Q 457.176562 298.759702 454.213797 299.869418 
Q 451.265345 300.969809 451.265345 303.301145 
Q 451.265345 305.05431 453.254834 306.033472 
Q 455.244324 307.003308 460.482835 307.702709 
L 467.811027 308.663219 
Q 478.946442 310.127298 483.641065 313.102084 
Q 488.35 316.067544 488.35 321.550847 
Q 488.35 328.740689 481.794704 332.256345 
Q 475.239408 335.772 461.770994 335.772 
Q 455.430391 335.772 449.032537 334.979346 
Q 442.634682 334.196017 436.236828 332.648009 
L 436.236828 323.182783 
Q 442.634682 325.39289 448.60315 326.521257 
Q 454.571619 327.640298 460.125014 327.640298 
Q 465.764286 327.640298 468.755676 326.418678 
Q 471.747067 325.187732 471.747067 322.912348 
Q 471.747067 320.879422 469.714639 319.769706 
Q 467.682211 318.65999 461.59924 317.783408 
L 454.929441 316.822897 
Q 444.910429 315.424095 440.273058 312.365382 
Q 435.65 309.306668 435.65 304.121776 
Q 435.65 297.62201 442.090793 294.125005 
Q 448.531586 290.628 460.611651 290.628 
Q 466.122108 290.628 471.933134 291.16887 
Q 477.744161 291.70974 483.955948 292.782155 
z
" clip-path="url(#pea3d28a9b7)" style="fill: #40ba47"/>
   </g>
   <g id="patch_46">
    <path d="M 488.35 281.531248 
Q 483.035119 284.594624 477.318669 286.133306 
Q 471.602219 287.658 465.507822 287.658 
Q 451.736374 287.658 443.693187 278.537812 
Q 435.65 269.417623 435.65 253.820982 
Q 435.65 238.042497 443.834917 228.992248 
Q 452.031645 219.942 466.287338 219.942 
Q 471.779381 219.942 476.810802 221.172946 
Q 481.854034 222.389903 486.318534 224.795843 
L 486.318534 238.294281 
Q 481.712304 235.202929 477.153317 233.678235 
Q 472.59433 232.139553 468.011721 232.139553 
Q 459.531533 232.139553 454.937113 237.762736 
Q 450.342694 243.371932 450.342694 253.820982 
Q 450.342694 264.172116 454.771762 269.823276 
Q 459.200829 275.460447 467.350314 275.460447 
Q 469.570753 275.460447 471.472299 275.138723 
Q 473.373846 274.803011 474.885634 274.10361 
L 474.885634 261.430464 
L 466.204662 261.430464 
L 466.204662 250.142133 
L 488.35 250.142133 
L 488.35 281.531248 
z
" clip-path="url(#pea3d28a9b7)" style="fill: #787800"/>
   </g>
   <g id="patch_47">
    <path d="M 435.65 148.662 
L 448.68762 148.662 
L 462.016162 198.643548 
L 475.323155 148.662 
L 488.35 148.662 
L 469.730985 216.378 
L 454.269015 216.378 
L 435.65 148.662 
z
" clip-path="url(#pea3d28a9b7)" style="fill: #21599c"/>
   </g>
   <g id="patch_48">
    <path d="M 472.155336 128.056336 
L 451.887763 128.056336 
L 448.68762 144.504 
L 435.65 144.504 
L 454.269015 54.216 
L 469.730985 54.216 
L 488.35 144.504 
L 475.323155 144.504 
L 472.155336 128.056336 
z
M 455.120231 111.299069 
L 468.890544 111.299069 
L 462.016162 75.385111 
L 455.120231 111.299069 
z
" clip-path="url(#pea3d28a9b7)" style="fill: #21599c"/>
   </g>
   <g id="patch_49">
    <path d="M 514.437692 361.314 
L 533.562308 361.314 
L 533.562308 383.886 
L 514.437692 383.886 
L 514.437692 361.314 
z
" clip-path="url(#pea3d28a9b7)" style="fill: #21599c"/>
   </g>
   <g id="patch_50">
    <path d="M 497.65 337.554 
L 514.578032 337.554 
L 535.968106 353.034154 
L 535.968106 337.554 
L 550.35 337.554 
L 550.35 360.126 
L 533.409364 360.126 
L 512.01929 344.645846 
L 512.01929 360.126 
L 497.65 360.126 
L 497.65 337.554 
z
" clip-path="url(#pea3d28a9b7)" style="fill: #40ba47"/>
   </g>
   <g id="patch_51">
    <path d="M 497.65 290.628 
L 550.35 290.628 
L 550.35 299.432338 
L 531.390256 299.432338 
L 531.390256 335.772 
L 516.646512 335.772 
L 516.646512 299.432338 
L 497.65 299.432338 
L 497.65 290.628 
z
" clip-path="url(#pea3d28a9b7)" style="fill: #40ba47"/>
   </g>
   <g id="patch_52">
    <path d="M 534.155336 280.028168 
L 513.887763 280.028168 
L 510.68762 288.252 
L 497.65 288.252 
L 516.269015 243.108 
L 531.730985 243.108 
L 550.35 288.252 
L 537.323155 288.252 
L 534.155336 280.028168 
z
M 517.120231 271.649535 
L 530.890544 271.649535 
L 524.016162 253.692556 
L 517.120231 271.649535 
z
" clip-path="url(#pea3d28a9b7)" style="fill: #21599c"/>
   </g>
   <g id="patch_53">
    <path d="M 497.65 195.588 
L 549.253077 195.588 
L 549.253077 204.392338 
L 516.774615 204.392338 
L 516.774615 212.790321 
L 547.329487 212.790321 
L 547.329487 221.594659 
L 516.774615 221.594659 
L 516.774615 231.937337 
L 550.35 231.937337 
L 550.35 240.732 
L 497.65 240.732 
L 497.65 195.588 
z
" clip-path="url(#pea3d28a9b7)" style="fill: #6b296b"/>
   </g>
   <g id="patch_54">
    <path d="M 497.65 148.068 
L 516.774615 148.068 
L 516.774615 184.417337 
L 550.35 184.417337 
L 550.35 193.212 
L 497.65 193.212 
L 497.65 148.068 
z
" clip-path="url(#pea3d28a9b7)" style="fill: #21599c"/>
   </g>
   <g id="patch_55">
    <path d="M 497.65 54.216 
L 525.043021 54.216 
Q 537.271068 54.216 543.803672 61.878676 
Q 550.35 69.522003 550.35 83.666994 
Q 550.35 97.889385 543.803672 105.532712 
Q 537.271068 113.176038 525.043021 113.176038 
L 514.159922 113.176038 
L 514.159922 144.504 
L 497.65 144.504 
L 497.65 54.216 
z
M 514.159922 71.089368 
L 514.159922 96.30267 
L 523.286354 96.30267 
Q 528.08974 96.30267 530.711016 93.013137 
Q 533.332292 89.723604 533.332292 83.666994 
Q 533.332292 77.629733 530.711016 74.359551 
Q 528.08974 71.089368 523.286354 71.089368 
L 514.159922 71.089368 
z
" clip-path="url(#pea3d28a9b7)" style="fill: #787800"/>
   </g>
   <g id="patch_56">
    <path d="M 607.955948 362.391077 
L 607.955948 366.997798 
Q 602.459804 366.195819 597.221293 365.790166 
Q 591.997094 365.379851 587.34541 365.379851 
Q 581.176562 365.379851 578.213797 365.934709 
Q 575.265345 366.484904 575.265345 367.650573 
Q 575.265345 368.527155 577.254834 369.016736 
Q 579.244324 369.501654 584.482835 369.851354 
L 591.811027 370.33161 
Q 602.946442 371.063649 607.641065 372.551042 
Q 612.35 374.033772 612.35 376.775424 
Q 612.35 380.370345 605.794704 382.128172 
Q 599.239408 383.886 585.770994 383.886 
Q 579.430391 383.886 573.032537 383.489673 
Q 566.634682 383.098008 560.236828 382.324005 
L 560.236828 377.591391 
Q 566.634682 378.696445 572.60315 379.260628 
Q 578.571619 379.820149 584.125014 379.820149 
Q 589.764286 379.820149 592.755676 379.209339 
Q 595.747067 378.593866 595.747067 377.456174 
Q 595.747067 376.439711 593.714639 375.884853 
Q 591.682211 375.329995 585.59924 374.891704 
L 578.929441 374.411448 
Q 568.910429 373.712048 564.273058 372.182691 
Q 559.65 370.653334 559.65 368.060888 
Q 559.65 364.811005 566.090793 363.062502 
Q 572.531586 361.314 584.611651 361.314 
Q 590.122108 361.314 595.933134 361.584435 
Q 601.744161 361.85487 607.955948 362.391077 
z
" clip-path="url(#pea3d28a9b7)" style="fill: #40ba47"/>
   </g>
   <g id="patch_57">
    <path d="M 559.65 314.388 
L 611.253077 314.388 
L 611.253077 323.192338 
L 578.774615 323.192338 
L 578.774615 331.590321 
L 609.329487 331.590321 
L 609.329487 340.394659 
L 578.774615 340.394659 
L 578.774615 350.737337 
L 612.35 350.737337 
L 612.35 359.532 
L 559.65 359.532 
L 559.65 314.388 
z
" clip-path="url(#pea3d28a9b7)" style="fill: #6b296b"/>
   </g>
   <g id="patch_58">
    <path d="M 559.65 266.868 
L 587.043021 266.868 
Q 599.271068 266.868 605.803672 270.699338 
Q 612.35 274.521001 612.35 281.593497 
Q 612.35 288.704693 605.803672 292.526356 
Q 599.271068 296.348019 587.043021 296.348019 
L 576.159922 296.348019 
L 576.159922 312.012 
L 559.65 312.012 
L 559.65 266.868 
z
M 576.159922 275.304684 
L 576.159922 287.911335 
L 585.286354 287.911335 
Q 590.08974 287.911335 592.711016 286.266568 
Q 595.332292 284.621802 595.332292 281.593497 
Q 595.332292 278.574867 592.711016 276.939775 
Q 590.08974 275.304684 585.286354 275.304684 
L 576.159922 275.304684 
z
" clip-path="url(#pea3d28a9b7)" style="fill: #787800"/>
   </g>
   <g id="patch_59">
    <path d="M 559.65 219.348 
L 572.68762 219.348 
L 586.016162 252.669032 
L 599.323155 219.348 
L 612.35 219.348 
L 593.730985 264.492 
L 578.269015 264.492 
L 559.65 219.348 
z
" clip-path="url(#pea3d28a9b7)" style="fill: #21599c"/>
   </g>
   <g id="patch_60">
    <path d="M 559.65 148.662 
L 612.35 148.662 
L 612.35 161.868507 
L 593.390256 161.868507 
L 593.390256 216.378 
L 578.646512 216.378 
L 578.646512 161.868507 
L 559.65 161.868507 
L 559.65 148.662 
z
" clip-path="url(#pea3d28a9b7)" style="fill: #40ba47"/>
   </g>
   <g id="patch_61">
    <path d="M 596.155336 128.056336 
L 575.887763 128.056336 
L 572.68762 144.504 
L 559.65 144.504 
L 578.269015 54.216 
L 593.730985 54.216 
L 612.35 144.504 
L 599.323155 144.504 
L 596.155336 128.056336 
z
M 579.120231 111.299069 
L 592.890544 111.299069 
L 586.016162 75.385111 
L 579.120231 111.299069 
z
" clip-path="url(#pea3d28a9b7)" style="fill: #21599c"/>
   </g>
   <g id="matplotlib.axis_1">
    <g id="xtick_1">
     <g id="line2d_2">
      <defs>
       <path id="maf710edb48" d="M 0 0 
L 0 4.8 
" style="stroke: #262626"/>
      </defs>
      <g>
       <use xlink:href="#maf710edb48" x="152" y="384.48" style="fill: #262626; stroke: #262626"/>
      </g>
     </g>
     <g id="text_1">
      <!-- P4 -->
      <g style="fill: #262626" transform="translate(146.61825 399.078875) scale(0.088 -0.088)">
       <defs>
        <path id="ArialMT-50" d="M 494 0 
L 494 4581 
L 2222 4581 
Q 2678 4581 2919 4538 
Q 3256 4481 3484 4323 
Q 3713 4166 3852 3881 
Q 3991 3597 3991 3256 
Q 3991 2672 3619 2267 
Q 3247 1863 2275 1863 
L 1100 1863 
L 1100 0 
L 494 0 
z
M 1100 2403 
L 2284 2403 
Q 2872 2403 3119 2622 
Q 3366 2841 3366 3238 
Q 3366 3525 3220 3729 
Q 3075 3934 2838 4000 
Q 2684 4041 2272 4041 
L 1100 4041 
L 1100 2403 
z
" transform="scale(0.015625)"/>
        <path id="ArialMT-34" d="M 2069 0 
L 2069 1097 
L 81 1097 
L 81 1613 
L 2172 4581 
L 2631 4581 
L 2631 1613 
L 3250 1613 
L 3250 1097 
L 2631 1097 
L 2631 0 
L 2069 0 
z
M 2069 1613 
L 2069 3678 
L 634 1613 
L 2069 1613 
z
" transform="scale(0.015625)"/>
       </defs>
       <use xlink:href="#ArialMT-50"/>
       <use xlink:href="#ArialMT-34" x="66.699219"/>
      </g>
     </g>
    </g>
    <g id="xtick_2">
     <g id="line2d_3">
      <g>
       <use xlink:href="#maf710edb48" x="214" y="384.48" style="fill: #262626; stroke: #262626"/>
      </g>
     </g>
     <g id="text_2">
      <!-- P3 -->
      <g style="fill: #262626" transform="translate(208.61825 399.078875) scale(0.088 -0.088)">
       <defs>
        <path id="ArialMT-33" d="M 269 1209 
L 831 1284 
Q 928 806 1161 595 
Q 1394 384 1728 384 
Q 2125 384 2398 659 
Q 2672 934 2672 1341 
Q 2672 1728 2419 1979 
Q 2166 2231 1775 2231 
Q 1616 2231 1378 2169 
L 1441 2663 
Q 1497 2656 1531 2656 
Q 1891 2656 2178 2843 
Q 2466 3031 2466 3422 
Q 2466 3731 2256 3934 
Q 2047 4138 1716 4138 
Q 1388 4138 1169 3931 
Q 950 3725 888 3313 
L 325 3413 
Q 428 3978 793 4289 
Q 1159 4600 1703 4600 
Q 2078 4600 2393 4439 
Q 2709 4278 2876 4000 
Q 3044 3722 3044 3409 
Q 3044 3113 2884 2869 
Q 2725 2625 2413 2481 
Q 2819 2388 3044 2092 
Q 3269 1797 3269 1353 
Q 3269 753 2831 336 
Q 2394 -81 1725 -81 
Q 1122 -81 723 278 
Q 325 638 269 1209 
z
" transform="scale(0.015625)"/>
       </defs>
       <use xlink:href="#ArialMT-50"/>
       <use xlink:href="#ArialMT-33" x="66.699219"/>
      </g>
     </g>
    </g>
    <g id="xtick_3">
     <g id="line2d_4">
      <g>
       <use xlink:href="#maf710edb48" x="276" y="384.48" style="fill: #262626; stroke: #262626"/>
      </g>
     </g>
     <g id="text_3">
      <!-- P2 -->
      <g style="fill: #262626" transform="translate(270.61825 399.078875) scale(0.088 -0.088)">
       <defs>
        <path id="ArialMT-32" d="M 3222 541 
L 3222 0 
L 194 0 
Q 188 203 259 391 
Q 375 700 629 1000 
Q 884 1300 1366 1694 
Q 2113 2306 2375 2664 
Q 2638 3022 2638 3341 
Q 2638 3675 2398 3904 
Q 2159 4134 1775 4134 
Q 1369 4134 1125 3890 
Q 881 3647 878 3216 
L 300 3275 
Q 359 3922 746 4261 
Q 1134 4600 1788 4600 
Q 2447 4600 2831 4234 
Q 3216 3869 3216 3328 
Q 3216 3053 3103 2787 
Q 2991 2522 2730 2228 
Q 2469 1934 1863 1422 
Q 1356 997 1212 845 
Q 1069 694 975 541 
L 3222 541 
z
" transform="scale(0.015625)"/>
       </defs>
       <use xlink:href="#ArialMT-50"/>
       <use xlink:href="#ArialMT-32" x="66.699219"/>
      </g>
     </g>
    </g>
    <g id="xtick_4">
     <g id="line2d_5">
      <g>
       <use xlink:href="#maf710edb48" x="338" y="384.48" style="fill: #262626; stroke: #262626"/>
      </g>
     </g>
     <g id="text_4">
      <!-- P1 -->
      <g style="fill: #262626" transform="translate(332.61825 399.078875) scale(0.088 -0.088)">
       <defs>
        <path id="ArialMT-31" d="M 2384 0 
L 1822 0 
L 1822 3584 
Q 1619 3391 1289 3197 
Q 959 3003 697 2906 
L 697 3450 
Q 1169 3672 1522 3987 
Q 1875 4303 2022 4600 
L 2384 4600 
L 2384 0 
z
" transform="scale(0.015625)"/>
       </defs>
       <use xlink:href="#ArialMT-50"/>
       <use xlink:href="#ArialMT-31" x="66.699219"/>
      </g>
     </g>
    </g>
    <g id="xtick_5">
     <g id="line2d_6">
      <g>
       <use xlink:href="#maf710edb48" x="400" y="384.48" style="fill: #262626; stroke: #262626"/>
      </g>
     </g>
     <g id="text_5">
      <!-- P1' -->
      <g style="fill: #262626" transform="translate(393.778125 399.078875) scale(0.088 -0.088)">
       <defs>
        <path id="ArialMT-27" d="M 425 2959 
L 281 3816 
L 281 4581 
L 922 4581 
L 922 3816 
L 772 2959 
L 425 2959 
z
" transform="scale(0.015625)"/>
       </defs>
       <use xlink:href="#ArialMT-50"/>
       <use xlink:href="#ArialMT-31" x="66.699219"/>
       <use xlink:href="#ArialMT-27" x="122.314453"/>
      </g>
     </g>
    </g>
    <g id="xtick_6">
     <g id="line2d_7">
      <g>
       <use xlink:href="#maf710edb48" x="462" y="384.48" style="fill: #262626; stroke: #262626"/>
      </g>
     </g>
     <g id="text_6">
      <!-- P2' -->
      <g style="fill: #262626" transform="translate(455.778125 399.078875) scale(0.088 -0.088)">
       <use xlink:href="#ArialMT-50"/>
       <use xlink:href="#ArialMT-32" x="66.699219"/>
       <use xlink:href="#ArialMT-27" x="122.314453"/>
      </g>
     </g>
    </g>
    <g id="xtick_7">
     <g id="line2d_8">
      <g>
       <use xlink:href="#maf710edb48" x="524" y="384.48" style="fill: #262626; stroke: #262626"/>
      </g>
     </g>
     <g id="text_7">
      <!-- P3' -->
      <g style="fill: #262626" transform="translate(517.778125 399.078875) scale(0.088 -0.088)">
       <use xlink:href="#ArialMT-50"/>
       <use xlink:href="#ArialMT-33" x="66.699219"/>
       <use xlink:href="#ArialMT-27" x="122.314453"/>
      </g>
     </g>
    </g>
    <g id="xtick_8">
     <g id="line2d_9">
      <g>
       <use xlink:href="#maf710edb48" x="586" y="384.48" style="fill: #262626; stroke: #262626"/>
      </g>
     </g>
     <g id="text_8">
      <!-- P4' -->
      <g style="fill: #262626" transform="translate(579.778125 399.078875) scale(0.088 -0.088)">
       <use xlink:href="#ArialMT-50"/>
       <use xlink:href="#ArialMT-34" x="66.699219"/>
       <use xlink:href="#ArialMT-27" x="122.314453"/>
      </g>
     </g>
    </g>
   </g>
   <g id="matplotlib.axis_2">
    <g id="ytick_1">
     <g id="line2d_10">
      <defs>
       <path id="m7780887e6c" d="M 0 0 
L -4.8 0 
" style="stroke: #262626"/>
      </defs>
      <g>
       <use xlink:href="#m7780887e6c" x="90" y="384.48" style="fill: #262626; stroke: #262626"/>
      </g>
     </g>
     <g id="text_9">
      <!-- 0.0 -->
      <g style="fill: #262626" transform="translate(69.468 387.629437) scale(0.088 -0.088)">
       <defs>
        <path id="ArialMT-30" d="M 266 2259 
Q 266 3072 433 3567 
Q 600 4063 929 4331 
Q 1259 4600 1759 4600 
Q 2128 4600 2406 4451 
Q 2684 4303 2865 4023 
Q 3047 3744 3150 3342 
Q 3253 2941 3253 2259 
Q 3253 1453 3087 958 
Q 2922 463 2592 192 
Q 2263 -78 1759 -78 
Q 1097 -78 719 397 
Q 266 969 266 2259 
z
M 844 2259 
Q 844 1131 1108 757 
Q 1372 384 1759 384 
Q 2147 384 2411 759 
Q 2675 1134 2675 2259 
Q 2675 3391 2411 3762 
Q 2147 4134 1753 4134 
Q 1366 4134 1134 3806 
Q 844 3388 844 2259 
z
" transform="scale(0.015625)"/>
        <path id="ArialMT-2e" d="M 581 0 
L 581 641 
L 1222 641 
L 1222 0 
L 581 0 
z
" transform="scale(0.015625)"/>
       </defs>
       <use xlink:href="#ArialMT-30"/>
       <use xlink:href="#ArialMT-2e" x="55.615234"/>
       <use xlink:href="#ArialMT-30" x="83.398438"/>
      </g>
     </g>
    </g>
    <g id="ytick_2">
     <g id="line2d_11">
      <g>
       <use xlink:href="#m7780887e6c" x="90" y="317.952" style="fill: #262626; stroke: #262626"/>
      </g>
     </g>
     <g id="text_10">
      <!-- 0.2 -->
      <g style="fill: #262626" transform="translate(69.468 321.101437) scale(0.088 -0.088)">
       <use xlink:href="#ArialMT-30"/>
       <use xlink:href="#ArialMT-2e" x="55.615234"/>
       <use xlink:href="#ArialMT-32" x="83.398438"/>
      </g>
     </g>
    </g>
    <g id="ytick_3">
     <g id="line2d_12">
      <g>
       <use xlink:href="#m7780887e6c" x="90" y="251.424" style="fill: #262626; stroke: #262626"/>
      </g>
     </g>
     <g id="text_11">
      <!-- 0.4 -->
      <g style="fill: #262626" transform="translate(69.468 254.573437) scale(0.088 -0.088)">
       <use xlink:href="#ArialMT-30"/>
       <use xlink:href="#ArialMT-2e" x="55.615234"/>
       <use xlink:href="#ArialMT-34" x="83.398438"/>
      </g>
     </g>
    </g>
    <g id="ytick_4">
     <g id="line2d_13">
      <g>
       <use xlink:href="#m7780887e6c" x="90" y="184.896" style="fill: #262626; stroke: #262626"/>
      </g>
     </g>
     <g id="text_12">
      <!-- 0.6 -->
      <g style="fill: #262626" transform="translate(69.468 188.045437) scale(0.088 -0.088)">
       <defs>
        <path id="ArialMT-36" d="M 3184 3459 
L 2625 3416 
Q 2550 3747 2413 3897 
Q 2184 4138 1850 4138 
Q 1581 4138 1378 3988 
Q 1113 3794 959 3422 
Q 806 3050 800 2363 
Q 1003 2672 1297 2822 
Q 1591 2972 1913 2972 
Q 2475 2972 2870 2558 
Q 3266 2144 3266 1488 
Q 3266 1056 3080 686 
Q 2894 316 2569 119 
Q 2244 -78 1831 -78 
Q 1128 -78 684 439 
Q 241 956 241 2144 
Q 241 3472 731 4075 
Q 1159 4600 1884 4600 
Q 2425 4600 2770 4297 
Q 3116 3994 3184 3459 
z
M 888 1484 
Q 888 1194 1011 928 
Q 1134 663 1356 523 
Q 1578 384 1822 384 
Q 2178 384 2434 671 
Q 2691 959 2691 1453 
Q 2691 1928 2437 2201 
Q 2184 2475 1800 2475 
Q 1419 2475 1153 2201 
Q 888 1928 888 1484 
z
" transform="scale(0.015625)"/>
       </defs>
       <use xlink:href="#ArialMT-30"/>
       <use xlink:href="#ArialMT-2e" x="55.615234"/>
       <use xlink:href="#ArialMT-36" x="83.398438"/>
      </g>
     </g>
    </g>
    <g id="ytick_5">
     <g id="line2d_14">
      <g>
       <use xlink:href="#m7780887e6c" x="90" y="118.368" style="fill: #262626; stroke: #262626"/>
      </g>
     </g>
     <g id="text_13">
      <!-- 0.8 -->
      <g style="fill: #262626" transform="translate(69.468 121.517437) scale(0.088 -0.088)">
       <defs>
        <path id="ArialMT-38" d="M 1131 2484 
Q 781 2613 612 2850 
Q 444 3088 444 3419 
Q 444 3919 803 4259 
Q 1163 4600 1759 4600 
Q 2359 4600 2725 4251 
Q 3091 3903 3091 3403 
Q 3091 3084 2923 2848 
Q 2756 2613 2416 2484 
Q 2838 2347 3058 2040 
Q 3278 1734 3278 1309 
Q 3278 722 2862 322 
Q 2447 -78 1769 -78 
Q 1091 -78 675 323 
Q 259 725 259 1325 
Q 259 1772 486 2073 
Q 713 2375 1131 2484 
z
M 1019 3438 
Q 1019 3113 1228 2906 
Q 1438 2700 1772 2700 
Q 2097 2700 2305 2904 
Q 2513 3109 2513 3406 
Q 2513 3716 2298 3927 
Q 2084 4138 1766 4138 
Q 1444 4138 1231 3931 
Q 1019 3725 1019 3438 
z
M 838 1322 
Q 838 1081 952 856 
Q 1066 631 1291 507 
Q 1516 384 1775 384 
Q 2178 384 2440 643 
Q 2703 903 2703 1303 
Q 2703 1709 2433 1975 
Q 2163 2241 1756 2241 
Q 1359 2241 1098 1978 
Q 838 1716 838 1322 
z
" transform="scale(0.015625)"/>
       </defs>
       <use xlink:href="#ArialMT-30"/>
       <use xlink:href="#ArialMT-2e" x="55.615234"/>
       <use xlink:href="#ArialMT-38" x="83.398438"/>
      </g>
     </g>
    </g>
    <g id="ytick_6">
     <g id="line2d_15">
      <g>
       <use xlink:href="#m7780887e6c" x="90" y="51.84" style="fill: #262626; stroke: #262626"/>
      </g>
     </g>
     <g id="text_14">
      <!-- 1.0 -->
      <g style="fill: #262626" transform="translate(69.468 54.989437) scale(0.088 -0.088)">
       <use xlink:href="#ArialMT-31"/>
       <use xlink:href="#ArialMT-2e" x="55.615234"/>
       <use xlink:href="#ArialMT-30" x="83.398438"/>
      </g>
     </g>
    </g>
    <g id="text_15">
     <!-- percentage -->
     <g style="fill: #262626" transform="translate(63.4475 242.1765) rotate(-90) scale(0.096 -0.096)">
      <defs>
       <path id="ArialMT-70" d="M 422 -1272 
L 422 3319 
L 934 3319 
L 934 2888 
Q 1116 3141 1344 3267 
Q 1572 3394 1897 3394 
Q 2322 3394 2647 3175 
Q 2972 2956 3137 2557 
Q 3303 2159 3303 1684 
Q 3303 1175 3120 767 
Q 2938 359 2589 142 
Q 2241 -75 1856 -75 
Q 1575 -75 1351 44 
Q 1128 163 984 344 
L 984 -1272 
L 422 -1272 
z
M 931 1641 
Q 931 1000 1190 694 
Q 1450 388 1819 388 
Q 2194 388 2461 705 
Q 2728 1022 2728 1688 
Q 2728 2322 2467 2637 
Q 2206 2953 1844 2953 
Q 1484 2953 1207 2617 
Q 931 2281 931 1641 
z
" transform="scale(0.015625)"/>
       <path id="ArialMT-65" d="M 2694 1069 
L 3275 997 
Q 3138 488 2766 206 
Q 2394 -75 1816 -75 
Q 1088 -75 661 373 
Q 234 822 234 1631 
Q 234 2469 665 2931 
Q 1097 3394 1784 3394 
Q 2450 3394 2872 2941 
Q 3294 2488 3294 1666 
Q 3294 1616 3291 1516 
L 816 1516 
Q 847 969 1125 678 
Q 1403 388 1819 388 
Q 2128 388 2347 550 
Q 2566 713 2694 1069 
z
M 847 1978 
L 2700 1978 
Q 2663 2397 2488 2606 
Q 2219 2931 1791 2931 
Q 1403 2931 1139 2672 
Q 875 2413 847 1978 
z
" transform="scale(0.015625)"/>
       <path id="ArialMT-72" d="M 416 0 
L 416 3319 
L 922 3319 
L 922 2816 
Q 1116 3169 1280 3281 
Q 1444 3394 1641 3394 
Q 1925 3394 2219 3213 
L 2025 2691 
Q 1819 2813 1613 2813 
Q 1428 2813 1281 2702 
Q 1134 2591 1072 2394 
Q 978 2094 978 1738 
L 978 0 
L 416 0 
z
" transform="scale(0.015625)"/>
       <path id="ArialMT-63" d="M 2588 1216 
L 3141 1144 
Q 3050 572 2676 248 
Q 2303 -75 1759 -75 
Q 1078 -75 664 370 
Q 250 816 250 1647 
Q 250 2184 428 2587 
Q 606 2991 970 3192 
Q 1334 3394 1763 3394 
Q 2303 3394 2647 3120 
Q 2991 2847 3088 2344 
L 2541 2259 
Q 2463 2594 2264 2762 
Q 2066 2931 1784 2931 
Q 1359 2931 1093 2626 
Q 828 2322 828 1663 
Q 828 994 1084 691 
Q 1341 388 1753 388 
Q 2084 388 2306 591 
Q 2528 794 2588 1216 
z
" transform="scale(0.015625)"/>
       <path id="ArialMT-6e" d="M 422 0 
L 422 3319 
L 928 3319 
L 928 2847 
Q 1294 3394 1984 3394 
Q 2284 3394 2536 3286 
Q 2788 3178 2913 3003 
Q 3038 2828 3088 2588 
Q 3119 2431 3119 2041 
L 3119 0 
L 2556 0 
L 2556 2019 
Q 2556 2363 2490 2533 
Q 2425 2703 2258 2804 
Q 2091 2906 1866 2906 
Q 1506 2906 1245 2678 
Q 984 2450 984 1813 
L 984 0 
L 422 0 
z
" transform="scale(0.015625)"/>
       <path id="ArialMT-74" d="M 1650 503 
L 1731 6 
Q 1494 -44 1306 -44 
Q 1000 -44 831 53 
Q 663 150 594 308 
Q 525 466 525 972 
L 525 2881 
L 113 2881 
L 113 3319 
L 525 3319 
L 525 4141 
L 1084 4478 
L 1084 3319 
L 1650 3319 
L 1650 2881 
L 1084 2881 
L 1084 941 
Q 1084 700 1114 631 
Q 1144 563 1211 522 
Q 1278 481 1403 481 
Q 1497 481 1650 503 
z
" transform="scale(0.015625)"/>
       <path id="ArialMT-61" d="M 2588 409 
Q 2275 144 1986 34 
Q 1697 -75 1366 -75 
Q 819 -75 525 192 
Q 231 459 231 875 
Q 231 1119 342 1320 
Q 453 1522 633 1644 
Q 813 1766 1038 1828 
Q 1203 1872 1538 1913 
Q 2219 1994 2541 2106 
Q 2544 2222 2544 2253 
Q 2544 2597 2384 2738 
Q 2169 2928 1744 2928 
Q 1347 2928 1158 2789 
Q 969 2650 878 2297 
L 328 2372 
Q 403 2725 575 2942 
Q 747 3159 1072 3276 
Q 1397 3394 1825 3394 
Q 2250 3394 2515 3294 
Q 2781 3194 2906 3042 
Q 3031 2891 3081 2659 
Q 3109 2516 3109 2141 
L 3109 1391 
Q 3109 606 3145 398 
Q 3181 191 3288 0 
L 2700 0 
Q 2613 175 2588 409 
z
M 2541 1666 
Q 2234 1541 1622 1453 
Q 1275 1403 1131 1340 
Q 988 1278 909 1158 
Q 831 1038 831 891 
Q 831 666 1001 516 
Q 1172 366 1500 366 
Q 1825 366 2078 508 
Q 2331 650 2450 897 
Q 2541 1088 2541 1459 
L 2541 1666 
z
" transform="scale(0.015625)"/>
       <path id="ArialMT-67" d="M 319 -275 
L 866 -356 
Q 900 -609 1056 -725 
Q 1266 -881 1628 -881 
Q 2019 -881 2231 -725 
Q 2444 -569 2519 -288 
Q 2563 -116 2559 434 
Q 2191 0 1641 0 
Q 956 0 581 494 
Q 206 988 206 1678 
Q 206 2153 378 2554 
Q 550 2956 876 3175 
Q 1203 3394 1644 3394 
Q 2231 3394 2613 2919 
L 2613 3319 
L 3131 3319 
L 3131 450 
Q 3131 -325 2973 -648 
Q 2816 -972 2473 -1159 
Q 2131 -1347 1631 -1347 
Q 1038 -1347 672 -1080 
Q 306 -813 319 -275 
z
M 784 1719 
Q 784 1066 1043 766 
Q 1303 466 1694 466 
Q 2081 466 2343 764 
Q 2606 1063 2606 1700 
Q 2606 2309 2336 2618 
Q 2066 2928 1684 2928 
Q 1309 2928 1046 2623 
Q 784 2319 784 1719 
z
" transform="scale(0.015625)"/>
      </defs>
      <use xlink:href="#ArialMT-70"/>
      <use xlink:href="#ArialMT-65" x="55.615234"/>
      <use xlink:href="#ArialMT-72" x="111.230469"/>
      <use xlink:href="#ArialMT-63" x="144.53125"/>
      <use xlink:href="#ArialMT-65" x="194.53125"/>
      <use xlink:href="#ArialMT-6e" x="250.146484"/>
      <use xlink:href="#ArialMT-74" x="305.761719"/>
      <use xlink:href="#ArialMT-61" x="333.544922"/>
      <use xlink:href="#ArialMT-67" x="389.160156"/>
      <use xlink:href="#ArialMT-65" x="444.775391"/>
     </g>
    </g>
   </g>
   <g id="line2d_16">
    <path d="M 369 384.48 
L 369 51.84 
" clip-path="url(#pea3d28a9b7)" style="fill: none; stroke: #daa520; stroke-width: 2; stroke-linecap: round"/>
   </g>
   <g id="patch_62">
    <path d="M 90 384.48 
L 648 384.48 
" style="fill: none; stroke: #262626; stroke-linejoin: miter; stroke-linecap: square"/>
   </g>
   <g id="patch_63">
    <path d="M 90 51.84 
L 648 51.84 
" style="fill: none; stroke: #262626; stroke-linejoin: miter; stroke-linecap: square"/>
   </g>
   <g id="text_16">
    <!-- BALL_380 vs. BALL_697 probability PPSM n=14 -->
    <g style="fill: #262626" transform="translate(265.06875 45.84) scale(0.096 -0.096)">
     <defs>
      <path id="ArialMT-42" d="M 469 0 
L 469 4581 
L 2188 4581 
Q 2713 4581 3030 4442 
Q 3347 4303 3526 4014 
Q 3706 3725 3706 3409 
Q 3706 3116 3547 2856 
Q 3388 2597 3066 2438 
Q 3481 2316 3704 2022 
Q 3928 1728 3928 1328 
Q 3928 1006 3792 729 
Q 3656 453 3456 303 
Q 3256 153 2954 76 
Q 2653 0 2216 0 
L 469 0 
z
M 1075 2656 
L 2066 2656 
Q 2469 2656 2644 2709 
Q 2875 2778 2992 2937 
Q 3109 3097 3109 3338 
Q 3109 3566 3000 3739 
Q 2891 3913 2687 3977 
Q 2484 4041 1991 4041 
L 1075 4041 
L 1075 2656 
z
M 1075 541 
L 2216 541 
Q 2509 541 2628 563 
Q 2838 600 2978 687 
Q 3119 775 3209 942 
Q 3300 1109 3300 1328 
Q 3300 1584 3169 1773 
Q 3038 1963 2805 2039 
Q 2572 2116 2134 2116 
L 1075 2116 
L 1075 541 
z
" transform="scale(0.015625)"/>
      <path id="ArialMT-41" d="M -9 0 
L 1750 4581 
L 2403 4581 
L 4278 0 
L 3588 0 
L 3053 1388 
L 1138 1388 
L 634 0 
L -9 0 
z
M 1313 1881 
L 2866 1881 
L 2388 3150 
Q 2169 3728 2063 4100 
Q 1975 3659 1816 3225 
L 1313 1881 
z
" transform="scale(0.015625)"/>
      <path id="ArialMT-4c" d="M 469 0 
L 469 4581 
L 1075 4581 
L 1075 541 
L 3331 541 
L 3331 0 
L 469 0 
z
" transform="scale(0.015625)"/>
      <path id="ArialMT-5f" d="M -97 -1272 
L -97 -866 
L 3631 -866 
L 3631 -1272 
L -97 -1272 
z
" transform="scale(0.015625)"/>
      <path id="ArialMT-20" transform="scale(0.015625)"/>
      <path id="ArialMT-76" d="M 1344 0 
L 81 3319 
L 675 3319 
L 1388 1331 
Q 1503 1009 1600 663 
Q 1675 925 1809 1294 
L 2547 3319 
L 3125 3319 
L 1869 0 
L 1344 0 
z
" transform="scale(0.015625)"/>
      <path id="ArialMT-73" d="M 197 991 
L 753 1078 
Q 800 744 1014 566 
Q 1228 388 1613 388 
Q 2000 388 2187 545 
Q 2375 703 2375 916 
Q 2375 1106 2209 1216 
Q 2094 1291 1634 1406 
Q 1016 1563 777 1677 
Q 538 1791 414 1992 
Q 291 2194 291 2438 
Q 291 2659 392 2848 
Q 494 3038 669 3163 
Q 800 3259 1026 3326 
Q 1253 3394 1513 3394 
Q 1903 3394 2198 3281 
Q 2494 3169 2634 2976 
Q 2775 2784 2828 2463 
L 2278 2388 
Q 2241 2644 2061 2787 
Q 1881 2931 1553 2931 
Q 1166 2931 1000 2803 
Q 834 2675 834 2503 
Q 834 2394 903 2306 
Q 972 2216 1119 2156 
Q 1203 2125 1616 2013 
Q 2213 1853 2448 1751 
Q 2684 1650 2818 1456 
Q 2953 1263 2953 975 
Q 2953 694 2789 445 
Q 2625 197 2315 61 
Q 2006 -75 1616 -75 
Q 969 -75 630 194 
Q 291 463 197 991 
z
" transform="scale(0.015625)"/>
      <path id="ArialMT-39" d="M 350 1059 
L 891 1109 
Q 959 728 1153 556 
Q 1347 384 1650 384 
Q 1909 384 2104 503 
Q 2300 622 2425 820 
Q 2550 1019 2634 1356 
Q 2719 1694 2719 2044 
Q 2719 2081 2716 2156 
Q 2547 1888 2255 1720 
Q 1963 1553 1622 1553 
Q 1053 1553 659 1965 
Q 266 2378 266 3053 
Q 266 3750 677 4175 
Q 1088 4600 1706 4600 
Q 2153 4600 2523 4359 
Q 2894 4119 3086 3673 
Q 3278 3228 3278 2384 
Q 3278 1506 3087 986 
Q 2897 466 2520 194 
Q 2144 -78 1638 -78 
Q 1100 -78 759 220 
Q 419 519 350 1059 
z
M 2653 3081 
Q 2653 3566 2395 3850 
Q 2138 4134 1775 4134 
Q 1400 4134 1122 3828 
Q 844 3522 844 3034 
Q 844 2597 1108 2323 
Q 1372 2050 1759 2050 
Q 2150 2050 2401 2323 
Q 2653 2597 2653 3081 
z
" transform="scale(0.015625)"/>
      <path id="ArialMT-37" d="M 303 3981 
L 303 4522 
L 3269 4522 
L 3269 4084 
Q 2831 3619 2401 2847 
Q 1972 2075 1738 1259 
Q 1569 684 1522 0 
L 944 0 
Q 953 541 1156 1306 
Q 1359 2072 1739 2783 
Q 2119 3494 2547 3981 
L 303 3981 
z
" transform="scale(0.015625)"/>
      <path id="ArialMT-6f" d="M 213 1659 
Q 213 2581 725 3025 
Q 1153 3394 1769 3394 
Q 2453 3394 2887 2945 
Q 3322 2497 3322 1706 
Q 3322 1066 3130 698 
Q 2938 331 2570 128 
Q 2203 -75 1769 -75 
Q 1072 -75 642 372 
Q 213 819 213 1659 
z
M 791 1659 
Q 791 1022 1069 705 
Q 1347 388 1769 388 
Q 2188 388 2466 706 
Q 2744 1025 2744 1678 
Q 2744 2294 2464 2611 
Q 2184 2928 1769 2928 
Q 1347 2928 1069 2612 
Q 791 2297 791 1659 
z
" transform="scale(0.015625)"/>
      <path id="ArialMT-62" d="M 941 0 
L 419 0 
L 419 4581 
L 981 4581 
L 981 2947 
Q 1338 3394 1891 3394 
Q 2197 3394 2470 3270 
Q 2744 3147 2920 2923 
Q 3097 2700 3197 2384 
Q 3297 2069 3297 1709 
Q 3297 856 2875 390 
Q 2453 -75 1863 -75 
Q 1275 -75 941 416 
L 941 0 
z
M 934 1684 
Q 934 1088 1097 822 
Q 1363 388 1816 388 
Q 2184 388 2453 708 
Q 2722 1028 2722 1663 
Q 2722 2313 2464 2622 
Q 2206 2931 1841 2931 
Q 1472 2931 1203 2611 
Q 934 2291 934 1684 
z
" transform="scale(0.015625)"/>
      <path id="ArialMT-69" d="M 425 3934 
L 425 4581 
L 988 4581 
L 988 3934 
L 425 3934 
z
M 425 0 
L 425 3319 
L 988 3319 
L 988 0 
L 425 0 
z
" transform="scale(0.015625)"/>
      <path id="ArialMT-6c" d="M 409 0 
L 409 4581 
L 972 4581 
L 972 0 
L 409 0 
z
" transform="scale(0.015625)"/>
      <path id="ArialMT-79" d="M 397 -1278 
L 334 -750 
Q 519 -800 656 -800 
Q 844 -800 956 -737 
Q 1069 -675 1141 -563 
Q 1194 -478 1313 -144 
Q 1328 -97 1363 -6 
L 103 3319 
L 709 3319 
L 1400 1397 
Q 1534 1031 1641 628 
Q 1738 1016 1872 1384 
L 2581 3319 
L 3144 3319 
L 1881 -56 
Q 1678 -603 1566 -809 
Q 1416 -1088 1222 -1217 
Q 1028 -1347 759 -1347 
Q 597 -1347 397 -1278 
z
" transform="scale(0.015625)"/>
      <path id="ArialMT-53" d="M 288 1472 
L 859 1522 
Q 900 1178 1048 958 
Q 1197 738 1509 602 
Q 1822 466 2213 466 
Q 2559 466 2825 569 
Q 3091 672 3220 851 
Q 3350 1031 3350 1244 
Q 3350 1459 3225 1620 
Q 3100 1781 2813 1891 
Q 2628 1963 1997 2114 
Q 1366 2266 1113 2400 
Q 784 2572 623 2826 
Q 463 3081 463 3397 
Q 463 3744 659 4045 
Q 856 4347 1234 4503 
Q 1613 4659 2075 4659 
Q 2584 4659 2973 4495 
Q 3363 4331 3572 4012 
Q 3781 3694 3797 3291 
L 3216 3247 
Q 3169 3681 2898 3903 
Q 2628 4125 2100 4125 
Q 1550 4125 1298 3923 
Q 1047 3722 1047 3438 
Q 1047 3191 1225 3031 
Q 1400 2872 2139 2705 
Q 2878 2538 3153 2413 
Q 3553 2228 3743 1945 
Q 3934 1663 3934 1294 
Q 3934 928 3725 604 
Q 3516 281 3123 101 
Q 2731 -78 2241 -78 
Q 1619 -78 1198 103 
Q 778 284 539 648 
Q 300 1013 288 1472 
z
" transform="scale(0.015625)"/>
      <path id="ArialMT-4d" d="M 475 0 
L 475 4581 
L 1388 4581 
L 2472 1338 
Q 2622 884 2691 659 
Q 2769 909 2934 1394 
L 4031 4581 
L 4847 4581 
L 4847 0 
L 4263 0 
L 4263 3834 
L 2931 0 
L 2384 0 
L 1059 3900 
L 1059 0 
L 475 0 
z
" transform="scale(0.015625)"/>
      <path id="ArialMT-3d" d="M 3381 2694 
L 356 2694 
L 356 3219 
L 3381 3219 
L 3381 2694 
z
M 3381 1303 
L 356 1303 
L 356 1828 
L 3381 1828 
L 3381 1303 
z
" transform="scale(0.015625)"/>
     </defs>
     <use xlink:href="#ArialMT-42"/>
     <use xlink:href="#ArialMT-41" x="66.699219"/>
     <use xlink:href="#ArialMT-4c" x="133.398438"/>
     <use xlink:href="#ArialMT-4c" x="189.013672"/>
     <use xlink:href="#ArialMT-5f" x="244.628906"/>
     <use xlink:href="#ArialMT-33" x="300.244141"/>
     <use xlink:href="#ArialMT-38" x="355.859375"/>
     <use xlink:href="#ArialMT-30" x="411.474609"/>
     <use xlink:href="#ArialMT-20" x="467.089844"/>
     <use xlink:href="#ArialMT-76" x="494.873047"/>
     <use xlink:href="#ArialMT-73" x="544.873047"/>
     <use xlink:href="#ArialMT-2e" x="594.873047"/>
     <use xlink:href="#ArialMT-20" x="622.65625"/>
     <use xlink:href="#ArialMT-42" x="650.439453"/>
     <use xlink:href="#ArialMT-41" x="717.138672"/>
     <use xlink:href="#ArialMT-4c" x="783.837891"/>
     <use xlink:href="#ArialMT-4c" x="839.453125"/>
     <use xlink:href="#ArialMT-5f" x="895.068359"/>
     <use xlink:href="#ArialMT-36" x="950.683594"/>
     <use xlink:href="#ArialMT-39" x="1006.298828"/>
     <use xlink:href="#ArialMT-37" x="1061.914062"/>
     <use xlink:href="#ArialMT-20" x="1117.529297"/>
     <use xlink:href="#ArialMT-70" x="1145.3125"/>
     <use xlink:href="#ArialMT-72" x="1200.927734"/>
     <use xlink:href="#ArialMT-6f" x="1234.228516"/>
     <use xlink:href="#ArialMT-62" x="1289.84375"/>
     <use xlink:href="#ArialMT-61" x="1345.458984"/>
     <use xlink:href="#ArialMT-62" x="1401.074219"/>
     <use xlink:href="#ArialMT-69" x="1456.689453"/>
     <use xlink:href="#ArialMT-6c" x="1478.90625"/>
     <use xlink:href="#ArialMT-69" x="1501.123047"/>
     <use xlink:href="#ArialMT-74" x="1523.339844"/>
     <use xlink:href="#ArialMT-79" x="1551.123047"/>
     <use xlink:href="#ArialMT-20" x="1601.123047"/>
     <use xlink:href="#ArialMT-50" x="1628.90625"/>
     <use xlink:href="#ArialMT-50" x="1695.605469"/>
     <use xlink:href="#ArialMT-53" x="1762.304688"/>
     <use xlink:href="#ArialMT-4d" x="1829.003906"/>
     <use xlink:href="#ArialMT-20" x="1912.304688"/>
     <use xlink:href="#ArialMT-6e" x="1940.087891"/>
     <use xlink:href="#ArialMT-3d" x="1995.703125"/>
     <use xlink:href="#ArialMT-31" x="2054.101562"/>
     <use xlink:href="#ArialMT-34" x="2109.716797"/>
    </g>
   </g>
  </g>
 </g>
 <defs>
  <clipPath id="pea3d28a9b7">
   <rect x="90" y="51.84" width="558" height="332.64"/>
  </clipPath>
 </defs>
</svg>
