<?xml version="1.0" encoding="utf-8" standalone="no"?>
<!DOCTYPE svg PUBLIC "-//W3C//DTD SVG 1.1//EN"
  "http://www.w3.org/Graphics/SVG/1.1/DTD/svg11.dtd">
<svg xmlns:xlink="http://www.w3.org/1999/xlink" width="720pt" height="432pt" viewBox="0 0 720 432" xmlns="http://www.w3.org/2000/svg" version="1.1">
 <metadata>
  <rdf:RDF xmlns:dc="http://purl.org/dc/elements/1.1/" xmlns:cc="http://creativecommons.org/ns#" xmlns:rdf="http://www.w3.org/1999/02/22-rdf-syntax-ns#">
   <cc:Work>
    <dc:type rdf:resource="http://purl.org/dc/dcmitype/StillImage"/>
    <dc:date>2023-10-18T16:08:49.185059</dc:date>
    <dc:format>image/svg+xml</dc:format>
    <dc:creator>
     <cc:Agent>
      <dc:title>Matplotlib v3.7.1, https://matplotlib.org/</dc:title>
     </cc:Agent>
    </dc:creator>
   </cc:Work>
  </rdf:RDF>
 </metadata>
 <defs>
  <style type="text/css">*{stroke-linejoin: round; stroke-linecap: butt}</style>
 </defs>
 <g id="figure_1">
  <g id="patch_1">
   <path d="M 0 432 
L 720 432 
L 720 0 
L 0 0 
z
" style="fill: #ffffff"/>
  </g>
  <g id="axes_1">
   <g id="patch_2">
    <path d="M 90 384.48 
L 648 384.48 
L 648 51.84 
L 90 51.84 
z
" style="fill: #ffffff"/>
   </g>
   <g id="patch_3">
    <path d="M 307 384.48 
L 369 384.48 
L 369 51.84 
L 307 51.84 
z
" clip-path="url(#pe7d691914c)" style="fill: #ffd700; opacity: 0.35; stroke: #ffffff; stroke-width: 0.8; stroke-linejoin: miter"/>
   </g>
   <g id="line2d_1">
    <path d="M 90 384.48 
L 648 384.48 
" clip-path="url(#pe7d691914c)" style="fill: none; stroke: #000000; stroke-width: 0.5; stroke-linecap: round"/>
   </g>
   <g id="patch_4">
    <path d="M 125.65 330.426 
L 139.537864 330.426 
L 139.537864 349.648804 
L 159.555783 330.426 
L 175.683253 330.426 
L 149.743078 355.371624 
L 178.35 383.094 
L 160.964195 383.094 
L 139.537864 362.347368 
L 139.537864 383.094 
L 125.65 383.094 
L 125.65 330.426 
z
" clip-path="url(#pe7d691914c)" style="fill: #bd2e1f"/>
   </g>
   <g id="patch_5">
    <path d="M 147.032787 298.34007 
Q 151.762274 298.34007 153.814221 296.759805 
Q 155.866168 295.168251 155.866168 291.53364 
Q 155.866168 287.932892 153.814221 286.386489 
Q 151.762274 284.828798 147.032787 284.828798 
L 140.701781 284.828798 
L 140.701781 298.34007 
L 147.032787 298.34007 
z
M 140.701781 307.720076 
L 140.701781 327.654 
L 125.65 327.654 
L 125.65 274.986 
L 148.634307 274.986 
Q 160.170252 274.986 165.537844 278.48516 
Q 170.917949 281.973032 170.917949 289.524445 
Q 170.917949 294.739322 168.11529 298.091743 
Q 165.325142 301.444164 159.694801 303.035717 
Q 162.785233 303.667823 165.225047 305.914058 
Q 167.677374 308.149006 170.179748 312.697913 
L 178.35 327.654 
L 162.322293 327.654 
L 155.203039 314.571657 
Q 153.050997 310.620993 150.836396 309.176178 
Q 148.634307 307.720076 144.955817 307.720076 
L 140.701781 307.720076 
z
" clip-path="url(#pe7d691914c)" style="fill: #bd2e1f"/>
   </g>
   <g id="patch_6">
    <path d="M 125.65 219.546 
L 178.35 219.546 
L 178.35 229.817727 
L 159.390256 229.817727 
L 159.390256 272.214 
L 144.646512 272.214 
L 144.646512 229.817727 
L 125.65 229.817727 
L 125.65 219.546 
z
" clip-path="url(#pe7d691914c)" style="fill: #40ba47"/>
   </g>
   <g id="patch_7">
    <path d="M 125.65 164.106 
L 138.68762 164.106 
L 152.016162 202.980538 
L 165.323155 164.106 
L 178.35 164.106 
L 159.730985 216.774 
L 144.269015 216.774 
L 125.65 164.106 
z
" clip-path="url(#pe7d691914c)" style="fill: #21599c"/>
   </g>
   <g id="patch_8">
    <path d="M 162.155336 140.759059 
L 141.887763 140.759059 
L 138.68762 159.948 
L 125.65 159.948 
L 144.269015 54.612 
L 159.730985 54.612 
L 178.35 159.948 
L 165.323155 159.948 
L 162.155336 140.759059 
z
M 145.120231 121.208914 
L 158.890544 121.208914 
L 152.016162 79.309296 
L 145.120231 121.208914 
z
" clip-path="url(#pe7d691914c)" style="fill: #21599c"/>
   </g>
   <g id="patch_9">
    <path d="M 224.155336 373.499529 
L 203.887763 373.499529 
L 200.68762 383.094 
L 187.65 383.094 
L 206.269015 330.426 
L 221.730985 330.426 
L 240.35 383.094 
L 227.323155 383.094 
L 224.155336 373.499529 
z
M 207.120231 363.724457 
L 220.890544 363.724457 
L 214.016162 342.774648 
L 207.120231 363.724457 
z
" clip-path="url(#pe7d691914c)" style="fill: #21599c"/>
   </g>
   <g id="patch_10">
    <path d="M 215.405333 319.777892 
L 214.373292 319.777892 
Q 201.714313 319.777892 194.676667 313.875443 
Q 187.65 307.963729 187.65 297.428276 
Q 187.65 286.911355 194.665687 280.95331 
Q 201.681375 274.986 214 274.986 
Q 226.450375 274.986 233.400187 280.897714 
Q 240.35 286.800163 240.35 297.428276 
Q 240.35 304.720626 236.661 309.992985 
Q 232.972 315.265345 226.044146 317.92469 
L 236.364562 327.654 
L 223.771458 327.654 
L 215.405333 319.777892 
z
M 214 283.065961 
Q 207.961458 283.065961 204.634771 286.827961 
Q 201.308083 290.589961 201.308083 297.428276 
Q 201.308083 304.377783 204.557917 308.074921 
Q 207.818729 311.762793 214 311.762793 
Q 220.071479 311.762793 223.398167 308.000793 
Q 226.724854 304.229527 226.724854 297.428276 
Q 226.724854 290.589961 223.398167 286.827961 
Q 220.071479 283.065961 214 283.065961 
z
" clip-path="url(#pe7d691914c)" style="fill: #40ba47"/>
   </g>
   <g id="patch_11">
    <path d="M 187.65 219.546 
L 204.578032 219.546 
L 225.968106 255.66636 
L 225.968106 219.546 
L 240.35 219.546 
L 240.35 272.214 
L 223.409364 272.214 
L 202.01929 236.09364 
L 202.01929 272.214 
L 187.65 272.214 
L 187.65 219.546 
z
" clip-path="url(#pe7d691914c)" style="fill: #40ba47"/>
   </g>
   <g id="patch_12">
    <path d="M 235.955948 166.619181 
L 235.955948 177.368196 
Q 230.459804 175.49691 225.221293 174.550388 
Q 219.997094 173.592985 215.34541 173.592985 
Q 209.176562 173.592985 206.213797 174.887654 
Q 203.265345 176.171444 203.265345 178.891336 
Q 203.265345 180.936695 205.254834 182.07905 
Q 207.244324 183.210526 212.482835 184.026493 
L 219.811027 185.147089 
Q 230.946442 186.855182 235.641065 190.325765 
Q 240.35 193.785468 240.35 200.182655 
Q 240.35 208.570804 233.794704 212.672402 
Q 227.239408 216.774 213.770994 216.774 
Q 207.430391 216.774 201.032537 215.849237 
Q 194.634682 214.935353 188.236828 213.129344 
L 188.236828 202.08658 
Q 194.634682 204.665038 200.60315 205.981466 
Q 206.571619 207.287015 212.125014 207.287015 
Q 217.764286 207.287015 220.755676 205.861791 
Q 223.747067 204.425688 223.747067 201.771073 
Q 223.747067 199.399326 221.714639 198.104657 
Q 219.682211 196.809988 213.59924 195.787309 
L 206.929441 194.666713 
Q 196.910429 193.034778 192.273058 189.466278 
Q 187.65 185.897779 187.65 179.848738 
Q 187.65 172.265678 194.090793 168.185839 
Q 200.531586 164.106 212.611651 164.106 
Q 218.122108 164.106 223.933134 164.737015 
Q 229.744161 165.36803 235.955948 166.619181 
z
" clip-path="url(#pe7d691914c)" style="fill: #40ba47"/>
   </g>
   <g id="patch_13">
    <path d="M 187.65 54.612 
L 206.774615 54.612 
L 206.774615 139.42712 
L 240.35 139.42712 
L 240.35 159.948 
L 187.65 159.948 
L 187.65 54.612 
z
" clip-path="url(#pe7d691914c)" style="fill: #21599c"/>
   </g>
   <g id="patch_14">
    <path d="M 249.65 330.426 
L 262.68762 330.426 
L 276.016162 369.300538 
L 289.323155 330.426 
L 302.35 330.426 
L 283.730985 383.094 
L 268.269015 383.094 
L 249.65 330.426 
z
" clip-path="url(#pe7d691914c)" style="fill: #21599c"/>
   </g>
   <g id="patch_15">
    <path d="M 286.155336 318.059529 
L 265.887763 318.059529 
L 262.68762 327.654 
L 249.65 327.654 
L 268.269015 274.986 
L 283.730985 274.986 
L 302.35 327.654 
L 289.323155 327.654 
L 286.155336 318.059529 
z
M 269.120231 308.284457 
L 282.890544 308.284457 
L 276.016162 287.334648 
L 269.120231 308.284457 
z
" clip-path="url(#pe7d691914c)" style="fill: #21599c"/>
   </g>
   <g id="patch_16">
    <path d="M 250.198462 219.546 
L 301.801538 219.546 
L 301.801538 229.817727 
L 269.323077 229.817727 
L 269.323077 239.615375 
L 299.877949 239.615375 
L 299.877949 249.887102 
L 269.323077 249.887102 
L 269.323077 272.214 
L 250.198462 272.214 
L 250.198462 219.546 
z
" clip-path="url(#pe7d691914c)" style="fill: #21599c"/>
   </g>
   <g id="patch_17">
    <path d="M 302.35 212.998789 
Q 297.941736 214.870075 293.174969 215.816598 
Q 288.408201 216.774 283.216541 216.774 
Q 267.734505 216.774 258.692252 209.68052 
Q 249.65 202.58704 249.65 190.456319 
Q 249.65 178.28208 258.692252 171.19948 
Q 267.734505 164.106 283.216541 164.106 
Q 288.408201 164.106 293.174969 165.063402 
Q 297.941736 166.009925 302.35 167.881211 
L 302.35 178.379996 
Q 297.901902 175.899454 293.586584 174.74622 
Q 289.271265 173.592985 284.504497 173.592985 
Q 275.953527 173.592985 271.053981 178.086248 
Q 266.167712 182.568631 266.167712 190.456319 
Q 266.167712 198.311369 271.053981 202.804632 
Q 275.953527 207.287015 284.504497 207.287015 
Q 289.271265 207.287015 293.586584 206.13378 
Q 297.901902 204.969666 302.35 202.489124 
L 302.35 212.998789 
z
" clip-path="url(#pe7d691914c)" style="fill: #6b296b"/>
   </g>
   <g id="patch_18">
    <path d="M 277.405333 153.457892 
L 276.373292 153.457892 
Q 263.714313 153.457892 256.676667 147.555443 
Q 249.65 141.643729 249.65 131.108276 
Q 249.65 120.591355 256.665687 114.63331 
Q 263.681375 108.666 276 108.666 
Q 288.450375 108.666 295.400188 114.577714 
Q 302.35 120.480163 302.35 131.108276 
Q 302.35 138.400626 298.661 143.672985 
Q 294.972 148.945345 288.044146 151.60469 
L 298.364562 161.334 
L 285.771458 161.334 
L 277.405333 153.457892 
z
M 276 116.745961 
Q 269.961458 116.745961 266.634771 120.507961 
Q 263.308083 124.269961 263.308083 131.108276 
Q 263.308083 138.057783 266.557917 141.754921 
Q 269.818729 145.442793 276 145.442793 
Q 282.071479 145.442793 285.398167 141.680793 
Q 288.724854 137.909527 288.724854 131.108276 
Q 288.724854 124.269961 285.398167 120.507961 
Q 282.071479 116.745961 276 116.745961 
z
" clip-path="url(#pe7d691914c)" style="fill: #40ba47"/>
   </g>
   <g id="patch_19">
    <path d="M 249.65 53.226 
L 268.774615 53.226 
L 268.774615 95.63356 
L 302.35 95.63356 
L 302.35 105.894 
L 249.65 105.894 
L 249.65 53.226 
z
" clip-path="url(#pe7d691914c)" style="fill: #21599c"/>
   </g>
   <g id="patch_20">
    <path d="M 311.65 60.156 
L 363.253077 60.156 
L 363.253077 121.786364 
L 330.774615 121.786364 
L 330.774615 180.57225 
L 361.329487 180.57225 
L 361.329487 242.202615 
L 330.774615 242.202615 
L 330.774615 314.601361 
L 364.35 314.601361 
L 364.35 376.164 
L 311.65 376.164 
L 311.65 60.156 
z
" clip-path="url(#pe7d691914c)" style="fill: #6b296b"/>
   </g>
   <g id="patch_21">
    <path d="M 395.032787 353.78007 
Q 399.762274 353.78007 401.814221 352.199805 
Q 403.866168 350.608251 403.866168 346.97364 
Q 403.866168 343.372892 401.814221 341.826489 
Q 399.762274 340.268798 395.032787 340.268798 
L 388.701781 340.268798 
L 388.701781 353.78007 
L 395.032787 353.78007 
z
M 388.701781 363.160076 
L 388.701781 383.094 
L 373.65 383.094 
L 373.65 330.426 
L 396.634307 330.426 
Q 408.170252 330.426 413.537844 333.92516 
Q 418.917949 337.413032 418.917949 344.964445 
Q 418.917949 350.179322 416.11529 353.531743 
Q 413.325142 356.884164 407.694801 358.475717 
Q 410.785233 359.107823 413.225047 361.354058 
Q 415.677374 363.589006 418.179748 368.137913 
L 426.35 383.094 
L 410.322293 383.094 
L 403.203039 370.011657 
Q 401.050997 366.060993 398.836396 364.616178 
Q 396.634307 363.160076 392.955817 363.160076 
L 388.701781 363.160076 
z
" clip-path="url(#pe7d691914c)" style="fill: #bd2e1f"/>
   </g>
   <g id="patch_22">
    <path d="M 390.437692 220.932 
L 409.562308 220.932 
L 409.562308 326.268 
L 390.437692 326.268 
L 390.437692 220.932 
z
" clip-path="url(#pe7d691914c)" style="fill: #21599c"/>
   </g>
   <g id="patch_23">
    <path d="M 373.65 55.998 
L 392.774615 55.998 
L 392.774615 183.220681 
L 426.35 183.220681 
L 426.35 214.002 
L 373.65 214.002 
L 373.65 55.998 
z
" clip-path="url(#pe7d691914c)" style="fill: #21599c"/>
   </g>
   <g id="patch_24">
    <path d="M 436.198462 330.426 
L 487.801538 330.426 
L 487.801538 340.697727 
L 455.323077 340.697727 
L 455.323077 350.495375 
L 485.877949 350.495375 
L 485.877949 360.767102 
L 455.323077 360.767102 
L 455.323077 383.094 
L 436.198462 383.094 
L 436.198462 330.426 
z
" clip-path="url(#pe7d691914c)" style="fill: #21599c"/>
   </g>
   <g id="patch_25">
    <path d="M 435.65 274.986 
L 487.253077 274.986 
L 487.253077 285.257727 
L 454.774615 285.257727 
L 454.774615 295.055375 
L 485.329487 295.055375 
L 485.329487 305.327102 
L 454.774615 305.327102 
L 454.774615 317.39356 
L 488.35 317.39356 
L 488.35 327.654 
L 435.65 327.654 
L 435.65 274.986 
z
" clip-path="url(#pe7d691914c)" style="fill: #6b296b"/>
   </g>
   <g id="patch_26">
    <path d="M 435.65 219.546 
L 488.35 219.546 
L 488.35 229.817727 
L 469.390256 229.817727 
L 469.390256 272.214 
L 454.646512 272.214 
L 454.646512 229.817727 
L 435.65 229.817727 
L 435.65 219.546 
z
" clip-path="url(#pe7d691914c)" style="fill: #40ba47"/>
   </g>
   <g id="patch_27">
    <path d="M 472.155336 185.218588 
L 451.887763 185.218588 
L 448.68762 214.002 
L 435.65 214.002 
L 454.269015 55.998 
L 469.730985 55.998 
L 488.35 214.002 
L 475.323155 214.002 
L 472.155336 185.218588 
z
M 455.120231 155.893371 
L 468.890544 155.893371 
L 462.016162 93.043944 
L 455.120231 155.893371 
z
" clip-path="url(#pe7d691914c)" style="fill: #21599c"/>
   </g>
   <g id="patch_28">
    <path d="M 497.65 330.426 
L 513.195992 330.426 
L 523.979692 358.611168 
L 534.83447 330.426 
L 550.35 330.426 
L 550.35 383.094 
L 538.80474 383.094 
L 538.80474 344.569378 
L 527.889037 372.969012 
L 520.141426 372.969012 
L 509.225723 344.569378 
L 509.225723 383.094 
L 497.65 383.094 
L 497.65 330.426 
z
" clip-path="url(#pe7d691914c)" style="fill: #21599c"/>
   </g>
   <g id="patch_29">
    <path d="M 498.198462 274.986 
L 549.801538 274.986 
L 549.801538 285.257727 
L 517.323077 285.257727 
L 517.323077 295.055375 
L 547.877949 295.055375 
L 547.877949 305.327102 
L 517.323077 305.327102 
L 517.323077 327.654 
L 498.198462 327.654 
L 498.198462 274.986 
z
" clip-path="url(#pe7d691914c)" style="fill: #21599c"/>
   </g>
   <g id="patch_30">
    <path d="M 497.65 165.492 
L 511.537864 165.492 
L 511.537864 203.937608 
L 531.555783 165.492 
L 547.683253 165.492 
L 521.743078 215.383247 
L 550.35 270.828 
L 532.964195 270.828 
L 511.537864 229.334736 
L 511.537864 270.828 
L 497.65 270.828 
L 497.65 165.492 
z
" clip-path="url(#pe7d691914c)" style="fill: #bd2e1f"/>
   </g>
   <g id="patch_31">
    <path d="M 534.155336 140.759059 
L 513.887763 140.759059 
L 510.68762 159.948 
L 497.65 159.948 
L 516.269015 54.612 
L 531.730985 54.612 
L 550.35 159.948 
L 537.323155 159.948 
L 534.155336 140.759059 
z
M 517.120231 121.208914 
L 530.890544 121.208914 
L 524.016162 79.309296 
L 517.120231 121.208914 
z
" clip-path="url(#pe7d691914c)" style="fill: #21599c"/>
   </g>
   <g id="patch_32">
    <path d="M 559.65 330.426 
L 575.195992 330.426 
L 585.979692 358.611168 
L 596.83447 330.426 
L 612.35 330.426 
L 612.35 383.094 
L 600.80474 383.094 
L 600.80474 344.569378 
L 589.889037 372.969012 
L 582.141426 372.969012 
L 571.225723 344.569378 
L 571.225723 383.094 
L 559.65 383.094 
L 559.65 330.426 
z
" clip-path="url(#pe7d691914c)" style="fill: #21599c"/>
   </g>
   <g id="patch_33">
    <path d="M 574.091481 285.257727 
L 574.091481 317.39356 
L 579.265444 317.39356 
Q 588.112802 317.39356 592.782574 313.262294 
Q 597.464351 309.131028 597.464351 301.263562 
Q 597.464351 293.441246 592.806583 289.355131 
Q 588.16082 285.257727 579.265444 285.257727 
L 574.091481 285.257727 
z
M 559.65 274.986 
L 574.871777 274.986 
Q 587.63262 274.986 593.874989 276.701717 
Q 600.117358 278.406147 604.583052 282.50355 
Q 608.520547 286.070435 610.429271 290.732219 
Q 612.35 295.382716 612.35 301.263562 
Q 612.35 307.234709 610.429271 311.907781 
Q 608.520547 316.580852 604.583052 320.13645 
Q 600.081344 324.233853 593.778952 325.949571 
Q 587.47656 327.654 574.871777 327.654 
L 559.65 327.654 
L 559.65 274.986 
z
" clip-path="url(#pe7d691914c)" style="fill: #6b296b"/>
   </g>
   <g id="patch_34">
    <path d="M 559.65 219.546 
L 572.68762 219.546 
L 586.016162 258.420538 
L 599.323155 219.546 
L 612.35 219.546 
L 593.730985 272.214 
L 578.269015 272.214 
L 559.65 219.546 
z
" clip-path="url(#pe7d691914c)" style="fill: #21599c"/>
   </g>
   <g id="patch_35">
    <path d="M 576.437692 164.106 
L 595.562308 164.106 
L 595.562308 216.774 
L 576.437692 216.774 
L 576.437692 164.106 
z
" clip-path="url(#pe7d691914c)" style="fill: #21599c"/>
   </g>
   <g id="patch_36">
    <path d="M 559.65 54.612 
L 576.578032 54.612 
L 597.968106 126.85272 
L 597.968106 54.612 
L 612.35 54.612 
L 612.35 159.948 
L 595.409364 159.948 
L 574.01929 87.70728 
L 574.01929 159.948 
L 559.65 159.948 
L 559.65 54.612 
z
" clip-path="url(#pe7d691914c)" style="fill: #40ba47"/>
   </g>
   <g id="matplotlib.axis_1">
    <g id="xtick_1">
     <g id="line2d_2">
      <defs>
       <path id="mb2a500201a" d="M 0 0 
L 0 4.8 
" style="stroke: #262626"/>
      </defs>
      <g>
       <use xlink:href="#mb2a500201a" x="152" y="384.48" style="fill: #262626; stroke: #262626"/>
      </g>
     </g>
     <g id="text_1">
      <!-- P4 -->
      <g style="fill: #262626" transform="translate(146.61825 399.078875) scale(0.088 -0.088)">
       <defs>
        <path id="ArialMT-50" d="M 494 0 
L 494 4581 
L 2222 4581 
Q 2678 4581 2919 4538 
Q 3256 4481 3484 4323 
Q 3713 4166 3852 3881 
Q 3991 3597 3991 3256 
Q 3991 2672 3619 2267 
Q 3247 1863 2275 1863 
L 1100 1863 
L 1100 0 
L 494 0 
z
M 1100 2403 
L 2284 2403 
Q 2872 2403 3119 2622 
Q 3366 2841 3366 3238 
Q 3366 3525 3220 3729 
Q 3075 3934 2838 4000 
Q 2684 4041 2272 4041 
L 1100 4041 
L 1100 2403 
z
" transform="scale(0.015625)"/>
        <path id="ArialMT-34" d="M 2069 0 
L 2069 1097 
L 81 1097 
L 81 1613 
L 2172 4581 
L 2631 4581 
L 2631 1613 
L 3250 1613 
L 3250 1097 
L 2631 1097 
L 2631 0 
L 2069 0 
z
M 2069 1613 
L 2069 3678 
L 634 1613 
L 2069 1613 
z
" transform="scale(0.015625)"/>
       </defs>
       <use xlink:href="#ArialMT-50"/>
       <use xlink:href="#ArialMT-34" x="66.699219"/>
      </g>
     </g>
    </g>
    <g id="xtick_2">
     <g id="line2d_3">
      <g>
       <use xlink:href="#mb2a500201a" x="214" y="384.48" style="fill: #262626; stroke: #262626"/>
      </g>
     </g>
     <g id="text_2">
      <!-- P3 -->
      <g style="fill: #262626" transform="translate(208.61825 399.078875) scale(0.088 -0.088)">
       <defs>
        <path id="ArialMT-33" d="M 269 1209 
L 831 1284 
Q 928 806 1161 595 
Q 1394 384 1728 384 
Q 2125 384 2398 659 
Q 2672 934 2672 1341 
Q 2672 1728 2419 1979 
Q 2166 2231 1775 2231 
Q 1616 2231 1378 2169 
L 1441 2663 
Q 1497 2656 1531 2656 
Q 1891 2656 2178 2843 
Q 2466 3031 2466 3422 
Q 2466 3731 2256 3934 
Q 2047 4138 1716 4138 
Q 1388 4138 1169 3931 
Q 950 3725 888 3313 
L 325 3413 
Q 428 3978 793 4289 
Q 1159 4600 1703 4600 
Q 2078 4600 2393 4439 
Q 2709 4278 2876 4000 
Q 3044 3722 3044 3409 
Q 3044 3113 2884 2869 
Q 2725 2625 2413 2481 
Q 2819 2388 3044 2092 
Q 3269 1797 3269 1353 
Q 3269 753 2831 336 
Q 2394 -81 1725 -81 
Q 1122 -81 723 278 
Q 325 638 269 1209 
z
" transform="scale(0.015625)"/>
       </defs>
       <use xlink:href="#ArialMT-50"/>
       <use xlink:href="#ArialMT-33" x="66.699219"/>
      </g>
     </g>
    </g>
    <g id="xtick_3">
     <g id="line2d_4">
      <g>
       <use xlink:href="#mb2a500201a" x="276" y="384.48" style="fill: #262626; stroke: #262626"/>
      </g>
     </g>
     <g id="text_3">
      <!-- P2 -->
      <g style="fill: #262626" transform="translate(270.61825 399.078875) scale(0.088 -0.088)">
       <defs>
        <path id="ArialMT-32" d="M 3222 541 
L 3222 0 
L 194 0 
Q 188 203 259 391 
Q 375 700 629 1000 
Q 884 1300 1366 1694 
Q 2113 2306 2375 2664 
Q 2638 3022 2638 3341 
Q 2638 3675 2398 3904 
Q 2159 4134 1775 4134 
Q 1369 4134 1125 3890 
Q 881 3647 878 3216 
L 300 3275 
Q 359 3922 746 4261 
Q 1134 4600 1788 4600 
Q 2447 4600 2831 4234 
Q 3216 3869 3216 3328 
Q 3216 3053 3103 2787 
Q 2991 2522 2730 2228 
Q 2469 1934 1863 1422 
Q 1356 997 1212 845 
Q 1069 694 975 541 
L 3222 541 
z
" transform="scale(0.015625)"/>
       </defs>
       <use xlink:href="#ArialMT-50"/>
       <use xlink:href="#ArialMT-32" x="66.699219"/>
      </g>
     </g>
    </g>
    <g id="xtick_4">
     <g id="line2d_5">
      <g>
       <use xlink:href="#mb2a500201a" x="338" y="384.48" style="fill: #262626; stroke: #262626"/>
      </g>
     </g>
     <g id="text_4">
      <!-- P1 -->
      <g style="fill: #262626" transform="translate(332.61825 399.078875) scale(0.088 -0.088)">
       <defs>
        <path id="ArialMT-31" d="M 2384 0 
L 1822 0 
L 1822 3584 
Q 1619 3391 1289 3197 
Q 959 3003 697 2906 
L 697 3450 
Q 1169 3672 1522 3987 
Q 1875 4303 2022 4600 
L 2384 4600 
L 2384 0 
z
" transform="scale(0.015625)"/>
       </defs>
       <use xlink:href="#ArialMT-50"/>
       <use xlink:href="#ArialMT-31" x="66.699219"/>
      </g>
     </g>
    </g>
    <g id="xtick_5">
     <g id="line2d_6">
      <g>
       <use xlink:href="#mb2a500201a" x="400" y="384.48" style="fill: #262626; stroke: #262626"/>
      </g>
     </g>
     <g id="text_5">
      <!-- P1' -->
      <g style="fill: #262626" transform="translate(393.778125 399.078875) scale(0.088 -0.088)">
       <defs>
        <path id="ArialMT-27" d="M 425 2959 
L 281 3816 
L 281 4581 
L 922 4581 
L 922 3816 
L 772 2959 
L 425 2959 
z
" transform="scale(0.015625)"/>
       </defs>
       <use xlink:href="#ArialMT-50"/>
       <use xlink:href="#ArialMT-31" x="66.699219"/>
       <use xlink:href="#ArialMT-27" x="122.314453"/>
      </g>
     </g>
    </g>
    <g id="xtick_6">
     <g id="line2d_7">
      <g>
       <use xlink:href="#mb2a500201a" x="462" y="384.48" style="fill: #262626; stroke: #262626"/>
      </g>
     </g>
     <g id="text_6">
      <!-- P2' -->
      <g style="fill: #262626" transform="translate(455.778125 399.078875) scale(0.088 -0.088)">
       <use xlink:href="#ArialMT-50"/>
       <use xlink:href="#ArialMT-32" x="66.699219"/>
       <use xlink:href="#ArialMT-27" x="122.314453"/>
      </g>
     </g>
    </g>
    <g id="xtick_7">
     <g id="line2d_8">
      <g>
       <use xlink:href="#mb2a500201a" x="524" y="384.48" style="fill: #262626; stroke: #262626"/>
      </g>
     </g>
     <g id="text_7">
      <!-- P3' -->
      <g style="fill: #262626" transform="translate(517.778125 399.078875) scale(0.088 -0.088)">
       <use xlink:href="#ArialMT-50"/>
       <use xlink:href="#ArialMT-33" x="66.699219"/>
       <use xlink:href="#ArialMT-27" x="122.314453"/>
      </g>
     </g>
    </g>
    <g id="xtick_8">
     <g id="line2d_9">
      <g>
       <use xlink:href="#mb2a500201a" x="586" y="384.48" style="fill: #262626; stroke: #262626"/>
      </g>
     </g>
     <g id="text_8">
      <!-- P4' -->
      <g style="fill: #262626" transform="translate(579.778125 399.078875) scale(0.088 -0.088)">
       <use xlink:href="#ArialMT-50"/>
       <use xlink:href="#ArialMT-34" x="66.699219"/>
       <use xlink:href="#ArialMT-27" x="122.314453"/>
      </g>
     </g>
    </g>
   </g>
   <g id="matplotlib.axis_2">
    <g id="ytick_1">
     <g id="line2d_10">
      <defs>
       <path id="mb9a1557203" d="M 0 0 
L -4.8 0 
" style="stroke: #262626"/>
      </defs>
      <g>
       <use xlink:href="#mb9a1557203" x="90" y="384.48" style="fill: #262626; stroke: #262626"/>
      </g>
     </g>
     <g id="text_9">
      <!-- 0.0 -->
      <g style="fill: #262626" transform="translate(69.468 387.629437) scale(0.088 -0.088)">
       <defs>
        <path id="ArialMT-30" d="M 266 2259 
Q 266 3072 433 3567 
Q 600 4063 929 4331 
Q 1259 4600 1759 4600 
Q 2128 4600 2406 4451 
Q 2684 4303 2865 4023 
Q 3047 3744 3150 3342 
Q 3253 2941 3253 2259 
Q 3253 1453 3087 958 
Q 2922 463 2592 192 
Q 2263 -78 1759 -78 
Q 1097 -78 719 397 
Q 266 969 266 2259 
z
M 844 2259 
Q 844 1131 1108 757 
Q 1372 384 1759 384 
Q 2147 384 2411 759 
Q 2675 1134 2675 2259 
Q 2675 3391 2411 3762 
Q 2147 4134 1753 4134 
Q 1366 4134 1134 3806 
Q 844 3388 844 2259 
z
" transform="scale(0.015625)"/>
        <path id="ArialMT-2e" d="M 581 0 
L 581 641 
L 1222 641 
L 1222 0 
L 581 0 
z
" transform="scale(0.015625)"/>
       </defs>
       <use xlink:href="#ArialMT-30"/>
       <use xlink:href="#ArialMT-2e" x="55.615234"/>
       <use xlink:href="#ArialMT-30" x="83.398438"/>
      </g>
     </g>
    </g>
    <g id="ytick_2">
     <g id="line2d_11">
      <g>
       <use xlink:href="#mb9a1557203" x="90" y="317.952" style="fill: #262626; stroke: #262626"/>
      </g>
     </g>
     <g id="text_10">
      <!-- 0.2 -->
      <g style="fill: #262626" transform="translate(69.468 321.101437) scale(0.088 -0.088)">
       <use xlink:href="#ArialMT-30"/>
       <use xlink:href="#ArialMT-2e" x="55.615234"/>
       <use xlink:href="#ArialMT-32" x="83.398438"/>
      </g>
     </g>
    </g>
    <g id="ytick_3">
     <g id="line2d_12">
      <g>
       <use xlink:href="#mb9a1557203" x="90" y="251.424" style="fill: #262626; stroke: #262626"/>
      </g>
     </g>
     <g id="text_11">
      <!-- 0.4 -->
      <g style="fill: #262626" transform="translate(69.468 254.573437) scale(0.088 -0.088)">
       <use xlink:href="#ArialMT-30"/>
       <use xlink:href="#ArialMT-2e" x="55.615234"/>
       <use xlink:href="#ArialMT-34" x="83.398438"/>
      </g>
     </g>
    </g>
    <g id="ytick_4">
     <g id="line2d_13">
      <g>
       <use xlink:href="#mb9a1557203" x="90" y="184.896" style="fill: #262626; stroke: #262626"/>
      </g>
     </g>
     <g id="text_12">
      <!-- 0.6 -->
      <g style="fill: #262626" transform="translate(69.468 188.045437) scale(0.088 -0.088)">
       <defs>
        <path id="ArialMT-36" d="M 3184 3459 
L 2625 3416 
Q 2550 3747 2413 3897 
Q 2184 4138 1850 4138 
Q 1581 4138 1378 3988 
Q 1113 3794 959 3422 
Q 806 3050 800 2363 
Q 1003 2672 1297 2822 
Q 1591 2972 1913 2972 
Q 2475 2972 2870 2558 
Q 3266 2144 3266 1488 
Q 3266 1056 3080 686 
Q 2894 316 2569 119 
Q 2244 -78 1831 -78 
Q 1128 -78 684 439 
Q 241 956 241 2144 
Q 241 3472 731 4075 
Q 1159 4600 1884 4600 
Q 2425 4600 2770 4297 
Q 3116 3994 3184 3459 
z
M 888 1484 
Q 888 1194 1011 928 
Q 1134 663 1356 523 
Q 1578 384 1822 384 
Q 2178 384 2434 671 
Q 2691 959 2691 1453 
Q 2691 1928 2437 2201 
Q 2184 2475 1800 2475 
Q 1419 2475 1153 2201 
Q 888 1928 888 1484 
z
" transform="scale(0.015625)"/>
       </defs>
       <use xlink:href="#ArialMT-30"/>
       <use xlink:href="#ArialMT-2e" x="55.615234"/>
       <use xlink:href="#ArialMT-36" x="83.398438"/>
      </g>
     </g>
    </g>
    <g id="ytick_5">
     <g id="line2d_14">
      <g>
       <use xlink:href="#mb9a1557203" x="90" y="118.368" style="fill: #262626; stroke: #262626"/>
      </g>
     </g>
     <g id="text_13">
      <!-- 0.8 -->
      <g style="fill: #262626" transform="translate(69.468 121.517437) scale(0.088 -0.088)">
       <defs>
        <path id="ArialMT-38" d="M 1131 2484 
Q 781 2613 612 2850 
Q 444 3088 444 3419 
Q 444 3919 803 4259 
Q 1163 4600 1759 4600 
Q 2359 4600 2725 4251 
Q 3091 3903 3091 3403 
Q 3091 3084 2923 2848 
Q 2756 2613 2416 2484 
Q 2838 2347 3058 2040 
Q 3278 1734 3278 1309 
Q 3278 722 2862 322 
Q 2447 -78 1769 -78 
Q 1091 -78 675 323 
Q 259 725 259 1325 
Q 259 1772 486 2073 
Q 713 2375 1131 2484 
z
M 1019 3438 
Q 1019 3113 1228 2906 
Q 1438 2700 1772 2700 
Q 2097 2700 2305 2904 
Q 2513 3109 2513 3406 
Q 2513 3716 2298 3927 
Q 2084 4138 1766 4138 
Q 1444 4138 1231 3931 
Q 1019 3725 1019 3438 
z
M 838 1322 
Q 838 1081 952 856 
Q 1066 631 1291 507 
Q 1516 384 1775 384 
Q 2178 384 2440 643 
Q 2703 903 2703 1303 
Q 2703 1709 2433 1975 
Q 2163 2241 1756 2241 
Q 1359 2241 1098 1978 
Q 838 1716 838 1322 
z
" transform="scale(0.015625)"/>
       </defs>
       <use xlink:href="#ArialMT-30"/>
       <use xlink:href="#ArialMT-2e" x="55.615234"/>
       <use xlink:href="#ArialMT-38" x="83.398438"/>
      </g>
     </g>
    </g>
    <g id="ytick_6">
     <g id="line2d_15">
      <g>
       <use xlink:href="#mb9a1557203" x="90" y="51.84" style="fill: #262626; stroke: #262626"/>
      </g>
     </g>
     <g id="text_14">
      <!-- 1.0 -->
      <g style="fill: #262626" transform="translate(69.468 54.989437) scale(0.088 -0.088)">
       <use xlink:href="#ArialMT-31"/>
       <use xlink:href="#ArialMT-2e" x="55.615234"/>
       <use xlink:href="#ArialMT-30" x="83.398438"/>
      </g>
     </g>
    </g>
    <g id="text_15">
     <!-- percentage -->
     <g style="fill: #262626" transform="translate(63.4475 242.1765) rotate(-90) scale(0.096 -0.096)">
      <defs>
       <path id="ArialMT-70" d="M 422 -1272 
L 422 3319 
L 934 3319 
L 934 2888 
Q 1116 3141 1344 3267 
Q 1572 3394 1897 3394 
Q 2322 3394 2647 3175 
Q 2972 2956 3137 2557 
Q 3303 2159 3303 1684 
Q 3303 1175 3120 767 
Q 2938 359 2589 142 
Q 2241 -75 1856 -75 
Q 1575 -75 1351 44 
Q 1128 163 984 344 
L 984 -1272 
L 422 -1272 
z
M 931 1641 
Q 931 1000 1190 694 
Q 1450 388 1819 388 
Q 2194 388 2461 705 
Q 2728 1022 2728 1688 
Q 2728 2322 2467 2637 
Q 2206 2953 1844 2953 
Q 1484 2953 1207 2617 
Q 931 2281 931 1641 
z
" transform="scale(0.015625)"/>
       <path id="ArialMT-65" d="M 2694 1069 
L 3275 997 
Q 3138 488 2766 206 
Q 2394 -75 1816 -75 
Q 1088 -75 661 373 
Q 234 822 234 1631 
Q 234 2469 665 2931 
Q 1097 3394 1784 3394 
Q 2450 3394 2872 2941 
Q 3294 2488 3294 1666 
Q 3294 1616 3291 1516 
L 816 1516 
Q 847 969 1125 678 
Q 1403 388 1819 388 
Q 2128 388 2347 550 
Q 2566 713 2694 1069 
z
M 847 1978 
L 2700 1978 
Q 2663 2397 2488 2606 
Q 2219 2931 1791 2931 
Q 1403 2931 1139 2672 
Q 875 2413 847 1978 
z
" transform="scale(0.015625)"/>
       <path id="ArialMT-72" d="M 416 0 
L 416 3319 
L 922 3319 
L 922 2816 
Q 1116 3169 1280 3281 
Q 1444 3394 1641 3394 
Q 1925 3394 2219 3213 
L 2025 2691 
Q 1819 2813 1613 2813 
Q 1428 2813 1281 2702 
Q 1134 2591 1072 2394 
Q 978 2094 978 1738 
L 978 0 
L 416 0 
z
" transform="scale(0.015625)"/>
       <path id="ArialMT-63" d="M 2588 1216 
L 3141 1144 
Q 3050 572 2676 248 
Q 2303 -75 1759 -75 
Q 1078 -75 664 370 
Q 250 816 250 1647 
Q 250 2184 428 2587 
Q 606 2991 970 3192 
Q 1334 3394 1763 3394 
Q 2303 3394 2647 3120 
Q 2991 2847 3088 2344 
L 2541 2259 
Q 2463 2594 2264 2762 
Q 2066 2931 1784 2931 
Q 1359 2931 1093 2626 
Q 828 2322 828 1663 
Q 828 994 1084 691 
Q 1341 388 1753 388 
Q 2084 388 2306 591 
Q 2528 794 2588 1216 
z
" transform="scale(0.015625)"/>
       <path id="ArialMT-6e" d="M 422 0 
L 422 3319 
L 928 3319 
L 928 2847 
Q 1294 3394 1984 3394 
Q 2284 3394 2536 3286 
Q 2788 3178 2913 3003 
Q 3038 2828 3088 2588 
Q 3119 2431 3119 2041 
L 3119 0 
L 2556 0 
L 2556 2019 
Q 2556 2363 2490 2533 
Q 2425 2703 2258 2804 
Q 2091 2906 1866 2906 
Q 1506 2906 1245 2678 
Q 984 2450 984 1813 
L 984 0 
L 422 0 
z
" transform="scale(0.015625)"/>
       <path id="ArialMT-74" d="M 1650 503 
L 1731 6 
Q 1494 -44 1306 -44 
Q 1000 -44 831 53 
Q 663 150 594 308 
Q 525 466 525 972 
L 525 2881 
L 113 2881 
L 113 3319 
L 525 3319 
L 525 4141 
L 1084 4478 
L 1084 3319 
L 1650 3319 
L 1650 2881 
L 1084 2881 
L 1084 941 
Q 1084 700 1114 631 
Q 1144 563 1211 522 
Q 1278 481 1403 481 
Q 1497 481 1650 503 
z
" transform="scale(0.015625)"/>
       <path id="ArialMT-61" d="M 2588 409 
Q 2275 144 1986 34 
Q 1697 -75 1366 -75 
Q 819 -75 525 192 
Q 231 459 231 875 
Q 231 1119 342 1320 
Q 453 1522 633 1644 
Q 813 1766 1038 1828 
Q 1203 1872 1538 1913 
Q 2219 1994 2541 2106 
Q 2544 2222 2544 2253 
Q 2544 2597 2384 2738 
Q 2169 2928 1744 2928 
Q 1347 2928 1158 2789 
Q 969 2650 878 2297 
L 328 2372 
Q 403 2725 575 2942 
Q 747 3159 1072 3276 
Q 1397 3394 1825 3394 
Q 2250 3394 2515 3294 
Q 2781 3194 2906 3042 
Q 3031 2891 3081 2659 
Q 3109 2516 3109 2141 
L 3109 1391 
Q 3109 606 3145 398 
Q 3181 191 3288 0 
L 2700 0 
Q 2613 175 2588 409 
z
M 2541 1666 
Q 2234 1541 1622 1453 
Q 1275 1403 1131 1340 
Q 988 1278 909 1158 
Q 831 1038 831 891 
Q 831 666 1001 516 
Q 1172 366 1500 366 
Q 1825 366 2078 508 
Q 2331 650 2450 897 
Q 2541 1088 2541 1459 
L 2541 1666 
z
" transform="scale(0.015625)"/>
       <path id="ArialMT-67" d="M 319 -275 
L 866 -356 
Q 900 -609 1056 -725 
Q 1266 -881 1628 -881 
Q 2019 -881 2231 -725 
Q 2444 -569 2519 -288 
Q 2563 -116 2559 434 
Q 2191 0 1641 0 
Q 956 0 581 494 
Q 206 988 206 1678 
Q 206 2153 378 2554 
Q 550 2956 876 3175 
Q 1203 3394 1644 3394 
Q 2231 3394 2613 2919 
L 2613 3319 
L 3131 3319 
L 3131 450 
Q 3131 -325 2973 -648 
Q 2816 -972 2473 -1159 
Q 2131 -1347 1631 -1347 
Q 1038 -1347 672 -1080 
Q 306 -813 319 -275 
z
M 784 1719 
Q 784 1066 1043 766 
Q 1303 466 1694 466 
Q 2081 466 2343 764 
Q 2606 1063 2606 1700 
Q 2606 2309 2336 2618 
Q 2066 2928 1684 2928 
Q 1309 2928 1046 2623 
Q 784 2319 784 1719 
z
" transform="scale(0.015625)"/>
      </defs>
      <use xlink:href="#ArialMT-70"/>
      <use xlink:href="#ArialMT-65" x="55.615234"/>
      <use xlink:href="#ArialMT-72" x="111.230469"/>
      <use xlink:href="#ArialMT-63" x="144.53125"/>
      <use xlink:href="#ArialMT-65" x="194.53125"/>
      <use xlink:href="#ArialMT-6e" x="250.146484"/>
      <use xlink:href="#ArialMT-74" x="305.761719"/>
      <use xlink:href="#ArialMT-61" x="333.544922"/>
      <use xlink:href="#ArialMT-67" x="389.160156"/>
      <use xlink:href="#ArialMT-65" x="444.775391"/>
     </g>
    </g>
   </g>
   <g id="line2d_16">
    <path d="M 369 384.48 
L 369 51.84 
" clip-path="url(#pe7d691914c)" style="fill: none; stroke: #daa520; stroke-width: 2; stroke-linecap: round"/>
   </g>
   <g id="patch_37">
    <path d="M 90 384.48 
L 648 384.48 
" style="fill: none; stroke: #262626; stroke-linejoin: miter; stroke-linecap: square"/>
   </g>
   <g id="patch_38">
    <path d="M 90 51.84 
L 648 51.84 
" style="fill: none; stroke: #262626; stroke-linejoin: miter; stroke-linecap: square"/>
   </g>
   <g id="text_16">
    <!-- GluC vs. Ctrl probability PPSM n=6 -->
    <g style="fill: #262626" transform="translate(294.1755 45.84) scale(0.096 -0.096)">
     <defs>
      <path id="ArialMT-47" d="M 2638 1797 
L 2638 2334 
L 4578 2338 
L 4578 638 
Q 4131 281 3656 101 
Q 3181 -78 2681 -78 
Q 2006 -78 1454 211 
Q 903 500 622 1047 
Q 341 1594 341 2269 
Q 341 2938 620 3517 
Q 900 4097 1425 4378 
Q 1950 4659 2634 4659 
Q 3131 4659 3532 4498 
Q 3934 4338 4162 4050 
Q 4391 3763 4509 3300 
L 3963 3150 
Q 3859 3500 3706 3700 
Q 3553 3900 3268 4020 
Q 2984 4141 2638 4141 
Q 2222 4141 1919 4014 
Q 1616 3888 1430 3681 
Q 1244 3475 1141 3228 
Q 966 2803 966 2306 
Q 966 1694 1177 1281 
Q 1388 869 1791 669 
Q 2194 469 2647 469 
Q 3041 469 3416 620 
Q 3791 772 3984 944 
L 3984 1797 
L 2638 1797 
z
" transform="scale(0.015625)"/>
      <path id="ArialMT-6c" d="M 409 0 
L 409 4581 
L 972 4581 
L 972 0 
L 409 0 
z
" transform="scale(0.015625)"/>
      <path id="ArialMT-75" d="M 2597 0 
L 2597 488 
Q 2209 -75 1544 -75 
Q 1250 -75 995 37 
Q 741 150 617 320 
Q 494 491 444 738 
Q 409 903 409 1263 
L 409 3319 
L 972 3319 
L 972 1478 
Q 972 1038 1006 884 
Q 1059 663 1231 536 
Q 1403 409 1656 409 
Q 1909 409 2131 539 
Q 2353 669 2445 892 
Q 2538 1116 2538 1541 
L 2538 3319 
L 3100 3319 
L 3100 0 
L 2597 0 
z
" transform="scale(0.015625)"/>
      <path id="ArialMT-43" d="M 3763 1606 
L 4369 1453 
Q 4178 706 3683 314 
Q 3188 -78 2472 -78 
Q 1731 -78 1267 223 
Q 803 525 561 1097 
Q 319 1669 319 2325 
Q 319 3041 592 3573 
Q 866 4106 1370 4382 
Q 1875 4659 2481 4659 
Q 3169 4659 3637 4309 
Q 4106 3959 4291 3325 
L 3694 3184 
Q 3534 3684 3231 3912 
Q 2928 4141 2469 4141 
Q 1941 4141 1586 3887 
Q 1231 3634 1087 3207 
Q 944 2781 944 2328 
Q 944 1744 1114 1308 
Q 1284 872 1643 656 
Q 2003 441 2422 441 
Q 2931 441 3284 734 
Q 3638 1028 3763 1606 
z
" transform="scale(0.015625)"/>
      <path id="ArialMT-20" transform="scale(0.015625)"/>
      <path id="ArialMT-76" d="M 1344 0 
L 81 3319 
L 675 3319 
L 1388 1331 
Q 1503 1009 1600 663 
Q 1675 925 1809 1294 
L 2547 3319 
L 3125 3319 
L 1869 0 
L 1344 0 
z
" transform="scale(0.015625)"/>
      <path id="ArialMT-73" d="M 197 991 
L 753 1078 
Q 800 744 1014 566 
Q 1228 388 1613 388 
Q 2000 388 2187 545 
Q 2375 703 2375 916 
Q 2375 1106 2209 1216 
Q 2094 1291 1634 1406 
Q 1016 1563 777 1677 
Q 538 1791 414 1992 
Q 291 2194 291 2438 
Q 291 2659 392 2848 
Q 494 3038 669 3163 
Q 800 3259 1026 3326 
Q 1253 3394 1513 3394 
Q 1903 3394 2198 3281 
Q 2494 3169 2634 2976 
Q 2775 2784 2828 2463 
L 2278 2388 
Q 2241 2644 2061 2787 
Q 1881 2931 1553 2931 
Q 1166 2931 1000 2803 
Q 834 2675 834 2503 
Q 834 2394 903 2306 
Q 972 2216 1119 2156 
Q 1203 2125 1616 2013 
Q 2213 1853 2448 1751 
Q 2684 1650 2818 1456 
Q 2953 1263 2953 975 
Q 2953 694 2789 445 
Q 2625 197 2315 61 
Q 2006 -75 1616 -75 
Q 969 -75 630 194 
Q 291 463 197 991 
z
" transform="scale(0.015625)"/>
      <path id="ArialMT-6f" d="M 213 1659 
Q 213 2581 725 3025 
Q 1153 3394 1769 3394 
Q 2453 3394 2887 2945 
Q 3322 2497 3322 1706 
Q 3322 1066 3130 698 
Q 2938 331 2570 128 
Q 2203 -75 1769 -75 
Q 1072 -75 642 372 
Q 213 819 213 1659 
z
M 791 1659 
Q 791 1022 1069 705 
Q 1347 388 1769 388 
Q 2188 388 2466 706 
Q 2744 1025 2744 1678 
Q 2744 2294 2464 2611 
Q 2184 2928 1769 2928 
Q 1347 2928 1069 2612 
Q 791 2297 791 1659 
z
" transform="scale(0.015625)"/>
      <path id="ArialMT-62" d="M 941 0 
L 419 0 
L 419 4581 
L 981 4581 
L 981 2947 
Q 1338 3394 1891 3394 
Q 2197 3394 2470 3270 
Q 2744 3147 2920 2923 
Q 3097 2700 3197 2384 
Q 3297 2069 3297 1709 
Q 3297 856 2875 390 
Q 2453 -75 1863 -75 
Q 1275 -75 941 416 
L 941 0 
z
M 934 1684 
Q 934 1088 1097 822 
Q 1363 388 1816 388 
Q 2184 388 2453 708 
Q 2722 1028 2722 1663 
Q 2722 2313 2464 2622 
Q 2206 2931 1841 2931 
Q 1472 2931 1203 2611 
Q 934 2291 934 1684 
z
" transform="scale(0.015625)"/>
      <path id="ArialMT-69" d="M 425 3934 
L 425 4581 
L 988 4581 
L 988 3934 
L 425 3934 
z
M 425 0 
L 425 3319 
L 988 3319 
L 988 0 
L 425 0 
z
" transform="scale(0.015625)"/>
      <path id="ArialMT-79" d="M 397 -1278 
L 334 -750 
Q 519 -800 656 -800 
Q 844 -800 956 -737 
Q 1069 -675 1141 -563 
Q 1194 -478 1313 -144 
Q 1328 -97 1363 -6 
L 103 3319 
L 709 3319 
L 1400 1397 
Q 1534 1031 1641 628 
Q 1738 1016 1872 1384 
L 2581 3319 
L 3144 3319 
L 1881 -56 
Q 1678 -603 1566 -809 
Q 1416 -1088 1222 -1217 
Q 1028 -1347 759 -1347 
Q 597 -1347 397 -1278 
z
" transform="scale(0.015625)"/>
      <path id="ArialMT-53" d="M 288 1472 
L 859 1522 
Q 900 1178 1048 958 
Q 1197 738 1509 602 
Q 1822 466 2213 466 
Q 2559 466 2825 569 
Q 3091 672 3220 851 
Q 3350 1031 3350 1244 
Q 3350 1459 3225 1620 
Q 3100 1781 2813 1891 
Q 2628 1963 1997 2114 
Q 1366 2266 1113 2400 
Q 784 2572 623 2826 
Q 463 3081 463 3397 
Q 463 3744 659 4045 
Q 856 4347 1234 4503 
Q 1613 4659 2075 4659 
Q 2584 4659 2973 4495 
Q 3363 4331 3572 4012 
Q 3781 3694 3797 3291 
L 3216 3247 
Q 3169 3681 2898 3903 
Q 2628 4125 2100 4125 
Q 1550 4125 1298 3923 
Q 1047 3722 1047 3438 
Q 1047 3191 1225 3031 
Q 1400 2872 2139 2705 
Q 2878 2538 3153 2413 
Q 3553 2228 3743 1945 
Q 3934 1663 3934 1294 
Q 3934 928 3725 604 
Q 3516 281 3123 101 
Q 2731 -78 2241 -78 
Q 1619 -78 1198 103 
Q 778 284 539 648 
Q 300 1013 288 1472 
z
" transform="scale(0.015625)"/>
      <path id="ArialMT-4d" d="M 475 0 
L 475 4581 
L 1388 4581 
L 2472 1338 
Q 2622 884 2691 659 
Q 2769 909 2934 1394 
L 4031 4581 
L 4847 4581 
L 4847 0 
L 4263 0 
L 4263 3834 
L 2931 0 
L 2384 0 
L 1059 3900 
L 1059 0 
L 475 0 
z
" transform="scale(0.015625)"/>
      <path id="ArialMT-3d" d="M 3381 2694 
L 356 2694 
L 356 3219 
L 3381 3219 
L 3381 2694 
z
M 3381 1303 
L 356 1303 
L 356 1828 
L 3381 1828 
L 3381 1303 
z
" transform="scale(0.015625)"/>
     </defs>
     <use xlink:href="#ArialMT-47"/>
     <use xlink:href="#ArialMT-6c" x="77.783203"/>
     <use xlink:href="#ArialMT-75" x="100"/>
     <use xlink:href="#ArialMT-43" x="155.615234"/>
     <use xlink:href="#ArialMT-20" x="227.832031"/>
     <use xlink:href="#ArialMT-76" x="255.615234"/>
     <use xlink:href="#ArialMT-73" x="305.615234"/>
     <use xlink:href="#ArialMT-2e" x="355.615234"/>
     <use xlink:href="#ArialMT-20" x="383.398438"/>
     <use xlink:href="#ArialMT-43" x="411.181641"/>
     <use xlink:href="#ArialMT-74" x="483.398438"/>
     <use xlink:href="#ArialMT-72" x="511.181641"/>
     <use xlink:href="#ArialMT-6c" x="544.482422"/>
     <use xlink:href="#ArialMT-20" x="566.699219"/>
     <use xlink:href="#ArialMT-70" x="594.482422"/>
     <use xlink:href="#ArialMT-72" x="650.097656"/>
     <use xlink:href="#ArialMT-6f" x="683.398438"/>
     <use xlink:href="#ArialMT-62" x="739.013672"/>
     <use xlink:href="#ArialMT-61" x="794.628906"/>
     <use xlink:href="#ArialMT-62" x="850.244141"/>
     <use xlink:href="#ArialMT-69" x="905.859375"/>
     <use xlink:href="#ArialMT-6c" x="928.076172"/>
     <use xlink:href="#ArialMT-69" x="950.292969"/>
     <use xlink:href="#ArialMT-74" x="972.509766"/>
     <use xlink:href="#ArialMT-79" x="1000.292969"/>
     <use xlink:href="#ArialMT-20" x="1050.292969"/>
     <use xlink:href="#ArialMT-50" x="1078.076172"/>
     <use xlink:href="#ArialMT-50" x="1144.775391"/>
     <use xlink:href="#ArialMT-53" x="1211.474609"/>
     <use xlink:href="#ArialMT-4d" x="1278.173828"/>
     <use xlink:href="#ArialMT-20" x="1361.474609"/>
     <use xlink:href="#ArialMT-6e" x="1389.257812"/>
     <use xlink:href="#ArialMT-3d" x="1444.873047"/>
     <use xlink:href="#ArialMT-36" x="1503.271484"/>
    </g>
   </g>
  </g>
 </g>
 <defs>
  <clipPath id="pe7d691914c">
   <rect x="90" y="51.84" width="558" height="332.64"/>
  </clipPath>
 </defs>
</svg>
