<?xml version="1.0" encoding="utf-8" standalone="no"?>
<!DOCTYPE svg PUBLIC "-//W3C//DTD SVG 1.1//EN"
  "http://www.w3.org/Graphics/SVG/1.1/DTD/svg11.dtd">
<svg xmlns:xlink="http://www.w3.org/1999/xlink" width="720pt" height="432pt" viewBox="0 0 720 432" xmlns="http://www.w3.org/2000/svg" version="1.1">
 <metadata>
  <rdf:RDF xmlns:dc="http://purl.org/dc/elements/1.1/" xmlns:cc="http://creativecommons.org/ns#" xmlns:rdf="http://www.w3.org/1999/02/22-rdf-syntax-ns#">
   <cc:Work>
    <dc:type rdf:resource="http://purl.org/dc/dcmitype/StillImage"/>
    <dc:date>2023-10-18T16:08:50.261819</dc:date>
    <dc:format>image/svg+xml</dc:format>
    <dc:creator>
     <cc:Agent>
      <dc:title>Matplotlib v3.7.1, https://matplotlib.org/</dc:title>
     </cc:Agent>
    </dc:creator>
   </cc:Work>
  </rdf:RDF>
 </metadata>
 <defs>
  <style type="text/css">*{stroke-linejoin: round; stroke-linecap: butt}</style>
 </defs>
 <g id="figure_1">
  <g id="patch_1">
   <path d="M 0 432 
L 720 432 
L 720 0 
L 0 0 
z
" style="fill: #ffffff"/>
  </g>
  <g id="axes_1">
   <g id="patch_2">
    <path d="M 90 384.48 
L 648 384.48 
L 648 51.84 
L 90 51.84 
z
" style="fill: #ffffff"/>
   </g>
   <g id="patch_3">
    <path d="M 307 384.48 
L 369 384.48 
L 369 51.84 
L 307 51.84 
z
" clip-path="url(#p1d43f071cf)" style="fill: #ffd700; opacity: 0.35; stroke: #ffffff; stroke-width: 0.8; stroke-linejoin: miter"/>
   </g>
   <g id="line2d_1">
    <path d="M 90 384.48 
L 648 384.48 
" clip-path="url(#p1d43f071cf)" style="fill: none; stroke: #000000; stroke-width: 0.5; stroke-linecap: round"/>
   </g>
   <g id="patch_4">
    <path d="M 173.955948 383.379348 
L 173.955948 383.608892 
Q 168.459804 383.568931 163.221293 383.548718 
Q 157.997094 383.528273 153.34541 383.528273 
Q 147.176562 383.528273 144.213797 383.555921 
Q 141.265345 383.583336 141.265345 383.641419 
Q 141.265345 383.685098 143.254834 383.709493 
Q 145.244324 383.733655 150.482835 383.75108 
L 157.811027 383.77501 
Q 168.946442 383.811487 173.641065 383.885601 
Q 178.35 383.959483 178.35 384.096094 
Q 178.35 384.275223 171.794704 384.362813 
Q 165.239408 384.450402 151.770994 384.450402 
Q 145.430391 384.450402 139.032537 384.430654 
Q 132.634682 384.411138 126.236828 384.372571 
L 126.236828 384.136753 
Q 132.634682 384.191816 138.60315 384.219928 
Q 144.571619 384.247808 150.125014 384.247808 
Q 155.764286 384.247808 158.755676 384.217372 
Q 161.747067 384.186704 161.747067 384.130015 
Q 161.747067 384.079366 159.714639 384.051719 
Q 157.682211 384.024071 151.59924 384.002232 
L 144.929441 383.978302 
Q 134.910429 383.943452 130.273058 383.867247 
Q 125.65 383.791041 125.65 383.661864 
Q 125.65 383.499928 132.090793 383.412803 
Q 138.531586 383.325679 150.611651 383.325679 
Q 156.122108 383.325679 161.933134 383.339154 
Q 167.744161 383.352629 173.955948 383.379348 
z
" clip-path="url(#p1d43f071cf)" style="fill: #40ba47"/>
   </g>
   <g id="patch_5">
    <path d="M 125.65 371.470244 
L 138.68762 371.470244 
L 152.016162 379.975145 
L 165.323155 371.470244 
L 178.35 371.470244 
L 159.730985 382.992854 
L 144.269015 382.992854 
L 125.65 371.470244 
z
" clip-path="url(#p1d43f071cf)" style="fill: #21599c"/>
   </g>
   <g id="patch_6">
    <path d="M 125.65 351.77661 
L 178.35 351.77661 
L 178.35 355.461314 
L 159.390256 355.461314 
L 159.390256 370.669828 
L 144.646512 370.669828 
L 144.646512 355.461314 
L 125.65 355.461314 
L 125.65 351.77661 
z
" clip-path="url(#p1d43f071cf)" style="fill: #40ba47"/>
   </g>
   <g id="patch_7">
    <path d="M 125.65 328.215555 
L 139.537864 328.215555 
L 139.537864 336.417578 
L 159.555783 328.215555 
L 175.683253 328.215555 
L 149.743078 338.859402 
L 178.35 350.688039 
L 160.964195 350.688039 
L 139.537864 341.835826 
L 139.537864 350.688039 
L 125.65 350.688039 
L 125.65 328.215555 
z
" clip-path="url(#p1d43f071cf)" style="fill: #bd2e1f"/>
   </g>
   <g id="patch_8">
    <path d="M 147.032787 311.117457 
Q 151.762274 311.117457 153.814221 310.267781 
Q 155.866168 309.412036 155.866168 307.457781 
Q 155.866168 305.521733 153.814221 304.690264 
Q 151.762274 303.852726 147.032787 303.852726 
L 140.701781 303.852726 
L 140.701781 311.117457 
L 147.032787 311.117457 
z
M 140.701781 316.160893 
L 140.701781 326.878951 
L 125.65 326.878951 
L 125.65 298.560457 
L 148.634307 298.560457 
Q 160.170252 298.560457 165.537844 300.441883 
Q 170.917949 302.31724 170.917949 306.377478 
Q 170.917949 309.18141 168.11529 310.983937 
Q 165.325142 312.786464 159.694801 313.64221 
Q 162.785233 313.98208 165.225047 315.189834 
Q 167.677374 316.391519 170.179748 318.837373 
L 178.35 326.878951 
L 162.322293 326.878951 
L 155.203039 319.844846 
Q 153.050997 317.720655 150.836396 316.943808 
Q 148.634307 316.160893 144.955817 316.160893 
L 140.701781 316.160893 
z
" clip-path="url(#p1d43f071cf)" style="fill: #bd2e1f"/>
   </g>
   <g id="patch_9">
    <path d="M 162.155336 287.866395 
L 141.887763 287.866395 
L 138.68762 296.559451 
L 125.65 296.559451 
L 144.269015 248.839691 
L 159.730985 248.839691 
L 178.35 296.559451 
L 165.323155 296.559451 
L 162.155336 287.866395 
z
M 145.120231 279.009706 
L 158.890544 279.009706 
L 152.016162 260.028165 
L 145.120231 279.009706 
z
" clip-path="url(#p1d43f071cf)" style="fill: #21599c"/>
   </g>
   <g id="patch_10">
    <path d="M 224.155336 381.398941 
L 203.887763 381.398941 
L 200.68762 384.091096 
L 187.65 384.091096 
L 206.269015 369.31275 
L 221.730985 369.31275 
L 240.35 384.091096 
L 227.323155 384.091096 
L 224.155336 381.398941 
z
M 207.120231 378.656111 
L 220.890544 378.656111 
L 214.016162 372.777712 
L 207.120231 378.656111 
z
" clip-path="url(#p1d43f071cf)" style="fill: #21599c"/>
   </g>
   <g id="patch_11">
    <path d="M 235.955948 353.564812 
L 235.955948 356.767992 
Q 230.459804 356.210353 225.221293 355.928292 
Q 219.997094 355.642988 215.34541 355.642988 
Q 209.176562 355.642988 206.213797 356.028796 
Q 203.265345 356.411362 203.265345 357.221883 
Q 203.265345 357.831395 205.254834 358.171814 
Q 207.244324 358.508991 212.482835 358.752147 
L 219.811027 359.086082 
Q 230.946442 359.595089 235.641065 360.629314 
Q 240.35 361.660297 240.35 363.566643 
Q 240.35 366.06629 233.794704 367.288556 
Q 227.239408 368.510822 213.770994 368.510822 
Q 207.430391 368.510822 201.032537 368.235245 
Q 194.634682 367.962909 188.236828 367.424723 
L 188.236828 364.134008 
Q 194.634682 364.902382 200.60315 365.294674 
Q 206.571619 365.683724 212.125014 365.683724 
Q 217.764286 365.683724 220.755676 365.259011 
Q 223.747067 364.831056 223.747067 364.039987 
Q 223.747067 363.333213 221.714639 362.947405 
Q 219.682211 362.561597 213.59924 362.256841 
L 206.929441 361.922906 
Q 196.910429 361.436593 192.273058 360.37319 
Q 187.65 359.309786 187.65 357.507187 
Q 187.65 355.247454 194.090793 354.031672 
Q 200.531586 352.815891 212.611651 352.815891 
Q 218.122108 352.815891 223.933134 353.003932 
Q 229.744161 353.191972 235.955948 353.564812 
z
" clip-path="url(#p1d43f071cf)" style="fill: #40ba47"/>
   </g>
   <g id="patch_12">
    <path d="M 215.405333 349.136666 
L 214.373292 349.136666 
Q 201.714313 349.136666 194.676667 347.05522 
Q 187.65 344.970506 187.65 341.255272 
Q 187.65 337.546573 194.665687 335.445522 
Q 201.681375 333.341203 214 333.341203 
Q 226.450375 333.341203 233.400187 335.425916 
Q 240.35 337.507362 240.35 341.255272 
Q 240.35 343.826855 236.661 345.686105 
Q 232.972 347.545356 226.044146 348.483151 
L 236.364562 351.914105 
L 223.771458 351.914105 
L 215.405333 349.136666 
z
M 214 336.190529 
Q 207.961458 336.190529 204.634771 337.517165 
Q 201.308083 338.843801 201.308083 341.255272 
Q 201.308083 343.705954 204.557917 345.009717 
Q 207.818729 346.310212 214 346.310212 
Q 220.071479 346.310212 223.398167 344.983576 
Q 226.724854 343.653673 226.724854 341.255272 
Q 226.724854 338.843801 223.398167 337.517165 
Q 220.071479 336.190529 214 336.190529 
z
" clip-path="url(#p1d43f071cf)" style="fill: #40ba47"/>
   </g>
   <g id="patch_13">
    <path d="M 187.65 308.986908 
L 204.578032 308.986908 
L 225.968106 324.93451 
L 225.968106 308.986908 
L 240.35 308.986908 
L 240.35 332.240505 
L 223.409364 332.240505 
L 202.01929 316.292903 
L 202.01929 332.240505 
L 187.65 332.240505 
L 187.65 308.986908 
z
" clip-path="url(#p1d43f071cf)" style="fill: #40ba47"/>
   </g>
   <g id="patch_14">
    <path d="M 187.65 268.369757 
L 206.774615 268.369757 
L 206.774615 299.755474 
L 240.35 299.755474 
L 240.35 307.349196 
L 187.65 307.349196 
L 187.65 268.369757 
z
" clip-path="url(#p1d43f071cf)" style="fill: #21599c"/>
   </g>
   <g id="patch_15">
    <path d="M 266.437692 383.893862 
L 285.562308 383.893862 
L 285.562308 384.464971 
L 266.437692 384.464971 
L 266.437692 383.893862 
z
" clip-path="url(#p1d43f071cf)" style="fill: #21599c"/>
   </g>
   <g id="patch_16">
    <path d="M 286.155336 381.287556 
L 265.887763 381.287556 
L 262.68762 383.551752 
L 249.65 383.551752 
L 268.269015 371.122652 
L 283.730985 371.122652 
L 302.35 383.551752 
L 289.323155 383.551752 
L 286.155336 381.287556 
z
M 269.120231 378.980741 
L 282.890544 378.980741 
L 276.016162 374.036804 
L 269.120231 378.980741 
z
" clip-path="url(#p1d43f071cf)" style="fill: #21599c"/>
   </g>
   <g id="patch_17">
    <path d="M 277.405333 368.313807 
L 276.373292 368.313807 
Q 263.714313 368.313807 256.676667 366.732259 
Q 249.65 365.148227 249.65 362.325274 
Q 249.65 359.507287 256.665687 357.910841 
Q 263.681375 356.311913 276 356.311913 
Q 288.450375 356.311913 295.400188 357.895944 
Q 302.35 359.477493 302.35 362.325274 
Q 302.35 364.279244 298.661 365.691962 
Q 294.972 367.10468 288.044146 367.817246 
L 298.364562 370.424194 
L 285.771458 370.424194 
L 277.405333 368.313807 
z
M 276 358.476921 
Q 269.961458 358.476921 266.634771 359.484942 
Q 263.308083 360.492962 263.308083 362.325274 
Q 263.308083 364.18738 266.557917 365.178021 
Q 269.818729 366.166178 276 366.166178 
Q 282.071479 366.166178 285.398167 365.158158 
Q 288.724854 364.147655 288.724854 362.325274 
Q 288.724854 360.492962 285.398167 359.484942 
Q 282.071479 358.476921 276 358.476921 
z
" clip-path="url(#p1d43f071cf)" style="fill: #40ba47"/>
   </g>
   <g id="patch_18">
    <path d="M 249.65 340.736263 
L 262.68762 340.736263 
L 276.016162 351.670867 
L 289.323155 340.736263 
L 302.35 340.736263 
L 283.730985 355.550684 
L 268.269015 355.550684 
L 249.65 340.736263 
z
" clip-path="url(#p1d43f071cf)" style="fill: #21599c"/>
   </g>
   <g id="patch_19">
    <path d="M 249.65 322.484099 
L 268.774615 322.484099 
L 268.774615 336.497808 
L 302.35 336.497808 
L 302.35 339.888402 
L 249.65 339.888402 
L 249.65 322.484099 
z
" clip-path="url(#p1d43f071cf)" style="fill: #21599c"/>
   </g>
   <g id="patch_20">
    <path d="M 250.198462 292.812732 
L 301.801538 292.812732 
L 301.801538 298.364063 
L 269.323077 298.364063 
L 269.323077 303.659179 
L 299.877949 303.659179 
L 299.877949 309.21051 
L 269.323077 309.21051 
L 269.323077 321.27703 
L 250.198462 321.27703 
L 250.198462 292.812732 
z
" clip-path="url(#p1d43f071cf)" style="fill: #21599c"/>
   </g>
   <g id="patch_21">
    <path d="M 302.35 286.428733 
Q 297.941736 288.471777 293.174969 289.505178 
Q 288.408201 290.550456 283.216541 290.550456 
Q 267.734505 290.550456 258.692252 282.805893 
Q 249.65 275.06133 249.65 261.817177 
Q 249.65 248.525511 258.692252 240.792826 
Q 267.734505 233.048263 283.216541 233.048263 
Q 288.408201 233.048263 293.174969 234.093541 
Q 297.941736 235.126942 302.35 237.169986 
L 302.35 248.632414 
Q 297.901902 245.924193 293.586584 244.665107 
Q 289.271265 243.406022 284.504497 243.406022 
Q 275.953527 243.406022 271.053981 248.311704 
Q 266.167712 253.205508 266.167712 261.817177 
Q 266.167712 270.393211 271.053981 275.298893 
Q 275.953527 280.192697 284.504497 280.192697 
Q 289.271265 280.192697 293.586584 278.933612 
Q 297.901902 277.662648 302.35 274.954426 
L 302.35 286.428733 
z
" clip-path="url(#p1d43f071cf)" style="fill: #6b296b"/>
   </g>
   <g id="patch_22">
    <path d="M 311.65 379.561416 
L 325.537864 379.561416 
L 325.537864 381.310574 
L 345.555783 379.561416 
L 361.683253 379.561416 
L 335.743078 381.831315 
L 364.35 384.353882 
L 346.964195 384.353882 
L 325.537864 382.466066 
L 325.537864 384.353882 
L 311.65 384.353882 
L 311.65 379.561416 
z
" clip-path="url(#p1d43f071cf)" style="fill: #bd2e1f"/>
   </g>
   <g id="patch_23">
    <path d="M 339.405333 377.104859 
L 338.373292 377.104859 
Q 325.714313 377.104859 318.676667 375.619743 
Q 311.65 374.132296 311.65 371.48147 
Q 311.65 368.835307 318.665687 367.336203 
Q 325.681375 365.834767 338 365.834767 
Q 350.450375 365.834767 357.400188 367.322214 
Q 364.35 368.807329 364.35 371.48147 
Q 364.35 373.316299 360.661 374.642877 
Q 356.972 375.969456 350.044146 376.638574 
L 360.364563 379.086567 
L 347.771458 379.086567 
L 339.405333 377.104859 
z
M 338 367.867767 
Q 331.961458 367.867767 328.634771 368.814324 
Q 325.308083 369.760881 325.308083 371.48147 
Q 325.308083 373.230036 328.557917 374.160273 
Q 331.818729 375.088179 338 375.088179 
Q 344.071479 375.088179 347.398167 374.141622 
Q 350.724854 373.192733 350.724854 371.48147 
Q 350.724854 369.760881 347.398167 368.814324 
Q 344.071479 367.867767 338 367.867767 
z
" clip-path="url(#p1d43f071cf)" style="fill: #40ba47"/>
   </g>
   <g id="patch_24">
    <path d="M 326.091481 353.677879 
L 326.091481 362.34497 
L 331.265444 362.34497 
Q 340.112802 362.34497 344.782574 361.23076 
Q 349.464351 360.116551 349.464351 357.994681 
Q 349.464351 355.884989 344.806583 354.782956 
Q 340.16082 353.677879 331.265444 353.677879 
L 326.091481 353.677879 
z
M 311.65 350.907576 
L 326.871777 350.907576 
Q 339.63262 350.907576 345.874989 351.370308 
Q 352.117358 351.829996 356.583052 352.935073 
Q 360.520547 353.897068 362.429271 355.154359 
Q 364.35 356.408606 364.35 357.994681 
Q 364.35 359.60511 362.429271 360.865446 
Q 360.520547 362.125781 356.583052 363.084732 
Q 352.081344 364.189809 345.778952 364.652541 
Q 339.47656 365.112229 326.871777 365.112229 
L 311.65 365.112229 
L 311.65 350.907576 
z
" clip-path="url(#p1d43f071cf)" style="fill: #6b296b"/>
   </g>
   <g id="patch_25">
    <path d="M 311.65 59.307344 
L 363.253077 59.307344 
L 363.253077 114.648271 
L 330.774615 114.648271 
L 330.774615 167.435001 
L 361.329487 167.435001 
L 361.329487 222.775928 
L 330.774615 222.775928 
L 330.774615 287.786313 
L 364.35 287.786313 
L 364.35 343.066425 
L 311.65 343.066425 
L 311.65 59.307344 
z
" clip-path="url(#p1d43f071cf)" style="fill: #6b296b"/>
   </g>
   <g id="patch_26">
    <path d="M 373.65 378.866736 
L 389.195992 378.866736 
L 399.979692 381.793638 
L 410.83447 378.866736 
L 426.35 378.866736 
L 426.35 384.33607 
L 414.80474 384.33607 
L 414.80474 380.335462 
L 403.889037 383.284636 
L 396.141426 383.284636 
L 385.225723 380.335462 
L 385.225723 384.33607 
L 373.65 384.33607 
L 373.65 378.866736 
z
" clip-path="url(#p1d43f071cf)" style="fill: #21599c"/>
   </g>
   <g id="patch_27">
    <path d="M 373.65 364.218552 
L 386.68762 364.218552 
L 400.016162 374.649716 
L 413.323155 364.218552 
L 426.35 364.218552 
L 407.730985 378.350902 
L 392.269015 378.350902 
L 373.65 364.218552 
z
" clip-path="url(#p1d43f071cf)" style="fill: #21599c"/>
   </g>
   <g id="patch_28">
    <path d="M 395.032787 354.168875 
Q 399.762274 354.168875 401.814221 353.670715 
Q 403.866168 353.168998 403.866168 352.023231 
Q 403.866168 350.88814 401.814221 350.400655 
Q 399.762274 349.909613 395.032787 349.909613 
L 388.701781 349.909613 
L 388.701781 354.168875 
L 395.032787 354.168875 
z
M 388.701781 357.125806 
L 388.701781 363.409729 
L 373.65 363.409729 
L 373.65 346.806792 
L 396.634307 346.806792 
Q 408.170252 346.806792 413.537844 347.909859 
Q 418.917949 349.009368 418.917949 351.389857 
Q 418.917949 353.033783 416.11529 354.090592 
Q 413.325142 355.147402 407.694801 355.649119 
Q 410.785233 355.848383 413.225047 356.556481 
Q 415.677374 357.26102 418.179748 358.695007 
L 426.35 363.409729 
L 410.322293 363.409729 
L 403.203039 359.285682 
Q 401.050997 358.040284 398.836396 357.584824 
Q 396.634307 357.125806 392.955817 357.125806 
L 388.701781 357.125806 
z
" clip-path="url(#p1d43f071cf)" style="fill: #bd2e1f"/>
   </g>
   <g id="patch_29">
    <path d="M 390.437692 281.369466 
L 409.562308 281.369466 
L 409.562308 344.703196 
L 390.437692 344.703196 
L 390.437692 281.369466 
z
" clip-path="url(#p1d43f071cf)" style="fill: #21599c"/>
   </g>
   <g id="patch_30">
    <path d="M 373.65 160.937655 
L 392.774615 160.937655 
L 392.774615 254.11373 
L 426.35 254.11373 
L 426.35 276.657529 
L 373.65 276.657529 
L 373.65 160.937655 
z
" clip-path="url(#p1d43f071cf)" style="fill: #21599c"/>
   </g>
   <g id="patch_31">
    <path d="M 483.955948 381.064343 
L 483.955948 381.77669 
Q 478.459804 381.652678 473.221293 381.589951 
Q 467.997094 381.526503 463.34541 381.526503 
Q 457.176562 381.526503 454.213797 381.612302 
Q 451.265345 381.69738 451.265345 381.87763 
Q 451.265345 382.013178 453.254834 382.088883 
Q 455.244324 382.163867 460.482835 382.217942 
L 467.811027 382.292204 
Q 478.946442 382.405401 483.641065 382.6354 
Q 488.35 382.864678 488.35 383.288625 
Q 488.35 383.844515 481.794704 384.116332 
Q 475.239408 384.388149 461.770994 384.388149 
Q 455.430391 384.388149 449.032537 384.326864 
Q 442.634682 384.2663 436.236828 384.146614 
L 436.236828 383.4148 
Q 442.634682 383.585677 448.60315 383.672918 
Q 454.571619 383.759437 460.125014 383.759437 
Q 465.764286 383.759437 468.755676 383.664987 
Q 471.747067 383.569815 471.747067 383.393891 
Q 471.747067 383.236713 469.714639 383.150914 
Q 467.682211 383.065115 461.59924 382.997341 
L 454.929441 382.923079 
Q 444.910429 382.814929 440.273058 382.578441 
Q 435.65 382.341953 435.65 381.941078 
Q 435.65 381.438542 442.090793 381.168167 
Q 448.531586 380.897792 460.611651 380.897792 
Q 466.122108 380.897792 471.933134 380.93961 
Q 477.744161 380.981428 483.955948 381.064343 
z
" clip-path="url(#p1d43f071cf)" style="fill: #40ba47"/>
   </g>
   <g id="patch_32">
    <path d="M 435.65 362.937182 
L 487.253077 362.937182 
L 487.253077 366.332731 
L 454.774615 366.332731 
L 454.774615 369.571563 
L 485.329487 369.571563 
L 485.329487 372.967112 
L 454.774615 372.967112 
L 454.774615 376.95595 
L 488.35 376.95595 
L 488.35 380.347768 
L 435.65 380.347768 
L 435.65 362.937182 
z
" clip-path="url(#p1d43f071cf)" style="fill: #6b296b"/>
   </g>
   <g id="patch_33">
    <path d="M 435.65 344.252504 
L 488.35 344.252504 
L 488.35 347.716035 
L 469.390256 347.716035 
L 469.390256 362.011663 
L 454.646512 362.011663 
L 454.646512 347.716035 
L 435.65 347.716035 
L 435.65 344.252504 
z
" clip-path="url(#p1d43f071cf)" style="fill: #40ba47"/>
   </g>
   <g id="patch_34">
    <path d="M 436.198462 319.11332 
L 487.801538 319.11332 
L 487.801538 323.801639 
L 455.323077 323.801639 
L 455.323077 328.273574 
L 485.877949 328.273574 
L 485.877949 332.961893 
L 455.323077 332.961893 
L 455.323077 343.152547 
L 436.198462 343.152547 
L 436.198462 319.11332 
z
" clip-path="url(#p1d43f071cf)" style="fill: #21599c"/>
   </g>
   <g id="patch_35">
    <path d="M 472.155336 300.967041 
L 451.887763 300.967041 
L 448.68762 316.270062 
L 435.65 316.270062 
L 454.269015 232.265478 
L 469.730985 232.265478 
L 488.35 316.270062 
L 475.323155 316.270062 
L 472.155336 300.967041 
z
M 455.120231 285.375963 
L 468.890544 285.375963 
L 462.016162 251.961366 
L 455.120231 285.375963 
z
" clip-path="url(#p1d43f071cf)" style="fill: #21599c"/>
   </g>
   <g id="patch_36">
    <path d="M 497.65 367.281739 
L 513.195992 367.281739 
L 523.979692 376.249362 
L 534.83447 367.281739 
L 550.35 367.281739 
L 550.35 384.039019 
L 538.80474 384.039019 
L 538.80474 371.781712 
L 527.889037 380.81757 
L 520.141426 380.81757 
L 509.225723 371.781712 
L 509.225723 384.039019 
L 497.65 384.039019 
L 497.65 367.281739 
z
" clip-path="url(#p1d43f071cf)" style="fill: #21599c"/>
   </g>
   <g id="patch_37">
    <path d="M 498.198462 340.316217 
L 549.801538 340.316217 
L 549.801538 345.3566 
L 517.323077 345.3566 
L 517.323077 350.16435 
L 547.877949 350.16435 
L 547.877949 355.204733 
L 517.323077 355.204733 
L 517.323077 366.160642 
L 498.198462 366.160642 
L 498.198462 340.316217 
z
" clip-path="url(#p1d43f071cf)" style="fill: #21599c"/>
   </g>
   <g id="patch_38">
    <path d="M 534.155336 330.691567 
L 513.887763 330.691567 
L 510.68762 338.507085 
L 497.65 338.507085 
L 516.269015 295.604488 
L 531.730985 295.604488 
L 550.35 338.507085 
L 537.323155 338.507085 
L 534.155336 330.691567 
z
M 517.120231 322.728933 
L 530.890544 322.728933 
L 524.016162 305.66352 
L 517.120231 322.728933 
z
" clip-path="url(#p1d43f071cf)" style="fill: #21599c"/>
   </g>
   <g id="patch_39">
    <path d="M 497.65 244.825899 
L 511.537864 244.825899 
L 511.537864 262.482391 
L 531.555783 244.825899 
L 547.683253 244.825899 
L 521.743078 267.738904 
L 550.35 293.202407 
L 532.964195 293.202407 
L 511.537864 274.146251 
L 511.537864 293.202407 
L 497.65 293.202407 
L 497.65 244.825899 
z
" clip-path="url(#p1d43f071cf)" style="fill: #bd2e1f"/>
   </g>
   <g id="patch_40">
    <path d="M 559.65 366.28878 
L 575.195992 366.28878 
L 585.979692 375.774158 
L 596.83447 366.28878 
L 612.35 366.28878 
L 612.35 384.013558 
L 600.80474 384.013558 
L 600.80474 371.048563 
L 589.889037 380.606116 
L 582.141426 380.606116 
L 571.225723 371.048563 
L 571.225723 384.013558 
L 559.65 384.013558 
L 559.65 366.28878 
z
" clip-path="url(#p1d43f071cf)" style="fill: #21599c"/>
   </g>
   <g id="patch_41">
    <path d="M 559.65 347.504781 
L 572.68762 347.504781 
L 586.016162 360.678396 
L 599.323155 347.504781 
L 612.35 347.504781 
L 593.730985 365.352658 
L 578.269015 365.352658 
L 559.65 347.504781 
z
" clip-path="url(#p1d43f071cf)" style="fill: #21599c"/>
   </g>
   <g id="patch_42">
    <path d="M 576.437692 326.653499 
L 595.562308 326.653499 
L 595.562308 346.512495 
L 576.437692 346.512495 
L 576.437692 326.653499 
z
" clip-path="url(#p1d43f071cf)" style="fill: #21599c"/>
   </g>
   <g id="patch_43">
    <path d="M 574.091481 299.757678 
L 574.091481 319.115404 
L 579.265444 319.115404 
Q 588.112802 319.115404 592.782574 316.626845 
Q 597.464351 314.138286 597.464351 309.399145 
Q 597.464351 304.687201 592.806583 302.225839 
Q 588.16082 299.757678 579.265444 299.757678 
L 574.091481 299.757678 
z
M 559.65 293.570276 
L 574.871777 293.570276 
Q 587.63262 293.570276 593.874989 294.603776 
Q 600.117358 295.630477 604.583052 298.098638 
Q 608.520547 300.24723 610.429271 303.055358 
Q 612.35 305.856687 612.35 309.399145 
Q 612.35 312.995996 610.429271 315.810924 
Q 608.520547 318.625852 604.583052 320.767644 
Q 600.081344 323.235806 593.778952 324.269306 
Q 587.47656 325.296006 574.871777 325.296006 
L 559.65 325.296006 
L 559.65 293.570276 
z
" clip-path="url(#p1d43f071cf)" style="fill: #6b296b"/>
   </g>
   <g id="patch_44">
    <path d="M 559.65 220.934296 
L 576.578032 220.934296 
L 597.968106 268.913749 
L 597.968106 220.934296 
L 612.35 220.934296 
L 612.35 290.894335 
L 595.409364 290.894335 
L 574.01929 242.914883 
L 574.01929 290.894335 
L 559.65 290.894335 
L 559.65 220.934296 
z
" clip-path="url(#p1d43f071cf)" style="fill: #40ba47"/>
   </g>
   <g id="matplotlib.axis_1">
    <g id="xtick_1">
     <g id="line2d_2">
      <defs>
       <path id="m0df1ebc264" d="M 0 0 
L 0 4.8 
" style="stroke: #262626"/>
      </defs>
      <g>
       <use xlink:href="#m0df1ebc264" x="152" y="384.48" style="fill: #262626; stroke: #262626"/>
      </g>
     </g>
     <g id="text_1">
      <!-- P4 -->
      <g style="fill: #262626" transform="translate(146.61825 399.078875) scale(0.088 -0.088)">
       <defs>
        <path id="ArialMT-50" d="M 494 0 
L 494 4581 
L 2222 4581 
Q 2678 4581 2919 4538 
Q 3256 4481 3484 4323 
Q 3713 4166 3852 3881 
Q 3991 3597 3991 3256 
Q 3991 2672 3619 2267 
Q 3247 1863 2275 1863 
L 1100 1863 
L 1100 0 
L 494 0 
z
M 1100 2403 
L 2284 2403 
Q 2872 2403 3119 2622 
Q 3366 2841 3366 3238 
Q 3366 3525 3220 3729 
Q 3075 3934 2838 4000 
Q 2684 4041 2272 4041 
L 1100 4041 
L 1100 2403 
z
" transform="scale(0.015625)"/>
        <path id="ArialMT-34" d="M 2069 0 
L 2069 1097 
L 81 1097 
L 81 1613 
L 2172 4581 
L 2631 4581 
L 2631 1613 
L 3250 1613 
L 3250 1097 
L 2631 1097 
L 2631 0 
L 2069 0 
z
M 2069 1613 
L 2069 3678 
L 634 1613 
L 2069 1613 
z
" transform="scale(0.015625)"/>
       </defs>
       <use xlink:href="#ArialMT-50"/>
       <use xlink:href="#ArialMT-34" x="66.699219"/>
      </g>
     </g>
    </g>
    <g id="xtick_2">
     <g id="line2d_3">
      <g>
       <use xlink:href="#m0df1ebc264" x="214" y="384.48" style="fill: #262626; stroke: #262626"/>
      </g>
     </g>
     <g id="text_2">
      <!-- P3 -->
      <g style="fill: #262626" transform="translate(208.61825 399.078875) scale(0.088 -0.088)">
       <defs>
        <path id="ArialMT-33" d="M 269 1209 
L 831 1284 
Q 928 806 1161 595 
Q 1394 384 1728 384 
Q 2125 384 2398 659 
Q 2672 934 2672 1341 
Q 2672 1728 2419 1979 
Q 2166 2231 1775 2231 
Q 1616 2231 1378 2169 
L 1441 2663 
Q 1497 2656 1531 2656 
Q 1891 2656 2178 2843 
Q 2466 3031 2466 3422 
Q 2466 3731 2256 3934 
Q 2047 4138 1716 4138 
Q 1388 4138 1169 3931 
Q 950 3725 888 3313 
L 325 3413 
Q 428 3978 793 4289 
Q 1159 4600 1703 4600 
Q 2078 4600 2393 4439 
Q 2709 4278 2876 4000 
Q 3044 3722 3044 3409 
Q 3044 3113 2884 2869 
Q 2725 2625 2413 2481 
Q 2819 2388 3044 2092 
Q 3269 1797 3269 1353 
Q 3269 753 2831 336 
Q 2394 -81 1725 -81 
Q 1122 -81 723 278 
Q 325 638 269 1209 
z
" transform="scale(0.015625)"/>
       </defs>
       <use xlink:href="#ArialMT-50"/>
       <use xlink:href="#ArialMT-33" x="66.699219"/>
      </g>
     </g>
    </g>
    <g id="xtick_3">
     <g id="line2d_4">
      <g>
       <use xlink:href="#m0df1ebc264" x="276" y="384.48" style="fill: #262626; stroke: #262626"/>
      </g>
     </g>
     <g id="text_3">
      <!-- P2 -->
      <g style="fill: #262626" transform="translate(270.61825 399.078875) scale(0.088 -0.088)">
       <defs>
        <path id="ArialMT-32" d="M 3222 541 
L 3222 0 
L 194 0 
Q 188 203 259 391 
Q 375 700 629 1000 
Q 884 1300 1366 1694 
Q 2113 2306 2375 2664 
Q 2638 3022 2638 3341 
Q 2638 3675 2398 3904 
Q 2159 4134 1775 4134 
Q 1369 4134 1125 3890 
Q 881 3647 878 3216 
L 300 3275 
Q 359 3922 746 4261 
Q 1134 4600 1788 4600 
Q 2447 4600 2831 4234 
Q 3216 3869 3216 3328 
Q 3216 3053 3103 2787 
Q 2991 2522 2730 2228 
Q 2469 1934 1863 1422 
Q 1356 997 1212 845 
Q 1069 694 975 541 
L 3222 541 
z
" transform="scale(0.015625)"/>
       </defs>
       <use xlink:href="#ArialMT-50"/>
       <use xlink:href="#ArialMT-32" x="66.699219"/>
      </g>
     </g>
    </g>
    <g id="xtick_4">
     <g id="line2d_5">
      <g>
       <use xlink:href="#m0df1ebc264" x="338" y="384.48" style="fill: #262626; stroke: #262626"/>
      </g>
     </g>
     <g id="text_4">
      <!-- P1 -->
      <g style="fill: #262626" transform="translate(332.61825 399.078875) scale(0.088 -0.088)">
       <defs>
        <path id="ArialMT-31" d="M 2384 0 
L 1822 0 
L 1822 3584 
Q 1619 3391 1289 3197 
Q 959 3003 697 2906 
L 697 3450 
Q 1169 3672 1522 3987 
Q 1875 4303 2022 4600 
L 2384 4600 
L 2384 0 
z
" transform="scale(0.015625)"/>
       </defs>
       <use xlink:href="#ArialMT-50"/>
       <use xlink:href="#ArialMT-31" x="66.699219"/>
      </g>
     </g>
    </g>
    <g id="xtick_5">
     <g id="line2d_6">
      <g>
       <use xlink:href="#m0df1ebc264" x="400" y="384.48" style="fill: #262626; stroke: #262626"/>
      </g>
     </g>
     <g id="text_5">
      <!-- P1' -->
      <g style="fill: #262626" transform="translate(393.778125 399.078875) scale(0.088 -0.088)">
       <defs>
        <path id="ArialMT-27" d="M 425 2959 
L 281 3816 
L 281 4581 
L 922 4581 
L 922 3816 
L 772 2959 
L 425 2959 
z
" transform="scale(0.015625)"/>
       </defs>
       <use xlink:href="#ArialMT-50"/>
       <use xlink:href="#ArialMT-31" x="66.699219"/>
       <use xlink:href="#ArialMT-27" x="122.314453"/>
      </g>
     </g>
    </g>
    <g id="xtick_6">
     <g id="line2d_7">
      <g>
       <use xlink:href="#m0df1ebc264" x="462" y="384.48" style="fill: #262626; stroke: #262626"/>
      </g>
     </g>
     <g id="text_6">
      <!-- P2' -->
      <g style="fill: #262626" transform="translate(455.778125 399.078875) scale(0.088 -0.088)">
       <use xlink:href="#ArialMT-50"/>
       <use xlink:href="#ArialMT-32" x="66.699219"/>
       <use xlink:href="#ArialMT-27" x="122.314453"/>
      </g>
     </g>
    </g>
    <g id="xtick_7">
     <g id="line2d_8">
      <g>
       <use xlink:href="#m0df1ebc264" x="524" y="384.48" style="fill: #262626; stroke: #262626"/>
      </g>
     </g>
     <g id="text_7">
      <!-- P3' -->
      <g style="fill: #262626" transform="translate(517.778125 399.078875) scale(0.088 -0.088)">
       <use xlink:href="#ArialMT-50"/>
       <use xlink:href="#ArialMT-33" x="66.699219"/>
       <use xlink:href="#ArialMT-27" x="122.314453"/>
      </g>
     </g>
    </g>
    <g id="xtick_8">
     <g id="line2d_9">
      <g>
       <use xlink:href="#m0df1ebc264" x="586" y="384.48" style="fill: #262626; stroke: #262626"/>
      </g>
     </g>
     <g id="text_8">
      <!-- P4' -->
      <g style="fill: #262626" transform="translate(579.778125 399.078875) scale(0.088 -0.088)">
       <use xlink:href="#ArialMT-50"/>
       <use xlink:href="#ArialMT-34" x="66.699219"/>
       <use xlink:href="#ArialMT-27" x="122.314453"/>
      </g>
     </g>
    </g>
   </g>
   <g id="matplotlib.axis_2">
    <g id="ytick_1">
     <g id="line2d_10">
      <defs>
       <path id="mc123469d68" d="M 0 0 
L -4.8 0 
" style="stroke: #262626"/>
      </defs>
      <g>
       <use xlink:href="#mc123469d68" x="90" y="384.48" style="fill: #262626; stroke: #262626"/>
      </g>
     </g>
     <g id="text_9">
      <!-- 0.0 -->
      <g style="fill: #262626" transform="translate(69.468 387.629437) scale(0.088 -0.088)">
       <defs>
        <path id="ArialMT-30" d="M 266 2259 
Q 266 3072 433 3567 
Q 600 4063 929 4331 
Q 1259 4600 1759 4600 
Q 2128 4600 2406 4451 
Q 2684 4303 2865 4023 
Q 3047 3744 3150 3342 
Q 3253 2941 3253 2259 
Q 3253 1453 3087 958 
Q 2922 463 2592 192 
Q 2263 -78 1759 -78 
Q 1097 -78 719 397 
Q 266 969 266 2259 
z
M 844 2259 
Q 844 1131 1108 757 
Q 1372 384 1759 384 
Q 2147 384 2411 759 
Q 2675 1134 2675 2259 
Q 2675 3391 2411 3762 
Q 2147 4134 1753 4134 
Q 1366 4134 1134 3806 
Q 844 3388 844 2259 
z
" transform="scale(0.015625)"/>
        <path id="ArialMT-2e" d="M 581 0 
L 581 641 
L 1222 641 
L 1222 0 
L 581 0 
z
" transform="scale(0.015625)"/>
       </defs>
       <use xlink:href="#ArialMT-30"/>
       <use xlink:href="#ArialMT-2e" x="55.615234"/>
       <use xlink:href="#ArialMT-30" x="83.398438"/>
      </g>
     </g>
    </g>
    <g id="ytick_2">
     <g id="line2d_11">
      <g>
       <use xlink:href="#mc123469d68" x="90" y="323.967158" style="fill: #262626; stroke: #262626"/>
      </g>
     </g>
     <g id="text_10">
      <!-- 0.2 -->
      <g style="fill: #262626" transform="translate(69.468 327.116596) scale(0.088 -0.088)">
       <use xlink:href="#ArialMT-30"/>
       <use xlink:href="#ArialMT-2e" x="55.615234"/>
       <use xlink:href="#ArialMT-32" x="83.398438"/>
      </g>
     </g>
    </g>
    <g id="ytick_3">
     <g id="line2d_12">
      <g>
       <use xlink:href="#mc123469d68" x="90" y="263.454316" style="fill: #262626; stroke: #262626"/>
      </g>
     </g>
     <g id="text_11">
      <!-- 0.4 -->
      <g style="fill: #262626" transform="translate(69.468 266.603754) scale(0.088 -0.088)">
       <use xlink:href="#ArialMT-30"/>
       <use xlink:href="#ArialMT-2e" x="55.615234"/>
       <use xlink:href="#ArialMT-34" x="83.398438"/>
      </g>
     </g>
    </g>
    <g id="ytick_4">
     <g id="line2d_13">
      <g>
       <use xlink:href="#mc123469d68" x="90" y="202.941475" style="fill: #262626; stroke: #262626"/>
      </g>
     </g>
     <g id="text_12">
      <!-- 0.6 -->
      <g style="fill: #262626" transform="translate(69.468 206.090912) scale(0.088 -0.088)">
       <defs>
        <path id="ArialMT-36" d="M 3184 3459 
L 2625 3416 
Q 2550 3747 2413 3897 
Q 2184 4138 1850 4138 
Q 1581 4138 1378 3988 
Q 1113 3794 959 3422 
Q 806 3050 800 2363 
Q 1003 2672 1297 2822 
Q 1591 2972 1913 2972 
Q 2475 2972 2870 2558 
Q 3266 2144 3266 1488 
Q 3266 1056 3080 686 
Q 2894 316 2569 119 
Q 2244 -78 1831 -78 
Q 1128 -78 684 439 
Q 241 956 241 2144 
Q 241 3472 731 4075 
Q 1159 4600 1884 4600 
Q 2425 4600 2770 4297 
Q 3116 3994 3184 3459 
z
M 888 1484 
Q 888 1194 1011 928 
Q 1134 663 1356 523 
Q 1578 384 1822 384 
Q 2178 384 2434 671 
Q 2691 959 2691 1453 
Q 2691 1928 2437 2201 
Q 2184 2475 1800 2475 
Q 1419 2475 1153 2201 
Q 888 1928 888 1484 
z
" transform="scale(0.015625)"/>
       </defs>
       <use xlink:href="#ArialMT-30"/>
       <use xlink:href="#ArialMT-2e" x="55.615234"/>
       <use xlink:href="#ArialMT-36" x="83.398438"/>
      </g>
     </g>
    </g>
    <g id="ytick_5">
     <g id="line2d_14">
      <g>
       <use xlink:href="#mc123469d68" x="90" y="142.428633" style="fill: #262626; stroke: #262626"/>
      </g>
     </g>
     <g id="text_13">
      <!-- 0.8 -->
      <g style="fill: #262626" transform="translate(69.468 145.57807) scale(0.088 -0.088)">
       <defs>
        <path id="ArialMT-38" d="M 1131 2484 
Q 781 2613 612 2850 
Q 444 3088 444 3419 
Q 444 3919 803 4259 
Q 1163 4600 1759 4600 
Q 2359 4600 2725 4251 
Q 3091 3903 3091 3403 
Q 3091 3084 2923 2848 
Q 2756 2613 2416 2484 
Q 2838 2347 3058 2040 
Q 3278 1734 3278 1309 
Q 3278 722 2862 322 
Q 2447 -78 1769 -78 
Q 1091 -78 675 323 
Q 259 725 259 1325 
Q 259 1772 486 2073 
Q 713 2375 1131 2484 
z
M 1019 3438 
Q 1019 3113 1228 2906 
Q 1438 2700 1772 2700 
Q 2097 2700 2305 2904 
Q 2513 3109 2513 3406 
Q 2513 3716 2298 3927 
Q 2084 4138 1766 4138 
Q 1444 4138 1231 3931 
Q 1019 3725 1019 3438 
z
M 838 1322 
Q 838 1081 952 856 
Q 1066 631 1291 507 
Q 1516 384 1775 384 
Q 2178 384 2440 643 
Q 2703 903 2703 1303 
Q 2703 1709 2433 1975 
Q 2163 2241 1756 2241 
Q 1359 2241 1098 1978 
Q 838 1716 838 1322 
z
" transform="scale(0.015625)"/>
       </defs>
       <use xlink:href="#ArialMT-30"/>
       <use xlink:href="#ArialMT-2e" x="55.615234"/>
       <use xlink:href="#ArialMT-38" x="83.398438"/>
      </g>
     </g>
    </g>
    <g id="ytick_6">
     <g id="line2d_15">
      <g>
       <use xlink:href="#mc123469d68" x="90" y="81.915791" style="fill: #262626; stroke: #262626"/>
      </g>
     </g>
     <g id="text_14">
      <!-- 1.0 -->
      <g style="fill: #262626" transform="translate(69.468 85.065228) scale(0.088 -0.088)">
       <use xlink:href="#ArialMT-31"/>
       <use xlink:href="#ArialMT-2e" x="55.615234"/>
       <use xlink:href="#ArialMT-30" x="83.398438"/>
      </g>
     </g>
    </g>
    <g id="text_15">
     <!-- information (bits) -->
     <g style="fill: #262626" transform="translate(63.4475 253.902) rotate(-90) scale(0.096 -0.096)">
      <defs>
       <path id="ArialMT-69" d="M 425 3934 
L 425 4581 
L 988 4581 
L 988 3934 
L 425 3934 
z
M 425 0 
L 425 3319 
L 988 3319 
L 988 0 
L 425 0 
z
" transform="scale(0.015625)"/>
       <path id="ArialMT-6e" d="M 422 0 
L 422 3319 
L 928 3319 
L 928 2847 
Q 1294 3394 1984 3394 
Q 2284 3394 2536 3286 
Q 2788 3178 2913 3003 
Q 3038 2828 3088 2588 
Q 3119 2431 3119 2041 
L 3119 0 
L 2556 0 
L 2556 2019 
Q 2556 2363 2490 2533 
Q 2425 2703 2258 2804 
Q 2091 2906 1866 2906 
Q 1506 2906 1245 2678 
Q 984 2450 984 1813 
L 984 0 
L 422 0 
z
" transform="scale(0.015625)"/>
       <path id="ArialMT-66" d="M 556 0 
L 556 2881 
L 59 2881 
L 59 3319 
L 556 3319 
L 556 3672 
Q 556 4006 616 4169 
Q 697 4388 901 4523 
Q 1106 4659 1475 4659 
Q 1713 4659 2000 4603 
L 1916 4113 
Q 1741 4144 1584 4144 
Q 1328 4144 1222 4034 
Q 1116 3925 1116 3625 
L 1116 3319 
L 1763 3319 
L 1763 2881 
L 1116 2881 
L 1116 0 
L 556 0 
z
" transform="scale(0.015625)"/>
       <path id="ArialMT-6f" d="M 213 1659 
Q 213 2581 725 3025 
Q 1153 3394 1769 3394 
Q 2453 3394 2887 2945 
Q 3322 2497 3322 1706 
Q 3322 1066 3130 698 
Q 2938 331 2570 128 
Q 2203 -75 1769 -75 
Q 1072 -75 642 372 
Q 213 819 213 1659 
z
M 791 1659 
Q 791 1022 1069 705 
Q 1347 388 1769 388 
Q 2188 388 2466 706 
Q 2744 1025 2744 1678 
Q 2744 2294 2464 2611 
Q 2184 2928 1769 2928 
Q 1347 2928 1069 2612 
Q 791 2297 791 1659 
z
" transform="scale(0.015625)"/>
       <path id="ArialMT-72" d="M 416 0 
L 416 3319 
L 922 3319 
L 922 2816 
Q 1116 3169 1280 3281 
Q 1444 3394 1641 3394 
Q 1925 3394 2219 3213 
L 2025 2691 
Q 1819 2813 1613 2813 
Q 1428 2813 1281 2702 
Q 1134 2591 1072 2394 
Q 978 2094 978 1738 
L 978 0 
L 416 0 
z
" transform="scale(0.015625)"/>
       <path id="ArialMT-6d" d="M 422 0 
L 422 3319 
L 925 3319 
L 925 2853 
Q 1081 3097 1340 3245 
Q 1600 3394 1931 3394 
Q 2300 3394 2536 3241 
Q 2772 3088 2869 2813 
Q 3263 3394 3894 3394 
Q 4388 3394 4653 3120 
Q 4919 2847 4919 2278 
L 4919 0 
L 4359 0 
L 4359 2091 
Q 4359 2428 4304 2576 
Q 4250 2725 4106 2815 
Q 3963 2906 3769 2906 
Q 3419 2906 3187 2673 
Q 2956 2441 2956 1928 
L 2956 0 
L 2394 0 
L 2394 2156 
Q 2394 2531 2256 2718 
Q 2119 2906 1806 2906 
Q 1569 2906 1367 2781 
Q 1166 2656 1075 2415 
Q 984 2175 984 1722 
L 984 0 
L 422 0 
z
" transform="scale(0.015625)"/>
       <path id="ArialMT-61" d="M 2588 409 
Q 2275 144 1986 34 
Q 1697 -75 1366 -75 
Q 819 -75 525 192 
Q 231 459 231 875 
Q 231 1119 342 1320 
Q 453 1522 633 1644 
Q 813 1766 1038 1828 
Q 1203 1872 1538 1913 
Q 2219 1994 2541 2106 
Q 2544 2222 2544 2253 
Q 2544 2597 2384 2738 
Q 2169 2928 1744 2928 
Q 1347 2928 1158 2789 
Q 969 2650 878 2297 
L 328 2372 
Q 403 2725 575 2942 
Q 747 3159 1072 3276 
Q 1397 3394 1825 3394 
Q 2250 3394 2515 3294 
Q 2781 3194 2906 3042 
Q 3031 2891 3081 2659 
Q 3109 2516 3109 2141 
L 3109 1391 
Q 3109 606 3145 398 
Q 3181 191 3288 0 
L 2700 0 
Q 2613 175 2588 409 
z
M 2541 1666 
Q 2234 1541 1622 1453 
Q 1275 1403 1131 1340 
Q 988 1278 909 1158 
Q 831 1038 831 891 
Q 831 666 1001 516 
Q 1172 366 1500 366 
Q 1825 366 2078 508 
Q 2331 650 2450 897 
Q 2541 1088 2541 1459 
L 2541 1666 
z
" transform="scale(0.015625)"/>
       <path id="ArialMT-74" d="M 1650 503 
L 1731 6 
Q 1494 -44 1306 -44 
Q 1000 -44 831 53 
Q 663 150 594 308 
Q 525 466 525 972 
L 525 2881 
L 113 2881 
L 113 3319 
L 525 3319 
L 525 4141 
L 1084 4478 
L 1084 3319 
L 1650 3319 
L 1650 2881 
L 1084 2881 
L 1084 941 
Q 1084 700 1114 631 
Q 1144 563 1211 522 
Q 1278 481 1403 481 
Q 1497 481 1650 503 
z
" transform="scale(0.015625)"/>
       <path id="ArialMT-20" transform="scale(0.015625)"/>
       <path id="ArialMT-28" d="M 1497 -1347 
Q 1031 -759 709 28 
Q 388 816 388 1659 
Q 388 2403 628 3084 
Q 909 3875 1497 4659 
L 1900 4659 
Q 1522 4009 1400 3731 
Q 1209 3300 1100 2831 
Q 966 2247 966 1656 
Q 966 153 1900 -1347 
L 1497 -1347 
z
" transform="scale(0.015625)"/>
       <path id="ArialMT-62" d="M 941 0 
L 419 0 
L 419 4581 
L 981 4581 
L 981 2947 
Q 1338 3394 1891 3394 
Q 2197 3394 2470 3270 
Q 2744 3147 2920 2923 
Q 3097 2700 3197 2384 
Q 3297 2069 3297 1709 
Q 3297 856 2875 390 
Q 2453 -75 1863 -75 
Q 1275 -75 941 416 
L 941 0 
z
M 934 1684 
Q 934 1088 1097 822 
Q 1363 388 1816 388 
Q 2184 388 2453 708 
Q 2722 1028 2722 1663 
Q 2722 2313 2464 2622 
Q 2206 2931 1841 2931 
Q 1472 2931 1203 2611 
Q 934 2291 934 1684 
z
" transform="scale(0.015625)"/>
       <path id="ArialMT-73" d="M 197 991 
L 753 1078 
Q 800 744 1014 566 
Q 1228 388 1613 388 
Q 2000 388 2187 545 
Q 2375 703 2375 916 
Q 2375 1106 2209 1216 
Q 2094 1291 1634 1406 
Q 1016 1563 777 1677 
Q 538 1791 414 1992 
Q 291 2194 291 2438 
Q 291 2659 392 2848 
Q 494 3038 669 3163 
Q 800 3259 1026 3326 
Q 1253 3394 1513 3394 
Q 1903 3394 2198 3281 
Q 2494 3169 2634 2976 
Q 2775 2784 2828 2463 
L 2278 2388 
Q 2241 2644 2061 2787 
Q 1881 2931 1553 2931 
Q 1166 2931 1000 2803 
Q 834 2675 834 2503 
Q 834 2394 903 2306 
Q 972 2216 1119 2156 
Q 1203 2125 1616 2013 
Q 2213 1853 2448 1751 
Q 2684 1650 2818 1456 
Q 2953 1263 2953 975 
Q 2953 694 2789 445 
Q 2625 197 2315 61 
Q 2006 -75 1616 -75 
Q 969 -75 630 194 
Q 291 463 197 991 
z
" transform="scale(0.015625)"/>
       <path id="ArialMT-29" d="M 791 -1347 
L 388 -1347 
Q 1322 153 1322 1656 
Q 1322 2244 1188 2822 
Q 1081 3291 891 3722 
Q 769 4003 388 4659 
L 791 4659 
Q 1378 3875 1659 3084 
Q 1900 2403 1900 1659 
Q 1900 816 1576 28 
Q 1253 -759 791 -1347 
z
" transform="scale(0.015625)"/>
      </defs>
      <use xlink:href="#ArialMT-69"/>
      <use xlink:href="#ArialMT-6e" x="22.216797"/>
      <use xlink:href="#ArialMT-66" x="77.832031"/>
      <use xlink:href="#ArialMT-6f" x="105.615234"/>
      <use xlink:href="#ArialMT-72" x="161.230469"/>
      <use xlink:href="#ArialMT-6d" x="194.53125"/>
      <use xlink:href="#ArialMT-61" x="277.832031"/>
      <use xlink:href="#ArialMT-74" x="333.447266"/>
      <use xlink:href="#ArialMT-69" x="361.230469"/>
      <use xlink:href="#ArialMT-6f" x="383.447266"/>
      <use xlink:href="#ArialMT-6e" x="439.0625"/>
      <use xlink:href="#ArialMT-20" x="494.677734"/>
      <use xlink:href="#ArialMT-28" x="522.460938"/>
      <use xlink:href="#ArialMT-62" x="555.761719"/>
      <use xlink:href="#ArialMT-69" x="611.376953"/>
      <use xlink:href="#ArialMT-74" x="633.59375"/>
      <use xlink:href="#ArialMT-73" x="661.376953"/>
      <use xlink:href="#ArialMT-29" x="711.376953"/>
     </g>
    </g>
   </g>
   <g id="line2d_16">
    <path d="M 369 384.48 
L 369 51.84 
" clip-path="url(#p1d43f071cf)" style="fill: none; stroke: #daa520; stroke-width: 2; stroke-linecap: round"/>
   </g>
   <g id="patch_45">
    <path d="M 90 384.48 
L 648 384.48 
" style="fill: none; stroke: #262626; stroke-linejoin: miter; stroke-linecap: square"/>
   </g>
   <g id="patch_46">
    <path d="M 90 51.84 
L 648 51.84 
" style="fill: none; stroke: #262626; stroke-linejoin: miter; stroke-linecap: square"/>
   </g>
   <g id="text_16">
    <!-- GluC vs. Ctrl information content, Kullback n=6 -->
    <g style="fill: #262626" transform="translate(269.36025 45.84) scale(0.096 -0.096)">
     <defs>
      <path id="ArialMT-47" d="M 2638 1797 
L 2638 2334 
L 4578 2338 
L 4578 638 
Q 4131 281 3656 101 
Q 3181 -78 2681 -78 
Q 2006 -78 1454 211 
Q 903 500 622 1047 
Q 341 1594 341 2269 
Q 341 2938 620 3517 
Q 900 4097 1425 4378 
Q 1950 4659 2634 4659 
Q 3131 4659 3532 4498 
Q 3934 4338 4162 4050 
Q 4391 3763 4509 3300 
L 3963 3150 
Q 3859 3500 3706 3700 
Q 3553 3900 3268 4020 
Q 2984 4141 2638 4141 
Q 2222 4141 1919 4014 
Q 1616 3888 1430 3681 
Q 1244 3475 1141 3228 
Q 966 2803 966 2306 
Q 966 1694 1177 1281 
Q 1388 869 1791 669 
Q 2194 469 2647 469 
Q 3041 469 3416 620 
Q 3791 772 3984 944 
L 3984 1797 
L 2638 1797 
z
" transform="scale(0.015625)"/>
      <path id="ArialMT-6c" d="M 409 0 
L 409 4581 
L 972 4581 
L 972 0 
L 409 0 
z
" transform="scale(0.015625)"/>
      <path id="ArialMT-75" d="M 2597 0 
L 2597 488 
Q 2209 -75 1544 -75 
Q 1250 -75 995 37 
Q 741 150 617 320 
Q 494 491 444 738 
Q 409 903 409 1263 
L 409 3319 
L 972 3319 
L 972 1478 
Q 972 1038 1006 884 
Q 1059 663 1231 536 
Q 1403 409 1656 409 
Q 1909 409 2131 539 
Q 2353 669 2445 892 
Q 2538 1116 2538 1541 
L 2538 3319 
L 3100 3319 
L 3100 0 
L 2597 0 
z
" transform="scale(0.015625)"/>
      <path id="ArialMT-43" d="M 3763 1606 
L 4369 1453 
Q 4178 706 3683 314 
Q 3188 -78 2472 -78 
Q 1731 -78 1267 223 
Q 803 525 561 1097 
Q 319 1669 319 2325 
Q 319 3041 592 3573 
Q 866 4106 1370 4382 
Q 1875 4659 2481 4659 
Q 3169 4659 3637 4309 
Q 4106 3959 4291 3325 
L 3694 3184 
Q 3534 3684 3231 3912 
Q 2928 4141 2469 4141 
Q 1941 4141 1586 3887 
Q 1231 3634 1087 3207 
Q 944 2781 944 2328 
Q 944 1744 1114 1308 
Q 1284 872 1643 656 
Q 2003 441 2422 441 
Q 2931 441 3284 734 
Q 3638 1028 3763 1606 
z
" transform="scale(0.015625)"/>
      <path id="ArialMT-76" d="M 1344 0 
L 81 3319 
L 675 3319 
L 1388 1331 
Q 1503 1009 1600 663 
Q 1675 925 1809 1294 
L 2547 3319 
L 3125 3319 
L 1869 0 
L 1344 0 
z
" transform="scale(0.015625)"/>
      <path id="ArialMT-63" d="M 2588 1216 
L 3141 1144 
Q 3050 572 2676 248 
Q 2303 -75 1759 -75 
Q 1078 -75 664 370 
Q 250 816 250 1647 
Q 250 2184 428 2587 
Q 606 2991 970 3192 
Q 1334 3394 1763 3394 
Q 2303 3394 2647 3120 
Q 2991 2847 3088 2344 
L 2541 2259 
Q 2463 2594 2264 2762 
Q 2066 2931 1784 2931 
Q 1359 2931 1093 2626 
Q 828 2322 828 1663 
Q 828 994 1084 691 
Q 1341 388 1753 388 
Q 2084 388 2306 591 
Q 2528 794 2588 1216 
z
" transform="scale(0.015625)"/>
      <path id="ArialMT-65" d="M 2694 1069 
L 3275 997 
Q 3138 488 2766 206 
Q 2394 -75 1816 -75 
Q 1088 -75 661 373 
Q 234 822 234 1631 
Q 234 2469 665 2931 
Q 1097 3394 1784 3394 
Q 2450 3394 2872 2941 
Q 3294 2488 3294 1666 
Q 3294 1616 3291 1516 
L 816 1516 
Q 847 969 1125 678 
Q 1403 388 1819 388 
Q 2128 388 2347 550 
Q 2566 713 2694 1069 
z
M 847 1978 
L 2700 1978 
Q 2663 2397 2488 2606 
Q 2219 2931 1791 2931 
Q 1403 2931 1139 2672 
Q 875 2413 847 1978 
z
" transform="scale(0.015625)"/>
      <path id="ArialMT-2c" d="M 569 0 
L 569 641 
L 1209 641 
L 1209 0 
Q 1209 -353 1084 -570 
Q 959 -788 688 -906 
L 531 -666 
Q 709 -588 793 -436 
Q 878 -284 888 0 
L 569 0 
z
" transform="scale(0.015625)"/>
      <path id="ArialMT-4b" d="M 469 0 
L 469 4581 
L 1075 4581 
L 1075 2309 
L 3350 4581 
L 4172 4581 
L 2250 2725 
L 4256 0 
L 3456 0 
L 1825 2319 
L 1075 1588 
L 1075 0 
L 469 0 
z
" transform="scale(0.015625)"/>
      <path id="ArialMT-6b" d="M 425 0 
L 425 4581 
L 988 4581 
L 988 1969 
L 2319 3319 
L 3047 3319 
L 1778 2088 
L 3175 0 
L 2481 0 
L 1384 1697 
L 988 1316 
L 988 0 
L 425 0 
z
" transform="scale(0.015625)"/>
      <path id="ArialMT-3d" d="M 3381 2694 
L 356 2694 
L 356 3219 
L 3381 3219 
L 3381 2694 
z
M 3381 1303 
L 356 1303 
L 356 1828 
L 3381 1828 
L 3381 1303 
z
" transform="scale(0.015625)"/>
     </defs>
     <use xlink:href="#ArialMT-47"/>
     <use xlink:href="#ArialMT-6c" x="77.783203"/>
     <use xlink:href="#ArialMT-75" x="100"/>
     <use xlink:href="#ArialMT-43" x="155.615234"/>
     <use xlink:href="#ArialMT-20" x="227.832031"/>
     <use xlink:href="#ArialMT-76" x="255.615234"/>
     <use xlink:href="#ArialMT-73" x="305.615234"/>
     <use xlink:href="#ArialMT-2e" x="355.615234"/>
     <use xlink:href="#ArialMT-20" x="383.398438"/>
     <use xlink:href="#ArialMT-43" x="411.181641"/>
     <use xlink:href="#ArialMT-74" x="483.398438"/>
     <use xlink:href="#ArialMT-72" x="511.181641"/>
     <use xlink:href="#ArialMT-6c" x="544.482422"/>
     <use xlink:href="#ArialMT-20" x="566.699219"/>
     <use xlink:href="#ArialMT-69" x="594.482422"/>
     <use xlink:href="#ArialMT-6e" x="616.699219"/>
     <use xlink:href="#ArialMT-66" x="672.314453"/>
     <use xlink:href="#ArialMT-6f" x="700.097656"/>
     <use xlink:href="#ArialMT-72" x="755.712891"/>
     <use xlink:href="#ArialMT-6d" x="789.013672"/>
     <use xlink:href="#ArialMT-61" x="872.314453"/>
     <use xlink:href="#ArialMT-74" x="927.929688"/>
     <use xlink:href="#ArialMT-69" x="955.712891"/>
     <use xlink:href="#ArialMT-6f" x="977.929688"/>
     <use xlink:href="#ArialMT-6e" x="1033.544922"/>
     <use xlink:href="#ArialMT-20" x="1089.160156"/>
     <use xlink:href="#ArialMT-63" x="1116.943359"/>
     <use xlink:href="#ArialMT-6f" x="1166.943359"/>
     <use xlink:href="#ArialMT-6e" x="1222.558594"/>
     <use xlink:href="#ArialMT-74" x="1278.173828"/>
     <use xlink:href="#ArialMT-65" x="1305.957031"/>
     <use xlink:href="#ArialMT-6e" x="1361.572266"/>
     <use xlink:href="#ArialMT-74" x="1417.1875"/>
     <use xlink:href="#ArialMT-2c" x="1444.970703"/>
     <use xlink:href="#ArialMT-20" x="1472.753906"/>
     <use xlink:href="#ArialMT-4b" x="1500.537109"/>
     <use xlink:href="#ArialMT-75" x="1567.236328"/>
     <use xlink:href="#ArialMT-6c" x="1622.851562"/>
     <use xlink:href="#ArialMT-6c" x="1645.068359"/>
     <use xlink:href="#ArialMT-62" x="1667.285156"/>
     <use xlink:href="#ArialMT-61" x="1722.900391"/>
     <use xlink:href="#ArialMT-63" x="1778.515625"/>
     <use xlink:href="#ArialMT-6b" x="1828.515625"/>
     <use xlink:href="#ArialMT-20" x="1878.515625"/>
     <use xlink:href="#ArialMT-6e" x="1906.298828"/>
     <use xlink:href="#ArialMT-3d" x="1961.914062"/>
     <use xlink:href="#ArialMT-36" x="2020.3125"/>
    </g>
   </g>
  </g>
 </g>
 <defs>
  <clipPath id="p1d43f071cf">
   <rect x="90" y="51.84" width="558" height="332.64"/>
  </clipPath>
 </defs>
</svg>
