<?xml version="1.0" encoding="utf-8" standalone="no"?>
<!DOCTYPE svg PUBLIC "-//W3C//DTD SVG 1.1//EN"
  "http://www.w3.org/Graphics/SVG/1.1/DTD/svg11.dtd">
<svg xmlns:xlink="http://www.w3.org/1999/xlink" width="720pt" height="432pt" viewBox="0 0 720 432" xmlns="http://www.w3.org/2000/svg" version="1.1">
 <metadata>
  <rdf:RDF xmlns:dc="http://purl.org/dc/elements/1.1/" xmlns:cc="http://creativecommons.org/ns#" xmlns:rdf="http://www.w3.org/1999/02/22-rdf-syntax-ns#">
   <cc:Work>
    <dc:type rdf:resource="http://purl.org/dc/dcmitype/StillImage"/>
    <dc:date>2023-08-03T12:46:30.032057</dc:date>
    <dc:format>image/svg+xml</dc:format>
    <dc:creator>
     <cc:Agent>
      <dc:title>Matplotlib v3.7.1, https://matplotlib.org/</dc:title>
     </cc:Agent>
    </dc:creator>
   </cc:Work>
  </rdf:RDF>
 </metadata>
 <defs>
  <style type="text/css">*{stroke-linejoin: round; stroke-linecap: butt}</style>
 </defs>
 <g id="figure_1">
  <g id="patch_1">
   <path d="M 0 432 
L 720 432 
L 720 0 
L 0 0 
z
" style="fill: #ffffff"/>
  </g>
  <g id="axes_1">
   <g id="patch_2">
    <path d="M 90 384.48 
L 648 384.48 
L 648 51.84 
L 90 51.84 
z
" style="fill: #ffffff"/>
   </g>
   <g id="line2d_1">
    <path d="M 90 384.48 
L 648 384.48 
" clip-path="url(#p857010d667)" style="fill: none; stroke: #000000; stroke-width: 0.5; stroke-linecap: round"/>
   </g>
   <g id="patch_3">
    <path d="M 125.65 376.164 
L 144.774615 376.164 
L 144.774615 382.68824 
L 178.35 382.68824 
L 178.35 384.266769 
L 125.65 384.266769 
L 125.65 376.164 
z
" clip-path="url(#p857010d667)" style="fill: #21599c"/>
   </g>
   <g id="patch_4">
    <path d="M 125.65 367.634769 
L 178.35 367.634769 
L 178.35 369.215035 
L 159.390256 369.215035 
L 159.390256 375.737538 
L 144.646512 375.737538 
L 144.646512 369.215035 
L 125.65 369.215035 
L 125.65 367.634769 
z
" clip-path="url(#p857010d667)" style="fill: #40ba47"/>
   </g>
   <g id="patch_5">
    <path d="M 125.65 359.105538 
L 153.043021 359.105538 
Q 165.271068 359.105538 171.803672 359.793215 
Q 178.35 360.479154 178.35 361.748576 
Q 178.35 363.024945 171.803672 363.710884 
Q 165.271068 364.396824 153.043021 364.396824 
L 142.159922 364.396824 
L 142.159922 367.208308 
L 125.65 367.208308 
L 125.65 359.105538 
z
M 142.159922 360.619815 
L 142.159922 362.882547 
L 151.286354 362.882547 
Q 156.08974 362.882547 158.711016 362.587333 
Q 161.332292 362.292118 161.332292 361.748576 
Q 161.332292 361.206771 158.711016 360.913293 
Q 156.08974 360.619815 151.286354 360.619815 
L 142.159922 360.619815 
z
" clip-path="url(#p857010d667)" style="fill: #787800"/>
   </g>
   <g id="patch_6">
    <path d="M 125.65 350.576308 
L 142.578032 350.576308 
L 163.968106 356.133286 
L 163.968106 350.576308 
L 178.35 350.576308 
L 178.35 358.679077 
L 161.409364 358.679077 
L 140.01929 353.122098 
L 140.01929 358.679077 
L 125.65 358.679077 
L 125.65 350.576308 
z
" clip-path="url(#p857010d667)" style="fill: #40ba47"/>
   </g>
   <g id="patch_7">
    <path d="M 125.65 342.047077 
L 141.195992 342.047077 
L 151.979692 346.383257 
L 162.83447 342.047077 
L 178.35 342.047077 
L 178.35 350.149846 
L 166.80474 350.149846 
L 166.80474 344.222981 
L 155.889037 348.592156 
L 148.141426 348.592156 
L 137.225723 344.222981 
L 137.225723 350.149846 
L 125.65 350.149846 
L 125.65 342.047077 
z
" clip-path="url(#p857010d667)" style="fill: #21599c"/>
   </g>
   <g id="patch_8">
    <path d="M 125.65 333.517846 
L 140.22 333.517846 
L 151.988929 336.405738 
L 163.746786 333.517846 
L 178.35 333.517846 
L 158.665 338.206547 
L 158.665 341.620615 
L 145.346071 341.620615 
L 145.346071 338.206547 
L 125.65 333.517846 
z
" clip-path="url(#p857010d667)" style="fill: #177875"/>
   </g>
   <g id="patch_9">
    <path d="M 125.65 324.988615 
L 140.813382 324.988615 
L 140.813382 328.076212 
L 163.186618 328.076212 
L 163.186618 324.988615 
L 178.35 324.988615 
L 178.35 333.091385 
L 163.186618 333.091385 
L 163.186618 329.656477 
L 140.813382 329.656477 
L 140.813382 333.091385 
L 125.65 333.091385 
L 125.65 324.988615 
z
" clip-path="url(#p857010d667)" style="fill: #177875"/>
   </g>
   <g id="patch_10">
    <path d="M 147.032787 315.329252 
Q 151.762274 315.329252 153.814221 314.843017 
Q 155.866168 314.353308 155.866168 313.234966 
Q 155.866168 312.127044 153.814221 311.651227 
Q 151.762274 311.171938 147.032787 311.171938 
L 140.701781 311.171938 
L 140.701781 315.329252 
L 147.032787 315.329252 
z
M 140.701781 318.215408 
L 140.701781 324.348923 
L 125.65 324.348923 
L 125.65 308.143385 
L 148.634307 308.143385 
Q 160.170252 308.143385 165.537844 309.220049 
Q 170.917949 310.293241 170.917949 312.616752 
Q 170.917949 314.22133 168.11529 315.252844 
Q 165.325142 316.284358 159.694801 316.774067 
Q 162.785233 316.968561 165.225047 317.65971 
Q 167.677374 318.347386 170.179748 319.74705 
L 178.35 324.348923 
L 162.322293 324.348923 
L 155.203039 320.323587 
Q 153.050997 319.107998 150.836396 318.663439 
Q 148.634307 318.215408 144.955817 318.215408 
L 140.701781 318.215408 
z
" clip-path="url(#p857010d667)" style="fill: #bd2e1f"/>
   </g>
   <g id="patch_11">
    <path d="M 140.091481 294.245455 
L 140.091481 304.133403 
L 145.265444 304.133403 
Q 154.112802 304.133403 158.782574 302.862244 
Q 163.464351 301.591085 163.464351 299.170327 
Q 163.464351 296.76346 158.806583 295.506194 
Q 154.16082 294.245455 145.265444 294.245455 
L 140.091481 294.245455 
z
M 125.65 291.084923 
L 140.871777 291.084923 
Q 153.63262 291.084923 159.874989 291.612836 
Q 166.117358 292.137276 170.583052 293.398015 
Q 174.520547 294.495519 176.429271 295.929914 
Q 178.35 297.360836 178.35 299.170327 
Q 178.35 301.007603 176.429271 302.445471 
Q 174.520547 303.883339 170.583052 304.977369 
Q 166.081344 306.238109 159.778952 306.766022 
Q 153.47656 307.290462 140.871777 307.290462 
L 125.65 307.290462 
L 125.65 291.084923 
z
" clip-path="url(#p857010d667)" style="fill: #6b296b"/>
   </g>
   <g id="patch_12">
    <path d="M 178.35 287.819422 
Q 173.035119 288.919096 167.318669 289.471443 
Q 161.602219 290.018769 155.507822 290.018769 
Q 141.736374 290.018769 133.693187 286.744855 
Q 125.65 283.470942 125.65 277.872147 
Q 125.65 272.208076 133.834917 268.959269 
Q 142.031645 265.710462 156.287338 265.710462 
Q 161.779381 265.710462 166.810802 266.152339 
Q 171.854034 266.589196 176.318534 267.452867 
L 176.318534 272.29846 
Q 171.712304 271.188744 167.153317 270.641418 
Q 162.59433 270.08907 158.011721 270.08907 
Q 149.531533 270.08907 144.937113 272.107649 
Q 140.342694 274.121206 140.342694 277.872147 
Q 140.342694 281.587939 144.771762 283.616561 
Q 149.200829 285.640161 157.350314 285.640161 
Q 159.570753 285.640161 161.472299 285.52467 
Q 163.373846 285.404158 164.885634 285.153091 
L 164.885634 280.603756 
L 156.204662 280.603756 
L 156.204662 276.551535 
L 178.35 276.551535 
L 178.35 287.819422 
z
" clip-path="url(#p857010d667)" style="fill: #787800"/>
   </g>
   <g id="patch_13">
    <path d="M 173.955948 241.282699 
L 173.955948 246.243783 
Q 168.459804 245.380112 163.221293 244.943256 
Q 157.997094 244.501378 153.34541 244.501378 
Q 147.176562 244.501378 144.213797 245.098917 
Q 141.265345 245.691435 141.265345 246.946771 
Q 141.265345 247.890782 143.254834 248.418023 
Q 145.244324 248.940243 150.482835 249.316843 
L 157.811027 249.834041 
Q 168.946442 250.622391 173.641065 252.224199 
Q 178.35 253.820985 178.35 256.773533 
Q 178.35 260.644986 171.794704 262.538032 
Q 165.239408 264.431077 151.770994 264.431077 
Q 145.430391 264.431077 139.032537 264.004263 
Q 132.634682 263.58247 126.236828 262.748928 
L 126.236828 257.652268 
Q 132.634682 258.842325 138.60315 259.449907 
Q 144.571619 260.052468 150.125014 260.052468 
Q 155.764286 260.052468 158.755676 259.394673 
Q 161.747067 258.731856 161.747067 257.506649 
Q 161.747067 256.411997 159.714639 255.814457 
Q 157.682211 255.216918 151.59924 254.744912 
L 144.929441 254.227714 
Q 134.910429 253.474513 130.273058 251.827513 
Q 125.65 250.180514 125.65 247.388648 
Q 125.65 243.888774 132.090793 242.005772 
Q 138.531586 240.122769 150.611651 240.122769 
Q 156.122108 240.122769 161.933134 240.414007 
Q 167.744161 240.705245 173.955948 241.282699 
z
" clip-path="url(#p857010d667)" style="fill: #40ba47"/>
   </g>
   <g id="patch_14">
    <path d="M 178.35 237.10098 
Q 173.941736 237.96465 169.174969 238.401507 
Q 164.408201 238.843385 159.216541 238.843385 
Q 143.734505 238.843385 134.692252 235.569471 
Q 125.65 232.295557 125.65 226.696763 
Q 125.65 221.077883 134.692252 217.808991 
Q 143.734505 214.535077 159.216541 214.535077 
Q 164.408201 214.535077 169.174969 214.976955 
Q 173.941736 215.413811 178.35 216.277482 
L 178.35 221.123075 
Q 173.901902 219.97821 169.586584 219.445948 
Q 165.271265 218.913686 160.504497 218.913686 
Q 151.953527 218.913686 147.053981 220.987499 
Q 142.167712 223.056291 142.167712 226.696763 
Q 142.167712 230.32217 147.053981 232.395984 
Q 151.953527 234.464776 160.504497 234.464776 
Q 165.271265 234.464776 169.586584 233.932514 
Q 173.901902 233.395231 178.35 232.250365 
L 178.35 237.10098 
z
" clip-path="url(#p857010d667)" style="fill: #6b296b"/>
   </g>
   <g id="patch_15">
    <path d="M 125.65 180.631385 
L 177.253077 180.631385 
L 177.253077 186.952448 
L 144.774615 186.952448 
L 144.774615 192.981769 
L 175.329487 192.981769 
L 175.329487 199.302832 
L 144.774615 199.302832 
L 144.774615 206.728345 
L 178.35 206.728345 
L 178.35 213.042462 
L 125.65 213.042462 
L 125.65 180.631385 
z
" clip-path="url(#p857010d667)" style="fill: #6b296b"/>
   </g>
   <g id="patch_16">
    <path d="M 125.65 146.514462 
L 139.537864 146.514462 
L 139.537864 158.343879 
L 159.555783 146.514462 
L 175.683253 146.514462 
L 149.743078 161.865615 
L 178.35 178.925538 
L 160.964195 178.925538 
L 139.537864 166.15838 
L 139.537864 178.925538 
L 125.65 178.925538 
L 125.65 146.514462 
z
" clip-path="url(#p857010d667)" style="fill: #bd2e1f"/>
   </g>
   <g id="patch_17">
    <path d="M 162.155336 137.215023 
L 141.887763 137.215023 
L 138.68762 144.595385 
L 125.65 144.595385 
L 144.269015 104.081538 
L 159.730985 104.081538 
L 178.35 144.595385 
L 165.323155 144.595385 
L 162.155336 137.215023 
z
M 145.120231 129.695736 
L 158.890544 129.695736 
L 152.016162 113.580499 
L 145.120231 129.695736 
z
" clip-path="url(#p857010d667)" style="fill: #21599c"/>
   </g>
   <g id="patch_18">
    <path d="M 153.405333 94.465746 
L 152.373292 94.465746 
Q 139.714313 94.465746 132.676667 89.017332 
Q 125.65 83.560365 125.65 73.835332 
Q 125.65 64.127404 132.665687 58.627671 
Q 139.681375 53.119385 152 53.119385 
Q 164.450375 53.119385 171.400188 58.576352 
Q 178.35 64.024765 178.35 73.835332 
Q 178.35 80.566731 174.661 85.433525 
Q 170.972 90.300318 164.044146 92.755098 
L 174.364563 101.736 
L 161.771458 101.736 
L 153.405333 94.465746 
z
M 152 60.57781 
Q 145.961458 60.57781 142.634771 64.050425 
Q 139.308083 67.523041 139.308083 73.835332 
Q 139.308083 80.250261 142.557917 83.663004 
Q 145.818729 87.067194 152 87.067194 
Q 158.071479 87.067194 161.398167 83.594578 
Q 164.724854 80.11341 164.724854 73.835332 
Q 164.724854 67.523041 161.398167 64.050425 
Q 158.071479 60.57781 152 60.57781 
z
" clip-path="url(#p857010d667)" style="fill: #40ba47"/>
   </g>
   <g id="patch_19">
    <path d="M 240.35 383.685968 
Q 235.941736 383.973858 231.174969 384.119477 
Q 226.408201 384.266769 221.216541 384.266769 
Q 205.734505 384.266769 196.692252 383.175465 
Q 187.65 382.08416 187.65 380.217895 
Q 187.65 378.344935 196.692252 377.255305 
Q 205.734505 376.164 221.216541 376.164 
Q 226.408201 376.164 231.174969 376.311293 
Q 235.941736 376.456912 240.35 376.744802 
L 240.35 378.359999 
Q 235.901902 377.978378 231.586584 377.800957 
Q 227.271265 377.623536 222.504497 377.623536 
Q 213.953527 377.623536 209.053981 378.314807 
Q 204.167712 379.004405 204.167712 380.217895 
Q 204.167712 381.426364 209.053981 382.117636 
Q 213.953527 382.807233 222.504497 382.807233 
Q 227.271265 382.807233 231.586584 382.629812 
Q 235.901902 382.450718 240.35 382.069096 
L 240.35 383.685968 
z
" clip-path="url(#p857010d667)" style="fill: #6b296b"/>
   </g>
   <g id="patch_20">
    <path d="M 188.198462 367.634769 
L 239.801538 367.634769 
L 239.801538 369.215035 
L 207.323077 369.215035 
L 207.323077 370.722365 
L 237.877949 370.722365 
L 237.877949 372.302631 
L 207.323077 372.302631 
L 207.323077 375.737538 
L 188.198462 375.737538 
L 188.198462 367.634769 
z
" clip-path="url(#p857010d667)" style="fill: #21599c"/>
   </g>
   <g id="patch_21">
    <path d="M 187.65 359.105538 
L 204.578032 359.105538 
L 225.968106 364.662517 
L 225.968106 359.105538 
L 240.35 359.105538 
L 240.35 367.208308 
L 223.409364 367.208308 
L 202.01929 361.651329 
L 202.01929 367.208308 
L 187.65 367.208308 
L 187.65 359.105538 
z
" clip-path="url(#p857010d667)" style="fill: #40ba47"/>
   </g>
   <g id="patch_22">
    <path d="M 187.65 350.576308 
L 203.195992 350.576308 
L 213.979692 354.912487 
L 224.83447 350.576308 
L 240.35 350.576308 
L 240.35 358.679077 
L 228.80474 358.679077 
L 228.80474 352.752212 
L 217.889037 357.121386 
L 210.141426 357.121386 
L 199.225723 352.752212 
L 199.225723 358.679077 
L 187.65 358.679077 
L 187.65 350.576308 
z
" clip-path="url(#p857010d667)" style="fill: #21599c"/>
   </g>
   <g id="patch_23">
    <path d="M 187.65 333.731077 
L 201.537864 333.731077 
L 201.537864 339.645786 
L 221.555783 333.731077 
L 237.683253 333.731077 
L 211.743078 341.406653 
L 240.35 349.936615 
L 222.964195 349.936615 
L 201.537864 343.553036 
L 201.537864 349.936615 
L 187.65 349.936615 
L 187.65 333.731077 
z
" clip-path="url(#p857010d667)" style="fill: #bd2e1f"/>
   </g>
   <g id="patch_24">
    <path d="M 187.65 308.356615 
L 215.043021 308.356615 
Q 227.271068 308.356615 233.803672 310.419644 
Q 240.35 312.477462 240.35 316.285729 
Q 240.35 320.114835 233.803672 322.172653 
Q 227.271068 324.230472 215.043021 324.230472 
L 204.159922 324.230472 
L 204.159922 332.664923 
L 187.65 332.664923 
L 187.65 308.356615 
z
M 204.159922 312.899445 
L 204.159922 319.687642 
L 213.286354 319.687642 
Q 218.08974 319.687642 220.711016 318.801998 
Q 223.332292 317.916355 223.332292 316.285729 
Q 223.332292 314.660313 220.711016 313.779879 
Q 218.08974 312.899445 213.286354 312.899445 
L 204.159922 312.899445 
z
" clip-path="url(#p857010d667)" style="fill: #787800"/>
   </g>
   <g id="patch_25">
    <path d="M 240.35 304.877884 
Q 235.035119 305.977557 229.318669 306.529905 
Q 223.602219 307.077231 217.507822 307.077231 
Q 203.736374 307.077231 195.693187 303.803317 
Q 187.65 300.529403 187.65 294.930609 
Q 187.65 289.266537 195.834917 286.01773 
Q 204.031645 282.768923 218.287338 282.768923 
Q 223.779381 282.768923 228.810802 283.210801 
Q 233.854034 283.647658 238.318534 284.511328 
L 238.318534 289.356921 
Q 233.712304 288.247205 229.153317 287.699879 
Q 224.59433 287.147532 220.011721 287.147532 
Q 211.531533 287.147532 206.937113 289.16611 
Q 202.342694 291.179668 202.342694 294.930609 
Q 202.342694 298.646401 206.771762 300.675022 
Q 211.200829 302.698622 219.350314 302.698622 
Q 221.570753 302.698622 223.472299 302.583131 
Q 225.373846 302.462619 226.885634 302.211552 
L 226.885634 297.662218 
L 218.204662 297.662218 
L 218.204662 293.609996 
L 240.35 293.609996 
L 240.35 304.877884 
z
" clip-path="url(#p857010d667)" style="fill: #787800"/>
   </g>
   <g id="patch_26">
    <path d="M 209.032787 267.960032 
Q 213.762274 267.960032 215.814221 267.230679 
Q 217.866168 266.496116 217.866168 264.818603 
Q 217.866168 263.156719 215.814221 262.442995 
Q 213.762274 261.724061 209.032787 261.724061 
L 202.701781 261.724061 
L 202.701781 267.960032 
L 209.032787 267.960032 
z
M 202.701781 272.289266 
L 202.701781 281.489538 
L 187.65 281.489538 
L 187.65 257.181231 
L 210.634307 257.181231 
Q 222.170252 257.181231 227.537844 258.796228 
Q 232.917949 260.406015 232.917949 263.891282 
Q 232.917949 266.298149 230.11529 267.84542 
Q 227.325142 269.392691 221.694801 270.127254 
Q 224.785233 270.418995 227.225047 271.455719 
Q 229.677374 272.487233 232.179748 274.586729 
L 240.35 281.489538 
L 224.322293 281.489538 
L 217.203039 275.451534 
Q 215.050997 273.62815 212.836396 272.961313 
Q 210.634307 272.289266 206.955817 272.289266 
L 202.701781 272.289266 
z
" clip-path="url(#p857010d667)" style="fill: #bd2e1f"/>
   </g>
   <g id="patch_27">
    <path d="M 235.955948 232.753468 
L 235.955948 237.714552 
Q 230.459804 236.850882 225.221293 236.414025 
Q 219.997094 235.972147 215.34541 235.972147 
Q 209.176562 235.972147 206.213797 236.569687 
Q 203.265345 237.162205 203.265345 238.41754 
Q 203.265345 239.361552 205.254834 239.888792 
Q 207.244324 240.411012 212.482835 240.787612 
L 219.811027 241.30481 
Q 230.946442 242.093161 235.641065 243.694968 
Q 240.35 245.291754 240.35 248.244302 
Q 240.35 252.115756 233.794704 254.008801 
Q 227.239408 255.901846 213.770994 255.901846 
Q 207.430391 255.901846 201.032537 255.475032 
Q 194.634682 255.05324 188.236828 254.219697 
L 188.236828 249.123037 
Q 194.634682 250.313095 200.60315 250.920677 
Q 206.571619 251.523238 212.125014 251.523238 
Q 217.764286 251.523238 220.755676 250.865442 
Q 223.747067 250.202625 223.747067 248.977418 
Q 223.747067 247.882766 221.714639 247.285226 
Q 219.682211 246.687687 213.59924 246.215681 
L 206.929441 245.698483 
Q 196.910429 244.945282 192.273058 243.298282 
Q 187.65 241.651283 187.65 238.859418 
Q 187.65 235.359544 194.090793 233.476541 
Q 200.531586 231.593538 212.611651 231.593538 
Q 218.122108 231.593538 223.933134 231.884776 
Q 229.744161 232.176014 235.955948 232.753468 
z
" clip-path="url(#p857010d667)" style="fill: #40ba47"/>
   </g>
   <g id="patch_28">
    <path d="M 187.65 206.005846 
L 240.35 206.005846 
L 240.35 210.746643 
L 221.390256 210.746643 
L 221.390256 230.314154 
L 206.646512 230.314154 
L 206.646512 210.746643 
L 187.65 210.746643 
L 187.65 206.005846 
z
" clip-path="url(#p857010d667)" style="fill: #40ba47"/>
   </g>
   <g id="patch_29">
    <path d="M 187.65 172.102154 
L 206.774615 172.102154 
L 206.774615 198.199114 
L 240.35 198.199114 
L 240.35 204.513231 
L 187.65 204.513231 
L 187.65 172.102154 
z
" clip-path="url(#p857010d667)" style="fill: #21599c"/>
   </g>
   <g id="patch_30">
    <path d="M 224.155336 161.113412 
L 203.887763 161.113412 
L 200.68762 169.969846 
L 187.65 169.969846 
L 206.269015 121.353231 
L 221.730985 121.353231 
L 240.35 169.969846 
L 227.323155 169.969846 
L 224.155336 161.113412 
z
M 207.120231 152.090268 
L 220.890544 152.090268 
L 214.016162 132.751983 
L 207.120231 152.090268 
z
" clip-path="url(#p857010d667)" style="fill: #21599c"/>
   </g>
   <g id="patch_31">
    <path d="M 215.405333 108.674328 
L 214.373292 108.674328 
Q 201.714313 108.674328 194.676667 101.409776 
Q 187.65 94.13382 187.65 81.167109 
Q 187.65 68.223206 194.665687 60.890228 
Q 201.681375 53.545846 214 53.545846 
Q 226.450375 53.545846 233.400187 60.821802 
Q 240.35 68.086354 240.35 81.167109 
Q 240.35 90.142308 236.661 96.631366 
Q 232.972 103.120424 226.044146 106.393464 
L 236.364562 118.368 
L 223.771458 118.368 
L 215.405333 108.674328 
z
M 214 63.490413 
Q 207.961458 63.490413 204.634771 68.120567 
Q 201.308083 72.750721 201.308083 81.167109 
Q 201.308083 89.720349 204.557917 94.270672 
Q 207.818729 98.809592 214 98.809592 
Q 220.071479 98.809592 223.398167 94.179438 
Q 226.724854 89.537879 226.724854 81.167109 
Q 226.724854 72.750721 223.398167 68.120567 
Q 220.071479 63.490413 214 63.490413 
z
" clip-path="url(#p857010d667)" style="fill: #40ba47"/>
   </g>
   <g id="patch_32">
    <path d="M 249.65 376.164 
L 301.253077 376.164 
L 301.253077 377.744266 
L 268.774615 377.744266 
L 268.774615 379.251596 
L 299.329487 379.251596 
L 299.329487 380.831862 
L 268.774615 380.831862 
L 268.774615 382.68824 
L 302.35 382.68824 
L 302.35 384.266769 
L 249.65 384.266769 
L 249.65 376.164 
z
" clip-path="url(#p857010d667)" style="fill: #6b296b"/>
   </g>
   <g id="patch_33">
    <path d="M 302.35 375.004423 
Q 297.035119 375.370981 291.318669 375.555096 
Q 285.602219 375.737538 279.507822 375.737538 
Q 265.736374 375.737538 257.693187 374.646234 
Q 249.65 373.554929 249.65 371.688665 
Q 249.65 369.800641 257.834917 368.717705 
Q 266.031645 367.634769 280.287338 367.634769 
Q 285.779381 367.634769 290.810802 367.782062 
Q 295.854034 367.927681 300.318534 368.215571 
L 300.318534 369.830769 
Q 295.712304 369.460863 291.153317 369.278421 
Q 286.59433 369.094305 282.011721 369.094305 
Q 273.531533 369.094305 268.937113 369.767165 
Q 264.342694 370.438351 264.342694 371.688665 
Q 264.342694 372.927262 268.771762 373.603469 
Q 273.200829 374.278002 281.350314 374.278002 
Q 283.570753 374.278002 285.472299 374.239505 
Q 287.373846 374.199335 288.885634 374.115646 
L 288.885634 372.599201 
L 280.204662 372.599201 
L 280.204662 371.24846 
L 302.35 371.24846 
L 302.35 375.004423 
z
" clip-path="url(#p857010d667)" style="fill: #787800"/>
   </g>
   <g id="patch_34">
    <path d="M 277.405333 365.996599 
L 276.373292 365.996599 
Q 263.714313 365.996599 256.676667 365.08853 
Q 249.65 364.179035 249.65 362.558196 
Q 249.65 360.940208 256.665687 360.023586 
Q 263.681375 359.105538 276 359.105538 
Q 288.450375 359.105538 295.400188 360.015033 
Q 302.35 360.923102 302.35 362.558196 
Q 302.35 363.680096 298.661 364.491228 
Q 294.972 365.302361 288.044146 365.711491 
L 298.364562 367.208308 
L 285.771458 367.208308 
L 277.405333 365.996599 
z
M 276 360.348609 
Q 269.961458 360.348609 266.634771 360.927379 
Q 263.308083 361.506148 263.308083 362.558196 
Q 263.308083 363.627351 266.557917 364.196142 
Q 269.818729 364.763507 276 364.763507 
Q 282.071479 364.763507 285.398167 364.184737 
Q 288.724854 363.604543 288.724854 362.558196 
Q 288.724854 361.506148 285.398167 360.927379 
Q 282.071479 360.348609 276 360.348609 
z
" clip-path="url(#p857010d667)" style="fill: #40ba47"/>
   </g>
   <g id="patch_35">
    <path d="M 264.091481 345.420839 
L 264.091481 355.308788 
L 269.265444 355.308788 
Q 278.112802 355.308788 282.782574 354.037629 
Q 287.464351 352.76647 287.464351 350.345711 
Q 287.464351 347.938845 282.806583 346.681579 
Q 278.16082 345.420839 269.265444 345.420839 
L 264.091481 345.420839 
z
M 249.65 342.260308 
L 264.871777 342.260308 
Q 277.63262 342.260308 283.874989 342.788221 
Q 290.117358 343.31266 294.583052 344.5734 
Q 298.520547 345.670903 300.429271 347.105298 
Q 302.35 348.53622 302.35 350.345711 
Q 302.35 352.182987 300.429271 353.620856 
Q 298.520547 355.058724 294.583052 356.152754 
Q 290.081344 357.413493 283.778952 357.941406 
Q 277.47656 358.465846 264.871777 358.465846 
L 249.65 358.465846 
L 249.65 342.260308 
z
" clip-path="url(#p857010d667)" style="fill: #6b296b"/>
   </g>
   <g id="patch_36">
    <path d="M 249.65 325.201846 
L 302.35 325.201846 
L 302.35 328.362378 
L 283.390256 328.362378 
L 283.390256 341.407385 
L 268.646512 341.407385 
L 268.646512 328.362378 
L 249.65 328.362378 
L 249.65 325.201846 
z
" clip-path="url(#p857010d667)" style="fill: #40ba47"/>
   </g>
   <g id="patch_37">
    <path d="M 271.032787 315.329252 
Q 275.762274 315.329252 277.814221 314.843017 
Q 279.866168 314.353308 279.866168 313.234966 
Q 279.866168 312.127044 277.814221 311.651227 
Q 275.762274 311.171938 271.032787 311.171938 
L 264.701781 311.171938 
L 264.701781 315.329252 
L 271.032787 315.329252 
z
M 264.701781 318.215408 
L 264.701781 324.348923 
L 249.65 324.348923 
L 249.65 308.143385 
L 272.634307 308.143385 
Q 284.170252 308.143385 289.537844 309.220049 
Q 294.917949 310.293241 294.917949 312.616752 
Q 294.917949 314.22133 292.11529 315.252844 
Q 289.325142 316.284358 283.694801 316.774067 
Q 286.785233 316.968561 289.225047 317.65971 
Q 291.677374 318.347386 294.179748 319.74705 
L 302.35 324.348923 
L 286.322293 324.348923 
L 279.203039 320.323587 
Q 277.050997 319.107998 274.836396 318.663439 
Q 272.634307 318.215408 268.955817 318.215408 
L 264.701781 318.215408 
z
" clip-path="url(#p857010d667)" style="fill: #bd2e1f"/>
   </g>
   <g id="patch_38">
    <path d="M 249.65 291.084923 
L 277.043021 291.084923 
Q 289.271068 291.084923 295.803672 292.460275 
Q 302.35 293.832154 302.35 296.370999 
Q 302.35 298.923736 295.803672 300.295615 
Q 289.271068 301.667494 277.043021 301.667494 
L 266.159922 301.667494 
L 266.159922 307.290462 
L 249.65 307.290462 
L 249.65 291.084923 
z
M 266.159922 294.113476 
L 266.159922 298.638941 
L 275.286354 298.638941 
Q 280.08974 298.638941 282.711016 298.048512 
Q 285.332292 297.458083 285.332292 296.370999 
Q 285.332292 295.287388 282.711016 294.700432 
Q 280.08974 294.113476 275.286354 294.113476 
L 266.159922 294.113476 
z
" clip-path="url(#p857010d667)" style="fill: #787800"/>
   </g>
   <g id="patch_39">
    <path d="M 249.65 265.710462 
L 268.774615 265.710462 
L 268.774615 285.283182 
L 302.35 285.283182 
L 302.35 290.018769 
L 249.65 290.018769 
L 249.65 265.710462 
z
" clip-path="url(#p857010d667)" style="fill: #21599c"/>
   </g>
   <g id="patch_40">
    <path d="M 249.65 240.122769 
L 264.813382 240.122769 
L 264.813382 249.385558 
L 287.186618 249.385558 
L 287.186618 240.122769 
L 302.35 240.122769 
L 302.35 264.431077 
L 287.186618 264.431077 
L 287.186618 254.126355 
L 264.813382 254.126355 
L 264.813382 264.431077 
L 249.65 264.431077 
L 249.65 240.122769 
z
" clip-path="url(#p857010d667)" style="fill: #177875"/>
   </g>
   <g id="patch_41">
    <path d="M 249.65 214.535077 
L 263.537864 214.535077 
L 263.537864 223.40714 
L 283.555783 214.535077 
L 299.683253 214.535077 
L 273.743078 226.048442 
L 302.35 238.843385 
L 284.964195 238.843385 
L 263.537864 229.268016 
L 263.537864 238.843385 
L 249.65 238.843385 
L 249.65 214.535077 
z
" clip-path="url(#p857010d667)" style="fill: #bd2e1f"/>
   </g>
   <g id="patch_42">
    <path d="M 297.955948 182.177957 
L 297.955948 188.792736 
Q 292.459804 187.641175 287.221293 187.0587 
Q 281.997094 186.469529 277.34541 186.469529 
Q 271.176562 186.469529 268.213797 187.266249 
Q 265.265345 188.056273 265.265345 189.730053 
Q 265.265345 190.988736 267.254834 191.691723 
Q 269.244324 192.388016 274.482835 192.89015 
L 281.811027 193.579747 
Q 292.946442 194.630881 297.641065 196.766624 
Q 302.35 198.895673 302.35 202.832403 
Q 302.35 207.994341 295.794704 210.518401 
Q 289.239408 213.042462 275.770994 213.042462 
Q 269.430391 213.042462 263.032537 212.473376 
Q 256.634682 211.910986 250.236828 210.799596 
L 250.236828 204.004049 
Q 256.634682 205.590793 262.60315 206.400902 
Q 268.571619 207.204317 274.125014 207.204317 
Q 279.764286 207.204317 282.755676 206.327256 
Q 285.747067 205.4435 285.747067 203.809891 
Q 285.747067 202.350355 283.714639 201.553635 
Q 281.682211 200.756916 275.59924 200.127575 
L 268.929441 199.437977 
Q 258.910429 198.433709 254.273058 196.23771 
Q 249.65 194.04171 249.65 190.319224 
Q 249.65 185.652725 256.090793 183.142055 
Q 262.531586 180.631385 274.611651 180.631385 
Q 280.122108 180.631385 285.933134 181.019702 
Q 291.744161 181.408019 297.955948 182.177957 
z
" clip-path="url(#p857010d667)" style="fill: #40ba47"/>
   </g>
   <g id="patch_43">
    <path d="M 249.65 146.514462 
L 262.68762 146.514462 
L 276.016162 170.437254 
L 289.323155 146.514462 
L 302.35 146.514462 
L 283.730985 178.925538 
L 268.269015 178.925538 
L 249.65 146.514462 
z
" clip-path="url(#p857010d667)" style="fill: #21599c"/>
   </g>
   <g id="patch_44">
    <path d="M 266.437692 104.081538 
L 285.562308 104.081538 
L 285.562308 144.595385 
L 266.437692 144.595385 
L 266.437692 104.081538 
z
" clip-path="url(#p857010d667)" style="fill: #21599c"/>
   </g>
   <g id="patch_45">
    <path d="M 286.155336 92.879566 
L 265.887763 92.879566 
L 262.68762 101.736 
L 249.65 101.736 
L 268.269015 53.119385 
L 283.730985 53.119385 
L 302.35 101.736 
L 289.323155 101.736 
L 286.155336 92.879566 
z
M 269.120231 83.856422 
L 282.890544 83.856422 
L 276.016162 64.518137 
L 269.120231 83.856422 
z
" clip-path="url(#p857010d667)" style="fill: #21599c"/>
   </g>
   <g id="patch_46">
    <path d="M 339.405333 383.05506 
L 338.373292 383.05506 
Q 325.714313 383.05506 318.676667 382.146991 
Q 311.65 381.237497 311.65 379.616658 
Q 311.65 377.99867 318.665687 377.082048 
Q 325.681375 376.164 338 376.164 
Q 350.450375 376.164 357.400188 377.073495 
Q 364.35 377.981563 364.35 379.616658 
Q 364.35 380.738558 360.661 381.54969 
Q 356.972 382.360822 350.044146 382.769952 
L 360.364563 384.266769 
L 347.771458 384.266769 
L 339.405333 383.05506 
z
M 338 377.407071 
Q 331.961458 377.407071 328.634771 377.98584 
Q 325.308083 378.564609 325.308083 379.616658 
Q 325.308083 380.685813 328.557917 381.254603 
Q 331.818729 381.821968 338 381.821968 
Q 344.071479 381.821968 347.398167 381.243199 
Q 350.724854 380.663004 350.724854 379.616658 
Q 350.724854 378.564609 347.398167 377.98584 
Q 344.071479 377.407071 338 377.407071 
z
" clip-path="url(#p857010d667)" style="fill: #40ba47"/>
   </g>
   <g id="patch_47">
    <path d="M 311.65 367.634769 
L 330.774615 367.634769 
L 330.774615 374.159009 
L 364.35 374.159009 
L 364.35 375.737538 
L 311.65 375.737538 
L 311.65 367.634769 
z
" clip-path="url(#p857010d667)" style="fill: #21599c"/>
   </g>
   <g id="patch_48">
    <path d="M 311.65 359.105538 
L 325.537864 359.105538 
L 325.537864 362.062893 
L 345.555783 359.105538 
L 361.683253 359.105538 
L 335.743078 362.943327 
L 364.35 367.208308 
L 346.964195 367.208308 
L 325.537864 364.016518 
L 325.537864 367.208308 
L 311.65 367.208308 
L 311.65 359.105538 
z
" clip-path="url(#p857010d667)" style="fill: #bd2e1f"/>
   </g>
   <g id="patch_49">
    <path d="M 328.437692 350.576308 
L 347.562308 350.576308 
L 347.562308 358.679077 
L 328.437692 358.679077 
L 328.437692 350.576308 
z
" clip-path="url(#p857010d667)" style="fill: #21599c"/>
   </g>
   <g id="patch_50">
    <path d="M 311.65 342.047077 
L 326.813382 342.047077 
L 326.813382 345.134673 
L 349.186618 345.134673 
L 349.186618 342.047077 
L 364.35 342.047077 
L 364.35 350.149846 
L 349.186618 350.149846 
L 349.186618 346.714939 
L 326.813382 346.714939 
L 326.813382 350.149846 
L 311.65 350.149846 
L 311.65 342.047077 
z
" clip-path="url(#p857010d667)" style="fill: #177875"/>
   </g>
   <g id="patch_51">
    <path d="M 311.65 333.517846 
L 363.253077 333.517846 
L 363.253077 335.098112 
L 330.774615 335.098112 
L 330.774615 336.605442 
L 361.329487 336.605442 
L 361.329487 338.185708 
L 330.774615 338.185708 
L 330.774615 340.042086 
L 364.35 340.042086 
L 364.35 341.620615 
L 311.65 341.620615 
L 311.65 333.517846 
z
" clip-path="url(#p857010d667)" style="fill: #6b296b"/>
   </g>
   <g id="patch_52">
    <path d="M 311.65 324.988615 
L 327.195992 324.988615 
L 337.979692 329.324795 
L 348.83447 324.988615 
L 364.35 324.988615 
L 364.35 333.091385 
L 352.80474 333.091385 
L 352.80474 327.16452 
L 341.889037 331.533694 
L 334.141426 331.533694 
L 323.225723 327.16452 
L 323.225723 333.091385 
L 311.65 333.091385 
L 311.65 324.988615 
z
" clip-path="url(#p857010d667)" style="fill: #21599c"/>
   </g>
   <g id="patch_53">
    <path d="M 348.155336 319.707475 
L 327.887763 319.707475 
L 324.68762 324.135692 
L 311.65 324.135692 
L 330.269015 299.827385 
L 345.730985 299.827385 
L 364.35 324.135692 
L 351.323155 324.135692 
L 348.155336 319.707475 
z
M 331.120231 315.195903 
L 344.890544 315.195903 
L 338.016162 305.526761 
L 331.120231 315.195903 
z
" clip-path="url(#p857010d667)" style="fill: #21599c"/>
   </g>
   <g id="patch_54">
    <path d="M 333.032787 162.218775 
Q 337.762274 162.218775 339.814221 155.168359 
Q 341.866168 148.067582 341.866168 131.851624 
Q 341.866168 115.786747 339.814221 108.887411 
Q 337.762274 101.937715 333.032787 101.937715 
L 326.701781 101.937715 
L 326.701781 162.218775 
L 333.032787 162.218775 
z
M 326.701781 204.068033 
L 326.701781 293.004 
L 311.65 293.004 
L 311.65 58.023692 
L 334.634307 58.023692 
Q 346.170252 58.023692 351.537844 73.635329 
Q 356.917949 89.196605 356.917949 122.887523 
Q 356.917949 146.153898 354.11529 161.110853 
Q 351.325142 176.067807 345.694801 183.168584 
Q 348.785233 185.988751 351.225047 196.010414 
Q 353.677374 205.981717 356.179748 226.276844 
L 364.35 293.004 
L 348.322293 293.004 
L 341.203039 234.636624 
Q 339.050997 217.010583 336.836396 210.564488 
Q 334.634307 204.068033 330.955817 204.068033 
L 326.701781 204.068033 
z
" clip-path="url(#p857010d667)" style="fill: #bd2e1f"/>
   </g>
   <g id="patch_55">
    <path d="M 388.091481 377.744266 
L 388.091481 382.68824 
L 393.265444 382.68824 
Q 402.112802 382.68824 406.782574 382.052661 
Q 411.464351 381.417081 411.464351 380.206702 
Q 411.464351 379.003269 406.806583 378.374635 
Q 402.16082 377.744266 393.265444 377.744266 
L 388.091481 377.744266 
z
M 373.65 376.164 
L 388.871777 376.164 
Q 401.63262 376.164 407.874989 376.427956 
Q 414.117358 376.690176 418.583052 377.320546 
Q 422.520547 377.869298 424.429271 378.586495 
Q 426.35 379.301956 426.35 380.206702 
Q 426.35 381.12534 424.429271 381.844274 
Q 422.520547 382.563208 418.583052 383.110223 
Q 414.081344 383.740593 407.778952 384.004549 
Q 401.47656 384.266769 388.871777 384.266769 
L 373.65 384.266769 
L 373.65 376.164 
z
" clip-path="url(#p857010d667)" style="fill: #6b296b"/>
   </g>
   <g id="patch_56">
    <path d="M 373.65 367.634769 
L 425.253077 367.634769 
L 425.253077 369.215035 
L 392.774615 369.215035 
L 392.774615 370.722365 
L 423.329487 370.722365 
L 423.329487 372.302631 
L 392.774615 372.302631 
L 392.774615 374.159009 
L 426.35 374.159009 
L 426.35 375.737538 
L 373.65 375.737538 
L 373.65 367.634769 
z
" clip-path="url(#p857010d667)" style="fill: #6b296b"/>
   </g>
   <g id="patch_57">
    <path d="M 395.032787 362.698472 
Q 399.762274 362.698472 401.814221 362.455355 
Q 403.866168 362.2105 403.866168 361.651329 
Q 403.866168 361.097368 401.814221 360.85946 
Q 399.762274 360.619815 395.032787 360.619815 
L 388.701781 360.619815 
L 388.701781 362.698472 
L 395.032787 362.698472 
z
M 388.701781 364.14155 
L 388.701781 367.208308 
L 373.65 367.208308 
L 373.65 359.105538 
L 396.634307 359.105538 
Q 408.170252 359.105538 413.537844 359.643871 
Q 418.917949 360.180466 418.917949 361.342222 
Q 418.917949 362.144511 416.11529 362.660268 
Q 413.325142 363.176025 407.694801 363.42088 
Q 410.785233 363.518127 413.225047 363.863701 
Q 415.677374 364.207539 418.179748 364.907371 
L 426.35 367.208308 
L 410.322293 367.208308 
L 403.203039 365.19564 
Q 401.050997 364.587845 398.836396 364.365566 
Q 396.634307 364.14155 392.955817 364.14155 
L 388.701781 364.14155 
z
" clip-path="url(#p857010d667)" style="fill: #bd2e1f"/>
   </g>
   <g id="patch_58">
    <path d="M 373.65 350.576308 
L 389.195992 350.576308 
L 399.979692 354.912487 
L 410.83447 350.576308 
L 426.35 350.576308 
L 426.35 358.679077 
L 414.80474 358.679077 
L 414.80474 352.752212 
L 403.889037 357.121386 
L 396.141426 357.121386 
L 385.225723 352.752212 
L 385.225723 358.679077 
L 373.65 358.679077 
L 373.65 350.576308 
z
" clip-path="url(#p857010d667)" style="fill: #21599c"/>
   </g>
   <g id="patch_59">
    <path d="M 373.65 342.047077 
L 390.578032 342.047077 
L 411.968106 347.604055 
L 411.968106 342.047077 
L 426.35 342.047077 
L 426.35 350.149846 
L 409.409364 350.149846 
L 388.01929 344.592868 
L 388.01929 350.149846 
L 373.65 350.149846 
L 373.65 342.047077 
z
" clip-path="url(#p857010d667)" style="fill: #40ba47"/>
   </g>
   <g id="patch_60">
    <path d="M 373.65 325.201846 
L 426.35 325.201846 
L 426.35 328.362378 
L 407.390256 328.362378 
L 407.390256 341.407385 
L 392.646512 341.407385 
L 392.646512 328.362378 
L 373.65 328.362378 
L 373.65 325.201846 
z
" clip-path="url(#p857010d667)" style="fill: #40ba47"/>
   </g>
   <g id="patch_61">
    <path d="M 426.35 322.882692 
Q 421.035119 323.615807 415.318669 323.984039 
Q 409.602219 324.348923 403.507822 324.348923 
Q 389.736374 324.348923 381.693187 322.166314 
Q 373.65 319.983705 373.65 316.251175 
Q 373.65 312.475127 381.834917 310.309256 
Q 390.031645 308.143385 404.287338 308.143385 
Q 409.779381 308.143385 414.810802 308.43797 
Q 419.854034 308.729208 424.318534 309.304988 
L 424.318534 312.535383 
Q 419.712304 311.795573 415.153317 311.430689 
Q 410.59433 311.062457 406.011721 311.062457 
Q 397.531533 311.062457 392.937113 312.408176 
Q 388.342694 313.750548 388.342694 316.251175 
Q 388.342694 318.72837 392.771762 320.080784 
Q 397.200829 321.429851 405.350314 321.429851 
Q 407.570753 321.429851 409.472299 321.352857 
Q 411.373846 321.272515 412.885634 321.105137 
L 412.885634 318.072248 
L 404.204662 318.072248 
L 404.204662 315.370767 
L 426.35 315.370767 
L 426.35 322.882692 
z
" clip-path="url(#p857010d667)" style="fill: #787800"/>
   </g>
   <g id="patch_62">
    <path d="M 373.65 291.084923 
L 401.043021 291.084923 
Q 413.271068 291.084923 419.803672 292.460275 
Q 426.35 293.832154 426.35 296.370999 
Q 426.35 298.923736 419.803672 300.295615 
Q 413.271068 301.667494 401.043021 301.667494 
L 390.159922 301.667494 
L 390.159922 307.290462 
L 373.65 307.290462 
L 373.65 291.084923 
z
M 390.159922 294.113476 
L 390.159922 298.638941 
L 399.286354 298.638941 
Q 404.08974 298.638941 406.711016 298.048512 
Q 409.332292 297.458083 409.332292 296.370999 
Q 409.332292 295.287388 406.711016 294.700432 
Q 404.08974 294.113476 399.286354 294.113476 
L 390.159922 294.113476 
z
" clip-path="url(#p857010d667)" style="fill: #787800"/>
   </g>
   <g id="patch_63">
    <path d="M 410.155336 285.590552 
L 389.887763 285.590552 
L 386.68762 290.018769 
L 373.65 290.018769 
L 392.269015 265.710462 
L 407.730985 265.710462 
L 426.35 290.018769 
L 413.323155 290.018769 
L 410.155336 285.590552 
z
M 393.120231 281.07898 
L 406.890544 281.07898 
L 400.016162 271.409838 
L 393.120231 281.07898 
z
" clip-path="url(#p857010d667)" style="fill: #21599c"/>
   </g>
   <g id="patch_64">
    <path d="M 373.65 240.122769 
L 387.537864 240.122769 
L 387.537864 248.994833 
L 407.555783 240.122769 
L 423.683253 240.122769 
L 397.743078 251.636134 
L 426.35 264.431077 
L 408.964195 264.431077 
L 387.537864 254.855708 
L 387.537864 264.431077 
L 373.65 264.431077 
L 373.65 240.122769 
z
" clip-path="url(#p857010d667)" style="fill: #bd2e1f"/>
   </g>
   <g id="patch_65">
    <path d="M 401.405333 235.208258 
L 400.373292 235.208258 
Q 387.714313 235.208258 380.676667 232.484051 
Q 373.65 229.755567 373.65 224.89305 
Q 373.65 220.039087 380.665687 217.28922 
Q 387.681375 214.535077 400 214.535077 
Q 412.450375 214.535077 419.400188 217.26356 
Q 426.35 219.987767 426.35 224.89305 
Q 426.35 228.25875 422.661 230.692147 
Q 418.972 233.125544 412.044146 234.352934 
L 422.364563 238.843385 
L 409.771458 238.843385 
L 401.405333 235.208258 
z
M 400 218.26429 
Q 393.961458 218.26429 390.634771 220.000597 
Q 387.308083 221.736905 387.308083 224.89305 
Q 387.308083 228.100515 390.557917 229.806887 
Q 393.818729 231.508981 400 231.508981 
Q 406.071479 231.508981 409.398167 229.772674 
Q 412.724854 228.032089 412.724854 224.89305 
Q 412.724854 221.736905 409.398167 220.000597 
Q 406.071479 218.26429 400 218.26429 
z
" clip-path="url(#p857010d667)" style="fill: #40ba47"/>
   </g>
   <g id="patch_66">
    <path d="M 421.955948 182.177957 
L 421.955948 188.792736 
Q 416.459804 187.641175 411.221293 187.0587 
Q 405.997094 186.469529 401.34541 186.469529 
Q 395.176562 186.469529 392.213797 187.266249 
Q 389.265345 188.056273 389.265345 189.730053 
Q 389.265345 190.988736 391.254834 191.691723 
Q 393.244324 192.388016 398.482835 192.89015 
L 405.811027 193.579747 
Q 416.946442 194.630881 421.641065 196.766624 
Q 426.35 198.895673 426.35 202.832403 
Q 426.35 207.994341 419.794704 210.518401 
Q 413.239408 213.042462 399.770994 213.042462 
Q 393.430391 213.042462 387.032537 212.473376 
Q 380.634682 211.910986 374.236828 210.799596 
L 374.236828 204.004049 
Q 380.634682 205.590793 386.60315 206.400902 
Q 392.571619 207.204317 398.125014 207.204317 
Q 403.764286 207.204317 406.755676 206.327256 
Q 409.747067 205.4435 409.747067 203.809891 
Q 409.747067 202.350355 407.714639 201.553635 
Q 405.682211 200.756916 399.59924 200.127575 
L 392.929441 199.437977 
Q 382.910429 198.433709 378.273058 196.23771 
Q 373.65 194.04171 373.65 190.319224 
Q 373.65 185.652725 380.090793 183.142055 
Q 386.531586 180.631385 398.611651 180.631385 
Q 404.122108 180.631385 409.933134 181.019702 
Q 415.744161 181.408019 421.955948 182.177957 
z
" clip-path="url(#p857010d667)" style="fill: #40ba47"/>
   </g>
   <g id="patch_67">
    <path d="M 374.198462 146.514462 
L 425.801538 146.514462 
L 425.801538 152.835525 
L 393.323077 152.835525 
L 393.323077 158.864846 
L 423.877949 158.864846 
L 423.877949 165.185909 
L 393.323077 165.185909 
L 393.323077 178.925538 
L 374.198462 178.925538 
L 374.198462 146.514462 
z
" clip-path="url(#p857010d667)" style="fill: #21599c"/>
   </g>
   <g id="patch_68">
    <path d="M 373.65 104.081538 
L 392.774615 104.081538 
L 392.774615 136.702739 
L 426.35 136.702739 
L 426.35 144.595385 
L 373.65 144.595385 
L 373.65 104.081538 
z
" clip-path="url(#p857010d667)" style="fill: #21599c"/>
   </g>
   <g id="patch_69">
    <path d="M 373.65 53.119385 
L 386.68762 53.119385 
L 400.016162 89.003573 
L 413.323155 53.119385 
L 426.35 53.119385 
L 407.730985 101.736 
L 392.269015 101.736 
L 373.65 53.119385 
z
" clip-path="url(#p857010d667)" style="fill: #21599c"/>
   </g>
   <g id="patch_70">
    <path d="M 435.65 376.164 
L 449.537864 376.164 
L 449.537864 379.121354 
L 469.555783 376.164 
L 485.683253 376.164 
L 459.743078 380.001788 
L 488.35 384.266769 
L 470.964195 384.266769 
L 449.537864 381.07498 
L 449.537864 384.266769 
L 435.65 384.266769 
L 435.65 376.164 
z
" clip-path="url(#p857010d667)" style="fill: #bd2e1f"/>
   </g>
   <g id="patch_71">
    <path d="M 488.35 375.156737 
Q 483.941736 375.444627 479.174969 375.590246 
Q 474.408201 375.737538 469.216541 375.737538 
Q 453.734505 375.737538 444.692252 374.646234 
Q 435.65 373.554929 435.65 371.688665 
Q 435.65 369.815705 444.692252 368.726074 
Q 453.734505 367.634769 469.216541 367.634769 
Q 474.408201 367.634769 479.174969 367.782062 
Q 483.941736 367.927681 488.35 368.215571 
L 488.35 369.830769 
Q 483.901902 369.449147 479.586584 369.271726 
Q 475.271265 369.094305 470.504497 369.094305 
Q 461.953527 369.094305 457.053981 369.785577 
Q 452.167712 370.475174 452.167712 371.688665 
Q 452.167712 372.897134 457.053981 373.588405 
Q 461.953527 374.278002 470.504497 374.278002 
Q 475.271265 374.278002 479.586584 374.100582 
Q 483.901902 373.921487 488.35 373.539865 
L 488.35 375.156737 
z
" clip-path="url(#p857010d667)" style="fill: #6b296b"/>
   </g>
   <g id="patch_72">
    <path d="M 435.65 359.105538 
L 487.253077 359.105538 
L 487.253077 360.685804 
L 454.774615 360.685804 
L 454.774615 362.193135 
L 485.329487 362.193135 
L 485.329487 363.7734 
L 454.774615 363.7734 
L 454.774615 365.629778 
L 488.35 365.629778 
L 488.35 367.208308 
L 435.65 367.208308 
L 435.65 359.105538 
z
" clip-path="url(#p857010d667)" style="fill: #6b296b"/>
   </g>
   <g id="patch_73">
    <path d="M 435.65 350.576308 
L 488.35 350.576308 
L 488.35 352.156573 
L 469.390256 352.156573 
L 469.390256 358.679077 
L 454.646512 358.679077 
L 454.646512 352.156573 
L 435.65 352.156573 
L 435.65 350.576308 
z
" clip-path="url(#p857010d667)" style="fill: #40ba47"/>
   </g>
   <g id="patch_74">
    <path d="M 435.65 342.047077 
L 463.043021 342.047077 
Q 475.271068 342.047077 481.803672 342.734753 
Q 488.35 343.420693 488.35 344.690115 
Q 488.35 345.966483 481.803672 346.652423 
Q 475.271068 347.338362 463.043021 347.338362 
L 452.159922 347.338362 
L 452.159922 350.149846 
L 435.65 350.149846 
L 435.65 342.047077 
z
M 452.159922 343.561354 
L 452.159922 345.824086 
L 461.286354 345.824086 
Q 466.08974 345.824086 468.711016 345.528871 
Q 471.332292 345.233657 471.332292 344.690115 
Q 471.332292 344.148309 468.711016 343.854831 
Q 466.08974 343.561354 461.286354 343.561354 
L 452.159922 343.561354 
z
" clip-path="url(#p857010d667)" style="fill: #787800"/>
   </g>
   <g id="patch_75">
    <path d="M 450.091481 328.362378 
L 450.091481 338.250326 
L 455.265444 338.250326 
Q 464.112802 338.250326 468.782574 336.979167 
Q 473.464351 335.708009 473.464351 333.28725 
Q 473.464351 330.880384 468.806583 329.623117 
Q 464.16082 328.362378 455.265444 328.362378 
L 450.091481 328.362378 
z
M 435.65 325.201846 
L 450.871777 325.201846 
Q 463.63262 325.201846 469.874989 325.729759 
Q 476.117358 326.254199 480.583052 327.514938 
Q 484.520547 328.612442 486.429271 330.046837 
Q 488.35 331.477759 488.35 333.28725 
Q 488.35 335.124526 486.429271 336.562394 
Q 484.520547 338.000262 480.583052 339.094292 
Q 476.081344 340.355032 469.778952 340.882945 
Q 463.47656 341.407385 450.871777 341.407385 
L 435.65 341.407385 
L 435.65 325.201846 
z
" clip-path="url(#p857010d667)" style="fill: #6b296b"/>
   </g>
   <g id="patch_76">
    <path d="M 436.198462 308.143385 
L 487.801538 308.143385 
L 487.801538 311.303916 
L 455.323077 311.303916 
L 455.323077 314.318577 
L 485.877949 314.318577 
L 485.877949 317.479108 
L 455.323077 317.479108 
L 455.323077 324.348923 
L 436.198462 324.348923 
L 436.198462 308.143385 
z
" clip-path="url(#p857010d667)" style="fill: #21599c"/>
   </g>
   <g id="patch_77">
    <path d="M 488.35 305.82423 
Q 483.035119 306.557346 477.318669 306.925577 
Q 471.602219 307.290462 465.507822 307.290462 
Q 451.736374 307.290462 443.693187 305.107852 
Q 435.65 302.925243 435.65 299.192714 
Q 435.65 295.416666 443.834917 293.250794 
Q 452.031645 291.084923 466.287338 291.084923 
Q 471.779381 291.084923 476.810802 291.379508 
Q 481.854034 291.670746 486.318534 292.246526 
L 486.318534 295.476922 
Q 481.712304 294.737111 477.153317 294.372227 
Q 472.59433 294.003995 468.011721 294.003995 
Q 459.531533 294.003995 454.937113 295.349715 
Q 450.342694 296.692086 450.342694 299.192714 
Q 450.342694 301.669908 454.771762 303.022322 
Q 459.200829 304.371389 467.350314 304.371389 
Q 469.570753 304.371389 471.472299 304.294395 
Q 473.373846 304.214054 474.885634 304.046676 
L 474.885634 301.013786 
L 466.204662 301.013786 
L 466.204662 298.312305 
L 488.35 298.312305 
L 488.35 305.82423 
z
" clip-path="url(#p857010d667)" style="fill: #787800"/>
   </g>
   <g id="patch_78">
    <path d="M 452.437692 274.026462 
L 471.562308 274.026462 
L 471.562308 290.232 
L 452.437692 290.232 
L 452.437692 274.026462 
z
" clip-path="url(#p857010d667)" style="fill: #21599c"/>
   </g>
   <g id="patch_79">
    <path d="M 435.65 256.968 
L 452.578032 256.968 
L 473.968106 268.081957 
L 473.968106 256.968 
L 488.35 256.968 
L 488.35 273.173538 
L 471.409364 273.173538 
L 450.01929 262.059582 
L 450.01929 273.173538 
L 435.65 273.173538 
L 435.65 256.968 
z
" clip-path="url(#p857010d667)" style="fill: #40ba47"/>
   </g>
   <g id="patch_80">
    <path d="M 435.65 231.593538 
L 450.22 231.593538 
L 461.988929 240.257215 
L 473.746786 231.593538 
L 488.35 231.593538 
L 468.665 245.65964 
L 468.665 255.901846 
L 455.346071 255.901846 
L 455.346071 245.65964 
L 435.65 231.593538 
z
" clip-path="url(#p857010d667)" style="fill: #177875"/>
   </g>
   <g id="patch_81">
    <path d="M 483.955948 207.165776 
L 483.955948 212.12686 
Q 478.459804 211.263189 473.221293 210.826333 
Q 467.997094 210.384455 463.34541 210.384455 
Q 457.176562 210.384455 454.213797 210.981994 
Q 451.265345 211.574512 451.265345 212.829847 
Q 451.265345 213.773859 453.254834 214.3011 
Q 455.244324 214.823319 460.482835 215.19992 
L 467.811027 215.717118 
Q 478.946442 216.505468 483.641065 218.107276 
Q 488.35 219.704062 488.35 222.65661 
Q 488.35 226.528063 481.794704 228.421109 
Q 475.239408 230.314154 461.770994 230.314154 
Q 455.430391 230.314154 449.032537 229.88734 
Q 442.634682 229.465547 436.236828 228.632005 
L 436.236828 223.535345 
Q 442.634682 224.725402 448.60315 225.332984 
Q 454.571619 225.935545 460.125014 225.935545 
Q 465.764286 225.935545 468.755676 225.27775 
Q 471.747067 224.614933 471.747067 223.389726 
Q 471.747067 222.295074 469.714639 221.697534 
Q 467.682211 221.099995 461.59924 220.627989 
L 454.929441 220.110791 
Q 444.910429 219.35759 440.273058 217.71059 
Q 435.65 216.06359 435.65 213.271725 
Q 435.65 209.771851 442.090793 207.888849 
Q 448.531586 206.005846 460.611651 206.005846 
Q 466.122108 206.005846 471.933134 206.297084 
Q 477.744161 206.588322 483.955948 207.165776 
z
" clip-path="url(#p857010d667)" style="fill: #40ba47"/>
   </g>
   <g id="patch_82">
    <path d="M 435.65 180.418154 
L 448.68762 180.418154 
L 462.016162 198.360248 
L 475.323155 180.418154 
L 488.35 180.418154 
L 469.730985 204.726462 
L 454.269015 204.726462 
L 435.65 180.418154 
z
" clip-path="url(#p857010d667)" style="fill: #21599c"/>
   </g>
   <g id="patch_83">
    <path d="M 435.65 146.514462 
L 454.774615 146.514462 
L 454.774615 172.611422 
L 488.35 172.611422 
L 488.35 178.925538 
L 435.65 178.925538 
L 435.65 146.514462 
z
" clip-path="url(#p857010d667)" style="fill: #21599c"/>
   </g>
   <g id="patch_84">
    <path d="M 472.155336 127.079204 
L 451.887763 127.079204 
L 448.68762 143.316 
L 435.65 143.316 
L 454.269015 54.185538 
L 469.730985 54.185538 
L 488.35 143.316 
L 475.323155 143.316 
L 472.155336 127.079204 
z
M 455.120231 110.536773 
L 468.890544 110.536773 
L 462.016162 75.083251 
L 455.120231 110.536773 
z
" clip-path="url(#p857010d667)" style="fill: #21599c"/>
   </g>
   <g id="patch_85">
    <path d="M 497.65 376.164 
L 510.68762 376.164 
L 524.016162 382.144698 
L 537.323155 376.164 
L 550.35 376.164 
L 531.730985 384.266769 
L 516.269015 384.266769 
L 497.65 376.164 
z
" clip-path="url(#p857010d667)" style="fill: #21599c"/>
   </g>
   <g id="patch_86">
    <path d="M 497.65 367.634769 
L 512.813382 367.634769 
L 512.813382 370.722365 
L 535.186618 370.722365 
L 535.186618 367.634769 
L 550.35 367.634769 
L 550.35 375.737538 
L 535.186618 375.737538 
L 535.186618 372.302631 
L 512.813382 372.302631 
L 512.813382 375.737538 
L 497.65 375.737538 
L 497.65 367.634769 
z
" clip-path="url(#p857010d667)" style="fill: #177875"/>
   </g>
   <g id="patch_87">
    <path d="M 514.437692 359.105538 
L 533.562308 359.105538 
L 533.562308 367.208308 
L 514.437692 367.208308 
L 514.437692 359.105538 
z
" clip-path="url(#p857010d667)" style="fill: #21599c"/>
   </g>
   <g id="patch_88">
    <path d="M 497.65 350.576308 
L 511.537864 350.576308 
L 511.537864 353.533662 
L 531.555783 350.576308 
L 547.683253 350.576308 
L 521.743078 354.414096 
L 550.35 358.679077 
L 532.964195 358.679077 
L 511.537864 355.487287 
L 511.537864 358.679077 
L 497.65 358.679077 
L 497.65 350.576308 
z
" clip-path="url(#p857010d667)" style="fill: #bd2e1f"/>
   </g>
   <g id="patch_89">
    <path d="M 497.65 342.047077 
L 513.195992 342.047077 
L 523.979692 346.383257 
L 534.83447 342.047077 
L 550.35 342.047077 
L 550.35 350.149846 
L 538.80474 350.149846 
L 538.80474 344.222981 
L 527.889037 348.592156 
L 520.141426 348.592156 
L 509.225723 344.222981 
L 509.225723 350.149846 
L 497.65 350.149846 
L 497.65 342.047077 
z
" clip-path="url(#p857010d667)" style="fill: #21599c"/>
   </g>
   <g id="patch_90">
    <path d="M 497.65 333.517846 
L 514.578032 333.517846 
L 535.968106 339.074825 
L 535.968106 333.517846 
L 550.35 333.517846 
L 550.35 341.620615 
L 533.409364 341.620615 
L 512.01929 336.063637 
L 512.01929 341.620615 
L 497.65 341.620615 
L 497.65 333.517846 
z
" clip-path="url(#p857010d667)" style="fill: #40ba47"/>
   </g>
   <g id="patch_91">
    <path d="M 534.155336 329.926009 
L 513.887763 329.926009 
L 510.68762 332.878154 
L 497.65 332.878154 
L 516.269015 316.672615 
L 531.730985 316.672615 
L 550.35 332.878154 
L 537.323155 332.878154 
L 534.155336 329.926009 
z
M 517.120231 326.918294 
L 530.890544 326.918294 
L 524.016162 320.472199 
L 517.120231 326.918294 
z
" clip-path="url(#p857010d667)" style="fill: #21599c"/>
   </g>
   <g id="patch_92">
    <path d="M 497.65 299.614154 
L 550.35 299.614154 
L 550.35 302.774685 
L 531.390256 302.774685 
L 531.390256 315.819692 
L 516.646512 315.819692 
L 516.646512 302.774685 
L 497.65 302.774685 
L 497.65 299.614154 
z
" clip-path="url(#p857010d667)" style="fill: #40ba47"/>
   </g>
   <g id="patch_93">
    <path d="M 497.65 282.555692 
L 525.043021 282.555692 
Q 537.271068 282.555692 543.803672 283.931044 
Q 550.35 285.302924 550.35 287.841768 
Q 550.35 290.394505 543.803672 291.766384 
Q 537.271068 293.138263 525.043021 293.138263 
L 514.159922 293.138263 
L 514.159922 298.761231 
L 497.65 298.761231 
L 497.65 282.555692 
z
M 514.159922 285.584246 
L 514.159922 290.10971 
L 523.286354 290.10971 
Q 528.08974 290.10971 530.711016 289.519281 
Q 533.332292 288.928852 533.332292 287.841768 
Q 533.332292 286.758157 530.711016 286.171201 
Q 528.08974 285.584246 523.286354 285.584246 
L 514.159922 285.584246 
z
" clip-path="url(#p857010d667)" style="fill: #787800"/>
   </g>
   <g id="patch_94">
    <path d="M 497.65 265.497231 
L 512.22 265.497231 
L 523.988929 271.273015 
L 535.746786 265.497231 
L 550.35 265.497231 
L 530.665 274.874632 
L 530.665 281.702769 
L 517.346071 281.702769 
L 517.346071 274.874632 
L 497.65 265.497231 
z
" clip-path="url(#p857010d667)" style="fill: #177875"/>
   </g>
   <g id="patch_95">
    <path d="M 498.198462 248.438769 
L 549.801538 248.438769 
L 549.801538 251.599301 
L 517.323077 251.599301 
L 517.323077 254.613962 
L 547.877949 254.613962 
L 547.877949 257.774493 
L 517.323077 257.774493 
L 517.323077 264.644308 
L 498.198462 264.644308 
L 498.198462 248.438769 
z
" clip-path="url(#p857010d667)" style="fill: #21599c"/>
   </g>
   <g id="patch_96">
    <path d="M 512.091481 227.805105 
L 512.091481 242.637028 
L 517.265444 242.637028 
Q 526.112802 242.637028 530.782574 240.73029 
Q 535.464351 238.823551 535.464351 235.192413 
Q 535.464351 231.582114 530.806583 229.696214 
Q 526.16082 227.805105 517.265444 227.805105 
L 512.091481 227.805105 
z
M 497.65 223.064308 
L 512.871777 223.064308 
Q 525.63262 223.064308 531.874989 223.856177 
Q 538.117358 224.642837 542.583052 226.533946 
Q 546.520547 228.180201 548.429271 230.331794 
Q 550.35 232.478177 550.35 235.192413 
Q 550.35 237.948327 548.429271 240.105129 
Q 546.520547 242.261932 542.583052 243.902977 
Q 538.081344 245.794086 531.778952 246.585956 
Q 525.47656 247.372615 512.871777 247.372615 
L 497.65 247.372615 
L 497.65 223.064308 
z
" clip-path="url(#p857010d667)" style="fill: #6b296b"/>
   </g>
   <g id="patch_97">
    <path d="M 497.65 197.476615 
L 516.774615 197.476615 
L 516.774615 217.049335 
L 550.35 217.049335 
L 550.35 221.784923 
L 497.65 221.784923 
L 497.65 197.476615 
z
" clip-path="url(#p857010d667)" style="fill: #21599c"/>
   </g>
   <g id="patch_98">
    <path d="M 545.955948 165.119496 
L 545.955948 171.734275 
Q 540.459804 170.582714 535.221293 170.000238 
Q 529.997094 169.411068 525.34541 169.411068 
Q 519.176562 169.411068 516.213797 170.207787 
Q 513.265345 170.997811 513.265345 172.671591 
Q 513.265345 173.930274 515.254834 174.633262 
Q 517.244324 175.329554 522.482835 175.831688 
L 529.811027 176.521286 
Q 540.946442 177.572419 545.641065 179.708163 
Q 550.35 181.837211 550.35 185.773942 
Q 550.35 190.935879 543.794704 193.45994 
Q 537.239408 195.984 523.770994 195.984 
Q 517.430391 195.984 511.032537 195.414915 
Q 504.634682 194.852525 498.236828 193.741135 
L 498.236828 186.945588 
Q 504.634682 188.532331 510.60315 189.342441 
Q 516.571619 190.145855 522.125014 190.145855 
Q 527.764286 190.145855 530.755676 189.268794 
Q 533.747067 188.385039 533.747067 186.751429 
Q 533.747067 185.291893 531.714639 184.495174 
Q 529.682211 183.698454 523.59924 183.069113 
L 516.929441 182.379516 
Q 506.910429 181.375248 502.273058 179.179248 
Q 497.65 176.983249 497.65 173.260762 
Q 497.65 168.594263 504.090793 166.083593 
Q 510.531586 163.572923 522.611651 163.572923 
Q 528.122108 163.572923 533.933134 163.96124 
Q 539.744161 164.349557 545.955948 165.119496 
z
" clip-path="url(#p857010d667)" style="fill: #40ba47"/>
   </g>
   <g id="patch_99">
    <path d="M 497.65 129.456 
L 549.253077 129.456 
L 549.253077 135.777063 
L 516.774615 135.777063 
L 516.774615 141.806385 
L 547.329487 141.806385 
L 547.329487 148.127448 
L 516.774615 148.127448 
L 516.774615 155.55296 
L 550.35 155.55296 
L 550.35 161.867077 
L 497.65 161.867077 
L 497.65 129.456 
z
" clip-path="url(#p857010d667)" style="fill: #6b296b"/>
   </g>
   <g id="patch_100">
    <path d="M 550.35 124.817691 
Q 545.035119 126.283923 539.318669 127.020386 
Q 533.602219 127.750154 527.507822 127.750154 
Q 513.736374 127.750154 505.693187 123.384935 
Q 497.65 119.019717 497.65 111.554658 
Q 497.65 104.002562 505.834917 99.67082 
Q 514.031645 95.339077 528.287338 95.339077 
Q 533.779381 95.339077 538.810802 95.928248 
Q 543.854034 96.510723 548.318534 97.662284 
L 548.318534 104.123075 
Q 543.712304 102.643453 539.153317 101.913685 
Q 534.59433 101.177222 530.011721 101.177222 
Q 521.531533 101.177222 516.937113 103.86866 
Q 512.342694 106.553403 512.342694 111.554658 
Q 512.342694 116.509047 516.771762 119.213876 
Q 521.200829 121.912009 529.350314 121.912009 
Q 531.570753 121.912009 533.472299 121.758021 
Q 535.373846 121.597338 536.885634 121.262582 
L 536.885634 115.196803 
L 528.204662 115.196803 
L 528.204662 109.793841 
L 550.35 109.793841 
L 550.35 124.817691 
z
" clip-path="url(#p857010d667)" style="fill: #787800"/>
   </g>
   <g id="patch_101">
    <path d="M 525.405333 87.361455 
L 524.373292 87.361455 
Q 511.714313 87.361455 504.676667 82.82111 
Q 497.65 78.273638 497.65 70.169443 
Q 497.65 62.079504 504.665687 57.496393 
Q 511.681375 52.906154 524 52.906154 
Q 536.450375 52.906154 543.400187 57.453626 
Q 550.35 61.993971 550.35 70.169443 
Q 550.35 75.778943 546.661 79.834604 
Q 542.972 83.890265 536.044146 85.935915 
L 546.364562 93.42 
L 533.771458 93.42 
L 525.405333 87.361455 
z
M 524 59.121508 
Q 517.961458 59.121508 514.634771 62.015354 
Q 511.308083 64.9092 511.308083 70.169443 
Q 511.308083 75.515218 514.557917 78.35917 
Q 517.818729 81.195995 524 81.195995 
Q 530.071479 81.195995 533.398167 78.302149 
Q 536.724854 75.401175 536.724854 70.169443 
Q 536.724854 64.9092 533.398167 62.015354 
Q 530.071479 59.121508 524 59.121508 
z
" clip-path="url(#p857010d667)" style="fill: #40ba47"/>
   </g>
   <g id="patch_102">
    <path d="M 559.65 376.164 
L 574.22 376.164 
L 585.988929 379.051892 
L 597.746786 376.164 
L 612.35 376.164 
L 592.665 380.852701 
L 592.665 384.266769 
L 579.346071 384.266769 
L 579.346071 380.852701 
L 559.65 376.164 
z
" clip-path="url(#p857010d667)" style="fill: #177875"/>
   </g>
   <g id="patch_103">
    <path d="M 560.198462 367.634769 
L 611.801538 367.634769 
L 611.801538 369.215035 
L 579.323077 369.215035 
L 579.323077 370.722365 
L 609.877949 370.722365 
L 609.877949 372.302631 
L 579.323077 372.302631 
L 579.323077 375.737538 
L 560.198462 375.737538 
L 560.198462 367.634769 
z
" clip-path="url(#p857010d667)" style="fill: #21599c"/>
   </g>
   <g id="patch_104">
    <path d="M 559.65 359.105538 
L 587.043021 359.105538 
Q 599.271068 359.105538 605.803672 359.793215 
Q 612.35 360.479154 612.35 361.748576 
Q 612.35 363.024945 605.803672 363.710884 
Q 599.271068 364.396824 587.043021 364.396824 
L 576.159922 364.396824 
L 576.159922 367.208308 
L 559.65 367.208308 
L 559.65 359.105538 
z
M 576.159922 360.619815 
L 576.159922 362.882547 
L 585.286354 362.882547 
Q 590.08974 362.882547 592.711016 362.587333 
Q 595.332292 362.292118 595.332292 361.748576 
Q 595.332292 361.206771 592.711016 360.913293 
Q 590.08974 360.619815 585.286354 360.619815 
L 576.159922 360.619815 
z
" clip-path="url(#p857010d667)" style="fill: #787800"/>
   </g>
   <g id="patch_105">
    <path d="M 559.65 350.576308 
L 575.195992 350.576308 
L 585.979692 354.912487 
L 596.83447 350.576308 
L 612.35 350.576308 
L 612.35 358.679077 
L 600.80474 358.679077 
L 600.80474 352.752212 
L 589.889037 357.121386 
L 582.141426 357.121386 
L 571.225723 352.752212 
L 571.225723 358.679077 
L 559.65 358.679077 
L 559.65 350.576308 
z
" clip-path="url(#p857010d667)" style="fill: #21599c"/>
   </g>
   <g id="patch_106">
    <path d="M 607.955948 334.504363 
L 607.955948 337.811753 
Q 602.459804 337.235972 597.221293 336.944735 
Q 591.997094 336.650149 587.34541 336.650149 
Q 581.176562 336.650149 578.213797 337.048509 
Q 575.265345 337.443521 575.265345 338.280411 
Q 575.265345 338.909752 577.254834 339.261246 
Q 579.244324 339.609392 584.482835 339.860459 
L 591.811027 340.205258 
Q 602.946442 340.730825 607.641065 341.798697 
Q 612.35 342.863221 612.35 344.831586 
Q 612.35 347.412555 605.794704 348.674585 
Q 599.239408 349.936615 585.770994 349.936615 
Q 579.430391 349.936615 573.032537 349.652073 
Q 566.634682 349.370878 560.236828 348.815183 
L 560.236828 345.417409 
Q 566.634682 346.210781 572.60315 346.615836 
Q 578.571619 347.017543 584.125014 347.017543 
Q 589.764286 347.017543 592.755676 346.579013 
Q 595.747067 346.137135 595.747067 345.32033 
Q 595.747067 344.590562 593.714639 344.192202 
Q 591.682211 343.793843 585.59924 343.479172 
L 578.929441 343.134373 
Q 568.910429 342.632239 564.273058 341.53424 
Q 559.65 340.43624 559.65 338.574996 
Q 559.65 336.241747 566.090793 334.986412 
Q 572.531586 333.731077 584.611651 333.731077 
Q 590.122108 333.731077 595.933134 333.925235 
Q 601.744161 334.119394 607.955948 334.504363 
z
" clip-path="url(#p857010d667)" style="fill: #40ba47"/>
   </g>
   <g id="patch_107">
    <path d="M 587.405333 330.454736 
L 586.373292 330.454736 
Q 573.714313 330.454736 566.676667 328.638598 
Q 559.65 326.819609 559.65 323.577931 
Q 559.65 320.341955 566.665687 318.508711 
Q 573.681375 316.672615 586 316.672615 
Q 598.450375 316.672615 605.400187 318.491604 
Q 612.35 320.307742 612.35 323.577931 
Q 612.35 325.821731 608.661 327.443995 
Q 604.972 329.06626 598.044146 329.88452 
L 608.364562 332.878154 
L 595.771458 332.878154 
L 587.405333 330.454736 
z
M 586 319.158757 
Q 579.961458 319.158757 576.634771 320.316296 
Q 573.308083 321.473834 573.308083 323.577931 
Q 573.308083 325.716241 576.557917 326.853822 
Q 579.818729 327.988552 586 327.988552 
Q 592.071479 327.988552 595.398167 326.831013 
Q 598.724854 325.670624 598.724854 323.577931 
Q 598.724854 321.473834 595.398167 320.316296 
Q 592.071479 319.158757 586 319.158757 
z
" clip-path="url(#p857010d667)" style="fill: #40ba47"/>
   </g>
   <g id="patch_108">
    <path d="M 559.65 299.614154 
L 578.774615 299.614154 
L 578.774615 312.662634 
L 612.35 312.662634 
L 612.35 315.819692 
L 559.65 315.819692 
L 559.65 299.614154 
z
" clip-path="url(#p857010d667)" style="fill: #21599c"/>
   </g>
   <g id="patch_109">
    <path d="M 612.35 297.294999 
Q 607.035119 298.028115 601.318669 298.396347 
Q 595.602219 298.761231 589.507822 298.761231 
Q 575.736374 298.761231 567.693187 296.578622 
Q 559.65 294.396012 559.65 290.663483 
Q 559.65 286.887435 567.834917 284.721564 
Q 576.031645 282.555692 590.287338 282.555692 
Q 595.779381 282.555692 600.810802 282.850278 
Q 605.854034 283.141515 610.318534 283.717296 
L 610.318534 286.947691 
Q 605.712304 286.20788 601.153317 285.842996 
Q 596.59433 285.474765 592.011721 285.474765 
Q 583.531533 285.474765 578.937113 286.820484 
Q 574.342694 288.162855 574.342694 290.663483 
Q 574.342694 293.140677 578.771762 294.493092 
Q 583.200829 295.842158 591.350314 295.842158 
Q 593.570753 295.842158 595.472299 295.765164 
Q 597.373846 295.684823 598.885634 295.517445 
L 598.885634 292.484556 
L 590.204662 292.484556 
L 590.204662 289.783075 
L 612.35 289.783075 
L 612.35 297.294999 
z
" clip-path="url(#p857010d667)" style="fill: #787800"/>
   </g>
   <g id="patch_110">
    <path d="M 612.35 280.541166 
Q 607.941736 281.116946 603.174969 281.408184 
Q 598.408201 281.702769 593.216541 281.702769 
Q 577.734505 281.702769 568.692252 279.52016 
Q 559.65 277.337551 559.65 273.605021 
Q 559.65 269.859102 568.692252 267.67984 
Q 577.734505 265.497231 593.216541 265.497231 
Q 598.408201 265.497231 603.174969 265.791816 
Q 607.941736 266.083054 612.35 266.658834 
L 612.35 269.88923 
Q 607.901902 269.125986 603.586584 268.771145 
Q 599.271265 268.416303 594.504497 268.416303 
Q 585.953527 268.416303 581.053981 269.798846 
Q 576.167712 271.17804 576.167712 273.605021 
Q 576.167712 276.02196 581.053981 277.404502 
Q 585.953527 278.783697 594.504497 278.783697 
Q 599.271265 278.783697 603.586584 278.428855 
Q 607.901902 278.070667 612.35 277.307423 
L 612.35 280.541166 
z
" clip-path="url(#p857010d667)" style="fill: #6b296b"/>
   </g>
   <g id="patch_111">
    <path d="M 559.65 248.438769 
L 568.762642 248.438769 
L 575.132798 260.21609 
L 581.455534 248.438769 
L 590.615597 248.438769 
L 596.938332 260.21609 
L 603.316392 248.438769 
L 612.35 248.438769 
L 603.656239 264.644308 
L 592.694196 264.644308 
L 586 252.325181 
L 579.384838 264.644308 
L 568.414892 264.644308 
L 559.65 248.438769 
z
" clip-path="url(#p857010d667)" style="fill: #21599c"/>
   </g>
   <g id="patch_112">
    <path d="M 574.091481 227.805105 
L 574.091481 242.637028 
L 579.265444 242.637028 
Q 588.112802 242.637028 592.782574 240.73029 
Q 597.464351 238.823551 597.464351 235.192413 
Q 597.464351 231.582114 592.806583 229.696214 
Q 588.16082 227.805105 579.265444 227.805105 
L 574.091481 227.805105 
z
M 559.65 223.064308 
L 574.871777 223.064308 
Q 587.63262 223.064308 593.874989 223.856177 
Q 600.117358 224.642837 604.583052 226.533946 
Q 608.520547 228.180201 610.429271 230.331794 
Q 612.35 232.478177 612.35 235.192413 
Q 612.35 237.948327 610.429271 240.105129 
Q 608.520547 242.261932 604.583052 243.902977 
Q 600.081344 245.794086 593.778952 246.585956 
Q 587.47656 247.372615 574.871777 247.372615 
L 559.65 247.372615 
L 559.65 223.064308 
z
" clip-path="url(#p857010d667)" style="fill: #6b296b"/>
   </g>
   <g id="patch_113">
    <path d="M 559.65 197.476615 
L 612.35 197.476615 
L 612.35 202.217413 
L 593.390256 202.217413 
L 593.390256 221.784923 
L 578.646512 221.784923 
L 578.646512 202.217413 
L 559.65 202.217413 
L 559.65 197.476615 
z
" clip-path="url(#p857010d667)" style="fill: #40ba47"/>
   </g>
   <g id="patch_114">
    <path d="M 559.65 171.888923 
L 572.68762 171.888923 
L 586.016162 189.831017 
L 599.323155 171.888923 
L 612.35 171.888923 
L 593.730985 196.197231 
L 578.269015 196.197231 
L 559.65 171.888923 
z
" clip-path="url(#p857010d667)" style="fill: #21599c"/>
   </g>
   <g id="patch_115">
    <path d="M 559.65 137.985231 
L 611.253077 137.985231 
L 611.253077 144.306294 
L 578.774615 144.306294 
L 578.774615 150.335615 
L 609.329487 150.335615 
L 609.329487 156.656678 
L 578.774615 156.656678 
L 578.774615 164.082191 
L 612.35 164.082191 
L 612.35 170.396308 
L 559.65 170.396308 
L 559.65 137.985231 
z
" clip-path="url(#p857010d667)" style="fill: #6b296b"/>
   </g>
   <g id="patch_116">
    <path d="M 596.155336 130.375095 
L 575.887763 130.375095 
L 572.68762 136.279385 
L 559.65 136.279385 
L 578.269015 103.868308 
L 593.730985 103.868308 
L 612.35 136.279385 
L 599.323155 136.279385 
L 596.155336 130.375095 
z
M 579.120231 124.359666 
L 592.890544 124.359666 
L 586.016162 111.467476 
L 579.120231 124.359666 
z
" clip-path="url(#p857010d667)" style="fill: #21599c"/>
   </g>
   <g id="patch_117">
    <path d="M 559.65 53.119385 
L 573.537864 53.119385 
L 573.537864 70.863511 
L 593.555783 53.119385 
L 609.683253 53.119385 
L 583.743078 76.146114 
L 612.35 101.736 
L 594.964195 101.736 
L 573.537864 82.585263 
L 573.537864 101.736 
L 559.65 101.736 
L 559.65 53.119385 
z
" clip-path="url(#p857010d667)" style="fill: #bd2e1f"/>
   </g>
   <g id="matplotlib.axis_1">
    <g id="xtick_1">
     <g id="line2d_2">
      <defs>
       <path id="m40f042559c" d="M 0 0 
L 0 4.8 
" style="stroke: #262626"/>
      </defs>
      <g>
       <use xlink:href="#m40f042559c" x="152" y="384.48" style="fill: #262626; stroke: #262626"/>
      </g>
     </g>
     <g id="text_1">
      <!-- P4 -->
      <g style="fill: #262626" transform="translate(146.61825 399.078875) scale(0.088 -0.088)">
       <defs>
        <path id="ArialMT-50" d="M 494 0 
L 494 4581 
L 2222 4581 
Q 2678 4581 2919 4538 
Q 3256 4481 3484 4323 
Q 3713 4166 3852 3881 
Q 3991 3597 3991 3256 
Q 3991 2672 3619 2267 
Q 3247 1863 2275 1863 
L 1100 1863 
L 1100 0 
L 494 0 
z
M 1100 2403 
L 2284 2403 
Q 2872 2403 3119 2622 
Q 3366 2841 3366 3238 
Q 3366 3525 3220 3729 
Q 3075 3934 2838 4000 
Q 2684 4041 2272 4041 
L 1100 4041 
L 1100 2403 
z
" transform="scale(0.015625)"/>
        <path id="ArialMT-34" d="M 2069 0 
L 2069 1097 
L 81 1097 
L 81 1613 
L 2172 4581 
L 2631 4581 
L 2631 1613 
L 3250 1613 
L 3250 1097 
L 2631 1097 
L 2631 0 
L 2069 0 
z
M 2069 1613 
L 2069 3678 
L 634 1613 
L 2069 1613 
z
" transform="scale(0.015625)"/>
       </defs>
       <use xlink:href="#ArialMT-50"/>
       <use xlink:href="#ArialMT-34" x="66.699219"/>
      </g>
     </g>
    </g>
    <g id="xtick_2">
     <g id="line2d_3">
      <g>
       <use xlink:href="#m40f042559c" x="214" y="384.48" style="fill: #262626; stroke: #262626"/>
      </g>
     </g>
     <g id="text_2">
      <!-- P3 -->
      <g style="fill: #262626" transform="translate(208.61825 399.078875) scale(0.088 -0.088)">
       <defs>
        <path id="ArialMT-33" d="M 269 1209 
L 831 1284 
Q 928 806 1161 595 
Q 1394 384 1728 384 
Q 2125 384 2398 659 
Q 2672 934 2672 1341 
Q 2672 1728 2419 1979 
Q 2166 2231 1775 2231 
Q 1616 2231 1378 2169 
L 1441 2663 
Q 1497 2656 1531 2656 
Q 1891 2656 2178 2843 
Q 2466 3031 2466 3422 
Q 2466 3731 2256 3934 
Q 2047 4138 1716 4138 
Q 1388 4138 1169 3931 
Q 950 3725 888 3313 
L 325 3413 
Q 428 3978 793 4289 
Q 1159 4600 1703 4600 
Q 2078 4600 2393 4439 
Q 2709 4278 2876 4000 
Q 3044 3722 3044 3409 
Q 3044 3113 2884 2869 
Q 2725 2625 2413 2481 
Q 2819 2388 3044 2092 
Q 3269 1797 3269 1353 
Q 3269 753 2831 336 
Q 2394 -81 1725 -81 
Q 1122 -81 723 278 
Q 325 638 269 1209 
z
" transform="scale(0.015625)"/>
       </defs>
       <use xlink:href="#ArialMT-50"/>
       <use xlink:href="#ArialMT-33" x="66.699219"/>
      </g>
     </g>
    </g>
    <g id="xtick_3">
     <g id="line2d_4">
      <g>
       <use xlink:href="#m40f042559c" x="276" y="384.48" style="fill: #262626; stroke: #262626"/>
      </g>
     </g>
     <g id="text_3">
      <!-- P2 -->
      <g style="fill: #262626" transform="translate(270.61825 399.078875) scale(0.088 -0.088)">
       <defs>
        <path id="ArialMT-32" d="M 3222 541 
L 3222 0 
L 194 0 
Q 188 203 259 391 
Q 375 700 629 1000 
Q 884 1300 1366 1694 
Q 2113 2306 2375 2664 
Q 2638 3022 2638 3341 
Q 2638 3675 2398 3904 
Q 2159 4134 1775 4134 
Q 1369 4134 1125 3890 
Q 881 3647 878 3216 
L 300 3275 
Q 359 3922 746 4261 
Q 1134 4600 1788 4600 
Q 2447 4600 2831 4234 
Q 3216 3869 3216 3328 
Q 3216 3053 3103 2787 
Q 2991 2522 2730 2228 
Q 2469 1934 1863 1422 
Q 1356 997 1212 845 
Q 1069 694 975 541 
L 3222 541 
z
" transform="scale(0.015625)"/>
       </defs>
       <use xlink:href="#ArialMT-50"/>
       <use xlink:href="#ArialMT-32" x="66.699219"/>
      </g>
     </g>
    </g>
    <g id="xtick_4">
     <g id="line2d_5">
      <g>
       <use xlink:href="#m40f042559c" x="338" y="384.48" style="fill: #262626; stroke: #262626"/>
      </g>
     </g>
     <g id="text_4">
      <!-- P1 -->
      <g style="fill: #262626" transform="translate(332.61825 399.078875) scale(0.088 -0.088)">
       <defs>
        <path id="ArialMT-31" d="M 2384 0 
L 1822 0 
L 1822 3584 
Q 1619 3391 1289 3197 
Q 959 3003 697 2906 
L 697 3450 
Q 1169 3672 1522 3987 
Q 1875 4303 2022 4600 
L 2384 4600 
L 2384 0 
z
" transform="scale(0.015625)"/>
       </defs>
       <use xlink:href="#ArialMT-50"/>
       <use xlink:href="#ArialMT-31" x="66.699219"/>
      </g>
     </g>
    </g>
    <g id="xtick_5">
     <g id="line2d_6">
      <g>
       <use xlink:href="#m40f042559c" x="400" y="384.48" style="fill: #262626; stroke: #262626"/>
      </g>
     </g>
     <g id="text_5">
      <!-- P1' -->
      <g style="fill: #262626" transform="translate(393.778125 399.078875) scale(0.088 -0.088)">
       <defs>
        <path id="ArialMT-27" d="M 425 2959 
L 281 3816 
L 281 4581 
L 922 4581 
L 922 3816 
L 772 2959 
L 425 2959 
z
" transform="scale(0.015625)"/>
       </defs>
       <use xlink:href="#ArialMT-50"/>
       <use xlink:href="#ArialMT-31" x="66.699219"/>
       <use xlink:href="#ArialMT-27" x="122.314453"/>
      </g>
     </g>
    </g>
    <g id="xtick_6">
     <g id="line2d_7">
      <g>
       <use xlink:href="#m40f042559c" x="462" y="384.48" style="fill: #262626; stroke: #262626"/>
      </g>
     </g>
     <g id="text_6">
      <!-- P2' -->
      <g style="fill: #262626" transform="translate(455.778125 399.078875) scale(0.088 -0.088)">
       <use xlink:href="#ArialMT-50"/>
       <use xlink:href="#ArialMT-32" x="66.699219"/>
       <use xlink:href="#ArialMT-27" x="122.314453"/>
      </g>
     </g>
    </g>
    <g id="xtick_7">
     <g id="line2d_8">
      <g>
       <use xlink:href="#m40f042559c" x="524" y="384.48" style="fill: #262626; stroke: #262626"/>
      </g>
     </g>
     <g id="text_7">
      <!-- P3' -->
      <g style="fill: #262626" transform="translate(517.778125 399.078875) scale(0.088 -0.088)">
       <use xlink:href="#ArialMT-50"/>
       <use xlink:href="#ArialMT-33" x="66.699219"/>
       <use xlink:href="#ArialMT-27" x="122.314453"/>
      </g>
     </g>
    </g>
    <g id="xtick_8">
     <g id="line2d_9">
      <g>
       <use xlink:href="#m40f042559c" x="586" y="384.48" style="fill: #262626; stroke: #262626"/>
      </g>
     </g>
     <g id="text_8">
      <!-- P4' -->
      <g style="fill: #262626" transform="translate(579.778125 399.078875) scale(0.088 -0.088)">
       <use xlink:href="#ArialMT-50"/>
       <use xlink:href="#ArialMT-34" x="66.699219"/>
       <use xlink:href="#ArialMT-27" x="122.314453"/>
      </g>
     </g>
    </g>
   </g>
   <g id="matplotlib.axis_2">
    <g id="ytick_1">
     <g id="line2d_10">
      <defs>
       <path id="m384c75e7c9" d="M 0 0 
L -4.8 0 
" style="stroke: #262626"/>
      </defs>
      <g>
       <use xlink:href="#m384c75e7c9" x="90" y="384.48" style="fill: #262626; stroke: #262626"/>
      </g>
     </g>
     <g id="text_9">
      <!-- 0.0 -->
      <g style="fill: #262626" transform="translate(69.468 387.629437) scale(0.088 -0.088)">
       <defs>
        <path id="ArialMT-30" d="M 266 2259 
Q 266 3072 433 3567 
Q 600 4063 929 4331 
Q 1259 4600 1759 4600 
Q 2128 4600 2406 4451 
Q 2684 4303 2865 4023 
Q 3047 3744 3150 3342 
Q 3253 2941 3253 2259 
Q 3253 1453 3087 958 
Q 2922 463 2592 192 
Q 2263 -78 1759 -78 
Q 1097 -78 719 397 
Q 266 969 266 2259 
z
M 844 2259 
Q 844 1131 1108 757 
Q 1372 384 1759 384 
Q 2147 384 2411 759 
Q 2675 1134 2675 2259 
Q 2675 3391 2411 3762 
Q 2147 4134 1753 4134 
Q 1366 4134 1134 3806 
Q 844 3388 844 2259 
z
" transform="scale(0.015625)"/>
        <path id="ArialMT-2e" d="M 581 0 
L 581 641 
L 1222 641 
L 1222 0 
L 581 0 
z
" transform="scale(0.015625)"/>
       </defs>
       <use xlink:href="#ArialMT-30"/>
       <use xlink:href="#ArialMT-2e" x="55.615234"/>
       <use xlink:href="#ArialMT-30" x="83.398438"/>
      </g>
     </g>
    </g>
    <g id="ytick_2">
     <g id="line2d_11">
      <g>
       <use xlink:href="#m384c75e7c9" x="90" y="317.952" style="fill: #262626; stroke: #262626"/>
      </g>
     </g>
     <g id="text_10">
      <!-- 0.2 -->
      <g style="fill: #262626" transform="translate(69.468 321.101437) scale(0.088 -0.088)">
       <use xlink:href="#ArialMT-30"/>
       <use xlink:href="#ArialMT-2e" x="55.615234"/>
       <use xlink:href="#ArialMT-32" x="83.398438"/>
      </g>
     </g>
    </g>
    <g id="ytick_3">
     <g id="line2d_12">
      <g>
       <use xlink:href="#m384c75e7c9" x="90" y="251.424" style="fill: #262626; stroke: #262626"/>
      </g>
     </g>
     <g id="text_11">
      <!-- 0.4 -->
      <g style="fill: #262626" transform="translate(69.468 254.573437) scale(0.088 -0.088)">
       <use xlink:href="#ArialMT-30"/>
       <use xlink:href="#ArialMT-2e" x="55.615234"/>
       <use xlink:href="#ArialMT-34" x="83.398438"/>
      </g>
     </g>
    </g>
    <g id="ytick_4">
     <g id="line2d_13">
      <g>
       <use xlink:href="#m384c75e7c9" x="90" y="184.896" style="fill: #262626; stroke: #262626"/>
      </g>
     </g>
     <g id="text_12">
      <!-- 0.6 -->
      <g style="fill: #262626" transform="translate(69.468 188.045437) scale(0.088 -0.088)">
       <defs>
        <path id="ArialMT-36" d="M 3184 3459 
L 2625 3416 
Q 2550 3747 2413 3897 
Q 2184 4138 1850 4138 
Q 1581 4138 1378 3988 
Q 1113 3794 959 3422 
Q 806 3050 800 2363 
Q 1003 2672 1297 2822 
Q 1591 2972 1913 2972 
Q 2475 2972 2870 2558 
Q 3266 2144 3266 1488 
Q 3266 1056 3080 686 
Q 2894 316 2569 119 
Q 2244 -78 1831 -78 
Q 1128 -78 684 439 
Q 241 956 241 2144 
Q 241 3472 731 4075 
Q 1159 4600 1884 4600 
Q 2425 4600 2770 4297 
Q 3116 3994 3184 3459 
z
M 888 1484 
Q 888 1194 1011 928 
Q 1134 663 1356 523 
Q 1578 384 1822 384 
Q 2178 384 2434 671 
Q 2691 959 2691 1453 
Q 2691 1928 2437 2201 
Q 2184 2475 1800 2475 
Q 1419 2475 1153 2201 
Q 888 1928 888 1484 
z
" transform="scale(0.015625)"/>
       </defs>
       <use xlink:href="#ArialMT-30"/>
       <use xlink:href="#ArialMT-2e" x="55.615234"/>
       <use xlink:href="#ArialMT-36" x="83.398438"/>
      </g>
     </g>
    </g>
    <g id="ytick_5">
     <g id="line2d_14">
      <g>
       <use xlink:href="#m384c75e7c9" x="90" y="118.368" style="fill: #262626; stroke: #262626"/>
      </g>
     </g>
     <g id="text_13">
      <!-- 0.8 -->
      <g style="fill: #262626" transform="translate(69.468 121.517437) scale(0.088 -0.088)">
       <defs>
        <path id="ArialMT-38" d="M 1131 2484 
Q 781 2613 612 2850 
Q 444 3088 444 3419 
Q 444 3919 803 4259 
Q 1163 4600 1759 4600 
Q 2359 4600 2725 4251 
Q 3091 3903 3091 3403 
Q 3091 3084 2923 2848 
Q 2756 2613 2416 2484 
Q 2838 2347 3058 2040 
Q 3278 1734 3278 1309 
Q 3278 722 2862 322 
Q 2447 -78 1769 -78 
Q 1091 -78 675 323 
Q 259 725 259 1325 
Q 259 1772 486 2073 
Q 713 2375 1131 2484 
z
M 1019 3438 
Q 1019 3113 1228 2906 
Q 1438 2700 1772 2700 
Q 2097 2700 2305 2904 
Q 2513 3109 2513 3406 
Q 2513 3716 2298 3927 
Q 2084 4138 1766 4138 
Q 1444 4138 1231 3931 
Q 1019 3725 1019 3438 
z
M 838 1322 
Q 838 1081 952 856 
Q 1066 631 1291 507 
Q 1516 384 1775 384 
Q 2178 384 2440 643 
Q 2703 903 2703 1303 
Q 2703 1709 2433 1975 
Q 2163 2241 1756 2241 
Q 1359 2241 1098 1978 
Q 838 1716 838 1322 
z
" transform="scale(0.015625)"/>
       </defs>
       <use xlink:href="#ArialMT-30"/>
       <use xlink:href="#ArialMT-2e" x="55.615234"/>
       <use xlink:href="#ArialMT-38" x="83.398438"/>
      </g>
     </g>
    </g>
    <g id="ytick_6">
     <g id="line2d_15">
      <g>
       <use xlink:href="#m384c75e7c9" x="90" y="51.84" style="fill: #262626; stroke: #262626"/>
      </g>
     </g>
     <g id="text_14">
      <!-- 1.0 -->
      <g style="fill: #262626" transform="translate(69.468 54.989437) scale(0.088 -0.088)">
       <use xlink:href="#ArialMT-31"/>
       <use xlink:href="#ArialMT-2e" x="55.615234"/>
       <use xlink:href="#ArialMT-30" x="83.398438"/>
      </g>
     </g>
    </g>
    <g id="text_15">
     <!-- percentage -->
     <g style="fill: #262626" transform="translate(63.4475 242.1765) rotate(-90) scale(0.096 -0.096)">
      <defs>
       <path id="ArialMT-70" d="M 422 -1272 
L 422 3319 
L 934 3319 
L 934 2888 
Q 1116 3141 1344 3267 
Q 1572 3394 1897 3394 
Q 2322 3394 2647 3175 
Q 2972 2956 3137 2557 
Q 3303 2159 3303 1684 
Q 3303 1175 3120 767 
Q 2938 359 2589 142 
Q 2241 -75 1856 -75 
Q 1575 -75 1351 44 
Q 1128 163 984 344 
L 984 -1272 
L 422 -1272 
z
M 931 1641 
Q 931 1000 1190 694 
Q 1450 388 1819 388 
Q 2194 388 2461 705 
Q 2728 1022 2728 1688 
Q 2728 2322 2467 2637 
Q 2206 2953 1844 2953 
Q 1484 2953 1207 2617 
Q 931 2281 931 1641 
z
" transform="scale(0.015625)"/>
       <path id="ArialMT-65" d="M 2694 1069 
L 3275 997 
Q 3138 488 2766 206 
Q 2394 -75 1816 -75 
Q 1088 -75 661 373 
Q 234 822 234 1631 
Q 234 2469 665 2931 
Q 1097 3394 1784 3394 
Q 2450 3394 2872 2941 
Q 3294 2488 3294 1666 
Q 3294 1616 3291 1516 
L 816 1516 
Q 847 969 1125 678 
Q 1403 388 1819 388 
Q 2128 388 2347 550 
Q 2566 713 2694 1069 
z
M 847 1978 
L 2700 1978 
Q 2663 2397 2488 2606 
Q 2219 2931 1791 2931 
Q 1403 2931 1139 2672 
Q 875 2413 847 1978 
z
" transform="scale(0.015625)"/>
       <path id="ArialMT-72" d="M 416 0 
L 416 3319 
L 922 3319 
L 922 2816 
Q 1116 3169 1280 3281 
Q 1444 3394 1641 3394 
Q 1925 3394 2219 3213 
L 2025 2691 
Q 1819 2813 1613 2813 
Q 1428 2813 1281 2702 
Q 1134 2591 1072 2394 
Q 978 2094 978 1738 
L 978 0 
L 416 0 
z
" transform="scale(0.015625)"/>
       <path id="ArialMT-63" d="M 2588 1216 
L 3141 1144 
Q 3050 572 2676 248 
Q 2303 -75 1759 -75 
Q 1078 -75 664 370 
Q 250 816 250 1647 
Q 250 2184 428 2587 
Q 606 2991 970 3192 
Q 1334 3394 1763 3394 
Q 2303 3394 2647 3120 
Q 2991 2847 3088 2344 
L 2541 2259 
Q 2463 2594 2264 2762 
Q 2066 2931 1784 2931 
Q 1359 2931 1093 2626 
Q 828 2322 828 1663 
Q 828 994 1084 691 
Q 1341 388 1753 388 
Q 2084 388 2306 591 
Q 2528 794 2588 1216 
z
" transform="scale(0.015625)"/>
       <path id="ArialMT-6e" d="M 422 0 
L 422 3319 
L 928 3319 
L 928 2847 
Q 1294 3394 1984 3394 
Q 2284 3394 2536 3286 
Q 2788 3178 2913 3003 
Q 3038 2828 3088 2588 
Q 3119 2431 3119 2041 
L 3119 0 
L 2556 0 
L 2556 2019 
Q 2556 2363 2490 2533 
Q 2425 2703 2258 2804 
Q 2091 2906 1866 2906 
Q 1506 2906 1245 2678 
Q 984 2450 984 1813 
L 984 0 
L 422 0 
z
" transform="scale(0.015625)"/>
       <path id="ArialMT-74" d="M 1650 503 
L 1731 6 
Q 1494 -44 1306 -44 
Q 1000 -44 831 53 
Q 663 150 594 308 
Q 525 466 525 972 
L 525 2881 
L 113 2881 
L 113 3319 
L 525 3319 
L 525 4141 
L 1084 4478 
L 1084 3319 
L 1650 3319 
L 1650 2881 
L 1084 2881 
L 1084 941 
Q 1084 700 1114 631 
Q 1144 563 1211 522 
Q 1278 481 1403 481 
Q 1497 481 1650 503 
z
" transform="scale(0.015625)"/>
       <path id="ArialMT-61" d="M 2588 409 
Q 2275 144 1986 34 
Q 1697 -75 1366 -75 
Q 819 -75 525 192 
Q 231 459 231 875 
Q 231 1119 342 1320 
Q 453 1522 633 1644 
Q 813 1766 1038 1828 
Q 1203 1872 1538 1913 
Q 2219 1994 2541 2106 
Q 2544 2222 2544 2253 
Q 2544 2597 2384 2738 
Q 2169 2928 1744 2928 
Q 1347 2928 1158 2789 
Q 969 2650 878 2297 
L 328 2372 
Q 403 2725 575 2942 
Q 747 3159 1072 3276 
Q 1397 3394 1825 3394 
Q 2250 3394 2515 3294 
Q 2781 3194 2906 3042 
Q 3031 2891 3081 2659 
Q 3109 2516 3109 2141 
L 3109 1391 
Q 3109 606 3145 398 
Q 3181 191 3288 0 
L 2700 0 
Q 2613 175 2588 409 
z
M 2541 1666 
Q 2234 1541 1622 1453 
Q 1275 1403 1131 1340 
Q 988 1278 909 1158 
Q 831 1038 831 891 
Q 831 666 1001 516 
Q 1172 366 1500 366 
Q 1825 366 2078 508 
Q 2331 650 2450 897 
Q 2541 1088 2541 1459 
L 2541 1666 
z
" transform="scale(0.015625)"/>
       <path id="ArialMT-67" d="M 319 -275 
L 866 -356 
Q 900 -609 1056 -725 
Q 1266 -881 1628 -881 
Q 2019 -881 2231 -725 
Q 2444 -569 2519 -288 
Q 2563 -116 2559 434 
Q 2191 0 1641 0 
Q 956 0 581 494 
Q 206 988 206 1678 
Q 206 2153 378 2554 
Q 550 2956 876 3175 
Q 1203 3394 1644 3394 
Q 2231 3394 2613 2919 
L 2613 3319 
L 3131 3319 
L 3131 450 
Q 3131 -325 2973 -648 
Q 2816 -972 2473 -1159 
Q 2131 -1347 1631 -1347 
Q 1038 -1347 672 -1080 
Q 306 -813 319 -275 
z
M 784 1719 
Q 784 1066 1043 766 
Q 1303 466 1694 466 
Q 2081 466 2343 764 
Q 2606 1063 2606 1700 
Q 2606 2309 2336 2618 
Q 2066 2928 1684 2928 
Q 1309 2928 1046 2623 
Q 784 2319 784 1719 
z
" transform="scale(0.015625)"/>
      </defs>
      <use xlink:href="#ArialMT-70"/>
      <use xlink:href="#ArialMT-65" x="55.615234"/>
      <use xlink:href="#ArialMT-72" x="111.230469"/>
      <use xlink:href="#ArialMT-63" x="144.53125"/>
      <use xlink:href="#ArialMT-65" x="194.53125"/>
      <use xlink:href="#ArialMT-6e" x="250.146484"/>
      <use xlink:href="#ArialMT-74" x="305.761719"/>
      <use xlink:href="#ArialMT-61" x="333.544922"/>
      <use xlink:href="#ArialMT-67" x="389.160156"/>
      <use xlink:href="#ArialMT-65" x="444.775391"/>
     </g>
    </g>
   </g>
   <g id="line2d_16">
    <path d="M 369 384.48 
L 369 51.84 
" clip-path="url(#p857010d667)" style="fill: none; stroke: #daa520; stroke-width: 2; stroke-linecap: round"/>
   </g>
   <g id="patch_118">
    <path d="M 90 384.48 
L 648 384.48 
" style="fill: none; stroke: #262626; stroke-linejoin: miter; stroke-linecap: square"/>
   </g>
   <g id="patch_119">
    <path d="M 90 51.84 
L 648 51.84 
" style="fill: none; stroke: #262626; stroke-linejoin: miter; stroke-linecap: square"/>
   </g>
   <g id="text_16">
    <!-- ANOVA probability PPSM n=39 -->
    <g style="fill: #262626" transform="translate(302.52 45.84) scale(0.096 -0.096)">
     <defs>
      <path id="ArialMT-41" d="M -9 0 
L 1750 4581 
L 2403 4581 
L 4278 0 
L 3588 0 
L 3053 1388 
L 1138 1388 
L 634 0 
L -9 0 
z
M 1313 1881 
L 2866 1881 
L 2388 3150 
Q 2169 3728 2063 4100 
Q 1975 3659 1816 3225 
L 1313 1881 
z
" transform="scale(0.015625)"/>
      <path id="ArialMT-4e" d="M 488 0 
L 488 4581 
L 1109 4581 
L 3516 984 
L 3516 4581 
L 4097 4581 
L 4097 0 
L 3475 0 
L 1069 3600 
L 1069 0 
L 488 0 
z
" transform="scale(0.015625)"/>
      <path id="ArialMT-4f" d="M 309 2231 
Q 309 3372 921 4017 
Q 1534 4663 2503 4663 
Q 3138 4663 3647 4359 
Q 4156 4056 4423 3514 
Q 4691 2972 4691 2284 
Q 4691 1588 4409 1038 
Q 4128 488 3612 205 
Q 3097 -78 2500 -78 
Q 1853 -78 1343 234 
Q 834 547 571 1087 
Q 309 1628 309 2231 
z
M 934 2222 
Q 934 1394 1379 917 
Q 1825 441 2497 441 
Q 3181 441 3623 922 
Q 4066 1403 4066 2288 
Q 4066 2847 3877 3264 
Q 3688 3681 3323 3911 
Q 2959 4141 2506 4141 
Q 1863 4141 1398 3698 
Q 934 3256 934 2222 
z
" transform="scale(0.015625)"/>
      <path id="ArialMT-56" d="M 1803 0 
L 28 4581 
L 684 4581 
L 1875 1253 
Q 2019 853 2116 503 
Q 2222 878 2363 1253 
L 3600 4581 
L 4219 4581 
L 2425 0 
L 1803 0 
z
" transform="scale(0.015625)"/>
      <path id="ArialMT-20" transform="scale(0.015625)"/>
      <path id="ArialMT-6f" d="M 213 1659 
Q 213 2581 725 3025 
Q 1153 3394 1769 3394 
Q 2453 3394 2887 2945 
Q 3322 2497 3322 1706 
Q 3322 1066 3130 698 
Q 2938 331 2570 128 
Q 2203 -75 1769 -75 
Q 1072 -75 642 372 
Q 213 819 213 1659 
z
M 791 1659 
Q 791 1022 1069 705 
Q 1347 388 1769 388 
Q 2188 388 2466 706 
Q 2744 1025 2744 1678 
Q 2744 2294 2464 2611 
Q 2184 2928 1769 2928 
Q 1347 2928 1069 2612 
Q 791 2297 791 1659 
z
" transform="scale(0.015625)"/>
      <path id="ArialMT-62" d="M 941 0 
L 419 0 
L 419 4581 
L 981 4581 
L 981 2947 
Q 1338 3394 1891 3394 
Q 2197 3394 2470 3270 
Q 2744 3147 2920 2923 
Q 3097 2700 3197 2384 
Q 3297 2069 3297 1709 
Q 3297 856 2875 390 
Q 2453 -75 1863 -75 
Q 1275 -75 941 416 
L 941 0 
z
M 934 1684 
Q 934 1088 1097 822 
Q 1363 388 1816 388 
Q 2184 388 2453 708 
Q 2722 1028 2722 1663 
Q 2722 2313 2464 2622 
Q 2206 2931 1841 2931 
Q 1472 2931 1203 2611 
Q 934 2291 934 1684 
z
" transform="scale(0.015625)"/>
      <path id="ArialMT-69" d="M 425 3934 
L 425 4581 
L 988 4581 
L 988 3934 
L 425 3934 
z
M 425 0 
L 425 3319 
L 988 3319 
L 988 0 
L 425 0 
z
" transform="scale(0.015625)"/>
      <path id="ArialMT-6c" d="M 409 0 
L 409 4581 
L 972 4581 
L 972 0 
L 409 0 
z
" transform="scale(0.015625)"/>
      <path id="ArialMT-79" d="M 397 -1278 
L 334 -750 
Q 519 -800 656 -800 
Q 844 -800 956 -737 
Q 1069 -675 1141 -563 
Q 1194 -478 1313 -144 
Q 1328 -97 1363 -6 
L 103 3319 
L 709 3319 
L 1400 1397 
Q 1534 1031 1641 628 
Q 1738 1016 1872 1384 
L 2581 3319 
L 3144 3319 
L 1881 -56 
Q 1678 -603 1566 -809 
Q 1416 -1088 1222 -1217 
Q 1028 -1347 759 -1347 
Q 597 -1347 397 -1278 
z
" transform="scale(0.015625)"/>
      <path id="ArialMT-53" d="M 288 1472 
L 859 1522 
Q 900 1178 1048 958 
Q 1197 738 1509 602 
Q 1822 466 2213 466 
Q 2559 466 2825 569 
Q 3091 672 3220 851 
Q 3350 1031 3350 1244 
Q 3350 1459 3225 1620 
Q 3100 1781 2813 1891 
Q 2628 1963 1997 2114 
Q 1366 2266 1113 2400 
Q 784 2572 623 2826 
Q 463 3081 463 3397 
Q 463 3744 659 4045 
Q 856 4347 1234 4503 
Q 1613 4659 2075 4659 
Q 2584 4659 2973 4495 
Q 3363 4331 3572 4012 
Q 3781 3694 3797 3291 
L 3216 3247 
Q 3169 3681 2898 3903 
Q 2628 4125 2100 4125 
Q 1550 4125 1298 3923 
Q 1047 3722 1047 3438 
Q 1047 3191 1225 3031 
Q 1400 2872 2139 2705 
Q 2878 2538 3153 2413 
Q 3553 2228 3743 1945 
Q 3934 1663 3934 1294 
Q 3934 928 3725 604 
Q 3516 281 3123 101 
Q 2731 -78 2241 -78 
Q 1619 -78 1198 103 
Q 778 284 539 648 
Q 300 1013 288 1472 
z
" transform="scale(0.015625)"/>
      <path id="ArialMT-4d" d="M 475 0 
L 475 4581 
L 1388 4581 
L 2472 1338 
Q 2622 884 2691 659 
Q 2769 909 2934 1394 
L 4031 4581 
L 4847 4581 
L 4847 0 
L 4263 0 
L 4263 3834 
L 2931 0 
L 2384 0 
L 1059 3900 
L 1059 0 
L 475 0 
z
" transform="scale(0.015625)"/>
      <path id="ArialMT-3d" d="M 3381 2694 
L 356 2694 
L 356 3219 
L 3381 3219 
L 3381 2694 
z
M 3381 1303 
L 356 1303 
L 356 1828 
L 3381 1828 
L 3381 1303 
z
" transform="scale(0.015625)"/>
      <path id="ArialMT-39" d="M 350 1059 
L 891 1109 
Q 959 728 1153 556 
Q 1347 384 1650 384 
Q 1909 384 2104 503 
Q 2300 622 2425 820 
Q 2550 1019 2634 1356 
Q 2719 1694 2719 2044 
Q 2719 2081 2716 2156 
Q 2547 1888 2255 1720 
Q 1963 1553 1622 1553 
Q 1053 1553 659 1965 
Q 266 2378 266 3053 
Q 266 3750 677 4175 
Q 1088 4600 1706 4600 
Q 2153 4600 2523 4359 
Q 2894 4119 3086 3673 
Q 3278 3228 3278 2384 
Q 3278 1506 3087 986 
Q 2897 466 2520 194 
Q 2144 -78 1638 -78 
Q 1100 -78 759 220 
Q 419 519 350 1059 
z
M 2653 3081 
Q 2653 3566 2395 3850 
Q 2138 4134 1775 4134 
Q 1400 4134 1122 3828 
Q 844 3522 844 3034 
Q 844 2597 1108 2323 
Q 1372 2050 1759 2050 
Q 2150 2050 2401 2323 
Q 2653 2597 2653 3081 
z
" transform="scale(0.015625)"/>
     </defs>
     <use xlink:href="#ArialMT-41"/>
     <use xlink:href="#ArialMT-4e" x="66.699219"/>
     <use xlink:href="#ArialMT-4f" x="138.916016"/>
     <use xlink:href="#ArialMT-56" x="216.699219"/>
     <use xlink:href="#ArialMT-41" x="276.023438"/>
     <use xlink:href="#ArialMT-20" x="337.222656"/>
     <use xlink:href="#ArialMT-70" x="365.005859"/>
     <use xlink:href="#ArialMT-72" x="420.621094"/>
     <use xlink:href="#ArialMT-6f" x="453.921875"/>
     <use xlink:href="#ArialMT-62" x="509.537109"/>
     <use xlink:href="#ArialMT-61" x="565.152344"/>
     <use xlink:href="#ArialMT-62" x="620.767578"/>
     <use xlink:href="#ArialMT-69" x="676.382812"/>
     <use xlink:href="#ArialMT-6c" x="698.599609"/>
     <use xlink:href="#ArialMT-69" x="720.816406"/>
     <use xlink:href="#ArialMT-74" x="743.033203"/>
     <use xlink:href="#ArialMT-79" x="770.816406"/>
     <use xlink:href="#ArialMT-20" x="820.816406"/>
     <use xlink:href="#ArialMT-50" x="848.599609"/>
     <use xlink:href="#ArialMT-50" x="915.298828"/>
     <use xlink:href="#ArialMT-53" x="981.998047"/>
     <use xlink:href="#ArialMT-4d" x="1048.697266"/>
     <use xlink:href="#ArialMT-20" x="1131.998047"/>
     <use xlink:href="#ArialMT-6e" x="1159.78125"/>
     <use xlink:href="#ArialMT-3d" x="1215.396484"/>
     <use xlink:href="#ArialMT-33" x="1273.794922"/>
     <use xlink:href="#ArialMT-39" x="1329.410156"/>
    </g>
   </g>
  </g>
 </g>
 <defs>
  <clipPath id="p857010d667">
   <rect x="90" y="51.84" width="558" height="332.64"/>
  </clipPath>
 </defs>
</svg>
