<?xml version="1.0" encoding="utf-8" standalone="no"?>
<!DOCTYPE svg PUBLIC "-//W3C//DTD SVG 1.1//EN"
  "http://www.w3.org/Graphics/SVG/1.1/DTD/svg11.dtd">
<svg xmlns:xlink="http://www.w3.org/1999/xlink" width="720pt" height="432pt" viewBox="0 0 720 432" xmlns="http://www.w3.org/2000/svg" version="1.1">
 <metadata>
  <rdf:RDF xmlns:dc="http://purl.org/dc/elements/1.1/" xmlns:cc="http://creativecommons.org/ns#" xmlns:rdf="http://www.w3.org/1999/02/22-rdf-syntax-ns#">
   <cc:Work>
    <dc:type rdf:resource="http://purl.org/dc/dcmitype/StillImage"/>
    <dc:date>2023-08-03T12:46:31.121535</dc:date>
    <dc:format>image/svg+xml</dc:format>
    <dc:creator>
     <cc:Agent>
      <dc:title>Matplotlib v3.7.1, https://matplotlib.org/</dc:title>
     </cc:Agent>
    </dc:creator>
   </cc:Work>
  </rdf:RDF>
 </metadata>
 <defs>
  <style type="text/css">*{stroke-linejoin: round; stroke-linecap: butt}</style>
 </defs>
 <g id="figure_1">
  <g id="patch_1">
   <path d="M 0 432 
L 720 432 
L 720 0 
L 0 0 
z
" style="fill: #ffffff"/>
  </g>
  <g id="axes_1">
   <g id="patch_2">
    <path d="M 90 384.48 
L 648 384.48 
L 648 51.84 
L 90 51.84 
z
" style="fill: #ffffff"/>
   </g>
   <g id="patch_3">
    <path d="M 307 384.48 
L 369 384.48 
L 369 51.84 
L 307 51.84 
z
" clip-path="url(#p3bf8a293e0)" style="fill: #ffd700; opacity: 0.35; stroke: #ffffff; stroke-width: 0.8; stroke-linejoin: miter"/>
   </g>
   <g id="line2d_1">
    <path d="M 90 384.48 
L 648 384.48 
" clip-path="url(#p3bf8a293e0)" style="fill: none; stroke: #000000; stroke-width: 0.5; stroke-linecap: round"/>
   </g>
   <g id="patch_4">
    <path d="M 125.65 384.005867 
L 140.813382 384.005867 
L 140.813382 384.181905 
L 163.186618 384.181905 
L 163.186618 384.005867 
L 178.35 384.005867 
L 178.35 384.467843 
L 163.186618 384.467843 
L 163.186618 384.272003 
L 140.813382 384.272003 
L 140.813382 384.467843 
L 125.65 384.467843 
L 125.65 384.005867 
z
" clip-path="url(#p3bf8a293e0)" style="fill: #177875"/>
   </g>
   <g id="patch_5">
    <path d="M 140.091481 383.376307 
L 140.091481 383.829476 
L 145.265444 383.829476 
Q 154.112802 383.829476 158.782574 383.771218 
Q 163.464351 383.71296 163.464351 383.602016 
Q 163.464351 383.491709 158.806583 383.434088 
Q 154.16082 383.376307 145.265444 383.376307 
L 140.091481 383.376307 
z
M 125.65 383.231459 
L 140.871777 383.231459 
Q 153.63262 383.231459 159.874989 383.255654 
Q 166.117358 383.279689 170.583052 383.337469 
Q 174.520547 383.387768 176.429271 383.453507 
Q 178.35 383.519086 178.35 383.602016 
Q 178.35 383.686219 176.429271 383.752117 
Q 174.520547 383.818015 170.583052 383.868155 
Q 166.081344 383.925935 159.778952 383.95013 
Q 153.47656 383.974165 140.871777 383.974165 
L 125.65 383.974165 
L 125.65 383.231459 
z
" clip-path="url(#p3bf8a293e0)" style="fill: #6b296b"/>
   </g>
   <g id="patch_6">
    <path d="M 178.35 383.005583 
Q 173.035119 383.085503 167.318669 383.125646 
Q 161.602219 383.165424 155.507822 383.165424 
Q 141.736374 383.165424 133.693187 382.927488 
Q 125.65 382.689552 125.65 382.282652 
Q 125.65 381.871008 133.834917 381.634896 
Q 142.031645 381.398785 156.287338 381.398785 
Q 161.779381 381.398785 166.810802 381.430899 
Q 171.854034 381.462648 176.318534 381.525417 
L 176.318534 381.877577 
Q 171.712304 381.796927 167.153317 381.757149 
Q 162.59433 381.717006 158.011721 381.717006 
Q 149.531533 381.717006 144.937113 381.863709 
Q 140.342694 382.010047 140.342694 382.282652 
Q 140.342694 382.552702 144.771762 382.700135 
Q 149.200829 382.847202 157.350314 382.847202 
Q 159.570753 382.847202 161.472299 382.838809 
Q 163.373846 382.830051 164.885634 382.811804 
L 164.885634 382.481175 
L 156.204662 382.481175 
L 156.204662 382.186674 
L 178.35 382.186674 
L 178.35 383.005583 
z
" clip-path="url(#p3bf8a293e0)" style="fill: #787800"/>
   </g>
   <g id="patch_7">
    <path d="M 147.032787 380.299167 
Q 151.762274 380.299167 153.814221 380.244958 
Q 155.866168 380.190361 155.866168 380.06568 
Q 155.866168 379.94216 153.814221 379.889112 
Q 151.762274 379.835678 147.032787 379.835678 
L 140.701781 379.835678 
L 140.701781 380.299167 
L 147.032787 380.299167 
z
M 140.701781 380.620938 
L 140.701781 381.304749 
L 125.65 381.304749 
L 125.65 379.498031 
L 148.634307 379.498031 
Q 160.170252 379.498031 165.537844 379.618066 
Q 170.917949 379.737714 170.917949 379.996757 
Q 170.917949 380.175647 168.11529 380.290648 
Q 165.325142 380.40565 159.694801 380.460246 
Q 162.785233 380.48193 165.225047 380.558984 
Q 167.677374 380.635652 170.179748 380.791697 
L 178.35 381.304749 
L 162.322293 381.304749 
L 155.203039 380.855974 
Q 153.050997 380.720451 150.836396 380.670888 
Q 148.634307 380.620938 144.955817 380.620938 
L 140.701781 380.620938 
z
" clip-path="url(#p3bf8a293e0)" style="fill: #bd2e1f"/>
   </g>
   <g id="patch_8">
    <path d="M 173.955948 374.5716 
L 173.955948 375.589108 
Q 168.459804 375.411971 163.221293 375.322373 
Q 157.997094 375.231744 153.34541 375.231744 
Q 147.176562 375.231744 144.213797 375.354299 
Q 141.265345 375.475823 141.265345 375.73329 
Q 141.265345 375.926905 143.254834 376.035041 
Q 145.244324 376.142147 150.482835 376.219387 
L 157.811027 376.325463 
Q 168.946442 376.487152 173.641065 376.81568 
Q 178.35 377.143177 178.35 377.748739 
Q 178.35 378.542767 171.794704 378.931026 
Q 165.239408 379.319286 151.770994 379.319286 
Q 145.430391 379.319286 139.032537 379.231748 
Q 132.634682 379.145239 126.236828 378.974281 
L 126.236828 377.928966 
Q 132.634682 378.173044 138.60315 378.297658 
Q 144.571619 378.421242 150.125014 378.421242 
Q 155.764286 378.421242 158.755676 378.28633 
Q 161.747067 378.150387 161.747067 377.8991 
Q 161.747067 377.674589 159.714639 377.552035 
Q 157.682211 377.42948 151.59924 377.332673 
L 144.929441 377.226597 
Q 134.910429 377.072117 130.273058 376.73432 
Q 125.65 376.396524 125.65 375.823918 
Q 125.65 375.106101 132.090793 374.719901 
Q 138.531586 374.3337 150.611651 374.3337 
Q 156.122108 374.3337 161.933134 374.393433 
Q 167.744161 374.453165 173.955948 374.5716 
z
" clip-path="url(#p3bf8a293e0)" style="fill: #40ba47"/>
   </g>
   <g id="patch_9">
    <path d="M 162.155336 371.803707 
L 141.887763 371.803707 
L 138.68762 373.899715 
L 125.65 373.899715 
L 144.269015 362.393861 
L 159.730985 362.393861 
L 178.35 373.899715 
L 165.323155 373.899715 
L 162.155336 371.803707 
z
M 145.120231 369.668244 
L 158.890544 369.668244 
L 152.016162 365.091547 
L 145.120231 369.668244 
z
" clip-path="url(#p3bf8a293e0)" style="fill: #21599c"/>
   </g>
   <g id="patch_10">
    <path d="M 125.65 350.220098 
L 139.537864 350.220098 
L 139.537864 354.441682 
L 159.555783 350.220098 
L 175.683253 350.220098 
L 149.743078 355.698489 
L 178.35 361.786691 
L 160.964195 361.786691 
L 139.537864 357.230455 
L 139.537864 361.786691 
L 125.65 361.786691 
L 125.65 350.220098 
z
" clip-path="url(#p3bf8a293e0)" style="fill: #bd2e1f"/>
   </g>
   <g id="patch_11">
    <path d="M 125.65 336.121521 
L 177.253077 336.121521 
L 177.253077 338.742792 
L 144.774615 338.742792 
L 144.774615 341.243081 
L 175.329487 341.243081 
L 175.329487 343.864353 
L 144.774615 343.864353 
L 144.774615 346.943626 
L 178.35 346.943626 
L 178.35 349.562017 
L 125.65 349.562017 
L 125.65 336.121521 
z
" clip-path="url(#p3bf8a293e0)" style="fill: #6b296b"/>
   </g>
   <g id="patch_12">
    <path d="M 178.35 334.214667 
Q 173.941736 334.777791 169.174969 335.062627 
Q 164.408201 335.350736 159.216541 335.350736 
Q 143.734505 335.350736 134.692252 333.216105 
Q 125.65 331.081474 125.65 327.430993 
Q 125.65 323.767417 134.692252 321.63606 
Q 143.734505 319.501429 159.216541 319.501429 
Q 164.408201 319.501429 169.174969 319.789538 
Q 173.941736 320.074374 178.35 320.637497 
L 178.35 323.796882 
Q 173.901902 323.050416 169.586584 322.703375 
Q 165.271265 322.356334 160.504497 322.356334 
Q 151.953527 322.356334 147.053981 323.708485 
Q 142.167712 325.057362 142.167712 327.430993 
Q 142.167712 329.794803 147.053981 331.146954 
Q 151.953527 332.495831 160.504497 332.495831 
Q 165.271265 332.495831 169.586584 332.14879 
Q 173.901902 331.798475 178.35 331.052008 
L 178.35 334.214667 
z
" clip-path="url(#p3bf8a293e0)" style="fill: #6b296b"/>
   </g>
   <g id="patch_13">
    <path d="M 153.405333 313.285192 
L 152.373292 313.285192 
Q 139.714313 313.285192 132.676667 309.589578 
Q 125.65 305.888163 125.65 299.291753 
Q 125.65 292.706946 132.665687 288.976522 
Q 139.681375 285.240297 152 285.240297 
Q 164.450375 285.240297 171.400188 288.941713 
Q 178.35 292.637327 178.35 299.291753 
Q 178.35 303.857606 174.661 307.158711 
Q 170.972 310.459817 164.044146 312.124874 
L 174.364563 318.216545 
L 161.771458 318.216545 
L 153.405333 313.285192 
z
M 152 290.299285 
Q 145.961458 290.299285 142.634771 292.654732 
Q 139.308083 295.010178 139.308083 299.291753 
Q 139.308083 303.642947 142.557917 305.957782 
Q 145.818729 308.266815 152 308.266815 
Q 158.071479 308.266815 161.398167 305.911369 
Q 164.724854 303.550121 164.724854 299.291753 
Q 164.724854 295.010178 161.398167 292.654732 
Q 158.071479 290.299285 152 290.299285 
z
" clip-path="url(#p3bf8a293e0)" style="fill: #40ba47"/>
   </g>
   <g id="patch_14">
    <path d="M 240.35 384.463783 
Q 235.941736 384.469663 231.174969 384.472637 
Q 226.408201 384.475645 221.216541 384.475645 
Q 205.734505 384.475645 196.692252 384.453357 
Q 187.65 384.431069 187.65 384.392953 
Q 187.65 384.354701 196.692252 384.332447 
Q 205.734505 384.310159 221.216541 384.310159 
Q 226.408201 384.310159 231.174969 384.313167 
Q 235.941736 384.316141 240.35 384.322021 
L 240.35 384.355009 
Q 235.901902 384.347215 231.586584 384.343591 
Q 227.271265 384.339968 222.504497 384.339968 
Q 213.953527 384.339968 209.053981 384.354086 
Q 204.167712 384.36817 204.167712 384.392953 
Q 204.167712 384.417634 209.053981 384.431752 
Q 213.953527 384.445836 222.504497 384.445836 
Q 227.271265 384.445836 231.586584 384.442213 
Q 235.901902 384.438555 240.35 384.430761 
L 240.35 384.463783 
z
" clip-path="url(#p3bf8a293e0)" style="fill: #6b296b"/>
   </g>
   <g id="patch_15">
    <path d="M 187.65 383.370631 
L 201.537864 383.370631 
L 201.537864 383.703199 
L 221.555783 383.370631 
L 237.683253 383.370631 
L 211.743078 383.802208 
L 240.35 384.281825 
L 222.964195 384.281825 
L 201.537864 383.922894 
L 201.537864 384.281825 
L 187.65 384.281825 
L 187.65 383.370631 
z
" clip-path="url(#p3bf8a293e0)" style="fill: #bd2e1f"/>
   </g>
   <g id="patch_16">
    <path d="M 240.35 383.143348 
Q 235.035119 383.222096 229.318669 383.261649 
Q 223.602219 383.300844 217.507822 383.300844 
Q 203.736374 383.300844 195.693187 383.066398 
Q 187.65 382.831953 187.65 382.431022 
Q 187.65 382.025417 195.834917 381.79277 
Q 204.031645 381.560122 218.287338 381.560122 
Q 223.779381 381.560122 228.810802 381.591765 
Q 233.854034 381.623048 238.318534 381.684896 
L 238.318534 382.03189 
Q 233.712304 381.952423 229.153317 381.913228 
Q 224.59433 381.873675 220.011721 381.873675 
Q 211.531533 381.873675 206.937113 382.018226 
Q 202.342694 382.162417 202.342694 382.431022 
Q 202.342694 382.697111 206.771762 382.84238 
Q 211.200829 382.987291 219.350314 382.987291 
Q 221.570753 382.987291 223.472299 382.97902 
Q 225.373846 382.970391 226.885634 382.952412 
L 226.885634 382.626633 
L 218.204662 382.626633 
L 218.204662 382.336453 
L 240.35 382.336453 
L 240.35 383.143348 
z
" clip-path="url(#p3bf8a293e0)" style="fill: #787800"/>
   </g>
   <g id="patch_17">
    <path d="M 235.955948 376.499362 
L 235.955948 377.545248 
Q 230.459804 377.36317 225.221293 377.271073 
Q 219.997094 377.177917 215.34541 377.177917 
Q 209.176562 377.177917 206.213797 377.303889 
Q 203.265345 377.428803 203.265345 377.69345 
Q 203.265345 377.892465 205.254834 378.003616 
Q 207.244324 378.11371 212.482835 378.193104 
L 219.811027 378.302138 
Q 230.946442 378.468337 235.641065 378.806026 
Q 240.35 379.142658 240.35 379.765108 
Q 240.35 380.581279 233.794704 380.980367 
Q 227.239408 381.379455 213.770994 381.379455 
Q 207.430391 381.379455 201.032537 381.289475 
Q 194.634682 381.200553 188.236828 381.024828 
L 188.236828 379.950361 
Q 194.634682 380.201246 200.60315 380.329335 
Q 206.571619 380.456366 212.125014 380.456366 
Q 217.764286 380.456366 220.755676 380.317691 
Q 223.747067 380.177957 223.747067 379.919661 
Q 223.747067 379.688889 221.714639 379.562917 
Q 219.682211 379.436945 213.59924 379.337438 
L 206.929441 379.228403 
Q 196.910429 379.069615 192.273058 378.722398 
Q 187.65 378.375181 187.65 377.786606 
Q 187.65 377.04877 194.090793 376.651799 
Q 200.531586 376.254828 212.611651 376.254828 
Q 218.122108 376.254828 223.933134 376.316226 
Q 229.744161 376.377625 235.955948 376.499362 
z
" clip-path="url(#p3bf8a293e0)" style="fill: #40ba47"/>
   </g>
   <g id="patch_18">
    <path d="M 187.65 370.781921 
L 240.35 370.781921 
L 240.35 371.796295 
L 221.390256 371.796295 
L 221.390256 375.983097 
L 206.646512 375.983097 
L 206.646512 371.796295 
L 187.65 371.796295 
L 187.65 370.781921 
z
" clip-path="url(#p3bf8a293e0)" style="fill: #40ba47"/>
   </g>
   <g id="patch_19">
    <path d="M 209.032787 366.794085 
Q 213.762274 366.794085 215.814221 366.595858 
Q 217.866168 366.396216 217.866168 365.940294 
Q 217.866168 365.488621 215.814221 365.294642 
Q 213.762274 365.099247 209.032787 365.099247 
L 202.701781 365.099247 
L 202.701781 366.794085 
L 209.032787 366.794085 
z
M 202.701781 367.970702 
L 202.701781 370.47119 
L 187.65 370.47119 
L 187.65 363.864578 
L 210.634307 363.864578 
Q 222.170252 363.864578 227.537844 364.303508 
Q 232.917949 364.741023 232.917949 365.688263 
Q 232.917949 366.342411 230.11529 366.762935 
Q 227.325142 367.183459 221.694801 367.383101 
Q 224.785233 367.462392 227.225047 367.744157 
Q 229.677374 368.024506 232.179748 368.595116 
L 240.35 370.47119 
L 224.322293 370.47119 
L 217.203039 368.830156 
Q 215.050997 368.334589 212.836396 368.153353 
Q 210.634307 367.970702 206.955817 367.970702 
L 202.701781 367.970702 
z
" clip-path="url(#p3bf8a293e0)" style="fill: #bd2e1f"/>
   </g>
   <g id="patch_20">
    <path d="M 187.65 352.75817 
L 215.043021 352.75817 
Q 227.271068 352.75817 233.803672 353.662217 
Q 240.35 354.563981 240.35 356.232815 
Q 240.35 357.91078 233.803672 358.812544 
Q 227.271068 359.714308 215.043021 359.714308 
L 204.159922 359.714308 
L 204.159922 363.410398 
L 187.65 363.410398 
L 187.65 352.75817 
z
M 204.159922 354.7489 
L 204.159922 357.723579 
L 213.286354 357.723579 
Q 218.08974 357.723579 220.711016 357.335478 
Q 223.332292 356.947377 223.332292 356.232815 
Q 223.332292 355.520535 220.711016 355.134717 
Q 218.08974 354.7489 213.286354 354.7489 
L 204.159922 354.7489 
z
" clip-path="url(#p3bf8a293e0)" style="fill: #787800"/>
   </g>
   <g id="patch_21">
    <path d="M 224.155336 348.78892 
L 203.887763 348.78892 
L 200.68762 352.012217 
L 187.65 352.012217 
L 206.269015 334.318213 
L 221.730985 334.318213 
L 240.35 352.012217 
L 227.323155 352.012217 
L 224.155336 348.78892 
z
M 207.120231 345.504949 
L 220.890544 345.504949 
L 214.016162 338.466786 
L 207.120231 345.504949 
z
" clip-path="url(#p3bf8a293e0)" style="fill: #21599c"/>
   </g>
   <g id="patch_22">
    <path d="M 215.405333 325.261239 
L 214.373292 325.261239 
Q 201.714313 325.261239 194.676667 319.786248 
Q 187.65 314.302662 187.65 304.530191 
Q 187.65 294.774909 194.665687 289.248348 
Q 201.681375 283.713193 214 283.713193 
Q 226.450375 283.713193 233.400187 289.196778 
Q 240.35 294.671769 240.35 304.530191 
Q 240.35 311.294426 236.661 316.184959 
Q 232.972 321.075492 226.044146 323.542246 
L 236.364562 332.566956 
L 223.771458 332.566956 
L 215.405333 325.261239 
z
M 214 291.207999 
Q 207.961458 291.207999 204.634771 294.697554 
Q 201.308083 298.187109 201.308083 304.530191 
Q 201.308083 310.976412 204.557917 314.405802 
Q 207.818729 317.826597 214 317.826597 
Q 220.071479 317.826597 223.398167 314.337042 
Q 226.724854 310.838893 226.724854 304.530191 
Q 226.724854 298.187109 223.398167 294.697554 
Q 220.071479 291.207999 214 291.207999 
z
" clip-path="url(#p3bf8a293e0)" style="fill: #40ba47"/>
   </g>
   <g id="patch_23">
    <path d="M 271.032787 384.421256 
Q 275.762274 384.421256 277.814221 384.418232 
Q 279.866168 384.415187 279.866168 384.408232 
Q 279.866168 384.401342 277.814221 384.398383 
Q 275.762274 384.395402 271.032787 384.395402 
L 264.701781 384.395402 
L 264.701781 384.421256 
L 271.032787 384.421256 
z
M 264.701781 384.439205 
L 264.701781 384.477348 
L 249.65 384.477348 
L 249.65 384.376568 
L 272.634307 384.376568 
Q 284.170252 384.376568 289.537844 384.383264 
Q 294.917949 384.389938 294.917949 384.404387 
Q 294.917949 384.414366 292.11529 384.420781 
Q 289.325142 384.427196 283.694801 384.430241 
Q 286.785233 384.431451 289.225047 384.435749 
Q 291.677374 384.440025 294.179748 384.44873 
L 302.35 384.477348 
L 286.322293 384.477348 
L 279.203039 384.452315 
Q 277.050997 384.444755 274.836396 384.441991 
Q 272.634307 384.439205 268.955817 384.439205 
L 264.701781 384.439205 
z
" clip-path="url(#p3bf8a293e0)" style="fill: #bd2e1f"/>
   </g>
   <g id="patch_24">
    <path d="M 249.65 383.666989 
L 302.35 383.666989 
L 302.35 383.801324 
L 283.390256 383.801324 
L 283.390256 384.35579 
L 268.646512 384.35579 
L 268.646512 383.801324 
L 249.65 383.801324 
L 249.65 383.666989 
z
" clip-path="url(#p3bf8a293e0)" style="fill: #40ba47"/>
   </g>
   <g id="patch_25">
    <path d="M 249.65 380.41803 
L 277.043021 380.41803 
Q 289.271068 380.41803 295.803672 380.685197 
Q 302.35 380.95169 302.35 381.444871 
Q 302.35 381.94075 295.803672 382.207243 
Q 289.271068 382.473736 277.043021 382.473736 
L 266.159922 382.473736 
L 266.159922 383.56602 
L 249.65 383.56602 
L 249.65 380.41803 
z
M 266.159922 381.006338 
L 266.159922 381.885428 
L 275.286354 381.885428 
Q 280.08974 381.885428 282.711016 381.770735 
Q 285.332292 381.656041 285.332292 381.444871 
Q 285.332292 381.234375 282.711016 381.120357 
Q 280.08974 381.006338 275.286354 381.006338 
L 266.159922 381.006338 
z
" clip-path="url(#p3bf8a293e0)" style="fill: #787800"/>
   </g>
   <g id="patch_26">
    <path d="M 249.65 376.693602 
L 263.537864 376.693602 
L 263.537864 377.988631 
L 283.555783 376.693602 
L 299.683253 376.693602 
L 273.743078 378.374174 
L 302.35 380.241814 
L 284.964195 380.241814 
L 263.537864 378.844125 
L 263.537864 380.241814 
L 249.65 380.241814 
L 249.65 376.693602 
z
" clip-path="url(#p3bf8a293e0)" style="fill: #bd2e1f"/>
   </g>
   <g id="patch_27">
    <path d="M 249.65 369.451677 
L 262.68762 369.451677 
L 276.016162 374.592769 
L 289.323155 369.451677 
L 302.35 369.451677 
L 283.730985 376.416932 
L 268.269015 376.416932 
L 249.65 369.451677 
z
" clip-path="url(#p3bf8a293e0)" style="fill: #21599c"/>
   </g>
   <g id="patch_28">
    <path d="M 297.955948 360.372897 
L 297.955948 362.22808 
Q 292.459804 361.905113 287.221293 361.741752 
Q 281.997094 361.576513 277.34541 361.576513 
Q 271.176562 361.576513 268.213797 361.799961 
Q 265.265345 362.021532 265.265345 362.490961 
Q 265.265345 362.843971 267.254834 363.041132 
Q 269.244324 363.236414 274.482835 363.377243 
L 281.811027 363.570648 
Q 292.946442 363.865449 297.641065 364.464441 
Q 302.35 365.061555 302.35 366.165652 
Q 302.35 367.613371 295.794704 368.32127 
Q 289.239408 369.029169 275.770994 369.029169 
Q 269.430391 369.029169 263.032537 368.869564 
Q 256.634682 368.711835 250.236828 368.400134 
L 250.236828 366.494252 
Q 256.634682 366.939271 262.60315 367.166475 
Q 268.571619 367.391801 274.125014 367.391801 
Q 279.764286 367.391801 282.755676 367.14582 
Q 285.747067 366.897961 285.747067 366.439798 
Q 285.747067 366.030456 283.714639 365.807008 
Q 281.682211 365.58356 275.59924 365.407054 
L 268.929441 365.21365 
Q 258.910429 364.931992 254.273058 364.316101 
Q 249.65 363.70021 249.65 362.6562 
Q 249.65 361.347431 256.090793 360.643288 
Q 262.531586 359.939144 274.611651 359.939144 
Q 280.122108 359.939144 285.933134 360.048052 
Q 291.744161 360.156959 297.955948 360.372897 
z
" clip-path="url(#p3bf8a293e0)" style="fill: #40ba47"/>
   </g>
   <g id="patch_29">
    <path d="M 266.437692 347.119391 
L 285.562308 347.119391 
L 285.562308 359.377355 
L 266.437692 359.377355 
L 266.437692 347.119391 
z
" clip-path="url(#p3bf8a293e0)" style="fill: #21599c"/>
   </g>
   <g id="patch_30">
    <path d="M 249.65 333.429019 
L 264.813382 333.429019 
L 264.813382 338.392264 
L 287.186618 338.392264 
L 287.186618 333.429019 
L 302.35 333.429019 
L 302.35 346.454049 
L 287.186618 346.454049 
L 287.186618 340.932508 
L 264.813382 340.932508 
L 264.813382 346.454049 
L 249.65 346.454049 
L 249.65 333.429019 
z
" clip-path="url(#p3bf8a293e0)" style="fill: #177875"/>
   </g>
   <g id="patch_31">
    <path d="M 286.155336 329.417301 
L 265.887763 329.417301 
L 262.68762 332.623144 
L 249.65 332.623144 
L 268.269015 315.024949 
L 283.730985 315.024949 
L 302.35 332.623144 
L 289.323155 332.623144 
L 286.155336 329.417301 
z
M 269.120231 326.151112 
L 282.890544 326.151112 
L 276.016162 319.151058 
L 269.120231 326.151112 
z
" clip-path="url(#p3bf8a293e0)" style="fill: #21599c"/>
   </g>
   <g id="patch_32">
    <path d="M 311.65 383.735323 
L 326.813382 383.735323 
L 326.813382 384.011809 
L 349.186618 384.011809 
L 349.186618 383.735323 
L 364.35 383.735323 
L 364.35 384.460906 
L 349.186618 384.460906 
L 349.186618 384.153318 
L 326.813382 384.153318 
L 326.813382 384.460906 
L 311.65 384.460906 
L 311.65 383.735323 
z
" clip-path="url(#p3bf8a293e0)" style="fill: #177875"/>
   </g>
   <g id="patch_33">
    <path d="M 339.405333 383.44494 
L 338.373292 383.44494 
Q 325.714313 383.44494 318.676667 383.272056 
Q 311.65 383.098901 311.65 382.790315 
Q 311.65 382.482272 318.665687 382.30776 
Q 325.681375 382.132976 338 382.132976 
Q 350.450375 382.132976 357.400188 382.306132 
Q 364.35 382.479016 364.35 382.790315 
Q 364.35 383.003909 360.661 383.158338 
Q 356.972 383.312766 350.044146 383.390659 
L 360.364563 383.675632 
L 347.771458 383.675632 
L 339.405333 383.44494 
z
M 338 382.36964 
Q 331.961458 382.36964 328.634771 382.47983 
Q 325.308083 382.59002 325.308083 382.790315 
Q 325.308083 382.993868 328.557917 383.102157 
Q 331.818729 383.210176 338 383.210176 
Q 344.071479 383.210176 347.398167 383.099986 
Q 350.724854 382.989525 350.724854 382.790315 
Q 350.724854 382.59002 347.398167 382.47983 
Q 344.071479 382.36964 338 382.36964 
z
" clip-path="url(#p3bf8a293e0)" style="fill: #40ba47"/>
   </g>
   <g id="patch_34">
    <path d="M 311.65 377.299229 
L 325.537864 377.299229 
L 325.537864 379.00378 
L 345.555783 377.299229 
L 361.683253 377.299229 
L 335.743078 379.511242 
L 364.35 381.969479 
L 346.964195 381.969479 
L 325.537864 380.129805 
L 325.537864 381.969479 
L 311.65 381.969479 
L 311.65 377.299229 
z
" clip-path="url(#p3bf8a293e0)" style="fill: #bd2e1f"/>
   </g>
   <g id="patch_35">
    <path d="M 333.032787 197.021162 
Q 337.762274 197.021162 339.814221 187.747752 
Q 341.866168 178.408103 341.866168 157.07926 
Q 341.866168 135.949132 339.814221 126.874438 
Q 337.762274 117.733505 333.032787 117.733505 
L 326.701781 117.733505 
L 326.701781 197.021162 
L 333.032787 197.021162 
z
M 326.701781 252.065475 
L 326.701781 369.042919 
L 311.65 369.042919 
L 311.65 59.973408 
L 334.634307 59.973408 
Q 346.170252 59.973408 351.537844 80.507388 
Q 356.917949 100.975129 356.917949 145.288781 
Q 356.917949 175.891034 354.11529 195.563912 
Q 351.325142 215.236789 345.694801 224.576438 
Q 348.785233 228.285802 351.225047 241.467292 
Q 353.677374 254.582543 356.179748 281.276716 
L 364.35 369.042919 
L 348.322293 369.042919 
L 341.203039 292.272331 
Q 339.050997 269.088806 336.836396 260.61026 
Q 334.634307 252.065475 330.955817 252.065475 
L 326.701781 252.065475 
z
" clip-path="url(#p3bf8a293e0)" style="fill: #bd2e1f"/>
   </g>
   <g id="patch_36">
    <path d="M 373.65 384.048131 
L 389.195992 384.048131 
L 399.979692 384.273319 
L 410.83447 384.048131 
L 426.35 384.048131 
L 426.35 384.468926 
L 414.80474 384.468926 
L 414.80474 384.161131 
L 403.889037 384.388032 
L 396.141426 384.388032 
L 385.225723 384.161131 
L 385.225723 384.468926 
L 373.65 384.468926 
L 373.65 384.048131 
z
" clip-path="url(#p3bf8a293e0)" style="fill: #21599c"/>
   </g>
   <g id="patch_37">
    <path d="M 373.65 383.468926 
L 426.35 383.468926 
L 426.35 383.576887 
L 407.390256 383.576887 
L 407.390256 384.02249 
L 392.646512 384.02249 
L 392.646512 383.576887 
L 373.65 383.576887 
L 373.65 383.468926 
z
" clip-path="url(#p3bf8a293e0)" style="fill: #40ba47"/>
   </g>
   <g id="patch_38">
    <path d="M 410.155336 383.197193 
L 389.887763 383.197193 
L 386.68762 383.421898 
L 373.65 383.421898 
L 392.269015 382.188399 
L 407.730985 382.188399 
L 426.35 383.421898 
L 413.323155 383.421898 
L 410.155336 383.197193 
z
M 393.120231 382.968258 
L 406.890544 382.968258 
L 400.016162 382.477608 
L 393.120231 382.968258 
z
" clip-path="url(#p3bf8a293e0)" style="fill: #21599c"/>
   </g>
   <g id="patch_39">
    <path d="M 373.65 379.223271 
L 401.043021 379.223271 
Q 413.271068 379.223271 419.803672 379.465782 
Q 426.35 379.707681 426.35 380.155348 
Q 426.35 380.605464 419.803672 380.847363 
Q 413.271068 381.089262 401.043021 381.089262 
L 390.159922 381.089262 
L 390.159922 382.080742 
L 373.65 382.080742 
L 373.65 379.223271 
z
M 390.159922 379.757286 
L 390.159922 380.555247 
L 399.286354 380.555247 
Q 404.08974 380.555247 406.711016 380.451138 
Q 409.332292 380.34703 409.332292 380.155348 
Q 409.332292 379.964278 406.711016 379.860782 
Q 404.08974 379.757286 399.286354 379.757286 
L 390.159922 379.757286 
z
" clip-path="url(#p3bf8a293e0)" style="fill: #787800"/>
   </g>
   <g id="patch_40">
    <path d="M 373.65 375.86234 
L 387.537864 375.86234 
L 387.537864 377.03082 
L 407.555783 375.86234 
L 423.683253 375.86234 
L 397.743078 377.378688 
L 426.35 379.063825 
L 408.964195 379.063825 
L 387.537864 377.802717 
L 387.537864 379.063825 
L 373.65 379.063825 
L 373.65 375.86234 
z
" clip-path="url(#p3bf8a293e0)" style="fill: #bd2e1f"/>
   </g>
   <g id="patch_41">
    <path d="M 373.65 369.324599 
L 392.774615 369.324599 
L 392.774615 374.387626 
L 426.35 374.387626 
L 426.35 375.612617 
L 373.65 375.612617 
L 373.65 369.324599 
z
" clip-path="url(#p3bf8a293e0)" style="fill: #21599c"/>
   </g>
   <g id="patch_42">
    <path d="M 401.405333 367.692804 
L 400.373292 367.692804 
Q 387.714313 367.692804 380.676667 366.758364 
Q 373.65 365.822457 373.65 364.154548 
Q 373.65 362.489573 380.665687 361.546331 
Q 387.681375 360.601623 400 360.601623 
Q 412.450375 360.601623 419.400188 361.53753 
Q 426.35 362.47197 426.35 364.154548 
Q 426.35 365.309029 422.661 366.143717 
Q 418.972 366.978405 412.044146 367.399416 
L 422.364563 368.939701 
L 409.771458 368.939701 
L 401.405333 367.692804 
z
M 400 361.880793 
Q 393.961458 361.880793 390.634771 362.47637 
Q 387.308083 363.071947 387.308083 364.154548 
Q 387.308083 365.254752 390.557917 365.84006 
Q 393.818729 366.423902 400 366.423902 
Q 406.071479 366.423902 409.398167 365.828325 
Q 412.724854 365.231281 412.724854 364.154548 
Q 412.724854 363.071947 409.398167 362.47637 
Q 406.071479 361.880793 400 361.880793 
z
" clip-path="url(#p3bf8a293e0)" style="fill: #40ba47"/>
   </g>
   <g id="patch_43">
    <path d="M 421.955948 352.163321 
L 421.955948 353.877397 
Q 416.459804 353.578995 411.221293 353.428059 
Q 405.997094 353.275388 401.34541 353.275388 
Q 395.176562 353.275388 392.213797 353.481841 
Q 389.265345 353.686558 389.265345 354.120282 
Q 389.265345 354.446442 391.254834 354.628606 
Q 393.244324 354.809035 398.482835 354.939152 
L 405.811027 355.117846 
Q 416.946442 355.390224 421.641065 355.943656 
Q 426.35 356.495352 426.35 357.51547 
Q 426.35 358.853073 419.794704 359.507128 
Q 413.239408 360.161183 399.770994 360.161183 
Q 393.430391 360.161183 387.032537 360.013717 
Q 380.634682 359.867986 374.236828 359.579994 
L 374.236828 357.819076 
Q 380.634682 358.230246 386.60315 358.440168 
Q 392.571619 358.648356 398.125014 358.648356 
Q 403.764286 358.648356 406.755676 358.421085 
Q 409.747067 358.192079 409.747067 357.768764 
Q 409.747067 357.390557 407.714639 357.184105 
Q 405.682211 356.977653 399.59924 356.814573 
L 392.929441 356.635878 
Q 382.910429 356.375644 378.273058 355.806599 
Q 373.65 355.237554 373.65 354.272953 
Q 373.65 353.063731 380.090793 352.413146 
Q 386.531586 351.762561 398.611651 351.762561 
Q 404.122108 351.762561 409.933134 351.863185 
Q 415.744161 351.963809 421.955948 352.163321 
z
" clip-path="url(#p3bf8a293e0)" style="fill: #40ba47"/>
   </g>
   <g id="patch_44">
    <path d="M 374.198462 338.332202 
L 425.801538 338.332202 
L 425.801538 340.842336 
L 393.323077 340.842336 
L 393.323077 343.236617 
L 423.877949 343.236617 
L 423.877949 345.746751 
L 393.323077 345.746751 
L 393.323077 351.202843 
L 374.198462 351.202843 
L 374.198462 338.332202 
z
" clip-path="url(#p3bf8a293e0)" style="fill: #21599c"/>
   </g>
   <g id="patch_45">
    <path d="M 373.65 322.019919 
L 386.68762 322.019919 
L 400.016162 333.507794 
L 413.323155 322.019919 
L 426.35 322.019919 
L 407.730985 337.583922 
L 392.269015 337.583922 
L 373.65 322.019919 
z
" clip-path="url(#p3bf8a293e0)" style="fill: #21599c"/>
   </g>
   <g id="patch_46">
    <path d="M 435.65 383.99769 
L 454.774615 383.99769 
L 454.774615 384.376082 
L 488.35 384.376082 
L 488.35 384.467633 
L 435.65 384.467633 
L 435.65 383.99769 
z
" clip-path="url(#p3bf8a293e0)" style="fill: #21599c"/>
   </g>
   <g id="patch_47">
    <path d="M 488.35 383.932757 
Q 483.941736 383.951816 479.174969 383.961456 
Q 474.408201 383.971207 469.216541 383.971207 
Q 453.734505 383.971207 444.692252 383.898961 
Q 435.65 383.826716 435.65 383.703167 
Q 435.65 383.579175 444.692252 383.50704 
Q 453.734505 383.434794 469.216541 383.434794 
Q 474.408201 383.434794 479.174969 383.444545 
Q 483.941736 383.454185 488.35 383.473244 
L 488.35 383.580172 
Q 483.901902 383.554908 479.586584 383.543163 
Q 475.271265 383.531417 470.504497 383.531417 
Q 461.953527 383.531417 457.053981 383.57718 
Q 452.167712 383.622832 452.167712 383.703167 
Q 452.167712 383.783169 457.053981 383.828932 
Q 461.953527 383.874584 470.504497 383.874584 
Q 475.271265 383.874584 479.586584 383.862838 
Q 483.901902 383.850982 488.35 383.825718 
L 488.35 383.932757 
z
" clip-path="url(#p3bf8a293e0)" style="fill: #6b296b"/>
   </g>
   <g id="patch_48">
    <path d="M 435.65 382.857031 
L 452.578032 382.857031 
L 473.968106 383.233675 
L 473.968106 382.857031 
L 488.35 382.857031 
L 488.35 383.406226 
L 471.409364 383.406226 
L 450.01929 383.029581 
L 450.01929 383.406226 
L 435.65 383.406226 
L 435.65 382.857031 
z
" clip-path="url(#p3bf8a293e0)" style="fill: #40ba47"/>
   </g>
   <g id="patch_49">
    <path d="M 435.65 381.379045 
L 448.68762 381.379045 
L 462.016162 382.431588 
L 475.323155 381.379045 
L 488.35 381.379045 
L 469.730985 382.805052 
L 454.269015 382.805052 
L 435.65 381.379045 
z
" clip-path="url(#p3bf8a293e0)" style="fill: #21599c"/>
   </g>
   <g id="patch_50">
    <path d="M 436.198462 379.654934 
L 487.801538 379.654934 
L 487.801538 379.975431 
L 455.323077 379.975431 
L 455.323077 380.281135 
L 485.877949 380.281135 
L 485.877949 380.601632 
L 455.323077 380.601632 
L 455.323077 381.298273 
L 436.198462 381.298273 
L 436.198462 379.654934 
z
" clip-path="url(#p3bf8a293e0)" style="fill: #21599c"/>
   </g>
   <g id="patch_51">
    <path d="M 483.955948 374.976356 
L 483.955948 375.943071 
Q 478.459804 375.774776 473.221293 375.689651 
Q 467.997094 375.603546 463.34541 375.603546 
Q 457.176562 375.603546 454.213797 375.719983 
Q 451.265345 375.835441 451.265345 376.080054 
Q 451.265345 376.264004 453.254834 376.366742 
Q 455.244324 376.468501 460.482835 376.541886 
L 467.811027 376.642667 
Q 478.946442 376.796284 483.641065 377.108412 
Q 488.35 377.419561 488.35 377.994893 
Q 488.35 378.749282 481.794704 379.11816 
Q 475.239408 379.487038 461.770994 379.487038 
Q 455.430391 379.487038 449.032537 379.403869 
Q 442.634682 379.321679 436.236828 379.159255 
L 436.236828 378.166122 
Q 442.634682 378.398016 448.60315 378.51641 
Q 454.571619 378.633824 460.125014 378.633824 
Q 465.764286 378.633824 468.755676 378.505647 
Q 471.747067 378.37649 471.747067 378.137747 
Q 471.747067 377.924444 469.714639 377.808008 
Q 467.682211 377.691571 461.59924 377.599596 
L 454.929441 377.498815 
Q 444.910429 377.352047 440.273058 377.031114 
Q 435.65 376.71018 435.65 376.166159 
Q 435.65 375.484175 442.090793 375.117254 
Q 448.531586 374.750333 460.611651 374.750333 
Q 466.122108 374.750333 471.933134 374.807083 
Q 477.744161 374.863834 483.955948 374.976356 
z
" clip-path="url(#p3bf8a293e0)" style="fill: #40ba47"/>
   </g>
   <g id="patch_52">
    <path d="M 435.65 364.022606 
L 450.22 364.022606 
L 461.988929 367.70473 
L 473.746786 364.022606 
L 488.35 364.022606 
L 468.665 370.000799 
L 468.665 374.353809 
L 455.346071 374.353809 
L 455.346071 370.000799 
L 435.65 364.022606 
z
" clip-path="url(#p3bf8a293e0)" style="fill: #177875"/>
   </g>
   <g id="patch_53">
    <path d="M 472.155336 352.459094 
L 451.887763 352.459094 
L 448.68762 362.325456 
L 435.65 362.325456 
L 454.269015 308.164934 
L 469.730985 308.164934 
L 488.35 362.325456 
L 475.323155 362.325456 
L 472.155336 352.459094 
z
M 455.120231 342.407013 
L 468.890544 342.407013 
L 462.016162 320.863522 
L 455.120231 342.407013 
z
" clip-path="url(#p3bf8a293e0)" style="fill: #21599c"/>
   </g>
   <g id="patch_54">
    <path d="M 497.65 384.288917 
L 550.35 384.288917 
L 550.35 384.325228 
L 531.390256 384.325228 
L 531.390256 384.4751 
L 516.646512 384.4751 
L 516.646512 384.325228 
L 497.65 384.325228 
L 497.65 384.288917 
z
" clip-path="url(#p3bf8a293e0)" style="fill: #40ba47"/>
   </g>
   <g id="patch_55">
    <path d="M 497.65 383.861134 
L 512.813382 383.861134 
L 512.813382 384.018144 
L 535.186618 384.018144 
L 535.186618 383.861134 
L 550.35 383.861134 
L 550.35 384.273174 
L 535.186618 384.273174 
L 535.186618 384.098503 
L 512.813382 384.098503 
L 512.813382 384.273174 
L 497.65 384.273174 
L 497.65 383.861134 
z
" clip-path="url(#p3bf8a293e0)" style="fill: #177875"/>
   </g>
   <g id="patch_56">
    <path d="M 498.198462 383.241519 
L 549.801538 383.241519 
L 549.801538 383.357202 
L 517.323077 383.357202 
L 517.323077 383.467546 
L 547.877949 383.467546 
L 547.877949 383.583229 
L 517.323077 383.583229 
L 517.323077 383.834681 
L 498.198462 383.834681 
L 498.198462 383.241519 
z
" clip-path="url(#p3bf8a293e0)" style="fill: #21599c"/>
   </g>
   <g id="patch_57">
    <path d="M 497.65 380.103152 
L 525.043021 380.103152 
Q 537.271068 380.103152 543.803672 380.361382 
Q 550.35 380.618961 550.35 381.095644 
Q 550.35 381.574936 543.803672 381.832515 
Q 537.271068 382.090093 525.043021 382.090093 
L 514.159922 382.090093 
L 514.159922 383.145839 
L 497.65 383.145839 
L 497.65 380.103152 
z
M 514.159922 380.671781 
L 514.159922 381.521464 
L 523.286354 381.521464 
Q 528.08974 381.521464 530.711016 381.410607 
Q 533.332292 381.299751 533.332292 381.095644 
Q 533.332292 380.89219 530.711016 380.781985 
Q 528.08974 380.671781 523.286354 380.671781 
L 514.159922 380.671781 
z
" clip-path="url(#p3bf8a293e0)" style="fill: #787800"/>
   </g>
   <g id="patch_58">
    <path d="M 497.65 376.071434 
L 512.22 376.071434 
L 523.988929 377.44372 
L 535.746786 376.071434 
L 550.35 376.071434 
L 530.665 378.299439 
L 530.665 379.921757 
L 517.346071 379.921757 
L 517.346071 378.299439 
L 497.65 376.071434 
z
" clip-path="url(#p3bf8a293e0)" style="fill: #177875"/>
   </g>
   <g id="patch_59">
    <path d="M 512.091481 370.932438 
L 512.091481 374.630048 
L 517.265444 374.630048 
Q 526.112802 374.630048 530.782574 374.154697 
Q 535.464351 373.679345 535.464351 372.7741 
Q 535.464351 371.874049 530.806583 371.403893 
Q 526.16082 370.932438 517.265444 370.932438 
L 512.091481 370.932438 
z
M 497.65 369.750554 
L 512.871777 369.750554 
Q 525.63262 369.750554 531.874989 369.947967 
Q 538.117358 370.144082 542.583052 370.615537 
Q 546.520547 371.02595 548.429271 371.562344 
Q 550.35 372.097439 550.35 372.7741 
Q 550.35 373.461151 548.429271 373.998844 
Q 546.520547 374.536536 542.583052 374.94565 
Q 538.081344 375.417105 531.778952 375.614519 
Q 525.47656 375.810634 512.871777 375.810634 
L 497.65 375.810634 
L 497.65 369.750554 
z
" clip-path="url(#p3bf8a293e0)" style="fill: #6b296b"/>
   </g>
   <g id="patch_60">
    <path d="M 550.35 368.764697 
Q 545.035119 369.084787 539.318669 369.245563 
Q 533.602219 369.404878 527.507822 369.404878 
Q 513.736374 369.404878 505.693187 368.451915 
Q 497.65 367.498951 497.65 365.869267 
Q 497.65 364.220582 505.834917 363.274927 
Q 514.031645 362.329272 528.287338 362.329272 
Q 533.779381 362.329272 538.810802 362.457893 
Q 543.854034 362.585052 548.318534 362.836447 
L 548.318534 364.246891 
Q 543.712304 363.923878 539.153317 363.764563 
Q 534.59433 363.603787 530.011721 363.603787 
Q 521.531533 363.603787 516.937113 364.19135 
Q 512.342694 364.777452 512.342694 365.869267 
Q 512.342694 366.950851 516.771762 367.541338 
Q 521.200829 368.130363 529.350314 368.130363 
Q 531.570753 368.130363 533.472299 368.096746 
Q 535.373846 368.061667 536.885634 367.988587 
L 536.885634 366.664378 
L 528.204662 366.664378 
L 528.204662 365.484866 
L 550.35 365.484866 
L 550.35 368.764697 
z
" clip-path="url(#p3bf8a293e0)" style="fill: #787800"/>
   </g>
   <g id="patch_61">
    <path d="M 545.955948 353.274181 
L 545.955948 355.123819 
Q 540.459804 354.801817 535.221293 354.638944 
Q 529.997094 354.474199 525.34541 354.474199 
Q 519.176562 354.474199 516.213797 354.696979 
Q 513.265345 354.917887 513.265345 355.385913 
Q 513.265345 355.737869 515.254834 355.934439 
Q 517.244324 356.129138 522.482835 356.269546 
L 529.811027 356.462372 
Q 540.946442 356.756293 545.641065 357.353493 
Q 550.35 357.948822 550.35 359.049619 
Q 550.35 360.49301 543.794704 361.198793 
Q 537.239408 361.904576 523.770994 361.904576 
Q 517.430391 361.904576 511.032537 361.745447 
Q 504.634682 361.58819 498.236828 361.277421 
L 498.236828 359.377237 
Q 504.634682 359.820925 510.60315 360.04745 
Q 516.571619 360.272102 522.125014 360.272102 
Q 527.764286 360.272102 530.755676 360.026856 
Q 533.747067 359.779739 533.747067 359.322946 
Q 533.747067 358.914827 531.714639 358.692047 
Q 529.682211 358.469267 523.59924 358.293289 
L 516.929441 358.100462 
Q 506.910429 357.819647 502.273058 357.205597 
Q 497.65 356.591547 497.65 355.550658 
Q 497.65 354.245803 504.090793 353.543764 
Q 510.531586 352.841725 522.611651 352.841725 
Q 528.122108 352.841725 533.933134 352.950307 
Q 539.744161 353.058889 545.955948 353.274181 
z
" clip-path="url(#p3bf8a293e0)" style="fill: #40ba47"/>
   </g>
   <g id="patch_62">
    <path d="M 497.65 340.113299 
L 549.253077 340.113299 
L 549.253077 342.486725 
L 516.774615 342.486725 
L 516.774615 344.750608 
L 547.329487 344.750608 
L 547.329487 347.124034 
L 516.774615 347.124034 
L 516.774615 349.912157 
L 550.35 349.912157 
L 550.35 352.282975 
L 497.65 352.282975 
L 497.65 340.113299 
z
" clip-path="url(#p3bf8a293e0)" style="fill: #6b296b"/>
   </g>
   <g id="patch_63">
    <path d="M 525.405333 335.68561 
L 524.373292 335.68561 
Q 511.714313 335.68561 504.676667 333.068073 
Q 497.65 330.446426 497.65 325.774307 
Q 497.65 321.110406 504.665687 318.468214 
Q 511.681375 315.821912 524 315.821912 
Q 536.450375 315.821912 543.400187 318.443559 
Q 550.35 321.061096 550.35 325.774307 
Q 550.35 329.008219 546.661 331.346333 
Q 542.972 333.684448 536.044146 334.863778 
L 546.364562 339.1784 
L 533.771458 339.1784 
L 525.405333 335.68561 
z
M 524 319.405103 
Q 517.961458 319.405103 514.634771 321.073424 
Q 511.308083 322.741744 511.308083 325.774307 
Q 511.308083 328.85618 514.557917 330.495736 
Q 517.818729 332.131184 524 332.131184 
Q 530.071479 332.131184 533.398167 330.462863 
Q 536.724854 328.790433 536.724854 325.774307 
Q 536.724854 322.741744 533.398167 321.073424 
Q 530.071479 319.405103 524 319.405103 
z
" clip-path="url(#p3bf8a293e0)" style="fill: #40ba47"/>
   </g>
   <g id="patch_64">
    <path d="M 587.405333 383.788482 
L 586.373292 383.788482 
Q 573.714313 383.788482 566.676667 383.3478 
Q 559.65 382.906426 559.65 382.119839 
Q 559.65 381.334636 566.665687 380.889802 
Q 573.681375 380.444277 586 380.444277 
Q 598.450375 380.444277 605.400187 380.885651 
Q 612.35 381.326334 612.35 382.119839 
Q 612.35 382.664293 608.661 383.057932 
Q 604.972 383.451571 598.044146 383.65012 
L 608.364562 384.37652 
L 595.771458 384.37652 
L 587.405333 383.788482 
z
M 586 381.047535 
Q 579.961458 381.047535 576.634771 381.328409 
Q 573.308083 381.609284 573.308083 382.119839 
Q 573.308083 382.638696 576.557917 382.914727 
Q 579.818729 383.190067 586 383.190067 
Q 592.071479 383.190067 595.398167 382.909193 
Q 598.724854 382.627627 598.724854 382.119839 
Q 598.724854 381.609284 595.398167 381.328409 
Q 592.071479 381.047535 586 381.047535 
z
" clip-path="url(#p3bf8a293e0)" style="fill: #40ba47"/>
   </g>
   <g id="patch_65">
    <path d="M 559.65 375.45574 
L 612.35 375.45574 
L 612.35 376.384033 
L 593.390256 376.384033 
L 593.390256 380.215539 
L 578.646512 380.215539 
L 578.646512 376.384033 
L 559.65 376.384033 
L 559.65 375.45574 
z
" clip-path="url(#p3bf8a293e0)" style="fill: #40ba47"/>
   </g>
   <g id="patch_66">
    <path d="M 574.091481 370.85925 
L 574.091481 374.141098 
L 579.265444 374.141098 
Q 588.112802 374.141098 592.782574 373.719196 
Q 597.464351 373.297293 597.464351 372.493834 
Q 597.464351 371.694986 592.806583 371.277694 
Q 588.16082 370.85925 579.265444 370.85925 
L 574.091481 370.85925 
z
M 559.65 369.810257 
L 574.871777 369.810257 
Q 587.63262 369.810257 593.874989 369.985474 
Q 600.117358 370.159537 604.583052 370.577982 
Q 608.520547 370.942247 610.429271 371.418328 
Q 612.35 371.893257 612.35 372.493834 
Q 612.35 373.103633 610.429271 373.580867 
Q 608.520547 374.058101 604.583052 374.421214 
Q 600.081344 374.839658 593.778952 375.014874 
Q 587.47656 375.188938 574.871777 375.188938 
L 559.65 375.188938 
L 559.65 369.810257 
z
" clip-path="url(#p3bf8a293e0)" style="fill: #6b296b"/>
   </g>
   <g id="patch_67">
    <path d="M 596.155336 368.486933 
L 575.887763 368.486933 
L 572.68762 369.519544 
L 559.65 369.519544 
L 578.269015 363.851115 
L 593.730985 363.851115 
L 612.35 369.519544 
L 599.323155 369.519544 
L 596.155336 368.486933 
z
M 579.120231 367.434884 
L 592.890544 367.434884 
L 586.016162 365.180147 
L 579.120231 367.434884 
z
" clip-path="url(#p3bf8a293e0)" style="fill: #21599c"/>
   </g>
   <g id="patch_68">
    <path d="M 612.35 363.022959 
Q 607.941736 363.269137 603.174969 363.393658 
Q 598.408201 363.51961 593.216541 363.51961 
Q 577.734505 363.51961 568.692252 362.586421 
Q 559.65 361.653232 559.65 360.057364 
Q 559.65 358.455771 568.692252 357.524013 
Q 577.734505 356.590824 593.216541 356.590824 
Q 598.408201 356.590824 603.174969 356.716776 
Q 607.941736 356.841297 612.35 357.087476 
L 612.35 358.468653 
Q 607.901902 358.142323 603.586584 357.990608 
Q 599.271265 357.838893 594.504497 357.838893 
Q 585.953527 357.838893 581.053981 358.430008 
Q 576.167712 359.019692 576.167712 360.057364 
Q 576.167712 361.090742 581.053981 361.681857 
Q 585.953527 362.271541 594.504497 362.271541 
Q 599.271265 362.271541 603.586584 362.119826 
Q 607.901902 361.96668 612.35 361.64035 
L 612.35 363.022959 
z
" clip-path="url(#p3bf8a293e0)" style="fill: #6b296b"/>
   </g>
   <g id="patch_69">
    <path d="M 559.65 344.499564 
L 611.253077 344.499564 
L 611.253077 346.762583 
L 578.774615 346.762583 
L 578.774615 348.921155 
L 609.329487 348.921155 
L 609.329487 351.184174 
L 578.774615 351.184174 
L 578.774615 353.842599 
L 612.35 353.842599 
L 612.35 356.103131 
L 559.65 356.103131 
L 559.65 344.499564 
z
" clip-path="url(#p3bf8a293e0)" style="fill: #6b296b"/>
   </g>
   <g id="patch_70">
    <path d="M 559.65 330.643832 
L 568.762642 330.643832 
L 575.132798 340.239017 
L 581.455534 330.643832 
L 590.615597 330.643832 
L 596.938332 340.239017 
L 603.316392 330.643832 
L 612.35 330.643832 
L 603.656239 343.846762 
L 592.694196 343.846762 
L 586 333.810159 
L 579.384838 343.846762 
L 568.414892 343.846762 
L 559.65 330.643832 
z
" clip-path="url(#p3bf8a293e0)" style="fill: #21599c"/>
   </g>
   <g id="patch_71">
    <path d="M 559.65 307.989826 
L 573.537864 307.989826 
L 573.537864 315.922535 
L 593.555783 307.989826 
L 609.683253 307.989826 
L 583.743078 318.284181 
L 612.35 329.724424 
L 594.964195 329.724424 
L 573.537864 321.162874 
L 573.537864 329.724424 
L 559.65 329.724424 
L 559.65 307.989826 
z
" clip-path="url(#p3bf8a293e0)" style="fill: #bd2e1f"/>
   </g>
   <g id="matplotlib.axis_1">
    <g id="xtick_1">
     <g id="line2d_2">
      <defs>
       <path id="m958e499689" d="M 0 0 
L 0 4.8 
" style="stroke: #262626"/>
      </defs>
      <g>
       <use xlink:href="#m958e499689" x="152" y="384.48" style="fill: #262626; stroke: #262626"/>
      </g>
     </g>
     <g id="text_1">
      <!-- P4 -->
      <g style="fill: #262626" transform="translate(146.61825 399.078875) scale(0.088 -0.088)">
       <defs>
        <path id="ArialMT-50" d="M 494 0 
L 494 4581 
L 2222 4581 
Q 2678 4581 2919 4538 
Q 3256 4481 3484 4323 
Q 3713 4166 3852 3881 
Q 3991 3597 3991 3256 
Q 3991 2672 3619 2267 
Q 3247 1863 2275 1863 
L 1100 1863 
L 1100 0 
L 494 0 
z
M 1100 2403 
L 2284 2403 
Q 2872 2403 3119 2622 
Q 3366 2841 3366 3238 
Q 3366 3525 3220 3729 
Q 3075 3934 2838 4000 
Q 2684 4041 2272 4041 
L 1100 4041 
L 1100 2403 
z
" transform="scale(0.015625)"/>
        <path id="ArialMT-34" d="M 2069 0 
L 2069 1097 
L 81 1097 
L 81 1613 
L 2172 4581 
L 2631 4581 
L 2631 1613 
L 3250 1613 
L 3250 1097 
L 2631 1097 
L 2631 0 
L 2069 0 
z
M 2069 1613 
L 2069 3678 
L 634 1613 
L 2069 1613 
z
" transform="scale(0.015625)"/>
       </defs>
       <use xlink:href="#ArialMT-50"/>
       <use xlink:href="#ArialMT-34" x="66.699219"/>
      </g>
     </g>
    </g>
    <g id="xtick_2">
     <g id="line2d_3">
      <g>
       <use xlink:href="#m958e499689" x="214" y="384.48" style="fill: #262626; stroke: #262626"/>
      </g>
     </g>
     <g id="text_2">
      <!-- P3 -->
      <g style="fill: #262626" transform="translate(208.61825 399.078875) scale(0.088 -0.088)">
       <defs>
        <path id="ArialMT-33" d="M 269 1209 
L 831 1284 
Q 928 806 1161 595 
Q 1394 384 1728 384 
Q 2125 384 2398 659 
Q 2672 934 2672 1341 
Q 2672 1728 2419 1979 
Q 2166 2231 1775 2231 
Q 1616 2231 1378 2169 
L 1441 2663 
Q 1497 2656 1531 2656 
Q 1891 2656 2178 2843 
Q 2466 3031 2466 3422 
Q 2466 3731 2256 3934 
Q 2047 4138 1716 4138 
Q 1388 4138 1169 3931 
Q 950 3725 888 3313 
L 325 3413 
Q 428 3978 793 4289 
Q 1159 4600 1703 4600 
Q 2078 4600 2393 4439 
Q 2709 4278 2876 4000 
Q 3044 3722 3044 3409 
Q 3044 3113 2884 2869 
Q 2725 2625 2413 2481 
Q 2819 2388 3044 2092 
Q 3269 1797 3269 1353 
Q 3269 753 2831 336 
Q 2394 -81 1725 -81 
Q 1122 -81 723 278 
Q 325 638 269 1209 
z
" transform="scale(0.015625)"/>
       </defs>
       <use xlink:href="#ArialMT-50"/>
       <use xlink:href="#ArialMT-33" x="66.699219"/>
      </g>
     </g>
    </g>
    <g id="xtick_3">
     <g id="line2d_4">
      <g>
       <use xlink:href="#m958e499689" x="276" y="384.48" style="fill: #262626; stroke: #262626"/>
      </g>
     </g>
     <g id="text_3">
      <!-- P2 -->
      <g style="fill: #262626" transform="translate(270.61825 399.078875) scale(0.088 -0.088)">
       <defs>
        <path id="ArialMT-32" d="M 3222 541 
L 3222 0 
L 194 0 
Q 188 203 259 391 
Q 375 700 629 1000 
Q 884 1300 1366 1694 
Q 2113 2306 2375 2664 
Q 2638 3022 2638 3341 
Q 2638 3675 2398 3904 
Q 2159 4134 1775 4134 
Q 1369 4134 1125 3890 
Q 881 3647 878 3216 
L 300 3275 
Q 359 3922 746 4261 
Q 1134 4600 1788 4600 
Q 2447 4600 2831 4234 
Q 3216 3869 3216 3328 
Q 3216 3053 3103 2787 
Q 2991 2522 2730 2228 
Q 2469 1934 1863 1422 
Q 1356 997 1212 845 
Q 1069 694 975 541 
L 3222 541 
z
" transform="scale(0.015625)"/>
       </defs>
       <use xlink:href="#ArialMT-50"/>
       <use xlink:href="#ArialMT-32" x="66.699219"/>
      </g>
     </g>
    </g>
    <g id="xtick_4">
     <g id="line2d_5">
      <g>
       <use xlink:href="#m958e499689" x="338" y="384.48" style="fill: #262626; stroke: #262626"/>
      </g>
     </g>
     <g id="text_4">
      <!-- P1 -->
      <g style="fill: #262626" transform="translate(332.61825 399.078875) scale(0.088 -0.088)">
       <defs>
        <path id="ArialMT-31" d="M 2384 0 
L 1822 0 
L 1822 3584 
Q 1619 3391 1289 3197 
Q 959 3003 697 2906 
L 697 3450 
Q 1169 3672 1522 3987 
Q 1875 4303 2022 4600 
L 2384 4600 
L 2384 0 
z
" transform="scale(0.015625)"/>
       </defs>
       <use xlink:href="#ArialMT-50"/>
       <use xlink:href="#ArialMT-31" x="66.699219"/>
      </g>
     </g>
    </g>
    <g id="xtick_5">
     <g id="line2d_6">
      <g>
       <use xlink:href="#m958e499689" x="400" y="384.48" style="fill: #262626; stroke: #262626"/>
      </g>
     </g>
     <g id="text_5">
      <!-- P1' -->
      <g style="fill: #262626" transform="translate(393.778125 399.078875) scale(0.088 -0.088)">
       <defs>
        <path id="ArialMT-27" d="M 425 2959 
L 281 3816 
L 281 4581 
L 922 4581 
L 922 3816 
L 772 2959 
L 425 2959 
z
" transform="scale(0.015625)"/>
       </defs>
       <use xlink:href="#ArialMT-50"/>
       <use xlink:href="#ArialMT-31" x="66.699219"/>
       <use xlink:href="#ArialMT-27" x="122.314453"/>
      </g>
     </g>
    </g>
    <g id="xtick_6">
     <g id="line2d_7">
      <g>
       <use xlink:href="#m958e499689" x="462" y="384.48" style="fill: #262626; stroke: #262626"/>
      </g>
     </g>
     <g id="text_6">
      <!-- P2' -->
      <g style="fill: #262626" transform="translate(455.778125 399.078875) scale(0.088 -0.088)">
       <use xlink:href="#ArialMT-50"/>
       <use xlink:href="#ArialMT-32" x="66.699219"/>
       <use xlink:href="#ArialMT-27" x="122.314453"/>
      </g>
     </g>
    </g>
    <g id="xtick_7">
     <g id="line2d_8">
      <g>
       <use xlink:href="#m958e499689" x="524" y="384.48" style="fill: #262626; stroke: #262626"/>
      </g>
     </g>
     <g id="text_7">
      <!-- P3' -->
      <g style="fill: #262626" transform="translate(517.778125 399.078875) scale(0.088 -0.088)">
       <use xlink:href="#ArialMT-50"/>
       <use xlink:href="#ArialMT-33" x="66.699219"/>
       <use xlink:href="#ArialMT-27" x="122.314453"/>
      </g>
     </g>
    </g>
    <g id="xtick_8">
     <g id="line2d_9">
      <g>
       <use xlink:href="#m958e499689" x="586" y="384.48" style="fill: #262626; stroke: #262626"/>
      </g>
     </g>
     <g id="text_8">
      <!-- P4' -->
      <g style="fill: #262626" transform="translate(579.778125 399.078875) scale(0.088 -0.088)">
       <use xlink:href="#ArialMT-50"/>
       <use xlink:href="#ArialMT-34" x="66.699219"/>
       <use xlink:href="#ArialMT-27" x="122.314453"/>
      </g>
     </g>
    </g>
   </g>
   <g id="matplotlib.axis_2">
    <g id="ytick_1">
     <g id="line2d_10">
      <defs>
       <path id="mcb2a060dfc" d="M 0 0 
L -4.8 0 
" style="stroke: #262626"/>
      </defs>
      <g>
       <use xlink:href="#mcb2a060dfc" x="90" y="384.48" style="fill: #262626; stroke: #262626"/>
      </g>
     </g>
     <g id="text_9">
      <!-- 0.0 -->
      <g style="fill: #262626" transform="translate(69.468 387.629437) scale(0.088 -0.088)">
       <defs>
        <path id="ArialMT-30" d="M 266 2259 
Q 266 3072 433 3567 
Q 600 4063 929 4331 
Q 1259 4600 1759 4600 
Q 2128 4600 2406 4451 
Q 2684 4303 2865 4023 
Q 3047 3744 3150 3342 
Q 3253 2941 3253 2259 
Q 3253 1453 3087 958 
Q 2922 463 2592 192 
Q 2263 -78 1759 -78 
Q 1097 -78 719 397 
Q 266 969 266 2259 
z
M 844 2259 
Q 844 1131 1108 757 
Q 1372 384 1759 384 
Q 2147 384 2411 759 
Q 2675 1134 2675 2259 
Q 2675 3391 2411 3762 
Q 2147 4134 1753 4134 
Q 1366 4134 1134 3806 
Q 844 3388 844 2259 
z
" transform="scale(0.015625)"/>
        <path id="ArialMT-2e" d="M 581 0 
L 581 641 
L 1222 641 
L 1222 0 
L 581 0 
z
" transform="scale(0.015625)"/>
       </defs>
       <use xlink:href="#ArialMT-30"/>
       <use xlink:href="#ArialMT-2e" x="55.615234"/>
       <use xlink:href="#ArialMT-30" x="83.398438"/>
      </g>
     </g>
    </g>
    <g id="ytick_2">
     <g id="line2d_11">
      <g>
       <use xlink:href="#mcb2a060dfc" x="90" y="341.334086" style="fill: #262626; stroke: #262626"/>
      </g>
     </g>
     <g id="text_10">
      <!-- 0.2 -->
      <g style="fill: #262626" transform="translate(69.468 344.483524) scale(0.088 -0.088)">
       <use xlink:href="#ArialMT-30"/>
       <use xlink:href="#ArialMT-2e" x="55.615234"/>
       <use xlink:href="#ArialMT-32" x="83.398438"/>
      </g>
     </g>
    </g>
    <g id="ytick_3">
     <g id="line2d_12">
      <g>
       <use xlink:href="#mcb2a060dfc" x="90" y="298.188172" style="fill: #262626; stroke: #262626"/>
      </g>
     </g>
     <g id="text_11">
      <!-- 0.4 -->
      <g style="fill: #262626" transform="translate(69.468 301.33761) scale(0.088 -0.088)">
       <use xlink:href="#ArialMT-30"/>
       <use xlink:href="#ArialMT-2e" x="55.615234"/>
       <use xlink:href="#ArialMT-34" x="83.398438"/>
      </g>
     </g>
    </g>
    <g id="ytick_4">
     <g id="line2d_13">
      <g>
       <use xlink:href="#mcb2a060dfc" x="90" y="255.042259" style="fill: #262626; stroke: #262626"/>
      </g>
     </g>
     <g id="text_12">
      <!-- 0.6 -->
      <g style="fill: #262626" transform="translate(69.468 258.191696) scale(0.088 -0.088)">
       <defs>
        <path id="ArialMT-36" d="M 3184 3459 
L 2625 3416 
Q 2550 3747 2413 3897 
Q 2184 4138 1850 4138 
Q 1581 4138 1378 3988 
Q 1113 3794 959 3422 
Q 806 3050 800 2363 
Q 1003 2672 1297 2822 
Q 1591 2972 1913 2972 
Q 2475 2972 2870 2558 
Q 3266 2144 3266 1488 
Q 3266 1056 3080 686 
Q 2894 316 2569 119 
Q 2244 -78 1831 -78 
Q 1128 -78 684 439 
Q 241 956 241 2144 
Q 241 3472 731 4075 
Q 1159 4600 1884 4600 
Q 2425 4600 2770 4297 
Q 3116 3994 3184 3459 
z
M 888 1484 
Q 888 1194 1011 928 
Q 1134 663 1356 523 
Q 1578 384 1822 384 
Q 2178 384 2434 671 
Q 2691 959 2691 1453 
Q 2691 1928 2437 2201 
Q 2184 2475 1800 2475 
Q 1419 2475 1153 2201 
Q 888 1928 888 1484 
z
" transform="scale(0.015625)"/>
       </defs>
       <use xlink:href="#ArialMT-30"/>
       <use xlink:href="#ArialMT-2e" x="55.615234"/>
       <use xlink:href="#ArialMT-36" x="83.398438"/>
      </g>
     </g>
    </g>
    <g id="ytick_5">
     <g id="line2d_14">
      <g>
       <use xlink:href="#mcb2a060dfc" x="90" y="211.896345" style="fill: #262626; stroke: #262626"/>
      </g>
     </g>
     <g id="text_13">
      <!-- 0.8 -->
      <g style="fill: #262626" transform="translate(69.468 215.045782) scale(0.088 -0.088)">
       <defs>
        <path id="ArialMT-38" d="M 1131 2484 
Q 781 2613 612 2850 
Q 444 3088 444 3419 
Q 444 3919 803 4259 
Q 1163 4600 1759 4600 
Q 2359 4600 2725 4251 
Q 3091 3903 3091 3403 
Q 3091 3084 2923 2848 
Q 2756 2613 2416 2484 
Q 2838 2347 3058 2040 
Q 3278 1734 3278 1309 
Q 3278 722 2862 322 
Q 2447 -78 1769 -78 
Q 1091 -78 675 323 
Q 259 725 259 1325 
Q 259 1772 486 2073 
Q 713 2375 1131 2484 
z
M 1019 3438 
Q 1019 3113 1228 2906 
Q 1438 2700 1772 2700 
Q 2097 2700 2305 2904 
Q 2513 3109 2513 3406 
Q 2513 3716 2298 3927 
Q 2084 4138 1766 4138 
Q 1444 4138 1231 3931 
Q 1019 3725 1019 3438 
z
M 838 1322 
Q 838 1081 952 856 
Q 1066 631 1291 507 
Q 1516 384 1775 384 
Q 2178 384 2440 643 
Q 2703 903 2703 1303 
Q 2703 1709 2433 1975 
Q 2163 2241 1756 2241 
Q 1359 2241 1098 1978 
Q 838 1716 838 1322 
z
" transform="scale(0.015625)"/>
       </defs>
       <use xlink:href="#ArialMT-30"/>
       <use xlink:href="#ArialMT-2e" x="55.615234"/>
       <use xlink:href="#ArialMT-38" x="83.398438"/>
      </g>
     </g>
    </g>
    <g id="ytick_6">
     <g id="line2d_15">
      <g>
       <use xlink:href="#mcb2a060dfc" x="90" y="168.750431" style="fill: #262626; stroke: #262626"/>
      </g>
     </g>
     <g id="text_14">
      <!-- 1.0 -->
      <g style="fill: #262626" transform="translate(69.468 171.899869) scale(0.088 -0.088)">
       <use xlink:href="#ArialMT-31"/>
       <use xlink:href="#ArialMT-2e" x="55.615234"/>
       <use xlink:href="#ArialMT-30" x="83.398438"/>
      </g>
     </g>
    </g>
    <g id="ytick_7">
     <g id="line2d_16">
      <g>
       <use xlink:href="#mcb2a060dfc" x="90" y="125.604517" style="fill: #262626; stroke: #262626"/>
      </g>
     </g>
     <g id="text_15">
      <!-- 1.2 -->
      <g style="fill: #262626" transform="translate(69.468 128.753955) scale(0.088 -0.088)">
       <use xlink:href="#ArialMT-31"/>
       <use xlink:href="#ArialMT-2e" x="55.615234"/>
       <use xlink:href="#ArialMT-32" x="83.398438"/>
      </g>
     </g>
    </g>
    <g id="ytick_8">
     <g id="line2d_17">
      <g>
       <use xlink:href="#mcb2a060dfc" x="90" y="82.458604" style="fill: #262626; stroke: #262626"/>
      </g>
     </g>
     <g id="text_16">
      <!-- 1.4 -->
      <g style="fill: #262626" transform="translate(69.468 85.608041) scale(0.088 -0.088)">
       <use xlink:href="#ArialMT-31"/>
       <use xlink:href="#ArialMT-2e" x="55.615234"/>
       <use xlink:href="#ArialMT-34" x="83.398438"/>
      </g>
     </g>
    </g>
    <g id="text_17">
     <!-- information (bits) -->
     <g style="fill: #262626" transform="translate(63.4475 253.902) rotate(-90) scale(0.096 -0.096)">
      <defs>
       <path id="ArialMT-69" d="M 425 3934 
L 425 4581 
L 988 4581 
L 988 3934 
L 425 3934 
z
M 425 0 
L 425 3319 
L 988 3319 
L 988 0 
L 425 0 
z
" transform="scale(0.015625)"/>
       <path id="ArialMT-6e" d="M 422 0 
L 422 3319 
L 928 3319 
L 928 2847 
Q 1294 3394 1984 3394 
Q 2284 3394 2536 3286 
Q 2788 3178 2913 3003 
Q 3038 2828 3088 2588 
Q 3119 2431 3119 2041 
L 3119 0 
L 2556 0 
L 2556 2019 
Q 2556 2363 2490 2533 
Q 2425 2703 2258 2804 
Q 2091 2906 1866 2906 
Q 1506 2906 1245 2678 
Q 984 2450 984 1813 
L 984 0 
L 422 0 
z
" transform="scale(0.015625)"/>
       <path id="ArialMT-66" d="M 556 0 
L 556 2881 
L 59 2881 
L 59 3319 
L 556 3319 
L 556 3672 
Q 556 4006 616 4169 
Q 697 4388 901 4523 
Q 1106 4659 1475 4659 
Q 1713 4659 2000 4603 
L 1916 4113 
Q 1741 4144 1584 4144 
Q 1328 4144 1222 4034 
Q 1116 3925 1116 3625 
L 1116 3319 
L 1763 3319 
L 1763 2881 
L 1116 2881 
L 1116 0 
L 556 0 
z
" transform="scale(0.015625)"/>
       <path id="ArialMT-6f" d="M 213 1659 
Q 213 2581 725 3025 
Q 1153 3394 1769 3394 
Q 2453 3394 2887 2945 
Q 3322 2497 3322 1706 
Q 3322 1066 3130 698 
Q 2938 331 2570 128 
Q 2203 -75 1769 -75 
Q 1072 -75 642 372 
Q 213 819 213 1659 
z
M 791 1659 
Q 791 1022 1069 705 
Q 1347 388 1769 388 
Q 2188 388 2466 706 
Q 2744 1025 2744 1678 
Q 2744 2294 2464 2611 
Q 2184 2928 1769 2928 
Q 1347 2928 1069 2612 
Q 791 2297 791 1659 
z
" transform="scale(0.015625)"/>
       <path id="ArialMT-72" d="M 416 0 
L 416 3319 
L 922 3319 
L 922 2816 
Q 1116 3169 1280 3281 
Q 1444 3394 1641 3394 
Q 1925 3394 2219 3213 
L 2025 2691 
Q 1819 2813 1613 2813 
Q 1428 2813 1281 2702 
Q 1134 2591 1072 2394 
Q 978 2094 978 1738 
L 978 0 
L 416 0 
z
" transform="scale(0.015625)"/>
       <path id="ArialMT-6d" d="M 422 0 
L 422 3319 
L 925 3319 
L 925 2853 
Q 1081 3097 1340 3245 
Q 1600 3394 1931 3394 
Q 2300 3394 2536 3241 
Q 2772 3088 2869 2813 
Q 3263 3394 3894 3394 
Q 4388 3394 4653 3120 
Q 4919 2847 4919 2278 
L 4919 0 
L 4359 0 
L 4359 2091 
Q 4359 2428 4304 2576 
Q 4250 2725 4106 2815 
Q 3963 2906 3769 2906 
Q 3419 2906 3187 2673 
Q 2956 2441 2956 1928 
L 2956 0 
L 2394 0 
L 2394 2156 
Q 2394 2531 2256 2718 
Q 2119 2906 1806 2906 
Q 1569 2906 1367 2781 
Q 1166 2656 1075 2415 
Q 984 2175 984 1722 
L 984 0 
L 422 0 
z
" transform="scale(0.015625)"/>
       <path id="ArialMT-61" d="M 2588 409 
Q 2275 144 1986 34 
Q 1697 -75 1366 -75 
Q 819 -75 525 192 
Q 231 459 231 875 
Q 231 1119 342 1320 
Q 453 1522 633 1644 
Q 813 1766 1038 1828 
Q 1203 1872 1538 1913 
Q 2219 1994 2541 2106 
Q 2544 2222 2544 2253 
Q 2544 2597 2384 2738 
Q 2169 2928 1744 2928 
Q 1347 2928 1158 2789 
Q 969 2650 878 2297 
L 328 2372 
Q 403 2725 575 2942 
Q 747 3159 1072 3276 
Q 1397 3394 1825 3394 
Q 2250 3394 2515 3294 
Q 2781 3194 2906 3042 
Q 3031 2891 3081 2659 
Q 3109 2516 3109 2141 
L 3109 1391 
Q 3109 606 3145 398 
Q 3181 191 3288 0 
L 2700 0 
Q 2613 175 2588 409 
z
M 2541 1666 
Q 2234 1541 1622 1453 
Q 1275 1403 1131 1340 
Q 988 1278 909 1158 
Q 831 1038 831 891 
Q 831 666 1001 516 
Q 1172 366 1500 366 
Q 1825 366 2078 508 
Q 2331 650 2450 897 
Q 2541 1088 2541 1459 
L 2541 1666 
z
" transform="scale(0.015625)"/>
       <path id="ArialMT-74" d="M 1650 503 
L 1731 6 
Q 1494 -44 1306 -44 
Q 1000 -44 831 53 
Q 663 150 594 308 
Q 525 466 525 972 
L 525 2881 
L 113 2881 
L 113 3319 
L 525 3319 
L 525 4141 
L 1084 4478 
L 1084 3319 
L 1650 3319 
L 1650 2881 
L 1084 2881 
L 1084 941 
Q 1084 700 1114 631 
Q 1144 563 1211 522 
Q 1278 481 1403 481 
Q 1497 481 1650 503 
z
" transform="scale(0.015625)"/>
       <path id="ArialMT-20" transform="scale(0.015625)"/>
       <path id="ArialMT-28" d="M 1497 -1347 
Q 1031 -759 709 28 
Q 388 816 388 1659 
Q 388 2403 628 3084 
Q 909 3875 1497 4659 
L 1900 4659 
Q 1522 4009 1400 3731 
Q 1209 3300 1100 2831 
Q 966 2247 966 1656 
Q 966 153 1900 -1347 
L 1497 -1347 
z
" transform="scale(0.015625)"/>
       <path id="ArialMT-62" d="M 941 0 
L 419 0 
L 419 4581 
L 981 4581 
L 981 2947 
Q 1338 3394 1891 3394 
Q 2197 3394 2470 3270 
Q 2744 3147 2920 2923 
Q 3097 2700 3197 2384 
Q 3297 2069 3297 1709 
Q 3297 856 2875 390 
Q 2453 -75 1863 -75 
Q 1275 -75 941 416 
L 941 0 
z
M 934 1684 
Q 934 1088 1097 822 
Q 1363 388 1816 388 
Q 2184 388 2453 708 
Q 2722 1028 2722 1663 
Q 2722 2313 2464 2622 
Q 2206 2931 1841 2931 
Q 1472 2931 1203 2611 
Q 934 2291 934 1684 
z
" transform="scale(0.015625)"/>
       <path id="ArialMT-73" d="M 197 991 
L 753 1078 
Q 800 744 1014 566 
Q 1228 388 1613 388 
Q 2000 388 2187 545 
Q 2375 703 2375 916 
Q 2375 1106 2209 1216 
Q 2094 1291 1634 1406 
Q 1016 1563 777 1677 
Q 538 1791 414 1992 
Q 291 2194 291 2438 
Q 291 2659 392 2848 
Q 494 3038 669 3163 
Q 800 3259 1026 3326 
Q 1253 3394 1513 3394 
Q 1903 3394 2198 3281 
Q 2494 3169 2634 2976 
Q 2775 2784 2828 2463 
L 2278 2388 
Q 2241 2644 2061 2787 
Q 1881 2931 1553 2931 
Q 1166 2931 1000 2803 
Q 834 2675 834 2503 
Q 834 2394 903 2306 
Q 972 2216 1119 2156 
Q 1203 2125 1616 2013 
Q 2213 1853 2448 1751 
Q 2684 1650 2818 1456 
Q 2953 1263 2953 975 
Q 2953 694 2789 445 
Q 2625 197 2315 61 
Q 2006 -75 1616 -75 
Q 969 -75 630 194 
Q 291 463 197 991 
z
" transform="scale(0.015625)"/>
       <path id="ArialMT-29" d="M 791 -1347 
L 388 -1347 
Q 1322 153 1322 1656 
Q 1322 2244 1188 2822 
Q 1081 3291 891 3722 
Q 769 4003 388 4659 
L 791 4659 
Q 1378 3875 1659 3084 
Q 1900 2403 1900 1659 
Q 1900 816 1576 28 
Q 1253 -759 791 -1347 
z
" transform="scale(0.015625)"/>
      </defs>
      <use xlink:href="#ArialMT-69"/>
      <use xlink:href="#ArialMT-6e" x="22.216797"/>
      <use xlink:href="#ArialMT-66" x="77.832031"/>
      <use xlink:href="#ArialMT-6f" x="105.615234"/>
      <use xlink:href="#ArialMT-72" x="161.230469"/>
      <use xlink:href="#ArialMT-6d" x="194.53125"/>
      <use xlink:href="#ArialMT-61" x="277.832031"/>
      <use xlink:href="#ArialMT-74" x="333.447266"/>
      <use xlink:href="#ArialMT-69" x="361.230469"/>
      <use xlink:href="#ArialMT-6f" x="383.447266"/>
      <use xlink:href="#ArialMT-6e" x="439.0625"/>
      <use xlink:href="#ArialMT-20" x="494.677734"/>
      <use xlink:href="#ArialMT-28" x="522.460938"/>
      <use xlink:href="#ArialMT-62" x="555.761719"/>
      <use xlink:href="#ArialMT-69" x="611.376953"/>
      <use xlink:href="#ArialMT-74" x="633.59375"/>
      <use xlink:href="#ArialMT-73" x="661.376953"/>
      <use xlink:href="#ArialMT-29" x="711.376953"/>
     </g>
    </g>
   </g>
   <g id="line2d_18">
    <path d="M 369 384.48 
L 369 51.84 
" clip-path="url(#p3bf8a293e0)" style="fill: none; stroke: #daa520; stroke-width: 2; stroke-linecap: round"/>
   </g>
   <g id="patch_72">
    <path d="M 90 384.48 
L 648 384.48 
" style="fill: none; stroke: #262626; stroke-linejoin: miter; stroke-linecap: square"/>
   </g>
   <g id="patch_73">
    <path d="M 90 51.84 
L 648 51.84 
" style="fill: none; stroke: #262626; stroke-linejoin: miter; stroke-linecap: square"/>
   </g>
   <g id="text_18">
    <!-- ANOVA information content, Kullback n=39 -->
    <g style="fill: #262626" transform="translate(277.70475 45.84) scale(0.096 -0.096)">
     <defs>
      <path id="ArialMT-41" d="M -9 0 
L 1750 4581 
L 2403 4581 
L 4278 0 
L 3588 0 
L 3053 1388 
L 1138 1388 
L 634 0 
L -9 0 
z
M 1313 1881 
L 2866 1881 
L 2388 3150 
Q 2169 3728 2063 4100 
Q 1975 3659 1816 3225 
L 1313 1881 
z
" transform="scale(0.015625)"/>
      <path id="ArialMT-4e" d="M 488 0 
L 488 4581 
L 1109 4581 
L 3516 984 
L 3516 4581 
L 4097 4581 
L 4097 0 
L 3475 0 
L 1069 3600 
L 1069 0 
L 488 0 
z
" transform="scale(0.015625)"/>
      <path id="ArialMT-4f" d="M 309 2231 
Q 309 3372 921 4017 
Q 1534 4663 2503 4663 
Q 3138 4663 3647 4359 
Q 4156 4056 4423 3514 
Q 4691 2972 4691 2284 
Q 4691 1588 4409 1038 
Q 4128 488 3612 205 
Q 3097 -78 2500 -78 
Q 1853 -78 1343 234 
Q 834 547 571 1087 
Q 309 1628 309 2231 
z
M 934 2222 
Q 934 1394 1379 917 
Q 1825 441 2497 441 
Q 3181 441 3623 922 
Q 4066 1403 4066 2288 
Q 4066 2847 3877 3264 
Q 3688 3681 3323 3911 
Q 2959 4141 2506 4141 
Q 1863 4141 1398 3698 
Q 934 3256 934 2222 
z
" transform="scale(0.015625)"/>
      <path id="ArialMT-56" d="M 1803 0 
L 28 4581 
L 684 4581 
L 1875 1253 
Q 2019 853 2116 503 
Q 2222 878 2363 1253 
L 3600 4581 
L 4219 4581 
L 2425 0 
L 1803 0 
z
" transform="scale(0.015625)"/>
      <path id="ArialMT-63" d="M 2588 1216 
L 3141 1144 
Q 3050 572 2676 248 
Q 2303 -75 1759 -75 
Q 1078 -75 664 370 
Q 250 816 250 1647 
Q 250 2184 428 2587 
Q 606 2991 970 3192 
Q 1334 3394 1763 3394 
Q 2303 3394 2647 3120 
Q 2991 2847 3088 2344 
L 2541 2259 
Q 2463 2594 2264 2762 
Q 2066 2931 1784 2931 
Q 1359 2931 1093 2626 
Q 828 2322 828 1663 
Q 828 994 1084 691 
Q 1341 388 1753 388 
Q 2084 388 2306 591 
Q 2528 794 2588 1216 
z
" transform="scale(0.015625)"/>
      <path id="ArialMT-65" d="M 2694 1069 
L 3275 997 
Q 3138 488 2766 206 
Q 2394 -75 1816 -75 
Q 1088 -75 661 373 
Q 234 822 234 1631 
Q 234 2469 665 2931 
Q 1097 3394 1784 3394 
Q 2450 3394 2872 2941 
Q 3294 2488 3294 1666 
Q 3294 1616 3291 1516 
L 816 1516 
Q 847 969 1125 678 
Q 1403 388 1819 388 
Q 2128 388 2347 550 
Q 2566 713 2694 1069 
z
M 847 1978 
L 2700 1978 
Q 2663 2397 2488 2606 
Q 2219 2931 1791 2931 
Q 1403 2931 1139 2672 
Q 875 2413 847 1978 
z
" transform="scale(0.015625)"/>
      <path id="ArialMT-2c" d="M 569 0 
L 569 641 
L 1209 641 
L 1209 0 
Q 1209 -353 1084 -570 
Q 959 -788 688 -906 
L 531 -666 
Q 709 -588 793 -436 
Q 878 -284 888 0 
L 569 0 
z
" transform="scale(0.015625)"/>
      <path id="ArialMT-4b" d="M 469 0 
L 469 4581 
L 1075 4581 
L 1075 2309 
L 3350 4581 
L 4172 4581 
L 2250 2725 
L 4256 0 
L 3456 0 
L 1825 2319 
L 1075 1588 
L 1075 0 
L 469 0 
z
" transform="scale(0.015625)"/>
      <path id="ArialMT-75" d="M 2597 0 
L 2597 488 
Q 2209 -75 1544 -75 
Q 1250 -75 995 37 
Q 741 150 617 320 
Q 494 491 444 738 
Q 409 903 409 1263 
L 409 3319 
L 972 3319 
L 972 1478 
Q 972 1038 1006 884 
Q 1059 663 1231 536 
Q 1403 409 1656 409 
Q 1909 409 2131 539 
Q 2353 669 2445 892 
Q 2538 1116 2538 1541 
L 2538 3319 
L 3100 3319 
L 3100 0 
L 2597 0 
z
" transform="scale(0.015625)"/>
      <path id="ArialMT-6c" d="M 409 0 
L 409 4581 
L 972 4581 
L 972 0 
L 409 0 
z
" transform="scale(0.015625)"/>
      <path id="ArialMT-6b" d="M 425 0 
L 425 4581 
L 988 4581 
L 988 1969 
L 2319 3319 
L 3047 3319 
L 1778 2088 
L 3175 0 
L 2481 0 
L 1384 1697 
L 988 1316 
L 988 0 
L 425 0 
z
" transform="scale(0.015625)"/>
      <path id="ArialMT-3d" d="M 3381 2694 
L 356 2694 
L 356 3219 
L 3381 3219 
L 3381 2694 
z
M 3381 1303 
L 356 1303 
L 356 1828 
L 3381 1828 
L 3381 1303 
z
" transform="scale(0.015625)"/>
      <path id="ArialMT-39" d="M 350 1059 
L 891 1109 
Q 959 728 1153 556 
Q 1347 384 1650 384 
Q 1909 384 2104 503 
Q 2300 622 2425 820 
Q 2550 1019 2634 1356 
Q 2719 1694 2719 2044 
Q 2719 2081 2716 2156 
Q 2547 1888 2255 1720 
Q 1963 1553 1622 1553 
Q 1053 1553 659 1965 
Q 266 2378 266 3053 
Q 266 3750 677 4175 
Q 1088 4600 1706 4600 
Q 2153 4600 2523 4359 
Q 2894 4119 3086 3673 
Q 3278 3228 3278 2384 
Q 3278 1506 3087 986 
Q 2897 466 2520 194 
Q 2144 -78 1638 -78 
Q 1100 -78 759 220 
Q 419 519 350 1059 
z
M 2653 3081 
Q 2653 3566 2395 3850 
Q 2138 4134 1775 4134 
Q 1400 4134 1122 3828 
Q 844 3522 844 3034 
Q 844 2597 1108 2323 
Q 1372 2050 1759 2050 
Q 2150 2050 2401 2323 
Q 2653 2597 2653 3081 
z
" transform="scale(0.015625)"/>
     </defs>
     <use xlink:href="#ArialMT-41"/>
     <use xlink:href="#ArialMT-4e" x="66.699219"/>
     <use xlink:href="#ArialMT-4f" x="138.916016"/>
     <use xlink:href="#ArialMT-56" x="216.699219"/>
     <use xlink:href="#ArialMT-41" x="276.023438"/>
     <use xlink:href="#ArialMT-20" x="337.222656"/>
     <use xlink:href="#ArialMT-69" x="365.005859"/>
     <use xlink:href="#ArialMT-6e" x="387.222656"/>
     <use xlink:href="#ArialMT-66" x="442.837891"/>
     <use xlink:href="#ArialMT-6f" x="470.621094"/>
     <use xlink:href="#ArialMT-72" x="526.236328"/>
     <use xlink:href="#ArialMT-6d" x="559.537109"/>
     <use xlink:href="#ArialMT-61" x="642.837891"/>
     <use xlink:href="#ArialMT-74" x="698.453125"/>
     <use xlink:href="#ArialMT-69" x="726.236328"/>
     <use xlink:href="#ArialMT-6f" x="748.453125"/>
     <use xlink:href="#ArialMT-6e" x="804.068359"/>
     <use xlink:href="#ArialMT-20" x="859.683594"/>
     <use xlink:href="#ArialMT-63" x="887.466797"/>
     <use xlink:href="#ArialMT-6f" x="937.466797"/>
     <use xlink:href="#ArialMT-6e" x="993.082031"/>
     <use xlink:href="#ArialMT-74" x="1048.697266"/>
     <use xlink:href="#ArialMT-65" x="1076.480469"/>
     <use xlink:href="#ArialMT-6e" x="1132.095703"/>
     <use xlink:href="#ArialMT-74" x="1187.710938"/>
     <use xlink:href="#ArialMT-2c" x="1215.494141"/>
     <use xlink:href="#ArialMT-20" x="1243.277344"/>
     <use xlink:href="#ArialMT-4b" x="1271.060547"/>
     <use xlink:href="#ArialMT-75" x="1337.759766"/>
     <use xlink:href="#ArialMT-6c" x="1393.375"/>
     <use xlink:href="#ArialMT-6c" x="1415.591797"/>
     <use xlink:href="#ArialMT-62" x="1437.808594"/>
     <use xlink:href="#ArialMT-61" x="1493.423828"/>
     <use xlink:href="#ArialMT-63" x="1549.039062"/>
     <use xlink:href="#ArialMT-6b" x="1599.039062"/>
     <use xlink:href="#ArialMT-20" x="1649.039062"/>
     <use xlink:href="#ArialMT-6e" x="1676.822266"/>
     <use xlink:href="#ArialMT-3d" x="1732.4375"/>
     <use xlink:href="#ArialMT-33" x="1790.835938"/>
     <use xlink:href="#ArialMT-39" x="1846.451172"/>
    </g>
   </g>
  </g>
 </g>
 <defs>
  <clipPath id="p3bf8a293e0">
   <rect x="90" y="51.84" width="558" height="332.64"/>
  </clipPath>
 </defs>
</svg>
