<?xml version="1.0" encoding="utf-8" standalone="no"?>
<!DOCTYPE svg PUBLIC "-//W3C//DTD SVG 1.1//EN"
  "http://www.w3.org/Graphics/SVG/1.1/DTD/svg11.dtd">
<svg xmlns:xlink="http://www.w3.org/1999/xlink" width="720pt" height="432pt" viewBox="0 0 720 432" xmlns="http://www.w3.org/2000/svg" version="1.1">
 <metadata>
  <rdf:RDF xmlns:dc="http://purl.org/dc/elements/1.1/" xmlns:cc="http://creativecommons.org/ns#" xmlns:rdf="http://www.w3.org/1999/02/22-rdf-syntax-ns#">
   <cc:Work>
    <dc:type rdf:resource="http://purl.org/dc/dcmitype/StillImage"/>
    <dc:date>2023-10-25T13:40:02.957081</dc:date>
    <dc:format>image/svg+xml</dc:format>
    <dc:creator>
     <cc:Agent>
      <dc:title>Matplotlib v3.7.1, https://matplotlib.org/</dc:title>
     </cc:Agent>
    </dc:creator>
   </cc:Work>
  </rdf:RDF>
 </metadata>
 <defs>
  <style type="text/css">*{stroke-linejoin: round; stroke-linecap: butt}</style>
 </defs>
 <g id="figure_1">
  <g id="patch_1">
   <path d="M 0 432 
L 720 432 
L 720 0 
L 0 0 
z
" style="fill: #ffffff"/>
  </g>
  <g id="axes_1">
   <g id="patch_2">
    <path d="M 90 384.48 
L 648 384.48 
L 648 51.84 
L 90 51.84 
z
" style="fill: #ffffff"/>
   </g>
   <g id="patch_3">
    <path d="M 369 384.48 
L 431 384.48 
L 431 51.84 
L 369 51.84 
z
" clip-path="url(#p10fa05eec8)" style="fill: #ffd700; opacity: 0.35; stroke: #ffffff; stroke-width: 0.8; stroke-linejoin: miter"/>
   </g>
   <g id="patch_4">
    <path d="M 493 384.48 
L 555 384.48 
L 555 51.84 
L 493 51.84 
z
" clip-path="url(#p10fa05eec8)" style="fill: #ffd700; opacity: 0.35; stroke: #ffffff; stroke-width: 0.8; stroke-linejoin: miter"/>
   </g>
   <g id="line2d_1">
    <path d="M 90 384.48 
L 648 384.48 
" clip-path="url(#p10fa05eec8)" style="fill: none; stroke: #000000; stroke-width: 0.5; stroke-linecap: round"/>
   </g>
   <g id="patch_5">
    <path d="M 125.65 359.130939 
L 178.35 359.130939 
L 178.35 363.947949 
L 159.390256 363.947949 
L 159.390256 383.830024 
L 144.646512 383.830024 
L 144.646512 363.947949 
L 125.65 363.947949 
L 125.65 359.130939 
z
" clip-path="url(#p10fa05eec8)" style="fill: #40ba47"/>
   </g>
   <g id="patch_6">
    <path d="M 153.405333 353.158267 
L 152.373292 353.158267 
Q 139.714313 353.158267 132.676667 349.766282 
Q 125.65 346.368972 125.65 340.314517 
Q 125.65 334.270713 132.665687 330.846778 
Q 139.681375 327.417518 152 327.417518 
Q 164.450375 327.417518 171.400188 330.814828 
Q 178.35 334.206814 178.35 340.314517 
Q 178.35 344.505243 174.661 347.535133 
Q 170.972 350.565023 164.044146 352.09328 
L 174.364563 357.684465 
L 161.771458 357.684465 
L 153.405333 353.158267 
z
M 152 332.060864 
Q 145.961458 332.060864 142.634771 334.222789 
Q 139.308083 336.384713 139.308083 340.314517 
Q 139.308083 344.308221 142.557917 346.432871 
Q 145.818729 348.552196 152 348.552196 
Q 158.071479 348.552196 161.398167 346.390271 
Q 164.724854 344.223022 164.724854 340.314517 
Q 164.724854 336.384713 161.398167 334.222789 
Q 158.071479 332.060864 152 332.060864 
z
" clip-path="url(#p10fa05eec8)" style="fill: #40ba47"/>
   </g>
   <g id="patch_7">
    <path d="M 140.091481 285.153593 
L 140.091481 315.590348 
L 145.265444 315.590348 
Q 154.112802 315.590348 158.782574 311.677509 
Q 163.464351 307.76467 163.464351 300.313171 
Q 163.464351 292.904435 158.806583 289.034359 
Q 154.16082 285.153593 145.265444 285.153593 
L 140.091481 285.153593 
z
M 125.65 275.42495 
L 140.871777 275.42495 
Q 153.63262 275.42495 159.874989 277.049954 
Q 166.117358 278.664267 170.583052 282.545034 
Q 174.520547 285.923332 176.429271 290.338639 
Q 178.35 294.743255 178.35 300.313171 
Q 178.35 305.968613 176.429271 310.394611 
Q 174.520547 314.820609 170.583052 318.188216 
Q 166.081344 322.068982 159.778952 323.693986 
Q 153.47656 325.3083 140.871777 325.3083 
L 125.65 325.3083 
L 125.65 275.42495 
z
" clip-path="url(#p10fa05eec8)" style="fill: #6b296b"/>
   </g>
   <g id="patch_8">
    <path d="M 178.35 255.362488 
Q 173.035119 262.625013 167.318669 266.272857 
Q 161.602219 269.887539 155.507822 269.887539 
Q 141.736374 269.887539 133.693187 248.265774 
Q 125.65 226.64401 125.65 189.668139 
Q 125.65 152.261161 133.834917 130.805207 
Q 142.031645 109.349254 156.287338 109.349254 
Q 161.779381 109.349254 166.810802 112.267529 
Q 171.854034 115.152641 176.318534 120.856543 
L 176.318534 152.85808 
Q 171.712304 145.529231 167.153317 141.914549 
Q 162.59433 138.266706 158.011721 138.266706 
Q 149.531533 138.266706 144.937113 151.597916 
Q 140.342694 164.895965 140.342694 189.668139 
Q 140.342694 214.208179 144.771762 227.605714 
Q 149.200829 240.970087 157.350314 240.970087 
Q 159.570753 240.970087 161.472299 240.207356 
Q 163.373846 239.411463 164.885634 237.753352 
L 164.885634 207.708385 
L 156.204662 207.708385 
L 156.204662 180.946477 
L 178.35 180.946477 
L 178.35 255.362488 
z
" clip-path="url(#p10fa05eec8)" style="fill: #787800"/>
   </g>
   <g id="patch_9">
    <path d="M 215.405333 384.404904 
L 214.373292 384.404904 
Q 201.714313 384.404904 194.676667 384.357047 
Q 187.65 384.309115 187.65 384.223695 
Q 187.65 384.138424 194.665687 384.090117 
Q 201.681375 384.041734 214 384.041734 
Q 226.450375 384.041734 233.400187 384.089666 
Q 240.35 384.137523 240.35 384.223695 
Q 240.35 384.28282 236.661 384.325568 
Q 232.972 384.368316 226.044146 384.389878 
L 236.364562 384.468762 
L 223.771458 384.468762 
L 215.405333 384.404904 
z
M 214 384.107246 
Q 207.961458 384.107246 204.634771 384.137748 
Q 201.308083 384.16825 201.308083 384.223695 
Q 201.308083 384.280041 204.557917 384.310017 
Q 207.818729 384.339918 214 384.339918 
Q 220.071479 384.339918 223.398167 384.309416 
Q 226.724854 384.278839 226.724854 384.223695 
Q 226.724854 384.16825 223.398167 384.137748 
Q 220.071479 384.107246 214 384.107246 
z
" clip-path="url(#p10fa05eec8)" style="fill: #40ba47"/>
   </g>
   <g id="patch_10">
    <path d="M 235.955948 356.69636 
L 235.955948 362.396989 
Q 230.459804 361.404572 225.221293 360.902593 
Q 219.997094 360.394845 215.34541 360.394845 
Q 209.176562 360.394845 206.213797 361.081459 
Q 203.265345 361.762303 203.265345 363.20477 
Q 203.265345 364.289505 205.254834 364.895341 
Q 207.244324 365.495407 212.482835 365.928147 
L 219.811027 366.522443 
Q 230.946442 367.428312 235.641065 369.2689 
Q 240.35 371.103718 240.35 374.496399 
Q 240.35 378.944966 233.794704 381.120206 
Q 227.239408 383.295446 213.770994 383.295446 
Q 207.430391 383.295446 201.032537 382.805007 
Q 194.634682 382.320338 188.236828 381.362541 
L 188.236828 375.506126 
Q 194.634682 376.873584 200.60315 377.571738 
Q 206.571619 378.264122 212.125014 378.264122 
Q 217.764286 378.264122 220.755676 377.50827 
Q 223.747067 376.746647 223.747067 375.3388 
Q 223.747067 374.080969 221.714639 373.394355 
Q 219.682211 372.707741 213.59924 372.165373 
L 206.929441 371.571077 
Q 196.910429 370.705597 192.273058 368.81308 
Q 187.65 366.920564 187.65 363.712518 
Q 187.65 359.690921 194.090793 357.527221 
Q 200.531586 355.363521 212.611651 355.363521 
Q 218.122108 355.363521 223.933134 355.698173 
Q 229.744161 356.032826 235.955948 356.69636 
z
" clip-path="url(#p10fa05eec8)" style="fill: #40ba47"/>
   </g>
   <g id="patch_11">
    <path d="M 187.65 309.86732 
L 201.537864 309.86732 
L 201.537864 325.78538 
L 221.555783 309.86732 
L 237.683253 309.86732 
L 211.743078 330.524345 
L 240.35 353.480749 
L 222.964195 353.480749 
L 201.537864 336.300834 
L 201.537864 353.480749 
L 187.65 353.480749 
L 187.65 309.86732 
z
" clip-path="url(#p10fa05eec8)" style="fill: #bd2e1f"/>
   </g>
   <g id="patch_12">
    <path d="M 187.65 257.2636 
L 204.578032 257.2636 
L 225.968106 291.647904 
L 225.968106 257.2636 
L 240.35 257.2636 
L 240.35 307.400214 
L 223.409364 307.400214 
L 202.01929 273.01591 
L 202.01929 307.400214 
L 187.65 307.400214 
L 187.65 257.2636 
z
" clip-path="url(#p10fa05eec8)" style="fill: #40ba47"/>
   </g>
   <g id="patch_13">
    <path d="M 209.032787 224.285632 
Q 213.762274 224.285632 215.814221 222.656019 
Q 217.866168 221.014767 217.866168 217.266659 
Q 217.866168 213.553472 215.814221 211.95878 
Q 213.762274 210.352448 209.032787 210.352448 
L 202.701781 210.352448 
L 202.701781 224.285632 
L 209.032787 224.285632 
z
M 202.701781 233.958543 
L 202.701781 254.514936 
L 187.65 254.514936 
L 187.65 200.202293 
L 210.634307 200.202293 
Q 222.170252 200.202293 227.537844 203.81072 
Q 232.917949 207.407506 232.917949 215.194724 
Q 232.917949 220.572444 230.11529 224.02955 
Q 227.325142 227.486655 221.694801 229.127907 
Q 224.785233 229.779752 227.225047 232.096129 
Q 229.677374 234.400867 232.179748 239.091821 
L 240.35 254.514936 
L 224.322293 254.514936 
L 217.203039 241.024076 
Q 215.050997 236.950045 212.836396 235.460114 
Q 210.634307 233.958543 206.955817 233.958543 
L 202.701781 233.958543 
z
" clip-path="url(#p10fa05eec8)" style="fill: #bd2e1f"/>
   </g>
   <g id="patch_14">
    <path d="M 240.35 192.138809 
Q 235.035119 194.708502 229.318669 195.999215 
Q 223.602219 197.278194 217.507822 197.278194 
Q 203.736374 197.278194 195.693187 189.627786 
Q 187.65 181.977377 187.65 168.89424 
Q 187.65 155.658564 195.834917 148.066824 
Q 204.031645 140.475084 218.287338 140.475084 
Q 223.779381 140.475084 228.810802 141.507655 
Q 233.854034 142.528491 238.318534 144.546697 
L 238.318534 155.869771 
Q 233.712304 153.276611 229.153317 151.997632 
Q 224.59433 150.706919 220.011721 150.706919 
Q 211.531533 150.706919 206.937113 155.423889 
Q 202.342694 160.129125 202.342694 168.89424 
Q 202.342694 177.577219 206.771762 182.317656 
Q 211.200829 187.046359 219.350314 187.046359 
Q 221.570753 187.046359 223.472299 186.776483 
Q 225.373846 186.494873 226.885634 185.908185 
L 226.885634 175.277403 
L 218.204662 175.277403 
L 218.204662 165.808262 
L 240.35 165.808262 
L 240.35 192.138809 
z
" clip-path="url(#p10fa05eec8)" style="fill: #787800"/>
   </g>
   <g id="patch_15">
    <path d="M 249.65 361.894888 
L 301.253077 361.894888 
L 301.253077 366.186672 
L 268.774615 366.186672 
L 268.774615 370.280374 
L 299.329487 370.280374 
L 299.329487 374.572159 
L 268.774615 374.572159 
L 268.774615 379.613826 
L 302.35 379.613826 
L 302.35 383.900895 
L 249.65 383.900895 
L 249.65 361.894888 
z
" clip-path="url(#p10fa05eec8)" style="fill: #6b296b"/>
   </g>
   <g id="patch_16">
    <path d="M 266.437692 336.239459 
L 285.562308 336.239459 
L 285.562308 360.6728 
L 266.437692 360.6728 
L 266.437692 336.239459 
z
" clip-path="url(#p10fa05eec8)" style="fill: #21599c"/>
   </g>
   <g id="patch_17">
    <path d="M 302.35 325.833158 
Q 297.941736 329.373018 293.174969 331.163528 
Q 288.408201 332.974619 283.216541 332.974619 
Q 267.734505 332.974619 258.692252 319.556082 
Q 249.65 306.137545 249.65 283.190201 
Q 249.65 260.160534 258.692252 246.762578 
Q 267.734505 233.344041 283.216541 233.344041 
Q 288.408201 233.344041 293.174969 235.155132 
Q 297.941736 236.945642 302.35 240.485501 
L 302.35 260.345759 
Q 297.901902 255.653387 293.586584 253.471846 
Q 289.271265 251.290305 284.504497 251.290305 
Q 275.953527 251.290305 271.053981 259.790083 
Q 266.167712 268.269282 266.167712 283.190201 
Q 266.167712 298.049378 271.053981 306.549157 
Q 275.953527 315.028355 284.504497 315.028355 
Q 289.271265 315.028355 293.586584 312.846814 
Q 297.901902 310.644692 302.35 305.95232 
L 302.35 325.833158 
z
" clip-path="url(#p10fa05eec8)" style="fill: #6b296b"/>
   </g>
   <g id="patch_18">
    <path d="M 249.65 103.845839 
L 262.68762 103.845839 
L 276.016162 195.092726 
L 289.323155 103.845839 
L 302.35 103.845839 
L 283.730985 227.468944 
L 268.269015 227.468944 
L 249.65 103.845839 
z
" clip-path="url(#p10fa05eec8)" style="fill: #21599c"/>
   </g>
   <g id="patch_19">
    <path d="M 311.65 378.950305 
L 325.537864 378.950305 
L 325.537864 380.916787 
L 345.555783 378.950305 
L 361.683253 378.950305 
L 335.743078 381.502229 
L 364.35 384.338213 
L 346.964195 384.338213 
L 325.537864 382.215844 
L 325.537864 384.338213 
L 311.65 384.338213 
L 311.65 378.950305 
z
" clip-path="url(#p10fa05eec8)" style="fill: #bd2e1f"/>
   </g>
   <g id="patch_20">
    <path d="M 359.955948 355.590533 
L 359.955948 360.432724 
Q 354.459804 359.589751 349.221293 359.163364 
Q 343.997094 358.732076 339.34541 358.732076 
Q 333.176562 358.732076 330.213797 359.315295 
Q 327.265345 359.893614 327.265345 361.118864 
Q 327.265345 362.040253 329.254834 362.554858 
Q 331.244324 363.064562 336.482835 363.432137 
L 343.811027 363.936941 
Q 354.946442 364.706398 359.641065 366.269818 
Q 364.35 367.828337 364.35 370.710127 
Q 364.35 374.4888 357.794704 376.336478 
Q 351.239408 378.184156 337.770994 378.184156 
Q 331.430391 378.184156 325.032537 377.76757 
Q 318.634682 377.355886 312.236828 376.54232 
L 312.236828 371.567802 
Q 318.634682 372.72934 324.60315 373.322361 
Q 330.571619 373.910481 336.125014 373.910481 
Q 341.764286 373.910481 344.755676 373.26845 
Q 347.747067 372.621518 347.747067 371.425673 
Q 347.747067 370.357254 345.714639 369.774035 
Q 343.682211 369.190816 337.59924 368.730121 
L 330.929441 368.225318 
Q 320.910429 367.490168 316.273058 365.882639 
Q 311.65 364.27511 311.65 361.550152 
Q 311.65 358.134154 318.090793 356.296278 
Q 324.531586 354.458401 336.611651 354.458401 
Q 342.122108 354.458401 347.933134 354.74266 
Q 353.744161 355.026918 359.955948 355.590533 
z
" clip-path="url(#p10fa05eec8)" style="fill: #40ba47"/>
   </g>
   <g id="patch_21">
    <path d="M 333.032787 286.181537 
Q 337.762274 286.181537 339.814221 282.699153 
Q 341.866168 279.191896 341.866168 271.182413 
Q 341.866168 263.247553 339.814221 259.839792 
Q 337.762274 256.407157 333.032787 256.407157 
L 326.701781 256.407157 
L 326.701781 286.181537 
L 333.032787 286.181537 
z
M 326.701781 306.851971 
L 326.701781 350.779753 
L 311.65 350.779753 
L 311.65 234.716882 
L 334.634307 234.716882 
Q 346.170252 234.716882 351.537844 242.427874 
Q 356.917949 250.113992 356.917949 266.754811 
Q 356.917949 278.246677 354.11529 285.634305 
Q 351.325142 293.021934 345.694801 296.529191 
Q 348.785233 297.922145 351.225047 302.872104 
Q 353.677374 307.79719 356.179748 317.82148 
L 364.35 350.779753 
L 348.322293 350.779753 
L 341.203039 321.950592 
Q 339.050997 313.244633 336.836396 310.060739 
Q 334.634307 306.851971 330.955817 306.851971 
L 326.701781 306.851971 
z
" clip-path="url(#p10fa05eec8)" style="fill: #bd2e1f"/>
   </g>
   <g id="patch_22">
    <path d="M 364.35 212.889154 
Q 359.035119 220.160859 353.318669 223.813314 
Q 347.602219 227.432564 341.507822 227.432564 
Q 327.736374 227.432564 319.693187 205.78347 
Q 311.65 184.134376 311.65 147.111769 
Q 311.65 109.657508 319.834917 88.174435 
Q 328.031645 66.691361 342.287338 66.691361 
Q 347.779381 66.691361 352.810802 69.613325 
Q 357.854034 72.502085 362.318534 78.213195 
L 362.318534 110.255183 
Q 357.712304 102.917069 353.153317 99.297819 
Q 348.59433 95.645364 344.011721 95.645364 
Q 335.531533 95.645364 330.937113 108.993426 
Q 326.342694 122.308282 326.342694 147.111769 
Q 326.342694 171.682827 330.771762 185.097296 
Q 335.200829 198.478561 343.350314 198.478561 
Q 345.570753 198.478561 347.472299 197.714866 
Q 349.373846 196.917967 350.885634 195.25776 
L 350.885634 165.174817 
L 342.204662 165.174817 
L 342.204662 138.379082 
L 364.35 138.379082 
L 364.35 212.889154 
z
" clip-path="url(#p10fa05eec8)" style="fill: #787800"/>
   </g>
   <g id="patch_23">
    <path d="M 373.65 377.749072 
L 386.68762 377.749072 
L 400.016162 382.589818 
L 413.323155 377.749072 
L 426.35 377.749072 
L 407.730985 384.307412 
L 392.269015 384.307412 
L 373.65 377.749072 
z
" clip-path="url(#p10fa05eec8)" style="fill: #21599c"/>
   </g>
   <g id="patch_24">
    <path d="M 373.65 366.859008 
L 389.195992 366.859008 
L 399.979692 372.44738 
L 410.83447 366.859008 
L 426.35 366.859008 
L 426.35 377.301677 
L 414.80474 377.301677 
L 414.80474 369.663265 
L 403.889037 375.29416 
L 396.141426 375.29416 
L 385.225723 369.663265 
L 385.225723 377.301677 
L 373.65 377.301677 
L 373.65 366.859008 
z
" clip-path="url(#p10fa05eec8)" style="fill: #21599c"/>
   </g>
   <g id="patch_25">
    <path d="M 390.437692 349.599332 
L 409.562308 349.599332 
L 409.562308 366.148692 
L 390.437692 366.148692 
L 390.437692 349.599332 
z
" clip-path="url(#p10fa05eec8)" style="fill: #21599c"/>
   </g>
   <g id="patch_26">
    <path d="M 410.155336 345.444207 
L 389.887763 345.444207 
L 386.68762 348.694317 
L 373.65 348.694317 
L 392.269015 330.853121 
L 407.730985 330.853121 
L 426.35 348.694317 
L 413.323155 348.694317 
L 410.155336 345.444207 
z
M 393.120231 342.132917 
L 406.890544 342.132917 
L 400.016162 335.036205 
L 393.120231 342.132917 
z
" clip-path="url(#p10fa05eec8)" style="fill: #21599c"/>
   </g>
   <g id="patch_27">
    <path d="M 373.65 80.109616 
L 392.774615 80.109616 
L 392.774615 276.459742 
L 426.35 276.459742 
L 426.35 323.966334 
L 373.65 323.966334 
L 373.65 80.109616 
z
" clip-path="url(#p10fa05eec8)" style="fill: #21599c"/>
   </g>
   <g id="patch_28">
    <path d="M 435.65 371.023245 
L 454.774615 371.023245 
L 454.774615 381.580616 
L 488.35 381.580616 
L 488.35 384.134955 
L 435.65 384.134955 
L 435.65 371.023245 
z
" clip-path="url(#p10fa05eec8)" style="fill: #21599c"/>
   </g>
   <g id="patch_29">
    <path d="M 483.955948 337.984084 
L 483.955948 344.802555 
Q 478.459804 343.615534 473.221293 343.015122 
Q 467.997094 342.407809 463.34541 342.407809 
Q 457.176562 342.407809 454.213797 343.229062 
Q 451.265345 344.043413 451.265345 345.768735 
Q 451.265345 347.066177 453.254834 347.790812 
Q 455.244324 348.508545 460.482835 349.026142 
L 467.811027 349.736974 
Q 478.946442 350.820476 483.641065 353.021986 
Q 488.35 355.216595 488.35 359.274552 
Q 488.35 364.595443 481.794704 367.197228 
Q 475.239408 369.799013 461.770994 369.799013 
Q 455.430391 369.799013 449.032537 369.212404 
Q 442.634682 368.632696 436.236828 367.487082 
L 436.236828 360.482277 
Q 442.634682 362.117882 448.60315 362.952937 
Q 454.571619 363.781091 460.125014 363.781091 
Q 465.764286 363.781091 468.755676 362.877023 
Q 471.747067 361.966053 471.747067 360.282139 
Q 471.747067 358.777659 469.714639 357.956406 
Q 467.682211 357.135153 461.59924 356.486432 
L 454.929441 355.7756 
Q 444.910429 354.740407 440.273058 352.476785 
Q 435.65 350.213163 435.65 346.376048 
Q 435.65 341.565852 442.090793 338.977869 
Q 448.531586 336.389887 460.611651 336.389887 
Q 466.122108 336.389887 471.933134 336.790162 
Q 477.744161 337.190436 483.955948 337.984084 
z
" clip-path="url(#p10fa05eec8)" style="fill: #40ba47"/>
   </g>
   <g id="patch_30">
    <path d="M 435.65 300.308359 
L 488.35 300.308359 
L 488.35 306.997759 
L 469.390256 306.997759 
L 469.390256 334.608075 
L 454.646512 334.608075 
L 454.646512 306.997759 
L 435.65 306.997759 
L 435.65 300.308359 
z
" clip-path="url(#p10fa05eec8)" style="fill: #40ba47"/>
   </g>
   <g id="patch_31">
    <path d="M 472.155336 291.779758 
L 451.887763 291.779758 
L 448.68762 298.443153 
L 435.65 298.443153 
L 454.269015 261.865034 
L 469.730985 261.865034 
L 488.35 298.443153 
L 475.323155 298.443153 
L 472.155336 291.779758 
z
M 455.120231 284.990934 
L 468.890544 284.990934 
L 462.016162 270.441215 
L 455.120231 284.990934 
z
" clip-path="url(#p10fa05eec8)" style="fill: #21599c"/>
   </g>
   <g id="patch_32">
    <path d="M 488.35 254.233636 
Q 483.035119 256.816735 477.318669 258.114182 
Q 471.602219 259.399834 465.507822 259.399834 
Q 451.736374 259.399834 443.693187 251.709511 
Q 435.65 244.019188 435.65 230.867791 
Q 435.65 217.56306 443.834917 209.931712 
Q 452.031645 202.300364 466.287338 202.300364 
Q 471.779381 202.300364 476.810802 203.338321 
Q 481.854034 204.364484 486.318534 206.39322 
L 486.318534 217.77537 
Q 481.712304 215.168681 477.153317 213.883028 
Q 472.59433 212.585581 468.011721 212.585581 
Q 459.531533 212.585581 454.937113 217.327161 
Q 450.342694 222.056946 450.342694 230.867791 
Q 450.342694 239.596072 454.771762 244.361242 
Q 459.200829 249.114617 467.350314 249.114617 
Q 469.570753 249.114617 471.472299 248.843332 
Q 473.373846 248.560253 474.885634 247.970504 
L 474.885634 237.284257 
L 466.204662 237.284257 
L 466.204662 227.765713 
L 488.35 227.765713 
L 488.35 254.233636 
z
" clip-path="url(#p10fa05eec8)" style="fill: #787800"/>
   </g>
   <g id="patch_33">
    <path d="M 514.437692 377.327224 
L 533.562308 377.327224 
L 533.562308 384.296595 
L 514.437692 384.296595 
L 514.437692 377.327224 
z
" clip-path="url(#p10fa05eec8)" style="fill: #21599c"/>
   </g>
   <g id="patch_34">
    <path d="M 497.65 353.268252 
L 549.253077 353.268252 
L 549.253077 357.805258 
L 516.774615 357.805258 
L 516.774615 362.132863 
L 547.329487 362.132863 
L 547.329487 366.669869 
L 516.774615 366.669869 
L 516.774615 371.999605 
L 550.35 371.999605 
L 550.35 376.531625 
L 497.65 376.531625 
L 497.65 353.268252 
z
" clip-path="url(#p10fa05eec8)" style="fill: #6b296b"/>
   </g>
   <g id="patch_35">
    <path d="M 550.35 319.279519 
Q 545.035119 332.207588 539.318669 338.701138 
Q 533.602219 345.135656 527.507822 345.135656 
Q 513.736374 345.135656 505.693187 306.646611 
Q 497.65 268.157567 497.65 202.336577 
Q 497.65 135.748168 505.834917 97.554285 
Q 514.031645 59.360401 528.287338 59.360401 
Q 533.779381 59.360401 538.810802 64.555242 
Q 543.854034 69.69105 548.318534 79.844602 
L 548.318534 136.810749 
Q 543.712304 123.764616 539.153317 117.330098 
Q 534.59433 110.836547 530.011721 110.836547 
Q 521.531533 110.836547 516.937113 134.567523 
Q 512.342694 158.239466 512.342694 202.336577 
Q 512.342694 246.020463 516.771762 269.869503 
Q 521.200829 293.65951 529.350314 293.65951 
Q 531.570753 293.65951 533.472299 292.301768 
Q 535.373846 290.884993 536.885634 287.93338 
L 536.885634 234.450136 
L 528.204662 234.450136 
L 528.204662 186.811088 
L 550.35 186.811088 
L 550.35 319.279519 
z
" clip-path="url(#p10fa05eec8)" style="fill: #787800"/>
   </g>
   <g id="patch_36">
    <path d="M 596.155336 378.54139 
L 575.887763 378.54139 
L 572.68762 383.730404 
L 559.65 383.730404 
L 578.269015 355.245768 
L 593.730985 355.245768 
L 612.35 383.730404 
L 599.323155 383.730404 
L 596.155336 378.54139 
z
M 579.120231 373.2547 
L 592.890544 373.2547 
L 586.016162 361.924335 
L 579.120231 373.2547 
z
" clip-path="url(#p10fa05eec8)" style="fill: #21599c"/>
   </g>
   <g id="patch_37">
    <path d="M 559.65 315.931917 
L 611.253077 315.931917 
L 611.253077 323.260173 
L 578.774615 323.260173 
L 578.774615 330.250201 
L 609.329487 330.250201 
L 609.329487 337.578456 
L 578.774615 337.578456 
L 578.774615 346.187143 
L 612.35 346.187143 
L 612.35 353.507345 
L 559.65 353.507345 
L 559.65 315.931917 
z
" clip-path="url(#p10fa05eec8)" style="fill: #6b296b"/>
   </g>
   <g id="patch_38">
    <path d="M 574.091481 268.043913 
L 574.091481 302.467529 
L 579.265444 302.467529 
Q 588.112802 302.467529 592.782574 298.042153 
Q 597.464351 293.616778 597.464351 285.189219 
Q 597.464351 276.810025 592.806583 272.433015 
Q 588.16082 268.043913 579.265444 268.043913 
L 574.091481 268.043913 
z
M 559.65 257.040931 
L 574.871777 257.040931 
Q 587.63262 257.040931 593.874989 258.878792 
Q 600.117358 260.704562 604.583052 265.093663 
Q 608.520547 268.914479 610.429271 273.90814 
Q 612.35 278.88971 612.35 285.189219 
Q 612.35 291.585458 610.429271 296.591211 
Q 608.520547 301.596963 604.583052 305.405688 
Q 600.081344 309.794789 593.778952 311.63265 
Q 587.47656 313.45842 574.871777 313.45842 
L 559.65 313.45842 
L 559.65 257.040931 
z
" clip-path="url(#p10fa05eec8)" style="fill: #6b296b"/>
   </g>
   <g id="patch_39">
    <path d="M 612.35 236.047139 
Q 607.035119 243.603802 601.318669 247.399386 
Q 595.602219 251.160465 589.507822 251.160465 
Q 575.736374 251.160465 567.693187 228.663002 
Q 559.65 206.165539 559.65 167.692116 
Q 559.65 128.770125 567.834917 106.445188 
Q 576.031645 84.120251 590.287338 84.120251 
Q 595.779381 84.120251 600.810802 87.156719 
Q 605.854034 90.158681 610.318534 96.093595 
L 610.318534 129.39122 
Q 605.712304 121.765546 601.153317 118.004468 
Q 596.59433 114.208883 592.011721 114.208883 
Q 583.531533 114.208883 578.937113 128.080019 
Q 574.342694 141.916649 574.342694 167.692116 
Q 574.342694 193.226047 578.771762 207.166193 
Q 583.200829 221.071834 591.350314 221.071834 
Q 593.570753 221.071834 595.472299 220.278211 
Q 597.373846 219.450084 598.885634 217.724818 
L 598.885634 186.463006 
L 590.204662 186.463006 
L 590.204662 158.617219 
L 612.35 158.617219 
L 612.35 236.047139 
z
" clip-path="url(#p10fa05eec8)" style="fill: #787800"/>
   </g>
   <g id="matplotlib.axis_1">
    <g id="xtick_1">
     <g id="line2d_2">
      <defs>
       <path id="m425b0dc1af" d="M 0 0 
L 0 4.8 
" style="stroke: #262626"/>
      </defs>
      <g>
       <use xlink:href="#m425b0dc1af" x="152" y="384.48" style="fill: #262626; stroke: #262626"/>
      </g>
     </g>
     <g id="text_1">
      <!-- P4 -->
      <g style="fill: #262626" transform="translate(146.61825 399.078875) scale(0.088 -0.088)">
       <defs>
        <path id="ArialMT-50" d="M 494 0 
L 494 4581 
L 2222 4581 
Q 2678 4581 2919 4538 
Q 3256 4481 3484 4323 
Q 3713 4166 3852 3881 
Q 3991 3597 3991 3256 
Q 3991 2672 3619 2267 
Q 3247 1863 2275 1863 
L 1100 1863 
L 1100 0 
L 494 0 
z
M 1100 2403 
L 2284 2403 
Q 2872 2403 3119 2622 
Q 3366 2841 3366 3238 
Q 3366 3525 3220 3729 
Q 3075 3934 2838 4000 
Q 2684 4041 2272 4041 
L 1100 4041 
L 1100 2403 
z
" transform="scale(0.015625)"/>
        <path id="ArialMT-34" d="M 2069 0 
L 2069 1097 
L 81 1097 
L 81 1613 
L 2172 4581 
L 2631 4581 
L 2631 1613 
L 3250 1613 
L 3250 1097 
L 2631 1097 
L 2631 0 
L 2069 0 
z
M 2069 1613 
L 2069 3678 
L 634 1613 
L 2069 1613 
z
" transform="scale(0.015625)"/>
       </defs>
       <use xlink:href="#ArialMT-50"/>
       <use xlink:href="#ArialMT-34" x="66.699219"/>
      </g>
     </g>
    </g>
    <g id="xtick_2">
     <g id="line2d_3">
      <g>
       <use xlink:href="#m425b0dc1af" x="214" y="384.48" style="fill: #262626; stroke: #262626"/>
      </g>
     </g>
     <g id="text_2">
      <!-- P3 -->
      <g style="fill: #262626" transform="translate(208.61825 399.078875) scale(0.088 -0.088)">
       <defs>
        <path id="ArialMT-33" d="M 269 1209 
L 831 1284 
Q 928 806 1161 595 
Q 1394 384 1728 384 
Q 2125 384 2398 659 
Q 2672 934 2672 1341 
Q 2672 1728 2419 1979 
Q 2166 2231 1775 2231 
Q 1616 2231 1378 2169 
L 1441 2663 
Q 1497 2656 1531 2656 
Q 1891 2656 2178 2843 
Q 2466 3031 2466 3422 
Q 2466 3731 2256 3934 
Q 2047 4138 1716 4138 
Q 1388 4138 1169 3931 
Q 950 3725 888 3313 
L 325 3413 
Q 428 3978 793 4289 
Q 1159 4600 1703 4600 
Q 2078 4600 2393 4439 
Q 2709 4278 2876 4000 
Q 3044 3722 3044 3409 
Q 3044 3113 2884 2869 
Q 2725 2625 2413 2481 
Q 2819 2388 3044 2092 
Q 3269 1797 3269 1353 
Q 3269 753 2831 336 
Q 2394 -81 1725 -81 
Q 1122 -81 723 278 
Q 325 638 269 1209 
z
" transform="scale(0.015625)"/>
       </defs>
       <use xlink:href="#ArialMT-50"/>
       <use xlink:href="#ArialMT-33" x="66.699219"/>
      </g>
     </g>
    </g>
    <g id="xtick_3">
     <g id="line2d_4">
      <g>
       <use xlink:href="#m425b0dc1af" x="276" y="384.48" style="fill: #262626; stroke: #262626"/>
      </g>
     </g>
     <g id="text_3">
      <!-- P2 -->
      <g style="fill: #262626" transform="translate(270.61825 399.078875) scale(0.088 -0.088)">
       <defs>
        <path id="ArialMT-32" d="M 3222 541 
L 3222 0 
L 194 0 
Q 188 203 259 391 
Q 375 700 629 1000 
Q 884 1300 1366 1694 
Q 2113 2306 2375 2664 
Q 2638 3022 2638 3341 
Q 2638 3675 2398 3904 
Q 2159 4134 1775 4134 
Q 1369 4134 1125 3890 
Q 881 3647 878 3216 
L 300 3275 
Q 359 3922 746 4261 
Q 1134 4600 1788 4600 
Q 2447 4600 2831 4234 
Q 3216 3869 3216 3328 
Q 3216 3053 3103 2787 
Q 2991 2522 2730 2228 
Q 2469 1934 1863 1422 
Q 1356 997 1212 845 
Q 1069 694 975 541 
L 3222 541 
z
" transform="scale(0.015625)"/>
       </defs>
       <use xlink:href="#ArialMT-50"/>
       <use xlink:href="#ArialMT-32" x="66.699219"/>
      </g>
     </g>
    </g>
    <g id="xtick_4">
     <g id="line2d_5">
      <g>
       <use xlink:href="#m425b0dc1af" x="338" y="384.48" style="fill: #262626; stroke: #262626"/>
      </g>
     </g>
     <g id="text_4">
      <!-- P1 -->
      <g style="fill: #262626" transform="translate(332.61825 399.078875) scale(0.088 -0.088)">
       <defs>
        <path id="ArialMT-31" d="M 2384 0 
L 1822 0 
L 1822 3584 
Q 1619 3391 1289 3197 
Q 959 3003 697 2906 
L 697 3450 
Q 1169 3672 1522 3987 
Q 1875 4303 2022 4600 
L 2384 4600 
L 2384 0 
z
" transform="scale(0.015625)"/>
       </defs>
       <use xlink:href="#ArialMT-50"/>
       <use xlink:href="#ArialMT-31" x="66.699219"/>
      </g>
     </g>
    </g>
    <g id="xtick_5">
     <g id="line2d_6">
      <g>
       <use xlink:href="#m425b0dc1af" x="400" y="384.48" style="fill: #262626; stroke: #262626"/>
      </g>
     </g>
     <g id="text_5">
      <!-- P1' -->
      <g style="fill: #262626" transform="translate(393.778125 399.078875) scale(0.088 -0.088)">
       <defs>
        <path id="ArialMT-27" d="M 425 2959 
L 281 3816 
L 281 4581 
L 922 4581 
L 922 3816 
L 772 2959 
L 425 2959 
z
" transform="scale(0.015625)"/>
       </defs>
       <use xlink:href="#ArialMT-50"/>
       <use xlink:href="#ArialMT-31" x="66.699219"/>
       <use xlink:href="#ArialMT-27" x="122.314453"/>
      </g>
     </g>
    </g>
    <g id="xtick_6">
     <g id="line2d_7">
      <g>
       <use xlink:href="#m425b0dc1af" x="462" y="384.48" style="fill: #262626; stroke: #262626"/>
      </g>
     </g>
     <g id="text_6">
      <!-- P2' -->
      <g style="fill: #262626" transform="translate(455.778125 399.078875) scale(0.088 -0.088)">
       <use xlink:href="#ArialMT-50"/>
       <use xlink:href="#ArialMT-32" x="66.699219"/>
       <use xlink:href="#ArialMT-27" x="122.314453"/>
      </g>
     </g>
    </g>
    <g id="xtick_7">
     <g id="line2d_8">
      <g>
       <use xlink:href="#m425b0dc1af" x="524" y="384.48" style="fill: #262626; stroke: #262626"/>
      </g>
     </g>
     <g id="text_7">
      <!-- P3' -->
      <g style="fill: #262626" transform="translate(517.778125 399.078875) scale(0.088 -0.088)">
       <use xlink:href="#ArialMT-50"/>
       <use xlink:href="#ArialMT-33" x="66.699219"/>
       <use xlink:href="#ArialMT-27" x="122.314453"/>
      </g>
     </g>
    </g>
    <g id="xtick_8">
     <g id="line2d_9">
      <g>
       <use xlink:href="#m425b0dc1af" x="586" y="384.48" style="fill: #262626; stroke: #262626"/>
      </g>
     </g>
     <g id="text_8">
      <!-- P4' -->
      <g style="fill: #262626" transform="translate(579.778125 399.078875) scale(0.088 -0.088)">
       <use xlink:href="#ArialMT-50"/>
       <use xlink:href="#ArialMT-34" x="66.699219"/>
       <use xlink:href="#ArialMT-27" x="122.314453"/>
      </g>
     </g>
    </g>
   </g>
   <g id="matplotlib.axis_2">
    <g id="ytick_1">
     <g id="line2d_10">
      <defs>
       <path id="mc32a566c97" d="M 0 0 
L -4.8 0 
" style="stroke: #262626"/>
      </defs>
      <g>
       <use xlink:href="#mc32a566c97" x="90" y="384.48" style="fill: #262626; stroke: #262626"/>
      </g>
     </g>
     <g id="text_9">
      <!-- 0.0 -->
      <g style="fill: #262626" transform="translate(69.468 387.629437) scale(0.088 -0.088)">
       <defs>
        <path id="ArialMT-30" d="M 266 2259 
Q 266 3072 433 3567 
Q 600 4063 929 4331 
Q 1259 4600 1759 4600 
Q 2128 4600 2406 4451 
Q 2684 4303 2865 4023 
Q 3047 3744 3150 3342 
Q 3253 2941 3253 2259 
Q 3253 1453 3087 958 
Q 2922 463 2592 192 
Q 2263 -78 1759 -78 
Q 1097 -78 719 397 
Q 266 969 266 2259 
z
M 844 2259 
Q 844 1131 1108 757 
Q 1372 384 1759 384 
Q 2147 384 2411 759 
Q 2675 1134 2675 2259 
Q 2675 3391 2411 3762 
Q 2147 4134 1753 4134 
Q 1366 4134 1134 3806 
Q 844 3388 844 2259 
z
" transform="scale(0.015625)"/>
        <path id="ArialMT-2e" d="M 581 0 
L 581 641 
L 1222 641 
L 1222 0 
L 581 0 
z
" transform="scale(0.015625)"/>
       </defs>
       <use xlink:href="#ArialMT-30"/>
       <use xlink:href="#ArialMT-2e" x="55.615234"/>
       <use xlink:href="#ArialMT-30" x="83.398438"/>
      </g>
     </g>
    </g>
    <g id="ytick_2">
     <g id="line2d_11">
      <g>
       <use xlink:href="#mc32a566c97" x="90" y="343.893524" style="fill: #262626; stroke: #262626"/>
      </g>
     </g>
     <g id="text_10">
      <!-- 0.1 -->
      <g style="fill: #262626" transform="translate(69.468 347.042961) scale(0.088 -0.088)">
       <use xlink:href="#ArialMT-30"/>
       <use xlink:href="#ArialMT-2e" x="55.615234"/>
       <use xlink:href="#ArialMT-31" x="83.398438"/>
      </g>
     </g>
    </g>
    <g id="ytick_3">
     <g id="line2d_12">
      <g>
       <use xlink:href="#mc32a566c97" x="90" y="303.307048" style="fill: #262626; stroke: #262626"/>
      </g>
     </g>
     <g id="text_11">
      <!-- 0.2 -->
      <g style="fill: #262626" transform="translate(69.468 306.456485) scale(0.088 -0.088)">
       <use xlink:href="#ArialMT-30"/>
       <use xlink:href="#ArialMT-2e" x="55.615234"/>
       <use xlink:href="#ArialMT-32" x="83.398438"/>
      </g>
     </g>
    </g>
    <g id="ytick_4">
     <g id="line2d_13">
      <g>
       <use xlink:href="#mc32a566c97" x="90" y="262.720572" style="fill: #262626; stroke: #262626"/>
      </g>
     </g>
     <g id="text_12">
      <!-- 0.3 -->
      <g style="fill: #262626" transform="translate(69.468 265.870009) scale(0.088 -0.088)">
       <use xlink:href="#ArialMT-30"/>
       <use xlink:href="#ArialMT-2e" x="55.615234"/>
       <use xlink:href="#ArialMT-33" x="83.398438"/>
      </g>
     </g>
    </g>
    <g id="ytick_5">
     <g id="line2d_14">
      <g>
       <use xlink:href="#mc32a566c97" x="90" y="222.134096" style="fill: #262626; stroke: #262626"/>
      </g>
     </g>
     <g id="text_13">
      <!-- 0.4 -->
      <g style="fill: #262626" transform="translate(69.468 225.283533) scale(0.088 -0.088)">
       <use xlink:href="#ArialMT-30"/>
       <use xlink:href="#ArialMT-2e" x="55.615234"/>
       <use xlink:href="#ArialMT-34" x="83.398438"/>
      </g>
     </g>
    </g>
    <g id="ytick_6">
     <g id="line2d_15">
      <g>
       <use xlink:href="#mc32a566c97" x="90" y="181.54762" style="fill: #262626; stroke: #262626"/>
      </g>
     </g>
     <g id="text_14">
      <!-- 0.5 -->
      <g style="fill: #262626" transform="translate(69.468 184.697057) scale(0.088 -0.088)">
       <defs>
        <path id="ArialMT-35" d="M 266 1200 
L 856 1250 
Q 922 819 1161 601 
Q 1400 384 1738 384 
Q 2144 384 2425 690 
Q 2706 997 2706 1503 
Q 2706 1984 2436 2262 
Q 2166 2541 1728 2541 
Q 1456 2541 1237 2417 
Q 1019 2294 894 2097 
L 366 2166 
L 809 4519 
L 3088 4519 
L 3088 3981 
L 1259 3981 
L 1013 2750 
Q 1425 3038 1878 3038 
Q 2478 3038 2890 2622 
Q 3303 2206 3303 1553 
Q 3303 931 2941 478 
Q 2500 -78 1738 -78 
Q 1113 -78 717 272 
Q 322 622 266 1200 
z
" transform="scale(0.015625)"/>
       </defs>
       <use xlink:href="#ArialMT-30"/>
       <use xlink:href="#ArialMT-2e" x="55.615234"/>
       <use xlink:href="#ArialMT-35" x="83.398438"/>
      </g>
     </g>
    </g>
    <g id="ytick_7">
     <g id="line2d_16">
      <g>
       <use xlink:href="#mc32a566c97" x="90" y="140.961144" style="fill: #262626; stroke: #262626"/>
      </g>
     </g>
     <g id="text_15">
      <!-- 0.6 -->
      <g style="fill: #262626" transform="translate(69.468 144.110581) scale(0.088 -0.088)">
       <defs>
        <path id="ArialMT-36" d="M 3184 3459 
L 2625 3416 
Q 2550 3747 2413 3897 
Q 2184 4138 1850 4138 
Q 1581 4138 1378 3988 
Q 1113 3794 959 3422 
Q 806 3050 800 2363 
Q 1003 2672 1297 2822 
Q 1591 2972 1913 2972 
Q 2475 2972 2870 2558 
Q 3266 2144 3266 1488 
Q 3266 1056 3080 686 
Q 2894 316 2569 119 
Q 2244 -78 1831 -78 
Q 1128 -78 684 439 
Q 241 956 241 2144 
Q 241 3472 731 4075 
Q 1159 4600 1884 4600 
Q 2425 4600 2770 4297 
Q 3116 3994 3184 3459 
z
M 888 1484 
Q 888 1194 1011 928 
Q 1134 663 1356 523 
Q 1578 384 1822 384 
Q 2178 384 2434 671 
Q 2691 959 2691 1453 
Q 2691 1928 2437 2201 
Q 2184 2475 1800 2475 
Q 1419 2475 1153 2201 
Q 888 1928 888 1484 
z
" transform="scale(0.015625)"/>
       </defs>
       <use xlink:href="#ArialMT-30"/>
       <use xlink:href="#ArialMT-2e" x="55.615234"/>
       <use xlink:href="#ArialMT-36" x="83.398438"/>
      </g>
     </g>
    </g>
    <g id="ytick_8">
     <g id="line2d_17">
      <g>
       <use xlink:href="#mc32a566c97" x="90" y="100.374668" style="fill: #262626; stroke: #262626"/>
      </g>
     </g>
     <g id="text_16">
      <!-- 0.7 -->
      <g style="fill: #262626" transform="translate(69.468 103.524105) scale(0.088 -0.088)">
       <defs>
        <path id="ArialMT-37" d="M 303 3981 
L 303 4522 
L 3269 4522 
L 3269 4084 
Q 2831 3619 2401 2847 
Q 1972 2075 1738 1259 
Q 1569 684 1522 0 
L 944 0 
Q 953 541 1156 1306 
Q 1359 2072 1739 2783 
Q 2119 3494 2547 3981 
L 303 3981 
z
" transform="scale(0.015625)"/>
       </defs>
       <use xlink:href="#ArialMT-30"/>
       <use xlink:href="#ArialMT-2e" x="55.615234"/>
       <use xlink:href="#ArialMT-37" x="83.398438"/>
      </g>
     </g>
    </g>
    <g id="ytick_9">
     <g id="line2d_18">
      <g>
       <use xlink:href="#mc32a566c97" x="90" y="59.788192" style="fill: #262626; stroke: #262626"/>
      </g>
     </g>
     <g id="text_17">
      <!-- 0.8 -->
      <g style="fill: #262626" transform="translate(69.468 62.937629) scale(0.088 -0.088)">
       <defs>
        <path id="ArialMT-38" d="M 1131 2484 
Q 781 2613 612 2850 
Q 444 3088 444 3419 
Q 444 3919 803 4259 
Q 1163 4600 1759 4600 
Q 2359 4600 2725 4251 
Q 3091 3903 3091 3403 
Q 3091 3084 2923 2848 
Q 2756 2613 2416 2484 
Q 2838 2347 3058 2040 
Q 3278 1734 3278 1309 
Q 3278 722 2862 322 
Q 2447 -78 1769 -78 
Q 1091 -78 675 323 
Q 259 725 259 1325 
Q 259 1772 486 2073 
Q 713 2375 1131 2484 
z
M 1019 3438 
Q 1019 3113 1228 2906 
Q 1438 2700 1772 2700 
Q 2097 2700 2305 2904 
Q 2513 3109 2513 3406 
Q 2513 3716 2298 3927 
Q 2084 4138 1766 4138 
Q 1444 4138 1231 3931 
Q 1019 3725 1019 3438 
z
M 838 1322 
Q 838 1081 952 856 
Q 1066 631 1291 507 
Q 1516 384 1775 384 
Q 2178 384 2440 643 
Q 2703 903 2703 1303 
Q 2703 1709 2433 1975 
Q 2163 2241 1756 2241 
Q 1359 2241 1098 1978 
Q 838 1716 838 1322 
z
" transform="scale(0.015625)"/>
       </defs>
       <use xlink:href="#ArialMT-30"/>
       <use xlink:href="#ArialMT-2e" x="55.615234"/>
       <use xlink:href="#ArialMT-38" x="83.398438"/>
      </g>
     </g>
    </g>
    <g id="text_18">
     <!-- information (bits) -->
     <g style="fill: #262626" transform="translate(63.4475 253.902) rotate(-90) scale(0.096 -0.096)">
      <defs>
       <path id="ArialMT-69" d="M 425 3934 
L 425 4581 
L 988 4581 
L 988 3934 
L 425 3934 
z
M 425 0 
L 425 3319 
L 988 3319 
L 988 0 
L 425 0 
z
" transform="scale(0.015625)"/>
       <path id="ArialMT-6e" d="M 422 0 
L 422 3319 
L 928 3319 
L 928 2847 
Q 1294 3394 1984 3394 
Q 2284 3394 2536 3286 
Q 2788 3178 2913 3003 
Q 3038 2828 3088 2588 
Q 3119 2431 3119 2041 
L 3119 0 
L 2556 0 
L 2556 2019 
Q 2556 2363 2490 2533 
Q 2425 2703 2258 2804 
Q 2091 2906 1866 2906 
Q 1506 2906 1245 2678 
Q 984 2450 984 1813 
L 984 0 
L 422 0 
z
" transform="scale(0.015625)"/>
       <path id="ArialMT-66" d="M 556 0 
L 556 2881 
L 59 2881 
L 59 3319 
L 556 3319 
L 556 3672 
Q 556 4006 616 4169 
Q 697 4388 901 4523 
Q 1106 4659 1475 4659 
Q 1713 4659 2000 4603 
L 1916 4113 
Q 1741 4144 1584 4144 
Q 1328 4144 1222 4034 
Q 1116 3925 1116 3625 
L 1116 3319 
L 1763 3319 
L 1763 2881 
L 1116 2881 
L 1116 0 
L 556 0 
z
" transform="scale(0.015625)"/>
       <path id="ArialMT-6f" d="M 213 1659 
Q 213 2581 725 3025 
Q 1153 3394 1769 3394 
Q 2453 3394 2887 2945 
Q 3322 2497 3322 1706 
Q 3322 1066 3130 698 
Q 2938 331 2570 128 
Q 2203 -75 1769 -75 
Q 1072 -75 642 372 
Q 213 819 213 1659 
z
M 791 1659 
Q 791 1022 1069 705 
Q 1347 388 1769 388 
Q 2188 388 2466 706 
Q 2744 1025 2744 1678 
Q 2744 2294 2464 2611 
Q 2184 2928 1769 2928 
Q 1347 2928 1069 2612 
Q 791 2297 791 1659 
z
" transform="scale(0.015625)"/>
       <path id="ArialMT-72" d="M 416 0 
L 416 3319 
L 922 3319 
L 922 2816 
Q 1116 3169 1280 3281 
Q 1444 3394 1641 3394 
Q 1925 3394 2219 3213 
L 2025 2691 
Q 1819 2813 1613 2813 
Q 1428 2813 1281 2702 
Q 1134 2591 1072 2394 
Q 978 2094 978 1738 
L 978 0 
L 416 0 
z
" transform="scale(0.015625)"/>
       <path id="ArialMT-6d" d="M 422 0 
L 422 3319 
L 925 3319 
L 925 2853 
Q 1081 3097 1340 3245 
Q 1600 3394 1931 3394 
Q 2300 3394 2536 3241 
Q 2772 3088 2869 2813 
Q 3263 3394 3894 3394 
Q 4388 3394 4653 3120 
Q 4919 2847 4919 2278 
L 4919 0 
L 4359 0 
L 4359 2091 
Q 4359 2428 4304 2576 
Q 4250 2725 4106 2815 
Q 3963 2906 3769 2906 
Q 3419 2906 3187 2673 
Q 2956 2441 2956 1928 
L 2956 0 
L 2394 0 
L 2394 2156 
Q 2394 2531 2256 2718 
Q 2119 2906 1806 2906 
Q 1569 2906 1367 2781 
Q 1166 2656 1075 2415 
Q 984 2175 984 1722 
L 984 0 
L 422 0 
z
" transform="scale(0.015625)"/>
       <path id="ArialMT-61" d="M 2588 409 
Q 2275 144 1986 34 
Q 1697 -75 1366 -75 
Q 819 -75 525 192 
Q 231 459 231 875 
Q 231 1119 342 1320 
Q 453 1522 633 1644 
Q 813 1766 1038 1828 
Q 1203 1872 1538 1913 
Q 2219 1994 2541 2106 
Q 2544 2222 2544 2253 
Q 2544 2597 2384 2738 
Q 2169 2928 1744 2928 
Q 1347 2928 1158 2789 
Q 969 2650 878 2297 
L 328 2372 
Q 403 2725 575 2942 
Q 747 3159 1072 3276 
Q 1397 3394 1825 3394 
Q 2250 3394 2515 3294 
Q 2781 3194 2906 3042 
Q 3031 2891 3081 2659 
Q 3109 2516 3109 2141 
L 3109 1391 
Q 3109 606 3145 398 
Q 3181 191 3288 0 
L 2700 0 
Q 2613 175 2588 409 
z
M 2541 1666 
Q 2234 1541 1622 1453 
Q 1275 1403 1131 1340 
Q 988 1278 909 1158 
Q 831 1038 831 891 
Q 831 666 1001 516 
Q 1172 366 1500 366 
Q 1825 366 2078 508 
Q 2331 650 2450 897 
Q 2541 1088 2541 1459 
L 2541 1666 
z
" transform="scale(0.015625)"/>
       <path id="ArialMT-74" d="M 1650 503 
L 1731 6 
Q 1494 -44 1306 -44 
Q 1000 -44 831 53 
Q 663 150 594 308 
Q 525 466 525 972 
L 525 2881 
L 113 2881 
L 113 3319 
L 525 3319 
L 525 4141 
L 1084 4478 
L 1084 3319 
L 1650 3319 
L 1650 2881 
L 1084 2881 
L 1084 941 
Q 1084 700 1114 631 
Q 1144 563 1211 522 
Q 1278 481 1403 481 
Q 1497 481 1650 503 
z
" transform="scale(0.015625)"/>
       <path id="ArialMT-20" transform="scale(0.015625)"/>
       <path id="ArialMT-28" d="M 1497 -1347 
Q 1031 -759 709 28 
Q 388 816 388 1659 
Q 388 2403 628 3084 
Q 909 3875 1497 4659 
L 1900 4659 
Q 1522 4009 1400 3731 
Q 1209 3300 1100 2831 
Q 966 2247 966 1656 
Q 966 153 1900 -1347 
L 1497 -1347 
z
" transform="scale(0.015625)"/>
       <path id="ArialMT-62" d="M 941 0 
L 419 0 
L 419 4581 
L 981 4581 
L 981 2947 
Q 1338 3394 1891 3394 
Q 2197 3394 2470 3270 
Q 2744 3147 2920 2923 
Q 3097 2700 3197 2384 
Q 3297 2069 3297 1709 
Q 3297 856 2875 390 
Q 2453 -75 1863 -75 
Q 1275 -75 941 416 
L 941 0 
z
M 934 1684 
Q 934 1088 1097 822 
Q 1363 388 1816 388 
Q 2184 388 2453 708 
Q 2722 1028 2722 1663 
Q 2722 2313 2464 2622 
Q 2206 2931 1841 2931 
Q 1472 2931 1203 2611 
Q 934 2291 934 1684 
z
" transform="scale(0.015625)"/>
       <path id="ArialMT-73" d="M 197 991 
L 753 1078 
Q 800 744 1014 566 
Q 1228 388 1613 388 
Q 2000 388 2187 545 
Q 2375 703 2375 916 
Q 2375 1106 2209 1216 
Q 2094 1291 1634 1406 
Q 1016 1563 777 1677 
Q 538 1791 414 1992 
Q 291 2194 291 2438 
Q 291 2659 392 2848 
Q 494 3038 669 3163 
Q 800 3259 1026 3326 
Q 1253 3394 1513 3394 
Q 1903 3394 2198 3281 
Q 2494 3169 2634 2976 
Q 2775 2784 2828 2463 
L 2278 2388 
Q 2241 2644 2061 2787 
Q 1881 2931 1553 2931 
Q 1166 2931 1000 2803 
Q 834 2675 834 2503 
Q 834 2394 903 2306 
Q 972 2216 1119 2156 
Q 1203 2125 1616 2013 
Q 2213 1853 2448 1751 
Q 2684 1650 2818 1456 
Q 2953 1263 2953 975 
Q 2953 694 2789 445 
Q 2625 197 2315 61 
Q 2006 -75 1616 -75 
Q 969 -75 630 194 
Q 291 463 197 991 
z
" transform="scale(0.015625)"/>
       <path id="ArialMT-29" d="M 791 -1347 
L 388 -1347 
Q 1322 153 1322 1656 
Q 1322 2244 1188 2822 
Q 1081 3291 891 3722 
Q 769 4003 388 4659 
L 791 4659 
Q 1378 3875 1659 3084 
Q 1900 2403 1900 1659 
Q 1900 816 1576 28 
Q 1253 -759 791 -1347 
z
" transform="scale(0.015625)"/>
      </defs>
      <use xlink:href="#ArialMT-69"/>
      <use xlink:href="#ArialMT-6e" x="22.216797"/>
      <use xlink:href="#ArialMT-66" x="77.832031"/>
      <use xlink:href="#ArialMT-6f" x="105.615234"/>
      <use xlink:href="#ArialMT-72" x="161.230469"/>
      <use xlink:href="#ArialMT-6d" x="194.53125"/>
      <use xlink:href="#ArialMT-61" x="277.832031"/>
      <use xlink:href="#ArialMT-74" x="333.447266"/>
      <use xlink:href="#ArialMT-69" x="361.230469"/>
      <use xlink:href="#ArialMT-6f" x="383.447266"/>
      <use xlink:href="#ArialMT-6e" x="439.0625"/>
      <use xlink:href="#ArialMT-20" x="494.677734"/>
      <use xlink:href="#ArialMT-28" x="522.460938"/>
      <use xlink:href="#ArialMT-62" x="555.761719"/>
      <use xlink:href="#ArialMT-69" x="611.376953"/>
      <use xlink:href="#ArialMT-74" x="633.59375"/>
      <use xlink:href="#ArialMT-73" x="661.376953"/>
      <use xlink:href="#ArialMT-29" x="711.376953"/>
     </g>
    </g>
   </g>
   <g id="line2d_19">
    <path d="M 369 384.48 
L 369 51.84 
" clip-path="url(#p10fa05eec8)" style="fill: none; stroke: #daa520; stroke-width: 2; stroke-linecap: round"/>
   </g>
   <g id="patch_40">
    <path d="M 90 384.48 
L 648 384.48 
" style="fill: none; stroke: #262626; stroke-linejoin: miter; stroke-linecap: square"/>
   </g>
   <g id="patch_41">
    <path d="M 90 51.84 
L 648 51.84 
" style="fill: none; stroke: #262626; stroke-linejoin: miter; stroke-linecap: square"/>
   </g>
   <g id="text_19">
    <!-- Ctr vs. BAPI information content, Kullback n=5 -->
    <g style="fill: #262626" transform="translate(270.42375 45.84) scale(0.096 -0.096)">
     <defs>
      <path id="ArialMT-43" d="M 3763 1606 
L 4369 1453 
Q 4178 706 3683 314 
Q 3188 -78 2472 -78 
Q 1731 -78 1267 223 
Q 803 525 561 1097 
Q 319 1669 319 2325 
Q 319 3041 592 3573 
Q 866 4106 1370 4382 
Q 1875 4659 2481 4659 
Q 3169 4659 3637 4309 
Q 4106 3959 4291 3325 
L 3694 3184 
Q 3534 3684 3231 3912 
Q 2928 4141 2469 4141 
Q 1941 4141 1586 3887 
Q 1231 3634 1087 3207 
Q 944 2781 944 2328 
Q 944 1744 1114 1308 
Q 1284 872 1643 656 
Q 2003 441 2422 441 
Q 2931 441 3284 734 
Q 3638 1028 3763 1606 
z
" transform="scale(0.015625)"/>
      <path id="ArialMT-76" d="M 1344 0 
L 81 3319 
L 675 3319 
L 1388 1331 
Q 1503 1009 1600 663 
Q 1675 925 1809 1294 
L 2547 3319 
L 3125 3319 
L 1869 0 
L 1344 0 
z
" transform="scale(0.015625)"/>
      <path id="ArialMT-42" d="M 469 0 
L 469 4581 
L 2188 4581 
Q 2713 4581 3030 4442 
Q 3347 4303 3526 4014 
Q 3706 3725 3706 3409 
Q 3706 3116 3547 2856 
Q 3388 2597 3066 2438 
Q 3481 2316 3704 2022 
Q 3928 1728 3928 1328 
Q 3928 1006 3792 729 
Q 3656 453 3456 303 
Q 3256 153 2954 76 
Q 2653 0 2216 0 
L 469 0 
z
M 1075 2656 
L 2066 2656 
Q 2469 2656 2644 2709 
Q 2875 2778 2992 2937 
Q 3109 3097 3109 3338 
Q 3109 3566 3000 3739 
Q 2891 3913 2687 3977 
Q 2484 4041 1991 4041 
L 1075 4041 
L 1075 2656 
z
M 1075 541 
L 2216 541 
Q 2509 541 2628 563 
Q 2838 600 2978 687 
Q 3119 775 3209 942 
Q 3300 1109 3300 1328 
Q 3300 1584 3169 1773 
Q 3038 1963 2805 2039 
Q 2572 2116 2134 2116 
L 1075 2116 
L 1075 541 
z
" transform="scale(0.015625)"/>
      <path id="ArialMT-41" d="M -9 0 
L 1750 4581 
L 2403 4581 
L 4278 0 
L 3588 0 
L 3053 1388 
L 1138 1388 
L 634 0 
L -9 0 
z
M 1313 1881 
L 2866 1881 
L 2388 3150 
Q 2169 3728 2063 4100 
Q 1975 3659 1816 3225 
L 1313 1881 
z
" transform="scale(0.015625)"/>
      <path id="ArialMT-49" d="M 597 0 
L 597 4581 
L 1203 4581 
L 1203 0 
L 597 0 
z
" transform="scale(0.015625)"/>
      <path id="ArialMT-63" d="M 2588 1216 
L 3141 1144 
Q 3050 572 2676 248 
Q 2303 -75 1759 -75 
Q 1078 -75 664 370 
Q 250 816 250 1647 
Q 250 2184 428 2587 
Q 606 2991 970 3192 
Q 1334 3394 1763 3394 
Q 2303 3394 2647 3120 
Q 2991 2847 3088 2344 
L 2541 2259 
Q 2463 2594 2264 2762 
Q 2066 2931 1784 2931 
Q 1359 2931 1093 2626 
Q 828 2322 828 1663 
Q 828 994 1084 691 
Q 1341 388 1753 388 
Q 2084 388 2306 591 
Q 2528 794 2588 1216 
z
" transform="scale(0.015625)"/>
      <path id="ArialMT-65" d="M 2694 1069 
L 3275 997 
Q 3138 488 2766 206 
Q 2394 -75 1816 -75 
Q 1088 -75 661 373 
Q 234 822 234 1631 
Q 234 2469 665 2931 
Q 1097 3394 1784 3394 
Q 2450 3394 2872 2941 
Q 3294 2488 3294 1666 
Q 3294 1616 3291 1516 
L 816 1516 
Q 847 969 1125 678 
Q 1403 388 1819 388 
Q 2128 388 2347 550 
Q 2566 713 2694 1069 
z
M 847 1978 
L 2700 1978 
Q 2663 2397 2488 2606 
Q 2219 2931 1791 2931 
Q 1403 2931 1139 2672 
Q 875 2413 847 1978 
z
" transform="scale(0.015625)"/>
      <path id="ArialMT-2c" d="M 569 0 
L 569 641 
L 1209 641 
L 1209 0 
Q 1209 -353 1084 -570 
Q 959 -788 688 -906 
L 531 -666 
Q 709 -588 793 -436 
Q 878 -284 888 0 
L 569 0 
z
" transform="scale(0.015625)"/>
      <path id="ArialMT-4b" d="M 469 0 
L 469 4581 
L 1075 4581 
L 1075 2309 
L 3350 4581 
L 4172 4581 
L 2250 2725 
L 4256 0 
L 3456 0 
L 1825 2319 
L 1075 1588 
L 1075 0 
L 469 0 
z
" transform="scale(0.015625)"/>
      <path id="ArialMT-75" d="M 2597 0 
L 2597 488 
Q 2209 -75 1544 -75 
Q 1250 -75 995 37 
Q 741 150 617 320 
Q 494 491 444 738 
Q 409 903 409 1263 
L 409 3319 
L 972 3319 
L 972 1478 
Q 972 1038 1006 884 
Q 1059 663 1231 536 
Q 1403 409 1656 409 
Q 1909 409 2131 539 
Q 2353 669 2445 892 
Q 2538 1116 2538 1541 
L 2538 3319 
L 3100 3319 
L 3100 0 
L 2597 0 
z
" transform="scale(0.015625)"/>
      <path id="ArialMT-6c" d="M 409 0 
L 409 4581 
L 972 4581 
L 972 0 
L 409 0 
z
" transform="scale(0.015625)"/>
      <path id="ArialMT-6b" d="M 425 0 
L 425 4581 
L 988 4581 
L 988 1969 
L 2319 3319 
L 3047 3319 
L 1778 2088 
L 3175 0 
L 2481 0 
L 1384 1697 
L 988 1316 
L 988 0 
L 425 0 
z
" transform="scale(0.015625)"/>
      <path id="ArialMT-3d" d="M 3381 2694 
L 356 2694 
L 356 3219 
L 3381 3219 
L 3381 2694 
z
M 3381 1303 
L 356 1303 
L 356 1828 
L 3381 1828 
L 3381 1303 
z
" transform="scale(0.015625)"/>
     </defs>
     <use xlink:href="#ArialMT-43"/>
     <use xlink:href="#ArialMT-74" x="72.216797"/>
     <use xlink:href="#ArialMT-72" x="100"/>
     <use xlink:href="#ArialMT-20" x="133.300781"/>
     <use xlink:href="#ArialMT-76" x="161.083984"/>
     <use xlink:href="#ArialMT-73" x="211.083984"/>
     <use xlink:href="#ArialMT-2e" x="261.083984"/>
     <use xlink:href="#ArialMT-20" x="288.867188"/>
     <use xlink:href="#ArialMT-42" x="316.650391"/>
     <use xlink:href="#ArialMT-41" x="383.349609"/>
     <use xlink:href="#ArialMT-50" x="450.048828"/>
     <use xlink:href="#ArialMT-49" x="516.748047"/>
     <use xlink:href="#ArialMT-20" x="544.53125"/>
     <use xlink:href="#ArialMT-69" x="572.314453"/>
     <use xlink:href="#ArialMT-6e" x="594.53125"/>
     <use xlink:href="#ArialMT-66" x="650.146484"/>
     <use xlink:href="#ArialMT-6f" x="677.929688"/>
     <use xlink:href="#ArialMT-72" x="733.544922"/>
     <use xlink:href="#ArialMT-6d" x="766.845703"/>
     <use xlink:href="#ArialMT-61" x="850.146484"/>
     <use xlink:href="#ArialMT-74" x="905.761719"/>
     <use xlink:href="#ArialMT-69" x="933.544922"/>
     <use xlink:href="#ArialMT-6f" x="955.761719"/>
     <use xlink:href="#ArialMT-6e" x="1011.376953"/>
     <use xlink:href="#ArialMT-20" x="1066.992188"/>
     <use xlink:href="#ArialMT-63" x="1094.775391"/>
     <use xlink:href="#ArialMT-6f" x="1144.775391"/>
     <use xlink:href="#ArialMT-6e" x="1200.390625"/>
     <use xlink:href="#ArialMT-74" x="1256.005859"/>
     <use xlink:href="#ArialMT-65" x="1283.789062"/>
     <use xlink:href="#ArialMT-6e" x="1339.404297"/>
     <use xlink:href="#ArialMT-74" x="1395.019531"/>
     <use xlink:href="#ArialMT-2c" x="1422.802734"/>
     <use xlink:href="#ArialMT-20" x="1450.585938"/>
     <use xlink:href="#ArialMT-4b" x="1478.369141"/>
     <use xlink:href="#ArialMT-75" x="1545.068359"/>
     <use xlink:href="#ArialMT-6c" x="1600.683594"/>
     <use xlink:href="#ArialMT-6c" x="1622.900391"/>
     <use xlink:href="#ArialMT-62" x="1645.117188"/>
     <use xlink:href="#ArialMT-61" x="1700.732422"/>
     <use xlink:href="#ArialMT-63" x="1756.347656"/>
     <use xlink:href="#ArialMT-6b" x="1806.347656"/>
     <use xlink:href="#ArialMT-20" x="1856.347656"/>
     <use xlink:href="#ArialMT-6e" x="1884.130859"/>
     <use xlink:href="#ArialMT-3d" x="1939.746094"/>
     <use xlink:href="#ArialMT-35" x="1998.144531"/>
    </g>
   </g>
  </g>
 </g>
 <defs>
  <clipPath id="p10fa05eec8">
   <rect x="90" y="51.84" width="558" height="332.64"/>
  </clipPath>
 </defs>
</svg>
