<?xml version="1.0" encoding="utf-8" standalone="no"?>
<!DOCTYPE svg PUBLIC "-//W3C//DTD SVG 1.1//EN"
  "http://www.w3.org/Graphics/SVG/1.1/DTD/svg11.dtd">
<svg xmlns:xlink="http://www.w3.org/1999/xlink" width="720pt" height="432pt" viewBox="0 0 720 432" xmlns="http://www.w3.org/2000/svg" version="1.1">
 <metadata>
  <rdf:RDF xmlns:dc="http://purl.org/dc/elements/1.1/" xmlns:cc="http://creativecommons.org/ns#" xmlns:rdf="http://www.w3.org/1999/02/22-rdf-syntax-ns#">
   <cc:Work>
    <dc:type rdf:resource="http://purl.org/dc/dcmitype/StillImage"/>
    <dc:date>2023-10-25T13:40:01.780046</dc:date>
    <dc:format>image/svg+xml</dc:format>
    <dc:creator>
     <cc:Agent>
      <dc:title>Matplotlib v3.7.1, https://matplotlib.org/</dc:title>
     </cc:Agent>
    </dc:creator>
   </cc:Work>
  </rdf:RDF>
 </metadata>
 <defs>
  <style type="text/css">*{stroke-linejoin: round; stroke-linecap: butt}</style>
 </defs>
 <g id="figure_1">
  <g id="patch_1">
   <path d="M 0 432 
L 720 432 
L 720 0 
L 0 0 
z
" style="fill: #ffffff"/>
  </g>
  <g id="axes_1">
   <g id="patch_2">
    <path d="M 90 384.48 
L 648 384.48 
L 648 51.84 
L 90 51.84 
z
" style="fill: #ffffff"/>
   </g>
   <g id="patch_3">
    <path d="M 369 384.48 
L 431 384.48 
L 431 51.84 
L 369 51.84 
z
" clip-path="url(#pc33a5f66e9)" style="fill: #ffd700; opacity: 0.35; stroke: #ffffff; stroke-width: 0.8; stroke-linejoin: miter"/>
   </g>
   <g id="line2d_1">
    <path d="M 90 384.48 
L 648 384.48 
" clip-path="url(#pc33a5f66e9)" style="fill: none; stroke: #000000; stroke-width: 0.5; stroke-linecap: round"/>
   </g>
   <g id="patch_4">
    <path d="M 153.405333 373.36547 
L 152.373292 373.36547 
Q 139.714313 373.36547 132.676667 366.282532 
Q 125.65 359.188475 125.65 346.545931 
Q 125.65 333.925626 132.665687 326.775972 
Q 139.681375 319.6152 152 319.6152 
Q 164.450375 319.6152 171.400188 326.709257 
Q 178.35 333.792195 178.35 346.545931 
Q 178.35 355.296751 174.661 361.623582 
Q 170.972 367.950414 164.044146 371.141628 
L 174.364563 382.8168 
L 161.771458 382.8168 
L 153.405333 373.36547 
z
M 152 329.311153 
Q 145.961458 329.311153 142.634771 333.825553 
Q 139.308083 338.339953 139.308083 346.545931 
Q 139.308083 354.88534 142.557917 359.321905 
Q 145.818729 363.747352 152 363.747352 
Q 158.071479 363.747352 161.398167 359.232952 
Q 164.724854 354.707433 164.724854 346.545931 
Q 164.724854 338.339953 161.398167 333.825553 
Q 158.071479 329.311153 152 329.311153 
z
" clip-path="url(#pc33a5f66e9)" style="fill: #40ba47"/>
   </g>
   <g id="patch_5">
    <path d="M 140.091481 265.413273 
L 140.091481 303.976272 
L 145.265444 303.976272 
Q 154.112802 303.976272 158.782574 299.018753 
Q 163.464351 294.061233 163.464351 284.620274 
Q 163.464351 275.233496 158.806583 270.330157 
Q 154.16082 265.413273 145.265444 265.413273 
L 140.091481 265.413273 
z
M 125.65 253.0872 
L 140.871777 253.0872 
Q 153.63262 253.0872 159.874989 255.146061 
Q 166.117358 257.191376 170.583052 262.10826 
Q 174.520547 266.388523 176.429271 271.982663 
Q 178.35 277.563259 178.35 284.620274 
Q 178.35 291.785651 176.429271 297.393337 
Q 174.520547 303.001023 170.583052 307.26774 
Q 166.081344 312.184624 159.778952 314.243485 
Q 153.47656 316.2888 140.871777 316.2888 
L 125.65 316.2888 
L 125.65 253.0872 
z
" clip-path="url(#pc33a5f66e9)" style="fill: #6b296b"/>
   </g>
   <g id="patch_6">
    <path d="M 125.65 186.5592 
L 178.35 186.5592 
L 178.35 198.885273 
L 159.390256 198.885273 
L 159.390256 249.7608 
L 144.646512 249.7608 
L 144.646512 198.885273 
L 125.65 198.885273 
L 125.65 186.5592 
z
" clip-path="url(#pc33a5f66e9)" style="fill: #40ba47"/>
   </g>
   <g id="patch_7">
    <path d="M 178.35 170.132996 
Q 173.035119 175.851298 167.318669 178.723504 
Q 161.602219 181.5696 155.507822 181.5696 
Q 141.736374 181.5696 133.693187 164.545248 
Q 125.65 147.520897 125.65 118.407166 
Q 125.65 88.953994 133.834917 72.060197 
Q 142.031645 55.1664 156.287338 55.1664 
Q 161.779381 55.1664 166.810802 57.464165 
Q 171.854034 59.73582 176.318534 64.226906 
L 176.318534 89.423991 
Q 171.712304 83.653467 167.153317 80.807371 
Q 162.59433 77.935165 158.011721 77.935165 
Q 149.531533 77.935165 144.937113 88.431774 
Q 140.342694 98.902273 140.342694 118.407166 
Q 140.342694 137.729283 144.771762 148.278115 
Q 149.200829 158.800835 157.350314 158.800835 
Q 159.570753 158.800835 161.472299 158.200283 
Q 163.373846 157.57362 164.885634 156.268071 
L 164.885634 132.611533 
L 156.204662 132.611533 
L 156.204662 111.539982 
L 178.35 111.539982 
L 178.35 170.132996 
z
" clip-path="url(#pc33a5f66e9)" style="fill: #787800"/>
   </g>
   <g id="patch_8">
    <path d="M 187.65 319.6152 
L 201.537864 319.6152 
L 201.537864 342.682565 
L 221.555783 319.6152 
L 237.683253 319.6152 
L 211.743078 349.549948 
L 240.35 382.8168 
L 222.964195 382.8168 
L 201.537864 357.920842 
L 201.537864 382.8168 
L 187.65 382.8168 
L 187.65 319.6152 
z
" clip-path="url(#pc33a5f66e9)" style="fill: #bd2e1f"/>
   </g>
   <g id="patch_9">
    <path d="M 240.35 310.570498 
Q 235.035119 313.429649 229.318669 314.865752 
Q 223.602219 316.2888 217.507822 316.2888 
Q 203.736374 316.2888 195.693187 307.776624 
Q 187.65 299.264448 187.65 284.707583 
Q 187.65 269.980997 195.834917 261.534098 
Q 204.031645 253.0872 218.287338 253.0872 
Q 223.779381 253.0872 228.810802 254.236083 
Q 233.854034 255.37191 238.318534 257.617453 
L 238.318534 270.215996 
Q 233.712304 267.330733 229.153317 265.907686 
Q 224.59433 264.471582 220.011721 264.471582 
Q 211.531533 264.471582 206.937113 269.719887 
Q 202.342694 274.955136 202.342694 284.707583 
Q 202.342694 294.368642 206.771762 299.643057 
Q 211.200829 304.904418 219.350314 304.904418 
Q 221.570753 304.904418 223.472299 304.604141 
Q 225.373846 304.29081 226.885634 303.638036 
L 226.885634 291.809767 
L 218.204662 291.809767 
L 218.204662 281.273991 
L 240.35 281.273991 
L 240.35 310.570498 
z
" clip-path="url(#pc33a5f66e9)" style="fill: #787800"/>
   </g>
   <g id="patch_10">
    <path d="M 187.65 186.5592 
L 204.578032 186.5592 
L 225.968106 229.903632 
L 225.968106 186.5592 
L 240.35 186.5592 
L 240.35 249.7608 
L 223.409364 249.7608 
L 202.01929 206.416368 
L 202.01929 249.7608 
L 187.65 249.7608 
L 187.65 186.5592 
z
" clip-path="url(#pc33a5f66e9)" style="fill: #40ba47"/>
   </g>
   <g id="patch_11">
    <path d="M 209.032787 148.056084 
Q 213.762274 148.056084 215.814221 146.159765 
Q 217.866168 144.249901 217.866168 139.888368 
Q 217.866168 135.56747 215.814221 133.711786 
Q 213.762274 131.842558 209.032787 131.842558 
L 202.701781 131.842558 
L 202.701781 148.056084 
L 209.032787 148.056084 
z
M 202.701781 159.312092 
L 202.701781 183.2328 
L 187.65 183.2328 
L 187.65 120.0312 
L 210.634307 120.0312 
Q 222.170252 120.0312 227.537844 124.230192 
Q 232.917949 128.415639 232.917949 137.477334 
Q 232.917949 143.735186 230.11529 147.758091 
Q 227.325142 151.780996 221.694801 153.690861 
Q 224.785233 154.449388 227.225047 157.14487 
Q 229.677374 159.826807 232.179748 165.285496 
L 240.35 183.2328 
L 224.322293 183.2328 
L 217.203039 167.533989 
Q 215.050997 162.793191 212.836396 161.059414 
Q 210.634307 159.312092 206.955817 159.312092 
L 202.701781 159.312092 
z
" clip-path="url(#pc33a5f66e9)" style="fill: #bd2e1f"/>
   </g>
   <g id="patch_12">
    <path d="M 235.955948 56.519017 
L 235.955948 69.417835 
Q 230.459804 67.172292 225.221293 66.036465 
Q 219.997094 64.887582 215.34541 64.887582 
Q 209.176562 64.887582 206.213797 66.441185 
Q 203.265345 67.981732 203.265345 71.245603 
Q 203.265345 73.700034 205.254834 75.07086 
Q 207.244324 76.428631 212.482835 77.407792 
L 219.811027 78.752507 
Q 230.946442 80.802218 235.641065 84.966917 
Q 240.35 89.118561 240.35 96.795186 
Q 240.35 106.860965 233.794704 111.782882 
Q 227.239408 116.7048 213.770994 116.7048 
Q 207.430391 116.7048 201.032537 115.595084 
Q 194.634682 114.498423 188.236828 112.331213 
L 188.236828 99.079896 
Q 194.634682 102.174046 200.60315 103.753759 
Q 206.571619 105.320418 212.125014 105.320418 
Q 217.764286 105.320418 220.755676 103.610149 
Q 223.747067 101.886825 223.747067 98.701287 
Q 223.747067 95.855191 221.714639 94.301589 
Q 219.682211 92.747986 213.59924 91.520771 
L 206.929441 90.176056 
Q 196.910429 88.217733 192.273058 83.935534 
Q 187.65 79.653335 187.65 72.394486 
Q 187.65 63.294813 194.090793 58.399007 
Q 200.531586 53.5032 212.611651 53.5032 
Q 218.122108 53.5032 223.933134 54.260418 
Q 229.744161 55.017636 235.955948 56.519017 
z
" clip-path="url(#pc33a5f66e9)" style="fill: #40ba47"/>
   </g>
   <g id="patch_13">
    <path d="M 249.65 319.6152 
L 301.253077 319.6152 
L 301.253077 331.941273 
L 268.774615 331.941273 
L 268.774615 343.69845 
L 299.329487 343.69845 
L 299.329487 356.024523 
L 268.774615 356.024523 
L 268.774615 370.504272 
L 302.35 370.504272 
L 302.35 382.8168 
L 249.65 382.8168 
L 249.65 319.6152 
z
" clip-path="url(#pc33a5f66e9)" style="fill: #6b296b"/>
   </g>
   <g id="patch_14">
    <path d="M 302.35 311.758547 
Q 297.941736 314.00409 293.174969 315.139917 
Q 288.408201 316.2888 283.216541 316.2888 
Q 267.734505 316.2888 258.692252 307.776624 
Q 249.65 299.264448 249.65 284.707583 
Q 249.65 270.098496 258.692252 261.599376 
Q 267.734505 253.0872 283.216541 253.0872 
Q 288.408201 253.0872 293.174969 254.236083 
Q 297.941736 255.37191 302.35 257.617453 
L 302.35 270.215996 
Q 297.901902 267.239345 293.586584 265.855464 
Q 289.271265 264.471582 284.504497 264.471582 
Q 275.953527 264.471582 271.053981 269.863497 
Q 266.167712 275.242357 266.167712 284.707583 
Q 266.167712 294.133643 271.053981 299.525558 
Q 275.953527 304.904418 284.504497 304.904418 
Q 289.271265 304.904418 293.586584 303.520536 
Q 297.901902 302.123599 302.35 299.146949 
L 302.35 311.758547 
z
" clip-path="url(#pc33a5f66e9)" style="fill: #6b296b"/>
   </g>
   <g id="patch_15">
    <path d="M 249.65 56.8296 
L 262.68762 56.8296 
L 276.016162 196.777935 
L 289.323155 56.8296 
L 302.35 56.8296 
L 283.730985 246.4344 
L 268.269015 246.4344 
L 249.65 56.8296 
z
" clip-path="url(#pc33a5f66e9)" style="fill: #21599c"/>
   </g>
   <g id="patch_16">
    <path d="M 359.955948 322.631017 
L 359.955948 335.529835 
Q 354.459804 333.284292 349.221293 332.148465 
Q 343.997094 330.999582 339.34541 330.999582 
Q 333.176562 330.999582 330.213797 332.553185 
Q 327.265345 334.093732 327.265345 337.357603 
Q 327.265345 339.812034 329.254834 341.18286 
Q 331.244324 342.540631 336.482835 343.519792 
L 343.811027 344.864507 
Q 354.946442 346.914218 359.641065 351.078917 
Q 364.35 355.230561 364.35 362.907186 
Q 364.35 372.972965 357.794704 377.894882 
Q 351.239408 382.8168 337.770994 382.8168 
Q 331.430391 382.8168 325.032537 381.707084 
Q 318.634682 380.610423 312.236828 378.443213 
L 312.236828 365.191896 
Q 318.634682 368.286046 324.60315 369.865759 
Q 330.571619 371.432418 336.125014 371.432418 
Q 341.764286 371.432418 344.755676 369.722149 
Q 347.747067 367.998825 347.747067 364.813287 
Q 347.747067 361.967191 345.714639 360.413589 
Q 343.682211 358.859986 337.59924 357.632771 
L 330.929441 356.288056 
Q 320.910429 354.329733 316.273058 350.047534 
Q 311.65 345.765335 311.65 338.506486 
Q 311.65 329.406813 318.090793 324.511007 
Q 324.531586 319.6152 336.611651 319.6152 
Q 342.122108 319.6152 347.933134 320.372418 
Q 353.744161 321.129636 359.955948 322.631017 
z
" clip-path="url(#pc33a5f66e9)" style="fill: #40ba47"/>
   </g>
   <g id="patch_17">
    <path d="M 364.35 303.188996 
Q 359.035119 308.907298 353.318669 311.779504 
Q 347.602219 314.6256 341.507822 314.6256 
Q 327.736374 314.6256 319.693187 297.601248 
Q 311.65 280.576897 311.65 251.463166 
Q 311.65 222.009994 319.834917 205.116197 
Q 328.031645 188.2224 342.287338 188.2224 
Q 347.779381 188.2224 352.810802 190.520165 
Q 357.854034 192.79182 362.318534 197.282906 
L 362.318534 222.479991 
Q 357.712304 216.709467 353.153317 213.863371 
Q 348.59433 210.991165 344.011721 210.991165 
Q 335.531533 210.991165 330.937113 221.487774 
Q 326.342694 231.958273 326.342694 251.463166 
Q 326.342694 270.785283 330.771762 281.334115 
Q 335.200829 291.856835 343.350314 291.856835 
Q 345.570753 291.856835 347.472299 291.256283 
Q 349.373846 290.62962 350.885634 289.324071 
L 350.885634 265.667533 
L 342.204662 265.667533 
L 342.204662 244.595982 
L 364.35 244.595982 
L 364.35 303.188996 
z
" clip-path="url(#pc33a5f66e9)" style="fill: #787800"/>
   </g>
   <g id="patch_18">
    <path d="M 333.032787 111.216169 
Q 337.762274 111.216169 339.814221 107.423531 
Q 341.866168 103.603803 341.866168 94.880736 
Q 341.866168 86.23894 339.814221 82.527573 
Q 337.762274 78.789115 333.032787 78.789115 
L 326.701781 78.789115 
L 326.701781 111.216169 
L 333.032787 111.216169 
z
M 326.701781 133.728183 
L 326.701781 181.5696 
L 311.65 181.5696 
L 311.65 55.1664 
L 334.634307 55.1664 
Q 346.170252 55.1664 351.537844 63.564384 
Q 356.917949 71.935277 356.917949 90.058668 
Q 356.917949 102.574373 354.11529 110.620183 
Q 351.325142 118.665993 345.694801 122.485721 
Q 348.785233 124.002776 351.225047 129.39374 
Q 353.677374 134.757613 356.179748 145.674992 
L 364.35 181.5696 
L 348.322293 181.5696 
L 341.203039 150.171977 
Q 339.050997 140.690383 336.836396 137.222828 
Q 334.634307 133.728183 330.955817 133.728183 
L 326.701781 133.728183 
z
" clip-path="url(#pc33a5f66e9)" style="fill: #bd2e1f"/>
   </g>
   <g id="patch_19">
    <path d="M 410.155336 371.303435 
L 389.887763 371.303435 
L 386.68762 382.8168 
L 373.65 382.8168 
L 392.269015 319.6152 
L 407.730985 319.6152 
L 426.35 382.8168 
L 413.323155 382.8168 
L 410.155336 371.303435 
z
M 393.120231 359.573348 
L 406.890544 359.573348 
L 400.016162 334.433578 
L 393.120231 359.573348 
z
" clip-path="url(#pc33a5f66e9)" style="fill: #21599c"/>
   </g>
   <g id="patch_20">
    <path d="M 373.65 58.4928 
L 392.774615 58.4928 
L 392.774615 262.049089 
L 426.35 262.049089 
L 426.35 311.2992 
L 373.65 311.2992 
L 373.65 58.4928 
z
" clip-path="url(#pc33a5f66e9)" style="fill: #21599c"/>
   </g>
   <g id="patch_21">
    <path d="M 435.65 319.6152 
L 488.35 319.6152 
L 488.35 331.941273 
L 469.390256 331.941273 
L 469.390256 382.8168 
L 454.646512 382.8168 
L 454.646512 331.941273 
L 435.65 331.941273 
L 435.65 319.6152 
z
" clip-path="url(#pc33a5f66e9)" style="fill: #40ba47"/>
   </g>
   <g id="patch_22">
    <path d="M 472.155336 304.775435 
L 451.887763 304.775435 
L 448.68762 316.2888 
L 435.65 316.2888 
L 454.269015 253.0872 
L 469.730985 253.0872 
L 488.35 316.2888 
L 475.323155 316.2888 
L 472.155336 304.775435 
z
M 455.120231 293.045348 
L 468.890544 293.045348 
L 462.016162 267.905578 
L 455.120231 293.045348 
z
" clip-path="url(#pc33a5f66e9)" style="fill: #21599c"/>
   </g>
   <g id="patch_23">
    <path d="M 488.35 244.042498 
Q 483.035119 246.901649 477.318669 248.337752 
Q 471.602219 249.7608 465.507822 249.7608 
Q 451.736374 249.7608 443.693187 241.248624 
Q 435.65 232.736448 435.65 218.179583 
Q 435.65 203.452997 443.834917 195.006098 
Q 452.031645 186.5592 466.287338 186.5592 
Q 471.779381 186.5592 476.810802 187.708083 
Q 481.854034 188.84391 486.318534 191.089453 
L 486.318534 203.687996 
Q 481.712304 200.802733 477.153317 199.379686 
Q 472.59433 197.943582 468.011721 197.943582 
Q 459.531533 197.943582 454.937113 203.191887 
Q 450.342694 208.427136 450.342694 218.179583 
Q 450.342694 227.840642 454.771762 233.115057 
Q 459.200829 238.376418 467.350314 238.376418 
Q 469.570753 238.376418 471.472299 238.076141 
Q 473.373846 237.76281 474.885634 237.110036 
L 474.885634 225.281767 
L 466.204662 225.281767 
L 466.204662 214.745991 
L 488.35 214.745991 
L 488.35 244.042498 
z
" clip-path="url(#pc33a5f66e9)" style="fill: #787800"/>
   </g>
   <g id="patch_24">
    <path d="M 483.955948 123.047017 
L 483.955948 135.945835 
Q 478.459804 133.700292 473.221293 132.564465 
Q 467.997094 131.415582 463.34541 131.415582 
Q 457.176562 131.415582 454.213797 132.969185 
Q 451.265345 134.509732 451.265345 137.773603 
Q 451.265345 140.228034 453.254834 141.59886 
Q 455.244324 142.956631 460.482835 143.935792 
L 467.811027 145.280507 
Q 478.946442 147.330218 483.641065 151.494917 
Q 488.35 155.646561 488.35 163.323186 
Q 488.35 173.388965 481.794704 178.310882 
Q 475.239408 183.2328 461.770994 183.2328 
Q 455.430391 183.2328 449.032537 182.123084 
Q 442.634682 181.026423 436.236828 178.859213 
L 436.236828 165.607896 
Q 442.634682 168.702046 448.60315 170.281759 
Q 454.571619 171.848418 460.125014 171.848418 
Q 465.764286 171.848418 468.755676 170.138149 
Q 471.747067 168.414825 471.747067 165.229287 
Q 471.747067 162.383191 469.714639 160.829589 
Q 467.682211 159.275986 461.59924 158.048771 
L 454.929441 156.704056 
Q 444.910429 154.745733 440.273058 150.463534 
Q 435.65 146.181335 435.65 138.922486 
Q 435.65 129.822813 442.090793 124.927007 
Q 448.531586 120.0312 460.611651 120.0312 
Q 466.122108 120.0312 471.933134 120.788418 
Q 477.744161 121.545636 483.955948 123.047017 
z
" clip-path="url(#pc33a5f66e9)" style="fill: #40ba47"/>
   </g>
   <g id="patch_25">
    <path d="M 435.65 53.5032 
L 454.774615 53.5032 
L 454.774615 104.392272 
L 488.35 104.392272 
L 488.35 116.7048 
L 435.65 116.7048 
L 435.65 53.5032 
z
" clip-path="url(#pc33a5f66e9)" style="fill: #21599c"/>
   </g>
   <g id="patch_26">
    <path d="M 514.437692 319.6152 
L 533.562308 319.6152 
L 533.562308 382.8168 
L 514.437692 382.8168 
L 514.437692 319.6152 
z
" clip-path="url(#pc33a5f66e9)" style="fill: #21599c"/>
   </g>
   <g id="patch_27">
    <path d="M 497.65 253.0872 
L 549.253077 253.0872 
L 549.253077 265.413273 
L 516.774615 265.413273 
L 516.774615 277.17045 
L 547.329487 277.17045 
L 547.329487 289.496523 
L 516.774615 289.496523 
L 516.774615 303.976272 
L 550.35 303.976272 
L 550.35 316.2888 
L 497.65 316.2888 
L 497.65 253.0872 
z
" clip-path="url(#pc33a5f66e9)" style="fill: #6b296b"/>
   </g>
   <g id="patch_28">
    <path d="M 550.35 229.279493 
Q 545.035119 237.856947 539.318669 242.165257 
Q 533.602219 246.4344 527.507822 246.4344 
Q 513.736374 246.4344 505.693187 220.897873 
Q 497.65 195.361345 497.65 151.69075 
Q 497.65 107.51099 505.834917 82.170295 
Q 514.031645 56.8296 528.287338 56.8296 
Q 533.779381 56.8296 538.810802 60.276248 
Q 543.854034 63.683729 548.318534 70.420359 
L 548.318534 108.215987 
Q 543.712304 99.5602 539.153317 95.291057 
Q 534.59433 90.982747 530.011721 90.982747 
Q 521.531533 90.982747 516.937113 106.727661 
Q 512.342694 122.433409 512.342694 151.69075 
Q 512.342694 180.673925 516.771762 196.497172 
Q 521.200829 212.281253 529.350314 212.281253 
Q 531.570753 212.281253 533.472299 211.380424 
Q 535.373846 210.440429 536.885634 208.482107 
L 536.885634 172.9973 
L 528.204662 172.9973 
L 528.204662 141.389972 
L 550.35 141.389972 
L 550.35 229.279493 
z
" clip-path="url(#pc33a5f66e9)" style="fill: #787800"/>
   </g>
   <g id="patch_29">
    <path d="M 559.65 319.6152 
L 611.253077 319.6152 
L 611.253077 331.941273 
L 578.774615 331.941273 
L 578.774615 343.69845 
L 609.329487 343.69845 
L 609.329487 356.024523 
L 578.774615 356.024523 
L 578.774615 370.504272 
L 612.35 370.504272 
L 612.35 382.8168 
L 559.65 382.8168 
L 559.65 319.6152 
z
" clip-path="url(#pc33a5f66e9)" style="fill: #6b296b"/>
   </g>
   <g id="patch_30">
    <path d="M 574.091481 265.413273 
L 574.091481 303.976272 
L 579.265444 303.976272 
Q 588.112802 303.976272 592.782574 299.018753 
Q 597.464351 294.061233 597.464351 284.620274 
Q 597.464351 275.233496 592.806583 270.330157 
Q 588.16082 265.413273 579.265444 265.413273 
L 574.091481 265.413273 
z
M 559.65 253.0872 
L 574.871777 253.0872 
Q 587.63262 253.0872 593.874989 255.146061 
Q 600.117358 257.191376 604.583052 262.10826 
Q 608.520547 266.388523 610.429271 271.982663 
Q 612.35 277.563259 612.35 284.620274 
Q 612.35 291.785651 610.429271 297.393337 
Q 608.520547 303.001023 604.583052 307.26774 
Q 600.081344 312.184624 593.778952 314.243485 
Q 587.47656 316.2888 574.871777 316.2888 
L 559.65 316.2888 
L 559.65 253.0872 
z
" clip-path="url(#pc33a5f66e9)" style="fill: #6b296b"/>
   </g>
   <g id="patch_31">
    <path d="M 596.155336 238.247435 
L 575.887763 238.247435 
L 572.68762 249.7608 
L 559.65 249.7608 
L 578.269015 186.5592 
L 593.730985 186.5592 
L 612.35 249.7608 
L 599.323155 249.7608 
L 596.155336 238.247435 
z
M 579.120231 226.517348 
L 592.890544 226.517348 
L 586.016162 201.377578 
L 579.120231 226.517348 
z
" clip-path="url(#pc33a5f66e9)" style="fill: #21599c"/>
   </g>
   <g id="patch_32">
    <path d="M 612.35 170.132996 
Q 607.035119 175.851298 601.318669 178.723504 
Q 595.602219 181.5696 589.507822 181.5696 
Q 575.736374 181.5696 567.693187 164.545248 
Q 559.65 147.520897 559.65 118.407166 
Q 559.65 88.953994 567.834917 72.060197 
Q 576.031645 55.1664 590.287338 55.1664 
Q 595.779381 55.1664 600.810802 57.464165 
Q 605.854034 59.73582 610.318534 64.226906 
L 610.318534 89.423991 
Q 605.712304 83.653467 601.153317 80.807371 
Q 596.59433 77.935165 592.011721 77.935165 
Q 583.531533 77.935165 578.937113 88.431774 
Q 574.342694 98.902273 574.342694 118.407166 
Q 574.342694 137.729283 578.771762 148.278115 
Q 583.200829 158.800835 591.350314 158.800835 
Q 593.570753 158.800835 595.472299 158.200283 
Q 597.373846 157.57362 598.885634 156.268071 
L 598.885634 132.611533 
L 590.204662 132.611533 
L 590.204662 111.539982 
L 612.35 111.539982 
L 612.35 170.132996 
z
" clip-path="url(#pc33a5f66e9)" style="fill: #787800"/>
   </g>
   <g id="matplotlib.axis_1">
    <g id="xtick_1">
     <g id="line2d_2">
      <defs>
       <path id="m91b1db3d69" d="M 0 0 
L 0 4.8 
" style="stroke: #262626"/>
      </defs>
      <g>
       <use xlink:href="#m91b1db3d69" x="152" y="384.48" style="fill: #262626; stroke: #262626"/>
      </g>
     </g>
     <g id="text_1">
      <!-- P4 -->
      <g style="fill: #262626" transform="translate(146.61825 399.078875) scale(0.088 -0.088)">
       <defs>
        <path id="ArialMT-50" d="M 494 0 
L 494 4581 
L 2222 4581 
Q 2678 4581 2919 4538 
Q 3256 4481 3484 4323 
Q 3713 4166 3852 3881 
Q 3991 3597 3991 3256 
Q 3991 2672 3619 2267 
Q 3247 1863 2275 1863 
L 1100 1863 
L 1100 0 
L 494 0 
z
M 1100 2403 
L 2284 2403 
Q 2872 2403 3119 2622 
Q 3366 2841 3366 3238 
Q 3366 3525 3220 3729 
Q 3075 3934 2838 4000 
Q 2684 4041 2272 4041 
L 1100 4041 
L 1100 2403 
z
" transform="scale(0.015625)"/>
        <path id="ArialMT-34" d="M 2069 0 
L 2069 1097 
L 81 1097 
L 81 1613 
L 2172 4581 
L 2631 4581 
L 2631 1613 
L 3250 1613 
L 3250 1097 
L 2631 1097 
L 2631 0 
L 2069 0 
z
M 2069 1613 
L 2069 3678 
L 634 1613 
L 2069 1613 
z
" transform="scale(0.015625)"/>
       </defs>
       <use xlink:href="#ArialMT-50"/>
       <use xlink:href="#ArialMT-34" x="66.699219"/>
      </g>
     </g>
    </g>
    <g id="xtick_2">
     <g id="line2d_3">
      <g>
       <use xlink:href="#m91b1db3d69" x="214" y="384.48" style="fill: #262626; stroke: #262626"/>
      </g>
     </g>
     <g id="text_2">
      <!-- P3 -->
      <g style="fill: #262626" transform="translate(208.61825 399.078875) scale(0.088 -0.088)">
       <defs>
        <path id="ArialMT-33" d="M 269 1209 
L 831 1284 
Q 928 806 1161 595 
Q 1394 384 1728 384 
Q 2125 384 2398 659 
Q 2672 934 2672 1341 
Q 2672 1728 2419 1979 
Q 2166 2231 1775 2231 
Q 1616 2231 1378 2169 
L 1441 2663 
Q 1497 2656 1531 2656 
Q 1891 2656 2178 2843 
Q 2466 3031 2466 3422 
Q 2466 3731 2256 3934 
Q 2047 4138 1716 4138 
Q 1388 4138 1169 3931 
Q 950 3725 888 3313 
L 325 3413 
Q 428 3978 793 4289 
Q 1159 4600 1703 4600 
Q 2078 4600 2393 4439 
Q 2709 4278 2876 4000 
Q 3044 3722 3044 3409 
Q 3044 3113 2884 2869 
Q 2725 2625 2413 2481 
Q 2819 2388 3044 2092 
Q 3269 1797 3269 1353 
Q 3269 753 2831 336 
Q 2394 -81 1725 -81 
Q 1122 -81 723 278 
Q 325 638 269 1209 
z
" transform="scale(0.015625)"/>
       </defs>
       <use xlink:href="#ArialMT-50"/>
       <use xlink:href="#ArialMT-33" x="66.699219"/>
      </g>
     </g>
    </g>
    <g id="xtick_3">
     <g id="line2d_4">
      <g>
       <use xlink:href="#m91b1db3d69" x="276" y="384.48" style="fill: #262626; stroke: #262626"/>
      </g>
     </g>
     <g id="text_3">
      <!-- P2 -->
      <g style="fill: #262626" transform="translate(270.61825 399.078875) scale(0.088 -0.088)">
       <defs>
        <path id="ArialMT-32" d="M 3222 541 
L 3222 0 
L 194 0 
Q 188 203 259 391 
Q 375 700 629 1000 
Q 884 1300 1366 1694 
Q 2113 2306 2375 2664 
Q 2638 3022 2638 3341 
Q 2638 3675 2398 3904 
Q 2159 4134 1775 4134 
Q 1369 4134 1125 3890 
Q 881 3647 878 3216 
L 300 3275 
Q 359 3922 746 4261 
Q 1134 4600 1788 4600 
Q 2447 4600 2831 4234 
Q 3216 3869 3216 3328 
Q 3216 3053 3103 2787 
Q 2991 2522 2730 2228 
Q 2469 1934 1863 1422 
Q 1356 997 1212 845 
Q 1069 694 975 541 
L 3222 541 
z
" transform="scale(0.015625)"/>
       </defs>
       <use xlink:href="#ArialMT-50"/>
       <use xlink:href="#ArialMT-32" x="66.699219"/>
      </g>
     </g>
    </g>
    <g id="xtick_4">
     <g id="line2d_5">
      <g>
       <use xlink:href="#m91b1db3d69" x="338" y="384.48" style="fill: #262626; stroke: #262626"/>
      </g>
     </g>
     <g id="text_4">
      <!-- P1 -->
      <g style="fill: #262626" transform="translate(332.61825 399.078875) scale(0.088 -0.088)">
       <defs>
        <path id="ArialMT-31" d="M 2384 0 
L 1822 0 
L 1822 3584 
Q 1619 3391 1289 3197 
Q 959 3003 697 2906 
L 697 3450 
Q 1169 3672 1522 3987 
Q 1875 4303 2022 4600 
L 2384 4600 
L 2384 0 
z
" transform="scale(0.015625)"/>
       </defs>
       <use xlink:href="#ArialMT-50"/>
       <use xlink:href="#ArialMT-31" x="66.699219"/>
      </g>
     </g>
    </g>
    <g id="xtick_5">
     <g id="line2d_6">
      <g>
       <use xlink:href="#m91b1db3d69" x="400" y="384.48" style="fill: #262626; stroke: #262626"/>
      </g>
     </g>
     <g id="text_5">
      <!-- P1' -->
      <g style="fill: #262626" transform="translate(393.778125 399.078875) scale(0.088 -0.088)">
       <defs>
        <path id="ArialMT-27" d="M 425 2959 
L 281 3816 
L 281 4581 
L 922 4581 
L 922 3816 
L 772 2959 
L 425 2959 
z
" transform="scale(0.015625)"/>
       </defs>
       <use xlink:href="#ArialMT-50"/>
       <use xlink:href="#ArialMT-31" x="66.699219"/>
       <use xlink:href="#ArialMT-27" x="122.314453"/>
      </g>
     </g>
    </g>
    <g id="xtick_6">
     <g id="line2d_7">
      <g>
       <use xlink:href="#m91b1db3d69" x="462" y="384.48" style="fill: #262626; stroke: #262626"/>
      </g>
     </g>
     <g id="text_6">
      <!-- P2' -->
      <g style="fill: #262626" transform="translate(455.778125 399.078875) scale(0.088 -0.088)">
       <use xlink:href="#ArialMT-50"/>
       <use xlink:href="#ArialMT-32" x="66.699219"/>
       <use xlink:href="#ArialMT-27" x="122.314453"/>
      </g>
     </g>
    </g>
    <g id="xtick_7">
     <g id="line2d_8">
      <g>
       <use xlink:href="#m91b1db3d69" x="524" y="384.48" style="fill: #262626; stroke: #262626"/>
      </g>
     </g>
     <g id="text_7">
      <!-- P3' -->
      <g style="fill: #262626" transform="translate(517.778125 399.078875) scale(0.088 -0.088)">
       <use xlink:href="#ArialMT-50"/>
       <use xlink:href="#ArialMT-33" x="66.699219"/>
       <use xlink:href="#ArialMT-27" x="122.314453"/>
      </g>
     </g>
    </g>
    <g id="xtick_8">
     <g id="line2d_9">
      <g>
       <use xlink:href="#m91b1db3d69" x="586" y="384.48" style="fill: #262626; stroke: #262626"/>
      </g>
     </g>
     <g id="text_8">
      <!-- P4' -->
      <g style="fill: #262626" transform="translate(579.778125 399.078875) scale(0.088 -0.088)">
       <use xlink:href="#ArialMT-50"/>
       <use xlink:href="#ArialMT-34" x="66.699219"/>
       <use xlink:href="#ArialMT-27" x="122.314453"/>
      </g>
     </g>
    </g>
   </g>
   <g id="matplotlib.axis_2">
    <g id="ytick_1">
     <g id="line2d_10">
      <defs>
       <path id="m3bd631c73c" d="M 0 0 
L -4.8 0 
" style="stroke: #262626"/>
      </defs>
      <g>
       <use xlink:href="#m3bd631c73c" x="90" y="384.48" style="fill: #262626; stroke: #262626"/>
      </g>
     </g>
     <g id="text_9">
      <!-- 0.0 -->
      <g style="fill: #262626" transform="translate(69.468 387.629437) scale(0.088 -0.088)">
       <defs>
        <path id="ArialMT-30" d="M 266 2259 
Q 266 3072 433 3567 
Q 600 4063 929 4331 
Q 1259 4600 1759 4600 
Q 2128 4600 2406 4451 
Q 2684 4303 2865 4023 
Q 3047 3744 3150 3342 
Q 3253 2941 3253 2259 
Q 3253 1453 3087 958 
Q 2922 463 2592 192 
Q 2263 -78 1759 -78 
Q 1097 -78 719 397 
Q 266 969 266 2259 
z
M 844 2259 
Q 844 1131 1108 757 
Q 1372 384 1759 384 
Q 2147 384 2411 759 
Q 2675 1134 2675 2259 
Q 2675 3391 2411 3762 
Q 2147 4134 1753 4134 
Q 1366 4134 1134 3806 
Q 844 3388 844 2259 
z
" transform="scale(0.015625)"/>
        <path id="ArialMT-2e" d="M 581 0 
L 581 641 
L 1222 641 
L 1222 0 
L 581 0 
z
" transform="scale(0.015625)"/>
       </defs>
       <use xlink:href="#ArialMT-30"/>
       <use xlink:href="#ArialMT-2e" x="55.615234"/>
       <use xlink:href="#ArialMT-30" x="83.398438"/>
      </g>
     </g>
    </g>
    <g id="ytick_2">
     <g id="line2d_11">
      <g>
       <use xlink:href="#m3bd631c73c" x="90" y="317.952" style="fill: #262626; stroke: #262626"/>
      </g>
     </g>
     <g id="text_10">
      <!-- 0.2 -->
      <g style="fill: #262626" transform="translate(69.468 321.101437) scale(0.088 -0.088)">
       <use xlink:href="#ArialMT-30"/>
       <use xlink:href="#ArialMT-2e" x="55.615234"/>
       <use xlink:href="#ArialMT-32" x="83.398438"/>
      </g>
     </g>
    </g>
    <g id="ytick_3">
     <g id="line2d_12">
      <g>
       <use xlink:href="#m3bd631c73c" x="90" y="251.424" style="fill: #262626; stroke: #262626"/>
      </g>
     </g>
     <g id="text_11">
      <!-- 0.4 -->
      <g style="fill: #262626" transform="translate(69.468 254.573437) scale(0.088 -0.088)">
       <use xlink:href="#ArialMT-30"/>
       <use xlink:href="#ArialMT-2e" x="55.615234"/>
       <use xlink:href="#ArialMT-34" x="83.398438"/>
      </g>
     </g>
    </g>
    <g id="ytick_4">
     <g id="line2d_13">
      <g>
       <use xlink:href="#m3bd631c73c" x="90" y="184.896" style="fill: #262626; stroke: #262626"/>
      </g>
     </g>
     <g id="text_12">
      <!-- 0.6 -->
      <g style="fill: #262626" transform="translate(69.468 188.045437) scale(0.088 -0.088)">
       <defs>
        <path id="ArialMT-36" d="M 3184 3459 
L 2625 3416 
Q 2550 3747 2413 3897 
Q 2184 4138 1850 4138 
Q 1581 4138 1378 3988 
Q 1113 3794 959 3422 
Q 806 3050 800 2363 
Q 1003 2672 1297 2822 
Q 1591 2972 1913 2972 
Q 2475 2972 2870 2558 
Q 3266 2144 3266 1488 
Q 3266 1056 3080 686 
Q 2894 316 2569 119 
Q 2244 -78 1831 -78 
Q 1128 -78 684 439 
Q 241 956 241 2144 
Q 241 3472 731 4075 
Q 1159 4600 1884 4600 
Q 2425 4600 2770 4297 
Q 3116 3994 3184 3459 
z
M 888 1484 
Q 888 1194 1011 928 
Q 1134 663 1356 523 
Q 1578 384 1822 384 
Q 2178 384 2434 671 
Q 2691 959 2691 1453 
Q 2691 1928 2437 2201 
Q 2184 2475 1800 2475 
Q 1419 2475 1153 2201 
Q 888 1928 888 1484 
z
" transform="scale(0.015625)"/>
       </defs>
       <use xlink:href="#ArialMT-30"/>
       <use xlink:href="#ArialMT-2e" x="55.615234"/>
       <use xlink:href="#ArialMT-36" x="83.398438"/>
      </g>
     </g>
    </g>
    <g id="ytick_5">
     <g id="line2d_14">
      <g>
       <use xlink:href="#m3bd631c73c" x="90" y="118.368" style="fill: #262626; stroke: #262626"/>
      </g>
     </g>
     <g id="text_13">
      <!-- 0.8 -->
      <g style="fill: #262626" transform="translate(69.468 121.517437) scale(0.088 -0.088)">
       <defs>
        <path id="ArialMT-38" d="M 1131 2484 
Q 781 2613 612 2850 
Q 444 3088 444 3419 
Q 444 3919 803 4259 
Q 1163 4600 1759 4600 
Q 2359 4600 2725 4251 
Q 3091 3903 3091 3403 
Q 3091 3084 2923 2848 
Q 2756 2613 2416 2484 
Q 2838 2347 3058 2040 
Q 3278 1734 3278 1309 
Q 3278 722 2862 322 
Q 2447 -78 1769 -78 
Q 1091 -78 675 323 
Q 259 725 259 1325 
Q 259 1772 486 2073 
Q 713 2375 1131 2484 
z
M 1019 3438 
Q 1019 3113 1228 2906 
Q 1438 2700 1772 2700 
Q 2097 2700 2305 2904 
Q 2513 3109 2513 3406 
Q 2513 3716 2298 3927 
Q 2084 4138 1766 4138 
Q 1444 4138 1231 3931 
Q 1019 3725 1019 3438 
z
M 838 1322 
Q 838 1081 952 856 
Q 1066 631 1291 507 
Q 1516 384 1775 384 
Q 2178 384 2440 643 
Q 2703 903 2703 1303 
Q 2703 1709 2433 1975 
Q 2163 2241 1756 2241 
Q 1359 2241 1098 1978 
Q 838 1716 838 1322 
z
" transform="scale(0.015625)"/>
       </defs>
       <use xlink:href="#ArialMT-30"/>
       <use xlink:href="#ArialMT-2e" x="55.615234"/>
       <use xlink:href="#ArialMT-38" x="83.398438"/>
      </g>
     </g>
    </g>
    <g id="ytick_6">
     <g id="line2d_15">
      <g>
       <use xlink:href="#m3bd631c73c" x="90" y="51.84" style="fill: #262626; stroke: #262626"/>
      </g>
     </g>
     <g id="text_14">
      <!-- 1.0 -->
      <g style="fill: #262626" transform="translate(69.468 54.989437) scale(0.088 -0.088)">
       <use xlink:href="#ArialMT-31"/>
       <use xlink:href="#ArialMT-2e" x="55.615234"/>
       <use xlink:href="#ArialMT-30" x="83.398438"/>
      </g>
     </g>
    </g>
    <g id="text_15">
     <!-- percentage -->
     <g style="fill: #262626" transform="translate(63.4475 242.1765) rotate(-90) scale(0.096 -0.096)">
      <defs>
       <path id="ArialMT-70" d="M 422 -1272 
L 422 3319 
L 934 3319 
L 934 2888 
Q 1116 3141 1344 3267 
Q 1572 3394 1897 3394 
Q 2322 3394 2647 3175 
Q 2972 2956 3137 2557 
Q 3303 2159 3303 1684 
Q 3303 1175 3120 767 
Q 2938 359 2589 142 
Q 2241 -75 1856 -75 
Q 1575 -75 1351 44 
Q 1128 163 984 344 
L 984 -1272 
L 422 -1272 
z
M 931 1641 
Q 931 1000 1190 694 
Q 1450 388 1819 388 
Q 2194 388 2461 705 
Q 2728 1022 2728 1688 
Q 2728 2322 2467 2637 
Q 2206 2953 1844 2953 
Q 1484 2953 1207 2617 
Q 931 2281 931 1641 
z
" transform="scale(0.015625)"/>
       <path id="ArialMT-65" d="M 2694 1069 
L 3275 997 
Q 3138 488 2766 206 
Q 2394 -75 1816 -75 
Q 1088 -75 661 373 
Q 234 822 234 1631 
Q 234 2469 665 2931 
Q 1097 3394 1784 3394 
Q 2450 3394 2872 2941 
Q 3294 2488 3294 1666 
Q 3294 1616 3291 1516 
L 816 1516 
Q 847 969 1125 678 
Q 1403 388 1819 388 
Q 2128 388 2347 550 
Q 2566 713 2694 1069 
z
M 847 1978 
L 2700 1978 
Q 2663 2397 2488 2606 
Q 2219 2931 1791 2931 
Q 1403 2931 1139 2672 
Q 875 2413 847 1978 
z
" transform="scale(0.015625)"/>
       <path id="ArialMT-72" d="M 416 0 
L 416 3319 
L 922 3319 
L 922 2816 
Q 1116 3169 1280 3281 
Q 1444 3394 1641 3394 
Q 1925 3394 2219 3213 
L 2025 2691 
Q 1819 2813 1613 2813 
Q 1428 2813 1281 2702 
Q 1134 2591 1072 2394 
Q 978 2094 978 1738 
L 978 0 
L 416 0 
z
" transform="scale(0.015625)"/>
       <path id="ArialMT-63" d="M 2588 1216 
L 3141 1144 
Q 3050 572 2676 248 
Q 2303 -75 1759 -75 
Q 1078 -75 664 370 
Q 250 816 250 1647 
Q 250 2184 428 2587 
Q 606 2991 970 3192 
Q 1334 3394 1763 3394 
Q 2303 3394 2647 3120 
Q 2991 2847 3088 2344 
L 2541 2259 
Q 2463 2594 2264 2762 
Q 2066 2931 1784 2931 
Q 1359 2931 1093 2626 
Q 828 2322 828 1663 
Q 828 994 1084 691 
Q 1341 388 1753 388 
Q 2084 388 2306 591 
Q 2528 794 2588 1216 
z
" transform="scale(0.015625)"/>
       <path id="ArialMT-6e" d="M 422 0 
L 422 3319 
L 928 3319 
L 928 2847 
Q 1294 3394 1984 3394 
Q 2284 3394 2536 3286 
Q 2788 3178 2913 3003 
Q 3038 2828 3088 2588 
Q 3119 2431 3119 2041 
L 3119 0 
L 2556 0 
L 2556 2019 
Q 2556 2363 2490 2533 
Q 2425 2703 2258 2804 
Q 2091 2906 1866 2906 
Q 1506 2906 1245 2678 
Q 984 2450 984 1813 
L 984 0 
L 422 0 
z
" transform="scale(0.015625)"/>
       <path id="ArialMT-74" d="M 1650 503 
L 1731 6 
Q 1494 -44 1306 -44 
Q 1000 -44 831 53 
Q 663 150 594 308 
Q 525 466 525 972 
L 525 2881 
L 113 2881 
L 113 3319 
L 525 3319 
L 525 4141 
L 1084 4478 
L 1084 3319 
L 1650 3319 
L 1650 2881 
L 1084 2881 
L 1084 941 
Q 1084 700 1114 631 
Q 1144 563 1211 522 
Q 1278 481 1403 481 
Q 1497 481 1650 503 
z
" transform="scale(0.015625)"/>
       <path id="ArialMT-61" d="M 2588 409 
Q 2275 144 1986 34 
Q 1697 -75 1366 -75 
Q 819 -75 525 192 
Q 231 459 231 875 
Q 231 1119 342 1320 
Q 453 1522 633 1644 
Q 813 1766 1038 1828 
Q 1203 1872 1538 1913 
Q 2219 1994 2541 2106 
Q 2544 2222 2544 2253 
Q 2544 2597 2384 2738 
Q 2169 2928 1744 2928 
Q 1347 2928 1158 2789 
Q 969 2650 878 2297 
L 328 2372 
Q 403 2725 575 2942 
Q 747 3159 1072 3276 
Q 1397 3394 1825 3394 
Q 2250 3394 2515 3294 
Q 2781 3194 2906 3042 
Q 3031 2891 3081 2659 
Q 3109 2516 3109 2141 
L 3109 1391 
Q 3109 606 3145 398 
Q 3181 191 3288 0 
L 2700 0 
Q 2613 175 2588 409 
z
M 2541 1666 
Q 2234 1541 1622 1453 
Q 1275 1403 1131 1340 
Q 988 1278 909 1158 
Q 831 1038 831 891 
Q 831 666 1001 516 
Q 1172 366 1500 366 
Q 1825 366 2078 508 
Q 2331 650 2450 897 
Q 2541 1088 2541 1459 
L 2541 1666 
z
" transform="scale(0.015625)"/>
       <path id="ArialMT-67" d="M 319 -275 
L 866 -356 
Q 900 -609 1056 -725 
Q 1266 -881 1628 -881 
Q 2019 -881 2231 -725 
Q 2444 -569 2519 -288 
Q 2563 -116 2559 434 
Q 2191 0 1641 0 
Q 956 0 581 494 
Q 206 988 206 1678 
Q 206 2153 378 2554 
Q 550 2956 876 3175 
Q 1203 3394 1644 3394 
Q 2231 3394 2613 2919 
L 2613 3319 
L 3131 3319 
L 3131 450 
Q 3131 -325 2973 -648 
Q 2816 -972 2473 -1159 
Q 2131 -1347 1631 -1347 
Q 1038 -1347 672 -1080 
Q 306 -813 319 -275 
z
M 784 1719 
Q 784 1066 1043 766 
Q 1303 466 1694 466 
Q 2081 466 2343 764 
Q 2606 1063 2606 1700 
Q 2606 2309 2336 2618 
Q 2066 2928 1684 2928 
Q 1309 2928 1046 2623 
Q 784 2319 784 1719 
z
" transform="scale(0.015625)"/>
      </defs>
      <use xlink:href="#ArialMT-70"/>
      <use xlink:href="#ArialMT-65" x="55.615234"/>
      <use xlink:href="#ArialMT-72" x="111.230469"/>
      <use xlink:href="#ArialMT-63" x="144.53125"/>
      <use xlink:href="#ArialMT-65" x="194.53125"/>
      <use xlink:href="#ArialMT-6e" x="250.146484"/>
      <use xlink:href="#ArialMT-74" x="305.761719"/>
      <use xlink:href="#ArialMT-61" x="333.544922"/>
      <use xlink:href="#ArialMT-67" x="389.160156"/>
      <use xlink:href="#ArialMT-65" x="444.775391"/>
     </g>
    </g>
   </g>
   <g id="line2d_16">
    <path d="M 369 384.48 
L 369 51.84 
" clip-path="url(#pc33a5f66e9)" style="fill: none; stroke: #daa520; stroke-width: 2; stroke-linecap: round"/>
   </g>
   <g id="patch_33">
    <path d="M 90 384.48 
L 648 384.48 
" style="fill: none; stroke: #262626; stroke-linejoin: miter; stroke-linecap: square"/>
   </g>
   <g id="patch_34">
    <path d="M 90 51.84 
L 648 51.84 
" style="fill: none; stroke: #262626; stroke-linejoin: miter; stroke-linecap: square"/>
   </g>
   <g id="text_16">
    <!-- Ctr vs. BAPI probability PPSM n=5 -->
    <g style="fill: #262626" transform="translate(295.239 45.84) scale(0.096 -0.096)">
     <defs>
      <path id="ArialMT-43" d="M 3763 1606 
L 4369 1453 
Q 4178 706 3683 314 
Q 3188 -78 2472 -78 
Q 1731 -78 1267 223 
Q 803 525 561 1097 
Q 319 1669 319 2325 
Q 319 3041 592 3573 
Q 866 4106 1370 4382 
Q 1875 4659 2481 4659 
Q 3169 4659 3637 4309 
Q 4106 3959 4291 3325 
L 3694 3184 
Q 3534 3684 3231 3912 
Q 2928 4141 2469 4141 
Q 1941 4141 1586 3887 
Q 1231 3634 1087 3207 
Q 944 2781 944 2328 
Q 944 1744 1114 1308 
Q 1284 872 1643 656 
Q 2003 441 2422 441 
Q 2931 441 3284 734 
Q 3638 1028 3763 1606 
z
" transform="scale(0.015625)"/>
      <path id="ArialMT-20" transform="scale(0.015625)"/>
      <path id="ArialMT-76" d="M 1344 0 
L 81 3319 
L 675 3319 
L 1388 1331 
Q 1503 1009 1600 663 
Q 1675 925 1809 1294 
L 2547 3319 
L 3125 3319 
L 1869 0 
L 1344 0 
z
" transform="scale(0.015625)"/>
      <path id="ArialMT-73" d="M 197 991 
L 753 1078 
Q 800 744 1014 566 
Q 1228 388 1613 388 
Q 2000 388 2187 545 
Q 2375 703 2375 916 
Q 2375 1106 2209 1216 
Q 2094 1291 1634 1406 
Q 1016 1563 777 1677 
Q 538 1791 414 1992 
Q 291 2194 291 2438 
Q 291 2659 392 2848 
Q 494 3038 669 3163 
Q 800 3259 1026 3326 
Q 1253 3394 1513 3394 
Q 1903 3394 2198 3281 
Q 2494 3169 2634 2976 
Q 2775 2784 2828 2463 
L 2278 2388 
Q 2241 2644 2061 2787 
Q 1881 2931 1553 2931 
Q 1166 2931 1000 2803 
Q 834 2675 834 2503 
Q 834 2394 903 2306 
Q 972 2216 1119 2156 
Q 1203 2125 1616 2013 
Q 2213 1853 2448 1751 
Q 2684 1650 2818 1456 
Q 2953 1263 2953 975 
Q 2953 694 2789 445 
Q 2625 197 2315 61 
Q 2006 -75 1616 -75 
Q 969 -75 630 194 
Q 291 463 197 991 
z
" transform="scale(0.015625)"/>
      <path id="ArialMT-42" d="M 469 0 
L 469 4581 
L 2188 4581 
Q 2713 4581 3030 4442 
Q 3347 4303 3526 4014 
Q 3706 3725 3706 3409 
Q 3706 3116 3547 2856 
Q 3388 2597 3066 2438 
Q 3481 2316 3704 2022 
Q 3928 1728 3928 1328 
Q 3928 1006 3792 729 
Q 3656 453 3456 303 
Q 3256 153 2954 76 
Q 2653 0 2216 0 
L 469 0 
z
M 1075 2656 
L 2066 2656 
Q 2469 2656 2644 2709 
Q 2875 2778 2992 2937 
Q 3109 3097 3109 3338 
Q 3109 3566 3000 3739 
Q 2891 3913 2687 3977 
Q 2484 4041 1991 4041 
L 1075 4041 
L 1075 2656 
z
M 1075 541 
L 2216 541 
Q 2509 541 2628 563 
Q 2838 600 2978 687 
Q 3119 775 3209 942 
Q 3300 1109 3300 1328 
Q 3300 1584 3169 1773 
Q 3038 1963 2805 2039 
Q 2572 2116 2134 2116 
L 1075 2116 
L 1075 541 
z
" transform="scale(0.015625)"/>
      <path id="ArialMT-41" d="M -9 0 
L 1750 4581 
L 2403 4581 
L 4278 0 
L 3588 0 
L 3053 1388 
L 1138 1388 
L 634 0 
L -9 0 
z
M 1313 1881 
L 2866 1881 
L 2388 3150 
Q 2169 3728 2063 4100 
Q 1975 3659 1816 3225 
L 1313 1881 
z
" transform="scale(0.015625)"/>
      <path id="ArialMT-49" d="M 597 0 
L 597 4581 
L 1203 4581 
L 1203 0 
L 597 0 
z
" transform="scale(0.015625)"/>
      <path id="ArialMT-6f" d="M 213 1659 
Q 213 2581 725 3025 
Q 1153 3394 1769 3394 
Q 2453 3394 2887 2945 
Q 3322 2497 3322 1706 
Q 3322 1066 3130 698 
Q 2938 331 2570 128 
Q 2203 -75 1769 -75 
Q 1072 -75 642 372 
Q 213 819 213 1659 
z
M 791 1659 
Q 791 1022 1069 705 
Q 1347 388 1769 388 
Q 2188 388 2466 706 
Q 2744 1025 2744 1678 
Q 2744 2294 2464 2611 
Q 2184 2928 1769 2928 
Q 1347 2928 1069 2612 
Q 791 2297 791 1659 
z
" transform="scale(0.015625)"/>
      <path id="ArialMT-62" d="M 941 0 
L 419 0 
L 419 4581 
L 981 4581 
L 981 2947 
Q 1338 3394 1891 3394 
Q 2197 3394 2470 3270 
Q 2744 3147 2920 2923 
Q 3097 2700 3197 2384 
Q 3297 2069 3297 1709 
Q 3297 856 2875 390 
Q 2453 -75 1863 -75 
Q 1275 -75 941 416 
L 941 0 
z
M 934 1684 
Q 934 1088 1097 822 
Q 1363 388 1816 388 
Q 2184 388 2453 708 
Q 2722 1028 2722 1663 
Q 2722 2313 2464 2622 
Q 2206 2931 1841 2931 
Q 1472 2931 1203 2611 
Q 934 2291 934 1684 
z
" transform="scale(0.015625)"/>
      <path id="ArialMT-69" d="M 425 3934 
L 425 4581 
L 988 4581 
L 988 3934 
L 425 3934 
z
M 425 0 
L 425 3319 
L 988 3319 
L 988 0 
L 425 0 
z
" transform="scale(0.015625)"/>
      <path id="ArialMT-6c" d="M 409 0 
L 409 4581 
L 972 4581 
L 972 0 
L 409 0 
z
" transform="scale(0.015625)"/>
      <path id="ArialMT-79" d="M 397 -1278 
L 334 -750 
Q 519 -800 656 -800 
Q 844 -800 956 -737 
Q 1069 -675 1141 -563 
Q 1194 -478 1313 -144 
Q 1328 -97 1363 -6 
L 103 3319 
L 709 3319 
L 1400 1397 
Q 1534 1031 1641 628 
Q 1738 1016 1872 1384 
L 2581 3319 
L 3144 3319 
L 1881 -56 
Q 1678 -603 1566 -809 
Q 1416 -1088 1222 -1217 
Q 1028 -1347 759 -1347 
Q 597 -1347 397 -1278 
z
" transform="scale(0.015625)"/>
      <path id="ArialMT-53" d="M 288 1472 
L 859 1522 
Q 900 1178 1048 958 
Q 1197 738 1509 602 
Q 1822 466 2213 466 
Q 2559 466 2825 569 
Q 3091 672 3220 851 
Q 3350 1031 3350 1244 
Q 3350 1459 3225 1620 
Q 3100 1781 2813 1891 
Q 2628 1963 1997 2114 
Q 1366 2266 1113 2400 
Q 784 2572 623 2826 
Q 463 3081 463 3397 
Q 463 3744 659 4045 
Q 856 4347 1234 4503 
Q 1613 4659 2075 4659 
Q 2584 4659 2973 4495 
Q 3363 4331 3572 4012 
Q 3781 3694 3797 3291 
L 3216 3247 
Q 3169 3681 2898 3903 
Q 2628 4125 2100 4125 
Q 1550 4125 1298 3923 
Q 1047 3722 1047 3438 
Q 1047 3191 1225 3031 
Q 1400 2872 2139 2705 
Q 2878 2538 3153 2413 
Q 3553 2228 3743 1945 
Q 3934 1663 3934 1294 
Q 3934 928 3725 604 
Q 3516 281 3123 101 
Q 2731 -78 2241 -78 
Q 1619 -78 1198 103 
Q 778 284 539 648 
Q 300 1013 288 1472 
z
" transform="scale(0.015625)"/>
      <path id="ArialMT-4d" d="M 475 0 
L 475 4581 
L 1388 4581 
L 2472 1338 
Q 2622 884 2691 659 
Q 2769 909 2934 1394 
L 4031 4581 
L 4847 4581 
L 4847 0 
L 4263 0 
L 4263 3834 
L 2931 0 
L 2384 0 
L 1059 3900 
L 1059 0 
L 475 0 
z
" transform="scale(0.015625)"/>
      <path id="ArialMT-3d" d="M 3381 2694 
L 356 2694 
L 356 3219 
L 3381 3219 
L 3381 2694 
z
M 3381 1303 
L 356 1303 
L 356 1828 
L 3381 1828 
L 3381 1303 
z
" transform="scale(0.015625)"/>
      <path id="ArialMT-35" d="M 266 1200 
L 856 1250 
Q 922 819 1161 601 
Q 1400 384 1738 384 
Q 2144 384 2425 690 
Q 2706 997 2706 1503 
Q 2706 1984 2436 2262 
Q 2166 2541 1728 2541 
Q 1456 2541 1237 2417 
Q 1019 2294 894 2097 
L 366 2166 
L 809 4519 
L 3088 4519 
L 3088 3981 
L 1259 3981 
L 1013 2750 
Q 1425 3038 1878 3038 
Q 2478 3038 2890 2622 
Q 3303 2206 3303 1553 
Q 3303 931 2941 478 
Q 2500 -78 1738 -78 
Q 1113 -78 717 272 
Q 322 622 266 1200 
z
" transform="scale(0.015625)"/>
     </defs>
     <use xlink:href="#ArialMT-43"/>
     <use xlink:href="#ArialMT-74" x="72.216797"/>
     <use xlink:href="#ArialMT-72" x="100"/>
     <use xlink:href="#ArialMT-20" x="133.300781"/>
     <use xlink:href="#ArialMT-76" x="161.083984"/>
     <use xlink:href="#ArialMT-73" x="211.083984"/>
     <use xlink:href="#ArialMT-2e" x="261.083984"/>
     <use xlink:href="#ArialMT-20" x="288.867188"/>
     <use xlink:href="#ArialMT-42" x="316.650391"/>
     <use xlink:href="#ArialMT-41" x="383.349609"/>
     <use xlink:href="#ArialMT-50" x="450.048828"/>
     <use xlink:href="#ArialMT-49" x="516.748047"/>
     <use xlink:href="#ArialMT-20" x="544.53125"/>
     <use xlink:href="#ArialMT-70" x="572.314453"/>
     <use xlink:href="#ArialMT-72" x="627.929688"/>
     <use xlink:href="#ArialMT-6f" x="661.230469"/>
     <use xlink:href="#ArialMT-62" x="716.845703"/>
     <use xlink:href="#ArialMT-61" x="772.460938"/>
     <use xlink:href="#ArialMT-62" x="828.076172"/>
     <use xlink:href="#ArialMT-69" x="883.691406"/>
     <use xlink:href="#ArialMT-6c" x="905.908203"/>
     <use xlink:href="#ArialMT-69" x="928.125"/>
     <use xlink:href="#ArialMT-74" x="950.341797"/>
     <use xlink:href="#ArialMT-79" x="978.125"/>
     <use xlink:href="#ArialMT-20" x="1028.125"/>
     <use xlink:href="#ArialMT-50" x="1055.908203"/>
     <use xlink:href="#ArialMT-50" x="1122.607422"/>
     <use xlink:href="#ArialMT-53" x="1189.306641"/>
     <use xlink:href="#ArialMT-4d" x="1256.005859"/>
     <use xlink:href="#ArialMT-20" x="1339.306641"/>
     <use xlink:href="#ArialMT-6e" x="1367.089844"/>
     <use xlink:href="#ArialMT-3d" x="1422.705078"/>
     <use xlink:href="#ArialMT-35" x="1481.103516"/>
    </g>
   </g>
  </g>
 </g>
 <defs>
  <clipPath id="pc33a5f66e9">
   <rect x="90" y="51.84" width="558" height="332.64"/>
  </clipPath>
 </defs>
</svg>
