<?xml version="1.0" encoding="utf-8" standalone="no"?>
<!DOCTYPE svg PUBLIC "-//W3C//DTD SVG 1.1//EN"
  "http://www.w3.org/Graphics/SVG/1.1/DTD/svg11.dtd">
<svg xmlns:xlink="http://www.w3.org/1999/xlink" width="720pt" height="432pt" viewBox="0 0 720 432" xmlns="http://www.w3.org/2000/svg" version="1.1">
 <metadata>
  <rdf:RDF xmlns:dc="http://purl.org/dc/elements/1.1/" xmlns:cc="http://creativecommons.org/ns#" xmlns:rdf="http://www.w3.org/1999/02/22-rdf-syntax-ns#">
   <cc:Work>
    <dc:type rdf:resource="http://purl.org/dc/dcmitype/StillImage"/>
    <dc:date>2023-10-25T13:40:01.397420</dc:date>
    <dc:format>image/svg+xml</dc:format>
    <dc:creator>
     <cc:Agent>
      <dc:title>Matplotlib v3.7.1, https://matplotlib.org/</dc:title>
     </cc:Agent>
    </dc:creator>
   </cc:Work>
  </rdf:RDF>
 </metadata>
 <defs>
  <style type="text/css">*{stroke-linejoin: round; stroke-linecap: butt}</style>
 </defs>
 <g id="figure_1">
  <g id="patch_1">
   <path d="M 0 432 
L 720 432 
L 720 0 
L 0 0 
z
" style="fill: #ffffff"/>
  </g>
  <g id="axes_1">
   <g id="patch_2">
    <path d="M 90 384.48 
L 648 384.48 
L 648 51.84 
L 90 51.84 
z
" style="fill: #ffffff"/>
   </g>
   <g id="patch_3">
    <path d="M 121 384.48 
L 183 384.48 
L 183 51.84 
L 121 51.84 
z
" clip-path="url(#p20524d21a9)" style="fill: #ffd700; opacity: 0.35; stroke: #ffffff; stroke-width: 0.8; stroke-linejoin: miter"/>
   </g>
   <g id="patch_4">
    <path d="M 245 384.48 
L 307 384.48 
L 307 51.84 
L 245 51.84 
z
" clip-path="url(#p20524d21a9)" style="fill: #ffd700; opacity: 0.35; stroke: #ffffff; stroke-width: 0.8; stroke-linejoin: miter"/>
   </g>
   <g id="patch_5">
    <path d="M 307 384.48 
L 369 384.48 
L 369 51.84 
L 307 51.84 
z
" clip-path="url(#p20524d21a9)" style="fill: #ffd700; opacity: 0.35; stroke: #ffffff; stroke-width: 0.8; stroke-linejoin: miter"/>
   </g>
   <g id="patch_6">
    <path d="M 369 384.48 
L 431 384.48 
L 431 51.84 
L 369 51.84 
z
" clip-path="url(#p20524d21a9)" style="fill: #ffd700; opacity: 0.35; stroke: #ffffff; stroke-width: 0.8; stroke-linejoin: miter"/>
   </g>
   <g id="patch_7">
    <path d="M 431 384.48 
L 493 384.48 
L 493 51.84 
L 431 51.84 
z
" clip-path="url(#p20524d21a9)" style="fill: #ffd700; opacity: 0.35; stroke: #ffffff; stroke-width: 0.8; stroke-linejoin: miter"/>
   </g>
   <g id="patch_8">
    <path d="M 493 384.48 
L 555 384.48 
L 555 51.84 
L 493 51.84 
z
" clip-path="url(#p20524d21a9)" style="fill: #ffd700; opacity: 0.35; stroke: #ffffff; stroke-width: 0.8; stroke-linejoin: miter"/>
   </g>
   <g id="patch_9">
    <path d="M 555 384.48 
L 617 384.48 
L 617 51.84 
L 555 51.84 
z
" clip-path="url(#p20524d21a9)" style="fill: #ffd700; opacity: 0.35; stroke: #ffffff; stroke-width: 0.8; stroke-linejoin: miter"/>
   </g>
   <g id="line2d_1">
    <path d="M 90 384.48 
L 648 384.48 
" clip-path="url(#p20524d21a9)" style="fill: none; stroke: #000000; stroke-width: 0.5; stroke-linecap: round"/>
   </g>
   <g id="patch_10">
    <path d="M 178.35 384.312579 
Q 173.035119 384.377428 167.318669 384.41 
Q 161.602219 384.442277 155.507822 384.442277 
Q 141.736374 384.442277 133.693187 384.249211 
Q 125.65 384.056145 125.65 383.725979 
Q 125.65 383.391963 133.834917 383.200378 
Q 142.031645 383.008793 156.287338 383.008793 
Q 161.779381 383.008793 166.810802 383.034851 
Q 171.854034 383.060613 176.318534 383.111544 
L 176.318534 383.397294 
Q 171.712304 383.331853 167.153317 383.299576 
Q 162.59433 383.267004 158.011721 383.267004 
Q 149.531533 383.267004 144.937113 383.386041 
Q 140.342694 383.504783 140.342694 383.725979 
Q 140.342694 383.945103 144.771762 384.064733 
Q 149.200829 384.184066 157.350314 384.184066 
Q 159.570753 384.184066 161.472299 384.177255 
Q 163.373846 384.170149 164.885634 384.155343 
L 164.885634 383.887065 
L 156.204662 383.887065 
L 156.204662 383.648101 
L 178.35 383.648101 
L 178.35 384.312579 
z
" clip-path="url(#p20524d21a9)" style="fill: #787800"/>
   </g>
   <g id="patch_11">
    <path d="M 173.955948 372.197345 
L 173.955948 374.444242 
Q 168.459804 374.053082 163.221293 373.855228 
Q 157.997094 373.655099 153.34541 373.655099 
Q 147.176562 373.655099 144.213797 373.925728 
Q 141.265345 374.194082 141.265345 374.762629 
Q 141.265345 375.190176 143.254834 375.428966 
Q 145.244324 375.665481 150.482835 375.836045 
L 157.811027 376.070287 
Q 168.946442 376.427334 173.641065 377.1528 
Q 178.35 377.875992 178.35 379.213214 
Q 178.35 380.966613 171.794704 381.823982 
Q 165.239408 382.68135 151.770994 382.68135 
Q 145.430391 382.68135 139.032537 382.488044 
Q 132.634682 382.297013 126.236828 381.919497 
L 126.236828 379.611197 
Q 132.634682 380.150179 138.60315 380.425356 
Q 144.571619 380.698259 150.125014 380.698259 
Q 155.764286 380.698259 158.755676 380.40034 
Q 161.747067 380.100147 161.747067 379.545245 
Q 161.747067 379.049473 159.714639 378.778844 
Q 157.682211 378.508216 151.59924 378.294442 
L 144.929441 378.060201 
Q 134.910429 377.719073 130.273058 376.973139 
Q 125.65 376.227206 125.65 374.962757 
Q 125.65 373.377648 132.090793 372.524828 
Q 138.531586 371.672008 150.611651 371.672008 
Q 156.122108 371.672008 161.933134 371.803911 
Q 167.744161 371.935813 173.955948 372.197345 
z
" clip-path="url(#p20524d21a9)" style="fill: #40ba47"/>
   </g>
   <g id="patch_12">
    <path d="M 162.155336 344.600436 
L 141.887763 344.600436 
L 138.68762 368.001773 
L 125.65 368.001773 
L 144.269015 239.542198 
L 159.730985 239.542198 
L 178.35 368.001773 
L 165.323155 368.001773 
L 162.155336 344.600436 
z
M 145.120231 320.758603 
L 158.890544 320.758603 
L 152.016162 269.661095 
L 145.120231 320.758603 
z
" clip-path="url(#p20524d21a9)" style="fill: #21599c"/>
   </g>
   <g id="patch_13">
    <path d="M 188.198462 384.075757 
L 239.801538 384.075757 
L 239.801538 384.152574 
L 207.323077 384.152574 
L 207.323077 384.225846 
L 237.877949 384.225846 
L 237.877949 384.302663 
L 207.323077 384.302663 
L 207.323077 384.469635 
L 188.198462 384.469635 
L 188.198462 384.075757 
z
" clip-path="url(#p20524d21a9)" style="fill: #21599c"/>
   </g>
   <g id="patch_14">
    <path d="M 187.65 376.821537 
L 200.68762 376.821537 
L 214.016162 382.03117 
L 227.323155 376.821537 
L 240.35 376.821537 
L 221.730985 383.879652 
L 206.269015 383.879652 
L 187.65 376.821537 
z
" clip-path="url(#p20524d21a9)" style="fill: #21599c"/>
   </g>
   <g id="patch_15">
    <path d="M 204.437692 363.621779 
L 223.562308 363.621779 
L 223.562308 376.302104 
L 204.437692 376.302104 
L 204.437692 363.621779 
z
" clip-path="url(#p20524d21a9)" style="fill: #21599c"/>
   </g>
   <g id="patch_16">
    <path d="M 187.65 318.307728 
L 206.774615 318.307728 
L 206.774615 353.596647 
L 240.35 353.596647 
L 240.35 362.134743 
L 187.65 362.134743 
L 187.65 318.307728 
z
" clip-path="url(#p20524d21a9)" style="fill: #21599c"/>
   </g>
   <g id="patch_17">
    <path d="M 187.65 217.781921 
L 203.195992 217.781921 
L 213.979692 269.597321 
L 224.83447 217.781921 
L 240.35 217.781921 
L 240.35 314.606373 
L 228.80474 314.606373 
L 228.80474 243.783001 
L 217.889037 295.992671 
L 210.141426 295.992671 
L 199.225723 243.783001 
L 199.225723 314.606373 
L 187.65 314.606373 
L 187.65 217.781921 
z
" clip-path="url(#p20524d21a9)" style="fill: #21599c"/>
   </g>
   <g id="patch_18">
    <path d="M 302.35 384.312579 
Q 297.035119 384.377428 291.318669 384.41 
Q 285.602219 384.442277 279.507822 384.442277 
Q 265.736374 384.442277 257.693187 384.249211 
Q 249.65 384.056145 249.65 383.725979 
Q 249.65 383.391963 257.834917 383.200378 
Q 266.031645 383.008793 280.287338 383.008793 
Q 285.779381 383.008793 290.810802 383.034851 
Q 295.854034 383.060613 300.318534 383.111544 
L 300.318534 383.397294 
Q 295.712304 383.331853 291.153317 383.299576 
Q 286.59433 383.267004 282.011721 383.267004 
Q 273.531533 383.267004 268.937113 383.386041 
Q 264.342694 383.504783 264.342694 383.725979 
Q 264.342694 383.945103 268.771762 384.064733 
Q 273.200829 384.184066 281.350314 384.184066 
Q 283.570753 384.184066 285.472299 384.177255 
Q 287.373846 384.170149 288.885634 384.155343 
L 288.885634 383.887065 
L 280.204662 383.887065 
L 280.204662 383.648101 
L 302.35 383.648101 
L 302.35 384.312579 
z
" clip-path="url(#p20524d21a9)" style="fill: #787800"/>
   </g>
   <g id="patch_19">
    <path d="M 297.955948 372.197345 
L 297.955948 374.444242 
Q 292.459804 374.053082 287.221293 373.855228 
Q 281.997094 373.655099 277.34541 373.655099 
Q 271.176562 373.655099 268.213797 373.925728 
Q 265.265345 374.194082 265.265345 374.762629 
Q 265.265345 375.190176 267.254834 375.428966 
Q 269.244324 375.665481 274.482835 375.836045 
L 281.811027 376.070287 
Q 292.946442 376.427334 297.641065 377.1528 
Q 302.35 377.875992 302.35 379.213214 
Q 302.35 380.966613 295.794704 381.823982 
Q 289.239408 382.68135 275.770994 382.68135 
Q 269.430391 382.68135 263.032537 382.488044 
Q 256.634682 382.297013 250.236828 381.919497 
L 250.236828 379.611197 
Q 256.634682 380.150179 262.60315 380.425356 
Q 268.571619 380.698259 274.125014 380.698259 
Q 279.764286 380.698259 282.755676 380.40034 
Q 285.747067 380.100147 285.747067 379.545245 
Q 285.747067 379.049473 283.714639 378.778844 
Q 281.682211 378.508216 275.59924 378.294442 
L 268.929441 378.060201 
Q 258.910429 377.719073 254.273058 376.973139 
Q 249.65 376.227206 249.65 374.962757 
Q 249.65 373.377648 256.090793 372.524828 
Q 262.531586 371.672008 274.611651 371.672008 
Q 280.122108 371.672008 285.933134 371.803911 
Q 291.744161 371.935813 297.955948 372.197345 
z
" clip-path="url(#p20524d21a9)" style="fill: #40ba47"/>
   </g>
   <g id="patch_20">
    <path d="M 286.155336 344.600436 
L 265.887763 344.600436 
L 262.68762 368.001773 
L 249.65 368.001773 
L 268.269015 239.542198 
L 283.730985 239.542198 
L 302.35 368.001773 
L 289.323155 368.001773 
L 286.155336 344.600436 
z
M 269.120231 320.758603 
L 282.890544 320.758603 
L 276.016162 269.661095 
L 269.120231 320.758603 
z
" clip-path="url(#p20524d21a9)" style="fill: #21599c"/>
   </g>
   <g id="patch_21">
    <path d="M 312.198462 381.719314 
L 363.801538 381.719314 
L 363.801538 382.243919 
L 331.323077 382.243919 
L 331.323077 382.744312 
L 361.877949 382.744312 
L 361.877949 383.268917 
L 331.323077 383.268917 
L 331.323077 384.409213 
L 312.198462 384.409213 
L 312.198462 381.719314 
z
" clip-path="url(#p20524d21a9)" style="fill: #21599c"/>
   </g>
   <g id="patch_22">
    <path d="M 311.65 372.81702 
L 324.68762 372.81702 
L 338.016162 379.16846 
L 351.323155 372.81702 
L 364.35 372.81702 
L 345.730985 381.422078 
L 330.269015 381.422078 
L 311.65 372.81702 
z
" clip-path="url(#p20524d21a9)" style="fill: #21599c"/>
   </g>
   <g id="patch_23">
    <path d="M 311.65 361.286284 
L 327.195992 361.286284 
L 337.979692 367.180635 
L 348.83447 361.286284 
L 364.35 361.286284 
L 364.35 372.300718 
L 352.80474 372.300718 
L 352.80474 364.244082 
L 341.889037 370.183284 
L 334.141426 370.183284 
L 323.225723 364.244082 
L 323.225723 372.300718 
L 311.65 372.300718 
L 311.65 361.286284 
z
" clip-path="url(#p20524d21a9)" style="fill: #21599c"/>
   </g>
   <g id="patch_24">
    <path d="M 328.437692 340.692757 
L 347.562308 340.692757 
L 347.562308 360.475824 
L 328.437692 360.475824 
L 328.437692 340.692757 
z
" clip-path="url(#p20524d21a9)" style="fill: #21599c"/>
   </g>
   <g id="patch_25">
    <path d="M 311.65 173.645686 
L 330.774615 173.645686 
L 330.774615 304.292466 
L 364.35 304.292466 
L 364.35 335.902241 
L 311.65 335.902241 
L 311.65 173.645686 
z
" clip-path="url(#p20524d21a9)" style="fill: #21599c"/>
   </g>
   <g id="patch_26">
    <path d="M 373.65 377.33346 
L 382.762642 377.33346 
L 389.132798 382.394012 
L 395.455534 377.33346 
L 404.615597 377.33346 
L 410.938332 382.394012 
L 417.316392 377.33346 
L 426.35 377.33346 
L 417.656239 384.296755 
L 406.694196 384.296755 
L 400 379.003397 
L 393.384838 384.296755 
L 382.414892 384.296755 
L 373.65 377.33346 
z
" clip-path="url(#p20524d21a9)" style="fill: #21599c"/>
   </g>
   <g id="patch_27">
    <path d="M 373.65 368.052103 
L 388.813382 368.052103 
L 388.813382 371.430085 
L 411.186618 371.430085 
L 411.186618 368.052103 
L 426.35 368.052103 
L 426.35 376.91693 
L 411.186618 376.91693 
L 411.186618 373.158973 
L 388.813382 373.158973 
L 388.813382 376.91693 
L 373.65 376.91693 
L 373.65 368.052103 
z
" clip-path="url(#p20524d21a9)" style="fill: #177875"/>
   </g>
   <g id="patch_28">
    <path d="M 374.198462 323.283674 
L 425.801538 323.283674 
L 425.801538 331.74656 
L 393.323077 331.74656 
L 393.323077 339.818852 
L 423.877949 339.818852 
L 423.877949 348.281738 
L 393.323077 348.281738 
L 393.323077 366.676891 
L 374.198462 366.676891 
L 374.198462 323.283674 
z
" clip-path="url(#p20524d21a9)" style="fill: #21599c"/>
   </g>
   <g id="patch_29">
    <path d="M 373.65 79.444722 
L 388.22 79.444722 
L 399.988929 163.72597 
L 411.746786 79.444722 
L 426.35 79.444722 
L 406.665 216.281384 
L 406.665 315.918746 
L 393.346071 315.918746 
L 393.346071 216.281384 
L 373.65 79.444722 
z
" clip-path="url(#p20524d21a9)" style="fill: #177875"/>
   </g>
   <g id="patch_30">
    <path d="M 463.405333 384.226384 
L 462.373292 384.226384 
Q 449.714313 384.226384 442.676667 384.064763 
Q 435.65 383.902888 435.65 383.614406 
Q 435.65 383.326431 442.665687 383.163287 
Q 449.681375 382.99989 462 382.99989 
Q 474.450375 382.99989 481.400187 383.161765 
Q 488.35 383.323386 488.35 383.614406 
Q 488.35 383.814085 484.661 383.958453 
Q 480.972 384.102821 474.044146 384.17564 
L 484.364562 384.442048 
L 471.771458 384.442048 
L 463.405333 384.226384 
z
M 462 383.221136 
Q 455.961458 383.221136 452.634771 383.324147 
Q 449.308083 383.427158 449.308083 383.614406 
Q 449.308083 383.804698 452.557917 383.905933 
Q 455.818729 384.006914 462 384.006914 
Q 468.071479 384.006914 471.398167 383.903903 
Q 474.724854 383.800638 474.724854 383.614406 
Q 474.724854 383.427158 471.398167 383.324147 
Q 468.071479 383.221136 462 383.221136 
z
" clip-path="url(#p20524d21a9)" style="fill: #40ba47"/>
   </g>
   <g id="patch_31">
    <path d="M 435.65 379.921671 
L 452.578032 379.921671 
L 473.968106 381.953261 
L 473.968106 379.921671 
L 488.35 379.921671 
L 488.35 382.883983 
L 471.409364 382.883983 
L 450.01929 380.852393 
L 450.01929 382.883983 
L 435.65 382.883983 
L 435.65 379.921671 
z
" clip-path="url(#p20524d21a9)" style="fill: #40ba47"/>
   </g>
   <g id="patch_32">
    <path d="M 435.65 368.739272 
L 450.22 368.739272 
L 461.988929 372.595505 
L 473.746786 368.739272 
L 488.35 368.739272 
L 468.665 375.000144 
L 468.665 379.558986 
L 455.346071 379.558986 
L 455.346071 375.000144 
L 435.65 368.739272 
z
" clip-path="url(#p20524d21a9)" style="fill: #177875"/>
   </g>
   <g id="patch_33">
    <path d="M 435.65 59.755364 
L 450.813382 59.755364 
L 450.813382 174.370371 
L 473.186618 174.370371 
L 473.186618 59.755364 
L 488.35 59.755364 
L 488.35 360.539179 
L 473.186618 360.539179 
L 473.186618 233.031595 
L 450.813382 233.031595 
L 450.813382 360.539179 
L 435.65 360.539179 
L 435.65 59.755364 
z
" clip-path="url(#p20524d21a9)" style="fill: #177875"/>
   </g>
   <g id="patch_34">
    <path d="M 545.955948 370.1805 
L 545.955948 373.16271 
Q 540.459804 372.64354 535.221293 372.380936 
Q 529.997094 372.115314 525.34541 372.115314 
Q 519.176562 372.115314 516.213797 372.474508 
Q 513.265345 372.830682 513.265345 373.58529 
Q 513.265345 374.152755 515.254834 374.469691 
Q 517.244324 374.783607 522.482835 375.00999 
L 529.811027 375.320888 
Q 540.946442 375.794782 545.641065 376.757661 
Q 550.35 377.717523 550.35 379.49236 
Q 550.35 381.819571 543.794704 382.957519 
Q 537.239408 384.095468 523.770994 384.095468 
Q 517.430391 384.095468 511.032537 383.838901 
Q 504.634682 383.585353 498.236828 383.084293 
L 498.236828 380.020586 
Q 504.634682 380.735954 510.60315 381.101184 
Q 516.571619 381.463396 522.125014 381.463396 
Q 527.764286 381.463396 530.755676 381.067981 
Q 533.747067 380.669548 533.747067 379.933051 
Q 533.747067 379.275033 531.714639 378.91584 
Q 529.682211 378.556646 523.59924 378.272914 
L 516.929441 377.962016 
Q 506.910429 377.509251 502.273058 376.519205 
Q 497.65 375.52916 497.65 373.850912 
Q 497.65 371.747066 504.090793 370.615154 
Q 510.531586 369.483242 522.611651 369.483242 
Q 528.122108 369.483242 533.933134 369.658311 
Q 539.744161 369.83338 545.955948 370.1805 
z
" clip-path="url(#p20524d21a9)" style="fill: #40ba47"/>
   </g>
   <g id="patch_35">
    <path d="M 497.65 239.904408 
L 550.35 239.904408 
L 550.35 264.454832 
L 531.390256 264.454832 
L 531.390256 365.786036 
L 516.646512 365.786036 
L 516.646512 264.454832 
L 497.65 264.454832 
L 497.65 239.904408 
z
" clip-path="url(#p20524d21a9)" style="fill: #40ba47"/>
   </g>
   <g id="patch_36">
    <path d="M 559.65 377.857255 
L 573.537864 377.857255 
L 573.537864 380.21245 
L 593.555783 377.857255 
L 609.683253 377.857255 
L 583.743078 380.913615 
L 612.35 384.310186 
L 594.964195 384.310186 
L 573.537864 381.76829 
L 573.537864 384.310186 
L 559.65 384.310186 
L 559.65 377.857255 
z
" clip-path="url(#p20524d21a9)" style="fill: #bd2e1f"/>
   </g>
   <g id="patch_37">
    <path d="M 587.405333 375.333333 
L 586.373292 375.333333 
Q 573.714313 375.333333 566.676667 373.833134 
Q 559.65 372.33058 559.65 369.652832 
Q 559.65 366.979793 566.665687 365.465464 
Q 573.681375 363.94878 586 363.94878 
Q 598.450375 363.94878 605.400187 365.451334 
Q 612.35 366.951532 612.35 369.652832 
Q 612.35 371.506295 608.661 372.846347 
Q 604.972 374.186399 598.044146 374.862313 
L 608.364562 377.335168 
L 595.771458 377.335168 
L 587.405333 375.333333 
z
M 586 366.002427 
Q 579.961458 366.002427 576.634771 366.958598 
Q 573.308083 367.914768 573.308083 369.652832 
Q 573.308083 371.419157 576.557917 372.358842 
Q 579.818729 373.296171 586 373.296171 
Q 592.071479 373.296171 595.398167 372.340001 
Q 598.724854 371.381475 598.724854 369.652832 
Q 598.724854 367.914768 595.398167 366.958598 
Q 592.071479 366.002427 586 366.002427 
z
" clip-path="url(#p20524d21a9)" style="fill: #40ba47"/>
   </g>
   <g id="patch_38">
    <path d="M 574.091481 351.12753 
L 574.091481 360.279658 
L 579.265444 360.279658 
Q 588.112802 360.279658 592.782574 359.103093 
Q 597.464351 357.926529 597.464351 355.685913 
Q 597.464351 353.458157 592.806583 352.294451 
Q 588.16082 351.12753 579.265444 351.12753 
L 574.091481 351.12753 
z
M 559.65 348.202193 
L 574.871777 348.202193 
Q 587.63262 348.202193 593.874989 348.690821 
Q 600.117358 349.176234 604.583052 350.343154 
Q 608.520547 351.358986 610.429271 352.686639 
Q 612.35 354.011077 612.35 355.685913 
Q 612.35 357.386467 610.429271 358.717335 
Q 608.520547 360.048202 604.583052 361.060819 
Q 600.081344 362.22774 593.778952 362.716367 
Q 587.47656 363.201781 574.871777 363.201781 
L 559.65 363.201781 
L 559.65 348.202193 
z
" clip-path="url(#p20524d21a9)" style="fill: #6b296b"/>
   </g>
   <g id="patch_39">
    <path d="M 559.65 179.829058 
L 611.253077 179.829058 
L 611.253077 211.749516 
L 578.774615 211.749516 
L 578.774615 242.196722 
L 609.329487 242.196722 
L 609.329487 274.11718 
L 578.774615 274.11718 
L 578.774615 311.614948 
L 612.35 311.614948 
L 612.35 343.500328 
L 559.65 343.500328 
L 559.65 179.829058 
z
" clip-path="url(#p20524d21a9)" style="fill: #6b296b"/>
   </g>
   <g id="matplotlib.axis_1">
    <g id="xtick_1">
     <g id="line2d_2">
      <defs>
       <path id="md38ad319ef" d="M 0 0 
L 0 4.8 
" style="stroke: #262626"/>
      </defs>
      <g>
       <use xlink:href="#md38ad319ef" x="152" y="384.48" style="fill: #262626; stroke: #262626"/>
      </g>
     </g>
     <g id="text_1">
      <!-- P4 -->
      <g style="fill: #262626" transform="translate(146.61825 399.078875) scale(0.088 -0.088)">
       <defs>
        <path id="ArialMT-50" d="M 494 0 
L 494 4581 
L 2222 4581 
Q 2678 4581 2919 4538 
Q 3256 4481 3484 4323 
Q 3713 4166 3852 3881 
Q 3991 3597 3991 3256 
Q 3991 2672 3619 2267 
Q 3247 1863 2275 1863 
L 1100 1863 
L 1100 0 
L 494 0 
z
M 1100 2403 
L 2284 2403 
Q 2872 2403 3119 2622 
Q 3366 2841 3366 3238 
Q 3366 3525 3220 3729 
Q 3075 3934 2838 4000 
Q 2684 4041 2272 4041 
L 1100 4041 
L 1100 2403 
z
" transform="scale(0.015625)"/>
        <path id="ArialMT-34" d="M 2069 0 
L 2069 1097 
L 81 1097 
L 81 1613 
L 2172 4581 
L 2631 4581 
L 2631 1613 
L 3250 1613 
L 3250 1097 
L 2631 1097 
L 2631 0 
L 2069 0 
z
M 2069 1613 
L 2069 3678 
L 634 1613 
L 2069 1613 
z
" transform="scale(0.015625)"/>
       </defs>
       <use xlink:href="#ArialMT-50"/>
       <use xlink:href="#ArialMT-34" x="66.699219"/>
      </g>
     </g>
    </g>
    <g id="xtick_2">
     <g id="line2d_3">
      <g>
       <use xlink:href="#md38ad319ef" x="214" y="384.48" style="fill: #262626; stroke: #262626"/>
      </g>
     </g>
     <g id="text_2">
      <!-- P3 -->
      <g style="fill: #262626" transform="translate(208.61825 399.078875) scale(0.088 -0.088)">
       <defs>
        <path id="ArialMT-33" d="M 269 1209 
L 831 1284 
Q 928 806 1161 595 
Q 1394 384 1728 384 
Q 2125 384 2398 659 
Q 2672 934 2672 1341 
Q 2672 1728 2419 1979 
Q 2166 2231 1775 2231 
Q 1616 2231 1378 2169 
L 1441 2663 
Q 1497 2656 1531 2656 
Q 1891 2656 2178 2843 
Q 2466 3031 2466 3422 
Q 2466 3731 2256 3934 
Q 2047 4138 1716 4138 
Q 1388 4138 1169 3931 
Q 950 3725 888 3313 
L 325 3413 
Q 428 3978 793 4289 
Q 1159 4600 1703 4600 
Q 2078 4600 2393 4439 
Q 2709 4278 2876 4000 
Q 3044 3722 3044 3409 
Q 3044 3113 2884 2869 
Q 2725 2625 2413 2481 
Q 2819 2388 3044 2092 
Q 3269 1797 3269 1353 
Q 3269 753 2831 336 
Q 2394 -81 1725 -81 
Q 1122 -81 723 278 
Q 325 638 269 1209 
z
" transform="scale(0.015625)"/>
       </defs>
       <use xlink:href="#ArialMT-50"/>
       <use xlink:href="#ArialMT-33" x="66.699219"/>
      </g>
     </g>
    </g>
    <g id="xtick_3">
     <g id="line2d_4">
      <g>
       <use xlink:href="#md38ad319ef" x="276" y="384.48" style="fill: #262626; stroke: #262626"/>
      </g>
     </g>
     <g id="text_3">
      <!-- P2 -->
      <g style="fill: #262626" transform="translate(270.61825 399.078875) scale(0.088 -0.088)">
       <defs>
        <path id="ArialMT-32" d="M 3222 541 
L 3222 0 
L 194 0 
Q 188 203 259 391 
Q 375 700 629 1000 
Q 884 1300 1366 1694 
Q 2113 2306 2375 2664 
Q 2638 3022 2638 3341 
Q 2638 3675 2398 3904 
Q 2159 4134 1775 4134 
Q 1369 4134 1125 3890 
Q 881 3647 878 3216 
L 300 3275 
Q 359 3922 746 4261 
Q 1134 4600 1788 4600 
Q 2447 4600 2831 4234 
Q 3216 3869 3216 3328 
Q 3216 3053 3103 2787 
Q 2991 2522 2730 2228 
Q 2469 1934 1863 1422 
Q 1356 997 1212 845 
Q 1069 694 975 541 
L 3222 541 
z
" transform="scale(0.015625)"/>
       </defs>
       <use xlink:href="#ArialMT-50"/>
       <use xlink:href="#ArialMT-32" x="66.699219"/>
      </g>
     </g>
    </g>
    <g id="xtick_4">
     <g id="line2d_5">
      <g>
       <use xlink:href="#md38ad319ef" x="338" y="384.48" style="fill: #262626; stroke: #262626"/>
      </g>
     </g>
     <g id="text_4">
      <!-- P1 -->
      <g style="fill: #262626" transform="translate(332.61825 399.078875) scale(0.088 -0.088)">
       <defs>
        <path id="ArialMT-31" d="M 2384 0 
L 1822 0 
L 1822 3584 
Q 1619 3391 1289 3197 
Q 959 3003 697 2906 
L 697 3450 
Q 1169 3672 1522 3987 
Q 1875 4303 2022 4600 
L 2384 4600 
L 2384 0 
z
" transform="scale(0.015625)"/>
       </defs>
       <use xlink:href="#ArialMT-50"/>
       <use xlink:href="#ArialMT-31" x="66.699219"/>
      </g>
     </g>
    </g>
    <g id="xtick_5">
     <g id="line2d_6">
      <g>
       <use xlink:href="#md38ad319ef" x="400" y="384.48" style="fill: #262626; stroke: #262626"/>
      </g>
     </g>
     <g id="text_5">
      <!-- P1' -->
      <g style="fill: #262626" transform="translate(393.778125 399.078875) scale(0.088 -0.088)">
       <defs>
        <path id="ArialMT-27" d="M 425 2959 
L 281 3816 
L 281 4581 
L 922 4581 
L 922 3816 
L 772 2959 
L 425 2959 
z
" transform="scale(0.015625)"/>
       </defs>
       <use xlink:href="#ArialMT-50"/>
       <use xlink:href="#ArialMT-31" x="66.699219"/>
       <use xlink:href="#ArialMT-27" x="122.314453"/>
      </g>
     </g>
    </g>
    <g id="xtick_6">
     <g id="line2d_7">
      <g>
       <use xlink:href="#md38ad319ef" x="462" y="384.48" style="fill: #262626; stroke: #262626"/>
      </g>
     </g>
     <g id="text_6">
      <!-- P2' -->
      <g style="fill: #262626" transform="translate(455.778125 399.078875) scale(0.088 -0.088)">
       <use xlink:href="#ArialMT-50"/>
       <use xlink:href="#ArialMT-32" x="66.699219"/>
       <use xlink:href="#ArialMT-27" x="122.314453"/>
      </g>
     </g>
    </g>
    <g id="xtick_7">
     <g id="line2d_8">
      <g>
       <use xlink:href="#md38ad319ef" x="524" y="384.48" style="fill: #262626; stroke: #262626"/>
      </g>
     </g>
     <g id="text_7">
      <!-- P3' -->
      <g style="fill: #262626" transform="translate(517.778125 399.078875) scale(0.088 -0.088)">
       <use xlink:href="#ArialMT-50"/>
       <use xlink:href="#ArialMT-33" x="66.699219"/>
       <use xlink:href="#ArialMT-27" x="122.314453"/>
      </g>
     </g>
    </g>
    <g id="xtick_8">
     <g id="line2d_9">
      <g>
       <use xlink:href="#md38ad319ef" x="586" y="384.48" style="fill: #262626; stroke: #262626"/>
      </g>
     </g>
     <g id="text_8">
      <!-- P4' -->
      <g style="fill: #262626" transform="translate(579.778125 399.078875) scale(0.088 -0.088)">
       <use xlink:href="#ArialMT-50"/>
       <use xlink:href="#ArialMT-34" x="66.699219"/>
       <use xlink:href="#ArialMT-27" x="122.314453"/>
      </g>
     </g>
    </g>
   </g>
   <g id="matplotlib.axis_2">
    <g id="ytick_1">
     <g id="line2d_10">
      <defs>
       <path id="m33bcb08037" d="M 0 0 
L -4.8 0 
" style="stroke: #262626"/>
      </defs>
      <g>
       <use xlink:href="#m33bcb08037" x="90" y="384.48" style="fill: #262626; stroke: #262626"/>
      </g>
     </g>
     <g id="text_9">
      <!-- 0.0 -->
      <g style="fill: #262626" transform="translate(69.468 387.629437) scale(0.088 -0.088)">
       <defs>
        <path id="ArialMT-30" d="M 266 2259 
Q 266 3072 433 3567 
Q 600 4063 929 4331 
Q 1259 4600 1759 4600 
Q 2128 4600 2406 4451 
Q 2684 4303 2865 4023 
Q 3047 3744 3150 3342 
Q 3253 2941 3253 2259 
Q 3253 1453 3087 958 
Q 2922 463 2592 192 
Q 2263 -78 1759 -78 
Q 1097 -78 719 397 
Q 266 969 266 2259 
z
M 844 2259 
Q 844 1131 1108 757 
Q 1372 384 1759 384 
Q 2147 384 2411 759 
Q 2675 1134 2675 2259 
Q 2675 3391 2411 3762 
Q 2147 4134 1753 4134 
Q 1366 4134 1134 3806 
Q 844 3388 844 2259 
z
" transform="scale(0.015625)"/>
        <path id="ArialMT-2e" d="M 581 0 
L 581 641 
L 1222 641 
L 1222 0 
L 581 0 
z
" transform="scale(0.015625)"/>
       </defs>
       <use xlink:href="#ArialMT-30"/>
       <use xlink:href="#ArialMT-2e" x="55.615234"/>
       <use xlink:href="#ArialMT-30" x="83.398438"/>
      </g>
     </g>
    </g>
    <g id="ytick_2">
     <g id="line2d_11">
      <g>
       <use xlink:href="#m33bcb08037" x="90" y="337.181339" style="fill: #262626; stroke: #262626"/>
      </g>
     </g>
     <g id="text_10">
      <!-- 0.2 -->
      <g style="fill: #262626" transform="translate(69.468 340.330776) scale(0.088 -0.088)">
       <use xlink:href="#ArialMT-30"/>
       <use xlink:href="#ArialMT-2e" x="55.615234"/>
       <use xlink:href="#ArialMT-32" x="83.398438"/>
      </g>
     </g>
    </g>
    <g id="ytick_3">
     <g id="line2d_12">
      <g>
       <use xlink:href="#m33bcb08037" x="90" y="289.882678" style="fill: #262626; stroke: #262626"/>
      </g>
     </g>
     <g id="text_11">
      <!-- 0.4 -->
      <g style="fill: #262626" transform="translate(69.468 293.032115) scale(0.088 -0.088)">
       <use xlink:href="#ArialMT-30"/>
       <use xlink:href="#ArialMT-2e" x="55.615234"/>
       <use xlink:href="#ArialMT-34" x="83.398438"/>
      </g>
     </g>
    </g>
    <g id="ytick_4">
     <g id="line2d_13">
      <g>
       <use xlink:href="#m33bcb08037" x="90" y="242.584016" style="fill: #262626; stroke: #262626"/>
      </g>
     </g>
     <g id="text_12">
      <!-- 0.6 -->
      <g style="fill: #262626" transform="translate(69.468 245.733454) scale(0.088 -0.088)">
       <defs>
        <path id="ArialMT-36" d="M 3184 3459 
L 2625 3416 
Q 2550 3747 2413 3897 
Q 2184 4138 1850 4138 
Q 1581 4138 1378 3988 
Q 1113 3794 959 3422 
Q 806 3050 800 2363 
Q 1003 2672 1297 2822 
Q 1591 2972 1913 2972 
Q 2475 2972 2870 2558 
Q 3266 2144 3266 1488 
Q 3266 1056 3080 686 
Q 2894 316 2569 119 
Q 2244 -78 1831 -78 
Q 1128 -78 684 439 
Q 241 956 241 2144 
Q 241 3472 731 4075 
Q 1159 4600 1884 4600 
Q 2425 4600 2770 4297 
Q 3116 3994 3184 3459 
z
M 888 1484 
Q 888 1194 1011 928 
Q 1134 663 1356 523 
Q 1578 384 1822 384 
Q 2178 384 2434 671 
Q 2691 959 2691 1453 
Q 2691 1928 2437 2201 
Q 2184 2475 1800 2475 
Q 1419 2475 1153 2201 
Q 888 1928 888 1484 
z
" transform="scale(0.015625)"/>
       </defs>
       <use xlink:href="#ArialMT-30"/>
       <use xlink:href="#ArialMT-2e" x="55.615234"/>
       <use xlink:href="#ArialMT-36" x="83.398438"/>
      </g>
     </g>
    </g>
    <g id="ytick_5">
     <g id="line2d_14">
      <g>
       <use xlink:href="#m33bcb08037" x="90" y="195.285355" style="fill: #262626; stroke: #262626"/>
      </g>
     </g>
     <g id="text_13">
      <!-- 0.8 -->
      <g style="fill: #262626" transform="translate(69.468 198.434793) scale(0.088 -0.088)">
       <defs>
        <path id="ArialMT-38" d="M 1131 2484 
Q 781 2613 612 2850 
Q 444 3088 444 3419 
Q 444 3919 803 4259 
Q 1163 4600 1759 4600 
Q 2359 4600 2725 4251 
Q 3091 3903 3091 3403 
Q 3091 3084 2923 2848 
Q 2756 2613 2416 2484 
Q 2838 2347 3058 2040 
Q 3278 1734 3278 1309 
Q 3278 722 2862 322 
Q 2447 -78 1769 -78 
Q 1091 -78 675 323 
Q 259 725 259 1325 
Q 259 1772 486 2073 
Q 713 2375 1131 2484 
z
M 1019 3438 
Q 1019 3113 1228 2906 
Q 1438 2700 1772 2700 
Q 2097 2700 2305 2904 
Q 2513 3109 2513 3406 
Q 2513 3716 2298 3927 
Q 2084 4138 1766 4138 
Q 1444 4138 1231 3931 
Q 1019 3725 1019 3438 
z
M 838 1322 
Q 838 1081 952 856 
Q 1066 631 1291 507 
Q 1516 384 1775 384 
Q 2178 384 2440 643 
Q 2703 903 2703 1303 
Q 2703 1709 2433 1975 
Q 2163 2241 1756 2241 
Q 1359 2241 1098 1978 
Q 838 1716 838 1322 
z
" transform="scale(0.015625)"/>
       </defs>
       <use xlink:href="#ArialMT-30"/>
       <use xlink:href="#ArialMT-2e" x="55.615234"/>
       <use xlink:href="#ArialMT-38" x="83.398438"/>
      </g>
     </g>
    </g>
    <g id="ytick_6">
     <g id="line2d_15">
      <g>
       <use xlink:href="#m33bcb08037" x="90" y="147.986694" style="fill: #262626; stroke: #262626"/>
      </g>
     </g>
     <g id="text_14">
      <!-- 1.0 -->
      <g style="fill: #262626" transform="translate(69.468 151.136131) scale(0.088 -0.088)">
       <use xlink:href="#ArialMT-31"/>
       <use xlink:href="#ArialMT-2e" x="55.615234"/>
       <use xlink:href="#ArialMT-30" x="83.398438"/>
      </g>
     </g>
    </g>
    <g id="ytick_7">
     <g id="line2d_16">
      <g>
       <use xlink:href="#m33bcb08037" x="90" y="100.688033" style="fill: #262626; stroke: #262626"/>
      </g>
     </g>
     <g id="text_15">
      <!-- 1.2 -->
      <g style="fill: #262626" transform="translate(69.468 103.83747) scale(0.088 -0.088)">
       <use xlink:href="#ArialMT-31"/>
       <use xlink:href="#ArialMT-2e" x="55.615234"/>
       <use xlink:href="#ArialMT-32" x="83.398438"/>
      </g>
     </g>
    </g>
    <g id="ytick_8">
     <g id="line2d_17">
      <g>
       <use xlink:href="#m33bcb08037" x="90" y="53.389371" style="fill: #262626; stroke: #262626"/>
      </g>
     </g>
     <g id="text_16">
      <!-- 1.4 -->
      <g style="fill: #262626" transform="translate(69.468 56.538809) scale(0.088 -0.088)">
       <use xlink:href="#ArialMT-31"/>
       <use xlink:href="#ArialMT-2e" x="55.615234"/>
       <use xlink:href="#ArialMT-34" x="83.398438"/>
      </g>
     </g>
    </g>
    <g id="text_17">
     <!-- information (bits) -->
     <g style="fill: #262626" transform="translate(63.4475 253.902) rotate(-90) scale(0.096 -0.096)">
      <defs>
       <path id="ArialMT-69" d="M 425 3934 
L 425 4581 
L 988 4581 
L 988 3934 
L 425 3934 
z
M 425 0 
L 425 3319 
L 988 3319 
L 988 0 
L 425 0 
z
" transform="scale(0.015625)"/>
       <path id="ArialMT-6e" d="M 422 0 
L 422 3319 
L 928 3319 
L 928 2847 
Q 1294 3394 1984 3394 
Q 2284 3394 2536 3286 
Q 2788 3178 2913 3003 
Q 3038 2828 3088 2588 
Q 3119 2431 3119 2041 
L 3119 0 
L 2556 0 
L 2556 2019 
Q 2556 2363 2490 2533 
Q 2425 2703 2258 2804 
Q 2091 2906 1866 2906 
Q 1506 2906 1245 2678 
Q 984 2450 984 1813 
L 984 0 
L 422 0 
z
" transform="scale(0.015625)"/>
       <path id="ArialMT-66" d="M 556 0 
L 556 2881 
L 59 2881 
L 59 3319 
L 556 3319 
L 556 3672 
Q 556 4006 616 4169 
Q 697 4388 901 4523 
Q 1106 4659 1475 4659 
Q 1713 4659 2000 4603 
L 1916 4113 
Q 1741 4144 1584 4144 
Q 1328 4144 1222 4034 
Q 1116 3925 1116 3625 
L 1116 3319 
L 1763 3319 
L 1763 2881 
L 1116 2881 
L 1116 0 
L 556 0 
z
" transform="scale(0.015625)"/>
       <path id="ArialMT-6f" d="M 213 1659 
Q 213 2581 725 3025 
Q 1153 3394 1769 3394 
Q 2453 3394 2887 2945 
Q 3322 2497 3322 1706 
Q 3322 1066 3130 698 
Q 2938 331 2570 128 
Q 2203 -75 1769 -75 
Q 1072 -75 642 372 
Q 213 819 213 1659 
z
M 791 1659 
Q 791 1022 1069 705 
Q 1347 388 1769 388 
Q 2188 388 2466 706 
Q 2744 1025 2744 1678 
Q 2744 2294 2464 2611 
Q 2184 2928 1769 2928 
Q 1347 2928 1069 2612 
Q 791 2297 791 1659 
z
" transform="scale(0.015625)"/>
       <path id="ArialMT-72" d="M 416 0 
L 416 3319 
L 922 3319 
L 922 2816 
Q 1116 3169 1280 3281 
Q 1444 3394 1641 3394 
Q 1925 3394 2219 3213 
L 2025 2691 
Q 1819 2813 1613 2813 
Q 1428 2813 1281 2702 
Q 1134 2591 1072 2394 
Q 978 2094 978 1738 
L 978 0 
L 416 0 
z
" transform="scale(0.015625)"/>
       <path id="ArialMT-6d" d="M 422 0 
L 422 3319 
L 925 3319 
L 925 2853 
Q 1081 3097 1340 3245 
Q 1600 3394 1931 3394 
Q 2300 3394 2536 3241 
Q 2772 3088 2869 2813 
Q 3263 3394 3894 3394 
Q 4388 3394 4653 3120 
Q 4919 2847 4919 2278 
L 4919 0 
L 4359 0 
L 4359 2091 
Q 4359 2428 4304 2576 
Q 4250 2725 4106 2815 
Q 3963 2906 3769 2906 
Q 3419 2906 3187 2673 
Q 2956 2441 2956 1928 
L 2956 0 
L 2394 0 
L 2394 2156 
Q 2394 2531 2256 2718 
Q 2119 2906 1806 2906 
Q 1569 2906 1367 2781 
Q 1166 2656 1075 2415 
Q 984 2175 984 1722 
L 984 0 
L 422 0 
z
" transform="scale(0.015625)"/>
       <path id="ArialMT-61" d="M 2588 409 
Q 2275 144 1986 34 
Q 1697 -75 1366 -75 
Q 819 -75 525 192 
Q 231 459 231 875 
Q 231 1119 342 1320 
Q 453 1522 633 1644 
Q 813 1766 1038 1828 
Q 1203 1872 1538 1913 
Q 2219 1994 2541 2106 
Q 2544 2222 2544 2253 
Q 2544 2597 2384 2738 
Q 2169 2928 1744 2928 
Q 1347 2928 1158 2789 
Q 969 2650 878 2297 
L 328 2372 
Q 403 2725 575 2942 
Q 747 3159 1072 3276 
Q 1397 3394 1825 3394 
Q 2250 3394 2515 3294 
Q 2781 3194 2906 3042 
Q 3031 2891 3081 2659 
Q 3109 2516 3109 2141 
L 3109 1391 
Q 3109 606 3145 398 
Q 3181 191 3288 0 
L 2700 0 
Q 2613 175 2588 409 
z
M 2541 1666 
Q 2234 1541 1622 1453 
Q 1275 1403 1131 1340 
Q 988 1278 909 1158 
Q 831 1038 831 891 
Q 831 666 1001 516 
Q 1172 366 1500 366 
Q 1825 366 2078 508 
Q 2331 650 2450 897 
Q 2541 1088 2541 1459 
L 2541 1666 
z
" transform="scale(0.015625)"/>
       <path id="ArialMT-74" d="M 1650 503 
L 1731 6 
Q 1494 -44 1306 -44 
Q 1000 -44 831 53 
Q 663 150 594 308 
Q 525 466 525 972 
L 525 2881 
L 113 2881 
L 113 3319 
L 525 3319 
L 525 4141 
L 1084 4478 
L 1084 3319 
L 1650 3319 
L 1650 2881 
L 1084 2881 
L 1084 941 
Q 1084 700 1114 631 
Q 1144 563 1211 522 
Q 1278 481 1403 481 
Q 1497 481 1650 503 
z
" transform="scale(0.015625)"/>
       <path id="ArialMT-20" transform="scale(0.015625)"/>
       <path id="ArialMT-28" d="M 1497 -1347 
Q 1031 -759 709 28 
Q 388 816 388 1659 
Q 388 2403 628 3084 
Q 909 3875 1497 4659 
L 1900 4659 
Q 1522 4009 1400 3731 
Q 1209 3300 1100 2831 
Q 966 2247 966 1656 
Q 966 153 1900 -1347 
L 1497 -1347 
z
" transform="scale(0.015625)"/>
       <path id="ArialMT-62" d="M 941 0 
L 419 0 
L 419 4581 
L 981 4581 
L 981 2947 
Q 1338 3394 1891 3394 
Q 2197 3394 2470 3270 
Q 2744 3147 2920 2923 
Q 3097 2700 3197 2384 
Q 3297 2069 3297 1709 
Q 3297 856 2875 390 
Q 2453 -75 1863 -75 
Q 1275 -75 941 416 
L 941 0 
z
M 934 1684 
Q 934 1088 1097 822 
Q 1363 388 1816 388 
Q 2184 388 2453 708 
Q 2722 1028 2722 1663 
Q 2722 2313 2464 2622 
Q 2206 2931 1841 2931 
Q 1472 2931 1203 2611 
Q 934 2291 934 1684 
z
" transform="scale(0.015625)"/>
       <path id="ArialMT-73" d="M 197 991 
L 753 1078 
Q 800 744 1014 566 
Q 1228 388 1613 388 
Q 2000 388 2187 545 
Q 2375 703 2375 916 
Q 2375 1106 2209 1216 
Q 2094 1291 1634 1406 
Q 1016 1563 777 1677 
Q 538 1791 414 1992 
Q 291 2194 291 2438 
Q 291 2659 392 2848 
Q 494 3038 669 3163 
Q 800 3259 1026 3326 
Q 1253 3394 1513 3394 
Q 1903 3394 2198 3281 
Q 2494 3169 2634 2976 
Q 2775 2784 2828 2463 
L 2278 2388 
Q 2241 2644 2061 2787 
Q 1881 2931 1553 2931 
Q 1166 2931 1000 2803 
Q 834 2675 834 2503 
Q 834 2394 903 2306 
Q 972 2216 1119 2156 
Q 1203 2125 1616 2013 
Q 2213 1853 2448 1751 
Q 2684 1650 2818 1456 
Q 2953 1263 2953 975 
Q 2953 694 2789 445 
Q 2625 197 2315 61 
Q 2006 -75 1616 -75 
Q 969 -75 630 194 
Q 291 463 197 991 
z
" transform="scale(0.015625)"/>
       <path id="ArialMT-29" d="M 791 -1347 
L 388 -1347 
Q 1322 153 1322 1656 
Q 1322 2244 1188 2822 
Q 1081 3291 891 3722 
Q 769 4003 388 4659 
L 791 4659 
Q 1378 3875 1659 3084 
Q 1900 2403 1900 1659 
Q 1900 816 1576 28 
Q 1253 -759 791 -1347 
z
" transform="scale(0.015625)"/>
      </defs>
      <use xlink:href="#ArialMT-69"/>
      <use xlink:href="#ArialMT-6e" x="22.216797"/>
      <use xlink:href="#ArialMT-66" x="77.832031"/>
      <use xlink:href="#ArialMT-6f" x="105.615234"/>
      <use xlink:href="#ArialMT-72" x="161.230469"/>
      <use xlink:href="#ArialMT-6d" x="194.53125"/>
      <use xlink:href="#ArialMT-61" x="277.832031"/>
      <use xlink:href="#ArialMT-74" x="333.447266"/>
      <use xlink:href="#ArialMT-69" x="361.230469"/>
      <use xlink:href="#ArialMT-6f" x="383.447266"/>
      <use xlink:href="#ArialMT-6e" x="439.0625"/>
      <use xlink:href="#ArialMT-20" x="494.677734"/>
      <use xlink:href="#ArialMT-28" x="522.460938"/>
      <use xlink:href="#ArialMT-62" x="555.761719"/>
      <use xlink:href="#ArialMT-69" x="611.376953"/>
      <use xlink:href="#ArialMT-74" x="633.59375"/>
      <use xlink:href="#ArialMT-73" x="661.376953"/>
      <use xlink:href="#ArialMT-29" x="711.376953"/>
     </g>
    </g>
   </g>
   <g id="line2d_18">
    <path d="M 369 384.48 
L 369 51.84 
" clip-path="url(#p20524d21a9)" style="fill: none; stroke: #daa520; stroke-width: 2; stroke-linecap: round"/>
   </g>
   <g id="patch_40">
    <path d="M 90 384.48 
L 648 384.48 
" style="fill: none; stroke: #262626; stroke-linejoin: miter; stroke-linecap: square"/>
   </g>
   <g id="patch_41">
    <path d="M 90 51.84 
L 648 51.84 
" style="fill: none; stroke: #262626; stroke-linejoin: miter; stroke-linecap: square"/>
   </g>
   <g id="text_18">
    <!-- Ctr vs. BAPI information content, Kullback n=1 -->
    <g style="fill: #262626" transform="translate(270.42375 45.84) scale(0.096 -0.096)">
     <defs>
      <path id="ArialMT-43" d="M 3763 1606 
L 4369 1453 
Q 4178 706 3683 314 
Q 3188 -78 2472 -78 
Q 1731 -78 1267 223 
Q 803 525 561 1097 
Q 319 1669 319 2325 
Q 319 3041 592 3573 
Q 866 4106 1370 4382 
Q 1875 4659 2481 4659 
Q 3169 4659 3637 4309 
Q 4106 3959 4291 3325 
L 3694 3184 
Q 3534 3684 3231 3912 
Q 2928 4141 2469 4141 
Q 1941 4141 1586 3887 
Q 1231 3634 1087 3207 
Q 944 2781 944 2328 
Q 944 1744 1114 1308 
Q 1284 872 1643 656 
Q 2003 441 2422 441 
Q 2931 441 3284 734 
Q 3638 1028 3763 1606 
z
" transform="scale(0.015625)"/>
      <path id="ArialMT-76" d="M 1344 0 
L 81 3319 
L 675 3319 
L 1388 1331 
Q 1503 1009 1600 663 
Q 1675 925 1809 1294 
L 2547 3319 
L 3125 3319 
L 1869 0 
L 1344 0 
z
" transform="scale(0.015625)"/>
      <path id="ArialMT-42" d="M 469 0 
L 469 4581 
L 2188 4581 
Q 2713 4581 3030 4442 
Q 3347 4303 3526 4014 
Q 3706 3725 3706 3409 
Q 3706 3116 3547 2856 
Q 3388 2597 3066 2438 
Q 3481 2316 3704 2022 
Q 3928 1728 3928 1328 
Q 3928 1006 3792 729 
Q 3656 453 3456 303 
Q 3256 153 2954 76 
Q 2653 0 2216 0 
L 469 0 
z
M 1075 2656 
L 2066 2656 
Q 2469 2656 2644 2709 
Q 2875 2778 2992 2937 
Q 3109 3097 3109 3338 
Q 3109 3566 3000 3739 
Q 2891 3913 2687 3977 
Q 2484 4041 1991 4041 
L 1075 4041 
L 1075 2656 
z
M 1075 541 
L 2216 541 
Q 2509 541 2628 563 
Q 2838 600 2978 687 
Q 3119 775 3209 942 
Q 3300 1109 3300 1328 
Q 3300 1584 3169 1773 
Q 3038 1963 2805 2039 
Q 2572 2116 2134 2116 
L 1075 2116 
L 1075 541 
z
" transform="scale(0.015625)"/>
      <path id="ArialMT-41" d="M -9 0 
L 1750 4581 
L 2403 4581 
L 4278 0 
L 3588 0 
L 3053 1388 
L 1138 1388 
L 634 0 
L -9 0 
z
M 1313 1881 
L 2866 1881 
L 2388 3150 
Q 2169 3728 2063 4100 
Q 1975 3659 1816 3225 
L 1313 1881 
z
" transform="scale(0.015625)"/>
      <path id="ArialMT-49" d="M 597 0 
L 597 4581 
L 1203 4581 
L 1203 0 
L 597 0 
z
" transform="scale(0.015625)"/>
      <path id="ArialMT-63" d="M 2588 1216 
L 3141 1144 
Q 3050 572 2676 248 
Q 2303 -75 1759 -75 
Q 1078 -75 664 370 
Q 250 816 250 1647 
Q 250 2184 428 2587 
Q 606 2991 970 3192 
Q 1334 3394 1763 3394 
Q 2303 3394 2647 3120 
Q 2991 2847 3088 2344 
L 2541 2259 
Q 2463 2594 2264 2762 
Q 2066 2931 1784 2931 
Q 1359 2931 1093 2626 
Q 828 2322 828 1663 
Q 828 994 1084 691 
Q 1341 388 1753 388 
Q 2084 388 2306 591 
Q 2528 794 2588 1216 
z
" transform="scale(0.015625)"/>
      <path id="ArialMT-65" d="M 2694 1069 
L 3275 997 
Q 3138 488 2766 206 
Q 2394 -75 1816 -75 
Q 1088 -75 661 373 
Q 234 822 234 1631 
Q 234 2469 665 2931 
Q 1097 3394 1784 3394 
Q 2450 3394 2872 2941 
Q 3294 2488 3294 1666 
Q 3294 1616 3291 1516 
L 816 1516 
Q 847 969 1125 678 
Q 1403 388 1819 388 
Q 2128 388 2347 550 
Q 2566 713 2694 1069 
z
M 847 1978 
L 2700 1978 
Q 2663 2397 2488 2606 
Q 2219 2931 1791 2931 
Q 1403 2931 1139 2672 
Q 875 2413 847 1978 
z
" transform="scale(0.015625)"/>
      <path id="ArialMT-2c" d="M 569 0 
L 569 641 
L 1209 641 
L 1209 0 
Q 1209 -353 1084 -570 
Q 959 -788 688 -906 
L 531 -666 
Q 709 -588 793 -436 
Q 878 -284 888 0 
L 569 0 
z
" transform="scale(0.015625)"/>
      <path id="ArialMT-4b" d="M 469 0 
L 469 4581 
L 1075 4581 
L 1075 2309 
L 3350 4581 
L 4172 4581 
L 2250 2725 
L 4256 0 
L 3456 0 
L 1825 2319 
L 1075 1588 
L 1075 0 
L 469 0 
z
" transform="scale(0.015625)"/>
      <path id="ArialMT-75" d="M 2597 0 
L 2597 488 
Q 2209 -75 1544 -75 
Q 1250 -75 995 37 
Q 741 150 617 320 
Q 494 491 444 738 
Q 409 903 409 1263 
L 409 3319 
L 972 3319 
L 972 1478 
Q 972 1038 1006 884 
Q 1059 663 1231 536 
Q 1403 409 1656 409 
Q 1909 409 2131 539 
Q 2353 669 2445 892 
Q 2538 1116 2538 1541 
L 2538 3319 
L 3100 3319 
L 3100 0 
L 2597 0 
z
" transform="scale(0.015625)"/>
      <path id="ArialMT-6c" d="M 409 0 
L 409 4581 
L 972 4581 
L 972 0 
L 409 0 
z
" transform="scale(0.015625)"/>
      <path id="ArialMT-6b" d="M 425 0 
L 425 4581 
L 988 4581 
L 988 1969 
L 2319 3319 
L 3047 3319 
L 1778 2088 
L 3175 0 
L 2481 0 
L 1384 1697 
L 988 1316 
L 988 0 
L 425 0 
z
" transform="scale(0.015625)"/>
      <path id="ArialMT-3d" d="M 3381 2694 
L 356 2694 
L 356 3219 
L 3381 3219 
L 3381 2694 
z
M 3381 1303 
L 356 1303 
L 356 1828 
L 3381 1828 
L 3381 1303 
z
" transform="scale(0.015625)"/>
     </defs>
     <use xlink:href="#ArialMT-43"/>
     <use xlink:href="#ArialMT-74" x="72.216797"/>
     <use xlink:href="#ArialMT-72" x="100"/>
     <use xlink:href="#ArialMT-20" x="133.300781"/>
     <use xlink:href="#ArialMT-76" x="161.083984"/>
     <use xlink:href="#ArialMT-73" x="211.083984"/>
     <use xlink:href="#ArialMT-2e" x="261.083984"/>
     <use xlink:href="#ArialMT-20" x="288.867188"/>
     <use xlink:href="#ArialMT-42" x="316.650391"/>
     <use xlink:href="#ArialMT-41" x="383.349609"/>
     <use xlink:href="#ArialMT-50" x="450.048828"/>
     <use xlink:href="#ArialMT-49" x="516.748047"/>
     <use xlink:href="#ArialMT-20" x="544.53125"/>
     <use xlink:href="#ArialMT-69" x="572.314453"/>
     <use xlink:href="#ArialMT-6e" x="594.53125"/>
     <use xlink:href="#ArialMT-66" x="650.146484"/>
     <use xlink:href="#ArialMT-6f" x="677.929688"/>
     <use xlink:href="#ArialMT-72" x="733.544922"/>
     <use xlink:href="#ArialMT-6d" x="766.845703"/>
     <use xlink:href="#ArialMT-61" x="850.146484"/>
     <use xlink:href="#ArialMT-74" x="905.761719"/>
     <use xlink:href="#ArialMT-69" x="933.544922"/>
     <use xlink:href="#ArialMT-6f" x="955.761719"/>
     <use xlink:href="#ArialMT-6e" x="1011.376953"/>
     <use xlink:href="#ArialMT-20" x="1066.992188"/>
     <use xlink:href="#ArialMT-63" x="1094.775391"/>
     <use xlink:href="#ArialMT-6f" x="1144.775391"/>
     <use xlink:href="#ArialMT-6e" x="1200.390625"/>
     <use xlink:href="#ArialMT-74" x="1256.005859"/>
     <use xlink:href="#ArialMT-65" x="1283.789062"/>
     <use xlink:href="#ArialMT-6e" x="1339.404297"/>
     <use xlink:href="#ArialMT-74" x="1395.019531"/>
     <use xlink:href="#ArialMT-2c" x="1422.802734"/>
     <use xlink:href="#ArialMT-20" x="1450.585938"/>
     <use xlink:href="#ArialMT-4b" x="1478.369141"/>
     <use xlink:href="#ArialMT-75" x="1545.068359"/>
     <use xlink:href="#ArialMT-6c" x="1600.683594"/>
     <use xlink:href="#ArialMT-6c" x="1622.900391"/>
     <use xlink:href="#ArialMT-62" x="1645.117188"/>
     <use xlink:href="#ArialMT-61" x="1700.732422"/>
     <use xlink:href="#ArialMT-63" x="1756.347656"/>
     <use xlink:href="#ArialMT-6b" x="1806.347656"/>
     <use xlink:href="#ArialMT-20" x="1856.347656"/>
     <use xlink:href="#ArialMT-6e" x="1884.130859"/>
     <use xlink:href="#ArialMT-3d" x="1939.746094"/>
     <use xlink:href="#ArialMT-31" x="1998.144531"/>
    </g>
   </g>
  </g>
 </g>
 <defs>
  <clipPath id="p20524d21a9">
   <rect x="90" y="51.84" width="558" height="332.64"/>
  </clipPath>
 </defs>
</svg>
