<?xml version="1.0" encoding="utf-8" standalone="no"?>
<!DOCTYPE svg PUBLIC "-//W3C//DTD SVG 1.1//EN"
  "http://www.w3.org/Graphics/SVG/1.1/DTD/svg11.dtd">
<svg xmlns:xlink="http://www.w3.org/1999/xlink" width="720pt" height="432pt" viewBox="0 0 720 432" xmlns="http://www.w3.org/2000/svg" version="1.1">
 <metadata>
  <rdf:RDF xmlns:dc="http://purl.org/dc/elements/1.1/" xmlns:cc="http://creativecommons.org/ns#" xmlns:rdf="http://www.w3.org/1999/02/22-rdf-syntax-ns#">
   <cc:Work>
    <dc:type rdf:resource="http://purl.org/dc/dcmitype/StillImage"/>
    <dc:date>2023-11-10T15:28:36.377692</dc:date>
    <dc:format>image/svg+xml</dc:format>
    <dc:creator>
     <cc:Agent>
      <dc:title>Matplotlib v3.7.1, https://matplotlib.org/</dc:title>
     </cc:Agent>
    </dc:creator>
   </cc:Work>
  </rdf:RDF>
 </metadata>
 <defs>
  <style type="text/css">*{stroke-linejoin: round; stroke-linecap: butt}</style>
 </defs>
 <g id="figure_1">
  <g id="patch_1">
   <path d="M 0 432 
L 720 432 
L 720 0 
L 0 0 
z
" style="fill: #ffffff"/>
  </g>
  <g id="axes_1">
   <g id="patch_2">
    <path d="M 90 384.48 
L 648 384.48 
L 648 51.84 
L 90 51.84 
z
" style="fill: #ffffff"/>
   </g>
   <g id="line2d_1">
    <path d="M 90 384.48 
L 648 384.48 
" clip-path="url(#pe23caecffb)" style="fill: none; stroke: #000000; stroke-width: 0.5; stroke-linecap: round"/>
   </g>
   <g id="patch_3">
    <path d="M 125.65 352.0476 
L 139.537864 352.0476 
L 139.537864 363.581282 
L 159.555783 352.0476 
L 175.683253 352.0476 
L 149.743078 367.014974 
L 178.35 383.6484 
L 160.964195 383.6484 
L 139.537864 371.200421 
L 139.537864 383.6484 
L 125.65 383.6484 
L 125.65 352.0476 
z
" clip-path="url(#pe23caecffb)" style="fill: #bd2e1f"/>
   </g>
   <g id="patch_4">
    <path d="M 125.65 318.7836 
L 177.253077 318.7836 
L 177.253077 324.946636 
L 144.774615 324.946636 
L 144.774615 330.825225 
L 175.329487 330.825225 
L 175.329487 336.988261 
L 144.774615 336.988261 
L 144.774615 344.228136 
L 178.35 344.228136 
L 178.35 350.3844 
L 125.65 350.3844 
L 125.65 318.7836 
z
" clip-path="url(#pe23caecffb)" style="fill: #6b296b"/>
   </g>
   <g id="patch_5">
    <path d="M 125.65 285.5196 
L 153.043021 285.5196 
Q 165.271068 285.5196 171.803672 288.201537 
Q 178.35 290.876701 178.35 295.827448 
Q 178.35 300.805285 171.803672 303.480449 
Q 165.271068 306.155613 153.043021 306.155613 
L 142.159922 306.155613 
L 142.159922 317.1204 
L 125.65 317.1204 
L 125.65 285.5196 
z
M 142.159922 291.425279 
L 142.159922 300.249934 
L 151.286354 300.249934 
Q 156.08974 300.249934 158.711016 299.098598 
Q 161.332292 297.947261 161.332292 295.827448 
Q 161.332292 293.714407 158.711016 292.569843 
Q 156.08974 291.425279 151.286354 291.425279 
L 142.159922 291.425279 
z
" clip-path="url(#pe23caecffb)" style="fill: #787800"/>
   </g>
   <g id="patch_6">
    <path d="M 125.65 252.2556 
L 138.68762 252.2556 
L 152.016162 275.580323 
L 165.323155 252.2556 
L 178.35 252.2556 
L 159.730985 283.8564 
L 144.269015 283.8564 
L 125.65 252.2556 
z
" clip-path="url(#pe23caecffb)" style="fill: #21599c"/>
   </g>
   <g id="patch_7">
    <path d="M 125.65 218.9916 
L 140.813382 218.9916 
L 140.813382 231.033225 
L 163.186618 231.033225 
L 163.186618 218.9916 
L 178.35 218.9916 
L 178.35 250.5924 
L 163.186618 250.5924 
L 163.186618 237.196261 
L 140.813382 237.196261 
L 140.813382 250.5924 
L 125.65 250.5924 
L 125.65 218.9916 
z
" clip-path="url(#pe23caecffb)" style="fill: #177875"/>
   </g>
   <g id="patch_8">
    <path d="M 125.65 185.7276 
L 144.774615 185.7276 
L 144.774615 211.172136 
L 178.35 211.172136 
L 178.35 217.3284 
L 125.65 217.3284 
L 125.65 185.7276 
z
" clip-path="url(#pe23caecffb)" style="fill: #21599c"/>
   </g>
   <g id="patch_9">
    <path d="M 147.032787 148.056084 
Q 151.762274 148.056084 153.814221 146.159765 
Q 155.866168 144.249901 155.866168 139.888368 
Q 155.866168 135.56747 153.814221 133.711786 
Q 151.762274 131.842558 147.032787 131.842558 
L 140.701781 131.842558 
L 140.701781 148.056084 
L 147.032787 148.056084 
z
M 140.701781 159.312092 
L 140.701781 183.2328 
L 125.65 183.2328 
L 125.65 120.0312 
L 148.634307 120.0312 
Q 160.170252 120.0312 165.537844 124.230192 
Q 170.917949 128.415639 170.917949 137.477334 
Q 170.917949 143.735186 168.11529 147.758091 
Q 165.325142 151.780996 159.694801 153.690861 
Q 162.785233 154.449388 165.225047 157.14487 
Q 167.677374 159.826807 170.179748 165.285496 
L 178.35 183.2328 
L 162.322293 183.2328 
L 155.203039 167.533989 
Q 153.050997 162.793191 150.836396 161.059414 
Q 148.634307 159.312092 144.955817 159.312092 
L 140.701781 159.312092 
z
" clip-path="url(#pe23caecffb)" style="fill: #bd2e1f"/>
   </g>
   <g id="patch_10">
    <path d="M 173.955948 56.519017 
L 173.955948 69.417835 
Q 168.459804 67.172292 163.221293 66.036465 
Q 157.997094 64.887582 153.34541 64.887582 
Q 147.176562 64.887582 144.213797 66.441185 
Q 141.265345 67.981732 141.265345 71.245603 
Q 141.265345 73.700034 143.254834 75.07086 
Q 145.244324 76.428631 150.482835 77.407792 
L 157.811027 78.752507 
Q 168.946442 80.802218 173.641065 84.966917 
Q 178.35 89.118561 178.35 96.795186 
Q 178.35 106.860965 171.794704 111.782882 
Q 165.239408 116.7048 151.770994 116.7048 
Q 145.430391 116.7048 139.032537 115.595084 
Q 132.634682 114.498423 126.236828 112.331213 
L 126.236828 99.079896 
Q 132.634682 102.174046 138.60315 103.753759 
Q 144.571619 105.320418 150.125014 105.320418 
Q 155.764286 105.320418 158.755676 103.610149 
Q 161.747067 101.886825 161.747067 98.701287 
Q 161.747067 95.855191 159.714639 94.301589 
Q 157.682211 92.747986 151.59924 91.520771 
L 144.929441 90.176056 
Q 134.910429 88.217733 130.273058 83.935534 
Q 125.65 79.653335 125.65 72.394486 
Q 125.65 63.294813 132.090793 58.399007 
Q 138.531586 53.5032 150.611651 53.5032 
Q 156.122108 53.5032 161.933134 54.260418 
Q 167.744161 55.017636 173.955948 56.519017 
z
" clip-path="url(#pe23caecffb)" style="fill: #40ba47"/>
   </g>
   <g id="patch_11">
    <path d="M 224.155336 377.891718 
L 203.887763 377.891718 
L 200.68762 383.6484 
L 187.65 383.6484 
L 206.269015 352.0476 
L 221.730985 352.0476 
L 240.35 383.6484 
L 227.323155 383.6484 
L 224.155336 377.891718 
z
M 207.120231 372.026674 
L 220.890544 372.026674 
L 214.016162 359.456789 
L 207.120231 372.026674 
z
" clip-path="url(#pe23caecffb)" style="fill: #21599c"/>
   </g>
   <g id="patch_12">
    <path d="M 235.955948 289.367017 
L 235.955948 302.265835 
Q 230.459804 300.020292 225.221293 298.884465 
Q 219.997094 297.735582 215.34541 297.735582 
Q 209.176562 297.735582 206.213797 299.289185 
Q 203.265345 300.829732 203.265345 304.093603 
Q 203.265345 306.548034 205.254834 307.91886 
Q 207.244324 309.276631 212.482835 310.255792 
L 219.811027 311.600507 
Q 230.946442 313.650218 235.641065 317.814917 
Q 240.35 321.966561 240.35 329.643186 
Q 240.35 339.708965 233.794704 344.630882 
Q 227.239408 349.5528 213.770994 349.5528 
Q 207.430391 349.5528 201.032537 348.443084 
Q 194.634682 347.346423 188.236828 345.179213 
L 188.236828 331.927896 
Q 194.634682 335.022046 200.60315 336.601759 
Q 206.571619 338.168418 212.125014 338.168418 
Q 217.764286 338.168418 220.755676 336.458149 
Q 223.747067 334.734825 223.747067 331.549287 
Q 223.747067 328.703191 221.714639 327.149589 
Q 219.682211 325.595986 213.59924 324.368771 
L 206.929441 323.024056 
Q 196.910429 321.065733 192.273058 316.783534 
Q 187.65 312.501335 187.65 305.242486 
Q 187.65 296.142813 194.090793 291.247007 
Q 200.531586 286.3512 212.611651 286.3512 
Q 218.122108 286.3512 223.933134 287.108418 
Q 229.744161 287.865636 235.955948 289.367017 
z
" clip-path="url(#pe23caecffb)" style="fill: #40ba47"/>
   </g>
   <g id="patch_13">
    <path d="M 187.65 57.6612 
L 215.043021 57.6612 
Q 227.271068 57.6612 233.803672 76.434757 
Q 240.35 95.160906 240.35 129.816134 
Q 240.35 164.660994 233.803672 183.387143 
Q 227.271068 202.113292 215.043021 202.113292 
L 204.159922 202.113292 
L 204.159922 278.8668 
L 187.65 278.8668 
L 187.65 57.6612 
z
M 204.159922 99.000952 
L 204.159922 160.77354 
L 213.286354 160.77354 
Q 218.08974 160.77354 220.711016 152.714185 
Q 223.332292 144.65483 223.332292 129.816134 
Q 223.332292 115.024847 220.711016 107.012899 
Q 218.08974 99.000952 213.286354 99.000952 
L 204.159922 99.000952 
z
" clip-path="url(#pe23caecffb)" style="fill: #787800"/>
   </g>
   <g id="patch_14">
    <path d="M 266.437692 352.0476 
L 285.562308 352.0476 
L 285.562308 383.6484 
L 266.437692 383.6484 
L 266.437692 352.0476 
z
" clip-path="url(#pe23caecffb)" style="fill: #21599c"/>
   </g>
   <g id="patch_15">
    <path d="M 297.955948 320.291508 
L 297.955948 326.740918 
Q 292.459804 325.618146 287.221293 325.050233 
Q 281.997094 324.475791 277.34541 324.475791 
Q 271.176562 324.475791 268.213797 325.252593 
Q 265.265345 326.022866 265.265345 327.654802 
Q 265.265345 328.882017 267.254834 329.56743 
Q 269.244324 330.246315 274.482835 330.735896 
L 281.811027 331.408253 
Q 292.946442 332.433109 297.641065 334.515459 
Q 302.35 336.591281 302.35 340.429593 
Q 302.35 345.462482 295.794704 347.923441 
Q 289.239408 350.3844 275.770994 350.3844 
Q 269.430391 350.3844 263.032537 349.829542 
Q 256.634682 349.281212 250.236828 348.197606 
L 250.236828 341.571948 
Q 256.634682 343.119023 262.60315 343.90888 
Q 268.571619 344.692209 274.125014 344.692209 
Q 279.764286 344.692209 282.755676 343.837075 
Q 285.747067 342.975413 285.747067 341.382644 
Q 285.747067 339.959596 283.714639 339.182794 
Q 281.682211 338.405993 275.59924 337.792385 
L 268.929441 337.120028 
Q 258.910429 336.140867 254.273058 333.999767 
Q 249.65 331.858668 249.65 328.229243 
Q 249.65 323.679407 256.090793 321.231503 
Q 262.531586 318.7836 274.611651 318.7836 
Q 280.122108 318.7836 285.933134 319.162209 
Q 291.744161 319.540818 297.955948 320.291508 
z
" clip-path="url(#pe23caecffb)" style="fill: #40ba47"/>
   </g>
   <g id="patch_16">
    <path d="M 249.65 285.5196 
L 302.35 285.5196 
L 302.35 291.682636 
L 283.390256 291.682636 
L 283.390256 317.1204 
L 268.646512 317.1204 
L 268.646512 291.682636 
L 249.65 291.682636 
L 249.65 285.5196 
z
" clip-path="url(#pe23caecffb)" style="fill: #40ba47"/>
   </g>
   <g id="patch_17">
    <path d="M 249.65 252.2556 
L 262.68762 252.2556 
L 276.016162 275.580323 
L 289.323155 252.2556 
L 302.35 252.2556 
L 283.730985 283.8564 
L 268.269015 283.8564 
L 249.65 252.2556 
z
" clip-path="url(#pe23caecffb)" style="fill: #21599c"/>
   </g>
   <g id="patch_18">
    <path d="M 249.65 218.9916 
L 264.22 218.9916 
L 275.988929 230.25438 
L 287.746786 218.9916 
L 302.35 218.9916 
L 282.665 237.277532 
L 282.665 250.5924 
L 269.346071 250.5924 
L 269.346071 237.277532 
L 249.65 218.9916 
z
" clip-path="url(#pe23caecffb)" style="fill: #177875"/>
   </g>
   <g id="patch_19">
    <path d="M 249.65 153.2952 
L 263.537864 153.2952 
L 263.537864 176.362565 
L 283.555783 153.2952 
L 299.683253 153.2952 
L 273.743078 183.229948 
L 302.35 216.4968 
L 284.964195 216.4968 
L 263.537864 191.600842 
L 263.537864 216.4968 
L 249.65 216.4968 
L 249.65 153.2952 
z
" clip-path="url(#pe23caecffb)" style="fill: #bd2e1f"/>
   </g>
   <g id="patch_20">
    <path d="M 271.032787 96.372127 
Q 275.762274 96.372127 277.814221 93.527648 
Q 279.866168 90.662852 279.866168 84.120552 
Q 279.866168 77.639205 277.814221 74.85568 
Q 275.762274 72.051837 271.032787 72.051837 
L 264.701781 72.051837 
L 264.701781 96.372127 
L 271.032787 96.372127 
z
M 264.701781 113.256137 
L 264.701781 149.1372 
L 249.65 149.1372 
L 249.65 54.3348 
L 272.634307 54.3348 
Q 284.170252 54.3348 289.537844 60.633288 
Q 294.917949 66.911458 294.917949 80.504001 
Q 294.917949 89.890779 292.11529 95.925137 
Q 289.325142 101.959495 283.694801 104.824291 
Q 286.785233 105.962082 289.225047 110.005305 
Q 291.677374 114.02821 294.179748 122.216244 
L 302.35 149.1372 
L 286.322293 149.1372 
L 279.203039 125.588983 
Q 277.050997 118.477787 274.836396 115.877121 
Q 272.634307 113.256137 268.955817 113.256137 
L 264.701781 113.256137 
z
" clip-path="url(#pe23caecffb)" style="fill: #bd2e1f"/>
   </g>
   <g id="patch_21">
    <path d="M 359.955948 353.555508 
L 359.955948 360.004918 
Q 354.459804 358.882146 349.221293 358.314233 
Q 343.997094 357.739791 339.34541 357.739791 
Q 333.176562 357.739791 330.213797 358.516593 
Q 327.265345 359.286866 327.265345 360.918802 
Q 327.265345 362.146017 329.254834 362.83143 
Q 331.244324 363.510315 336.482835 363.999896 
L 343.811027 364.672253 
Q 354.946442 365.697109 359.641065 367.779459 
Q 364.35 369.855281 364.35 373.693593 
Q 364.35 378.726482 357.794704 381.187441 
Q 351.239408 383.6484 337.770994 383.6484 
Q 331.430391 383.6484 325.032537 383.093542 
Q 318.634682 382.545212 312.236828 381.461606 
L 312.236828 374.835948 
Q 318.634682 376.383023 324.60315 377.17288 
Q 330.571619 377.956209 336.125014 377.956209 
Q 341.764286 377.956209 344.755676 377.101075 
Q 347.747067 376.239413 347.747067 374.646644 
Q 347.747067 373.223596 345.714639 372.446794 
Q 343.682211 371.669993 337.59924 371.056385 
L 330.929441 370.384028 
Q 320.910429 369.404867 316.273058 367.263767 
Q 311.65 365.122668 311.65 361.493243 
Q 311.65 356.943407 318.090793 354.495503 
Q 324.531586 352.0476 336.611651 352.0476 
Q 342.122108 352.0476 347.933134 352.426209 
Q 353.744161 352.804818 359.955948 353.555508 
z
" clip-path="url(#pe23caecffb)" style="fill: #40ba47"/>
   </g>
   <g id="patch_22">
    <path d="M 333.032787 332.796042 
Q 337.762274 332.796042 339.814221 331.847883 
Q 341.866168 330.892951 341.866168 328.712184 
Q 341.866168 326.551735 339.814221 325.623893 
Q 337.762274 324.689279 333.032787 324.689279 
L 326.701781 324.689279 
L 326.701781 332.796042 
L 333.032787 332.796042 
z
M 326.701781 338.424046 
L 326.701781 350.3844 
L 311.65 350.3844 
L 311.65 318.7836 
L 334.634307 318.7836 
Q 346.170252 318.7836 351.537844 320.883096 
Q 356.917949 322.975819 356.917949 327.506667 
Q 356.917949 330.635593 354.11529 332.647046 
Q 351.325142 334.658498 345.694801 335.61343 
Q 348.785233 335.992694 351.225047 337.340435 
Q 353.677374 338.681403 356.179748 341.410748 
L 364.35 350.3844 
L 348.322293 350.3844 
L 341.203039 342.534994 
Q 339.050997 340.164596 336.836396 339.297707 
Q 334.634307 338.424046 330.955817 338.424046 
L 326.701781 338.424046 
z
" clip-path="url(#pe23caecffb)" style="fill: #bd2e1f"/>
   </g>
   <g id="patch_23">
    <path d="M 311.65 285.5196 
L 330.774615 285.5196 
L 330.774615 310.964136 
L 364.35 310.964136 
L 364.35 317.1204 
L 311.65 317.1204 
L 311.65 285.5196 
z
" clip-path="url(#pe23caecffb)" style="fill: #21599c"/>
   </g>
   <g id="patch_24">
    <path d="M 311.65 252.2556 
L 328.578032 252.2556 
L 349.968106 273.927816 
L 349.968106 252.2556 
L 364.35 252.2556 
L 364.35 283.8564 
L 347.409364 283.8564 
L 326.01929 262.184184 
L 326.01929 283.8564 
L 311.65 283.8564 
L 311.65 252.2556 
z
" clip-path="url(#pe23caecffb)" style="fill: #40ba47"/>
   </g>
   <g id="patch_25">
    <path d="M 311.65 218.9916 
L 326.813382 218.9916 
L 326.813382 231.033225 
L 349.186618 231.033225 
L 349.186618 218.9916 
L 364.35 218.9916 
L 364.35 250.5924 
L 349.186618 250.5924 
L 349.186618 237.196261 
L 326.813382 237.196261 
L 326.813382 250.5924 
L 311.65 250.5924 
L 311.65 218.9916 
z
" clip-path="url(#pe23caecffb)" style="fill: #177875"/>
   </g>
   <g id="patch_26">
    <path d="M 312.198462 185.7276 
L 363.801538 185.7276 
L 363.801538 191.890636 
L 331.323077 191.890636 
L 331.323077 197.769225 
L 361.877949 197.769225 
L 361.877949 203.932261 
L 331.323077 203.932261 
L 331.323077 217.3284 
L 312.198462 217.3284 
L 312.198462 185.7276 
z
" clip-path="url(#pe23caecffb)" style="fill: #21599c"/>
   </g>
   <g id="patch_27">
    <path d="M 364.35 181.799273 
Q 359.941736 182.922045 355.174969 183.489959 
Q 350.408201 184.0644 345.216541 184.0644 
Q 329.734505 184.0644 320.692252 179.808312 
Q 311.65 175.552224 311.65 168.273792 
Q 311.65 160.969248 320.692252 156.719688 
Q 329.734505 152.4636 345.216541 152.4636 
Q 350.408201 152.4636 355.174969 153.038041 
Q 359.941736 153.605955 364.35 154.728727 
L 364.35 161.027998 
Q 359.901902 159.539673 355.586584 158.847732 
Q 351.271265 158.155791 346.504497 158.155791 
Q 337.953527 158.155791 333.053981 160.851749 
Q 328.167712 163.541179 328.167712 168.273792 
Q 328.167712 172.986821 333.053981 175.682779 
Q 337.953527 178.372209 346.504497 178.372209 
Q 351.271265 178.372209 355.586584 177.680268 
Q 359.901902 176.9818 364.35 175.493474 
L 364.35 181.799273 
z
" clip-path="url(#pe23caecffb)" style="fill: #6b296b"/>
   </g>
   <g id="patch_28">
    <path d="M 339.405333 146.074735 
L 338.373292 146.074735 
Q 325.714313 146.074735 318.676667 142.533266 
Q 311.65 138.986237 311.65 132.664966 
Q 311.65 126.354813 318.665687 122.779986 
Q 325.681375 119.1996 338 119.1996 
Q 350.450375 119.1996 357.400188 122.746629 
Q 364.35 126.288098 364.35 132.664966 
Q 364.35 137.040375 360.661 140.203791 
Q 356.972 143.367207 350.044146 144.962814 
L 360.364563 150.8004 
L 347.771458 150.8004 
L 339.405333 146.074735 
z
M 338 124.047576 
Q 331.961458 124.047576 328.634771 126.304776 
Q 325.308083 128.561976 325.308083 132.664966 
Q 325.308083 136.83467 328.557917 139.052953 
Q 331.818729 141.265676 338 141.265676 
Q 344.071479 141.265676 347.398167 139.008476 
Q 350.724854 136.745716 350.724854 132.664966 
Q 350.724854 128.561976 347.398167 126.304776 
Q 344.071479 124.047576 338 124.047576 
z
" clip-path="url(#pe23caecffb)" style="fill: #40ba47"/>
   </g>
   <g id="patch_29">
    <path d="M 348.155336 105.191435 
L 327.887763 105.191435 
L 324.68762 116.7048 
L 311.65 116.7048 
L 330.269015 53.5032 
L 345.730985 53.5032 
L 364.35 116.7048 
L 351.323155 116.7048 
L 348.155336 105.191435 
z
M 331.120231 93.461348 
L 344.890544 93.461348 
L 338.016162 68.321578 
L 331.120231 93.461348 
z
" clip-path="url(#pe23caecffb)" style="fill: #21599c"/>
   </g>
   <g id="patch_30">
    <path d="M 373.65 352.0476 
L 388.22 352.0476 
L 399.988929 363.31038 
L 411.746786 352.0476 
L 426.35 352.0476 
L 406.665 370.333532 
L 406.665 383.6484 
L 393.346071 383.6484 
L 393.346071 370.333532 
L 373.65 352.0476 
z
" clip-path="url(#pe23caecffb)" style="fill: #177875"/>
   </g>
   <g id="patch_31">
    <path d="M 388.091481 324.946636 
L 388.091481 344.228136 
L 393.265444 344.228136 
Q 402.112802 344.228136 406.782574 341.749376 
Q 411.464351 339.270617 411.464351 334.550137 
Q 411.464351 329.856748 406.806583 327.405078 
Q 402.16082 324.946636 393.265444 324.946636 
L 388.091481 324.946636 
z
M 373.65 318.7836 
L 388.871777 318.7836 
Q 401.63262 318.7836 407.874989 319.81303 
Q 414.117358 320.835688 418.583052 323.29413 
Q 422.520547 325.434261 424.429271 328.231332 
Q 426.35 331.021629 426.35 334.550137 
Q 426.35 338.132825 424.429271 340.936668 
Q 422.520547 343.740511 418.583052 345.87387 
Q 414.081344 348.332312 407.778952 349.361742 
Q 401.47656 350.3844 388.871777 350.3844 
L 373.65 350.3844 
L 373.65 318.7836 
z
" clip-path="url(#pe23caecffb)" style="fill: #6b296b"/>
   </g>
   <g id="patch_32">
    <path d="M 401.405333 312.394735 
L 400.373292 312.394735 
Q 387.714313 312.394735 380.676667 308.853266 
Q 373.65 305.306237 373.65 298.984966 
Q 373.65 292.674813 380.665687 289.099986 
Q 387.681375 285.5196 400 285.5196 
Q 412.450375 285.5196 419.400188 289.066629 
Q 426.35 292.608098 426.35 298.984966 
Q 426.35 303.360375 422.661 306.523791 
Q 418.972 309.687207 412.044146 311.282814 
L 422.364563 317.1204 
L 409.771458 317.1204 
L 401.405333 312.394735 
z
M 400 290.367576 
Q 393.961458 290.367576 390.634771 292.624776 
Q 387.308083 294.881976 387.308083 298.984966 
Q 387.308083 303.15467 390.557917 305.372953 
Q 393.818729 307.585676 400 307.585676 
Q 406.071479 307.585676 409.398167 305.328476 
Q 412.724854 303.065716 412.724854 298.984966 
Q 412.724854 294.881976 409.398167 292.624776 
Q 406.071479 290.367576 400 290.367576 
z
" clip-path="url(#pe23caecffb)" style="fill: #40ba47"/>
   </g>
   <g id="patch_33">
    <path d="M 373.65 219.8232 
L 386.68762 219.8232 
L 400.016162 266.472645 
L 413.323155 219.8232 
L 426.35 219.8232 
L 407.730985 283.0248 
L 392.269015 283.0248 
L 373.65 219.8232 
z
" clip-path="url(#pe23caecffb)" style="fill: #21599c"/>
   </g>
   <g id="patch_34">
    <path d="M 373.65 55.998 
L 392.774615 55.998 
L 392.774615 183.220681 
L 426.35 183.220681 
L 426.35 214.002 
L 373.65 214.002 
L 373.65 55.998 
z
" clip-path="url(#pe23caecffb)" style="fill: #21599c"/>
   </g>
   <g id="patch_35">
    <path d="M 472.155336 377.891718 
L 451.887763 377.891718 
L 448.68762 383.6484 
L 435.65 383.6484 
L 454.269015 352.0476 
L 469.730985 352.0476 
L 488.35 383.6484 
L 475.323155 383.6484 
L 472.155336 377.891718 
z
M 455.120231 372.026674 
L 468.890544 372.026674 
L 462.016162 359.456789 
L 455.120231 372.026674 
z
" clip-path="url(#pe23caecffb)" style="fill: #21599c"/>
   </g>
   <g id="patch_36">
    <path d="M 436.198462 318.7836 
L 487.801538 318.7836 
L 487.801538 324.946636 
L 455.323077 324.946636 
L 455.323077 330.825225 
L 485.877949 330.825225 
L 485.877949 336.988261 
L 455.323077 336.988261 
L 455.323077 350.3844 
L 436.198462 350.3844 
L 436.198462 318.7836 
z
" clip-path="url(#pe23caecffb)" style="fill: #21599c"/>
   </g>
   <g id="patch_37">
    <path d="M 452.437692 285.5196 
L 471.562308 285.5196 
L 471.562308 317.1204 
L 452.437692 317.1204 
L 452.437692 285.5196 
z
" clip-path="url(#pe23caecffb)" style="fill: #21599c"/>
   </g>
   <g id="patch_38">
    <path d="M 435.65 252.2556 
L 454.774615 252.2556 
L 454.774615 277.700136 
L 488.35 277.700136 
L 488.35 283.8564 
L 435.65 283.8564 
L 435.65 252.2556 
z
" clip-path="url(#pe23caecffb)" style="fill: #21599c"/>
   </g>
   <g id="patch_39">
    <path d="M 488.35 244.042498 
Q 483.035119 246.901649 477.318669 248.337752 
Q 471.602219 249.7608 465.507822 249.7608 
Q 451.736374 249.7608 443.693187 241.248624 
Q 435.65 232.736448 435.65 218.179583 
Q 435.65 203.452997 443.834917 195.006098 
Q 452.031645 186.5592 466.287338 186.5592 
Q 471.779381 186.5592 476.810802 187.708083 
Q 481.854034 188.84391 486.318534 191.089453 
L 486.318534 203.687996 
Q 481.712304 200.802733 477.153317 199.379686 
Q 472.59433 197.943582 468.011721 197.943582 
Q 459.531533 197.943582 454.937113 203.191887 
Q 450.342694 208.427136 450.342694 218.179583 
Q 450.342694 227.840642 454.771762 233.115057 
Q 459.200829 238.376418 467.350314 238.376418 
Q 469.570753 238.376418 471.472299 238.076141 
Q 473.373846 237.76281 474.885634 237.110036 
L 474.885634 225.281767 
L 466.204662 225.281767 
L 466.204662 214.745991 
L 488.35 214.745991 
L 488.35 244.042498 
z
" clip-path="url(#pe23caecffb)" style="fill: #787800"/>
   </g>
   <g id="patch_40">
    <path d="M 483.955948 123.047017 
L 483.955948 135.945835 
Q 478.459804 133.700292 473.221293 132.564465 
Q 467.997094 131.415582 463.34541 131.415582 
Q 457.176562 131.415582 454.213797 132.969185 
Q 451.265345 134.509732 451.265345 137.773603 
Q 451.265345 140.228034 453.254834 141.59886 
Q 455.244324 142.956631 460.482835 143.935792 
L 467.811027 145.280507 
Q 478.946442 147.330218 483.641065 151.494917 
Q 488.35 155.646561 488.35 163.323186 
Q 488.35 173.388965 481.794704 178.310882 
Q 475.239408 183.2328 461.770994 183.2328 
Q 455.430391 183.2328 449.032537 182.123084 
Q 442.634682 181.026423 436.236828 178.859213 
L 436.236828 165.607896 
Q 442.634682 168.702046 448.60315 170.281759 
Q 454.571619 171.848418 460.125014 171.848418 
Q 465.764286 171.848418 468.755676 170.138149 
Q 471.747067 168.414825 471.747067 165.229287 
Q 471.747067 162.383191 469.714639 160.829589 
Q 467.682211 159.275986 461.59924 158.048771 
L 454.929441 156.704056 
Q 444.910429 154.745733 440.273058 150.463534 
Q 435.65 146.181335 435.65 138.922486 
Q 435.65 129.822813 442.090793 124.927007 
Q 448.531586 120.0312 460.611651 120.0312 
Q 466.122108 120.0312 471.933134 120.788418 
Q 477.744161 121.545636 483.955948 123.047017 
z
" clip-path="url(#pe23caecffb)" style="fill: #40ba47"/>
   </g>
   <g id="patch_41">
    <path d="M 435.65 53.5032 
L 488.35 53.5032 
L 488.35 65.829273 
L 469.390256 65.829273 
L 469.390256 116.7048 
L 454.646512 116.7048 
L 454.646512 65.829273 
L 435.65 65.829273 
L 435.65 53.5032 
z
" clip-path="url(#pe23caecffb)" style="fill: #40ba47"/>
   </g>
   <g id="patch_42">
    <path d="M 550.35 380.789249 
Q 545.035119 382.218824 539.318669 382.936876 
Q 533.602219 383.6484 527.507822 383.6484 
Q 513.736374 383.6484 505.693187 379.392312 
Q 497.65 375.136224 497.65 367.857792 
Q 497.65 360.494498 505.834917 356.271049 
Q 514.031645 352.0476 528.287338 352.0476 
Q 533.779381 352.0476 538.810802 352.622041 
Q 543.854034 353.189955 548.318534 354.312727 
L 548.318534 360.611998 
Q 543.712304 359.169367 539.153317 358.457843 
Q 534.59433 357.739791 530.011721 357.739791 
Q 521.531533 357.739791 516.937113 360.363944 
Q 512.342694 362.981568 512.342694 367.857792 
Q 512.342694 372.688321 516.771762 375.325529 
Q 521.200829 377.956209 529.350314 377.956209 
Q 531.570753 377.956209 533.472299 377.806071 
Q 535.373846 377.649405 536.885634 377.323018 
L 536.885634 371.408883 
L 528.204662 371.408883 
L 528.204662 366.140995 
L 550.35 366.140995 
L 550.35 380.789249 
z
" clip-path="url(#pe23caecffb)" style="fill: #787800"/>
   </g>
   <g id="patch_43">
    <path d="M 497.65 318.7836 
L 549.253077 318.7836 
L 549.253077 324.946636 
L 516.774615 324.946636 
L 516.774615 330.825225 
L 547.329487 330.825225 
L 547.329487 336.988261 
L 516.774615 336.988261 
L 516.774615 344.228136 
L 550.35 344.228136 
L 550.35 350.3844 
L 497.65 350.3844 
L 497.65 318.7836 
z
" clip-path="url(#pe23caecffb)" style="fill: #6b296b"/>
   </g>
   <g id="patch_44">
    <path d="M 545.955948 287.027508 
L 545.955948 293.476918 
Q 540.459804 292.354146 535.221293 291.786233 
Q 529.997094 291.211791 525.34541 291.211791 
Q 519.176562 291.211791 516.213797 291.988593 
Q 513.265345 292.758866 513.265345 294.390802 
Q 513.265345 295.618017 515.254834 296.30343 
Q 517.244324 296.982315 522.482835 297.471896 
L 529.811027 298.144253 
Q 540.946442 299.169109 545.641065 301.251459 
Q 550.35 303.327281 550.35 307.165593 
Q 550.35 312.198482 543.794704 314.659441 
Q 537.239408 317.1204 523.770994 317.1204 
Q 517.430391 317.1204 511.032537 316.565542 
Q 504.634682 316.017212 498.236828 314.933606 
L 498.236828 308.307948 
Q 504.634682 309.855023 510.60315 310.64488 
Q 516.571619 311.428209 522.125014 311.428209 
Q 527.764286 311.428209 530.755676 310.573075 
Q 533.747067 309.711413 533.747067 308.118644 
Q 533.747067 306.695596 531.714639 305.918794 
Q 529.682211 305.141993 523.59924 304.528385 
L 516.929441 303.856028 
Q 506.910429 302.876867 502.273058 300.735767 
Q 497.65 298.594668 497.65 294.965243 
Q 497.65 290.415407 504.090793 287.967503 
Q 510.531586 285.5196 522.611651 285.5196 
Q 528.122108 285.5196 533.933134 285.898209 
Q 539.744161 286.276818 545.955948 287.027508 
z
" clip-path="url(#pe23caecffb)" style="fill: #40ba47"/>
   </g>
   <g id="patch_45">
    <path d="M 497.65 252.2556 
L 550.35 252.2556 
L 550.35 258.418636 
L 531.390256 258.418636 
L 531.390256 283.8564 
L 516.646512 283.8564 
L 516.646512 258.418636 
L 497.65 258.418636 
L 497.65 252.2556 
z
" clip-path="url(#pe23caecffb)" style="fill: #40ba47"/>
   </g>
   <g id="patch_46">
    <path d="M 497.65 218.9916 
L 516.774615 218.9916 
L 516.774615 244.436136 
L 550.35 244.436136 
L 550.35 250.5924 
L 497.65 250.5924 
L 497.65 218.9916 
z
" clip-path="url(#pe23caecffb)" style="fill: #21599c"/>
   </g>
   <g id="patch_47">
    <path d="M 512.091481 165.621273 
L 512.091481 204.184272 
L 517.265444 204.184272 
Q 526.112802 204.184272 530.782574 199.226753 
Q 535.464351 194.269233 535.464351 184.828274 
Q 535.464351 175.441496 530.806583 170.538157 
Q 526.16082 165.621273 517.265444 165.621273 
L 512.091481 165.621273 
z
M 497.65 153.2952 
L 512.871777 153.2952 
Q 525.63262 153.2952 531.874989 155.354061 
Q 538.117358 157.399376 542.583052 162.31626 
Q 546.520547 166.596523 548.429271 172.190663 
Q 550.35 177.771259 550.35 184.828274 
Q 550.35 191.993651 548.429271 197.601337 
Q 546.520547 203.209023 542.583052 207.47574 
Q 538.081344 212.392624 531.778952 214.451485 
Q 525.47656 216.4968 512.871777 216.4968 
L 497.65 216.4968 
L 497.65 153.2952 
z
" clip-path="url(#pe23caecffb)" style="fill: #6b296b"/>
   </g>
   <g id="patch_48">
    <path d="M 497.65 54.3348 
L 510.68762 54.3348 
L 524.016162 124.308968 
L 537.323155 54.3348 
L 550.35 54.3348 
L 531.730985 149.1372 
L 516.269015 149.1372 
L 497.65 54.3348 
z
" clip-path="url(#pe23caecffb)" style="fill: #21599c"/>
   </g>
   <g id="patch_49">
    <path d="M 559.65 352.0476 
L 612.35 352.0476 
L 612.35 358.210636 
L 593.390256 358.210636 
L 593.390256 383.6484 
L 578.646512 383.6484 
L 578.646512 358.210636 
L 559.65 358.210636 
L 559.65 352.0476 
z
" clip-path="url(#pe23caecffb)" style="fill: #40ba47"/>
   </g>
   <g id="patch_50">
    <path d="M 607.955948 320.291508 
L 607.955948 326.740918 
Q 602.459804 325.618146 597.221293 325.050233 
Q 591.997094 324.475791 587.34541 324.475791 
Q 581.176562 324.475791 578.213797 325.252593 
Q 575.265345 326.022866 575.265345 327.654802 
Q 575.265345 328.882017 577.254834 329.56743 
Q 579.244324 330.246315 584.482835 330.735896 
L 591.811027 331.408253 
Q 602.946442 332.433109 607.641065 334.515459 
Q 612.35 336.591281 612.35 340.429593 
Q 612.35 345.462482 605.794704 347.923441 
Q 599.239408 350.3844 585.770994 350.3844 
Q 579.430391 350.3844 573.032537 349.829542 
Q 566.634682 349.281212 560.236828 348.197606 
L 560.236828 341.571948 
Q 566.634682 343.119023 572.60315 343.90888 
Q 578.571619 344.692209 584.125014 344.692209 
Q 589.764286 344.692209 592.755676 343.837075 
Q 595.747067 342.975413 595.747067 341.382644 
Q 595.747067 339.959596 593.714639 339.182794 
Q 591.682211 338.405993 585.59924 337.792385 
L 578.929441 337.120028 
Q 568.910429 336.140867 564.273058 333.999767 
Q 559.65 331.858668 559.65 328.229243 
Q 559.65 323.679407 566.090793 321.231503 
Q 572.531586 318.7836 584.611651 318.7836 
Q 590.122108 318.7836 595.933134 319.162209 
Q 601.744161 319.540818 607.955948 320.291508 
z
" clip-path="url(#pe23caecffb)" style="fill: #40ba47"/>
   </g>
   <g id="patch_51">
    <path d="M 596.155336 311.363718 
L 575.887763 311.363718 
L 572.68762 317.1204 
L 559.65 317.1204 
L 578.269015 285.5196 
L 593.730985 285.5196 
L 612.35 317.1204 
L 599.323155 317.1204 
L 596.155336 311.363718 
z
M 579.120231 305.498674 
L 592.890544 305.498674 
L 586.016162 292.928789 
L 579.120231 305.498674 
z
" clip-path="url(#pe23caecffb)" style="fill: #21599c"/>
   </g>
   <g id="patch_52">
    <path d="M 587.405333 279.130735 
L 586.373292 279.130735 
Q 573.714313 279.130735 566.676667 275.589266 
Q 559.65 272.042237 559.65 265.720966 
Q 559.65 259.410813 566.665687 255.835986 
Q 573.681375 252.2556 586 252.2556 
Q 598.450375 252.2556 605.400187 255.802629 
Q 612.35 259.344098 612.35 265.720966 
Q 612.35 270.096375 608.661 273.259791 
Q 604.972 276.423207 598.044146 278.018814 
L 608.364562 283.8564 
L 595.771458 283.8564 
L 587.405333 279.130735 
z
M 586 257.103576 
Q 579.961458 257.103576 576.634771 259.360776 
Q 573.308083 261.617976 573.308083 265.720966 
Q 573.308083 269.89067 576.557917 272.108953 
Q 579.818729 274.321676 586 274.321676 
Q 592.071479 274.321676 595.398167 272.064476 
Q 598.724854 269.801716 598.724854 265.720966 
Q 598.724854 261.617976 595.398167 259.360776 
Q 592.071479 257.103576 586 257.103576 
z
" clip-path="url(#pe23caecffb)" style="fill: #40ba47"/>
   </g>
   <g id="patch_53">
    <path d="M 559.65 186.5592 
L 575.195992 186.5592 
L 585.979692 220.381402 
L 596.83447 186.5592 
L 612.35 186.5592 
L 612.35 249.7608 
L 600.80474 249.7608 
L 600.80474 203.531254 
L 589.889037 237.610814 
L 582.141426 237.610814 
L 571.225723 203.531254 
L 571.225723 249.7608 
L 559.65 249.7608 
L 559.65 186.5592 
z
" clip-path="url(#pe23caecffb)" style="fill: #21599c"/>
   </g>
   <g id="patch_54">
    <path d="M 574.091481 132.357273 
L 574.091481 170.920272 
L 579.265444 170.920272 
Q 588.112802 170.920272 592.782574 165.962753 
Q 597.464351 161.005233 597.464351 151.564274 
Q 597.464351 142.177496 592.806583 137.274157 
Q 588.16082 132.357273 579.265444 132.357273 
L 574.091481 132.357273 
z
M 559.65 120.0312 
L 574.871777 120.0312 
Q 587.63262 120.0312 593.874989 122.090061 
Q 600.117358 124.135376 604.583052 129.05226 
Q 608.520547 133.332523 610.429271 138.926663 
Q 612.35 144.507259 612.35 151.564274 
Q 612.35 158.729651 610.429271 164.337337 
Q 608.520547 169.945023 604.583052 174.21174 
Q 600.081344 179.128624 593.778952 181.187485 
Q 587.47656 183.2328 574.871777 183.2328 
L 559.65 183.2328 
L 559.65 120.0312 
z
" clip-path="url(#pe23caecffb)" style="fill: #6b296b"/>
   </g>
   <g id="patch_55">
    <path d="M 559.65 53.5032 
L 574.22 53.5032 
L 585.988929 76.02876 
L 597.746786 53.5032 
L 612.35 53.5032 
L 592.665 90.075065 
L 592.665 116.7048 
L 579.346071 116.7048 
L 579.346071 90.075065 
L 559.65 53.5032 
z
" clip-path="url(#pe23caecffb)" style="fill: #177875"/>
   </g>
   <g id="matplotlib.axis_1">
    <g id="xtick_1">
     <g id="line2d_2">
      <defs>
       <path id="m41c09a06a5" d="M 0 0 
L 0 4.8 
" style="stroke: #262626"/>
      </defs>
      <g>
       <use xlink:href="#m41c09a06a5" x="152" y="384.48" style="fill: #262626; stroke: #262626"/>
      </g>
     </g>
     <g id="text_1">
      <!-- P4 -->
      <g style="fill: #262626" transform="translate(146.61825 399.078875) scale(0.088 -0.088)">
       <defs>
        <path id="ArialMT-50" d="M 494 0 
L 494 4581 
L 2222 4581 
Q 2678 4581 2919 4538 
Q 3256 4481 3484 4323 
Q 3713 4166 3852 3881 
Q 3991 3597 3991 3256 
Q 3991 2672 3619 2267 
Q 3247 1863 2275 1863 
L 1100 1863 
L 1100 0 
L 494 0 
z
M 1100 2403 
L 2284 2403 
Q 2872 2403 3119 2622 
Q 3366 2841 3366 3238 
Q 3366 3525 3220 3729 
Q 3075 3934 2838 4000 
Q 2684 4041 2272 4041 
L 1100 4041 
L 1100 2403 
z
" transform="scale(0.015625)"/>
        <path id="ArialMT-34" d="M 2069 0 
L 2069 1097 
L 81 1097 
L 81 1613 
L 2172 4581 
L 2631 4581 
L 2631 1613 
L 3250 1613 
L 3250 1097 
L 2631 1097 
L 2631 0 
L 2069 0 
z
M 2069 1613 
L 2069 3678 
L 634 1613 
L 2069 1613 
z
" transform="scale(0.015625)"/>
       </defs>
       <use xlink:href="#ArialMT-50"/>
       <use xlink:href="#ArialMT-34" x="66.699219"/>
      </g>
     </g>
    </g>
    <g id="xtick_2">
     <g id="line2d_3">
      <g>
       <use xlink:href="#m41c09a06a5" x="214" y="384.48" style="fill: #262626; stroke: #262626"/>
      </g>
     </g>
     <g id="text_2">
      <!-- P3 -->
      <g style="fill: #262626" transform="translate(208.61825 399.078875) scale(0.088 -0.088)">
       <defs>
        <path id="ArialMT-33" d="M 269 1209 
L 831 1284 
Q 928 806 1161 595 
Q 1394 384 1728 384 
Q 2125 384 2398 659 
Q 2672 934 2672 1341 
Q 2672 1728 2419 1979 
Q 2166 2231 1775 2231 
Q 1616 2231 1378 2169 
L 1441 2663 
Q 1497 2656 1531 2656 
Q 1891 2656 2178 2843 
Q 2466 3031 2466 3422 
Q 2466 3731 2256 3934 
Q 2047 4138 1716 4138 
Q 1388 4138 1169 3931 
Q 950 3725 888 3313 
L 325 3413 
Q 428 3978 793 4289 
Q 1159 4600 1703 4600 
Q 2078 4600 2393 4439 
Q 2709 4278 2876 4000 
Q 3044 3722 3044 3409 
Q 3044 3113 2884 2869 
Q 2725 2625 2413 2481 
Q 2819 2388 3044 2092 
Q 3269 1797 3269 1353 
Q 3269 753 2831 336 
Q 2394 -81 1725 -81 
Q 1122 -81 723 278 
Q 325 638 269 1209 
z
" transform="scale(0.015625)"/>
       </defs>
       <use xlink:href="#ArialMT-50"/>
       <use xlink:href="#ArialMT-33" x="66.699219"/>
      </g>
     </g>
    </g>
    <g id="xtick_3">
     <g id="line2d_4">
      <g>
       <use xlink:href="#m41c09a06a5" x="276" y="384.48" style="fill: #262626; stroke: #262626"/>
      </g>
     </g>
     <g id="text_3">
      <!-- P2 -->
      <g style="fill: #262626" transform="translate(270.61825 399.078875) scale(0.088 -0.088)">
       <defs>
        <path id="ArialMT-32" d="M 3222 541 
L 3222 0 
L 194 0 
Q 188 203 259 391 
Q 375 700 629 1000 
Q 884 1300 1366 1694 
Q 2113 2306 2375 2664 
Q 2638 3022 2638 3341 
Q 2638 3675 2398 3904 
Q 2159 4134 1775 4134 
Q 1369 4134 1125 3890 
Q 881 3647 878 3216 
L 300 3275 
Q 359 3922 746 4261 
Q 1134 4600 1788 4600 
Q 2447 4600 2831 4234 
Q 3216 3869 3216 3328 
Q 3216 3053 3103 2787 
Q 2991 2522 2730 2228 
Q 2469 1934 1863 1422 
Q 1356 997 1212 845 
Q 1069 694 975 541 
L 3222 541 
z
" transform="scale(0.015625)"/>
       </defs>
       <use xlink:href="#ArialMT-50"/>
       <use xlink:href="#ArialMT-32" x="66.699219"/>
      </g>
     </g>
    </g>
    <g id="xtick_4">
     <g id="line2d_5">
      <g>
       <use xlink:href="#m41c09a06a5" x="338" y="384.48" style="fill: #262626; stroke: #262626"/>
      </g>
     </g>
     <g id="text_4">
      <!-- P1 -->
      <g style="fill: #262626" transform="translate(332.61825 399.078875) scale(0.088 -0.088)">
       <defs>
        <path id="ArialMT-31" d="M 2384 0 
L 1822 0 
L 1822 3584 
Q 1619 3391 1289 3197 
Q 959 3003 697 2906 
L 697 3450 
Q 1169 3672 1522 3987 
Q 1875 4303 2022 4600 
L 2384 4600 
L 2384 0 
z
" transform="scale(0.015625)"/>
       </defs>
       <use xlink:href="#ArialMT-50"/>
       <use xlink:href="#ArialMT-31" x="66.699219"/>
      </g>
     </g>
    </g>
    <g id="xtick_5">
     <g id="line2d_6">
      <g>
       <use xlink:href="#m41c09a06a5" x="400" y="384.48" style="fill: #262626; stroke: #262626"/>
      </g>
     </g>
     <g id="text_5">
      <!-- P1' -->
      <g style="fill: #262626" transform="translate(393.778125 399.078875) scale(0.088 -0.088)">
       <defs>
        <path id="ArialMT-27" d="M 425 2959 
L 281 3816 
L 281 4581 
L 922 4581 
L 922 3816 
L 772 2959 
L 425 2959 
z
" transform="scale(0.015625)"/>
       </defs>
       <use xlink:href="#ArialMT-50"/>
       <use xlink:href="#ArialMT-31" x="66.699219"/>
       <use xlink:href="#ArialMT-27" x="122.314453"/>
      </g>
     </g>
    </g>
    <g id="xtick_6">
     <g id="line2d_7">
      <g>
       <use xlink:href="#m41c09a06a5" x="462" y="384.48" style="fill: #262626; stroke: #262626"/>
      </g>
     </g>
     <g id="text_6">
      <!-- P2' -->
      <g style="fill: #262626" transform="translate(455.778125 399.078875) scale(0.088 -0.088)">
       <use xlink:href="#ArialMT-50"/>
       <use xlink:href="#ArialMT-32" x="66.699219"/>
       <use xlink:href="#ArialMT-27" x="122.314453"/>
      </g>
     </g>
    </g>
    <g id="xtick_7">
     <g id="line2d_8">
      <g>
       <use xlink:href="#m41c09a06a5" x="524" y="384.48" style="fill: #262626; stroke: #262626"/>
      </g>
     </g>
     <g id="text_7">
      <!-- P3' -->
      <g style="fill: #262626" transform="translate(517.778125 399.078875) scale(0.088 -0.088)">
       <use xlink:href="#ArialMT-50"/>
       <use xlink:href="#ArialMT-33" x="66.699219"/>
       <use xlink:href="#ArialMT-27" x="122.314453"/>
      </g>
     </g>
    </g>
    <g id="xtick_8">
     <g id="line2d_9">
      <g>
       <use xlink:href="#m41c09a06a5" x="586" y="384.48" style="fill: #262626; stroke: #262626"/>
      </g>
     </g>
     <g id="text_8">
      <!-- P4' -->
      <g style="fill: #262626" transform="translate(579.778125 399.078875) scale(0.088 -0.088)">
       <use xlink:href="#ArialMT-50"/>
       <use xlink:href="#ArialMT-34" x="66.699219"/>
       <use xlink:href="#ArialMT-27" x="122.314453"/>
      </g>
     </g>
    </g>
   </g>
   <g id="matplotlib.axis_2">
    <g id="ytick_1">
     <g id="line2d_10">
      <defs>
       <path id="m0f163c7f49" d="M 0 0 
L -4.8 0 
" style="stroke: #262626"/>
      </defs>
      <g>
       <use xlink:href="#m0f163c7f49" x="90" y="384.48" style="fill: #262626; stroke: #262626"/>
      </g>
     </g>
     <g id="text_9">
      <!-- 0.0 -->
      <g style="fill: #262626" transform="translate(69.468 387.629437) scale(0.088 -0.088)">
       <defs>
        <path id="ArialMT-30" d="M 266 2259 
Q 266 3072 433 3567 
Q 600 4063 929 4331 
Q 1259 4600 1759 4600 
Q 2128 4600 2406 4451 
Q 2684 4303 2865 4023 
Q 3047 3744 3150 3342 
Q 3253 2941 3253 2259 
Q 3253 1453 3087 958 
Q 2922 463 2592 192 
Q 2263 -78 1759 -78 
Q 1097 -78 719 397 
Q 266 969 266 2259 
z
M 844 2259 
Q 844 1131 1108 757 
Q 1372 384 1759 384 
Q 2147 384 2411 759 
Q 2675 1134 2675 2259 
Q 2675 3391 2411 3762 
Q 2147 4134 1753 4134 
Q 1366 4134 1134 3806 
Q 844 3388 844 2259 
z
" transform="scale(0.015625)"/>
        <path id="ArialMT-2e" d="M 581 0 
L 581 641 
L 1222 641 
L 1222 0 
L 581 0 
z
" transform="scale(0.015625)"/>
       </defs>
       <use xlink:href="#ArialMT-30"/>
       <use xlink:href="#ArialMT-2e" x="55.615234"/>
       <use xlink:href="#ArialMT-30" x="83.398438"/>
      </g>
     </g>
    </g>
    <g id="ytick_2">
     <g id="line2d_11">
      <g>
       <use xlink:href="#m0f163c7f49" x="90" y="317.952" style="fill: #262626; stroke: #262626"/>
      </g>
     </g>
     <g id="text_10">
      <!-- 0.2 -->
      <g style="fill: #262626" transform="translate(69.468 321.101437) scale(0.088 -0.088)">
       <use xlink:href="#ArialMT-30"/>
       <use xlink:href="#ArialMT-2e" x="55.615234"/>
       <use xlink:href="#ArialMT-32" x="83.398438"/>
      </g>
     </g>
    </g>
    <g id="ytick_3">
     <g id="line2d_12">
      <g>
       <use xlink:href="#m0f163c7f49" x="90" y="251.424" style="fill: #262626; stroke: #262626"/>
      </g>
     </g>
     <g id="text_11">
      <!-- 0.4 -->
      <g style="fill: #262626" transform="translate(69.468 254.573437) scale(0.088 -0.088)">
       <use xlink:href="#ArialMT-30"/>
       <use xlink:href="#ArialMT-2e" x="55.615234"/>
       <use xlink:href="#ArialMT-34" x="83.398438"/>
      </g>
     </g>
    </g>
    <g id="ytick_4">
     <g id="line2d_13">
      <g>
       <use xlink:href="#m0f163c7f49" x="90" y="184.896" style="fill: #262626; stroke: #262626"/>
      </g>
     </g>
     <g id="text_12">
      <!-- 0.6 -->
      <g style="fill: #262626" transform="translate(69.468 188.045437) scale(0.088 -0.088)">
       <defs>
        <path id="ArialMT-36" d="M 3184 3459 
L 2625 3416 
Q 2550 3747 2413 3897 
Q 2184 4138 1850 4138 
Q 1581 4138 1378 3988 
Q 1113 3794 959 3422 
Q 806 3050 800 2363 
Q 1003 2672 1297 2822 
Q 1591 2972 1913 2972 
Q 2475 2972 2870 2558 
Q 3266 2144 3266 1488 
Q 3266 1056 3080 686 
Q 2894 316 2569 119 
Q 2244 -78 1831 -78 
Q 1128 -78 684 439 
Q 241 956 241 2144 
Q 241 3472 731 4075 
Q 1159 4600 1884 4600 
Q 2425 4600 2770 4297 
Q 3116 3994 3184 3459 
z
M 888 1484 
Q 888 1194 1011 928 
Q 1134 663 1356 523 
Q 1578 384 1822 384 
Q 2178 384 2434 671 
Q 2691 959 2691 1453 
Q 2691 1928 2437 2201 
Q 2184 2475 1800 2475 
Q 1419 2475 1153 2201 
Q 888 1928 888 1484 
z
" transform="scale(0.015625)"/>
       </defs>
       <use xlink:href="#ArialMT-30"/>
       <use xlink:href="#ArialMT-2e" x="55.615234"/>
       <use xlink:href="#ArialMT-36" x="83.398438"/>
      </g>
     </g>
    </g>
    <g id="ytick_5">
     <g id="line2d_14">
      <g>
       <use xlink:href="#m0f163c7f49" x="90" y="118.368" style="fill: #262626; stroke: #262626"/>
      </g>
     </g>
     <g id="text_13">
      <!-- 0.8 -->
      <g style="fill: #262626" transform="translate(69.468 121.517437) scale(0.088 -0.088)">
       <defs>
        <path id="ArialMT-38" d="M 1131 2484 
Q 781 2613 612 2850 
Q 444 3088 444 3419 
Q 444 3919 803 4259 
Q 1163 4600 1759 4600 
Q 2359 4600 2725 4251 
Q 3091 3903 3091 3403 
Q 3091 3084 2923 2848 
Q 2756 2613 2416 2484 
Q 2838 2347 3058 2040 
Q 3278 1734 3278 1309 
Q 3278 722 2862 322 
Q 2447 -78 1769 -78 
Q 1091 -78 675 323 
Q 259 725 259 1325 
Q 259 1772 486 2073 
Q 713 2375 1131 2484 
z
M 1019 3438 
Q 1019 3113 1228 2906 
Q 1438 2700 1772 2700 
Q 2097 2700 2305 2904 
Q 2513 3109 2513 3406 
Q 2513 3716 2298 3927 
Q 2084 4138 1766 4138 
Q 1444 4138 1231 3931 
Q 1019 3725 1019 3438 
z
M 838 1322 
Q 838 1081 952 856 
Q 1066 631 1291 507 
Q 1516 384 1775 384 
Q 2178 384 2440 643 
Q 2703 903 2703 1303 
Q 2703 1709 2433 1975 
Q 2163 2241 1756 2241 
Q 1359 2241 1098 1978 
Q 838 1716 838 1322 
z
" transform="scale(0.015625)"/>
       </defs>
       <use xlink:href="#ArialMT-30"/>
       <use xlink:href="#ArialMT-2e" x="55.615234"/>
       <use xlink:href="#ArialMT-38" x="83.398438"/>
      </g>
     </g>
    </g>
    <g id="ytick_6">
     <g id="line2d_15">
      <g>
       <use xlink:href="#m0f163c7f49" x="90" y="51.84" style="fill: #262626; stroke: #262626"/>
      </g>
     </g>
     <g id="text_14">
      <!-- 1.0 -->
      <g style="fill: #262626" transform="translate(69.468 54.989437) scale(0.088 -0.088)">
       <use xlink:href="#ArialMT-31"/>
       <use xlink:href="#ArialMT-2e" x="55.615234"/>
       <use xlink:href="#ArialMT-30" x="83.398438"/>
      </g>
     </g>
    </g>
    <g id="text_15">
     <!-- percentage -->
     <g style="fill: #262626" transform="translate(63.4475 242.1765) rotate(-90) scale(0.096 -0.096)">
      <defs>
       <path id="ArialMT-70" d="M 422 -1272 
L 422 3319 
L 934 3319 
L 934 2888 
Q 1116 3141 1344 3267 
Q 1572 3394 1897 3394 
Q 2322 3394 2647 3175 
Q 2972 2956 3137 2557 
Q 3303 2159 3303 1684 
Q 3303 1175 3120 767 
Q 2938 359 2589 142 
Q 2241 -75 1856 -75 
Q 1575 -75 1351 44 
Q 1128 163 984 344 
L 984 -1272 
L 422 -1272 
z
M 931 1641 
Q 931 1000 1190 694 
Q 1450 388 1819 388 
Q 2194 388 2461 705 
Q 2728 1022 2728 1688 
Q 2728 2322 2467 2637 
Q 2206 2953 1844 2953 
Q 1484 2953 1207 2617 
Q 931 2281 931 1641 
z
" transform="scale(0.015625)"/>
       <path id="ArialMT-65" d="M 2694 1069 
L 3275 997 
Q 3138 488 2766 206 
Q 2394 -75 1816 -75 
Q 1088 -75 661 373 
Q 234 822 234 1631 
Q 234 2469 665 2931 
Q 1097 3394 1784 3394 
Q 2450 3394 2872 2941 
Q 3294 2488 3294 1666 
Q 3294 1616 3291 1516 
L 816 1516 
Q 847 969 1125 678 
Q 1403 388 1819 388 
Q 2128 388 2347 550 
Q 2566 713 2694 1069 
z
M 847 1978 
L 2700 1978 
Q 2663 2397 2488 2606 
Q 2219 2931 1791 2931 
Q 1403 2931 1139 2672 
Q 875 2413 847 1978 
z
" transform="scale(0.015625)"/>
       <path id="ArialMT-72" d="M 416 0 
L 416 3319 
L 922 3319 
L 922 2816 
Q 1116 3169 1280 3281 
Q 1444 3394 1641 3394 
Q 1925 3394 2219 3213 
L 2025 2691 
Q 1819 2813 1613 2813 
Q 1428 2813 1281 2702 
Q 1134 2591 1072 2394 
Q 978 2094 978 1738 
L 978 0 
L 416 0 
z
" transform="scale(0.015625)"/>
       <path id="ArialMT-63" d="M 2588 1216 
L 3141 1144 
Q 3050 572 2676 248 
Q 2303 -75 1759 -75 
Q 1078 -75 664 370 
Q 250 816 250 1647 
Q 250 2184 428 2587 
Q 606 2991 970 3192 
Q 1334 3394 1763 3394 
Q 2303 3394 2647 3120 
Q 2991 2847 3088 2344 
L 2541 2259 
Q 2463 2594 2264 2762 
Q 2066 2931 1784 2931 
Q 1359 2931 1093 2626 
Q 828 2322 828 1663 
Q 828 994 1084 691 
Q 1341 388 1753 388 
Q 2084 388 2306 591 
Q 2528 794 2588 1216 
z
" transform="scale(0.015625)"/>
       <path id="ArialMT-6e" d="M 422 0 
L 422 3319 
L 928 3319 
L 928 2847 
Q 1294 3394 1984 3394 
Q 2284 3394 2536 3286 
Q 2788 3178 2913 3003 
Q 3038 2828 3088 2588 
Q 3119 2431 3119 2041 
L 3119 0 
L 2556 0 
L 2556 2019 
Q 2556 2363 2490 2533 
Q 2425 2703 2258 2804 
Q 2091 2906 1866 2906 
Q 1506 2906 1245 2678 
Q 984 2450 984 1813 
L 984 0 
L 422 0 
z
" transform="scale(0.015625)"/>
       <path id="ArialMT-74" d="M 1650 503 
L 1731 6 
Q 1494 -44 1306 -44 
Q 1000 -44 831 53 
Q 663 150 594 308 
Q 525 466 525 972 
L 525 2881 
L 113 2881 
L 113 3319 
L 525 3319 
L 525 4141 
L 1084 4478 
L 1084 3319 
L 1650 3319 
L 1650 2881 
L 1084 2881 
L 1084 941 
Q 1084 700 1114 631 
Q 1144 563 1211 522 
Q 1278 481 1403 481 
Q 1497 481 1650 503 
z
" transform="scale(0.015625)"/>
       <path id="ArialMT-61" d="M 2588 409 
Q 2275 144 1986 34 
Q 1697 -75 1366 -75 
Q 819 -75 525 192 
Q 231 459 231 875 
Q 231 1119 342 1320 
Q 453 1522 633 1644 
Q 813 1766 1038 1828 
Q 1203 1872 1538 1913 
Q 2219 1994 2541 2106 
Q 2544 2222 2544 2253 
Q 2544 2597 2384 2738 
Q 2169 2928 1744 2928 
Q 1347 2928 1158 2789 
Q 969 2650 878 2297 
L 328 2372 
Q 403 2725 575 2942 
Q 747 3159 1072 3276 
Q 1397 3394 1825 3394 
Q 2250 3394 2515 3294 
Q 2781 3194 2906 3042 
Q 3031 2891 3081 2659 
Q 3109 2516 3109 2141 
L 3109 1391 
Q 3109 606 3145 398 
Q 3181 191 3288 0 
L 2700 0 
Q 2613 175 2588 409 
z
M 2541 1666 
Q 2234 1541 1622 1453 
Q 1275 1403 1131 1340 
Q 988 1278 909 1158 
Q 831 1038 831 891 
Q 831 666 1001 516 
Q 1172 366 1500 366 
Q 1825 366 2078 508 
Q 2331 650 2450 897 
Q 2541 1088 2541 1459 
L 2541 1666 
z
" transform="scale(0.015625)"/>
       <path id="ArialMT-67" d="M 319 -275 
L 866 -356 
Q 900 -609 1056 -725 
Q 1266 -881 1628 -881 
Q 2019 -881 2231 -725 
Q 2444 -569 2519 -288 
Q 2563 -116 2559 434 
Q 2191 0 1641 0 
Q 956 0 581 494 
Q 206 988 206 1678 
Q 206 2153 378 2554 
Q 550 2956 876 3175 
Q 1203 3394 1644 3394 
Q 2231 3394 2613 2919 
L 2613 3319 
L 3131 3319 
L 3131 450 
Q 3131 -325 2973 -648 
Q 2816 -972 2473 -1159 
Q 2131 -1347 1631 -1347 
Q 1038 -1347 672 -1080 
Q 306 -813 319 -275 
z
M 784 1719 
Q 784 1066 1043 766 
Q 1303 466 1694 466 
Q 2081 466 2343 764 
Q 2606 1063 2606 1700 
Q 2606 2309 2336 2618 
Q 2066 2928 1684 2928 
Q 1309 2928 1046 2623 
Q 784 2319 784 1719 
z
" transform="scale(0.015625)"/>
      </defs>
      <use xlink:href="#ArialMT-70"/>
      <use xlink:href="#ArialMT-65" x="55.615234"/>
      <use xlink:href="#ArialMT-72" x="111.230469"/>
      <use xlink:href="#ArialMT-63" x="144.53125"/>
      <use xlink:href="#ArialMT-65" x="194.53125"/>
      <use xlink:href="#ArialMT-6e" x="250.146484"/>
      <use xlink:href="#ArialMT-74" x="305.761719"/>
      <use xlink:href="#ArialMT-61" x="333.544922"/>
      <use xlink:href="#ArialMT-67" x="389.160156"/>
      <use xlink:href="#ArialMT-65" x="444.775391"/>
     </g>
    </g>
   </g>
   <g id="line2d_16">
    <path d="M 369 384.48 
L 369 51.84 
" clip-path="url(#pe23caecffb)" style="fill: none; stroke: #daa520; stroke-width: 2; stroke-linecap: round"/>
   </g>
   <g id="patch_56">
    <path d="M 90 384.48 
L 648 384.48 
" style="fill: none; stroke: #262626; stroke-linejoin: miter; stroke-linecap: square"/>
   </g>
   <g id="patch_57">
    <path d="M 90 51.84 
L 648 51.84 
" style="fill: none; stroke: #262626; stroke-linejoin: miter; stroke-linecap: square"/>
   </g>
   <g id="text_16">
    <!-- Ctrl vs. MMP9 probability PPSM n=10 -->
    <g style="fill: #262626" transform="translate(288.5745 45.84) scale(0.096 -0.096)">
     <defs>
      <path id="ArialMT-43" d="M 3763 1606 
L 4369 1453 
Q 4178 706 3683 314 
Q 3188 -78 2472 -78 
Q 1731 -78 1267 223 
Q 803 525 561 1097 
Q 319 1669 319 2325 
Q 319 3041 592 3573 
Q 866 4106 1370 4382 
Q 1875 4659 2481 4659 
Q 3169 4659 3637 4309 
Q 4106 3959 4291 3325 
L 3694 3184 
Q 3534 3684 3231 3912 
Q 2928 4141 2469 4141 
Q 1941 4141 1586 3887 
Q 1231 3634 1087 3207 
Q 944 2781 944 2328 
Q 944 1744 1114 1308 
Q 1284 872 1643 656 
Q 2003 441 2422 441 
Q 2931 441 3284 734 
Q 3638 1028 3763 1606 
z
" transform="scale(0.015625)"/>
      <path id="ArialMT-6c" d="M 409 0 
L 409 4581 
L 972 4581 
L 972 0 
L 409 0 
z
" transform="scale(0.015625)"/>
      <path id="ArialMT-20" transform="scale(0.015625)"/>
      <path id="ArialMT-76" d="M 1344 0 
L 81 3319 
L 675 3319 
L 1388 1331 
Q 1503 1009 1600 663 
Q 1675 925 1809 1294 
L 2547 3319 
L 3125 3319 
L 1869 0 
L 1344 0 
z
" transform="scale(0.015625)"/>
      <path id="ArialMT-73" d="M 197 991 
L 753 1078 
Q 800 744 1014 566 
Q 1228 388 1613 388 
Q 2000 388 2187 545 
Q 2375 703 2375 916 
Q 2375 1106 2209 1216 
Q 2094 1291 1634 1406 
Q 1016 1563 777 1677 
Q 538 1791 414 1992 
Q 291 2194 291 2438 
Q 291 2659 392 2848 
Q 494 3038 669 3163 
Q 800 3259 1026 3326 
Q 1253 3394 1513 3394 
Q 1903 3394 2198 3281 
Q 2494 3169 2634 2976 
Q 2775 2784 2828 2463 
L 2278 2388 
Q 2241 2644 2061 2787 
Q 1881 2931 1553 2931 
Q 1166 2931 1000 2803 
Q 834 2675 834 2503 
Q 834 2394 903 2306 
Q 972 2216 1119 2156 
Q 1203 2125 1616 2013 
Q 2213 1853 2448 1751 
Q 2684 1650 2818 1456 
Q 2953 1263 2953 975 
Q 2953 694 2789 445 
Q 2625 197 2315 61 
Q 2006 -75 1616 -75 
Q 969 -75 630 194 
Q 291 463 197 991 
z
" transform="scale(0.015625)"/>
      <path id="ArialMT-4d" d="M 475 0 
L 475 4581 
L 1388 4581 
L 2472 1338 
Q 2622 884 2691 659 
Q 2769 909 2934 1394 
L 4031 4581 
L 4847 4581 
L 4847 0 
L 4263 0 
L 4263 3834 
L 2931 0 
L 2384 0 
L 1059 3900 
L 1059 0 
L 475 0 
z
" transform="scale(0.015625)"/>
      <path id="ArialMT-39" d="M 350 1059 
L 891 1109 
Q 959 728 1153 556 
Q 1347 384 1650 384 
Q 1909 384 2104 503 
Q 2300 622 2425 820 
Q 2550 1019 2634 1356 
Q 2719 1694 2719 2044 
Q 2719 2081 2716 2156 
Q 2547 1888 2255 1720 
Q 1963 1553 1622 1553 
Q 1053 1553 659 1965 
Q 266 2378 266 3053 
Q 266 3750 677 4175 
Q 1088 4600 1706 4600 
Q 2153 4600 2523 4359 
Q 2894 4119 3086 3673 
Q 3278 3228 3278 2384 
Q 3278 1506 3087 986 
Q 2897 466 2520 194 
Q 2144 -78 1638 -78 
Q 1100 -78 759 220 
Q 419 519 350 1059 
z
M 2653 3081 
Q 2653 3566 2395 3850 
Q 2138 4134 1775 4134 
Q 1400 4134 1122 3828 
Q 844 3522 844 3034 
Q 844 2597 1108 2323 
Q 1372 2050 1759 2050 
Q 2150 2050 2401 2323 
Q 2653 2597 2653 3081 
z
" transform="scale(0.015625)"/>
      <path id="ArialMT-6f" d="M 213 1659 
Q 213 2581 725 3025 
Q 1153 3394 1769 3394 
Q 2453 3394 2887 2945 
Q 3322 2497 3322 1706 
Q 3322 1066 3130 698 
Q 2938 331 2570 128 
Q 2203 -75 1769 -75 
Q 1072 -75 642 372 
Q 213 819 213 1659 
z
M 791 1659 
Q 791 1022 1069 705 
Q 1347 388 1769 388 
Q 2188 388 2466 706 
Q 2744 1025 2744 1678 
Q 2744 2294 2464 2611 
Q 2184 2928 1769 2928 
Q 1347 2928 1069 2612 
Q 791 2297 791 1659 
z
" transform="scale(0.015625)"/>
      <path id="ArialMT-62" d="M 941 0 
L 419 0 
L 419 4581 
L 981 4581 
L 981 2947 
Q 1338 3394 1891 3394 
Q 2197 3394 2470 3270 
Q 2744 3147 2920 2923 
Q 3097 2700 3197 2384 
Q 3297 2069 3297 1709 
Q 3297 856 2875 390 
Q 2453 -75 1863 -75 
Q 1275 -75 941 416 
L 941 0 
z
M 934 1684 
Q 934 1088 1097 822 
Q 1363 388 1816 388 
Q 2184 388 2453 708 
Q 2722 1028 2722 1663 
Q 2722 2313 2464 2622 
Q 2206 2931 1841 2931 
Q 1472 2931 1203 2611 
Q 934 2291 934 1684 
z
" transform="scale(0.015625)"/>
      <path id="ArialMT-69" d="M 425 3934 
L 425 4581 
L 988 4581 
L 988 3934 
L 425 3934 
z
M 425 0 
L 425 3319 
L 988 3319 
L 988 0 
L 425 0 
z
" transform="scale(0.015625)"/>
      <path id="ArialMT-79" d="M 397 -1278 
L 334 -750 
Q 519 -800 656 -800 
Q 844 -800 956 -737 
Q 1069 -675 1141 -563 
Q 1194 -478 1313 -144 
Q 1328 -97 1363 -6 
L 103 3319 
L 709 3319 
L 1400 1397 
Q 1534 1031 1641 628 
Q 1738 1016 1872 1384 
L 2581 3319 
L 3144 3319 
L 1881 -56 
Q 1678 -603 1566 -809 
Q 1416 -1088 1222 -1217 
Q 1028 -1347 759 -1347 
Q 597 -1347 397 -1278 
z
" transform="scale(0.015625)"/>
      <path id="ArialMT-53" d="M 288 1472 
L 859 1522 
Q 900 1178 1048 958 
Q 1197 738 1509 602 
Q 1822 466 2213 466 
Q 2559 466 2825 569 
Q 3091 672 3220 851 
Q 3350 1031 3350 1244 
Q 3350 1459 3225 1620 
Q 3100 1781 2813 1891 
Q 2628 1963 1997 2114 
Q 1366 2266 1113 2400 
Q 784 2572 623 2826 
Q 463 3081 463 3397 
Q 463 3744 659 4045 
Q 856 4347 1234 4503 
Q 1613 4659 2075 4659 
Q 2584 4659 2973 4495 
Q 3363 4331 3572 4012 
Q 3781 3694 3797 3291 
L 3216 3247 
Q 3169 3681 2898 3903 
Q 2628 4125 2100 4125 
Q 1550 4125 1298 3923 
Q 1047 3722 1047 3438 
Q 1047 3191 1225 3031 
Q 1400 2872 2139 2705 
Q 2878 2538 3153 2413 
Q 3553 2228 3743 1945 
Q 3934 1663 3934 1294 
Q 3934 928 3725 604 
Q 3516 281 3123 101 
Q 2731 -78 2241 -78 
Q 1619 -78 1198 103 
Q 778 284 539 648 
Q 300 1013 288 1472 
z
" transform="scale(0.015625)"/>
      <path id="ArialMT-3d" d="M 3381 2694 
L 356 2694 
L 356 3219 
L 3381 3219 
L 3381 2694 
z
M 3381 1303 
L 356 1303 
L 356 1828 
L 3381 1828 
L 3381 1303 
z
" transform="scale(0.015625)"/>
     </defs>
     <use xlink:href="#ArialMT-43"/>
     <use xlink:href="#ArialMT-74" x="72.216797"/>
     <use xlink:href="#ArialMT-72" x="100"/>
     <use xlink:href="#ArialMT-6c" x="133.300781"/>
     <use xlink:href="#ArialMT-20" x="155.517578"/>
     <use xlink:href="#ArialMT-76" x="183.300781"/>
     <use xlink:href="#ArialMT-73" x="233.300781"/>
     <use xlink:href="#ArialMT-2e" x="283.300781"/>
     <use xlink:href="#ArialMT-20" x="311.083984"/>
     <use xlink:href="#ArialMT-4d" x="338.867188"/>
     <use xlink:href="#ArialMT-4d" x="422.167969"/>
     <use xlink:href="#ArialMT-50" x="505.46875"/>
     <use xlink:href="#ArialMT-39" x="572.167969"/>
     <use xlink:href="#ArialMT-20" x="627.783203"/>
     <use xlink:href="#ArialMT-70" x="655.566406"/>
     <use xlink:href="#ArialMT-72" x="711.181641"/>
     <use xlink:href="#ArialMT-6f" x="744.482422"/>
     <use xlink:href="#ArialMT-62" x="800.097656"/>
     <use xlink:href="#ArialMT-61" x="855.712891"/>
     <use xlink:href="#ArialMT-62" x="911.328125"/>
     <use xlink:href="#ArialMT-69" x="966.943359"/>
     <use xlink:href="#ArialMT-6c" x="989.160156"/>
     <use xlink:href="#ArialMT-69" x="1011.376953"/>
     <use xlink:href="#ArialMT-74" x="1033.59375"/>
     <use xlink:href="#ArialMT-79" x="1061.376953"/>
     <use xlink:href="#ArialMT-20" x="1111.376953"/>
     <use xlink:href="#ArialMT-50" x="1139.160156"/>
     <use xlink:href="#ArialMT-50" x="1205.859375"/>
     <use xlink:href="#ArialMT-53" x="1272.558594"/>
     <use xlink:href="#ArialMT-4d" x="1339.257812"/>
     <use xlink:href="#ArialMT-20" x="1422.558594"/>
     <use xlink:href="#ArialMT-6e" x="1450.341797"/>
     <use xlink:href="#ArialMT-3d" x="1505.957031"/>
     <use xlink:href="#ArialMT-31" x="1564.355469"/>
     <use xlink:href="#ArialMT-30" x="1619.970703"/>
    </g>
   </g>
  </g>
 </g>
 <defs>
  <clipPath id="pe23caecffb">
   <rect x="90" y="51.84" width="558" height="332.64"/>
  </clipPath>
 </defs>
</svg>
