<?xml version="1.0" encoding="utf-8" standalone="no"?>
<!DOCTYPE svg PUBLIC "-//W3C//DTD SVG 1.1//EN"
  "http://www.w3.org/Graphics/SVG/1.1/DTD/svg11.dtd">
<svg xmlns:xlink="http://www.w3.org/1999/xlink" width="720pt" height="432pt" viewBox="0 0 720 432" xmlns="http://www.w3.org/2000/svg" version="1.1">
 <metadata>
  <rdf:RDF xmlns:dc="http://purl.org/dc/elements/1.1/" xmlns:cc="http://creativecommons.org/ns#" xmlns:rdf="http://www.w3.org/1999/02/22-rdf-syntax-ns#">
   <cc:Work>
    <dc:type rdf:resource="http://purl.org/dc/dcmitype/StillImage"/>
    <dc:date>2023-11-10T15:28:37.459724</dc:date>
    <dc:format>image/svg+xml</dc:format>
    <dc:creator>
     <cc:Agent>
      <dc:title>Matplotlib v3.7.1, https://matplotlib.org/</dc:title>
     </cc:Agent>
    </dc:creator>
   </cc:Work>
  </rdf:RDF>
 </metadata>
 <defs>
  <style type="text/css">*{stroke-linejoin: round; stroke-linecap: butt}</style>
 </defs>
 <g id="figure_1">
  <g id="patch_1">
   <path d="M 0 432 
L 720 432 
L 720 0 
L 0 0 
z
" style="fill: #ffffff"/>
  </g>
  <g id="axes_1">
   <g id="patch_2">
    <path d="M 90 384.48 
L 648 384.48 
L 648 51.84 
L 90 51.84 
z
" style="fill: #ffffff"/>
   </g>
   <g id="patch_3">
    <path d="M 183 384.48 
L 245 384.48 
L 245 51.84 
L 183 51.84 
z
" clip-path="url(#pbda47d5c20)" style="fill: #ffd700; opacity: 0.35; stroke: #ffffff; stroke-width: 0.8; stroke-linejoin: miter"/>
   </g>
   <g id="line2d_1">
    <path d="M 90 384.48 
L 648 384.48 
" clip-path="url(#pbda47d5c20)" style="fill: none; stroke: #000000; stroke-width: 0.5; stroke-linecap: round"/>
   </g>
   <g id="patch_4">
    <path d="M 125.65 376.573448 
L 177.253077 376.573448 
L 177.253077 378.075907 
L 144.774615 378.075907 
L 144.774615 379.509022 
L 175.329487 379.509022 
L 175.329487 381.011482 
L 144.774615 381.011482 
L 144.774615 382.776459 
L 178.35 382.776459 
L 178.35 384.277268 
L 125.65 384.277268 
L 125.65 376.573448 
z
" clip-path="url(#pbda47d5c20)" style="fill: #6b296b"/>
   </g>
   <g id="patch_5">
    <path d="M 125.65 365.514085 
L 139.537864 365.514085 
L 139.537864 369.374944 
L 159.555783 365.514085 
L 175.683253 365.514085 
L 149.743078 370.52436 
L 178.35 376.09234 
L 160.964195 376.09234 
L 139.537864 371.925424 
L 139.537864 376.09234 
L 125.65 376.09234 
L 125.65 365.514085 
z
" clip-path="url(#pbda47d5c20)" style="fill: #bd2e1f"/>
   </g>
   <g id="patch_6">
    <path d="M 125.65 350.278248 
L 153.043021 350.278248 
Q 165.271068 350.278248 171.803672 351.515127 
Q 178.35 352.748883 178.35 355.032113 
Q 178.35 357.327836 171.803672 358.561592 
Q 165.271068 359.795348 153.043021 359.795348 
L 142.159922 359.795348 
L 142.159922 364.852186 
L 125.65 364.852186 
L 125.65 350.278248 
z
M 142.159922 353.001881 
L 142.159922 357.071714 
L 151.286354 357.071714 
Q 156.08974 357.071714 158.711016 356.540731 
Q 161.332292 356.009747 161.332292 355.032113 
Q 161.332292 354.057602 158.711016 353.529741 
Q 156.08974 353.001881 151.286354 353.001881 
L 142.159922 353.001881 
z
" clip-path="url(#pbda47d5c20)" style="fill: #787800"/>
   </g>
   <g id="patch_7">
    <path d="M 125.65 334.640616 
L 140.813382 334.640616 
L 140.813382 340.304219 
L 163.186618 340.304219 
L 163.186618 334.640616 
L 178.35 334.640616 
L 178.35 349.503592 
L 163.186618 349.503592 
L 163.186618 343.202914 
L 140.813382 343.202914 
L 140.813382 349.503592 
L 125.65 349.503592 
L 125.65 334.640616 
z
" clip-path="url(#pbda47d5c20)" style="fill: #177875"/>
   </g>
   <g id="patch_8">
    <path d="M 173.955948 318.956122 
L 173.955948 322.145606 
Q 168.459804 321.590352 163.221293 321.309496 
Q 157.997094 321.025413 153.34541 321.025413 
Q 147.176562 321.025413 144.213797 321.409571 
Q 141.265345 321.790501 141.265345 322.597557 
Q 141.265345 323.204463 143.254834 323.543426 
Q 145.244324 323.879161 150.482835 324.121278 
L 157.811027 324.453785 
Q 168.946442 324.960616 173.641065 325.990419 
Q 178.35 327.016993 178.35 328.915188 
Q 178.35 331.404147 171.794704 332.621187 
Q 165.239408 333.838227 151.770994 333.838227 
Q 145.430391 333.838227 139.032537 333.563828 
Q 132.634682 333.292657 126.236828 332.756773 
L 126.236828 329.480127 
Q 132.634682 330.245216 138.60315 330.63583 
Q 144.571619 331.023217 150.125014 331.023217 
Q 155.764286 331.023217 158.755676 330.60032 
Q 161.747067 330.174195 161.747067 329.386508 
Q 161.747067 328.682756 159.714639 328.298598 
Q 157.682211 327.914439 151.59924 327.610986 
L 144.929441 327.278479 
Q 134.910429 326.794246 130.273058 325.735389 
Q 125.65 324.676532 125.65 322.881641 
Q 125.65 320.63157 132.090793 319.420986 
Q 138.531586 318.210403 150.611651 318.210403 
Q 156.122108 318.210403 161.933134 318.39764 
Q 167.744161 318.584877 173.955948 318.956122 
z
" clip-path="url(#pbda47d5c20)" style="fill: #40ba47"/>
   </g>
   <g id="patch_9">
    <path d="M 147.032787 300.212758 
Q 151.762274 300.212758 153.814221 299.307506 
Q 155.866168 298.395789 155.866168 296.31371 
Q 155.866168 294.251029 153.814221 293.365176 
Q 151.762274 292.472856 147.032787 292.472856 
L 140.701781 292.472856 
L 140.701781 300.212758 
L 147.032787 300.212758 
z
M 140.701781 305.586074 
L 140.701781 317.005177 
L 125.65 317.005177 
L 125.65 286.834431 
L 148.634307 286.834431 
Q 160.170252 286.834431 165.537844 288.838917 
Q 170.917949 290.836937 170.917949 295.162747 
Q 170.917949 298.150077 168.11529 300.070504 
Q 165.325142 301.990931 159.694801 302.902649 
Q 162.785233 303.26475 165.225047 304.5515 
Q 167.677374 305.831785 170.179748 308.437617 
L 178.35 317.005177 
L 162.322293 317.005177 
L 155.203039 309.510986 
Q 153.050997 307.247857 150.836396 306.420198 
Q 148.634307 305.586074 144.955817 305.586074 
L 140.701781 305.586074 
z
" clip-path="url(#pbda47d5c20)" style="fill: #bd2e1f"/>
   </g>
   <g id="patch_10">
    <path d="M 224.155336 383.189782 
L 203.887763 383.189782 
L 200.68762 384.317143 
L 187.65 384.317143 
L 206.269015 378.128594 
L 221.730985 378.128594 
L 240.35 384.317143 
L 227.323155 384.317143 
L 224.155336 383.189782 
z
M 207.120231 382.0412 
L 220.890544 382.0412 
L 214.016162 379.579574 
L 207.120231 382.0412 
z
" clip-path="url(#pbda47d5c20)" style="fill: #21599c"/>
   </g>
   <g id="patch_11">
    <path d="M 235.955948 360.654143 
L 235.955948 364.264536 
Q 230.459804 363.636006 225.221293 363.318087 
Q 219.997094 362.996513 215.34541 362.996513 
Q 209.176562 362.996513 206.213797 363.431368 
Q 203.265345 363.862569 203.265345 364.77613 
Q 203.265345 365.463128 205.254834 365.846823 
Q 207.244324 366.226865 212.482835 366.500933 
L 219.811027 366.87732 
Q 230.946442 367.451036 235.641065 368.61674 
Q 240.35 369.778789 240.35 371.927484 
Q 240.35 374.744906 233.794704 376.122556 
Q 227.239408 377.500206 213.770994 377.500206 
Q 207.430391 377.500206 201.032537 377.189595 
Q 194.634682 376.882638 188.236828 376.276034 
L 188.236828 372.566977 
Q 194.634682 373.433033 200.60315 373.875196 
Q 206.571619 374.313705 212.125014 374.313705 
Q 217.764286 374.313705 220.755676 373.834999 
Q 223.747067 373.352639 223.747067 372.461004 
Q 223.747067 371.664379 221.714639 371.229524 
Q 219.682211 370.794669 213.59924 370.45117 
L 206.929441 370.074783 
Q 196.910429 369.526646 192.273058 368.328055 
Q 187.65 367.129463 187.65 365.097703 
Q 187.65 362.550696 194.090793 361.180354 
Q 200.531586 359.810013 212.611651 359.810013 
Q 218.122108 359.810013 223.933134 360.021959 
Q 229.744161 360.233905 235.955948 360.654143 
z
" clip-path="url(#pbda47d5c20)" style="fill: #40ba47"/>
   </g>
   <g id="patch_12">
    <path d="M 187.65 59.527612 
L 215.043021 59.527612 
Q 227.271068 59.527612 233.803672 84.320408 
Q 240.35 109.050596 240.35 154.817096 
Q 240.35 200.834027 233.803672 225.564215 
Q 227.271068 250.294403 215.043021 250.294403 
L 204.159922 250.294403 
L 204.159922 351.65687 
L 187.65 351.65687 
L 187.65 59.527612 
z
M 204.159922 114.12185 
L 204.159922 195.700166 
L 213.286354 195.700166 
Q 218.08974 195.700166 220.711016 185.056794 
Q 223.332292 174.413422 223.332292 154.817096 
Q 223.332292 135.283378 220.711016 124.702614 
Q 218.08974 114.12185 213.286354 114.12185 
L 204.159922 114.12185 
z
" clip-path="url(#pbda47d5c20)" style="fill: #787800"/>
   </g>
   <g id="patch_13">
    <path d="M 266.437692 382.684912 
L 285.562308 382.684912 
L 285.562308 384.433972 
L 266.437692 384.433972 
L 266.437692 382.684912 
z
" clip-path="url(#pbda47d5c20)" style="fill: #21599c"/>
   </g>
   <g id="patch_14">
    <path d="M 249.65 380.344453 
L 262.68762 380.344453 
L 276.016162 381.994561 
L 289.323155 380.344453 
L 302.35 380.344453 
L 283.730985 382.580053 
L 268.269015 382.580053 
L 249.65 380.344453 
z
" clip-path="url(#pbda47d5c20)" style="fill: #21599c"/>
   </g>
   <g id="patch_15">
    <path d="M 297.955948 376.086644 
L 297.955948 376.962355 
Q 292.459804 376.809903 287.221293 376.732791 
Q 281.997094 376.654792 277.34541 376.654792 
Q 271.176562 376.654792 268.213797 376.760268 
Q 265.265345 376.864857 265.265345 377.086444 
Q 265.265345 377.253077 267.254834 377.346143 
Q 269.244324 377.438324 274.482835 377.5048 
L 281.811027 377.596093 
Q 292.946442 377.73525 297.641065 378.017995 
Q 302.35 378.299853 302.35 378.821026 
Q 302.35 379.5044 295.794704 379.838553 
Q 289.239408 380.172706 275.770994 380.172706 
Q 269.430391 380.172706 263.032537 380.097366 
Q 256.634682 380.022913 250.236828 379.875779 
L 250.236828 378.976137 
Q 256.634682 379.186201 262.60315 379.293449 
Q 268.571619 379.399811 274.125014 379.399811 
Q 279.764286 379.399811 282.755676 379.283699 
Q 285.747067 379.166701 285.747067 378.950433 
Q 285.747067 378.757209 283.714639 378.651733 
Q 281.682211 378.546258 275.59924 378.462941 
L 268.929441 378.371648 
Q 258.910429 378.238695 254.273058 377.947973 
Q 249.65 377.657251 249.65 377.164442 
Q 249.65 376.546658 256.090793 376.214278 
Q 262.531586 375.881897 274.611651 375.881897 
Q 280.122108 375.881897 285.933134 375.933306 
Q 291.744161 375.984714 297.955948 376.086644 
z
" clip-path="url(#pbda47d5c20)" style="fill: #40ba47"/>
   </g>
   <g id="patch_16">
    <path d="M 249.65 369.371724 
L 302.35 369.371724 
L 302.35 370.587376 
L 283.390256 370.587376 
L 283.390256 375.604949 
L 268.646512 375.604949 
L 268.646512 370.587376 
L 249.65 370.587376 
L 249.65 369.371724 
z
" clip-path="url(#pbda47d5c20)" style="fill: #40ba47"/>
   </g>
   <g id="patch_17">
    <path d="M 249.65 359.354647 
L 264.22 359.354647 
L 275.988929 362.776308 
L 287.746786 359.354647 
L 302.35 359.354647 
L 282.665 364.909959 
L 282.665 368.955049 
L 269.346071 368.955049 
L 269.346071 364.909959 
L 249.65 359.354647 
z
" clip-path="url(#pbda47d5c20)" style="fill: #177875"/>
   </g>
   <g id="patch_18">
    <path d="M 249.65 329.796662 
L 263.537864 329.796662 
L 263.537864 340.218293 
L 283.555783 329.796662 
L 299.683253 329.796662 
L 273.743078 343.320916 
L 302.35 358.350585 
L 284.964195 358.350585 
L 263.537864 347.102812 
L 263.537864 358.350585 
L 249.65 358.350585 
L 249.65 329.796662 
z
" clip-path="url(#pbda47d5c20)" style="fill: #bd2e1f"/>
   </g>
   <g id="patch_19">
    <path d="M 271.032787 295.541185 
Q 275.762274 295.541185 277.814221 293.816578 
Q 279.866168 292.079652 279.866168 288.113056 
Q 279.866168 284.183416 277.814221 282.495765 
Q 275.762274 280.795795 271.032787 280.795795 
L 264.701781 280.795795 
L 264.701781 295.541185 
L 271.032787 295.541185 
z
M 264.701781 305.77796 
L 264.701781 327.532646 
L 249.65 327.532646 
L 249.65 270.053957 
L 272.634307 270.053957 
Q 284.170252 270.053957 289.537844 273.872729 
Q 294.917949 277.679184 294.917949 285.920342 
Q 294.917949 291.611545 292.11529 295.270175 
Q 289.325142 298.928806 283.694801 300.665732 
Q 286.785233 301.355575 289.225047 303.80698 
Q 291.677374 306.246068 294.179748 311.210472 
L 302.35 327.532646 
L 286.322293 327.532646 
L 279.203039 313.255363 
Q 277.050997 308.943846 274.836396 307.367062 
Q 272.634307 305.77796 268.955817 305.77796 
L 264.701781 305.77796 
z
" clip-path="url(#pbda47d5c20)" style="fill: #bd2e1f"/>
   </g>
   <g id="patch_20">
    <path d="M 359.955948 378.719274 
L 359.955948 379.920693 
Q 354.459804 379.711539 349.221293 379.605746 
Q 343.997094 379.498737 339.34541 379.498737 
Q 333.176562 379.498737 330.213797 379.643442 
Q 327.265345 379.786932 327.265345 380.090935 
Q 327.265345 380.319545 329.254834 380.447226 
Q 331.244324 380.573691 336.482835 380.664892 
L 343.811027 380.790141 
Q 354.946442 380.981055 359.641065 381.368963 
Q 364.35 381.755654 364.35 382.470669 
Q 364.35 383.408214 357.794704 383.86665 
Q 351.239408 384.325087 337.770994 384.325087 
Q 331.430391 384.325087 325.032537 384.221726 
Q 318.634682 384.119581 312.236828 383.917723 
L 312.236828 382.683471 
Q 318.634682 382.971666 324.60315 383.118803 
Q 330.571619 383.264725 336.125014 383.264725 
Q 341.764286 383.264725 344.755676 383.105427 
Q 347.747067 382.944914 347.747067 382.648207 
Q 347.747067 382.383116 345.714639 382.238411 
Q 343.682211 382.093706 337.59924 381.9794 
L 330.929441 381.854151 
Q 320.910429 381.67175 316.273058 381.272898 
Q 311.65 380.874046 311.65 380.197944 
Q 311.65 379.350384 318.090793 378.894379 
Q 324.531586 378.438375 336.611651 378.438375 
Q 342.122108 378.438375 347.933134 378.508904 
Q 353.744161 378.579432 359.955948 378.719274 
z
" clip-path="url(#pbda47d5c20)" style="fill: #40ba47"/>
   </g>
   <g id="patch_21">
    <path d="M 312.198462 370.968223 
L 363.801538 370.968223 
L 363.801538 372.358317 
L 331.323077 372.358317 
L 331.323077 373.684253 
L 361.877949 373.684253 
L 361.877949 375.074347 
L 331.323077 375.074347 
L 331.323077 378.095891 
L 312.198462 378.095891 
L 312.198462 370.968223 
z
" clip-path="url(#pbda47d5c20)" style="fill: #21599c"/>
   </g>
   <g id="patch_22">
    <path d="M 333.032787 366.575978 
Q 337.762274 366.575978 339.814221 366.359544 
Q 341.866168 366.141564 341.866168 365.643766 
Q 341.866168 365.150606 339.814221 364.93881 
Q 337.762274 364.725468 333.032787 364.725468 
L 326.701781 364.725468 
L 326.701781 366.575978 
L 333.032787 366.575978 
z
M 326.701781 367.860667 
L 326.701781 370.590826 
L 311.65 370.590826 
L 311.65 363.377394 
L 334.634307 363.377394 
Q 346.170252 363.377394 351.537844 363.856641 
Q 356.917949 364.334341 356.917949 365.368586 
Q 356.917949 366.082818 354.11529 366.541967 
Q 351.325142 367.001116 345.694801 367.219096 
Q 348.785233 367.305669 351.225047 367.613314 
Q 353.677374 367.919414 356.179748 368.542434 
L 364.35 370.590826 
L 348.322293 370.590826 
L 341.203039 368.799063 
Q 339.050997 368.257978 336.836396 368.060096 
Q 334.634307 367.860667 330.955817 367.860667 
L 326.701781 367.860667 
z
" clip-path="url(#pbda47d5c20)" style="fill: #bd2e1f"/>
   </g>
   <g id="patch_23">
    <path d="M 339.405333 361.835412 
L 338.373292 361.835412 
Q 325.714313 361.835412 318.676667 360.973726 
Q 311.65 360.110688 311.65 358.57264 
Q 311.65 357.037298 318.665687 356.167496 
Q 325.681375 355.296341 338 355.296341 
Q 350.450375 355.296341 357.400188 356.159379 
Q 364.35 357.021065 364.35 358.57264 
Q 364.35 359.637234 360.661 360.406935 
Q 356.972 361.176635 350.044146 361.564867 
L 360.364563 362.985228 
L 347.771458 362.985228 
L 339.405333 361.835412 
z
M 338 356.475917 
Q 331.961458 356.475917 328.634771 357.025123 
Q 325.308083 357.574329 325.308083 358.57264 
Q 325.308083 359.587184 328.557917 360.126921 
Q 331.818729 360.665305 338 360.665305 
Q 344.071479 360.665305 347.398167 360.116099 
Q 350.724854 359.56554 350.724854 358.57264 
Q 350.724854 357.574329 347.398167 357.025123 
Q 344.071479 356.475917 338 356.475917 
z
" clip-path="url(#pbda47d5c20)" style="fill: #40ba47"/>
   </g>
   <g id="patch_24">
    <path d="M 311.65 346.894463 
L 328.578032 346.894463 
L 349.968106 352.373619 
L 349.968106 346.894463 
L 364.35 346.894463 
L 364.35 354.883757 
L 347.409364 354.883757 
L 326.01929 349.404601 
L 326.01929 354.883757 
L 311.65 354.883757 
L 311.65 346.894463 
z
" clip-path="url(#pbda47d5c20)" style="fill: #40ba47"/>
   </g>
   <g id="patch_25">
    <path d="M 311.65 331.167795 
L 326.813382 331.167795 
L 326.813382 336.928792 
L 349.186618 336.928792 
L 349.186618 331.167795 
L 364.35 331.167795 
L 364.35 346.286361 
L 349.186618 346.286361 
L 349.186618 339.877334 
L 326.813382 339.877334 
L 326.813382 346.286361 
L 311.65 346.286361 
L 311.65 331.167795 
z
" clip-path="url(#pbda47d5c20)" style="fill: #177875"/>
   </g>
   <g id="patch_26">
    <path d="M 348.155336 327.366759 
L 327.887763 327.366759 
L 324.68762 330.340375 
L 311.65 330.340375 
L 330.269015 314.016973 
L 345.730985 314.016973 
L 364.35 330.340375 
L 351.323155 330.340375 
L 348.155336 327.366759 
z
M 331.120231 324.337169 
L 344.890544 324.337169 
L 338.016162 317.844192 
L 331.120231 324.337169 
z
" clip-path="url(#pbda47d5c20)" style="fill: #21599c"/>
   </g>
   <g id="patch_27">
    <path d="M 364.35 311.6383 
Q 359.941736 312.344983 355.174969 312.702434 
Q 350.408201 313.063993 345.216541 313.063993 
Q 329.734505 313.063993 320.692252 310.385169 
Q 311.65 307.706344 311.65 303.125227 
Q 311.65 298.527674 320.692252 295.852959 
Q 329.734505 293.174134 345.216541 293.174134 
Q 350.408201 293.174134 355.174969 293.535693 
Q 359.941736 293.893144 364.35 294.599828 
L 364.35 298.564652 
Q 359.901902 297.627885 355.586584 297.192371 
Q 351.271265 296.756856 346.504497 296.756856 
Q 337.953527 296.756856 333.053981 298.453719 
Q 328.167712 300.146473 328.167712 303.125227 
Q 328.167712 306.091654 333.053981 307.788517 
Q 337.953527 309.481271 346.504497 309.481271 
Q 351.271265 309.481271 355.586584 309.045757 
Q 359.901902 308.606134 364.35 307.669367 
L 364.35 311.6383 
z
" clip-path="url(#pbda47d5c20)" style="fill: #6b296b"/>
   </g>
   <g id="patch_28">
    <path d="M 373.65 382.578736 
L 389.195992 382.578736 
L 399.979692 383.570105 
L 410.83447 382.578736 
L 426.35 382.578736 
L 426.35 384.43125 
L 414.80474 384.43125 
L 414.80474 383.076207 
L 403.889037 384.075119 
L 396.141426 384.075119 
L 385.225723 383.076207 
L 385.225723 384.43125 
L 373.65 384.43125 
L 373.65 382.578736 
z
" clip-path="url(#pbda47d5c20)" style="fill: #21599c"/>
   </g>
   <g id="patch_29">
    <path d="M 388.091481 379.7745 
L 388.091481 381.797004 
L 393.265444 381.797004 
Q 402.112802 381.797004 406.782574 381.536998 
Q 411.464351 381.276992 411.464351 380.781844 
Q 411.464351 380.289538 406.806583 380.032374 
Q 402.16082 379.7745 393.265444 379.7745 
L 388.091481 379.7745 
z
M 373.65 379.128037 
L 388.871777 379.128037 
Q 401.63262 379.128037 407.874989 379.236018 
Q 414.117358 379.343288 418.583052 379.601163 
Q 422.520547 379.825648 424.429271 380.119043 
Q 426.35 380.411727 426.35 380.781844 
Q 426.35 381.157645 424.429271 381.45175 
Q 422.520547 381.745855 418.583052 381.96963 
Q 414.081344 382.227505 407.778952 382.335486 
Q 401.47656 382.442756 388.871777 382.442756 
L 373.65 382.442756 
L 373.65 379.128037 
z
" clip-path="url(#pbda47d5c20)" style="fill: #6b296b"/>
   </g>
   <g id="patch_30">
    <path d="M 401.405333 378.186851 
L 400.373292 378.186851 
Q 387.714313 378.186851 380.676667 377.642652 
Q 373.65 377.097598 373.65 376.12624 
Q 373.65 375.156591 380.665687 374.607266 
Q 387.681375 374.057086 400 374.057086 
Q 412.450375 374.057086 419.400188 374.60214 
Q 426.35 375.146339 426.35 376.12624 
Q 426.35 376.798587 422.661 377.284693 
Q 418.972 377.770799 412.044146 378.015988 
L 422.364563 378.91302 
L 409.771458 378.91302 
L 401.405333 378.186851 
z
M 400 374.80205 
Q 393.961458 374.80205 390.634771 375.148902 
Q 387.308083 375.495755 387.308083 376.12624 
Q 387.308083 376.766977 390.557917 377.10785 
Q 393.818729 377.447867 400 377.447867 
Q 406.071479 377.447867 409.398167 377.101015 
Q 412.724854 376.753308 412.724854 376.12624 
Q 412.724854 375.495755 409.398167 375.148902 
Q 406.071479 374.80205 400 374.80205 
z
" clip-path="url(#pbda47d5c20)" style="fill: #40ba47"/>
   </g>
   <g id="patch_31">
    <path d="M 390.437692 368.113125 
L 409.562308 368.113125 
L 409.562308 373.780165 
L 390.437692 373.780165 
L 390.437692 368.113125 
z
" clip-path="url(#pbda47d5c20)" style="fill: #21599c"/>
   </g>
   <g id="patch_32">
    <path d="M 373.65 357.221879 
L 388.22 357.221879 
L 399.988929 360.952286 
L 411.746786 357.221879 
L 426.35 357.221879 
L 406.665 363.278463 
L 406.665 367.688554 
L 393.346071 367.688554 
L 393.346071 363.278463 
L 373.65 357.221879 
z
" clip-path="url(#pbda47d5c20)" style="fill: #177875"/>
   </g>
   <g id="patch_33">
    <path d="M 373.65 335.420749 
L 386.68762 335.420749 
L 400.016162 350.901588 
L 413.323155 335.420749 
L 426.35 335.420749 
L 407.730985 356.394499 
L 392.269015 356.394499 
L 373.65 335.420749 
z
" clip-path="url(#pbda47d5c20)" style="fill: #21599c"/>
   </g>
   <g id="patch_34">
    <path d="M 373.65 250.035345 
L 392.774615 250.035345 
L 392.774615 316.590645 
L 426.35 316.590645 
L 426.35 332.693591 
L 373.65 332.693591 
L 373.65 250.035345 
z
" clip-path="url(#pbda47d5c20)" style="fill: #21599c"/>
   </g>
   <g id="patch_35">
    <path d="M 452.437692 382.411066 
L 471.562308 382.411066 
L 471.562308 384.42695 
L 452.437692 384.42695 
L 452.437692 382.411066 
z
" clip-path="url(#pbda47d5c20)" style="fill: #21599c"/>
   </g>
   <g id="patch_36">
    <path d="M 472.155336 380.865121 
L 451.887763 380.865121 
L 448.68762 382.169577 
L 435.65 382.169577 
L 454.269015 375.008885 
L 469.730985 375.008885 
L 488.35 382.169577 
L 475.323155 382.169577 
L 472.155336 380.865121 
z
M 455.120231 379.536112 
L 468.890544 379.536112 
L 462.016162 376.687795 
L 455.120231 379.536112 
z
" clip-path="url(#pbda47d5c20)" style="fill: #21599c"/>
   </g>
   <g id="patch_37">
    <path d="M 436.198462 366.692397 
L 487.801538 366.692397 
L 487.801538 368.236946 
L 455.323077 368.236946 
L 455.323077 369.710209 
L 485.877949 369.710209 
L 485.877949 371.254759 
L 455.323077 371.254759 
L 455.323077 374.612034 
L 436.198462 374.612034 
L 436.198462 366.692397 
z
" clip-path="url(#pbda47d5c20)" style="fill: #21599c"/>
   </g>
   <g id="patch_38">
    <path d="M 483.955948 346.930002 
L 483.955948 351.008052 
Q 478.459804 350.298108 473.221293 349.939009 
Q 467.997094 349.575781 463.34541 349.575781 
Q 457.176562 349.575781 454.213797 350.066964 
Q 451.265345 350.554018 451.265345 351.585914 
Q 451.265345 352.361899 453.254834 352.795295 
Q 455.244324 353.224564 460.482835 353.534132 
L 467.811027 353.959273 
Q 478.946442 354.607303 483.641065 355.924002 
Q 488.35 357.236573 488.35 359.663591 
Q 488.35 362.845956 481.794704 364.402055 
Q 475.239408 365.958153 461.770994 365.958153 
Q 455.430391 365.958153 449.032537 365.607308 
Q 442.634682 365.260592 436.236828 364.575413 
L 436.236828 360.385918 
Q 442.634682 361.364155 448.60315 361.863592 
Q 454.571619 362.358902 460.125014 362.358902 
Q 465.764286 362.358902 468.755676 361.818189 
Q 471.747067 361.273348 471.747067 360.266218 
Q 471.747067 359.366405 469.714639 358.875223 
Q 467.682211 358.384041 461.59924 357.996048 
L 454.929441 357.570907 
Q 444.910429 356.95177 440.273058 355.597923 
Q 435.65 354.244076 435.65 351.949141 
Q 435.65 349.072216 442.090793 347.524373 
Q 448.531586 345.97653 460.611651 345.97653 
Q 466.122108 345.97653 471.933134 346.21593 
Q 477.744161 346.45533 483.955948 346.930002 
z
" clip-path="url(#pbda47d5c20)" style="fill: #40ba47"/>
   </g>
   <g id="patch_39">
    <path d="M 435.65 322.285198 
L 488.35 322.285198 
L 488.35 326.687272 
L 469.390256 326.687272 
L 469.390256 344.856711 
L 454.646512 344.856711 
L 454.646512 326.687272 
L 435.65 326.687272 
L 435.65 322.285198 
z
" clip-path="url(#pbda47d5c20)" style="fill: #40ba47"/>
   </g>
   <g id="patch_40">
    <path d="M 488.35 318.031585 
Q 483.035119 319.449105 477.318669 320.161101 
Q 471.602219 320.866624 465.507822 320.866624 
Q 451.736374 320.866624 443.693187 316.646429 
Q 435.65 312.426234 435.65 305.209183 
Q 435.65 297.907986 443.834917 293.720155 
Q 452.031645 289.532323 466.287338 289.532323 
Q 471.779381 289.532323 476.810802 290.10192 
Q 481.854034 290.665044 486.318534 291.778347 
L 486.318534 298.024495 
Q 481.712304 296.59403 477.153317 295.888506 
Q 472.59433 295.17651 468.011721 295.17651 
Q 459.531533 295.17651 454.937113 297.778532 
Q 450.342694 300.374082 450.342694 305.209183 
Q 450.342694 309.998975 454.771762 312.613942 
Q 459.200829 315.222437 467.350314 315.222437 
Q 469.570753 315.222437 471.472299 315.073565 
Q 473.373846 314.918221 474.885634 314.594586 
L 474.885634 308.730327 
L 466.204662 308.730327 
L 466.204662 303.506865 
L 488.35 303.506865 
L 488.35 318.031585 
z
" clip-path="url(#pbda47d5c20)" style="fill: #787800"/>
   </g>
   <g id="patch_41">
    <path d="M 497.65 384.311899 
L 516.774615 384.311899 
L 516.774615 384.443781 
L 550.35 384.443781 
L 550.35 384.47569 
L 497.65 384.47569 
L 497.65 384.311899 
z
" clip-path="url(#pbda47d5c20)" style="fill: #21599c"/>
   </g>
   <g id="patch_42">
    <path d="M 550.35 383.815689 
Q 545.035119 384.006222 539.318669 384.101923 
Q 533.602219 384.196754 527.507822 384.196754 
Q 513.736374 384.196754 505.693187 383.629507 
Q 497.65 383.062259 497.65 382.092196 
Q 497.65 381.110822 505.834917 380.547925 
Q 514.031645 379.985027 528.287338 379.985027 
Q 533.779381 379.985027 538.810802 380.061588 
Q 543.854034 380.137279 548.318534 380.286921 
L 548.318534 381.126483 
Q 543.712304 380.93421 539.153317 380.839379 
Q 534.59433 380.743677 530.011721 380.743677 
Q 521.531533 380.743677 516.937113 381.093422 
Q 512.342694 381.442297 512.342694 382.092196 
Q 512.342694 382.736004 516.771762 383.087489 
Q 521.200829 383.438104 529.350314 383.438104 
Q 531.570753 383.438104 533.472299 383.418094 
Q 535.373846 383.397213 536.885634 383.353713 
L 536.885634 382.565482 
L 528.204662 382.565482 
L 528.204662 381.863383 
L 550.35 381.863383 
L 550.35 383.815689 
z
" clip-path="url(#pbda47d5c20)" style="fill: #787800"/>
   </g>
   <g id="patch_43">
    <path d="M 545.955948 375.553052 
L 545.955948 376.454241 
Q 540.459804 376.297354 535.221293 376.217998 
Q 529.997094 376.13773 525.34541 376.13773 
Q 519.176562 376.13773 516.213797 376.246274 
Q 513.265345 376.353906 513.265345 376.581939 
Q 513.265345 376.753421 515.254834 376.849195 
Q 517.244324 376.944057 522.482835 377.012467 
L 529.811027 377.106417 
Q 540.946442 377.249622 545.641065 377.540593 
Q 550.35 377.830651 550.35 378.366986 
Q 550.35 379.070242 543.794704 379.414116 
Q 537.239408 379.757991 523.770994 379.757991 
Q 517.430391 379.757991 511.032537 379.68046 
Q 504.634682 379.60384 498.236828 379.452426 
L 498.236828 378.52661 
Q 504.634682 378.742786 510.60315 378.853154 
Q 516.571619 378.96261 522.125014 378.96261 
Q 527.764286 378.96261 530.755676 378.84312 
Q 533.747067 378.722719 533.747067 378.500158 
Q 533.747067 378.301313 531.714639 378.192769 
Q 529.682211 378.084225 523.59924 377.998484 
L 516.929441 377.904534 
Q 506.910429 377.767714 502.273058 377.468534 
Q 497.65 377.169354 497.65 376.662207 
Q 497.65 376.02645 504.090793 375.684399 
Q 510.531586 375.342349 522.611651 375.342349 
Q 528.122108 375.342349 533.933134 375.395253 
Q 539.744161 375.448157 545.955948 375.553052 
z
" clip-path="url(#pbda47d5c20)" style="fill: #40ba47"/>
   </g>
   <g id="patch_44">
    <path d="M 497.65 368.216447 
L 550.35 368.216447 
L 550.35 369.548481 
L 531.390256 369.548481 
L 531.390256 375.046412 
L 516.646512 375.046412 
L 516.646512 369.548481 
L 497.65 369.548481 
L 497.65 368.216447 
z
" clip-path="url(#pbda47d5c20)" style="fill: #40ba47"/>
   </g>
   <g id="patch_45">
    <path d="M 497.65 360.938605 
L 549.253077 360.938605 
L 549.253077 362.287438 
L 516.774615 362.287438 
L 516.774615 363.574017 
L 547.329487 363.574017 
L 547.329487 364.92285 
L 516.774615 364.92285 
L 516.774615 366.507358 
L 550.35 366.507358 
L 550.35 367.854709 
L 497.65 367.854709 
L 497.65 360.938605 
z
" clip-path="url(#pbda47d5c20)" style="fill: #6b296b"/>
   </g>
   <g id="patch_46">
    <path d="M 497.65 331.77767 
L 510.68762 331.77767 
L 524.016162 352.618729 
L 537.323155 331.77767 
L 550.35 331.77767 
L 531.730985 360.013553 
L 516.269015 360.013553 
L 497.65 331.77767 
z
" clip-path="url(#pbda47d5c20)" style="fill: #21599c"/>
   </g>
   <g id="patch_47">
    <path d="M 512.091481 305.975058 
L 512.091481 324.368573 
L 517.265444 324.368573 
Q 526.112802 324.368573 530.782574 322.00397 
Q 535.464351 319.639366 535.464351 315.136282 
Q 535.464351 310.659041 530.806583 308.32028 
Q 526.16082 305.975058 517.265444 305.975058 
L 512.091481 305.975058 
z
M 497.65 300.095852 
L 512.871777 300.095852 
Q 525.63262 300.095852 531.874989 301.077874 
Q 538.117358 302.053434 542.583052 304.398656 
Q 546.520547 306.440226 548.429271 309.108481 
Q 550.35 311.770275 550.35 315.136282 
Q 550.35 318.553974 548.429271 321.22869 
Q 546.520547 323.903406 542.583052 325.938515 
Q 538.081344 328.283737 531.778952 329.265758 
Q 525.47656 330.241319 512.871777 330.241319 
L 497.65 330.241319 
L 497.65 300.095852 
z
" clip-path="url(#pbda47d5c20)" style="fill: #6b296b"/>
   </g>
   <g id="patch_48">
    <path d="M 596.155336 383.89099 
L 575.887763 383.89099 
L 572.68762 384.405653 
L 559.65 384.405653 
L 578.269015 381.580459 
L 593.730985 381.580459 
L 612.35 384.405653 
L 599.323155 384.405653 
L 596.155336 383.89099 
z
M 579.120231 383.36664 
L 592.890544 383.36664 
L 586.016162 382.242859 
L 579.120231 383.36664 
z
" clip-path="url(#pbda47d5c20)" style="fill: #21599c"/>
   </g>
   <g id="patch_49">
    <path d="M 607.955948 375.745385 
L 607.955948 376.946804 
Q 602.459804 376.73765 597.221293 376.631857 
Q 591.997094 376.524848 587.34541 376.524848 
Q 581.176562 376.524848 578.213797 376.669554 
Q 575.265345 376.813043 575.265345 377.117046 
Q 575.265345 377.345656 577.254834 377.473337 
Q 579.244324 377.599803 584.482835 377.691003 
L 591.811027 377.816253 
Q 602.946442 378.007166 607.641065 378.395074 
Q 612.35 378.781766 612.35 379.49678 
Q 612.35 380.434325 605.794704 380.892762 
Q 599.239408 381.351198 585.770994 381.351198 
Q 579.430391 381.351198 573.032537 381.247837 
Q 566.634682 381.145692 560.236828 380.943834 
L 560.236828 379.709582 
Q 566.634682 379.997777 572.60315 380.144914 
Q 578.571619 380.290836 584.125014 380.290836 
Q 589.764286 380.290836 592.755676 380.131538 
Q 595.747067 379.971025 595.747067 379.674318 
Q 595.747067 379.409228 593.714639 379.264522 
Q 591.682211 379.119817 585.59924 379.005512 
L 578.929441 378.880263 
Q 568.910429 378.697861 564.273058 378.299009 
Q 559.65 377.900157 559.65 377.224055 
Q 559.65 376.376495 566.090793 375.920491 
Q 572.531586 375.464486 584.611651 375.464486 
Q 590.122108 375.464486 595.933134 375.535015 
Q 601.744161 375.605544 607.955948 375.745385 
z
" clip-path="url(#pbda47d5c20)" style="fill: #40ba47"/>
   </g>
   <g id="patch_50">
    <path d="M 559.65 369.0157 
L 612.35 369.0157 
L 612.35 370.211707 
L 593.390256 370.211707 
L 593.390256 375.148192 
L 578.646512 375.148192 
L 578.646512 370.211707 
L 559.65 370.211707 
L 559.65 369.0157 
z
" clip-path="url(#pbda47d5c20)" style="fill: #40ba47"/>
   </g>
   <g id="patch_51">
    <path d="M 587.405333 367.486785 
L 586.373292 367.486785 
Q 573.714313 367.486785 566.676667 366.6153 
Q 559.65 365.742446 559.65 364.186906 
Q 559.65 362.634103 566.665687 361.754409 
Q 573.681375 360.873346 586 360.873346 
Q 598.450375 360.873346 605.400187 361.7462 
Q 612.35 362.617685 612.35 364.186906 
Q 612.35 365.263608 608.661 366.042062 
Q 604.972 366.820516 598.044146 367.213164 
L 608.364562 368.649678 
L 595.771458 368.649678 
L 587.405333 367.486785 
z
M 586 362.066337 
Q 579.961458 362.066337 576.634771 362.62179 
Q 573.308083 363.177242 573.308083 364.186906 
Q 573.308083 365.212988 576.557917 365.758864 
Q 579.818729 366.303371 586 366.303371 
Q 592.071479 366.303371 595.398167 365.747919 
Q 598.724854 365.191098 598.724854 364.186906 
Q 598.724854 363.177242 595.398167 362.62179 
Q 592.071479 362.066337 586 362.066337 
z
" clip-path="url(#pbda47d5c20)" style="fill: #40ba47"/>
   </g>
   <g id="patch_52">
    <path d="M 559.65 338.859524 
L 575.195992 338.859524 
L 585.979692 350.231402 
L 596.83447 338.859524 
L 612.35 338.859524 
L 612.35 360.109496 
L 600.80474 360.109496 
L 600.80474 344.565957 
L 589.889037 356.024364 
L 582.141426 356.024364 
L 571.225723 344.565957 
L 571.225723 360.109496 
L 559.65 360.109496 
L 559.65 338.859524 
z
" clip-path="url(#pbda47d5c20)" style="fill: #21599c"/>
   </g>
   <g id="patch_53">
    <path d="M 574.091481 314.716905 
L 574.091481 332.026936 
L 579.265444 332.026936 
Q 588.112802 332.026936 592.782574 329.801621 
Q 597.464351 327.576306 597.464351 323.33848 
Q 597.464351 319.124974 592.806583 316.923979 
Q 588.16082 314.716905 579.265444 314.716905 
L 574.091481 314.716905 
z
M 559.65 309.184018 
L 574.871777 309.184018 
Q 587.63262 309.184018 593.874989 310.108193 
Q 600.117358 311.026287 604.583052 313.233362 
Q 608.520547 315.154672 610.429271 317.665751 
Q 612.35 320.17075 612.35 323.33848 
Q 612.35 326.55485 610.429271 329.07201 
Q 608.520547 331.589169 604.583052 333.504399 
Q 600.081344 335.711474 593.778952 336.635648 
Q 587.47656 337.553743 574.871777 337.553743 
L 559.65 337.553743 
L 559.65 309.184018 
z
" clip-path="url(#pbda47d5c20)" style="fill: #6b296b"/>
   </g>
   <g id="patch_54">
    <path d="M 559.65 274.939544 
L 574.22 274.939544 
L 585.988929 286.57234 
L 597.746786 274.939544 
L 612.35 274.939544 
L 592.665 293.826225 
L 592.665 307.578526 
L 579.346071 307.578526 
L 579.346071 293.826225 
L 559.65 274.939544 
z
" clip-path="url(#pbda47d5c20)" style="fill: #177875"/>
   </g>
   <g id="matplotlib.axis_1">
    <g id="xtick_1">
     <g id="line2d_2">
      <defs>
       <path id="m61695a7415" d="M 0 0 
L 0 4.8 
" style="stroke: #262626"/>
      </defs>
      <g>
       <use xlink:href="#m61695a7415" x="152" y="384.48" style="fill: #262626; stroke: #262626"/>
      </g>
     </g>
     <g id="text_1">
      <!-- P4 -->
      <g style="fill: #262626" transform="translate(146.61825 399.078875) scale(0.088 -0.088)">
       <defs>
        <path id="ArialMT-50" d="M 494 0 
L 494 4581 
L 2222 4581 
Q 2678 4581 2919 4538 
Q 3256 4481 3484 4323 
Q 3713 4166 3852 3881 
Q 3991 3597 3991 3256 
Q 3991 2672 3619 2267 
Q 3247 1863 2275 1863 
L 1100 1863 
L 1100 0 
L 494 0 
z
M 1100 2403 
L 2284 2403 
Q 2872 2403 3119 2622 
Q 3366 2841 3366 3238 
Q 3366 3525 3220 3729 
Q 3075 3934 2838 4000 
Q 2684 4041 2272 4041 
L 1100 4041 
L 1100 2403 
z
" transform="scale(0.015625)"/>
        <path id="ArialMT-34" d="M 2069 0 
L 2069 1097 
L 81 1097 
L 81 1613 
L 2172 4581 
L 2631 4581 
L 2631 1613 
L 3250 1613 
L 3250 1097 
L 2631 1097 
L 2631 0 
L 2069 0 
z
M 2069 1613 
L 2069 3678 
L 634 1613 
L 2069 1613 
z
" transform="scale(0.015625)"/>
       </defs>
       <use xlink:href="#ArialMT-50"/>
       <use xlink:href="#ArialMT-34" x="66.699219"/>
      </g>
     </g>
    </g>
    <g id="xtick_2">
     <g id="line2d_3">
      <g>
       <use xlink:href="#m61695a7415" x="214" y="384.48" style="fill: #262626; stroke: #262626"/>
      </g>
     </g>
     <g id="text_2">
      <!-- P3 -->
      <g style="fill: #262626" transform="translate(208.61825 399.078875) scale(0.088 -0.088)">
       <defs>
        <path id="ArialMT-33" d="M 269 1209 
L 831 1284 
Q 928 806 1161 595 
Q 1394 384 1728 384 
Q 2125 384 2398 659 
Q 2672 934 2672 1341 
Q 2672 1728 2419 1979 
Q 2166 2231 1775 2231 
Q 1616 2231 1378 2169 
L 1441 2663 
Q 1497 2656 1531 2656 
Q 1891 2656 2178 2843 
Q 2466 3031 2466 3422 
Q 2466 3731 2256 3934 
Q 2047 4138 1716 4138 
Q 1388 4138 1169 3931 
Q 950 3725 888 3313 
L 325 3413 
Q 428 3978 793 4289 
Q 1159 4600 1703 4600 
Q 2078 4600 2393 4439 
Q 2709 4278 2876 4000 
Q 3044 3722 3044 3409 
Q 3044 3113 2884 2869 
Q 2725 2625 2413 2481 
Q 2819 2388 3044 2092 
Q 3269 1797 3269 1353 
Q 3269 753 2831 336 
Q 2394 -81 1725 -81 
Q 1122 -81 723 278 
Q 325 638 269 1209 
z
" transform="scale(0.015625)"/>
       </defs>
       <use xlink:href="#ArialMT-50"/>
       <use xlink:href="#ArialMT-33" x="66.699219"/>
      </g>
     </g>
    </g>
    <g id="xtick_3">
     <g id="line2d_4">
      <g>
       <use xlink:href="#m61695a7415" x="276" y="384.48" style="fill: #262626; stroke: #262626"/>
      </g>
     </g>
     <g id="text_3">
      <!-- P2 -->
      <g style="fill: #262626" transform="translate(270.61825 399.078875) scale(0.088 -0.088)">
       <defs>
        <path id="ArialMT-32" d="M 3222 541 
L 3222 0 
L 194 0 
Q 188 203 259 391 
Q 375 700 629 1000 
Q 884 1300 1366 1694 
Q 2113 2306 2375 2664 
Q 2638 3022 2638 3341 
Q 2638 3675 2398 3904 
Q 2159 4134 1775 4134 
Q 1369 4134 1125 3890 
Q 881 3647 878 3216 
L 300 3275 
Q 359 3922 746 4261 
Q 1134 4600 1788 4600 
Q 2447 4600 2831 4234 
Q 3216 3869 3216 3328 
Q 3216 3053 3103 2787 
Q 2991 2522 2730 2228 
Q 2469 1934 1863 1422 
Q 1356 997 1212 845 
Q 1069 694 975 541 
L 3222 541 
z
" transform="scale(0.015625)"/>
       </defs>
       <use xlink:href="#ArialMT-50"/>
       <use xlink:href="#ArialMT-32" x="66.699219"/>
      </g>
     </g>
    </g>
    <g id="xtick_4">
     <g id="line2d_5">
      <g>
       <use xlink:href="#m61695a7415" x="338" y="384.48" style="fill: #262626; stroke: #262626"/>
      </g>
     </g>
     <g id="text_4">
      <!-- P1 -->
      <g style="fill: #262626" transform="translate(332.61825 399.078875) scale(0.088 -0.088)">
       <defs>
        <path id="ArialMT-31" d="M 2384 0 
L 1822 0 
L 1822 3584 
Q 1619 3391 1289 3197 
Q 959 3003 697 2906 
L 697 3450 
Q 1169 3672 1522 3987 
Q 1875 4303 2022 4600 
L 2384 4600 
L 2384 0 
z
" transform="scale(0.015625)"/>
       </defs>
       <use xlink:href="#ArialMT-50"/>
       <use xlink:href="#ArialMT-31" x="66.699219"/>
      </g>
     </g>
    </g>
    <g id="xtick_5">
     <g id="line2d_6">
      <g>
       <use xlink:href="#m61695a7415" x="400" y="384.48" style="fill: #262626; stroke: #262626"/>
      </g>
     </g>
     <g id="text_5">
      <!-- P1' -->
      <g style="fill: #262626" transform="translate(393.778125 399.078875) scale(0.088 -0.088)">
       <defs>
        <path id="ArialMT-27" d="M 425 2959 
L 281 3816 
L 281 4581 
L 922 4581 
L 922 3816 
L 772 2959 
L 425 2959 
z
" transform="scale(0.015625)"/>
       </defs>
       <use xlink:href="#ArialMT-50"/>
       <use xlink:href="#ArialMT-31" x="66.699219"/>
       <use xlink:href="#ArialMT-27" x="122.314453"/>
      </g>
     </g>
    </g>
    <g id="xtick_6">
     <g id="line2d_7">
      <g>
       <use xlink:href="#m61695a7415" x="462" y="384.48" style="fill: #262626; stroke: #262626"/>
      </g>
     </g>
     <g id="text_6">
      <!-- P2' -->
      <g style="fill: #262626" transform="translate(455.778125 399.078875) scale(0.088 -0.088)">
       <use xlink:href="#ArialMT-50"/>
       <use xlink:href="#ArialMT-32" x="66.699219"/>
       <use xlink:href="#ArialMT-27" x="122.314453"/>
      </g>
     </g>
    </g>
    <g id="xtick_7">
     <g id="line2d_8">
      <g>
       <use xlink:href="#m61695a7415" x="524" y="384.48" style="fill: #262626; stroke: #262626"/>
      </g>
     </g>
     <g id="text_7">
      <!-- P3' -->
      <g style="fill: #262626" transform="translate(517.778125 399.078875) scale(0.088 -0.088)">
       <use xlink:href="#ArialMT-50"/>
       <use xlink:href="#ArialMT-33" x="66.699219"/>
       <use xlink:href="#ArialMT-27" x="122.314453"/>
      </g>
     </g>
    </g>
    <g id="xtick_8">
     <g id="line2d_9">
      <g>
       <use xlink:href="#m61695a7415" x="586" y="384.48" style="fill: #262626; stroke: #262626"/>
      </g>
     </g>
     <g id="text_8">
      <!-- P4' -->
      <g style="fill: #262626" transform="translate(579.778125 399.078875) scale(0.088 -0.088)">
       <use xlink:href="#ArialMT-50"/>
       <use xlink:href="#ArialMT-34" x="66.699219"/>
       <use xlink:href="#ArialMT-27" x="122.314453"/>
      </g>
     </g>
    </g>
   </g>
   <g id="matplotlib.axis_2">
    <g id="ytick_1">
     <g id="line2d_10">
      <defs>
       <path id="m26de1884fa" d="M 0 0 
L -4.8 0 
" style="stroke: #262626"/>
      </defs>
      <g>
       <use xlink:href="#m26de1884fa" x="90" y="384.48" style="fill: #262626; stroke: #262626"/>
      </g>
     </g>
     <g id="text_9">
      <!-- 0.0 -->
      <g style="fill: #262626" transform="translate(69.468 387.629437) scale(0.088 -0.088)">
       <defs>
        <path id="ArialMT-30" d="M 266 2259 
Q 266 3072 433 3567 
Q 600 4063 929 4331 
Q 1259 4600 1759 4600 
Q 2128 4600 2406 4451 
Q 2684 4303 2865 4023 
Q 3047 3744 3150 3342 
Q 3253 2941 3253 2259 
Q 3253 1453 3087 958 
Q 2922 463 2592 192 
Q 2263 -78 1759 -78 
Q 1097 -78 719 397 
Q 266 969 266 2259 
z
M 844 2259 
Q 844 1131 1108 757 
Q 1372 384 1759 384 
Q 2147 384 2411 759 
Q 2675 1134 2675 2259 
Q 2675 3391 2411 3762 
Q 2147 4134 1753 4134 
Q 1366 4134 1134 3806 
Q 844 3388 844 2259 
z
" transform="scale(0.015625)"/>
        <path id="ArialMT-2e" d="M 581 0 
L 581 641 
L 1222 641 
L 1222 0 
L 581 0 
z
" transform="scale(0.015625)"/>
       </defs>
       <use xlink:href="#ArialMT-30"/>
       <use xlink:href="#ArialMT-2e" x="55.615234"/>
       <use xlink:href="#ArialMT-30" x="83.398438"/>
      </g>
     </g>
    </g>
    <g id="ytick_2">
     <g id="line2d_11">
      <g>
       <use xlink:href="#m26de1884fa" x="90" y="339.832814" style="fill: #262626; stroke: #262626"/>
      </g>
     </g>
     <g id="text_10">
      <!-- 0.2 -->
      <g style="fill: #262626" transform="translate(69.468 342.982251) scale(0.088 -0.088)">
       <use xlink:href="#ArialMT-30"/>
       <use xlink:href="#ArialMT-2e" x="55.615234"/>
       <use xlink:href="#ArialMT-32" x="83.398438"/>
      </g>
     </g>
    </g>
    <g id="ytick_3">
     <g id="line2d_12">
      <g>
       <use xlink:href="#m26de1884fa" x="90" y="295.185627" style="fill: #262626; stroke: #262626"/>
      </g>
     </g>
     <g id="text_11">
      <!-- 0.4 -->
      <g style="fill: #262626" transform="translate(69.468 298.335065) scale(0.088 -0.088)">
       <use xlink:href="#ArialMT-30"/>
       <use xlink:href="#ArialMT-2e" x="55.615234"/>
       <use xlink:href="#ArialMT-34" x="83.398438"/>
      </g>
     </g>
    </g>
    <g id="ytick_4">
     <g id="line2d_13">
      <g>
       <use xlink:href="#m26de1884fa" x="90" y="250.538441" style="fill: #262626; stroke: #262626"/>
      </g>
     </g>
     <g id="text_12">
      <!-- 0.6 -->
      <g style="fill: #262626" transform="translate(69.468 253.687878) scale(0.088 -0.088)">
       <defs>
        <path id="ArialMT-36" d="M 3184 3459 
L 2625 3416 
Q 2550 3747 2413 3897 
Q 2184 4138 1850 4138 
Q 1581 4138 1378 3988 
Q 1113 3794 959 3422 
Q 806 3050 800 2363 
Q 1003 2672 1297 2822 
Q 1591 2972 1913 2972 
Q 2475 2972 2870 2558 
Q 3266 2144 3266 1488 
Q 3266 1056 3080 686 
Q 2894 316 2569 119 
Q 2244 -78 1831 -78 
Q 1128 -78 684 439 
Q 241 956 241 2144 
Q 241 3472 731 4075 
Q 1159 4600 1884 4600 
Q 2425 4600 2770 4297 
Q 3116 3994 3184 3459 
z
M 888 1484 
Q 888 1194 1011 928 
Q 1134 663 1356 523 
Q 1578 384 1822 384 
Q 2178 384 2434 671 
Q 2691 959 2691 1453 
Q 2691 1928 2437 2201 
Q 2184 2475 1800 2475 
Q 1419 2475 1153 2201 
Q 888 1928 888 1484 
z
" transform="scale(0.015625)"/>
       </defs>
       <use xlink:href="#ArialMT-30"/>
       <use xlink:href="#ArialMT-2e" x="55.615234"/>
       <use xlink:href="#ArialMT-36" x="83.398438"/>
      </g>
     </g>
    </g>
    <g id="ytick_5">
     <g id="line2d_14">
      <g>
       <use xlink:href="#m26de1884fa" x="90" y="205.891254" style="fill: #262626; stroke: #262626"/>
      </g>
     </g>
     <g id="text_13">
      <!-- 0.8 -->
      <g style="fill: #262626" transform="translate(69.468 209.040692) scale(0.088 -0.088)">
       <defs>
        <path id="ArialMT-38" d="M 1131 2484 
Q 781 2613 612 2850 
Q 444 3088 444 3419 
Q 444 3919 803 4259 
Q 1163 4600 1759 4600 
Q 2359 4600 2725 4251 
Q 3091 3903 3091 3403 
Q 3091 3084 2923 2848 
Q 2756 2613 2416 2484 
Q 2838 2347 3058 2040 
Q 3278 1734 3278 1309 
Q 3278 722 2862 322 
Q 2447 -78 1769 -78 
Q 1091 -78 675 323 
Q 259 725 259 1325 
Q 259 1772 486 2073 
Q 713 2375 1131 2484 
z
M 1019 3438 
Q 1019 3113 1228 2906 
Q 1438 2700 1772 2700 
Q 2097 2700 2305 2904 
Q 2513 3109 2513 3406 
Q 2513 3716 2298 3927 
Q 2084 4138 1766 4138 
Q 1444 4138 1231 3931 
Q 1019 3725 1019 3438 
z
M 838 1322 
Q 838 1081 952 856 
Q 1066 631 1291 507 
Q 1516 384 1775 384 
Q 2178 384 2440 643 
Q 2703 903 2703 1303 
Q 2703 1709 2433 1975 
Q 2163 2241 1756 2241 
Q 1359 2241 1098 1978 
Q 838 1716 838 1322 
z
" transform="scale(0.015625)"/>
       </defs>
       <use xlink:href="#ArialMT-30"/>
       <use xlink:href="#ArialMT-2e" x="55.615234"/>
       <use xlink:href="#ArialMT-38" x="83.398438"/>
      </g>
     </g>
    </g>
    <g id="ytick_6">
     <g id="line2d_15">
      <g>
       <use xlink:href="#m26de1884fa" x="90" y="161.244068" style="fill: #262626; stroke: #262626"/>
      </g>
     </g>
     <g id="text_14">
      <!-- 1.0 -->
      <g style="fill: #262626" transform="translate(69.468 164.393506) scale(0.088 -0.088)">
       <use xlink:href="#ArialMT-31"/>
       <use xlink:href="#ArialMT-2e" x="55.615234"/>
       <use xlink:href="#ArialMT-30" x="83.398438"/>
      </g>
     </g>
    </g>
    <g id="ytick_7">
     <g id="line2d_16">
      <g>
       <use xlink:href="#m26de1884fa" x="90" y="116.596882" style="fill: #262626; stroke: #262626"/>
      </g>
     </g>
     <g id="text_15">
      <!-- 1.2 -->
      <g style="fill: #262626" transform="translate(69.468 119.746319) scale(0.088 -0.088)">
       <use xlink:href="#ArialMT-31"/>
       <use xlink:href="#ArialMT-2e" x="55.615234"/>
       <use xlink:href="#ArialMT-32" x="83.398438"/>
      </g>
     </g>
    </g>
    <g id="ytick_8">
     <g id="line2d_17">
      <g>
       <use xlink:href="#m26de1884fa" x="90" y="71.949695" style="fill: #262626; stroke: #262626"/>
      </g>
     </g>
     <g id="text_16">
      <!-- 1.4 -->
      <g style="fill: #262626" transform="translate(69.468 75.099133) scale(0.088 -0.088)">
       <use xlink:href="#ArialMT-31"/>
       <use xlink:href="#ArialMT-2e" x="55.615234"/>
       <use xlink:href="#ArialMT-34" x="83.398438"/>
      </g>
     </g>
    </g>
    <g id="text_17">
     <!-- information (bits) -->
     <g style="fill: #262626" transform="translate(63.4475 253.902) rotate(-90) scale(0.096 -0.096)">
      <defs>
       <path id="ArialMT-69" d="M 425 3934 
L 425 4581 
L 988 4581 
L 988 3934 
L 425 3934 
z
M 425 0 
L 425 3319 
L 988 3319 
L 988 0 
L 425 0 
z
" transform="scale(0.015625)"/>
       <path id="ArialMT-6e" d="M 422 0 
L 422 3319 
L 928 3319 
L 928 2847 
Q 1294 3394 1984 3394 
Q 2284 3394 2536 3286 
Q 2788 3178 2913 3003 
Q 3038 2828 3088 2588 
Q 3119 2431 3119 2041 
L 3119 0 
L 2556 0 
L 2556 2019 
Q 2556 2363 2490 2533 
Q 2425 2703 2258 2804 
Q 2091 2906 1866 2906 
Q 1506 2906 1245 2678 
Q 984 2450 984 1813 
L 984 0 
L 422 0 
z
" transform="scale(0.015625)"/>
       <path id="ArialMT-66" d="M 556 0 
L 556 2881 
L 59 2881 
L 59 3319 
L 556 3319 
L 556 3672 
Q 556 4006 616 4169 
Q 697 4388 901 4523 
Q 1106 4659 1475 4659 
Q 1713 4659 2000 4603 
L 1916 4113 
Q 1741 4144 1584 4144 
Q 1328 4144 1222 4034 
Q 1116 3925 1116 3625 
L 1116 3319 
L 1763 3319 
L 1763 2881 
L 1116 2881 
L 1116 0 
L 556 0 
z
" transform="scale(0.015625)"/>
       <path id="ArialMT-6f" d="M 213 1659 
Q 213 2581 725 3025 
Q 1153 3394 1769 3394 
Q 2453 3394 2887 2945 
Q 3322 2497 3322 1706 
Q 3322 1066 3130 698 
Q 2938 331 2570 128 
Q 2203 -75 1769 -75 
Q 1072 -75 642 372 
Q 213 819 213 1659 
z
M 791 1659 
Q 791 1022 1069 705 
Q 1347 388 1769 388 
Q 2188 388 2466 706 
Q 2744 1025 2744 1678 
Q 2744 2294 2464 2611 
Q 2184 2928 1769 2928 
Q 1347 2928 1069 2612 
Q 791 2297 791 1659 
z
" transform="scale(0.015625)"/>
       <path id="ArialMT-72" d="M 416 0 
L 416 3319 
L 922 3319 
L 922 2816 
Q 1116 3169 1280 3281 
Q 1444 3394 1641 3394 
Q 1925 3394 2219 3213 
L 2025 2691 
Q 1819 2813 1613 2813 
Q 1428 2813 1281 2702 
Q 1134 2591 1072 2394 
Q 978 2094 978 1738 
L 978 0 
L 416 0 
z
" transform="scale(0.015625)"/>
       <path id="ArialMT-6d" d="M 422 0 
L 422 3319 
L 925 3319 
L 925 2853 
Q 1081 3097 1340 3245 
Q 1600 3394 1931 3394 
Q 2300 3394 2536 3241 
Q 2772 3088 2869 2813 
Q 3263 3394 3894 3394 
Q 4388 3394 4653 3120 
Q 4919 2847 4919 2278 
L 4919 0 
L 4359 0 
L 4359 2091 
Q 4359 2428 4304 2576 
Q 4250 2725 4106 2815 
Q 3963 2906 3769 2906 
Q 3419 2906 3187 2673 
Q 2956 2441 2956 1928 
L 2956 0 
L 2394 0 
L 2394 2156 
Q 2394 2531 2256 2718 
Q 2119 2906 1806 2906 
Q 1569 2906 1367 2781 
Q 1166 2656 1075 2415 
Q 984 2175 984 1722 
L 984 0 
L 422 0 
z
" transform="scale(0.015625)"/>
       <path id="ArialMT-61" d="M 2588 409 
Q 2275 144 1986 34 
Q 1697 -75 1366 -75 
Q 819 -75 525 192 
Q 231 459 231 875 
Q 231 1119 342 1320 
Q 453 1522 633 1644 
Q 813 1766 1038 1828 
Q 1203 1872 1538 1913 
Q 2219 1994 2541 2106 
Q 2544 2222 2544 2253 
Q 2544 2597 2384 2738 
Q 2169 2928 1744 2928 
Q 1347 2928 1158 2789 
Q 969 2650 878 2297 
L 328 2372 
Q 403 2725 575 2942 
Q 747 3159 1072 3276 
Q 1397 3394 1825 3394 
Q 2250 3394 2515 3294 
Q 2781 3194 2906 3042 
Q 3031 2891 3081 2659 
Q 3109 2516 3109 2141 
L 3109 1391 
Q 3109 606 3145 398 
Q 3181 191 3288 0 
L 2700 0 
Q 2613 175 2588 409 
z
M 2541 1666 
Q 2234 1541 1622 1453 
Q 1275 1403 1131 1340 
Q 988 1278 909 1158 
Q 831 1038 831 891 
Q 831 666 1001 516 
Q 1172 366 1500 366 
Q 1825 366 2078 508 
Q 2331 650 2450 897 
Q 2541 1088 2541 1459 
L 2541 1666 
z
" transform="scale(0.015625)"/>
       <path id="ArialMT-74" d="M 1650 503 
L 1731 6 
Q 1494 -44 1306 -44 
Q 1000 -44 831 53 
Q 663 150 594 308 
Q 525 466 525 972 
L 525 2881 
L 113 2881 
L 113 3319 
L 525 3319 
L 525 4141 
L 1084 4478 
L 1084 3319 
L 1650 3319 
L 1650 2881 
L 1084 2881 
L 1084 941 
Q 1084 700 1114 631 
Q 1144 563 1211 522 
Q 1278 481 1403 481 
Q 1497 481 1650 503 
z
" transform="scale(0.015625)"/>
       <path id="ArialMT-20" transform="scale(0.015625)"/>
       <path id="ArialMT-28" d="M 1497 -1347 
Q 1031 -759 709 28 
Q 388 816 388 1659 
Q 388 2403 628 3084 
Q 909 3875 1497 4659 
L 1900 4659 
Q 1522 4009 1400 3731 
Q 1209 3300 1100 2831 
Q 966 2247 966 1656 
Q 966 153 1900 -1347 
L 1497 -1347 
z
" transform="scale(0.015625)"/>
       <path id="ArialMT-62" d="M 941 0 
L 419 0 
L 419 4581 
L 981 4581 
L 981 2947 
Q 1338 3394 1891 3394 
Q 2197 3394 2470 3270 
Q 2744 3147 2920 2923 
Q 3097 2700 3197 2384 
Q 3297 2069 3297 1709 
Q 3297 856 2875 390 
Q 2453 -75 1863 -75 
Q 1275 -75 941 416 
L 941 0 
z
M 934 1684 
Q 934 1088 1097 822 
Q 1363 388 1816 388 
Q 2184 388 2453 708 
Q 2722 1028 2722 1663 
Q 2722 2313 2464 2622 
Q 2206 2931 1841 2931 
Q 1472 2931 1203 2611 
Q 934 2291 934 1684 
z
" transform="scale(0.015625)"/>
       <path id="ArialMT-73" d="M 197 991 
L 753 1078 
Q 800 744 1014 566 
Q 1228 388 1613 388 
Q 2000 388 2187 545 
Q 2375 703 2375 916 
Q 2375 1106 2209 1216 
Q 2094 1291 1634 1406 
Q 1016 1563 777 1677 
Q 538 1791 414 1992 
Q 291 2194 291 2438 
Q 291 2659 392 2848 
Q 494 3038 669 3163 
Q 800 3259 1026 3326 
Q 1253 3394 1513 3394 
Q 1903 3394 2198 3281 
Q 2494 3169 2634 2976 
Q 2775 2784 2828 2463 
L 2278 2388 
Q 2241 2644 2061 2787 
Q 1881 2931 1553 2931 
Q 1166 2931 1000 2803 
Q 834 2675 834 2503 
Q 834 2394 903 2306 
Q 972 2216 1119 2156 
Q 1203 2125 1616 2013 
Q 2213 1853 2448 1751 
Q 2684 1650 2818 1456 
Q 2953 1263 2953 975 
Q 2953 694 2789 445 
Q 2625 197 2315 61 
Q 2006 -75 1616 -75 
Q 969 -75 630 194 
Q 291 463 197 991 
z
" transform="scale(0.015625)"/>
       <path id="ArialMT-29" d="M 791 -1347 
L 388 -1347 
Q 1322 153 1322 1656 
Q 1322 2244 1188 2822 
Q 1081 3291 891 3722 
Q 769 4003 388 4659 
L 791 4659 
Q 1378 3875 1659 3084 
Q 1900 2403 1900 1659 
Q 1900 816 1576 28 
Q 1253 -759 791 -1347 
z
" transform="scale(0.015625)"/>
      </defs>
      <use xlink:href="#ArialMT-69"/>
      <use xlink:href="#ArialMT-6e" x="22.216797"/>
      <use xlink:href="#ArialMT-66" x="77.832031"/>
      <use xlink:href="#ArialMT-6f" x="105.615234"/>
      <use xlink:href="#ArialMT-72" x="161.230469"/>
      <use xlink:href="#ArialMT-6d" x="194.53125"/>
      <use xlink:href="#ArialMT-61" x="277.832031"/>
      <use xlink:href="#ArialMT-74" x="333.447266"/>
      <use xlink:href="#ArialMT-69" x="361.230469"/>
      <use xlink:href="#ArialMT-6f" x="383.447266"/>
      <use xlink:href="#ArialMT-6e" x="439.0625"/>
      <use xlink:href="#ArialMT-20" x="494.677734"/>
      <use xlink:href="#ArialMT-28" x="522.460938"/>
      <use xlink:href="#ArialMT-62" x="555.761719"/>
      <use xlink:href="#ArialMT-69" x="611.376953"/>
      <use xlink:href="#ArialMT-74" x="633.59375"/>
      <use xlink:href="#ArialMT-73" x="661.376953"/>
      <use xlink:href="#ArialMT-29" x="711.376953"/>
     </g>
    </g>
   </g>
   <g id="line2d_18">
    <path d="M 369 384.48 
L 369 51.84 
" clip-path="url(#pbda47d5c20)" style="fill: none; stroke: #daa520; stroke-width: 2; stroke-linecap: round"/>
   </g>
   <g id="patch_55">
    <path d="M 90 384.48 
L 648 384.48 
" style="fill: none; stroke: #262626; stroke-linejoin: miter; stroke-linecap: square"/>
   </g>
   <g id="patch_56">
    <path d="M 90 51.84 
L 648 51.84 
" style="fill: none; stroke: #262626; stroke-linejoin: miter; stroke-linecap: square"/>
   </g>
   <g id="text_18">
    <!-- Ctrl vs. MMP9 information content, Kullback n=10 -->
    <g style="fill: #262626" transform="translate(263.75925 45.84) scale(0.096 -0.096)">
     <defs>
      <path id="ArialMT-43" d="M 3763 1606 
L 4369 1453 
Q 4178 706 3683 314 
Q 3188 -78 2472 -78 
Q 1731 -78 1267 223 
Q 803 525 561 1097 
Q 319 1669 319 2325 
Q 319 3041 592 3573 
Q 866 4106 1370 4382 
Q 1875 4659 2481 4659 
Q 3169 4659 3637 4309 
Q 4106 3959 4291 3325 
L 3694 3184 
Q 3534 3684 3231 3912 
Q 2928 4141 2469 4141 
Q 1941 4141 1586 3887 
Q 1231 3634 1087 3207 
Q 944 2781 944 2328 
Q 944 1744 1114 1308 
Q 1284 872 1643 656 
Q 2003 441 2422 441 
Q 2931 441 3284 734 
Q 3638 1028 3763 1606 
z
" transform="scale(0.015625)"/>
      <path id="ArialMT-6c" d="M 409 0 
L 409 4581 
L 972 4581 
L 972 0 
L 409 0 
z
" transform="scale(0.015625)"/>
      <path id="ArialMT-76" d="M 1344 0 
L 81 3319 
L 675 3319 
L 1388 1331 
Q 1503 1009 1600 663 
Q 1675 925 1809 1294 
L 2547 3319 
L 3125 3319 
L 1869 0 
L 1344 0 
z
" transform="scale(0.015625)"/>
      <path id="ArialMT-4d" d="M 475 0 
L 475 4581 
L 1388 4581 
L 2472 1338 
Q 2622 884 2691 659 
Q 2769 909 2934 1394 
L 4031 4581 
L 4847 4581 
L 4847 0 
L 4263 0 
L 4263 3834 
L 2931 0 
L 2384 0 
L 1059 3900 
L 1059 0 
L 475 0 
z
" transform="scale(0.015625)"/>
      <path id="ArialMT-39" d="M 350 1059 
L 891 1109 
Q 959 728 1153 556 
Q 1347 384 1650 384 
Q 1909 384 2104 503 
Q 2300 622 2425 820 
Q 2550 1019 2634 1356 
Q 2719 1694 2719 2044 
Q 2719 2081 2716 2156 
Q 2547 1888 2255 1720 
Q 1963 1553 1622 1553 
Q 1053 1553 659 1965 
Q 266 2378 266 3053 
Q 266 3750 677 4175 
Q 1088 4600 1706 4600 
Q 2153 4600 2523 4359 
Q 2894 4119 3086 3673 
Q 3278 3228 3278 2384 
Q 3278 1506 3087 986 
Q 2897 466 2520 194 
Q 2144 -78 1638 -78 
Q 1100 -78 759 220 
Q 419 519 350 1059 
z
M 2653 3081 
Q 2653 3566 2395 3850 
Q 2138 4134 1775 4134 
Q 1400 4134 1122 3828 
Q 844 3522 844 3034 
Q 844 2597 1108 2323 
Q 1372 2050 1759 2050 
Q 2150 2050 2401 2323 
Q 2653 2597 2653 3081 
z
" transform="scale(0.015625)"/>
      <path id="ArialMT-63" d="M 2588 1216 
L 3141 1144 
Q 3050 572 2676 248 
Q 2303 -75 1759 -75 
Q 1078 -75 664 370 
Q 250 816 250 1647 
Q 250 2184 428 2587 
Q 606 2991 970 3192 
Q 1334 3394 1763 3394 
Q 2303 3394 2647 3120 
Q 2991 2847 3088 2344 
L 2541 2259 
Q 2463 2594 2264 2762 
Q 2066 2931 1784 2931 
Q 1359 2931 1093 2626 
Q 828 2322 828 1663 
Q 828 994 1084 691 
Q 1341 388 1753 388 
Q 2084 388 2306 591 
Q 2528 794 2588 1216 
z
" transform="scale(0.015625)"/>
      <path id="ArialMT-65" d="M 2694 1069 
L 3275 997 
Q 3138 488 2766 206 
Q 2394 -75 1816 -75 
Q 1088 -75 661 373 
Q 234 822 234 1631 
Q 234 2469 665 2931 
Q 1097 3394 1784 3394 
Q 2450 3394 2872 2941 
Q 3294 2488 3294 1666 
Q 3294 1616 3291 1516 
L 816 1516 
Q 847 969 1125 678 
Q 1403 388 1819 388 
Q 2128 388 2347 550 
Q 2566 713 2694 1069 
z
M 847 1978 
L 2700 1978 
Q 2663 2397 2488 2606 
Q 2219 2931 1791 2931 
Q 1403 2931 1139 2672 
Q 875 2413 847 1978 
z
" transform="scale(0.015625)"/>
      <path id="ArialMT-2c" d="M 569 0 
L 569 641 
L 1209 641 
L 1209 0 
Q 1209 -353 1084 -570 
Q 959 -788 688 -906 
L 531 -666 
Q 709 -588 793 -436 
Q 878 -284 888 0 
L 569 0 
z
" transform="scale(0.015625)"/>
      <path id="ArialMT-4b" d="M 469 0 
L 469 4581 
L 1075 4581 
L 1075 2309 
L 3350 4581 
L 4172 4581 
L 2250 2725 
L 4256 0 
L 3456 0 
L 1825 2319 
L 1075 1588 
L 1075 0 
L 469 0 
z
" transform="scale(0.015625)"/>
      <path id="ArialMT-75" d="M 2597 0 
L 2597 488 
Q 2209 -75 1544 -75 
Q 1250 -75 995 37 
Q 741 150 617 320 
Q 494 491 444 738 
Q 409 903 409 1263 
L 409 3319 
L 972 3319 
L 972 1478 
Q 972 1038 1006 884 
Q 1059 663 1231 536 
Q 1403 409 1656 409 
Q 1909 409 2131 539 
Q 2353 669 2445 892 
Q 2538 1116 2538 1541 
L 2538 3319 
L 3100 3319 
L 3100 0 
L 2597 0 
z
" transform="scale(0.015625)"/>
      <path id="ArialMT-6b" d="M 425 0 
L 425 4581 
L 988 4581 
L 988 1969 
L 2319 3319 
L 3047 3319 
L 1778 2088 
L 3175 0 
L 2481 0 
L 1384 1697 
L 988 1316 
L 988 0 
L 425 0 
z
" transform="scale(0.015625)"/>
      <path id="ArialMT-3d" d="M 3381 2694 
L 356 2694 
L 356 3219 
L 3381 3219 
L 3381 2694 
z
M 3381 1303 
L 356 1303 
L 356 1828 
L 3381 1828 
L 3381 1303 
z
" transform="scale(0.015625)"/>
     </defs>
     <use xlink:href="#ArialMT-43"/>
     <use xlink:href="#ArialMT-74" x="72.216797"/>
     <use xlink:href="#ArialMT-72" x="100"/>
     <use xlink:href="#ArialMT-6c" x="133.300781"/>
     <use xlink:href="#ArialMT-20" x="155.517578"/>
     <use xlink:href="#ArialMT-76" x="183.300781"/>
     <use xlink:href="#ArialMT-73" x="233.300781"/>
     <use xlink:href="#ArialMT-2e" x="283.300781"/>
     <use xlink:href="#ArialMT-20" x="311.083984"/>
     <use xlink:href="#ArialMT-4d" x="338.867188"/>
     <use xlink:href="#ArialMT-4d" x="422.167969"/>
     <use xlink:href="#ArialMT-50" x="505.46875"/>
     <use xlink:href="#ArialMT-39" x="572.167969"/>
     <use xlink:href="#ArialMT-20" x="627.783203"/>
     <use xlink:href="#ArialMT-69" x="655.566406"/>
     <use xlink:href="#ArialMT-6e" x="677.783203"/>
     <use xlink:href="#ArialMT-66" x="733.398438"/>
     <use xlink:href="#ArialMT-6f" x="761.181641"/>
     <use xlink:href="#ArialMT-72" x="816.796875"/>
     <use xlink:href="#ArialMT-6d" x="850.097656"/>
     <use xlink:href="#ArialMT-61" x="933.398438"/>
     <use xlink:href="#ArialMT-74" x="989.013672"/>
     <use xlink:href="#ArialMT-69" x="1016.796875"/>
     <use xlink:href="#ArialMT-6f" x="1039.013672"/>
     <use xlink:href="#ArialMT-6e" x="1094.628906"/>
     <use xlink:href="#ArialMT-20" x="1150.244141"/>
     <use xlink:href="#ArialMT-63" x="1178.027344"/>
     <use xlink:href="#ArialMT-6f" x="1228.027344"/>
     <use xlink:href="#ArialMT-6e" x="1283.642578"/>
     <use xlink:href="#ArialMT-74" x="1339.257812"/>
     <use xlink:href="#ArialMT-65" x="1367.041016"/>
     <use xlink:href="#ArialMT-6e" x="1422.65625"/>
     <use xlink:href="#ArialMT-74" x="1478.271484"/>
     <use xlink:href="#ArialMT-2c" x="1506.054688"/>
     <use xlink:href="#ArialMT-20" x="1533.837891"/>
     <use xlink:href="#ArialMT-4b" x="1561.621094"/>
     <use xlink:href="#ArialMT-75" x="1628.320312"/>
     <use xlink:href="#ArialMT-6c" x="1683.935547"/>
     <use xlink:href="#ArialMT-6c" x="1706.152344"/>
     <use xlink:href="#ArialMT-62" x="1728.369141"/>
     <use xlink:href="#ArialMT-61" x="1783.984375"/>
     <use xlink:href="#ArialMT-63" x="1839.599609"/>
     <use xlink:href="#ArialMT-6b" x="1889.599609"/>
     <use xlink:href="#ArialMT-20" x="1939.599609"/>
     <use xlink:href="#ArialMT-6e" x="1967.382812"/>
     <use xlink:href="#ArialMT-3d" x="2022.998047"/>
     <use xlink:href="#ArialMT-31" x="2081.396484"/>
     <use xlink:href="#ArialMT-30" x="2137.011719"/>
    </g>
   </g>
  </g>
 </g>
 <defs>
  <clipPath id="pbda47d5c20">
   <rect x="90" y="51.84" width="558" height="332.64"/>
  </clipPath>
 </defs>
</svg>
