<?xml version="1.0" encoding="utf-8" standalone="no"?>
<!DOCTYPE svg PUBLIC "-//W3C//DTD SVG 1.1//EN"
  "http://www.w3.org/Graphics/SVG/1.1/DTD/svg11.dtd">
<svg xmlns:xlink="http://www.w3.org/1999/xlink" width="720pt" height="432pt" viewBox="0 0 720 432" xmlns="http://www.w3.org/2000/svg" version="1.1">
 <metadata>
  <rdf:RDF xmlns:dc="http://purl.org/dc/elements/1.1/" xmlns:cc="http://creativecommons.org/ns#" xmlns:rdf="http://www.w3.org/1999/02/22-rdf-syntax-ns#">
   <cc:Work>
    <dc:type rdf:resource="http://purl.org/dc/dcmitype/StillImage"/>
    <dc:date>2023-11-10T15:28:34.866507</dc:date>
    <dc:format>image/svg+xml</dc:format>
    <dc:creator>
     <cc:Agent>
      <dc:title>Matplotlib v3.7.1, https://matplotlib.org/</dc:title>
     </cc:Agent>
    </dc:creator>
   </cc:Work>
  </rdf:RDF>
 </metadata>
 <defs>
  <style type="text/css">*{stroke-linejoin: round; stroke-linecap: butt}</style>
 </defs>
 <g id="figure_1">
  <g id="patch_1">
   <path d="M 0 432 
L 720 432 
L 720 0 
L 0 0 
z
" style="fill: #ffffff"/>
  </g>
  <g id="axes_1">
   <g id="patch_2">
    <path d="M 90 384.48 
L 648 384.48 
L 648 51.84 
L 90 51.84 
z
" style="fill: #ffffff"/>
   </g>
   <g id="patch_3">
    <path d="M 307 384.48 
L 369 384.48 
L 369 51.84 
L 307 51.84 
z
" clip-path="url(#pfa9b427ded)" style="fill: #ffd700; opacity: 0.35; stroke: #ffffff; stroke-width: 0.8; stroke-linejoin: miter"/>
   </g>
   <g id="line2d_1">
    <path d="M 90 384.48 
L 648 384.48 
" clip-path="url(#pfa9b427ded)" style="fill: none; stroke: #000000; stroke-width: 0.5; stroke-linecap: round"/>
   </g>
   <g id="patch_4">
    <path d="M 142.437692 303.399 
L 161.562308 303.399 
L 161.562308 382.401 
L 142.437692 382.401 
L 142.437692 303.399 
z
" clip-path="url(#pfa9b427ded)" style="fill: #21599c"/>
   </g>
   <g id="patch_5">
    <path d="M 125.65 220.239 
L 177.253077 220.239 
L 177.253077 235.646591 
L 144.774615 235.646591 
L 144.774615 250.343063 
L 175.329487 250.343063 
L 175.329487 265.750654 
L 144.774615 265.750654 
L 144.774615 283.85034 
L 178.35 283.85034 
L 178.35 299.241 
L 125.65 299.241 
L 125.65 220.239 
z
" clip-path="url(#pfa9b427ded)" style="fill: #6b296b"/>
   </g>
   <g id="patch_6">
    <path d="M 173.955948 140.848771 
L 173.955948 156.972294 
Q 168.459804 154.165365 163.221293 152.745581 
Q 157.997094 151.309478 153.34541 151.309478 
Q 147.176562 151.309478 144.213797 153.251481 
Q 141.265345 155.177165 141.265345 159.257004 
Q 141.265345 162.325043 143.254834 164.038575 
Q 145.244324 165.735788 150.482835 166.95974 
L 157.811027 168.640634 
Q 168.946442 171.202772 173.641065 176.408647 
Q 178.35 181.598202 178.35 191.193983 
Q 178.35 203.776206 171.794704 209.928603 
Q 165.239408 216.081 151.770994 216.081 
Q 145.430391 216.081 139.032537 214.693855 
Q 132.634682 213.323029 126.236828 210.614016 
L 126.236828 194.04987 
Q 132.634682 197.917557 138.60315 199.892199 
Q 144.571619 201.850522 150.125014 201.850522 
Q 155.764286 201.850522 158.755676 199.712686 
Q 161.747067 197.558532 161.747067 193.576609 
Q 161.747067 190.018989 159.714639 188.076986 
Q 157.682211 186.134983 151.59924 184.600963 
L 144.929441 182.92007 
Q 134.910429 180.472166 130.273058 175.119418 
Q 125.65 169.766669 125.65 160.693107 
Q 125.65 149.318517 132.090793 143.198758 
Q 138.531586 137.079 150.611651 137.079 
Q 156.122108 137.079 161.933134 138.025523 
Q 167.744161 138.972045 173.955948 140.848771 
z
" clip-path="url(#pfa9b427ded)" style="fill: #40ba47"/>
   </g>
   <g id="patch_7">
    <path d="M 125.65 53.919 
L 139.537864 53.919 
L 139.537864 82.753206 
L 159.555783 53.919 
L 175.683253 53.919 
L 149.743078 91.337435 
L 178.35 132.921 
L 160.964195 132.921 
L 139.537864 101.801052 
L 139.537864 132.921 
L 125.65 132.921 
L 125.65 53.919 
z
" clip-path="url(#pfa9b427ded)" style="fill: #bd2e1f"/>
   </g>
   <g id="patch_8">
    <path d="M 187.65 303.399 
L 204.578032 303.399 
L 225.968106 357.57954 
L 225.968106 303.399 
L 240.35 303.399 
L 240.35 382.401 
L 223.409364 382.401 
L 202.01929 328.22046 
L 202.01929 382.401 
L 187.65 382.401 
L 187.65 303.399 
z
" clip-path="url(#pfa9b427ded)" style="fill: #40ba47"/>
   </g>
   <g id="patch_9">
    <path d="M 209.032787 255.270105 
Q 213.762274 255.270105 215.814221 252.899707 
Q 217.866168 250.512377 217.866168 245.06046 
Q 217.866168 239.659337 215.814221 237.339733 
Q 213.762274 235.003197 209.032787 235.003197 
L 202.701781 235.003197 
L 202.701781 255.270105 
L 209.032787 255.270105 
z
M 202.701781 269.340114 
L 202.701781 299.241 
L 187.65 299.241 
L 187.65 220.239 
L 210.634307 220.239 
Q 222.170252 220.239 227.537844 225.48774 
Q 232.917949 230.719548 232.917949 242.046667 
Q 232.917949 249.868983 230.11529 254.897614 
Q 227.325142 259.926246 221.694801 262.313576 
Q 224.785233 263.261735 227.225047 266.631087 
Q 229.677374 269.983508 232.179748 276.80687 
L 240.35 299.241 
L 224.322293 299.241 
L 217.203039 279.617486 
Q 215.050997 273.691489 212.836396 271.524267 
Q 210.634307 269.340114 206.955817 269.340114 
L 202.701781 269.340114 
z
" clip-path="url(#pfa9b427ded)" style="fill: #bd2e1f"/>
   </g>
   <g id="patch_10">
    <path d="M 202.091481 152.486591 
L 202.091481 200.69034 
L 207.265444 200.69034 
Q 216.112802 200.69034 220.782574 194.493441 
Q 225.464351 188.296542 225.464351 176.495343 
Q 225.464351 164.76187 220.806583 158.632696 
Q 216.16082 152.486591 207.265444 152.486591 
L 202.091481 152.486591 
z
M 187.65 137.079 
L 202.871777 137.079 
Q 215.63262 137.079 221.874989 139.652576 
Q 228.117358 142.20922 232.583052 148.355325 
Q 236.520547 153.705653 238.429271 160.698329 
Q 240.35 167.674074 240.35 176.495343 
Q 240.35 185.452063 238.429271 192.461671 
Q 236.520547 199.471278 232.583052 204.804675 
Q 228.081344 210.95078 221.778952 213.524356 
Q 215.47656 216.081 202.871777 216.081 
L 187.65 216.081 
L 187.65 137.079 
z
" clip-path="url(#pfa9b427ded)" style="fill: #6b296b"/>
   </g>
   <g id="patch_11">
    <path d="M 187.65 53.919 
L 206.774615 53.919 
L 206.774615 117.53034 
L 240.35 117.53034 
L 240.35 132.921 
L 187.65 132.921 
L 187.65 53.919 
z
" clip-path="url(#pfa9b427ded)" style="fill: #21599c"/>
   </g>
   <g id="patch_12">
    <path d="M 266.437692 303.399 
L 285.562308 303.399 
L 285.562308 382.401 
L 266.437692 382.401 
L 266.437692 303.399 
z
" clip-path="url(#pfa9b427ded)" style="fill: #21599c"/>
   </g>
   <g id="patch_13">
    <path d="M 249.65 220.239 
L 277.043021 220.239 
Q 289.271068 220.239 295.803672 226.943842 
Q 302.35 233.631752 302.35 246.008619 
Q 302.35 258.453212 295.803672 265.141123 
Q 289.271068 271.829033 277.043021 271.829033 
L 266.159922 271.829033 
L 266.159922 299.241 
L 249.65 299.241 
L 249.65 220.239 
z
M 266.159922 235.003197 
L 266.159922 257.064836 
L 275.286354 257.064836 
Q 280.08974 257.064836 282.711016 254.186495 
Q 285.332292 251.308153 285.332292 246.008619 
Q 285.332292 240.726017 282.711016 237.864607 
Q 280.08974 235.003197 275.286354 235.003197 
L 266.159922 235.003197 
z
" clip-path="url(#pfa9b427ded)" style="fill: #787800"/>
   </g>
   <g id="patch_14">
    <path d="M 277.405333 204.266837 
L 276.373292 204.266837 
Q 263.714313 204.266837 256.676667 195.413165 
Q 249.65 186.545594 249.65 170.742414 
Q 249.65 154.967032 256.665687 146.029966 
Q 263.681375 137.079 276 137.079 
Q 288.450375 137.079 295.400188 145.946571 
Q 302.35 154.800244 302.35 170.742414 
Q 302.35 181.680938 298.661 189.589478 
Q 294.972 197.498017 288.044146 201.487034 
L 298.364562 216.081 
L 285.771458 216.081 
L 277.405333 204.266837 
z
M 276 149.198941 
Q 269.961458 149.198941 266.634771 154.841941 
Q 263.308083 160.484941 263.308083 170.742414 
Q 263.308083 181.166675 266.557917 186.712382 
Q 269.818729 192.24419 276 192.24419 
Q 282.071479 192.24419 285.398167 186.60119 
Q 288.724854 180.944291 288.724854 170.742414 
Q 288.724854 160.484941 285.398167 154.841941 
Q 282.071479 149.198941 276 149.198941 
z
" clip-path="url(#pfa9b427ded)" style="fill: #40ba47"/>
   </g>
   <g id="patch_15">
    <path d="M 249.65 53.919 
L 268.774615 53.919 
L 268.774615 117.53034 
L 302.35 117.53034 
L 302.35 132.921 
L 249.65 132.921 
L 249.65 53.919 
z
" clip-path="url(#pfa9b427ded)" style="fill: #21599c"/>
   </g>
   <g id="patch_16">
    <path d="M 333.032787 200.280422 
Q 337.762274 200.280422 339.814221 190.798827 
Q 341.866168 181.249507 341.866168 159.44184 
Q 341.866168 137.837349 339.814221 128.558932 
Q 337.762274 119.212789 333.032787 119.212789 
L 326.701781 119.212789 
L 326.701781 200.280422 
L 333.032787 200.280422 
z
M 326.701781 256.560458 
L 326.701781 376.164 
L 311.65 376.164 
L 311.65 60.156 
L 334.634307 60.156 
Q 346.170252 60.156 351.537844 81.150959 
Q 356.917949 102.078193 356.917949 147.38667 
Q 356.917949 178.675931 354.11529 198.790457 
Q 351.325142 218.904982 345.694801 228.454303 
Q 348.785233 232.24694 351.225047 245.72435 
Q 353.677374 259.134033 356.179748 286.42748 
L 364.35 376.164 
L 348.322293 376.164 
L 341.203039 297.669943 
Q 339.050997 273.965956 336.836396 265.29707 
Q 334.634307 256.560458 330.955817 256.560458 
L 326.701781 256.560458 
z
" clip-path="url(#pfa9b427ded)" style="fill: #bd2e1f"/>
   </g>
   <g id="patch_17">
    <path d="M 373.65 303.399 
L 390.578032 303.399 
L 411.968106 357.57954 
L 411.968106 303.399 
L 426.35 303.399 
L 426.35 382.401 
L 409.409364 382.401 
L 388.01929 328.22046 
L 388.01929 382.401 
L 373.65 382.401 
L 373.65 303.399 
z
" clip-path="url(#pfa9b427ded)" style="fill: #40ba47"/>
   </g>
   <g id="patch_18">
    <path d="M 426.35 292.093122 
Q 421.035119 295.667061 415.318669 297.46219 
Q 409.602219 299.241 403.507822 299.241 
Q 389.736374 299.241 381.693187 288.60078 
Q 373.65 277.96056 373.65 259.764479 
Q 373.65 241.356246 381.834917 230.797623 
Q 390.031645 220.239 404.287338 220.239 
Q 409.779381 220.239 414.810802 221.675103 
Q 419.854034 223.094887 424.318534 225.901816 
L 424.318534 241.649994 
Q 419.712304 238.043417 415.153317 236.264607 
Q 410.59433 234.469478 406.011721 234.469478 
Q 397.531533 234.469478 392.937113 241.029859 
Q 388.342694 247.57392 388.342694 259.764479 
Q 388.342694 271.840802 392.771762 278.433822 
Q 397.200829 285.010522 405.350314 285.010522 
Q 407.570753 285.010522 409.472299 284.635177 
Q 411.373846 284.243512 412.885634 283.427545 
L 412.885634 268.642208 
L 404.204662 268.642208 
L 404.204662 255.472489 
L 426.35 255.472489 
L 426.35 292.093122 
z
" clip-path="url(#pfa9b427ded)" style="fill: #787800"/>
   </g>
   <g id="patch_19">
    <path d="M 401.405333 204.266837 
L 400.373292 204.266837 
Q 387.714313 204.266837 380.676667 195.413165 
Q 373.65 186.545594 373.65 170.742414 
Q 373.65 154.967032 380.665687 146.029966 
Q 387.681375 137.079 400 137.079 
Q 412.450375 137.079 419.400188 145.946571 
Q 426.35 154.800244 426.35 170.742414 
Q 426.35 181.680938 422.661 189.589478 
Q 418.972 197.498017 412.044146 201.487034 
L 422.364563 216.081 
L 409.771458 216.081 
L 401.405333 204.266837 
z
M 400 149.198941 
Q 393.961458 149.198941 390.634771 154.841941 
Q 387.308083 160.484941 387.308083 170.742414 
Q 387.308083 181.166675 390.557917 186.712382 
Q 393.818729 192.24419 400 192.24419 
Q 406.071479 192.24419 409.398167 186.60119 
Q 412.724854 180.944291 412.724854 170.742414 
Q 412.724854 160.484941 409.398167 154.841941 
Q 406.071479 149.198941 400 149.198941 
z
" clip-path="url(#pfa9b427ded)" style="fill: #40ba47"/>
   </g>
   <g id="patch_20">
    <path d="M 373.65 53.919 
L 425.253077 53.919 
L 425.253077 69.326591 
L 392.774615 69.326591 
L 392.774615 84.023063 
L 423.329487 84.023063 
L 423.329487 99.430654 
L 392.774615 99.430654 
L 392.774615 117.53034 
L 426.35 117.53034 
L 426.35 132.921 
L 373.65 132.921 
L 373.65 53.919 
z
" clip-path="url(#pfa9b427ded)" style="fill: #6b296b"/>
   </g>
   <g id="patch_21">
    <path d="M 436.198462 303.399 
L 487.801538 303.399 
L 487.801538 318.806591 
L 455.323077 318.806591 
L 455.323077 333.503063 
L 485.877949 333.503063 
L 485.877949 348.910654 
L 455.323077 348.910654 
L 455.323077 382.401 
L 436.198462 382.401 
L 436.198462 303.399 
z
" clip-path="url(#pfa9b427ded)" style="fill: #21599c"/>
   </g>
   <g id="patch_22">
    <path d="M 435.65 220.239 
L 450.22 220.239 
L 461.988929 248.395949 
L 473.746786 220.239 
L 488.35 220.239 
L 468.665 265.953831 
L 468.665 299.241 
L 455.346071 299.241 
L 455.346071 265.953831 
L 435.65 220.239 
z
" clip-path="url(#pfa9b427ded)" style="fill: #177875"/>
   </g>
   <g id="patch_23">
    <path d="M 435.65 55.998 
L 463.043021 55.998 
Q 475.271068 55.998 481.803672 69.407684 
Q 488.35 82.783505 488.35 107.537239 
Q 488.35 132.426424 481.803672 145.802245 
Q 475.271068 159.178066 463.043021 159.178066 
L 452.159922 159.178066 
L 452.159922 214.002 
L 435.65 214.002 
L 435.65 55.998 
z
M 452.159922 85.526394 
L 452.159922 129.649672 
L 461.286354 129.649672 
Q 466.08974 129.649672 468.711016 123.892989 
Q 471.332292 118.136307 471.332292 107.537239 
Q 471.332292 96.972033 468.711016 91.249214 
Q 466.08974 85.526394 461.286354 85.526394 
L 452.159922 85.526394 
z
" clip-path="url(#pfa9b427ded)" style="fill: #787800"/>
   </g>
   <g id="patch_24">
    <path d="M 497.65 303.399 
L 506.762642 303.399 
L 513.132798 360.813441 
L 519.455534 303.399 
L 528.615597 303.399 
L 534.938332 360.813441 
L 541.316392 303.399 
L 550.35 303.399 
L 541.656239 382.401 
L 530.694196 382.401 
L 524 322.345258 
L 517.384838 382.401 
L 506.414892 382.401 
L 497.65 303.399 
z
" clip-path="url(#pfa9b427ded)" style="fill: #21599c"/>
   </g>
   <g id="patch_25">
    <path d="M 497.65 220.239 
L 525.043021 220.239 
Q 537.271068 220.239 543.803672 226.943842 
Q 550.35 233.631752 550.35 246.008619 
Q 550.35 258.453212 543.803672 265.141123 
Q 537.271068 271.829033 525.043021 271.829033 
L 514.159922 271.829033 
L 514.159922 299.241 
L 497.65 299.241 
L 497.65 220.239 
z
M 514.159922 235.003197 
L 514.159922 257.064836 
L 523.286354 257.064836 
Q 528.08974 257.064836 530.711016 254.186495 
Q 533.332292 251.308153 533.332292 246.008619 
Q 533.332292 240.726017 530.711016 237.864607 
Q 528.08974 235.003197 523.286354 235.003197 
L 514.159922 235.003197 
z
" clip-path="url(#pfa9b427ded)" style="fill: #787800"/>
   </g>
   <g id="patch_26">
    <path d="M 545.955948 63.537542 
L 545.955948 95.784589 
Q 540.459804 90.17073 535.221293 87.331163 
Q 529.997094 84.458956 525.34541 84.458956 
Q 519.176562 84.458956 516.213797 88.342963 
Q 513.265345 92.194331 513.265345 100.354008 
Q 513.265345 106.490086 515.254834 109.917151 
Q 517.244324 113.311577 522.482835 115.75948 
L 529.811027 119.121267 
Q 540.946442 124.245545 545.641065 134.657294 
Q 550.35 145.036404 550.35 164.227966 
Q 550.35 189.392412 543.794704 201.697206 
Q 537.239408 214.002 523.770994 214.002 
Q 517.430391 214.002 511.032537 211.22771 
Q 504.634682 208.486058 498.236828 203.068032 
L 498.236828 169.93974 
Q 504.634682 177.675115 510.60315 181.624399 
Q 516.571619 185.541044 522.125014 185.541044 
Q 527.764286 185.541044 530.755676 181.265373 
Q 533.747067 176.957063 533.747067 168.993218 
Q 533.747067 161.877979 531.714639 157.993972 
Q 529.682211 154.109965 523.59924 151.041926 
L 516.929441 147.680139 
Q 506.910429 142.784333 502.273058 132.078835 
Q 497.65 121.373338 497.65 103.226215 
Q 497.65 80.477033 504.090793 68.237517 
Q 510.531586 55.998 522.611651 55.998 
Q 528.122108 55.998 533.933134 57.891045 
Q 539.744161 59.78409 545.955948 63.537542 
z
" clip-path="url(#pfa9b427ded)" style="fill: #40ba47"/>
   </g>
   <g id="patch_27">
    <path d="M 559.65 303.399 
L 568.762642 303.399 
L 575.132798 360.813441 
L 581.455534 303.399 
L 590.615597 303.399 
L 596.938332 360.813441 
L 603.316392 303.399 
L 612.35 303.399 
L 603.656239 382.401 
L 592.694196 382.401 
L 586 322.345258 
L 579.384838 382.401 
L 568.414892 382.401 
L 559.65 303.399 
z
" clip-path="url(#pfa9b427ded)" style="fill: #21599c"/>
   </g>
   <g id="patch_28">
    <path d="M 559.65 220.239 
L 575.195992 220.239 
L 585.979692 262.516753 
L 596.83447 220.239 
L 612.35 220.239 
L 612.35 299.241 
L 600.80474 299.241 
L 600.80474 241.454068 
L 589.889037 284.053517 
L 582.141426 284.053517 
L 571.225723 241.454068 
L 571.225723 299.241 
L 559.65 299.241 
L 559.65 220.239 
z
" clip-path="url(#pfa9b427ded)" style="fill: #21599c"/>
   </g>
   <g id="patch_29">
    <path d="M 574.091481 152.486591 
L 574.091481 200.69034 
L 579.265444 200.69034 
Q 588.112802 200.69034 592.782574 194.493441 
Q 597.464351 188.296542 597.464351 176.495343 
Q 597.464351 164.76187 592.806583 158.632696 
Q 588.16082 152.486591 579.265444 152.486591 
L 574.091481 152.486591 
z
M 559.65 137.079 
L 574.871777 137.079 
Q 587.63262 137.079 593.874989 139.652576 
Q 600.117358 142.20922 604.583052 148.355325 
Q 608.520547 153.705653 610.429271 160.698329 
Q 612.35 167.674074 612.35 176.495343 
Q 612.35 185.452063 610.429271 192.461671 
Q 608.520547 199.471278 604.583052 204.804675 
Q 600.081344 210.95078 593.778952 213.524356 
Q 587.47656 216.081 574.871777 216.081 
L 559.65 216.081 
L 559.65 137.079 
z
" clip-path="url(#pfa9b427ded)" style="fill: #6b296b"/>
   </g>
   <g id="patch_30">
    <path d="M 559.65 53.919 
L 578.774615 53.919 
L 578.774615 117.53034 
L 612.35 117.53034 
L 612.35 132.921 
L 559.65 132.921 
L 559.65 53.919 
z
" clip-path="url(#pfa9b427ded)" style="fill: #21599c"/>
   </g>
   <g id="matplotlib.axis_1">
    <g id="xtick_1">
     <g id="line2d_2">
      <defs>
       <path id="m0cc58f09fa" d="M 0 0 
L 0 4.8 
" style="stroke: #262626"/>
      </defs>
      <g>
       <use xlink:href="#m0cc58f09fa" x="152" y="384.48" style="fill: #262626; stroke: #262626"/>
      </g>
     </g>
     <g id="text_1">
      <!-- P4 -->
      <g style="fill: #262626" transform="translate(146.61825 399.078875) scale(0.088 -0.088)">
       <defs>
        <path id="ArialMT-50" d="M 494 0 
L 494 4581 
L 2222 4581 
Q 2678 4581 2919 4538 
Q 3256 4481 3484 4323 
Q 3713 4166 3852 3881 
Q 3991 3597 3991 3256 
Q 3991 2672 3619 2267 
Q 3247 1863 2275 1863 
L 1100 1863 
L 1100 0 
L 494 0 
z
M 1100 2403 
L 2284 2403 
Q 2872 2403 3119 2622 
Q 3366 2841 3366 3238 
Q 3366 3525 3220 3729 
Q 3075 3934 2838 4000 
Q 2684 4041 2272 4041 
L 1100 4041 
L 1100 2403 
z
" transform="scale(0.015625)"/>
        <path id="ArialMT-34" d="M 2069 0 
L 2069 1097 
L 81 1097 
L 81 1613 
L 2172 4581 
L 2631 4581 
L 2631 1613 
L 3250 1613 
L 3250 1097 
L 2631 1097 
L 2631 0 
L 2069 0 
z
M 2069 1613 
L 2069 3678 
L 634 1613 
L 2069 1613 
z
" transform="scale(0.015625)"/>
       </defs>
       <use xlink:href="#ArialMT-50"/>
       <use xlink:href="#ArialMT-34" x="66.699219"/>
      </g>
     </g>
    </g>
    <g id="xtick_2">
     <g id="line2d_3">
      <g>
       <use xlink:href="#m0cc58f09fa" x="214" y="384.48" style="fill: #262626; stroke: #262626"/>
      </g>
     </g>
     <g id="text_2">
      <!-- P3 -->
      <g style="fill: #262626" transform="translate(208.61825 399.078875) scale(0.088 -0.088)">
       <defs>
        <path id="ArialMT-33" d="M 269 1209 
L 831 1284 
Q 928 806 1161 595 
Q 1394 384 1728 384 
Q 2125 384 2398 659 
Q 2672 934 2672 1341 
Q 2672 1728 2419 1979 
Q 2166 2231 1775 2231 
Q 1616 2231 1378 2169 
L 1441 2663 
Q 1497 2656 1531 2656 
Q 1891 2656 2178 2843 
Q 2466 3031 2466 3422 
Q 2466 3731 2256 3934 
Q 2047 4138 1716 4138 
Q 1388 4138 1169 3931 
Q 950 3725 888 3313 
L 325 3413 
Q 428 3978 793 4289 
Q 1159 4600 1703 4600 
Q 2078 4600 2393 4439 
Q 2709 4278 2876 4000 
Q 3044 3722 3044 3409 
Q 3044 3113 2884 2869 
Q 2725 2625 2413 2481 
Q 2819 2388 3044 2092 
Q 3269 1797 3269 1353 
Q 3269 753 2831 336 
Q 2394 -81 1725 -81 
Q 1122 -81 723 278 
Q 325 638 269 1209 
z
" transform="scale(0.015625)"/>
       </defs>
       <use xlink:href="#ArialMT-50"/>
       <use xlink:href="#ArialMT-33" x="66.699219"/>
      </g>
     </g>
    </g>
    <g id="xtick_3">
     <g id="line2d_4">
      <g>
       <use xlink:href="#m0cc58f09fa" x="276" y="384.48" style="fill: #262626; stroke: #262626"/>
      </g>
     </g>
     <g id="text_3">
      <!-- P2 -->
      <g style="fill: #262626" transform="translate(270.61825 399.078875) scale(0.088 -0.088)">
       <defs>
        <path id="ArialMT-32" d="M 3222 541 
L 3222 0 
L 194 0 
Q 188 203 259 391 
Q 375 700 629 1000 
Q 884 1300 1366 1694 
Q 2113 2306 2375 2664 
Q 2638 3022 2638 3341 
Q 2638 3675 2398 3904 
Q 2159 4134 1775 4134 
Q 1369 4134 1125 3890 
Q 881 3647 878 3216 
L 300 3275 
Q 359 3922 746 4261 
Q 1134 4600 1788 4600 
Q 2447 4600 2831 4234 
Q 3216 3869 3216 3328 
Q 3216 3053 3103 2787 
Q 2991 2522 2730 2228 
Q 2469 1934 1863 1422 
Q 1356 997 1212 845 
Q 1069 694 975 541 
L 3222 541 
z
" transform="scale(0.015625)"/>
       </defs>
       <use xlink:href="#ArialMT-50"/>
       <use xlink:href="#ArialMT-32" x="66.699219"/>
      </g>
     </g>
    </g>
    <g id="xtick_4">
     <g id="line2d_5">
      <g>
       <use xlink:href="#m0cc58f09fa" x="338" y="384.48" style="fill: #262626; stroke: #262626"/>
      </g>
     </g>
     <g id="text_4">
      <!-- P1 -->
      <g style="fill: #262626" transform="translate(332.61825 399.078875) scale(0.088 -0.088)">
       <defs>
        <path id="ArialMT-31" d="M 2384 0 
L 1822 0 
L 1822 3584 
Q 1619 3391 1289 3197 
Q 959 3003 697 2906 
L 697 3450 
Q 1169 3672 1522 3987 
Q 1875 4303 2022 4600 
L 2384 4600 
L 2384 0 
z
" transform="scale(0.015625)"/>
       </defs>
       <use xlink:href="#ArialMT-50"/>
       <use xlink:href="#ArialMT-31" x="66.699219"/>
      </g>
     </g>
    </g>
    <g id="xtick_5">
     <g id="line2d_6">
      <g>
       <use xlink:href="#m0cc58f09fa" x="400" y="384.48" style="fill: #262626; stroke: #262626"/>
      </g>
     </g>
     <g id="text_5">
      <!-- P1' -->
      <g style="fill: #262626" transform="translate(393.778125 399.078875) scale(0.088 -0.088)">
       <defs>
        <path id="ArialMT-27" d="M 425 2959 
L 281 3816 
L 281 4581 
L 922 4581 
L 922 3816 
L 772 2959 
L 425 2959 
z
" transform="scale(0.015625)"/>
       </defs>
       <use xlink:href="#ArialMT-50"/>
       <use xlink:href="#ArialMT-31" x="66.699219"/>
       <use xlink:href="#ArialMT-27" x="122.314453"/>
      </g>
     </g>
    </g>
    <g id="xtick_6">
     <g id="line2d_7">
      <g>
       <use xlink:href="#m0cc58f09fa" x="462" y="384.48" style="fill: #262626; stroke: #262626"/>
      </g>
     </g>
     <g id="text_6">
      <!-- P2' -->
      <g style="fill: #262626" transform="translate(455.778125 399.078875) scale(0.088 -0.088)">
       <use xlink:href="#ArialMT-50"/>
       <use xlink:href="#ArialMT-32" x="66.699219"/>
       <use xlink:href="#ArialMT-27" x="122.314453"/>
      </g>
     </g>
    </g>
    <g id="xtick_7">
     <g id="line2d_8">
      <g>
       <use xlink:href="#m0cc58f09fa" x="524" y="384.48" style="fill: #262626; stroke: #262626"/>
      </g>
     </g>
     <g id="text_7">
      <!-- P3' -->
      <g style="fill: #262626" transform="translate(517.778125 399.078875) scale(0.088 -0.088)">
       <use xlink:href="#ArialMT-50"/>
       <use xlink:href="#ArialMT-33" x="66.699219"/>
       <use xlink:href="#ArialMT-27" x="122.314453"/>
      </g>
     </g>
    </g>
    <g id="xtick_8">
     <g id="line2d_9">
      <g>
       <use xlink:href="#m0cc58f09fa" x="586" y="384.48" style="fill: #262626; stroke: #262626"/>
      </g>
     </g>
     <g id="text_8">
      <!-- P4' -->
      <g style="fill: #262626" transform="translate(579.778125 399.078875) scale(0.088 -0.088)">
       <use xlink:href="#ArialMT-50"/>
       <use xlink:href="#ArialMT-34" x="66.699219"/>
       <use xlink:href="#ArialMT-27" x="122.314453"/>
      </g>
     </g>
    </g>
   </g>
   <g id="matplotlib.axis_2">
    <g id="ytick_1">
     <g id="line2d_10">
      <defs>
       <path id="mf152d52c71" d="M 0 0 
L -4.8 0 
" style="stroke: #262626"/>
      </defs>
      <g>
       <use xlink:href="#mf152d52c71" x="90" y="384.48" style="fill: #262626; stroke: #262626"/>
      </g>
     </g>
     <g id="text_9">
      <!-- 0.0 -->
      <g style="fill: #262626" transform="translate(69.468 387.629437) scale(0.088 -0.088)">
       <defs>
        <path id="ArialMT-30" d="M 266 2259 
Q 266 3072 433 3567 
Q 600 4063 929 4331 
Q 1259 4600 1759 4600 
Q 2128 4600 2406 4451 
Q 2684 4303 2865 4023 
Q 3047 3744 3150 3342 
Q 3253 2941 3253 2259 
Q 3253 1453 3087 958 
Q 2922 463 2592 192 
Q 2263 -78 1759 -78 
Q 1097 -78 719 397 
Q 266 969 266 2259 
z
M 844 2259 
Q 844 1131 1108 757 
Q 1372 384 1759 384 
Q 2147 384 2411 759 
Q 2675 1134 2675 2259 
Q 2675 3391 2411 3762 
Q 2147 4134 1753 4134 
Q 1366 4134 1134 3806 
Q 844 3388 844 2259 
z
" transform="scale(0.015625)"/>
        <path id="ArialMT-2e" d="M 581 0 
L 581 641 
L 1222 641 
L 1222 0 
L 581 0 
z
" transform="scale(0.015625)"/>
       </defs>
       <use xlink:href="#ArialMT-30"/>
       <use xlink:href="#ArialMT-2e" x="55.615234"/>
       <use xlink:href="#ArialMT-30" x="83.398438"/>
      </g>
     </g>
    </g>
    <g id="ytick_2">
     <g id="line2d_11">
      <g>
       <use xlink:href="#mf152d52c71" x="90" y="317.952" style="fill: #262626; stroke: #262626"/>
      </g>
     </g>
     <g id="text_10">
      <!-- 0.2 -->
      <g style="fill: #262626" transform="translate(69.468 321.101437) scale(0.088 -0.088)">
       <use xlink:href="#ArialMT-30"/>
       <use xlink:href="#ArialMT-2e" x="55.615234"/>
       <use xlink:href="#ArialMT-32" x="83.398438"/>
      </g>
     </g>
    </g>
    <g id="ytick_3">
     <g id="line2d_12">
      <g>
       <use xlink:href="#mf152d52c71" x="90" y="251.424" style="fill: #262626; stroke: #262626"/>
      </g>
     </g>
     <g id="text_11">
      <!-- 0.4 -->
      <g style="fill: #262626" transform="translate(69.468 254.573437) scale(0.088 -0.088)">
       <use xlink:href="#ArialMT-30"/>
       <use xlink:href="#ArialMT-2e" x="55.615234"/>
       <use xlink:href="#ArialMT-34" x="83.398438"/>
      </g>
     </g>
    </g>
    <g id="ytick_4">
     <g id="line2d_13">
      <g>
       <use xlink:href="#mf152d52c71" x="90" y="184.896" style="fill: #262626; stroke: #262626"/>
      </g>
     </g>
     <g id="text_12">
      <!-- 0.6 -->
      <g style="fill: #262626" transform="translate(69.468 188.045437) scale(0.088 -0.088)">
       <defs>
        <path id="ArialMT-36" d="M 3184 3459 
L 2625 3416 
Q 2550 3747 2413 3897 
Q 2184 4138 1850 4138 
Q 1581 4138 1378 3988 
Q 1113 3794 959 3422 
Q 806 3050 800 2363 
Q 1003 2672 1297 2822 
Q 1591 2972 1913 2972 
Q 2475 2972 2870 2558 
Q 3266 2144 3266 1488 
Q 3266 1056 3080 686 
Q 2894 316 2569 119 
Q 2244 -78 1831 -78 
Q 1128 -78 684 439 
Q 241 956 241 2144 
Q 241 3472 731 4075 
Q 1159 4600 1884 4600 
Q 2425 4600 2770 4297 
Q 3116 3994 3184 3459 
z
M 888 1484 
Q 888 1194 1011 928 
Q 1134 663 1356 523 
Q 1578 384 1822 384 
Q 2178 384 2434 671 
Q 2691 959 2691 1453 
Q 2691 1928 2437 2201 
Q 2184 2475 1800 2475 
Q 1419 2475 1153 2201 
Q 888 1928 888 1484 
z
" transform="scale(0.015625)"/>
       </defs>
       <use xlink:href="#ArialMT-30"/>
       <use xlink:href="#ArialMT-2e" x="55.615234"/>
       <use xlink:href="#ArialMT-36" x="83.398438"/>
      </g>
     </g>
    </g>
    <g id="ytick_5">
     <g id="line2d_14">
      <g>
       <use xlink:href="#mf152d52c71" x="90" y="118.368" style="fill: #262626; stroke: #262626"/>
      </g>
     </g>
     <g id="text_13">
      <!-- 0.8 -->
      <g style="fill: #262626" transform="translate(69.468 121.517437) scale(0.088 -0.088)">
       <defs>
        <path id="ArialMT-38" d="M 1131 2484 
Q 781 2613 612 2850 
Q 444 3088 444 3419 
Q 444 3919 803 4259 
Q 1163 4600 1759 4600 
Q 2359 4600 2725 4251 
Q 3091 3903 3091 3403 
Q 3091 3084 2923 2848 
Q 2756 2613 2416 2484 
Q 2838 2347 3058 2040 
Q 3278 1734 3278 1309 
Q 3278 722 2862 322 
Q 2447 -78 1769 -78 
Q 1091 -78 675 323 
Q 259 725 259 1325 
Q 259 1772 486 2073 
Q 713 2375 1131 2484 
z
M 1019 3438 
Q 1019 3113 1228 2906 
Q 1438 2700 1772 2700 
Q 2097 2700 2305 2904 
Q 2513 3109 2513 3406 
Q 2513 3716 2298 3927 
Q 2084 4138 1766 4138 
Q 1444 4138 1231 3931 
Q 1019 3725 1019 3438 
z
M 838 1322 
Q 838 1081 952 856 
Q 1066 631 1291 507 
Q 1516 384 1775 384 
Q 2178 384 2440 643 
Q 2703 903 2703 1303 
Q 2703 1709 2433 1975 
Q 2163 2241 1756 2241 
Q 1359 2241 1098 1978 
Q 838 1716 838 1322 
z
" transform="scale(0.015625)"/>
       </defs>
       <use xlink:href="#ArialMT-30"/>
       <use xlink:href="#ArialMT-2e" x="55.615234"/>
       <use xlink:href="#ArialMT-38" x="83.398438"/>
      </g>
     </g>
    </g>
    <g id="ytick_6">
     <g id="line2d_15">
      <g>
       <use xlink:href="#mf152d52c71" x="90" y="51.84" style="fill: #262626; stroke: #262626"/>
      </g>
     </g>
     <g id="text_14">
      <!-- 1.0 -->
      <g style="fill: #262626" transform="translate(69.468 54.989437) scale(0.088 -0.088)">
       <use xlink:href="#ArialMT-31"/>
       <use xlink:href="#ArialMT-2e" x="55.615234"/>
       <use xlink:href="#ArialMT-30" x="83.398438"/>
      </g>
     </g>
    </g>
    <g id="text_15">
     <!-- percentage -->
     <g style="fill: #262626" transform="translate(63.4475 242.1765) rotate(-90) scale(0.096 -0.096)">
      <defs>
       <path id="ArialMT-70" d="M 422 -1272 
L 422 3319 
L 934 3319 
L 934 2888 
Q 1116 3141 1344 3267 
Q 1572 3394 1897 3394 
Q 2322 3394 2647 3175 
Q 2972 2956 3137 2557 
Q 3303 2159 3303 1684 
Q 3303 1175 3120 767 
Q 2938 359 2589 142 
Q 2241 -75 1856 -75 
Q 1575 -75 1351 44 
Q 1128 163 984 344 
L 984 -1272 
L 422 -1272 
z
M 931 1641 
Q 931 1000 1190 694 
Q 1450 388 1819 388 
Q 2194 388 2461 705 
Q 2728 1022 2728 1688 
Q 2728 2322 2467 2637 
Q 2206 2953 1844 2953 
Q 1484 2953 1207 2617 
Q 931 2281 931 1641 
z
" transform="scale(0.015625)"/>
       <path id="ArialMT-65" d="M 2694 1069 
L 3275 997 
Q 3138 488 2766 206 
Q 2394 -75 1816 -75 
Q 1088 -75 661 373 
Q 234 822 234 1631 
Q 234 2469 665 2931 
Q 1097 3394 1784 3394 
Q 2450 3394 2872 2941 
Q 3294 2488 3294 1666 
Q 3294 1616 3291 1516 
L 816 1516 
Q 847 969 1125 678 
Q 1403 388 1819 388 
Q 2128 388 2347 550 
Q 2566 713 2694 1069 
z
M 847 1978 
L 2700 1978 
Q 2663 2397 2488 2606 
Q 2219 2931 1791 2931 
Q 1403 2931 1139 2672 
Q 875 2413 847 1978 
z
" transform="scale(0.015625)"/>
       <path id="ArialMT-72" d="M 416 0 
L 416 3319 
L 922 3319 
L 922 2816 
Q 1116 3169 1280 3281 
Q 1444 3394 1641 3394 
Q 1925 3394 2219 3213 
L 2025 2691 
Q 1819 2813 1613 2813 
Q 1428 2813 1281 2702 
Q 1134 2591 1072 2394 
Q 978 2094 978 1738 
L 978 0 
L 416 0 
z
" transform="scale(0.015625)"/>
       <path id="ArialMT-63" d="M 2588 1216 
L 3141 1144 
Q 3050 572 2676 248 
Q 2303 -75 1759 -75 
Q 1078 -75 664 370 
Q 250 816 250 1647 
Q 250 2184 428 2587 
Q 606 2991 970 3192 
Q 1334 3394 1763 3394 
Q 2303 3394 2647 3120 
Q 2991 2847 3088 2344 
L 2541 2259 
Q 2463 2594 2264 2762 
Q 2066 2931 1784 2931 
Q 1359 2931 1093 2626 
Q 828 2322 828 1663 
Q 828 994 1084 691 
Q 1341 388 1753 388 
Q 2084 388 2306 591 
Q 2528 794 2588 1216 
z
" transform="scale(0.015625)"/>
       <path id="ArialMT-6e" d="M 422 0 
L 422 3319 
L 928 3319 
L 928 2847 
Q 1294 3394 1984 3394 
Q 2284 3394 2536 3286 
Q 2788 3178 2913 3003 
Q 3038 2828 3088 2588 
Q 3119 2431 3119 2041 
L 3119 0 
L 2556 0 
L 2556 2019 
Q 2556 2363 2490 2533 
Q 2425 2703 2258 2804 
Q 2091 2906 1866 2906 
Q 1506 2906 1245 2678 
Q 984 2450 984 1813 
L 984 0 
L 422 0 
z
" transform="scale(0.015625)"/>
       <path id="ArialMT-74" d="M 1650 503 
L 1731 6 
Q 1494 -44 1306 -44 
Q 1000 -44 831 53 
Q 663 150 594 308 
Q 525 466 525 972 
L 525 2881 
L 113 2881 
L 113 3319 
L 525 3319 
L 525 4141 
L 1084 4478 
L 1084 3319 
L 1650 3319 
L 1650 2881 
L 1084 2881 
L 1084 941 
Q 1084 700 1114 631 
Q 1144 563 1211 522 
Q 1278 481 1403 481 
Q 1497 481 1650 503 
z
" transform="scale(0.015625)"/>
       <path id="ArialMT-61" d="M 2588 409 
Q 2275 144 1986 34 
Q 1697 -75 1366 -75 
Q 819 -75 525 192 
Q 231 459 231 875 
Q 231 1119 342 1320 
Q 453 1522 633 1644 
Q 813 1766 1038 1828 
Q 1203 1872 1538 1913 
Q 2219 1994 2541 2106 
Q 2544 2222 2544 2253 
Q 2544 2597 2384 2738 
Q 2169 2928 1744 2928 
Q 1347 2928 1158 2789 
Q 969 2650 878 2297 
L 328 2372 
Q 403 2725 575 2942 
Q 747 3159 1072 3276 
Q 1397 3394 1825 3394 
Q 2250 3394 2515 3294 
Q 2781 3194 2906 3042 
Q 3031 2891 3081 2659 
Q 3109 2516 3109 2141 
L 3109 1391 
Q 3109 606 3145 398 
Q 3181 191 3288 0 
L 2700 0 
Q 2613 175 2588 409 
z
M 2541 1666 
Q 2234 1541 1622 1453 
Q 1275 1403 1131 1340 
Q 988 1278 909 1158 
Q 831 1038 831 891 
Q 831 666 1001 516 
Q 1172 366 1500 366 
Q 1825 366 2078 508 
Q 2331 650 2450 897 
Q 2541 1088 2541 1459 
L 2541 1666 
z
" transform="scale(0.015625)"/>
       <path id="ArialMT-67" d="M 319 -275 
L 866 -356 
Q 900 -609 1056 -725 
Q 1266 -881 1628 -881 
Q 2019 -881 2231 -725 
Q 2444 -569 2519 -288 
Q 2563 -116 2559 434 
Q 2191 0 1641 0 
Q 956 0 581 494 
Q 206 988 206 1678 
Q 206 2153 378 2554 
Q 550 2956 876 3175 
Q 1203 3394 1644 3394 
Q 2231 3394 2613 2919 
L 2613 3319 
L 3131 3319 
L 3131 450 
Q 3131 -325 2973 -648 
Q 2816 -972 2473 -1159 
Q 2131 -1347 1631 -1347 
Q 1038 -1347 672 -1080 
Q 306 -813 319 -275 
z
M 784 1719 
Q 784 1066 1043 766 
Q 1303 466 1694 466 
Q 2081 466 2343 764 
Q 2606 1063 2606 1700 
Q 2606 2309 2336 2618 
Q 2066 2928 1684 2928 
Q 1309 2928 1046 2623 
Q 784 2319 784 1719 
z
" transform="scale(0.015625)"/>
      </defs>
      <use xlink:href="#ArialMT-70"/>
      <use xlink:href="#ArialMT-65" x="55.615234"/>
      <use xlink:href="#ArialMT-72" x="111.230469"/>
      <use xlink:href="#ArialMT-63" x="144.53125"/>
      <use xlink:href="#ArialMT-65" x="194.53125"/>
      <use xlink:href="#ArialMT-6e" x="250.146484"/>
      <use xlink:href="#ArialMT-74" x="305.761719"/>
      <use xlink:href="#ArialMT-61" x="333.544922"/>
      <use xlink:href="#ArialMT-67" x="389.160156"/>
      <use xlink:href="#ArialMT-65" x="444.775391"/>
     </g>
    </g>
   </g>
   <g id="line2d_16">
    <path d="M 369 384.48 
L 369 51.84 
" clip-path="url(#pfa9b427ded)" style="fill: none; stroke: #daa520; stroke-width: 2; stroke-linecap: round"/>
   </g>
   <g id="patch_31">
    <path d="M 90 384.48 
L 648 384.48 
" style="fill: none; stroke: #262626; stroke-linejoin: miter; stroke-linecap: square"/>
   </g>
   <g id="patch_32">
    <path d="M 90 51.84 
L 648 51.84 
" style="fill: none; stroke: #262626; stroke-linejoin: miter; stroke-linecap: square"/>
   </g>
   <g id="text_16">
    <!-- Ctrl vs. MMP9 probability PPSM n=4 -->
    <g style="fill: #262626" transform="translate(291.24375 45.84) scale(0.096 -0.096)">
     <defs>
      <path id="ArialMT-43" d="M 3763 1606 
L 4369 1453 
Q 4178 706 3683 314 
Q 3188 -78 2472 -78 
Q 1731 -78 1267 223 
Q 803 525 561 1097 
Q 319 1669 319 2325 
Q 319 3041 592 3573 
Q 866 4106 1370 4382 
Q 1875 4659 2481 4659 
Q 3169 4659 3637 4309 
Q 4106 3959 4291 3325 
L 3694 3184 
Q 3534 3684 3231 3912 
Q 2928 4141 2469 4141 
Q 1941 4141 1586 3887 
Q 1231 3634 1087 3207 
Q 944 2781 944 2328 
Q 944 1744 1114 1308 
Q 1284 872 1643 656 
Q 2003 441 2422 441 
Q 2931 441 3284 734 
Q 3638 1028 3763 1606 
z
" transform="scale(0.015625)"/>
      <path id="ArialMT-6c" d="M 409 0 
L 409 4581 
L 972 4581 
L 972 0 
L 409 0 
z
" transform="scale(0.015625)"/>
      <path id="ArialMT-20" transform="scale(0.015625)"/>
      <path id="ArialMT-76" d="M 1344 0 
L 81 3319 
L 675 3319 
L 1388 1331 
Q 1503 1009 1600 663 
Q 1675 925 1809 1294 
L 2547 3319 
L 3125 3319 
L 1869 0 
L 1344 0 
z
" transform="scale(0.015625)"/>
      <path id="ArialMT-73" d="M 197 991 
L 753 1078 
Q 800 744 1014 566 
Q 1228 388 1613 388 
Q 2000 388 2187 545 
Q 2375 703 2375 916 
Q 2375 1106 2209 1216 
Q 2094 1291 1634 1406 
Q 1016 1563 777 1677 
Q 538 1791 414 1992 
Q 291 2194 291 2438 
Q 291 2659 392 2848 
Q 494 3038 669 3163 
Q 800 3259 1026 3326 
Q 1253 3394 1513 3394 
Q 1903 3394 2198 3281 
Q 2494 3169 2634 2976 
Q 2775 2784 2828 2463 
L 2278 2388 
Q 2241 2644 2061 2787 
Q 1881 2931 1553 2931 
Q 1166 2931 1000 2803 
Q 834 2675 834 2503 
Q 834 2394 903 2306 
Q 972 2216 1119 2156 
Q 1203 2125 1616 2013 
Q 2213 1853 2448 1751 
Q 2684 1650 2818 1456 
Q 2953 1263 2953 975 
Q 2953 694 2789 445 
Q 2625 197 2315 61 
Q 2006 -75 1616 -75 
Q 969 -75 630 194 
Q 291 463 197 991 
z
" transform="scale(0.015625)"/>
      <path id="ArialMT-4d" d="M 475 0 
L 475 4581 
L 1388 4581 
L 2472 1338 
Q 2622 884 2691 659 
Q 2769 909 2934 1394 
L 4031 4581 
L 4847 4581 
L 4847 0 
L 4263 0 
L 4263 3834 
L 2931 0 
L 2384 0 
L 1059 3900 
L 1059 0 
L 475 0 
z
" transform="scale(0.015625)"/>
      <path id="ArialMT-39" d="M 350 1059 
L 891 1109 
Q 959 728 1153 556 
Q 1347 384 1650 384 
Q 1909 384 2104 503 
Q 2300 622 2425 820 
Q 2550 1019 2634 1356 
Q 2719 1694 2719 2044 
Q 2719 2081 2716 2156 
Q 2547 1888 2255 1720 
Q 1963 1553 1622 1553 
Q 1053 1553 659 1965 
Q 266 2378 266 3053 
Q 266 3750 677 4175 
Q 1088 4600 1706 4600 
Q 2153 4600 2523 4359 
Q 2894 4119 3086 3673 
Q 3278 3228 3278 2384 
Q 3278 1506 3087 986 
Q 2897 466 2520 194 
Q 2144 -78 1638 -78 
Q 1100 -78 759 220 
Q 419 519 350 1059 
z
M 2653 3081 
Q 2653 3566 2395 3850 
Q 2138 4134 1775 4134 
Q 1400 4134 1122 3828 
Q 844 3522 844 3034 
Q 844 2597 1108 2323 
Q 1372 2050 1759 2050 
Q 2150 2050 2401 2323 
Q 2653 2597 2653 3081 
z
" transform="scale(0.015625)"/>
      <path id="ArialMT-6f" d="M 213 1659 
Q 213 2581 725 3025 
Q 1153 3394 1769 3394 
Q 2453 3394 2887 2945 
Q 3322 2497 3322 1706 
Q 3322 1066 3130 698 
Q 2938 331 2570 128 
Q 2203 -75 1769 -75 
Q 1072 -75 642 372 
Q 213 819 213 1659 
z
M 791 1659 
Q 791 1022 1069 705 
Q 1347 388 1769 388 
Q 2188 388 2466 706 
Q 2744 1025 2744 1678 
Q 2744 2294 2464 2611 
Q 2184 2928 1769 2928 
Q 1347 2928 1069 2612 
Q 791 2297 791 1659 
z
" transform="scale(0.015625)"/>
      <path id="ArialMT-62" d="M 941 0 
L 419 0 
L 419 4581 
L 981 4581 
L 981 2947 
Q 1338 3394 1891 3394 
Q 2197 3394 2470 3270 
Q 2744 3147 2920 2923 
Q 3097 2700 3197 2384 
Q 3297 2069 3297 1709 
Q 3297 856 2875 390 
Q 2453 -75 1863 -75 
Q 1275 -75 941 416 
L 941 0 
z
M 934 1684 
Q 934 1088 1097 822 
Q 1363 388 1816 388 
Q 2184 388 2453 708 
Q 2722 1028 2722 1663 
Q 2722 2313 2464 2622 
Q 2206 2931 1841 2931 
Q 1472 2931 1203 2611 
Q 934 2291 934 1684 
z
" transform="scale(0.015625)"/>
      <path id="ArialMT-69" d="M 425 3934 
L 425 4581 
L 988 4581 
L 988 3934 
L 425 3934 
z
M 425 0 
L 425 3319 
L 988 3319 
L 988 0 
L 425 0 
z
" transform="scale(0.015625)"/>
      <path id="ArialMT-79" d="M 397 -1278 
L 334 -750 
Q 519 -800 656 -800 
Q 844 -800 956 -737 
Q 1069 -675 1141 -563 
Q 1194 -478 1313 -144 
Q 1328 -97 1363 -6 
L 103 3319 
L 709 3319 
L 1400 1397 
Q 1534 1031 1641 628 
Q 1738 1016 1872 1384 
L 2581 3319 
L 3144 3319 
L 1881 -56 
Q 1678 -603 1566 -809 
Q 1416 -1088 1222 -1217 
Q 1028 -1347 759 -1347 
Q 597 -1347 397 -1278 
z
" transform="scale(0.015625)"/>
      <path id="ArialMT-53" d="M 288 1472 
L 859 1522 
Q 900 1178 1048 958 
Q 1197 738 1509 602 
Q 1822 466 2213 466 
Q 2559 466 2825 569 
Q 3091 672 3220 851 
Q 3350 1031 3350 1244 
Q 3350 1459 3225 1620 
Q 3100 1781 2813 1891 
Q 2628 1963 1997 2114 
Q 1366 2266 1113 2400 
Q 784 2572 623 2826 
Q 463 3081 463 3397 
Q 463 3744 659 4045 
Q 856 4347 1234 4503 
Q 1613 4659 2075 4659 
Q 2584 4659 2973 4495 
Q 3363 4331 3572 4012 
Q 3781 3694 3797 3291 
L 3216 3247 
Q 3169 3681 2898 3903 
Q 2628 4125 2100 4125 
Q 1550 4125 1298 3923 
Q 1047 3722 1047 3438 
Q 1047 3191 1225 3031 
Q 1400 2872 2139 2705 
Q 2878 2538 3153 2413 
Q 3553 2228 3743 1945 
Q 3934 1663 3934 1294 
Q 3934 928 3725 604 
Q 3516 281 3123 101 
Q 2731 -78 2241 -78 
Q 1619 -78 1198 103 
Q 778 284 539 648 
Q 300 1013 288 1472 
z
" transform="scale(0.015625)"/>
      <path id="ArialMT-3d" d="M 3381 2694 
L 356 2694 
L 356 3219 
L 3381 3219 
L 3381 2694 
z
M 3381 1303 
L 356 1303 
L 356 1828 
L 3381 1828 
L 3381 1303 
z
" transform="scale(0.015625)"/>
     </defs>
     <use xlink:href="#ArialMT-43"/>
     <use xlink:href="#ArialMT-74" x="72.216797"/>
     <use xlink:href="#ArialMT-72" x="100"/>
     <use xlink:href="#ArialMT-6c" x="133.300781"/>
     <use xlink:href="#ArialMT-20" x="155.517578"/>
     <use xlink:href="#ArialMT-76" x="183.300781"/>
     <use xlink:href="#ArialMT-73" x="233.300781"/>
     <use xlink:href="#ArialMT-2e" x="283.300781"/>
     <use xlink:href="#ArialMT-20" x="311.083984"/>
     <use xlink:href="#ArialMT-4d" x="338.867188"/>
     <use xlink:href="#ArialMT-4d" x="422.167969"/>
     <use xlink:href="#ArialMT-50" x="505.46875"/>
     <use xlink:href="#ArialMT-39" x="572.167969"/>
     <use xlink:href="#ArialMT-20" x="627.783203"/>
     <use xlink:href="#ArialMT-70" x="655.566406"/>
     <use xlink:href="#ArialMT-72" x="711.181641"/>
     <use xlink:href="#ArialMT-6f" x="744.482422"/>
     <use xlink:href="#ArialMT-62" x="800.097656"/>
     <use xlink:href="#ArialMT-61" x="855.712891"/>
     <use xlink:href="#ArialMT-62" x="911.328125"/>
     <use xlink:href="#ArialMT-69" x="966.943359"/>
     <use xlink:href="#ArialMT-6c" x="989.160156"/>
     <use xlink:href="#ArialMT-69" x="1011.376953"/>
     <use xlink:href="#ArialMT-74" x="1033.59375"/>
     <use xlink:href="#ArialMT-79" x="1061.376953"/>
     <use xlink:href="#ArialMT-20" x="1111.376953"/>
     <use xlink:href="#ArialMT-50" x="1139.160156"/>
     <use xlink:href="#ArialMT-50" x="1205.859375"/>
     <use xlink:href="#ArialMT-53" x="1272.558594"/>
     <use xlink:href="#ArialMT-4d" x="1339.257812"/>
     <use xlink:href="#ArialMT-20" x="1422.558594"/>
     <use xlink:href="#ArialMT-6e" x="1450.341797"/>
     <use xlink:href="#ArialMT-3d" x="1505.957031"/>
     <use xlink:href="#ArialMT-34" x="1564.355469"/>
    </g>
   </g>
  </g>
 </g>
 <defs>
  <clipPath id="pfa9b427ded">
   <rect x="90" y="51.84" width="558" height="332.64"/>
  </clipPath>
 </defs>
</svg>
