<?xml version="1.0" encoding="utf-8" standalone="no"?>
<!DOCTYPE svg PUBLIC "-//W3C//DTD SVG 1.1//EN"
  "http://www.w3.org/Graphics/SVG/1.1/DTD/svg11.dtd">
<svg xmlns:xlink="http://www.w3.org/1999/xlink" width="720pt" height="432pt" viewBox="0 0 720 432" xmlns="http://www.w3.org/2000/svg" version="1.1">
 <metadata>
  <rdf:RDF xmlns:dc="http://purl.org/dc/elements/1.1/" xmlns:cc="http://creativecommons.org/ns#" xmlns:rdf="http://www.w3.org/1999/02/22-rdf-syntax-ns#">
   <cc:Work>
    <dc:type rdf:resource="http://purl.org/dc/dcmitype/StillImage"/>
    <dc:date>2023-11-10T15:28:35.972596</dc:date>
    <dc:format>image/svg+xml</dc:format>
    <dc:creator>
     <cc:Agent>
      <dc:title>Matplotlib v3.7.1, https://matplotlib.org/</dc:title>
     </cc:Agent>
    </dc:creator>
   </cc:Work>
  </rdf:RDF>
 </metadata>
 <defs>
  <style type="text/css">*{stroke-linejoin: round; stroke-linecap: butt}</style>
 </defs>
 <g id="figure_1">
  <g id="patch_1">
   <path d="M 0 432 
L 720 432 
L 720 0 
L 0 0 
z
" style="fill: #ffffff"/>
  </g>
  <g id="axes_1">
   <g id="patch_2">
    <path d="M 90 384.48 
L 648 384.48 
L 648 51.84 
L 90 51.84 
z
" style="fill: #ffffff"/>
   </g>
   <g id="patch_3">
    <path d="M 307 384.48 
L 369 384.48 
L 369 51.84 
L 307 51.84 
z
" clip-path="url(#pf5d74abb48)" style="fill: #ffd700; opacity: 0.35; stroke: #ffffff; stroke-width: 0.8; stroke-linejoin: miter"/>
   </g>
   <g id="line2d_1">
    <path d="M 90 384.48 
L 648 384.48 
" clip-path="url(#pf5d74abb48)" style="fill: none; stroke: #000000; stroke-width: 0.5; stroke-linecap: round"/>
   </g>
   <g id="patch_4">
    <path d="M 153.405333 384.145796 
L 152.373292 384.145796 
Q 139.714313 384.145796 132.676667 383.932819 
Q 125.65 383.719507 125.65 383.339357 
Q 125.65 382.959876 132.665687 382.744893 
Q 139.681375 382.529575 152 382.529575 
Q 164.450375 382.529575 171.400188 382.742887 
Q 178.35 382.955864 178.35 383.339357 
Q 178.35 383.602486 174.661 383.792728 
Q 170.972 383.98297 164.044146 384.078927 
L 174.364563 384.429989 
L 161.771458 384.429989 
L 153.405333 384.145796 
z
M 152 382.821123 
Q 145.961458 382.821123 142.634771 382.956867 
Q 139.308083 383.092611 139.308083 383.339357 
Q 139.308083 383.590116 142.557917 383.723519 
Q 145.818729 383.856588 152 383.856588 
Q 158.071479 383.856588 161.398167 383.720844 
Q 164.724854 383.584766 164.724854 383.339357 
Q 164.724854 383.092611 161.398167 382.956867 
Q 158.071479 382.821123 152 382.821123 
z
" clip-path="url(#pf5d74abb48)" style="fill: #40ba47"/>
   </g>
   <g id="patch_5">
    <path d="M 142.437692 369.463177 
L 161.562308 369.463177 
L 161.562308 382.14581 
L 142.437692 382.14581 
L 142.437692 369.463177 
z
" clip-path="url(#pf5d74abb48)" style="fill: #21599c"/>
   </g>
   <g id="patch_6">
    <path d="M 173.955948 350.094921 
L 173.955948 354.064632 
Q 168.459804 353.373549 163.221293 353.023989 
Q 157.997094 352.670412 153.34541 352.670412 
Q 147.176562 352.670412 144.213797 353.148545 
Q 141.265345 353.62266 141.265345 354.627142 
Q 141.265345 355.382512 143.254834 355.804394 
Q 145.244324 356.222258 150.482835 356.523603 
L 157.811027 356.937449 
Q 168.946442 357.568264 173.641065 358.849982 
Q 178.35 360.127683 178.35 362.490223 
Q 178.35 365.588044 171.794704 367.102802 
Q 165.239408 368.617561 151.770994 368.617561 
Q 145.430391 368.617561 139.032537 368.276037 
Q 132.634682 367.938531 126.236828 367.271555 
L 126.236828 363.19336 
Q 132.634682 364.145609 138.60315 364.631778 
Q 144.571619 365.113929 150.125014 365.113929 
Q 155.764286 365.113929 158.755676 364.587581 
Q 161.747067 364.057214 161.747067 363.07684 
Q 161.747067 362.200932 159.714639 361.722799 
Q 157.682211 361.244666 151.59924 360.866981 
L 144.929441 360.453135 
Q 134.910429 359.850446 130.273058 358.532566 
Q 125.65 357.214686 125.65 354.980719 
Q 125.65 352.180225 132.090793 350.673502 
Q 138.531586 349.16678 150.611651 349.16678 
Q 156.122108 349.16678 161.933134 349.39982 
Q 167.744161 349.63286 173.955948 350.094921 
z
" clip-path="url(#pf5d74abb48)" style="fill: #40ba47"/>
   </g>
   <g id="patch_7">
    <path d="M 125.65 318.111589 
L 139.537864 318.111589 
L 139.537864 328.973476 
L 159.555783 318.111589 
L 175.683253 318.111589 
L 149.743078 332.207167 
L 178.35 347.871755 
L 160.964195 347.871755 
L 139.537864 336.148826 
L 139.537864 347.871755 
L 125.65 347.871755 
L 125.65 318.111589 
z
" clip-path="url(#pf5d74abb48)" style="fill: #bd2e1f"/>
   </g>
   <g id="patch_8">
    <path d="M 125.65 282.661531 
L 177.253077 282.661531 
L 177.253077 289.249182 
L 144.774615 289.249182 
L 144.774615 295.532788 
L 175.329487 295.532788 
L 175.329487 302.120439 
L 144.774615 302.120439 
L 144.774615 309.85912 
L 178.35 309.85912 
L 178.35 316.439532 
L 125.65 316.439532 
L 125.65 282.661531 
z
" clip-path="url(#pf5d74abb48)" style="fill: #6b296b"/>
   </g>
   <g id="patch_9">
    <path d="M 187.65 372.09226 
L 206.774615 372.09226 
L 206.774615 381.810946 
L 240.35 381.810946 
L 240.35 384.162366 
L 187.65 384.162366 
L 187.65 372.09226 
z
" clip-path="url(#pf5d74abb48)" style="fill: #21599c"/>
   </g>
   <g id="patch_10">
    <path d="M 209.032787 350.505593 
Q 213.762274 350.505593 215.814221 349.410779 
Q 217.866168 348.308144 217.866168 345.790071 
Q 217.866168 343.295458 215.814221 342.224104 
Q 213.762274 341.14493 209.032787 341.14493 
L 202.701781 341.14493 
L 202.701781 350.505593 
L 209.032787 350.505593 
z
M 202.701781 357.004098 
L 202.701781 370.8144 
L 187.65 370.8144 
L 187.65 334.325801 
L 210.634307 334.325801 
Q 222.170252 334.325801 227.537844 336.750032 
Q 232.917949 339.166444 232.917949 344.398093 
Q 232.917949 348.01098 230.11529 350.333551 
Q 227.325142 352.656121 221.694801 353.758756 
Q 224.785233 354.196681 227.225047 355.752882 
Q 229.677374 357.301262 232.179748 360.452764 
L 240.35 370.8144 
L 224.322293 370.8144 
L 217.203039 361.750901 
Q 215.050997 359.013865 212.836396 358.012892 
Q 210.634307 357.004098 206.955817 357.004098 
L 202.701781 357.004098 
z
" clip-path="url(#pf5d74abb48)" style="fill: #bd2e1f"/>
   </g>
   <g id="patch_11">
    <path d="M 187.65 290.288008 
L 204.578032 290.288008 
L 225.968106 319.073615 
L 225.968106 290.288008 
L 240.35 290.288008 
L 240.35 332.261021 
L 223.409364 332.261021 
L 202.01929 303.475414 
L 202.01929 332.261021 
L 187.65 332.261021 
L 187.65 290.288008 
z
" clip-path="url(#pf5d74abb48)" style="fill: #40ba47"/>
   </g>
   <g id="patch_12">
    <path d="M 202.091481 249.014217 
L 202.091481 278.498112 
L 207.265444 278.498112 
Q 216.112802 278.498112 220.782574 274.707769 
Q 225.464351 270.917427 225.464351 263.699206 
Q 225.464351 256.522409 220.806583 252.773491 
Q 216.16082 249.014217 207.265444 249.014217 
L 202.091481 249.014217 
z
M 187.65 239.590141 
L 202.871777 239.590141 
Q 215.63262 239.590141 221.874989 241.164273 
Q 228.117358 242.728048 232.583052 246.487322 
Q 236.520547 249.759858 238.429271 254.036939 
Q 240.35 258.303663 240.35 263.699206 
Q 240.35 269.177597 238.429271 273.465034 
Q 236.520547 277.752471 232.583052 281.014651 
Q 228.081344 284.773925 221.778952 286.348056 
Q 215.47656 287.911831 202.871777 287.911831 
L 187.65 287.911831 
L 187.65 239.590141 
z
" clip-path="url(#pf5d74abb48)" style="fill: #6b296b"/>
   </g>
   <g id="patch_13">
    <path d="M 249.65 383.412613 
L 265.195992 383.412613 
L 275.979692 383.969177 
L 286.83447 383.412613 
L 302.35 383.412613 
L 302.35 384.452631 
L 290.80474 384.452631 
L 290.80474 383.691898 
L 279.889037 384.252696 
L 272.141426 384.252696 
L 261.225723 383.691898 
L 261.225723 384.452631 
L 249.65 384.452631 
L 249.65 383.412613 
z
" clip-path="url(#pf5d74abb48)" style="fill: #21599c"/>
   </g>
   <g id="patch_14">
    <path d="M 249.65 380.595087 
L 262.68762 380.595087 
L 276.016162 382.601711 
L 289.323155 380.595087 
L 302.35 380.595087 
L 283.730985 383.313702 
L 268.269015 383.313702 
L 249.65 380.595087 
z
" clip-path="url(#pf5d74abb48)" style="fill: #21599c"/>
   </g>
   <g id="patch_15">
    <path d="M 277.405333 376.45969 
L 276.373292 376.45969 
Q 263.714313 376.45969 256.676667 373.869924 
Q 249.65 371.276093 249.65 366.653545 
Q 249.65 362.039127 256.665687 359.424968 
Q 263.681375 356.806744 276 356.806744 
Q 288.450375 356.806744 295.400188 359.400575 
Q 302.35 361.99034 302.35 366.653545 
Q 302.35 369.853145 298.661 372.166452 
Q 294.972 374.479759 288.044146 375.646577 
L 298.364562 379.915421 
L 285.771458 379.915421 
L 277.405333 376.45969 
z
M 276 360.351917 
Q 269.961458 360.351917 266.634771 362.002537 
Q 263.308083 363.653157 263.308083 366.653545 
Q 263.308083 369.702719 266.557917 371.32488 
Q 269.818729 372.942975 276 372.942975 
Q 282.071479 372.942975 285.398167 371.292356 
Q 288.724854 369.63767 288.724854 366.653545 
Q 288.724854 363.653157 285.398167 362.002537 
Q 282.071479 360.351917 276 360.351917 
z
" clip-path="url(#pf5d74abb48)" style="fill: #40ba47"/>
   </g>
   <g id="patch_16">
    <path d="M 266.437692 331.65151 
L 285.562308 331.65151 
L 285.562308 355.569207 
L 266.437692 355.569207 
L 266.437692 331.65151 
z
" clip-path="url(#pf5d74abb48)" style="fill: #21599c"/>
   </g>
   <g id="patch_17">
    <path d="M 249.65 300.658422 
L 268.774615 300.658422 
L 268.774615 324.479959 
L 302.35 324.479959 
L 302.35 330.243541 
L 249.65 330.243541 
L 249.65 300.658422 
z
" clip-path="url(#pf5d74abb48)" style="fill: #21599c"/>
   </g>
   <g id="patch_18">
    <path d="M 249.65 229.198329 
L 277.043021 229.198329 
Q 289.271068 229.198329 295.803672 235.043207 
Q 302.35 240.873325 302.35 251.662733 
Q 302.35 262.51118 295.803672 268.341298 
Q 289.271068 274.171416 277.043021 274.171416 
L 266.159922 274.171416 
L 266.159922 298.067519 
L 249.65 298.067519 
L 249.65 229.198329 
z
M 266.159922 242.068868 
L 266.159922 261.300877 
L 275.286354 261.300877 
Q 280.08974 261.300877 282.711016 258.791712 
Q 285.332292 256.282548 285.332292 251.662733 
Q 285.332292 247.057677 282.711016 244.563273 
Q 280.08974 242.068868 275.286354 242.068868 
L 266.159922 242.068868 
z
" clip-path="url(#pf5d74abb48)" style="fill: #787800"/>
   </g>
   <g id="patch_19">
    <path d="M 339.405333 383.601278 
L 338.373292 383.601278 
Q 325.714313 383.601278 318.676667 383.041296 
Q 311.65 382.480436 311.65 381.480908 
Q 311.65 380.483138 318.665687 379.917882 
Q 325.681375 379.351747 338 379.351747 
Q 350.450375 379.351747 357.400188 379.912607 
Q 364.35 380.472589 364.35 381.480908 
Q 364.35 382.172753 360.661 382.672957 
Q 356.972 383.17316 350.044146 383.42546 
L 360.364563 384.348506 
L 347.771458 384.348506 
L 339.405333 383.601278 
z
M 338 380.118315 
Q 331.961458 380.118315 328.634771 380.475226 
Q 325.308083 380.832138 325.308083 381.480908 
Q 325.308083 382.140227 328.557917 382.490985 
Q 331.818729 382.840863 338 382.840863 
Q 344.071479 382.840863 347.398167 382.483952 
Q 350.724854 382.126161 350.724854 381.480908 
Q 350.724854 380.832138 347.398167 380.475226 
Q 344.071479 380.118315 338 380.118315 
z
" clip-path="url(#pf5d74abb48)" style="fill: #40ba47"/>
   </g>
   <g id="patch_20">
    <path d="M 311.65 350.262781 
L 325.537864 350.262781 
L 325.537864 360.560702 
L 345.555783 350.262781 
L 361.683253 350.262781 
L 335.743078 363.626495 
L 364.35 378.477754 
L 346.964195 378.477754 
L 325.537864 367.363497 
L 325.537864 378.477754 
L 311.65 378.477754 
L 311.65 350.262781 
z
" clip-path="url(#pf5d74abb48)" style="fill: #bd2e1f"/>
   </g>
   <g id="patch_21">
    <path d="M 333.032787 184.679666 
Q 337.762274 184.679666 339.814221 176.194566 
Q 341.866168 167.648858 341.866168 148.133127 
Q 341.866168 128.799221 339.814221 120.495944 
Q 337.762274 112.13206 333.032787 112.13206 
L 326.701781 112.13206 
L 326.701781 184.679666 
L 333.032787 184.679666 
z
M 326.701781 235.044796 
L 326.701781 342.078274 
L 311.65 342.078274 
L 311.65 59.282007 
L 334.634307 59.282007 
Q 346.170252 59.282007 351.537844 78.070443 
Q 356.917949 96.798271 356.917949 137.344929 
Q 356.917949 165.345759 354.11529 183.346293 
Q 351.325142 201.346827 345.694801 209.892535 
Q 348.785233 213.286575 351.225047 225.347539 
Q 353.677374 237.347895 356.179748 261.772862 
L 364.35 342.078274 
L 348.322293 342.078274 
L 341.203039 271.833766 
Q 339.050997 250.621016 336.836396 242.86321 
Q 334.634307 235.044796 330.955817 235.044796 
L 326.701781 235.044796 
z
" clip-path="url(#pf5d74abb48)" style="fill: #bd2e1f"/>
   </g>
   <g id="patch_22">
    <path d="M 373.65 383.714522 
L 387.537864 383.714522 
L 387.537864 383.986743 
L 407.555783 383.714522 
L 423.683253 383.714522 
L 397.743078 384.067786 
L 426.35 384.460372 
L 408.964195 384.460372 
L 387.537864 384.166572 
L 387.537864 384.460372 
L 373.65 384.460372 
L 373.65 383.714522 
z
" clip-path="url(#pf5d74abb48)" style="fill: #bd2e1f"/>
   </g>
   <g id="patch_23">
    <path d="M 388.091481 381.768723 
L 388.091481 383.182517 
L 393.265444 383.182517 
Q 402.112802 383.182517 406.782574 383.000765 
Q 411.464351 382.819012 411.464351 382.472889 
Q 411.464351 382.128751 406.806583 381.948985 
Q 402.16082 381.768723 393.265444 381.768723 
L 388.091481 381.768723 
z
M 373.65 381.316825 
L 388.871777 381.316825 
Q 401.63262 381.316825 407.874989 381.392307 
Q 414.117358 381.467292 418.583052 381.647555 
Q 422.520547 381.804477 424.429271 382.009569 
Q 426.35 382.214165 426.35 382.472889 
Q 426.35 382.735585 424.429271 382.941174 
Q 422.520547 383.146762 418.583052 383.303188 
Q 414.081344 383.483451 407.778952 383.558933 
Q 401.47656 383.633918 388.871777 383.633918 
L 373.65 383.633918 
L 373.65 381.316825 
z
" clip-path="url(#pf5d74abb48)" style="fill: #6b296b"/>
   </g>
   <g id="patch_24">
    <path d="M 401.405333 375.226026 
L 400.373292 375.226026 
Q 387.714313 375.226026 380.676667 371.38341 
Q 373.65 367.534763 373.65 360.675966 
Q 373.65 353.829233 380.665687 349.950424 
Q 387.681375 346.065582 400 346.065582 
Q 412.450375 346.065582 419.400188 349.914229 
Q 426.35 353.756845 426.35 360.675966 
Q 426.35 365.423435 422.661 368.85585 
Q 418.972 372.288265 412.044146 374.019553 
L 422.364563 380.353535 
L 409.771458 380.353535 
L 401.405333 375.226026 
z
M 400 351.325802 
Q 393.961458 351.325802 390.634771 353.774942 
Q 387.308083 356.224081 387.308083 360.675966 
Q 387.308083 365.200238 390.557917 367.607151 
Q 393.818729 370.008032 400 370.008032 
Q 406.071479 370.008032 409.398167 367.558892 
Q 412.724854 365.10372 412.724854 360.675966 
Q 412.724854 356.224081 409.398167 353.774942 
Q 406.071479 351.325802 400 351.325802 
z
" clip-path="url(#pf5d74abb48)" style="fill: #40ba47"/>
   </g>
   <g id="patch_25">
    <path d="M 373.65 304.473146 
L 425.253077 304.473146 
L 425.253077 312.205373 
L 392.774615 312.205373 
L 392.774615 319.580729 
L 423.329487 319.580729 
L 423.329487 327.312957 
L 392.774615 327.312957 
L 392.774615 336.3962 
L 426.35 336.3962 
L 426.35 344.119931 
L 373.65 344.119931 
L 373.65 304.473146 
z
" clip-path="url(#pf5d74abb48)" style="fill: #6b296b"/>
   </g>
   <g id="patch_26">
    <path d="M 373.65 260.052481 
L 390.578032 260.052481 
L 411.968106 289.038397 
L 411.968106 260.052481 
L 426.35 260.052481 
L 426.35 302.31757 
L 409.409364 302.31757 
L 388.01929 273.331654 
L 388.01929 302.31757 
L 373.65 302.31757 
L 373.65 260.052481 
z
" clip-path="url(#pf5d74abb48)" style="fill: #40ba47"/>
   </g>
   <g id="patch_27">
    <path d="M 426.35 252.985084 
Q 421.035119 255.291755 415.318669 256.450357 
Q 409.602219 257.598426 403.507822 257.598426 
Q 389.736374 257.598426 381.693187 250.731077 
Q 373.65 243.863728 373.65 232.119718 
Q 373.65 220.238783 381.834917 213.424097 
Q 390.031645 206.609412 404.287338 206.609412 
Q 409.779381 206.609412 414.810802 207.536293 
Q 419.854034 208.452642 424.318534 210.264274 
L 424.318534 220.428372 
Q 419.712304 218.100636 415.153317 216.952566 
Q 410.59433 215.793965 406.011721 215.793965 
Q 397.531533 215.793965 392.937113 220.028128 
Q 388.342694 224.251758 388.342694 232.119718 
Q 388.342694 239.913949 392.771762 244.169177 
Q 397.200829 248.413873 405.350314 248.413873 
Q 407.570753 248.413873 409.472299 248.17162 
Q 411.373846 247.918834 412.885634 247.392197 
L 412.885634 237.849531 
L 404.204662 237.849531 
L 404.204662 229.349606 
L 426.35 229.349606 
L 426.35 252.985084 
z
" clip-path="url(#pf5d74abb48)" style="fill: #787800"/>
   </g>
   <g id="patch_28">
    <path d="M 435.65 327.463401 
L 450.22 327.463401 
L 461.988929 347.26352 
L 473.746786 327.463401 
L 488.35 327.463401 
L 468.665 359.610318 
L 468.665 383.018036 
L 455.346071 383.018036 
L 455.346071 359.610318 
L 435.65 327.463401 
z
" clip-path="url(#pf5d74abb48)" style="fill: #177875"/>
   </g>
   <g id="patch_29">
    <path d="M 436.198462 265.930585 
L 487.801538 265.930585 
L 487.801538 277.345678 
L 455.323077 277.345678 
L 455.323077 288.23392 
L 485.877949 288.23392 
L 485.877949 299.649012 
L 455.323077 299.649012 
L 455.323077 324.461158 
L 436.198462 324.461158 
L 436.198462 265.930585 
z
" clip-path="url(#pf5d74abb48)" style="fill: #21599c"/>
   </g>
   <g id="patch_30">
    <path d="M 435.65 68.462024 
L 463.043021 68.462024 
Q 475.271068 68.462024 481.803672 84.663947 
Q 488.35 100.824957 488.35 130.733053 
Q 488.35 160.804804 481.803672 176.965814 
Q 475.271068 193.126823 463.043021 193.126823 
L 452.159922 193.126823 
L 452.159922 259.366505 
L 435.65 259.366505 
L 435.65 68.462024 
z
M 452.159922 104.138987 
L 452.159922 157.449861 
L 461.286354 157.449861 
Q 466.08974 157.449861 468.711016 150.494489 
Q 471.332292 143.539118 471.332292 130.733053 
Q 471.332292 117.967901 468.711016 111.053444 
Q 466.08974 104.138987 461.286354 104.138987 
L 452.159922 104.138987 
z
" clip-path="url(#pf5d74abb48)" style="fill: #787800"/>
   </g>
   <g id="patch_31">
    <path d="M 497.65 383.872596 
L 550.35 383.872596 
L 550.35 383.988019 
L 531.390256 383.988019 
L 531.390256 384.464426 
L 516.646512 384.464426 
L 516.646512 383.988019 
L 497.65 383.988019 
L 497.65 383.872596 
z
" clip-path="url(#pf5d74abb48)" style="fill: #40ba47"/>
   </g>
   <g id="patch_32">
    <path d="M 545.955948 332.757598 
L 545.955948 343.414559 
Q 540.459804 341.559298 535.221293 340.620882 
Q 529.997094 339.671679 525.34541 339.671679 
Q 519.176562 339.671679 516.213797 340.95526 
Q 513.265345 342.228055 513.265345 344.924654 
Q 513.265345 346.952497 515.254834 348.085069 
Q 517.244324 349.206854 522.482835 350.015834 
L 529.811027 351.126833 
Q 540.946442 352.820297 545.641065 356.261158 
Q 550.35 359.691233 550.35 366.033635 
Q 550.35 374.349947 543.794704 378.416419 
Q 537.239408 382.482891 523.770994 382.482891 
Q 517.430391 382.482891 511.032537 381.566048 
Q 504.634682 380.65999 498.236828 378.869448 
L 498.236828 367.921254 
Q 504.634682 370.477631 510.60315 371.782785 
Q 516.571619 373.077152 522.125014 373.077152 
Q 527.764286 373.077152 530.755676 371.664134 
Q 533.747067 370.24033 533.747067 367.608449 
Q 533.747067 365.257014 531.714639 363.973433 
Q 529.682211 362.689851 523.59924 361.67593 
L 516.929441 360.564931 
Q 506.910429 358.946971 502.273058 355.409033 
Q 497.65 351.871094 497.65 345.873857 
Q 497.65 338.355738 504.090793 334.310839 
Q 510.531586 330.26594 522.611651 330.26594 
Q 528.122108 330.26594 533.933134 330.891551 
Q 539.744161 331.517162 545.955948 332.757598 
z
" clip-path="url(#pf5d74abb48)" style="fill: #40ba47"/>
   </g>
   <g id="patch_33">
    <path d="M 497.65 255.179873 
L 525.043021 255.179873 
Q 537.271068 255.179873 543.803672 261.275344 
Q 550.35 267.355422 550.35 278.607415 
Q 550.35 289.920978 543.803672 296.001057 
Q 537.271068 302.081135 525.043021 302.081135 
L 514.159922 302.081135 
L 514.159922 327.00176 
L 497.65 327.00176 
L 497.65 255.179873 
z
M 514.159922 268.602223 
L 514.159922 288.658785 
L 523.286354 288.658785 
Q 528.08974 288.658785 530.711016 286.042042 
Q 533.332292 283.4253 533.332292 278.607415 
Q 533.332292 273.804923 530.711016 271.203573 
Q 528.08974 268.602223 523.286354 268.602223 
L 514.159922 268.602223 
z
" clip-path="url(#pf5d74abb48)" style="fill: #787800"/>
   </g>
   <g id="patch_34">
    <path d="M 497.65 135.046771 
L 506.762642 135.046771 
L 513.132798 218.776112 
L 519.455534 135.046771 
L 528.615597 135.046771 
L 534.938332 218.776112 
L 541.316392 135.046771 
L 550.35 135.046771 
L 541.656239 250.25795 
L 530.694196 250.25795 
L 524 162.676713 
L 517.384838 250.25795 
L 506.414892 250.25795 
L 497.65 135.046771 
z
" clip-path="url(#pf5d74abb48)" style="fill: #21599c"/>
   </g>
   <g id="patch_35">
    <path d="M 559.65 357.41024 
L 575.195992 357.41024 
L 585.979692 371.52512 
L 596.83447 357.41024 
L 612.35 357.41024 
L 612.35 383.785904 
L 600.80474 383.785904 
L 600.80474 364.493118 
L 589.889037 378.7154 
L 582.141426 378.7154 
L 571.225723 364.493118 
L 571.225723 383.785904 
L 559.65 383.785904 
L 559.65 357.41024 
z
" clip-path="url(#pf5d74abb48)" style="fill: #21599c"/>
   </g>
   <g id="patch_36">
    <path d="M 559.65 322.741066 
L 578.774615 322.741066 
L 578.774615 349.395896 
L 612.35 349.395896 
L 612.35 355.844988 
L 559.65 355.844988 
L 559.65 322.741066 
z
" clip-path="url(#pf5d74abb48)" style="fill: #21599c"/>
   </g>
   <g id="patch_37">
    <path d="M 574.091481 292.425913 
L 574.091481 314.037568 
L 579.265444 314.037568 
Q 588.112802 314.037568 592.782574 311.259252 
Q 597.464351 308.480936 597.464351 303.18999 
Q 597.464351 297.929408 592.806583 295.181456 
Q 588.16082 292.425913 579.265444 292.425913 
L 574.091481 292.425913 
z
M 559.65 285.518078 
L 574.871777 285.518078 
Q 587.63262 285.518078 593.874989 286.671914 
Q 600.117358 287.818159 604.583052 290.573702 
Q 608.520547 292.972467 610.429271 296.107561 
Q 612.35 299.235064 612.35 303.18999 
Q 612.35 307.205643 610.429271 310.348329 
Q 608.520547 313.491014 604.583052 315.882188 
Q 600.081344 318.637731 593.778952 319.791567 
Q 587.47656 320.937812 574.871777 320.937812 
L 559.65 320.937812 
L 559.65 285.518078 
z
" clip-path="url(#pf5d74abb48)" style="fill: #6b296b"/>
   </g>
   <g id="patch_38">
    <path d="M 559.65 164.606272 
L 568.762642 164.606272 
L 575.132798 249.56536 
L 581.455534 164.606272 
L 590.615597 164.606272 
L 596.938332 249.56536 
L 603.316392 164.606272 
L 612.35 164.606272 
L 603.656239 281.509577 
L 592.694196 281.509577 
L 586 192.64202 
L 579.384838 281.509577 
L 568.414892 281.509577 
L 559.65 164.606272 
z
" clip-path="url(#pf5d74abb48)" style="fill: #21599c"/>
   </g>
   <g id="matplotlib.axis_1">
    <g id="xtick_1">
     <g id="line2d_2">
      <defs>
       <path id="m351325e256" d="M 0 0 
L 0 4.8 
" style="stroke: #262626"/>
      </defs>
      <g>
       <use xlink:href="#m351325e256" x="152" y="384.48" style="fill: #262626; stroke: #262626"/>
      </g>
     </g>
     <g id="text_1">
      <!-- P4 -->
      <g style="fill: #262626" transform="translate(146.61825 399.078875) scale(0.088 -0.088)">
       <defs>
        <path id="ArialMT-50" d="M 494 0 
L 494 4581 
L 2222 4581 
Q 2678 4581 2919 4538 
Q 3256 4481 3484 4323 
Q 3713 4166 3852 3881 
Q 3991 3597 3991 3256 
Q 3991 2672 3619 2267 
Q 3247 1863 2275 1863 
L 1100 1863 
L 1100 0 
L 494 0 
z
M 1100 2403 
L 2284 2403 
Q 2872 2403 3119 2622 
Q 3366 2841 3366 3238 
Q 3366 3525 3220 3729 
Q 3075 3934 2838 4000 
Q 2684 4041 2272 4041 
L 1100 4041 
L 1100 2403 
z
" transform="scale(0.015625)"/>
        <path id="ArialMT-34" d="M 2069 0 
L 2069 1097 
L 81 1097 
L 81 1613 
L 2172 4581 
L 2631 4581 
L 2631 1613 
L 3250 1613 
L 3250 1097 
L 2631 1097 
L 2631 0 
L 2069 0 
z
M 2069 1613 
L 2069 3678 
L 634 1613 
L 2069 1613 
z
" transform="scale(0.015625)"/>
       </defs>
       <use xlink:href="#ArialMT-50"/>
       <use xlink:href="#ArialMT-34" x="66.699219"/>
      </g>
     </g>
    </g>
    <g id="xtick_2">
     <g id="line2d_3">
      <g>
       <use xlink:href="#m351325e256" x="214" y="384.48" style="fill: #262626; stroke: #262626"/>
      </g>
     </g>
     <g id="text_2">
      <!-- P3 -->
      <g style="fill: #262626" transform="translate(208.61825 399.078875) scale(0.088 -0.088)">
       <defs>
        <path id="ArialMT-33" d="M 269 1209 
L 831 1284 
Q 928 806 1161 595 
Q 1394 384 1728 384 
Q 2125 384 2398 659 
Q 2672 934 2672 1341 
Q 2672 1728 2419 1979 
Q 2166 2231 1775 2231 
Q 1616 2231 1378 2169 
L 1441 2663 
Q 1497 2656 1531 2656 
Q 1891 2656 2178 2843 
Q 2466 3031 2466 3422 
Q 2466 3731 2256 3934 
Q 2047 4138 1716 4138 
Q 1388 4138 1169 3931 
Q 950 3725 888 3313 
L 325 3413 
Q 428 3978 793 4289 
Q 1159 4600 1703 4600 
Q 2078 4600 2393 4439 
Q 2709 4278 2876 4000 
Q 3044 3722 3044 3409 
Q 3044 3113 2884 2869 
Q 2725 2625 2413 2481 
Q 2819 2388 3044 2092 
Q 3269 1797 3269 1353 
Q 3269 753 2831 336 
Q 2394 -81 1725 -81 
Q 1122 -81 723 278 
Q 325 638 269 1209 
z
" transform="scale(0.015625)"/>
       </defs>
       <use xlink:href="#ArialMT-50"/>
       <use xlink:href="#ArialMT-33" x="66.699219"/>
      </g>
     </g>
    </g>
    <g id="xtick_3">
     <g id="line2d_4">
      <g>
       <use xlink:href="#m351325e256" x="276" y="384.48" style="fill: #262626; stroke: #262626"/>
      </g>
     </g>
     <g id="text_3">
      <!-- P2 -->
      <g style="fill: #262626" transform="translate(270.61825 399.078875) scale(0.088 -0.088)">
       <defs>
        <path id="ArialMT-32" d="M 3222 541 
L 3222 0 
L 194 0 
Q 188 203 259 391 
Q 375 700 629 1000 
Q 884 1300 1366 1694 
Q 2113 2306 2375 2664 
Q 2638 3022 2638 3341 
Q 2638 3675 2398 3904 
Q 2159 4134 1775 4134 
Q 1369 4134 1125 3890 
Q 881 3647 878 3216 
L 300 3275 
Q 359 3922 746 4261 
Q 1134 4600 1788 4600 
Q 2447 4600 2831 4234 
Q 3216 3869 3216 3328 
Q 3216 3053 3103 2787 
Q 2991 2522 2730 2228 
Q 2469 1934 1863 1422 
Q 1356 997 1212 845 
Q 1069 694 975 541 
L 3222 541 
z
" transform="scale(0.015625)"/>
       </defs>
       <use xlink:href="#ArialMT-50"/>
       <use xlink:href="#ArialMT-32" x="66.699219"/>
      </g>
     </g>
    </g>
    <g id="xtick_4">
     <g id="line2d_5">
      <g>
       <use xlink:href="#m351325e256" x="338" y="384.48" style="fill: #262626; stroke: #262626"/>
      </g>
     </g>
     <g id="text_4">
      <!-- P1 -->
      <g style="fill: #262626" transform="translate(332.61825 399.078875) scale(0.088 -0.088)">
       <defs>
        <path id="ArialMT-31" d="M 2384 0 
L 1822 0 
L 1822 3584 
Q 1619 3391 1289 3197 
Q 959 3003 697 2906 
L 697 3450 
Q 1169 3672 1522 3987 
Q 1875 4303 2022 4600 
L 2384 4600 
L 2384 0 
z
" transform="scale(0.015625)"/>
       </defs>
       <use xlink:href="#ArialMT-50"/>
       <use xlink:href="#ArialMT-31" x="66.699219"/>
      </g>
     </g>
    </g>
    <g id="xtick_5">
     <g id="line2d_6">
      <g>
       <use xlink:href="#m351325e256" x="400" y="384.48" style="fill: #262626; stroke: #262626"/>
      </g>
     </g>
     <g id="text_5">
      <!-- P1' -->
      <g style="fill: #262626" transform="translate(393.778125 399.078875) scale(0.088 -0.088)">
       <defs>
        <path id="ArialMT-27" d="M 425 2959 
L 281 3816 
L 281 4581 
L 922 4581 
L 922 3816 
L 772 2959 
L 425 2959 
z
" transform="scale(0.015625)"/>
       </defs>
       <use xlink:href="#ArialMT-50"/>
       <use xlink:href="#ArialMT-31" x="66.699219"/>
       <use xlink:href="#ArialMT-27" x="122.314453"/>
      </g>
     </g>
    </g>
    <g id="xtick_6">
     <g id="line2d_7">
      <g>
       <use xlink:href="#m351325e256" x="462" y="384.48" style="fill: #262626; stroke: #262626"/>
      </g>
     </g>
     <g id="text_6">
      <!-- P2' -->
      <g style="fill: #262626" transform="translate(455.778125 399.078875) scale(0.088 -0.088)">
       <use xlink:href="#ArialMT-50"/>
       <use xlink:href="#ArialMT-32" x="66.699219"/>
       <use xlink:href="#ArialMT-27" x="122.314453"/>
      </g>
     </g>
    </g>
    <g id="xtick_7">
     <g id="line2d_8">
      <g>
       <use xlink:href="#m351325e256" x="524" y="384.48" style="fill: #262626; stroke: #262626"/>
      </g>
     </g>
     <g id="text_7">
      <!-- P3' -->
      <g style="fill: #262626" transform="translate(517.778125 399.078875) scale(0.088 -0.088)">
       <use xlink:href="#ArialMT-50"/>
       <use xlink:href="#ArialMT-33" x="66.699219"/>
       <use xlink:href="#ArialMT-27" x="122.314453"/>
      </g>
     </g>
    </g>
    <g id="xtick_8">
     <g id="line2d_9">
      <g>
       <use xlink:href="#m351325e256" x="586" y="384.48" style="fill: #262626; stroke: #262626"/>
      </g>
     </g>
     <g id="text_8">
      <!-- P4' -->
      <g style="fill: #262626" transform="translate(579.778125 399.078875) scale(0.088 -0.088)">
       <use xlink:href="#ArialMT-50"/>
       <use xlink:href="#ArialMT-34" x="66.699219"/>
       <use xlink:href="#ArialMT-27" x="122.314453"/>
      </g>
     </g>
    </g>
   </g>
   <g id="matplotlib.axis_2">
    <g id="ytick_1">
     <g id="line2d_10">
      <defs>
       <path id="m83f93c0e57" d="M 0 0 
L -4.8 0 
" style="stroke: #262626"/>
      </defs>
      <g>
       <use xlink:href="#m83f93c0e57" x="90" y="384.48" style="fill: #262626; stroke: #262626"/>
      </g>
     </g>
     <g id="text_9">
      <!-- 0.0 -->
      <g style="fill: #262626" transform="translate(69.468 387.629437) scale(0.088 -0.088)">
       <defs>
        <path id="ArialMT-30" d="M 266 2259 
Q 266 3072 433 3567 
Q 600 4063 929 4331 
Q 1259 4600 1759 4600 
Q 2128 4600 2406 4451 
Q 2684 4303 2865 4023 
Q 3047 3744 3150 3342 
Q 3253 2941 3253 2259 
Q 3253 1453 3087 958 
Q 2922 463 2592 192 
Q 2263 -78 1759 -78 
Q 1097 -78 719 397 
Q 266 969 266 2259 
z
M 844 2259 
Q 844 1131 1108 757 
Q 1372 384 1759 384 
Q 2147 384 2411 759 
Q 2675 1134 2675 2259 
Q 2675 3391 2411 3762 
Q 2147 4134 1753 4134 
Q 1366 4134 1134 3806 
Q 844 3388 844 2259 
z
" transform="scale(0.015625)"/>
        <path id="ArialMT-2e" d="M 581 0 
L 581 641 
L 1222 641 
L 1222 0 
L 581 0 
z
" transform="scale(0.015625)"/>
       </defs>
       <use xlink:href="#ArialMT-30"/>
       <use xlink:href="#ArialMT-2e" x="55.615234"/>
       <use xlink:href="#ArialMT-30" x="83.398438"/>
      </g>
     </g>
    </g>
    <g id="ytick_2">
     <g id="line2d_11">
      <g>
       <use xlink:href="#m83f93c0e57" x="90" y="330.323615" style="fill: #262626; stroke: #262626"/>
      </g>
     </g>
     <g id="text_10">
      <!-- 0.2 -->
      <g style="fill: #262626" transform="translate(69.468 333.473053) scale(0.088 -0.088)">
       <use xlink:href="#ArialMT-30"/>
       <use xlink:href="#ArialMT-2e" x="55.615234"/>
       <use xlink:href="#ArialMT-32" x="83.398438"/>
      </g>
     </g>
    </g>
    <g id="ytick_3">
     <g id="line2d_12">
      <g>
       <use xlink:href="#m83f93c0e57" x="90" y="276.16723" style="fill: #262626; stroke: #262626"/>
      </g>
     </g>
     <g id="text_11">
      <!-- 0.4 -->
      <g style="fill: #262626" transform="translate(69.468 279.316668) scale(0.088 -0.088)">
       <use xlink:href="#ArialMT-30"/>
       <use xlink:href="#ArialMT-2e" x="55.615234"/>
       <use xlink:href="#ArialMT-34" x="83.398438"/>
      </g>
     </g>
    </g>
    <g id="ytick_4">
     <g id="line2d_13">
      <g>
       <use xlink:href="#m83f93c0e57" x="90" y="222.010845" style="fill: #262626; stroke: #262626"/>
      </g>
     </g>
     <g id="text_12">
      <!-- 0.6 -->
      <g style="fill: #262626" transform="translate(69.468 225.160283) scale(0.088 -0.088)">
       <defs>
        <path id="ArialMT-36" d="M 3184 3459 
L 2625 3416 
Q 2550 3747 2413 3897 
Q 2184 4138 1850 4138 
Q 1581 4138 1378 3988 
Q 1113 3794 959 3422 
Q 806 3050 800 2363 
Q 1003 2672 1297 2822 
Q 1591 2972 1913 2972 
Q 2475 2972 2870 2558 
Q 3266 2144 3266 1488 
Q 3266 1056 3080 686 
Q 2894 316 2569 119 
Q 2244 -78 1831 -78 
Q 1128 -78 684 439 
Q 241 956 241 2144 
Q 241 3472 731 4075 
Q 1159 4600 1884 4600 
Q 2425 4600 2770 4297 
Q 3116 3994 3184 3459 
z
M 888 1484 
Q 888 1194 1011 928 
Q 1134 663 1356 523 
Q 1578 384 1822 384 
Q 2178 384 2434 671 
Q 2691 959 2691 1453 
Q 2691 1928 2437 2201 
Q 2184 2475 1800 2475 
Q 1419 2475 1153 2201 
Q 888 1928 888 1484 
z
" transform="scale(0.015625)"/>
       </defs>
       <use xlink:href="#ArialMT-30"/>
       <use xlink:href="#ArialMT-2e" x="55.615234"/>
       <use xlink:href="#ArialMT-36" x="83.398438"/>
      </g>
     </g>
    </g>
    <g id="ytick_5">
     <g id="line2d_14">
      <g>
       <use xlink:href="#m83f93c0e57" x="90" y="167.85446" style="fill: #262626; stroke: #262626"/>
      </g>
     </g>
     <g id="text_13">
      <!-- 0.8 -->
      <g style="fill: #262626" transform="translate(69.468 171.003898) scale(0.088 -0.088)">
       <defs>
        <path id="ArialMT-38" d="M 1131 2484 
Q 781 2613 612 2850 
Q 444 3088 444 3419 
Q 444 3919 803 4259 
Q 1163 4600 1759 4600 
Q 2359 4600 2725 4251 
Q 3091 3903 3091 3403 
Q 3091 3084 2923 2848 
Q 2756 2613 2416 2484 
Q 2838 2347 3058 2040 
Q 3278 1734 3278 1309 
Q 3278 722 2862 322 
Q 2447 -78 1769 -78 
Q 1091 -78 675 323 
Q 259 725 259 1325 
Q 259 1772 486 2073 
Q 713 2375 1131 2484 
z
M 1019 3438 
Q 1019 3113 1228 2906 
Q 1438 2700 1772 2700 
Q 2097 2700 2305 2904 
Q 2513 3109 2513 3406 
Q 2513 3716 2298 3927 
Q 2084 4138 1766 4138 
Q 1444 4138 1231 3931 
Q 1019 3725 1019 3438 
z
M 838 1322 
Q 838 1081 952 856 
Q 1066 631 1291 507 
Q 1516 384 1775 384 
Q 2178 384 2440 643 
Q 2703 903 2703 1303 
Q 2703 1709 2433 1975 
Q 2163 2241 1756 2241 
Q 1359 2241 1098 1978 
Q 838 1716 838 1322 
z
" transform="scale(0.015625)"/>
       </defs>
       <use xlink:href="#ArialMT-30"/>
       <use xlink:href="#ArialMT-2e" x="55.615234"/>
       <use xlink:href="#ArialMT-38" x="83.398438"/>
      </g>
     </g>
    </g>
    <g id="ytick_6">
     <g id="line2d_15">
      <g>
       <use xlink:href="#m83f93c0e57" x="90" y="113.698075" style="fill: #262626; stroke: #262626"/>
      </g>
     </g>
     <g id="text_14">
      <!-- 1.0 -->
      <g style="fill: #262626" transform="translate(69.468 116.847513) scale(0.088 -0.088)">
       <use xlink:href="#ArialMT-31"/>
       <use xlink:href="#ArialMT-2e" x="55.615234"/>
       <use xlink:href="#ArialMT-30" x="83.398438"/>
      </g>
     </g>
    </g>
    <g id="ytick_7">
     <g id="line2d_16">
      <g>
       <use xlink:href="#m83f93c0e57" x="90" y="59.54169" style="fill: #262626; stroke: #262626"/>
      </g>
     </g>
     <g id="text_15">
      <!-- 1.2 -->
      <g style="fill: #262626" transform="translate(69.468 62.691128) scale(0.088 -0.088)">
       <use xlink:href="#ArialMT-31"/>
       <use xlink:href="#ArialMT-2e" x="55.615234"/>
       <use xlink:href="#ArialMT-32" x="83.398438"/>
      </g>
     </g>
    </g>
    <g id="text_16">
     <!-- information (bits) -->
     <g style="fill: #262626" transform="translate(63.4475 253.902) rotate(-90) scale(0.096 -0.096)">
      <defs>
       <path id="ArialMT-69" d="M 425 3934 
L 425 4581 
L 988 4581 
L 988 3934 
L 425 3934 
z
M 425 0 
L 425 3319 
L 988 3319 
L 988 0 
L 425 0 
z
" transform="scale(0.015625)"/>
       <path id="ArialMT-6e" d="M 422 0 
L 422 3319 
L 928 3319 
L 928 2847 
Q 1294 3394 1984 3394 
Q 2284 3394 2536 3286 
Q 2788 3178 2913 3003 
Q 3038 2828 3088 2588 
Q 3119 2431 3119 2041 
L 3119 0 
L 2556 0 
L 2556 2019 
Q 2556 2363 2490 2533 
Q 2425 2703 2258 2804 
Q 2091 2906 1866 2906 
Q 1506 2906 1245 2678 
Q 984 2450 984 1813 
L 984 0 
L 422 0 
z
" transform="scale(0.015625)"/>
       <path id="ArialMT-66" d="M 556 0 
L 556 2881 
L 59 2881 
L 59 3319 
L 556 3319 
L 556 3672 
Q 556 4006 616 4169 
Q 697 4388 901 4523 
Q 1106 4659 1475 4659 
Q 1713 4659 2000 4603 
L 1916 4113 
Q 1741 4144 1584 4144 
Q 1328 4144 1222 4034 
Q 1116 3925 1116 3625 
L 1116 3319 
L 1763 3319 
L 1763 2881 
L 1116 2881 
L 1116 0 
L 556 0 
z
" transform="scale(0.015625)"/>
       <path id="ArialMT-6f" d="M 213 1659 
Q 213 2581 725 3025 
Q 1153 3394 1769 3394 
Q 2453 3394 2887 2945 
Q 3322 2497 3322 1706 
Q 3322 1066 3130 698 
Q 2938 331 2570 128 
Q 2203 -75 1769 -75 
Q 1072 -75 642 372 
Q 213 819 213 1659 
z
M 791 1659 
Q 791 1022 1069 705 
Q 1347 388 1769 388 
Q 2188 388 2466 706 
Q 2744 1025 2744 1678 
Q 2744 2294 2464 2611 
Q 2184 2928 1769 2928 
Q 1347 2928 1069 2612 
Q 791 2297 791 1659 
z
" transform="scale(0.015625)"/>
       <path id="ArialMT-72" d="M 416 0 
L 416 3319 
L 922 3319 
L 922 2816 
Q 1116 3169 1280 3281 
Q 1444 3394 1641 3394 
Q 1925 3394 2219 3213 
L 2025 2691 
Q 1819 2813 1613 2813 
Q 1428 2813 1281 2702 
Q 1134 2591 1072 2394 
Q 978 2094 978 1738 
L 978 0 
L 416 0 
z
" transform="scale(0.015625)"/>
       <path id="ArialMT-6d" d="M 422 0 
L 422 3319 
L 925 3319 
L 925 2853 
Q 1081 3097 1340 3245 
Q 1600 3394 1931 3394 
Q 2300 3394 2536 3241 
Q 2772 3088 2869 2813 
Q 3263 3394 3894 3394 
Q 4388 3394 4653 3120 
Q 4919 2847 4919 2278 
L 4919 0 
L 4359 0 
L 4359 2091 
Q 4359 2428 4304 2576 
Q 4250 2725 4106 2815 
Q 3963 2906 3769 2906 
Q 3419 2906 3187 2673 
Q 2956 2441 2956 1928 
L 2956 0 
L 2394 0 
L 2394 2156 
Q 2394 2531 2256 2718 
Q 2119 2906 1806 2906 
Q 1569 2906 1367 2781 
Q 1166 2656 1075 2415 
Q 984 2175 984 1722 
L 984 0 
L 422 0 
z
" transform="scale(0.015625)"/>
       <path id="ArialMT-61" d="M 2588 409 
Q 2275 144 1986 34 
Q 1697 -75 1366 -75 
Q 819 -75 525 192 
Q 231 459 231 875 
Q 231 1119 342 1320 
Q 453 1522 633 1644 
Q 813 1766 1038 1828 
Q 1203 1872 1538 1913 
Q 2219 1994 2541 2106 
Q 2544 2222 2544 2253 
Q 2544 2597 2384 2738 
Q 2169 2928 1744 2928 
Q 1347 2928 1158 2789 
Q 969 2650 878 2297 
L 328 2372 
Q 403 2725 575 2942 
Q 747 3159 1072 3276 
Q 1397 3394 1825 3394 
Q 2250 3394 2515 3294 
Q 2781 3194 2906 3042 
Q 3031 2891 3081 2659 
Q 3109 2516 3109 2141 
L 3109 1391 
Q 3109 606 3145 398 
Q 3181 191 3288 0 
L 2700 0 
Q 2613 175 2588 409 
z
M 2541 1666 
Q 2234 1541 1622 1453 
Q 1275 1403 1131 1340 
Q 988 1278 909 1158 
Q 831 1038 831 891 
Q 831 666 1001 516 
Q 1172 366 1500 366 
Q 1825 366 2078 508 
Q 2331 650 2450 897 
Q 2541 1088 2541 1459 
L 2541 1666 
z
" transform="scale(0.015625)"/>
       <path id="ArialMT-74" d="M 1650 503 
L 1731 6 
Q 1494 -44 1306 -44 
Q 1000 -44 831 53 
Q 663 150 594 308 
Q 525 466 525 972 
L 525 2881 
L 113 2881 
L 113 3319 
L 525 3319 
L 525 4141 
L 1084 4478 
L 1084 3319 
L 1650 3319 
L 1650 2881 
L 1084 2881 
L 1084 941 
Q 1084 700 1114 631 
Q 1144 563 1211 522 
Q 1278 481 1403 481 
Q 1497 481 1650 503 
z
" transform="scale(0.015625)"/>
       <path id="ArialMT-20" transform="scale(0.015625)"/>
       <path id="ArialMT-28" d="M 1497 -1347 
Q 1031 -759 709 28 
Q 388 816 388 1659 
Q 388 2403 628 3084 
Q 909 3875 1497 4659 
L 1900 4659 
Q 1522 4009 1400 3731 
Q 1209 3300 1100 2831 
Q 966 2247 966 1656 
Q 966 153 1900 -1347 
L 1497 -1347 
z
" transform="scale(0.015625)"/>
       <path id="ArialMT-62" d="M 941 0 
L 419 0 
L 419 4581 
L 981 4581 
L 981 2947 
Q 1338 3394 1891 3394 
Q 2197 3394 2470 3270 
Q 2744 3147 2920 2923 
Q 3097 2700 3197 2384 
Q 3297 2069 3297 1709 
Q 3297 856 2875 390 
Q 2453 -75 1863 -75 
Q 1275 -75 941 416 
L 941 0 
z
M 934 1684 
Q 934 1088 1097 822 
Q 1363 388 1816 388 
Q 2184 388 2453 708 
Q 2722 1028 2722 1663 
Q 2722 2313 2464 2622 
Q 2206 2931 1841 2931 
Q 1472 2931 1203 2611 
Q 934 2291 934 1684 
z
" transform="scale(0.015625)"/>
       <path id="ArialMT-73" d="M 197 991 
L 753 1078 
Q 800 744 1014 566 
Q 1228 388 1613 388 
Q 2000 388 2187 545 
Q 2375 703 2375 916 
Q 2375 1106 2209 1216 
Q 2094 1291 1634 1406 
Q 1016 1563 777 1677 
Q 538 1791 414 1992 
Q 291 2194 291 2438 
Q 291 2659 392 2848 
Q 494 3038 669 3163 
Q 800 3259 1026 3326 
Q 1253 3394 1513 3394 
Q 1903 3394 2198 3281 
Q 2494 3169 2634 2976 
Q 2775 2784 2828 2463 
L 2278 2388 
Q 2241 2644 2061 2787 
Q 1881 2931 1553 2931 
Q 1166 2931 1000 2803 
Q 834 2675 834 2503 
Q 834 2394 903 2306 
Q 972 2216 1119 2156 
Q 1203 2125 1616 2013 
Q 2213 1853 2448 1751 
Q 2684 1650 2818 1456 
Q 2953 1263 2953 975 
Q 2953 694 2789 445 
Q 2625 197 2315 61 
Q 2006 -75 1616 -75 
Q 969 -75 630 194 
Q 291 463 197 991 
z
" transform="scale(0.015625)"/>
       <path id="ArialMT-29" d="M 791 -1347 
L 388 -1347 
Q 1322 153 1322 1656 
Q 1322 2244 1188 2822 
Q 1081 3291 891 3722 
Q 769 4003 388 4659 
L 791 4659 
Q 1378 3875 1659 3084 
Q 1900 2403 1900 1659 
Q 1900 816 1576 28 
Q 1253 -759 791 -1347 
z
" transform="scale(0.015625)"/>
      </defs>
      <use xlink:href="#ArialMT-69"/>
      <use xlink:href="#ArialMT-6e" x="22.216797"/>
      <use xlink:href="#ArialMT-66" x="77.832031"/>
      <use xlink:href="#ArialMT-6f" x="105.615234"/>
      <use xlink:href="#ArialMT-72" x="161.230469"/>
      <use xlink:href="#ArialMT-6d" x="194.53125"/>
      <use xlink:href="#ArialMT-61" x="277.832031"/>
      <use xlink:href="#ArialMT-74" x="333.447266"/>
      <use xlink:href="#ArialMT-69" x="361.230469"/>
      <use xlink:href="#ArialMT-6f" x="383.447266"/>
      <use xlink:href="#ArialMT-6e" x="439.0625"/>
      <use xlink:href="#ArialMT-20" x="494.677734"/>
      <use xlink:href="#ArialMT-28" x="522.460938"/>
      <use xlink:href="#ArialMT-62" x="555.761719"/>
      <use xlink:href="#ArialMT-69" x="611.376953"/>
      <use xlink:href="#ArialMT-74" x="633.59375"/>
      <use xlink:href="#ArialMT-73" x="661.376953"/>
      <use xlink:href="#ArialMT-29" x="711.376953"/>
     </g>
    </g>
   </g>
   <g id="line2d_17">
    <path d="M 369 384.48 
L 369 51.84 
" clip-path="url(#pf5d74abb48)" style="fill: none; stroke: #daa520; stroke-width: 2; stroke-linecap: round"/>
   </g>
   <g id="patch_39">
    <path d="M 90 384.48 
L 648 384.48 
" style="fill: none; stroke: #262626; stroke-linejoin: miter; stroke-linecap: square"/>
   </g>
   <g id="patch_40">
    <path d="M 90 51.84 
L 648 51.84 
" style="fill: none; stroke: #262626; stroke-linejoin: miter; stroke-linecap: square"/>
   </g>
   <g id="text_17">
    <!-- Ctrl vs. MMP9 information content, Kullback n=4 -->
    <g style="fill: #262626" transform="translate(266.4285 45.84) scale(0.096 -0.096)">
     <defs>
      <path id="ArialMT-43" d="M 3763 1606 
L 4369 1453 
Q 4178 706 3683 314 
Q 3188 -78 2472 -78 
Q 1731 -78 1267 223 
Q 803 525 561 1097 
Q 319 1669 319 2325 
Q 319 3041 592 3573 
Q 866 4106 1370 4382 
Q 1875 4659 2481 4659 
Q 3169 4659 3637 4309 
Q 4106 3959 4291 3325 
L 3694 3184 
Q 3534 3684 3231 3912 
Q 2928 4141 2469 4141 
Q 1941 4141 1586 3887 
Q 1231 3634 1087 3207 
Q 944 2781 944 2328 
Q 944 1744 1114 1308 
Q 1284 872 1643 656 
Q 2003 441 2422 441 
Q 2931 441 3284 734 
Q 3638 1028 3763 1606 
z
" transform="scale(0.015625)"/>
      <path id="ArialMT-6c" d="M 409 0 
L 409 4581 
L 972 4581 
L 972 0 
L 409 0 
z
" transform="scale(0.015625)"/>
      <path id="ArialMT-76" d="M 1344 0 
L 81 3319 
L 675 3319 
L 1388 1331 
Q 1503 1009 1600 663 
Q 1675 925 1809 1294 
L 2547 3319 
L 3125 3319 
L 1869 0 
L 1344 0 
z
" transform="scale(0.015625)"/>
      <path id="ArialMT-4d" d="M 475 0 
L 475 4581 
L 1388 4581 
L 2472 1338 
Q 2622 884 2691 659 
Q 2769 909 2934 1394 
L 4031 4581 
L 4847 4581 
L 4847 0 
L 4263 0 
L 4263 3834 
L 2931 0 
L 2384 0 
L 1059 3900 
L 1059 0 
L 475 0 
z
" transform="scale(0.015625)"/>
      <path id="ArialMT-39" d="M 350 1059 
L 891 1109 
Q 959 728 1153 556 
Q 1347 384 1650 384 
Q 1909 384 2104 503 
Q 2300 622 2425 820 
Q 2550 1019 2634 1356 
Q 2719 1694 2719 2044 
Q 2719 2081 2716 2156 
Q 2547 1888 2255 1720 
Q 1963 1553 1622 1553 
Q 1053 1553 659 1965 
Q 266 2378 266 3053 
Q 266 3750 677 4175 
Q 1088 4600 1706 4600 
Q 2153 4600 2523 4359 
Q 2894 4119 3086 3673 
Q 3278 3228 3278 2384 
Q 3278 1506 3087 986 
Q 2897 466 2520 194 
Q 2144 -78 1638 -78 
Q 1100 -78 759 220 
Q 419 519 350 1059 
z
M 2653 3081 
Q 2653 3566 2395 3850 
Q 2138 4134 1775 4134 
Q 1400 4134 1122 3828 
Q 844 3522 844 3034 
Q 844 2597 1108 2323 
Q 1372 2050 1759 2050 
Q 2150 2050 2401 2323 
Q 2653 2597 2653 3081 
z
" transform="scale(0.015625)"/>
      <path id="ArialMT-63" d="M 2588 1216 
L 3141 1144 
Q 3050 572 2676 248 
Q 2303 -75 1759 -75 
Q 1078 -75 664 370 
Q 250 816 250 1647 
Q 250 2184 428 2587 
Q 606 2991 970 3192 
Q 1334 3394 1763 3394 
Q 2303 3394 2647 3120 
Q 2991 2847 3088 2344 
L 2541 2259 
Q 2463 2594 2264 2762 
Q 2066 2931 1784 2931 
Q 1359 2931 1093 2626 
Q 828 2322 828 1663 
Q 828 994 1084 691 
Q 1341 388 1753 388 
Q 2084 388 2306 591 
Q 2528 794 2588 1216 
z
" transform="scale(0.015625)"/>
      <path id="ArialMT-65" d="M 2694 1069 
L 3275 997 
Q 3138 488 2766 206 
Q 2394 -75 1816 -75 
Q 1088 -75 661 373 
Q 234 822 234 1631 
Q 234 2469 665 2931 
Q 1097 3394 1784 3394 
Q 2450 3394 2872 2941 
Q 3294 2488 3294 1666 
Q 3294 1616 3291 1516 
L 816 1516 
Q 847 969 1125 678 
Q 1403 388 1819 388 
Q 2128 388 2347 550 
Q 2566 713 2694 1069 
z
M 847 1978 
L 2700 1978 
Q 2663 2397 2488 2606 
Q 2219 2931 1791 2931 
Q 1403 2931 1139 2672 
Q 875 2413 847 1978 
z
" transform="scale(0.015625)"/>
      <path id="ArialMT-2c" d="M 569 0 
L 569 641 
L 1209 641 
L 1209 0 
Q 1209 -353 1084 -570 
Q 959 -788 688 -906 
L 531 -666 
Q 709 -588 793 -436 
Q 878 -284 888 0 
L 569 0 
z
" transform="scale(0.015625)"/>
      <path id="ArialMT-4b" d="M 469 0 
L 469 4581 
L 1075 4581 
L 1075 2309 
L 3350 4581 
L 4172 4581 
L 2250 2725 
L 4256 0 
L 3456 0 
L 1825 2319 
L 1075 1588 
L 1075 0 
L 469 0 
z
" transform="scale(0.015625)"/>
      <path id="ArialMT-75" d="M 2597 0 
L 2597 488 
Q 2209 -75 1544 -75 
Q 1250 -75 995 37 
Q 741 150 617 320 
Q 494 491 444 738 
Q 409 903 409 1263 
L 409 3319 
L 972 3319 
L 972 1478 
Q 972 1038 1006 884 
Q 1059 663 1231 536 
Q 1403 409 1656 409 
Q 1909 409 2131 539 
Q 2353 669 2445 892 
Q 2538 1116 2538 1541 
L 2538 3319 
L 3100 3319 
L 3100 0 
L 2597 0 
z
" transform="scale(0.015625)"/>
      <path id="ArialMT-6b" d="M 425 0 
L 425 4581 
L 988 4581 
L 988 1969 
L 2319 3319 
L 3047 3319 
L 1778 2088 
L 3175 0 
L 2481 0 
L 1384 1697 
L 988 1316 
L 988 0 
L 425 0 
z
" transform="scale(0.015625)"/>
      <path id="ArialMT-3d" d="M 3381 2694 
L 356 2694 
L 356 3219 
L 3381 3219 
L 3381 2694 
z
M 3381 1303 
L 356 1303 
L 356 1828 
L 3381 1828 
L 3381 1303 
z
" transform="scale(0.015625)"/>
     </defs>
     <use xlink:href="#ArialMT-43"/>
     <use xlink:href="#ArialMT-74" x="72.216797"/>
     <use xlink:href="#ArialMT-72" x="100"/>
     <use xlink:href="#ArialMT-6c" x="133.300781"/>
     <use xlink:href="#ArialMT-20" x="155.517578"/>
     <use xlink:href="#ArialMT-76" x="183.300781"/>
     <use xlink:href="#ArialMT-73" x="233.300781"/>
     <use xlink:href="#ArialMT-2e" x="283.300781"/>
     <use xlink:href="#ArialMT-20" x="311.083984"/>
     <use xlink:href="#ArialMT-4d" x="338.867188"/>
     <use xlink:href="#ArialMT-4d" x="422.167969"/>
     <use xlink:href="#ArialMT-50" x="505.46875"/>
     <use xlink:href="#ArialMT-39" x="572.167969"/>
     <use xlink:href="#ArialMT-20" x="627.783203"/>
     <use xlink:href="#ArialMT-69" x="655.566406"/>
     <use xlink:href="#ArialMT-6e" x="677.783203"/>
     <use xlink:href="#ArialMT-66" x="733.398438"/>
     <use xlink:href="#ArialMT-6f" x="761.181641"/>
     <use xlink:href="#ArialMT-72" x="816.796875"/>
     <use xlink:href="#ArialMT-6d" x="850.097656"/>
     <use xlink:href="#ArialMT-61" x="933.398438"/>
     <use xlink:href="#ArialMT-74" x="989.013672"/>
     <use xlink:href="#ArialMT-69" x="1016.796875"/>
     <use xlink:href="#ArialMT-6f" x="1039.013672"/>
     <use xlink:href="#ArialMT-6e" x="1094.628906"/>
     <use xlink:href="#ArialMT-20" x="1150.244141"/>
     <use xlink:href="#ArialMT-63" x="1178.027344"/>
     <use xlink:href="#ArialMT-6f" x="1228.027344"/>
     <use xlink:href="#ArialMT-6e" x="1283.642578"/>
     <use xlink:href="#ArialMT-74" x="1339.257812"/>
     <use xlink:href="#ArialMT-65" x="1367.041016"/>
     <use xlink:href="#ArialMT-6e" x="1422.65625"/>
     <use xlink:href="#ArialMT-74" x="1478.271484"/>
     <use xlink:href="#ArialMT-2c" x="1506.054688"/>
     <use xlink:href="#ArialMT-20" x="1533.837891"/>
     <use xlink:href="#ArialMT-4b" x="1561.621094"/>
     <use xlink:href="#ArialMT-75" x="1628.320312"/>
     <use xlink:href="#ArialMT-6c" x="1683.935547"/>
     <use xlink:href="#ArialMT-6c" x="1706.152344"/>
     <use xlink:href="#ArialMT-62" x="1728.369141"/>
     <use xlink:href="#ArialMT-61" x="1783.984375"/>
     <use xlink:href="#ArialMT-63" x="1839.599609"/>
     <use xlink:href="#ArialMT-6b" x="1889.599609"/>
     <use xlink:href="#ArialMT-20" x="1939.599609"/>
     <use xlink:href="#ArialMT-6e" x="1967.382812"/>
     <use xlink:href="#ArialMT-3d" x="2022.998047"/>
     <use xlink:href="#ArialMT-34" x="2081.396484"/>
    </g>
   </g>
  </g>
 </g>
 <defs>
  <clipPath id="pf5d74abb48">
   <rect x="90" y="51.84" width="558" height="332.64"/>
  </clipPath>
 </defs>
</svg>
