<?xml version="1.0" encoding="utf-8" standalone="no"?>
<!DOCTYPE svg PUBLIC "-//W3C//DTD SVG 1.1//EN"
  "http://www.w3.org/Graphics/SVG/1.1/DTD/svg11.dtd">
<svg xmlns:xlink="http://www.w3.org/1999/xlink" width="720pt" height="432pt" viewBox="0 0 720 432" xmlns="http://www.w3.org/2000/svg" version="1.1">
 <metadata>
  <rdf:RDF xmlns:dc="http://purl.org/dc/elements/1.1/" xmlns:cc="http://creativecommons.org/ns#" xmlns:rdf="http://www.w3.org/1999/02/22-rdf-syntax-ns#">
   <cc:Work>
    <dc:type rdf:resource="http://purl.org/dc/dcmitype/StillImage"/>
    <dc:date>2023-11-26T14:33:19.722999</dc:date>
    <dc:format>image/svg+xml</dc:format>
    <dc:creator>
     <cc:Agent>
      <dc:title>Matplotlib v3.7.1, https://matplotlib.org/</dc:title>
     </cc:Agent>
    </dc:creator>
   </cc:Work>
  </rdf:RDF>
 </metadata>
 <defs>
  <style type="text/css">*{stroke-linejoin: round; stroke-linecap: butt}</style>
 </defs>
 <g id="figure_1">
  <g id="patch_1">
   <path d="M 0 432 
L 720 432 
L 720 0 
L 0 0 
z
" style="fill: #ffffff"/>
  </g>
  <g id="axes_1">
   <g id="patch_2">
    <path d="M 90 384.48 
L 648 384.48 
L 648 51.84 
L 90 51.84 
z
" style="fill: #ffffff"/>
   </g>
   <g id="patch_3">
    <path d="M 307 384.48 
L 369 384.48 
L 369 51.84 
L 307 51.84 
z
" clip-path="url(#p2c1990d210)" style="fill: #ffd700; opacity: 0.35; stroke: #ffffff; stroke-width: 0.8; stroke-linejoin: miter"/>
   </g>
   <g id="line2d_1">
    <path d="M 90 384.48 
L 648 384.48 
" clip-path="url(#p2c1990d210)" style="fill: none; stroke: #000000; stroke-width: 0.5; stroke-linecap: round"/>
   </g>
   <g id="patch_4">
    <path d="M 125.65 384.467174 
L 142.578032 384.467174 
L 163.968106 384.475745 
L 163.968106 384.467174 
L 178.35 384.467174 
L 178.35 384.479671 
L 161.409364 384.479671 
L 140.01929 384.471101 
L 140.01929 384.479671 
L 125.65 384.479671 
L 125.65 384.467174 
z
" clip-path="url(#p2c1990d210)" style="fill: #40ba47"/>
   </g>
   <g id="patch_5">
    <path d="M 147.032787 383.222947 
Q 151.762274 383.222947 153.814221 383.158918 
Q 155.866168 383.094431 155.866168 382.947164 
Q 155.866168 382.801269 153.814221 382.738612 
Q 151.762274 382.675498 147.032787 382.675498 
L 140.701781 382.675498 
L 140.701781 383.222947 
L 147.032787 383.222947 
z
M 140.701781 383.603006 
L 140.701781 384.410687 
L 125.65 384.410687 
L 125.65 382.276688 
L 148.634307 382.276688 
Q 160.170252 382.276688 165.537844 382.418467 
Q 170.917949 382.559788 170.917949 382.865756 
Q 170.917949 383.077052 168.11529 383.212885 
Q 165.325142 383.348718 159.694801 383.413205 
Q 162.785233 383.438817 165.225047 383.529829 
Q 167.677374 383.620385 170.179748 383.804697 
L 178.35 384.410687 
L 162.322293 384.410687 
L 155.203039 383.880618 
Q 153.050997 383.720545 150.836396 383.662004 
Q 148.634307 383.603006 144.955817 383.603006 
L 140.701781 383.603006 
z
" clip-path="url(#p2c1990d210)" style="fill: #bd2e1f"/>
   </g>
   <g id="patch_6">
    <path d="M 173.955948 379.739221 
L 173.955948 380.256706 
Q 168.459804 380.166618 163.221293 380.12105 
Q 157.997094 380.074958 153.34541 380.074958 
Q 147.176562 380.074958 144.213797 380.137287 
Q 141.265345 380.199092 141.265345 380.330034 
Q 141.265345 380.428503 143.254834 380.483499 
Q 145.244324 380.537971 150.482835 380.577254 
L 157.811027 380.631203 
Q 168.946442 380.713435 173.641065 380.880517 
Q 178.35 381.047077 178.35 381.355054 
Q 178.35 381.758881 171.794704 381.956343 
Q 165.239408 382.153804 151.770994 382.153804 
Q 145.430391 382.153804 139.032537 382.109284 
Q 132.634682 382.065287 126.236828 381.978341 
L 126.236828 381.446714 
Q 132.634682 381.570847 138.60315 381.634224 
Q 144.571619 381.697076 150.125014 381.697076 
Q 155.764286 381.697076 158.755676 381.628462 
Q 161.747067 381.559324 161.747067 381.431524 
Q 161.747067 381.317342 159.714639 381.255014 
Q 157.682211 381.192685 151.59924 381.14345 
L 144.929441 381.089502 
Q 134.910429 381.010936 130.273058 380.83914 
Q 125.65 380.667343 125.65 380.376126 
Q 125.65 380.011058 132.090793 379.814644 
Q 138.531586 379.61823 150.611651 379.61823 
Q 156.122108 379.61823 161.933134 379.648609 
Q 167.744161 379.678987 173.955948 379.739221 
z
" clip-path="url(#p2c1990d210)" style="fill: #40ba47"/>
   </g>
   <g id="patch_7">
    <path d="M 125.65 375.326728 
L 138.68762 375.326728 
L 152.016162 378.365101 
L 165.323155 375.326728 
L 178.35 375.326728 
L 159.730985 379.443177 
L 144.269015 379.443177 
L 125.65 375.326728 
z
" clip-path="url(#p2c1990d210)" style="fill: #21599c"/>
   </g>
   <g id="patch_8">
    <path d="M 125.65 369.949124 
L 139.537864 369.949124 
L 139.537864 371.822996 
L 159.555783 369.949124 
L 175.683253 369.949124 
L 149.743078 372.380866 
L 178.35 375.08329 
L 160.964195 375.08329 
L 139.537864 373.060873 
L 139.537864 375.08329 
L 125.65 375.08329 
L 125.65 369.949124 
z
" clip-path="url(#p2c1990d210)" style="fill: #bd2e1f"/>
   </g>
   <g id="patch_9">
    <path d="M 125.65 362.300941 
L 144.774615 362.300941 
L 144.774615 368.195253 
L 178.35 368.195253 
L 178.35 369.621372 
L 125.65 369.621372 
L 125.65 362.300941 
z
" clip-path="url(#p2c1990d210)" style="fill: #21599c"/>
   </g>
   <g id="patch_10">
    <path d="M 142.437692 352.351942 
L 161.562308 352.351942 
L 161.562308 361.858135 
L 142.437692 361.858135 
L 142.437692 352.351942 
z
" clip-path="url(#p2c1990d210)" style="fill: #21599c"/>
   </g>
   <g id="patch_11">
    <path d="M 125.65 339.766681 
L 153.043021 339.766681 
Q 165.271068 339.766681 171.803672 340.786709 
Q 178.35 341.804161 178.35 343.687092 
Q 178.35 345.580325 171.803672 346.597777 
Q 165.271068 347.615229 153.043021 347.615229 
L 142.159922 347.615229 
L 142.159922 351.785495 
L 125.65 351.785495 
L 125.65 339.766681 
z
M 142.159922 342.012803 
L 142.159922 345.369107 
L 151.286354 345.369107 
Q 156.08974 345.369107 158.711016 344.931217 
Q 161.332292 344.493326 161.332292 343.687092 
Q 161.332292 342.883433 158.711016 342.448118 
Q 156.08974 342.012803 151.286354 342.012803 
L 142.159922 342.012803 
z
" clip-path="url(#p2c1990d210)" style="fill: #787800"/>
   </g>
   <g id="patch_12">
    <path d="M 162.155336 336.263908 
L 141.887763 336.263908 
L 138.68762 339.048185 
L 125.65 339.048185 
L 144.269015 323.76414 
L 159.730985 323.76414 
L 178.35 339.048185 
L 165.323155 339.048185 
L 162.155336 336.263908 
z
M 145.120231 333.42722 
L 158.890544 333.42722 
L 152.016162 327.347669 
L 145.120231 333.42722 
z
" clip-path="url(#p2c1990d210)" style="fill: #21599c"/>
   </g>
   <g id="patch_13">
    <path d="M 153.405333 320.58636 
L 152.373292 320.58636 
Q 139.714313 320.58636 132.676667 318.817579 
Q 125.65 317.04602 125.65 313.88887 
Q 125.65 310.737273 132.665687 308.951831 
Q 139.681375 307.163612 152 307.163612 
Q 164.450375 307.163612 171.400188 308.93517 
Q 178.35 310.703952 178.35 313.88887 
Q 178.35 316.074162 174.661 317.654126 
Q 170.972 319.234089 164.044146 320.031013 
L 174.364563 322.946587 
L 161.771458 322.946587 
L 153.405333 320.58636 
z
M 152 309.584927 
Q 145.961458 309.584927 142.634771 310.712282 
Q 139.308083 311.839638 139.308083 313.88887 
Q 139.308083 315.971423 142.557917 317.079341 
Q 145.818729 318.184483 152 318.184483 
Q 158.071479 318.184483 161.398167 317.057127 
Q 164.724854 315.926995 164.724854 313.88887 
Q 164.724854 311.839638 161.398167 310.712282 
Q 158.071479 309.584927 152 309.584927 
z
" clip-path="url(#p2c1990d210)" style="fill: #40ba47"/>
   </g>
   <g id="patch_14">
    <path d="M 140.091481 293.581804 
L 140.091481 303.245884 
L 145.265444 303.245884 
Q 154.112802 303.245884 158.782574 302.003505 
Q 163.464351 300.761126 163.464351 298.395174 
Q 163.464351 296.042801 158.806583 294.814 
Q 154.16082 293.581804 145.265444 293.581804 
L 140.091481 293.581804 
z
M 125.65 290.492829 
L 140.871777 290.492829 
Q 153.63262 290.492829 159.874989 291.00879 
Q 166.117358 291.521356 170.583052 292.753551 
Q 174.520547 293.826207 176.429271 295.228126 
Q 178.35 296.626651 178.35 298.395174 
Q 178.35 300.190853 176.429271 301.596167 
Q 174.520547 303.001481 170.583052 304.070742 
Q 166.081344 305.302937 159.778952 305.818898 
Q 153.47656 306.331464 140.871777 306.331464 
L 125.65 306.331464 
L 125.65 290.492829 
z
" clip-path="url(#p2c1990d210)" style="fill: #6b296b"/>
   </g>
   <g id="patch_15">
    <path d="M 125.65 260.703564 
L 177.253077 260.703564 
L 177.253077 266.285128 
L 144.774615 266.285128 
L 144.774615 271.609082 
L 175.329487 271.609082 
L 175.329487 277.190647 
L 144.774615 277.190647 
L 144.774615 283.747452 
L 178.35 283.747452 
L 178.35 289.322883 
L 125.65 289.322883 
L 125.65 260.703564 
z
" clip-path="url(#p2c1990d210)" style="fill: #6b296b"/>
   </g>
   <g id="patch_16">
    <path d="M 235.955948 382.554054 
L 235.955948 382.955717 
Q 230.459804 382.885792 225.221293 382.850423 
Q 219.997094 382.814647 215.34541 382.814647 
Q 209.176562 382.814647 206.213797 382.863026 
Q 203.265345 382.910997 203.265345 383.012633 
Q 203.265345 383.089062 205.254834 383.131749 
Q 207.244324 383.17403 212.482835 383.20452 
L 219.811027 383.246394 
Q 230.946442 383.310221 235.641065 383.439907 
Q 240.35 383.569187 240.35 383.808234 
Q 240.35 384.121677 233.794704 384.274943 
Q 227.239408 384.428209 213.770994 384.428209 
Q 207.430391 384.428209 201.032537 384.393653 
Q 194.634682 384.359503 188.236828 384.292018 
L 188.236828 383.879378 
Q 194.634682 383.975729 200.60315 384.02492 
Q 206.571619 384.073705 212.125014 384.073705 
Q 217.764286 384.073705 220.755676 384.020448 
Q 223.747067 383.966785 223.747067 383.867589 
Q 223.747067 383.778963 221.714639 383.730584 
Q 219.682211 383.682206 213.59924 383.643991 
L 206.929441 383.602117 
Q 196.910429 383.541136 192.273058 383.407791 
Q 187.65 383.274445 187.65 383.048408 
Q 187.65 382.765049 194.090793 382.612596 
Q 200.531586 382.460143 212.611651 382.460143 
Q 218.122108 382.460143 223.933134 382.483723 
Q 229.744161 382.507302 235.955948 382.554054 
z
" clip-path="url(#p2c1990d210)" style="fill: #40ba47"/>
   </g>
   <g id="patch_17">
    <path d="M 224.155336 381.69575 
L 203.887763 381.69575 
L 200.68762 382.318405 
L 187.65 382.318405 
L 206.269015 378.900398 
L 221.730985 378.900398 
L 240.35 382.318405 
L 227.323155 382.318405 
L 224.155336 381.69575 
z
M 207.120231 381.061375 
L 220.890544 381.061375 
L 214.016162 379.701791 
L 207.120231 381.061375 
z
" clip-path="url(#p2c1990d210)" style="fill: #21599c"/>
   </g>
   <g id="patch_18">
    <path d="M 187.65 374.459653 
L 239.253077 374.459653 
L 239.253077 375.286423 
L 206.774615 375.286423 
L 206.774615 376.075034 
L 237.329487 376.075034 
L 237.329487 376.901803 
L 206.774615 376.901803 
L 206.774615 377.87303 
L 240.35 377.87303 
L 240.35 378.698891 
L 187.65 378.698891 
L 187.65 374.459653 
z
" clip-path="url(#p2c1990d210)" style="fill: #6b296b"/>
   </g>
   <g id="patch_19">
    <path d="M 187.65 369.416079 
L 206.774615 369.416079 
L 206.774615 373.285446 
L 240.35 373.285446 
L 240.35 374.221633 
L 187.65 374.221633 
L 187.65 369.416079 
z
" clip-path="url(#p2c1990d210)" style="fill: #21599c"/>
   </g>
   <g id="patch_20">
    <path d="M 187.65 358.346346 
L 204.578032 358.346346 
L 225.968106 365.658939 
L 225.968106 358.346346 
L 240.35 358.346346 
L 240.35 369.00902 
L 223.409364 369.00902 
L 202.01929 361.696427 
L 202.01929 369.00902 
L 187.65 369.00902 
L 187.65 358.346346 
z
" clip-path="url(#p2c1990d210)" style="fill: #40ba47"/>
   </g>
   <g id="patch_21">
    <path d="M 187.65 346.170264 
L 215.043021 346.170264 
Q 227.271068 346.170264 233.803672 347.153939 
Q 240.35 348.13513 240.35 349.950954 
Q 240.35 351.776714 233.803672 352.757905 
Q 227.271068 353.739096 215.043021 353.739096 
L 204.159922 353.739096 
L 204.159922 357.760736 
L 187.65 357.760736 
L 187.65 346.170264 
z
M 204.159922 348.336336 
L 204.159922 351.573024 
L 213.286354 351.573024 
Q 218.08974 351.573024 220.711016 351.150739 
Q 223.332292 350.728455 223.332292 349.950954 
Q 223.332292 349.175937 220.711016 348.756137 
Q 218.08974 348.336336 213.286354 348.336336 
L 204.159922 348.336336 
z
" clip-path="url(#p2c1990d210)" style="fill: #787800"/>
   </g>
   <g id="patch_22">
    <path d="M 202.091481 333.759801 
L 202.091481 342.645103 
L 207.265444 342.645103 
Q 216.112802 342.645103 220.782574 341.502841 
Q 225.464351 340.360579 225.464351 338.185287 
Q 225.464351 336.022479 220.806583 334.8927 
Q 216.16082 333.759801 207.265444 333.759801 
L 202.091481 333.759801 
z
M 187.65 330.919749 
L 202.871777 330.919749 
Q 215.63262 330.919749 221.874989 331.394132 
Q 228.117358 331.865393 232.583052 332.998292 
Q 236.520547 333.984508 238.429271 335.273454 
Q 240.35 336.55928 240.35 338.185287 
Q 240.35 339.836262 238.429271 341.128329 
Q 236.520547 342.420396 232.583052 343.403491 
Q 228.081344 344.53639 221.778952 345.010772 
Q 215.47656 345.482034 202.871777 345.482034 
L 187.65 345.482034 
L 187.65 330.919749 
z
" clip-path="url(#p2c1990d210)" style="fill: #6b296b"/>
   </g>
   <g id="patch_23">
    <path d="M 187.65 312.384825 
L 201.537864 312.384825 
L 201.537864 318.839975 
L 221.555783 312.384825 
L 237.683253 312.384825 
L 211.743078 320.761737 
L 240.35 330.071103 
L 222.964195 330.071103 
L 201.537864 323.104241 
L 201.537864 330.071103 
L 187.65 330.071103 
L 187.65 312.384825 
z
" clip-path="url(#p2c1990d210)" style="fill: #bd2e1f"/>
   </g>
   <g id="patch_24">
    <path d="M 209.032787 286.548127 
Q 213.762274 286.548127 215.814221 285.242152 
Q 217.866168 283.926848 217.866168 280.923105 
Q 217.866168 277.947347 215.814221 276.669357 
Q 213.762274 275.382039 209.032787 275.382039 
L 202.701781 275.382039 
L 202.701781 286.548127 
L 209.032787 286.548127 
z
M 202.701781 294.300023 
L 202.701781 310.773968 
L 187.65 310.773968 
L 187.65 267.247679 
L 210.634307 267.247679 
Q 222.170252 267.247679 227.537844 270.139481 
Q 232.917949 273.021955 232.917949 279.262651 
Q 232.917949 283.572369 230.11529 286.342902 
Q 227.325142 289.113436 221.694801 290.428739 
Q 224.785233 290.951129 227.225047 292.80748 
Q 229.677374 294.654502 232.179748 298.413845 
L 240.35 310.773968 
L 224.322293 310.773968 
L 217.203039 299.962358 
Q 215.050997 296.69742 212.836396 295.503386 
Q 210.634307 294.300023 206.955817 294.300023 
L 202.701781 294.300023 
z
" clip-path="url(#p2c1990d210)" style="fill: #bd2e1f"/>
   </g>
   <g id="patch_25">
    <path d="M 249.65 383.259252 
L 302.35 383.259252 
L 302.35 383.491227 
L 283.390256 383.491227 
L 283.390256 384.448699 
L 268.646512 384.448699 
L 268.646512 383.491227 
L 249.65 383.491227 
L 249.65 383.259252 
z
" clip-path="url(#p2c1990d210)" style="fill: #40ba47"/>
   </g>
   <g id="patch_26">
    <path d="M 264.091481 382.124923 
L 264.091481 382.934536 
L 269.265444 382.934536 
Q 278.112802 382.934536 282.782574 382.830455 
Q 287.464351 382.726374 287.464351 382.528165 
Q 287.464351 382.331094 282.806583 382.228151 
Q 278.16082 382.124923 269.265444 382.124923 
L 264.091481 382.124923 
z
M 249.65 381.866142 
L 264.871777 381.866142 
Q 277.63262 381.866142 283.874989 381.909367 
Q 290.117358 381.952308 294.583052 382.055536 
Q 298.520547 382.145398 300.429271 382.262844 
Q 302.35 382.380006 302.35 382.528165 
Q 302.35 382.678599 300.429271 382.79633 
Q 298.520547 382.914061 294.583052 383.003639 
Q 290.081344 383.106867 283.778952 383.150092 
Q 277.47656 383.193032 264.871777 383.193032 
L 249.65 383.193032 
L 249.65 381.866142 
z
" clip-path="url(#p2c1990d210)" style="fill: #6b296b"/>
   </g>
   <g id="patch_27">
    <path d="M 266.437692 380.370266 
L 285.562308 380.370266 
L 285.562308 381.793764 
L 266.437692 381.793764 
L 266.437692 380.370266 
z
" clip-path="url(#p2c1990d210)" style="fill: #21599c"/>
   </g>
   <g id="patch_28">
    <path d="M 271.032787 379.030547 
Q 275.762274 379.030547 277.814221 378.963514 
Q 279.866168 378.896002 279.866168 378.741826 
Q 279.866168 378.589086 277.814221 378.523489 
Q 275.762274 378.457414 271.032787 378.457414 
L 264.701781 378.457414 
L 264.701781 379.030547 
L 271.032787 379.030547 
z
M 264.701781 379.428437 
L 264.701781 380.274013 
L 249.65 380.274013 
L 249.65 378.039892 
L 272.634307 378.039892 
Q 284.170252 378.039892 289.537844 378.188323 
Q 294.917949 378.336275 294.917949 378.656598 
Q 294.917949 378.877807 292.11529 379.020014 
Q 289.325142 379.16222 283.694801 379.229732 
Q 286.785233 379.256545 289.225047 379.351828 
Q 291.677374 379.446632 294.179748 379.639592 
L 302.35 380.274013 
L 286.322293 380.274013 
L 279.203039 379.719074 
Q 277.050997 379.551491 274.836396 379.490204 
Q 272.634307 379.428437 268.955817 379.428437 
L 264.701781 379.428437 
z
" clip-path="url(#p2c1990d210)" style="fill: #bd2e1f"/>
   </g>
   <g id="patch_29">
    <path d="M 249.65 374.040268 
L 262.68762 374.040268 
L 276.016162 376.874434 
L 289.323155 374.040268 
L 302.35 374.040268 
L 283.730985 377.880053 
L 268.269015 377.880053 
L 249.65 374.040268 
z
" clip-path="url(#p2c1990d210)" style="fill: #21599c"/>
   </g>
   <g id="patch_30">
    <path d="M 249.65 369.068303 
L 301.253077 369.068303 
L 301.253077 369.99391 
L 268.774615 369.99391 
L 268.774615 370.876796 
L 299.329487 370.876796 
L 299.329487 371.802403 
L 268.774615 371.802403 
L 268.774615 372.889736 
L 302.35 372.889736 
L 302.35 373.814325 
L 249.65 373.814325 
L 249.65 369.068303 
z
" clip-path="url(#p2c1990d210)" style="fill: #6b296b"/>
   </g>
   <g id="patch_31">
    <path d="M 249.65 363.975307 
L 263.537864 363.975307 
L 263.537864 365.742074 
L 283.555783 363.975307 
L 299.683253 363.975307 
L 273.743078 366.268058 
L 302.35 368.816021 
L 284.964195 368.816021 
L 263.537864 366.909199 
L 263.537864 368.816021 
L 249.65 368.816021 
L 249.65 363.975307 
z
" clip-path="url(#p2c1990d210)" style="fill: #bd2e1f"/>
   </g>
   <g id="patch_32">
    <path d="M 249.65 355.883609 
L 268.774615 355.883609 
L 268.774615 362.131935 
L 302.35 362.131935 
L 302.35 363.643707 
L 249.65 363.643707 
L 249.65 355.883609 
z
" clip-path="url(#p2c1990d210)" style="fill: #21599c"/>
   </g>
   <g id="patch_33">
    <path d="M 249.65 343.117642 
L 277.043021 343.117642 
Q 289.271068 343.117642 295.803672 344.156412 
Q 302.35 345.19256 302.35 347.110089 
Q 302.35 349.038111 295.803672 350.074258 
Q 289.271068 351.110406 277.043021 351.110406 
L 266.159922 351.110406 
L 266.159922 355.3573 
L 249.65 355.3573 
L 249.65 343.117642 
z
M 266.159922 345.405036 
L 266.159922 348.823012 
L 275.286354 348.823012 
Q 280.08974 348.823012 282.711016 348.377075 
Q 285.332292 347.931138 285.332292 347.110089 
Q 285.332292 346.291664 282.711016 345.84835 
Q 280.08974 345.405036 275.286354 345.405036 
L 266.159922 345.405036 
z
" clip-path="url(#p2c1990d210)" style="fill: #787800"/>
   </g>
   <g id="patch_34">
    <path d="M 297.955948 330.752126 
L 297.955948 333.263822 
Q 292.459804 332.826563 287.221293 332.605392 
Q 281.997094 332.381678 277.34541 332.381678 
Q 271.176562 332.381678 268.213797 332.6842 
Q 265.265345 332.98418 265.265345 333.619731 
Q 265.265345 334.097665 267.254834 334.364596 
Q 269.244324 334.628985 274.482835 334.819651 
L 281.811027 335.081498 
Q 292.946442 335.480623 297.641065 336.291586 
Q 302.35 337.100007 302.35 338.594822 
Q 302.35 340.554861 295.794704 341.513271 
Q 289.239408 342.471682 275.770994 342.471682 
Q 269.430391 342.471682 263.032537 342.255595 
Q 256.634682 342.04205 250.236828 341.620044 
L 250.236828 339.039708 
Q 256.634682 339.64221 262.60315 339.949817 
Q 268.571619 340.254881 274.125014 340.254881 
Q 279.764286 340.254881 282.755676 339.921852 
Q 285.747067 339.586282 285.747067 338.965984 
Q 285.747067 338.411784 283.714639 338.109262 
Q 281.682211 337.806739 275.59924 337.567772 
L 268.929441 337.305925 
Q 258.910429 336.924595 254.273058 336.090752 
Q 249.65 335.25691 249.65 333.843445 
Q 249.65 332.071529 256.090793 331.118203 
Q 262.531586 330.164877 274.611651 330.164877 
Q 280.122108 330.164877 285.933134 330.312325 
Q 291.744161 330.459772 297.955948 330.752126 
z
" clip-path="url(#p2c1990d210)" style="fill: #40ba47"/>
   </g>
   <g id="patch_35">
    <path d="M 277.405333 325.323312 
L 276.373292 325.323312 
Q 263.714313 325.323312 256.676667 322.444325 
Q 249.65 319.560817 249.65 314.422028 
Q 249.65 309.292277 256.665687 306.386172 
Q 263.681375 303.475547 276 303.475547 
Q 288.450375 303.475547 295.400188 306.359054 
Q 302.35 309.238042 302.35 314.422028 
Q 302.35 317.978956 298.661 320.550611 
Q 294.972 323.122265 288.044146 324.419392 
L 298.364562 329.164976 
L 285.771458 329.164976 
L 277.405333 325.323312 
z
M 276 307.416641 
Q 269.961458 307.416641 266.634771 309.251601 
Q 263.308083 311.08656 263.308083 314.422028 
Q 263.308083 317.811731 266.557917 319.615053 
Q 269.818729 321.413855 276 321.413855 
Q 282.071479 321.413855 285.398167 319.578896 
Q 288.724854 317.739417 288.724854 314.422028 
Q 288.724854 311.08656 285.398167 309.251601 
Q 282.071479 307.416641 276 307.416641 
z
" clip-path="url(#p2c1990d210)" style="fill: #40ba47"/>
   </g>
   <g id="patch_36">
    <path d="M 286.155336 296.576672 
L 265.887763 296.576672 
L 262.68762 302.014037 
L 249.65 302.014037 
L 268.269015 272.166103 
L 283.730985 272.166103 
L 302.35 302.014037 
L 289.323155 302.014037 
L 286.155336 296.576672 
z
M 269.120231 291.036957 
L 282.890544 291.036957 
L 276.016162 279.164311 
L 269.120231 291.036957 
z
" clip-path="url(#p2c1990d210)" style="fill: #21599c"/>
   </g>
   <g id="patch_37">
    <path d="M 348.155336 384.088611 
L 327.887763 384.088611 
L 324.68762 384.430597 
L 311.65 384.430597 
L 330.269015 382.553295 
L 345.730985 382.553295 
L 364.35 384.430597 
L 351.323155 384.430597 
L 348.155336 384.088611 
z
M 331.120231 383.740188 
L 344.890544 383.740188 
L 338.016162 382.993451 
L 331.120231 383.740188 
z
" clip-path="url(#p2c1990d210)" style="fill: #21599c"/>
   </g>
   <g id="patch_38">
    <path d="M 311.65 378.537219 
L 330.774615 378.537219 
L 330.774615 381.649235 
L 364.35 381.649235 
L 364.35 382.402183 
L 311.65 382.402183 
L 311.65 378.537219 
z
" clip-path="url(#p2c1990d210)" style="fill: #21599c"/>
   </g>
   <g id="patch_39">
    <path d="M 311.65 357.154591 
L 325.537864 357.154591 
L 325.537864 364.722559 
L 345.555783 357.154591 
L 361.683253 357.154591 
L 335.743078 366.975618 
L 364.35 377.889845 
L 346.964195 377.889845 
L 325.537864 369.72195 
L 325.537864 377.889845 
L 311.65 377.889845 
L 311.65 357.154591 
z
" clip-path="url(#p2c1990d210)" style="fill: #bd2e1f"/>
   </g>
   <g id="patch_40">
    <path d="M 333.032787 187.84297 
Q 337.762274 187.84297 339.814221 179.155815 
Q 341.866168 170.406608 341.866168 150.426151 
Q 341.866168 130.631847 339.814221 122.130845 
Q 337.762274 113.567791 333.032787 113.567791 
L 326.701781 113.567791 
L 326.701781 187.84297 
L 333.032787 187.84297 
z
M 326.701781 239.407443 
L 326.701781 348.989704 
L 311.65 348.989704 
L 311.65 59.459223 
L 334.634307 59.459223 
Q 346.170252 59.459223 351.537844 78.695067 
Q 356.917949 97.86886 356.917949 139.381053 
Q 356.917949 168.048666 354.11529 186.477846 
Q 351.325142 204.907026 345.694801 213.656232 
Q 348.785233 217.131094 351.225047 229.479265 
Q 353.677374 241.765385 356.179748 266.771983 
L 364.35 348.989704 
L 348.322293 348.989704 
L 341.203039 277.072467 
Q 339.050997 255.354578 336.836396 247.412036 
Q 334.634307 239.407443 330.955817 239.407443 
L 326.701781 239.407443 
z
" clip-path="url(#p2c1990d210)" style="fill: #bd2e1f"/>
   </g>
   <g id="patch_41">
    <path d="M 395.032787 384.212226 
Q 399.762274 384.212226 401.814221 384.198442 
Q 403.866168 384.18456 403.866168 384.152858 
Q 403.866168 384.121451 401.814221 384.107963 
Q 399.762274 384.094376 395.032787 384.094376 
L 388.701781 384.094376 
L 388.701781 384.212226 
L 395.032787 384.212226 
z
M 388.701781 384.294041 
L 388.701781 384.467911 
L 373.65 384.467911 
L 373.65 384.008524 
L 396.634307 384.008524 
Q 408.170252 384.008524 413.537844 384.039045 
Q 418.917949 384.069467 418.917949 384.135333 
Q 418.917949 384.180819 416.11529 384.21006 
Q 413.325142 384.2393 407.694801 384.253182 
Q 410.785233 384.258696 413.225047 384.278288 
Q 415.677374 384.297782 418.179748 384.337459 
L 426.35 384.467911 
L 410.322293 384.467911 
L 403.203039 384.353803 
Q 401.050997 384.319344 398.836396 384.306741 
Q 396.634307 384.294041 392.955817 384.294041 
L 388.701781 384.294041 
z
" clip-path="url(#p2c1990d210)" style="fill: #bd2e1f"/>
   </g>
   <g id="patch_42">
    <path d="M 373.65 383.213353 
L 386.68762 383.213353 
L 400.016162 383.77653 
L 413.323155 383.213353 
L 426.35 383.213353 
L 407.730985 383.976356 
L 392.269015 383.976356 
L 373.65 383.213353 
z
" clip-path="url(#p2c1990d210)" style="fill: #21599c"/>
   </g>
   <g id="patch_43">
    <path d="M 373.65 379.935716 
L 392.774615 379.935716 
L 392.774615 382.491403 
L 426.35 382.491403 
L 426.35 383.109747 
L 373.65 383.109747 
L 373.65 379.935716 
z
" clip-path="url(#p2c1990d210)" style="fill: #21599c"/>
   </g>
   <g id="patch_44">
    <path d="M 373.65 368.642446 
L 390.578032 368.642446 
L 411.968106 376.133103 
L 411.968106 368.642446 
L 426.35 368.642446 
L 426.35 379.56476 
L 409.409364 379.56476 
L 388.01929 372.074103 
L 388.01929 379.56476 
L 373.65 379.56476 
L 373.65 368.642446 
z
" clip-path="url(#p2c1990d210)" style="fill: #40ba47"/>
   </g>
   <g id="patch_45">
    <path d="M 421.955948 354.711735 
L 421.955948 357.557089 
Q 416.459804 357.061744 411.221293 356.811191 
Q 405.997094 356.557759 401.34541 356.557759 
Q 395.176562 356.557759 392.213797 356.900469 
Q 389.265345 357.240298 389.265345 357.960276 
Q 389.265345 358.5017 391.254834 358.804091 
Q 393.244324 359.103602 398.482835 359.319595 
L 405.811027 359.616226 
Q 416.946442 360.068372 421.641065 360.987064 
Q 426.35 361.902876 426.35 363.596265 
Q 426.35 365.816677 419.794704 366.902404 
Q 413.239408 367.988131 399.770994 367.988131 
Q 393.430391 367.988131 387.032537 367.743339 
Q 380.634682 367.501426 374.236828 367.023361 
L 374.236828 364.10025 
Q 380.634682 364.782789 386.60315 365.131258 
Q 392.571619 365.476848 398.125014 365.476848 
Q 403.764286 365.476848 406.755676 365.099579 
Q 409.747067 364.719431 409.747067 364.016732 
Q 409.747067 363.388911 407.714639 363.046202 
Q 405.682211 362.703492 399.59924 362.43278 
L 392.929441 362.136149 
Q 382.910429 361.704162 378.273058 360.759551 
Q 373.65 359.81494 373.65 358.213709 
Q 373.65 356.20641 380.090793 355.126442 
Q 386.531586 354.046475 398.611651 354.046475 
Q 404.122108 354.046475 409.933134 354.21351 
Q 415.744161 354.380545 421.955948 354.711735 
z
" clip-path="url(#p2c1990d210)" style="fill: #40ba47"/>
   </g>
   <g id="patch_46">
    <path d="M 388.091481 339.557319 
L 388.091481 349.922951 
L 393.265444 349.922951 
Q 402.112802 349.922951 406.782574 348.590383 
Q 411.464351 347.257815 411.464351 344.72011 
Q 411.464351 342.196969 406.806583 340.878964 
Q 402.16082 339.557319 393.265444 339.557319 
L 388.091481 339.557319 
z
M 373.65 336.244103 
L 388.871777 336.244103 
Q 401.63262 336.244103 407.874989 336.797519 
Q 414.117358 337.347295 418.583052 338.66894 
Q 422.520547 339.819463 424.429271 341.323153 
Q 426.35 342.823203 426.35 344.72011 
Q 426.35 346.646144 424.429271 348.153475 
Q 422.520547 349.660806 418.583052 350.807689 
Q 414.081344 352.129334 407.778952 352.682751 
Q 401.47656 353.232526 388.871777 353.232526 
L 373.65 353.232526 
L 373.65 336.244103 
z
" clip-path="url(#p2c1990d210)" style="fill: #6b296b"/>
   </g>
   <g id="patch_47">
    <path d="M 373.65 309.221495 
L 425.253077 309.221495 
L 425.253077 314.27157 
L 392.774615 314.27157 
L 392.774615 319.088564 
L 423.329487 319.088564 
L 423.329487 324.138639 
L 392.774615 324.138639 
L 392.774615 330.07109 
L 426.35 330.07109 
L 426.35 335.115615 
L 373.65 335.115615 
L 373.65 309.221495 
z
" clip-path="url(#p2c1990d210)" style="fill: #6b296b"/>
   </g>
   <g id="patch_48">
    <path d="M 426.35 303.604069 
Q 421.035119 305.51598 415.318669 306.4763 
Q 409.602219 307.427891 403.507822 307.427891 
Q 389.736374 307.427891 381.693187 301.735809 
Q 373.65 296.043727 373.65 286.309568 
Q 373.65 276.461917 381.834917 270.813486 
Q 390.031645 265.165055 404.287338 265.165055 
Q 409.779381 265.165055 414.810802 265.933311 
Q 419.854034 266.692837 424.318534 268.19443 
L 424.318534 276.61906 
Q 419.712304 274.689689 415.153317 273.738098 
Q 410.59433 272.777778 406.011721 272.777778 
Q 397.531533 272.777778 392.937113 276.287313 
Q 388.342694 279.788118 388.342694 286.309568 
Q 388.342694 292.769906 392.771762 296.296902 
Q 397.200829 299.815167 405.350314 299.815167 
Q 407.570753 299.815167 409.472299 299.614373 
Q 411.373846 299.404849 412.885634 298.968339 
L 412.885634 291.05879 
L 404.204662 291.05879 
L 404.204662 284.013529 
L 426.35 284.013529 
L 426.35 303.604069 
z
" clip-path="url(#p2c1990d210)" style="fill: #787800"/>
   </g>
   <g id="patch_49">
    <path d="M 410.155336 254.636152 
L 389.887763 254.636152 
L 386.68762 262.864257 
L 373.65 262.864257 
L 392.269015 217.696798 
L 407.730985 217.696798 
L 426.35 262.864257 
L 413.323155 262.864257 
L 410.155336 254.636152 
z
M 393.120231 246.253164 
L 406.890544 246.253164 
L 400.016162 228.286854 
L 393.120231 246.253164 
z
" clip-path="url(#p2c1990d210)" style="fill: #21599c"/>
   </g>
   <g id="patch_50">
    <path d="M 435.65 382.393585 
L 487.253077 382.393585 
L 487.253077 382.790061 
L 454.774615 382.790061 
L 454.774615 383.168237 
L 485.329487 383.168237 
L 485.329487 383.564713 
L 454.774615 383.564713 
L 454.774615 384.030462 
L 488.35 384.030462 
L 488.35 384.426502 
L 435.65 384.426502 
L 435.65 382.393585 
z
" clip-path="url(#p2c1990d210)" style="fill: #6b296b"/>
   </g>
   <g id="patch_51">
    <path d="M 463.405333 381.584546 
L 462.373292 381.584546 
Q 449.714313 381.584546 442.676667 381.103063 
Q 435.65 380.620824 435.65 379.761411 
Q 435.65 378.90351 442.665687 378.417491 
Q 449.681375 377.930718 462 377.930718 
Q 474.450375 377.930718 481.400187 378.412956 
Q 488.35 378.894439 488.35 379.761411 
Q 488.35 380.356273 484.661 380.786357 
Q 480.972 381.216442 474.044146 381.433374 
L 484.364562 382.227027 
L 471.771458 382.227027 
L 463.405333 381.584546 
z
M 462 378.589828 
Q 455.961458 378.589828 452.634771 378.896707 
Q 449.308083 379.203586 449.308083 379.761411 
Q 449.308083 380.328306 452.557917 380.629894 
Q 455.818729 380.930727 462 380.930727 
Q 468.071479 380.930727 471.398167 380.623847 
Q 474.724854 380.316212 474.724854 379.761411 
Q 474.724854 379.203586 471.398167 378.896707 
Q 468.071479 378.589828 462 378.589828 
z
" clip-path="url(#p2c1990d210)" style="fill: #40ba47"/>
   </g>
   <g id="patch_52">
    <path d="M 488.35 377.231696 
Q 483.035119 377.458662 477.318669 377.572663 
Q 471.602219 377.685628 465.507822 377.685628 
Q 451.736374 377.685628 443.693187 377.009912 
Q 435.65 376.334197 435.65 375.17864 
Q 435.65 374.00961 443.834917 373.339077 
Q 452.031645 372.668543 466.287338 372.668543 
Q 471.779381 372.668543 476.810802 372.759744 
Q 481.854034 372.849908 486.318534 373.028164 
L 486.318534 374.028265 
Q 481.712304 373.799226 477.153317 373.686262 
Q 472.59433 373.572261 468.011721 373.572261 
Q 459.531533 373.572261 454.937113 373.988883 
Q 450.342694 374.404469 450.342694 375.17864 
Q 450.342694 375.945557 454.771762 376.364252 
Q 459.200829 376.78191 467.350314 376.78191 
Q 469.570753 376.78191 471.472299 376.758074 
Q 473.373846 376.733201 474.885634 376.681382 
L 474.885634 375.742427 
L 466.204662 375.742427 
L 466.204662 374.906074 
L 488.35 374.906074 
L 488.35 377.231696 
z
" clip-path="url(#p2c1990d210)" style="fill: #787800"/>
   </g>
   <g id="patch_53">
    <path d="M 435.65 366.351006 
L 454.774615 366.351006 
L 454.774615 371.203789 
L 488.35 371.203789 
L 488.35 372.377911 
L 435.65 372.377911 
L 435.65 366.351006 
z
" clip-path="url(#p2c1990d210)" style="fill: #21599c"/>
   </g>
   <g id="patch_54">
    <path d="M 435.65 357.505169 
L 452.578032 357.505169 
L 473.968106 363.310217 
L 473.968106 357.505169 
L 488.35 357.505169 
L 488.35 365.969654 
L 471.409364 365.969654 
L 450.01929 360.164607 
L 450.01929 365.969654 
L 435.65 365.969654 
L 435.65 357.505169 
z
" clip-path="url(#p2c1990d210)" style="fill: #40ba47"/>
   </g>
   <g id="patch_55">
    <path d="M 483.955948 346.90653 
L 483.955948 349.070458 
Q 478.459804 348.693742 473.221293 348.503193 
Q 467.997094 348.310455 463.34541 348.310455 
Q 457.176562 348.310455 454.213797 348.57109 
Q 451.265345 348.829535 451.265345 349.377087 
Q 451.265345 349.788847 453.254834 350.018819 
Q 455.244324 350.246601 460.482835 350.410866 
L 467.811027 350.636458 
Q 478.946442 350.980321 483.641065 351.678998 
Q 488.35 352.375485 488.35 353.663328 
Q 488.35 355.35198 481.794704 356.177689 
Q 475.239408 357.003399 461.770994 357.003399 
Q 455.430391 357.003399 449.032537 356.817231 
Q 442.634682 356.633253 436.236828 356.269678 
L 436.236828 354.046615 
Q 442.634682 354.565695 448.60315 354.83071 
Q 454.571619 355.093535 460.125014 355.093535 
Q 465.764286 355.093535 468.755676 354.806618 
Q 471.747067 354.51751 471.747067 353.983099 
Q 471.747067 353.505633 469.714639 353.244998 
Q 467.682211 352.984363 461.59924 352.778483 
L 454.929441 352.552892 
Q 444.910429 352.22436 440.273058 351.505971 
Q 435.65 350.787583 435.65 349.569826 
Q 435.65 348.043249 442.090793 347.221921 
Q 448.531586 346.400592 460.611651 346.400592 
Q 466.122108 346.400592 471.933134 346.527624 
Q 477.744161 346.654656 483.955948 346.90653 
z
" clip-path="url(#p2c1990d210)" style="fill: #40ba47"/>
   </g>
   <g id="patch_56">
    <path d="M 435.65 334.409783 
L 463.043021 334.409783 
Q 475.271068 334.409783 481.803672 335.378268 
Q 488.35 336.344306 488.35 338.132089 
Q 488.35 339.929655 481.803672 340.895694 
Q 475.271068 341.861733 463.043021 341.861733 
L 452.159922 341.861733 
L 452.159922 345.821268 
L 435.65 345.821268 
L 435.65 334.409783 
z
M 452.159922 336.542406 
L 452.159922 339.72911 
L 461.286354 339.72911 
Q 466.08974 339.72911 468.711016 339.313347 
Q 471.332292 338.897583 471.332292 338.132089 
Q 471.332292 337.369041 468.711016 336.955723 
Q 466.08974 336.542406 461.286354 336.542406 
L 452.159922 336.542406 
z
" clip-path="url(#p2c1990d210)" style="fill: #787800"/>
   </g>
   <g id="patch_57">
    <path d="M 435.65 322.226875 
L 449.537864 322.226875 
L 449.537864 326.452594 
L 469.555783 322.226875 
L 485.683253 322.226875 
L 459.743078 327.710632 
L 488.35 333.804799 
L 470.964195 333.804799 
L 449.537864 329.244099 
L 449.537864 333.804799 
L 435.65 333.804799 
L 435.65 322.226875 
z
" clip-path="url(#p2c1990d210)" style="fill: #bd2e1f"/>
   </g>
   <g id="patch_58">
    <path d="M 472.155336 318.723786 
L 451.887763 318.723786 
L 448.68762 321.518477 
L 435.65 321.518477 
L 454.269015 306.177268 
L 469.730985 306.177268 
L 488.35 321.518477 
L 475.323155 321.518477 
L 472.155336 318.723786 
z
M 455.120231 315.876489 
L 468.890544 315.876489 
L 462.016162 309.7742 
L 455.120231 315.876489 
z
" clip-path="url(#p2c1990d210)" style="fill: #21599c"/>
   </g>
   <g id="patch_59">
    <path d="M 436.198462 280.662142 
L 487.801538 280.662142 
L 487.801538 285.433991 
L 455.323077 285.433991 
L 455.323077 289.985602 
L 485.877949 289.985602 
L 485.877949 294.757452 
L 455.323077 294.757452 
L 455.323077 305.12967 
L 436.198462 305.12967 
L 436.198462 280.662142 
z
" clip-path="url(#p2c1990d210)" style="fill: #21599c"/>
   </g>
   <g id="patch_60">
    <path d="M 497.65 384.422211 
L 514.578032 384.422211 
L 535.968106 384.460827 
L 535.968106 384.422211 
L 550.35 384.422211 
L 550.35 384.478518 
L 533.409364 384.478518 
L 512.01929 384.439902 
L 512.01929 384.478518 
L 497.65 384.478518 
L 497.65 384.422211 
z
" clip-path="url(#p2c1990d210)" style="fill: #40ba47"/>
   </g>
   <g id="patch_61">
    <path d="M 512.091481 382.396031 
L 512.091481 383.882143 
L 517.265444 383.882143 
Q 526.112802 383.882143 530.782574 383.691094 
Q 535.464351 383.500045 535.464351 383.136216 
Q 535.464351 382.774476 530.806583 382.585514 
Q 526.16082 382.396031 517.265444 382.396031 
L 512.091481 382.396031 
z
M 497.65 381.921018 
L 512.871777 381.921018 
Q 525.63262 381.921018 531.874989 382.000361 
Q 538.117358 382.079182 542.583052 382.268665 
Q 546.520547 382.433615 548.429271 382.649198 
Q 550.35 382.864258 550.35 383.136216 
Q 550.35 383.41235 548.429271 383.628455 
Q 546.520547 383.84456 542.583052 384.008987 
Q 538.081344 384.19847 531.778952 384.277813 
Q 525.47656 384.356634 512.871777 384.356634 
L 497.65 384.356634 
L 497.65 381.921018 
z
" clip-path="url(#p2c1990d210)" style="fill: #6b296b"/>
   </g>
   <g id="patch_62">
    <path d="M 550.35 381.143766 
Q 545.035119 381.42 539.318669 381.558748 
Q 533.602219 381.696235 527.507822 381.696235 
Q 513.736374 381.696235 505.693187 380.873839 
Q 497.65 380.051443 497.65 378.645044 
Q 497.65 377.222249 505.834917 376.40616 
Q 514.031645 375.59007 528.287338 375.59007 
Q 533.779381 375.59007 538.810802 375.701068 
Q 543.854034 375.810805 548.318534 376.027756 
L 548.318534 377.244953 
Q 543.712304 376.966196 539.153317 376.82871 
Q 534.59433 376.689962 530.011721 376.689962 
Q 521.531533 376.689962 516.937113 377.197022 
Q 512.342694 377.702821 512.342694 378.645044 
Q 512.342694 379.578439 516.771762 380.088022 
Q 521.200829 380.596343 529.350314 380.596343 
Q 531.570753 380.596343 533.472299 380.567332 
Q 535.373846 380.53706 536.885634 380.473993 
L 536.885634 379.331215 
L 528.204662 379.331215 
L 528.204662 378.313311 
L 550.35 378.313311 
L 550.35 381.143766 
z
" clip-path="url(#p2c1990d210)" style="fill: #787800"/>
   </g>
   <g id="patch_63">
    <path d="M 497.65 364.420975 
L 549.253077 364.420975 
L 549.253077 366.512871 
L 516.774615 366.512871 
L 516.774615 368.508218 
L 547.329487 368.508218 
L 547.329487 370.600114 
L 516.774615 370.600114 
L 516.774615 373.057517 
L 550.35 373.057517 
L 550.35 375.147115 
L 497.65 375.147115 
L 497.65 364.420975 
z
" clip-path="url(#p2c1990d210)" style="fill: #6b296b"/>
   </g>
   <g id="patch_64">
    <path d="M 514.437692 352.770634 
L 533.562308 352.770634 
L 533.562308 363.847219 
L 514.437692 363.847219 
L 514.437692 352.770634 
z
" clip-path="url(#p2c1990d210)" style="fill: #21599c"/>
   </g>
   <g id="patch_65">
    <path d="M 497.65 337.678509 
L 510.68762 337.678509 
L 524.016162 348.322826 
L 537.323155 337.678509 
L 550.35 337.678509 
L 531.730985 352.099642 
L 516.269015 352.099642 
L 497.65 337.678509 
z
" clip-path="url(#p2c1990d210)" style="fill: #21599c"/>
   </g>
   <g id="patch_66">
    <path d="M 534.155336 332.8653 
L 513.887763 332.8653 
L 510.68762 336.739365 
L 497.65 336.739365 
L 516.269015 315.473028 
L 531.730985 315.473028 
L 550.35 336.739365 
L 537.323155 336.739365 
L 534.155336 332.8653 
z
M 517.120231 328.918312 
L 530.890544 328.918312 
L 524.016162 320.459177 
L 517.120231 328.918312 
z
" clip-path="url(#p2c1990d210)" style="fill: #21599c"/>
   </g>
   <g id="patch_67">
    <path d="M 545.955948 256.039326 
L 545.955948 268.317714 
Q 540.459804 266.180181 535.221293 265.098987 
Q 529.997094 264.005365 525.34541 264.005365 
Q 519.176562 264.005365 516.213797 265.48424 
Q 513.265345 266.950687 513.265345 270.057567 
Q 513.265345 272.39394 515.254834 273.69883 
Q 517.244324 274.991292 522.482835 275.923356 
L 529.811027 277.20339 
Q 540.946442 279.154511 545.641065 283.118889 
Q 550.35 287.07084 550.35 294.378221 
Q 550.35 303.959838 543.794704 308.645012 
Q 537.239408 313.330187 523.770994 313.330187 
Q 517.430391 313.330187 511.032537 312.273848 
Q 504.634682 311.229936 498.236828 309.166968 
L 498.236828 296.553037 
Q 504.634682 299.498359 510.60315 301.002088 
Q 516.571619 302.493391 522.125014 302.493391 
Q 527.764286 302.493391 530.755676 300.865386 
Q 533.747067 299.224953 533.747067 296.192639 
Q 533.747067 293.48344 531.714639 292.004565 
Q 529.682211 290.52569 523.59924 289.357503 
L 516.929441 288.077469 
Q 506.910429 286.213341 502.273058 282.137115 
Q 497.65 278.060889 497.65 271.151188 
Q 497.65 262.489208 504.090793 257.828888 
Q 510.531586 253.168569 522.611651 253.168569 
Q 528.122108 253.168569 533.933134 253.889365 
Q 539.744161 254.610161 545.955948 256.039326 
z
" clip-path="url(#p2c1990d210)" style="fill: #40ba47"/>
   </g>
   <g id="patch_68">
    <path d="M 559.65 381.469127 
L 573.537864 381.469127 
L 573.537864 382.539861 
L 593.555783 381.469127 
L 609.683253 381.469127 
L 583.743078 382.858629 
L 612.35 384.402798 
L 594.964195 384.402798 
L 573.537864 383.247186 
L 573.537864 384.402798 
L 559.65 384.402798 
L 559.65 381.469127 
z
" clip-path="url(#p2c1990d210)" style="fill: #bd2e1f"/>
   </g>
   <g id="patch_69">
    <path d="M 612.35 380.978384 
Q 607.035119 381.138565 601.318669 381.219022 
Q 595.602219 381.298746 589.507822 381.298746 
Q 575.736374 381.298746 567.693187 380.82186 
Q 559.65 380.344974 559.65 379.52944 
Q 559.65 378.704398 567.834917 378.231169 
Q 576.031645 377.75794 590.287338 377.75794 
Q 595.779381 377.75794 600.810802 377.822305 
Q 605.854034 377.885939 610.318534 378.011743 
L 610.318534 378.717564 
Q 605.712304 378.55592 601.153317 378.476195 
Q 596.59433 378.395739 592.011721 378.395739 
Q 583.531533 378.395739 578.937113 378.68977 
Q 574.342694 378.983069 574.342694 379.52944 
Q 574.342694 380.070692 578.771762 380.366185 
Q 583.200829 380.660948 591.350314 380.660948 
Q 593.570753 380.660948 595.472299 380.644125 
Q 597.373846 380.626571 598.885634 380.59 
L 598.885634 379.927333 
L 590.204662 379.927333 
L 590.204662 379.337077 
L 612.35 379.337077 
L 612.35 380.978384 
z
" clip-path="url(#p2c1990d210)" style="fill: #787800"/>
   </g>
   <g id="patch_70">
    <path d="M 559.65 373.139465 
L 611.253077 373.139465 
L 611.253077 373.999394 
L 578.774615 373.999394 
L 578.774615 374.819634 
L 609.329487 374.819634 
L 609.329487 375.679563 
L 578.774615 375.679563 
L 578.774615 376.689744 
L 612.35 376.689744 
L 612.35 377.548728 
L 559.65 377.548728 
L 559.65 373.139465 
z
" clip-path="url(#p2c1990d210)" style="fill: #6b296b"/>
   </g>
   <g id="patch_71">
    <path d="M 596.155336 371.84834 
L 575.887763 371.84834 
L 572.68762 372.875107 
L 559.65 372.875107 
L 578.269015 367.238759 
L 593.730985 367.238759 
L 612.35 372.875107 
L 599.323155 372.875107 
L 596.155336 371.84834 
z
M 579.120231 370.802245 
L 592.890544 370.802245 
L 586.016162 368.560268 
L 579.120231 370.802245 
z
" clip-path="url(#p2c1990d210)" style="fill: #21599c"/>
   </g>
   <g id="patch_72">
    <path d="M 559.65 361.294507 
L 572.68762 361.294507 
L 586.016162 365.46282 
L 599.323155 361.294507 
L 612.35 361.294507 
L 593.730985 366.94182 
L 578.269015 366.94182 
L 559.65 361.294507 
z
" clip-path="url(#p2c1990d210)" style="fill: #21599c"/>
   </g>
   <g id="patch_73">
    <path d="M 607.955948 351.955872 
L 607.955948 353.872483 
Q 602.459804 353.538822 597.221293 353.370052 
Q 591.997094 353.199341 587.34541 353.199341 
Q 581.176562 353.199341 578.213797 353.430188 
Q 575.265345 353.659095 575.265345 354.144067 
Q 575.265345 354.508767 577.254834 354.712455 
Q 579.244324 354.914203 584.482835 355.059695 
L 591.811027 355.259504 
Q 602.946442 355.564066 607.641065 356.182891 
Q 612.35 356.799776 612.35 357.940431 
Q 612.35 359.436085 605.794704 360.167424 
Q 599.239408 360.898762 585.770994 360.898762 
Q 579.430391 360.898762 573.032537 360.733871 
Q 566.634682 360.57092 560.236828 360.248899 
L 560.236828 358.279911 
Q 566.634682 358.739665 572.60315 358.974392 
Q 578.571619 359.207178 584.125014 359.207178 
Q 589.764286 359.207178 592.755676 358.953053 
Q 595.747067 358.696987 595.747067 358.223654 
Q 595.747067 357.800759 593.714639 357.569912 
Q 591.682211 357.339065 585.59924 357.156715 
L 578.929441 356.956907 
Q 568.910429 356.665923 564.273058 356.02964 
Q 559.65 355.393356 559.65 354.314778 
Q 559.65 352.962675 566.090793 352.235216 
Q 572.531586 351.507758 584.611651 351.507758 
Q 590.122108 351.507758 595.933134 351.620272 
Q 601.744161 351.732785 607.955948 351.955872 
z
" clip-path="url(#p2c1990d210)" style="fill: #40ba47"/>
   </g>
   <g id="patch_74">
    <path d="M 576.437692 338.557231 
L 595.562308 338.557231 
L 595.562308 350.934898 
L 576.437692 350.934898 
L 576.437692 338.557231 
z
" clip-path="url(#p2c1990d210)" style="fill: #21599c"/>
   </g>
   <g id="patch_75">
    <path d="M 574.091481 327.789207 
L 574.091481 335.453768 
L 579.265444 335.453768 
Q 588.112802 335.453768 592.782574 334.468439 
Q 597.464351 333.483111 597.464351 331.606681 
Q 597.464351 329.741018 592.806583 328.766459 
Q 588.16082 327.789207 579.265444 327.789207 
L 574.091481 327.789207 
z
M 559.65 325.339348 
L 574.871777 325.339348 
Q 587.63262 325.339348 593.874989 325.748555 
Q 600.117358 326.15507 604.583052 327.132322 
Q 608.520547 327.983042 610.429271 329.094902 
Q 612.35 330.204069 612.35 331.606681 
Q 612.35 333.03083 610.429271 334.145381 
Q 608.520547 335.259933 604.583052 336.107961 
Q 600.081344 337.085212 593.778952 337.49442 
Q 587.47656 337.900935 574.871777 337.900935 
L 559.65 337.900935 
L 559.65 325.339348 
z
" clip-path="url(#p2c1990d210)" style="fill: #6b296b"/>
   </g>
   <g id="patch_76">
    <path d="M 559.65 300.502515 
L 578.774615 300.502515 
L 578.774615 319.728676 
L 612.35 319.728676 
L 612.35 324.380414 
L 559.65 324.380414 
L 559.65 300.502515 
z
" clip-path="url(#p2c1990d210)" style="fill: #21599c"/>
   </g>
   <g id="patch_77">
    <path d="M 587.405333 295.495603 
L 586.373292 295.495603 
Q 573.714313 295.495603 566.676667 292.705294 
Q 559.65 289.910605 559.65 284.930101 
Q 559.65 279.958358 566.665687 277.141767 
Q 573.681375 274.320796 586 274.320796 
Q 598.450375 274.320796 605.400187 277.115485 
Q 612.35 279.905794 612.35 284.930101 
Q 612.35 288.377469 608.661 290.869911 
Q 604.972 293.362353 598.044146 294.619525 
L 608.364562 299.218935 
L 595.771458 299.218935 
L 587.405333 295.495603 
z
M 586 278.140496 
Q 579.961458 278.140496 576.634771 279.918935 
Q 573.308083 281.697373 573.308083 284.930101 
Q 573.308083 288.215394 576.557917 289.96317 
Q 579.818729 291.706565 586 291.706565 
Q 592.071479 291.706565 595.398167 289.928127 
Q 598.724854 288.145308 598.724854 284.930101 
Q 598.724854 281.697373 595.398167 279.918935 
Q 592.071479 278.140496 586 278.140496 
z
" clip-path="url(#p2c1990d210)" style="fill: #40ba47"/>
   </g>
   <g id="matplotlib.axis_1">
    <g id="xtick_1">
     <g id="line2d_2">
      <defs>
       <path id="m954baffe18" d="M 0 0 
L 0 4.8 
" style="stroke: #262626"/>
      </defs>
      <g>
       <use xlink:href="#m954baffe18" x="152" y="384.48" style="fill: #262626; stroke: #262626"/>
      </g>
     </g>
     <g id="text_1">
      <!-- P4 -->
      <g style="fill: #262626" transform="translate(146.61825 399.078875) scale(0.088 -0.088)">
       <defs>
        <path id="ArialMT-50" d="M 494 0 
L 494 4581 
L 2222 4581 
Q 2678 4581 2919 4538 
Q 3256 4481 3484 4323 
Q 3713 4166 3852 3881 
Q 3991 3597 3991 3256 
Q 3991 2672 3619 2267 
Q 3247 1863 2275 1863 
L 1100 1863 
L 1100 0 
L 494 0 
z
M 1100 2403 
L 2284 2403 
Q 2872 2403 3119 2622 
Q 3366 2841 3366 3238 
Q 3366 3525 3220 3729 
Q 3075 3934 2838 4000 
Q 2684 4041 2272 4041 
L 1100 4041 
L 1100 2403 
z
" transform="scale(0.015625)"/>
        <path id="ArialMT-34" d="M 2069 0 
L 2069 1097 
L 81 1097 
L 81 1613 
L 2172 4581 
L 2631 4581 
L 2631 1613 
L 3250 1613 
L 3250 1097 
L 2631 1097 
L 2631 0 
L 2069 0 
z
M 2069 1613 
L 2069 3678 
L 634 1613 
L 2069 1613 
z
" transform="scale(0.015625)"/>
       </defs>
       <use xlink:href="#ArialMT-50"/>
       <use xlink:href="#ArialMT-34" x="66.699219"/>
      </g>
     </g>
    </g>
    <g id="xtick_2">
     <g id="line2d_3">
      <g>
       <use xlink:href="#m954baffe18" x="214" y="384.48" style="fill: #262626; stroke: #262626"/>
      </g>
     </g>
     <g id="text_2">
      <!-- P3 -->
      <g style="fill: #262626" transform="translate(208.61825 399.078875) scale(0.088 -0.088)">
       <defs>
        <path id="ArialMT-33" d="M 269 1209 
L 831 1284 
Q 928 806 1161 595 
Q 1394 384 1728 384 
Q 2125 384 2398 659 
Q 2672 934 2672 1341 
Q 2672 1728 2419 1979 
Q 2166 2231 1775 2231 
Q 1616 2231 1378 2169 
L 1441 2663 
Q 1497 2656 1531 2656 
Q 1891 2656 2178 2843 
Q 2466 3031 2466 3422 
Q 2466 3731 2256 3934 
Q 2047 4138 1716 4138 
Q 1388 4138 1169 3931 
Q 950 3725 888 3313 
L 325 3413 
Q 428 3978 793 4289 
Q 1159 4600 1703 4600 
Q 2078 4600 2393 4439 
Q 2709 4278 2876 4000 
Q 3044 3722 3044 3409 
Q 3044 3113 2884 2869 
Q 2725 2625 2413 2481 
Q 2819 2388 3044 2092 
Q 3269 1797 3269 1353 
Q 3269 753 2831 336 
Q 2394 -81 1725 -81 
Q 1122 -81 723 278 
Q 325 638 269 1209 
z
" transform="scale(0.015625)"/>
       </defs>
       <use xlink:href="#ArialMT-50"/>
       <use xlink:href="#ArialMT-33" x="66.699219"/>
      </g>
     </g>
    </g>
    <g id="xtick_3">
     <g id="line2d_4">
      <g>
       <use xlink:href="#m954baffe18" x="276" y="384.48" style="fill: #262626; stroke: #262626"/>
      </g>
     </g>
     <g id="text_3">
      <!-- P2 -->
      <g style="fill: #262626" transform="translate(270.61825 399.078875) scale(0.088 -0.088)">
       <defs>
        <path id="ArialMT-32" d="M 3222 541 
L 3222 0 
L 194 0 
Q 188 203 259 391 
Q 375 700 629 1000 
Q 884 1300 1366 1694 
Q 2113 2306 2375 2664 
Q 2638 3022 2638 3341 
Q 2638 3675 2398 3904 
Q 2159 4134 1775 4134 
Q 1369 4134 1125 3890 
Q 881 3647 878 3216 
L 300 3275 
Q 359 3922 746 4261 
Q 1134 4600 1788 4600 
Q 2447 4600 2831 4234 
Q 3216 3869 3216 3328 
Q 3216 3053 3103 2787 
Q 2991 2522 2730 2228 
Q 2469 1934 1863 1422 
Q 1356 997 1212 845 
Q 1069 694 975 541 
L 3222 541 
z
" transform="scale(0.015625)"/>
       </defs>
       <use xlink:href="#ArialMT-50"/>
       <use xlink:href="#ArialMT-32" x="66.699219"/>
      </g>
     </g>
    </g>
    <g id="xtick_4">
     <g id="line2d_5">
      <g>
       <use xlink:href="#m954baffe18" x="338" y="384.48" style="fill: #262626; stroke: #262626"/>
      </g>
     </g>
     <g id="text_4">
      <!-- P1 -->
      <g style="fill: #262626" transform="translate(332.61825 399.078875) scale(0.088 -0.088)">
       <defs>
        <path id="ArialMT-31" d="M 2384 0 
L 1822 0 
L 1822 3584 
Q 1619 3391 1289 3197 
Q 959 3003 697 2906 
L 697 3450 
Q 1169 3672 1522 3987 
Q 1875 4303 2022 4600 
L 2384 4600 
L 2384 0 
z
" transform="scale(0.015625)"/>
       </defs>
       <use xlink:href="#ArialMT-50"/>
       <use xlink:href="#ArialMT-31" x="66.699219"/>
      </g>
     </g>
    </g>
    <g id="xtick_5">
     <g id="line2d_6">
      <g>
       <use xlink:href="#m954baffe18" x="400" y="384.48" style="fill: #262626; stroke: #262626"/>
      </g>
     </g>
     <g id="text_5">
      <!-- P1' -->
      <g style="fill: #262626" transform="translate(393.778125 399.078875) scale(0.088 -0.088)">
       <defs>
        <path id="ArialMT-27" d="M 425 2959 
L 281 3816 
L 281 4581 
L 922 4581 
L 922 3816 
L 772 2959 
L 425 2959 
z
" transform="scale(0.015625)"/>
       </defs>
       <use xlink:href="#ArialMT-50"/>
       <use xlink:href="#ArialMT-31" x="66.699219"/>
       <use xlink:href="#ArialMT-27" x="122.314453"/>
      </g>
     </g>
    </g>
    <g id="xtick_6">
     <g id="line2d_7">
      <g>
       <use xlink:href="#m954baffe18" x="462" y="384.48" style="fill: #262626; stroke: #262626"/>
      </g>
     </g>
     <g id="text_6">
      <!-- P2' -->
      <g style="fill: #262626" transform="translate(455.778125 399.078875) scale(0.088 -0.088)">
       <use xlink:href="#ArialMT-50"/>
       <use xlink:href="#ArialMT-32" x="66.699219"/>
       <use xlink:href="#ArialMT-27" x="122.314453"/>
      </g>
     </g>
    </g>
    <g id="xtick_7">
     <g id="line2d_8">
      <g>
       <use xlink:href="#m954baffe18" x="524" y="384.48" style="fill: #262626; stroke: #262626"/>
      </g>
     </g>
     <g id="text_7">
      <!-- P3' -->
      <g style="fill: #262626" transform="translate(517.778125 399.078875) scale(0.088 -0.088)">
       <use xlink:href="#ArialMT-50"/>
       <use xlink:href="#ArialMT-33" x="66.699219"/>
       <use xlink:href="#ArialMT-27" x="122.314453"/>
      </g>
     </g>
    </g>
    <g id="xtick_8">
     <g id="line2d_9">
      <g>
       <use xlink:href="#m954baffe18" x="586" y="384.48" style="fill: #262626; stroke: #262626"/>
      </g>
     </g>
     <g id="text_8">
      <!-- P4' -->
      <g style="fill: #262626" transform="translate(579.778125 399.078875) scale(0.088 -0.088)">
       <use xlink:href="#ArialMT-50"/>
       <use xlink:href="#ArialMT-34" x="66.699219"/>
       <use xlink:href="#ArialMT-27" x="122.314453"/>
      </g>
     </g>
    </g>
   </g>
   <g id="matplotlib.axis_2">
    <g id="ytick_1">
     <g id="line2d_10">
      <defs>
       <path id="mbad76c26ef" d="M 0 0 
L -4.8 0 
" style="stroke: #262626"/>
      </defs>
      <g>
       <use xlink:href="#mbad76c26ef" x="90" y="384.48" style="fill: #262626; stroke: #262626"/>
      </g>
     </g>
     <g id="text_9">
      <!-- 0.0 -->
      <g style="fill: #262626" transform="translate(69.468 387.629437) scale(0.088 -0.088)">
       <defs>
        <path id="ArialMT-30" d="M 266 2259 
Q 266 3072 433 3567 
Q 600 4063 929 4331 
Q 1259 4600 1759 4600 
Q 2128 4600 2406 4451 
Q 2684 4303 2865 4023 
Q 3047 3744 3150 3342 
Q 3253 2941 3253 2259 
Q 3253 1453 3087 958 
Q 2922 463 2592 192 
Q 2263 -78 1759 -78 
Q 1097 -78 719 397 
Q 266 969 266 2259 
z
M 844 2259 
Q 844 1131 1108 757 
Q 1372 384 1759 384 
Q 2147 384 2411 759 
Q 2675 1134 2675 2259 
Q 2675 3391 2411 3762 
Q 2147 4134 1753 4134 
Q 1366 4134 1134 3806 
Q 844 3388 844 2259 
z
" transform="scale(0.015625)"/>
        <path id="ArialMT-2e" d="M 581 0 
L 581 641 
L 1222 641 
L 1222 0 
L 581 0 
z
" transform="scale(0.015625)"/>
       </defs>
       <use xlink:href="#ArialMT-30"/>
       <use xlink:href="#ArialMT-2e" x="55.615234"/>
       <use xlink:href="#ArialMT-30" x="83.398438"/>
      </g>
     </g>
    </g>
    <g id="ytick_2">
     <g id="line2d_11">
      <g>
       <use xlink:href="#mbad76c26ef" x="90" y="334.166214" style="fill: #262626; stroke: #262626"/>
      </g>
     </g>
     <g id="text_10">
      <!-- 0.2 -->
      <g style="fill: #262626" transform="translate(69.468 337.315651) scale(0.088 -0.088)">
       <use xlink:href="#ArialMT-30"/>
       <use xlink:href="#ArialMT-2e" x="55.615234"/>
       <use xlink:href="#ArialMT-32" x="83.398438"/>
      </g>
     </g>
    </g>
    <g id="ytick_3">
     <g id="line2d_12">
      <g>
       <use xlink:href="#mbad76c26ef" x="90" y="283.852428" style="fill: #262626; stroke: #262626"/>
      </g>
     </g>
     <g id="text_11">
      <!-- 0.4 -->
      <g style="fill: #262626" transform="translate(69.468 287.001865) scale(0.088 -0.088)">
       <use xlink:href="#ArialMT-30"/>
       <use xlink:href="#ArialMT-2e" x="55.615234"/>
       <use xlink:href="#ArialMT-34" x="83.398438"/>
      </g>
     </g>
    </g>
    <g id="ytick_4">
     <g id="line2d_13">
      <g>
       <use xlink:href="#mbad76c26ef" x="90" y="233.538642" style="fill: #262626; stroke: #262626"/>
      </g>
     </g>
     <g id="text_12">
      <!-- 0.6 -->
      <g style="fill: #262626" transform="translate(69.468 236.688079) scale(0.088 -0.088)">
       <defs>
        <path id="ArialMT-36" d="M 3184 3459 
L 2625 3416 
Q 2550 3747 2413 3897 
Q 2184 4138 1850 4138 
Q 1581 4138 1378 3988 
Q 1113 3794 959 3422 
Q 806 3050 800 2363 
Q 1003 2672 1297 2822 
Q 1591 2972 1913 2972 
Q 2475 2972 2870 2558 
Q 3266 2144 3266 1488 
Q 3266 1056 3080 686 
Q 2894 316 2569 119 
Q 2244 -78 1831 -78 
Q 1128 -78 684 439 
Q 241 956 241 2144 
Q 241 3472 731 4075 
Q 1159 4600 1884 4600 
Q 2425 4600 2770 4297 
Q 3116 3994 3184 3459 
z
M 888 1484 
Q 888 1194 1011 928 
Q 1134 663 1356 523 
Q 1578 384 1822 384 
Q 2178 384 2434 671 
Q 2691 959 2691 1453 
Q 2691 1928 2437 2201 
Q 2184 2475 1800 2475 
Q 1419 2475 1153 2201 
Q 888 1928 888 1484 
z
" transform="scale(0.015625)"/>
       </defs>
       <use xlink:href="#ArialMT-30"/>
       <use xlink:href="#ArialMT-2e" x="55.615234"/>
       <use xlink:href="#ArialMT-36" x="83.398438"/>
      </g>
     </g>
    </g>
    <g id="ytick_5">
     <g id="line2d_14">
      <g>
       <use xlink:href="#mbad76c26ef" x="90" y="183.224856" style="fill: #262626; stroke: #262626"/>
      </g>
     </g>
     <g id="text_13">
      <!-- 0.8 -->
      <g style="fill: #262626" transform="translate(69.468 186.374293) scale(0.088 -0.088)">
       <defs>
        <path id="ArialMT-38" d="M 1131 2484 
Q 781 2613 612 2850 
Q 444 3088 444 3419 
Q 444 3919 803 4259 
Q 1163 4600 1759 4600 
Q 2359 4600 2725 4251 
Q 3091 3903 3091 3403 
Q 3091 3084 2923 2848 
Q 2756 2613 2416 2484 
Q 2838 2347 3058 2040 
Q 3278 1734 3278 1309 
Q 3278 722 2862 322 
Q 2447 -78 1769 -78 
Q 1091 -78 675 323 
Q 259 725 259 1325 
Q 259 1772 486 2073 
Q 713 2375 1131 2484 
z
M 1019 3438 
Q 1019 3113 1228 2906 
Q 1438 2700 1772 2700 
Q 2097 2700 2305 2904 
Q 2513 3109 2513 3406 
Q 2513 3716 2298 3927 
Q 2084 4138 1766 4138 
Q 1444 4138 1231 3931 
Q 1019 3725 1019 3438 
z
M 838 1322 
Q 838 1081 952 856 
Q 1066 631 1291 507 
Q 1516 384 1775 384 
Q 2178 384 2440 643 
Q 2703 903 2703 1303 
Q 2703 1709 2433 1975 
Q 2163 2241 1756 2241 
Q 1359 2241 1098 1978 
Q 838 1716 838 1322 
z
" transform="scale(0.015625)"/>
       </defs>
       <use xlink:href="#ArialMT-30"/>
       <use xlink:href="#ArialMT-2e" x="55.615234"/>
       <use xlink:href="#ArialMT-38" x="83.398438"/>
      </g>
     </g>
    </g>
    <g id="ytick_6">
     <g id="line2d_15">
      <g>
       <use xlink:href="#mbad76c26ef" x="90" y="132.91107" style="fill: #262626; stroke: #262626"/>
      </g>
     </g>
     <g id="text_14">
      <!-- 1.0 -->
      <g style="fill: #262626" transform="translate(69.468 136.060507) scale(0.088 -0.088)">
       <use xlink:href="#ArialMT-31"/>
       <use xlink:href="#ArialMT-2e" x="55.615234"/>
       <use xlink:href="#ArialMT-30" x="83.398438"/>
      </g>
     </g>
    </g>
    <g id="ytick_7">
     <g id="line2d_16">
      <g>
       <use xlink:href="#mbad76c26ef" x="90" y="82.597284" style="fill: #262626; stroke: #262626"/>
      </g>
     </g>
     <g id="text_15">
      <!-- 1.2 -->
      <g style="fill: #262626" transform="translate(69.468 85.746721) scale(0.088 -0.088)">
       <use xlink:href="#ArialMT-31"/>
       <use xlink:href="#ArialMT-2e" x="55.615234"/>
       <use xlink:href="#ArialMT-32" x="83.398438"/>
      </g>
     </g>
    </g>
    <g id="text_16">
     <!-- information (bits) -->
     <g style="fill: #262626" transform="translate(63.4475 253.902) rotate(-90) scale(0.096 -0.096)">
      <defs>
       <path id="ArialMT-69" d="M 425 3934 
L 425 4581 
L 988 4581 
L 988 3934 
L 425 3934 
z
M 425 0 
L 425 3319 
L 988 3319 
L 988 0 
L 425 0 
z
" transform="scale(0.015625)"/>
       <path id="ArialMT-6e" d="M 422 0 
L 422 3319 
L 928 3319 
L 928 2847 
Q 1294 3394 1984 3394 
Q 2284 3394 2536 3286 
Q 2788 3178 2913 3003 
Q 3038 2828 3088 2588 
Q 3119 2431 3119 2041 
L 3119 0 
L 2556 0 
L 2556 2019 
Q 2556 2363 2490 2533 
Q 2425 2703 2258 2804 
Q 2091 2906 1866 2906 
Q 1506 2906 1245 2678 
Q 984 2450 984 1813 
L 984 0 
L 422 0 
z
" transform="scale(0.015625)"/>
       <path id="ArialMT-66" d="M 556 0 
L 556 2881 
L 59 2881 
L 59 3319 
L 556 3319 
L 556 3672 
Q 556 4006 616 4169 
Q 697 4388 901 4523 
Q 1106 4659 1475 4659 
Q 1713 4659 2000 4603 
L 1916 4113 
Q 1741 4144 1584 4144 
Q 1328 4144 1222 4034 
Q 1116 3925 1116 3625 
L 1116 3319 
L 1763 3319 
L 1763 2881 
L 1116 2881 
L 1116 0 
L 556 0 
z
" transform="scale(0.015625)"/>
       <path id="ArialMT-6f" d="M 213 1659 
Q 213 2581 725 3025 
Q 1153 3394 1769 3394 
Q 2453 3394 2887 2945 
Q 3322 2497 3322 1706 
Q 3322 1066 3130 698 
Q 2938 331 2570 128 
Q 2203 -75 1769 -75 
Q 1072 -75 642 372 
Q 213 819 213 1659 
z
M 791 1659 
Q 791 1022 1069 705 
Q 1347 388 1769 388 
Q 2188 388 2466 706 
Q 2744 1025 2744 1678 
Q 2744 2294 2464 2611 
Q 2184 2928 1769 2928 
Q 1347 2928 1069 2612 
Q 791 2297 791 1659 
z
" transform="scale(0.015625)"/>
       <path id="ArialMT-72" d="M 416 0 
L 416 3319 
L 922 3319 
L 922 2816 
Q 1116 3169 1280 3281 
Q 1444 3394 1641 3394 
Q 1925 3394 2219 3213 
L 2025 2691 
Q 1819 2813 1613 2813 
Q 1428 2813 1281 2702 
Q 1134 2591 1072 2394 
Q 978 2094 978 1738 
L 978 0 
L 416 0 
z
" transform="scale(0.015625)"/>
       <path id="ArialMT-6d" d="M 422 0 
L 422 3319 
L 925 3319 
L 925 2853 
Q 1081 3097 1340 3245 
Q 1600 3394 1931 3394 
Q 2300 3394 2536 3241 
Q 2772 3088 2869 2813 
Q 3263 3394 3894 3394 
Q 4388 3394 4653 3120 
Q 4919 2847 4919 2278 
L 4919 0 
L 4359 0 
L 4359 2091 
Q 4359 2428 4304 2576 
Q 4250 2725 4106 2815 
Q 3963 2906 3769 2906 
Q 3419 2906 3187 2673 
Q 2956 2441 2956 1928 
L 2956 0 
L 2394 0 
L 2394 2156 
Q 2394 2531 2256 2718 
Q 2119 2906 1806 2906 
Q 1569 2906 1367 2781 
Q 1166 2656 1075 2415 
Q 984 2175 984 1722 
L 984 0 
L 422 0 
z
" transform="scale(0.015625)"/>
       <path id="ArialMT-61" d="M 2588 409 
Q 2275 144 1986 34 
Q 1697 -75 1366 -75 
Q 819 -75 525 192 
Q 231 459 231 875 
Q 231 1119 342 1320 
Q 453 1522 633 1644 
Q 813 1766 1038 1828 
Q 1203 1872 1538 1913 
Q 2219 1994 2541 2106 
Q 2544 2222 2544 2253 
Q 2544 2597 2384 2738 
Q 2169 2928 1744 2928 
Q 1347 2928 1158 2789 
Q 969 2650 878 2297 
L 328 2372 
Q 403 2725 575 2942 
Q 747 3159 1072 3276 
Q 1397 3394 1825 3394 
Q 2250 3394 2515 3294 
Q 2781 3194 2906 3042 
Q 3031 2891 3081 2659 
Q 3109 2516 3109 2141 
L 3109 1391 
Q 3109 606 3145 398 
Q 3181 191 3288 0 
L 2700 0 
Q 2613 175 2588 409 
z
M 2541 1666 
Q 2234 1541 1622 1453 
Q 1275 1403 1131 1340 
Q 988 1278 909 1158 
Q 831 1038 831 891 
Q 831 666 1001 516 
Q 1172 366 1500 366 
Q 1825 366 2078 508 
Q 2331 650 2450 897 
Q 2541 1088 2541 1459 
L 2541 1666 
z
" transform="scale(0.015625)"/>
       <path id="ArialMT-74" d="M 1650 503 
L 1731 6 
Q 1494 -44 1306 -44 
Q 1000 -44 831 53 
Q 663 150 594 308 
Q 525 466 525 972 
L 525 2881 
L 113 2881 
L 113 3319 
L 525 3319 
L 525 4141 
L 1084 4478 
L 1084 3319 
L 1650 3319 
L 1650 2881 
L 1084 2881 
L 1084 941 
Q 1084 700 1114 631 
Q 1144 563 1211 522 
Q 1278 481 1403 481 
Q 1497 481 1650 503 
z
" transform="scale(0.015625)"/>
       <path id="ArialMT-20" transform="scale(0.015625)"/>
       <path id="ArialMT-28" d="M 1497 -1347 
Q 1031 -759 709 28 
Q 388 816 388 1659 
Q 388 2403 628 3084 
Q 909 3875 1497 4659 
L 1900 4659 
Q 1522 4009 1400 3731 
Q 1209 3300 1100 2831 
Q 966 2247 966 1656 
Q 966 153 1900 -1347 
L 1497 -1347 
z
" transform="scale(0.015625)"/>
       <path id="ArialMT-62" d="M 941 0 
L 419 0 
L 419 4581 
L 981 4581 
L 981 2947 
Q 1338 3394 1891 3394 
Q 2197 3394 2470 3270 
Q 2744 3147 2920 2923 
Q 3097 2700 3197 2384 
Q 3297 2069 3297 1709 
Q 3297 856 2875 390 
Q 2453 -75 1863 -75 
Q 1275 -75 941 416 
L 941 0 
z
M 934 1684 
Q 934 1088 1097 822 
Q 1363 388 1816 388 
Q 2184 388 2453 708 
Q 2722 1028 2722 1663 
Q 2722 2313 2464 2622 
Q 2206 2931 1841 2931 
Q 1472 2931 1203 2611 
Q 934 2291 934 1684 
z
" transform="scale(0.015625)"/>
       <path id="ArialMT-73" d="M 197 991 
L 753 1078 
Q 800 744 1014 566 
Q 1228 388 1613 388 
Q 2000 388 2187 545 
Q 2375 703 2375 916 
Q 2375 1106 2209 1216 
Q 2094 1291 1634 1406 
Q 1016 1563 777 1677 
Q 538 1791 414 1992 
Q 291 2194 291 2438 
Q 291 2659 392 2848 
Q 494 3038 669 3163 
Q 800 3259 1026 3326 
Q 1253 3394 1513 3394 
Q 1903 3394 2198 3281 
Q 2494 3169 2634 2976 
Q 2775 2784 2828 2463 
L 2278 2388 
Q 2241 2644 2061 2787 
Q 1881 2931 1553 2931 
Q 1166 2931 1000 2803 
Q 834 2675 834 2503 
Q 834 2394 903 2306 
Q 972 2216 1119 2156 
Q 1203 2125 1616 2013 
Q 2213 1853 2448 1751 
Q 2684 1650 2818 1456 
Q 2953 1263 2953 975 
Q 2953 694 2789 445 
Q 2625 197 2315 61 
Q 2006 -75 1616 -75 
Q 969 -75 630 194 
Q 291 463 197 991 
z
" transform="scale(0.015625)"/>
       <path id="ArialMT-29" d="M 791 -1347 
L 388 -1347 
Q 1322 153 1322 1656 
Q 1322 2244 1188 2822 
Q 1081 3291 891 3722 
Q 769 4003 388 4659 
L 791 4659 
Q 1378 3875 1659 3084 
Q 1900 2403 1900 1659 
Q 1900 816 1576 28 
Q 1253 -759 791 -1347 
z
" transform="scale(0.015625)"/>
      </defs>
      <use xlink:href="#ArialMT-69"/>
      <use xlink:href="#ArialMT-6e" x="22.216797"/>
      <use xlink:href="#ArialMT-66" x="77.832031"/>
      <use xlink:href="#ArialMT-6f" x="105.615234"/>
      <use xlink:href="#ArialMT-72" x="161.230469"/>
      <use xlink:href="#ArialMT-6d" x="194.53125"/>
      <use xlink:href="#ArialMT-61" x="277.832031"/>
      <use xlink:href="#ArialMT-74" x="333.447266"/>
      <use xlink:href="#ArialMT-69" x="361.230469"/>
      <use xlink:href="#ArialMT-6f" x="383.447266"/>
      <use xlink:href="#ArialMT-6e" x="439.0625"/>
      <use xlink:href="#ArialMT-20" x="494.677734"/>
      <use xlink:href="#ArialMT-28" x="522.460938"/>
      <use xlink:href="#ArialMT-62" x="555.761719"/>
      <use xlink:href="#ArialMT-69" x="611.376953"/>
      <use xlink:href="#ArialMT-74" x="633.59375"/>
      <use xlink:href="#ArialMT-73" x="661.376953"/>
      <use xlink:href="#ArialMT-29" x="711.376953"/>
     </g>
    </g>
   </g>
   <g id="line2d_17">
    <path d="M 369 384.48 
L 369 51.84 
" clip-path="url(#p2c1990d210)" style="fill: none; stroke: #daa520; stroke-width: 2; stroke-linecap: round"/>
   </g>
   <g id="patch_78">
    <path d="M 90 384.48 
L 648 384.48 
" style="fill: none; stroke: #262626; stroke-linejoin: miter; stroke-linecap: square"/>
   </g>
   <g id="patch_79">
    <path d="M 90 51.84 
L 648 51.84 
" style="fill: none; stroke: #262626; stroke-linejoin: miter; stroke-linecap: square"/>
   </g>
   <g id="text_17">
    <!-- Ctrl vs. MMP9 information content, Shannon n=20 -->
    <g style="fill: #262626" transform="translate(262.6845 45.84) scale(0.096 -0.096)">
     <defs>
      <path id="ArialMT-43" d="M 3763 1606 
L 4369 1453 
Q 4178 706 3683 314 
Q 3188 -78 2472 -78 
Q 1731 -78 1267 223 
Q 803 525 561 1097 
Q 319 1669 319 2325 
Q 319 3041 592 3573 
Q 866 4106 1370 4382 
Q 1875 4659 2481 4659 
Q 3169 4659 3637 4309 
Q 4106 3959 4291 3325 
L 3694 3184 
Q 3534 3684 3231 3912 
Q 2928 4141 2469 4141 
Q 1941 4141 1586 3887 
Q 1231 3634 1087 3207 
Q 944 2781 944 2328 
Q 944 1744 1114 1308 
Q 1284 872 1643 656 
Q 2003 441 2422 441 
Q 2931 441 3284 734 
Q 3638 1028 3763 1606 
z
" transform="scale(0.015625)"/>
      <path id="ArialMT-6c" d="M 409 0 
L 409 4581 
L 972 4581 
L 972 0 
L 409 0 
z
" transform="scale(0.015625)"/>
      <path id="ArialMT-76" d="M 1344 0 
L 81 3319 
L 675 3319 
L 1388 1331 
Q 1503 1009 1600 663 
Q 1675 925 1809 1294 
L 2547 3319 
L 3125 3319 
L 1869 0 
L 1344 0 
z
" transform="scale(0.015625)"/>
      <path id="ArialMT-4d" d="M 475 0 
L 475 4581 
L 1388 4581 
L 2472 1338 
Q 2622 884 2691 659 
Q 2769 909 2934 1394 
L 4031 4581 
L 4847 4581 
L 4847 0 
L 4263 0 
L 4263 3834 
L 2931 0 
L 2384 0 
L 1059 3900 
L 1059 0 
L 475 0 
z
" transform="scale(0.015625)"/>
      <path id="ArialMT-39" d="M 350 1059 
L 891 1109 
Q 959 728 1153 556 
Q 1347 384 1650 384 
Q 1909 384 2104 503 
Q 2300 622 2425 820 
Q 2550 1019 2634 1356 
Q 2719 1694 2719 2044 
Q 2719 2081 2716 2156 
Q 2547 1888 2255 1720 
Q 1963 1553 1622 1553 
Q 1053 1553 659 1965 
Q 266 2378 266 3053 
Q 266 3750 677 4175 
Q 1088 4600 1706 4600 
Q 2153 4600 2523 4359 
Q 2894 4119 3086 3673 
Q 3278 3228 3278 2384 
Q 3278 1506 3087 986 
Q 2897 466 2520 194 
Q 2144 -78 1638 -78 
Q 1100 -78 759 220 
Q 419 519 350 1059 
z
M 2653 3081 
Q 2653 3566 2395 3850 
Q 2138 4134 1775 4134 
Q 1400 4134 1122 3828 
Q 844 3522 844 3034 
Q 844 2597 1108 2323 
Q 1372 2050 1759 2050 
Q 2150 2050 2401 2323 
Q 2653 2597 2653 3081 
z
" transform="scale(0.015625)"/>
      <path id="ArialMT-63" d="M 2588 1216 
L 3141 1144 
Q 3050 572 2676 248 
Q 2303 -75 1759 -75 
Q 1078 -75 664 370 
Q 250 816 250 1647 
Q 250 2184 428 2587 
Q 606 2991 970 3192 
Q 1334 3394 1763 3394 
Q 2303 3394 2647 3120 
Q 2991 2847 3088 2344 
L 2541 2259 
Q 2463 2594 2264 2762 
Q 2066 2931 1784 2931 
Q 1359 2931 1093 2626 
Q 828 2322 828 1663 
Q 828 994 1084 691 
Q 1341 388 1753 388 
Q 2084 388 2306 591 
Q 2528 794 2588 1216 
z
" transform="scale(0.015625)"/>
      <path id="ArialMT-65" d="M 2694 1069 
L 3275 997 
Q 3138 488 2766 206 
Q 2394 -75 1816 -75 
Q 1088 -75 661 373 
Q 234 822 234 1631 
Q 234 2469 665 2931 
Q 1097 3394 1784 3394 
Q 2450 3394 2872 2941 
Q 3294 2488 3294 1666 
Q 3294 1616 3291 1516 
L 816 1516 
Q 847 969 1125 678 
Q 1403 388 1819 388 
Q 2128 388 2347 550 
Q 2566 713 2694 1069 
z
M 847 1978 
L 2700 1978 
Q 2663 2397 2488 2606 
Q 2219 2931 1791 2931 
Q 1403 2931 1139 2672 
Q 875 2413 847 1978 
z
" transform="scale(0.015625)"/>
      <path id="ArialMT-2c" d="M 569 0 
L 569 641 
L 1209 641 
L 1209 0 
Q 1209 -353 1084 -570 
Q 959 -788 688 -906 
L 531 -666 
Q 709 -588 793 -436 
Q 878 -284 888 0 
L 569 0 
z
" transform="scale(0.015625)"/>
      <path id="ArialMT-53" d="M 288 1472 
L 859 1522 
Q 900 1178 1048 958 
Q 1197 738 1509 602 
Q 1822 466 2213 466 
Q 2559 466 2825 569 
Q 3091 672 3220 851 
Q 3350 1031 3350 1244 
Q 3350 1459 3225 1620 
Q 3100 1781 2813 1891 
Q 2628 1963 1997 2114 
Q 1366 2266 1113 2400 
Q 784 2572 623 2826 
Q 463 3081 463 3397 
Q 463 3744 659 4045 
Q 856 4347 1234 4503 
Q 1613 4659 2075 4659 
Q 2584 4659 2973 4495 
Q 3363 4331 3572 4012 
Q 3781 3694 3797 3291 
L 3216 3247 
Q 3169 3681 2898 3903 
Q 2628 4125 2100 4125 
Q 1550 4125 1298 3923 
Q 1047 3722 1047 3438 
Q 1047 3191 1225 3031 
Q 1400 2872 2139 2705 
Q 2878 2538 3153 2413 
Q 3553 2228 3743 1945 
Q 3934 1663 3934 1294 
Q 3934 928 3725 604 
Q 3516 281 3123 101 
Q 2731 -78 2241 -78 
Q 1619 -78 1198 103 
Q 778 284 539 648 
Q 300 1013 288 1472 
z
" transform="scale(0.015625)"/>
      <path id="ArialMT-68" d="M 422 0 
L 422 4581 
L 984 4581 
L 984 2938 
Q 1378 3394 1978 3394 
Q 2347 3394 2619 3248 
Q 2891 3103 3008 2847 
Q 3125 2591 3125 2103 
L 3125 0 
L 2563 0 
L 2563 2103 
Q 2563 2525 2380 2717 
Q 2197 2909 1863 2909 
Q 1613 2909 1392 2779 
Q 1172 2650 1078 2428 
Q 984 2206 984 1816 
L 984 0 
L 422 0 
z
" transform="scale(0.015625)"/>
      <path id="ArialMT-3d" d="M 3381 2694 
L 356 2694 
L 356 3219 
L 3381 3219 
L 3381 2694 
z
M 3381 1303 
L 356 1303 
L 356 1828 
L 3381 1828 
L 3381 1303 
z
" transform="scale(0.015625)"/>
     </defs>
     <use xlink:href="#ArialMT-43"/>
     <use xlink:href="#ArialMT-74" x="72.216797"/>
     <use xlink:href="#ArialMT-72" x="100"/>
     <use xlink:href="#ArialMT-6c" x="133.300781"/>
     <use xlink:href="#ArialMT-20" x="155.517578"/>
     <use xlink:href="#ArialMT-76" x="183.300781"/>
     <use xlink:href="#ArialMT-73" x="233.300781"/>
     <use xlink:href="#ArialMT-2e" x="283.300781"/>
     <use xlink:href="#ArialMT-20" x="311.083984"/>
     <use xlink:href="#ArialMT-4d" x="338.867188"/>
     <use xlink:href="#ArialMT-4d" x="422.167969"/>
     <use xlink:href="#ArialMT-50" x="505.46875"/>
     <use xlink:href="#ArialMT-39" x="572.167969"/>
     <use xlink:href="#ArialMT-20" x="627.783203"/>
     <use xlink:href="#ArialMT-69" x="655.566406"/>
     <use xlink:href="#ArialMT-6e" x="677.783203"/>
     <use xlink:href="#ArialMT-66" x="733.398438"/>
     <use xlink:href="#ArialMT-6f" x="761.181641"/>
     <use xlink:href="#ArialMT-72" x="816.796875"/>
     <use xlink:href="#ArialMT-6d" x="850.097656"/>
     <use xlink:href="#ArialMT-61" x="933.398438"/>
     <use xlink:href="#ArialMT-74" x="989.013672"/>
     <use xlink:href="#ArialMT-69" x="1016.796875"/>
     <use xlink:href="#ArialMT-6f" x="1039.013672"/>
     <use xlink:href="#ArialMT-6e" x="1094.628906"/>
     <use xlink:href="#ArialMT-20" x="1150.244141"/>
     <use xlink:href="#ArialMT-63" x="1178.027344"/>
     <use xlink:href="#ArialMT-6f" x="1228.027344"/>
     <use xlink:href="#ArialMT-6e" x="1283.642578"/>
     <use xlink:href="#ArialMT-74" x="1339.257812"/>
     <use xlink:href="#ArialMT-65" x="1367.041016"/>
     <use xlink:href="#ArialMT-6e" x="1422.65625"/>
     <use xlink:href="#ArialMT-74" x="1478.271484"/>
     <use xlink:href="#ArialMT-2c" x="1506.054688"/>
     <use xlink:href="#ArialMT-20" x="1533.837891"/>
     <use xlink:href="#ArialMT-53" x="1561.621094"/>
     <use xlink:href="#ArialMT-68" x="1628.320312"/>
     <use xlink:href="#ArialMT-61" x="1683.935547"/>
     <use xlink:href="#ArialMT-6e" x="1739.550781"/>
     <use xlink:href="#ArialMT-6e" x="1795.166016"/>
     <use xlink:href="#ArialMT-6f" x="1850.78125"/>
     <use xlink:href="#ArialMT-6e" x="1906.396484"/>
     <use xlink:href="#ArialMT-20" x="1962.011719"/>
     <use xlink:href="#ArialMT-6e" x="1989.794922"/>
     <use xlink:href="#ArialMT-3d" x="2045.410156"/>
     <use xlink:href="#ArialMT-32" x="2103.808594"/>
     <use xlink:href="#ArialMT-30" x="2159.423828"/>
    </g>
   </g>
  </g>
 </g>
 <defs>
  <clipPath id="p2c1990d210">
   <rect x="90" y="51.84" width="558" height="332.64"/>
  </clipPath>
 </defs>
</svg>
