<?xml version="1.0" encoding="utf-8" standalone="no"?>
<!DOCTYPE svg PUBLIC "-//W3C//DTD SVG 1.1//EN"
  "http://www.w3.org/Graphics/SVG/1.1/DTD/svg11.dtd">
<svg xmlns:xlink="http://www.w3.org/1999/xlink" width="460.8pt" height="345.6pt" viewBox="0 0 460.8 345.6" xmlns="http://www.w3.org/2000/svg" version="1.1">
 <metadata>
  <rdf:RDF xmlns:dc="http://purl.org/dc/elements/1.1/" xmlns:cc="http://creativecommons.org/ns#" xmlns:rdf="http://www.w3.org/1999/02/22-rdf-syntax-ns#">
   <cc:Work>
    <dc:type rdf:resource="http://purl.org/dc/dcmitype/StillImage"/>
    <dc:date>2023-08-03T14:26:26.810334</dc:date>
    <dc:format>image/svg+xml</dc:format>
    <dc:creator>
     <cc:Agent>
      <dc:title>Matplotlib v3.7.1, https://matplotlib.org/</dc:title>
     </cc:Agent>
    </dc:creator>
   </cc:Work>
  </rdf:RDF>
 </metadata>
 <defs>
  <style type="text/css">*{stroke-linejoin: round; stroke-linecap: butt}</style>
 </defs>
 <g id="figure_1">
  <g id="patch_1">
   <path d="M 0 345.6 
L 460.8 345.6 
L 460.8 0 
L 0 0 
z
" style="fill: #ffffff"/>
  </g>
  <g id="axes_1">
   <g id="patch_2">
    <path d="M 57.6 307.584 
L 414.72 307.584 
L 414.72 41.472 
L 57.6 41.472 
z
" style="fill: #ffffff"/>
   </g>
   <g id="PathCollection_1">
    <defs>
     <path id="C0_0_6590b05ebf" d="M 0 3 
C 0.795609 3 1.55874 2.683901 2.12132 2.12132 
C 2.683901 1.55874 3 0.795609 3 -0 
C 3 -0.795609 2.683901 -1.55874 2.12132 -2.12132 
C 1.55874 -2.683901 0.795609 -3 0 -3 
C -0.795609 -3 -1.55874 -2.683901 -2.12132 -2.12132 
C -2.683901 -1.55874 -3 -0.795609 -3 0 
C -3 0.795609 -2.683901 1.55874 -2.12132 2.12132 
C -1.55874 2.683901 -0.795609 3 0 3 
z
"/>
    </defs>
    <g clip-path="url(#p5192b1249a)">
     <use xlink:href="#C0_0_6590b05ebf" x="147.969356" y="230.766359" style="fill: #808080; stroke: #ffffff; stroke-width: 0.48"/>
    </g>
    <g clip-path="url(#p5192b1249a)">
     <use xlink:href="#C0_0_6590b05ebf" x="270.549582" y="294.164319" style="fill: #808080; stroke: #ffffff; stroke-width: 0.48"/>
    </g>
    <g clip-path="url(#p5192b1249a)">
     <use xlink:href="#C0_0_6590b05ebf" x="156.318583" y="173.678715" style="fill: #808080; stroke: #ffffff; stroke-width: 0.48"/>
    </g>
    <g clip-path="url(#p5192b1249a)">
     <use xlink:href="#C0_0_6590b05ebf" x="298.894875" y="221.526188" style="fill: #808080; stroke: #ffffff; stroke-width: 0.48"/>
    </g>
    <g clip-path="url(#p5192b1249a)">
     <use xlink:href="#C0_0_6590b05ebf" x="292.242388" y="212.740399" style="fill: #808080; stroke: #ffffff; stroke-width: 0.48"/>
    </g>
    <g clip-path="url(#p5192b1249a)">
     <use xlink:href="#C0_0_6590b05ebf" x="304.319834" y="146.786827" style="fill: #808080; stroke: #ffffff; stroke-width: 0.48"/>
    </g>
    <g clip-path="url(#p5192b1249a)">
     <use xlink:href="#C0_0_6590b05ebf" x="243.359771" y="217.158221" style="fill: #808080; stroke: #ffffff; stroke-width: 0.48"/>
    </g>
    <g clip-path="url(#p5192b1249a)">
     <use xlink:href="#C0_0_6590b05ebf" x="228.709876" y="156.709224" style="fill: #808080; stroke: #ffffff; stroke-width: 0.48"/>
    </g>
    <g clip-path="url(#p5192b1249a)">
     <use xlink:href="#C0_0_6590b05ebf" x="245.684142" y="294.977489" style="fill: #808080; stroke: #ffffff; stroke-width: 0.48"/>
    </g>
    <g clip-path="url(#p5192b1249a)">
     <use xlink:href="#C0_0_6590b05ebf" x="240.171155" y="253.684106" style="fill: #808080; stroke: #ffffff; stroke-width: 0.48"/>
    </g>
    <g clip-path="url(#p5192b1249a)">
     <use xlink:href="#C0_0_6590b05ebf" x="226.379634" y="145.505147" style="fill: #808080; stroke: #ffffff; stroke-width: 0.48"/>
    </g>
    <g clip-path="url(#p5192b1249a)">
     <use xlink:href="#C0_0_6590b05ebf" x="284.775481" y="285.032402" style="fill: #808080; stroke: #ffffff; stroke-width: 0.48"/>
    </g>
    <g clip-path="url(#p5192b1249a)">
     <use xlink:href="#C0_0_6590b05ebf" x="150.413872" y="204.399443" style="fill: #808080; stroke: #ffffff; stroke-width: 0.48"/>
    </g>
    <g clip-path="url(#p5192b1249a)">
     <use xlink:href="#C0_0_6590b05ebf" x="318.283536" y="197.975504" style="fill: #808080; stroke: #ffffff; stroke-width: 0.48"/>
    </g>
    <g clip-path="url(#p5192b1249a)">
     <use xlink:href="#C0_0_6590b05ebf" x="264.387209" y="257.38618" style="fill: #808080; stroke: #ffffff; stroke-width: 0.48"/>
    </g>
    <g clip-path="url(#p5192b1249a)">
     <use xlink:href="#C0_0_6590b05ebf" x="255.889663" y="284.691626" style="fill: #808080; stroke: #ffffff; stroke-width: 0.48"/>
    </g>
    <g clip-path="url(#p5192b1249a)">
     <use xlink:href="#C0_0_6590b05ebf" x="249.024662" y="244.593515" style="fill: #808080; stroke: #ffffff; stroke-width: 0.48"/>
    </g>
    <g clip-path="url(#p5192b1249a)">
     <use xlink:href="#C0_0_6590b05ebf" x="250.519627" y="254.628847" style="fill: #808080; stroke: #ffffff; stroke-width: 0.48"/>
    </g>
    <g clip-path="url(#p5192b1249a)">
     <use xlink:href="#C0_0_6590b05ebf" x="244.791809" y="292.250844" style="fill: #808080; stroke: #ffffff; stroke-width: 0.48"/>
    </g>
    <g clip-path="url(#p5192b1249a)">
     <use xlink:href="#C0_0_6590b05ebf" x="251.470555" y="83.864365" style="fill: #808080; stroke: #ffffff; stroke-width: 0.48"/>
    </g>
    <g clip-path="url(#p5192b1249a)">
     <use xlink:href="#C0_0_6590b05ebf" x="273.027492" y="259.093574" style="fill: #808080; stroke: #ffffff; stroke-width: 0.48"/>
    </g>
    <g clip-path="url(#p5192b1249a)">
     <use xlink:href="#C0_0_6590b05ebf" x="258.296597" y="242.156902" style="fill: #808080; stroke: #ffffff; stroke-width: 0.48"/>
    </g>
    <g clip-path="url(#p5192b1249a)">
     <use xlink:href="#C0_0_6590b05ebf" x="288.541081" y="259.105138" style="fill: #808080; stroke: #ffffff; stroke-width: 0.48"/>
    </g>
    <g clip-path="url(#p5192b1249a)">
     <use xlink:href="#C0_0_6590b05ebf" x="295.713498" y="186.001656" style="fill: #808080; stroke: #ffffff; stroke-width: 0.48"/>
    </g>
    <g clip-path="url(#p5192b1249a)">
     <use xlink:href="#C0_0_6590b05ebf" x="245.548607" y="202.205747" style="fill: #808080; stroke: #ffffff; stroke-width: 0.48"/>
    </g>
    <g clip-path="url(#p5192b1249a)">
     <use xlink:href="#C0_0_6590b05ebf" x="280.747372" y="280.989105" style="fill: #808080; stroke: #ffffff; stroke-width: 0.48"/>
    </g>
    <g clip-path="url(#p5192b1249a)">
     <use xlink:href="#C0_0_6590b05ebf" x="239.821057" y="260.33072" style="fill: #808080; stroke: #ffffff; stroke-width: 0.48"/>
    </g>
    <g clip-path="url(#p5192b1249a)">
     <use xlink:href="#C0_0_6590b05ebf" x="257.148533" y="257.178478" style="fill: #808080; stroke: #ffffff; stroke-width: 0.48"/>
    </g>
    <g clip-path="url(#p5192b1249a)">
     <use xlink:href="#C0_0_6590b05ebf" x="256.851999" y="251.779138" style="fill: #808080; stroke: #ffffff; stroke-width: 0.48"/>
    </g>
    <g clip-path="url(#p5192b1249a)">
     <use xlink:href="#C0_0_6590b05ebf" x="313.028868" y="222.518954" style="fill: #808080; stroke: #ffffff; stroke-width: 0.48"/>
    </g>
    <g clip-path="url(#p5192b1249a)">
     <use xlink:href="#C0_0_6590b05ebf" x="270.79451" y="271.884645" style="fill: #808080; stroke: #ffffff; stroke-width: 0.48"/>
    </g>
    <g clip-path="url(#p5192b1249a)">
     <use xlink:href="#C0_0_6590b05ebf" x="270.106036" y="279.292245" style="fill: #808080; stroke: #ffffff; stroke-width: 0.48"/>
    </g>
    <g clip-path="url(#p5192b1249a)">
     <use xlink:href="#C0_0_6590b05ebf" x="88.589752" y="238.016478" style="fill: #808080; stroke: #ffffff; stroke-width: 0.48"/>
    </g>
    <g clip-path="url(#p5192b1249a)">
     <use xlink:href="#C0_0_6590b05ebf" x="264.23855" y="286.231454" style="fill: #808080; stroke: #ffffff; stroke-width: 0.48"/>
    </g>
    <g clip-path="url(#p5192b1249a)">
     <use xlink:href="#C0_0_6590b05ebf" x="257.066276" y="248.015022" style="fill: #808080; stroke: #ffffff; stroke-width: 0.48"/>
    </g>
    <g clip-path="url(#p5192b1249a)">
     <use xlink:href="#C0_0_6590b05ebf" x="251.83243" y="204.531927" style="fill: #808080; stroke: #ffffff; stroke-width: 0.48"/>
    </g>
    <g clip-path="url(#p5192b1249a)">
     <use xlink:href="#C0_0_6590b05ebf" x="254.559264" y="288.985565" style="fill: #808080; stroke: #ffffff; stroke-width: 0.48"/>
    </g>
    <g clip-path="url(#p5192b1249a)">
     <use xlink:href="#C0_0_6590b05ebf" x="220.293356" y="212.341693" style="fill: #808080; stroke: #ffffff; stroke-width: 0.48"/>
    </g>
    <g clip-path="url(#p5192b1249a)">
     <use xlink:href="#C0_0_6590b05ebf" x="136.173194" y="243.705085" style="fill: #808080; stroke: #ffffff; stroke-width: 0.48"/>
    </g>
    <g clip-path="url(#p5192b1249a)">
     <use xlink:href="#C0_0_6590b05ebf" x="273.779782" y="270.304373" style="fill: #808080; stroke: #ffffff; stroke-width: 0.48"/>
    </g>
    <g clip-path="url(#p5192b1249a)">
     <use xlink:href="#C0_0_6590b05ebf" x="342.171881" y="292.445981" style="fill: #808080; stroke: #ffffff; stroke-width: 0.48"/>
    </g>
    <g clip-path="url(#p5192b1249a)">
     <use xlink:href="#C0_0_6590b05ebf" x="250.664029" y="217.947419" style="fill: #808080; stroke: #ffffff; stroke-width: 0.48"/>
    </g>
    <g clip-path="url(#p5192b1249a)">
     <use xlink:href="#C0_0_6590b05ebf" x="263.662678" y="240.375713" style="fill: #808080; stroke: #ffffff; stroke-width: 0.48"/>
    </g>
    <g clip-path="url(#p5192b1249a)">
     <use xlink:href="#C0_0_6590b05ebf" x="273.978851" y="280.227119" style="fill: #808080; stroke: #ffffff; stroke-width: 0.48"/>
    </g>
    <g clip-path="url(#p5192b1249a)">
     <use xlink:href="#C0_0_6590b05ebf" x="383.730248" y="196.501276" style="fill: #808080; stroke: #ffffff; stroke-width: 0.48"/>
    </g>
    <g clip-path="url(#p5192b1249a)">
     <use xlink:href="#C0_0_6590b05ebf" x="246.070361" y="220.435056" style="fill: #808080; stroke: #ffffff; stroke-width: 0.48"/>
    </g>
    <g clip-path="url(#p5192b1249a)">
     <use xlink:href="#C0_0_6590b05ebf" x="267.397209" y="289.462933" style="fill: #808080; stroke: #ffffff; stroke-width: 0.48"/>
    </g>
    <g clip-path="url(#p5192b1249a)">
     <use xlink:href="#C0_0_6590b05ebf" x="361.534179" y="213.853939" style="fill: #808080; stroke: #ffffff; stroke-width: 0.48"/>
    </g>
    <g clip-path="url(#p5192b1249a)">
     <use xlink:href="#C0_0_6590b05ebf" x="241.91587" y="123.63336" style="fill: #dc143c; stroke: #ffffff; stroke-width: 0.48"/>
    </g>
    <g clip-path="url(#p5192b1249a)">
     <use xlink:href="#C0_0_6590b05ebf" x="226.601322" y="65.06369" style="fill: #dc143c; stroke: #ffffff; stroke-width: 0.48"/>
    </g>
    <g clip-path="url(#p5192b1249a)">
     <use xlink:href="#C0_0_6590b05ebf" x="292.757735" y="101.763002" style="fill: #dc143c; stroke: #ffffff; stroke-width: 0.48"/>
    </g>
   </g>
   <g id="PathCollection_2"/>
   <g id="PathCollection_3"/>
   <g id="matplotlib.axis_1">
    <g id="xtick_1">
     <g id="line2d_1">
      <defs>
       <path id="m2f331ace89" d="M 0 0 
L 0 3.5 
" style="stroke: #000000; stroke-width: 0.8"/>
      </defs>
      <g>
       <use xlink:href="#m2f331ace89" x="118.444965" y="307.584" style="stroke: #000000; stroke-width: 0.8"/>
      </g>
     </g>
     <g id="text_1">
      <!-- −10 -->
      <g transform="translate(109.963715 321.741812) scale(0.1 -0.1)">
       <defs>
        <path id="ArialMT-2212" d="M 3381 1997 
L 356 1997 
L 356 2522 
L 3381 2522 
L 3381 1997 
z
" transform="scale(0.015625)"/>
        <path id="ArialMT-31" d="M 2384 0 
L 1822 0 
L 1822 3584 
Q 1619 3391 1289 3197 
Q 959 3003 697 2906 
L 697 3450 
Q 1169 3672 1522 3987 
Q 1875 4303 2022 4600 
L 2384 4600 
L 2384 0 
z
" transform="scale(0.015625)"/>
        <path id="ArialMT-30" d="M 266 2259 
Q 266 3072 433 3567 
Q 600 4063 929 4331 
Q 1259 4600 1759 4600 
Q 2128 4600 2406 4451 
Q 2684 4303 2865 4023 
Q 3047 3744 3150 3342 
Q 3253 2941 3253 2259 
Q 3253 1453 3087 958 
Q 2922 463 2592 192 
Q 2263 -78 1759 -78 
Q 1097 -78 719 397 
Q 266 969 266 2259 
z
M 844 2259 
Q 844 1131 1108 757 
Q 1372 384 1759 384 
Q 2147 384 2411 759 
Q 2675 1134 2675 2259 
Q 2675 3391 2411 3762 
Q 2147 4134 1753 4134 
Q 1366 4134 1134 3806 
Q 844 3388 844 2259 
z
" transform="scale(0.015625)"/>
       </defs>
       <use xlink:href="#ArialMT-2212"/>
       <use xlink:href="#ArialMT-31" x="58.398438"/>
       <use xlink:href="#ArialMT-30" x="114.013672"/>
      </g>
     </g>
    </g>
    <g id="xtick_2">
     <g id="line2d_2">
      <g>
       <use xlink:href="#m2f331ace89" x="191.777156" y="307.584" style="stroke: #000000; stroke-width: 0.8"/>
      </g>
     </g>
     <g id="text_2">
      <!-- −5 -->
      <g transform="translate(186.076375 321.741812) scale(0.1 -0.1)">
       <defs>
        <path id="ArialMT-35" d="M 266 1200 
L 856 1250 
Q 922 819 1161 601 
Q 1400 384 1738 384 
Q 2144 384 2425 690 
Q 2706 997 2706 1503 
Q 2706 1984 2436 2262 
Q 2166 2541 1728 2541 
Q 1456 2541 1237 2417 
Q 1019 2294 894 2097 
L 366 2166 
L 809 4519 
L 3088 4519 
L 3088 3981 
L 1259 3981 
L 1013 2750 
Q 1425 3038 1878 3038 
Q 2478 3038 2890 2622 
Q 3303 2206 3303 1553 
Q 3303 931 2941 478 
Q 2500 -78 1738 -78 
Q 1113 -78 717 272 
Q 322 622 266 1200 
z
" transform="scale(0.015625)"/>
       </defs>
       <use xlink:href="#ArialMT-2212"/>
       <use xlink:href="#ArialMT-35" x="58.398438"/>
      </g>
     </g>
    </g>
    <g id="xtick_3">
     <g id="line2d_3">
      <g>
       <use xlink:href="#m2f331ace89" x="265.109347" y="307.584" style="stroke: #000000; stroke-width: 0.8"/>
      </g>
     </g>
     <g id="text_3">
      <!-- 0 -->
      <g transform="translate(262.328879 321.741812) scale(0.1 -0.1)">
       <use xlink:href="#ArialMT-30"/>
      </g>
     </g>
    </g>
    <g id="xtick_4">
     <g id="line2d_4">
      <g>
       <use xlink:href="#m2f331ace89" x="338.441538" y="307.584" style="stroke: #000000; stroke-width: 0.8"/>
      </g>
     </g>
     <g id="text_4">
      <!-- 5 -->
      <g transform="translate(335.66107 321.741812) scale(0.1 -0.1)">
       <use xlink:href="#ArialMT-35"/>
      </g>
     </g>
    </g>
    <g id="xtick_5">
     <g id="line2d_5">
      <g>
       <use xlink:href="#m2f331ace89" x="411.773729" y="307.584" style="stroke: #000000; stroke-width: 0.8"/>
      </g>
     </g>
     <g id="text_5">
      <!-- 10 -->
      <g transform="translate(406.212792 321.741812) scale(0.1 -0.1)">
       <use xlink:href="#ArialMT-31"/>
       <use xlink:href="#ArialMT-30" x="55.615234"/>
      </g>
     </g>
    </g>
    <g id="text_6">
     <!-- Log2 fold change: KO_untreated vs. WT_untreated -->
     <g transform="translate(123.04125 335.01525) scale(0.1 -0.1)">
      <defs>
       <path id="ArialMT-4c" d="M 469 0 
L 469 4581 
L 1075 4581 
L 1075 541 
L 3331 541 
L 3331 0 
L 469 0 
z
" transform="scale(0.015625)"/>
       <path id="ArialMT-6f" d="M 213 1659 
Q 213 2581 725 3025 
Q 1153 3394 1769 3394 
Q 2453 3394 2887 2945 
Q 3322 2497 3322 1706 
Q 3322 1066 3130 698 
Q 2938 331 2570 128 
Q 2203 -75 1769 -75 
Q 1072 -75 642 372 
Q 213 819 213 1659 
z
M 791 1659 
Q 791 1022 1069 705 
Q 1347 388 1769 388 
Q 2188 388 2466 706 
Q 2744 1025 2744 1678 
Q 2744 2294 2464 2611 
Q 2184 2928 1769 2928 
Q 1347 2928 1069 2612 
Q 791 2297 791 1659 
z
" transform="scale(0.015625)"/>
       <path id="ArialMT-67" d="M 319 -275 
L 866 -356 
Q 900 -609 1056 -725 
Q 1266 -881 1628 -881 
Q 2019 -881 2231 -725 
Q 2444 -569 2519 -288 
Q 2563 -116 2559 434 
Q 2191 0 1641 0 
Q 956 0 581 494 
Q 206 988 206 1678 
Q 206 2153 378 2554 
Q 550 2956 876 3175 
Q 1203 3394 1644 3394 
Q 2231 3394 2613 2919 
L 2613 3319 
L 3131 3319 
L 3131 450 
Q 3131 -325 2973 -648 
Q 2816 -972 2473 -1159 
Q 2131 -1347 1631 -1347 
Q 1038 -1347 672 -1080 
Q 306 -813 319 -275 
z
M 784 1719 
Q 784 1066 1043 766 
Q 1303 466 1694 466 
Q 2081 466 2343 764 
Q 2606 1063 2606 1700 
Q 2606 2309 2336 2618 
Q 2066 2928 1684 2928 
Q 1309 2928 1046 2623 
Q 784 2319 784 1719 
z
" transform="scale(0.015625)"/>
       <path id="ArialMT-32" d="M 3222 541 
L 3222 0 
L 194 0 
Q 188 203 259 391 
Q 375 700 629 1000 
Q 884 1300 1366 1694 
Q 2113 2306 2375 2664 
Q 2638 3022 2638 3341 
Q 2638 3675 2398 3904 
Q 2159 4134 1775 4134 
Q 1369 4134 1125 3890 
Q 881 3647 878 3216 
L 300 3275 
Q 359 3922 746 4261 
Q 1134 4600 1788 4600 
Q 2447 4600 2831 4234 
Q 3216 3869 3216 3328 
Q 3216 3053 3103 2787 
Q 2991 2522 2730 2228 
Q 2469 1934 1863 1422 
Q 1356 997 1212 845 
Q 1069 694 975 541 
L 3222 541 
z
" transform="scale(0.015625)"/>
       <path id="ArialMT-20" transform="scale(0.015625)"/>
       <path id="ArialMT-66" d="M 556 0 
L 556 2881 
L 59 2881 
L 59 3319 
L 556 3319 
L 556 3672 
Q 556 4006 616 4169 
Q 697 4388 901 4523 
Q 1106 4659 1475 4659 
Q 1713 4659 2000 4603 
L 1916 4113 
Q 1741 4144 1584 4144 
Q 1328 4144 1222 4034 
Q 1116 3925 1116 3625 
L 1116 3319 
L 1763 3319 
L 1763 2881 
L 1116 2881 
L 1116 0 
L 556 0 
z
" transform="scale(0.015625)"/>
       <path id="ArialMT-6c" d="M 409 0 
L 409 4581 
L 972 4581 
L 972 0 
L 409 0 
z
" transform="scale(0.015625)"/>
       <path id="ArialMT-64" d="M 2575 0 
L 2575 419 
Q 2259 -75 1647 -75 
Q 1250 -75 917 144 
Q 584 363 401 755 
Q 219 1147 219 1656 
Q 219 2153 384 2558 
Q 550 2963 881 3178 
Q 1213 3394 1622 3394 
Q 1922 3394 2156 3267 
Q 2391 3141 2538 2938 
L 2538 4581 
L 3097 4581 
L 3097 0 
L 2575 0 
z
M 797 1656 
Q 797 1019 1065 703 
Q 1334 388 1700 388 
Q 2069 388 2326 689 
Q 2584 991 2584 1609 
Q 2584 2291 2321 2609 
Q 2059 2928 1675 2928 
Q 1300 2928 1048 2622 
Q 797 2316 797 1656 
z
" transform="scale(0.015625)"/>
       <path id="ArialMT-63" d="M 2588 1216 
L 3141 1144 
Q 3050 572 2676 248 
Q 2303 -75 1759 -75 
Q 1078 -75 664 370 
Q 250 816 250 1647 
Q 250 2184 428 2587 
Q 606 2991 970 3192 
Q 1334 3394 1763 3394 
Q 2303 3394 2647 3120 
Q 2991 2847 3088 2344 
L 2541 2259 
Q 2463 2594 2264 2762 
Q 2066 2931 1784 2931 
Q 1359 2931 1093 2626 
Q 828 2322 828 1663 
Q 828 994 1084 691 
Q 1341 388 1753 388 
Q 2084 388 2306 591 
Q 2528 794 2588 1216 
z
" transform="scale(0.015625)"/>
       <path id="ArialMT-68" d="M 422 0 
L 422 4581 
L 984 4581 
L 984 2938 
Q 1378 3394 1978 3394 
Q 2347 3394 2619 3248 
Q 2891 3103 3008 2847 
Q 3125 2591 3125 2103 
L 3125 0 
L 2563 0 
L 2563 2103 
Q 2563 2525 2380 2717 
Q 2197 2909 1863 2909 
Q 1613 2909 1392 2779 
Q 1172 2650 1078 2428 
Q 984 2206 984 1816 
L 984 0 
L 422 0 
z
" transform="scale(0.015625)"/>
       <path id="ArialMT-61" d="M 2588 409 
Q 2275 144 1986 34 
Q 1697 -75 1366 -75 
Q 819 -75 525 192 
Q 231 459 231 875 
Q 231 1119 342 1320 
Q 453 1522 633 1644 
Q 813 1766 1038 1828 
Q 1203 1872 1538 1913 
Q 2219 1994 2541 2106 
Q 2544 2222 2544 2253 
Q 2544 2597 2384 2738 
Q 2169 2928 1744 2928 
Q 1347 2928 1158 2789 
Q 969 2650 878 2297 
L 328 2372 
Q 403 2725 575 2942 
Q 747 3159 1072 3276 
Q 1397 3394 1825 3394 
Q 2250 3394 2515 3294 
Q 2781 3194 2906 3042 
Q 3031 2891 3081 2659 
Q 3109 2516 3109 2141 
L 3109 1391 
Q 3109 606 3145 398 
Q 3181 191 3288 0 
L 2700 0 
Q 2613 175 2588 409 
z
M 2541 1666 
Q 2234 1541 1622 1453 
Q 1275 1403 1131 1340 
Q 988 1278 909 1158 
Q 831 1038 831 891 
Q 831 666 1001 516 
Q 1172 366 1500 366 
Q 1825 366 2078 508 
Q 2331 650 2450 897 
Q 2541 1088 2541 1459 
L 2541 1666 
z
" transform="scale(0.015625)"/>
       <path id="ArialMT-6e" d="M 422 0 
L 422 3319 
L 928 3319 
L 928 2847 
Q 1294 3394 1984 3394 
Q 2284 3394 2536 3286 
Q 2788 3178 2913 3003 
Q 3038 2828 3088 2588 
Q 3119 2431 3119 2041 
L 3119 0 
L 2556 0 
L 2556 2019 
Q 2556 2363 2490 2533 
Q 2425 2703 2258 2804 
Q 2091 2906 1866 2906 
Q 1506 2906 1245 2678 
Q 984 2450 984 1813 
L 984 0 
L 422 0 
z
" transform="scale(0.015625)"/>
       <path id="ArialMT-65" d="M 2694 1069 
L 3275 997 
Q 3138 488 2766 206 
Q 2394 -75 1816 -75 
Q 1088 -75 661 373 
Q 234 822 234 1631 
Q 234 2469 665 2931 
Q 1097 3394 1784 3394 
Q 2450 3394 2872 2941 
Q 3294 2488 3294 1666 
Q 3294 1616 3291 1516 
L 816 1516 
Q 847 969 1125 678 
Q 1403 388 1819 388 
Q 2128 388 2347 550 
Q 2566 713 2694 1069 
z
M 847 1978 
L 2700 1978 
Q 2663 2397 2488 2606 
Q 2219 2931 1791 2931 
Q 1403 2931 1139 2672 
Q 875 2413 847 1978 
z
" transform="scale(0.015625)"/>
       <path id="ArialMT-3a" d="M 578 2678 
L 578 3319 
L 1219 3319 
L 1219 2678 
L 578 2678 
z
M 578 0 
L 578 641 
L 1219 641 
L 1219 0 
L 578 0 
z
" transform="scale(0.015625)"/>
       <path id="ArialMT-4b" d="M 469 0 
L 469 4581 
L 1075 4581 
L 1075 2309 
L 3350 4581 
L 4172 4581 
L 2250 2725 
L 4256 0 
L 3456 0 
L 1825 2319 
L 1075 1588 
L 1075 0 
L 469 0 
z
" transform="scale(0.015625)"/>
       <path id="ArialMT-4f" d="M 309 2231 
Q 309 3372 921 4017 
Q 1534 4663 2503 4663 
Q 3138 4663 3647 4359 
Q 4156 4056 4423 3514 
Q 4691 2972 4691 2284 
Q 4691 1588 4409 1038 
Q 4128 488 3612 205 
Q 3097 -78 2500 -78 
Q 1853 -78 1343 234 
Q 834 547 571 1087 
Q 309 1628 309 2231 
z
M 934 2222 
Q 934 1394 1379 917 
Q 1825 441 2497 441 
Q 3181 441 3623 922 
Q 4066 1403 4066 2288 
Q 4066 2847 3877 3264 
Q 3688 3681 3323 3911 
Q 2959 4141 2506 4141 
Q 1863 4141 1398 3698 
Q 934 3256 934 2222 
z
" transform="scale(0.015625)"/>
       <path id="ArialMT-5f" d="M -97 -1272 
L -97 -866 
L 3631 -866 
L 3631 -1272 
L -97 -1272 
z
" transform="scale(0.015625)"/>
       <path id="ArialMT-75" d="M 2597 0 
L 2597 488 
Q 2209 -75 1544 -75 
Q 1250 -75 995 37 
Q 741 150 617 320 
Q 494 491 444 738 
Q 409 903 409 1263 
L 409 3319 
L 972 3319 
L 972 1478 
Q 972 1038 1006 884 
Q 1059 663 1231 536 
Q 1403 409 1656 409 
Q 1909 409 2131 539 
Q 2353 669 2445 892 
Q 2538 1116 2538 1541 
L 2538 3319 
L 3100 3319 
L 3100 0 
L 2597 0 
z
" transform="scale(0.015625)"/>
       <path id="ArialMT-74" d="M 1650 503 
L 1731 6 
Q 1494 -44 1306 -44 
Q 1000 -44 831 53 
Q 663 150 594 308 
Q 525 466 525 972 
L 525 2881 
L 113 2881 
L 113 3319 
L 525 3319 
L 525 4141 
L 1084 4478 
L 1084 3319 
L 1650 3319 
L 1650 2881 
L 1084 2881 
L 1084 941 
Q 1084 700 1114 631 
Q 1144 563 1211 522 
Q 1278 481 1403 481 
Q 1497 481 1650 503 
z
" transform="scale(0.015625)"/>
       <path id="ArialMT-72" d="M 416 0 
L 416 3319 
L 922 3319 
L 922 2816 
Q 1116 3169 1280 3281 
Q 1444 3394 1641 3394 
Q 1925 3394 2219 3213 
L 2025 2691 
Q 1819 2813 1613 2813 
Q 1428 2813 1281 2702 
Q 1134 2591 1072 2394 
Q 978 2094 978 1738 
L 978 0 
L 416 0 
z
" transform="scale(0.015625)"/>
       <path id="ArialMT-76" d="M 1344 0 
L 81 3319 
L 675 3319 
L 1388 1331 
Q 1503 1009 1600 663 
Q 1675 925 1809 1294 
L 2547 3319 
L 3125 3319 
L 1869 0 
L 1344 0 
z
" transform="scale(0.015625)"/>
       <path id="ArialMT-73" d="M 197 991 
L 753 1078 
Q 800 744 1014 566 
Q 1228 388 1613 388 
Q 2000 388 2187 545 
Q 2375 703 2375 916 
Q 2375 1106 2209 1216 
Q 2094 1291 1634 1406 
Q 1016 1563 777 1677 
Q 538 1791 414 1992 
Q 291 2194 291 2438 
Q 291 2659 392 2848 
Q 494 3038 669 3163 
Q 800 3259 1026 3326 
Q 1253 3394 1513 3394 
Q 1903 3394 2198 3281 
Q 2494 3169 2634 2976 
Q 2775 2784 2828 2463 
L 2278 2388 
Q 2241 2644 2061 2787 
Q 1881 2931 1553 2931 
Q 1166 2931 1000 2803 
Q 834 2675 834 2503 
Q 834 2394 903 2306 
Q 972 2216 1119 2156 
Q 1203 2125 1616 2013 
Q 2213 1853 2448 1751 
Q 2684 1650 2818 1456 
Q 2953 1263 2953 975 
Q 2953 694 2789 445 
Q 2625 197 2315 61 
Q 2006 -75 1616 -75 
Q 969 -75 630 194 
Q 291 463 197 991 
z
" transform="scale(0.015625)"/>
       <path id="ArialMT-2e" d="M 581 0 
L 581 641 
L 1222 641 
L 1222 0 
L 581 0 
z
" transform="scale(0.015625)"/>
       <path id="ArialMT-57" d="M 1294 0 
L 78 4581 
L 700 4581 
L 1397 1578 
Q 1509 1106 1591 641 
Q 1766 1375 1797 1488 
L 2669 4581 
L 3400 4581 
L 4056 2263 
Q 4303 1400 4413 641 
Q 4500 1075 4641 1638 
L 5359 4581 
L 5969 4581 
L 4713 0 
L 4128 0 
L 3163 3491 
Q 3041 3928 3019 4028 
Q 2947 3713 2884 3491 
L 1913 0 
L 1294 0 
z
" transform="scale(0.015625)"/>
       <path id="ArialMT-54" d="M 1659 0 
L 1659 4041 
L 150 4041 
L 150 4581 
L 3781 4581 
L 3781 4041 
L 2266 4041 
L 2266 0 
L 1659 0 
z
" transform="scale(0.015625)"/>
      </defs>
      <use xlink:href="#ArialMT-4c"/>
      <use xlink:href="#ArialMT-6f" x="55.615234"/>
      <use xlink:href="#ArialMT-67" x="111.230469"/>
      <use xlink:href="#ArialMT-32" x="166.845703"/>
      <use xlink:href="#ArialMT-20" x="222.460938"/>
      <use xlink:href="#ArialMT-66" x="250.244141"/>
      <use xlink:href="#ArialMT-6f" x="278.027344"/>
      <use xlink:href="#ArialMT-6c" x="333.642578"/>
      <use xlink:href="#ArialMT-64" x="355.859375"/>
      <use xlink:href="#ArialMT-20" x="411.474609"/>
      <use xlink:href="#ArialMT-63" x="439.257812"/>
      <use xlink:href="#ArialMT-68" x="489.257812"/>
      <use xlink:href="#ArialMT-61" x="544.873047"/>
      <use xlink:href="#ArialMT-6e" x="600.488281"/>
      <use xlink:href="#ArialMT-67" x="656.103516"/>
      <use xlink:href="#ArialMT-65" x="711.71875"/>
      <use xlink:href="#ArialMT-3a" x="767.333984"/>
      <use xlink:href="#ArialMT-20" x="795.117188"/>
      <use xlink:href="#ArialMT-4b" x="822.900391"/>
      <use xlink:href="#ArialMT-4f" x="889.599609"/>
      <use xlink:href="#ArialMT-5f" x="967.382812"/>
      <use xlink:href="#ArialMT-75" x="1022.998047"/>
      <use xlink:href="#ArialMT-6e" x="1078.613281"/>
      <use xlink:href="#ArialMT-74" x="1134.228516"/>
      <use xlink:href="#ArialMT-72" x="1162.011719"/>
      <use xlink:href="#ArialMT-65" x="1195.3125"/>
      <use xlink:href="#ArialMT-61" x="1250.927734"/>
      <use xlink:href="#ArialMT-74" x="1306.542969"/>
      <use xlink:href="#ArialMT-65" x="1334.326172"/>
      <use xlink:href="#ArialMT-64" x="1389.941406"/>
      <use xlink:href="#ArialMT-20" x="1445.556641"/>
      <use xlink:href="#ArialMT-76" x="1473.339844"/>
      <use xlink:href="#ArialMT-73" x="1523.339844"/>
      <use xlink:href="#ArialMT-2e" x="1573.339844"/>
      <use xlink:href="#ArialMT-20" x="1601.123047"/>
      <use xlink:href="#ArialMT-57" x="1628.90625"/>
      <use xlink:href="#ArialMT-54" x="1723.291016"/>
      <use xlink:href="#ArialMT-5f" x="1784.375"/>
      <use xlink:href="#ArialMT-75" x="1839.990234"/>
      <use xlink:href="#ArialMT-6e" x="1895.605469"/>
      <use xlink:href="#ArialMT-74" x="1951.220703"/>
      <use xlink:href="#ArialMT-72" x="1979.003906"/>
      <use xlink:href="#ArialMT-65" x="2012.304688"/>
      <use xlink:href="#ArialMT-61" x="2067.919922"/>
      <use xlink:href="#ArialMT-74" x="2123.535156"/>
      <use xlink:href="#ArialMT-65" x="2151.318359"/>
      <use xlink:href="#ArialMT-64" x="2206.933594"/>
     </g>
    </g>
   </g>
   <g id="matplotlib.axis_2">
    <g id="ytick_1">
     <g id="line2d_6">
      <defs>
       <path id="m4545245dc2" d="M 0 0 
L -3.5 0 
" style="stroke: #000000; stroke-width: 0.8"/>
      </defs>
      <g>
       <use xlink:href="#m4545245dc2" x="57.6" y="295.488" style="stroke: #000000; stroke-width: 0.8"/>
      </g>
     </g>
     <g id="text_7">
      <!-- 0.0 -->
      <g transform="translate(36.7 299.066906) scale(0.1 -0.1)">
       <use xlink:href="#ArialMT-30"/>
       <use xlink:href="#ArialMT-2e" x="55.615234"/>
       <use xlink:href="#ArialMT-30" x="83.398438"/>
      </g>
     </g>
    </g>
    <g id="ytick_2">
     <g id="line2d_7">
      <g>
       <use xlink:href="#m4545245dc2" x="57.6" y="237.381868" style="stroke: #000000; stroke-width: 0.8"/>
      </g>
     </g>
     <g id="text_8">
      <!-- 0.5 -->
      <g transform="translate(36.7 240.960775) scale(0.1 -0.1)">
       <use xlink:href="#ArialMT-30"/>
       <use xlink:href="#ArialMT-2e" x="55.615234"/>
       <use xlink:href="#ArialMT-35" x="83.398438"/>
      </g>
     </g>
    </g>
    <g id="ytick_3">
     <g id="line2d_8">
      <g>
       <use xlink:href="#m4545245dc2" x="57.6" y="179.275737" style="stroke: #000000; stroke-width: 0.8"/>
      </g>
     </g>
     <g id="text_9">
      <!-- 1.0 -->
      <g transform="translate(36.7 182.854643) scale(0.1 -0.1)">
       <use xlink:href="#ArialMT-31"/>
       <use xlink:href="#ArialMT-2e" x="55.615234"/>
       <use xlink:href="#ArialMT-30" x="83.398438"/>
      </g>
     </g>
    </g>
    <g id="ytick_4">
     <g id="line2d_9">
      <g>
       <use xlink:href="#m4545245dc2" x="57.6" y="121.169605" style="stroke: #000000; stroke-width: 0.8"/>
      </g>
     </g>
     <g id="text_10">
      <!-- 1.5 -->
      <g transform="translate(36.7 124.748511) scale(0.1 -0.1)">
       <use xlink:href="#ArialMT-31"/>
       <use xlink:href="#ArialMT-2e" x="55.615234"/>
       <use xlink:href="#ArialMT-35" x="83.398438"/>
      </g>
     </g>
    </g>
    <g id="ytick_5">
     <g id="line2d_10">
      <g>
       <use xlink:href="#m4545245dc2" x="57.6" y="63.063473" style="stroke: #000000; stroke-width: 0.8"/>
      </g>
     </g>
     <g id="text_11">
      <!-- 2.0 -->
      <g transform="translate(36.7 66.642379) scale(0.1 -0.1)">
       <use xlink:href="#ArialMT-32"/>
       <use xlink:href="#ArialMT-2e" x="55.615234"/>
       <use xlink:href="#ArialMT-30" x="83.398438"/>
      </g>
     </g>
    </g>
    <g id="text_12">
     <!-- Log10 Independent T-test p-value -->
     <g transform="translate(19.864687 249.212375) rotate(-90) scale(0.1 -0.1)">
      <defs>
       <path id="ArialMT-49" d="M 597 0 
L 597 4581 
L 1203 4581 
L 1203 0 
L 597 0 
z
" transform="scale(0.015625)"/>
       <path id="ArialMT-70" d="M 422 -1272 
L 422 3319 
L 934 3319 
L 934 2888 
Q 1116 3141 1344 3267 
Q 1572 3394 1897 3394 
Q 2322 3394 2647 3175 
Q 2972 2956 3137 2557 
Q 3303 2159 3303 1684 
Q 3303 1175 3120 767 
Q 2938 359 2589 142 
Q 2241 -75 1856 -75 
Q 1575 -75 1351 44 
Q 1128 163 984 344 
L 984 -1272 
L 422 -1272 
z
M 931 1641 
Q 931 1000 1190 694 
Q 1450 388 1819 388 
Q 2194 388 2461 705 
Q 2728 1022 2728 1688 
Q 2728 2322 2467 2637 
Q 2206 2953 1844 2953 
Q 1484 2953 1207 2617 
Q 931 2281 931 1641 
z
" transform="scale(0.015625)"/>
       <path id="ArialMT-2d" d="M 203 1375 
L 203 1941 
L 1931 1941 
L 1931 1375 
L 203 1375 
z
" transform="scale(0.015625)"/>
      </defs>
      <use xlink:href="#ArialMT-4c"/>
      <use xlink:href="#ArialMT-6f" x="55.615234"/>
      <use xlink:href="#ArialMT-67" x="111.230469"/>
      <use xlink:href="#ArialMT-31" x="166.845703"/>
      <use xlink:href="#ArialMT-30" x="222.460938"/>
      <use xlink:href="#ArialMT-20" x="278.076172"/>
      <use xlink:href="#ArialMT-49" x="305.859375"/>
      <use xlink:href="#ArialMT-6e" x="333.642578"/>
      <use xlink:href="#ArialMT-64" x="389.257812"/>
      <use xlink:href="#ArialMT-65" x="444.873047"/>
      <use xlink:href="#ArialMT-70" x="500.488281"/>
      <use xlink:href="#ArialMT-65" x="556.103516"/>
      <use xlink:href="#ArialMT-6e" x="611.71875"/>
      <use xlink:href="#ArialMT-64" x="667.333984"/>
      <use xlink:href="#ArialMT-65" x="722.949219"/>
      <use xlink:href="#ArialMT-6e" x="778.564453"/>
      <use xlink:href="#ArialMT-74" x="834.179688"/>
      <use xlink:href="#ArialMT-20" x="861.962891"/>
      <use xlink:href="#ArialMT-54" x="887.996094"/>
      <use xlink:href="#ArialMT-2d" x="943.580078"/>
      <use xlink:href="#ArialMT-74" x="976.880859"/>
      <use xlink:href="#ArialMT-65" x="1004.664062"/>
      <use xlink:href="#ArialMT-73" x="1060.279297"/>
      <use xlink:href="#ArialMT-74" x="1110.279297"/>
      <use xlink:href="#ArialMT-20" x="1138.0625"/>
      <use xlink:href="#ArialMT-70" x="1165.845703"/>
      <use xlink:href="#ArialMT-2d" x="1221.460938"/>
      <use xlink:href="#ArialMT-76" x="1254.761719"/>
      <use xlink:href="#ArialMT-61" x="1304.761719"/>
      <use xlink:href="#ArialMT-6c" x="1360.376953"/>
      <use xlink:href="#ArialMT-75" x="1382.59375"/>
      <use xlink:href="#ArialMT-65" x="1438.208984"/>
     </g>
     <!-- KO_untreated vs. WT_untreated -->
     <g transform="translate(30.7125 246.505344) rotate(-90) scale(0.1 -0.1)">
      <use xlink:href="#ArialMT-4b"/>
      <use xlink:href="#ArialMT-4f" x="66.699219"/>
      <use xlink:href="#ArialMT-5f" x="144.482422"/>
      <use xlink:href="#ArialMT-75" x="200.097656"/>
      <use xlink:href="#ArialMT-6e" x="255.712891"/>
      <use xlink:href="#ArialMT-74" x="311.328125"/>
      <use xlink:href="#ArialMT-72" x="339.111328"/>
      <use xlink:href="#ArialMT-65" x="372.412109"/>
      <use xlink:href="#ArialMT-61" x="428.027344"/>
      <use xlink:href="#ArialMT-74" x="483.642578"/>
      <use xlink:href="#ArialMT-65" x="511.425781"/>
      <use xlink:href="#ArialMT-64" x="567.041016"/>
      <use xlink:href="#ArialMT-20" x="622.65625"/>
      <use xlink:href="#ArialMT-76" x="650.439453"/>
      <use xlink:href="#ArialMT-73" x="700.439453"/>
      <use xlink:href="#ArialMT-2e" x="750.439453"/>
      <use xlink:href="#ArialMT-20" x="778.222656"/>
      <use xlink:href="#ArialMT-57" x="806.005859"/>
      <use xlink:href="#ArialMT-54" x="900.390625"/>
      <use xlink:href="#ArialMT-5f" x="961.474609"/>
      <use xlink:href="#ArialMT-75" x="1017.089844"/>
      <use xlink:href="#ArialMT-6e" x="1072.705078"/>
      <use xlink:href="#ArialMT-74" x="1128.320312"/>
      <use xlink:href="#ArialMT-72" x="1156.103516"/>
      <use xlink:href="#ArialMT-65" x="1189.404297"/>
      <use xlink:href="#ArialMT-61" x="1245.019531"/>
      <use xlink:href="#ArialMT-74" x="1300.634766"/>
      <use xlink:href="#ArialMT-65" x="1328.417969"/>
      <use xlink:href="#ArialMT-64" x="1384.033203"/>
     </g>
    </g>
   </g>
   <g id="line2d_11">
    <path d="M 73.832727 144.292359 
L 398.487273 144.292359 
" clip-path="url(#p5192b1249a)" style="fill: none; stroke-dasharray: 5.55,2.4; stroke-dashoffset: 0; stroke: #4c72b0; stroke-opacity: 0.2; stroke-width: 1.5"/>
   </g>
   <g id="line2d_12">
    <path d="M 287.109005 295.488 
L 287.109005 53.568 
" clip-path="url(#p5192b1249a)" style="fill: none; stroke-dasharray: 5.55,2.4; stroke-dashoffset: 0; stroke: #4c72b0; stroke-opacity: 0.2; stroke-width: 1.5"/>
   </g>
   <g id="line2d_13">
    <path d="M 243.10969 295.488 
L 243.10969 53.568 
" clip-path="url(#p5192b1249a)" style="fill: none; stroke-dasharray: 5.55,2.4; stroke-dashoffset: 0; stroke: #4c72b0; stroke-opacity: 0.2; stroke-width: 1.5"/>
   </g>
   <g id="patch_3">
    <path d="M 57.6 307.584 
L 57.6 41.472 
" style="fill: none; stroke: #000000; stroke-width: 0.8; stroke-linejoin: miter; stroke-linecap: square"/>
   </g>
   <g id="patch_4">
    <path d="M 414.72 307.584 
L 414.72 41.472 
" style="fill: none; stroke: #000000; stroke-width: 0.8; stroke-linejoin: miter; stroke-linecap: square"/>
   </g>
   <g id="patch_5">
    <path d="M 57.6 307.584 
L 414.72 307.584 
" style="fill: none; stroke: #000000; stroke-width: 0.8; stroke-linejoin: miter; stroke-linecap: square"/>
   </g>
   <g id="patch_6">
    <path d="M 57.6 41.472 
L 414.72 41.472 
" style="fill: none; stroke: #000000; stroke-width: 0.8; stroke-linejoin: miter; stroke-linecap: square"/>
   </g>
  </g>
 </g>
 <defs>
  <clipPath id="p5192b1249a">
   <rect x="57.6" y="41.472" width="357.12" height="266.112"/>
  </clipPath>
 </defs>
</svg>
