<?xml version="1.0" encoding="utf-8" standalone="no"?>
<!DOCTYPE svg PUBLIC "-//W3C//DTD SVG 1.1//EN"
  "http://www.w3.org/Graphics/SVG/1.1/DTD/svg11.dtd">
<svg xmlns:xlink="http://www.w3.org/1999/xlink" width="460.8pt" height="345.6pt" viewBox="0 0 460.8 345.6" xmlns="http://www.w3.org/2000/svg" version="1.1">
 <metadata>
  <rdf:RDF xmlns:dc="http://purl.org/dc/elements/1.1/" xmlns:cc="http://creativecommons.org/ns#" xmlns:rdf="http://www.w3.org/1999/02/22-rdf-syntax-ns#">
   <cc:Work>
    <dc:type rdf:resource="http://purl.org/dc/dcmitype/StillImage"/>
    <dc:date>2023-08-03T14:26:27.183244</dc:date>
    <dc:format>image/svg+xml</dc:format>
    <dc:creator>
     <cc:Agent>
      <dc:title>Matplotlib v3.7.1, https://matplotlib.org/</dc:title>
     </cc:Agent>
    </dc:creator>
   </cc:Work>
  </rdf:RDF>
 </metadata>
 <defs>
  <style type="text/css">*{stroke-linejoin: round; stroke-linecap: butt}</style>
 </defs>
 <g id="figure_1">
  <g id="patch_1">
   <path d="M 0 345.6 
L 460.8 345.6 
L 460.8 0 
L 0 0 
z
" style="fill: #ffffff"/>
  </g>
  <g id="axes_1">
   <g id="patch_2">
    <path d="M 57.6 307.584 
L 414.72 307.584 
L 414.72 41.472 
L 57.6 41.472 
z
" style="fill: #ffffff"/>
   </g>
   <g id="PathCollection_1">
    <defs>
     <path id="C0_0_7e8a02abe2" d="M 0 3 
C 0.795609 3 1.55874 2.683901 2.12132 2.12132 
C 2.683901 1.55874 3 0.795609 3 -0 
C 3 -0.795609 2.683901 -1.55874 2.12132 -2.12132 
C 1.55874 -2.683901 0.795609 -3 0 -3 
C -0.795609 -3 -1.55874 -2.683901 -2.12132 -2.12132 
C -2.683901 -1.55874 -3 -0.795609 -3 0 
C -3 0.795609 -2.683901 1.55874 -2.12132 2.12132 
C -1.55874 2.683901 -0.795609 3 0 3 
z
"/>
    </defs>
    <g clip-path="url(#p3b4b5d6075)">
     <use xlink:href="#C0_0_7e8a02abe2" x="113.396005" y="181.189093" style="fill: #808080; stroke: #ffffff; stroke-width: 0.48"/>
    </g>
    <g clip-path="url(#p3b4b5d6075)">
     <use xlink:href="#C0_0_7e8a02abe2" x="152.481379" y="104.294895" style="fill: #808080; stroke: #ffffff; stroke-width: 0.48"/>
    </g>
    <g clip-path="url(#p3b4b5d6075)">
     <use xlink:href="#C0_0_7e8a02abe2" x="95.815995" y="217.468373" style="fill: #808080; stroke: #ffffff; stroke-width: 0.48"/>
    </g>
    <g clip-path="url(#p3b4b5d6075)">
     <use xlink:href="#C0_0_7e8a02abe2" x="222.979501" y="283.44089" style="fill: #808080; stroke: #ffffff; stroke-width: 0.48"/>
    </g>
    <g clip-path="url(#p3b4b5d6075)">
     <use xlink:href="#C0_0_7e8a02abe2" x="232.777541" y="236.775881" style="fill: #808080; stroke: #ffffff; stroke-width: 0.48"/>
    </g>
    <g clip-path="url(#p3b4b5d6075)">
     <use xlink:href="#C0_0_7e8a02abe2" x="249.312661" y="178.995576" style="fill: #808080; stroke: #ffffff; stroke-width: 0.48"/>
    </g>
    <g clip-path="url(#p3b4b5d6075)">
     <use xlink:href="#C0_0_7e8a02abe2" x="221.147145" y="232.897566" style="fill: #808080; stroke: #ffffff; stroke-width: 0.48"/>
    </g>
    <g clip-path="url(#p3b4b5d6075)">
     <use xlink:href="#C0_0_7e8a02abe2" x="191.287628" y="171.584147" style="fill: #808080; stroke: #ffffff; stroke-width: 0.48"/>
    </g>
    <g clip-path="url(#p3b4b5d6075)">
     <use xlink:href="#C0_0_7e8a02abe2" x="188.967392" y="115.178869" style="fill: #808080; stroke: #ffffff; stroke-width: 0.48"/>
    </g>
    <g clip-path="url(#p3b4b5d6075)">
     <use xlink:href="#C0_0_7e8a02abe2" x="225.227609" y="219.128019" style="fill: #808080; stroke: #ffffff; stroke-width: 0.48"/>
    </g>
    <g clip-path="url(#p3b4b5d6075)">
     <use xlink:href="#C0_0_7e8a02abe2" x="204.025836" y="240.724378" style="fill: #808080; stroke: #ffffff; stroke-width: 0.48"/>
    </g>
    <g clip-path="url(#p3b4b5d6075)">
     <use xlink:href="#C0_0_7e8a02abe2" x="224.836551" y="229.443286" style="fill: #808080; stroke: #ffffff; stroke-width: 0.48"/>
    </g>
    <g clip-path="url(#p3b4b5d6075)">
     <use xlink:href="#C0_0_7e8a02abe2" x="212.747743" y="109.902487" style="fill: #808080; stroke: #ffffff; stroke-width: 0.48"/>
    </g>
    <g clip-path="url(#p3b4b5d6075)">
     <use xlink:href="#C0_0_7e8a02abe2" x="214.163189" y="194.630508" style="fill: #808080; stroke: #ffffff; stroke-width: 0.48"/>
    </g>
    <g clip-path="url(#p3b4b5d6075)">
     <use xlink:href="#C0_0_7e8a02abe2" x="346.510472" y="110.131837" style="fill: #808080; stroke: #ffffff; stroke-width: 0.48"/>
    </g>
    <g clip-path="url(#p3b4b5d6075)">
     <use xlink:href="#C0_0_7e8a02abe2" x="226.550712" y="239.636349" style="fill: #808080; stroke: #ffffff; stroke-width: 0.48"/>
    </g>
    <g clip-path="url(#p3b4b5d6075)">
     <use xlink:href="#C0_0_7e8a02abe2" x="238.110422" y="281.205094" style="fill: #808080; stroke: #ffffff; stroke-width: 0.48"/>
    </g>
    <g clip-path="url(#p3b4b5d6075)">
     <use xlink:href="#C0_0_7e8a02abe2" x="216.63189" y="251.005771" style="fill: #808080; stroke: #ffffff; stroke-width: 0.48"/>
    </g>
    <g clip-path="url(#p3b4b5d6075)">
     <use xlink:href="#C0_0_7e8a02abe2" x="100.550523" y="177.578912" style="fill: #808080; stroke: #ffffff; stroke-width: 0.48"/>
    </g>
    <g clip-path="url(#p3b4b5d6075)">
     <use xlink:href="#C0_0_7e8a02abe2" x="88.589752" y="184.999571" style="fill: #808080; stroke: #ffffff; stroke-width: 0.48"/>
    </g>
    <g clip-path="url(#p3b4b5d6075)">
     <use xlink:href="#C0_0_7e8a02abe2" x="92.875435" y="205.239757" style="fill: #808080; stroke: #ffffff; stroke-width: 0.48"/>
    </g>
    <g clip-path="url(#p3b4b5d6075)">
     <use xlink:href="#C0_0_7e8a02abe2" x="214.87981" y="292.404786" style="fill: #808080; stroke: #ffffff; stroke-width: 0.48"/>
    </g>
    <g clip-path="url(#p3b4b5d6075)">
     <use xlink:href="#C0_0_7e8a02abe2" x="209.051878" y="207.539443" style="fill: #808080; stroke: #ffffff; stroke-width: 0.48"/>
    </g>
    <g clip-path="url(#p3b4b5d6075)">
     <use xlink:href="#C0_0_7e8a02abe2" x="242.776149" y="285.672909" style="fill: #808080; stroke: #ffffff; stroke-width: 0.48"/>
    </g>
    <g clip-path="url(#p3b4b5d6075)">
     <use xlink:href="#C0_0_7e8a02abe2" x="215.979505" y="289.558148" style="fill: #808080; stroke: #ffffff; stroke-width: 0.48"/>
    </g>
    <g clip-path="url(#p3b4b5d6075)">
     <use xlink:href="#C0_0_7e8a02abe2" x="210.416182" y="207.156441" style="fill: #808080; stroke: #ffffff; stroke-width: 0.48"/>
    </g>
    <g clip-path="url(#p3b4b5d6075)">
     <use xlink:href="#C0_0_7e8a02abe2" x="189.645336" y="100.356213" style="fill: #808080; stroke: #ffffff; stroke-width: 0.48"/>
    </g>
    <g clip-path="url(#p3b4b5d6075)">
     <use xlink:href="#C0_0_7e8a02abe2" x="213.812766" y="281.489066" style="fill: #808080; stroke: #ffffff; stroke-width: 0.48"/>
    </g>
    <g clip-path="url(#p3b4b5d6075)">
     <use xlink:href="#C0_0_7e8a02abe2" x="204.809755" y="279.000222" style="fill: #808080; stroke: #ffffff; stroke-width: 0.48"/>
    </g>
    <g clip-path="url(#p3b4b5d6075)">
     <use xlink:href="#C0_0_7e8a02abe2" x="216.832385" y="65.078008" style="fill: #808080; stroke: #ffffff; stroke-width: 0.48"/>
    </g>
    <g clip-path="url(#p3b4b5d6075)">
     <use xlink:href="#C0_0_7e8a02abe2" x="234.12395" y="295.0014" style="fill: #808080; stroke: #ffffff; stroke-width: 0.48"/>
    </g>
    <g clip-path="url(#p3b4b5d6075)">
     <use xlink:href="#C0_0_7e8a02abe2" x="234.755339" y="271.761897" style="fill: #808080; stroke: #ffffff; stroke-width: 0.48"/>
    </g>
    <g clip-path="url(#p3b4b5d6075)">
     <use xlink:href="#C0_0_7e8a02abe2" x="218.17049" y="246.1079" style="fill: #808080; stroke: #ffffff; stroke-width: 0.48"/>
    </g>
    <g clip-path="url(#p3b4b5d6075)">
     <use xlink:href="#C0_0_7e8a02abe2" x="236.374917" y="271.389145" style="fill: #808080; stroke: #ffffff; stroke-width: 0.48"/>
    </g>
    <g clip-path="url(#p3b4b5d6075)">
     <use xlink:href="#C0_0_7e8a02abe2" x="252.645924" y="283.661775" style="fill: #808080; stroke: #ffffff; stroke-width: 0.48"/>
    </g>
    <g clip-path="url(#p3b4b5d6075)">
     <use xlink:href="#C0_0_7e8a02abe2" x="231.899045" y="263.832278" style="fill: #808080; stroke: #ffffff; stroke-width: 0.48"/>
    </g>
    <g clip-path="url(#p3b4b5d6075)">
     <use xlink:href="#C0_0_7e8a02abe2" x="195.86927" y="242.441523" style="fill: #808080; stroke: #ffffff; stroke-width: 0.48"/>
    </g>
    <g clip-path="url(#p3b4b5d6075)">
     <use xlink:href="#C0_0_7e8a02abe2" x="202.218693" y="280.042563" style="fill: #808080; stroke: #ffffff; stroke-width: 0.48"/>
    </g>
    <g clip-path="url(#p3b4b5d6075)">
     <use xlink:href="#C0_0_7e8a02abe2" x="263.514094" y="185.687682" style="fill: #808080; stroke: #ffffff; stroke-width: 0.48"/>
    </g>
    <g clip-path="url(#p3b4b5d6075)">
     <use xlink:href="#C0_0_7e8a02abe2" x="228.068378" y="263.108247" style="fill: #808080; stroke: #ffffff; stroke-width: 0.48"/>
    </g>
    <g clip-path="url(#p3b4b5d6075)">
     <use xlink:href="#C0_0_7e8a02abe2" x="236.402453" y="240.036505" style="fill: #808080; stroke: #ffffff; stroke-width: 0.48"/>
    </g>
    <g clip-path="url(#p3b4b5d6075)">
     <use xlink:href="#C0_0_7e8a02abe2" x="143.46464" y="228.067207" style="fill: #808080; stroke: #ffffff; stroke-width: 0.48"/>
    </g>
    <g clip-path="url(#p3b4b5d6075)">
     <use xlink:href="#C0_0_7e8a02abe2" x="218.866448" y="295.278165" style="fill: #808080; stroke: #ffffff; stroke-width: 0.48"/>
    </g>
    <g clip-path="url(#p3b4b5d6075)">
     <use xlink:href="#C0_0_7e8a02abe2" x="383.730248" y="262.061192" style="fill: #808080; stroke: #ffffff; stroke-width: 0.48"/>
    </g>
    <g clip-path="url(#p3b4b5d6075)">
     <use xlink:href="#C0_0_7e8a02abe2" x="207.873908" y="238.606478" style="fill: #808080; stroke: #ffffff; stroke-width: 0.48"/>
    </g>
    <g clip-path="url(#p3b4b5d6075)">
     <use xlink:href="#C0_0_7e8a02abe2" x="216.672687" y="232.526968" style="fill: #808080; stroke: #ffffff; stroke-width: 0.48"/>
    </g>
    <g clip-path="url(#p3b4b5d6075)">
     <use xlink:href="#C0_0_7e8a02abe2" x="219.03622" y="295.193309" style="fill: #808080; stroke: #ffffff; stroke-width: 0.48"/>
    </g>
    <g clip-path="url(#p3b4b5d6075)">
     <use xlink:href="#C0_0_7e8a02abe2" x="209.583457" y="221.178606" style="fill: #808080; stroke: #ffffff; stroke-width: 0.48"/>
    </g>
    <g clip-path="url(#p3b4b5d6075)">
     <use xlink:href="#C0_0_7e8a02abe2" x="246.839897" y="292.134566" style="fill: #808080; stroke: #ffffff; stroke-width: 0.48"/>
    </g>
    <g clip-path="url(#p3b4b5d6075)">
     <use xlink:href="#C0_0_7e8a02abe2" x="360.909215" y="232.090811" style="fill: #808080; stroke: #ffffff; stroke-width: 0.48"/>
    </g>
    <g clip-path="url(#p3b4b5d6075)">
     <use xlink:href="#C0_0_7e8a02abe2" x="239.759407" y="237.809329" style="fill: #808080; stroke: #ffffff; stroke-width: 0.48"/>
    </g>
   </g>
   <g id="PathCollection_2"/>
   <g id="matplotlib.axis_1">
    <g id="xtick_1">
     <g id="line2d_1">
      <defs>
       <path id="mab31ae743f" d="M 0 0 
L 0 3.5 
" style="stroke: #000000; stroke-width: 0.8"/>
      </defs>
      <g>
       <use xlink:href="#mab31ae743f" x="90.559271" y="307.584" style="stroke: #000000; stroke-width: 0.8"/>
      </g>
     </g>
     <g id="text_1">
      <!-- −7.5 -->
      <g transform="translate(80.688958 321.741812) scale(0.1 -0.1)">
       <defs>
        <path id="ArialMT-2212" d="M 3381 1997 
L 356 1997 
L 356 2522 
L 3381 2522 
L 3381 1997 
z
" transform="scale(0.015625)"/>
        <path id="ArialMT-37" d="M 303 3981 
L 303 4522 
L 3269 4522 
L 3269 4084 
Q 2831 3619 2401 2847 
Q 1972 2075 1738 1259 
Q 1569 684 1522 0 
L 944 0 
Q 953 541 1156 1306 
Q 1359 2072 1739 2783 
Q 2119 3494 2547 3981 
L 303 3981 
z
" transform="scale(0.015625)"/>
        <path id="ArialMT-2e" d="M 581 0 
L 581 641 
L 1222 641 
L 1222 0 
L 581 0 
z
" transform="scale(0.015625)"/>
        <path id="ArialMT-35" d="M 266 1200 
L 856 1250 
Q 922 819 1161 601 
Q 1400 384 1738 384 
Q 2144 384 2425 690 
Q 2706 997 2706 1503 
Q 2706 1984 2436 2262 
Q 2166 2541 1728 2541 
Q 1456 2541 1237 2417 
Q 1019 2294 894 2097 
L 366 2166 
L 809 4519 
L 3088 4519 
L 3088 3981 
L 1259 3981 
L 1013 2750 
Q 1425 3038 1878 3038 
Q 2478 3038 2890 2622 
Q 3303 2206 3303 1553 
Q 3303 931 2941 478 
Q 2500 -78 1738 -78 
Q 1113 -78 717 272 
Q 322 622 266 1200 
z
" transform="scale(0.015625)"/>
       </defs>
       <use xlink:href="#ArialMT-2212"/>
       <use xlink:href="#ArialMT-37" x="58.398438"/>
       <use xlink:href="#ArialMT-2e" x="114.013672"/>
       <use xlink:href="#ArialMT-35" x="141.796875"/>
      </g>
     </g>
    </g>
    <g id="xtick_2">
     <g id="line2d_2">
      <g>
       <use xlink:href="#mab31ae743f" x="137.840916" y="307.584" style="stroke: #000000; stroke-width: 0.8"/>
      </g>
     </g>
     <g id="text_2">
      <!-- −5.0 -->
      <g transform="translate(127.970603 321.741812) scale(0.1 -0.1)">
       <defs>
        <path id="ArialMT-30" d="M 266 2259 
Q 266 3072 433 3567 
Q 600 4063 929 4331 
Q 1259 4600 1759 4600 
Q 2128 4600 2406 4451 
Q 2684 4303 2865 4023 
Q 3047 3744 3150 3342 
Q 3253 2941 3253 2259 
Q 3253 1453 3087 958 
Q 2922 463 2592 192 
Q 2263 -78 1759 -78 
Q 1097 -78 719 397 
Q 266 969 266 2259 
z
M 844 2259 
Q 844 1131 1108 757 
Q 1372 384 1759 384 
Q 2147 384 2411 759 
Q 2675 1134 2675 2259 
Q 2675 3391 2411 3762 
Q 2147 4134 1753 4134 
Q 1366 4134 1134 3806 
Q 844 3388 844 2259 
z
" transform="scale(0.015625)"/>
       </defs>
       <use xlink:href="#ArialMT-2212"/>
       <use xlink:href="#ArialMT-35" x="58.398438"/>
       <use xlink:href="#ArialMT-2e" x="114.013672"/>
       <use xlink:href="#ArialMT-30" x="141.796875"/>
      </g>
     </g>
    </g>
    <g id="xtick_3">
     <g id="line2d_3">
      <g>
       <use xlink:href="#mab31ae743f" x="185.122561" y="307.584" style="stroke: #000000; stroke-width: 0.8"/>
      </g>
     </g>
     <g id="text_3">
      <!-- −2.5 -->
      <g transform="translate(175.252248 321.741812) scale(0.1 -0.1)">
       <defs>
        <path id="ArialMT-32" d="M 3222 541 
L 3222 0 
L 194 0 
Q 188 203 259 391 
Q 375 700 629 1000 
Q 884 1300 1366 1694 
Q 2113 2306 2375 2664 
Q 2638 3022 2638 3341 
Q 2638 3675 2398 3904 
Q 2159 4134 1775 4134 
Q 1369 4134 1125 3890 
Q 881 3647 878 3216 
L 300 3275 
Q 359 3922 746 4261 
Q 1134 4600 1788 4600 
Q 2447 4600 2831 4234 
Q 3216 3869 3216 3328 
Q 3216 3053 3103 2787 
Q 2991 2522 2730 2228 
Q 2469 1934 1863 1422 
Q 1356 997 1212 845 
Q 1069 694 975 541 
L 3222 541 
z
" transform="scale(0.015625)"/>
       </defs>
       <use xlink:href="#ArialMT-2212"/>
       <use xlink:href="#ArialMT-32" x="58.398438"/>
       <use xlink:href="#ArialMT-2e" x="114.013672"/>
       <use xlink:href="#ArialMT-35" x="141.796875"/>
      </g>
     </g>
    </g>
    <g id="xtick_4">
     <g id="line2d_4">
      <g>
       <use xlink:href="#mab31ae743f" x="232.404206" y="307.584" style="stroke: #000000; stroke-width: 0.8"/>
      </g>
     </g>
     <g id="text_4">
      <!-- 0.0 -->
      <g transform="translate(225.454206 321.741812) scale(0.1 -0.1)">
       <use xlink:href="#ArialMT-30"/>
       <use xlink:href="#ArialMT-2e" x="55.615234"/>
       <use xlink:href="#ArialMT-30" x="83.398438"/>
      </g>
     </g>
    </g>
    <g id="xtick_5">
     <g id="line2d_5">
      <g>
       <use xlink:href="#mab31ae743f" x="279.685851" y="307.584" style="stroke: #000000; stroke-width: 0.8"/>
      </g>
     </g>
     <g id="text_5">
      <!-- 2.5 -->
      <g transform="translate(272.735851 321.741812) scale(0.1 -0.1)">
       <use xlink:href="#ArialMT-32"/>
       <use xlink:href="#ArialMT-2e" x="55.615234"/>
       <use xlink:href="#ArialMT-35" x="83.398438"/>
      </g>
     </g>
    </g>
    <g id="xtick_6">
     <g id="line2d_6">
      <g>
       <use xlink:href="#mab31ae743f" x="326.967496" y="307.584" style="stroke: #000000; stroke-width: 0.8"/>
      </g>
     </g>
     <g id="text_6">
      <!-- 5.0 -->
      <g transform="translate(320.017496 321.741812) scale(0.1 -0.1)">
       <use xlink:href="#ArialMT-35"/>
       <use xlink:href="#ArialMT-2e" x="55.615234"/>
       <use xlink:href="#ArialMT-30" x="83.398438"/>
      </g>
     </g>
    </g>
    <g id="xtick_7">
     <g id="line2d_7">
      <g>
       <use xlink:href="#mab31ae743f" x="374.249141" y="307.584" style="stroke: #000000; stroke-width: 0.8"/>
      </g>
     </g>
     <g id="text_7">
      <!-- 7.5 -->
      <g transform="translate(367.299141 321.741812) scale(0.1 -0.1)">
       <use xlink:href="#ArialMT-37"/>
       <use xlink:href="#ArialMT-2e" x="55.615234"/>
       <use xlink:href="#ArialMT-35" x="83.398438"/>
      </g>
     </g>
    </g>
    <g id="text_8">
     <!-- Log2 fold change: KO_untreated vs. KO_treated -->
     <g transform="translate(129.151406 335.01525) scale(0.1 -0.1)">
      <defs>
       <path id="ArialMT-4c" d="M 469 0 
L 469 4581 
L 1075 4581 
L 1075 541 
L 3331 541 
L 3331 0 
L 469 0 
z
" transform="scale(0.015625)"/>
       <path id="ArialMT-6f" d="M 213 1659 
Q 213 2581 725 3025 
Q 1153 3394 1769 3394 
Q 2453 3394 2887 2945 
Q 3322 2497 3322 1706 
Q 3322 1066 3130 698 
Q 2938 331 2570 128 
Q 2203 -75 1769 -75 
Q 1072 -75 642 372 
Q 213 819 213 1659 
z
M 791 1659 
Q 791 1022 1069 705 
Q 1347 388 1769 388 
Q 2188 388 2466 706 
Q 2744 1025 2744 1678 
Q 2744 2294 2464 2611 
Q 2184 2928 1769 2928 
Q 1347 2928 1069 2612 
Q 791 2297 791 1659 
z
" transform="scale(0.015625)"/>
       <path id="ArialMT-67" d="M 319 -275 
L 866 -356 
Q 900 -609 1056 -725 
Q 1266 -881 1628 -881 
Q 2019 -881 2231 -725 
Q 2444 -569 2519 -288 
Q 2563 -116 2559 434 
Q 2191 0 1641 0 
Q 956 0 581 494 
Q 206 988 206 1678 
Q 206 2153 378 2554 
Q 550 2956 876 3175 
Q 1203 3394 1644 3394 
Q 2231 3394 2613 2919 
L 2613 3319 
L 3131 3319 
L 3131 450 
Q 3131 -325 2973 -648 
Q 2816 -972 2473 -1159 
Q 2131 -1347 1631 -1347 
Q 1038 -1347 672 -1080 
Q 306 -813 319 -275 
z
M 784 1719 
Q 784 1066 1043 766 
Q 1303 466 1694 466 
Q 2081 466 2343 764 
Q 2606 1063 2606 1700 
Q 2606 2309 2336 2618 
Q 2066 2928 1684 2928 
Q 1309 2928 1046 2623 
Q 784 2319 784 1719 
z
" transform="scale(0.015625)"/>
       <path id="ArialMT-20" transform="scale(0.015625)"/>
       <path id="ArialMT-66" d="M 556 0 
L 556 2881 
L 59 2881 
L 59 3319 
L 556 3319 
L 556 3672 
Q 556 4006 616 4169 
Q 697 4388 901 4523 
Q 1106 4659 1475 4659 
Q 1713 4659 2000 4603 
L 1916 4113 
Q 1741 4144 1584 4144 
Q 1328 4144 1222 4034 
Q 1116 3925 1116 3625 
L 1116 3319 
L 1763 3319 
L 1763 2881 
L 1116 2881 
L 1116 0 
L 556 0 
z
" transform="scale(0.015625)"/>
       <path id="ArialMT-6c" d="M 409 0 
L 409 4581 
L 972 4581 
L 972 0 
L 409 0 
z
" transform="scale(0.015625)"/>
       <path id="ArialMT-64" d="M 2575 0 
L 2575 419 
Q 2259 -75 1647 -75 
Q 1250 -75 917 144 
Q 584 363 401 755 
Q 219 1147 219 1656 
Q 219 2153 384 2558 
Q 550 2963 881 3178 
Q 1213 3394 1622 3394 
Q 1922 3394 2156 3267 
Q 2391 3141 2538 2938 
L 2538 4581 
L 3097 4581 
L 3097 0 
L 2575 0 
z
M 797 1656 
Q 797 1019 1065 703 
Q 1334 388 1700 388 
Q 2069 388 2326 689 
Q 2584 991 2584 1609 
Q 2584 2291 2321 2609 
Q 2059 2928 1675 2928 
Q 1300 2928 1048 2622 
Q 797 2316 797 1656 
z
" transform="scale(0.015625)"/>
       <path id="ArialMT-63" d="M 2588 1216 
L 3141 1144 
Q 3050 572 2676 248 
Q 2303 -75 1759 -75 
Q 1078 -75 664 370 
Q 250 816 250 1647 
Q 250 2184 428 2587 
Q 606 2991 970 3192 
Q 1334 3394 1763 3394 
Q 2303 3394 2647 3120 
Q 2991 2847 3088 2344 
L 2541 2259 
Q 2463 2594 2264 2762 
Q 2066 2931 1784 2931 
Q 1359 2931 1093 2626 
Q 828 2322 828 1663 
Q 828 994 1084 691 
Q 1341 388 1753 388 
Q 2084 388 2306 591 
Q 2528 794 2588 1216 
z
" transform="scale(0.015625)"/>
       <path id="ArialMT-68" d="M 422 0 
L 422 4581 
L 984 4581 
L 984 2938 
Q 1378 3394 1978 3394 
Q 2347 3394 2619 3248 
Q 2891 3103 3008 2847 
Q 3125 2591 3125 2103 
L 3125 0 
L 2563 0 
L 2563 2103 
Q 2563 2525 2380 2717 
Q 2197 2909 1863 2909 
Q 1613 2909 1392 2779 
Q 1172 2650 1078 2428 
Q 984 2206 984 1816 
L 984 0 
L 422 0 
z
" transform="scale(0.015625)"/>
       <path id="ArialMT-61" d="M 2588 409 
Q 2275 144 1986 34 
Q 1697 -75 1366 -75 
Q 819 -75 525 192 
Q 231 459 231 875 
Q 231 1119 342 1320 
Q 453 1522 633 1644 
Q 813 1766 1038 1828 
Q 1203 1872 1538 1913 
Q 2219 1994 2541 2106 
Q 2544 2222 2544 2253 
Q 2544 2597 2384 2738 
Q 2169 2928 1744 2928 
Q 1347 2928 1158 2789 
Q 969 2650 878 2297 
L 328 2372 
Q 403 2725 575 2942 
Q 747 3159 1072 3276 
Q 1397 3394 1825 3394 
Q 2250 3394 2515 3294 
Q 2781 3194 2906 3042 
Q 3031 2891 3081 2659 
Q 3109 2516 3109 2141 
L 3109 1391 
Q 3109 606 3145 398 
Q 3181 191 3288 0 
L 2700 0 
Q 2613 175 2588 409 
z
M 2541 1666 
Q 2234 1541 1622 1453 
Q 1275 1403 1131 1340 
Q 988 1278 909 1158 
Q 831 1038 831 891 
Q 831 666 1001 516 
Q 1172 366 1500 366 
Q 1825 366 2078 508 
Q 2331 650 2450 897 
Q 2541 1088 2541 1459 
L 2541 1666 
z
" transform="scale(0.015625)"/>
       <path id="ArialMT-6e" d="M 422 0 
L 422 3319 
L 928 3319 
L 928 2847 
Q 1294 3394 1984 3394 
Q 2284 3394 2536 3286 
Q 2788 3178 2913 3003 
Q 3038 2828 3088 2588 
Q 3119 2431 3119 2041 
L 3119 0 
L 2556 0 
L 2556 2019 
Q 2556 2363 2490 2533 
Q 2425 2703 2258 2804 
Q 2091 2906 1866 2906 
Q 1506 2906 1245 2678 
Q 984 2450 984 1813 
L 984 0 
L 422 0 
z
" transform="scale(0.015625)"/>
       <path id="ArialMT-65" d="M 2694 1069 
L 3275 997 
Q 3138 488 2766 206 
Q 2394 -75 1816 -75 
Q 1088 -75 661 373 
Q 234 822 234 1631 
Q 234 2469 665 2931 
Q 1097 3394 1784 3394 
Q 2450 3394 2872 2941 
Q 3294 2488 3294 1666 
Q 3294 1616 3291 1516 
L 816 1516 
Q 847 969 1125 678 
Q 1403 388 1819 388 
Q 2128 388 2347 550 
Q 2566 713 2694 1069 
z
M 847 1978 
L 2700 1978 
Q 2663 2397 2488 2606 
Q 2219 2931 1791 2931 
Q 1403 2931 1139 2672 
Q 875 2413 847 1978 
z
" transform="scale(0.015625)"/>
       <path id="ArialMT-3a" d="M 578 2678 
L 578 3319 
L 1219 3319 
L 1219 2678 
L 578 2678 
z
M 578 0 
L 578 641 
L 1219 641 
L 1219 0 
L 578 0 
z
" transform="scale(0.015625)"/>
       <path id="ArialMT-4b" d="M 469 0 
L 469 4581 
L 1075 4581 
L 1075 2309 
L 3350 4581 
L 4172 4581 
L 2250 2725 
L 4256 0 
L 3456 0 
L 1825 2319 
L 1075 1588 
L 1075 0 
L 469 0 
z
" transform="scale(0.015625)"/>
       <path id="ArialMT-4f" d="M 309 2231 
Q 309 3372 921 4017 
Q 1534 4663 2503 4663 
Q 3138 4663 3647 4359 
Q 4156 4056 4423 3514 
Q 4691 2972 4691 2284 
Q 4691 1588 4409 1038 
Q 4128 488 3612 205 
Q 3097 -78 2500 -78 
Q 1853 -78 1343 234 
Q 834 547 571 1087 
Q 309 1628 309 2231 
z
M 934 2222 
Q 934 1394 1379 917 
Q 1825 441 2497 441 
Q 3181 441 3623 922 
Q 4066 1403 4066 2288 
Q 4066 2847 3877 3264 
Q 3688 3681 3323 3911 
Q 2959 4141 2506 4141 
Q 1863 4141 1398 3698 
Q 934 3256 934 2222 
z
" transform="scale(0.015625)"/>
       <path id="ArialMT-5f" d="M -97 -1272 
L -97 -866 
L 3631 -866 
L 3631 -1272 
L -97 -1272 
z
" transform="scale(0.015625)"/>
       <path id="ArialMT-75" d="M 2597 0 
L 2597 488 
Q 2209 -75 1544 -75 
Q 1250 -75 995 37 
Q 741 150 617 320 
Q 494 491 444 738 
Q 409 903 409 1263 
L 409 3319 
L 972 3319 
L 972 1478 
Q 972 1038 1006 884 
Q 1059 663 1231 536 
Q 1403 409 1656 409 
Q 1909 409 2131 539 
Q 2353 669 2445 892 
Q 2538 1116 2538 1541 
L 2538 3319 
L 3100 3319 
L 3100 0 
L 2597 0 
z
" transform="scale(0.015625)"/>
       <path id="ArialMT-74" d="M 1650 503 
L 1731 6 
Q 1494 -44 1306 -44 
Q 1000 -44 831 53 
Q 663 150 594 308 
Q 525 466 525 972 
L 525 2881 
L 113 2881 
L 113 3319 
L 525 3319 
L 525 4141 
L 1084 4478 
L 1084 3319 
L 1650 3319 
L 1650 2881 
L 1084 2881 
L 1084 941 
Q 1084 700 1114 631 
Q 1144 563 1211 522 
Q 1278 481 1403 481 
Q 1497 481 1650 503 
z
" transform="scale(0.015625)"/>
       <path id="ArialMT-72" d="M 416 0 
L 416 3319 
L 922 3319 
L 922 2816 
Q 1116 3169 1280 3281 
Q 1444 3394 1641 3394 
Q 1925 3394 2219 3213 
L 2025 2691 
Q 1819 2813 1613 2813 
Q 1428 2813 1281 2702 
Q 1134 2591 1072 2394 
Q 978 2094 978 1738 
L 978 0 
L 416 0 
z
" transform="scale(0.015625)"/>
       <path id="ArialMT-76" d="M 1344 0 
L 81 3319 
L 675 3319 
L 1388 1331 
Q 1503 1009 1600 663 
Q 1675 925 1809 1294 
L 2547 3319 
L 3125 3319 
L 1869 0 
L 1344 0 
z
" transform="scale(0.015625)"/>
       <path id="ArialMT-73" d="M 197 991 
L 753 1078 
Q 800 744 1014 566 
Q 1228 388 1613 388 
Q 2000 388 2187 545 
Q 2375 703 2375 916 
Q 2375 1106 2209 1216 
Q 2094 1291 1634 1406 
Q 1016 1563 777 1677 
Q 538 1791 414 1992 
Q 291 2194 291 2438 
Q 291 2659 392 2848 
Q 494 3038 669 3163 
Q 800 3259 1026 3326 
Q 1253 3394 1513 3394 
Q 1903 3394 2198 3281 
Q 2494 3169 2634 2976 
Q 2775 2784 2828 2463 
L 2278 2388 
Q 2241 2644 2061 2787 
Q 1881 2931 1553 2931 
Q 1166 2931 1000 2803 
Q 834 2675 834 2503 
Q 834 2394 903 2306 
Q 972 2216 1119 2156 
Q 1203 2125 1616 2013 
Q 2213 1853 2448 1751 
Q 2684 1650 2818 1456 
Q 2953 1263 2953 975 
Q 2953 694 2789 445 
Q 2625 197 2315 61 
Q 2006 -75 1616 -75 
Q 969 -75 630 194 
Q 291 463 197 991 
z
" transform="scale(0.015625)"/>
      </defs>
      <use xlink:href="#ArialMT-4c"/>
      <use xlink:href="#ArialMT-6f" x="55.615234"/>
      <use xlink:href="#ArialMT-67" x="111.230469"/>
      <use xlink:href="#ArialMT-32" x="166.845703"/>
      <use xlink:href="#ArialMT-20" x="222.460938"/>
      <use xlink:href="#ArialMT-66" x="250.244141"/>
      <use xlink:href="#ArialMT-6f" x="278.027344"/>
      <use xlink:href="#ArialMT-6c" x="333.642578"/>
      <use xlink:href="#ArialMT-64" x="355.859375"/>
      <use xlink:href="#ArialMT-20" x="411.474609"/>
      <use xlink:href="#ArialMT-63" x="439.257812"/>
      <use xlink:href="#ArialMT-68" x="489.257812"/>
      <use xlink:href="#ArialMT-61" x="544.873047"/>
      <use xlink:href="#ArialMT-6e" x="600.488281"/>
      <use xlink:href="#ArialMT-67" x="656.103516"/>
      <use xlink:href="#ArialMT-65" x="711.71875"/>
      <use xlink:href="#ArialMT-3a" x="767.333984"/>
      <use xlink:href="#ArialMT-20" x="795.117188"/>
      <use xlink:href="#ArialMT-4b" x="822.900391"/>
      <use xlink:href="#ArialMT-4f" x="889.599609"/>
      <use xlink:href="#ArialMT-5f" x="967.382812"/>
      <use xlink:href="#ArialMT-75" x="1022.998047"/>
      <use xlink:href="#ArialMT-6e" x="1078.613281"/>
      <use xlink:href="#ArialMT-74" x="1134.228516"/>
      <use xlink:href="#ArialMT-72" x="1162.011719"/>
      <use xlink:href="#ArialMT-65" x="1195.3125"/>
      <use xlink:href="#ArialMT-61" x="1250.927734"/>
      <use xlink:href="#ArialMT-74" x="1306.542969"/>
      <use xlink:href="#ArialMT-65" x="1334.326172"/>
      <use xlink:href="#ArialMT-64" x="1389.941406"/>
      <use xlink:href="#ArialMT-20" x="1445.556641"/>
      <use xlink:href="#ArialMT-76" x="1473.339844"/>
      <use xlink:href="#ArialMT-73" x="1523.339844"/>
      <use xlink:href="#ArialMT-2e" x="1573.339844"/>
      <use xlink:href="#ArialMT-20" x="1601.123047"/>
      <use xlink:href="#ArialMT-4b" x="1628.90625"/>
      <use xlink:href="#ArialMT-4f" x="1695.605469"/>
      <use xlink:href="#ArialMT-5f" x="1773.388672"/>
      <use xlink:href="#ArialMT-74" x="1829.003906"/>
      <use xlink:href="#ArialMT-72" x="1856.787109"/>
      <use xlink:href="#ArialMT-65" x="1890.087891"/>
      <use xlink:href="#ArialMT-61" x="1945.703125"/>
      <use xlink:href="#ArialMT-74" x="2001.318359"/>
      <use xlink:href="#ArialMT-65" x="2029.101562"/>
      <use xlink:href="#ArialMT-64" x="2084.716797"/>
     </g>
    </g>
   </g>
   <g id="matplotlib.axis_2">
    <g id="ytick_1">
     <g id="line2d_8">
      <defs>
       <path id="m12fba344db" d="M 0 0 
L -3.5 0 
" style="stroke: #000000; stroke-width: 0.8"/>
      </defs>
      <g>
       <use xlink:href="#m12fba344db" x="57.6" y="295.488" style="stroke: #000000; stroke-width: 0.8"/>
      </g>
     </g>
     <g id="text_9">
      <!-- 0.0 -->
      <g transform="translate(36.7 299.066906) scale(0.1 -0.1)">
       <use xlink:href="#ArialMT-30"/>
       <use xlink:href="#ArialMT-2e" x="55.615234"/>
       <use xlink:href="#ArialMT-30" x="83.398438"/>
      </g>
     </g>
    </g>
    <g id="ytick_2">
     <g id="line2d_9">
      <g>
       <use xlink:href="#m12fba344db" x="57.6" y="264.355437" style="stroke: #000000; stroke-width: 0.8"/>
      </g>
     </g>
     <g id="text_10">
      <!-- 0.2 -->
      <g transform="translate(36.7 267.934343) scale(0.1 -0.1)">
       <use xlink:href="#ArialMT-30"/>
       <use xlink:href="#ArialMT-2e" x="55.615234"/>
       <use xlink:href="#ArialMT-32" x="83.398438"/>
      </g>
     </g>
    </g>
    <g id="ytick_3">
     <g id="line2d_10">
      <g>
       <use xlink:href="#m12fba344db" x="57.6" y="233.222874" style="stroke: #000000; stroke-width: 0.8"/>
      </g>
     </g>
     <g id="text_11">
      <!-- 0.4 -->
      <g transform="translate(36.7 236.80178) scale(0.1 -0.1)">
       <defs>
        <path id="ArialMT-34" d="M 2069 0 
L 2069 1097 
L 81 1097 
L 81 1613 
L 2172 4581 
L 2631 4581 
L 2631 1613 
L 3250 1613 
L 3250 1097 
L 2631 1097 
L 2631 0 
L 2069 0 
z
M 2069 1613 
L 2069 3678 
L 634 1613 
L 2069 1613 
z
" transform="scale(0.015625)"/>
       </defs>
       <use xlink:href="#ArialMT-30"/>
       <use xlink:href="#ArialMT-2e" x="55.615234"/>
       <use xlink:href="#ArialMT-34" x="83.398438"/>
      </g>
     </g>
    </g>
    <g id="ytick_4">
     <g id="line2d_11">
      <g>
       <use xlink:href="#m12fba344db" x="57.6" y="202.090311" style="stroke: #000000; stroke-width: 0.8"/>
      </g>
     </g>
     <g id="text_12">
      <!-- 0.6 -->
      <g transform="translate(36.7 205.669217) scale(0.1 -0.1)">
       <defs>
        <path id="ArialMT-36" d="M 3184 3459 
L 2625 3416 
Q 2550 3747 2413 3897 
Q 2184 4138 1850 4138 
Q 1581 4138 1378 3988 
Q 1113 3794 959 3422 
Q 806 3050 800 2363 
Q 1003 2672 1297 2822 
Q 1591 2972 1913 2972 
Q 2475 2972 2870 2558 
Q 3266 2144 3266 1488 
Q 3266 1056 3080 686 
Q 2894 316 2569 119 
Q 2244 -78 1831 -78 
Q 1128 -78 684 439 
Q 241 956 241 2144 
Q 241 3472 731 4075 
Q 1159 4600 1884 4600 
Q 2425 4600 2770 4297 
Q 3116 3994 3184 3459 
z
M 888 1484 
Q 888 1194 1011 928 
Q 1134 663 1356 523 
Q 1578 384 1822 384 
Q 2178 384 2434 671 
Q 2691 959 2691 1453 
Q 2691 1928 2437 2201 
Q 2184 2475 1800 2475 
Q 1419 2475 1153 2201 
Q 888 1928 888 1484 
z
" transform="scale(0.015625)"/>
       </defs>
       <use xlink:href="#ArialMT-30"/>
       <use xlink:href="#ArialMT-2e" x="55.615234"/>
       <use xlink:href="#ArialMT-36" x="83.398438"/>
      </g>
     </g>
    </g>
    <g id="ytick_5">
     <g id="line2d_12">
      <g>
       <use xlink:href="#m12fba344db" x="57.6" y="170.957748" style="stroke: #000000; stroke-width: 0.8"/>
      </g>
     </g>
     <g id="text_13">
      <!-- 0.8 -->
      <g transform="translate(36.7 174.536654) scale(0.1 -0.1)">
       <defs>
        <path id="ArialMT-38" d="M 1131 2484 
Q 781 2613 612 2850 
Q 444 3088 444 3419 
Q 444 3919 803 4259 
Q 1163 4600 1759 4600 
Q 2359 4600 2725 4251 
Q 3091 3903 3091 3403 
Q 3091 3084 2923 2848 
Q 2756 2613 2416 2484 
Q 2838 2347 3058 2040 
Q 3278 1734 3278 1309 
Q 3278 722 2862 322 
Q 2447 -78 1769 -78 
Q 1091 -78 675 323 
Q 259 725 259 1325 
Q 259 1772 486 2073 
Q 713 2375 1131 2484 
z
M 1019 3438 
Q 1019 3113 1228 2906 
Q 1438 2700 1772 2700 
Q 2097 2700 2305 2904 
Q 2513 3109 2513 3406 
Q 2513 3716 2298 3927 
Q 2084 4138 1766 4138 
Q 1444 4138 1231 3931 
Q 1019 3725 1019 3438 
z
M 838 1322 
Q 838 1081 952 856 
Q 1066 631 1291 507 
Q 1516 384 1775 384 
Q 2178 384 2440 643 
Q 2703 903 2703 1303 
Q 2703 1709 2433 1975 
Q 2163 2241 1756 2241 
Q 1359 2241 1098 1978 
Q 838 1716 838 1322 
z
" transform="scale(0.015625)"/>
       </defs>
       <use xlink:href="#ArialMT-30"/>
       <use xlink:href="#ArialMT-2e" x="55.615234"/>
       <use xlink:href="#ArialMT-38" x="83.398438"/>
      </g>
     </g>
    </g>
    <g id="ytick_6">
     <g id="line2d_13">
      <g>
       <use xlink:href="#m12fba344db" x="57.6" y="139.825184" style="stroke: #000000; stroke-width: 0.8"/>
      </g>
     </g>
     <g id="text_14">
      <!-- 1.0 -->
      <g transform="translate(36.7 143.404091) scale(0.1 -0.1)">
       <defs>
        <path id="ArialMT-31" d="M 2384 0 
L 1822 0 
L 1822 3584 
Q 1619 3391 1289 3197 
Q 959 3003 697 2906 
L 697 3450 
Q 1169 3672 1522 3987 
Q 1875 4303 2022 4600 
L 2384 4600 
L 2384 0 
z
" transform="scale(0.015625)"/>
       </defs>
       <use xlink:href="#ArialMT-31"/>
       <use xlink:href="#ArialMT-2e" x="55.615234"/>
       <use xlink:href="#ArialMT-30" x="83.398438"/>
      </g>
     </g>
    </g>
    <g id="ytick_7">
     <g id="line2d_14">
      <g>
       <use xlink:href="#m12fba344db" x="57.6" y="108.692621" style="stroke: #000000; stroke-width: 0.8"/>
      </g>
     </g>
     <g id="text_15">
      <!-- 1.2 -->
      <g transform="translate(36.7 112.271528) scale(0.1 -0.1)">
       <use xlink:href="#ArialMT-31"/>
       <use xlink:href="#ArialMT-2e" x="55.615234"/>
       <use xlink:href="#ArialMT-32" x="83.398438"/>
      </g>
     </g>
    </g>
    <g id="ytick_8">
     <g id="line2d_15">
      <g>
       <use xlink:href="#m12fba344db" x="57.6" y="77.560058" style="stroke: #000000; stroke-width: 0.8"/>
      </g>
     </g>
     <g id="text_16">
      <!-- 1.4 -->
      <g transform="translate(36.7 81.138964) scale(0.1 -0.1)">
       <use xlink:href="#ArialMT-31"/>
       <use xlink:href="#ArialMT-2e" x="55.615234"/>
       <use xlink:href="#ArialMT-34" x="83.398438"/>
      </g>
     </g>
    </g>
    <g id="ytick_9">
     <g id="line2d_16">
      <g>
       <use xlink:href="#m12fba344db" x="57.6" y="46.427495" style="stroke: #000000; stroke-width: 0.8"/>
      </g>
     </g>
     <g id="text_17">
      <!-- 1.6 -->
      <g transform="translate(36.7 50.006401) scale(0.1 -0.1)">
       <use xlink:href="#ArialMT-31"/>
       <use xlink:href="#ArialMT-2e" x="55.615234"/>
       <use xlink:href="#ArialMT-36" x="83.398438"/>
      </g>
     </g>
    </g>
    <g id="text_18">
     <!-- Log10 Independent T-test p-value -->
     <g transform="translate(19.864687 249.212375) rotate(-90) scale(0.1 -0.1)">
      <defs>
       <path id="ArialMT-49" d="M 597 0 
L 597 4581 
L 1203 4581 
L 1203 0 
L 597 0 
z
" transform="scale(0.015625)"/>
       <path id="ArialMT-70" d="M 422 -1272 
L 422 3319 
L 934 3319 
L 934 2888 
Q 1116 3141 1344 3267 
Q 1572 3394 1897 3394 
Q 2322 3394 2647 3175 
Q 2972 2956 3137 2557 
Q 3303 2159 3303 1684 
Q 3303 1175 3120 767 
Q 2938 359 2589 142 
Q 2241 -75 1856 -75 
Q 1575 -75 1351 44 
Q 1128 163 984 344 
L 984 -1272 
L 422 -1272 
z
M 931 1641 
Q 931 1000 1190 694 
Q 1450 388 1819 388 
Q 2194 388 2461 705 
Q 2728 1022 2728 1688 
Q 2728 2322 2467 2637 
Q 2206 2953 1844 2953 
Q 1484 2953 1207 2617 
Q 931 2281 931 1641 
z
" transform="scale(0.015625)"/>
       <path id="ArialMT-54" d="M 1659 0 
L 1659 4041 
L 150 4041 
L 150 4581 
L 3781 4581 
L 3781 4041 
L 2266 4041 
L 2266 0 
L 1659 0 
z
" transform="scale(0.015625)"/>
       <path id="ArialMT-2d" d="M 203 1375 
L 203 1941 
L 1931 1941 
L 1931 1375 
L 203 1375 
z
" transform="scale(0.015625)"/>
      </defs>
      <use xlink:href="#ArialMT-4c"/>
      <use xlink:href="#ArialMT-6f" x="55.615234"/>
      <use xlink:href="#ArialMT-67" x="111.230469"/>
      <use xlink:href="#ArialMT-31" x="166.845703"/>
      <use xlink:href="#ArialMT-30" x="222.460938"/>
      <use xlink:href="#ArialMT-20" x="278.076172"/>
      <use xlink:href="#ArialMT-49" x="305.859375"/>
      <use xlink:href="#ArialMT-6e" x="333.642578"/>
      <use xlink:href="#ArialMT-64" x="389.257812"/>
      <use xlink:href="#ArialMT-65" x="444.873047"/>
      <use xlink:href="#ArialMT-70" x="500.488281"/>
      <use xlink:href="#ArialMT-65" x="556.103516"/>
      <use xlink:href="#ArialMT-6e" x="611.71875"/>
      <use xlink:href="#ArialMT-64" x="667.333984"/>
      <use xlink:href="#ArialMT-65" x="722.949219"/>
      <use xlink:href="#ArialMT-6e" x="778.564453"/>
      <use xlink:href="#ArialMT-74" x="834.179688"/>
      <use xlink:href="#ArialMT-20" x="861.962891"/>
      <use xlink:href="#ArialMT-54" x="887.996094"/>
      <use xlink:href="#ArialMT-2d" x="943.580078"/>
      <use xlink:href="#ArialMT-74" x="976.880859"/>
      <use xlink:href="#ArialMT-65" x="1004.664062"/>
      <use xlink:href="#ArialMT-73" x="1060.279297"/>
      <use xlink:href="#ArialMT-74" x="1110.279297"/>
      <use xlink:href="#ArialMT-20" x="1138.0625"/>
      <use xlink:href="#ArialMT-70" x="1165.845703"/>
      <use xlink:href="#ArialMT-2d" x="1221.460938"/>
      <use xlink:href="#ArialMT-76" x="1254.761719"/>
      <use xlink:href="#ArialMT-61" x="1304.761719"/>
      <use xlink:href="#ArialMT-6c" x="1360.376953"/>
      <use xlink:href="#ArialMT-75" x="1382.59375"/>
      <use xlink:href="#ArialMT-65" x="1438.208984"/>
     </g>
     <!-- KO_untreated vs. KO_treated -->
     <g transform="translate(30.7125 240.395187) rotate(-90) scale(0.1 -0.1)">
      <use xlink:href="#ArialMT-4b"/>
      <use xlink:href="#ArialMT-4f" x="66.699219"/>
      <use xlink:href="#ArialMT-5f" x="144.482422"/>
      <use xlink:href="#ArialMT-75" x="200.097656"/>
      <use xlink:href="#ArialMT-6e" x="255.712891"/>
      <use xlink:href="#ArialMT-74" x="311.328125"/>
      <use xlink:href="#ArialMT-72" x="339.111328"/>
      <use xlink:href="#ArialMT-65" x="372.412109"/>
      <use xlink:href="#ArialMT-61" x="428.027344"/>
      <use xlink:href="#ArialMT-74" x="483.642578"/>
      <use xlink:href="#ArialMT-65" x="511.425781"/>
      <use xlink:href="#ArialMT-64" x="567.041016"/>
      <use xlink:href="#ArialMT-20" x="622.65625"/>
      <use xlink:href="#ArialMT-76" x="650.439453"/>
      <use xlink:href="#ArialMT-73" x="700.439453"/>
      <use xlink:href="#ArialMT-2e" x="750.439453"/>
      <use xlink:href="#ArialMT-20" x="778.222656"/>
      <use xlink:href="#ArialMT-4b" x="806.005859"/>
      <use xlink:href="#ArialMT-4f" x="872.705078"/>
      <use xlink:href="#ArialMT-5f" x="950.488281"/>
      <use xlink:href="#ArialMT-74" x="1006.103516"/>
      <use xlink:href="#ArialMT-72" x="1033.886719"/>
      <use xlink:href="#ArialMT-65" x="1067.1875"/>
      <use xlink:href="#ArialMT-61" x="1122.802734"/>
      <use xlink:href="#ArialMT-74" x="1178.417969"/>
      <use xlink:href="#ArialMT-65" x="1206.201172"/>
      <use xlink:href="#ArialMT-64" x="1261.816406"/>
     </g>
    </g>
   </g>
   <g id="line2d_17">
    <path d="M 73.832727 92.966008 
L 398.487273 92.966008 
" clip-path="url(#p3b4b5d6075)" style="fill: none; stroke-dasharray: 5.55,2.4; stroke-dashoffset: 0; stroke: #4c72b0; stroke-opacity: 0.2; stroke-width: 1.5"/>
   </g>
   <g id="line2d_18">
    <path d="M 260.773193 295.488 
L 260.773193 53.568 
" clip-path="url(#p3b4b5d6075)" style="fill: none; stroke-dasharray: 5.55,2.4; stroke-dashoffset: 0; stroke: #4c72b0; stroke-opacity: 0.2; stroke-width: 1.5"/>
   </g>
   <g id="line2d_19">
    <path d="M 204.035219 295.488 
L 204.035219 53.568 
" clip-path="url(#p3b4b5d6075)" style="fill: none; stroke-dasharray: 5.55,2.4; stroke-dashoffset: 0; stroke: #4c72b0; stroke-opacity: 0.2; stroke-width: 1.5"/>
   </g>
   <g id="patch_3">
    <path d="M 57.6 307.584 
L 57.6 41.472 
" style="fill: none; stroke: #000000; stroke-width: 0.8; stroke-linejoin: miter; stroke-linecap: square"/>
   </g>
   <g id="patch_4">
    <path d="M 414.72 307.584 
L 414.72 41.472 
" style="fill: none; stroke: #000000; stroke-width: 0.8; stroke-linejoin: miter; stroke-linecap: square"/>
   </g>
   <g id="patch_5">
    <path d="M 57.6 307.584 
L 414.72 307.584 
" style="fill: none; stroke: #000000; stroke-width: 0.8; stroke-linejoin: miter; stroke-linecap: square"/>
   </g>
   <g id="patch_6">
    <path d="M 57.6 41.472 
L 414.72 41.472 
" style="fill: none; stroke: #000000; stroke-width: 0.8; stroke-linejoin: miter; stroke-linecap: square"/>
   </g>
  </g>
 </g>
 <defs>
  <clipPath id="p3b4b5d6075">
   <rect x="57.6" y="41.472" width="357.12" height="266.112"/>
  </clipPath>
 </defs>
</svg>
