<?xml version="1.0" encoding="utf-8" standalone="no"?>
<!DOCTYPE svg PUBLIC "-//W3C//DTD SVG 1.1//EN"
  "http://www.w3.org/Graphics/SVG/1.1/DTD/svg11.dtd">
<svg xmlns:xlink="http://www.w3.org/1999/xlink" width="720pt" height="432pt" viewBox="0 0 720 432" xmlns="http://www.w3.org/2000/svg" version="1.1">
 <metadata>
  <rdf:RDF xmlns:dc="http://purl.org/dc/elements/1.1/" xmlns:cc="http://creativecommons.org/ns#" xmlns:rdf="http://www.w3.org/1999/02/22-rdf-syntax-ns#">
   <cc:Work>
    <dc:type rdf:resource="http://purl.org/dc/dcmitype/StillImage"/>
    <dc:date>2023-11-09T18:27:40.783855</dc:date>
    <dc:format>image/svg+xml</dc:format>
    <dc:creator>
     <cc:Agent>
      <dc:title>Matplotlib v3.7.1, https://matplotlib.org/</dc:title>
     </cc:Agent>
    </dc:creator>
   </cc:Work>
  </rdf:RDF>
 </metadata>
 <defs>
  <style type="text/css">*{stroke-linejoin: round; stroke-linecap: butt}</style>
 </defs>
 <g id="figure_1">
  <g id="patch_1">
   <path d="M 0 432 
L 720 432 
L 720 0 
L 0 0 
z
" style="fill: #ffffff"/>
  </g>
  <g id="axes_1">
   <g id="patch_2">
    <path d="M 90 384.48 
L 648 384.48 
L 648 51.84 
L 90 51.84 
z
" style="fill: #ffffff"/>
   </g>
   <g id="patch_3">
    <path d="M 183 384.48 
L 245 384.48 
L 245 51.84 
L 183 51.84 
z
" clip-path="url(#p9c73efc723)" style="fill: #ffd700; opacity: 0.35; stroke: #ffffff; stroke-width: 0.8; stroke-linejoin: miter"/>
   </g>
   <g id="line2d_1">
    <path d="M 90 384.48 
L 648 384.48 
" clip-path="url(#p9c73efc723)" style="fill: none; stroke: #000000; stroke-width: 0.5; stroke-linecap: round"/>
   </g>
   <g id="patch_4">
    <path d="M 178.35 384.460389 
Q 173.035119 384.467985 167.318669 384.4718 
Q 161.602219 384.475581 155.507822 384.475581 
Q 141.736374 384.475581 133.693187 384.452966 
Q 125.65 384.430351 125.65 384.391676 
Q 125.65 384.35255 133.834917 384.330108 
Q 142.031645 384.307666 156.287338 384.307666 
Q 161.779381 384.307666 166.810802 384.310718 
Q 171.854034 384.313736 176.318534 384.319702 
L 176.318534 384.353174 
Q 171.712304 384.345508 167.153317 384.341728 
Q 162.59433 384.337912 158.011721 384.337912 
Q 149.531533 384.337912 144.937113 384.351856 
Q 140.342694 384.365765 140.342694 384.391676 
Q 140.342694 384.417343 144.771762 384.431356 
Q 149.200829 384.445335 157.350314 384.445335 
Q 159.570753 384.445335 161.472299 384.444537 
Q 163.373846 384.443705 164.885634 384.44197 
L 164.885634 384.410545 
L 156.204662 384.410545 
L 156.204662 384.382553 
L 178.35 384.382553 
L 178.35 384.460389 
z
" clip-path="url(#p9c73efc723)" style="fill: #787800"/>
   </g>
   <g id="patch_5">
    <path d="M 140.091481 383.871431 
L 140.091481 384.188381 
L 145.265444 384.188381 
Q 154.112802 384.188381 158.782574 384.147635 
Q 163.464351 384.106889 163.464351 384.029294 
Q 163.464351 383.952144 158.806583 383.911843 
Q 154.16082 383.871431 145.265444 383.871431 
L 140.091481 383.871431 
z
M 125.65 383.770123 
L 140.871777 383.770123 
Q 153.63262 383.770123 159.874989 383.787045 
Q 166.117358 383.803855 170.583052 383.844267 
Q 174.520547 383.879447 176.429271 383.925425 
Q 178.35 383.971292 178.35 384.029294 
Q 178.35 384.088186 176.429271 384.134275 
Q 174.520547 384.180365 170.583052 384.215433 
Q 166.081344 384.255845 159.778952 384.272767 
Q 153.47656 384.289577 140.871777 384.289577 
L 125.65 384.289577 
L 125.65 383.770123 
z
" clip-path="url(#p9c73efc723)" style="fill: #6b296b"/>
   </g>
   <g id="patch_6">
    <path d="M 153.405333 383.557664 
L 152.373292 383.557664 
Q 139.714313 383.557664 132.676667 383.430982 
Q 125.65 383.304102 125.65 383.077983 
Q 125.65 382.852263 132.665687 382.724387 
Q 139.681375 382.596313 152 382.596313 
Q 164.450375 382.596313 171.400188 382.723194 
Q 178.35 382.849876 178.35 383.077983 
Q 178.35 383.234496 174.661 383.347655 
Q 170.972 383.460813 164.044146 383.51789 
L 174.364563 383.726706 
L 161.771458 383.726706 
L 153.405333 383.557664 
z
M 152 382.76973 
Q 145.961458 382.76973 142.634771 382.850473 
Q 139.308083 382.931215 139.308083 383.077983 
Q 139.308083 383.227138 142.557917 383.306488 
Q 145.818729 383.385639 152 383.385639 
Q 158.071479 383.385639 161.398167 383.304897 
Q 164.724854 383.223956 164.724854 383.077983 
Q 164.724854 382.931215 161.398167 382.850473 
Q 158.071479 382.76973 152 382.76973 
z
" clip-path="url(#p9c73efc723)" style="fill: #40ba47"/>
   </g>
   <g id="patch_7">
    <path d="M 125.65 380.885429 
L 141.195992 380.885429 
L 151.979692 381.762018 
L 162.83447 380.885429 
L 178.35 380.885429 
L 178.35 382.52346 
L 166.80474 382.52346 
L 166.80474 381.325303 
L 155.889037 382.208562 
L 148.141426 382.208562 
L 137.225723 381.325303 
L 137.225723 382.52346 
L 125.65 382.52346 
L 125.65 380.885429 
z
" clip-path="url(#p9c73efc723)" style="fill: #21599c"/>
   </g>
   <g id="patch_8">
    <path d="M 125.65 378.640117 
L 140.813382 378.640117 
L 140.813382 379.45776 
L 163.186618 379.45776 
L 163.186618 378.640117 
L 178.35 378.640117 
L 178.35 380.785856 
L 163.186618 380.785856 
L 163.186618 379.876239 
L 140.813382 379.876239 
L 140.813382 380.785856 
L 125.65 380.785856 
L 125.65 378.640117 
z
" clip-path="url(#p9c73efc723)" style="fill: #177875"/>
   </g>
   <g id="patch_9">
    <path d="M 173.955948 374.959718 
L 173.955948 375.715501 
Q 168.459804 375.583928 163.221293 375.517376 
Q 157.997094 375.450059 153.34541 375.450059 
Q 147.176562 375.450059 144.213797 375.54109 
Q 141.265345 375.631355 141.265345 375.822596 
Q 141.265345 375.966409 143.254834 376.04673 
Q 145.244324 376.126287 150.482835 376.183659 
L 157.811027 376.26245 
Q 168.946442 376.382549 173.641065 376.626573 
Q 178.35 376.869831 178.35 377.319629 
Q 178.35 377.909416 171.794704 378.197807 
Q 165.239408 378.486198 151.770994 378.486198 
Q 145.430391 378.486198 139.032537 378.421176 
Q 132.634682 378.35692 126.236828 378.229936 
L 126.236828 377.453498 
Q 132.634682 377.634794 138.60315 377.727355 
Q 144.571619 377.81915 150.125014 377.81915 
Q 155.764286 377.81915 158.755676 377.71894 
Q 161.747067 377.617965 161.747067 377.431314 
Q 161.747067 377.264552 159.714639 377.173521 
Q 157.682211 377.082491 151.59924 377.010584 
L 144.929441 376.931793 
Q 134.910429 376.817048 130.273058 376.56614 
Q 125.65 376.315232 125.65 375.889913 
Q 125.65 375.356733 132.090793 375.069872 
Q 138.531586 374.783011 150.611651 374.783011 
Q 156.122108 374.783011 161.933134 374.827379 
Q 167.744161 374.871747 173.955948 374.959718 
z
" clip-path="url(#p9c73efc723)" style="fill: #40ba47"/>
   </g>
   <g id="patch_10">
    <path d="M 125.65 370.6654 
L 153.043021 370.6654 
Q 165.271068 370.6654 171.803672 370.997839 
Q 178.35 371.329439 178.35 371.943109 
Q 178.35 372.560137 171.803672 372.891737 
Q 165.271068 373.223337 153.043021 373.223337 
L 142.159922 373.223337 
L 142.159922 374.582478 
L 125.65 374.582478 
L 125.65 370.6654 
z
M 142.159922 371.397438 
L 142.159922 372.491299 
L 151.286354 372.491299 
Q 156.08974 372.491299 158.711016 372.348585 
Q 161.332292 372.205871 161.332292 371.943109 
Q 161.332292 371.681187 158.711016 371.539313 
Q 156.08974 371.397438 151.286354 371.397438 
L 142.159922 371.397438 
z
" clip-path="url(#p9c73efc723)" style="fill: #787800"/>
   </g>
   <g id="patch_11">
    <path d="M 162.155336 369.032518 
L 141.887763 369.032518 
L 138.68762 370.369221 
L 125.65 370.369221 
L 144.269015 363.03151 
L 159.730985 363.03151 
L 178.35 370.369221 
L 165.323155 370.369221 
L 162.155336 369.032518 
z
M 145.120231 367.670654 
L 158.890544 367.670654 
L 152.016162 364.751925 
L 145.120231 367.670654 
z
" clip-path="url(#p9c73efc723)" style="fill: #21599c"/>
   </g>
   <g id="patch_12">
    <path d="M 125.65 354.791014 
L 139.537864 354.791014 
L 139.537864 357.652848 
L 159.555783 354.791014 
L 175.683253 354.791014 
L 149.743078 358.504844 
L 178.35 362.632069 
L 160.964195 362.632069 
L 139.537864 359.543372 
L 139.537864 362.632069 
L 125.65 362.632069 
L 125.65 354.791014 
z
" clip-path="url(#p9c73efc723)" style="fill: #bd2e1f"/>
   </g>
   <g id="patch_13">
    <path d="M 125.65 346.136107 
L 178.35 346.136107 
L 178.35 347.741563 
L 159.390256 347.741563 
L 159.390256 354.368041 
L 144.646512 354.368041 
L 144.646512 347.741563 
L 125.65 347.741563 
L 125.65 346.136107 
z
" clip-path="url(#p9c73efc723)" style="fill: #40ba47"/>
   </g>
   <g id="patch_14">
    <path d="M 125.65 337.099981 
L 177.253077 337.099981 
L 177.253077 338.775925 
L 144.774615 338.775925 
L 144.774615 340.374517 
L 175.329487 340.374517 
L 175.329487 342.050461 
L 144.774615 342.050461 
L 144.774615 344.019234 
L 178.35 344.019234 
L 178.35 345.693336 
L 125.65 345.693336 
L 125.65 337.099981 
z
" clip-path="url(#p9c73efc723)" style="fill: #6b296b"/>
   </g>
   <g id="patch_15">
    <path d="M 147.032787 331.378879 
Q 151.762274 331.378879 153.814221 331.096029 
Q 155.866168 330.811158 155.866168 330.160601 
Q 155.866168 329.516105 153.814221 329.239315 
Q 151.762274 328.960505 147.032787 328.960505 
L 140.701781 328.960505 
L 140.701781 331.378879 
L 147.032787 331.378879 
z
M 140.701781 333.057801 
L 140.701781 336.625761 
L 125.65 336.625761 
L 125.65 327.198749 
L 148.634307 327.198749 
Q 160.170252 327.198749 165.537844 327.825062 
Q 170.917949 328.449354 170.917949 329.800976 
Q 170.917949 330.734384 168.11529 331.334431 
Q 165.325142 331.934479 159.694801 332.21935 
Q 162.785233 332.332491 165.225047 332.734543 
Q 167.677374 333.134575 170.179748 333.948781 
L 178.35 336.625761 
L 162.322293 336.625761 
L 155.203039 334.284161 
Q 153.050997 333.577034 150.836396 333.318428 
Q 148.634307 333.057801 144.955817 333.057801 
L 140.701781 333.057801 
z
" clip-path="url(#p9c73efc723)" style="fill: #bd2e1f"/>
   </g>
   <g id="patch_16">
    <path d="M 224.155336 376.881082 
L 203.887763 376.881082 
L 200.68762 383.520833 
L 187.65 383.520833 
L 206.269015 347.072503 
L 221.730985 347.072503 
L 240.35 383.520833 
L 227.323155 383.520833 
L 224.155336 376.881082 
z
M 207.120231 370.116347 
L 220.890544 370.116347 
L 214.016162 355.618254 
L 207.120231 370.116347 
z
" clip-path="url(#p9c73efc723)" style="fill: #21599c"/>
   </g>
   <g id="patch_17">
    <path d="M 187.65 59.196833 
L 215.043021 59.196833 
Q 227.271068 59.196833 233.803672 82.922858 
Q 240.35 106.588968 240.35 150.38625 
Q 240.35 194.423189 233.803672 218.089299 
Q 227.271068 241.755409 215.043021 241.755409 
L 204.159922 241.755409 
L 204.159922 338.756503 
L 187.65 338.756503 
L 187.65 59.196833 
z
M 204.159922 111.442018 
L 204.159922 189.510224 
L 213.286354 189.510224 
Q 218.08974 189.510224 220.711016 179.32481 
Q 223.332292 169.139395 223.332292 150.38625 
Q 223.332292 131.693019 220.711016 121.567518 
Q 218.08974 111.442018 213.286354 111.442018 
L 204.159922 111.442018 
z
" clip-path="url(#p9c73efc723)" style="fill: #787800"/>
   </g>
   <g id="patch_18">
    <path d="M 277.405333 384.236293 
L 276.373292 384.236293 
Q 263.714313 384.236293 256.676667 384.080986 
Q 249.65 383.925435 249.65 383.648223 
Q 249.65 383.371499 256.665687 383.214729 
Q 263.681375 383.057716 276 383.057716 
Q 288.450375 383.057716 295.400188 383.213266 
Q 302.35 383.368573 302.35 383.648223 
Q 302.35 383.840102 298.661 383.978829 
Q 294.972 384.117557 288.044146 384.187531 
L 298.364562 384.443531 
L 285.771458 384.443531 
L 277.405333 384.236293 
z
M 276 383.270318 
Q 269.961458 383.270318 266.634771 383.369305 
Q 263.308083 383.468291 263.308083 383.648223 
Q 263.308083 383.831081 266.557917 383.928361 
Q 269.818729 384.025397 276 384.025397 
Q 282.071479 384.025397 285.398167 383.92641 
Q 288.724854 383.82718 288.724854 383.648223 
Q 288.724854 383.468291 285.398167 383.369305 
Q 282.071479 383.270318 276 383.270318 
z
" clip-path="url(#p9c73efc723)" style="fill: #40ba47"/>
   </g>
   <g id="patch_19">
    <path d="M 249.65 380.53708 
L 264.813382 380.53708 
L 264.813382 381.459411 
L 287.186618 381.459411 
L 287.186618 380.53708 
L 302.35 380.53708 
L 302.35 382.95755 
L 287.186618 382.95755 
L 287.186618 381.93147 
L 264.813382 381.93147 
L 264.813382 382.95755 
L 249.65 382.95755 
L 249.65 380.53708 
z
" clip-path="url(#p9c73efc723)" style="fill: #177875"/>
   </g>
   <g id="patch_20">
    <path d="M 249.65 374.914303 
L 265.195992 374.914303 
L 275.979692 377.812953 
L 286.83447 374.914303 
L 302.35 374.914303 
L 302.35 380.330843 
L 290.80474 380.330843 
L 290.80474 376.368851 
L 279.889037 379.289558 
L 272.141426 379.289558 
L 261.225723 376.368851 
L 261.225723 380.330843 
L 249.65 380.330843 
L 249.65 374.914303 
z
" clip-path="url(#p9c73efc723)" style="fill: #21599c"/>
   </g>
   <g id="patch_21">
    <path d="M 286.155336 372.234262 
L 265.887763 372.234262 
L 262.68762 374.451468 
L 249.65 374.451468 
L 268.269015 362.280312 
L 283.730985 362.280312 
L 302.35 374.451468 
L 289.323155 374.451468 
L 286.155336 372.234262 
z
M 269.120231 369.975321 
L 282.890544 369.975321 
L 276.016162 365.133986 
L 269.120231 369.975321 
z
" clip-path="url(#p9c73efc723)" style="fill: #21599c"/>
   </g>
   <g id="patch_22">
    <path d="M 249.65 343.05206 
L 263.537864 343.05206 
L 263.537864 349.77615 
L 283.555783 343.05206 
L 299.683253 343.05206 
L 273.743078 351.777978 
L 302.35 361.475199 
L 284.964195 361.475199 
L 263.537864 354.218077 
L 263.537864 361.475199 
L 249.65 361.475199 
L 249.65 343.05206 
z
" clip-path="url(#p9c73efc723)" style="fill: #bd2e1f"/>
   </g>
   <g id="patch_23">
    <path d="M 297.955948 312.229916 
L 297.955948 318.556869 
Q 292.459804 317.455416 287.221293 316.898285 
Q 281.997094 316.334751 277.34541 316.334751 
Q 271.176562 316.334751 268.213797 317.096803 
Q 265.265345 317.852451 265.265345 319.453401 
Q 265.265345 320.657315 267.254834 321.329714 
Q 269.244324 321.995709 274.482835 322.475994 
L 281.811027 323.135586 
Q 292.946442 324.140982 297.641065 326.183794 
Q 302.35 328.220202 302.35 331.985636 
Q 302.35 336.922965 295.794704 339.337198 
Q 289.239408 341.75143 275.770994 341.75143 
Q 269.430391 341.75143 263.032537 341.207107 
Q 256.634682 340.669188 250.236828 339.606157 
L 250.236828 333.106301 
Q 256.634682 334.624001 262.60315 335.398861 
Q 268.571619 336.167317 274.125014 336.167317 
Q 279.764286 336.167317 282.755676 335.328419 
Q 285.747067 334.483118 285.747067 332.920591 
Q 285.747067 331.524563 283.714639 330.762511 
Q 281.682211 330.000458 275.59924 329.398501 
L 268.929441 328.73891 
Q 258.910429 327.77834 254.273058 325.677894 
Q 249.65 323.577448 249.65 320.016936 
Q 249.65 315.553487 256.090793 313.152063 
Q 262.531586 310.750638 274.611651 310.750638 
Q 280.122108 310.750638 285.933134 311.122058 
Q 291.744161 311.493479 297.955948 312.229916 
z
" clip-path="url(#p9c73efc723)" style="fill: #40ba47"/>
   </g>
   <g id="patch_24">
    <path d="M 271.032787 287.259588 
Q 275.762274 287.259588 277.814221 286.09239 
Q 279.866168 284.916855 279.866168 282.232299 
Q 279.866168 279.572754 277.814221 278.430567 
Q 275.762274 277.280043 271.032787 277.280043 
L 264.701781 277.280043 
L 264.701781 287.259588 
L 271.032787 287.259588 
z
M 264.701781 294.187744 
L 264.701781 308.911116 
L 249.65 308.911116 
L 249.65 270.010065 
L 272.634307 270.010065 
Q 284.170252 270.010065 289.537844 272.594576 
Q 294.917949 275.170749 294.917949 280.748289 
Q 294.917949 284.600044 292.11529 287.076171 
Q 289.325142 289.552299 283.694801 290.727834 
Q 286.785233 291.194714 289.225047 292.853803 
Q 291.677374 294.504555 294.179748 297.864418 
L 302.35 308.911116 
L 286.322293 308.911116 
L 279.203039 299.248382 
Q 277.050997 296.330386 274.836396 295.263233 
Q 272.634307 294.187744 268.955817 294.187744 
L 264.701781 294.187744 
z
" clip-path="url(#p9c73efc723)" style="fill: #bd2e1f"/>
   </g>
   <g id="patch_25">
    <path d="M 311.65 383.39229 
L 327.195992 383.39229 
L 337.979692 383.959451 
L 348.83447 383.39229 
L 364.35 383.39229 
L 364.35 384.45211 
L 352.80474 384.45211 
L 352.80474 383.676893 
L 341.889037 384.248368 
L 334.141426 384.248368 
L 323.225723 383.676893 
L 323.225723 384.45211 
L 311.65 384.45211 
L 311.65 383.39229 
z
" clip-path="url(#p9c73efc723)" style="fill: #21599c"/>
   </g>
   <g id="patch_26">
    <path d="M 339.405333 383.158655 
L 338.373292 383.158655 
Q 325.714313 383.158655 318.676667 383.027541 
Q 311.65 382.89622 311.65 382.66219 
Q 311.65 382.428571 318.665687 382.296221 
Q 325.681375 382.163666 338 382.163666 
Q 350.450375 382.163666 357.400188 382.294986 
Q 364.35 382.426101 364.35 382.66219 
Q 364.35 382.824179 360.661 382.941297 
Q 356.972 383.058415 350.044146 383.117489 
L 360.364563 383.333612 
L 347.771458 383.333612 
L 339.405333 383.158655 
z
M 338 382.343151 
Q 331.961458 382.343151 328.634771 382.426718 
Q 325.308083 382.510286 325.308083 382.66219 
Q 325.308083 382.816563 328.557917 382.89869 
Q 331.818729 382.980611 338 382.980611 
Q 344.071479 382.980611 347.398167 382.897043 
Q 350.724854 382.81327 350.724854 382.66219 
Q 350.724854 382.510286 347.398167 382.426718 
Q 344.071479 382.343151 338 382.343151 
z
" clip-path="url(#p9c73efc723)" style="fill: #40ba47"/>
   </g>
   <g id="patch_27">
    <path d="M 311.65 380.823448 
L 363.253077 380.823448 
L 363.253077 381.072275 
L 330.774615 381.072275 
L 330.774615 381.309618 
L 361.329487 381.309618 
L 361.329487 381.558445 
L 330.774615 381.558445 
L 330.774615 381.850749 
L 364.35 381.850749 
L 364.35 382.099302 
L 311.65 382.099302 
L 311.65 380.823448 
z
" clip-path="url(#p9c73efc723)" style="fill: #6b296b"/>
   </g>
   <g id="patch_28">
    <path d="M 359.955948 377.167872 
L 359.955948 377.923253 
Q 354.459804 377.79175 349.221293 377.725233 
Q 343.997094 377.657952 339.34541 377.657952 
Q 333.176562 377.657952 330.213797 377.748935 
Q 327.265345 377.839152 327.265345 378.030291 
Q 327.265345 378.174027 329.254834 378.254306 
Q 331.244324 378.333819 336.482835 378.391161 
L 343.811027 378.46991 
Q 354.946442 378.589945 359.641065 378.833839 
Q 364.35 379.076967 364.35 379.526526 
Q 364.35 380.115998 357.794704 380.404235 
Q 351.239408 380.692473 337.770994 380.692473 
Q 331.430391 380.692473 325.032537 380.627486 
Q 318.634682 380.563263 312.236828 380.436347 
L 312.236828 379.660323 
Q 318.634682 379.841523 324.60315 379.934034 
Q 330.571619 380.02578 336.125014 380.02578 
Q 341.764286 380.02578 344.755676 379.925624 
Q 347.747067 379.824702 347.747067 379.638151 
Q 347.747067 379.471478 345.714639 379.380496 
Q 343.682211 379.289514 337.59924 379.217645 
L 330.929441 379.138896 
Q 320.910429 379.024213 316.273058 378.773439 
Q 311.65 378.522665 311.65 378.097572 
Q 311.65 377.564677 318.090793 377.277968 
Q 324.531586 376.99126 336.611651 376.99126 
Q 342.122108 376.99126 347.933134 377.035604 
Q 353.744161 377.079949 359.955948 377.167872 
z
" clip-path="url(#p9c73efc723)" style="fill: #40ba47"/>
   </g>
   <g id="patch_29">
    <path d="M 326.091481 372.83186 
L 326.091481 375.813335 
L 331.265444 375.813335 
Q 340.112802 375.813335 344.782574 375.430047 
Q 349.464351 375.04676 349.464351 374.316837 
Q 349.464351 373.591104 344.806583 373.212006 
Q 340.16082 372.83186 331.265444 372.83186 
L 326.091481 372.83186 
z
M 311.65 371.878877 
L 326.871777 371.878877 
Q 339.63262 371.878877 345.874989 372.038056 
Q 352.117358 372.196189 356.583052 372.576335 
Q 360.520547 372.907261 362.429271 373.339768 
Q 364.35 373.771229 364.35 374.316837 
Q 364.35 374.870824 362.429271 375.304379 
Q 360.520547 375.737934 356.583052 376.067813 
Q 352.081344 376.447959 345.778952 376.607138 
Q 339.47656 376.765271 326.871777 376.765271 
L 311.65 376.765271 
L 311.65 371.878877 
z
" clip-path="url(#p9c73efc723)" style="fill: #6b296b"/>
   </g>
   <g id="patch_30">
    <path d="M 348.155336 370.333456 
L 327.887763 370.333456 
L 324.68762 371.571449 
L 311.65 371.571449 
L 330.269015 364.775593 
L 345.730985 364.775593 
L 364.35 371.571449 
L 351.323155 371.571449 
L 348.155336 370.333456 
z
M 331.120231 369.072159 
L 344.890544 369.072159 
L 338.016162 366.368964 
L 331.120231 369.072159 
z
" clip-path="url(#p9c73efc723)" style="fill: #21599c"/>
   </g>
   <g id="patch_31">
    <path d="M 311.65 357.076444 
L 326.813382 357.076444 
L 326.813382 359.868613 
L 349.186618 359.868613 
L 349.186618 357.076444 
L 364.35 357.076444 
L 364.35 364.403927 
L 349.186618 364.403927 
L 349.186618 361.297677 
L 326.813382 361.297677 
L 326.813382 364.403927 
L 311.65 364.403927 
L 311.65 357.076444 
z
" clip-path="url(#p9c73efc723)" style="fill: #177875"/>
   </g>
   <g id="patch_32">
    <path d="M 364.35 356.133474 
Q 359.941736 356.405451 355.174969 356.54302 
Q 350.408201 356.682171 345.216541 356.682171 
Q 329.734505 356.682171 320.692252 355.65119 
Q 311.65 354.620209 311.65 352.857105 
Q 311.65 351.087677 320.692252 350.058277 
Q 329.734505 349.027296 345.216541 349.027296 
Q 350.408201 349.027296 355.174969 349.166447 
Q 359.941736 349.304016 364.35 349.575993 
L 364.35 351.101908 
Q 359.901902 350.741381 355.586584 350.573767 
Q 351.271265 350.406154 346.504497 350.406154 
Q 337.953527 350.406154 333.053981 351.059214 
Q 328.167712 351.710693 328.167712 352.857105 
Q 328.167712 353.998774 333.053981 354.651834 
Q 337.953527 355.303313 346.504497 355.303313 
Q 351.271265 355.303313 355.586584 355.1357 
Q 359.901902 354.966505 364.35 354.605978 
L 364.35 356.133474 
z
" clip-path="url(#p9c73efc723)" style="fill: #6b296b"/>
   </g>
   <g id="patch_33">
    <path d="M 311.65 340.414293 
L 325.537864 340.414293 
L 325.537864 343.405631 
L 345.555783 340.414293 
L 361.683253 340.414293 
L 335.743078 344.296181 
L 364.35 348.610171 
L 346.964195 348.610171 
L 325.537864 345.381705 
L 325.537864 348.610171 
L 311.65 348.610171 
L 311.65 340.414293 
z
" clip-path="url(#p9c73efc723)" style="fill: #bd2e1f"/>
   </g>
   <g id="patch_34">
    <path d="M 311.65 328.571527 
L 328.578032 328.571527 
L 349.968106 336.341063 
L 349.968106 328.571527 
L 364.35 328.571527 
L 364.35 339.900482 
L 347.409364 339.900482 
L 326.01929 332.130945 
L 326.01929 339.900482 
L 311.65 339.900482 
L 311.65 328.571527 
z
" clip-path="url(#p9c73efc723)" style="fill: #40ba47"/>
   </g>
   <g id="patch_35">
    <path d="M 333.032787 319.808613 
Q 337.762274 319.808613 339.814221 319.372892 
Q 341.866168 318.934058 341.866168 317.9319 
Q 341.866168 316.939078 339.814221 316.512694 
Q 337.762274 316.083197 333.032787 316.083197 
L 326.701781 316.083197 
L 326.701781 319.808613 
L 333.032787 319.808613 
z
M 326.701781 322.394929 
L 326.701781 327.891239 
L 311.65 327.891239 
L 311.65 313.369277 
L 334.634307 313.369277 
Q 346.170252 313.369277 351.537844 314.334088 
Q 356.917949 315.295787 356.917949 317.377911 
Q 356.917949 318.815791 354.11529 319.740142 
Q 351.325142 320.664493 345.694801 321.103327 
Q 348.785233 321.277615 351.225047 321.896962 
Q 353.677374 322.513196 356.179748 323.76745 
L 364.35 327.891239 
L 348.322293 327.891239 
L 341.203039 324.284091 
Q 339.050997 323.194788 336.836396 322.796415 
Q 334.634307 322.394929 330.955817 322.394929 
L 326.701781 322.394929 
z
" clip-path="url(#p9c73efc723)" style="fill: #bd2e1f"/>
   </g>
   <g id="patch_36">
    <path d="M 311.65 297.734169 
L 339.043021 297.734169 
Q 351.271068 297.734169 357.803672 298.995483 
Q 364.35 300.253613 364.35 302.581948 
Q 364.35 304.923024 357.803672 306.181153 
Q 351.271068 307.439282 339.043021 307.439282 
L 328.159922 307.439282 
L 328.159922 312.596019 
L 311.65 312.596019 
L 311.65 297.734169 
z
M 328.159922 300.511609 
L 328.159922 304.661842 
L 337.286354 304.661842 
Q 342.08974 304.661842 344.711016 304.120369 
Q 347.332292 303.578896 347.332292 302.581948 
Q 347.332292 301.588185 344.711016 301.049897 
Q 342.08974 300.511609 337.286354 300.511609 
L 328.159922 300.511609 
z
" clip-path="url(#p9c73efc723)" style="fill: #787800"/>
   </g>
   <g id="patch_37">
    <path d="M 373.65 383.820391 
L 389.195992 383.820391 
L 399.979692 384.164329 
L 410.83447 383.820391 
L 426.35 383.820391 
L 426.35 384.463087 
L 414.80474 384.463087 
L 414.80474 383.99298 
L 403.889037 384.339534 
L 396.141426 384.339534 
L 385.225723 383.99298 
L 385.225723 384.463087 
L 373.65 384.463087 
L 373.65 383.820391 
z
" clip-path="url(#p9c73efc723)" style="fill: #21599c"/>
   </g>
   <g id="patch_38">
    <path d="M 373.65 382.772015 
L 388.22 382.772015 
L 399.988929 383.130211 
L 411.746786 382.772015 
L 426.35 382.772015 
L 406.665 383.353571 
L 406.665 383.777031 
L 393.346071 383.777031 
L 393.346071 383.353571 
L 373.65 382.772015 
z
" clip-path="url(#p9c73efc723)" style="fill: #177875"/>
   </g>
   <g id="patch_39">
    <path d="M 421.955948 381.588917 
L 421.955948 381.83014 
Q 416.459804 381.788146 411.221293 381.766904 
Q 405.997094 381.745419 401.34541 381.745419 
Q 395.176562 381.745419 392.213797 381.774473 
Q 389.265345 381.803283 389.265345 381.864322 
Q 389.265345 381.910222 391.254834 381.935858 
Q 393.244324 381.96125 398.482835 381.979562 
L 405.811027 382.00471 
Q 416.946442 382.043042 421.641065 382.120927 
Q 426.35 382.198567 426.35 382.34213 
Q 426.35 382.530372 419.794704 382.622418 
Q 413.239408 382.714464 399.770994 382.714464 
Q 393.430391 382.714464 387.032537 382.69371 
Q 380.634682 382.673202 374.236828 382.632672 
L 374.236828 382.384856 
Q 380.634682 382.442721 386.60315 382.472263 
Q 392.571619 382.501562 398.125014 382.501562 
Q 403.764286 382.501562 406.755676 382.469578 
Q 409.747067 382.437349 409.747067 382.377776 
Q 409.747067 382.324551 407.714639 382.295496 
Q 405.682211 382.266442 399.59924 382.243492 
L 392.929441 382.218344 
Q 382.910429 382.181721 378.273058 382.101639 
Q 373.65 382.021556 373.65 381.885807 
Q 373.65 381.715632 380.090793 381.624075 
Q 386.531586 381.532517 398.611651 381.532517 
Q 404.122108 381.532517 409.933134 381.546678 
Q 415.744161 381.560839 421.955948 381.588917 
z
" clip-path="url(#p9c73efc723)" style="fill: #40ba47"/>
   </g>
   <g id="patch_40">
    <path d="M 390.437692 371.574396 
L 409.562308 371.574396 
L 409.562308 381.246874 
L 390.437692 381.246874 
L 390.437692 371.574396 
z
" clip-path="url(#p9c73efc723)" style="fill: #21599c"/>
   </g>
   <g id="patch_41">
    <path d="M 373.65 360.186596 
L 386.68762 360.186596 
L 400.016162 368.193411 
L 413.323155 360.186596 
L 426.35 360.186596 
L 407.730985 371.034389 
L 392.269015 371.034389 
L 373.65 360.186596 
z
" clip-path="url(#p9c73efc723)" style="fill: #21599c"/>
   </g>
   <g id="patch_42">
    <path d="M 401.405333 357.886683 
L 400.373292 357.886683 
Q 387.714313 357.886683 380.676667 356.602941 
Q 373.65 355.317184 373.65 353.025796 
Q 373.65 350.738438 380.665687 349.442604 
Q 387.681375 348.144756 400 348.144756 
Q 412.450375 348.144756 419.400188 349.430513 
Q 426.35 350.714254 426.35 353.025796 
Q 426.35 354.611831 422.661 355.758533 
Q 418.972 356.905235 412.044146 357.483624 
L 422.364563 359.599682 
L 409.771458 359.599682 
L 401.405333 357.886683 
z
M 400 349.902091 
Q 393.961458 349.902091 390.634771 350.7203 
Q 387.308083 351.538509 387.308083 353.025796 
Q 387.308083 354.537266 390.557917 355.341368 
Q 393.818729 356.143454 400 356.143454 
Q 406.071479 356.143454 409.398167 355.325245 
Q 412.724854 354.505021 412.724854 353.025796 
Q 412.724854 351.538509 409.398167 350.7203 
Q 406.071479 349.902091 400 349.902091 
z
" clip-path="url(#p9c73efc723)" style="fill: #40ba47"/>
   </g>
   <g id="patch_43">
    <path d="M 373.65 245.039366 
L 392.774615 245.039366 
L 392.774615 325.693239 
L 426.35 325.693239 
L 426.35 345.207312 
L 373.65 345.207312 
L 373.65 245.039366 
z
" clip-path="url(#p9c73efc723)" style="fill: #21599c"/>
   </g>
   <g id="patch_44">
    <path d="M 435.65 384.471296 
L 487.253077 384.471296 
L 487.253077 384.47295 
L 454.774615 384.47295 
L 454.774615 384.474528 
L 485.329487 384.474528 
L 485.329487 384.476182 
L 454.774615 384.476182 
L 454.774615 384.478125 
L 488.35 384.478125 
L 488.35 384.479777 
L 435.65 384.479777 
L 435.65 384.471296 
z
" clip-path="url(#p9c73efc723)" style="fill: #6b296b"/>
   </g>
   <g id="patch_45">
    <path d="M 463.405333 384.410684 
L 462.373292 384.410684 
Q 449.714313 384.410684 442.676667 384.372201 
Q 435.65 384.333657 435.65 384.264966 
Q 435.65 384.196397 442.665687 384.157551 
Q 449.681375 384.118644 462 384.118644 
Q 474.450375 384.118644 481.400187 384.157188 
Q 488.35 384.195672 488.35 384.264966 
Q 488.35 384.312512 484.661 384.346887 
Q 480.972 384.381263 474.044146 384.398602 
L 484.364562 384.462036 
L 471.771458 384.462036 
L 463.405333 384.410684 
z
M 462 384.171325 
Q 455.961458 384.171325 452.634771 384.195853 
Q 449.308083 384.220381 449.308083 384.264966 
Q 449.308083 384.310277 452.557917 384.334382 
Q 455.818729 384.358426 462 384.358426 
Q 468.071479 384.358426 471.398167 384.333898 
Q 474.724854 384.30931 474.724854 384.264966 
Q 474.724854 384.220381 471.398167 384.195853 
Q 468.071479 384.171325 462 384.171325 
z
" clip-path="url(#p9c73efc723)" style="fill: #40ba47"/>
   </g>
   <g id="patch_46">
    <path d="M 435.65 382.856167 
L 488.35 382.856167 
L 488.35 383.094355 
L 469.390256 383.094355 
L 469.390256 384.077468 
L 454.646512 384.077468 
L 454.646512 383.094355 
L 435.65 383.094355 
L 435.65 382.856167 
z
" clip-path="url(#p9c73efc723)" style="fill: #40ba47"/>
   </g>
   <g id="patch_47">
    <path d="M 436.198462 380.869462 
L 487.801538 380.869462 
L 487.801538 381.240883 
L 455.323077 381.240883 
L 455.323077 381.59516 
L 485.877949 381.59516 
L 485.877949 381.966581 
L 455.323077 381.966581 
L 455.323077 382.77391 
L 436.198462 382.77391 
L 436.198462 380.869462 
z
" clip-path="url(#p9c73efc723)" style="fill: #21599c"/>
   </g>
   <g id="patch_48">
    <path d="M 435.65 378.641899 
L 451.195992 378.641899 
L 461.979692 379.777276 
L 472.83447 378.641899 
L 488.35 378.641899 
L 488.35 380.763513 
L 476.80474 380.763513 
L 476.80474 379.211634 
L 465.889037 380.35565 
L 458.141426 380.35565 
L 447.225723 379.211634 
L 447.225723 380.763513 
L 435.65 380.763513 
L 435.65 378.641899 
z
" clip-path="url(#p9c73efc723)" style="fill: #21599c"/>
   </g>
   <g id="patch_49">
    <path d="M 472.155336 377.742397 
L 451.887763 377.742397 
L 448.68762 378.479576 
L 435.65 378.479576 
L 454.269015 374.432898 
L 469.730985 374.432898 
L 488.35 378.479576 
L 475.323155 378.479576 
L 472.155336 377.742397 
z
M 455.120231 376.991342 
L 468.890544 376.991342 
L 462.016162 375.38169 
L 455.120231 376.991342 
z
" clip-path="url(#p9c73efc723)" style="fill: #21599c"/>
   </g>
   <g id="patch_50">
    <path d="M 435.65 369.432276 
L 450.22 369.432276 
L 461.988929 371.131857 
L 473.746786 369.432276 
L 488.35 369.432276 
L 468.665 372.191669 
L 468.665 374.200915 
L 455.346071 374.200915 
L 455.346071 372.191669 
L 435.65 369.432276 
z
" clip-path="url(#p9c73efc723)" style="fill: #177875"/>
   </g>
   <g id="patch_51">
    <path d="M 435.65 361.06296 
L 448.68762 361.06296 
L 462.016162 366.991751 
L 475.323155 361.06296 
L 488.35 361.06296 
L 469.730985 369.095405 
L 454.269015 369.095405 
L 435.65 361.06296 
z
" clip-path="url(#p9c73efc723)" style="fill: #21599c"/>
   </g>
   <g id="patch_52">
    <path d="M 452.437692 351.821487 
L 471.562308 351.821487 
L 471.562308 360.620039 
L 452.437692 360.620039 
L 452.437692 351.821487 
z
" clip-path="url(#p9c73efc723)" style="fill: #21599c"/>
   </g>
   <g id="patch_53">
    <path d="M 483.955948 332.456429 
L 483.955948 336.44679 
Q 478.459804 335.752112 473.221293 335.400734 
Q 467.997094 335.045317 463.34541 335.045317 
Q 457.176562 335.045317 454.213797 335.525937 
Q 451.265345 336.002519 451.265345 337.012226 
Q 451.265345 337.771525 453.254834 338.195602 
Q 455.244324 338.61564 460.482835 338.918552 
L 467.811027 339.334551 
Q 478.946442 339.968647 483.641065 341.257033 
Q 488.35 342.54138 488.35 344.91621 
Q 488.35 348.030145 481.794704 349.552783 
Q 475.239408 351.075421 461.770994 351.075421 
Q 455.430391 351.075421 449.032537 350.732121 
Q 442.634682 350.392859 436.236828 349.722414 
L 436.236828 345.623005 
Q 442.634682 346.580207 448.60315 347.068905 
Q 454.571619 347.553564 460.125014 347.553564 
Q 465.764286 347.553564 468.755676 347.024478 
Q 471.747067 346.491352 471.747067 345.505879 
Q 471.747067 344.625414 469.714639 344.144794 
Q 467.682211 343.664174 461.59924 343.284524 
L 454.929441 342.868525 
Q 444.910429 342.262701 440.273058 340.937965 
Q 435.65 339.61323 435.65 337.367642 
Q 435.65 334.55258 442.090793 333.03802 
Q 448.531586 331.52346 460.611651 331.52346 
Q 466.122108 331.52346 471.933134 331.757712 
Q 477.744161 331.991964 483.955948 332.456429 
z
" clip-path="url(#p9c73efc723)" style="fill: #40ba47"/>
   </g>
   <g id="patch_54">
    <path d="M 512.091481 384.164535 
L 512.091481 384.396084 
L 517.265444 384.396084 
Q 526.112802 384.396084 530.782574 384.366317 
Q 535.464351 384.33655 535.464351 384.279862 
Q 535.464351 384.2235 530.806583 384.194058 
Q 526.16082 384.164535 517.265444 384.164535 
L 512.091481 384.164535 
z
M 497.65 384.090524 
L 512.871777 384.090524 
Q 525.63262 384.090524 531.874989 384.102886 
Q 538.117358 384.115167 542.583052 384.14469 
Q 546.520547 384.170391 548.429271 384.20398 
Q 550.35 384.237489 550.35 384.279862 
Q 550.35 384.322886 548.429271 384.356557 
Q 546.520547 384.390228 542.583052 384.415847 
Q 538.081344 384.44537 531.778952 384.457732 
Q 525.47656 384.470013 512.871777 384.470013 
L 497.65 384.470013 
L 497.65 384.090524 
z
" clip-path="url(#p9c73efc723)" style="fill: #6b296b"/>
   </g>
   <g id="patch_55">
    <path d="M 497.65 382.375459 
L 550.35 382.375459 
L 550.35 382.69947 
L 531.390256 382.69947 
L 531.390256 384.036818 
L 516.646512 384.036818 
L 516.646512 382.69947 
L 497.65 382.69947 
L 497.65 382.375459 
z
" clip-path="url(#p9c73efc723)" style="fill: #40ba47"/>
   </g>
   <g id="patch_56">
    <path d="M 497.65 376.876194 
L 510.68762 376.876194 
L 524.016162 380.799711 
L 537.323155 376.876194 
L 550.35 376.876194 
L 531.730985 382.191853 
L 516.269015 382.191853 
L 497.65 376.876194 
z
" clip-path="url(#p9c73efc723)" style="fill: #21599c"/>
   </g>
   <g id="patch_57">
    <path d="M 545.955948 344.891559 
L 545.955948 351.532891 
Q 540.459804 350.376708 535.221293 349.791894 
Q 529.997094 349.200358 525.34541 349.200358 
Q 519.176562 349.200358 516.213797 350.000276 
Q 513.265345 350.793471 513.265345 352.47397 
Q 513.265345 353.737706 515.254834 354.443515 
Q 517.244324 355.142603 522.482835 355.646753 
L 529.811027 356.339118 
Q 540.946442 357.394472 545.641065 359.538788 
Q 550.35 361.676383 550.35 365.628917 
Q 550.35 370.811576 543.794704 373.345768 
Q 537.239408 375.879961 523.770994 375.879961 
Q 517.430391 375.879961 511.032537 375.308591 
Q 504.634682 374.743944 498.236828 373.628092 
L 498.236828 366.805266 
Q 504.634682 368.398379 510.60315 369.211741 
Q 516.571619 370.01838 522.125014 370.01838 
Q 527.764286 370.01838 530.755676 369.137799 
Q 533.747067 368.250495 533.747067 366.610328 
Q 533.747067 365.144933 531.714639 364.345016 
Q 529.682211 363.545098 523.59924 362.91323 
L 516.929441 362.220865 
Q 506.910429 361.212565 502.273058 359.007751 
Q 497.65 356.802936 497.65 353.065506 
Q 497.65 348.380275 504.090793 345.859526 
Q 510.531586 343.338778 522.611651 343.338778 
Q 528.122108 343.338778 533.933134 343.728653 
Q 539.744161 344.118529 545.955948 344.891559 
z
" clip-path="url(#p9c73efc723)" style="fill: #40ba47"/>
   </g>
   <g id="patch_58">
    <path d="M 550.35 337.796013 
Q 545.035119 339.61125 539.318669 340.523013 
Q 533.602219 341.426487 527.507822 341.426487 
Q 513.736374 341.426487 505.693187 336.02222 
Q 497.65 330.617953 497.65 321.375993 
Q 497.65 312.026279 505.834917 306.663455 
Q 514.031645 301.300632 528.287338 301.300632 
Q 533.779381 301.300632 538.810802 302.030042 
Q 543.854034 302.751163 548.318534 304.176829 
L 548.318534 312.175476 
Q 543.712304 310.343662 539.153317 309.440188 
Q 534.59433 308.528425 530.011721 308.528425 
Q 521.531533 308.528425 516.937113 311.860504 
Q 512.342694 315.184294 512.342694 321.375993 
Q 512.342694 327.50967 516.771762 330.858327 
Q 521.200829 334.198694 529.350314 334.198694 
Q 531.570753 334.198694 533.472299 334.008053 
Q 535.373846 333.809123 536.885634 333.394685 
L 536.885634 325.885074 
L 528.204662 325.885074 
L 528.204662 319.19605 
L 550.35 319.19605 
L 550.35 337.796013 
z
" clip-path="url(#p9c73efc723)" style="fill: #787800"/>
   </g>
   <g id="patch_59">
    <path d="M 534.155336 290.903837 
L 513.887763 290.903837 
L 510.68762 299.065648 
L 497.65 299.065648 
L 516.269015 254.26211 
L 531.730985 254.26211 
L 550.35 299.065648 
L 537.323155 299.065648 
L 534.155336 290.903837 
z
M 517.120231 282.588393 
L 530.890544 282.588393 
L 524.016162 264.76684 
L 517.120231 282.588393 
z
" clip-path="url(#p9c73efc723)" style="fill: #21599c"/>
   </g>
   <g id="patch_60">
    <path d="M 559.65 384.31461 
L 574.22 384.31461 
L 585.988929 384.372045 
L 597.746786 384.31461 
L 612.35 384.31461 
L 592.665 384.40786 
L 592.665 384.475759 
L 579.346071 384.475759 
L 579.346071 384.40786 
L 559.65 384.31461 
z
" clip-path="url(#p9c73efc723)" style="fill: #177875"/>
   </g>
   <g id="patch_61">
    <path d="M 559.65 383.253533 
L 612.35 383.253533 
L 612.35 383.454361 
L 593.390256 383.454361 
L 593.390256 384.283271 
L 578.646512 384.283271 
L 578.646512 383.454361 
L 559.65 383.454361 
L 559.65 383.253533 
z
" clip-path="url(#p9c73efc723)" style="fill: #40ba47"/>
   </g>
   <g id="patch_62">
    <path d="M 559.65 380.450284 
L 573.537864 380.450284 
L 573.537864 381.437545 
L 593.555783 380.450284 
L 609.683253 380.450284 
L 583.743078 381.731462 
L 612.35 383.155251 
L 594.964195 383.155251 
L 573.537864 382.089728 
L 573.537864 383.155251 
L 559.65 383.155251 
L 559.65 380.450284 
z
" clip-path="url(#p9c73efc723)" style="fill: #bd2e1f"/>
   </g>
   <g id="patch_63">
    <path d="M 559.65 376.067673 
L 611.253077 376.067673 
L 611.253077 376.886961 
L 578.774615 376.886961 
L 578.774615 377.668436 
L 609.329487 377.668436 
L 609.329487 378.487725 
L 578.774615 378.487725 
L 578.774615 379.450163 
L 612.35 379.450163 
L 612.35 380.268551 
L 559.65 380.268551 
L 559.65 376.067673 
z
" clip-path="url(#p9c73efc723)" style="fill: #6b296b"/>
   </g>
   <g id="patch_64">
    <path d="M 574.091481 372.379853 
L 574.091481 375.00554 
L 579.265444 375.00554 
Q 588.112802 375.00554 592.782574 374.667991 
Q 597.464351 374.330443 597.464351 373.687624 
Q 597.464351 373.048495 592.806583 372.714635 
Q 588.16082 372.379853 579.265444 372.379853 
L 574.091481 372.379853 
z
M 559.65 371.540593 
L 574.871777 371.540593 
Q 587.63262 371.540593 593.874989 371.680777 
Q 600.117358 371.820039 604.583052 372.154821 
Q 608.520547 372.446256 610.429271 372.827152 
Q 612.35 373.207125 612.35 373.687624 
Q 612.35 374.175502 610.429271 374.55732 
Q 608.520547 374.939137 604.583052 375.229651 
Q 600.081344 375.564433 593.778952 375.704617 
Q 587.47656 375.843879 574.871777 375.843879 
L 559.65 375.843879 
L 559.65 371.540593 
z
" clip-path="url(#p9c73efc723)" style="fill: #6b296b"/>
   </g>
   <g id="patch_65">
    <path d="M 559.65 365.884488 
L 575.195992 365.884488 
L 585.979692 368.77468 
L 596.83447 365.884488 
L 612.35 365.884488 
L 612.35 371.285224 
L 600.80474 371.285224 
L 600.80474 367.334793 
L 589.889037 370.246977 
L 582.141426 370.246977 
L 571.225723 367.334793 
L 571.225723 371.285224 
L 559.65 371.285224 
L 559.65 365.884488 
z
" clip-path="url(#p9c73efc723)" style="fill: #21599c"/>
   </g>
   <g id="patch_66">
    <path d="M 607.955948 354.445619 
L 607.955948 356.801594 
Q 602.459804 356.391445 597.221293 356.183985 
Q 591.997094 355.974141 587.34541 355.974141 
Q 581.176562 355.974141 578.213797 356.257908 
Q 575.265345 356.539289 575.265345 357.135437 
Q 575.265345 357.58374 577.254834 357.834122 
Q 579.244324 358.082119 584.482835 358.260963 
L 591.811027 358.506576 
Q 602.946442 358.880957 607.641065 359.641641 
Q 612.35 360.399941 612.35 361.80208 
Q 612.35 363.640599 605.794704 364.539589 
Q 599.239408 365.438579 585.770994 365.438579 
Q 579.430391 365.438579 573.032537 365.235889 
Q 566.634682 365.035584 560.236828 364.639742 
L 560.236828 362.219383 
Q 566.634682 362.784531 572.60315 363.073066 
Q 578.571619 363.359217 584.125014 363.359217 
Q 589.764286 363.359217 592.755676 363.046836 
Q 595.747067 362.73207 595.747067 362.15023 
Q 595.747067 361.630389 593.714639 361.346623 
Q 591.682211 361.062857 585.59924 360.838705 
L 578.929441 360.593092 
Q 568.910429 360.235404 564.273058 359.453258 
Q 559.65 358.671113 559.65 357.345281 
Q 559.65 355.683221 566.090793 354.789 
Q 572.531586 353.894779 584.611651 353.894779 
Q 590.122108 353.894779 595.933134 354.033085 
Q 601.744161 354.171391 607.955948 354.445619 
z
" clip-path="url(#p9c73efc723)" style="fill: #40ba47"/>
   </g>
   <g id="patch_67">
    <path d="M 596.155336 350.219798 
L 575.887763 350.219798 
L 572.68762 353.165468 
L 559.65 353.165468 
L 578.269015 336.995472 
L 593.730985 336.995472 
L 612.35 353.165468 
L 599.323155 353.165468 
L 596.155336 350.219798 
z
M 579.120231 347.21868 
L 592.890544 347.21868 
L 586.016162 340.786722 
L 579.120231 347.21868 
z
" clip-path="url(#p9c73efc723)" style="fill: #21599c"/>
   </g>
   <g id="patch_68">
    <path d="M 559.65 299.455853 
L 587.043021 299.455853 
Q 599.271068 299.455853 605.803672 302.524934 
Q 612.35 305.586264 612.35 311.251663 
Q 612.35 316.948062 605.803672 320.009393 
Q 599.271068 323.070723 587.043021 323.070723 
L 576.159922 323.070723 
L 576.159922 335.618302 
L 559.65 335.618302 
L 559.65 299.455853 
z
M 576.159922 306.214031 
L 576.159922 316.312546 
L 585.286354 316.312546 
Q 590.08974 316.312546 592.711016 314.995011 
Q 595.332292 313.677476 595.332292 311.251663 
Q 595.332292 308.833599 592.711016 307.523815 
Q 590.08974 306.214031 585.286354 306.214031 
L 576.159922 306.214031 
z
" clip-path="url(#p9c73efc723)" style="fill: #787800"/>
   </g>
   <g id="matplotlib.axis_1">
    <g id="xtick_1">
     <g id="line2d_2">
      <defs>
       <path id="mff04b6d868" d="M 0 0 
L 0 4.8 
" style="stroke: #262626"/>
      </defs>
      <g>
       <use xlink:href="#mff04b6d868" x="152" y="384.48" style="fill: #262626; stroke: #262626"/>
      </g>
     </g>
     <g id="text_1">
      <!-- P4 -->
      <g style="fill: #262626" transform="translate(146.61825 399.078875) scale(0.088 -0.088)">
       <defs>
        <path id="ArialMT-50" d="M 494 0 
L 494 4581 
L 2222 4581 
Q 2678 4581 2919 4538 
Q 3256 4481 3484 4323 
Q 3713 4166 3852 3881 
Q 3991 3597 3991 3256 
Q 3991 2672 3619 2267 
Q 3247 1863 2275 1863 
L 1100 1863 
L 1100 0 
L 494 0 
z
M 1100 2403 
L 2284 2403 
Q 2872 2403 3119 2622 
Q 3366 2841 3366 3238 
Q 3366 3525 3220 3729 
Q 3075 3934 2838 4000 
Q 2684 4041 2272 4041 
L 1100 4041 
L 1100 2403 
z
" transform="scale(0.015625)"/>
        <path id="ArialMT-34" d="M 2069 0 
L 2069 1097 
L 81 1097 
L 81 1613 
L 2172 4581 
L 2631 4581 
L 2631 1613 
L 3250 1613 
L 3250 1097 
L 2631 1097 
L 2631 0 
L 2069 0 
z
M 2069 1613 
L 2069 3678 
L 634 1613 
L 2069 1613 
z
" transform="scale(0.015625)"/>
       </defs>
       <use xlink:href="#ArialMT-50"/>
       <use xlink:href="#ArialMT-34" x="66.699219"/>
      </g>
     </g>
    </g>
    <g id="xtick_2">
     <g id="line2d_3">
      <g>
       <use xlink:href="#mff04b6d868" x="214" y="384.48" style="fill: #262626; stroke: #262626"/>
      </g>
     </g>
     <g id="text_2">
      <!-- P3 -->
      <g style="fill: #262626" transform="translate(208.61825 399.078875) scale(0.088 -0.088)">
       <defs>
        <path id="ArialMT-33" d="M 269 1209 
L 831 1284 
Q 928 806 1161 595 
Q 1394 384 1728 384 
Q 2125 384 2398 659 
Q 2672 934 2672 1341 
Q 2672 1728 2419 1979 
Q 2166 2231 1775 2231 
Q 1616 2231 1378 2169 
L 1441 2663 
Q 1497 2656 1531 2656 
Q 1891 2656 2178 2843 
Q 2466 3031 2466 3422 
Q 2466 3731 2256 3934 
Q 2047 4138 1716 4138 
Q 1388 4138 1169 3931 
Q 950 3725 888 3313 
L 325 3413 
Q 428 3978 793 4289 
Q 1159 4600 1703 4600 
Q 2078 4600 2393 4439 
Q 2709 4278 2876 4000 
Q 3044 3722 3044 3409 
Q 3044 3113 2884 2869 
Q 2725 2625 2413 2481 
Q 2819 2388 3044 2092 
Q 3269 1797 3269 1353 
Q 3269 753 2831 336 
Q 2394 -81 1725 -81 
Q 1122 -81 723 278 
Q 325 638 269 1209 
z
" transform="scale(0.015625)"/>
       </defs>
       <use xlink:href="#ArialMT-50"/>
       <use xlink:href="#ArialMT-33" x="66.699219"/>
      </g>
     </g>
    </g>
    <g id="xtick_3">
     <g id="line2d_4">
      <g>
       <use xlink:href="#mff04b6d868" x="276" y="384.48" style="fill: #262626; stroke: #262626"/>
      </g>
     </g>
     <g id="text_3">
      <!-- P2 -->
      <g style="fill: #262626" transform="translate(270.61825 399.078875) scale(0.088 -0.088)">
       <defs>
        <path id="ArialMT-32" d="M 3222 541 
L 3222 0 
L 194 0 
Q 188 203 259 391 
Q 375 700 629 1000 
Q 884 1300 1366 1694 
Q 2113 2306 2375 2664 
Q 2638 3022 2638 3341 
Q 2638 3675 2398 3904 
Q 2159 4134 1775 4134 
Q 1369 4134 1125 3890 
Q 881 3647 878 3216 
L 300 3275 
Q 359 3922 746 4261 
Q 1134 4600 1788 4600 
Q 2447 4600 2831 4234 
Q 3216 3869 3216 3328 
Q 3216 3053 3103 2787 
Q 2991 2522 2730 2228 
Q 2469 1934 1863 1422 
Q 1356 997 1212 845 
Q 1069 694 975 541 
L 3222 541 
z
" transform="scale(0.015625)"/>
       </defs>
       <use xlink:href="#ArialMT-50"/>
       <use xlink:href="#ArialMT-32" x="66.699219"/>
      </g>
     </g>
    </g>
    <g id="xtick_4">
     <g id="line2d_5">
      <g>
       <use xlink:href="#mff04b6d868" x="338" y="384.48" style="fill: #262626; stroke: #262626"/>
      </g>
     </g>
     <g id="text_4">
      <!-- P1 -->
      <g style="fill: #262626" transform="translate(332.61825 399.078875) scale(0.088 -0.088)">
       <defs>
        <path id="ArialMT-31" d="M 2384 0 
L 1822 0 
L 1822 3584 
Q 1619 3391 1289 3197 
Q 959 3003 697 2906 
L 697 3450 
Q 1169 3672 1522 3987 
Q 1875 4303 2022 4600 
L 2384 4600 
L 2384 0 
z
" transform="scale(0.015625)"/>
       </defs>
       <use xlink:href="#ArialMT-50"/>
       <use xlink:href="#ArialMT-31" x="66.699219"/>
      </g>
     </g>
    </g>
    <g id="xtick_5">
     <g id="line2d_6">
      <g>
       <use xlink:href="#mff04b6d868" x="400" y="384.48" style="fill: #262626; stroke: #262626"/>
      </g>
     </g>
     <g id="text_5">
      <!-- P1' -->
      <g style="fill: #262626" transform="translate(393.778125 399.078875) scale(0.088 -0.088)">
       <defs>
        <path id="ArialMT-27" d="M 425 2959 
L 281 3816 
L 281 4581 
L 922 4581 
L 922 3816 
L 772 2959 
L 425 2959 
z
" transform="scale(0.015625)"/>
       </defs>
       <use xlink:href="#ArialMT-50"/>
       <use xlink:href="#ArialMT-31" x="66.699219"/>
       <use xlink:href="#ArialMT-27" x="122.314453"/>
      </g>
     </g>
    </g>
    <g id="xtick_6">
     <g id="line2d_7">
      <g>
       <use xlink:href="#mff04b6d868" x="462" y="384.48" style="fill: #262626; stroke: #262626"/>
      </g>
     </g>
     <g id="text_6">
      <!-- P2' -->
      <g style="fill: #262626" transform="translate(455.778125 399.078875) scale(0.088 -0.088)">
       <use xlink:href="#ArialMT-50"/>
       <use xlink:href="#ArialMT-32" x="66.699219"/>
       <use xlink:href="#ArialMT-27" x="122.314453"/>
      </g>
     </g>
    </g>
    <g id="xtick_7">
     <g id="line2d_8">
      <g>
       <use xlink:href="#mff04b6d868" x="524" y="384.48" style="fill: #262626; stroke: #262626"/>
      </g>
     </g>
     <g id="text_7">
      <!-- P3' -->
      <g style="fill: #262626" transform="translate(517.778125 399.078875) scale(0.088 -0.088)">
       <use xlink:href="#ArialMT-50"/>
       <use xlink:href="#ArialMT-33" x="66.699219"/>
       <use xlink:href="#ArialMT-27" x="122.314453"/>
      </g>
     </g>
    </g>
    <g id="xtick_8">
     <g id="line2d_9">
      <g>
       <use xlink:href="#mff04b6d868" x="586" y="384.48" style="fill: #262626; stroke: #262626"/>
      </g>
     </g>
     <g id="text_8">
      <!-- P4' -->
      <g style="fill: #262626" transform="translate(579.778125 399.078875) scale(0.088 -0.088)">
       <use xlink:href="#ArialMT-50"/>
       <use xlink:href="#ArialMT-34" x="66.699219"/>
       <use xlink:href="#ArialMT-27" x="122.314453"/>
      </g>
     </g>
    </g>
   </g>
   <g id="matplotlib.axis_2">
    <g id="ytick_1">
     <g id="line2d_10">
      <defs>
       <path id="m07c4bd3a82" d="M 0 0 
L -4.8 0 
" style="stroke: #262626"/>
      </defs>
      <g>
       <use xlink:href="#m07c4bd3a82" x="90" y="384.48" style="fill: #262626; stroke: #262626"/>
      </g>
     </g>
     <g id="text_9">
      <!-- 0.0 -->
      <g style="fill: #262626" transform="translate(69.468 387.629437) scale(0.088 -0.088)">
       <defs>
        <path id="ArialMT-30" d="M 266 2259 
Q 266 3072 433 3567 
Q 600 4063 929 4331 
Q 1259 4600 1759 4600 
Q 2128 4600 2406 4451 
Q 2684 4303 2865 4023 
Q 3047 3744 3150 3342 
Q 3253 2941 3253 2259 
Q 3253 1453 3087 958 
Q 2922 463 2592 192 
Q 2263 -78 1759 -78 
Q 1097 -78 719 397 
Q 266 969 266 2259 
z
M 844 2259 
Q 844 1131 1108 757 
Q 1372 384 1759 384 
Q 2147 384 2411 759 
Q 2675 1134 2675 2259 
Q 2675 3391 2411 3762 
Q 2147 4134 1753 4134 
Q 1366 4134 1134 3806 
Q 844 3388 844 2259 
z
" transform="scale(0.015625)"/>
        <path id="ArialMT-2e" d="M 581 0 
L 581 641 
L 1222 641 
L 1222 0 
L 581 0 
z
" transform="scale(0.015625)"/>
       </defs>
       <use xlink:href="#ArialMT-30"/>
       <use xlink:href="#ArialMT-2e" x="55.615234"/>
       <use xlink:href="#ArialMT-30" x="83.398438"/>
      </g>
     </g>
    </g>
    <g id="ytick_2">
     <g id="line2d_11">
      <g>
       <use xlink:href="#m07c4bd3a82" x="90" y="345.163275" style="fill: #262626; stroke: #262626"/>
      </g>
     </g>
     <g id="text_10">
      <!-- 0.2 -->
      <g style="fill: #262626" transform="translate(69.468 348.312712) scale(0.088 -0.088)">
       <use xlink:href="#ArialMT-30"/>
       <use xlink:href="#ArialMT-2e" x="55.615234"/>
       <use xlink:href="#ArialMT-32" x="83.398438"/>
      </g>
     </g>
    </g>
    <g id="ytick_3">
     <g id="line2d_12">
      <g>
       <use xlink:href="#m07c4bd3a82" x="90" y="305.84655" style="fill: #262626; stroke: #262626"/>
      </g>
     </g>
     <g id="text_11">
      <!-- 0.4 -->
      <g style="fill: #262626" transform="translate(69.468 308.995987) scale(0.088 -0.088)">
       <use xlink:href="#ArialMT-30"/>
       <use xlink:href="#ArialMT-2e" x="55.615234"/>
       <use xlink:href="#ArialMT-34" x="83.398438"/>
      </g>
     </g>
    </g>
    <g id="ytick_4">
     <g id="line2d_13">
      <g>
       <use xlink:href="#m07c4bd3a82" x="90" y="266.529825" style="fill: #262626; stroke: #262626"/>
      </g>
     </g>
     <g id="text_12">
      <!-- 0.6 -->
      <g style="fill: #262626" transform="translate(69.468 269.679262) scale(0.088 -0.088)">
       <defs>
        <path id="ArialMT-36" d="M 3184 3459 
L 2625 3416 
Q 2550 3747 2413 3897 
Q 2184 4138 1850 4138 
Q 1581 4138 1378 3988 
Q 1113 3794 959 3422 
Q 806 3050 800 2363 
Q 1003 2672 1297 2822 
Q 1591 2972 1913 2972 
Q 2475 2972 2870 2558 
Q 3266 2144 3266 1488 
Q 3266 1056 3080 686 
Q 2894 316 2569 119 
Q 2244 -78 1831 -78 
Q 1128 -78 684 439 
Q 241 956 241 2144 
Q 241 3472 731 4075 
Q 1159 4600 1884 4600 
Q 2425 4600 2770 4297 
Q 3116 3994 3184 3459 
z
M 888 1484 
Q 888 1194 1011 928 
Q 1134 663 1356 523 
Q 1578 384 1822 384 
Q 2178 384 2434 671 
Q 2691 959 2691 1453 
Q 2691 1928 2437 2201 
Q 2184 2475 1800 2475 
Q 1419 2475 1153 2201 
Q 888 1928 888 1484 
z
" transform="scale(0.015625)"/>
       </defs>
       <use xlink:href="#ArialMT-30"/>
       <use xlink:href="#ArialMT-2e" x="55.615234"/>
       <use xlink:href="#ArialMT-36" x="83.398438"/>
      </g>
     </g>
    </g>
    <g id="ytick_5">
     <g id="line2d_14">
      <g>
       <use xlink:href="#m07c4bd3a82" x="90" y="227.2131" style="fill: #262626; stroke: #262626"/>
      </g>
     </g>
     <g id="text_13">
      <!-- 0.8 -->
      <g style="fill: #262626" transform="translate(69.468 230.362537) scale(0.088 -0.088)">
       <defs>
        <path id="ArialMT-38" d="M 1131 2484 
Q 781 2613 612 2850 
Q 444 3088 444 3419 
Q 444 3919 803 4259 
Q 1163 4600 1759 4600 
Q 2359 4600 2725 4251 
Q 3091 3903 3091 3403 
Q 3091 3084 2923 2848 
Q 2756 2613 2416 2484 
Q 2838 2347 3058 2040 
Q 3278 1734 3278 1309 
Q 3278 722 2862 322 
Q 2447 -78 1769 -78 
Q 1091 -78 675 323 
Q 259 725 259 1325 
Q 259 1772 486 2073 
Q 713 2375 1131 2484 
z
M 1019 3438 
Q 1019 3113 1228 2906 
Q 1438 2700 1772 2700 
Q 2097 2700 2305 2904 
Q 2513 3109 2513 3406 
Q 2513 3716 2298 3927 
Q 2084 4138 1766 4138 
Q 1444 4138 1231 3931 
Q 1019 3725 1019 3438 
z
M 838 1322 
Q 838 1081 952 856 
Q 1066 631 1291 507 
Q 1516 384 1775 384 
Q 2178 384 2440 643 
Q 2703 903 2703 1303 
Q 2703 1709 2433 1975 
Q 2163 2241 1756 2241 
Q 1359 2241 1098 1978 
Q 838 1716 838 1322 
z
" transform="scale(0.015625)"/>
       </defs>
       <use xlink:href="#ArialMT-30"/>
       <use xlink:href="#ArialMT-2e" x="55.615234"/>
       <use xlink:href="#ArialMT-38" x="83.398438"/>
      </g>
     </g>
    </g>
    <g id="ytick_6">
     <g id="line2d_15">
      <g>
       <use xlink:href="#m07c4bd3a82" x="90" y="187.896375" style="fill: #262626; stroke: #262626"/>
      </g>
     </g>
     <g id="text_14">
      <!-- 1.0 -->
      <g style="fill: #262626" transform="translate(69.468 191.045812) scale(0.088 -0.088)">
       <use xlink:href="#ArialMT-31"/>
       <use xlink:href="#ArialMT-2e" x="55.615234"/>
       <use xlink:href="#ArialMT-30" x="83.398438"/>
      </g>
     </g>
    </g>
    <g id="ytick_7">
     <g id="line2d_16">
      <g>
       <use xlink:href="#m07c4bd3a82" x="90" y="148.57965" style="fill: #262626; stroke: #262626"/>
      </g>
     </g>
     <g id="text_15">
      <!-- 1.2 -->
      <g style="fill: #262626" transform="translate(69.468 151.729087) scale(0.088 -0.088)">
       <use xlink:href="#ArialMT-31"/>
       <use xlink:href="#ArialMT-2e" x="55.615234"/>
       <use xlink:href="#ArialMT-32" x="83.398438"/>
      </g>
     </g>
    </g>
    <g id="ytick_8">
     <g id="line2d_17">
      <g>
       <use xlink:href="#m07c4bd3a82" x="90" y="109.262925" style="fill: #262626; stroke: #262626"/>
      </g>
     </g>
     <g id="text_16">
      <!-- 1.4 -->
      <g style="fill: #262626" transform="translate(69.468 112.412362) scale(0.088 -0.088)">
       <use xlink:href="#ArialMT-31"/>
       <use xlink:href="#ArialMT-2e" x="55.615234"/>
       <use xlink:href="#ArialMT-34" x="83.398438"/>
      </g>
     </g>
    </g>
    <g id="ytick_9">
     <g id="line2d_18">
      <g>
       <use xlink:href="#m07c4bd3a82" x="90" y="69.9462" style="fill: #262626; stroke: #262626"/>
      </g>
     </g>
     <g id="text_17">
      <!-- 1.6 -->
      <g style="fill: #262626" transform="translate(69.468 73.095637) scale(0.088 -0.088)">
       <use xlink:href="#ArialMT-31"/>
       <use xlink:href="#ArialMT-2e" x="55.615234"/>
       <use xlink:href="#ArialMT-36" x="83.398438"/>
      </g>
     </g>
    </g>
    <g id="text_18">
     <!-- information (bits) -->
     <g style="fill: #262626" transform="translate(63.4475 253.902) rotate(-90) scale(0.096 -0.096)">
      <defs>
       <path id="ArialMT-69" d="M 425 3934 
L 425 4581 
L 988 4581 
L 988 3934 
L 425 3934 
z
M 425 0 
L 425 3319 
L 988 3319 
L 988 0 
L 425 0 
z
" transform="scale(0.015625)"/>
       <path id="ArialMT-6e" d="M 422 0 
L 422 3319 
L 928 3319 
L 928 2847 
Q 1294 3394 1984 3394 
Q 2284 3394 2536 3286 
Q 2788 3178 2913 3003 
Q 3038 2828 3088 2588 
Q 3119 2431 3119 2041 
L 3119 0 
L 2556 0 
L 2556 2019 
Q 2556 2363 2490 2533 
Q 2425 2703 2258 2804 
Q 2091 2906 1866 2906 
Q 1506 2906 1245 2678 
Q 984 2450 984 1813 
L 984 0 
L 422 0 
z
" transform="scale(0.015625)"/>
       <path id="ArialMT-66" d="M 556 0 
L 556 2881 
L 59 2881 
L 59 3319 
L 556 3319 
L 556 3672 
Q 556 4006 616 4169 
Q 697 4388 901 4523 
Q 1106 4659 1475 4659 
Q 1713 4659 2000 4603 
L 1916 4113 
Q 1741 4144 1584 4144 
Q 1328 4144 1222 4034 
Q 1116 3925 1116 3625 
L 1116 3319 
L 1763 3319 
L 1763 2881 
L 1116 2881 
L 1116 0 
L 556 0 
z
" transform="scale(0.015625)"/>
       <path id="ArialMT-6f" d="M 213 1659 
Q 213 2581 725 3025 
Q 1153 3394 1769 3394 
Q 2453 3394 2887 2945 
Q 3322 2497 3322 1706 
Q 3322 1066 3130 698 
Q 2938 331 2570 128 
Q 2203 -75 1769 -75 
Q 1072 -75 642 372 
Q 213 819 213 1659 
z
M 791 1659 
Q 791 1022 1069 705 
Q 1347 388 1769 388 
Q 2188 388 2466 706 
Q 2744 1025 2744 1678 
Q 2744 2294 2464 2611 
Q 2184 2928 1769 2928 
Q 1347 2928 1069 2612 
Q 791 2297 791 1659 
z
" transform="scale(0.015625)"/>
       <path id="ArialMT-72" d="M 416 0 
L 416 3319 
L 922 3319 
L 922 2816 
Q 1116 3169 1280 3281 
Q 1444 3394 1641 3394 
Q 1925 3394 2219 3213 
L 2025 2691 
Q 1819 2813 1613 2813 
Q 1428 2813 1281 2702 
Q 1134 2591 1072 2394 
Q 978 2094 978 1738 
L 978 0 
L 416 0 
z
" transform="scale(0.015625)"/>
       <path id="ArialMT-6d" d="M 422 0 
L 422 3319 
L 925 3319 
L 925 2853 
Q 1081 3097 1340 3245 
Q 1600 3394 1931 3394 
Q 2300 3394 2536 3241 
Q 2772 3088 2869 2813 
Q 3263 3394 3894 3394 
Q 4388 3394 4653 3120 
Q 4919 2847 4919 2278 
L 4919 0 
L 4359 0 
L 4359 2091 
Q 4359 2428 4304 2576 
Q 4250 2725 4106 2815 
Q 3963 2906 3769 2906 
Q 3419 2906 3187 2673 
Q 2956 2441 2956 1928 
L 2956 0 
L 2394 0 
L 2394 2156 
Q 2394 2531 2256 2718 
Q 2119 2906 1806 2906 
Q 1569 2906 1367 2781 
Q 1166 2656 1075 2415 
Q 984 2175 984 1722 
L 984 0 
L 422 0 
z
" transform="scale(0.015625)"/>
       <path id="ArialMT-61" d="M 2588 409 
Q 2275 144 1986 34 
Q 1697 -75 1366 -75 
Q 819 -75 525 192 
Q 231 459 231 875 
Q 231 1119 342 1320 
Q 453 1522 633 1644 
Q 813 1766 1038 1828 
Q 1203 1872 1538 1913 
Q 2219 1994 2541 2106 
Q 2544 2222 2544 2253 
Q 2544 2597 2384 2738 
Q 2169 2928 1744 2928 
Q 1347 2928 1158 2789 
Q 969 2650 878 2297 
L 328 2372 
Q 403 2725 575 2942 
Q 747 3159 1072 3276 
Q 1397 3394 1825 3394 
Q 2250 3394 2515 3294 
Q 2781 3194 2906 3042 
Q 3031 2891 3081 2659 
Q 3109 2516 3109 2141 
L 3109 1391 
Q 3109 606 3145 398 
Q 3181 191 3288 0 
L 2700 0 
Q 2613 175 2588 409 
z
M 2541 1666 
Q 2234 1541 1622 1453 
Q 1275 1403 1131 1340 
Q 988 1278 909 1158 
Q 831 1038 831 891 
Q 831 666 1001 516 
Q 1172 366 1500 366 
Q 1825 366 2078 508 
Q 2331 650 2450 897 
Q 2541 1088 2541 1459 
L 2541 1666 
z
" transform="scale(0.015625)"/>
       <path id="ArialMT-74" d="M 1650 503 
L 1731 6 
Q 1494 -44 1306 -44 
Q 1000 -44 831 53 
Q 663 150 594 308 
Q 525 466 525 972 
L 525 2881 
L 113 2881 
L 113 3319 
L 525 3319 
L 525 4141 
L 1084 4478 
L 1084 3319 
L 1650 3319 
L 1650 2881 
L 1084 2881 
L 1084 941 
Q 1084 700 1114 631 
Q 1144 563 1211 522 
Q 1278 481 1403 481 
Q 1497 481 1650 503 
z
" transform="scale(0.015625)"/>
       <path id="ArialMT-20" transform="scale(0.015625)"/>
       <path id="ArialMT-28" d="M 1497 -1347 
Q 1031 -759 709 28 
Q 388 816 388 1659 
Q 388 2403 628 3084 
Q 909 3875 1497 4659 
L 1900 4659 
Q 1522 4009 1400 3731 
Q 1209 3300 1100 2831 
Q 966 2247 966 1656 
Q 966 153 1900 -1347 
L 1497 -1347 
z
" transform="scale(0.015625)"/>
       <path id="ArialMT-62" d="M 941 0 
L 419 0 
L 419 4581 
L 981 4581 
L 981 2947 
Q 1338 3394 1891 3394 
Q 2197 3394 2470 3270 
Q 2744 3147 2920 2923 
Q 3097 2700 3197 2384 
Q 3297 2069 3297 1709 
Q 3297 856 2875 390 
Q 2453 -75 1863 -75 
Q 1275 -75 941 416 
L 941 0 
z
M 934 1684 
Q 934 1088 1097 822 
Q 1363 388 1816 388 
Q 2184 388 2453 708 
Q 2722 1028 2722 1663 
Q 2722 2313 2464 2622 
Q 2206 2931 1841 2931 
Q 1472 2931 1203 2611 
Q 934 2291 934 1684 
z
" transform="scale(0.015625)"/>
       <path id="ArialMT-73" d="M 197 991 
L 753 1078 
Q 800 744 1014 566 
Q 1228 388 1613 388 
Q 2000 388 2187 545 
Q 2375 703 2375 916 
Q 2375 1106 2209 1216 
Q 2094 1291 1634 1406 
Q 1016 1563 777 1677 
Q 538 1791 414 1992 
Q 291 2194 291 2438 
Q 291 2659 392 2848 
Q 494 3038 669 3163 
Q 800 3259 1026 3326 
Q 1253 3394 1513 3394 
Q 1903 3394 2198 3281 
Q 2494 3169 2634 2976 
Q 2775 2784 2828 2463 
L 2278 2388 
Q 2241 2644 2061 2787 
Q 1881 2931 1553 2931 
Q 1166 2931 1000 2803 
Q 834 2675 834 2503 
Q 834 2394 903 2306 
Q 972 2216 1119 2156 
Q 1203 2125 1616 2013 
Q 2213 1853 2448 1751 
Q 2684 1650 2818 1456 
Q 2953 1263 2953 975 
Q 2953 694 2789 445 
Q 2625 197 2315 61 
Q 2006 -75 1616 -75 
Q 969 -75 630 194 
Q 291 463 197 991 
z
" transform="scale(0.015625)"/>
       <path id="ArialMT-29" d="M 791 -1347 
L 388 -1347 
Q 1322 153 1322 1656 
Q 1322 2244 1188 2822 
Q 1081 3291 891 3722 
Q 769 4003 388 4659 
L 791 4659 
Q 1378 3875 1659 3084 
Q 1900 2403 1900 1659 
Q 1900 816 1576 28 
Q 1253 -759 791 -1347 
z
" transform="scale(0.015625)"/>
      </defs>
      <use xlink:href="#ArialMT-69"/>
      <use xlink:href="#ArialMT-6e" x="22.216797"/>
      <use xlink:href="#ArialMT-66" x="77.832031"/>
      <use xlink:href="#ArialMT-6f" x="105.615234"/>
      <use xlink:href="#ArialMT-72" x="161.230469"/>
      <use xlink:href="#ArialMT-6d" x="194.53125"/>
      <use xlink:href="#ArialMT-61" x="277.832031"/>
      <use xlink:href="#ArialMT-74" x="333.447266"/>
      <use xlink:href="#ArialMT-69" x="361.230469"/>
      <use xlink:href="#ArialMT-6f" x="383.447266"/>
      <use xlink:href="#ArialMT-6e" x="439.0625"/>
      <use xlink:href="#ArialMT-20" x="494.677734"/>
      <use xlink:href="#ArialMT-28" x="522.460938"/>
      <use xlink:href="#ArialMT-62" x="555.761719"/>
      <use xlink:href="#ArialMT-69" x="611.376953"/>
      <use xlink:href="#ArialMT-74" x="633.59375"/>
      <use xlink:href="#ArialMT-73" x="661.376953"/>
      <use xlink:href="#ArialMT-29" x="711.376953"/>
     </g>
    </g>
   </g>
   <g id="line2d_19">
    <path d="M 369 384.48 
L 369 51.84 
" clip-path="url(#p9c73efc723)" style="fill: none; stroke: #daa520; stroke-width: 2; stroke-linecap: round"/>
   </g>
   <g id="patch_69">
    <path d="M 90 384.48 
L 648 384.48 
" style="fill: none; stroke: #262626; stroke-linejoin: miter; stroke-linecap: square"/>
   </g>
   <g id="patch_70">
    <path d="M 90 51.84 
L 648 51.84 
" style="fill: none; stroke: #262626; stroke-linejoin: miter; stroke-linecap: square"/>
   </g>
   <g id="text_19">
    <!-- Ctrl vs. MMP9 information content, Kullback n=55 -->
    <g style="fill: #262626" transform="translate(263.75925 45.84) scale(0.096 -0.096)">
     <defs>
      <path id="ArialMT-43" d="M 3763 1606 
L 4369 1453 
Q 4178 706 3683 314 
Q 3188 -78 2472 -78 
Q 1731 -78 1267 223 
Q 803 525 561 1097 
Q 319 1669 319 2325 
Q 319 3041 592 3573 
Q 866 4106 1370 4382 
Q 1875 4659 2481 4659 
Q 3169 4659 3637 4309 
Q 4106 3959 4291 3325 
L 3694 3184 
Q 3534 3684 3231 3912 
Q 2928 4141 2469 4141 
Q 1941 4141 1586 3887 
Q 1231 3634 1087 3207 
Q 944 2781 944 2328 
Q 944 1744 1114 1308 
Q 1284 872 1643 656 
Q 2003 441 2422 441 
Q 2931 441 3284 734 
Q 3638 1028 3763 1606 
z
" transform="scale(0.015625)"/>
      <path id="ArialMT-6c" d="M 409 0 
L 409 4581 
L 972 4581 
L 972 0 
L 409 0 
z
" transform="scale(0.015625)"/>
      <path id="ArialMT-76" d="M 1344 0 
L 81 3319 
L 675 3319 
L 1388 1331 
Q 1503 1009 1600 663 
Q 1675 925 1809 1294 
L 2547 3319 
L 3125 3319 
L 1869 0 
L 1344 0 
z
" transform="scale(0.015625)"/>
      <path id="ArialMT-4d" d="M 475 0 
L 475 4581 
L 1388 4581 
L 2472 1338 
Q 2622 884 2691 659 
Q 2769 909 2934 1394 
L 4031 4581 
L 4847 4581 
L 4847 0 
L 4263 0 
L 4263 3834 
L 2931 0 
L 2384 0 
L 1059 3900 
L 1059 0 
L 475 0 
z
" transform="scale(0.015625)"/>
      <path id="ArialMT-39" d="M 350 1059 
L 891 1109 
Q 959 728 1153 556 
Q 1347 384 1650 384 
Q 1909 384 2104 503 
Q 2300 622 2425 820 
Q 2550 1019 2634 1356 
Q 2719 1694 2719 2044 
Q 2719 2081 2716 2156 
Q 2547 1888 2255 1720 
Q 1963 1553 1622 1553 
Q 1053 1553 659 1965 
Q 266 2378 266 3053 
Q 266 3750 677 4175 
Q 1088 4600 1706 4600 
Q 2153 4600 2523 4359 
Q 2894 4119 3086 3673 
Q 3278 3228 3278 2384 
Q 3278 1506 3087 986 
Q 2897 466 2520 194 
Q 2144 -78 1638 -78 
Q 1100 -78 759 220 
Q 419 519 350 1059 
z
M 2653 3081 
Q 2653 3566 2395 3850 
Q 2138 4134 1775 4134 
Q 1400 4134 1122 3828 
Q 844 3522 844 3034 
Q 844 2597 1108 2323 
Q 1372 2050 1759 2050 
Q 2150 2050 2401 2323 
Q 2653 2597 2653 3081 
z
" transform="scale(0.015625)"/>
      <path id="ArialMT-63" d="M 2588 1216 
L 3141 1144 
Q 3050 572 2676 248 
Q 2303 -75 1759 -75 
Q 1078 -75 664 370 
Q 250 816 250 1647 
Q 250 2184 428 2587 
Q 606 2991 970 3192 
Q 1334 3394 1763 3394 
Q 2303 3394 2647 3120 
Q 2991 2847 3088 2344 
L 2541 2259 
Q 2463 2594 2264 2762 
Q 2066 2931 1784 2931 
Q 1359 2931 1093 2626 
Q 828 2322 828 1663 
Q 828 994 1084 691 
Q 1341 388 1753 388 
Q 2084 388 2306 591 
Q 2528 794 2588 1216 
z
" transform="scale(0.015625)"/>
      <path id="ArialMT-65" d="M 2694 1069 
L 3275 997 
Q 3138 488 2766 206 
Q 2394 -75 1816 -75 
Q 1088 -75 661 373 
Q 234 822 234 1631 
Q 234 2469 665 2931 
Q 1097 3394 1784 3394 
Q 2450 3394 2872 2941 
Q 3294 2488 3294 1666 
Q 3294 1616 3291 1516 
L 816 1516 
Q 847 969 1125 678 
Q 1403 388 1819 388 
Q 2128 388 2347 550 
Q 2566 713 2694 1069 
z
M 847 1978 
L 2700 1978 
Q 2663 2397 2488 2606 
Q 2219 2931 1791 2931 
Q 1403 2931 1139 2672 
Q 875 2413 847 1978 
z
" transform="scale(0.015625)"/>
      <path id="ArialMT-2c" d="M 569 0 
L 569 641 
L 1209 641 
L 1209 0 
Q 1209 -353 1084 -570 
Q 959 -788 688 -906 
L 531 -666 
Q 709 -588 793 -436 
Q 878 -284 888 0 
L 569 0 
z
" transform="scale(0.015625)"/>
      <path id="ArialMT-4b" d="M 469 0 
L 469 4581 
L 1075 4581 
L 1075 2309 
L 3350 4581 
L 4172 4581 
L 2250 2725 
L 4256 0 
L 3456 0 
L 1825 2319 
L 1075 1588 
L 1075 0 
L 469 0 
z
" transform="scale(0.015625)"/>
      <path id="ArialMT-75" d="M 2597 0 
L 2597 488 
Q 2209 -75 1544 -75 
Q 1250 -75 995 37 
Q 741 150 617 320 
Q 494 491 444 738 
Q 409 903 409 1263 
L 409 3319 
L 972 3319 
L 972 1478 
Q 972 1038 1006 884 
Q 1059 663 1231 536 
Q 1403 409 1656 409 
Q 1909 409 2131 539 
Q 2353 669 2445 892 
Q 2538 1116 2538 1541 
L 2538 3319 
L 3100 3319 
L 3100 0 
L 2597 0 
z
" transform="scale(0.015625)"/>
      <path id="ArialMT-6b" d="M 425 0 
L 425 4581 
L 988 4581 
L 988 1969 
L 2319 3319 
L 3047 3319 
L 1778 2088 
L 3175 0 
L 2481 0 
L 1384 1697 
L 988 1316 
L 988 0 
L 425 0 
z
" transform="scale(0.015625)"/>
      <path id="ArialMT-3d" d="M 3381 2694 
L 356 2694 
L 356 3219 
L 3381 3219 
L 3381 2694 
z
M 3381 1303 
L 356 1303 
L 356 1828 
L 3381 1828 
L 3381 1303 
z
" transform="scale(0.015625)"/>
      <path id="ArialMT-35" d="M 266 1200 
L 856 1250 
Q 922 819 1161 601 
Q 1400 384 1738 384 
Q 2144 384 2425 690 
Q 2706 997 2706 1503 
Q 2706 1984 2436 2262 
Q 2166 2541 1728 2541 
Q 1456 2541 1237 2417 
Q 1019 2294 894 2097 
L 366 2166 
L 809 4519 
L 3088 4519 
L 3088 3981 
L 1259 3981 
L 1013 2750 
Q 1425 3038 1878 3038 
Q 2478 3038 2890 2622 
Q 3303 2206 3303 1553 
Q 3303 931 2941 478 
Q 2500 -78 1738 -78 
Q 1113 -78 717 272 
Q 322 622 266 1200 
z
" transform="scale(0.015625)"/>
     </defs>
     <use xlink:href="#ArialMT-43"/>
     <use xlink:href="#ArialMT-74" x="72.216797"/>
     <use xlink:href="#ArialMT-72" x="100"/>
     <use xlink:href="#ArialMT-6c" x="133.300781"/>
     <use xlink:href="#ArialMT-20" x="155.517578"/>
     <use xlink:href="#ArialMT-76" x="183.300781"/>
     <use xlink:href="#ArialMT-73" x="233.300781"/>
     <use xlink:href="#ArialMT-2e" x="283.300781"/>
     <use xlink:href="#ArialMT-20" x="311.083984"/>
     <use xlink:href="#ArialMT-4d" x="338.867188"/>
     <use xlink:href="#ArialMT-4d" x="422.167969"/>
     <use xlink:href="#ArialMT-50" x="505.46875"/>
     <use xlink:href="#ArialMT-39" x="572.167969"/>
     <use xlink:href="#ArialMT-20" x="627.783203"/>
     <use xlink:href="#ArialMT-69" x="655.566406"/>
     <use xlink:href="#ArialMT-6e" x="677.783203"/>
     <use xlink:href="#ArialMT-66" x="733.398438"/>
     <use xlink:href="#ArialMT-6f" x="761.181641"/>
     <use xlink:href="#ArialMT-72" x="816.796875"/>
     <use xlink:href="#ArialMT-6d" x="850.097656"/>
     <use xlink:href="#ArialMT-61" x="933.398438"/>
     <use xlink:href="#ArialMT-74" x="989.013672"/>
     <use xlink:href="#ArialMT-69" x="1016.796875"/>
     <use xlink:href="#ArialMT-6f" x="1039.013672"/>
     <use xlink:href="#ArialMT-6e" x="1094.628906"/>
     <use xlink:href="#ArialMT-20" x="1150.244141"/>
     <use xlink:href="#ArialMT-63" x="1178.027344"/>
     <use xlink:href="#ArialMT-6f" x="1228.027344"/>
     <use xlink:href="#ArialMT-6e" x="1283.642578"/>
     <use xlink:href="#ArialMT-74" x="1339.257812"/>
     <use xlink:href="#ArialMT-65" x="1367.041016"/>
     <use xlink:href="#ArialMT-6e" x="1422.65625"/>
     <use xlink:href="#ArialMT-74" x="1478.271484"/>
     <use xlink:href="#ArialMT-2c" x="1506.054688"/>
     <use xlink:href="#ArialMT-20" x="1533.837891"/>
     <use xlink:href="#ArialMT-4b" x="1561.621094"/>
     <use xlink:href="#ArialMT-75" x="1628.320312"/>
     <use xlink:href="#ArialMT-6c" x="1683.935547"/>
     <use xlink:href="#ArialMT-6c" x="1706.152344"/>
     <use xlink:href="#ArialMT-62" x="1728.369141"/>
     <use xlink:href="#ArialMT-61" x="1783.984375"/>
     <use xlink:href="#ArialMT-63" x="1839.599609"/>
     <use xlink:href="#ArialMT-6b" x="1889.599609"/>
     <use xlink:href="#ArialMT-20" x="1939.599609"/>
     <use xlink:href="#ArialMT-6e" x="1967.382812"/>
     <use xlink:href="#ArialMT-3d" x="2022.998047"/>
     <use xlink:href="#ArialMT-35" x="2081.396484"/>
     <use xlink:href="#ArialMT-35" x="2137.011719"/>
    </g>
   </g>
  </g>
 </g>
 <defs>
  <clipPath id="p9c73efc723">
   <rect x="90" y="51.84" width="558" height="332.64"/>
  </clipPath>
 </defs>
</svg>
