<?xml version="1.0" encoding="utf-8" standalone="no"?>
<!DOCTYPE svg PUBLIC "-//W3C//DTD SVG 1.1//EN"
  "http://www.w3.org/Graphics/SVG/1.1/DTD/svg11.dtd">
<svg xmlns:xlink="http://www.w3.org/1999/xlink" width="720pt" height="432pt" viewBox="0 0 720 432" xmlns="http://www.w3.org/2000/svg" version="1.1">
 <metadata>
  <rdf:RDF xmlns:dc="http://purl.org/dc/elements/1.1/" xmlns:cc="http://creativecommons.org/ns#" xmlns:rdf="http://www.w3.org/1999/02/22-rdf-syntax-ns#">
   <cc:Work>
    <dc:type rdf:resource="http://purl.org/dc/dcmitype/StillImage"/>
    <dc:date>2023-11-09T18:27:38.121472</dc:date>
    <dc:format>image/svg+xml</dc:format>
    <dc:creator>
     <cc:Agent>
      <dc:title>Matplotlib v3.7.1, https://matplotlib.org/</dc:title>
     </cc:Agent>
    </dc:creator>
   </cc:Work>
  </rdf:RDF>
 </metadata>
 <defs>
  <style type="text/css">*{stroke-linejoin: round; stroke-linecap: butt}</style>
 </defs>
 <g id="figure_1">
  <g id="patch_1">
   <path d="M 0 432 
L 720 432 
L 720 0 
L 0 0 
z
" style="fill: #ffffff"/>
  </g>
  <g id="axes_1">
   <g id="patch_2">
    <path d="M 90 384.48 
L 648 384.48 
L 648 51.84 
L 90 51.84 
z
" style="fill: #ffffff"/>
   </g>
   <g id="line2d_1">
    <path d="M 90 384.48 
L 648 384.48 
" clip-path="url(#pa9bb64eac2)" style="fill: none; stroke: #000000; stroke-width: 0.5; stroke-linecap: round"/>
   </g>
   <g id="patch_3">
    <path d="M 125.65 368.2638 
L 138.68762 368.2638 
L 152.016162 379.926161 
L 165.323155 368.2638 
L 178.35 368.2638 
L 159.730985 384.0642 
L 144.269015 384.0642 
L 125.65 368.2638 
z
" clip-path="url(#pa9bb64eac2)" style="fill: #21599c"/>
   </g>
   <g id="patch_4">
    <path d="M 173.955948 352.385754 
L 173.955948 355.610459 
Q 168.459804 355.049073 163.221293 354.765116 
Q 157.997094 354.477896 153.34541 354.477896 
Q 147.176562 354.477896 144.213797 354.866296 
Q 141.265345 355.251433 141.265345 356.067401 
Q 141.265345 356.681009 143.254834 357.023715 
Q 145.244324 357.363158 150.482835 357.607948 
L 157.811027 357.944127 
Q 168.946442 358.456554 173.641065 359.497729 
Q 178.35 360.53564 178.35 362.454797 
Q 178.35 364.971241 171.794704 366.201721 
Q 165.239408 367.4322 151.770994 367.4322 
Q 145.430391 367.4322 139.032537 367.154771 
Q 132.634682 366.880606 126.236828 366.338803 
L 126.236828 363.025974 
Q 132.634682 363.799511 138.60315 364.19444 
Q 144.571619 364.586104 150.125014 364.586104 
Q 155.764286 364.586104 158.755676 364.158537 
Q 161.747067 363.727706 161.747067 362.931322 
Q 161.747067 362.219798 159.714639 361.831397 
Q 157.682211 361.442997 151.59924 361.136193 
L 144.929441 360.800014 
Q 134.910429 360.310433 130.273058 359.239884 
Q 125.65 358.169334 125.65 356.354621 
Q 125.65 354.079703 132.090793 352.855752 
Q 138.531586 351.6318 150.611651 351.6318 
Q 156.122108 351.6318 161.933134 351.821105 
Q 167.744161 352.010409 173.955948 352.385754 
z
" clip-path="url(#pa9bb64eac2)" style="fill: #40ba47"/>
   </g>
   <g id="patch_5">
    <path d="M 147.032787 342.006021 
Q 151.762274 342.006021 153.814221 341.531941 
Q 155.866168 341.054475 155.866168 339.964092 
Q 155.866168 338.883867 153.814221 338.419947 
Q 151.762274 337.952639 147.032787 337.952639 
L 140.701781 337.952639 
L 140.701781 342.006021 
L 147.032787 342.006021 
z
M 140.701781 344.820023 
L 140.701781 350.8002 
L 125.65 350.8002 
L 125.65 334.9998 
L 148.634307 334.9998 
Q 160.170252 334.9998 165.537844 336.049548 
Q 170.917949 337.09591 170.917949 339.361333 
Q 170.917949 340.925797 168.11529 341.931523 
Q 165.325142 342.937249 159.694801 343.414715 
Q 162.785233 343.604347 165.225047 344.278217 
Q 167.677374 344.948702 170.179748 346.313374 
L 178.35 350.8002 
L 162.322293 350.8002 
L 155.203039 346.875497 
Q 153.050997 345.690298 150.836396 345.256853 
Q 148.634307 344.820023 144.955817 344.820023 
L 140.701781 344.820023 
z
" clip-path="url(#pa9bb64eac2)" style="fill: #bd2e1f"/>
   </g>
   <g id="patch_6">
    <path d="M 125.65 318.3678 
L 144.774615 318.3678 
L 144.774615 331.090068 
L 178.35 331.090068 
L 178.35 334.1682 
L 125.65 334.1682 
L 125.65 318.3678 
z
" clip-path="url(#pa9bb64eac2)" style="fill: #21599c"/>
   </g>
   <g id="patch_7">
    <path d="M 125.65 301.7358 
L 139.537864 301.7358 
L 139.537864 307.502641 
L 159.555783 301.7358 
L 175.683253 301.7358 
L 149.743078 309.219487 
L 178.35 317.5362 
L 160.964195 317.5362 
L 139.537864 311.31221 
L 139.537864 317.5362 
L 125.65 317.5362 
L 125.65 301.7358 
z
" clip-path="url(#pa9bb64eac2)" style="fill: #bd2e1f"/>
   </g>
   <g id="patch_8">
    <path d="M 125.65 285.1038 
L 142.578032 285.1038 
L 163.968106 295.939908 
L 163.968106 285.1038 
L 178.35 285.1038 
L 178.35 300.9042 
L 161.409364 300.9042 
L 140.01929 290.068092 
L 140.01929 300.9042 
L 125.65 300.9042 
L 125.65 285.1038 
z
" clip-path="url(#pa9bb64eac2)" style="fill: #40ba47"/>
   </g>
   <g id="patch_9">
    <path d="M 125.65 252.2556 
L 153.043021 252.2556 
Q 165.271068 252.2556 171.803672 254.937537 
Q 178.35 257.612701 178.35 262.563448 
Q 178.35 267.541285 171.803672 270.216449 
Q 165.271068 272.891613 153.043021 272.891613 
L 142.159922 272.891613 
L 142.159922 283.8564 
L 125.65 283.8564 
L 125.65 252.2556 
z
M 142.159922 258.161279 
L 142.159922 266.985934 
L 151.286354 266.985934 
Q 156.08974 266.985934 158.711016 265.834598 
Q 161.332292 264.683261 161.332292 262.563448 
Q 161.332292 260.450407 158.711016 259.305843 
Q 156.08974 258.161279 151.286354 258.161279 
L 142.159922 258.161279 
z
" clip-path="url(#pa9bb64eac2)" style="fill: #787800"/>
   </g>
   <g id="patch_10">
    <path d="M 142.437692 218.9916 
L 161.562308 218.9916 
L 161.562308 250.5924 
L 142.437692 250.5924 
L 142.437692 218.9916 
z
" clip-path="url(#pa9bb64eac2)" style="fill: #21599c"/>
   </g>
   <g id="patch_11">
    <path d="M 140.091481 191.890636 
L 140.091481 211.172136 
L 145.265444 211.172136 
Q 154.112802 211.172136 158.782574 208.693376 
Q 163.464351 206.214617 163.464351 201.494137 
Q 163.464351 196.800748 158.806583 194.349078 
Q 154.16082 191.890636 145.265444 191.890636 
L 140.091481 191.890636 
z
M 125.65 185.7276 
L 140.871777 185.7276 
Q 153.63262 185.7276 159.874989 186.75703 
Q 166.117358 187.779688 170.583052 190.23813 
Q 174.520547 192.378261 176.429271 195.175332 
Q 178.35 197.965629 178.35 201.494137 
Q 178.35 205.076825 176.429271 207.880668 
Q 174.520547 210.684511 170.583052 212.81787 
Q 166.081344 215.276312 159.778952 216.305742 
Q 153.47656 217.3284 140.871777 217.3284 
L 125.65 217.3284 
L 125.65 185.7276 
z
" clip-path="url(#pa9bb64eac2)" style="fill: #6b296b"/>
   </g>
   <g id="patch_12">
    <path d="M 162.155336 178.307718 
L 141.887763 178.307718 
L 138.68762 184.0644 
L 125.65 184.0644 
L 144.269015 152.4636 
L 159.730985 152.4636 
L 178.35 184.0644 
L 165.323155 184.0644 
L 162.155336 178.307718 
z
M 145.120231 172.442674 
L 158.890544 172.442674 
L 152.016162 159.872789 
L 145.120231 172.442674 
z
" clip-path="url(#pa9bb64eac2)" style="fill: #21599c"/>
   </g>
   <g id="patch_13">
    <path d="M 153.405333 143.296102 
L 152.373292 143.296102 
Q 139.714313 143.296102 132.676667 137.983899 
Q 125.65 132.663356 125.65 123.181448 
Q 125.65 113.716219 132.665687 108.353979 
Q 139.681375 102.9834 152 102.9834 
Q 164.450375 102.9834 171.400188 108.303943 
Q 178.35 113.616146 178.35 123.181448 
Q 178.35 129.744563 174.661 134.489687 
Q 170.972 139.23481 164.044146 141.628221 
L 174.364563 150.3846 
L 161.771458 150.3846 
L 153.405333 143.296102 
z
M 152 110.255365 
Q 145.961458 110.255365 142.634771 113.641165 
Q 139.308083 117.026965 139.308083 123.181448 
Q 139.308083 129.436005 142.557917 132.763429 
Q 145.818729 136.082514 152 136.082514 
Q 158.071479 136.082514 161.398167 132.696714 
Q 164.724854 129.302574 164.724854 123.181448 
Q 164.724854 117.026965 161.398167 113.641165 
Q 158.071479 110.255365 152 110.255365 
z
" clip-path="url(#pa9bb64eac2)" style="fill: #40ba47"/>
   </g>
   <g id="patch_14">
    <path d="M 125.65 53.0874 
L 177.253077 53.0874 
L 177.253077 62.331955 
L 144.774615 62.331955 
L 144.774615 71.149838 
L 175.329487 71.149838 
L 175.329487 80.394392 
L 144.774615 80.394392 
L 144.774615 91.254204 
L 178.35 91.254204 
L 178.35 100.4886 
L 125.65 100.4886 
L 125.65 53.0874 
z
" clip-path="url(#pa9bb64eac2)" style="fill: #6b296b"/>
   </g>
   <g id="patch_15">
    <path d="M 235.955948 369.017754 
L 235.955948 372.242459 
Q 230.459804 371.681073 225.221293 371.397116 
Q 219.997094 371.109896 215.34541 371.109896 
Q 209.176562 371.109896 206.213797 371.498296 
Q 203.265345 371.883433 203.265345 372.699401 
Q 203.265345 373.313009 205.254834 373.655715 
Q 207.244324 373.995158 212.482835 374.239948 
L 219.811027 374.576127 
Q 230.946442 375.088554 235.641065 376.129729 
Q 240.35 377.16764 240.35 379.086797 
Q 240.35 381.603241 233.794704 382.833721 
Q 227.239408 384.0642 213.770994 384.0642 
Q 207.430391 384.0642 201.032537 383.786771 
Q 194.634682 383.512606 188.236828 382.970803 
L 188.236828 379.657974 
Q 194.634682 380.431511 200.60315 380.82644 
Q 206.571619 381.218104 212.125014 381.218104 
Q 217.764286 381.218104 220.755676 380.790537 
Q 223.747067 380.359706 223.747067 379.563322 
Q 223.747067 378.851798 221.714639 378.463397 
Q 219.682211 378.074997 213.59924 377.768193 
L 206.929441 377.432014 
Q 196.910429 376.942433 192.273058 375.871884 
Q 187.65 374.801334 187.65 372.986621 
Q 187.65 370.711703 194.090793 369.487752 
Q 200.531586 368.2638 212.611651 368.2638 
Q 218.122108 368.2638 223.933134 368.453105 
Q 229.744161 368.642409 235.955948 369.017754 
z
" clip-path="url(#pa9bb64eac2)" style="fill: #40ba47"/>
   </g>
   <g id="patch_16">
    <path d="M 215.405333 365.069367 
L 214.373292 365.069367 
Q 201.714313 365.069367 194.676667 363.298633 
Q 187.65 361.525119 187.65 358.364483 
Q 187.65 355.209406 194.665687 353.421993 
Q 201.681375 351.6318 214 351.6318 
Q 226.450375 351.6318 233.400187 353.405314 
Q 240.35 355.176049 240.35 358.364483 
Q 240.35 360.552188 236.661 362.133896 
Q 232.972 363.715603 226.044146 364.513407 
L 236.364562 367.4322 
L 223.771458 367.4322 
L 215.405333 365.069367 
z
M 214 354.055788 
Q 207.961458 354.055788 204.634771 355.184388 
Q 201.308083 356.312988 201.308083 358.364483 
Q 201.308083 360.449335 204.557917 361.558476 
Q 207.818729 362.664838 214 362.664838 
Q 220.071479 362.664838 223.398167 361.536238 
Q 226.724854 360.404858 226.724854 358.364483 
Q 226.724854 356.312988 223.398167 355.184388 
Q 220.071479 354.055788 214 354.055788 
z
" clip-path="url(#pa9bb64eac2)" style="fill: #40ba47"/>
   </g>
   <g id="patch_17">
    <path d="M 224.155336 347.921859 
L 203.887763 347.921859 
L 200.68762 350.8002 
L 187.65 350.8002 
L 206.269015 334.9998 
L 221.730985 334.9998 
L 240.35 350.8002 
L 227.323155 350.8002 
L 224.155336 347.921859 
z
M 207.120231 344.989337 
L 220.890544 344.989337 
L 214.016162 338.704394 
L 207.120231 344.989337 
z
" clip-path="url(#pa9bb64eac2)" style="fill: #21599c"/>
   </g>
   <g id="patch_18">
    <path d="M 204.437692 318.3678 
L 223.562308 318.3678 
L 223.562308 334.1682 
L 204.437692 334.1682 
L 204.437692 318.3678 
z
" clip-path="url(#pa9bb64eac2)" style="fill: #21599c"/>
   </g>
   <g id="patch_19">
    <path d="M 187.65 301.7358 
L 202.813382 301.7358 
L 202.813382 307.756613 
L 225.186618 307.756613 
L 225.186618 301.7358 
L 240.35 301.7358 
L 240.35 317.5362 
L 225.186618 317.5362 
L 225.186618 310.838131 
L 202.813382 310.838131 
L 202.813382 317.5362 
L 187.65 317.5362 
L 187.65 301.7358 
z
" clip-path="url(#pa9bb64eac2)" style="fill: #177875"/>
   </g>
   <g id="patch_20">
    <path d="M 188.198462 285.1038 
L 239.801538 285.1038 
L 239.801538 288.185318 
L 207.323077 288.185318 
L 207.323077 291.124613 
L 237.877949 291.124613 
L 237.877949 294.206131 
L 207.323077 294.206131 
L 207.323077 300.9042 
L 188.198462 300.9042 
L 188.198462 285.1038 
z
" clip-path="url(#pa9bb64eac2)" style="fill: #21599c"/>
   </g>
   <g id="patch_21">
    <path d="M 187.65 268.4718 
L 239.253077 268.4718 
L 239.253077 271.553318 
L 206.774615 271.553318 
L 206.774615 274.492613 
L 237.329487 274.492613 
L 237.329487 277.574131 
L 206.774615 277.574131 
L 206.774615 281.194068 
L 240.35 281.194068 
L 240.35 284.2722 
L 187.65 284.2722 
L 187.65 268.4718 
z
" clip-path="url(#pa9bb64eac2)" style="fill: #6b296b"/>
   </g>
   <g id="patch_22">
    <path d="M 187.65 251.8398 
L 206.774615 251.8398 
L 206.774615 264.562068 
L 240.35 264.562068 
L 240.35 267.6402 
L 187.65 267.6402 
L 187.65 251.8398 
z
" clip-path="url(#pa9bb64eac2)" style="fill: #21599c"/>
   </g>
   <g id="patch_23">
    <path d="M 187.65 218.9916 
L 204.578032 218.9916 
L 225.968106 240.663816 
L 225.968106 218.9916 
L 240.35 218.9916 
L 240.35 250.5924 
L 223.409364 250.5924 
L 202.01929 228.920184 
L 202.01929 250.5924 
L 187.65 250.5924 
L 187.65 218.9916 
z
" clip-path="url(#pa9bb64eac2)" style="fill: #40ba47"/>
   </g>
   <g id="patch_24">
    <path d="M 187.65 185.7276 
L 215.043021 185.7276 
Q 227.271068 185.7276 233.803672 188.409537 
Q 240.35 191.084701 240.35 196.035448 
Q 240.35 201.013285 233.803672 203.688449 
Q 227.271068 206.363613 215.043021 206.363613 
L 204.159922 206.363613 
L 204.159922 217.3284 
L 187.65 217.3284 
L 187.65 185.7276 
z
M 204.159922 191.633279 
L 204.159922 200.457934 
L 213.286354 200.457934 
Q 218.08974 200.457934 220.711016 199.306598 
Q 223.332292 198.155261 223.332292 196.035448 
Q 223.332292 193.922407 220.711016 192.777843 
Q 218.08974 191.633279 213.286354 191.633279 
L 204.159922 191.633279 
z
" clip-path="url(#pa9bb64eac2)" style="fill: #787800"/>
   </g>
   <g id="patch_25">
    <path d="M 202.091481 158.626636 
L 202.091481 177.908136 
L 207.265444 177.908136 
Q 216.112802 177.908136 220.782574 175.429376 
Q 225.464351 172.950617 225.464351 168.230137 
Q 225.464351 163.536748 220.806583 161.085078 
Q 216.16082 158.626636 207.265444 158.626636 
L 202.091481 158.626636 
z
M 187.65 152.4636 
L 202.871777 152.4636 
Q 215.63262 152.4636 221.874989 153.49303 
Q 228.117358 154.515688 232.583052 156.97413 
Q 236.520547 159.114261 238.429271 161.911332 
Q 240.35 164.701629 240.35 168.230137 
Q 240.35 171.812825 238.429271 174.616668 
Q 236.520547 177.420511 232.583052 179.55387 
Q 228.081344 182.012312 221.778952 183.041742 
Q 215.47656 184.0644 202.871777 184.0644 
L 187.65 184.0644 
L 187.65 152.4636 
z
" clip-path="url(#pa9bb64eac2)" style="fill: #6b296b"/>
   </g>
   <g id="patch_26">
    <path d="M 187.65 119.1996 
L 201.537864 119.1996 
L 201.537864 130.733282 
L 221.555783 119.1996 
L 237.683253 119.1996 
L 211.743078 134.166974 
L 240.35 150.8004 
L 222.964195 150.8004 
L 201.537864 138.352421 
L 201.537864 150.8004 
L 187.65 150.8004 
L 187.65 119.1996 
z
" clip-path="url(#pa9bb64eac2)" style="fill: #bd2e1f"/>
   </g>
   <g id="patch_27">
    <path d="M 209.032787 81.528084 
Q 213.762274 81.528084 215.814221 79.631765 
Q 217.866168 77.721901 217.866168 73.360368 
Q 217.866168 69.03947 215.814221 67.183786 
Q 213.762274 65.314558 209.032787 65.314558 
L 202.701781 65.314558 
L 202.701781 81.528084 
L 209.032787 81.528084 
z
M 202.701781 92.784092 
L 202.701781 116.7048 
L 187.65 116.7048 
L 187.65 53.5032 
L 210.634307 53.5032 
Q 222.170252 53.5032 227.537844 57.702192 
Q 232.917949 61.887639 232.917949 70.949334 
Q 232.917949 77.207186 230.11529 81.230091 
Q 227.325142 85.252996 221.694801 87.162861 
Q 224.785233 87.921388 227.225047 90.61687 
Q 229.677374 93.298807 232.179748 98.757496 
L 240.35 116.7048 
L 224.322293 116.7048 
L 217.203039 101.005989 
Q 215.050997 96.265191 212.836396 94.531414 
Q 210.634307 92.784092 206.955817 92.784092 
L 202.701781 92.784092 
z
" clip-path="url(#pa9bb64eac2)" style="fill: #bd2e1f"/>
   </g>
   <g id="patch_28">
    <path d="M 249.65 368.2638 
L 262.68762 368.2638 
L 276.016162 379.926161 
L 289.323155 368.2638 
L 302.35 368.2638 
L 283.730985 384.0642 
L 268.269015 384.0642 
L 249.65 368.2638 
z
" clip-path="url(#pa9bb64eac2)" style="fill: #21599c"/>
   </g>
   <g id="patch_29">
    <path d="M 249.65 351.6318 
L 302.35 351.6318 
L 302.35 354.713318 
L 283.390256 354.713318 
L 283.390256 367.4322 
L 268.646512 367.4322 
L 268.646512 354.713318 
L 249.65 354.713318 
L 249.65 351.6318 
z
" clip-path="url(#pa9bb64eac2)" style="fill: #40ba47"/>
   </g>
   <g id="patch_30">
    <path d="M 271.032787 342.006021 
Q 275.762274 342.006021 277.814221 341.531941 
Q 279.866168 341.054475 279.866168 339.964092 
Q 279.866168 338.883867 277.814221 338.419947 
Q 275.762274 337.952639 271.032787 337.952639 
L 264.701781 337.952639 
L 264.701781 342.006021 
L 271.032787 342.006021 
z
M 264.701781 344.820023 
L 264.701781 350.8002 
L 249.65 350.8002 
L 249.65 334.9998 
L 272.634307 334.9998 
Q 284.170252 334.9998 289.537844 336.049548 
Q 294.917949 337.09591 294.917949 339.361333 
Q 294.917949 340.925797 292.11529 341.931523 
Q 289.325142 342.937249 283.694801 343.414715 
Q 286.785233 343.604347 289.225047 344.278217 
Q 291.677374 344.948702 294.179748 346.313374 
L 302.35 350.8002 
L 286.322293 350.8002 
L 279.203039 346.875497 
Q 277.050997 345.690298 274.836396 345.256853 
Q 272.634307 344.820023 268.955817 344.820023 
L 264.701781 344.820023 
z
" clip-path="url(#pa9bb64eac2)" style="fill: #bd2e1f"/>
   </g>
   <g id="patch_31">
    <path d="M 249.65 318.3678 
L 268.774615 318.3678 
L 268.774615 331.090068 
L 302.35 331.090068 
L 302.35 334.1682 
L 249.65 334.1682 
L 249.65 318.3678 
z
" clip-path="url(#pa9bb64eac2)" style="fill: #21599c"/>
   </g>
   <g id="patch_32">
    <path d="M 266.437692 301.7358 
L 285.562308 301.7358 
L 285.562308 317.5362 
L 266.437692 317.5362 
L 266.437692 301.7358 
z
" clip-path="url(#pa9bb64eac2)" style="fill: #21599c"/>
   </g>
   <g id="patch_33">
    <path d="M 250.198462 285.1038 
L 301.801538 285.1038 
L 301.801538 288.185318 
L 269.323077 288.185318 
L 269.323077 291.124613 
L 299.877949 291.124613 
L 299.877949 294.206131 
L 269.323077 294.206131 
L 269.323077 300.9042 
L 250.198462 300.9042 
L 250.198462 285.1038 
z
" clip-path="url(#pa9bb64eac2)" style="fill: #21599c"/>
   </g>
   <g id="patch_34">
    <path d="M 249.65 268.4718 
L 301.253077 268.4718 
L 301.253077 271.553318 
L 268.774615 271.553318 
L 268.774615 274.492613 
L 299.329487 274.492613 
L 299.329487 277.574131 
L 268.774615 277.574131 
L 268.774615 281.194068 
L 302.35 281.194068 
L 302.35 284.2722 
L 249.65 284.2722 
L 249.65 268.4718 
z
" clip-path="url(#pa9bb64eac2)" style="fill: #6b296b"/>
   </g>
   <g id="patch_35">
    <path d="M 264.091481 254.921318 
L 264.091481 264.562068 
L 269.265444 264.562068 
Q 278.112802 264.562068 282.782574 263.322688 
Q 287.464351 262.083308 287.464351 259.723069 
Q 287.464351 257.376374 282.806583 256.150539 
Q 278.16082 254.921318 269.265444 254.921318 
L 264.091481 254.921318 
z
M 249.65 251.8398 
L 264.871777 251.8398 
Q 277.63262 251.8398 283.874989 252.354515 
Q 290.117358 252.865844 294.583052 254.095065 
Q 298.520547 255.165131 300.429271 256.563666 
Q 302.35 257.958815 302.35 259.723069 
Q 302.35 261.514413 300.429271 262.916334 
Q 298.520547 264.318256 294.583052 265.384935 
Q 290.081344 266.614156 283.778952 267.128871 
Q 277.47656 267.6402 264.871777 267.6402 
L 249.65 267.6402 
L 249.65 251.8398 
z
" clip-path="url(#pa9bb64eac2)" style="fill: #6b296b"/>
   </g>
   <g id="patch_36">
    <path d="M 249.65 235.2078 
L 263.537864 235.2078 
L 263.537864 240.974641 
L 283.555783 235.2078 
L 299.683253 235.2078 
L 273.743078 242.691487 
L 302.35 251.0082 
L 284.964195 251.0082 
L 263.537864 244.78421 
L 263.537864 251.0082 
L 249.65 251.0082 
L 249.65 235.2078 
z
" clip-path="url(#pa9bb64eac2)" style="fill: #bd2e1f"/>
   </g>
   <g id="patch_37">
    <path d="M 249.65 202.3596 
L 277.043021 202.3596 
Q 289.271068 202.3596 295.803672 205.041537 
Q 302.35 207.716701 302.35 212.667448 
Q 302.35 217.645285 295.803672 220.320449 
Q 289.271068 222.995613 277.043021 222.995613 
L 266.159922 222.995613 
L 266.159922 233.9604 
L 249.65 233.9604 
L 249.65 202.3596 
z
M 266.159922 208.265279 
L 266.159922 217.089934 
L 275.286354 217.089934 
Q 280.08974 217.089934 282.711016 215.938598 
Q 285.332292 214.787261 285.332292 212.667448 
Q 285.332292 210.554407 282.711016 209.409843 
Q 280.08974 208.265279 275.286354 208.265279 
L 266.159922 208.265279 
z
" clip-path="url(#pa9bb64eac2)" style="fill: #787800"/>
   </g>
   <g id="patch_38">
    <path d="M 297.955948 170.603508 
L 297.955948 177.052918 
Q 292.459804 175.930146 287.221293 175.362233 
Q 281.997094 174.787791 277.34541 174.787791 
Q 271.176562 174.787791 268.213797 175.564593 
Q 265.265345 176.334866 265.265345 177.966802 
Q 265.265345 179.194017 267.254834 179.87943 
Q 269.244324 180.558315 274.482835 181.047896 
L 281.811027 181.720253 
Q 292.946442 182.745109 297.641065 184.827459 
Q 302.35 186.903281 302.35 190.741593 
Q 302.35 195.774482 295.794704 198.235441 
Q 289.239408 200.6964 275.770994 200.6964 
Q 269.430391 200.6964 263.032537 200.141542 
Q 256.634682 199.593212 250.236828 198.509606 
L 250.236828 191.883948 
Q 256.634682 193.431023 262.60315 194.22088 
Q 268.571619 195.004209 274.125014 195.004209 
Q 279.764286 195.004209 282.755676 194.149075 
Q 285.747067 193.287413 285.747067 191.694644 
Q 285.747067 190.271596 283.714639 189.494794 
Q 281.682211 188.717993 275.59924 188.104385 
L 268.929441 187.432028 
Q 258.910429 186.452867 254.273058 184.311767 
Q 249.65 182.170668 249.65 178.541243 
Q 249.65 173.991407 256.090793 171.543503 
Q 262.531586 169.0956 274.611651 169.0956 
Q 280.122108 169.0956 285.933134 169.474209 
Q 291.744161 169.852818 297.955948 170.603508 
z
" clip-path="url(#pa9bb64eac2)" style="fill: #40ba47"/>
   </g>
   <g id="patch_39">
    <path d="M 286.155336 158.381576 
L 265.887763 158.381576 
L 262.68762 167.0166 
L 249.65 167.0166 
L 268.269015 119.6154 
L 283.730985 119.6154 
L 302.35 167.0166 
L 289.323155 167.0166 
L 286.155336 158.381576 
z
M 269.120231 149.584011 
L 282.890544 149.584011 
L 276.016162 130.729183 
L 269.120231 149.584011 
z
" clip-path="url(#pa9bb64eac2)" style="fill: #21599c"/>
   </g>
   <g id="patch_40">
    <path d="M 277.405333 107.25347 
L 276.373292 107.25347 
Q 263.714313 107.25347 256.676667 100.170532 
Q 249.65 93.076475 249.65 80.433931 
Q 249.65 67.813626 256.665687 60.663972 
Q 263.681375 53.5032 276 53.5032 
Q 288.450375 53.5032 295.400188 60.597257 
Q 302.35 67.680195 302.35 80.433931 
Q 302.35 89.184751 298.661 95.511582 
Q 294.972 101.838414 288.044146 105.029628 
L 298.364562 116.7048 
L 285.771458 116.7048 
L 277.405333 107.25347 
z
M 276 63.199153 
Q 269.961458 63.199153 266.634771 67.713553 
Q 263.308083 72.227953 263.308083 80.433931 
Q 263.308083 88.77334 266.557917 93.209905 
Q 269.818729 97.635352 276 97.635352 
Q 282.071479 97.635352 285.398167 93.120952 
Q 288.724854 88.595433 288.724854 80.433931 
Q 288.724854 72.227953 285.398167 67.713553 
Q 282.071479 63.199153 276 63.199153 
z
" clip-path="url(#pa9bb64eac2)" style="fill: #40ba47"/>
   </g>
   <g id="patch_41">
    <path d="M 348.155336 381.185859 
L 327.887763 381.185859 
L 324.68762 384.0642 
L 311.65 384.0642 
L 330.269015 368.2638 
L 345.730985 368.2638 
L 364.35 384.0642 
L 351.323155 384.0642 
L 348.155336 381.185859 
z
M 331.120231 378.253337 
L 344.890544 378.253337 
L 338.016162 371.968394 
L 331.120231 378.253337 
z
" clip-path="url(#pa9bb64eac2)" style="fill: #21599c"/>
   </g>
   <g id="patch_42">
    <path d="M 311.65 351.6318 
L 330.774615 351.6318 
L 330.774615 364.354068 
L 364.35 364.354068 
L 364.35 367.4322 
L 311.65 367.4322 
L 311.65 351.6318 
z
" clip-path="url(#pa9bb64eac2)" style="fill: #21599c"/>
   </g>
   <g id="patch_43">
    <path d="M 311.65 334.9998 
L 325.537864 334.9998 
L 325.537864 340.766641 
L 345.555783 334.9998 
L 361.683253 334.9998 
L 335.743078 342.483487 
L 364.35 350.8002 
L 346.964195 350.8002 
L 325.537864 344.57621 
L 325.537864 350.8002 
L 311.65 350.8002 
L 311.65 334.9998 
z
" clip-path="url(#pa9bb64eac2)" style="fill: #bd2e1f"/>
   </g>
   <g id="patch_44">
    <path d="M 311.65 318.3678 
L 326.813382 318.3678 
L 326.813382 324.388613 
L 349.186618 324.388613 
L 349.186618 318.3678 
L 364.35 318.3678 
L 364.35 334.1682 
L 349.186618 334.1682 
L 349.186618 327.470131 
L 326.813382 327.470131 
L 326.813382 334.1682 
L 311.65 334.1682 
L 311.65 318.3678 
z
" clip-path="url(#pa9bb64eac2)" style="fill: #177875"/>
   </g>
   <g id="patch_45">
    <path d="M 311.65 301.7358 
L 326.22 301.7358 
L 337.988929 307.36719 
L 349.746786 301.7358 
L 364.35 301.7358 
L 344.665 310.878766 
L 344.665 317.5362 
L 331.346071 317.5362 
L 331.346071 310.878766 
L 311.65 301.7358 
z
" clip-path="url(#pa9bb64eac2)" style="fill: #177875"/>
   </g>
   <g id="patch_46">
    <path d="M 333.032787 163.170316 
Q 337.762274 163.170316 339.814221 156.05912 
Q 341.866168 148.89713 341.866168 132.54138 
Q 341.866168 116.338012 339.814221 109.379199 
Q 337.762274 102.369592 333.032787 102.369592 
L 326.701781 102.369592 
L 326.701781 163.170316 
L 333.032787 163.170316 
z
M 326.701781 205.380343 
L 326.701781 295.083 
L 311.65 295.083 
L 311.65 58.077 
L 334.634307 58.077 
Q 346.170252 58.077 351.537844 73.823219 
Q 356.917949 89.518645 356.917949 123.500002 
Q 356.917949 146.966949 354.11529 162.052843 
Q 351.325142 177.138737 345.694801 184.300727 
Q 348.785233 187.145205 351.225047 197.253262 
Q 353.677374 207.310525 356.179748 227.78061 
L 364.35 295.083 
L 348.322293 295.083 
L 341.203039 236.212457 
Q 339.050997 218.434467 336.836396 211.932802 
Q 334.634307 205.380343 330.955817 205.380343 
L 326.701781 205.380343 
z
" clip-path="url(#pa9bb64eac2)" style="fill: #bd2e1f"/>
   </g>
   <g id="patch_47">
    <path d="M 373.65 368.2638 
L 386.68762 368.2638 
L 400.016162 379.926161 
L 413.323155 368.2638 
L 426.35 368.2638 
L 407.730985 384.0642 
L 392.269015 384.0642 
L 373.65 368.2638 
z
" clip-path="url(#pa9bb64eac2)" style="fill: #21599c"/>
   </g>
   <g id="patch_48">
    <path d="M 395.032787 358.638021 
Q 399.762274 358.638021 401.814221 358.163941 
Q 403.866168 357.686475 403.866168 356.596092 
Q 403.866168 355.515867 401.814221 355.051947 
Q 399.762274 354.584639 395.032787 354.584639 
L 388.701781 354.584639 
L 388.701781 358.638021 
L 395.032787 358.638021 
z
M 388.701781 361.452023 
L 388.701781 367.4322 
L 373.65 367.4322 
L 373.65 351.6318 
L 396.634307 351.6318 
Q 408.170252 351.6318 413.537844 352.681548 
Q 418.917949 353.72791 418.917949 355.993333 
Q 418.917949 357.557797 416.11529 358.563523 
Q 413.325142 359.569249 407.694801 360.046715 
Q 410.785233 360.236347 413.225047 360.910217 
Q 415.677374 361.580702 418.179748 362.945374 
L 426.35 367.4322 
L 410.322293 367.4322 
L 403.203039 363.507497 
Q 401.050997 362.322298 398.836396 361.888853 
Q 396.634307 361.452023 392.955817 361.452023 
L 388.701781 361.452023 
z
" clip-path="url(#pa9bb64eac2)" style="fill: #bd2e1f"/>
   </g>
   <g id="patch_49">
    <path d="M 401.405333 348.437367 
L 400.373292 348.437367 
Q 387.714313 348.437367 380.676667 346.666633 
Q 373.65 344.893119 373.65 341.732483 
Q 373.65 338.577406 380.665687 336.789993 
Q 387.681375 334.9998 400 334.9998 
Q 412.450375 334.9998 419.400188 336.773314 
Q 426.35 338.544049 426.35 341.732483 
Q 426.35 343.920188 422.661 345.501896 
Q 418.972 347.083603 412.044146 347.881407 
L 422.364563 350.8002 
L 409.771458 350.8002 
L 401.405333 348.437367 
z
M 400 337.423788 
Q 393.961458 337.423788 390.634771 338.552388 
Q 387.308083 339.680988 387.308083 341.732483 
Q 387.308083 343.817335 390.557917 344.926476 
Q 393.818729 346.032838 400 346.032838 
Q 406.071479 346.032838 409.398167 344.904238 
Q 412.724854 343.772858 412.724854 341.732483 
Q 412.724854 339.680988 409.398167 338.552388 
Q 406.071479 337.423788 400 337.423788 
z
" clip-path="url(#pa9bb64eac2)" style="fill: #40ba47"/>
   </g>
   <g id="patch_50">
    <path d="M 373.65 318.3678 
L 392.774615 318.3678 
L 392.774615 331.090068 
L 426.35 331.090068 
L 426.35 334.1682 
L 373.65 334.1682 
L 373.65 318.3678 
z
" clip-path="url(#pa9bb64eac2)" style="fill: #21599c"/>
   </g>
   <g id="patch_51">
    <path d="M 421.955948 287.027508 
L 421.955948 293.476918 
Q 416.459804 292.354146 411.221293 291.786233 
Q 405.997094 291.211791 401.34541 291.211791 
Q 395.176562 291.211791 392.213797 291.988593 
Q 389.265345 292.758866 389.265345 294.390802 
Q 389.265345 295.618017 391.254834 296.30343 
Q 393.244324 296.982315 398.482835 297.471896 
L 405.811027 298.144253 
Q 416.946442 299.169109 421.641065 301.251459 
Q 426.35 303.327281 426.35 307.165593 
Q 426.35 312.198482 419.794704 314.659441 
Q 413.239408 317.1204 399.770994 317.1204 
Q 393.430391 317.1204 387.032537 316.565542 
Q 380.634682 316.017212 374.236828 314.933606 
L 374.236828 308.307948 
Q 380.634682 309.855023 386.60315 310.64488 
Q 392.571619 311.428209 398.125014 311.428209 
Q 403.764286 311.428209 406.755676 310.573075 
Q 409.747067 309.711413 409.747067 308.118644 
Q 409.747067 306.695596 407.714639 305.918794 
Q 405.682211 305.141993 399.59924 304.528385 
L 392.929441 303.856028 
Q 382.910429 302.876867 378.273058 300.735767 
Q 373.65 298.594668 373.65 294.965243 
Q 373.65 290.415407 380.090793 287.967503 
Q 386.531586 285.5196 398.611651 285.5196 
Q 404.122108 285.5196 409.933134 285.898209 
Q 415.744161 286.276818 421.955948 287.027508 
z
" clip-path="url(#pa9bb64eac2)" style="fill: #40ba47"/>
   </g>
   <g id="patch_52">
    <path d="M 388.091481 258.418636 
L 388.091481 277.700136 
L 393.265444 277.700136 
Q 402.112802 277.700136 406.782574 275.221376 
Q 411.464351 272.742617 411.464351 268.022137 
Q 411.464351 263.328748 406.806583 260.877078 
Q 402.16082 258.418636 393.265444 258.418636 
L 388.091481 258.418636 
z
M 373.65 252.2556 
L 388.871777 252.2556 
Q 401.63262 252.2556 407.874989 253.28503 
Q 414.117358 254.307688 418.583052 256.76613 
Q 422.520547 258.906261 424.429271 261.703332 
Q 426.35 264.493629 426.35 268.022137 
Q 426.35 271.604825 424.429271 274.408668 
Q 422.520547 277.212511 418.583052 279.34587 
Q 414.081344 281.804312 407.778952 282.833742 
Q 401.47656 283.8564 388.871777 283.8564 
L 373.65 283.8564 
L 373.65 252.2556 
z
" clip-path="url(#pa9bb64eac2)" style="fill: #6b296b"/>
   </g>
   <g id="patch_53">
    <path d="M 373.65 218.9916 
L 390.578032 218.9916 
L 411.968106 240.663816 
L 411.968106 218.9916 
L 426.35 218.9916 
L 426.35 250.5924 
L 409.409364 250.5924 
L 388.01929 228.920184 
L 388.01929 250.5924 
L 373.65 250.5924 
L 373.65 218.9916 
z
" clip-path="url(#pa9bb64eac2)" style="fill: #40ba47"/>
   </g>
   <g id="patch_54">
    <path d="M 426.35 212.623873 
Q 421.035119 214.768237 415.318669 215.845314 
Q 409.602219 216.9126 403.507822 216.9126 
Q 389.736374 216.9126 381.693187 210.528468 
Q 373.65 204.144336 373.65 193.226687 
Q 373.65 182.181748 381.834917 175.846574 
Q 390.031645 169.5114 404.287338 169.5114 
Q 409.779381 169.5114 414.810802 170.373062 
Q 419.854034 171.224932 424.318534 172.90909 
L 424.318534 182.357997 
Q 419.712304 180.19405 415.153317 179.126764 
Q 410.59433 178.049687 406.011721 178.049687 
Q 397.531533 178.049687 392.937113 181.985915 
Q 388.342694 185.912352 388.342694 193.226687 
Q 388.342694 200.472481 392.771762 204.428293 
Q 397.200829 208.374313 405.350314 208.374313 
Q 407.570753 208.374313 409.472299 208.149106 
Q 411.373846 207.914107 412.885634 207.424527 
L 412.885634 198.553325 
L 404.204662 198.553325 
L 404.204662 190.651493 
L 426.35 190.651493 
L 426.35 212.623873 
z
" clip-path="url(#pa9bb64eac2)" style="fill: #787800"/>
   </g>
   <g id="patch_55">
    <path d="M 373.65 119.6154 
L 425.253077 119.6154 
L 425.253077 128.859955 
L 392.774615 128.859955 
L 392.774615 137.677838 
L 423.329487 137.677838 
L 423.329487 146.922392 
L 392.774615 146.922392 
L 392.774615 157.782204 
L 426.35 157.782204 
L 426.35 167.0166 
L 373.65 167.0166 
L 373.65 119.6154 
z
" clip-path="url(#pa9bb64eac2)" style="fill: #6b296b"/>
   </g>
   <g id="patch_56">
    <path d="M 410.155336 105.191435 
L 389.887763 105.191435 
L 386.68762 116.7048 
L 373.65 116.7048 
L 392.269015 53.5032 
L 407.730985 53.5032 
L 426.35 116.7048 
L 413.323155 116.7048 
L 410.155336 105.191435 
z
M 393.120231 93.461348 
L 406.890544 93.461348 
L 400.016162 68.321578 
L 393.120231 93.461348 
z
" clip-path="url(#pa9bb64eac2)" style="fill: #21599c"/>
   </g>
   <g id="patch_57">
    <path d="M 435.65 368.2638 
L 454.774615 368.2638 
L 454.774615 380.986068 
L 488.35 380.986068 
L 488.35 384.0642 
L 435.65 384.0642 
L 435.65 368.2638 
z
" clip-path="url(#pa9bb64eac2)" style="fill: #21599c"/>
   </g>
   <g id="patch_58">
    <path d="M 435.65 351.6318 
L 450.22 351.6318 
L 461.988929 357.26319 
L 473.746786 351.6318 
L 488.35 351.6318 
L 468.665 360.774766 
L 468.665 367.4322 
L 455.346071 367.4322 
L 455.346071 360.774766 
L 435.65 351.6318 
z
" clip-path="url(#pa9bb64eac2)" style="fill: #177875"/>
   </g>
   <g id="patch_59">
    <path d="M 488.35 349.370624 
Q 483.035119 350.085412 477.318669 350.444438 
Q 471.602219 350.8002 465.507822 350.8002 
Q 451.736374 350.8002 443.693187 348.672156 
Q 435.65 346.544112 435.65 342.904896 
Q 435.65 339.223249 443.834917 337.111525 
Q 452.031645 334.9998 466.287338 334.9998 
Q 471.779381 334.9998 476.810802 335.287021 
Q 481.854034 335.570977 486.318534 336.132363 
L 486.318534 339.281999 
Q 481.712304 338.560683 477.153317 338.204921 
Q 472.59433 337.845896 468.011721 337.845896 
Q 459.531533 337.845896 454.937113 339.157972 
Q 450.342694 340.466784 450.342694 342.904896 
Q 450.342694 345.32016 454.771762 346.638764 
Q 459.200829 347.954104 467.350314 347.954104 
Q 469.570753 347.954104 471.472299 347.879035 
Q 473.373846 347.800702 474.885634 347.637509 
L 474.885634 344.680442 
L 466.204662 344.680442 
L 466.204662 342.046498 
L 488.35 342.046498 
L 488.35 349.370624 
z
" clip-path="url(#pa9bb64eac2)" style="fill: #787800"/>
   </g>
   <g id="patch_60">
    <path d="M 435.65 318.3678 
L 487.253077 318.3678 
L 487.253077 321.449318 
L 454.774615 321.449318 
L 454.774615 324.388613 
L 485.329487 324.388613 
L 485.329487 327.470131 
L 454.774615 327.470131 
L 454.774615 331.090068 
L 488.35 331.090068 
L 488.35 334.1682 
L 435.65 334.1682 
L 435.65 318.3678 
z
" clip-path="url(#pa9bb64eac2)" style="fill: #6b296b"/>
   </g>
   <g id="patch_61">
    <path d="M 435.65 301.7358 
L 444.762642 301.7358 
L 451.132798 313.218688 
L 457.455534 301.7358 
L 466.615597 301.7358 
L 472.938332 313.218688 
L 479.316392 301.7358 
L 488.35 301.7358 
L 479.656239 317.5362 
L 468.694196 317.5362 
L 462 305.525052 
L 455.384838 317.5362 
L 444.414892 317.5362 
L 435.65 301.7358 
z
" clip-path="url(#pa9bb64eac2)" style="fill: #21599c"/>
   </g>
   <g id="patch_62">
    <path d="M 435.65 268.8876 
L 449.537864 268.8876 
L 449.537864 280.421282 
L 469.555783 268.8876 
L 485.683253 268.8876 
L 459.743078 283.854974 
L 488.35 300.4884 
L 470.964195 300.4884 
L 449.537864 288.040421 
L 449.537864 300.4884 
L 435.65 300.4884 
L 435.65 268.8876 
z
" clip-path="url(#pa9bb64eac2)" style="fill: #bd2e1f"/>
   </g>
   <g id="patch_63">
    <path d="M 435.65 235.6236 
L 452.578032 235.6236 
L 473.968106 257.295816 
L 473.968106 235.6236 
L 488.35 235.6236 
L 488.35 267.2244 
L 471.409364 267.2244 
L 450.01929 245.552184 
L 450.01929 267.2244 
L 435.65 267.2244 
L 435.65 235.6236 
z
" clip-path="url(#pa9bb64eac2)" style="fill: #40ba47"/>
   </g>
   <g id="patch_64">
    <path d="M 435.65 202.3596 
L 463.043021 202.3596 
Q 475.271068 202.3596 481.803672 205.041537 
Q 488.35 207.716701 488.35 212.667448 
Q 488.35 217.645285 481.803672 220.320449 
Q 475.271068 222.995613 463.043021 222.995613 
L 452.159922 222.995613 
L 452.159922 233.9604 
L 435.65 233.9604 
L 435.65 202.3596 
z
M 452.159922 208.265279 
L 452.159922 217.089934 
L 461.286354 217.089934 
Q 466.08974 217.089934 468.711016 215.938598 
Q 471.332292 214.787261 471.332292 212.667448 
Q 471.332292 210.554407 468.711016 209.409843 
Q 466.08974 208.265279 461.286354 208.265279 
L 452.159922 208.265279 
z
" clip-path="url(#pa9bb64eac2)" style="fill: #787800"/>
   </g>
   <g id="patch_65">
    <path d="M 463.405333 195.970735 
L 462.373292 195.970735 
Q 449.714313 195.970735 442.676667 192.429266 
Q 435.65 188.882237 435.65 182.560966 
Q 435.65 176.250813 442.665687 172.675986 
Q 449.681375 169.0956 462 169.0956 
Q 474.450375 169.0956 481.400187 172.642629 
Q 488.35 176.184098 488.35 182.560966 
Q 488.35 186.936375 484.661 190.099791 
Q 480.972 193.263207 474.044146 194.858814 
L 484.364562 200.6964 
L 471.771458 200.6964 
L 463.405333 195.970735 
z
M 462 173.943576 
Q 455.961458 173.943576 452.634771 176.200776 
Q 449.308083 178.457976 449.308083 182.560966 
Q 449.308083 186.73067 452.557917 188.948953 
Q 455.818729 191.161676 462 191.161676 
Q 468.071479 191.161676 471.398167 188.904476 
Q 474.724854 186.641716 474.724854 182.560966 
Q 474.724854 178.457976 471.398167 176.200776 
Q 468.071479 173.943576 462 173.943576 
z
" clip-path="url(#pa9bb64eac2)" style="fill: #40ba47"/>
   </g>
   <g id="patch_66">
    <path d="M 483.955948 137.339508 
L 483.955948 143.788918 
Q 478.459804 142.666146 473.221293 142.098233 
Q 467.997094 141.523791 463.34541 141.523791 
Q 457.176562 141.523791 454.213797 142.300593 
Q 451.265345 143.070866 451.265345 144.702802 
Q 451.265345 145.930017 453.254834 146.61543 
Q 455.244324 147.294315 460.482835 147.783896 
L 467.811027 148.456253 
Q 478.946442 149.481109 483.641065 151.563459 
Q 488.35 153.639281 488.35 157.477593 
Q 488.35 162.510482 481.794704 164.971441 
Q 475.239408 167.4324 461.770994 167.4324 
Q 455.430391 167.4324 449.032537 166.877542 
Q 442.634682 166.329212 436.236828 165.245606 
L 436.236828 158.619948 
Q 442.634682 160.167023 448.60315 160.95688 
Q 454.571619 161.740209 460.125014 161.740209 
Q 465.764286 161.740209 468.755676 160.885075 
Q 471.747067 160.023413 471.747067 158.430644 
Q 471.747067 157.007596 469.714639 156.230794 
Q 467.682211 155.453993 461.59924 154.840385 
L 454.929441 154.168028 
Q 444.910429 153.188867 440.273058 151.047767 
Q 435.65 148.906668 435.65 145.277243 
Q 435.65 140.727407 442.090793 138.279503 
Q 448.531586 135.8316 460.611651 135.8316 
Q 466.122108 135.8316 471.933134 136.210209 
Q 477.744161 136.588818 483.955948 137.339508 
z
" clip-path="url(#pa9bb64eac2)" style="fill: #40ba47"/>
   </g>
   <g id="patch_67">
    <path d="M 472.155336 128.411718 
L 451.887763 128.411718 
L 448.68762 134.1684 
L 435.65 134.1684 
L 454.269015 102.5676 
L 469.730985 102.5676 
L 488.35 134.1684 
L 475.323155 134.1684 
L 472.155336 128.411718 
z
M 455.120231 122.546674 
L 468.890544 122.546674 
L 462.016162 109.976789 
L 455.120231 122.546674 
z
" clip-path="url(#pa9bb64eac2)" style="fill: #21599c"/>
   </g>
   <g id="patch_68">
    <path d="M 436.198462 53.0874 
L 487.801538 53.0874 
L 487.801538 62.331955 
L 455.323077 62.331955 
L 455.323077 71.149838 
L 485.877949 71.149838 
L 485.877949 80.394392 
L 455.323077 80.394392 
L 455.323077 100.4886 
L 436.198462 100.4886 
L 436.198462 53.0874 
z
" clip-path="url(#pa9bb64eac2)" style="fill: #21599c"/>
   </g>
   <g id="patch_69">
    <path d="M 497.65 368.2638 
L 525.043021 368.2638 
Q 537.271068 368.2638 543.803672 369.604768 
Q 550.35 370.94235 550.35 373.417724 
Q 550.35 375.906642 543.803672 377.244225 
Q 537.271068 378.581807 525.043021 378.581807 
L 514.159922 378.581807 
L 514.159922 384.0642 
L 497.65 384.0642 
L 497.65 368.2638 
z
M 514.159922 371.216639 
L 514.159922 375.628967 
L 523.286354 375.628967 
Q 528.08974 375.628967 530.711016 375.053299 
Q 533.332292 374.477631 533.332292 373.417724 
Q 533.332292 372.361203 530.711016 371.788921 
Q 528.08974 371.216639 523.286354 371.216639 
L 514.159922 371.216639 
z
" clip-path="url(#pa9bb64eac2)" style="fill: #787800"/>
   </g>
   <g id="patch_70">
    <path d="M 497.65 351.6318 
L 514.578032 351.6318 
L 535.968106 362.467908 
L 535.968106 351.6318 
L 550.35 351.6318 
L 550.35 367.4322 
L 533.409364 367.4322 
L 512.01929 356.596092 
L 512.01929 367.4322 
L 497.65 367.4322 
L 497.65 351.6318 
z
" clip-path="url(#pa9bb64eac2)" style="fill: #40ba47"/>
   </g>
   <g id="patch_71">
    <path d="M 497.65 334.9998 
L 512.22 334.9998 
L 523.988929 340.63119 
L 535.746786 334.9998 
L 550.35 334.9998 
L 530.665 344.142766 
L 530.665 350.8002 
L 517.346071 350.8002 
L 517.346071 344.142766 
L 497.65 334.9998 
z
" clip-path="url(#pa9bb64eac2)" style="fill: #177875"/>
   </g>
   <g id="patch_72">
    <path d="M 550.35 332.738624 
Q 545.035119 333.453412 539.318669 333.812438 
Q 533.602219 334.1682 527.507822 334.1682 
Q 513.736374 334.1682 505.693187 332.040156 
Q 497.65 329.912112 497.65 326.272896 
Q 497.65 322.591249 505.834917 320.479525 
Q 514.031645 318.3678 528.287338 318.3678 
Q 533.779381 318.3678 538.810802 318.655021 
Q 543.854034 318.938977 548.318534 319.500363 
L 548.318534 322.649999 
Q 543.712304 321.928683 539.153317 321.572921 
Q 534.59433 321.213896 530.011721 321.213896 
Q 521.531533 321.213896 516.937113 322.525972 
Q 512.342694 323.834784 512.342694 326.272896 
Q 512.342694 328.68816 516.771762 330.006764 
Q 521.200829 331.322104 529.350314 331.322104 
Q 531.570753 331.322104 533.472299 331.247035 
Q 535.373846 331.168702 536.885634 331.005509 
L 536.885634 328.048442 
L 528.204662 328.048442 
L 528.204662 325.414498 
L 550.35 325.414498 
L 550.35 332.738624 
z
" clip-path="url(#pa9bb64eac2)" style="fill: #787800"/>
   </g>
   <g id="patch_73">
    <path d="M 512.091481 304.817318 
L 512.091481 314.458068 
L 517.265444 314.458068 
Q 526.112802 314.458068 530.782574 313.218688 
Q 535.464351 311.979308 535.464351 309.619069 
Q 535.464351 307.272374 530.806583 306.046539 
Q 526.16082 304.817318 517.265444 304.817318 
L 512.091481 304.817318 
z
M 497.65 301.7358 
L 512.871777 301.7358 
Q 525.63262 301.7358 531.874989 302.250515 
Q 538.117358 302.761844 542.583052 303.991065 
Q 546.520547 305.061131 548.429271 306.459666 
Q 550.35 307.854815 550.35 309.619069 
Q 550.35 311.410413 548.429271 312.812334 
Q 546.520547 314.214256 542.583052 315.280935 
Q 538.081344 316.510156 531.778952 317.024871 
Q 525.47656 317.5362 512.871777 317.5362 
L 497.65 317.5362 
L 497.65 301.7358 
z
" clip-path="url(#pa9bb64eac2)" style="fill: #6b296b"/>
   </g>
   <g id="patch_74">
    <path d="M 497.65 285.1038 
L 506.762642 285.1038 
L 513.132798 296.586688 
L 519.455534 285.1038 
L 528.615597 285.1038 
L 534.938332 296.586688 
L 541.316392 285.1038 
L 550.35 285.1038 
L 541.656239 300.9042 
L 530.694196 300.9042 
L 524 288.893052 
L 517.384838 300.9042 
L 506.414892 300.9042 
L 497.65 285.1038 
z
" clip-path="url(#pa9bb64eac2)" style="fill: #21599c"/>
   </g>
   <g id="patch_75">
    <path d="M 514.437692 252.2556 
L 533.562308 252.2556 
L 533.562308 283.8564 
L 514.437692 283.8564 
L 514.437692 252.2556 
z
" clip-path="url(#pa9bb64eac2)" style="fill: #21599c"/>
   </g>
   <g id="patch_76">
    <path d="M 497.65 218.9916 
L 549.253077 218.9916 
L 549.253077 225.154636 
L 516.774615 225.154636 
L 516.774615 231.033225 
L 547.329487 231.033225 
L 547.329487 237.196261 
L 516.774615 237.196261 
L 516.774615 244.436136 
L 550.35 244.436136 
L 550.35 250.5924 
L 497.65 250.5924 
L 497.65 218.9916 
z
" clip-path="url(#pa9bb64eac2)" style="fill: #6b296b"/>
   </g>
   <g id="patch_77">
    <path d="M 497.65 185.7276 
L 510.68762 185.7276 
L 524.016162 209.052323 
L 537.323155 185.7276 
L 550.35 185.7276 
L 531.730985 217.3284 
L 516.269015 217.3284 
L 497.65 185.7276 
z
" clip-path="url(#pa9bb64eac2)" style="fill: #21599c"/>
   </g>
   <g id="patch_78">
    <path d="M 534.155336 178.307718 
L 513.887763 178.307718 
L 510.68762 184.0644 
L 497.65 184.0644 
L 516.269015 152.4636 
L 531.730985 152.4636 
L 550.35 184.0644 
L 537.323155 184.0644 
L 534.155336 178.307718 
z
M 517.120231 172.442674 
L 530.890544 172.442674 
L 524.016162 159.872789 
L 517.120231 172.442674 
z
" clip-path="url(#pa9bb64eac2)" style="fill: #21599c"/>
   </g>
   <g id="patch_79">
    <path d="M 545.955948 58.858525 
L 545.955948 78.206753 
Q 540.459804 74.838438 535.221293 73.134698 
Q 529.997094 71.411374 525.34541 71.411374 
Q 519.176562 71.411374 516.213797 73.741778 
Q 513.265345 76.052598 513.265345 80.948405 
Q 513.265345 84.630052 515.254834 86.68629 
Q 517.244324 88.722946 522.482835 90.191688 
L 529.811027 92.20876 
Q 540.946442 95.283327 545.641065 101.530376 
Q 550.35 107.757842 550.35 119.272779 
Q 550.35 134.371447 543.794704 141.754324 
Q 537.239408 149.1372 523.770994 149.1372 
Q 517.430391 149.1372 511.032537 147.472626 
Q 504.634682 145.827635 498.236828 142.576819 
L 498.236828 122.699844 
Q 504.634682 127.341069 510.60315 129.710639 
Q 516.571619 132.060626 522.125014 132.060626 
Q 527.764286 132.060626 530.755676 129.495224 
Q 533.747067 126.910238 533.747067 122.131931 
Q 533.747067 117.862787 531.714639 115.532383 
Q 529.682211 113.201979 523.59924 111.361156 
L 516.929441 109.344084 
Q 506.910429 106.4066 502.273058 99.983301 
Q 497.65 93.560003 497.65 82.671729 
Q 497.65 69.02222 504.090793 61.67851 
Q 510.531586 54.3348 522.611651 54.3348 
Q 528.122108 54.3348 533.933134 55.470627 
Q 539.744161 56.606454 545.955948 58.858525 
z
" clip-path="url(#pa9bb64eac2)" style="fill: #40ba47"/>
   </g>
   <g id="patch_80">
    <path d="M 559.65 368.2638 
L 572.68762 368.2638 
L 586.016162 379.926161 
L 599.323155 368.2638 
L 612.35 368.2638 
L 593.730985 384.0642 
L 578.269015 384.0642 
L 559.65 368.2638 
z
" clip-path="url(#pa9bb64eac2)" style="fill: #21599c"/>
   </g>
   <g id="patch_81">
    <path d="M 559.65 351.6318 
L 587.043021 351.6318 
Q 599.271068 351.6318 605.803672 352.972768 
Q 612.35 354.31035 612.35 356.785724 
Q 612.35 359.274642 605.803672 360.612225 
Q 599.271068 361.949807 587.043021 361.949807 
L 576.159922 361.949807 
L 576.159922 367.4322 
L 559.65 367.4322 
L 559.65 351.6318 
z
M 576.159922 354.584639 
L 576.159922 358.996967 
L 585.286354 358.996967 
Q 590.08974 358.996967 592.711016 358.421299 
Q 595.332292 357.845631 595.332292 356.785724 
Q 595.332292 355.729203 592.711016 355.156921 
Q 590.08974 354.584639 585.286354 354.584639 
L 576.159922 354.584639 
z
" clip-path="url(#pa9bb64eac2)" style="fill: #787800"/>
   </g>
   <g id="patch_82">
    <path d="M 559.65 334.9998 
L 575.195992 334.9998 
L 585.979692 343.455351 
L 596.83447 334.9998 
L 612.35 334.9998 
L 612.35 350.8002 
L 600.80474 350.8002 
L 600.80474 339.242814 
L 589.889037 347.762703 
L 582.141426 347.762703 
L 571.225723 339.242814 
L 571.225723 350.8002 
L 559.65 350.8002 
L 559.65 334.9998 
z
" clip-path="url(#pa9bb64eac2)" style="fill: #21599c"/>
   </g>
   <g id="patch_83">
    <path d="M 596.155336 331.289859 
L 575.887763 331.289859 
L 572.68762 334.1682 
L 559.65 334.1682 
L 578.269015 318.3678 
L 593.730985 318.3678 
L 612.35 334.1682 
L 599.323155 334.1682 
L 596.155336 331.289859 
z
M 579.120231 328.357337 
L 592.890544 328.357337 
L 586.016162 322.072394 
L 579.120231 328.357337 
z
" clip-path="url(#pa9bb64eac2)" style="fill: #21599c"/>
   </g>
   <g id="patch_84">
    <path d="M 559.65 301.7358 
L 573.537864 301.7358 
L 573.537864 307.502641 
L 593.555783 301.7358 
L 609.683253 301.7358 
L 583.743078 309.219487 
L 612.35 317.5362 
L 594.964195 317.5362 
L 573.537864 311.31221 
L 573.537864 317.5362 
L 559.65 317.5362 
L 559.65 301.7358 
z
" clip-path="url(#pa9bb64eac2)" style="fill: #bd2e1f"/>
   </g>
   <g id="patch_85">
    <path d="M 612.35 299.474624 
Q 607.035119 300.189412 601.318669 300.548438 
Q 595.602219 300.9042 589.507822 300.9042 
Q 575.736374 300.9042 567.693187 298.776156 
Q 559.65 296.648112 559.65 293.008896 
Q 559.65 289.327249 567.834917 287.215525 
Q 576.031645 285.1038 590.287338 285.1038 
Q 595.779381 285.1038 600.810802 285.391021 
Q 605.854034 285.674977 610.318534 286.236363 
L 610.318534 289.385999 
Q 605.712304 288.664683 601.153317 288.308921 
Q 596.59433 287.949896 592.011721 287.949896 
Q 583.531533 287.949896 578.937113 289.261972 
Q 574.342694 290.570784 574.342694 293.008896 
Q 574.342694 295.42416 578.771762 296.742764 
Q 583.200829 298.058104 591.350314 298.058104 
Q 593.570753 298.058104 595.472299 297.983035 
Q 597.373846 297.904702 598.885634 297.741509 
L 598.885634 294.784442 
L 590.204662 294.784442 
L 590.204662 292.150498 
L 612.35 292.150498 
L 612.35 299.474624 
z
" clip-path="url(#pa9bb64eac2)" style="fill: #787800"/>
   </g>
   <g id="patch_86">
    <path d="M 559.65 268.4718 
L 611.253077 268.4718 
L 611.253077 271.553318 
L 578.774615 271.553318 
L 578.774615 274.492613 
L 609.329487 274.492613 
L 609.329487 277.574131 
L 578.774615 277.574131 
L 578.774615 281.194068 
L 612.35 281.194068 
L 612.35 284.2722 
L 559.65 284.2722 
L 559.65 268.4718 
z
" clip-path="url(#pa9bb64eac2)" style="fill: #6b296b"/>
   </g>
   <g id="patch_87">
    <path d="M 559.65 251.8398 
L 568.762642 251.8398 
L 575.132798 263.322688 
L 581.455534 251.8398 
L 590.615597 251.8398 
L 596.938332 263.322688 
L 603.316392 251.8398 
L 612.35 251.8398 
L 603.656239 267.6402 
L 592.694196 267.6402 
L 586 255.629052 
L 579.384838 267.6402 
L 568.414892 267.6402 
L 559.65 251.8398 
z
" clip-path="url(#pa9bb64eac2)" style="fill: #21599c"/>
   </g>
   <g id="patch_88">
    <path d="M 576.437692 218.9916 
L 595.562308 218.9916 
L 595.562308 250.5924 
L 576.437692 250.5924 
L 576.437692 218.9916 
z
" clip-path="url(#pa9bb64eac2)" style="fill: #21599c"/>
   </g>
   <g id="patch_89">
    <path d="M 607.955948 187.235508 
L 607.955948 193.684918 
Q 602.459804 192.562146 597.221293 191.994233 
Q 591.997094 191.419791 587.34541 191.419791 
Q 581.176562 191.419791 578.213797 192.196593 
Q 575.265345 192.966866 575.265345 194.598802 
Q 575.265345 195.826017 577.254834 196.51143 
Q 579.244324 197.190315 584.482835 197.679896 
L 591.811027 198.352253 
Q 602.946442 199.377109 607.641065 201.459459 
Q 612.35 203.535281 612.35 207.373593 
Q 612.35 212.406482 605.794704 214.867441 
Q 599.239408 217.3284 585.770994 217.3284 
Q 579.430391 217.3284 573.032537 216.773542 
Q 566.634682 216.225212 560.236828 215.141606 
L 560.236828 208.515948 
Q 566.634682 210.063023 572.60315 210.85288 
Q 578.571619 211.636209 584.125014 211.636209 
Q 589.764286 211.636209 592.755676 210.781075 
Q 595.747067 209.919413 595.747067 208.326644 
Q 595.747067 206.903596 593.714639 206.126794 
Q 591.682211 205.349993 585.59924 204.736385 
L 578.929441 204.064028 
Q 568.910429 203.084867 564.273058 200.943767 
Q 559.65 198.802668 559.65 195.173243 
Q 559.65 190.623407 566.090793 188.175503 
Q 572.531586 185.7276 584.611651 185.7276 
Q 590.122108 185.7276 595.933134 186.106209 
Q 601.744161 186.484818 607.955948 187.235508 
z
" clip-path="url(#pa9bb64eac2)" style="fill: #40ba47"/>
   </g>
   <g id="patch_90">
    <path d="M 574.091481 158.626636 
L 574.091481 177.908136 
L 579.265444 177.908136 
Q 588.112802 177.908136 592.782574 175.429376 
Q 597.464351 172.950617 597.464351 168.230137 
Q 597.464351 163.536748 592.806583 161.085078 
Q 588.16082 158.626636 579.265444 158.626636 
L 574.091481 158.626636 
z
M 559.65 152.4636 
L 574.871777 152.4636 
Q 587.63262 152.4636 593.874989 153.49303 
Q 600.117358 154.515688 604.583052 156.97413 
Q 608.520547 159.114261 610.429271 161.911332 
Q 612.35 164.701629 612.35 168.230137 
Q 612.35 171.812825 610.429271 174.616668 
Q 608.520547 177.420511 604.583052 179.55387 
Q 600.081344 182.012312 593.778952 183.041742 
Q 587.47656 184.0644 574.871777 184.0644 
L 559.65 184.0644 
L 559.65 152.4636 
z
" clip-path="url(#pa9bb64eac2)" style="fill: #6b296b"/>
   </g>
   <g id="patch_91">
    <path d="M 559.65 119.1996 
L 578.774615 119.1996 
L 578.774615 144.644136 
L 612.35 144.644136 
L 612.35 150.8004 
L 559.65 150.8004 
L 559.65 119.1996 
z
" clip-path="url(#pa9bb64eac2)" style="fill: #21599c"/>
   </g>
   <g id="patch_92">
    <path d="M 587.405333 107.25347 
L 586.373292 107.25347 
Q 573.714313 107.25347 566.676667 100.170532 
Q 559.65 93.076475 559.65 80.433931 
Q 559.65 67.813626 566.665687 60.663972 
Q 573.681375 53.5032 586 53.5032 
Q 598.450375 53.5032 605.400187 60.597257 
Q 612.35 67.680195 612.35 80.433931 
Q 612.35 89.184751 608.661 95.511582 
Q 604.972 101.838414 598.044146 105.029628 
L 608.364562 116.7048 
L 595.771458 116.7048 
L 587.405333 107.25347 
z
M 586 63.199153 
Q 579.961458 63.199153 576.634771 67.713553 
Q 573.308083 72.227953 573.308083 80.433931 
Q 573.308083 88.77334 576.557917 93.209905 
Q 579.818729 97.635352 586 97.635352 
Q 592.071479 97.635352 595.398167 93.120952 
Q 598.724854 88.595433 598.724854 80.433931 
Q 598.724854 72.227953 595.398167 67.713553 
Q 592.071479 63.199153 586 63.199153 
z
" clip-path="url(#pa9bb64eac2)" style="fill: #40ba47"/>
   </g>
   <g id="matplotlib.axis_1">
    <g id="xtick_1">
     <g id="line2d_2">
      <defs>
       <path id="m7ade32a28b" d="M 0 0 
L 0 4.8 
" style="stroke: #262626"/>
      </defs>
      <g>
       <use xlink:href="#m7ade32a28b" x="152" y="384.48" style="fill: #262626; stroke: #262626"/>
      </g>
     </g>
     <g id="text_1">
      <!-- P4 -->
      <g style="fill: #262626" transform="translate(146.61825 399.078875) scale(0.088 -0.088)">
       <defs>
        <path id="ArialMT-50" d="M 494 0 
L 494 4581 
L 2222 4581 
Q 2678 4581 2919 4538 
Q 3256 4481 3484 4323 
Q 3713 4166 3852 3881 
Q 3991 3597 3991 3256 
Q 3991 2672 3619 2267 
Q 3247 1863 2275 1863 
L 1100 1863 
L 1100 0 
L 494 0 
z
M 1100 2403 
L 2284 2403 
Q 2872 2403 3119 2622 
Q 3366 2841 3366 3238 
Q 3366 3525 3220 3729 
Q 3075 3934 2838 4000 
Q 2684 4041 2272 4041 
L 1100 4041 
L 1100 2403 
z
" transform="scale(0.015625)"/>
        <path id="ArialMT-34" d="M 2069 0 
L 2069 1097 
L 81 1097 
L 81 1613 
L 2172 4581 
L 2631 4581 
L 2631 1613 
L 3250 1613 
L 3250 1097 
L 2631 1097 
L 2631 0 
L 2069 0 
z
M 2069 1613 
L 2069 3678 
L 634 1613 
L 2069 1613 
z
" transform="scale(0.015625)"/>
       </defs>
       <use xlink:href="#ArialMT-50"/>
       <use xlink:href="#ArialMT-34" x="66.699219"/>
      </g>
     </g>
    </g>
    <g id="xtick_2">
     <g id="line2d_3">
      <g>
       <use xlink:href="#m7ade32a28b" x="214" y="384.48" style="fill: #262626; stroke: #262626"/>
      </g>
     </g>
     <g id="text_2">
      <!-- P3 -->
      <g style="fill: #262626" transform="translate(208.61825 399.078875) scale(0.088 -0.088)">
       <defs>
        <path id="ArialMT-33" d="M 269 1209 
L 831 1284 
Q 928 806 1161 595 
Q 1394 384 1728 384 
Q 2125 384 2398 659 
Q 2672 934 2672 1341 
Q 2672 1728 2419 1979 
Q 2166 2231 1775 2231 
Q 1616 2231 1378 2169 
L 1441 2663 
Q 1497 2656 1531 2656 
Q 1891 2656 2178 2843 
Q 2466 3031 2466 3422 
Q 2466 3731 2256 3934 
Q 2047 4138 1716 4138 
Q 1388 4138 1169 3931 
Q 950 3725 888 3313 
L 325 3413 
Q 428 3978 793 4289 
Q 1159 4600 1703 4600 
Q 2078 4600 2393 4439 
Q 2709 4278 2876 4000 
Q 3044 3722 3044 3409 
Q 3044 3113 2884 2869 
Q 2725 2625 2413 2481 
Q 2819 2388 3044 2092 
Q 3269 1797 3269 1353 
Q 3269 753 2831 336 
Q 2394 -81 1725 -81 
Q 1122 -81 723 278 
Q 325 638 269 1209 
z
" transform="scale(0.015625)"/>
       </defs>
       <use xlink:href="#ArialMT-50"/>
       <use xlink:href="#ArialMT-33" x="66.699219"/>
      </g>
     </g>
    </g>
    <g id="xtick_3">
     <g id="line2d_4">
      <g>
       <use xlink:href="#m7ade32a28b" x="276" y="384.48" style="fill: #262626; stroke: #262626"/>
      </g>
     </g>
     <g id="text_3">
      <!-- P2 -->
      <g style="fill: #262626" transform="translate(270.61825 399.078875) scale(0.088 -0.088)">
       <defs>
        <path id="ArialMT-32" d="M 3222 541 
L 3222 0 
L 194 0 
Q 188 203 259 391 
Q 375 700 629 1000 
Q 884 1300 1366 1694 
Q 2113 2306 2375 2664 
Q 2638 3022 2638 3341 
Q 2638 3675 2398 3904 
Q 2159 4134 1775 4134 
Q 1369 4134 1125 3890 
Q 881 3647 878 3216 
L 300 3275 
Q 359 3922 746 4261 
Q 1134 4600 1788 4600 
Q 2447 4600 2831 4234 
Q 3216 3869 3216 3328 
Q 3216 3053 3103 2787 
Q 2991 2522 2730 2228 
Q 2469 1934 1863 1422 
Q 1356 997 1212 845 
Q 1069 694 975 541 
L 3222 541 
z
" transform="scale(0.015625)"/>
       </defs>
       <use xlink:href="#ArialMT-50"/>
       <use xlink:href="#ArialMT-32" x="66.699219"/>
      </g>
     </g>
    </g>
    <g id="xtick_4">
     <g id="line2d_5">
      <g>
       <use xlink:href="#m7ade32a28b" x="338" y="384.48" style="fill: #262626; stroke: #262626"/>
      </g>
     </g>
     <g id="text_4">
      <!-- P1 -->
      <g style="fill: #262626" transform="translate(332.61825 399.078875) scale(0.088 -0.088)">
       <defs>
        <path id="ArialMT-31" d="M 2384 0 
L 1822 0 
L 1822 3584 
Q 1619 3391 1289 3197 
Q 959 3003 697 2906 
L 697 3450 
Q 1169 3672 1522 3987 
Q 1875 4303 2022 4600 
L 2384 4600 
L 2384 0 
z
" transform="scale(0.015625)"/>
       </defs>
       <use xlink:href="#ArialMT-50"/>
       <use xlink:href="#ArialMT-31" x="66.699219"/>
      </g>
     </g>
    </g>
    <g id="xtick_5">
     <g id="line2d_6">
      <g>
       <use xlink:href="#m7ade32a28b" x="400" y="384.48" style="fill: #262626; stroke: #262626"/>
      </g>
     </g>
     <g id="text_5">
      <!-- P1' -->
      <g style="fill: #262626" transform="translate(393.778125 399.078875) scale(0.088 -0.088)">
       <defs>
        <path id="ArialMT-27" d="M 425 2959 
L 281 3816 
L 281 4581 
L 922 4581 
L 922 3816 
L 772 2959 
L 425 2959 
z
" transform="scale(0.015625)"/>
       </defs>
       <use xlink:href="#ArialMT-50"/>
       <use xlink:href="#ArialMT-31" x="66.699219"/>
       <use xlink:href="#ArialMT-27" x="122.314453"/>
      </g>
     </g>
    </g>
    <g id="xtick_6">
     <g id="line2d_7">
      <g>
       <use xlink:href="#m7ade32a28b" x="462" y="384.48" style="fill: #262626; stroke: #262626"/>
      </g>
     </g>
     <g id="text_6">
      <!-- P2' -->
      <g style="fill: #262626" transform="translate(455.778125 399.078875) scale(0.088 -0.088)">
       <use xlink:href="#ArialMT-50"/>
       <use xlink:href="#ArialMT-32" x="66.699219"/>
       <use xlink:href="#ArialMT-27" x="122.314453"/>
      </g>
     </g>
    </g>
    <g id="xtick_7">
     <g id="line2d_8">
      <g>
       <use xlink:href="#m7ade32a28b" x="524" y="384.48" style="fill: #262626; stroke: #262626"/>
      </g>
     </g>
     <g id="text_7">
      <!-- P3' -->
      <g style="fill: #262626" transform="translate(517.778125 399.078875) scale(0.088 -0.088)">
       <use xlink:href="#ArialMT-50"/>
       <use xlink:href="#ArialMT-33" x="66.699219"/>
       <use xlink:href="#ArialMT-27" x="122.314453"/>
      </g>
     </g>
    </g>
    <g id="xtick_8">
     <g id="line2d_9">
      <g>
       <use xlink:href="#m7ade32a28b" x="586" y="384.48" style="fill: #262626; stroke: #262626"/>
      </g>
     </g>
     <g id="text_8">
      <!-- P4' -->
      <g style="fill: #262626" transform="translate(579.778125 399.078875) scale(0.088 -0.088)">
       <use xlink:href="#ArialMT-50"/>
       <use xlink:href="#ArialMT-34" x="66.699219"/>
       <use xlink:href="#ArialMT-27" x="122.314453"/>
      </g>
     </g>
    </g>
   </g>
   <g id="matplotlib.axis_2">
    <g id="ytick_1">
     <g id="line2d_10">
      <defs>
       <path id="m07b3f4e511" d="M 0 0 
L -4.8 0 
" style="stroke: #262626"/>
      </defs>
      <g>
       <use xlink:href="#m07b3f4e511" x="90" y="384.48" style="fill: #262626; stroke: #262626"/>
      </g>
     </g>
     <g id="text_9">
      <!-- 0.0 -->
      <g style="fill: #262626" transform="translate(69.468 387.629437) scale(0.088 -0.088)">
       <defs>
        <path id="ArialMT-30" d="M 266 2259 
Q 266 3072 433 3567 
Q 600 4063 929 4331 
Q 1259 4600 1759 4600 
Q 2128 4600 2406 4451 
Q 2684 4303 2865 4023 
Q 3047 3744 3150 3342 
Q 3253 2941 3253 2259 
Q 3253 1453 3087 958 
Q 2922 463 2592 192 
Q 2263 -78 1759 -78 
Q 1097 -78 719 397 
Q 266 969 266 2259 
z
M 844 2259 
Q 844 1131 1108 757 
Q 1372 384 1759 384 
Q 2147 384 2411 759 
Q 2675 1134 2675 2259 
Q 2675 3391 2411 3762 
Q 2147 4134 1753 4134 
Q 1366 4134 1134 3806 
Q 844 3388 844 2259 
z
" transform="scale(0.015625)"/>
        <path id="ArialMT-2e" d="M 581 0 
L 581 641 
L 1222 641 
L 1222 0 
L 581 0 
z
" transform="scale(0.015625)"/>
       </defs>
       <use xlink:href="#ArialMT-30"/>
       <use xlink:href="#ArialMT-2e" x="55.615234"/>
       <use xlink:href="#ArialMT-30" x="83.398438"/>
      </g>
     </g>
    </g>
    <g id="ytick_2">
     <g id="line2d_11">
      <g>
       <use xlink:href="#m07b3f4e511" x="90" y="317.952" style="fill: #262626; stroke: #262626"/>
      </g>
     </g>
     <g id="text_10">
      <!-- 0.2 -->
      <g style="fill: #262626" transform="translate(69.468 321.101437) scale(0.088 -0.088)">
       <use xlink:href="#ArialMT-30"/>
       <use xlink:href="#ArialMT-2e" x="55.615234"/>
       <use xlink:href="#ArialMT-32" x="83.398438"/>
      </g>
     </g>
    </g>
    <g id="ytick_3">
     <g id="line2d_12">
      <g>
       <use xlink:href="#m07b3f4e511" x="90" y="251.424" style="fill: #262626; stroke: #262626"/>
      </g>
     </g>
     <g id="text_11">
      <!-- 0.4 -->
      <g style="fill: #262626" transform="translate(69.468 254.573437) scale(0.088 -0.088)">
       <use xlink:href="#ArialMT-30"/>
       <use xlink:href="#ArialMT-2e" x="55.615234"/>
       <use xlink:href="#ArialMT-34" x="83.398438"/>
      </g>
     </g>
    </g>
    <g id="ytick_4">
     <g id="line2d_13">
      <g>
       <use xlink:href="#m07b3f4e511" x="90" y="184.896" style="fill: #262626; stroke: #262626"/>
      </g>
     </g>
     <g id="text_12">
      <!-- 0.6 -->
      <g style="fill: #262626" transform="translate(69.468 188.045437) scale(0.088 -0.088)">
       <defs>
        <path id="ArialMT-36" d="M 3184 3459 
L 2625 3416 
Q 2550 3747 2413 3897 
Q 2184 4138 1850 4138 
Q 1581 4138 1378 3988 
Q 1113 3794 959 3422 
Q 806 3050 800 2363 
Q 1003 2672 1297 2822 
Q 1591 2972 1913 2972 
Q 2475 2972 2870 2558 
Q 3266 2144 3266 1488 
Q 3266 1056 3080 686 
Q 2894 316 2569 119 
Q 2244 -78 1831 -78 
Q 1128 -78 684 439 
Q 241 956 241 2144 
Q 241 3472 731 4075 
Q 1159 4600 1884 4600 
Q 2425 4600 2770 4297 
Q 3116 3994 3184 3459 
z
M 888 1484 
Q 888 1194 1011 928 
Q 1134 663 1356 523 
Q 1578 384 1822 384 
Q 2178 384 2434 671 
Q 2691 959 2691 1453 
Q 2691 1928 2437 2201 
Q 2184 2475 1800 2475 
Q 1419 2475 1153 2201 
Q 888 1928 888 1484 
z
" transform="scale(0.015625)"/>
       </defs>
       <use xlink:href="#ArialMT-30"/>
       <use xlink:href="#ArialMT-2e" x="55.615234"/>
       <use xlink:href="#ArialMT-36" x="83.398438"/>
      </g>
     </g>
    </g>
    <g id="ytick_5">
     <g id="line2d_14">
      <g>
       <use xlink:href="#m07b3f4e511" x="90" y="118.368" style="fill: #262626; stroke: #262626"/>
      </g>
     </g>
     <g id="text_13">
      <!-- 0.8 -->
      <g style="fill: #262626" transform="translate(69.468 121.517437) scale(0.088 -0.088)">
       <defs>
        <path id="ArialMT-38" d="M 1131 2484 
Q 781 2613 612 2850 
Q 444 3088 444 3419 
Q 444 3919 803 4259 
Q 1163 4600 1759 4600 
Q 2359 4600 2725 4251 
Q 3091 3903 3091 3403 
Q 3091 3084 2923 2848 
Q 2756 2613 2416 2484 
Q 2838 2347 3058 2040 
Q 3278 1734 3278 1309 
Q 3278 722 2862 322 
Q 2447 -78 1769 -78 
Q 1091 -78 675 323 
Q 259 725 259 1325 
Q 259 1772 486 2073 
Q 713 2375 1131 2484 
z
M 1019 3438 
Q 1019 3113 1228 2906 
Q 1438 2700 1772 2700 
Q 2097 2700 2305 2904 
Q 2513 3109 2513 3406 
Q 2513 3716 2298 3927 
Q 2084 4138 1766 4138 
Q 1444 4138 1231 3931 
Q 1019 3725 1019 3438 
z
M 838 1322 
Q 838 1081 952 856 
Q 1066 631 1291 507 
Q 1516 384 1775 384 
Q 2178 384 2440 643 
Q 2703 903 2703 1303 
Q 2703 1709 2433 1975 
Q 2163 2241 1756 2241 
Q 1359 2241 1098 1978 
Q 838 1716 838 1322 
z
" transform="scale(0.015625)"/>
       </defs>
       <use xlink:href="#ArialMT-30"/>
       <use xlink:href="#ArialMT-2e" x="55.615234"/>
       <use xlink:href="#ArialMT-38" x="83.398438"/>
      </g>
     </g>
    </g>
    <g id="ytick_6">
     <g id="line2d_15">
      <g>
       <use xlink:href="#m07b3f4e511" x="90" y="51.84" style="fill: #262626; stroke: #262626"/>
      </g>
     </g>
     <g id="text_14">
      <!-- 1.0 -->
      <g style="fill: #262626" transform="translate(69.468 54.989437) scale(0.088 -0.088)">
       <use xlink:href="#ArialMT-31"/>
       <use xlink:href="#ArialMT-2e" x="55.615234"/>
       <use xlink:href="#ArialMT-30" x="83.398438"/>
      </g>
     </g>
    </g>
    <g id="text_15">
     <!-- percentage -->
     <g style="fill: #262626" transform="translate(63.4475 242.1765) rotate(-90) scale(0.096 -0.096)">
      <defs>
       <path id="ArialMT-70" d="M 422 -1272 
L 422 3319 
L 934 3319 
L 934 2888 
Q 1116 3141 1344 3267 
Q 1572 3394 1897 3394 
Q 2322 3394 2647 3175 
Q 2972 2956 3137 2557 
Q 3303 2159 3303 1684 
Q 3303 1175 3120 767 
Q 2938 359 2589 142 
Q 2241 -75 1856 -75 
Q 1575 -75 1351 44 
Q 1128 163 984 344 
L 984 -1272 
L 422 -1272 
z
M 931 1641 
Q 931 1000 1190 694 
Q 1450 388 1819 388 
Q 2194 388 2461 705 
Q 2728 1022 2728 1688 
Q 2728 2322 2467 2637 
Q 2206 2953 1844 2953 
Q 1484 2953 1207 2617 
Q 931 2281 931 1641 
z
" transform="scale(0.015625)"/>
       <path id="ArialMT-65" d="M 2694 1069 
L 3275 997 
Q 3138 488 2766 206 
Q 2394 -75 1816 -75 
Q 1088 -75 661 373 
Q 234 822 234 1631 
Q 234 2469 665 2931 
Q 1097 3394 1784 3394 
Q 2450 3394 2872 2941 
Q 3294 2488 3294 1666 
Q 3294 1616 3291 1516 
L 816 1516 
Q 847 969 1125 678 
Q 1403 388 1819 388 
Q 2128 388 2347 550 
Q 2566 713 2694 1069 
z
M 847 1978 
L 2700 1978 
Q 2663 2397 2488 2606 
Q 2219 2931 1791 2931 
Q 1403 2931 1139 2672 
Q 875 2413 847 1978 
z
" transform="scale(0.015625)"/>
       <path id="ArialMT-72" d="M 416 0 
L 416 3319 
L 922 3319 
L 922 2816 
Q 1116 3169 1280 3281 
Q 1444 3394 1641 3394 
Q 1925 3394 2219 3213 
L 2025 2691 
Q 1819 2813 1613 2813 
Q 1428 2813 1281 2702 
Q 1134 2591 1072 2394 
Q 978 2094 978 1738 
L 978 0 
L 416 0 
z
" transform="scale(0.015625)"/>
       <path id="ArialMT-63" d="M 2588 1216 
L 3141 1144 
Q 3050 572 2676 248 
Q 2303 -75 1759 -75 
Q 1078 -75 664 370 
Q 250 816 250 1647 
Q 250 2184 428 2587 
Q 606 2991 970 3192 
Q 1334 3394 1763 3394 
Q 2303 3394 2647 3120 
Q 2991 2847 3088 2344 
L 2541 2259 
Q 2463 2594 2264 2762 
Q 2066 2931 1784 2931 
Q 1359 2931 1093 2626 
Q 828 2322 828 1663 
Q 828 994 1084 691 
Q 1341 388 1753 388 
Q 2084 388 2306 591 
Q 2528 794 2588 1216 
z
" transform="scale(0.015625)"/>
       <path id="ArialMT-6e" d="M 422 0 
L 422 3319 
L 928 3319 
L 928 2847 
Q 1294 3394 1984 3394 
Q 2284 3394 2536 3286 
Q 2788 3178 2913 3003 
Q 3038 2828 3088 2588 
Q 3119 2431 3119 2041 
L 3119 0 
L 2556 0 
L 2556 2019 
Q 2556 2363 2490 2533 
Q 2425 2703 2258 2804 
Q 2091 2906 1866 2906 
Q 1506 2906 1245 2678 
Q 984 2450 984 1813 
L 984 0 
L 422 0 
z
" transform="scale(0.015625)"/>
       <path id="ArialMT-74" d="M 1650 503 
L 1731 6 
Q 1494 -44 1306 -44 
Q 1000 -44 831 53 
Q 663 150 594 308 
Q 525 466 525 972 
L 525 2881 
L 113 2881 
L 113 3319 
L 525 3319 
L 525 4141 
L 1084 4478 
L 1084 3319 
L 1650 3319 
L 1650 2881 
L 1084 2881 
L 1084 941 
Q 1084 700 1114 631 
Q 1144 563 1211 522 
Q 1278 481 1403 481 
Q 1497 481 1650 503 
z
" transform="scale(0.015625)"/>
       <path id="ArialMT-61" d="M 2588 409 
Q 2275 144 1986 34 
Q 1697 -75 1366 -75 
Q 819 -75 525 192 
Q 231 459 231 875 
Q 231 1119 342 1320 
Q 453 1522 633 1644 
Q 813 1766 1038 1828 
Q 1203 1872 1538 1913 
Q 2219 1994 2541 2106 
Q 2544 2222 2544 2253 
Q 2544 2597 2384 2738 
Q 2169 2928 1744 2928 
Q 1347 2928 1158 2789 
Q 969 2650 878 2297 
L 328 2372 
Q 403 2725 575 2942 
Q 747 3159 1072 3276 
Q 1397 3394 1825 3394 
Q 2250 3394 2515 3294 
Q 2781 3194 2906 3042 
Q 3031 2891 3081 2659 
Q 3109 2516 3109 2141 
L 3109 1391 
Q 3109 606 3145 398 
Q 3181 191 3288 0 
L 2700 0 
Q 2613 175 2588 409 
z
M 2541 1666 
Q 2234 1541 1622 1453 
Q 1275 1403 1131 1340 
Q 988 1278 909 1158 
Q 831 1038 831 891 
Q 831 666 1001 516 
Q 1172 366 1500 366 
Q 1825 366 2078 508 
Q 2331 650 2450 897 
Q 2541 1088 2541 1459 
L 2541 1666 
z
" transform="scale(0.015625)"/>
       <path id="ArialMT-67" d="M 319 -275 
L 866 -356 
Q 900 -609 1056 -725 
Q 1266 -881 1628 -881 
Q 2019 -881 2231 -725 
Q 2444 -569 2519 -288 
Q 2563 -116 2559 434 
Q 2191 0 1641 0 
Q 956 0 581 494 
Q 206 988 206 1678 
Q 206 2153 378 2554 
Q 550 2956 876 3175 
Q 1203 3394 1644 3394 
Q 2231 3394 2613 2919 
L 2613 3319 
L 3131 3319 
L 3131 450 
Q 3131 -325 2973 -648 
Q 2816 -972 2473 -1159 
Q 2131 -1347 1631 -1347 
Q 1038 -1347 672 -1080 
Q 306 -813 319 -275 
z
M 784 1719 
Q 784 1066 1043 766 
Q 1303 466 1694 466 
Q 2081 466 2343 764 
Q 2606 1063 2606 1700 
Q 2606 2309 2336 2618 
Q 2066 2928 1684 2928 
Q 1309 2928 1046 2623 
Q 784 2319 784 1719 
z
" transform="scale(0.015625)"/>
      </defs>
      <use xlink:href="#ArialMT-70"/>
      <use xlink:href="#ArialMT-65" x="55.615234"/>
      <use xlink:href="#ArialMT-72" x="111.230469"/>
      <use xlink:href="#ArialMT-63" x="144.53125"/>
      <use xlink:href="#ArialMT-65" x="194.53125"/>
      <use xlink:href="#ArialMT-6e" x="250.146484"/>
      <use xlink:href="#ArialMT-74" x="305.761719"/>
      <use xlink:href="#ArialMT-61" x="333.544922"/>
      <use xlink:href="#ArialMT-67" x="389.160156"/>
      <use xlink:href="#ArialMT-65" x="444.775391"/>
     </g>
    </g>
   </g>
   <g id="line2d_16">
    <path d="M 369 384.48 
L 369 51.84 
" clip-path="url(#pa9bb64eac2)" style="fill: none; stroke: #daa520; stroke-width: 2; stroke-linecap: round"/>
   </g>
   <g id="patch_93">
    <path d="M 90 384.48 
L 648 384.48 
" style="fill: none; stroke: #262626; stroke-linejoin: miter; stroke-linecap: square"/>
   </g>
   <g id="patch_94">
    <path d="M 90 51.84 
L 648 51.84 
" style="fill: none; stroke: #262626; stroke-linejoin: miter; stroke-linecap: square"/>
   </g>
   <g id="text_16">
    <!-- Ctrl vs. MMP9 probability PPSM n=20 -->
    <g style="fill: #262626" transform="translate(288.5745 45.84) scale(0.096 -0.096)">
     <defs>
      <path id="ArialMT-43" d="M 3763 1606 
L 4369 1453 
Q 4178 706 3683 314 
Q 3188 -78 2472 -78 
Q 1731 -78 1267 223 
Q 803 525 561 1097 
Q 319 1669 319 2325 
Q 319 3041 592 3573 
Q 866 4106 1370 4382 
Q 1875 4659 2481 4659 
Q 3169 4659 3637 4309 
Q 4106 3959 4291 3325 
L 3694 3184 
Q 3534 3684 3231 3912 
Q 2928 4141 2469 4141 
Q 1941 4141 1586 3887 
Q 1231 3634 1087 3207 
Q 944 2781 944 2328 
Q 944 1744 1114 1308 
Q 1284 872 1643 656 
Q 2003 441 2422 441 
Q 2931 441 3284 734 
Q 3638 1028 3763 1606 
z
" transform="scale(0.015625)"/>
      <path id="ArialMT-6c" d="M 409 0 
L 409 4581 
L 972 4581 
L 972 0 
L 409 0 
z
" transform="scale(0.015625)"/>
      <path id="ArialMT-20" transform="scale(0.015625)"/>
      <path id="ArialMT-76" d="M 1344 0 
L 81 3319 
L 675 3319 
L 1388 1331 
Q 1503 1009 1600 663 
Q 1675 925 1809 1294 
L 2547 3319 
L 3125 3319 
L 1869 0 
L 1344 0 
z
" transform="scale(0.015625)"/>
      <path id="ArialMT-73" d="M 197 991 
L 753 1078 
Q 800 744 1014 566 
Q 1228 388 1613 388 
Q 2000 388 2187 545 
Q 2375 703 2375 916 
Q 2375 1106 2209 1216 
Q 2094 1291 1634 1406 
Q 1016 1563 777 1677 
Q 538 1791 414 1992 
Q 291 2194 291 2438 
Q 291 2659 392 2848 
Q 494 3038 669 3163 
Q 800 3259 1026 3326 
Q 1253 3394 1513 3394 
Q 1903 3394 2198 3281 
Q 2494 3169 2634 2976 
Q 2775 2784 2828 2463 
L 2278 2388 
Q 2241 2644 2061 2787 
Q 1881 2931 1553 2931 
Q 1166 2931 1000 2803 
Q 834 2675 834 2503 
Q 834 2394 903 2306 
Q 972 2216 1119 2156 
Q 1203 2125 1616 2013 
Q 2213 1853 2448 1751 
Q 2684 1650 2818 1456 
Q 2953 1263 2953 975 
Q 2953 694 2789 445 
Q 2625 197 2315 61 
Q 2006 -75 1616 -75 
Q 969 -75 630 194 
Q 291 463 197 991 
z
" transform="scale(0.015625)"/>
      <path id="ArialMT-4d" d="M 475 0 
L 475 4581 
L 1388 4581 
L 2472 1338 
Q 2622 884 2691 659 
Q 2769 909 2934 1394 
L 4031 4581 
L 4847 4581 
L 4847 0 
L 4263 0 
L 4263 3834 
L 2931 0 
L 2384 0 
L 1059 3900 
L 1059 0 
L 475 0 
z
" transform="scale(0.015625)"/>
      <path id="ArialMT-39" d="M 350 1059 
L 891 1109 
Q 959 728 1153 556 
Q 1347 384 1650 384 
Q 1909 384 2104 503 
Q 2300 622 2425 820 
Q 2550 1019 2634 1356 
Q 2719 1694 2719 2044 
Q 2719 2081 2716 2156 
Q 2547 1888 2255 1720 
Q 1963 1553 1622 1553 
Q 1053 1553 659 1965 
Q 266 2378 266 3053 
Q 266 3750 677 4175 
Q 1088 4600 1706 4600 
Q 2153 4600 2523 4359 
Q 2894 4119 3086 3673 
Q 3278 3228 3278 2384 
Q 3278 1506 3087 986 
Q 2897 466 2520 194 
Q 2144 -78 1638 -78 
Q 1100 -78 759 220 
Q 419 519 350 1059 
z
M 2653 3081 
Q 2653 3566 2395 3850 
Q 2138 4134 1775 4134 
Q 1400 4134 1122 3828 
Q 844 3522 844 3034 
Q 844 2597 1108 2323 
Q 1372 2050 1759 2050 
Q 2150 2050 2401 2323 
Q 2653 2597 2653 3081 
z
" transform="scale(0.015625)"/>
      <path id="ArialMT-6f" d="M 213 1659 
Q 213 2581 725 3025 
Q 1153 3394 1769 3394 
Q 2453 3394 2887 2945 
Q 3322 2497 3322 1706 
Q 3322 1066 3130 698 
Q 2938 331 2570 128 
Q 2203 -75 1769 -75 
Q 1072 -75 642 372 
Q 213 819 213 1659 
z
M 791 1659 
Q 791 1022 1069 705 
Q 1347 388 1769 388 
Q 2188 388 2466 706 
Q 2744 1025 2744 1678 
Q 2744 2294 2464 2611 
Q 2184 2928 1769 2928 
Q 1347 2928 1069 2612 
Q 791 2297 791 1659 
z
" transform="scale(0.015625)"/>
      <path id="ArialMT-62" d="M 941 0 
L 419 0 
L 419 4581 
L 981 4581 
L 981 2947 
Q 1338 3394 1891 3394 
Q 2197 3394 2470 3270 
Q 2744 3147 2920 2923 
Q 3097 2700 3197 2384 
Q 3297 2069 3297 1709 
Q 3297 856 2875 390 
Q 2453 -75 1863 -75 
Q 1275 -75 941 416 
L 941 0 
z
M 934 1684 
Q 934 1088 1097 822 
Q 1363 388 1816 388 
Q 2184 388 2453 708 
Q 2722 1028 2722 1663 
Q 2722 2313 2464 2622 
Q 2206 2931 1841 2931 
Q 1472 2931 1203 2611 
Q 934 2291 934 1684 
z
" transform="scale(0.015625)"/>
      <path id="ArialMT-69" d="M 425 3934 
L 425 4581 
L 988 4581 
L 988 3934 
L 425 3934 
z
M 425 0 
L 425 3319 
L 988 3319 
L 988 0 
L 425 0 
z
" transform="scale(0.015625)"/>
      <path id="ArialMT-79" d="M 397 -1278 
L 334 -750 
Q 519 -800 656 -800 
Q 844 -800 956 -737 
Q 1069 -675 1141 -563 
Q 1194 -478 1313 -144 
Q 1328 -97 1363 -6 
L 103 3319 
L 709 3319 
L 1400 1397 
Q 1534 1031 1641 628 
Q 1738 1016 1872 1384 
L 2581 3319 
L 3144 3319 
L 1881 -56 
Q 1678 -603 1566 -809 
Q 1416 -1088 1222 -1217 
Q 1028 -1347 759 -1347 
Q 597 -1347 397 -1278 
z
" transform="scale(0.015625)"/>
      <path id="ArialMT-53" d="M 288 1472 
L 859 1522 
Q 900 1178 1048 958 
Q 1197 738 1509 602 
Q 1822 466 2213 466 
Q 2559 466 2825 569 
Q 3091 672 3220 851 
Q 3350 1031 3350 1244 
Q 3350 1459 3225 1620 
Q 3100 1781 2813 1891 
Q 2628 1963 1997 2114 
Q 1366 2266 1113 2400 
Q 784 2572 623 2826 
Q 463 3081 463 3397 
Q 463 3744 659 4045 
Q 856 4347 1234 4503 
Q 1613 4659 2075 4659 
Q 2584 4659 2973 4495 
Q 3363 4331 3572 4012 
Q 3781 3694 3797 3291 
L 3216 3247 
Q 3169 3681 2898 3903 
Q 2628 4125 2100 4125 
Q 1550 4125 1298 3923 
Q 1047 3722 1047 3438 
Q 1047 3191 1225 3031 
Q 1400 2872 2139 2705 
Q 2878 2538 3153 2413 
Q 3553 2228 3743 1945 
Q 3934 1663 3934 1294 
Q 3934 928 3725 604 
Q 3516 281 3123 101 
Q 2731 -78 2241 -78 
Q 1619 -78 1198 103 
Q 778 284 539 648 
Q 300 1013 288 1472 
z
" transform="scale(0.015625)"/>
      <path id="ArialMT-3d" d="M 3381 2694 
L 356 2694 
L 356 3219 
L 3381 3219 
L 3381 2694 
z
M 3381 1303 
L 356 1303 
L 356 1828 
L 3381 1828 
L 3381 1303 
z
" transform="scale(0.015625)"/>
     </defs>
     <use xlink:href="#ArialMT-43"/>
     <use xlink:href="#ArialMT-74" x="72.216797"/>
     <use xlink:href="#ArialMT-72" x="100"/>
     <use xlink:href="#ArialMT-6c" x="133.300781"/>
     <use xlink:href="#ArialMT-20" x="155.517578"/>
     <use xlink:href="#ArialMT-76" x="183.300781"/>
     <use xlink:href="#ArialMT-73" x="233.300781"/>
     <use xlink:href="#ArialMT-2e" x="283.300781"/>
     <use xlink:href="#ArialMT-20" x="311.083984"/>
     <use xlink:href="#ArialMT-4d" x="338.867188"/>
     <use xlink:href="#ArialMT-4d" x="422.167969"/>
     <use xlink:href="#ArialMT-50" x="505.46875"/>
     <use xlink:href="#ArialMT-39" x="572.167969"/>
     <use xlink:href="#ArialMT-20" x="627.783203"/>
     <use xlink:href="#ArialMT-70" x="655.566406"/>
     <use xlink:href="#ArialMT-72" x="711.181641"/>
     <use xlink:href="#ArialMT-6f" x="744.482422"/>
     <use xlink:href="#ArialMT-62" x="800.097656"/>
     <use xlink:href="#ArialMT-61" x="855.712891"/>
     <use xlink:href="#ArialMT-62" x="911.328125"/>
     <use xlink:href="#ArialMT-69" x="966.943359"/>
     <use xlink:href="#ArialMT-6c" x="989.160156"/>
     <use xlink:href="#ArialMT-69" x="1011.376953"/>
     <use xlink:href="#ArialMT-74" x="1033.59375"/>
     <use xlink:href="#ArialMT-79" x="1061.376953"/>
     <use xlink:href="#ArialMT-20" x="1111.376953"/>
     <use xlink:href="#ArialMT-50" x="1139.160156"/>
     <use xlink:href="#ArialMT-50" x="1205.859375"/>
     <use xlink:href="#ArialMT-53" x="1272.558594"/>
     <use xlink:href="#ArialMT-4d" x="1339.257812"/>
     <use xlink:href="#ArialMT-20" x="1422.558594"/>
     <use xlink:href="#ArialMT-6e" x="1450.341797"/>
     <use xlink:href="#ArialMT-3d" x="1505.957031"/>
     <use xlink:href="#ArialMT-32" x="1564.355469"/>
     <use xlink:href="#ArialMT-30" x="1619.970703"/>
    </g>
   </g>
  </g>
 </g>
 <defs>
  <clipPath id="pa9bb64eac2">
   <rect x="90" y="51.84" width="558" height="332.64"/>
  </clipPath>
 </defs>
</svg>
