<?xml version="1.0" encoding="utf-8" standalone="no"?>
<!DOCTYPE svg PUBLIC "-//W3C//DTD SVG 1.1//EN"
  "http://www.w3.org/Graphics/SVG/1.1/DTD/svg11.dtd">
<svg xmlns:xlink="http://www.w3.org/1999/xlink" width="720pt" height="432pt" viewBox="0 0 720 432" xmlns="http://www.w3.org/2000/svg" version="1.1">
 <metadata>
  <rdf:RDF xmlns:dc="http://purl.org/dc/elements/1.1/" xmlns:cc="http://creativecommons.org/ns#" xmlns:rdf="http://www.w3.org/1999/02/22-rdf-syntax-ns#">
   <cc:Work>
    <dc:type rdf:resource="http://purl.org/dc/dcmitype/StillImage"/>
    <dc:date>2023-10-25T10:32:32.712603</dc:date>
    <dc:format>image/svg+xml</dc:format>
    <dc:creator>
     <cc:Agent>
      <dc:title>Matplotlib v3.7.1, https://matplotlib.org/</dc:title>
     </cc:Agent>
    </dc:creator>
   </cc:Work>
  </rdf:RDF>
 </metadata>
 <defs>
  <style type="text/css">*{stroke-linejoin: round; stroke-linecap: butt}</style>
 </defs>
 <g id="figure_1">
  <g id="patch_1">
   <path d="M 0 432 
L 720 432 
L 720 0 
L 0 0 
z
" style="fill: #ffffff"/>
  </g>
  <g id="axes_1">
   <g id="patch_2">
    <path d="M 90 384.48 
L 648 384.48 
L 648 51.84 
L 90 51.84 
z
" style="fill: #ffffff"/>
   </g>
   <g id="line2d_1">
    <path d="M 90 384.48 
L 648 384.48 
" clip-path="url(#pecdc125e88)" style="fill: none; stroke: #000000; stroke-width: 0.5; stroke-linecap: round"/>
   </g>
   <g id="patch_3">
    <path d="M 125.65 379.962957 
L 139.537864 379.962957 
L 139.537864 381.569318 
L 159.555783 379.962957 
L 175.683253 379.962957 
L 149.743078 382.047548 
L 178.35 384.364178 
L 160.964195 384.364178 
L 139.537864 382.630478 
L 139.537864 384.364178 
L 125.65 384.364178 
L 125.65 379.962957 
z
" clip-path="url(#pecdc125e88)" style="fill: #bd2e1f"/>
   </g>
   <g id="patch_4">
    <path d="M 125.65 374.218742 
L 142.578032 374.218742 
L 163.968106 377.979789 
L 163.968106 374.218742 
L 178.35 374.218742 
L 178.35 379.702818 
L 161.409364 379.702818 
L 140.01929 375.941772 
L 140.01929 379.702818 
L 125.65 379.702818 
L 125.65 374.218742 
z
" clip-path="url(#pecdc125e88)" style="fill: #40ba47"/>
   </g>
   <g id="patch_5">
    <path d="M 125.65 347.777935 
L 177.253077 347.777935 
L 177.253077 352.774982 
L 144.774615 352.774982 
L 144.774615 357.541396 
L 175.329487 357.541396 
L 175.329487 362.538443 
L 144.774615 362.538443 
L 144.774615 368.4086 
L 178.35 368.4086 
L 178.35 373.400156 
L 125.65 373.400156 
L 125.65 347.777935 
z
" clip-path="url(#pecdc125e88)" style="fill: #6b296b"/>
   </g>
   <g id="patch_6">
    <path d="M 153.405333 332.625774 
L 152.373292 332.625774 
Q 139.714313 332.625774 132.676667 323.399472 
Q 125.65 314.158685 125.65 297.690388 
Q 125.65 281.251058 132.665687 271.937852 
Q 139.681375 262.610162 152 262.610162 
Q 164.450375 262.610162 171.400188 271.850948 
Q 178.35 281.07725 178.35 297.690388 
Q 178.35 309.089289 174.661 317.330679 
Q 170.972 325.57207 164.044146 329.728976 
L 174.364563 344.937166 
L 161.771458 344.937166 
L 153.405333 332.625774 
z
M 152 275.240202 
Q 145.961458 275.240202 142.634771 281.120702 
Q 139.308083 287.001202 139.308083 297.690388 
Q 139.308083 308.553381 142.557917 314.332493 
Q 145.818729 320.097122 152 320.097122 
Q 158.071479 320.097122 161.398167 314.216621 
Q 164.724854 308.321637 164.724854 297.690388 
Q 164.724854 287.001202 161.398167 281.120702 
Q 158.071479 275.240202 152 275.240202 
z
" clip-path="url(#pecdc125e88)" style="fill: #40ba47"/>
   </g>
   <g id="patch_7">
    <path d="M 140.091481 131.319419 
L 140.091481 226.095565 
L 145.265444 226.095565 
Q 154.112802 226.095565 158.782574 213.911488 
Q 163.464351 201.72741 163.464351 178.524398 
Q 163.464351 155.454546 158.806583 143.403628 
Q 154.16082 131.319419 145.265444 131.319419 
L 140.091481 131.319419 
z
M 125.65 101.025674 
L 140.871777 101.025674 
Q 153.63262 101.025674 159.874989 106.085728 
Q 166.117358 111.112493 170.583052 123.196701 
Q 174.520547 133.716287 176.429271 147.464987 
Q 178.35 161.180397 178.35 178.524398 
Q 178.35 196.134718 176.429271 209.916708 
Q 174.520547 223.698698 170.583052 234.184994 
Q 166.081344 246.269202 159.778952 251.329257 
Q 153.47656 256.356021 140.871777 256.356021 
L 125.65 256.356021 
L 125.65 101.025674 
z
" clip-path="url(#pecdc125e88)" style="fill: #6b296b"/>
   </g>
   <g id="patch_8">
    <path d="M 235.955948 382.860413 
L 235.955948 383.198183 
Q 230.459804 383.139381 225.221293 383.109638 
Q 219.997094 383.079553 215.34541 383.079553 
Q 209.176562 383.079553 206.213797 383.120236 
Q 203.265345 383.160577 203.265345 383.246045 
Q 203.265345 383.310317 205.254834 383.346214 
Q 207.244324 383.381769 212.482835 383.407409 
L 219.811027 383.442622 
Q 230.946442 383.496296 235.641065 383.605354 
Q 240.35 383.714069 240.35 383.915091 
Q 240.35 384.178675 233.794704 384.307561 
Q 227.239408 384.436447 213.770994 384.436447 
Q 207.430391 384.436447 201.032537 384.407388 
Q 194.634682 384.378671 188.236828 384.32192 
L 188.236828 383.974919 
Q 194.634682 384.055943 200.60315 384.097309 
Q 206.571619 384.138334 212.125014 384.138334 
Q 217.764286 384.138334 220.755676 384.093549 
Q 223.747067 384.048421 223.747067 383.965004 
Q 223.747067 383.890476 221.714639 383.849793 
Q 219.682211 383.80911 213.59924 383.776974 
L 206.929441 383.741761 
Q 196.910429 383.69048 192.273058 383.578346 
Q 187.65 383.466212 187.65 383.27613 
Q 187.65 383.037845 194.090793 382.909642 
Q 200.531586 382.78144 212.611651 382.78144 
Q 218.122108 382.78144 223.933134 382.801269 
Q 229.744161 382.821097 235.955948 382.860413 
z
" clip-path="url(#pecdc125e88)" style="fill: #40ba47"/>
   </g>
   <g id="patch_9">
    <path d="M 187.65 380.237434 
L 239.253077 380.237434 
L 239.253077 380.712588 
L 206.774615 380.712588 
L 206.774615 381.165812 
L 237.329487 381.165812 
L 237.329487 381.640966 
L 206.774615 381.640966 
L 206.774615 382.199141 
L 240.35 382.199141 
L 240.35 382.673773 
L 187.65 382.673773 
L 187.65 380.237434 
z
" clip-path="url(#pecdc125e88)" style="fill: #6b296b"/>
   </g>
   <g id="patch_10">
    <path d="M 202.091481 377.208538 
L 202.091481 379.384664 
L 207.265444 379.384664 
Q 216.112802 379.384664 220.782574 379.104909 
Q 225.464351 378.825154 225.464351 378.292397 
Q 225.464351 377.762697 220.806583 377.486 
Q 216.16082 377.208538 207.265444 377.208538 
L 202.091481 377.208538 
z
M 187.65 376.512973 
L 202.871777 376.512973 
Q 215.63262 376.512973 221.874989 376.629155 
Q 228.117358 376.744573 232.583052 377.022035 
Q 236.520547 377.263572 238.429271 377.579252 
Q 240.35 377.894167 240.35 378.292397 
Q 240.35 378.696742 238.429271 379.013186 
Q 236.520547 379.32963 232.583052 379.570402 
Q 228.081344 379.847864 221.778952 379.964046 
Q 215.47656 380.079464 202.871777 380.079464 
L 187.65 380.079464 
L 187.65 376.512973 
z
" clip-path="url(#pecdc125e88)" style="fill: #6b296b"/>
   </g>
   <g id="patch_11">
    <path d="M 215.405333 375.603446 
L 214.373292 375.603446 
Q 201.714313 375.603446 194.676667 375.083645 
Q 187.65 374.563027 187.65 373.635218 
Q 187.65 372.70904 194.665687 372.184343 
Q 201.681375 371.658829 214 371.658829 
Q 226.450375 371.658829 233.400187 372.179447 
Q 240.35 372.699248 240.35 373.635218 
Q 240.35 374.277422 236.661 374.741734 
Q 232.972 375.206047 226.044146 375.440243 
L 236.364562 376.297059 
L 223.771458 376.297059 
L 215.405333 375.603446 
z
M 214 372.370394 
Q 207.961458 372.370394 204.634771 372.701696 
Q 201.308083 373.032998 201.308083 373.635218 
Q 201.308083 374.247229 204.557917 374.572819 
Q 207.818729 374.897593 214 374.897593 
Q 220.071479 374.897593 223.398167 374.566291 
Q 226.724854 374.234173 226.724854 373.635218 
Q 226.724854 373.032998 223.398167 372.701696 
Q 220.071479 372.370394 214 372.370394 
z
" clip-path="url(#pecdc125e88)" style="fill: #40ba47"/>
   </g>
   <g id="patch_12">
    <path d="M 209.032787 364.131169 
Q 213.762274 364.131169 215.814221 363.749969 
Q 217.866168 363.366046 217.866168 362.489285 
Q 217.866168 361.620694 215.814221 361.247662 
Q 213.762274 360.871908 209.032787 360.871908 
L 202.701781 360.871908 
L 202.701781 364.131169 
L 209.032787 364.131169 
z
M 202.701781 366.393864 
L 202.701781 371.202432 
L 187.65 371.202432 
L 187.65 358.497575 
L 210.634307 358.497575 
Q 222.170252 358.497575 227.537844 359.341661 
Q 232.917949 360.183025 232.917949 362.004617 
Q 232.917949 363.262577 230.11529 364.071266 
Q 227.325142 364.879955 221.694801 365.263878 
Q 224.785233 365.416358 227.225047 365.958207 
Q 229.677374 366.497333 232.179748 367.594645 
L 240.35 371.202432 
L 224.322293 371.202432 
L 217.203039 368.046639 
Q 215.050997 367.093639 212.836396 366.745113 
Q 210.634307 366.393864 206.955817 366.393864 
L 202.701781 366.393864 
z
" clip-path="url(#pecdc125e88)" style="fill: #bd2e1f"/>
   </g>
   <g id="patch_13">
    <path d="M 187.65 266.636797 
L 201.537864 266.636797 
L 201.537864 299.185634 
L 221.555783 266.636797 
L 237.683253 266.636797 
L 211.743078 308.875746 
L 240.35 355.816405 
L 222.964195 355.816405 
L 201.537864 320.687361 
L 201.537864 355.816405 
L 187.65 355.816405 
L 187.65 266.636797 
z
" clip-path="url(#pecdc125e88)" style="fill: #bd2e1f"/>
   </g>
   <g id="patch_14">
    <path d="M 187.65 136.469335 
L 204.578032 136.469335 
L 225.968106 221.882573 
L 225.968106 136.469335 
L 240.35 136.469335 
L 240.35 261.012513 
L 223.409364 261.012513 
L 202.01929 175.599275 
L 202.01929 261.012513 
L 187.65 261.012513 
L 187.65 136.469335 
z
" clip-path="url(#pecdc125e88)" style="fill: #40ba47"/>
   </g>
   <g id="patch_15">
    <path d="M 277.405333 383.966465 
L 276.373292 383.966465 
Q 263.714313 383.966465 256.676667 383.639206 
Q 249.65 383.311432 249.65 382.727297 
Q 249.65 382.144189 256.665687 381.813847 
Q 263.681375 381.482992 276 381.482992 
Q 288.450375 381.482992 295.400188 381.810765 
Q 302.35 382.138024 302.35 382.727297 
Q 302.35 383.131619 298.661 383.423944 
Q 294.972 383.716268 288.044146 383.863715 
L 298.364562 384.403154 
L 285.771458 384.403154 
L 277.405333 383.966465 
z
M 276 381.930983 
Q 269.961458 381.930983 266.634771 382.139566 
Q 263.308083 382.348149 263.308083 382.727297 
Q 263.308083 383.112611 266.557917 383.317597 
Q 269.818729 383.52207 276 383.52207 
Q 282.071479 383.52207 285.398167 383.313487 
Q 288.724854 383.104391 288.724854 382.727297 
Q 288.724854 382.348149 285.398167 382.139566 
Q 282.071479 381.930983 276 381.930983 
z
" clip-path="url(#pecdc125e88)" style="fill: #40ba47"/>
   </g>
   <g id="patch_16">
    <path d="M 266.437692 368.179497 
L 285.562308 368.179497 
L 285.562308 381.067 
L 266.437692 381.067 
L 266.437692 368.179497 
z
" clip-path="url(#pecdc125e88)" style="fill: #21599c"/>
   </g>
   <g id="patch_17">
    <path d="M 249.65 309.378885 
L 262.68762 309.378885 
L 276.016162 351.423183 
L 289.323155 309.378885 
L 302.35 309.378885 
L 283.730985 366.34134 
L 268.269015 366.34134 
L 249.65 309.378885 
z
" clip-path="url(#pecdc125e88)" style="fill: #21599c"/>
   </g>
   <g id="patch_18">
    <path d="M 249.65 216.593181 
L 301.253077 216.593181 
L 301.253077 233.940131 
L 268.774615 233.940131 
L 268.774615 250.486452 
L 299.329487 250.486452 
L 299.329487 267.833402 
L 268.774615 267.833402 
L 268.774615 288.211302 
L 302.35 288.211302 
L 302.35 305.539189 
L 249.65 305.539189 
L 249.65 216.593181 
z
" clip-path="url(#pecdc125e88)" style="fill: #6b296b"/>
   </g>
   <g id="patch_19">
    <path d="M 311.65 374.829973 
L 325.537864 374.829973 
L 325.537864 378.261737 
L 345.555783 374.829973 
L 361.683253 374.829973 
L 335.743078 379.283407 
L 364.35 384.232563 
L 346.964195 384.232563 
L 325.537864 380.528757 
L 325.537864 384.232563 
L 311.65 384.232563 
L 311.65 374.829973 
z
" clip-path="url(#pecdc125e88)" style="fill: #bd2e1f"/>
   </g>
   <g id="patch_20">
    <path d="M 333.032787 306.458182 
Q 337.762274 306.458182 339.814221 302.95151 
Q 341.866168 299.41979 341.866168 291.354445 
Q 341.866168 283.364242 339.814221 279.932713 
Q 337.762274 276.476136 333.032787 276.476136 
L 326.701781 276.476136 
L 326.701781 306.458182 
L 333.032787 306.458182 
z
M 326.701781 327.272785 
L 326.701781 371.506947 
L 311.65 371.506947 
L 311.65 254.634579 
L 334.634307 254.634579 
Q 346.170252 254.634579 351.537844 262.399353 
Q 356.917949 270.139079 356.917949 286.895962 
Q 356.917949 298.467979 354.11529 305.907134 
Q 351.325142 313.346288 345.694801 316.878007 
Q 348.785233 318.280676 351.225047 323.26516 
Q 353.677374 328.224596 356.179748 338.318802 
L 364.35 371.506947 
L 348.322293 371.506947 
L 341.203039 342.476713 
Q 339.050997 333.710033 336.836396 330.503933 
Q 334.634307 327.272785 330.955817 327.272785 
L 326.701781 327.272785 
z
" clip-path="url(#pecdc125e88)" style="fill: #bd2e1f"/>
   </g>
   <g id="patch_21">
    <path d="M 364.35 231.44632 
Q 359.035119 239.236762 353.318669 243.149769 
Q 347.602219 247.027204 341.507822 247.027204 
Q 327.736374 247.027204 319.693187 223.833741 
Q 311.65 200.640279 311.65 160.976612 
Q 311.65 120.850499 319.834917 97.8349 
Q 328.031645 74.819301 342.287338 74.819301 
Q 347.779381 74.819301 352.810802 77.949707 
Q 357.854034 81.044541 362.318534 87.163061 
L 362.318534 121.490809 
Q 357.712304 113.629221 353.153317 109.751787 
Q 348.59433 105.838779 344.011721 105.838779 
Q 335.531533 105.838779 330.937113 120.139043 
Q 326.342694 134.403734 326.342694 160.976612 
Q 326.342694 187.30048 330.771762 201.67189 
Q 335.200829 216.007726 343.350314 216.007726 
Q 345.570753 216.007726 347.472299 215.189552 
Q 349.373846 214.335805 350.885634 212.557165 
L 350.885634 180.328213 
L 342.204662 180.328213 
L 342.204662 151.620967 
L 364.35 151.620967 
L 364.35 231.44632 
z
" clip-path="url(#pecdc125e88)" style="fill: #787800"/>
   </g>
   <g id="patch_22">
    <path d="M 373.65 380.444998 
L 386.68762 380.444998 
L 400.016162 383.346889 
L 413.323155 380.444998 
L 426.35 380.444998 
L 407.730985 384.376538 
L 392.269015 384.376538 
L 373.65 380.444998 
z
" clip-path="url(#pecdc125e88)" style="fill: #21599c"/>
   </g>
   <g id="patch_23">
    <path d="M 373.65 375.950943 
L 389.195992 375.950943 
L 399.979692 378.240313 
L 410.83447 375.950943 
L 426.35 375.950943 
L 426.35 380.228957 
L 414.80474 380.228957 
L 414.80474 377.099754 
L 403.889037 379.406544 
L 396.141426 379.406544 
L 385.225723 377.099754 
L 385.225723 380.228957 
L 373.65 380.228957 
L 373.65 375.950943 
z
" clip-path="url(#pecdc125e88)" style="fill: #21599c"/>
   </g>
   <g id="patch_24">
    <path d="M 390.437692 370.772467 
L 409.562308 370.772467 
L 409.562308 375.708469 
L 390.437692 375.708469 
L 390.437692 370.772467 
z
" clip-path="url(#pecdc125e88)" style="fill: #21599c"/>
   </g>
   <g id="patch_25">
    <path d="M 410.155336 355.971572 
L 389.887763 355.971572 
L 386.68762 368.790738 
L 373.65 368.790738 
L 392.269015 298.421058 
L 407.730985 298.421058 
L 426.35 368.790738 
L 413.323155 368.790738 
L 410.155336 355.971572 
z
M 393.120231 342.911104 
L 406.890544 342.911104 
L 400.016162 314.920079 
L 393.120231 342.911104 
z
" clip-path="url(#pecdc125e88)" style="fill: #21599c"/>
   </g>
   <g id="patch_26">
    <path d="M 373.65 208.472721 
L 392.774615 208.472721 
L 392.774615 277.588009 
L 426.35 277.588009 
L 426.35 294.31034 
L 373.65 294.31034 
L 373.65 208.472721 
z
" clip-path="url(#pecdc125e88)" style="fill: #21599c"/>
   </g>
   <g id="patch_27">
    <path d="M 483.955948 384.31576 
L 483.955948 384.350013 
Q 478.459804 384.34405 473.221293 384.341034 
Q 467.997094 384.337983 463.34541 384.337983 
Q 457.176562 384.337983 454.213797 384.342109 
Q 451.265345 384.346199 451.265345 384.354867 
Q 451.265345 384.361384 453.254834 384.365025 
Q 455.244324 384.36863 460.482835 384.37123 
L 467.811027 384.374801 
Q 478.946442 384.380244 483.641065 384.391304 
Q 488.35 384.402328 488.35 384.422713 
Q 488.35 384.449443 481.794704 384.462513 
Q 475.239408 384.475583 461.770994 384.475583 
Q 455.430391 384.475583 449.032537 384.472637 
Q 442.634682 384.469724 436.236828 384.463969 
L 436.236828 384.428781 
Q 442.634682 384.436997 448.60315 384.441192 
Q 454.571619 384.445352 460.125014 384.445352 
Q 465.764286 384.445352 468.755676 384.440811 
Q 471.747067 384.436234 471.747067 384.427775 
Q 471.747067 384.420217 469.714639 384.416092 
Q 467.682211 384.411966 461.59924 384.408707 
L 454.929441 384.405136 
Q 444.910429 384.399936 440.273058 384.388565 
Q 435.65 384.377193 435.65 384.357918 
Q 435.65 384.333753 442.090793 384.320753 
Q 448.531586 384.307752 460.611651 384.307752 
Q 466.122108 384.307752 471.933134 384.309763 
Q 477.744161 384.311773 483.955948 384.31576 
z
" clip-path="url(#pecdc125e88)" style="fill: #40ba47"/>
   </g>
   <g id="patch_28">
    <path d="M 435.65 379.686358 
L 448.68762 379.686358 
L 462.016162 383.006794 
L 475.323155 379.686358 
L 488.35 379.686358 
L 469.730985 384.184951 
L 454.269015 384.184951 
L 435.65 379.686358 
z
" clip-path="url(#pecdc125e88)" style="fill: #21599c"/>
   </g>
   <g id="patch_29">
    <path d="M 435.65 374.500225 
L 451.195992 374.500225 
L 461.979692 377.142682 
L 472.83447 374.500225 
L 488.35 374.500225 
L 488.35 379.438032 
L 476.80474 379.438032 
L 476.80474 375.826215 
L 465.889037 378.488779 
L 458.141426 378.488779 
L 447.225723 375.826215 
L 447.225723 379.438032 
L 435.65 379.438032 
L 435.65 374.500225 
z
" clip-path="url(#pecdc125e88)" style="fill: #21599c"/>
   </g>
   <g id="patch_30">
    <path d="M 452.437692 366.49784 
L 471.562308 366.49784 
L 471.562308 374.168425 
L 452.437692 374.168425 
L 452.437692 366.49784 
z
" clip-path="url(#pecdc125e88)" style="fill: #21599c"/>
   </g>
   <g id="patch_31">
    <path d="M 435.65 290.574167 
L 488.35 290.574167 
L 488.35 304.963367 
L 469.390256 304.963367 
L 469.390256 364.354397 
L 454.646512 364.354397 
L 454.646512 304.963367 
L 435.65 304.963367 
L 435.65 290.574167 
z
" clip-path="url(#pecdc125e88)" style="fill: #40ba47"/>
   </g>
   <g id="patch_32">
    <path d="M 435.65 198.064296 
L 454.774615 198.064296 
L 454.774615 269.118798 
L 488.35 269.118798 
L 488.35 286.310318 
L 435.65 286.310318 
L 435.65 198.064296 
z
" clip-path="url(#pecdc125e88)" style="fill: #21599c"/>
   </g>
   <g id="patch_33">
    <path d="M 497.65 383.822106 
L 516.774615 383.822106 
L 516.774615 384.338251 
L 550.35 384.338251 
L 550.35 384.463131 
L 497.65 384.463131 
L 497.65 383.822106 
z
" clip-path="url(#pecdc125e88)" style="fill: #21599c"/>
   </g>
   <g id="patch_34">
    <path d="M 525.405333 383.440144 
L 524.373292 383.440144 
Q 511.714313 383.440144 504.676667 383.207482 
Q 497.65 382.974454 497.65 382.559168 
Q 497.65 382.144613 504.665687 381.909759 
Q 511.681375 381.67454 524 381.67454 
Q 536.450375 381.67454 543.400187 381.907568 
Q 550.35 382.14023 550.35 382.559168 
Q 550.35 382.846618 546.661 383.054443 
Q 542.972 383.262269 536.044146 383.367094 
L 546.364562 383.750604 
L 533.771458 383.750604 
L 525.405333 383.440144 
z
M 524 381.993036 
Q 517.961458 381.993036 514.634771 382.141326 
Q 511.308083 382.289616 511.308083 382.559168 
Q 511.308083 382.833104 514.557917 382.978837 
Q 517.818729 383.124205 524 383.124205 
Q 530.071479 383.124205 533.398167 382.975915 
Q 536.724854 382.82726 536.724854 382.559168 
Q 536.724854 382.289616 533.398167 382.141326 
Q 530.071479 381.993036 524 381.993036 
z
" clip-path="url(#pecdc125e88)" style="fill: #40ba47"/>
   </g>
   <g id="patch_35">
    <path d="M 497.65 365.044671 
L 510.68762 365.044671 
L 524.016162 376.965244 
L 537.323155 365.044671 
L 550.35 365.044671 
L 531.730985 381.194901 
L 516.269015 381.194901 
L 497.65 365.044671 
z
" clip-path="url(#pecdc125e88)" style="fill: #21599c"/>
   </g>
   <g id="patch_36">
    <path d="M 514.437692 303.830712 
L 533.562308 303.830712 
L 533.562308 363.060974 
L 514.437692 363.060974 
L 514.437692 303.830712 
z
" clip-path="url(#pecdc125e88)" style="fill: #21599c"/>
   </g>
   <g id="patch_37">
    <path d="M 497.65 213.814275 
L 549.253077 213.814275 
L 549.253077 230.623648 
L 516.774615 230.623648 
L 516.774615 246.657204 
L 547.329487 246.657204 
L 547.329487 263.466577 
L 516.774615 263.466577 
L 516.774615 283.212972 
L 550.35 283.212972 
L 550.35 300.003874 
L 497.65 300.003874 
L 497.65 213.814275 
z
" clip-path="url(#pecdc125e88)" style="fill: #6b296b"/>
   </g>
   <g id="patch_38">
    <path d="M 559.65 384.003847 
L 573.537864 384.003847 
L 573.537864 384.173178 
L 593.555783 384.003847 
L 609.683253 384.003847 
L 583.743078 384.223589 
L 612.35 384.467791 
L 594.964195 384.467791 
L 573.537864 384.285037 
L 573.537864 384.467791 
L 559.65 384.467791 
L 559.65 384.003847 
z
" clip-path="url(#pecdc125e88)" style="fill: #bd2e1f"/>
   </g>
   <g id="patch_39">
    <path d="M 559.65 379.387174 
L 576.578032 379.387174 
L 597.968106 382.464003 
L 597.968106 379.387174 
L 612.35 379.387174 
L 612.35 383.873575 
L 595.409364 383.873575 
L 574.01929 380.796746 
L 574.01929 383.873575 
L 559.65 383.873575 
L 559.65 379.387174 
z
" clip-path="url(#pecdc125e88)" style="fill: #40ba47"/>
   </g>
   <g id="patch_40">
    <path d="M 587.405333 378.080027 
L 586.373292 378.080027 
Q 573.714313 378.080027 566.676667 377.322262 
Q 559.65 376.563307 559.65 375.21075 
Q 559.65 373.860571 566.665687 373.095668 
Q 573.681375 372.329576 586 372.329576 
Q 598.450375 372.329576 605.400187 373.088531 
Q 612.35 373.846296 612.35 375.21075 
Q 612.35 376.146953 608.661 376.823826 
Q 604.972 377.5007 598.044146 377.842111 
L 608.364562 379.091174 
L 595.771458 379.091174 
L 587.405333 378.080027 
z
M 586 373.366894 
Q 579.961458 373.366894 576.634771 373.849865 
Q 573.308083 374.332836 573.308083 375.21075 
Q 573.308083 376.102938 576.557917 376.577582 
Q 579.818729 377.051037 586 377.051037 
Q 592.071479 377.051037 595.398167 376.568066 
Q 598.724854 376.083905 598.724854 375.21075 
Q 598.724854 374.332836 595.398167 373.849865 
Q 592.071479 373.366894 586 373.366894 
z
" clip-path="url(#pecdc125e88)" style="fill: #40ba47"/>
   </g>
   <g id="patch_41">
    <path d="M 559.65 244.799847 
L 611.253077 244.799847 
L 611.253077 269.000145 
L 578.774615 269.000145 
L 578.774615 292.083506 
L 609.329487 292.083506 
L 609.329487 316.283803 
L 578.774615 316.283803 
L 578.774615 344.712505 
L 612.35 344.712505 
L 612.35 368.886208 
L 559.65 368.886208 
L 559.65 244.799847 
z
" clip-path="url(#pecdc125e88)" style="fill: #6b296b"/>
   </g>
   <g id="patch_42">
    <path d="M 574.091481 91.728272 
L 574.091481 201.684767 
L 579.265444 201.684767 
Q 588.112802 201.684767 592.782574 187.549158 
Q 597.464351 173.41355 597.464351 146.494099 
Q 597.464351 119.729136 592.806583 105.748015 
Q 588.16082 91.728272 579.265444 91.728272 
L 574.091481 91.728272 
z
M 559.65 56.58236 
L 574.871777 56.58236 
Q 587.63262 56.58236 593.874989 62.452886 
Q 600.117358 68.28479 604.583052 82.304533 
Q 608.520547 94.509047 610.429271 110.459884 
Q 612.35 126.372099 612.35 146.494099 
Q 612.35 166.925074 610.429271 182.914532 
Q 608.520547 198.903991 604.583052 211.069884 
Q 600.081344 225.089626 593.778952 230.960152 
Q 587.47656 236.792056 574.871777 236.792056 
L 559.65 236.792056 
L 559.65 56.58236 
z
" clip-path="url(#pecdc125e88)" style="fill: #6b296b"/>
   </g>
   <g id="matplotlib.axis_1">
    <g id="xtick_1">
     <g id="line2d_2">
      <defs>
       <path id="me5e0c68e7d" d="M 0 0 
L 0 4.8 
" style="stroke: #262626"/>
      </defs>
      <g>
       <use xlink:href="#me5e0c68e7d" x="152" y="384.48" style="fill: #262626; stroke: #262626"/>
      </g>
     </g>
     <g id="text_1">
      <!-- P4 -->
      <g style="fill: #262626" transform="translate(146.61825 399.078875) scale(0.088 -0.088)">
       <defs>
        <path id="ArialMT-50" d="M 494 0 
L 494 4581 
L 2222 4581 
Q 2678 4581 2919 4538 
Q 3256 4481 3484 4323 
Q 3713 4166 3852 3881 
Q 3991 3597 3991 3256 
Q 3991 2672 3619 2267 
Q 3247 1863 2275 1863 
L 1100 1863 
L 1100 0 
L 494 0 
z
M 1100 2403 
L 2284 2403 
Q 2872 2403 3119 2622 
Q 3366 2841 3366 3238 
Q 3366 3525 3220 3729 
Q 3075 3934 2838 4000 
Q 2684 4041 2272 4041 
L 1100 4041 
L 1100 2403 
z
" transform="scale(0.015625)"/>
        <path id="ArialMT-34" d="M 2069 0 
L 2069 1097 
L 81 1097 
L 81 1613 
L 2172 4581 
L 2631 4581 
L 2631 1613 
L 3250 1613 
L 3250 1097 
L 2631 1097 
L 2631 0 
L 2069 0 
z
M 2069 1613 
L 2069 3678 
L 634 1613 
L 2069 1613 
z
" transform="scale(0.015625)"/>
       </defs>
       <use xlink:href="#ArialMT-50"/>
       <use xlink:href="#ArialMT-34" x="66.699219"/>
      </g>
     </g>
    </g>
    <g id="xtick_2">
     <g id="line2d_3">
      <g>
       <use xlink:href="#me5e0c68e7d" x="214" y="384.48" style="fill: #262626; stroke: #262626"/>
      </g>
     </g>
     <g id="text_2">
      <!-- P3 -->
      <g style="fill: #262626" transform="translate(208.61825 399.078875) scale(0.088 -0.088)">
       <defs>
        <path id="ArialMT-33" d="M 269 1209 
L 831 1284 
Q 928 806 1161 595 
Q 1394 384 1728 384 
Q 2125 384 2398 659 
Q 2672 934 2672 1341 
Q 2672 1728 2419 1979 
Q 2166 2231 1775 2231 
Q 1616 2231 1378 2169 
L 1441 2663 
Q 1497 2656 1531 2656 
Q 1891 2656 2178 2843 
Q 2466 3031 2466 3422 
Q 2466 3731 2256 3934 
Q 2047 4138 1716 4138 
Q 1388 4138 1169 3931 
Q 950 3725 888 3313 
L 325 3413 
Q 428 3978 793 4289 
Q 1159 4600 1703 4600 
Q 2078 4600 2393 4439 
Q 2709 4278 2876 4000 
Q 3044 3722 3044 3409 
Q 3044 3113 2884 2869 
Q 2725 2625 2413 2481 
Q 2819 2388 3044 2092 
Q 3269 1797 3269 1353 
Q 3269 753 2831 336 
Q 2394 -81 1725 -81 
Q 1122 -81 723 278 
Q 325 638 269 1209 
z
" transform="scale(0.015625)"/>
       </defs>
       <use xlink:href="#ArialMT-50"/>
       <use xlink:href="#ArialMT-33" x="66.699219"/>
      </g>
     </g>
    </g>
    <g id="xtick_3">
     <g id="line2d_4">
      <g>
       <use xlink:href="#me5e0c68e7d" x="276" y="384.48" style="fill: #262626; stroke: #262626"/>
      </g>
     </g>
     <g id="text_3">
      <!-- P2 -->
      <g style="fill: #262626" transform="translate(270.61825 399.078875) scale(0.088 -0.088)">
       <defs>
        <path id="ArialMT-32" d="M 3222 541 
L 3222 0 
L 194 0 
Q 188 203 259 391 
Q 375 700 629 1000 
Q 884 1300 1366 1694 
Q 2113 2306 2375 2664 
Q 2638 3022 2638 3341 
Q 2638 3675 2398 3904 
Q 2159 4134 1775 4134 
Q 1369 4134 1125 3890 
Q 881 3647 878 3216 
L 300 3275 
Q 359 3922 746 4261 
Q 1134 4600 1788 4600 
Q 2447 4600 2831 4234 
Q 3216 3869 3216 3328 
Q 3216 3053 3103 2787 
Q 2991 2522 2730 2228 
Q 2469 1934 1863 1422 
Q 1356 997 1212 845 
Q 1069 694 975 541 
L 3222 541 
z
" transform="scale(0.015625)"/>
       </defs>
       <use xlink:href="#ArialMT-50"/>
       <use xlink:href="#ArialMT-32" x="66.699219"/>
      </g>
     </g>
    </g>
    <g id="xtick_4">
     <g id="line2d_5">
      <g>
       <use xlink:href="#me5e0c68e7d" x="338" y="384.48" style="fill: #262626; stroke: #262626"/>
      </g>
     </g>
     <g id="text_4">
      <!-- P1 -->
      <g style="fill: #262626" transform="translate(332.61825 399.078875) scale(0.088 -0.088)">
       <defs>
        <path id="ArialMT-31" d="M 2384 0 
L 1822 0 
L 1822 3584 
Q 1619 3391 1289 3197 
Q 959 3003 697 2906 
L 697 3450 
Q 1169 3672 1522 3987 
Q 1875 4303 2022 4600 
L 2384 4600 
L 2384 0 
z
" transform="scale(0.015625)"/>
       </defs>
       <use xlink:href="#ArialMT-50"/>
       <use xlink:href="#ArialMT-31" x="66.699219"/>
      </g>
     </g>
    </g>
    <g id="xtick_5">
     <g id="line2d_6">
      <g>
       <use xlink:href="#me5e0c68e7d" x="400" y="384.48" style="fill: #262626; stroke: #262626"/>
      </g>
     </g>
     <g id="text_5">
      <!-- P1' -->
      <g style="fill: #262626" transform="translate(393.778125 399.078875) scale(0.088 -0.088)">
       <defs>
        <path id="ArialMT-27" d="M 425 2959 
L 281 3816 
L 281 4581 
L 922 4581 
L 922 3816 
L 772 2959 
L 425 2959 
z
" transform="scale(0.015625)"/>
       </defs>
       <use xlink:href="#ArialMT-50"/>
       <use xlink:href="#ArialMT-31" x="66.699219"/>
       <use xlink:href="#ArialMT-27" x="122.314453"/>
      </g>
     </g>
    </g>
    <g id="xtick_6">
     <g id="line2d_7">
      <g>
       <use xlink:href="#me5e0c68e7d" x="462" y="384.48" style="fill: #262626; stroke: #262626"/>
      </g>
     </g>
     <g id="text_6">
      <!-- P2' -->
      <g style="fill: #262626" transform="translate(455.778125 399.078875) scale(0.088 -0.088)">
       <use xlink:href="#ArialMT-50"/>
       <use xlink:href="#ArialMT-32" x="66.699219"/>
       <use xlink:href="#ArialMT-27" x="122.314453"/>
      </g>
     </g>
    </g>
    <g id="xtick_7">
     <g id="line2d_8">
      <g>
       <use xlink:href="#me5e0c68e7d" x="524" y="384.48" style="fill: #262626; stroke: #262626"/>
      </g>
     </g>
     <g id="text_7">
      <!-- P3' -->
      <g style="fill: #262626" transform="translate(517.778125 399.078875) scale(0.088 -0.088)">
       <use xlink:href="#ArialMT-50"/>
       <use xlink:href="#ArialMT-33" x="66.699219"/>
       <use xlink:href="#ArialMT-27" x="122.314453"/>
      </g>
     </g>
    </g>
    <g id="xtick_8">
     <g id="line2d_9">
      <g>
       <use xlink:href="#me5e0c68e7d" x="586" y="384.48" style="fill: #262626; stroke: #262626"/>
      </g>
     </g>
     <g id="text_8">
      <!-- P4' -->
      <g style="fill: #262626" transform="translate(579.778125 399.078875) scale(0.088 -0.088)">
       <use xlink:href="#ArialMT-50"/>
       <use xlink:href="#ArialMT-34" x="66.699219"/>
       <use xlink:href="#ArialMT-27" x="122.314453"/>
      </g>
     </g>
    </g>
   </g>
   <g id="matplotlib.axis_2">
    <g id="ytick_1">
     <g id="line2d_10">
      <defs>
       <path id="m926c1ab770" d="M 0 0 
L -4.8 0 
" style="stroke: #262626"/>
      </defs>
      <g>
       <use xlink:href="#m926c1ab770" x="90" y="384.48" style="fill: #262626; stroke: #262626"/>
      </g>
     </g>
     <g id="text_9">
      <!-- 0.0 -->
      <g style="fill: #262626" transform="translate(69.468 387.629437) scale(0.088 -0.088)">
       <defs>
        <path id="ArialMT-30" d="M 266 2259 
Q 266 3072 433 3567 
Q 600 4063 929 4331 
Q 1259 4600 1759 4600 
Q 2128 4600 2406 4451 
Q 2684 4303 2865 4023 
Q 3047 3744 3150 3342 
Q 3253 2941 3253 2259 
Q 3253 1453 3087 958 
Q 2922 463 2592 192 
Q 2263 -78 1759 -78 
Q 1097 -78 719 397 
Q 266 969 266 2259 
z
M 844 2259 
Q 844 1131 1108 757 
Q 1372 384 1759 384 
Q 2147 384 2411 759 
Q 2675 1134 2675 2259 
Q 2675 3391 2411 3762 
Q 2147 4134 1753 4134 
Q 1366 4134 1134 3806 
Q 844 3388 844 2259 
z
" transform="scale(0.015625)"/>
        <path id="ArialMT-2e" d="M 581 0 
L 581 641 
L 1222 641 
L 1222 0 
L 581 0 
z
" transform="scale(0.015625)"/>
       </defs>
       <use xlink:href="#ArialMT-30"/>
       <use xlink:href="#ArialMT-2e" x="55.615234"/>
       <use xlink:href="#ArialMT-30" x="83.398438"/>
      </g>
     </g>
    </g>
    <g id="ytick_2">
     <g id="line2d_11">
      <g>
       <use xlink:href="#m926c1ab770" x="90" y="315.302724" style="fill: #262626; stroke: #262626"/>
      </g>
     </g>
     <g id="text_10">
      <!-- 0.2 -->
      <g style="fill: #262626" transform="translate(69.468 318.452161) scale(0.088 -0.088)">
       <use xlink:href="#ArialMT-30"/>
       <use xlink:href="#ArialMT-2e" x="55.615234"/>
       <use xlink:href="#ArialMT-32" x="83.398438"/>
      </g>
     </g>
    </g>
    <g id="ytick_3">
     <g id="line2d_12">
      <g>
       <use xlink:href="#m926c1ab770" x="90" y="246.125448" style="fill: #262626; stroke: #262626"/>
      </g>
     </g>
     <g id="text_11">
      <!-- 0.4 -->
      <g style="fill: #262626" transform="translate(69.468 249.274885) scale(0.088 -0.088)">
       <use xlink:href="#ArialMT-30"/>
       <use xlink:href="#ArialMT-2e" x="55.615234"/>
       <use xlink:href="#ArialMT-34" x="83.398438"/>
      </g>
     </g>
    </g>
    <g id="ytick_4">
     <g id="line2d_13">
      <g>
       <use xlink:href="#m926c1ab770" x="90" y="176.948172" style="fill: #262626; stroke: #262626"/>
      </g>
     </g>
     <g id="text_12">
      <!-- 0.6 -->
      <g style="fill: #262626" transform="translate(69.468 180.097609) scale(0.088 -0.088)">
       <defs>
        <path id="ArialMT-36" d="M 3184 3459 
L 2625 3416 
Q 2550 3747 2413 3897 
Q 2184 4138 1850 4138 
Q 1581 4138 1378 3988 
Q 1113 3794 959 3422 
Q 806 3050 800 2363 
Q 1003 2672 1297 2822 
Q 1591 2972 1913 2972 
Q 2475 2972 2870 2558 
Q 3266 2144 3266 1488 
Q 3266 1056 3080 686 
Q 2894 316 2569 119 
Q 2244 -78 1831 -78 
Q 1128 -78 684 439 
Q 241 956 241 2144 
Q 241 3472 731 4075 
Q 1159 4600 1884 4600 
Q 2425 4600 2770 4297 
Q 3116 3994 3184 3459 
z
M 888 1484 
Q 888 1194 1011 928 
Q 1134 663 1356 523 
Q 1578 384 1822 384 
Q 2178 384 2434 671 
Q 2691 959 2691 1453 
Q 2691 1928 2437 2201 
Q 2184 2475 1800 2475 
Q 1419 2475 1153 2201 
Q 888 1928 888 1484 
z
" transform="scale(0.015625)"/>
       </defs>
       <use xlink:href="#ArialMT-30"/>
       <use xlink:href="#ArialMT-2e" x="55.615234"/>
       <use xlink:href="#ArialMT-36" x="83.398438"/>
      </g>
     </g>
    </g>
    <g id="ytick_5">
     <g id="line2d_14">
      <g>
       <use xlink:href="#m926c1ab770" x="90" y="107.770896" style="fill: #262626; stroke: #262626"/>
      </g>
     </g>
     <g id="text_13">
      <!-- 0.8 -->
      <g style="fill: #262626" transform="translate(69.468 110.920333) scale(0.088 -0.088)">
       <defs>
        <path id="ArialMT-38" d="M 1131 2484 
Q 781 2613 612 2850 
Q 444 3088 444 3419 
Q 444 3919 803 4259 
Q 1163 4600 1759 4600 
Q 2359 4600 2725 4251 
Q 3091 3903 3091 3403 
Q 3091 3084 2923 2848 
Q 2756 2613 2416 2484 
Q 2838 2347 3058 2040 
Q 3278 1734 3278 1309 
Q 3278 722 2862 322 
Q 2447 -78 1769 -78 
Q 1091 -78 675 323 
Q 259 725 259 1325 
Q 259 1772 486 2073 
Q 713 2375 1131 2484 
z
M 1019 3438 
Q 1019 3113 1228 2906 
Q 1438 2700 1772 2700 
Q 2097 2700 2305 2904 
Q 2513 3109 2513 3406 
Q 2513 3716 2298 3927 
Q 2084 4138 1766 4138 
Q 1444 4138 1231 3931 
Q 1019 3725 1019 3438 
z
M 838 1322 
Q 838 1081 952 856 
Q 1066 631 1291 507 
Q 1516 384 1775 384 
Q 2178 384 2440 643 
Q 2703 903 2703 1303 
Q 2703 1709 2433 1975 
Q 2163 2241 1756 2241 
Q 1359 2241 1098 1978 
Q 838 1716 838 1322 
z
" transform="scale(0.015625)"/>
       </defs>
       <use xlink:href="#ArialMT-30"/>
       <use xlink:href="#ArialMT-2e" x="55.615234"/>
       <use xlink:href="#ArialMT-38" x="83.398438"/>
      </g>
     </g>
    </g>
    <g id="text_14">
     <!-- information (bits) -->
     <g style="fill: #262626" transform="translate(63.4475 253.902) rotate(-90) scale(0.096 -0.096)">
      <defs>
       <path id="ArialMT-69" d="M 425 3934 
L 425 4581 
L 988 4581 
L 988 3934 
L 425 3934 
z
M 425 0 
L 425 3319 
L 988 3319 
L 988 0 
L 425 0 
z
" transform="scale(0.015625)"/>
       <path id="ArialMT-6e" d="M 422 0 
L 422 3319 
L 928 3319 
L 928 2847 
Q 1294 3394 1984 3394 
Q 2284 3394 2536 3286 
Q 2788 3178 2913 3003 
Q 3038 2828 3088 2588 
Q 3119 2431 3119 2041 
L 3119 0 
L 2556 0 
L 2556 2019 
Q 2556 2363 2490 2533 
Q 2425 2703 2258 2804 
Q 2091 2906 1866 2906 
Q 1506 2906 1245 2678 
Q 984 2450 984 1813 
L 984 0 
L 422 0 
z
" transform="scale(0.015625)"/>
       <path id="ArialMT-66" d="M 556 0 
L 556 2881 
L 59 2881 
L 59 3319 
L 556 3319 
L 556 3672 
Q 556 4006 616 4169 
Q 697 4388 901 4523 
Q 1106 4659 1475 4659 
Q 1713 4659 2000 4603 
L 1916 4113 
Q 1741 4144 1584 4144 
Q 1328 4144 1222 4034 
Q 1116 3925 1116 3625 
L 1116 3319 
L 1763 3319 
L 1763 2881 
L 1116 2881 
L 1116 0 
L 556 0 
z
" transform="scale(0.015625)"/>
       <path id="ArialMT-6f" d="M 213 1659 
Q 213 2581 725 3025 
Q 1153 3394 1769 3394 
Q 2453 3394 2887 2945 
Q 3322 2497 3322 1706 
Q 3322 1066 3130 698 
Q 2938 331 2570 128 
Q 2203 -75 1769 -75 
Q 1072 -75 642 372 
Q 213 819 213 1659 
z
M 791 1659 
Q 791 1022 1069 705 
Q 1347 388 1769 388 
Q 2188 388 2466 706 
Q 2744 1025 2744 1678 
Q 2744 2294 2464 2611 
Q 2184 2928 1769 2928 
Q 1347 2928 1069 2612 
Q 791 2297 791 1659 
z
" transform="scale(0.015625)"/>
       <path id="ArialMT-72" d="M 416 0 
L 416 3319 
L 922 3319 
L 922 2816 
Q 1116 3169 1280 3281 
Q 1444 3394 1641 3394 
Q 1925 3394 2219 3213 
L 2025 2691 
Q 1819 2813 1613 2813 
Q 1428 2813 1281 2702 
Q 1134 2591 1072 2394 
Q 978 2094 978 1738 
L 978 0 
L 416 0 
z
" transform="scale(0.015625)"/>
       <path id="ArialMT-6d" d="M 422 0 
L 422 3319 
L 925 3319 
L 925 2853 
Q 1081 3097 1340 3245 
Q 1600 3394 1931 3394 
Q 2300 3394 2536 3241 
Q 2772 3088 2869 2813 
Q 3263 3394 3894 3394 
Q 4388 3394 4653 3120 
Q 4919 2847 4919 2278 
L 4919 0 
L 4359 0 
L 4359 2091 
Q 4359 2428 4304 2576 
Q 4250 2725 4106 2815 
Q 3963 2906 3769 2906 
Q 3419 2906 3187 2673 
Q 2956 2441 2956 1928 
L 2956 0 
L 2394 0 
L 2394 2156 
Q 2394 2531 2256 2718 
Q 2119 2906 1806 2906 
Q 1569 2906 1367 2781 
Q 1166 2656 1075 2415 
Q 984 2175 984 1722 
L 984 0 
L 422 0 
z
" transform="scale(0.015625)"/>
       <path id="ArialMT-61" d="M 2588 409 
Q 2275 144 1986 34 
Q 1697 -75 1366 -75 
Q 819 -75 525 192 
Q 231 459 231 875 
Q 231 1119 342 1320 
Q 453 1522 633 1644 
Q 813 1766 1038 1828 
Q 1203 1872 1538 1913 
Q 2219 1994 2541 2106 
Q 2544 2222 2544 2253 
Q 2544 2597 2384 2738 
Q 2169 2928 1744 2928 
Q 1347 2928 1158 2789 
Q 969 2650 878 2297 
L 328 2372 
Q 403 2725 575 2942 
Q 747 3159 1072 3276 
Q 1397 3394 1825 3394 
Q 2250 3394 2515 3294 
Q 2781 3194 2906 3042 
Q 3031 2891 3081 2659 
Q 3109 2516 3109 2141 
L 3109 1391 
Q 3109 606 3145 398 
Q 3181 191 3288 0 
L 2700 0 
Q 2613 175 2588 409 
z
M 2541 1666 
Q 2234 1541 1622 1453 
Q 1275 1403 1131 1340 
Q 988 1278 909 1158 
Q 831 1038 831 891 
Q 831 666 1001 516 
Q 1172 366 1500 366 
Q 1825 366 2078 508 
Q 2331 650 2450 897 
Q 2541 1088 2541 1459 
L 2541 1666 
z
" transform="scale(0.015625)"/>
       <path id="ArialMT-74" d="M 1650 503 
L 1731 6 
Q 1494 -44 1306 -44 
Q 1000 -44 831 53 
Q 663 150 594 308 
Q 525 466 525 972 
L 525 2881 
L 113 2881 
L 113 3319 
L 525 3319 
L 525 4141 
L 1084 4478 
L 1084 3319 
L 1650 3319 
L 1650 2881 
L 1084 2881 
L 1084 941 
Q 1084 700 1114 631 
Q 1144 563 1211 522 
Q 1278 481 1403 481 
Q 1497 481 1650 503 
z
" transform="scale(0.015625)"/>
       <path id="ArialMT-20" transform="scale(0.015625)"/>
       <path id="ArialMT-28" d="M 1497 -1347 
Q 1031 -759 709 28 
Q 388 816 388 1659 
Q 388 2403 628 3084 
Q 909 3875 1497 4659 
L 1900 4659 
Q 1522 4009 1400 3731 
Q 1209 3300 1100 2831 
Q 966 2247 966 1656 
Q 966 153 1900 -1347 
L 1497 -1347 
z
" transform="scale(0.015625)"/>
       <path id="ArialMT-62" d="M 941 0 
L 419 0 
L 419 4581 
L 981 4581 
L 981 2947 
Q 1338 3394 1891 3394 
Q 2197 3394 2470 3270 
Q 2744 3147 2920 2923 
Q 3097 2700 3197 2384 
Q 3297 2069 3297 1709 
Q 3297 856 2875 390 
Q 2453 -75 1863 -75 
Q 1275 -75 941 416 
L 941 0 
z
M 934 1684 
Q 934 1088 1097 822 
Q 1363 388 1816 388 
Q 2184 388 2453 708 
Q 2722 1028 2722 1663 
Q 2722 2313 2464 2622 
Q 2206 2931 1841 2931 
Q 1472 2931 1203 2611 
Q 934 2291 934 1684 
z
" transform="scale(0.015625)"/>
       <path id="ArialMT-73" d="M 197 991 
L 753 1078 
Q 800 744 1014 566 
Q 1228 388 1613 388 
Q 2000 388 2187 545 
Q 2375 703 2375 916 
Q 2375 1106 2209 1216 
Q 2094 1291 1634 1406 
Q 1016 1563 777 1677 
Q 538 1791 414 1992 
Q 291 2194 291 2438 
Q 291 2659 392 2848 
Q 494 3038 669 3163 
Q 800 3259 1026 3326 
Q 1253 3394 1513 3394 
Q 1903 3394 2198 3281 
Q 2494 3169 2634 2976 
Q 2775 2784 2828 2463 
L 2278 2388 
Q 2241 2644 2061 2787 
Q 1881 2931 1553 2931 
Q 1166 2931 1000 2803 
Q 834 2675 834 2503 
Q 834 2394 903 2306 
Q 972 2216 1119 2156 
Q 1203 2125 1616 2013 
Q 2213 1853 2448 1751 
Q 2684 1650 2818 1456 
Q 2953 1263 2953 975 
Q 2953 694 2789 445 
Q 2625 197 2315 61 
Q 2006 -75 1616 -75 
Q 969 -75 630 194 
Q 291 463 197 991 
z
" transform="scale(0.015625)"/>
       <path id="ArialMT-29" d="M 791 -1347 
L 388 -1347 
Q 1322 153 1322 1656 
Q 1322 2244 1188 2822 
Q 1081 3291 891 3722 
Q 769 4003 388 4659 
L 791 4659 
Q 1378 3875 1659 3084 
Q 1900 2403 1900 1659 
Q 1900 816 1576 28 
Q 1253 -759 791 -1347 
z
" transform="scale(0.015625)"/>
      </defs>
      <use xlink:href="#ArialMT-69"/>
      <use xlink:href="#ArialMT-6e" x="22.216797"/>
      <use xlink:href="#ArialMT-66" x="77.832031"/>
      <use xlink:href="#ArialMT-6f" x="105.615234"/>
      <use xlink:href="#ArialMT-72" x="161.230469"/>
      <use xlink:href="#ArialMT-6d" x="194.53125"/>
      <use xlink:href="#ArialMT-61" x="277.832031"/>
      <use xlink:href="#ArialMT-74" x="333.447266"/>
      <use xlink:href="#ArialMT-69" x="361.230469"/>
      <use xlink:href="#ArialMT-6f" x="383.447266"/>
      <use xlink:href="#ArialMT-6e" x="439.0625"/>
      <use xlink:href="#ArialMT-20" x="494.677734"/>
      <use xlink:href="#ArialMT-28" x="522.460938"/>
      <use xlink:href="#ArialMT-62" x="555.761719"/>
      <use xlink:href="#ArialMT-69" x="611.376953"/>
      <use xlink:href="#ArialMT-74" x="633.59375"/>
      <use xlink:href="#ArialMT-73" x="661.376953"/>
      <use xlink:href="#ArialMT-29" x="711.376953"/>
     </g>
    </g>
   </g>
   <g id="line2d_15">
    <path d="M 369 384.48 
L 369 51.84 
" clip-path="url(#pecdc125e88)" style="fill: none; stroke: #daa520; stroke-width: 2; stroke-linecap: round"/>
   </g>
   <g id="patch_43">
    <path d="M 90 384.48 
L 648 384.48 
" style="fill: none; stroke: #262626; stroke-linejoin: miter; stroke-linecap: square"/>
   </g>
   <g id="patch_44">
    <path d="M 90 51.84 
L 648 51.84 
" style="fill: none; stroke: #262626; stroke-linejoin: miter; stroke-linecap: square"/>
   </g>
   <g id="text_15">
    <!-- Ctr vs. BAPI information content, Kullback n=2 -->
    <g style="fill: #262626" transform="translate(270.42375 45.84) scale(0.096 -0.096)">
     <defs>
      <path id="ArialMT-43" d="M 3763 1606 
L 4369 1453 
Q 4178 706 3683 314 
Q 3188 -78 2472 -78 
Q 1731 -78 1267 223 
Q 803 525 561 1097 
Q 319 1669 319 2325 
Q 319 3041 592 3573 
Q 866 4106 1370 4382 
Q 1875 4659 2481 4659 
Q 3169 4659 3637 4309 
Q 4106 3959 4291 3325 
L 3694 3184 
Q 3534 3684 3231 3912 
Q 2928 4141 2469 4141 
Q 1941 4141 1586 3887 
Q 1231 3634 1087 3207 
Q 944 2781 944 2328 
Q 944 1744 1114 1308 
Q 1284 872 1643 656 
Q 2003 441 2422 441 
Q 2931 441 3284 734 
Q 3638 1028 3763 1606 
z
" transform="scale(0.015625)"/>
      <path id="ArialMT-76" d="M 1344 0 
L 81 3319 
L 675 3319 
L 1388 1331 
Q 1503 1009 1600 663 
Q 1675 925 1809 1294 
L 2547 3319 
L 3125 3319 
L 1869 0 
L 1344 0 
z
" transform="scale(0.015625)"/>
      <path id="ArialMT-42" d="M 469 0 
L 469 4581 
L 2188 4581 
Q 2713 4581 3030 4442 
Q 3347 4303 3526 4014 
Q 3706 3725 3706 3409 
Q 3706 3116 3547 2856 
Q 3388 2597 3066 2438 
Q 3481 2316 3704 2022 
Q 3928 1728 3928 1328 
Q 3928 1006 3792 729 
Q 3656 453 3456 303 
Q 3256 153 2954 76 
Q 2653 0 2216 0 
L 469 0 
z
M 1075 2656 
L 2066 2656 
Q 2469 2656 2644 2709 
Q 2875 2778 2992 2937 
Q 3109 3097 3109 3338 
Q 3109 3566 3000 3739 
Q 2891 3913 2687 3977 
Q 2484 4041 1991 4041 
L 1075 4041 
L 1075 2656 
z
M 1075 541 
L 2216 541 
Q 2509 541 2628 563 
Q 2838 600 2978 687 
Q 3119 775 3209 942 
Q 3300 1109 3300 1328 
Q 3300 1584 3169 1773 
Q 3038 1963 2805 2039 
Q 2572 2116 2134 2116 
L 1075 2116 
L 1075 541 
z
" transform="scale(0.015625)"/>
      <path id="ArialMT-41" d="M -9 0 
L 1750 4581 
L 2403 4581 
L 4278 0 
L 3588 0 
L 3053 1388 
L 1138 1388 
L 634 0 
L -9 0 
z
M 1313 1881 
L 2866 1881 
L 2388 3150 
Q 2169 3728 2063 4100 
Q 1975 3659 1816 3225 
L 1313 1881 
z
" transform="scale(0.015625)"/>
      <path id="ArialMT-49" d="M 597 0 
L 597 4581 
L 1203 4581 
L 1203 0 
L 597 0 
z
" transform="scale(0.015625)"/>
      <path id="ArialMT-63" d="M 2588 1216 
L 3141 1144 
Q 3050 572 2676 248 
Q 2303 -75 1759 -75 
Q 1078 -75 664 370 
Q 250 816 250 1647 
Q 250 2184 428 2587 
Q 606 2991 970 3192 
Q 1334 3394 1763 3394 
Q 2303 3394 2647 3120 
Q 2991 2847 3088 2344 
L 2541 2259 
Q 2463 2594 2264 2762 
Q 2066 2931 1784 2931 
Q 1359 2931 1093 2626 
Q 828 2322 828 1663 
Q 828 994 1084 691 
Q 1341 388 1753 388 
Q 2084 388 2306 591 
Q 2528 794 2588 1216 
z
" transform="scale(0.015625)"/>
      <path id="ArialMT-65" d="M 2694 1069 
L 3275 997 
Q 3138 488 2766 206 
Q 2394 -75 1816 -75 
Q 1088 -75 661 373 
Q 234 822 234 1631 
Q 234 2469 665 2931 
Q 1097 3394 1784 3394 
Q 2450 3394 2872 2941 
Q 3294 2488 3294 1666 
Q 3294 1616 3291 1516 
L 816 1516 
Q 847 969 1125 678 
Q 1403 388 1819 388 
Q 2128 388 2347 550 
Q 2566 713 2694 1069 
z
M 847 1978 
L 2700 1978 
Q 2663 2397 2488 2606 
Q 2219 2931 1791 2931 
Q 1403 2931 1139 2672 
Q 875 2413 847 1978 
z
" transform="scale(0.015625)"/>
      <path id="ArialMT-2c" d="M 569 0 
L 569 641 
L 1209 641 
L 1209 0 
Q 1209 -353 1084 -570 
Q 959 -788 688 -906 
L 531 -666 
Q 709 -588 793 -436 
Q 878 -284 888 0 
L 569 0 
z
" transform="scale(0.015625)"/>
      <path id="ArialMT-4b" d="M 469 0 
L 469 4581 
L 1075 4581 
L 1075 2309 
L 3350 4581 
L 4172 4581 
L 2250 2725 
L 4256 0 
L 3456 0 
L 1825 2319 
L 1075 1588 
L 1075 0 
L 469 0 
z
" transform="scale(0.015625)"/>
      <path id="ArialMT-75" d="M 2597 0 
L 2597 488 
Q 2209 -75 1544 -75 
Q 1250 -75 995 37 
Q 741 150 617 320 
Q 494 491 444 738 
Q 409 903 409 1263 
L 409 3319 
L 972 3319 
L 972 1478 
Q 972 1038 1006 884 
Q 1059 663 1231 536 
Q 1403 409 1656 409 
Q 1909 409 2131 539 
Q 2353 669 2445 892 
Q 2538 1116 2538 1541 
L 2538 3319 
L 3100 3319 
L 3100 0 
L 2597 0 
z
" transform="scale(0.015625)"/>
      <path id="ArialMT-6c" d="M 409 0 
L 409 4581 
L 972 4581 
L 972 0 
L 409 0 
z
" transform="scale(0.015625)"/>
      <path id="ArialMT-6b" d="M 425 0 
L 425 4581 
L 988 4581 
L 988 1969 
L 2319 3319 
L 3047 3319 
L 1778 2088 
L 3175 0 
L 2481 0 
L 1384 1697 
L 988 1316 
L 988 0 
L 425 0 
z
" transform="scale(0.015625)"/>
      <path id="ArialMT-3d" d="M 3381 2694 
L 356 2694 
L 356 3219 
L 3381 3219 
L 3381 2694 
z
M 3381 1303 
L 356 1303 
L 356 1828 
L 3381 1828 
L 3381 1303 
z
" transform="scale(0.015625)"/>
     </defs>
     <use xlink:href="#ArialMT-43"/>
     <use xlink:href="#ArialMT-74" x="72.216797"/>
     <use xlink:href="#ArialMT-72" x="100"/>
     <use xlink:href="#ArialMT-20" x="133.300781"/>
     <use xlink:href="#ArialMT-76" x="161.083984"/>
     <use xlink:href="#ArialMT-73" x="211.083984"/>
     <use xlink:href="#ArialMT-2e" x="261.083984"/>
     <use xlink:href="#ArialMT-20" x="288.867188"/>
     <use xlink:href="#ArialMT-42" x="316.650391"/>
     <use xlink:href="#ArialMT-41" x="383.349609"/>
     <use xlink:href="#ArialMT-50" x="450.048828"/>
     <use xlink:href="#ArialMT-49" x="516.748047"/>
     <use xlink:href="#ArialMT-20" x="544.53125"/>
     <use xlink:href="#ArialMT-69" x="572.314453"/>
     <use xlink:href="#ArialMT-6e" x="594.53125"/>
     <use xlink:href="#ArialMT-66" x="650.146484"/>
     <use xlink:href="#ArialMT-6f" x="677.929688"/>
     <use xlink:href="#ArialMT-72" x="733.544922"/>
     <use xlink:href="#ArialMT-6d" x="766.845703"/>
     <use xlink:href="#ArialMT-61" x="850.146484"/>
     <use xlink:href="#ArialMT-74" x="905.761719"/>
     <use xlink:href="#ArialMT-69" x="933.544922"/>
     <use xlink:href="#ArialMT-6f" x="955.761719"/>
     <use xlink:href="#ArialMT-6e" x="1011.376953"/>
     <use xlink:href="#ArialMT-20" x="1066.992188"/>
     <use xlink:href="#ArialMT-63" x="1094.775391"/>
     <use xlink:href="#ArialMT-6f" x="1144.775391"/>
     <use xlink:href="#ArialMT-6e" x="1200.390625"/>
     <use xlink:href="#ArialMT-74" x="1256.005859"/>
     <use xlink:href="#ArialMT-65" x="1283.789062"/>
     <use xlink:href="#ArialMT-6e" x="1339.404297"/>
     <use xlink:href="#ArialMT-74" x="1395.019531"/>
     <use xlink:href="#ArialMT-2c" x="1422.802734"/>
     <use xlink:href="#ArialMT-20" x="1450.585938"/>
     <use xlink:href="#ArialMT-4b" x="1478.369141"/>
     <use xlink:href="#ArialMT-75" x="1545.068359"/>
     <use xlink:href="#ArialMT-6c" x="1600.683594"/>
     <use xlink:href="#ArialMT-6c" x="1622.900391"/>
     <use xlink:href="#ArialMT-62" x="1645.117188"/>
     <use xlink:href="#ArialMT-61" x="1700.732422"/>
     <use xlink:href="#ArialMT-63" x="1756.347656"/>
     <use xlink:href="#ArialMT-6b" x="1806.347656"/>
     <use xlink:href="#ArialMT-20" x="1856.347656"/>
     <use xlink:href="#ArialMT-6e" x="1884.130859"/>
     <use xlink:href="#ArialMT-3d" x="1939.746094"/>
     <use xlink:href="#ArialMT-32" x="1998.144531"/>
    </g>
   </g>
  </g>
 </g>
 <defs>
  <clipPath id="pecdc125e88">
   <rect x="90" y="51.84" width="558" height="332.64"/>
  </clipPath>
 </defs>
</svg>
