<?xml version="1.0" encoding="utf-8" standalone="no"?>
<!DOCTYPE svg PUBLIC "-//W3C//DTD SVG 1.1//EN"
  "http://www.w3.org/Graphics/SVG/1.1/DTD/svg11.dtd">
<svg xmlns:xlink="http://www.w3.org/1999/xlink" width="720pt" height="432pt" viewBox="0 0 720 432" xmlns="http://www.w3.org/2000/svg" version="1.1">
 <metadata>
  <rdf:RDF xmlns:dc="http://purl.org/dc/elements/1.1/" xmlns:cc="http://creativecommons.org/ns#" xmlns:rdf="http://www.w3.org/1999/02/22-rdf-syntax-ns#">
   <cc:Work>
    <dc:type rdf:resource="http://purl.org/dc/dcmitype/StillImage"/>
    <dc:date>2023-06-23T17:01:44.317371</dc:date>
    <dc:format>image/svg+xml</dc:format>
    <dc:creator>
     <cc:Agent>
      <dc:title>Matplotlib v3.7.1, https://matplotlib.org/</dc:title>
     </cc:Agent>
    </dc:creator>
   </cc:Work>
  </rdf:RDF>
 </metadata>
 <defs>
  <style type="text/css">*{stroke-linejoin: round; stroke-linecap: butt}</style>
 </defs>
 <g id="figure_1">
  <g id="patch_1">
   <path d="M 0 432 
L 720 432 
L 720 0 
L 0 0 
z
" style="fill: #ffffff"/>
  </g>
  <g id="axes_1">
   <g id="patch_2">
    <path d="M 90 384.48 
L 648 384.48 
L 648 51.84 
L 90 51.84 
z
" style="fill: #ffffff"/>
   </g>
   <g id="patch_3">
    <path d="M 121 384.48 
L 183 384.48 
L 183 51.84 
L 121 51.84 
z
" clip-path="url(#pae39d26042)" style="fill: #ffd700; opacity: 0.35; stroke: #ffffff; stroke-width: 0.8; stroke-linejoin: miter"/>
   </g>
   <g id="patch_4">
    <path d="M 183 384.48 
L 245 384.48 
L 245 51.84 
L 183 51.84 
z
" clip-path="url(#pae39d26042)" style="fill: #ffd700; opacity: 0.35; stroke: #ffffff; stroke-width: 0.8; stroke-linejoin: miter"/>
   </g>
   <g id="patch_5">
    <path d="M 245 384.48 
L 307 384.48 
L 307 51.84 
L 245 51.84 
z
" clip-path="url(#pae39d26042)" style="fill: #ffd700; opacity: 0.35; stroke: #ffffff; stroke-width: 0.8; stroke-linejoin: miter"/>
   </g>
   <g id="patch_6">
    <path d="M 307 384.48 
L 369 384.48 
L 369 51.84 
L 307 51.84 
z
" clip-path="url(#pae39d26042)" style="fill: #ffd700; opacity: 0.35; stroke: #ffffff; stroke-width: 0.8; stroke-linejoin: miter"/>
   </g>
   <g id="patch_7">
    <path d="M 369 384.48 
L 431 384.48 
L 431 51.84 
L 369 51.84 
z
" clip-path="url(#pae39d26042)" style="fill: #ffd700; opacity: 0.35; stroke: #ffffff; stroke-width: 0.8; stroke-linejoin: miter"/>
   </g>
   <g id="patch_8">
    <path d="M 431 384.48 
L 493 384.48 
L 493 51.84 
L 431 51.84 
z
" clip-path="url(#pae39d26042)" style="fill: #ffd700; opacity: 0.35; stroke: #ffffff; stroke-width: 0.8; stroke-linejoin: miter"/>
   </g>
   <g id="patch_9">
    <path d="M 493 384.48 
L 555 384.48 
L 555 51.84 
L 493 51.84 
z
" clip-path="url(#pae39d26042)" style="fill: #ffd700; opacity: 0.35; stroke: #ffffff; stroke-width: 0.8; stroke-linejoin: miter"/>
   </g>
   <g id="line2d_1">
    <path d="M 90 384.48 
L 648 384.48 
" clip-path="url(#pae39d26042)" style="fill: none; stroke: #000000; stroke-width: 0.5; stroke-linecap: round"/>
   </g>
   <g id="patch_10">
    <path d="M 125.65 377.662052 
L 177.253077 377.662052 
L 177.253077 378.957647 
L 144.774615 378.957647 
L 144.774615 380.193446 
L 175.329487 380.193446 
L 175.329487 381.489041 
L 144.774615 381.489041 
L 144.774615 383.011009 
L 178.35 383.011009 
L 178.35 384.305181 
L 125.65 384.305181 
L 125.65 377.662052 
z
" clip-path="url(#pae39d26042)" style="fill: #6b296b"/>
   </g>
   <g id="patch_11">
    <path d="M 153.405333 376.009849 
L 152.373292 376.009849 
Q 139.714313 376.009849 132.676667 375.068359 
Q 125.65 374.125391 125.65 372.444898 
Q 125.65 370.767361 132.665687 369.817003 
Q 139.681375 368.865168 152 368.865168 
Q 164.450375 368.865168 171.400188 369.808135 
Q 178.35 370.749625 178.35 372.444898 
Q 178.35 373.608089 174.661 374.449075 
Q 170.972 375.29006 164.044146 375.714248 
L 174.364563 377.266154 
L 161.771458 377.266154 
L 153.405333 376.009849 
z
M 152 370.153989 
Q 145.961458 370.153989 142.634771 370.754059 
Q 139.308083 371.35413 139.308083 372.444898 
Q 139.308083 373.553403 142.557917 374.143127 
Q 145.818729 374.731374 152 374.731374 
Q 158.071479 374.731374 161.398167 374.131303 
Q 164.724854 373.529755 164.724854 372.444898 
Q 164.724854 371.35413 161.398167 370.754059 
Q 158.071479 370.153989 152 370.153989 
z
" clip-path="url(#pae39d26042)" style="fill: #40ba47"/>
   </g>
   <g id="patch_12">
    <path d="M 147.032787 353.019809 
Q 151.762274 353.019809 153.814221 352.215556 
Q 155.866168 351.405558 155.866168 349.555776 
Q 155.866168 347.723228 153.814221 346.936209 
Q 151.762274 346.143445 147.032787 346.143445 
L 140.701781 346.143445 
L 140.701781 353.019809 
L 147.032787 353.019809 
z
M 140.701781 357.793626 
L 140.701781 367.938705 
L 125.65 367.938705 
L 125.65 341.134097 
L 148.634307 341.134097 
Q 160.170252 341.134097 165.537844 342.914943 
Q 170.917949 344.690045 170.917949 348.533226 
Q 170.917949 351.187261 168.11529 352.893426 
Q 165.325142 354.599592 159.694801 355.40959 
Q 162.785233 355.731291 165.225047 356.874479 
Q 167.677374 358.011923 170.179748 360.327023 
L 178.35 367.938705 
L 162.322293 367.938705 
L 155.203039 361.280638 
Q 153.050997 359.270005 150.836396 358.534688 
Q 148.634307 357.793626 144.955817 357.793626 
L 140.701781 357.793626 
z
" clip-path="url(#pae39d26042)" style="fill: #bd2e1f"/>
   </g>
   <g id="patch_13">
    <path d="M 125.65 185.450529 
L 139.537864 185.450529 
L 139.537864 240.564216 
L 159.555783 185.450529 
L 175.683253 185.450529 
L 149.743078 256.972108 
L 178.35 336.454913 
L 160.964195 336.454913 
L 139.537864 276.97226 
L 139.537864 336.454913 
L 125.65 336.454913 
L 125.65 185.450529 
z
" clip-path="url(#pae39d26042)" style="fill: #bd2e1f"/>
   </g>
   <g id="patch_14">
    <path d="M 235.955948 369.198203 
L 235.955948 372.385275 
Q 230.459804 371.83044 225.221293 371.549797 
Q 219.997094 371.265929 215.34541 371.265929 
Q 209.176562 371.265929 206.213797 371.649797 
Q 203.265345 372.030439 203.265345 372.836884 
Q 203.265345 373.443331 205.254834 373.782038 
Q 207.244324 374.117519 212.482835 374.359453 
L 219.811027 374.691708 
Q 230.946442 375.198155 235.641065 376.22718 
Q 240.35 377.252978 240.35 379.149737 
Q 240.35 381.636814 233.794704 382.852933 
Q 227.239408 384.069053 213.770994 384.069053 
Q 207.430391 384.069053 201.032537 383.794861 
Q 194.634682 383.523896 188.236828 382.988416 
L 188.236828 379.714249 
Q 194.634682 380.478759 200.60315 380.869078 
Q 206.571619 381.256172 212.125014 381.256172 
Q 217.764286 381.256172 220.755676 380.833594 
Q 223.747067 380.407791 223.747067 379.620701 
Q 223.747067 378.917481 221.714639 378.533613 
Q 219.682211 378.149745 213.59924 377.846521 
L 206.929441 377.514266 
Q 196.910429 377.030399 192.273058 375.972343 
Q 187.65 374.914287 187.65 373.120753 
Q 187.65 370.872384 194.090793 369.662716 
Q 200.531586 368.453048 212.611651 368.453048 
Q 218.122108 368.453048 223.933134 368.640143 
Q 229.744161 368.827239 235.955948 369.198203 
z
" clip-path="url(#pae39d26042)" style="fill: #40ba47"/>
   </g>
   <g id="patch_15">
    <path d="M 187.65 229.972864 
L 240.35 229.972864 
L 240.35 256.209767 
L 221.390256 256.209767 
L 221.390256 364.501864 
L 206.646512 364.501864 
L 206.646512 256.209767 
L 187.65 256.209767 
L 187.65 229.972864 
z
" clip-path="url(#pae39d26042)" style="fill: #40ba47"/>
   </g>
   <g id="patch_16">
    <path d="M 250.198462 381.52967 
L 301.801538 381.52967 
L 301.801538 382.090313 
L 269.323077 382.090313 
L 269.323077 382.62508 
L 299.877949 382.62508 
L 299.877949 383.185723 
L 269.323077 383.185723 
L 269.323077 384.404351 
L 250.198462 384.404351 
L 250.198462 381.52967 
z
" clip-path="url(#pae39d26042)" style="fill: #21599c"/>
   </g>
   <g id="patch_17">
    <path d="M 249.65 372.015838 
L 262.68762 372.015838 
L 276.016162 378.803587 
L 289.323155 372.015838 
L 302.35 372.015838 
L 283.730985 381.212016 
L 268.269015 381.212016 
L 249.65 372.015838 
z
" clip-path="url(#pae39d26042)" style="fill: #21599c"/>
   </g>
   <g id="patch_18">
    <path d="M 249.65 359.693004 
L 265.195992 359.693004 
L 275.979692 365.992264 
L 286.83447 359.693004 
L 302.35 359.693004 
L 302.35 371.464068 
L 290.80474 371.464068 
L 290.80474 362.853987 
L 279.889037 369.201178 
L 272.141426 369.201178 
L 261.225723 362.853987 
L 261.225723 371.464068 
L 249.65 371.464068 
L 249.65 359.693004 
z
" clip-path="url(#pae39d26042)" style="fill: #21599c"/>
   </g>
   <g id="patch_19">
    <path d="M 266.437692 337.684816 
L 285.562308 337.684816 
L 285.562308 358.82687 
L 266.437692 358.82687 
L 266.437692 337.684816 
z
" clip-path="url(#pae39d26042)" style="fill: #21599c"/>
   </g>
   <g id="patch_20">
    <path d="M 249.65 159.162536 
L 268.774615 159.162536 
L 268.774615 298.784026 
L 302.35 298.784026 
L 302.35 332.565217 
L 249.65 332.565217 
L 249.65 159.162536 
z
" clip-path="url(#pae39d26042)" style="fill: #21599c"/>
   </g>
   <g id="patch_21">
    <path d="M 339.405333 383.438822 
L 338.373292 383.438822 
Q 325.714313 383.438822 318.676667 382.775312 
Q 311.65 382.110761 311.65 380.926443 
Q 311.65 379.744208 318.665687 379.074448 
Q 325.681375 378.403647 338 378.403647 
Q 350.450375 378.403647 357.400188 379.068199 
Q 364.35 379.731709 364.35 380.926443 
Q 364.35 381.746195 360.661 382.338875 
Q 356.972 382.931555 350.044146 383.230499 
L 360.364563 384.324196 
L 347.771458 384.324196 
L 339.405333 383.438822 
z
M 338 379.311937 
Q 331.961458 379.311937 328.634771 379.734833 
Q 325.308083 380.15773 325.308083 380.926443 
Q 325.308083 381.707655 328.557917 382.12326 
Q 331.818729 382.537824 338 382.537824 
Q 344.071479 382.537824 347.398167 382.114927 
Q 350.724854 381.690989 350.724854 380.926443 
Q 350.724854 380.15773 347.398167 379.734833 
Q 344.071479 379.311937 338 379.311937 
z
" clip-path="url(#pae39d26042)" style="fill: #40ba47"/>
   </g>
   <g id="patch_22">
    <path d="M 311.65 347.108234 
L 325.537864 347.108234 
L 325.537864 358.182172 
L 345.555783 347.108234 
L 361.683253 347.108234 
L 335.743078 361.478993 
L 364.35 377.449392 
L 346.964195 377.449392 
L 325.537864 365.497603 
L 325.537864 377.449392 
L 311.65 377.449392 
L 311.65 347.108234 
z
" clip-path="url(#pae39d26042)" style="fill: #bd2e1f"/>
   </g>
   <g id="patch_23">
    <path d="M 333.032787 214.493107 
Q 337.762274 214.493107 339.814221 207.7079 
Q 341.866168 200.874227 341.866168 185.268251 
Q 341.866168 169.807672 339.814221 163.167862 
Q 337.762274 156.479586 333.032787 156.479586 
L 326.701781 156.479586 
L 326.701781 214.493107 
L 333.032787 214.493107 
z
M 326.701781 254.768157 
L 326.701781 340.358697 
L 311.65 340.358697 
L 311.65 114.21744 
L 334.634307 114.21744 
Q 346.170252 114.21744 351.537844 129.241827 
Q 356.917949 144.217748 356.917949 176.641345 
Q 356.917949 199.032528 354.11529 213.42686 
Q 351.325142 227.821192 345.694801 234.654865 
Q 348.785233 237.368947 351.225047 247.013635 
Q 353.677374 256.609856 356.179748 276.141559 
L 364.35 340.358697 
L 348.322293 340.358697 
L 341.203039 284.186876 
Q 339.050997 267.223858 336.836396 261.020241 
Q 334.634307 254.768157 330.955817 254.768157 
L 326.701781 254.768157 
z
" clip-path="url(#pae39d26042)" style="fill: #bd2e1f"/>
   </g>
   <g id="patch_24">
    <path d="M 373.65 373.994723 
L 390.578032 373.994723 
L 411.968106 381.001272 
L 411.968106 373.994723 
L 426.35 373.994723 
L 426.35 384.211147 
L 409.409364 384.211147 
L 388.01929 377.204598 
L 388.01929 384.211147 
L 373.65 384.211147 
L 373.65 373.994723 
z
" clip-path="url(#pae39d26042)" style="fill: #40ba47"/>
   </g>
   <g id="patch_25">
    <path d="M 373.65 356.625744 
L 425.253077 356.625744 
L 425.253077 359.875232 
L 392.774615 359.875232 
L 392.774615 362.974744 
L 423.329487 362.974744 
L 423.329487 366.224232 
L 392.774615 366.224232 
L 392.774615 370.041488 
L 426.35 370.041488 
L 426.35 373.287405 
L 373.65 373.287405 
L 373.65 356.625744 
z
" clip-path="url(#pae39d26042)" style="fill: #6b296b"/>
   </g>
   <g id="patch_26">
    <path d="M 388.091481 127.784401 
L 388.091481 295.43026 
L 393.265444 295.43026 
Q 402.112802 295.43026 406.782574 273.878316 
Q 411.464351 252.326372 411.464351 211.283463 
Q 411.464351 170.476093 406.806583 149.15969 
Q 402.16082 127.784401 393.265444 127.784401 
L 388.091481 127.784401 
z
M 373.65 74.198967 
L 388.871777 74.198967 
Q 401.63262 74.198967 407.874989 83.149501 
Q 414.117358 92.04115 418.583052 113.416439 
Q 422.520547 132.024128 424.429271 156.343671 
Q 426.35 180.604329 426.35 211.283463 
Q 426.35 242.433677 424.429271 266.812105 
Q 422.520547 291.190534 418.583052 309.739338 
Q 414.081344 331.114627 407.778952 340.065161 
Q 401.47656 348.95681 388.871777 348.95681 
L 373.65 348.95681 
L 373.65 74.198967 
z
" clip-path="url(#pae39d26042)" style="fill: #6b296b"/>
   </g>
   <g id="patch_27">
    <path d="M 435.65 376.842532 
L 444.762642 376.842532 
L 451.132798 382.250716 
L 457.455534 376.842532 
L 466.615597 376.842532 
L 472.938332 382.250716 
L 479.316392 376.842532 
L 488.35 376.842532 
L 479.656239 384.284167 
L 468.694196 384.284167 
L 462 378.627185 
L 455.384838 384.284167 
L 444.414892 384.284167 
L 435.65 376.842532 
z
" clip-path="url(#pae39d26042)" style="fill: #21599c"/>
   </g>
   <g id="patch_28">
    <path d="M 435.65 366.923597 
L 450.813382 366.923597 
L 450.813382 370.533628 
L 473.186618 370.533628 
L 473.186618 366.923597 
L 488.35 366.923597 
L 488.35 376.397389 
L 473.186618 376.397389 
L 473.186618 372.381281 
L 450.813382 372.381281 
L 450.813382 376.397389 
L 435.65 376.397389 
L 435.65 366.923597 
z
" clip-path="url(#pae39d26042)" style="fill: #177875"/>
   </g>
   <g id="patch_29">
    <path d="M 436.198462 319.079825 
L 487.801538 319.079825 
L 487.801538 328.124065 
L 455.323077 328.124065 
L 455.323077 336.750878 
L 485.877949 336.750878 
L 485.877949 345.795118 
L 455.323077 345.795118 
L 455.323077 365.453916 
L 436.198462 365.453916 
L 436.198462 319.079825 
z
" clip-path="url(#pae39d26042)" style="fill: #21599c"/>
   </g>
   <g id="patch_30">
    <path d="M 435.65 58.490486 
L 450.22 58.490486 
L 461.988929 148.56139 
L 473.746786 58.490486 
L 488.35 58.490486 
L 468.665 204.72707 
L 468.665 311.208968 
L 455.346071 311.208968 
L 455.346071 204.72707 
L 435.65 58.490486 
z
" clip-path="url(#pae39d26042)" style="fill: #177875"/>
   </g>
   <g id="patch_31">
    <path d="M 498.198462 381.52967 
L 549.801538 381.52967 
L 549.801538 382.090313 
L 517.323077 382.090313 
L 517.323077 382.62508 
L 547.877949 382.62508 
L 547.877949 383.185723 
L 517.323077 383.185723 
L 517.323077 384.404351 
L 498.198462 384.404351 
L 498.198462 381.52967 
z
" clip-path="url(#pae39d26042)" style="fill: #21599c"/>
   </g>
   <g id="patch_32">
    <path d="M 497.65 372.015838 
L 510.68762 372.015838 
L 524.016162 378.803587 
L 537.323155 372.015838 
L 550.35 372.015838 
L 531.730985 381.212016 
L 516.269015 381.212016 
L 497.65 372.015838 
z
" clip-path="url(#pae39d26042)" style="fill: #21599c"/>
   </g>
   <g id="patch_33">
    <path d="M 497.65 359.693004 
L 513.195992 359.693004 
L 523.979692 365.992264 
L 534.83447 359.693004 
L 550.35 359.693004 
L 550.35 371.464068 
L 538.80474 371.464068 
L 538.80474 362.853987 
L 527.889037 369.201178 
L 520.141426 369.201178 
L 509.225723 362.853987 
L 509.225723 371.464068 
L 497.65 371.464068 
L 497.65 359.693004 
z
" clip-path="url(#pae39d26042)" style="fill: #21599c"/>
   </g>
   <g id="patch_34">
    <path d="M 514.437692 337.684816 
L 533.562308 337.684816 
L 533.562308 358.82687 
L 514.437692 358.82687 
L 514.437692 337.684816 
z
" clip-path="url(#pae39d26042)" style="fill: #21599c"/>
   </g>
   <g id="patch_35">
    <path d="M 497.65 159.162536 
L 516.774615 159.162536 
L 516.774615 298.784026 
L 550.35 298.784026 
L 550.35 332.565217 
L 497.65 332.565217 
L 497.65 159.162536 
z
" clip-path="url(#pae39d26042)" style="fill: #21599c"/>
   </g>
   <g id="patch_36">
    <path d="M 559.65 383.19547 
L 574.813382 383.19547 
L 574.813382 383.672395 
L 597.186618 383.672395 
L 597.186618 383.19547 
L 612.35 383.19547 
L 612.35 384.447063 
L 597.186618 384.447063 
L 597.186618 383.916491 
L 574.813382 383.916491 
L 574.813382 384.447063 
L 559.65 384.447063 
L 559.65 383.19547 
z
" clip-path="url(#pae39d26042)" style="fill: #177875"/>
   </g>
   <g id="patch_37">
    <path d="M 581.032787 378.027103 
Q 585.762274 378.027103 587.814221 377.762759 
Q 589.866168 377.496526 589.866168 376.888535 
Q 589.866168 376.286208 587.814221 376.027529 
Q 585.762274 375.766961 581.032787 375.766961 
L 574.701781 375.766961 
L 574.701781 378.027103 
L 581.032787 378.027103 
z
M 574.701781 379.596174 
L 574.701781 382.930686 
L 559.65 382.930686 
L 559.65 374.120475 
L 582.634307 374.120475 
Q 594.170252 374.120475 599.537844 374.705808 
Q 604.917949 375.289253 604.917949 376.55244 
Q 604.917949 377.424776 602.11529 377.985563 
Q 599.325142 378.54635 593.694801 378.812582 
Q 596.785233 378.91832 599.225047 379.294066 
Q 601.677374 379.667924 604.179748 380.428858 
L 612.35 382.930686 
L 596.322293 382.930686 
L 589.203039 380.742294 
Q 587.050997 380.081434 584.836396 379.839748 
Q 582.634307 379.596174 578.955817 379.596174 
L 574.701781 379.596174 
z
" clip-path="url(#pae39d26042)" style="fill: #bd2e1f"/>
   </g>
   <g id="patch_38">
    <path d="M 559.65 359.213821 
L 573.537864 359.213821 
L 573.537864 364.432508 
L 593.555783 359.213821 
L 609.683253 359.213821 
L 583.743078 365.986163 
L 612.35 373.51235 
L 594.964195 373.51235 
L 573.537864 367.879968 
L 573.537864 373.51235 
L 559.65 373.51235 
L 559.65 359.213821 
z
" clip-path="url(#pae39d26042)" style="fill: #bd2e1f"/>
   </g>
   <g id="patch_39">
    <path d="M 559.65 335.250464 
L 611.253077 335.250464 
L 611.253077 339.732649 
L 578.774615 339.732649 
L 578.774615 344.007965 
L 609.329487 344.007965 
L 609.329487 348.49015 
L 578.774615 348.49015 
L 578.774615 353.755487 
L 612.35 353.755487 
L 612.35 358.232747 
L 559.65 358.232747 
L 559.65 335.250464 
z
" clip-path="url(#pae39d26042)" style="fill: #6b296b"/>
   </g>
   <g id="patch_40">
    <path d="M 587.405333 310.543118 
L 586.373292 310.543118 
Q 573.714313 310.543118 566.676667 295.183327 
Q 559.65 279.799424 559.65 252.383282 
Q 559.65 225.015366 566.665687 209.510899 
Q 573.681375 193.98232 586 193.98232 
Q 598.450375 193.98232 605.400187 209.366223 
Q 612.35 224.726014 612.35 252.383282 
Q 612.35 271.359978 608.661 285.080105 
Q 604.972 298.800233 598.044146 305.720578 
L 608.364562 331.038914 
L 595.771458 331.038914 
L 587.405333 310.543118 
z
M 586 215.008595 
Q 579.961458 215.008595 576.634771 224.798352 
Q 573.308083 234.588109 573.308083 252.383282 
Q 573.308083 270.467808 576.557917 280.088776 
Q 579.818729 289.685631 586 289.685631 
Q 592.071479 289.685631 595.398167 279.895875 
Q 598.724854 270.082005 598.724854 252.383282 
Q 598.724854 234.588109 595.398167 224.798352 
Q 592.071479 215.008595 586 215.008595 
z
" clip-path="url(#pae39d26042)" style="fill: #40ba47"/>
   </g>
   <g id="matplotlib.axis_1">
    <g id="xtick_1">
     <g id="line2d_2">
      <defs>
       <path id="m63a374f934" d="M 0 0 
L 0 4.8 
" style="stroke: #262626"/>
      </defs>
      <g>
       <use xlink:href="#m63a374f934" x="152" y="384.48" style="fill: #262626; stroke: #262626"/>
      </g>
     </g>
     <g id="text_1">
      <!-- P4 -->
      <g style="fill: #262626" transform="translate(146.61825 399.078875) scale(0.088 -0.088)">
       <defs>
        <path id="ArialMT-50" d="M 494 0 
L 494 4581 
L 2222 4581 
Q 2678 4581 2919 4538 
Q 3256 4481 3484 4323 
Q 3713 4166 3852 3881 
Q 3991 3597 3991 3256 
Q 3991 2672 3619 2267 
Q 3247 1863 2275 1863 
L 1100 1863 
L 1100 0 
L 494 0 
z
M 1100 2403 
L 2284 2403 
Q 2872 2403 3119 2622 
Q 3366 2841 3366 3238 
Q 3366 3525 3220 3729 
Q 3075 3934 2838 4000 
Q 2684 4041 2272 4041 
L 1100 4041 
L 1100 2403 
z
" transform="scale(0.015625)"/>
        <path id="ArialMT-34" d="M 2069 0 
L 2069 1097 
L 81 1097 
L 81 1613 
L 2172 4581 
L 2631 4581 
L 2631 1613 
L 3250 1613 
L 3250 1097 
L 2631 1097 
L 2631 0 
L 2069 0 
z
M 2069 1613 
L 2069 3678 
L 634 1613 
L 2069 1613 
z
" transform="scale(0.015625)"/>
       </defs>
       <use xlink:href="#ArialMT-50"/>
       <use xlink:href="#ArialMT-34" x="66.699219"/>
      </g>
     </g>
    </g>
    <g id="xtick_2">
     <g id="line2d_3">
      <g>
       <use xlink:href="#m63a374f934" x="214" y="384.48" style="fill: #262626; stroke: #262626"/>
      </g>
     </g>
     <g id="text_2">
      <!-- P3 -->
      <g style="fill: #262626" transform="translate(208.61825 399.078875) scale(0.088 -0.088)">
       <defs>
        <path id="ArialMT-33" d="M 269 1209 
L 831 1284 
Q 928 806 1161 595 
Q 1394 384 1728 384 
Q 2125 384 2398 659 
Q 2672 934 2672 1341 
Q 2672 1728 2419 1979 
Q 2166 2231 1775 2231 
Q 1616 2231 1378 2169 
L 1441 2663 
Q 1497 2656 1531 2656 
Q 1891 2656 2178 2843 
Q 2466 3031 2466 3422 
Q 2466 3731 2256 3934 
Q 2047 4138 1716 4138 
Q 1388 4138 1169 3931 
Q 950 3725 888 3313 
L 325 3413 
Q 428 3978 793 4289 
Q 1159 4600 1703 4600 
Q 2078 4600 2393 4439 
Q 2709 4278 2876 4000 
Q 3044 3722 3044 3409 
Q 3044 3113 2884 2869 
Q 2725 2625 2413 2481 
Q 2819 2388 3044 2092 
Q 3269 1797 3269 1353 
Q 3269 753 2831 336 
Q 2394 -81 1725 -81 
Q 1122 -81 723 278 
Q 325 638 269 1209 
z
" transform="scale(0.015625)"/>
       </defs>
       <use xlink:href="#ArialMT-50"/>
       <use xlink:href="#ArialMT-33" x="66.699219"/>
      </g>
     </g>
    </g>
    <g id="xtick_3">
     <g id="line2d_4">
      <g>
       <use xlink:href="#m63a374f934" x="276" y="384.48" style="fill: #262626; stroke: #262626"/>
      </g>
     </g>
     <g id="text_3">
      <!-- P2 -->
      <g style="fill: #262626" transform="translate(270.61825 399.078875) scale(0.088 -0.088)">
       <defs>
        <path id="ArialMT-32" d="M 3222 541 
L 3222 0 
L 194 0 
Q 188 203 259 391 
Q 375 700 629 1000 
Q 884 1300 1366 1694 
Q 2113 2306 2375 2664 
Q 2638 3022 2638 3341 
Q 2638 3675 2398 3904 
Q 2159 4134 1775 4134 
Q 1369 4134 1125 3890 
Q 881 3647 878 3216 
L 300 3275 
Q 359 3922 746 4261 
Q 1134 4600 1788 4600 
Q 2447 4600 2831 4234 
Q 3216 3869 3216 3328 
Q 3216 3053 3103 2787 
Q 2991 2522 2730 2228 
Q 2469 1934 1863 1422 
Q 1356 997 1212 845 
Q 1069 694 975 541 
L 3222 541 
z
" transform="scale(0.015625)"/>
       </defs>
       <use xlink:href="#ArialMT-50"/>
       <use xlink:href="#ArialMT-32" x="66.699219"/>
      </g>
     </g>
    </g>
    <g id="xtick_4">
     <g id="line2d_5">
      <g>
       <use xlink:href="#m63a374f934" x="338" y="384.48" style="fill: #262626; stroke: #262626"/>
      </g>
     </g>
     <g id="text_4">
      <!-- P1 -->
      <g style="fill: #262626" transform="translate(332.61825 399.078875) scale(0.088 -0.088)">
       <defs>
        <path id="ArialMT-31" d="M 2384 0 
L 1822 0 
L 1822 3584 
Q 1619 3391 1289 3197 
Q 959 3003 697 2906 
L 697 3450 
Q 1169 3672 1522 3987 
Q 1875 4303 2022 4600 
L 2384 4600 
L 2384 0 
z
" transform="scale(0.015625)"/>
       </defs>
       <use xlink:href="#ArialMT-50"/>
       <use xlink:href="#ArialMT-31" x="66.699219"/>
      </g>
     </g>
    </g>
    <g id="xtick_5">
     <g id="line2d_6">
      <g>
       <use xlink:href="#m63a374f934" x="400" y="384.48" style="fill: #262626; stroke: #262626"/>
      </g>
     </g>
     <g id="text_5">
      <!-- P1' -->
      <g style="fill: #262626" transform="translate(393.778125 399.078875) scale(0.088 -0.088)">
       <defs>
        <path id="ArialMT-27" d="M 425 2959 
L 281 3816 
L 281 4581 
L 922 4581 
L 922 3816 
L 772 2959 
L 425 2959 
z
" transform="scale(0.015625)"/>
       </defs>
       <use xlink:href="#ArialMT-50"/>
       <use xlink:href="#ArialMT-31" x="66.699219"/>
       <use xlink:href="#ArialMT-27" x="122.314453"/>
      </g>
     </g>
    </g>
    <g id="xtick_6">
     <g id="line2d_7">
      <g>
       <use xlink:href="#m63a374f934" x="462" y="384.48" style="fill: #262626; stroke: #262626"/>
      </g>
     </g>
     <g id="text_6">
      <!-- P2' -->
      <g style="fill: #262626" transform="translate(455.778125 399.078875) scale(0.088 -0.088)">
       <use xlink:href="#ArialMT-50"/>
       <use xlink:href="#ArialMT-32" x="66.699219"/>
       <use xlink:href="#ArialMT-27" x="122.314453"/>
      </g>
     </g>
    </g>
    <g id="xtick_7">
     <g id="line2d_8">
      <g>
       <use xlink:href="#m63a374f934" x="524" y="384.48" style="fill: #262626; stroke: #262626"/>
      </g>
     </g>
     <g id="text_7">
      <!-- P3' -->
      <g style="fill: #262626" transform="translate(517.778125 399.078875) scale(0.088 -0.088)">
       <use xlink:href="#ArialMT-50"/>
       <use xlink:href="#ArialMT-33" x="66.699219"/>
       <use xlink:href="#ArialMT-27" x="122.314453"/>
      </g>
     </g>
    </g>
    <g id="xtick_8">
     <g id="line2d_9">
      <g>
       <use xlink:href="#m63a374f934" x="586" y="384.48" style="fill: #262626; stroke: #262626"/>
      </g>
     </g>
     <g id="text_8">
      <!-- P4' -->
      <g style="fill: #262626" transform="translate(579.778125 399.078875) scale(0.088 -0.088)">
       <use xlink:href="#ArialMT-50"/>
       <use xlink:href="#ArialMT-34" x="66.699219"/>
       <use xlink:href="#ArialMT-27" x="122.314453"/>
      </g>
     </g>
    </g>
   </g>
   <g id="matplotlib.axis_2">
    <g id="ytick_1">
     <g id="line2d_10">
      <defs>
       <path id="mb9d2f33a0b" d="M 0 0 
L -4.8 0 
" style="stroke: #262626"/>
      </defs>
      <g>
       <use xlink:href="#mb9d2f33a0b" x="90" y="384.48" style="fill: #262626; stroke: #262626"/>
      </g>
     </g>
     <g id="text_9">
      <!-- 0.0 -->
      <g style="fill: #262626" transform="translate(69.468 387.629437) scale(0.088 -0.088)">
       <defs>
        <path id="ArialMT-30" d="M 266 2259 
Q 266 3072 433 3567 
Q 600 4063 929 4331 
Q 1259 4600 1759 4600 
Q 2128 4600 2406 4451 
Q 2684 4303 2865 4023 
Q 3047 3744 3150 3342 
Q 3253 2941 3253 2259 
Q 3253 1453 3087 958 
Q 2922 463 2592 192 
Q 2263 -78 1759 -78 
Q 1097 -78 719 397 
Q 266 969 266 2259 
z
M 844 2259 
Q 844 1131 1108 757 
Q 1372 384 1759 384 
Q 2147 384 2411 759 
Q 2675 1134 2675 2259 
Q 2675 3391 2411 3762 
Q 2147 4134 1753 4134 
Q 1366 4134 1134 3806 
Q 844 3388 844 2259 
z
" transform="scale(0.015625)"/>
        <path id="ArialMT-2e" d="M 581 0 
L 581 641 
L 1222 641 
L 1222 0 
L 581 0 
z
" transform="scale(0.015625)"/>
       </defs>
       <use xlink:href="#ArialMT-30"/>
       <use xlink:href="#ArialMT-2e" x="55.615234"/>
       <use xlink:href="#ArialMT-30" x="83.398438"/>
      </g>
     </g>
    </g>
    <g id="ytick_2">
     <g id="line2d_11">
      <g>
       <use xlink:href="#mb9d2f33a0b" x="90" y="333.932182" style="fill: #262626; stroke: #262626"/>
      </g>
     </g>
     <g id="text_10">
      <!-- 0.2 -->
      <g style="fill: #262626" transform="translate(69.468 337.08162) scale(0.088 -0.088)">
       <use xlink:href="#ArialMT-30"/>
       <use xlink:href="#ArialMT-2e" x="55.615234"/>
       <use xlink:href="#ArialMT-32" x="83.398438"/>
      </g>
     </g>
    </g>
    <g id="ytick_3">
     <g id="line2d_12">
      <g>
       <use xlink:href="#mb9d2f33a0b" x="90" y="283.384365" style="fill: #262626; stroke: #262626"/>
      </g>
     </g>
     <g id="text_11">
      <!-- 0.4 -->
      <g style="fill: #262626" transform="translate(69.468 286.533802) scale(0.088 -0.088)">
       <use xlink:href="#ArialMT-30"/>
       <use xlink:href="#ArialMT-2e" x="55.615234"/>
       <use xlink:href="#ArialMT-34" x="83.398438"/>
      </g>
     </g>
    </g>
    <g id="ytick_4">
     <g id="line2d_13">
      <g>
       <use xlink:href="#mb9d2f33a0b" x="90" y="232.836547" style="fill: #262626; stroke: #262626"/>
      </g>
     </g>
     <g id="text_12">
      <!-- 0.6 -->
      <g style="fill: #262626" transform="translate(69.468 235.985985) scale(0.088 -0.088)">
       <defs>
        <path id="ArialMT-36" d="M 3184 3459 
L 2625 3416 
Q 2550 3747 2413 3897 
Q 2184 4138 1850 4138 
Q 1581 4138 1378 3988 
Q 1113 3794 959 3422 
Q 806 3050 800 2363 
Q 1003 2672 1297 2822 
Q 1591 2972 1913 2972 
Q 2475 2972 2870 2558 
Q 3266 2144 3266 1488 
Q 3266 1056 3080 686 
Q 2894 316 2569 119 
Q 2244 -78 1831 -78 
Q 1128 -78 684 439 
Q 241 956 241 2144 
Q 241 3472 731 4075 
Q 1159 4600 1884 4600 
Q 2425 4600 2770 4297 
Q 3116 3994 3184 3459 
z
M 888 1484 
Q 888 1194 1011 928 
Q 1134 663 1356 523 
Q 1578 384 1822 384 
Q 2178 384 2434 671 
Q 2691 959 2691 1453 
Q 2691 1928 2437 2201 
Q 2184 2475 1800 2475 
Q 1419 2475 1153 2201 
Q 888 1928 888 1484 
z
" transform="scale(0.015625)"/>
       </defs>
       <use xlink:href="#ArialMT-30"/>
       <use xlink:href="#ArialMT-2e" x="55.615234"/>
       <use xlink:href="#ArialMT-36" x="83.398438"/>
      </g>
     </g>
    </g>
    <g id="ytick_5">
     <g id="line2d_14">
      <g>
       <use xlink:href="#mb9d2f33a0b" x="90" y="182.28873" style="fill: #262626; stroke: #262626"/>
      </g>
     </g>
     <g id="text_13">
      <!-- 0.8 -->
      <g style="fill: #262626" transform="translate(69.468 185.438167) scale(0.088 -0.088)">
       <defs>
        <path id="ArialMT-38" d="M 1131 2484 
Q 781 2613 612 2850 
Q 444 3088 444 3419 
Q 444 3919 803 4259 
Q 1163 4600 1759 4600 
Q 2359 4600 2725 4251 
Q 3091 3903 3091 3403 
Q 3091 3084 2923 2848 
Q 2756 2613 2416 2484 
Q 2838 2347 3058 2040 
Q 3278 1734 3278 1309 
Q 3278 722 2862 322 
Q 2447 -78 1769 -78 
Q 1091 -78 675 323 
Q 259 725 259 1325 
Q 259 1772 486 2073 
Q 713 2375 1131 2484 
z
M 1019 3438 
Q 1019 3113 1228 2906 
Q 1438 2700 1772 2700 
Q 2097 2700 2305 2904 
Q 2513 3109 2513 3406 
Q 2513 3716 2298 3927 
Q 2084 4138 1766 4138 
Q 1444 4138 1231 3931 
Q 1019 3725 1019 3438 
z
M 838 1322 
Q 838 1081 952 856 
Q 1066 631 1291 507 
Q 1516 384 1775 384 
Q 2178 384 2440 643 
Q 2703 903 2703 1303 
Q 2703 1709 2433 1975 
Q 2163 2241 1756 2241 
Q 1359 2241 1098 1978 
Q 838 1716 838 1322 
z
" transform="scale(0.015625)"/>
       </defs>
       <use xlink:href="#ArialMT-30"/>
       <use xlink:href="#ArialMT-2e" x="55.615234"/>
       <use xlink:href="#ArialMT-38" x="83.398438"/>
      </g>
     </g>
    </g>
    <g id="ytick_6">
     <g id="line2d_15">
      <g>
       <use xlink:href="#mb9d2f33a0b" x="90" y="131.740912" style="fill: #262626; stroke: #262626"/>
      </g>
     </g>
     <g id="text_14">
      <!-- 1.0 -->
      <g style="fill: #262626" transform="translate(69.468 134.89035) scale(0.088 -0.088)">
       <use xlink:href="#ArialMT-31"/>
       <use xlink:href="#ArialMT-2e" x="55.615234"/>
       <use xlink:href="#ArialMT-30" x="83.398438"/>
      </g>
     </g>
    </g>
    <g id="ytick_7">
     <g id="line2d_16">
      <g>
       <use xlink:href="#mb9d2f33a0b" x="90" y="81.193095" style="fill: #262626; stroke: #262626"/>
      </g>
     </g>
     <g id="text_15">
      <!-- 1.2 -->
      <g style="fill: #262626" transform="translate(69.468 84.342532) scale(0.088 -0.088)">
       <use xlink:href="#ArialMT-31"/>
       <use xlink:href="#ArialMT-2e" x="55.615234"/>
       <use xlink:href="#ArialMT-32" x="83.398438"/>
      </g>
     </g>
    </g>
    <g id="text_16">
     <!-- information (bits) -->
     <g style="fill: #262626" transform="translate(63.4475 253.902) rotate(-90) scale(0.096 -0.096)">
      <defs>
       <path id="ArialMT-69" d="M 425 3934 
L 425 4581 
L 988 4581 
L 988 3934 
L 425 3934 
z
M 425 0 
L 425 3319 
L 988 3319 
L 988 0 
L 425 0 
z
" transform="scale(0.015625)"/>
       <path id="ArialMT-6e" d="M 422 0 
L 422 3319 
L 928 3319 
L 928 2847 
Q 1294 3394 1984 3394 
Q 2284 3394 2536 3286 
Q 2788 3178 2913 3003 
Q 3038 2828 3088 2588 
Q 3119 2431 3119 2041 
L 3119 0 
L 2556 0 
L 2556 2019 
Q 2556 2363 2490 2533 
Q 2425 2703 2258 2804 
Q 2091 2906 1866 2906 
Q 1506 2906 1245 2678 
Q 984 2450 984 1813 
L 984 0 
L 422 0 
z
" transform="scale(0.015625)"/>
       <path id="ArialMT-66" d="M 556 0 
L 556 2881 
L 59 2881 
L 59 3319 
L 556 3319 
L 556 3672 
Q 556 4006 616 4169 
Q 697 4388 901 4523 
Q 1106 4659 1475 4659 
Q 1713 4659 2000 4603 
L 1916 4113 
Q 1741 4144 1584 4144 
Q 1328 4144 1222 4034 
Q 1116 3925 1116 3625 
L 1116 3319 
L 1763 3319 
L 1763 2881 
L 1116 2881 
L 1116 0 
L 556 0 
z
" transform="scale(0.015625)"/>
       <path id="ArialMT-6f" d="M 213 1659 
Q 213 2581 725 3025 
Q 1153 3394 1769 3394 
Q 2453 3394 2887 2945 
Q 3322 2497 3322 1706 
Q 3322 1066 3130 698 
Q 2938 331 2570 128 
Q 2203 -75 1769 -75 
Q 1072 -75 642 372 
Q 213 819 213 1659 
z
M 791 1659 
Q 791 1022 1069 705 
Q 1347 388 1769 388 
Q 2188 388 2466 706 
Q 2744 1025 2744 1678 
Q 2744 2294 2464 2611 
Q 2184 2928 1769 2928 
Q 1347 2928 1069 2612 
Q 791 2297 791 1659 
z
" transform="scale(0.015625)"/>
       <path id="ArialMT-72" d="M 416 0 
L 416 3319 
L 922 3319 
L 922 2816 
Q 1116 3169 1280 3281 
Q 1444 3394 1641 3394 
Q 1925 3394 2219 3213 
L 2025 2691 
Q 1819 2813 1613 2813 
Q 1428 2813 1281 2702 
Q 1134 2591 1072 2394 
Q 978 2094 978 1738 
L 978 0 
L 416 0 
z
" transform="scale(0.015625)"/>
       <path id="ArialMT-6d" d="M 422 0 
L 422 3319 
L 925 3319 
L 925 2853 
Q 1081 3097 1340 3245 
Q 1600 3394 1931 3394 
Q 2300 3394 2536 3241 
Q 2772 3088 2869 2813 
Q 3263 3394 3894 3394 
Q 4388 3394 4653 3120 
Q 4919 2847 4919 2278 
L 4919 0 
L 4359 0 
L 4359 2091 
Q 4359 2428 4304 2576 
Q 4250 2725 4106 2815 
Q 3963 2906 3769 2906 
Q 3419 2906 3187 2673 
Q 2956 2441 2956 1928 
L 2956 0 
L 2394 0 
L 2394 2156 
Q 2394 2531 2256 2718 
Q 2119 2906 1806 2906 
Q 1569 2906 1367 2781 
Q 1166 2656 1075 2415 
Q 984 2175 984 1722 
L 984 0 
L 422 0 
z
" transform="scale(0.015625)"/>
       <path id="ArialMT-61" d="M 2588 409 
Q 2275 144 1986 34 
Q 1697 -75 1366 -75 
Q 819 -75 525 192 
Q 231 459 231 875 
Q 231 1119 342 1320 
Q 453 1522 633 1644 
Q 813 1766 1038 1828 
Q 1203 1872 1538 1913 
Q 2219 1994 2541 2106 
Q 2544 2222 2544 2253 
Q 2544 2597 2384 2738 
Q 2169 2928 1744 2928 
Q 1347 2928 1158 2789 
Q 969 2650 878 2297 
L 328 2372 
Q 403 2725 575 2942 
Q 747 3159 1072 3276 
Q 1397 3394 1825 3394 
Q 2250 3394 2515 3294 
Q 2781 3194 2906 3042 
Q 3031 2891 3081 2659 
Q 3109 2516 3109 2141 
L 3109 1391 
Q 3109 606 3145 398 
Q 3181 191 3288 0 
L 2700 0 
Q 2613 175 2588 409 
z
M 2541 1666 
Q 2234 1541 1622 1453 
Q 1275 1403 1131 1340 
Q 988 1278 909 1158 
Q 831 1038 831 891 
Q 831 666 1001 516 
Q 1172 366 1500 366 
Q 1825 366 2078 508 
Q 2331 650 2450 897 
Q 2541 1088 2541 1459 
L 2541 1666 
z
" transform="scale(0.015625)"/>
       <path id="ArialMT-74" d="M 1650 503 
L 1731 6 
Q 1494 -44 1306 -44 
Q 1000 -44 831 53 
Q 663 150 594 308 
Q 525 466 525 972 
L 525 2881 
L 113 2881 
L 113 3319 
L 525 3319 
L 525 4141 
L 1084 4478 
L 1084 3319 
L 1650 3319 
L 1650 2881 
L 1084 2881 
L 1084 941 
Q 1084 700 1114 631 
Q 1144 563 1211 522 
Q 1278 481 1403 481 
Q 1497 481 1650 503 
z
" transform="scale(0.015625)"/>
       <path id="ArialMT-20" transform="scale(0.015625)"/>
       <path id="ArialMT-28" d="M 1497 -1347 
Q 1031 -759 709 28 
Q 388 816 388 1659 
Q 388 2403 628 3084 
Q 909 3875 1497 4659 
L 1900 4659 
Q 1522 4009 1400 3731 
Q 1209 3300 1100 2831 
Q 966 2247 966 1656 
Q 966 153 1900 -1347 
L 1497 -1347 
z
" transform="scale(0.015625)"/>
       <path id="ArialMT-62" d="M 941 0 
L 419 0 
L 419 4581 
L 981 4581 
L 981 2947 
Q 1338 3394 1891 3394 
Q 2197 3394 2470 3270 
Q 2744 3147 2920 2923 
Q 3097 2700 3197 2384 
Q 3297 2069 3297 1709 
Q 3297 856 2875 390 
Q 2453 -75 1863 -75 
Q 1275 -75 941 416 
L 941 0 
z
M 934 1684 
Q 934 1088 1097 822 
Q 1363 388 1816 388 
Q 2184 388 2453 708 
Q 2722 1028 2722 1663 
Q 2722 2313 2464 2622 
Q 2206 2931 1841 2931 
Q 1472 2931 1203 2611 
Q 934 2291 934 1684 
z
" transform="scale(0.015625)"/>
       <path id="ArialMT-73" d="M 197 991 
L 753 1078 
Q 800 744 1014 566 
Q 1228 388 1613 388 
Q 2000 388 2187 545 
Q 2375 703 2375 916 
Q 2375 1106 2209 1216 
Q 2094 1291 1634 1406 
Q 1016 1563 777 1677 
Q 538 1791 414 1992 
Q 291 2194 291 2438 
Q 291 2659 392 2848 
Q 494 3038 669 3163 
Q 800 3259 1026 3326 
Q 1253 3394 1513 3394 
Q 1903 3394 2198 3281 
Q 2494 3169 2634 2976 
Q 2775 2784 2828 2463 
L 2278 2388 
Q 2241 2644 2061 2787 
Q 1881 2931 1553 2931 
Q 1166 2931 1000 2803 
Q 834 2675 834 2503 
Q 834 2394 903 2306 
Q 972 2216 1119 2156 
Q 1203 2125 1616 2013 
Q 2213 1853 2448 1751 
Q 2684 1650 2818 1456 
Q 2953 1263 2953 975 
Q 2953 694 2789 445 
Q 2625 197 2315 61 
Q 2006 -75 1616 -75 
Q 969 -75 630 194 
Q 291 463 197 991 
z
" transform="scale(0.015625)"/>
       <path id="ArialMT-29" d="M 791 -1347 
L 388 -1347 
Q 1322 153 1322 1656 
Q 1322 2244 1188 2822 
Q 1081 3291 891 3722 
Q 769 4003 388 4659 
L 791 4659 
Q 1378 3875 1659 3084 
Q 1900 2403 1900 1659 
Q 1900 816 1576 28 
Q 1253 -759 791 -1347 
z
" transform="scale(0.015625)"/>
      </defs>
      <use xlink:href="#ArialMT-69"/>
      <use xlink:href="#ArialMT-6e" x="22.216797"/>
      <use xlink:href="#ArialMT-66" x="77.832031"/>
      <use xlink:href="#ArialMT-6f" x="105.615234"/>
      <use xlink:href="#ArialMT-72" x="161.230469"/>
      <use xlink:href="#ArialMT-6d" x="194.53125"/>
      <use xlink:href="#ArialMT-61" x="277.832031"/>
      <use xlink:href="#ArialMT-74" x="333.447266"/>
      <use xlink:href="#ArialMT-69" x="361.230469"/>
      <use xlink:href="#ArialMT-6f" x="383.447266"/>
      <use xlink:href="#ArialMT-6e" x="439.0625"/>
      <use xlink:href="#ArialMT-20" x="494.677734"/>
      <use xlink:href="#ArialMT-28" x="522.460938"/>
      <use xlink:href="#ArialMT-62" x="555.761719"/>
      <use xlink:href="#ArialMT-69" x="611.376953"/>
      <use xlink:href="#ArialMT-74" x="633.59375"/>
      <use xlink:href="#ArialMT-73" x="661.376953"/>
      <use xlink:href="#ArialMT-29" x="711.376953"/>
     </g>
    </g>
   </g>
   <g id="line2d_17">
    <path d="M 369 384.48 
L 369 51.84 
" clip-path="url(#pae39d26042)" style="fill: none; stroke: #daa520; stroke-width: 2; stroke-linecap: round"/>
   </g>
   <g id="patch_41">
    <path d="M 90 384.48 
L 648 384.48 
" style="fill: none; stroke: #262626; stroke-linejoin: miter; stroke-linecap: square"/>
   </g>
   <g id="patch_42">
    <path d="M 90 51.84 
L 648 51.84 
" style="fill: none; stroke: #262626; stroke-linejoin: miter; stroke-linecap: square"/>
   </g>
   <g id="text_17">
    <!-- WT_untreated vs. KO_untreated information content, Kullback n=1 -->
    <g style="fill: #262626" transform="translate(227.463 45.84) scale(0.096 -0.096)">
     <defs>
      <path id="ArialMT-57" d="M 1294 0 
L 78 4581 
L 700 4581 
L 1397 1578 
Q 1509 1106 1591 641 
Q 1766 1375 1797 1488 
L 2669 4581 
L 3400 4581 
L 4056 2263 
Q 4303 1400 4413 641 
Q 4500 1075 4641 1638 
L 5359 4581 
L 5969 4581 
L 4713 0 
L 4128 0 
L 3163 3491 
Q 3041 3928 3019 4028 
Q 2947 3713 2884 3491 
L 1913 0 
L 1294 0 
z
" transform="scale(0.015625)"/>
      <path id="ArialMT-54" d="M 1659 0 
L 1659 4041 
L 150 4041 
L 150 4581 
L 3781 4581 
L 3781 4041 
L 2266 4041 
L 2266 0 
L 1659 0 
z
" transform="scale(0.015625)"/>
      <path id="ArialMT-5f" d="M -97 -1272 
L -97 -866 
L 3631 -866 
L 3631 -1272 
L -97 -1272 
z
" transform="scale(0.015625)"/>
      <path id="ArialMT-75" d="M 2597 0 
L 2597 488 
Q 2209 -75 1544 -75 
Q 1250 -75 995 37 
Q 741 150 617 320 
Q 494 491 444 738 
Q 409 903 409 1263 
L 409 3319 
L 972 3319 
L 972 1478 
Q 972 1038 1006 884 
Q 1059 663 1231 536 
Q 1403 409 1656 409 
Q 1909 409 2131 539 
Q 2353 669 2445 892 
Q 2538 1116 2538 1541 
L 2538 3319 
L 3100 3319 
L 3100 0 
L 2597 0 
z
" transform="scale(0.015625)"/>
      <path id="ArialMT-65" d="M 2694 1069 
L 3275 997 
Q 3138 488 2766 206 
Q 2394 -75 1816 -75 
Q 1088 -75 661 373 
Q 234 822 234 1631 
Q 234 2469 665 2931 
Q 1097 3394 1784 3394 
Q 2450 3394 2872 2941 
Q 3294 2488 3294 1666 
Q 3294 1616 3291 1516 
L 816 1516 
Q 847 969 1125 678 
Q 1403 388 1819 388 
Q 2128 388 2347 550 
Q 2566 713 2694 1069 
z
M 847 1978 
L 2700 1978 
Q 2663 2397 2488 2606 
Q 2219 2931 1791 2931 
Q 1403 2931 1139 2672 
Q 875 2413 847 1978 
z
" transform="scale(0.015625)"/>
      <path id="ArialMT-64" d="M 2575 0 
L 2575 419 
Q 2259 -75 1647 -75 
Q 1250 -75 917 144 
Q 584 363 401 755 
Q 219 1147 219 1656 
Q 219 2153 384 2558 
Q 550 2963 881 3178 
Q 1213 3394 1622 3394 
Q 1922 3394 2156 3267 
Q 2391 3141 2538 2938 
L 2538 4581 
L 3097 4581 
L 3097 0 
L 2575 0 
z
M 797 1656 
Q 797 1019 1065 703 
Q 1334 388 1700 388 
Q 2069 388 2326 689 
Q 2584 991 2584 1609 
Q 2584 2291 2321 2609 
Q 2059 2928 1675 2928 
Q 1300 2928 1048 2622 
Q 797 2316 797 1656 
z
" transform="scale(0.015625)"/>
      <path id="ArialMT-76" d="M 1344 0 
L 81 3319 
L 675 3319 
L 1388 1331 
Q 1503 1009 1600 663 
Q 1675 925 1809 1294 
L 2547 3319 
L 3125 3319 
L 1869 0 
L 1344 0 
z
" transform="scale(0.015625)"/>
      <path id="ArialMT-4b" d="M 469 0 
L 469 4581 
L 1075 4581 
L 1075 2309 
L 3350 4581 
L 4172 4581 
L 2250 2725 
L 4256 0 
L 3456 0 
L 1825 2319 
L 1075 1588 
L 1075 0 
L 469 0 
z
" transform="scale(0.015625)"/>
      <path id="ArialMT-4f" d="M 309 2231 
Q 309 3372 921 4017 
Q 1534 4663 2503 4663 
Q 3138 4663 3647 4359 
Q 4156 4056 4423 3514 
Q 4691 2972 4691 2284 
Q 4691 1588 4409 1038 
Q 4128 488 3612 205 
Q 3097 -78 2500 -78 
Q 1853 -78 1343 234 
Q 834 547 571 1087 
Q 309 1628 309 2231 
z
M 934 2222 
Q 934 1394 1379 917 
Q 1825 441 2497 441 
Q 3181 441 3623 922 
Q 4066 1403 4066 2288 
Q 4066 2847 3877 3264 
Q 3688 3681 3323 3911 
Q 2959 4141 2506 4141 
Q 1863 4141 1398 3698 
Q 934 3256 934 2222 
z
" transform="scale(0.015625)"/>
      <path id="ArialMT-63" d="M 2588 1216 
L 3141 1144 
Q 3050 572 2676 248 
Q 2303 -75 1759 -75 
Q 1078 -75 664 370 
Q 250 816 250 1647 
Q 250 2184 428 2587 
Q 606 2991 970 3192 
Q 1334 3394 1763 3394 
Q 2303 3394 2647 3120 
Q 2991 2847 3088 2344 
L 2541 2259 
Q 2463 2594 2264 2762 
Q 2066 2931 1784 2931 
Q 1359 2931 1093 2626 
Q 828 2322 828 1663 
Q 828 994 1084 691 
Q 1341 388 1753 388 
Q 2084 388 2306 591 
Q 2528 794 2588 1216 
z
" transform="scale(0.015625)"/>
      <path id="ArialMT-2c" d="M 569 0 
L 569 641 
L 1209 641 
L 1209 0 
Q 1209 -353 1084 -570 
Q 959 -788 688 -906 
L 531 -666 
Q 709 -588 793 -436 
Q 878 -284 888 0 
L 569 0 
z
" transform="scale(0.015625)"/>
      <path id="ArialMT-6c" d="M 409 0 
L 409 4581 
L 972 4581 
L 972 0 
L 409 0 
z
" transform="scale(0.015625)"/>
      <path id="ArialMT-6b" d="M 425 0 
L 425 4581 
L 988 4581 
L 988 1969 
L 2319 3319 
L 3047 3319 
L 1778 2088 
L 3175 0 
L 2481 0 
L 1384 1697 
L 988 1316 
L 988 0 
L 425 0 
z
" transform="scale(0.015625)"/>
      <path id="ArialMT-3d" d="M 3381 2694 
L 356 2694 
L 356 3219 
L 3381 3219 
L 3381 2694 
z
M 3381 1303 
L 356 1303 
L 356 1828 
L 3381 1828 
L 3381 1303 
z
" transform="scale(0.015625)"/>
     </defs>
     <use xlink:href="#ArialMT-57"/>
     <use xlink:href="#ArialMT-54" x="94.384766"/>
     <use xlink:href="#ArialMT-5f" x="155.46875"/>
     <use xlink:href="#ArialMT-75" x="211.083984"/>
     <use xlink:href="#ArialMT-6e" x="266.699219"/>
     <use xlink:href="#ArialMT-74" x="322.314453"/>
     <use xlink:href="#ArialMT-72" x="350.097656"/>
     <use xlink:href="#ArialMT-65" x="383.398438"/>
     <use xlink:href="#ArialMT-61" x="439.013672"/>
     <use xlink:href="#ArialMT-74" x="494.628906"/>
     <use xlink:href="#ArialMT-65" x="522.412109"/>
     <use xlink:href="#ArialMT-64" x="578.027344"/>
     <use xlink:href="#ArialMT-20" x="633.642578"/>
     <use xlink:href="#ArialMT-76" x="661.425781"/>
     <use xlink:href="#ArialMT-73" x="711.425781"/>
     <use xlink:href="#ArialMT-2e" x="761.425781"/>
     <use xlink:href="#ArialMT-20" x="789.208984"/>
     <use xlink:href="#ArialMT-4b" x="816.992188"/>
     <use xlink:href="#ArialMT-4f" x="883.691406"/>
     <use xlink:href="#ArialMT-5f" x="961.474609"/>
     <use xlink:href="#ArialMT-75" x="1017.089844"/>
     <use xlink:href="#ArialMT-6e" x="1072.705078"/>
     <use xlink:href="#ArialMT-74" x="1128.320312"/>
     <use xlink:href="#ArialMT-72" x="1156.103516"/>
     <use xlink:href="#ArialMT-65" x="1189.404297"/>
     <use xlink:href="#ArialMT-61" x="1245.019531"/>
     <use xlink:href="#ArialMT-74" x="1300.634766"/>
     <use xlink:href="#ArialMT-65" x="1328.417969"/>
     <use xlink:href="#ArialMT-64" x="1384.033203"/>
     <use xlink:href="#ArialMT-20" x="1439.648438"/>
     <use xlink:href="#ArialMT-69" x="1467.431641"/>
     <use xlink:href="#ArialMT-6e" x="1489.648438"/>
     <use xlink:href="#ArialMT-66" x="1545.263672"/>
     <use xlink:href="#ArialMT-6f" x="1573.046875"/>
     <use xlink:href="#ArialMT-72" x="1628.662109"/>
     <use xlink:href="#ArialMT-6d" x="1661.962891"/>
     <use xlink:href="#ArialMT-61" x="1745.263672"/>
     <use xlink:href="#ArialMT-74" x="1800.878906"/>
     <use xlink:href="#ArialMT-69" x="1828.662109"/>
     <use xlink:href="#ArialMT-6f" x="1850.878906"/>
     <use xlink:href="#ArialMT-6e" x="1906.494141"/>
     <use xlink:href="#ArialMT-20" x="1962.109375"/>
     <use xlink:href="#ArialMT-63" x="1989.892578"/>
     <use xlink:href="#ArialMT-6f" x="2039.892578"/>
     <use xlink:href="#ArialMT-6e" x="2095.507812"/>
     <use xlink:href="#ArialMT-74" x="2151.123047"/>
     <use xlink:href="#ArialMT-65" x="2178.90625"/>
     <use xlink:href="#ArialMT-6e" x="2234.521484"/>
     <use xlink:href="#ArialMT-74" x="2290.136719"/>
     <use xlink:href="#ArialMT-2c" x="2317.919922"/>
     <use xlink:href="#ArialMT-20" x="2345.703125"/>
     <use xlink:href="#ArialMT-4b" x="2373.486328"/>
     <use xlink:href="#ArialMT-75" x="2440.185547"/>
     <use xlink:href="#ArialMT-6c" x="2495.800781"/>
     <use xlink:href="#ArialMT-6c" x="2518.017578"/>
     <use xlink:href="#ArialMT-62" x="2540.234375"/>
     <use xlink:href="#ArialMT-61" x="2595.849609"/>
     <use xlink:href="#ArialMT-63" x="2651.464844"/>
     <use xlink:href="#ArialMT-6b" x="2701.464844"/>
     <use xlink:href="#ArialMT-20" x="2751.464844"/>
     <use xlink:href="#ArialMT-6e" x="2779.248047"/>
     <use xlink:href="#ArialMT-3d" x="2834.863281"/>
     <use xlink:href="#ArialMT-31" x="2893.261719"/>
    </g>
   </g>
  </g>
 </g>
 <defs>
  <clipPath id="pae39d26042">
   <rect x="90" y="51.84" width="558" height="332.64"/>
  </clipPath>
 </defs>
</svg>
