<?xml version="1.0" encoding="utf-8" standalone="no"?>
<!DOCTYPE svg PUBLIC "-//W3C//DTD SVG 1.1//EN"
  "http://www.w3.org/Graphics/SVG/1.1/DTD/svg11.dtd">
<svg xmlns:xlink="http://www.w3.org/1999/xlink" width="720pt" height="432pt" viewBox="0 0 720 432" xmlns="http://www.w3.org/2000/svg" version="1.1">
 <metadata>
  <rdf:RDF xmlns:dc="http://purl.org/dc/elements/1.1/" xmlns:cc="http://creativecommons.org/ns#" xmlns:rdf="http://www.w3.org/1999/02/22-rdf-syntax-ns#">
   <cc:Work>
    <dc:type rdf:resource="http://purl.org/dc/dcmitype/StillImage"/>
    <dc:date>2023-06-23T13:11:14.086367</dc:date>
    <dc:format>image/svg+xml</dc:format>
    <dc:creator>
     <cc:Agent>
      <dc:title>Matplotlib v3.7.1, https://matplotlib.org/</dc:title>
     </cc:Agent>
    </dc:creator>
   </cc:Work>
  </rdf:RDF>
 </metadata>
 <defs>
  <style type="text/css">*{stroke-linejoin: round; stroke-linecap: butt}</style>
 </defs>
 <g id="figure_1">
  <g id="patch_1">
   <path d="M 0 432 
L 720 432 
L 720 0 
L 0 0 
z
" style="fill: #ffffff"/>
  </g>
  <g id="axes_1">
   <g id="patch_2">
    <path d="M 90 384.48 
L 648 384.48 
L 648 51.84 
L 90 51.84 
z
" style="fill: #ffffff"/>
   </g>
   <g id="patch_3">
    <path d="M 121 384.48 
L 183 384.48 
L 183 51.84 
L 121 51.84 
z
" clip-path="url(#p26aba83deb)" style="fill: #ffd700; opacity: 0.35; stroke: #ffffff; stroke-width: 0.8; stroke-linejoin: miter"/>
   </g>
   <g id="patch_4">
    <path d="M 183 384.48 
L 245 384.48 
L 245 51.84 
L 183 51.84 
z
" clip-path="url(#p26aba83deb)" style="fill: #ffd700; opacity: 0.35; stroke: #ffffff; stroke-width: 0.8; stroke-linejoin: miter"/>
   </g>
   <g id="patch_5">
    <path d="M 245 384.48 
L 307 384.48 
L 307 51.84 
L 245 51.84 
z
" clip-path="url(#p26aba83deb)" style="fill: #ffd700; opacity: 0.35; stroke: #ffffff; stroke-width: 0.8; stroke-linejoin: miter"/>
   </g>
   <g id="patch_6">
    <path d="M 307 384.48 
L 369 384.48 
L 369 51.84 
L 307 51.84 
z
" clip-path="url(#p26aba83deb)" style="fill: #ffd700; opacity: 0.35; stroke: #ffffff; stroke-width: 0.8; stroke-linejoin: miter"/>
   </g>
   <g id="patch_7">
    <path d="M 369 384.48 
L 431 384.48 
L 431 51.84 
L 369 51.84 
z
" clip-path="url(#p26aba83deb)" style="fill: #ffd700; opacity: 0.35; stroke: #ffffff; stroke-width: 0.8; stroke-linejoin: miter"/>
   </g>
   <g id="patch_8">
    <path d="M 431 384.48 
L 493 384.48 
L 493 51.84 
L 431 51.84 
z
" clip-path="url(#p26aba83deb)" style="fill: #ffd700; opacity: 0.35; stroke: #ffffff; stroke-width: 0.8; stroke-linejoin: miter"/>
   </g>
   <g id="patch_9">
    <path d="M 555 384.48 
L 617 384.48 
L 617 51.84 
L 555 51.84 
z
" clip-path="url(#p26aba83deb)" style="fill: #ffd700; opacity: 0.35; stroke: #ffffff; stroke-width: 0.8; stroke-linejoin: miter"/>
   </g>
   <g id="line2d_1">
    <path d="M 90 384.48 
L 648 384.48 
" clip-path="url(#p26aba83deb)" style="fill: none; stroke: #000000; stroke-width: 0.5; stroke-linecap: round"/>
   </g>
   <g id="patch_10">
    <path d="M 162.155336 384.185444 
L 141.887763 384.185444 
L 138.68762 384.44282 
L 125.65 384.44282 
L 144.269015 383.029979 
L 159.730985 383.029979 
L 178.35 384.44282 
L 165.323155 384.44282 
L 162.155336 384.185444 
z
M 145.120231 383.923224 
L 158.890544 383.923224 
L 152.016162 383.361237 
L 145.120231 383.923224 
z
" clip-path="url(#p26aba83deb)" style="fill: #21599c"/>
   </g>
   <g id="patch_11">
    <path d="M 178.35 346.250298 
Q 173.035119 360.482139 167.318669 367.630552 
Q 161.602219 374.713979 155.507822 374.713979 
Q 141.736374 374.713979 133.693187 332.343385 
Q 125.65 289.972792 125.65 217.513878 
Q 125.65 144.210151 133.834917 102.164486 
Q 142.031645 60.11882 156.287338 60.11882 
Q 161.779381 60.11882 166.810802 65.83755 
Q 171.854034 71.491295 176.318534 82.668814 
L 176.318534 145.379892 
Q 171.712304 131.01808 167.153317 123.934653 
Q 162.59433 116.78624 158.011721 116.78624 
Q 149.531533 116.78624 144.937113 142.91044 
Q 140.342694 168.969655 140.342694 217.513878 
Q 140.342694 265.603202 144.771762 291.857373 
Q 149.200829 318.046559 157.350314 318.046559 
Q 159.570753 318.046559 161.472299 316.551891 
Q 163.373846 314.992237 164.885634 311.742959 
L 164.885634 252.86603 
L 156.204662 252.86603 
L 156.204662 200.422672 
L 178.35 200.422672 
L 178.35 346.250298 
z
" clip-path="url(#p26aba83deb)" style="fill: #787800"/>
   </g>
   <g id="patch_12">
    <path d="M 224.155336 384.185444 
L 203.887763 384.185444 
L 200.68762 384.44282 
L 187.65 384.44282 
L 206.269015 383.029979 
L 221.730985 383.029979 
L 240.35 384.44282 
L 227.323155 384.44282 
L 224.155336 384.185444 
z
M 207.120231 383.923224 
L 220.890544 383.923224 
L 214.016162 383.361237 
L 207.120231 383.923224 
z
" clip-path="url(#p26aba83deb)" style="fill: #21599c"/>
   </g>
   <g id="patch_13">
    <path d="M 240.35 346.250298 
Q 235.035119 360.482139 229.318669 367.630552 
Q 223.602219 374.713979 217.507822 374.713979 
Q 203.736374 374.713979 195.693187 332.343385 
Q 187.65 289.972792 187.65 217.513878 
Q 187.65 144.210151 195.834917 102.164486 
Q 204.031645 60.11882 218.287338 60.11882 
Q 223.779381 60.11882 228.810802 65.83755 
Q 233.854034 71.491295 238.318534 82.668814 
L 238.318534 145.379892 
Q 233.712304 131.01808 229.153317 123.934653 
Q 224.59433 116.78624 220.011721 116.78624 
Q 211.531533 116.78624 206.937113 142.91044 
Q 202.342694 168.969655 202.342694 217.513878 
Q 202.342694 265.603202 206.771762 291.857373 
Q 211.200829 318.046559 219.350314 318.046559 
Q 221.570753 318.046559 223.472299 316.551891 
Q 225.373846 314.992237 226.885634 311.742959 
L 226.885634 252.86603 
L 218.204662 252.86603 
L 218.204662 200.422672 
L 240.35 200.422672 
L 240.35 346.250298 
z
" clip-path="url(#p26aba83deb)" style="fill: #787800"/>
   </g>
   <g id="patch_14">
    <path d="M 249.65 377.952625 
L 263.537864 377.952625 
L 263.537864 380.273905 
L 283.555783 377.952625 
L 299.683253 377.952625 
L 273.743078 380.964973 
L 302.35 384.312631 
L 284.964195 384.312631 
L 263.537864 381.80734 
L 263.537864 384.312631 
L 249.65 384.312631 
L 249.65 377.952625 
z
" clip-path="url(#p26aba83deb)" style="fill: #bd2e1f"/>
   </g>
   <g id="patch_15">
    <path d="M 277.405333 375.465048 
L 276.373292 375.465048 
Q 263.714313 375.465048 256.676667 373.986453 
Q 249.65 372.505537 249.65 369.866349 
Q 249.65 367.231803 256.665687 365.739281 
Q 263.681375 364.244437 276 364.244437 
Q 288.450375 364.244437 295.400188 365.725354 
Q 302.35 367.203949 302.35 369.866349 
Q 302.35 371.693122 298.661 373.013876 
Q 294.972 374.334631 288.044146 375.000811 
L 298.364562 377.438056 
L 285.771458 377.438056 
L 277.405333 375.465048 
z
M 276 366.268511 
Q 269.961458 366.268511 266.634771 367.210912 
Q 263.308083 368.153314 263.308083 369.866349 
Q 263.308083 371.607238 266.557917 372.533391 
Q 269.818729 373.457223 276 373.457223 
Q 282.071479 373.457223 285.398167 372.514821 
Q 288.724854 371.570099 288.724854 369.866349 
Q 288.724854 368.153314 285.398167 367.210912 
Q 282.071479 366.268511 276 366.268511 
z
" clip-path="url(#p26aba83deb)" style="fill: #40ba47"/>
   </g>
   <g id="patch_16">
    <path d="M 264.091481 351.607819 
L 264.091481 360.628152 
L 269.265444 360.628152 
Q 278.112802 360.628152 282.782574 359.46853 
Q 287.464351 358.308909 287.464351 356.100559 
Q 287.464351 353.904883 282.806583 352.757935 
Q 278.16082 351.607819 269.265444 351.607819 
L 264.091481 351.607819 
z
M 249.65 348.724607 
L 264.871777 348.724607 
Q 277.63262 348.724607 283.874989 349.206198 
Q 290.117358 349.684621 294.583052 350.834738 
Q 298.520547 351.835941 300.429271 353.144475 
Q 302.35 354.449841 302.35 356.100559 
Q 302.35 357.776624 300.429271 359.088327 
Q 298.520547 360.400029 294.583052 361.398064 
Q 290.081344 362.54818 283.778952 363.029772 
Q 277.47656 363.508195 264.871777 363.508195 
L 249.65 363.508195 
L 249.65 348.724607 
z
" clip-path="url(#p26aba83deb)" style="fill: #6b296b"/>
   </g>
   <g id="patch_17">
    <path d="M 249.65 182.776109 
L 301.253077 182.776109 
L 301.253077 214.2369 
L 268.774615 214.2369 
L 268.774615 244.245654 
L 299.329487 244.245654 
L 299.329487 275.706446 
L 268.774615 275.706446 
L 268.774615 312.664232 
L 302.35 312.664232 
L 302.35 344.090451 
L 249.65 344.090451 
L 249.65 182.776109 
z
" clip-path="url(#p26aba83deb)" style="fill: #6b296b"/>
   </g>
   <g id="patch_18">
    <path d="M 339.405333 383.519777 
L 338.373292 383.519777 
Q 325.714313 383.519777 318.676667 382.907858 
Q 311.65 382.294978 311.65 381.202745 
Q 311.65 380.112433 318.665687 379.49475 
Q 325.681375 378.876106 338 378.876106 
Q 350.450375 378.876106 357.400188 379.488986 
Q 364.35 380.100905 364.35 381.202745 
Q 364.35 381.958758 360.661 382.505355 
Q 356.972 383.051952 350.044146 383.327652 
L 360.364563 384.33631 
L 347.771458 384.33631 
L 339.405333 383.519777 
z
M 338 379.713773 
Q 331.961458 379.713773 328.634771 380.103787 
Q 325.308083 380.493802 325.308083 381.202745 
Q 325.308083 381.923215 328.557917 382.306505 
Q 331.818729 382.688835 338 382.688835 
Q 344.071479 382.688835 347.398167 382.29882 
Q 350.724854 381.907845 350.724854 381.202745 
Q 350.724854 380.493802 347.398167 380.103787 
Q 344.071479 379.713773 338 379.713773 
z
" clip-path="url(#p26aba83deb)" style="fill: #40ba47"/>
   </g>
   <g id="patch_19">
    <path d="M 311.65 350.014024 
L 325.537864 350.014024 
L 325.537864 360.226922 
L 345.555783 350.014024 
L 361.683253 350.014024 
L 335.743078 363.267404 
L 364.35 377.996047 
L 346.964195 377.996047 
L 325.537864 366.973553 
L 325.537864 377.996047 
L 311.65 377.996047 
L 311.65 350.014024 
z
" clip-path="url(#p26aba83deb)" style="fill: #bd2e1f"/>
   </g>
   <g id="patch_20">
    <path d="M 333.032787 227.710199 
Q 337.762274 227.710199 339.814221 221.452567 
Q 341.866168 215.150236 341.866168 200.757681 
Q 341.866168 186.499218 339.814221 180.375677 
Q 337.762274 174.207439 333.032787 174.207439 
L 326.701781 174.207439 
L 326.701781 227.710199 
L 333.032787 227.710199 
z
M 326.701781 264.85372 
L 326.701781 343.789287 
L 311.65 343.789287 
L 311.65 135.231327 
L 334.634307 135.231327 
Q 346.170252 135.231327 351.537844 149.087513 
Q 356.917949 162.899003 356.917949 192.801548 
Q 356.917949 213.451736 354.11529 226.726857 
Q 351.325142 240.001978 345.694801 246.304308 
Q 348.785233 248.807361 351.225047 257.702139 
Q 353.677374 266.55222 356.179748 284.565263 
L 364.35 343.789287 
L 348.322293 343.789287 
L 341.203039 291.985027 
Q 339.050997 276.340945 336.836396 270.619681 
Q 334.634307 264.85372 330.955817 264.85372 
L 326.701781 264.85372 
z
" clip-path="url(#p26aba83deb)" style="fill: #bd2e1f"/>
   </g>
   <g id="patch_21">
    <path d="M 410.155336 384.185444 
L 389.887763 384.185444 
L 386.68762 384.44282 
L 373.65 384.44282 
L 392.269015 383.029979 
L 407.730985 383.029979 
L 426.35 384.44282 
L 413.323155 384.44282 
L 410.155336 384.185444 
z
M 393.120231 383.923224 
L 406.890544 383.923224 
L 400.016162 383.361237 
L 393.120231 383.923224 
z
" clip-path="url(#p26aba83deb)" style="fill: #21599c"/>
   </g>
   <g id="patch_22">
    <path d="M 426.35 346.250298 
Q 421.035119 360.482139 415.318669 367.630552 
Q 409.602219 374.713979 403.507822 374.713979 
Q 389.736374 374.713979 381.693187 332.343385 
Q 373.65 289.972792 373.65 217.513878 
Q 373.65 144.210151 381.834917 102.164486 
Q 390.031645 60.11882 404.287338 60.11882 
Q 409.779381 60.11882 414.810802 65.83755 
Q 419.854034 71.491295 424.318534 82.668814 
L 424.318534 145.379892 
Q 419.712304 131.01808 415.153317 123.934653 
Q 410.59433 116.78624 406.011721 116.78624 
Q 397.531533 116.78624 392.937113 142.91044 
Q 388.342694 168.969655 388.342694 217.513878 
Q 388.342694 265.603202 392.771762 291.857373 
Q 397.200829 318.046559 405.350314 318.046559 
Q 407.570753 318.046559 409.472299 316.551891 
Q 411.373846 314.992237 412.885634 311.742959 
L 412.885634 252.86603 
L 404.204662 252.86603 
L 404.204662 200.422672 
L 426.35 200.422672 
L 426.35 346.250298 
z
" clip-path="url(#p26aba83deb)" style="fill: #787800"/>
   </g>
   <g id="patch_23">
    <path d="M 436.198462 381.759069 
L 487.801538 381.759069 
L 487.801538 382.27612 
L 455.323077 382.27612 
L 455.323077 382.769307 
L 485.877949 382.769307 
L 485.877949 383.286357 
L 455.323077 383.286357 
L 455.323077 384.410233 
L 436.198462 384.410233 
L 436.198462 381.759069 
z
" clip-path="url(#p26aba83deb)" style="fill: #21599c"/>
   </g>
   <g id="patch_24">
    <path d="M 435.65 372.984971 
L 448.68762 372.984971 
L 462.016162 379.244948 
L 475.323155 372.984971 
L 488.35 372.984971 
L 469.730985 381.466113 
L 454.269015 381.466113 
L 435.65 372.984971 
z
" clip-path="url(#p26aba83deb)" style="fill: #21599c"/>
   </g>
   <g id="patch_25">
    <path d="M 435.65 361.620283 
L 451.195992 361.620283 
L 461.979692 367.429752 
L 472.83447 361.620283 
L 488.35 361.620283 
L 488.35 372.476104 
L 476.80474 372.476104 
L 476.80474 364.535487 
L 465.889037 370.389162 
L 458.141426 370.389162 
L 447.225723 364.535487 
L 447.225723 372.476104 
L 435.65 372.476104 
L 435.65 361.620283 
z
" clip-path="url(#p26aba83deb)" style="fill: #21599c"/>
   </g>
   <g id="patch_26">
    <path d="M 452.437692 341.32331 
L 471.562308 341.32331 
L 471.562308 360.821493 
L 452.437692 360.821493 
L 452.437692 341.32331 
z
" clip-path="url(#p26aba83deb)" style="fill: #21599c"/>
   </g>
   <g id="patch_27">
    <path d="M 435.65 176.681779 
L 454.774615 176.681779 
L 454.774615 305.447197 
L 488.35 305.447197 
L 488.35 336.601778 
L 435.65 336.601778 
L 435.65 176.681779 
z
" clip-path="url(#p26aba83deb)" style="fill: #21599c"/>
   </g>
   <g id="patch_28">
    <path d="M 497.65 382.052701 
L 513.195992 382.052701 
L 523.979692 383.318358 
L 534.83447 382.052701 
L 550.35 382.052701 
L 550.35 384.417762 
L 538.80474 384.417762 
L 538.80474 382.687811 
L 527.889037 383.963098 
L 520.141426 383.963098 
L 509.225723 382.687811 
L 509.225723 384.417762 
L 497.65 384.417762 
L 497.65 382.052701 
z
" clip-path="url(#p26aba83deb)" style="fill: #21599c"/>
   </g>
   <g id="patch_29">
    <path d="M 497.65 370.254124 
L 516.774615 370.254124 
L 516.774615 379.461759 
L 550.35 379.461759 
L 550.35 381.689531 
L 497.65 381.689531 
L 497.65 370.254124 
z
" clip-path="url(#p26aba83deb)" style="fill: #21599c"/>
   </g>
   <g id="patch_30">
    <path d="M 514.437692 322.245783 
L 533.562308 322.245783 
L 533.562308 368.729925 
L 514.437692 368.729925 
L 514.437692 322.245783 
z
" clip-path="url(#p26aba83deb)" style="fill: #21599c"/>
   </g>
   <g id="patch_31">
    <path d="M 497.65 206.067744 
L 510.68762 206.067744 
L 524.016162 288.740878 
L 537.323155 206.067744 
L 550.35 206.067744 
L 531.730985 318.074957 
L 516.269015 318.074957 
L 497.65 206.067744 
z
" clip-path="url(#p26aba83deb)" style="fill: #21599c"/>
   </g>
   <g id="patch_32">
    <path d="M 559.65 377.952625 
L 573.537864 377.952625 
L 573.537864 380.273905 
L 593.555783 377.952625 
L 609.683253 377.952625 
L 583.743078 380.964973 
L 612.35 384.312631 
L 594.964195 384.312631 
L 573.537864 381.80734 
L 573.537864 384.312631 
L 559.65 384.312631 
L 559.65 377.952625 
z
" clip-path="url(#p26aba83deb)" style="fill: #bd2e1f"/>
   </g>
   <g id="patch_33">
    <path d="M 587.405333 375.465048 
L 586.373292 375.465048 
Q 573.714313 375.465048 566.676667 373.986453 
Q 559.65 372.505537 559.65 369.866349 
Q 559.65 367.231803 566.665687 365.739281 
Q 573.681375 364.244437 586 364.244437 
Q 598.450375 364.244437 605.400187 365.725354 
Q 612.35 367.203949 612.35 369.866349 
Q 612.35 371.693122 608.661 373.013876 
Q 604.972 374.334631 598.044146 375.000811 
L 608.364562 377.438056 
L 595.771458 377.438056 
L 587.405333 375.465048 
z
M 586 366.268511 
Q 579.961458 366.268511 576.634771 367.210912 
Q 573.308083 368.153314 573.308083 369.866349 
Q 573.308083 371.607238 576.557917 372.533391 
Q 579.818729 373.457223 586 373.457223 
Q 592.071479 373.457223 595.398167 372.514821 
Q 598.724854 371.570099 598.724854 369.866349 
Q 598.724854 368.153314 595.398167 367.210912 
Q 592.071479 366.268511 586 366.268511 
z
" clip-path="url(#p26aba83deb)" style="fill: #40ba47"/>
   </g>
   <g id="patch_34">
    <path d="M 574.091481 351.607819 
L 574.091481 360.628152 
L 579.265444 360.628152 
Q 588.112802 360.628152 592.782574 359.46853 
Q 597.464351 358.308909 597.464351 356.100559 
Q 597.464351 353.904883 592.806583 352.757935 
Q 588.16082 351.607819 579.265444 351.607819 
L 574.091481 351.607819 
z
M 559.65 348.724607 
L 574.871777 348.724607 
Q 587.63262 348.724607 593.874989 349.206198 
Q 600.117358 349.684621 604.583052 350.834738 
Q 608.520547 351.835941 610.429271 353.144475 
Q 612.35 354.449841 612.35 356.100559 
Q 612.35 357.776624 610.429271 359.088327 
Q 608.520547 360.400029 604.583052 361.398064 
Q 600.081344 362.54818 593.778952 363.029772 
Q 587.47656 363.508195 574.871777 363.508195 
L 559.65 363.508195 
L 559.65 348.724607 
z
" clip-path="url(#p26aba83deb)" style="fill: #6b296b"/>
   </g>
   <g id="patch_35">
    <path d="M 559.65 182.776109 
L 611.253077 182.776109 
L 611.253077 214.2369 
L 578.774615 214.2369 
L 578.774615 244.245654 
L 609.329487 244.245654 
L 609.329487 275.706446 
L 578.774615 275.706446 
L 578.774615 312.664232 
L 612.35 312.664232 
L 612.35 344.090451 
L 559.65 344.090451 
L 559.65 182.776109 
z
" clip-path="url(#p26aba83deb)" style="fill: #6b296b"/>
   </g>
   <g id="matplotlib.axis_1">
    <g id="xtick_1">
     <g id="line2d_2">
      <defs>
       <path id="m2078639dca" d="M 0 0 
L 0 4.8 
" style="stroke: #262626"/>
      </defs>
      <g>
       <use xlink:href="#m2078639dca" x="152" y="384.48" style="fill: #262626; stroke: #262626"/>
      </g>
     </g>
     <g id="text_1">
      <!-- P4 -->
      <g style="fill: #262626" transform="translate(146.61825 399.078875) scale(0.088 -0.088)">
       <defs>
        <path id="ArialMT-50" d="M 494 0 
L 494 4581 
L 2222 4581 
Q 2678 4581 2919 4538 
Q 3256 4481 3484 4323 
Q 3713 4166 3852 3881 
Q 3991 3597 3991 3256 
Q 3991 2672 3619 2267 
Q 3247 1863 2275 1863 
L 1100 1863 
L 1100 0 
L 494 0 
z
M 1100 2403 
L 2284 2403 
Q 2872 2403 3119 2622 
Q 3366 2841 3366 3238 
Q 3366 3525 3220 3729 
Q 3075 3934 2838 4000 
Q 2684 4041 2272 4041 
L 1100 4041 
L 1100 2403 
z
" transform="scale(0.015625)"/>
        <path id="ArialMT-34" d="M 2069 0 
L 2069 1097 
L 81 1097 
L 81 1613 
L 2172 4581 
L 2631 4581 
L 2631 1613 
L 3250 1613 
L 3250 1097 
L 2631 1097 
L 2631 0 
L 2069 0 
z
M 2069 1613 
L 2069 3678 
L 634 1613 
L 2069 1613 
z
" transform="scale(0.015625)"/>
       </defs>
       <use xlink:href="#ArialMT-50"/>
       <use xlink:href="#ArialMT-34" x="66.699219"/>
      </g>
     </g>
    </g>
    <g id="xtick_2">
     <g id="line2d_3">
      <g>
       <use xlink:href="#m2078639dca" x="214" y="384.48" style="fill: #262626; stroke: #262626"/>
      </g>
     </g>
     <g id="text_2">
      <!-- P3 -->
      <g style="fill: #262626" transform="translate(208.61825 399.078875) scale(0.088 -0.088)">
       <defs>
        <path id="ArialMT-33" d="M 269 1209 
L 831 1284 
Q 928 806 1161 595 
Q 1394 384 1728 384 
Q 2125 384 2398 659 
Q 2672 934 2672 1341 
Q 2672 1728 2419 1979 
Q 2166 2231 1775 2231 
Q 1616 2231 1378 2169 
L 1441 2663 
Q 1497 2656 1531 2656 
Q 1891 2656 2178 2843 
Q 2466 3031 2466 3422 
Q 2466 3731 2256 3934 
Q 2047 4138 1716 4138 
Q 1388 4138 1169 3931 
Q 950 3725 888 3313 
L 325 3413 
Q 428 3978 793 4289 
Q 1159 4600 1703 4600 
Q 2078 4600 2393 4439 
Q 2709 4278 2876 4000 
Q 3044 3722 3044 3409 
Q 3044 3113 2884 2869 
Q 2725 2625 2413 2481 
Q 2819 2388 3044 2092 
Q 3269 1797 3269 1353 
Q 3269 753 2831 336 
Q 2394 -81 1725 -81 
Q 1122 -81 723 278 
Q 325 638 269 1209 
z
" transform="scale(0.015625)"/>
       </defs>
       <use xlink:href="#ArialMT-50"/>
       <use xlink:href="#ArialMT-33" x="66.699219"/>
      </g>
     </g>
    </g>
    <g id="xtick_3">
     <g id="line2d_4">
      <g>
       <use xlink:href="#m2078639dca" x="276" y="384.48" style="fill: #262626; stroke: #262626"/>
      </g>
     </g>
     <g id="text_3">
      <!-- P2 -->
      <g style="fill: #262626" transform="translate(270.61825 399.078875) scale(0.088 -0.088)">
       <defs>
        <path id="ArialMT-32" d="M 3222 541 
L 3222 0 
L 194 0 
Q 188 203 259 391 
Q 375 700 629 1000 
Q 884 1300 1366 1694 
Q 2113 2306 2375 2664 
Q 2638 3022 2638 3341 
Q 2638 3675 2398 3904 
Q 2159 4134 1775 4134 
Q 1369 4134 1125 3890 
Q 881 3647 878 3216 
L 300 3275 
Q 359 3922 746 4261 
Q 1134 4600 1788 4600 
Q 2447 4600 2831 4234 
Q 3216 3869 3216 3328 
Q 3216 3053 3103 2787 
Q 2991 2522 2730 2228 
Q 2469 1934 1863 1422 
Q 1356 997 1212 845 
Q 1069 694 975 541 
L 3222 541 
z
" transform="scale(0.015625)"/>
       </defs>
       <use xlink:href="#ArialMT-50"/>
       <use xlink:href="#ArialMT-32" x="66.699219"/>
      </g>
     </g>
    </g>
    <g id="xtick_4">
     <g id="line2d_5">
      <g>
       <use xlink:href="#m2078639dca" x="338" y="384.48" style="fill: #262626; stroke: #262626"/>
      </g>
     </g>
     <g id="text_4">
      <!-- P1 -->
      <g style="fill: #262626" transform="translate(332.61825 399.078875) scale(0.088 -0.088)">
       <defs>
        <path id="ArialMT-31" d="M 2384 0 
L 1822 0 
L 1822 3584 
Q 1619 3391 1289 3197 
Q 959 3003 697 2906 
L 697 3450 
Q 1169 3672 1522 3987 
Q 1875 4303 2022 4600 
L 2384 4600 
L 2384 0 
z
" transform="scale(0.015625)"/>
       </defs>
       <use xlink:href="#ArialMT-50"/>
       <use xlink:href="#ArialMT-31" x="66.699219"/>
      </g>
     </g>
    </g>
    <g id="xtick_5">
     <g id="line2d_6">
      <g>
       <use xlink:href="#m2078639dca" x="400" y="384.48" style="fill: #262626; stroke: #262626"/>
      </g>
     </g>
     <g id="text_5">
      <!-- P1' -->
      <g style="fill: #262626" transform="translate(393.778125 399.078875) scale(0.088 -0.088)">
       <defs>
        <path id="ArialMT-27" d="M 425 2959 
L 281 3816 
L 281 4581 
L 922 4581 
L 922 3816 
L 772 2959 
L 425 2959 
z
" transform="scale(0.015625)"/>
       </defs>
       <use xlink:href="#ArialMT-50"/>
       <use xlink:href="#ArialMT-31" x="66.699219"/>
       <use xlink:href="#ArialMT-27" x="122.314453"/>
      </g>
     </g>
    </g>
    <g id="xtick_6">
     <g id="line2d_7">
      <g>
       <use xlink:href="#m2078639dca" x="462" y="384.48" style="fill: #262626; stroke: #262626"/>
      </g>
     </g>
     <g id="text_6">
      <!-- P2' -->
      <g style="fill: #262626" transform="translate(455.778125 399.078875) scale(0.088 -0.088)">
       <use xlink:href="#ArialMT-50"/>
       <use xlink:href="#ArialMT-32" x="66.699219"/>
       <use xlink:href="#ArialMT-27" x="122.314453"/>
      </g>
     </g>
    </g>
    <g id="xtick_7">
     <g id="line2d_8">
      <g>
       <use xlink:href="#m2078639dca" x="524" y="384.48" style="fill: #262626; stroke: #262626"/>
      </g>
     </g>
     <g id="text_7">
      <!-- P3' -->
      <g style="fill: #262626" transform="translate(517.778125 399.078875) scale(0.088 -0.088)">
       <use xlink:href="#ArialMT-50"/>
       <use xlink:href="#ArialMT-33" x="66.699219"/>
       <use xlink:href="#ArialMT-27" x="122.314453"/>
      </g>
     </g>
    </g>
    <g id="xtick_8">
     <g id="line2d_9">
      <g>
       <use xlink:href="#m2078639dca" x="586" y="384.48" style="fill: #262626; stroke: #262626"/>
      </g>
     </g>
     <g id="text_8">
      <!-- P4' -->
      <g style="fill: #262626" transform="translate(579.778125 399.078875) scale(0.088 -0.088)">
       <use xlink:href="#ArialMT-50"/>
       <use xlink:href="#ArialMT-34" x="66.699219"/>
       <use xlink:href="#ArialMT-27" x="122.314453"/>
      </g>
     </g>
    </g>
   </g>
   <g id="matplotlib.axis_2">
    <g id="ytick_1">
     <g id="line2d_10">
      <defs>
       <path id="mb0f01c293a" d="M 0 0 
L -4.8 0 
" style="stroke: #262626"/>
      </defs>
      <g>
       <use xlink:href="#mb0f01c293a" x="90" y="384.48" style="fill: #262626; stroke: #262626"/>
      </g>
     </g>
     <g id="text_9">
      <!-- 0.0 -->
      <g style="fill: #262626" transform="translate(69.468 387.629437) scale(0.088 -0.088)">
       <defs>
        <path id="ArialMT-30" d="M 266 2259 
Q 266 3072 433 3567 
Q 600 4063 929 4331 
Q 1259 4600 1759 4600 
Q 2128 4600 2406 4451 
Q 2684 4303 2865 4023 
Q 3047 3744 3150 3342 
Q 3253 2941 3253 2259 
Q 3253 1453 3087 958 
Q 2922 463 2592 192 
Q 2263 -78 1759 -78 
Q 1097 -78 719 397 
Q 266 969 266 2259 
z
M 844 2259 
Q 844 1131 1108 757 
Q 1372 384 1759 384 
Q 2147 384 2411 759 
Q 2675 1134 2675 2259 
Q 2675 3391 2411 3762 
Q 2147 4134 1753 4134 
Q 1366 4134 1134 3806 
Q 844 3388 844 2259 
z
" transform="scale(0.015625)"/>
        <path id="ArialMT-2e" d="M 581 0 
L 581 641 
L 1222 641 
L 1222 0 
L 581 0 
z
" transform="scale(0.015625)"/>
       </defs>
       <use xlink:href="#ArialMT-30"/>
       <use xlink:href="#ArialMT-2e" x="55.615234"/>
       <use xlink:href="#ArialMT-30" x="83.398438"/>
      </g>
     </g>
    </g>
    <g id="ytick_2">
     <g id="line2d_11">
      <g>
       <use xlink:href="#mb0f01c293a" x="90" y="337.862457" style="fill: #262626; stroke: #262626"/>
      </g>
     </g>
     <g id="text_10">
      <!-- 0.2 -->
      <g style="fill: #262626" transform="translate(69.468 341.011895) scale(0.088 -0.088)">
       <use xlink:href="#ArialMT-30"/>
       <use xlink:href="#ArialMT-2e" x="55.615234"/>
       <use xlink:href="#ArialMT-32" x="83.398438"/>
      </g>
     </g>
    </g>
    <g id="ytick_3">
     <g id="line2d_12">
      <g>
       <use xlink:href="#mb0f01c293a" x="90" y="291.244914" style="fill: #262626; stroke: #262626"/>
      </g>
     </g>
     <g id="text_11">
      <!-- 0.4 -->
      <g style="fill: #262626" transform="translate(69.468 294.394352) scale(0.088 -0.088)">
       <use xlink:href="#ArialMT-30"/>
       <use xlink:href="#ArialMT-2e" x="55.615234"/>
       <use xlink:href="#ArialMT-34" x="83.398438"/>
      </g>
     </g>
    </g>
    <g id="ytick_4">
     <g id="line2d_13">
      <g>
       <use xlink:href="#mb0f01c293a" x="90" y="244.627372" style="fill: #262626; stroke: #262626"/>
      </g>
     </g>
     <g id="text_12">
      <!-- 0.6 -->
      <g style="fill: #262626" transform="translate(69.468 247.776809) scale(0.088 -0.088)">
       <defs>
        <path id="ArialMT-36" d="M 3184 3459 
L 2625 3416 
Q 2550 3747 2413 3897 
Q 2184 4138 1850 4138 
Q 1581 4138 1378 3988 
Q 1113 3794 959 3422 
Q 806 3050 800 2363 
Q 1003 2672 1297 2822 
Q 1591 2972 1913 2972 
Q 2475 2972 2870 2558 
Q 3266 2144 3266 1488 
Q 3266 1056 3080 686 
Q 2894 316 2569 119 
Q 2244 -78 1831 -78 
Q 1128 -78 684 439 
Q 241 956 241 2144 
Q 241 3472 731 4075 
Q 1159 4600 1884 4600 
Q 2425 4600 2770 4297 
Q 3116 3994 3184 3459 
z
M 888 1484 
Q 888 1194 1011 928 
Q 1134 663 1356 523 
Q 1578 384 1822 384 
Q 2178 384 2434 671 
Q 2691 959 2691 1453 
Q 2691 1928 2437 2201 
Q 2184 2475 1800 2475 
Q 1419 2475 1153 2201 
Q 888 1928 888 1484 
z
" transform="scale(0.015625)"/>
       </defs>
       <use xlink:href="#ArialMT-30"/>
       <use xlink:href="#ArialMT-2e" x="55.615234"/>
       <use xlink:href="#ArialMT-36" x="83.398438"/>
      </g>
     </g>
    </g>
    <g id="ytick_5">
     <g id="line2d_14">
      <g>
       <use xlink:href="#mb0f01c293a" x="90" y="198.009829" style="fill: #262626; stroke: #262626"/>
      </g>
     </g>
     <g id="text_13">
      <!-- 0.8 -->
      <g style="fill: #262626" transform="translate(69.468 201.159266) scale(0.088 -0.088)">
       <defs>
        <path id="ArialMT-38" d="M 1131 2484 
Q 781 2613 612 2850 
Q 444 3088 444 3419 
Q 444 3919 803 4259 
Q 1163 4600 1759 4600 
Q 2359 4600 2725 4251 
Q 3091 3903 3091 3403 
Q 3091 3084 2923 2848 
Q 2756 2613 2416 2484 
Q 2838 2347 3058 2040 
Q 3278 1734 3278 1309 
Q 3278 722 2862 322 
Q 2447 -78 1769 -78 
Q 1091 -78 675 323 
Q 259 725 259 1325 
Q 259 1772 486 2073 
Q 713 2375 1131 2484 
z
M 1019 3438 
Q 1019 3113 1228 2906 
Q 1438 2700 1772 2700 
Q 2097 2700 2305 2904 
Q 2513 3109 2513 3406 
Q 2513 3716 2298 3927 
Q 2084 4138 1766 4138 
Q 1444 4138 1231 3931 
Q 1019 3725 1019 3438 
z
M 838 1322 
Q 838 1081 952 856 
Q 1066 631 1291 507 
Q 1516 384 1775 384 
Q 2178 384 2440 643 
Q 2703 903 2703 1303 
Q 2703 1709 2433 1975 
Q 2163 2241 1756 2241 
Q 1359 2241 1098 1978 
Q 838 1716 838 1322 
z
" transform="scale(0.015625)"/>
       </defs>
       <use xlink:href="#ArialMT-30"/>
       <use xlink:href="#ArialMT-2e" x="55.615234"/>
       <use xlink:href="#ArialMT-38" x="83.398438"/>
      </g>
     </g>
    </g>
    <g id="ytick_6">
     <g id="line2d_15">
      <g>
       <use xlink:href="#mb0f01c293a" x="90" y="151.392286" style="fill: #262626; stroke: #262626"/>
      </g>
     </g>
     <g id="text_14">
      <!-- 1.0 -->
      <g style="fill: #262626" transform="translate(69.468 154.541723) scale(0.088 -0.088)">
       <use xlink:href="#ArialMT-31"/>
       <use xlink:href="#ArialMT-2e" x="55.615234"/>
       <use xlink:href="#ArialMT-30" x="83.398438"/>
      </g>
     </g>
    </g>
    <g id="ytick_7">
     <g id="line2d_16">
      <g>
       <use xlink:href="#mb0f01c293a" x="90" y="104.774743" style="fill: #262626; stroke: #262626"/>
      </g>
     </g>
     <g id="text_15">
      <!-- 1.2 -->
      <g style="fill: #262626" transform="translate(69.468 107.924181) scale(0.088 -0.088)">
       <use xlink:href="#ArialMT-31"/>
       <use xlink:href="#ArialMT-2e" x="55.615234"/>
       <use xlink:href="#ArialMT-32" x="83.398438"/>
      </g>
     </g>
    </g>
    <g id="ytick_8">
     <g id="line2d_17">
      <g>
       <use xlink:href="#mb0f01c293a" x="90" y="58.1572" style="fill: #262626; stroke: #262626"/>
      </g>
     </g>
     <g id="text_16">
      <!-- 1.4 -->
      <g style="fill: #262626" transform="translate(69.468 61.306638) scale(0.088 -0.088)">
       <use xlink:href="#ArialMT-31"/>
       <use xlink:href="#ArialMT-2e" x="55.615234"/>
       <use xlink:href="#ArialMT-34" x="83.398438"/>
      </g>
     </g>
    </g>
    <g id="text_17">
     <!-- information (bits) -->
     <g style="fill: #262626" transform="translate(63.4475 253.902) rotate(-90) scale(0.096 -0.096)">
      <defs>
       <path id="ArialMT-69" d="M 425 3934 
L 425 4581 
L 988 4581 
L 988 3934 
L 425 3934 
z
M 425 0 
L 425 3319 
L 988 3319 
L 988 0 
L 425 0 
z
" transform="scale(0.015625)"/>
       <path id="ArialMT-6e" d="M 422 0 
L 422 3319 
L 928 3319 
L 928 2847 
Q 1294 3394 1984 3394 
Q 2284 3394 2536 3286 
Q 2788 3178 2913 3003 
Q 3038 2828 3088 2588 
Q 3119 2431 3119 2041 
L 3119 0 
L 2556 0 
L 2556 2019 
Q 2556 2363 2490 2533 
Q 2425 2703 2258 2804 
Q 2091 2906 1866 2906 
Q 1506 2906 1245 2678 
Q 984 2450 984 1813 
L 984 0 
L 422 0 
z
" transform="scale(0.015625)"/>
       <path id="ArialMT-66" d="M 556 0 
L 556 2881 
L 59 2881 
L 59 3319 
L 556 3319 
L 556 3672 
Q 556 4006 616 4169 
Q 697 4388 901 4523 
Q 1106 4659 1475 4659 
Q 1713 4659 2000 4603 
L 1916 4113 
Q 1741 4144 1584 4144 
Q 1328 4144 1222 4034 
Q 1116 3925 1116 3625 
L 1116 3319 
L 1763 3319 
L 1763 2881 
L 1116 2881 
L 1116 0 
L 556 0 
z
" transform="scale(0.015625)"/>
       <path id="ArialMT-6f" d="M 213 1659 
Q 213 2581 725 3025 
Q 1153 3394 1769 3394 
Q 2453 3394 2887 2945 
Q 3322 2497 3322 1706 
Q 3322 1066 3130 698 
Q 2938 331 2570 128 
Q 2203 -75 1769 -75 
Q 1072 -75 642 372 
Q 213 819 213 1659 
z
M 791 1659 
Q 791 1022 1069 705 
Q 1347 388 1769 388 
Q 2188 388 2466 706 
Q 2744 1025 2744 1678 
Q 2744 2294 2464 2611 
Q 2184 2928 1769 2928 
Q 1347 2928 1069 2612 
Q 791 2297 791 1659 
z
" transform="scale(0.015625)"/>
       <path id="ArialMT-72" d="M 416 0 
L 416 3319 
L 922 3319 
L 922 2816 
Q 1116 3169 1280 3281 
Q 1444 3394 1641 3394 
Q 1925 3394 2219 3213 
L 2025 2691 
Q 1819 2813 1613 2813 
Q 1428 2813 1281 2702 
Q 1134 2591 1072 2394 
Q 978 2094 978 1738 
L 978 0 
L 416 0 
z
" transform="scale(0.015625)"/>
       <path id="ArialMT-6d" d="M 422 0 
L 422 3319 
L 925 3319 
L 925 2853 
Q 1081 3097 1340 3245 
Q 1600 3394 1931 3394 
Q 2300 3394 2536 3241 
Q 2772 3088 2869 2813 
Q 3263 3394 3894 3394 
Q 4388 3394 4653 3120 
Q 4919 2847 4919 2278 
L 4919 0 
L 4359 0 
L 4359 2091 
Q 4359 2428 4304 2576 
Q 4250 2725 4106 2815 
Q 3963 2906 3769 2906 
Q 3419 2906 3187 2673 
Q 2956 2441 2956 1928 
L 2956 0 
L 2394 0 
L 2394 2156 
Q 2394 2531 2256 2718 
Q 2119 2906 1806 2906 
Q 1569 2906 1367 2781 
Q 1166 2656 1075 2415 
Q 984 2175 984 1722 
L 984 0 
L 422 0 
z
" transform="scale(0.015625)"/>
       <path id="ArialMT-61" d="M 2588 409 
Q 2275 144 1986 34 
Q 1697 -75 1366 -75 
Q 819 -75 525 192 
Q 231 459 231 875 
Q 231 1119 342 1320 
Q 453 1522 633 1644 
Q 813 1766 1038 1828 
Q 1203 1872 1538 1913 
Q 2219 1994 2541 2106 
Q 2544 2222 2544 2253 
Q 2544 2597 2384 2738 
Q 2169 2928 1744 2928 
Q 1347 2928 1158 2789 
Q 969 2650 878 2297 
L 328 2372 
Q 403 2725 575 2942 
Q 747 3159 1072 3276 
Q 1397 3394 1825 3394 
Q 2250 3394 2515 3294 
Q 2781 3194 2906 3042 
Q 3031 2891 3081 2659 
Q 3109 2516 3109 2141 
L 3109 1391 
Q 3109 606 3145 398 
Q 3181 191 3288 0 
L 2700 0 
Q 2613 175 2588 409 
z
M 2541 1666 
Q 2234 1541 1622 1453 
Q 1275 1403 1131 1340 
Q 988 1278 909 1158 
Q 831 1038 831 891 
Q 831 666 1001 516 
Q 1172 366 1500 366 
Q 1825 366 2078 508 
Q 2331 650 2450 897 
Q 2541 1088 2541 1459 
L 2541 1666 
z
" transform="scale(0.015625)"/>
       <path id="ArialMT-74" d="M 1650 503 
L 1731 6 
Q 1494 -44 1306 -44 
Q 1000 -44 831 53 
Q 663 150 594 308 
Q 525 466 525 972 
L 525 2881 
L 113 2881 
L 113 3319 
L 525 3319 
L 525 4141 
L 1084 4478 
L 1084 3319 
L 1650 3319 
L 1650 2881 
L 1084 2881 
L 1084 941 
Q 1084 700 1114 631 
Q 1144 563 1211 522 
Q 1278 481 1403 481 
Q 1497 481 1650 503 
z
" transform="scale(0.015625)"/>
       <path id="ArialMT-20" transform="scale(0.015625)"/>
       <path id="ArialMT-28" d="M 1497 -1347 
Q 1031 -759 709 28 
Q 388 816 388 1659 
Q 388 2403 628 3084 
Q 909 3875 1497 4659 
L 1900 4659 
Q 1522 4009 1400 3731 
Q 1209 3300 1100 2831 
Q 966 2247 966 1656 
Q 966 153 1900 -1347 
L 1497 -1347 
z
" transform="scale(0.015625)"/>
       <path id="ArialMT-62" d="M 941 0 
L 419 0 
L 419 4581 
L 981 4581 
L 981 2947 
Q 1338 3394 1891 3394 
Q 2197 3394 2470 3270 
Q 2744 3147 2920 2923 
Q 3097 2700 3197 2384 
Q 3297 2069 3297 1709 
Q 3297 856 2875 390 
Q 2453 -75 1863 -75 
Q 1275 -75 941 416 
L 941 0 
z
M 934 1684 
Q 934 1088 1097 822 
Q 1363 388 1816 388 
Q 2184 388 2453 708 
Q 2722 1028 2722 1663 
Q 2722 2313 2464 2622 
Q 2206 2931 1841 2931 
Q 1472 2931 1203 2611 
Q 934 2291 934 1684 
z
" transform="scale(0.015625)"/>
       <path id="ArialMT-73" d="M 197 991 
L 753 1078 
Q 800 744 1014 566 
Q 1228 388 1613 388 
Q 2000 388 2187 545 
Q 2375 703 2375 916 
Q 2375 1106 2209 1216 
Q 2094 1291 1634 1406 
Q 1016 1563 777 1677 
Q 538 1791 414 1992 
Q 291 2194 291 2438 
Q 291 2659 392 2848 
Q 494 3038 669 3163 
Q 800 3259 1026 3326 
Q 1253 3394 1513 3394 
Q 1903 3394 2198 3281 
Q 2494 3169 2634 2976 
Q 2775 2784 2828 2463 
L 2278 2388 
Q 2241 2644 2061 2787 
Q 1881 2931 1553 2931 
Q 1166 2931 1000 2803 
Q 834 2675 834 2503 
Q 834 2394 903 2306 
Q 972 2216 1119 2156 
Q 1203 2125 1616 2013 
Q 2213 1853 2448 1751 
Q 2684 1650 2818 1456 
Q 2953 1263 2953 975 
Q 2953 694 2789 445 
Q 2625 197 2315 61 
Q 2006 -75 1616 -75 
Q 969 -75 630 194 
Q 291 463 197 991 
z
" transform="scale(0.015625)"/>
       <path id="ArialMT-29" d="M 791 -1347 
L 388 -1347 
Q 1322 153 1322 1656 
Q 1322 2244 1188 2822 
Q 1081 3291 891 3722 
Q 769 4003 388 4659 
L 791 4659 
Q 1378 3875 1659 3084 
Q 1900 2403 1900 1659 
Q 1900 816 1576 28 
Q 1253 -759 791 -1347 
z
" transform="scale(0.015625)"/>
      </defs>
      <use xlink:href="#ArialMT-69"/>
      <use xlink:href="#ArialMT-6e" x="22.216797"/>
      <use xlink:href="#ArialMT-66" x="77.832031"/>
      <use xlink:href="#ArialMT-6f" x="105.615234"/>
      <use xlink:href="#ArialMT-72" x="161.230469"/>
      <use xlink:href="#ArialMT-6d" x="194.53125"/>
      <use xlink:href="#ArialMT-61" x="277.832031"/>
      <use xlink:href="#ArialMT-74" x="333.447266"/>
      <use xlink:href="#ArialMT-69" x="361.230469"/>
      <use xlink:href="#ArialMT-6f" x="383.447266"/>
      <use xlink:href="#ArialMT-6e" x="439.0625"/>
      <use xlink:href="#ArialMT-20" x="494.677734"/>
      <use xlink:href="#ArialMT-28" x="522.460938"/>
      <use xlink:href="#ArialMT-62" x="555.761719"/>
      <use xlink:href="#ArialMT-69" x="611.376953"/>
      <use xlink:href="#ArialMT-74" x="633.59375"/>
      <use xlink:href="#ArialMT-73" x="661.376953"/>
      <use xlink:href="#ArialMT-29" x="711.376953"/>
     </g>
    </g>
   </g>
   <g id="line2d_18">
    <path d="M 369 384.48 
L 369 51.84 
" clip-path="url(#p26aba83deb)" style="fill: none; stroke: #daa520; stroke-width: 2; stroke-linecap: round"/>
   </g>
   <g id="patch_36">
    <path d="M 90 384.48 
L 648 384.48 
" style="fill: none; stroke: #262626; stroke-linejoin: miter; stroke-linecap: square"/>
   </g>
   <g id="patch_37">
    <path d="M 90 51.84 
L 648 51.84 
" style="fill: none; stroke: #262626; stroke-linejoin: miter; stroke-linecap: square"/>
   </g>
   <g id="text_18">
    <!-- WT_untreated vs. KO_untreated information content, Kullback n=1 -->
    <g style="fill: #262626" transform="translate(227.463 45.84) scale(0.096 -0.096)">
     <defs>
      <path id="ArialMT-57" d="M 1294 0 
L 78 4581 
L 700 4581 
L 1397 1578 
Q 1509 1106 1591 641 
Q 1766 1375 1797 1488 
L 2669 4581 
L 3400 4581 
L 4056 2263 
Q 4303 1400 4413 641 
Q 4500 1075 4641 1638 
L 5359 4581 
L 5969 4581 
L 4713 0 
L 4128 0 
L 3163 3491 
Q 3041 3928 3019 4028 
Q 2947 3713 2884 3491 
L 1913 0 
L 1294 0 
z
" transform="scale(0.015625)"/>
      <path id="ArialMT-54" d="M 1659 0 
L 1659 4041 
L 150 4041 
L 150 4581 
L 3781 4581 
L 3781 4041 
L 2266 4041 
L 2266 0 
L 1659 0 
z
" transform="scale(0.015625)"/>
      <path id="ArialMT-5f" d="M -97 -1272 
L -97 -866 
L 3631 -866 
L 3631 -1272 
L -97 -1272 
z
" transform="scale(0.015625)"/>
      <path id="ArialMT-75" d="M 2597 0 
L 2597 488 
Q 2209 -75 1544 -75 
Q 1250 -75 995 37 
Q 741 150 617 320 
Q 494 491 444 738 
Q 409 903 409 1263 
L 409 3319 
L 972 3319 
L 972 1478 
Q 972 1038 1006 884 
Q 1059 663 1231 536 
Q 1403 409 1656 409 
Q 1909 409 2131 539 
Q 2353 669 2445 892 
Q 2538 1116 2538 1541 
L 2538 3319 
L 3100 3319 
L 3100 0 
L 2597 0 
z
" transform="scale(0.015625)"/>
      <path id="ArialMT-65" d="M 2694 1069 
L 3275 997 
Q 3138 488 2766 206 
Q 2394 -75 1816 -75 
Q 1088 -75 661 373 
Q 234 822 234 1631 
Q 234 2469 665 2931 
Q 1097 3394 1784 3394 
Q 2450 3394 2872 2941 
Q 3294 2488 3294 1666 
Q 3294 1616 3291 1516 
L 816 1516 
Q 847 969 1125 678 
Q 1403 388 1819 388 
Q 2128 388 2347 550 
Q 2566 713 2694 1069 
z
M 847 1978 
L 2700 1978 
Q 2663 2397 2488 2606 
Q 2219 2931 1791 2931 
Q 1403 2931 1139 2672 
Q 875 2413 847 1978 
z
" transform="scale(0.015625)"/>
      <path id="ArialMT-64" d="M 2575 0 
L 2575 419 
Q 2259 -75 1647 -75 
Q 1250 -75 917 144 
Q 584 363 401 755 
Q 219 1147 219 1656 
Q 219 2153 384 2558 
Q 550 2963 881 3178 
Q 1213 3394 1622 3394 
Q 1922 3394 2156 3267 
Q 2391 3141 2538 2938 
L 2538 4581 
L 3097 4581 
L 3097 0 
L 2575 0 
z
M 797 1656 
Q 797 1019 1065 703 
Q 1334 388 1700 388 
Q 2069 388 2326 689 
Q 2584 991 2584 1609 
Q 2584 2291 2321 2609 
Q 2059 2928 1675 2928 
Q 1300 2928 1048 2622 
Q 797 2316 797 1656 
z
" transform="scale(0.015625)"/>
      <path id="ArialMT-76" d="M 1344 0 
L 81 3319 
L 675 3319 
L 1388 1331 
Q 1503 1009 1600 663 
Q 1675 925 1809 1294 
L 2547 3319 
L 3125 3319 
L 1869 0 
L 1344 0 
z
" transform="scale(0.015625)"/>
      <path id="ArialMT-4b" d="M 469 0 
L 469 4581 
L 1075 4581 
L 1075 2309 
L 3350 4581 
L 4172 4581 
L 2250 2725 
L 4256 0 
L 3456 0 
L 1825 2319 
L 1075 1588 
L 1075 0 
L 469 0 
z
" transform="scale(0.015625)"/>
      <path id="ArialMT-4f" d="M 309 2231 
Q 309 3372 921 4017 
Q 1534 4663 2503 4663 
Q 3138 4663 3647 4359 
Q 4156 4056 4423 3514 
Q 4691 2972 4691 2284 
Q 4691 1588 4409 1038 
Q 4128 488 3612 205 
Q 3097 -78 2500 -78 
Q 1853 -78 1343 234 
Q 834 547 571 1087 
Q 309 1628 309 2231 
z
M 934 2222 
Q 934 1394 1379 917 
Q 1825 441 2497 441 
Q 3181 441 3623 922 
Q 4066 1403 4066 2288 
Q 4066 2847 3877 3264 
Q 3688 3681 3323 3911 
Q 2959 4141 2506 4141 
Q 1863 4141 1398 3698 
Q 934 3256 934 2222 
z
" transform="scale(0.015625)"/>
      <path id="ArialMT-63" d="M 2588 1216 
L 3141 1144 
Q 3050 572 2676 248 
Q 2303 -75 1759 -75 
Q 1078 -75 664 370 
Q 250 816 250 1647 
Q 250 2184 428 2587 
Q 606 2991 970 3192 
Q 1334 3394 1763 3394 
Q 2303 3394 2647 3120 
Q 2991 2847 3088 2344 
L 2541 2259 
Q 2463 2594 2264 2762 
Q 2066 2931 1784 2931 
Q 1359 2931 1093 2626 
Q 828 2322 828 1663 
Q 828 994 1084 691 
Q 1341 388 1753 388 
Q 2084 388 2306 591 
Q 2528 794 2588 1216 
z
" transform="scale(0.015625)"/>
      <path id="ArialMT-2c" d="M 569 0 
L 569 641 
L 1209 641 
L 1209 0 
Q 1209 -353 1084 -570 
Q 959 -788 688 -906 
L 531 -666 
Q 709 -588 793 -436 
Q 878 -284 888 0 
L 569 0 
z
" transform="scale(0.015625)"/>
      <path id="ArialMT-6c" d="M 409 0 
L 409 4581 
L 972 4581 
L 972 0 
L 409 0 
z
" transform="scale(0.015625)"/>
      <path id="ArialMT-6b" d="M 425 0 
L 425 4581 
L 988 4581 
L 988 1969 
L 2319 3319 
L 3047 3319 
L 1778 2088 
L 3175 0 
L 2481 0 
L 1384 1697 
L 988 1316 
L 988 0 
L 425 0 
z
" transform="scale(0.015625)"/>
      <path id="ArialMT-3d" d="M 3381 2694 
L 356 2694 
L 356 3219 
L 3381 3219 
L 3381 2694 
z
M 3381 1303 
L 356 1303 
L 356 1828 
L 3381 1828 
L 3381 1303 
z
" transform="scale(0.015625)"/>
     </defs>
     <use xlink:href="#ArialMT-57"/>
     <use xlink:href="#ArialMT-54" x="94.384766"/>
     <use xlink:href="#ArialMT-5f" x="155.46875"/>
     <use xlink:href="#ArialMT-75" x="211.083984"/>
     <use xlink:href="#ArialMT-6e" x="266.699219"/>
     <use xlink:href="#ArialMT-74" x="322.314453"/>
     <use xlink:href="#ArialMT-72" x="350.097656"/>
     <use xlink:href="#ArialMT-65" x="383.398438"/>
     <use xlink:href="#ArialMT-61" x="439.013672"/>
     <use xlink:href="#ArialMT-74" x="494.628906"/>
     <use xlink:href="#ArialMT-65" x="522.412109"/>
     <use xlink:href="#ArialMT-64" x="578.027344"/>
     <use xlink:href="#ArialMT-20" x="633.642578"/>
     <use xlink:href="#ArialMT-76" x="661.425781"/>
     <use xlink:href="#ArialMT-73" x="711.425781"/>
     <use xlink:href="#ArialMT-2e" x="761.425781"/>
     <use xlink:href="#ArialMT-20" x="789.208984"/>
     <use xlink:href="#ArialMT-4b" x="816.992188"/>
     <use xlink:href="#ArialMT-4f" x="883.691406"/>
     <use xlink:href="#ArialMT-5f" x="961.474609"/>
     <use xlink:href="#ArialMT-75" x="1017.089844"/>
     <use xlink:href="#ArialMT-6e" x="1072.705078"/>
     <use xlink:href="#ArialMT-74" x="1128.320312"/>
     <use xlink:href="#ArialMT-72" x="1156.103516"/>
     <use xlink:href="#ArialMT-65" x="1189.404297"/>
     <use xlink:href="#ArialMT-61" x="1245.019531"/>
     <use xlink:href="#ArialMT-74" x="1300.634766"/>
     <use xlink:href="#ArialMT-65" x="1328.417969"/>
     <use xlink:href="#ArialMT-64" x="1384.033203"/>
     <use xlink:href="#ArialMT-20" x="1439.648438"/>
     <use xlink:href="#ArialMT-69" x="1467.431641"/>
     <use xlink:href="#ArialMT-6e" x="1489.648438"/>
     <use xlink:href="#ArialMT-66" x="1545.263672"/>
     <use xlink:href="#ArialMT-6f" x="1573.046875"/>
     <use xlink:href="#ArialMT-72" x="1628.662109"/>
     <use xlink:href="#ArialMT-6d" x="1661.962891"/>
     <use xlink:href="#ArialMT-61" x="1745.263672"/>
     <use xlink:href="#ArialMT-74" x="1800.878906"/>
     <use xlink:href="#ArialMT-69" x="1828.662109"/>
     <use xlink:href="#ArialMT-6f" x="1850.878906"/>
     <use xlink:href="#ArialMT-6e" x="1906.494141"/>
     <use xlink:href="#ArialMT-20" x="1962.109375"/>
     <use xlink:href="#ArialMT-63" x="1989.892578"/>
     <use xlink:href="#ArialMT-6f" x="2039.892578"/>
     <use xlink:href="#ArialMT-6e" x="2095.507812"/>
     <use xlink:href="#ArialMT-74" x="2151.123047"/>
     <use xlink:href="#ArialMT-65" x="2178.90625"/>
     <use xlink:href="#ArialMT-6e" x="2234.521484"/>
     <use xlink:href="#ArialMT-74" x="2290.136719"/>
     <use xlink:href="#ArialMT-2c" x="2317.919922"/>
     <use xlink:href="#ArialMT-20" x="2345.703125"/>
     <use xlink:href="#ArialMT-4b" x="2373.486328"/>
     <use xlink:href="#ArialMT-75" x="2440.185547"/>
     <use xlink:href="#ArialMT-6c" x="2495.800781"/>
     <use xlink:href="#ArialMT-6c" x="2518.017578"/>
     <use xlink:href="#ArialMT-62" x="2540.234375"/>
     <use xlink:href="#ArialMT-61" x="2595.849609"/>
     <use xlink:href="#ArialMT-63" x="2651.464844"/>
     <use xlink:href="#ArialMT-6b" x="2701.464844"/>
     <use xlink:href="#ArialMT-20" x="2751.464844"/>
     <use xlink:href="#ArialMT-6e" x="2779.248047"/>
     <use xlink:href="#ArialMT-3d" x="2834.863281"/>
     <use xlink:href="#ArialMT-31" x="2893.261719"/>
    </g>
   </g>
  </g>
 </g>
 <defs>
  <clipPath id="p26aba83deb">
   <rect x="90" y="51.84" width="558" height="332.64"/>
  </clipPath>
 </defs>
</svg>
