<?xml version="1.0" encoding="utf-8" standalone="no"?>
<!DOCTYPE svg PUBLIC "-//W3C//DTD SVG 1.1//EN"
  "http://www.w3.org/Graphics/SVG/1.1/DTD/svg11.dtd">
<svg xmlns:xlink="http://www.w3.org/1999/xlink" width="720pt" height="432pt" viewBox="0 0 720 432" xmlns="http://www.w3.org/2000/svg" version="1.1">
 <metadata>
  <rdf:RDF xmlns:dc="http://purl.org/dc/elements/1.1/" xmlns:cc="http://creativecommons.org/ns#" xmlns:rdf="http://www.w3.org/1999/02/22-rdf-syntax-ns#">
   <cc:Work>
    <dc:type rdf:resource="http://purl.org/dc/dcmitype/StillImage"/>
    <dc:date>2023-08-03T11:45:38.327408</dc:date>
    <dc:format>image/svg+xml</dc:format>
    <dc:creator>
     <cc:Agent>
      <dc:title>Matplotlib v3.7.1, https://matplotlib.org/</dc:title>
     </cc:Agent>
    </dc:creator>
   </cc:Work>
  </rdf:RDF>
 </metadata>
 <defs>
  <style type="text/css">*{stroke-linejoin: round; stroke-linecap: butt}</style>
 </defs>
 <g id="figure_1">
  <g id="patch_1">
   <path d="M 0 432 
L 720 432 
L 720 0 
L 0 0 
z
" style="fill: #ffffff"/>
  </g>
  <g id="axes_1">
   <g id="patch_2">
    <path d="M 90 384.48 
L 648 384.48 
L 648 51.84 
L 90 51.84 
z
" style="fill: #ffffff"/>
   </g>
   <g id="patch_3">
    <path d="M 121 384.48 
L 183 384.48 
L 183 51.84 
L 121 51.84 
z
" clip-path="url(#p98ca66db87)" style="fill: #ffd700; opacity: 0.35; stroke: #ffffff; stroke-width: 0.8; stroke-linejoin: miter"/>
   </g>
   <g id="patch_4">
    <path d="M 183 384.48 
L 245 384.48 
L 245 51.84 
L 183 51.84 
z
" clip-path="url(#p98ca66db87)" style="fill: #ffd700; opacity: 0.35; stroke: #ffffff; stroke-width: 0.8; stroke-linejoin: miter"/>
   </g>
   <g id="patch_5">
    <path d="M 245 384.48 
L 307 384.48 
L 307 51.84 
L 245 51.84 
z
" clip-path="url(#p98ca66db87)" style="fill: #ffd700; opacity: 0.35; stroke: #ffffff; stroke-width: 0.8; stroke-linejoin: miter"/>
   </g>
   <g id="patch_6">
    <path d="M 307 384.48 
L 369 384.48 
L 369 51.84 
L 307 51.84 
z
" clip-path="url(#p98ca66db87)" style="fill: #ffd700; opacity: 0.35; stroke: #ffffff; stroke-width: 0.8; stroke-linejoin: miter"/>
   </g>
   <g id="patch_7">
    <path d="M 369 384.48 
L 431 384.48 
L 431 51.84 
L 369 51.84 
z
" clip-path="url(#p98ca66db87)" style="fill: #ffd700; opacity: 0.35; stroke: #ffffff; stroke-width: 0.8; stroke-linejoin: miter"/>
   </g>
   <g id="patch_8">
    <path d="M 431 384.48 
L 493 384.48 
L 493 51.84 
L 431 51.84 
z
" clip-path="url(#p98ca66db87)" style="fill: #ffd700; opacity: 0.35; stroke: #ffffff; stroke-width: 0.8; stroke-linejoin: miter"/>
   </g>
   <g id="patch_9">
    <path d="M 493 384.48 
L 555 384.48 
L 555 51.84 
L 493 51.84 
z
" clip-path="url(#p98ca66db87)" style="fill: #ffd700; opacity: 0.35; stroke: #ffffff; stroke-width: 0.8; stroke-linejoin: miter"/>
   </g>
   <g id="patch_10">
    <path d="M 555 384.48 
L 617 384.48 
L 617 51.84 
L 555 51.84 
z
" clip-path="url(#p98ca66db87)" style="fill: #ffd700; opacity: 0.35; stroke: #ffffff; stroke-width: 0.8; stroke-linejoin: miter"/>
   </g>
   <g id="line2d_1">
    <path d="M 90 384.48 
L 648 384.48 
" clip-path="url(#p98ca66db87)" style="fill: none; stroke: #000000; stroke-width: 0.5; stroke-linecap: round"/>
   </g>
   <g id="patch_11">
    <path d="M 178.35 353.512735 
Q 173.941736 364.740451 169.174969 370.419587 
Q 164.408201 376.164 159.216541 376.164 
Q 143.734505 376.164 134.692252 333.603121 
Q 125.65 291.042242 125.65 218.257916 
Q 125.65 145.212481 134.692252 102.716879 
Q 143.734505 60.156 159.216541 60.156 
Q 164.408201 60.156 169.174969 65.900413 
Q 173.941736 71.579549 178.35 82.807265 
L 178.35 145.799978 
Q 173.901902 130.916725 169.586584 123.997319 
Q 165.271265 117.077912 160.504497 117.077912 
Q 151.953527 117.077912 147.053981 144.037487 
Q 142.167712 170.931785 142.167712 218.257916 
Q 142.167712 265.388215 147.053981 292.34779 
Q 151.953527 319.242088 160.504497 319.242088 
Q 165.271265 319.242088 169.586584 312.322681 
Q 173.901902 305.337997 178.35 290.454745 
L 178.35 353.512735 
z
" clip-path="url(#p98ca66db87)" style="fill: #6b296b"/>
   </g>
   <g id="patch_12">
    <path d="M 187.65 382.224973 
L 204.578032 382.224973 
L 225.968106 383.731844 
L 225.968106 382.224973 
L 240.35 382.224973 
L 240.35 384.422179 
L 223.409364 384.422179 
L 202.01929 382.915308 
L 202.01929 384.422179 
L 187.65 384.422179 
L 187.65 382.224973 
z
" clip-path="url(#p98ca66db87)" style="fill: #40ba47"/>
   </g>
   <g id="patch_13">
    <path d="M 187.65 373.353787 
L 240.35 373.353787 
L 240.35 375.028565 
L 221.390256 375.028565 
L 221.390256 381.941168 
L 206.646512 381.941168 
L 206.646512 375.028565 
L 187.65 375.028565 
L 187.65 373.353787 
z
" clip-path="url(#p98ca66db87)" style="fill: #40ba47"/>
   </g>
   <g id="patch_14">
    <path d="M 224.155336 371.129436 
L 203.887763 371.129436 
L 200.68762 372.875561 
L 187.65 372.875561 
L 206.269015 363.290363 
L 221.730985 363.290363 
L 240.35 372.875561 
L 227.323155 372.875561 
L 224.155336 371.129436 
z
M 207.120231 369.350443 
L 220.890544 369.350443 
L 214.016162 365.537728 
L 207.120231 369.350443 
z
" clip-path="url(#p98ca66db87)" style="fill: #21599c"/>
   </g>
   <g id="patch_15">
    <path d="M 235.955948 298.968347 
L 235.955948 312.330319 
Q 230.459804 310.004146 225.221293 308.827535 
Q 219.997094 307.6374 215.34541 307.6374 
Q 209.176562 307.6374 206.213797 309.246787 
Q 203.265345 310.84265 203.265345 314.223716 
Q 203.265345 316.766277 205.254834 318.186325 
Q 207.244324 319.592848 212.482835 320.607168 
L 219.811027 322.000167 
Q 230.946442 324.123477 235.641065 328.437717 
Q 240.35 332.738432 240.35 340.690699 
Q 240.35 351.117906 233.794704 356.216553 
Q 227.239408 361.315201 213.770994 361.315201 
Q 207.430391 361.315201 201.032537 360.165638 
Q 194.634682 359.0296 188.236828 356.784573 
L 188.236828 343.057445 
Q 194.634682 346.262696 200.60315 347.899132 
Q 206.571619 349.522043 212.125014 349.522043 
Q 217.764286 349.522043 220.755676 347.750365 
Q 223.747067 345.965162 223.747067 342.665242 
Q 223.747067 339.716952 221.714639 338.107565 
Q 219.682211 336.498178 213.59924 335.226897 
L 206.929441 333.833898 
Q 196.910429 331.805258 192.273058 327.3693 
Q 187.65 322.933341 187.65 315.413851 
Q 187.65 305.98744 194.090793 300.915841 
Q 200.531586 295.844242 212.611651 295.844242 
Q 218.122108 295.844242 223.933134 296.628649 
Q 229.744161 297.413057 235.955948 298.968347 
z
" clip-path="url(#p98ca66db87)" style="fill: #40ba47"/>
   </g>
   <g id="patch_16">
    <path d="M 277.405333 384.307452 
L 276.373292 384.307452 
Q 263.714313 384.307452 256.676667 384.197493 
Q 249.65 384.087361 249.65 383.891091 
Q 249.65 383.695167 256.665687 383.584172 
Q 263.681375 383.473004 276 383.473004 
Q 288.450375 383.473004 295.400188 383.583136 
Q 302.35 383.693095 302.35 383.891091 
Q 302.35 384.026944 298.661 384.125165 
Q 294.972 384.223386 288.044146 384.272928 
L 298.364562 384.45418 
L 285.771458 384.45418 
L 277.405333 384.307452 
z
M 276 383.623529 
Q 269.961458 383.623529 266.634771 383.693613 
Q 263.308083 383.763697 263.308083 383.891091 
Q 263.308083 384.020557 266.557917 384.089432 
Q 269.818729 384.158135 276 384.158135 
Q 282.071479 384.158135 285.398167 384.088051 
Q 288.724854 384.017795 288.724854 383.891091 
Q 288.724854 383.763697 285.398167 383.693613 
Q 282.071479 383.623529 276 383.623529 
z
" clip-path="url(#p98ca66db87)" style="fill: #40ba47"/>
   </g>
   <g id="patch_17">
    <path d="M 249.65 381.378732 
L 266.578032 381.378732 
L 287.968106 382.760928 
L 287.968106 381.378732 
L 302.35 381.378732 
L 302.35 383.394147 
L 285.409364 383.394147 
L 264.01929 382.011951 
L 264.01929 383.394147 
L 249.65 383.394147 
L 249.65 381.378732 
z
" clip-path="url(#p98ca66db87)" style="fill: #40ba47"/>
   </g>
   <g id="patch_18">
    <path d="M 249.65 373.770766 
L 264.22 373.770766 
L 275.988929 376.394362 
L 287.746786 373.770766 
L 302.35 373.770766 
L 282.665 378.030362 
L 282.665 381.131979 
L 269.346071 381.131979 
L 269.346071 378.030362 
L 249.65 373.770766 
z
" clip-path="url(#p98ca66db87)" style="fill: #177875"/>
   </g>
   <g id="patch_19">
    <path d="M 249.65 163.552988 
L 264.813382 163.552988 
L 264.813382 241.531522 
L 287.186618 241.531522 
L 287.186618 163.552988 
L 302.35 163.552988 
L 302.35 368.191818 
L 287.186618 368.191818 
L 287.186618 281.441795 
L 264.813382 281.441795 
L 264.813382 368.191818 
L 249.65 368.191818 
L 249.65 163.552988 
z
" clip-path="url(#p98ca66db87)" style="fill: #177875"/>
   </g>
   <g id="patch_20">
    <path d="M 339.405333 383.817166 
L 338.373292 383.817166 
Q 325.714313 383.817166 318.676667 383.394762 
Q 311.65 382.971696 311.65 382.217736 
Q 311.65 381.465102 318.665687 381.03872 
Q 325.681375 380.611675 338 380.611675 
Q 350.450375 380.611675 357.400188 381.034741 
Q 364.35 381.457145 364.35 382.217736 
Q 364.35 382.739606 360.661 383.116918 
Q 356.972 383.494229 350.044146 383.684543 
L 360.364563 384.380812 
L 347.771458 384.380812 
L 339.405333 383.817166 
z
M 338 381.18991 
Q 331.961458 381.18991 328.634771 381.459134 
Q 325.308083 381.728358 325.308083 382.217736 
Q 325.308083 382.715071 328.557917 382.979653 
Q 331.818729 383.243572 338 383.243572 
Q 344.071479 383.243572 347.398167 382.974348 
Q 350.724854 382.704461 350.724854 382.217736 
Q 350.724854 381.728358 347.398167 381.459134 
Q 344.071479 381.18991 338 381.18991 
z
" clip-path="url(#p98ca66db87)" style="fill: #40ba47"/>
   </g>
   <g id="patch_21">
    <path d="M 311.65 360.688401 
L 325.537864 360.688401 
L 325.537864 367.738287 
L 345.555783 360.688401 
L 361.683253 360.688401 
L 335.743078 369.837108 
L 364.35 380.004177 
L 346.964195 380.004177 
L 325.537864 372.395434 
L 325.537864 380.004177 
L 311.65 380.004177 
L 311.65 360.688401 
z
" clip-path="url(#p98ca66db87)" style="fill: #bd2e1f"/>
   </g>
   <g id="patch_22">
    <path d="M 333.032787 276.263009 
Q 337.762274 276.263009 339.814221 271.943413 
Q 341.866168 267.592963 341.866168 257.657892 
Q 341.866168 247.815384 339.814221 243.588351 
Q 337.762274 239.330464 333.032787 239.330464 
L 326.701781 239.330464 
L 326.701781 276.263009 
L 333.032787 276.263009 
z
M 326.701781 301.902896 
L 326.701781 356.391513 
L 311.65 356.391513 
L 311.65 212.425552 
L 334.634307 212.425552 
Q 346.170252 212.425552 351.537844 221.990372 
Q 356.917949 231.524337 356.917949 252.165834 
Q 356.917949 266.420501 354.11529 275.584215 
Q 351.325142 284.747929 345.694801 289.09838 
Q 348.785233 290.826218 351.225047 296.966215 
Q 353.677374 303.075358 356.179748 315.509623 
L 364.35 356.391513 
L 348.322293 356.391513 
L 341.203039 320.63143 
Q 339.050997 309.83244 336.836396 305.883095 
Q 334.634307 301.902896 330.955817 301.902896 
L 326.701781 301.902896 
z
" clip-path="url(#p98ca66db87)" style="fill: #bd2e1f"/>
   </g>
   <g id="patch_23">
    <path d="M 373.65 382.224973 
L 390.578032 382.224973 
L 411.968106 383.731844 
L 411.968106 382.224973 
L 426.35 382.224973 
L 426.35 384.422179 
L 409.409364 384.422179 
L 388.01929 382.915308 
L 388.01929 384.422179 
L 373.65 384.422179 
L 373.65 382.224973 
z
" clip-path="url(#p98ca66db87)" style="fill: #40ba47"/>
   </g>
   <g id="patch_24">
    <path d="M 373.65 373.353787 
L 426.35 373.353787 
L 426.35 375.028565 
L 407.390256 375.028565 
L 407.390256 381.941168 
L 392.646512 381.941168 
L 392.646512 375.028565 
L 373.65 375.028565 
L 373.65 373.353787 
z
" clip-path="url(#p98ca66db87)" style="fill: #40ba47"/>
   </g>
   <g id="patch_25">
    <path d="M 410.155336 371.129436 
L 389.887763 371.129436 
L 386.68762 372.875561 
L 373.65 372.875561 
L 392.269015 363.290363 
L 407.730985 363.290363 
L 426.35 372.875561 
L 413.323155 372.875561 
L 410.155336 371.129436 
z
M 393.120231 369.350443 
L 406.890544 369.350443 
L 400.016162 365.537728 
L 393.120231 369.350443 
z
" clip-path="url(#p98ca66db87)" style="fill: #21599c"/>
   </g>
   <g id="patch_26">
    <path d="M 421.955948 298.968347 
L 421.955948 312.330319 
Q 416.459804 310.004146 411.221293 308.827535 
Q 405.997094 307.6374 401.34541 307.6374 
Q 395.176562 307.6374 392.213797 309.246787 
Q 389.265345 310.84265 389.265345 314.223716 
Q 389.265345 316.766277 391.254834 318.186325 
Q 393.244324 319.592848 398.482835 320.607168 
L 405.811027 322.000167 
Q 416.946442 324.123477 421.641065 328.437717 
Q 426.35 332.738432 426.35 340.690699 
Q 426.35 351.117906 419.794704 356.216553 
Q 413.239408 361.315201 399.770994 361.315201 
Q 393.430391 361.315201 387.032537 360.165638 
Q 380.634682 359.0296 374.236828 356.784573 
L 374.236828 343.057445 
Q 380.634682 346.262696 386.60315 347.899132 
Q 392.571619 349.522043 398.125014 349.522043 
Q 403.764286 349.522043 406.755676 347.750365 
Q 409.747067 345.965162 409.747067 342.665242 
Q 409.747067 339.716952 407.714639 338.107565 
Q 405.682211 336.498178 399.59924 335.226897 
L 392.929441 333.833898 
Q 382.910429 331.805258 378.273058 327.3693 
Q 373.65 322.933341 373.65 315.413851 
Q 373.65 305.98744 380.090793 300.915841 
Q 386.531586 295.844242 398.611651 295.844242 
Q 404.122108 295.844242 409.933134 296.628649 
Q 415.744161 297.413057 421.955948 298.968347 
z
" clip-path="url(#p98ca66db87)" style="fill: #40ba47"/>
   </g>
   <g id="patch_27">
    <path d="M 435.65 101.012206 
L 463.043021 101.012206 
Q 475.271068 101.012206 481.803672 124.453046 
Q 488.35 147.834691 488.35 191.105534 
Q 488.35 234.613154 481.803672 257.994799 
Q 475.271068 281.376445 463.043021 281.376445 
L 452.159922 281.376445 
L 452.159922 377.211595 
L 435.65 377.211595 
L 435.65 101.012206 
z
M 452.159922 152.629409 
L 452.159922 229.759242 
L 461.286354 229.759242 
Q 466.08974 229.759242 468.711016 219.696256 
Q 471.332292 209.633269 471.332292 191.105534 
Q 471.332292 172.636994 468.711016 162.633201 
Q 466.08974 152.629409 461.286354 152.629409 
L 452.159922 152.629409 
z
" clip-path="url(#p98ca66db87)" style="fill: #787800"/>
   </g>
   <g id="patch_28">
    <path d="M 497.65 379.974203 
L 511.537864 379.974203 
L 511.537864 381.576565 
L 531.555783 379.974203 
L 547.683253 379.974203 
L 521.743078 382.053604 
L 550.35 384.364467 
L 532.964195 384.364467 
L 511.537864 382.635083 
L 511.537864 384.364467 
L 497.65 384.364467 
L 497.65 379.974203 
z
" clip-path="url(#p98ca66db87)" style="fill: #bd2e1f"/>
   </g>
   <g id="patch_29">
    <path d="M 525.405333 378.257048 
L 524.373292 378.257048 
Q 511.714313 378.257048 504.676667 377.236385 
Q 497.65 376.21412 497.65 374.392308 
Q 497.65 372.573702 504.665687 371.543425 
Q 511.681375 370.511546 524 370.511546 
Q 536.450375 370.511546 543.400187 371.533811 
Q 550.35 372.554474 550.35 374.392308 
Q 550.35 375.653316 546.661 376.565023 
Q 542.972 377.476729 536.044146 377.936589 
L 546.364562 379.619 
L 533.771458 379.619 
L 525.405333 378.257048 
z
M 524 371.908749 
Q 517.961458 371.908749 514.634771 372.559281 
Q 511.308083 373.209814 511.308083 374.392308 
Q 511.308083 375.594031 514.557917 376.233347 
Q 517.818729 376.871061 524 376.871061 
Q 530.071479 376.871061 533.398167 376.220529 
Q 536.724854 375.568394 536.724854 374.392308 
Q 536.724854 373.209814 533.398167 372.559281 
Q 530.071479 371.908749 524 371.908749 
z
" clip-path="url(#p98ca66db87)" style="fill: #40ba47"/>
   </g>
   <g id="patch_30">
    <path d="M 512.091481 361.788585 
L 512.091481 368.015252 
L 517.265444 368.015252 
Q 526.112802 368.015252 530.782574 367.214774 
Q 535.464351 366.414297 535.464351 364.88989 
Q 535.464351 363.374231 530.806583 362.582502 
Q 526.16082 361.788585 517.265444 361.788585 
L 512.091481 361.788585 
z
M 497.65 359.798326 
L 512.871777 359.798326 
Q 525.63262 359.798326 531.874989 360.130765 
Q 538.117358 360.461017 542.583052 361.254933 
Q 546.520547 361.946056 548.429271 362.849328 
Q 550.35 363.750412 550.35 364.88989 
Q 550.35 366.046864 548.429271 366.952323 
Q 546.520547 367.857781 542.583052 368.546717 
Q 538.081344 369.340633 531.778952 369.673072 
Q 525.47656 370.003324 512.871777 370.003324 
L 497.65 370.003324 
L 497.65 359.798326 
z
" clip-path="url(#p98ca66db87)" style="fill: #6b296b"/>
   </g>
   <g id="patch_31">
    <path d="M 497.65 245.24535 
L 549.253077 245.24535 
L 549.253077 266.962493 
L 516.774615 266.962493 
L 516.774615 287.677307 
L 547.329487 287.677307 
L 547.329487 309.394449 
L 516.774615 309.394449 
L 516.774615 334.906126 
L 550.35 334.906126 
L 550.35 356.599404 
L 497.65 356.599404 
L 497.65 245.24535 
z
" clip-path="url(#p98ca66db87)" style="fill: #6b296b"/>
   </g>
   <g id="patch_32">
    <path d="M 559.65 379.617838 
L 568.762642 379.617838 
L 575.132798 383.060794 
L 581.455534 379.617838 
L 590.615597 379.617838 
L 596.938332 383.060794 
L 603.316392 379.617838 
L 612.35 379.617838 
L 603.656239 384.355329 
L 592.694196 384.355329 
L 586 380.753983 
L 579.384838 384.355329 
L 568.414892 384.355329 
L 559.65 379.617838 
z
" clip-path="url(#p98ca66db87)" style="fill: #21599c"/>
   </g>
   <g id="patch_33">
    <path d="M 559.65 373.30325 
L 574.813382 373.30325 
L 574.813382 375.601466 
L 597.186618 375.601466 
L 597.186618 373.30325 
L 612.35 373.30325 
L 612.35 379.334451 
L 597.186618 379.334451 
L 597.186618 376.777718 
L 574.813382 376.777718 
L 574.813382 379.334451 
L 559.65 379.334451 
L 559.65 373.30325 
z
" clip-path="url(#p98ca66db87)" style="fill: #177875"/>
   </g>
   <g id="patch_34">
    <path d="M 560.198462 342.844965 
L 611.801538 342.844965 
L 611.801538 348.602706 
L 579.323077 348.602706 
L 579.323077 354.094705 
L 609.877949 354.094705 
L 609.877949 359.852445 
L 579.323077 359.852445 
L 579.323077 372.367622 
L 560.198462 372.367622 
L 560.198462 342.844965 
z
" clip-path="url(#p98ca66db87)" style="fill: #21599c"/>
   </g>
   <g id="patch_35">
    <path d="M 559.65 176.94868 
L 574.22 176.94868 
L 585.988929 234.289584 
L 597.746786 176.94868 
L 612.35 176.94868 
L 592.665 270.045758 
L 592.665 337.834223 
L 579.346071 337.834223 
L 579.346071 270.045758 
L 559.65 176.94868 
z
" clip-path="url(#p98ca66db87)" style="fill: #177875"/>
   </g>
   <g id="matplotlib.axis_1">
    <g id="xtick_1">
     <g id="line2d_2">
      <defs>
       <path id="m1a81c3d215" d="M 0 0 
L 0 4.8 
" style="stroke: #262626"/>
      </defs>
      <g>
       <use xlink:href="#m1a81c3d215" x="152" y="384.48" style="fill: #262626; stroke: #262626"/>
      </g>
     </g>
     <g id="text_1">
      <!-- P4 -->
      <g style="fill: #262626" transform="translate(146.61825 399.078875) scale(0.088 -0.088)">
       <defs>
        <path id="ArialMT-50" d="M 494 0 
L 494 4581 
L 2222 4581 
Q 2678 4581 2919 4538 
Q 3256 4481 3484 4323 
Q 3713 4166 3852 3881 
Q 3991 3597 3991 3256 
Q 3991 2672 3619 2267 
Q 3247 1863 2275 1863 
L 1100 1863 
L 1100 0 
L 494 0 
z
M 1100 2403 
L 2284 2403 
Q 2872 2403 3119 2622 
Q 3366 2841 3366 3238 
Q 3366 3525 3220 3729 
Q 3075 3934 2838 4000 
Q 2684 4041 2272 4041 
L 1100 4041 
L 1100 2403 
z
" transform="scale(0.015625)"/>
        <path id="ArialMT-34" d="M 2069 0 
L 2069 1097 
L 81 1097 
L 81 1613 
L 2172 4581 
L 2631 4581 
L 2631 1613 
L 3250 1613 
L 3250 1097 
L 2631 1097 
L 2631 0 
L 2069 0 
z
M 2069 1613 
L 2069 3678 
L 634 1613 
L 2069 1613 
z
" transform="scale(0.015625)"/>
       </defs>
       <use xlink:href="#ArialMT-50"/>
       <use xlink:href="#ArialMT-34" x="66.699219"/>
      </g>
     </g>
    </g>
    <g id="xtick_2">
     <g id="line2d_3">
      <g>
       <use xlink:href="#m1a81c3d215" x="214" y="384.48" style="fill: #262626; stroke: #262626"/>
      </g>
     </g>
     <g id="text_2">
      <!-- P3 -->
      <g style="fill: #262626" transform="translate(208.61825 399.078875) scale(0.088 -0.088)">
       <defs>
        <path id="ArialMT-33" d="M 269 1209 
L 831 1284 
Q 928 806 1161 595 
Q 1394 384 1728 384 
Q 2125 384 2398 659 
Q 2672 934 2672 1341 
Q 2672 1728 2419 1979 
Q 2166 2231 1775 2231 
Q 1616 2231 1378 2169 
L 1441 2663 
Q 1497 2656 1531 2656 
Q 1891 2656 2178 2843 
Q 2466 3031 2466 3422 
Q 2466 3731 2256 3934 
Q 2047 4138 1716 4138 
Q 1388 4138 1169 3931 
Q 950 3725 888 3313 
L 325 3413 
Q 428 3978 793 4289 
Q 1159 4600 1703 4600 
Q 2078 4600 2393 4439 
Q 2709 4278 2876 4000 
Q 3044 3722 3044 3409 
Q 3044 3113 2884 2869 
Q 2725 2625 2413 2481 
Q 2819 2388 3044 2092 
Q 3269 1797 3269 1353 
Q 3269 753 2831 336 
Q 2394 -81 1725 -81 
Q 1122 -81 723 278 
Q 325 638 269 1209 
z
" transform="scale(0.015625)"/>
       </defs>
       <use xlink:href="#ArialMT-50"/>
       <use xlink:href="#ArialMT-33" x="66.699219"/>
      </g>
     </g>
    </g>
    <g id="xtick_3">
     <g id="line2d_4">
      <g>
       <use xlink:href="#m1a81c3d215" x="276" y="384.48" style="fill: #262626; stroke: #262626"/>
      </g>
     </g>
     <g id="text_3">
      <!-- P2 -->
      <g style="fill: #262626" transform="translate(270.61825 399.078875) scale(0.088 -0.088)">
       <defs>
        <path id="ArialMT-32" d="M 3222 541 
L 3222 0 
L 194 0 
Q 188 203 259 391 
Q 375 700 629 1000 
Q 884 1300 1366 1694 
Q 2113 2306 2375 2664 
Q 2638 3022 2638 3341 
Q 2638 3675 2398 3904 
Q 2159 4134 1775 4134 
Q 1369 4134 1125 3890 
Q 881 3647 878 3216 
L 300 3275 
Q 359 3922 746 4261 
Q 1134 4600 1788 4600 
Q 2447 4600 2831 4234 
Q 3216 3869 3216 3328 
Q 3216 3053 3103 2787 
Q 2991 2522 2730 2228 
Q 2469 1934 1863 1422 
Q 1356 997 1212 845 
Q 1069 694 975 541 
L 3222 541 
z
" transform="scale(0.015625)"/>
       </defs>
       <use xlink:href="#ArialMT-50"/>
       <use xlink:href="#ArialMT-32" x="66.699219"/>
      </g>
     </g>
    </g>
    <g id="xtick_4">
     <g id="line2d_5">
      <g>
       <use xlink:href="#m1a81c3d215" x="338" y="384.48" style="fill: #262626; stroke: #262626"/>
      </g>
     </g>
     <g id="text_4">
      <!-- P1 -->
      <g style="fill: #262626" transform="translate(332.61825 399.078875) scale(0.088 -0.088)">
       <defs>
        <path id="ArialMT-31" d="M 2384 0 
L 1822 0 
L 1822 3584 
Q 1619 3391 1289 3197 
Q 959 3003 697 2906 
L 697 3450 
Q 1169 3672 1522 3987 
Q 1875 4303 2022 4600 
L 2384 4600 
L 2384 0 
z
" transform="scale(0.015625)"/>
       </defs>
       <use xlink:href="#ArialMT-50"/>
       <use xlink:href="#ArialMT-31" x="66.699219"/>
      </g>
     </g>
    </g>
    <g id="xtick_5">
     <g id="line2d_6">
      <g>
       <use xlink:href="#m1a81c3d215" x="400" y="384.48" style="fill: #262626; stroke: #262626"/>
      </g>
     </g>
     <g id="text_5">
      <!-- P1' -->
      <g style="fill: #262626" transform="translate(393.778125 399.078875) scale(0.088 -0.088)">
       <defs>
        <path id="ArialMT-27" d="M 425 2959 
L 281 3816 
L 281 4581 
L 922 4581 
L 922 3816 
L 772 2959 
L 425 2959 
z
" transform="scale(0.015625)"/>
       </defs>
       <use xlink:href="#ArialMT-50"/>
       <use xlink:href="#ArialMT-31" x="66.699219"/>
       <use xlink:href="#ArialMT-27" x="122.314453"/>
      </g>
     </g>
    </g>
    <g id="xtick_6">
     <g id="line2d_7">
      <g>
       <use xlink:href="#m1a81c3d215" x="462" y="384.48" style="fill: #262626; stroke: #262626"/>
      </g>
     </g>
     <g id="text_6">
      <!-- P2' -->
      <g style="fill: #262626" transform="translate(455.778125 399.078875) scale(0.088 -0.088)">
       <use xlink:href="#ArialMT-50"/>
       <use xlink:href="#ArialMT-32" x="66.699219"/>
       <use xlink:href="#ArialMT-27" x="122.314453"/>
      </g>
     </g>
    </g>
    <g id="xtick_7">
     <g id="line2d_8">
      <g>
       <use xlink:href="#m1a81c3d215" x="524" y="384.48" style="fill: #262626; stroke: #262626"/>
      </g>
     </g>
     <g id="text_7">
      <!-- P3' -->
      <g style="fill: #262626" transform="translate(517.778125 399.078875) scale(0.088 -0.088)">
       <use xlink:href="#ArialMT-50"/>
       <use xlink:href="#ArialMT-33" x="66.699219"/>
       <use xlink:href="#ArialMT-27" x="122.314453"/>
      </g>
     </g>
    </g>
    <g id="xtick_8">
     <g id="line2d_9">
      <g>
       <use xlink:href="#m1a81c3d215" x="586" y="384.48" style="fill: #262626; stroke: #262626"/>
      </g>
     </g>
     <g id="text_8">
      <!-- P4' -->
      <g style="fill: #262626" transform="translate(579.778125 399.078875) scale(0.088 -0.088)">
       <use xlink:href="#ArialMT-50"/>
       <use xlink:href="#ArialMT-34" x="66.699219"/>
       <use xlink:href="#ArialMT-27" x="122.314453"/>
      </g>
     </g>
    </g>
   </g>
   <g id="matplotlib.axis_2">
    <g id="ytick_1">
     <g id="line2d_10">
      <defs>
       <path id="mdff0111ead" d="M 0 0 
L -4.8 0 
" style="stroke: #262626"/>
      </defs>
      <g>
       <use xlink:href="#mdff0111ead" x="90" y="384.48" style="fill: #262626; stroke: #262626"/>
      </g>
     </g>
     <g id="text_9">
      <!-- 0.00 -->
      <g style="fill: #262626" transform="translate(64.574375 387.629437) scale(0.088 -0.088)">
       <defs>
        <path id="ArialMT-30" d="M 266 2259 
Q 266 3072 433 3567 
Q 600 4063 929 4331 
Q 1259 4600 1759 4600 
Q 2128 4600 2406 4451 
Q 2684 4303 2865 4023 
Q 3047 3744 3150 3342 
Q 3253 2941 3253 2259 
Q 3253 1453 3087 958 
Q 2922 463 2592 192 
Q 2263 -78 1759 -78 
Q 1097 -78 719 397 
Q 266 969 266 2259 
z
M 844 2259 
Q 844 1131 1108 757 
Q 1372 384 1759 384 
Q 2147 384 2411 759 
Q 2675 1134 2675 2259 
Q 2675 3391 2411 3762 
Q 2147 4134 1753 4134 
Q 1366 4134 1134 3806 
Q 844 3388 844 2259 
z
" transform="scale(0.015625)"/>
        <path id="ArialMT-2e" d="M 581 0 
L 581 641 
L 1222 641 
L 1222 0 
L 581 0 
z
" transform="scale(0.015625)"/>
       </defs>
       <use xlink:href="#ArialMT-30"/>
       <use xlink:href="#ArialMT-2e" x="55.615234"/>
       <use xlink:href="#ArialMT-30" x="83.398438"/>
       <use xlink:href="#ArialMT-30" x="139.013672"/>
      </g>
     </g>
    </g>
    <g id="ytick_2">
     <g id="line2d_11">
      <g>
       <use xlink:href="#mdff0111ead" x="90" y="344.255335" style="fill: #262626; stroke: #262626"/>
      </g>
     </g>
     <g id="text_10">
      <!-- 0.25 -->
      <g style="fill: #262626" transform="translate(64.574375 347.404772) scale(0.088 -0.088)">
       <defs>
        <path id="ArialMT-35" d="M 266 1200 
L 856 1250 
Q 922 819 1161 601 
Q 1400 384 1738 384 
Q 2144 384 2425 690 
Q 2706 997 2706 1503 
Q 2706 1984 2436 2262 
Q 2166 2541 1728 2541 
Q 1456 2541 1237 2417 
Q 1019 2294 894 2097 
L 366 2166 
L 809 4519 
L 3088 4519 
L 3088 3981 
L 1259 3981 
L 1013 2750 
Q 1425 3038 1878 3038 
Q 2478 3038 2890 2622 
Q 3303 2206 3303 1553 
Q 3303 931 2941 478 
Q 2500 -78 1738 -78 
Q 1113 -78 717 272 
Q 322 622 266 1200 
z
" transform="scale(0.015625)"/>
       </defs>
       <use xlink:href="#ArialMT-30"/>
       <use xlink:href="#ArialMT-2e" x="55.615234"/>
       <use xlink:href="#ArialMT-32" x="83.398438"/>
       <use xlink:href="#ArialMT-35" x="139.013672"/>
      </g>
     </g>
    </g>
    <g id="ytick_3">
     <g id="line2d_12">
      <g>
       <use xlink:href="#mdff0111ead" x="90" y="304.030669" style="fill: #262626; stroke: #262626"/>
      </g>
     </g>
     <g id="text_11">
      <!-- 0.50 -->
      <g style="fill: #262626" transform="translate(64.574375 307.180107) scale(0.088 -0.088)">
       <use xlink:href="#ArialMT-30"/>
       <use xlink:href="#ArialMT-2e" x="55.615234"/>
       <use xlink:href="#ArialMT-35" x="83.398438"/>
       <use xlink:href="#ArialMT-30" x="139.013672"/>
      </g>
     </g>
    </g>
    <g id="ytick_4">
     <g id="line2d_13">
      <g>
       <use xlink:href="#mdff0111ead" x="90" y="263.806004" style="fill: #262626; stroke: #262626"/>
      </g>
     </g>
     <g id="text_12">
      <!-- 0.75 -->
      <g style="fill: #262626" transform="translate(64.574375 266.955441) scale(0.088 -0.088)">
       <defs>
        <path id="ArialMT-37" d="M 303 3981 
L 303 4522 
L 3269 4522 
L 3269 4084 
Q 2831 3619 2401 2847 
Q 1972 2075 1738 1259 
Q 1569 684 1522 0 
L 944 0 
Q 953 541 1156 1306 
Q 1359 2072 1739 2783 
Q 2119 3494 2547 3981 
L 303 3981 
z
" transform="scale(0.015625)"/>
       </defs>
       <use xlink:href="#ArialMT-30"/>
       <use xlink:href="#ArialMT-2e" x="55.615234"/>
       <use xlink:href="#ArialMT-37" x="83.398438"/>
       <use xlink:href="#ArialMT-35" x="139.013672"/>
      </g>
     </g>
    </g>
    <g id="ytick_5">
     <g id="line2d_14">
      <g>
       <use xlink:href="#mdff0111ead" x="90" y="223.581338" style="fill: #262626; stroke: #262626"/>
      </g>
     </g>
     <g id="text_13">
      <!-- 1.00 -->
      <g style="fill: #262626" transform="translate(64.574375 226.730776) scale(0.088 -0.088)">
       <use xlink:href="#ArialMT-31"/>
       <use xlink:href="#ArialMT-2e" x="55.615234"/>
       <use xlink:href="#ArialMT-30" x="83.398438"/>
       <use xlink:href="#ArialMT-30" x="139.013672"/>
      </g>
     </g>
    </g>
    <g id="ytick_6">
     <g id="line2d_15">
      <g>
       <use xlink:href="#mdff0111ead" x="90" y="183.356673" style="fill: #262626; stroke: #262626"/>
      </g>
     </g>
     <g id="text_14">
      <!-- 1.25 -->
      <g style="fill: #262626" transform="translate(64.574375 186.50611) scale(0.088 -0.088)">
       <use xlink:href="#ArialMT-31"/>
       <use xlink:href="#ArialMT-2e" x="55.615234"/>
       <use xlink:href="#ArialMT-32" x="83.398438"/>
       <use xlink:href="#ArialMT-35" x="139.013672"/>
      </g>
     </g>
    </g>
    <g id="ytick_7">
     <g id="line2d_16">
      <g>
       <use xlink:href="#mdff0111ead" x="90" y="143.132008" style="fill: #262626; stroke: #262626"/>
      </g>
     </g>
     <g id="text_15">
      <!-- 1.50 -->
      <g style="fill: #262626" transform="translate(64.574375 146.281445) scale(0.088 -0.088)">
       <use xlink:href="#ArialMT-31"/>
       <use xlink:href="#ArialMT-2e" x="55.615234"/>
       <use xlink:href="#ArialMT-35" x="83.398438"/>
       <use xlink:href="#ArialMT-30" x="139.013672"/>
      </g>
     </g>
    </g>
    <g id="ytick_8">
     <g id="line2d_17">
      <g>
       <use xlink:href="#mdff0111ead" x="90" y="102.907342" style="fill: #262626; stroke: #262626"/>
      </g>
     </g>
     <g id="text_16">
      <!-- 1.75 -->
      <g style="fill: #262626" transform="translate(64.574375 106.05678) scale(0.088 -0.088)">
       <use xlink:href="#ArialMT-31"/>
       <use xlink:href="#ArialMT-2e" x="55.615234"/>
       <use xlink:href="#ArialMT-37" x="83.398438"/>
       <use xlink:href="#ArialMT-35" x="139.013672"/>
      </g>
     </g>
    </g>
    <g id="ytick_9">
     <g id="line2d_18">
      <g>
       <use xlink:href="#mdff0111ead" x="90" y="62.682677" style="fill: #262626; stroke: #262626"/>
      </g>
     </g>
     <g id="text_17">
      <!-- 2.00 -->
      <g style="fill: #262626" transform="translate(64.574375 65.832114) scale(0.088 -0.088)">
       <use xlink:href="#ArialMT-32"/>
       <use xlink:href="#ArialMT-2e" x="55.615234"/>
       <use xlink:href="#ArialMT-30" x="83.398438"/>
       <use xlink:href="#ArialMT-30" x="139.013672"/>
      </g>
     </g>
    </g>
    <g id="text_18">
     <!-- information (bits) -->
     <g style="fill: #262626" transform="translate(58.553875 253.902) rotate(-90) scale(0.096 -0.096)">
      <defs>
       <path id="ArialMT-69" d="M 425 3934 
L 425 4581 
L 988 4581 
L 988 3934 
L 425 3934 
z
M 425 0 
L 425 3319 
L 988 3319 
L 988 0 
L 425 0 
z
" transform="scale(0.015625)"/>
       <path id="ArialMT-6e" d="M 422 0 
L 422 3319 
L 928 3319 
L 928 2847 
Q 1294 3394 1984 3394 
Q 2284 3394 2536 3286 
Q 2788 3178 2913 3003 
Q 3038 2828 3088 2588 
Q 3119 2431 3119 2041 
L 3119 0 
L 2556 0 
L 2556 2019 
Q 2556 2363 2490 2533 
Q 2425 2703 2258 2804 
Q 2091 2906 1866 2906 
Q 1506 2906 1245 2678 
Q 984 2450 984 1813 
L 984 0 
L 422 0 
z
" transform="scale(0.015625)"/>
       <path id="ArialMT-66" d="M 556 0 
L 556 2881 
L 59 2881 
L 59 3319 
L 556 3319 
L 556 3672 
Q 556 4006 616 4169 
Q 697 4388 901 4523 
Q 1106 4659 1475 4659 
Q 1713 4659 2000 4603 
L 1916 4113 
Q 1741 4144 1584 4144 
Q 1328 4144 1222 4034 
Q 1116 3925 1116 3625 
L 1116 3319 
L 1763 3319 
L 1763 2881 
L 1116 2881 
L 1116 0 
L 556 0 
z
" transform="scale(0.015625)"/>
       <path id="ArialMT-6f" d="M 213 1659 
Q 213 2581 725 3025 
Q 1153 3394 1769 3394 
Q 2453 3394 2887 2945 
Q 3322 2497 3322 1706 
Q 3322 1066 3130 698 
Q 2938 331 2570 128 
Q 2203 -75 1769 -75 
Q 1072 -75 642 372 
Q 213 819 213 1659 
z
M 791 1659 
Q 791 1022 1069 705 
Q 1347 388 1769 388 
Q 2188 388 2466 706 
Q 2744 1025 2744 1678 
Q 2744 2294 2464 2611 
Q 2184 2928 1769 2928 
Q 1347 2928 1069 2612 
Q 791 2297 791 1659 
z
" transform="scale(0.015625)"/>
       <path id="ArialMT-72" d="M 416 0 
L 416 3319 
L 922 3319 
L 922 2816 
Q 1116 3169 1280 3281 
Q 1444 3394 1641 3394 
Q 1925 3394 2219 3213 
L 2025 2691 
Q 1819 2813 1613 2813 
Q 1428 2813 1281 2702 
Q 1134 2591 1072 2394 
Q 978 2094 978 1738 
L 978 0 
L 416 0 
z
" transform="scale(0.015625)"/>
       <path id="ArialMT-6d" d="M 422 0 
L 422 3319 
L 925 3319 
L 925 2853 
Q 1081 3097 1340 3245 
Q 1600 3394 1931 3394 
Q 2300 3394 2536 3241 
Q 2772 3088 2869 2813 
Q 3263 3394 3894 3394 
Q 4388 3394 4653 3120 
Q 4919 2847 4919 2278 
L 4919 0 
L 4359 0 
L 4359 2091 
Q 4359 2428 4304 2576 
Q 4250 2725 4106 2815 
Q 3963 2906 3769 2906 
Q 3419 2906 3187 2673 
Q 2956 2441 2956 1928 
L 2956 0 
L 2394 0 
L 2394 2156 
Q 2394 2531 2256 2718 
Q 2119 2906 1806 2906 
Q 1569 2906 1367 2781 
Q 1166 2656 1075 2415 
Q 984 2175 984 1722 
L 984 0 
L 422 0 
z
" transform="scale(0.015625)"/>
       <path id="ArialMT-61" d="M 2588 409 
Q 2275 144 1986 34 
Q 1697 -75 1366 -75 
Q 819 -75 525 192 
Q 231 459 231 875 
Q 231 1119 342 1320 
Q 453 1522 633 1644 
Q 813 1766 1038 1828 
Q 1203 1872 1538 1913 
Q 2219 1994 2541 2106 
Q 2544 2222 2544 2253 
Q 2544 2597 2384 2738 
Q 2169 2928 1744 2928 
Q 1347 2928 1158 2789 
Q 969 2650 878 2297 
L 328 2372 
Q 403 2725 575 2942 
Q 747 3159 1072 3276 
Q 1397 3394 1825 3394 
Q 2250 3394 2515 3294 
Q 2781 3194 2906 3042 
Q 3031 2891 3081 2659 
Q 3109 2516 3109 2141 
L 3109 1391 
Q 3109 606 3145 398 
Q 3181 191 3288 0 
L 2700 0 
Q 2613 175 2588 409 
z
M 2541 1666 
Q 2234 1541 1622 1453 
Q 1275 1403 1131 1340 
Q 988 1278 909 1158 
Q 831 1038 831 891 
Q 831 666 1001 516 
Q 1172 366 1500 366 
Q 1825 366 2078 508 
Q 2331 650 2450 897 
Q 2541 1088 2541 1459 
L 2541 1666 
z
" transform="scale(0.015625)"/>
       <path id="ArialMT-74" d="M 1650 503 
L 1731 6 
Q 1494 -44 1306 -44 
Q 1000 -44 831 53 
Q 663 150 594 308 
Q 525 466 525 972 
L 525 2881 
L 113 2881 
L 113 3319 
L 525 3319 
L 525 4141 
L 1084 4478 
L 1084 3319 
L 1650 3319 
L 1650 2881 
L 1084 2881 
L 1084 941 
Q 1084 700 1114 631 
Q 1144 563 1211 522 
Q 1278 481 1403 481 
Q 1497 481 1650 503 
z
" transform="scale(0.015625)"/>
       <path id="ArialMT-20" transform="scale(0.015625)"/>
       <path id="ArialMT-28" d="M 1497 -1347 
Q 1031 -759 709 28 
Q 388 816 388 1659 
Q 388 2403 628 3084 
Q 909 3875 1497 4659 
L 1900 4659 
Q 1522 4009 1400 3731 
Q 1209 3300 1100 2831 
Q 966 2247 966 1656 
Q 966 153 1900 -1347 
L 1497 -1347 
z
" transform="scale(0.015625)"/>
       <path id="ArialMT-62" d="M 941 0 
L 419 0 
L 419 4581 
L 981 4581 
L 981 2947 
Q 1338 3394 1891 3394 
Q 2197 3394 2470 3270 
Q 2744 3147 2920 2923 
Q 3097 2700 3197 2384 
Q 3297 2069 3297 1709 
Q 3297 856 2875 390 
Q 2453 -75 1863 -75 
Q 1275 -75 941 416 
L 941 0 
z
M 934 1684 
Q 934 1088 1097 822 
Q 1363 388 1816 388 
Q 2184 388 2453 708 
Q 2722 1028 2722 1663 
Q 2722 2313 2464 2622 
Q 2206 2931 1841 2931 
Q 1472 2931 1203 2611 
Q 934 2291 934 1684 
z
" transform="scale(0.015625)"/>
       <path id="ArialMT-73" d="M 197 991 
L 753 1078 
Q 800 744 1014 566 
Q 1228 388 1613 388 
Q 2000 388 2187 545 
Q 2375 703 2375 916 
Q 2375 1106 2209 1216 
Q 2094 1291 1634 1406 
Q 1016 1563 777 1677 
Q 538 1791 414 1992 
Q 291 2194 291 2438 
Q 291 2659 392 2848 
Q 494 3038 669 3163 
Q 800 3259 1026 3326 
Q 1253 3394 1513 3394 
Q 1903 3394 2198 3281 
Q 2494 3169 2634 2976 
Q 2775 2784 2828 2463 
L 2278 2388 
Q 2241 2644 2061 2787 
Q 1881 2931 1553 2931 
Q 1166 2931 1000 2803 
Q 834 2675 834 2503 
Q 834 2394 903 2306 
Q 972 2216 1119 2156 
Q 1203 2125 1616 2013 
Q 2213 1853 2448 1751 
Q 2684 1650 2818 1456 
Q 2953 1263 2953 975 
Q 2953 694 2789 445 
Q 2625 197 2315 61 
Q 2006 -75 1616 -75 
Q 969 -75 630 194 
Q 291 463 197 991 
z
" transform="scale(0.015625)"/>
       <path id="ArialMT-29" d="M 791 -1347 
L 388 -1347 
Q 1322 153 1322 1656 
Q 1322 2244 1188 2822 
Q 1081 3291 891 3722 
Q 769 4003 388 4659 
L 791 4659 
Q 1378 3875 1659 3084 
Q 1900 2403 1900 1659 
Q 1900 816 1576 28 
Q 1253 -759 791 -1347 
z
" transform="scale(0.015625)"/>
      </defs>
      <use xlink:href="#ArialMT-69"/>
      <use xlink:href="#ArialMT-6e" x="22.216797"/>
      <use xlink:href="#ArialMT-66" x="77.832031"/>
      <use xlink:href="#ArialMT-6f" x="105.615234"/>
      <use xlink:href="#ArialMT-72" x="161.230469"/>
      <use xlink:href="#ArialMT-6d" x="194.53125"/>
      <use xlink:href="#ArialMT-61" x="277.832031"/>
      <use xlink:href="#ArialMT-74" x="333.447266"/>
      <use xlink:href="#ArialMT-69" x="361.230469"/>
      <use xlink:href="#ArialMT-6f" x="383.447266"/>
      <use xlink:href="#ArialMT-6e" x="439.0625"/>
      <use xlink:href="#ArialMT-20" x="494.677734"/>
      <use xlink:href="#ArialMT-28" x="522.460938"/>
      <use xlink:href="#ArialMT-62" x="555.761719"/>
      <use xlink:href="#ArialMT-69" x="611.376953"/>
      <use xlink:href="#ArialMT-74" x="633.59375"/>
      <use xlink:href="#ArialMT-73" x="661.376953"/>
      <use xlink:href="#ArialMT-29" x="711.376953"/>
     </g>
    </g>
   </g>
   <g id="line2d_19">
    <path d="M 369 384.48 
L 369 51.84 
" clip-path="url(#p98ca66db87)" style="fill: none; stroke: #daa520; stroke-width: 2; stroke-linecap: round"/>
   </g>
   <g id="patch_36">
    <path d="M 90 384.48 
L 648 384.48 
" style="fill: none; stroke: #262626; stroke-linejoin: miter; stroke-linecap: square"/>
   </g>
   <g id="patch_37">
    <path d="M 90 51.84 
L 648 51.84 
" style="fill: none; stroke: #262626; stroke-linejoin: miter; stroke-linecap: square"/>
   </g>
   <g id="text_19">
    <!-- KO_untreated vs. WT_Treated information content, Kullback n=1 -->
    <g style="fill: #262626" transform="translate(231.38325 45.84) scale(0.096 -0.096)">
     <defs>
      <path id="ArialMT-4b" d="M 469 0 
L 469 4581 
L 1075 4581 
L 1075 2309 
L 3350 4581 
L 4172 4581 
L 2250 2725 
L 4256 0 
L 3456 0 
L 1825 2319 
L 1075 1588 
L 1075 0 
L 469 0 
z
" transform="scale(0.015625)"/>
      <path id="ArialMT-4f" d="M 309 2231 
Q 309 3372 921 4017 
Q 1534 4663 2503 4663 
Q 3138 4663 3647 4359 
Q 4156 4056 4423 3514 
Q 4691 2972 4691 2284 
Q 4691 1588 4409 1038 
Q 4128 488 3612 205 
Q 3097 -78 2500 -78 
Q 1853 -78 1343 234 
Q 834 547 571 1087 
Q 309 1628 309 2231 
z
M 934 2222 
Q 934 1394 1379 917 
Q 1825 441 2497 441 
Q 3181 441 3623 922 
Q 4066 1403 4066 2288 
Q 4066 2847 3877 3264 
Q 3688 3681 3323 3911 
Q 2959 4141 2506 4141 
Q 1863 4141 1398 3698 
Q 934 3256 934 2222 
z
" transform="scale(0.015625)"/>
      <path id="ArialMT-5f" d="M -97 -1272 
L -97 -866 
L 3631 -866 
L 3631 -1272 
L -97 -1272 
z
" transform="scale(0.015625)"/>
      <path id="ArialMT-75" d="M 2597 0 
L 2597 488 
Q 2209 -75 1544 -75 
Q 1250 -75 995 37 
Q 741 150 617 320 
Q 494 491 444 738 
Q 409 903 409 1263 
L 409 3319 
L 972 3319 
L 972 1478 
Q 972 1038 1006 884 
Q 1059 663 1231 536 
Q 1403 409 1656 409 
Q 1909 409 2131 539 
Q 2353 669 2445 892 
Q 2538 1116 2538 1541 
L 2538 3319 
L 3100 3319 
L 3100 0 
L 2597 0 
z
" transform="scale(0.015625)"/>
      <path id="ArialMT-65" d="M 2694 1069 
L 3275 997 
Q 3138 488 2766 206 
Q 2394 -75 1816 -75 
Q 1088 -75 661 373 
Q 234 822 234 1631 
Q 234 2469 665 2931 
Q 1097 3394 1784 3394 
Q 2450 3394 2872 2941 
Q 3294 2488 3294 1666 
Q 3294 1616 3291 1516 
L 816 1516 
Q 847 969 1125 678 
Q 1403 388 1819 388 
Q 2128 388 2347 550 
Q 2566 713 2694 1069 
z
M 847 1978 
L 2700 1978 
Q 2663 2397 2488 2606 
Q 2219 2931 1791 2931 
Q 1403 2931 1139 2672 
Q 875 2413 847 1978 
z
" transform="scale(0.015625)"/>
      <path id="ArialMT-64" d="M 2575 0 
L 2575 419 
Q 2259 -75 1647 -75 
Q 1250 -75 917 144 
Q 584 363 401 755 
Q 219 1147 219 1656 
Q 219 2153 384 2558 
Q 550 2963 881 3178 
Q 1213 3394 1622 3394 
Q 1922 3394 2156 3267 
Q 2391 3141 2538 2938 
L 2538 4581 
L 3097 4581 
L 3097 0 
L 2575 0 
z
M 797 1656 
Q 797 1019 1065 703 
Q 1334 388 1700 388 
Q 2069 388 2326 689 
Q 2584 991 2584 1609 
Q 2584 2291 2321 2609 
Q 2059 2928 1675 2928 
Q 1300 2928 1048 2622 
Q 797 2316 797 1656 
z
" transform="scale(0.015625)"/>
      <path id="ArialMT-76" d="M 1344 0 
L 81 3319 
L 675 3319 
L 1388 1331 
Q 1503 1009 1600 663 
Q 1675 925 1809 1294 
L 2547 3319 
L 3125 3319 
L 1869 0 
L 1344 0 
z
" transform="scale(0.015625)"/>
      <path id="ArialMT-57" d="M 1294 0 
L 78 4581 
L 700 4581 
L 1397 1578 
Q 1509 1106 1591 641 
Q 1766 1375 1797 1488 
L 2669 4581 
L 3400 4581 
L 4056 2263 
Q 4303 1400 4413 641 
Q 4500 1075 4641 1638 
L 5359 4581 
L 5969 4581 
L 4713 0 
L 4128 0 
L 3163 3491 
Q 3041 3928 3019 4028 
Q 2947 3713 2884 3491 
L 1913 0 
L 1294 0 
z
" transform="scale(0.015625)"/>
      <path id="ArialMT-54" d="M 1659 0 
L 1659 4041 
L 150 4041 
L 150 4581 
L 3781 4581 
L 3781 4041 
L 2266 4041 
L 2266 0 
L 1659 0 
z
" transform="scale(0.015625)"/>
      <path id="ArialMT-63" d="M 2588 1216 
L 3141 1144 
Q 3050 572 2676 248 
Q 2303 -75 1759 -75 
Q 1078 -75 664 370 
Q 250 816 250 1647 
Q 250 2184 428 2587 
Q 606 2991 970 3192 
Q 1334 3394 1763 3394 
Q 2303 3394 2647 3120 
Q 2991 2847 3088 2344 
L 2541 2259 
Q 2463 2594 2264 2762 
Q 2066 2931 1784 2931 
Q 1359 2931 1093 2626 
Q 828 2322 828 1663 
Q 828 994 1084 691 
Q 1341 388 1753 388 
Q 2084 388 2306 591 
Q 2528 794 2588 1216 
z
" transform="scale(0.015625)"/>
      <path id="ArialMT-2c" d="M 569 0 
L 569 641 
L 1209 641 
L 1209 0 
Q 1209 -353 1084 -570 
Q 959 -788 688 -906 
L 531 -666 
Q 709 -588 793 -436 
Q 878 -284 888 0 
L 569 0 
z
" transform="scale(0.015625)"/>
      <path id="ArialMT-6c" d="M 409 0 
L 409 4581 
L 972 4581 
L 972 0 
L 409 0 
z
" transform="scale(0.015625)"/>
      <path id="ArialMT-6b" d="M 425 0 
L 425 4581 
L 988 4581 
L 988 1969 
L 2319 3319 
L 3047 3319 
L 1778 2088 
L 3175 0 
L 2481 0 
L 1384 1697 
L 988 1316 
L 988 0 
L 425 0 
z
" transform="scale(0.015625)"/>
      <path id="ArialMT-3d" d="M 3381 2694 
L 356 2694 
L 356 3219 
L 3381 3219 
L 3381 2694 
z
M 3381 1303 
L 356 1303 
L 356 1828 
L 3381 1828 
L 3381 1303 
z
" transform="scale(0.015625)"/>
     </defs>
     <use xlink:href="#ArialMT-4b"/>
     <use xlink:href="#ArialMT-4f" x="66.699219"/>
     <use xlink:href="#ArialMT-5f" x="144.482422"/>
     <use xlink:href="#ArialMT-75" x="200.097656"/>
     <use xlink:href="#ArialMT-6e" x="255.712891"/>
     <use xlink:href="#ArialMT-74" x="311.328125"/>
     <use xlink:href="#ArialMT-72" x="339.111328"/>
     <use xlink:href="#ArialMT-65" x="372.412109"/>
     <use xlink:href="#ArialMT-61" x="428.027344"/>
     <use xlink:href="#ArialMT-74" x="483.642578"/>
     <use xlink:href="#ArialMT-65" x="511.425781"/>
     <use xlink:href="#ArialMT-64" x="567.041016"/>
     <use xlink:href="#ArialMT-20" x="622.65625"/>
     <use xlink:href="#ArialMT-76" x="650.439453"/>
     <use xlink:href="#ArialMT-73" x="700.439453"/>
     <use xlink:href="#ArialMT-2e" x="750.439453"/>
     <use xlink:href="#ArialMT-20" x="778.222656"/>
     <use xlink:href="#ArialMT-57" x="806.005859"/>
     <use xlink:href="#ArialMT-54" x="900.390625"/>
     <use xlink:href="#ArialMT-5f" x="961.474609"/>
     <use xlink:href="#ArialMT-54" x="1017.089844"/>
     <use xlink:href="#ArialMT-72" x="1074.423828"/>
     <use xlink:href="#ArialMT-65" x="1107.724609"/>
     <use xlink:href="#ArialMT-61" x="1163.339844"/>
     <use xlink:href="#ArialMT-74" x="1218.955078"/>
     <use xlink:href="#ArialMT-65" x="1246.738281"/>
     <use xlink:href="#ArialMT-64" x="1302.353516"/>
     <use xlink:href="#ArialMT-20" x="1357.96875"/>
     <use xlink:href="#ArialMT-69" x="1385.751953"/>
     <use xlink:href="#ArialMT-6e" x="1407.96875"/>
     <use xlink:href="#ArialMT-66" x="1463.583984"/>
     <use xlink:href="#ArialMT-6f" x="1491.367188"/>
     <use xlink:href="#ArialMT-72" x="1546.982422"/>
     <use xlink:href="#ArialMT-6d" x="1580.283203"/>
     <use xlink:href="#ArialMT-61" x="1663.583984"/>
     <use xlink:href="#ArialMT-74" x="1719.199219"/>
     <use xlink:href="#ArialMT-69" x="1746.982422"/>
     <use xlink:href="#ArialMT-6f" x="1769.199219"/>
     <use xlink:href="#ArialMT-6e" x="1824.814453"/>
     <use xlink:href="#ArialMT-20" x="1880.429688"/>
     <use xlink:href="#ArialMT-63" x="1908.212891"/>
     <use xlink:href="#ArialMT-6f" x="1958.212891"/>
     <use xlink:href="#ArialMT-6e" x="2013.828125"/>
     <use xlink:href="#ArialMT-74" x="2069.443359"/>
     <use xlink:href="#ArialMT-65" x="2097.226562"/>
     <use xlink:href="#ArialMT-6e" x="2152.841797"/>
     <use xlink:href="#ArialMT-74" x="2208.457031"/>
     <use xlink:href="#ArialMT-2c" x="2236.240234"/>
     <use xlink:href="#ArialMT-20" x="2264.023438"/>
     <use xlink:href="#ArialMT-4b" x="2291.806641"/>
     <use xlink:href="#ArialMT-75" x="2358.505859"/>
     <use xlink:href="#ArialMT-6c" x="2414.121094"/>
     <use xlink:href="#ArialMT-6c" x="2436.337891"/>
     <use xlink:href="#ArialMT-62" x="2458.554688"/>
     <use xlink:href="#ArialMT-61" x="2514.169922"/>
     <use xlink:href="#ArialMT-63" x="2569.785156"/>
     <use xlink:href="#ArialMT-6b" x="2619.785156"/>
     <use xlink:href="#ArialMT-20" x="2669.785156"/>
     <use xlink:href="#ArialMT-6e" x="2697.568359"/>
     <use xlink:href="#ArialMT-3d" x="2753.183594"/>
     <use xlink:href="#ArialMT-31" x="2811.582031"/>
    </g>
   </g>
  </g>
 </g>
 <defs>
  <clipPath id="p98ca66db87">
   <rect x="90" y="51.84" width="558" height="332.64"/>
  </clipPath>
 </defs>
</svg>
