<?xml version="1.0" encoding="utf-8" standalone="no"?>
<!DOCTYPE svg PUBLIC "-//W3C//DTD SVG 1.1//EN"
  "http://www.w3.org/Graphics/SVG/1.1/DTD/svg11.dtd">
<svg xmlns:xlink="http://www.w3.org/1999/xlink" width="720pt" height="432pt" viewBox="0 0 720 432" xmlns="http://www.w3.org/2000/svg" version="1.1">
 <metadata>
  <rdf:RDF xmlns:dc="http://purl.org/dc/elements/1.1/" xmlns:cc="http://creativecommons.org/ns#" xmlns:rdf="http://www.w3.org/1999/02/22-rdf-syntax-ns#">
   <cc:Work>
    <dc:type rdf:resource="http://purl.org/dc/dcmitype/StillImage"/>
    <dc:date>2023-11-21T15:48:20.345174</dc:date>
    <dc:format>image/svg+xml</dc:format>
    <dc:creator>
     <cc:Agent>
      <dc:title>Matplotlib v3.7.1, https://matplotlib.org/</dc:title>
     </cc:Agent>
    </dc:creator>
   </cc:Work>
  </rdf:RDF>
 </metadata>
 <defs>
  <style type="text/css">*{stroke-linejoin: round; stroke-linecap: butt}</style>
 </defs>
 <g id="figure_1">
  <g id="patch_1">
   <path d="M 0 432 
L 720 432 
L 720 0 
L 0 0 
z
" style="fill: #ffffff"/>
  </g>
  <g id="axes_1">
   <g id="patch_2">
    <path d="M 90 384.48 
L 648 384.48 
L 648 51.84 
L 90 51.84 
z
" style="fill: #ffffff"/>
   </g>
   <g id="patch_3">
    <path d="M 307 384.48 
L 369 384.48 
L 369 51.84 
L 307 51.84 
z
" clip-path="url(#pbcb7e228d2)" style="fill: #ffd700; opacity: 0.35; stroke: #ffffff; stroke-width: 0.8; stroke-linejoin: miter"/>
   </g>
   <g id="line2d_1">
    <path d="M 90 384.48 
L 648 384.48 
" clip-path="url(#pbcb7e228d2)" style="fill: none; stroke: #000000; stroke-width: 0.5; stroke-linecap: round"/>
   </g>
   <g id="patch_4">
    <path d="M 178.35 384.30796 
Q 173.941736 384.370336 169.174969 384.401887 
Q 164.408201 384.4338 159.216541 384.4338 
Q 143.734505 384.4338 134.692252 384.197351 
Q 125.65 383.960901 125.65 383.556544 
Q 125.65 383.150736 134.692252 382.914649 
Q 143.734505 382.6782 159.216541 382.6782 
Q 164.408201 382.6782 169.174969 382.710113 
Q 173.941736 382.741664 178.35 382.80404 
L 178.35 383.154 
Q 173.901902 383.071315 169.586584 383.032874 
Q 165.271265 382.994433 160.504497 382.994433 
Q 151.953527 382.994433 147.053981 383.144208 
Q 142.167712 383.293621 142.167712 383.556544 
Q 142.167712 383.818379 147.053981 383.968154 
Q 151.953527 384.117567 160.504497 384.117567 
Q 165.271265 384.117567 169.586584 384.079126 
Q 173.901902 384.040322 178.35 383.957637 
L 178.35 384.30796 
z
" clip-path="url(#pbcb7e228d2)" style="fill: #6b296b"/>
   </g>
   <g id="patch_5">
    <path d="M 125.65 380.8302 
L 134.762642 380.8302 
L 141.132798 382.106076 
L 147.455534 380.8302 
L 156.615597 380.8302 
L 162.938332 382.106076 
L 169.316392 380.8302 
L 178.35 380.8302 
L 169.656239 382.5858 
L 158.694196 382.5858 
L 152 381.251228 
L 145.384838 382.5858 
L 134.414892 382.5858 
L 125.65 380.8302 
z
" clip-path="url(#pbcb7e228d2)" style="fill: #21599c"/>
   </g>
   <g id="patch_6">
    <path d="M 125.65 378.9822 
L 142.578032 378.9822 
L 163.968106 380.186212 
L 163.968106 378.9822 
L 178.35 378.9822 
L 178.35 380.7378 
L 161.409364 380.7378 
L 140.01929 379.533788 
L 140.01929 380.7378 
L 125.65 380.7378 
L 125.65 378.9822 
z
" clip-path="url(#pbcb7e228d2)" style="fill: #40ba47"/>
   </g>
   <g id="patch_7">
    <path d="M 125.65 375.3324 
L 140.22 375.3324 
L 151.988929 376.58382 
L 163.746786 375.3324 
L 178.35 375.3324 
L 158.665 377.36417 
L 158.665 378.8436 
L 145.346071 378.8436 
L 145.346071 377.36417 
L 125.65 375.3324 
z
" clip-path="url(#pbcb7e228d2)" style="fill: #177875"/>
   </g>
   <g id="patch_8">
    <path d="M 126.198462 371.6364 
L 177.801538 371.6364 
L 177.801538 372.321182 
L 145.323077 372.321182 
L 145.323077 372.974358 
L 175.877949 372.974358 
L 175.877949 373.65914 
L 145.323077 373.65914 
L 145.323077 375.1476 
L 126.198462 375.1476 
L 126.198462 371.6364 
z
" clip-path="url(#pbcb7e228d2)" style="fill: #21599c"/>
   </g>
   <g id="patch_9">
    <path d="M 142.437692 366.1386 
L 161.562308 366.1386 
L 161.562308 371.4054 
L 142.437692 371.4054 
L 142.437692 366.1386 
z
" clip-path="url(#pbcb7e228d2)" style="fill: #21599c"/>
   </g>
   <g id="patch_10">
    <path d="M 125.65 360.5946 
L 141.195992 360.5946 
L 151.979692 363.413117 
L 162.83447 360.5946 
L 178.35 360.5946 
L 178.35 365.8614 
L 166.80474 365.8614 
L 166.80474 362.008938 
L 155.889037 364.848901 
L 148.141426 364.848901 
L 137.225723 362.008938 
L 137.225723 365.8614 
L 125.65 365.8614 
L 125.65 360.5946 
z
" clip-path="url(#pbcb7e228d2)" style="fill: #21599c"/>
   </g>
   <g id="patch_11">
    <path d="M 125.65 353.2488 
L 140.813382 353.2488 
L 140.813382 355.924717 
L 163.186618 355.924717 
L 163.186618 353.2488 
L 178.35 353.2488 
L 178.35 360.2712 
L 163.186618 360.2712 
L 163.186618 357.29428 
L 140.813382 357.29428 
L 140.813382 360.2712 
L 125.65 360.2712 
L 125.65 353.2488 
z
" clip-path="url(#pbcb7e228d2)" style="fill: #177875"/>
   </g>
   <g id="patch_12">
    <path d="M 140.091481 345.766955 
L 140.091481 351.122927 
L 145.265444 351.122927 
Q 154.112802 351.122927 158.782574 350.434382 
Q 163.464351 349.745838 163.464351 348.434594 
Q 163.464351 347.130874 158.806583 346.449855 
Q 154.16082 345.766955 145.265444 345.766955 
L 140.091481 345.766955 
z
M 125.65 344.055 
L 140.871777 344.055 
Q 153.63262 344.055 159.874989 344.340953 
Q 166.117358 344.625024 170.583052 345.307925 
Q 174.520547 345.902406 176.429271 346.67937 
Q 178.35 347.454453 178.35 348.434594 
Q 178.35 349.429785 176.429271 350.20863 
Q 174.520547 350.987475 170.583052 351.580075 
Q 166.081344 352.262976 159.778952 352.548928 
Q 153.47656 352.833 140.871777 352.833 
L 125.65 352.833 
L 125.65 344.055 
z
" clip-path="url(#pbcb7e228d2)" style="fill: #6b296b"/>
   </g>
   <g id="patch_13">
    <path d="M 125.65 333.0132 
L 178.35 333.0132 
L 178.35 335.067545 
L 159.390256 335.067545 
L 159.390256 343.5468 
L 144.646512 343.5468 
L 144.646512 335.067545 
L 125.65 335.067545 
L 125.65 333.0132 
z
" clip-path="url(#pbcb7e228d2)" style="fill: #40ba47"/>
   </g>
   <g id="patch_14">
    <path d="M 125.65 321.9252 
L 153.043021 321.9252 
Q 165.271068 321.9252 171.803672 322.819179 
Q 178.35 323.7109 178.35 325.361149 
Q 178.35 327.020428 171.803672 327.91215 
Q 165.271068 328.803871 153.043021 328.803871 
L 142.159922 328.803871 
L 142.159922 332.4588 
L 125.65 332.4588 
L 125.65 321.9252 
z
M 142.159922 323.89376 
L 142.159922 326.835311 
L 151.286354 326.835311 
Q 156.08974 326.835311 158.711016 326.451533 
Q 161.332292 326.067754 161.332292 325.361149 
Q 161.332292 324.656802 158.711016 324.275281 
Q 156.08974 323.89376 151.286354 323.89376 
L 142.159922 323.89376 
z
" clip-path="url(#pbcb7e228d2)" style="fill: #787800"/>
   </g>
   <g id="patch_15">
    <path d="M 153.405333 319.486841 
L 152.373292 319.486841 
Q 139.714313 319.486841 132.676667 318.109603 
Q 125.65 316.730203 125.65 314.271931 
Q 125.65 311.817983 132.665687 310.427772 
Q 139.681375 309.0354 152 309.0354 
Q 164.450375 309.0354 171.400188 310.4148 
Q 178.35 311.792038 178.35 314.271931 
Q 178.35 315.973479 174.661 317.203697 
Q 170.972 318.433914 164.044146 319.054428 
L 174.364563 321.3246 
L 161.771458 321.3246 
L 153.405333 319.486841 
z
M 152 310.920724 
Q 145.961458 310.920724 142.634771 311.798524 
Q 139.308083 312.676324 139.308083 314.271931 
Q 139.308083 315.893483 142.557917 316.756148 
Q 145.818729 317.616652 152 317.616652 
Q 158.071479 317.616652 161.398167 316.738852 
Q 164.724854 315.85889 164.724854 314.271931 
Q 164.724854 312.676324 161.398167 311.798524 
Q 158.071479 310.920724 152 310.920724 
z
" clip-path="url(#pbcb7e228d2)" style="fill: #40ba47"/>
   </g>
   <g id="patch_16">
    <path d="M 173.955948 293.249754 
L 173.955948 296.474459 
Q 168.459804 295.913073 163.221293 295.629116 
Q 157.997094 295.341896 153.34541 295.341896 
Q 147.176562 295.341896 144.213797 295.730296 
Q 141.265345 296.115433 141.265345 296.931401 
Q 141.265345 297.545009 143.254834 297.887715 
Q 145.244324 298.227158 150.482835 298.471948 
L 157.811027 298.808127 
Q 168.946442 299.320554 173.641065 300.361729 
Q 178.35 301.39964 178.35 303.318797 
Q 178.35 305.835241 171.794704 307.065721 
Q 165.239408 308.2962 151.770994 308.2962 
Q 145.430391 308.2962 139.032537 308.018771 
Q 132.634682 307.744606 126.236828 307.202803 
L 126.236828 303.889974 
Q 132.634682 304.663511 138.60315 305.05844 
Q 144.571619 305.450104 150.125014 305.450104 
Q 155.764286 305.450104 158.755676 305.022537 
Q 161.747067 304.591706 161.747067 303.795322 
Q 161.747067 303.083798 159.714639 302.695397 
Q 157.682211 302.306997 151.59924 302.000193 
L 144.929441 301.664014 
Q 134.910429 301.174433 130.273058 300.103884 
Q 125.65 299.033334 125.65 297.218621 
Q 125.65 294.943703 132.090793 293.719752 
Q 138.531586 292.4958 150.611651 292.4958 
Q 156.122108 292.4958 161.933134 292.685105 
Q 167.744161 292.874409 173.955948 293.249754 
z
" clip-path="url(#pbcb7e228d2)" style="fill: #40ba47"/>
   </g>
   <g id="patch_17">
    <path d="M 178.35 289.004374 
Q 173.035119 290.195687 167.318669 290.794063 
Q 161.602219 291.387 155.507822 291.387 
Q 141.736374 291.387 133.693187 287.84026 
Q 125.65 284.29352 125.65 278.22816 
Q 125.65 272.092082 133.834917 268.572541 
Q 142.031645 265.053 156.287338 265.053 
Q 161.779381 265.053 166.810802 265.531701 
Q 171.854034 266.004962 176.318534 266.940605 
L 176.318534 272.189998 
Q 171.712304 270.987806 167.153317 270.394869 
Q 162.59433 269.796493 158.011721 269.796493 
Q 149.531533 269.796493 144.937113 271.983286 
Q 140.342694 274.16464 140.342694 278.22816 
Q 140.342694 282.253601 144.771762 284.451274 
Q 149.200829 286.643507 157.350314 286.643507 
Q 159.570753 286.643507 161.472299 286.518392 
Q 163.373846 286.387837 164.885634 286.115848 
L 164.885634 281.187403 
L 156.204662 281.187403 
L 156.204662 276.797496 
L 178.35 276.797496 
L 178.35 289.004374 
z
" clip-path="url(#pbcb7e228d2)" style="fill: #787800"/>
   </g>
   <g id="patch_18">
    <path d="M 147.032787 249.010035 
Q 151.762274 249.010035 153.814221 248.219902 
Q 155.866168 247.424126 155.866168 245.60682 
Q 155.866168 243.806446 153.814221 243.033244 
Q 151.762274 242.254399 147.032787 242.254399 
L 140.701781 242.254399 
L 140.701781 249.010035 
L 147.032787 249.010035 
z
M 140.701781 253.700038 
L 140.701781 263.667 
L 125.65 263.667 
L 125.65 237.333 
L 148.634307 237.333 
Q 160.170252 237.333 165.537844 239.08258 
Q 170.917949 240.826516 170.917949 244.602222 
Q 170.917949 247.209661 168.11529 248.885871 
Q 165.325142 250.562082 159.694801 251.357859 
Q 162.785233 251.673912 165.225047 252.797029 
Q 167.677374 253.914503 170.179748 256.188957 
L 178.35 263.667 
L 162.322293 263.667 
L 155.203039 257.125829 
Q 153.050997 255.150496 150.836396 254.428089 
Q 148.634307 253.700038 144.955817 253.700038 
L 140.701781 253.700038 
z
" clip-path="url(#pbcb7e228d2)" style="fill: #bd2e1f"/>
   </g>
   <g id="patch_19">
    <path d="M 125.65 207.8112 
L 138.68762 207.8112 
L 152.016162 228.544287 
L 165.323155 207.8112 
L 178.35 207.8112 
L 159.730985 235.9008 
L 144.269015 235.9008 
L 125.65 207.8112 
z
" clip-path="url(#pbcb7e228d2)" style="fill: #21599c"/>
   </g>
   <g id="patch_20">
    <path d="M 125.65 178.2432 
L 144.774615 178.2432 
L 144.774615 200.860565 
L 178.35 200.860565 
L 178.35 206.3328 
L 125.65 206.3328 
L 125.65 178.2432 
z
" clip-path="url(#pbcb7e228d2)" style="fill: #21599c"/>
   </g>
   <g id="patch_21">
    <path d="M 125.65 148.6752 
L 139.537864 148.6752 
L 139.537864 158.927362 
L 159.555783 148.6752 
L 175.683253 148.6752 
L 149.743078 161.979533 
L 178.35 176.7648 
L 160.964195 176.7648 
L 139.537864 165.69993 
L 139.537864 176.7648 
L 125.65 176.7648 
L 125.65 148.6752 
z
" clip-path="url(#pbcb7e228d2)" style="fill: #bd2e1f"/>
   </g>
   <g id="patch_22">
    <path d="M 125.65 102.891 
L 177.253077 102.891 
L 177.253077 111.450773 
L 144.774615 111.450773 
L 144.774615 119.615479 
L 175.329487 119.615479 
L 175.329487 128.175252 
L 144.774615 128.175252 
L 144.774615 138.230634 
L 178.35 138.230634 
L 178.35 146.781 
L 125.65 146.781 
L 125.65 102.891 
z
" clip-path="url(#pbcb7e228d2)" style="fill: #6b296b"/>
   </g>
   <g id="patch_23">
    <path d="M 162.155336 91.853576 
L 141.887763 91.853576 
L 138.68762 100.4886 
L 125.65 100.4886 
L 144.269015 53.0874 
L 159.730985 53.0874 
L 178.35 100.4886 
L 165.323155 100.4886 
L 162.155336 91.853576 
z
M 145.120231 83.056011 
L 158.890544 83.056011 
L 152.016162 64.201183 
L 145.120231 83.056011 
z
" clip-path="url(#pbcb7e228d2)" style="fill: #21599c"/>
   </g>
   <g id="patch_24">
    <path d="M 187.65 382.6782 
L 215.043021 382.6782 
Q 227.271068 382.6782 233.803672 382.827196 
Q 240.35 382.975817 240.35 383.250858 
Q 240.35 383.527405 233.803672 383.676025 
Q 227.271068 383.824645 215.043021 383.824645 
L 204.159922 383.824645 
L 204.159922 384.4338 
L 187.65 384.4338 
L 187.65 382.6782 
z
M 204.159922 383.006293 
L 204.159922 383.496552 
L 213.286354 383.496552 
Q 218.08974 383.496552 220.711016 383.432589 
Q 223.332292 383.368626 223.332292 383.250858 
Q 223.332292 383.133467 220.711016 383.06988 
Q 218.08974 383.006293 213.286354 383.006293 
L 204.159922 383.006293 
z
" clip-path="url(#pbcb7e228d2)" style="fill: #787800"/>
   </g>
   <g id="patch_25">
    <path d="M 240.35 382.426958 
Q 235.035119 382.506379 229.318669 382.546271 
Q 223.602219 382.5858 217.507822 382.5858 
Q 203.736374 382.5858 195.693187 382.349351 
Q 187.65 382.112901 187.65 381.708544 
Q 187.65 381.299472 195.834917 381.064836 
Q 204.031645 380.8302 218.287338 380.8302 
Q 223.779381 380.8302 228.810802 380.862113 
Q 233.854034 380.893664 238.318534 380.95604 
L 238.318534 381.306 
Q 233.712304 381.225854 229.153317 381.186325 
Q 224.59433 381.146433 220.011721 381.146433 
Q 211.531533 381.146433 206.937113 381.292219 
Q 202.342694 381.437643 202.342694 381.708544 
Q 202.342694 381.976907 206.771762 382.123418 
Q 211.200829 382.269567 219.350314 382.269567 
Q 221.570753 382.269567 223.472299 382.261226 
Q 225.373846 382.252522 226.885634 382.23439 
L 226.885634 381.905827 
L 218.204662 381.905827 
L 218.204662 381.613166 
L 240.35 381.613166 
L 240.35 382.426958 
z
" clip-path="url(#pbcb7e228d2)" style="fill: #787800"/>
   </g>
   <g id="patch_26">
    <path d="M 187.65 377.1804 
L 202.22 377.1804 
L 213.988929 378.43182 
L 225.746786 377.1804 
L 240.35 377.1804 
L 220.665 379.21217 
L 220.665 380.6916 
L 207.346071 380.6916 
L 207.346071 379.21217 
L 187.65 377.1804 
z
" clip-path="url(#pbcb7e228d2)" style="fill: #177875"/>
   </g>
   <g id="patch_27">
    <path d="M 240.35 376.743919 
Q 235.941736 376.868672 231.174969 376.931773 
Q 226.408201 376.9956 221.216541 376.9956 
Q 205.734505 376.9956 196.692252 376.522701 
Q 187.65 376.049803 187.65 375.241088 
Q 187.65 374.429472 196.692252 373.957299 
Q 205.734505 373.4844 221.216541 373.4844 
Q 226.408201 373.4844 231.174969 373.548227 
Q 235.941736 373.611328 240.35 373.736081 
L 240.35 374.436 
Q 235.901902 374.27063 231.586584 374.193748 
Q 227.271265 374.116866 222.504497 374.116866 
Q 213.953527 374.116866 209.053981 374.416417 
Q 204.167712 374.715242 204.167712 375.241088 
Q 204.167712 375.764758 209.053981 376.064309 
Q 213.953527 376.363134 222.504497 376.363134 
Q 227.271265 376.363134 231.586584 376.286252 
Q 235.901902 376.208644 240.35 376.043275 
L 240.35 376.743919 
z
" clip-path="url(#pbcb7e228d2)" style="fill: #6b296b"/>
   </g>
   <g id="patch_28">
    <path d="M 202.091481 370.473182 
L 202.091481 372.615571 
L 207.265444 372.615571 
Q 216.112802 372.615571 220.782574 372.340153 
Q 225.464351 372.064735 225.464351 371.540237 
Q 225.464351 371.01875 220.806583 370.746342 
Q 216.16082 370.473182 207.265444 370.473182 
L 202.091481 370.473182 
z
M 187.65 369.7884 
L 202.871777 369.7884 
Q 215.63262 369.7884 221.874989 369.902781 
Q 228.117358 370.01641 232.583052 370.28957 
Q 236.520547 370.527362 238.429271 370.838148 
Q 240.35 371.148181 240.35 371.540237 
Q 240.35 371.938314 238.429271 372.249852 
Q 236.520547 372.56139 232.583052 372.79843 
Q 228.081344 373.07159 221.778952 373.185971 
Q 215.47656 373.2996 202.871777 373.2996 
L 187.65 373.2996 
L 187.65 369.7884 
z
" clip-path="url(#pbcb7e228d2)" style="fill: #6b296b"/>
   </g>
   <g id="patch_29">
    <path d="M 187.65 366.0924 
L 204.578032 366.0924 
L 225.968106 368.500424 
L 225.968106 366.0924 
L 240.35 366.0924 
L 240.35 369.6036 
L 223.409364 369.6036 
L 202.01929 367.195576 
L 202.01929 369.6036 
L 187.65 369.6036 
L 187.65 366.0924 
z
" clip-path="url(#pbcb7e228d2)" style="fill: #40ba47"/>
   </g>
   <g id="patch_30">
    <path d="M 187.65 362.3964 
L 203.195992 362.3964 
L 213.979692 364.275411 
L 224.83447 362.3964 
L 240.35 362.3964 
L 240.35 365.9076 
L 228.80474 365.9076 
L 228.80474 363.339292 
L 217.889037 365.232601 
L 210.141426 365.232601 
L 199.225723 363.339292 
L 199.225723 365.9076 
L 187.65 365.9076 
L 187.65 362.3964 
z
" clip-path="url(#pbcb7e228d2)" style="fill: #21599c"/>
   </g>
   <g id="patch_31">
    <path d="M 224.155336 360.473922 
L 203.887763 360.473922 
L 200.68762 362.073 
L 187.65 362.073 
L 206.269015 353.295 
L 221.730985 353.295 
L 240.35 362.073 
L 227.323155 362.073 
L 224.155336 360.473922 
z
M 207.120231 358.844743 
L 220.890544 358.844743 
L 214.016162 355.353108 
L 207.120231 358.844743 
z
" clip-path="url(#pbcb7e228d2)" style="fill: #21599c"/>
   </g>
   <g id="patch_32">
    <path d="M 187.65 344.055 
L 202.813382 344.055 
L 202.813382 347.399896 
L 225.186618 347.399896 
L 225.186618 344.055 
L 240.35 344.055 
L 240.35 352.833 
L 225.186618 352.833 
L 225.186618 349.11185 
L 202.813382 349.11185 
L 202.813382 352.833 
L 187.65 352.833 
L 187.65 344.055 
z
" clip-path="url(#pbcb7e228d2)" style="fill: #177875"/>
   </g>
   <g id="patch_33">
    <path d="M 235.955948 333.515836 
L 235.955948 335.665639 
Q 230.459804 335.291382 225.221293 335.102078 
Q 219.997094 334.910597 215.34541 334.910597 
Q 209.176562 334.910597 206.213797 335.169531 
Q 203.265345 335.426289 203.265345 335.970267 
Q 203.265345 336.379339 205.254834 336.60781 
Q 207.244324 336.834105 212.482835 336.997299 
L 219.811027 337.221418 
Q 230.946442 337.563036 235.641065 338.257153 
Q 240.35 338.949094 240.35 340.228531 
Q 240.35 341.906161 233.794704 342.72648 
Q 227.239408 343.5468 213.770994 343.5468 
Q 207.430391 343.5468 201.032537 343.361847 
Q 194.634682 343.179071 188.236828 342.817869 
L 188.236828 340.609316 
Q 194.634682 341.125008 200.60315 341.388293 
Q 206.571619 341.649403 212.125014 341.649403 
Q 217.764286 341.649403 220.755676 341.364358 
Q 223.747067 341.077138 223.747067 340.546215 
Q 223.747067 340.071865 221.714639 339.812931 
Q 219.682211 339.553998 213.59924 339.349462 
L 206.929441 339.125343 
Q 196.910429 338.798956 192.273058 338.085256 
Q 187.65 337.371556 187.65 336.161748 
Q 187.65 334.645136 194.090793 333.829168 
Q 200.531586 333.0132 212.611651 333.0132 
Q 218.122108 333.0132 223.933134 333.139403 
Q 229.744161 333.265606 235.955948 333.515836 
z
" clip-path="url(#pbcb7e228d2)" style="fill: #40ba47"/>
   </g>
   <g id="patch_34">
    <path d="M 215.405333 329.957367 
L 214.373292 329.957367 
Q 201.714313 329.957367 194.676667 328.186633 
Q 187.65 326.413119 187.65 323.252483 
Q 187.65 320.097406 194.665687 318.309993 
Q 201.681375 316.5198 214 316.5198 
Q 226.450375 316.5198 233.400187 318.293314 
Q 240.35 320.064049 240.35 323.252483 
Q 240.35 325.440188 236.661 327.021896 
Q 232.972 328.603603 226.044146 329.401407 
L 236.364562 332.3202 
L 223.771458 332.3202 
L 215.405333 329.957367 
z
M 214 318.943788 
Q 207.961458 318.943788 204.634771 320.072388 
Q 201.308083 321.200988 201.308083 323.252483 
Q 201.308083 325.337335 204.557917 326.446476 
Q 207.818729 327.552838 214 327.552838 
Q 220.071479 327.552838 223.398167 326.424238 
Q 226.724854 325.292858 226.724854 323.252483 
Q 226.724854 321.200988 223.398167 320.072388 
Q 220.071479 318.943788 214 318.943788 
z
" clip-path="url(#pbcb7e228d2)" style="fill: #40ba47"/>
   </g>
   <g id="patch_35">
    <path d="M 209.032787 306.894021 
Q 213.762274 306.894021 215.814221 306.419941 
Q 217.866168 305.942475 217.866168 304.852092 
Q 217.866168 303.771867 215.814221 303.307947 
Q 213.762274 302.840639 209.032787 302.840639 
L 202.701781 302.840639 
L 202.701781 306.894021 
L 209.032787 306.894021 
z
M 202.701781 309.708023 
L 202.701781 315.6882 
L 187.65 315.6882 
L 187.65 299.8878 
L 210.634307 299.8878 
Q 222.170252 299.8878 227.537844 300.937548 
Q 232.917949 301.98391 232.917949 304.249333 
Q 232.917949 305.813797 230.11529 306.819523 
Q 227.325142 307.825249 221.694801 308.302715 
Q 224.785233 308.492347 227.225047 309.166217 
Q 229.677374 309.836702 232.179748 311.201374 
L 240.35 315.6882 
L 224.322293 315.6882 
L 217.203039 311.763497 
Q 215.050997 310.578298 212.836396 310.144853 
Q 210.634307 309.708023 206.955817 309.708023 
L 202.701781 309.708023 
z
" clip-path="url(#pbcb7e228d2)" style="fill: #bd2e1f"/>
   </g>
   <g id="patch_36">
    <path d="M 188.198462 281.454 
L 239.801538 281.454 
L 239.801538 284.877909 
L 207.323077 284.877909 
L 207.323077 288.143792 
L 237.877949 288.143792 
L 237.877949 291.567701 
L 207.323077 291.567701 
L 207.323077 299.01 
L 188.198462 299.01 
L 188.198462 281.454 
z
" clip-path="url(#pbcb7e228d2)" style="fill: #21599c"/>
   </g>
   <g id="patch_37">
    <path d="M 187.65 259.3704 
L 240.35 259.3704 
L 240.35 263.479091 
L 221.390256 263.479091 
L 221.390256 280.4376 
L 206.646512 280.4376 
L 206.646512 263.479091 
L 187.65 263.479091 
L 187.65 259.3704 
z
" clip-path="url(#pbcb7e228d2)" style="fill: #40ba47"/>
   </g>
   <g id="patch_38">
    <path d="M 187.65 231.789 
L 201.537864 231.789 
L 201.537864 241.400402 
L 221.555783 231.789 
L 237.683253 231.789 
L 211.743078 244.261812 
L 240.35 258.123 
L 222.964195 258.123 
L 201.537864 247.749684 
L 201.537864 258.123 
L 187.65 258.123 
L 187.65 231.789 
z
" clip-path="url(#pbcb7e228d2)" style="fill: #bd2e1f"/>
   </g>
   <g id="patch_39">
    <path d="M 187.65 198.6636 
L 239.253077 198.6636 
L 239.253077 204.826636 
L 206.774615 204.826636 
L 206.774615 210.705225 
L 237.329487 210.705225 
L 237.329487 216.868261 
L 206.774615 216.868261 
L 206.774615 224.108136 
L 240.35 224.108136 
L 240.35 230.2644 
L 187.65 230.2644 
L 187.65 198.6636 
z
" clip-path="url(#pbcb7e228d2)" style="fill: #6b296b"/>
   </g>
   <g id="patch_40">
    <path d="M 187.65 159.9942 
L 206.774615 159.9942 
L 206.774615 189.679492 
L 240.35 189.679492 
L 240.35 196.8618 
L 187.65 196.8618 
L 187.65 159.9942 
z
" clip-path="url(#pbcb7e228d2)" style="fill: #21599c"/>
   </g>
   <g id="patch_41">
    <path d="M 204.437692 108.5736 
L 223.562308 108.5736 
L 223.562308 157.7304 
L 204.437692 157.7304 
L 204.437692 108.5736 
z
" clip-path="url(#pbcb7e228d2)" style="fill: #21599c"/>
   </g>
   <g id="patch_42">
    <path d="M 187.65 53.226 
L 200.68762 53.226 
L 214.016162 92.100538 
L 227.323155 53.226 
L 240.35 53.226 
L 221.730985 105.894 
L 206.269015 105.894 
L 187.65 53.226 
z
" clip-path="url(#pbcb7e228d2)" style="fill: #21599c"/>
   </g>
   <g id="patch_43">
    <path d="M 264.091481 381.561182 
L 264.091481 383.703571 
L 269.265444 383.703571 
Q 278.112802 383.703571 282.782574 383.428153 
Q 287.464351 383.152735 287.464351 382.628237 
Q 287.464351 382.10675 282.806583 381.834342 
Q 278.16082 381.561182 269.265444 381.561182 
L 264.091481 381.561182 
z
M 249.65 380.8764 
L 264.871777 380.8764 
Q 277.63262 380.8764 283.874989 380.990781 
Q 290.117358 381.10441 294.583052 381.37757 
Q 298.520547 381.615362 300.429271 381.926148 
Q 302.35 382.236181 302.35 382.628237 
Q 302.35 383.026314 300.429271 383.337852 
Q 298.520547 383.64939 294.583052 383.88643 
Q 290.081344 384.15959 283.778952 384.273971 
Q 277.47656 384.3876 264.871777 384.3876 
L 249.65 384.3876 
L 249.65 380.8764 
z
" clip-path="url(#pbcb7e228d2)" style="fill: #6b296b"/>
   </g>
   <g id="patch_44">
    <path d="M 249.65 377.1804 
L 264.813382 377.1804 
L 264.813382 378.518358 
L 287.186618 378.518358 
L 287.186618 377.1804 
L 302.35 377.1804 
L 302.35 380.6916 
L 287.186618 380.6916 
L 287.186618 379.20314 
L 264.813382 379.20314 
L 264.813382 380.6916 
L 249.65 380.6916 
L 249.65 377.1804 
z
" clip-path="url(#pbcb7e228d2)" style="fill: #177875"/>
   </g>
   <g id="patch_45">
    <path d="M 249.65 371.6826 
L 277.043021 371.6826 
Q 289.271068 371.6826 295.803672 372.129589 
Q 302.35 372.57545 302.35 373.400575 
Q 302.35 374.230214 295.803672 374.676075 
Q 289.271068 375.121936 277.043021 375.121936 
L 266.159922 375.121936 
L 266.159922 376.9494 
L 249.65 376.9494 
L 249.65 371.6826 
z
M 266.159922 372.66688 
L 266.159922 374.137656 
L 275.286354 374.137656 
Q 280.08974 374.137656 282.711016 373.945766 
Q 285.332292 373.753877 285.332292 373.400575 
Q 285.332292 373.048401 282.711016 372.85764 
Q 280.08974 372.66688 275.286354 372.66688 
L 266.159922 372.66688 
z
" clip-path="url(#pbcb7e228d2)" style="fill: #787800"/>
   </g>
   <g id="patch_46">
    <path d="M 249.65 364.3368 
L 258.762642 364.3368 
L 265.132798 369.440306 
L 271.455534 364.3368 
L 280.615597 364.3368 
L 286.938332 369.440306 
L 293.316392 364.3368 
L 302.35 364.3368 
L 293.656239 371.3592 
L 282.694196 371.3592 
L 276 366.020912 
L 269.384838 371.3592 
L 258.414892 371.3592 
L 249.65 364.3368 
z
" clip-path="url(#pbcb7e228d2)" style="fill: #21599c"/>
   </g>
   <g id="patch_47">
    <path d="M 249.65 355.143 
L 264.22 355.143 
L 275.988929 358.27155 
L 287.746786 355.143 
L 302.35 355.143 
L 282.665 360.222426 
L 282.665 363.921 
L 269.346071 363.921 
L 269.346071 360.222426 
L 249.65 355.143 
z
" clip-path="url(#pbcb7e228d2)" style="fill: #177875"/>
   </g>
   <g id="patch_48">
    <path d="M 249.65 345.903 
L 302.35 345.903 
L 302.35 347.614955 
L 283.390256 347.614955 
L 283.390256 354.681 
L 268.646512 354.681 
L 268.646512 347.614955 
L 249.65 347.614955 
L 249.65 345.903 
z
" clip-path="url(#pbcb7e228d2)" style="fill: #40ba47"/>
   </g>
   <g id="patch_49">
    <path d="M 249.65 336.663 
L 265.195992 336.663 
L 275.979692 341.360528 
L 286.83447 336.663 
L 302.35 336.663 
L 302.35 345.441 
L 290.80474 345.441 
L 290.80474 339.02023 
L 279.889037 343.753502 
L 272.141426 343.753502 
L 261.225723 339.02023 
L 261.225723 345.441 
L 249.65 345.441 
L 249.65 336.663 
z
" clip-path="url(#pbcb7e228d2)" style="fill: #21599c"/>
   </g>
   <g id="patch_50">
    <path d="M 297.955948 327.841863 
L 297.955948 329.633366 
Q 292.459804 329.321485 287.221293 329.163731 
Q 281.997094 329.004164 277.34541 329.004164 
Q 271.176562 329.004164 268.213797 329.219942 
Q 265.265345 329.433907 265.265345 329.887223 
Q 265.265345 330.228116 267.254834 330.418508 
Q 269.244324 330.607088 274.482835 330.743082 
L 281.811027 330.929848 
Q 292.946442 331.21453 297.641065 331.792961 
Q 302.35 332.369578 302.35 333.435776 
Q 302.35 334.833801 295.794704 335.5174 
Q 289.239408 336.201 275.770994 336.201 
Q 269.430391 336.201 263.032537 336.046873 
Q 256.634682 335.894559 250.236828 335.593557 
L 250.236828 333.753097 
Q 256.634682 334.18284 262.60315 334.402244 
Q 268.571619 334.619836 274.125014 334.619836 
Q 279.764286 334.619836 282.755676 334.382298 
Q 285.747067 334.142948 285.747067 333.700512 
Q 285.747067 333.305221 283.714639 333.089443 
Q 281.682211 332.873665 275.59924 332.703218 
L 268.929441 332.516452 
Q 258.910429 332.244463 254.273058 331.649713 
Q 249.65 331.054963 249.65 330.04679 
Q 249.65 328.782946 256.090793 328.102973 
Q 262.531586 327.423 274.611651 327.423 
Q 280.122108 327.423 285.933134 327.528169 
Q 291.744161 327.633338 297.955948 327.841863 
z
" clip-path="url(#pbcb7e228d2)" style="fill: #40ba47"/>
   </g>
   <g id="patch_51">
    <path d="M 249.65 316.3812 
L 262.68762 316.3812 
L 276.016162 324.156108 
L 289.323155 316.3812 
L 302.35 316.3812 
L 283.730985 326.9148 
L 268.269015 326.9148 
L 249.65 316.3812 
z
" clip-path="url(#pbcb7e228d2)" style="fill: #21599c"/>
   </g>
   <g id="patch_52">
    <path d="M 250.198462 305.2932 
L 301.801538 305.2932 
L 301.801538 307.347545 
L 269.323077 307.347545 
L 269.323077 309.307075 
L 299.877949 309.307075 
L 299.877949 311.36142 
L 269.323077 311.36142 
L 269.323077 315.8268 
L 250.198462 315.8268 
L 250.198462 305.2932 
z
" clip-path="url(#pbcb7e228d2)" style="fill: #21599c"/>
   </g>
   <g id="patch_53">
    <path d="M 249.65 294.2052 
L 266.578032 294.2052 
L 287.968106 301.429272 
L 287.968106 294.2052 
L 302.35 294.2052 
L 302.35 304.7388 
L 285.409364 304.7388 
L 264.01929 297.514728 
L 264.01929 304.7388 
L 249.65 304.7388 
L 249.65 294.2052 
z
" clip-path="url(#pbcb7e228d2)" style="fill: #40ba47"/>
   </g>
   <g id="patch_54">
    <path d="M 266.437692 277.7118 
L 285.562308 277.7118 
L 285.562308 293.5122 
L 266.437692 293.5122 
L 266.437692 277.7118 
z
" clip-path="url(#pbcb7e228d2)" style="fill: #21599c"/>
   </g>
   <g id="patch_55">
    <path d="M 271.032787 268.086021 
Q 275.762274 268.086021 277.814221 267.611941 
Q 279.866168 267.134475 279.866168 266.044092 
Q 279.866168 264.963867 277.814221 264.499947 
Q 275.762274 264.032639 271.032787 264.032639 
L 264.701781 264.032639 
L 264.701781 268.086021 
L 271.032787 268.086021 
z
M 264.701781 270.900023 
L 264.701781 276.8802 
L 249.65 276.8802 
L 249.65 261.0798 
L 272.634307 261.0798 
Q 284.170252 261.0798 289.537844 262.129548 
Q 294.917949 263.17591 294.917949 265.441333 
Q 294.917949 267.005797 292.11529 268.011523 
Q 289.325142 269.017249 283.694801 269.494715 
Q 286.785233 269.684347 289.225047 270.358217 
Q 291.677374 271.028702 294.179748 272.393374 
L 302.35 276.8802 
L 286.322293 276.8802 
L 279.203039 272.955497 
Q 277.050997 271.770298 274.836396 271.336853 
Q 272.634307 270.900023 268.955817 270.900023 
L 264.701781 270.900023 
z
" clip-path="url(#pbcb7e228d2)" style="fill: #bd2e1f"/>
   </g>
   <g id="patch_56">
    <path d="M 277.405333 257.267894 
L 276.373292 257.267894 
Q 263.714313 257.267894 256.676667 255.103663 
Q 249.65 252.936034 249.65 249.073034 
Q 249.65 245.21683 256.665687 243.032214 
Q 263.681375 240.8442 276 240.8442 
Q 288.450375 240.8442 295.400188 243.011829 
Q 302.35 245.17606 302.35 249.073034 
Q 302.35 251.746896 298.661 253.680095 
Q 294.972 255.613293 288.044146 256.588386 
L 298.364562 260.1558 
L 285.771458 260.1558 
L 277.405333 257.267894 
z
M 276 243.806852 
Q 269.961458 243.806852 266.634771 245.186252 
Q 263.308083 246.565652 263.308083 249.073034 
Q 263.308083 251.621187 266.557917 252.976804 
Q 269.818729 254.329024 276 254.329024 
Q 282.071479 254.329024 285.398167 252.949624 
Q 288.724854 251.566827 288.724854 249.073034 
Q 288.724854 246.565652 285.398167 245.186252 
Q 282.071479 243.806852 276 243.806852 
z
" clip-path="url(#pbcb7e228d2)" style="fill: #40ba47"/>
   </g>
   <g id="patch_57">
    <path d="M 286.155336 234.845765 
L 265.887763 234.845765 
L 262.68762 239.643 
L 249.65 239.643 
L 268.269015 213.309 
L 283.730985 213.309 
L 302.35 239.643 
L 289.323155 239.643 
L 286.155336 234.845765 
z
M 269.120231 229.958228 
L 282.890544 229.958228 
L 276.016162 219.483324 
L 269.120231 229.958228 
z
" clip-path="url(#pbcb7e228d2)" style="fill: #21599c"/>
   </g>
   <g id="patch_58">
    <path d="M 249.65 176.58 
L 301.253077 176.58 
L 301.253077 183.427818 
L 268.774615 183.427818 
L 268.774615 189.959583 
L 299.329487 189.959583 
L 299.329487 196.807402 
L 268.774615 196.807402 
L 268.774615 204.851707 
L 302.35 204.851707 
L 302.35 211.692 
L 249.65 211.692 
L 249.65 176.58 
z
" clip-path="url(#pbcb7e228d2)" style="fill: #6b296b"/>
   </g>
   <g id="patch_59">
    <path d="M 249.65 128.8092 
L 263.537864 128.8092 
L 263.537864 145.468964 
L 283.555783 128.8092 
L 299.683253 128.8092 
L 273.743078 150.428741 
L 302.35 174.4548 
L 284.964195 174.4548 
L 263.537864 156.474386 
L 263.537864 174.4548 
L 249.65 174.4548 
L 249.65 128.8092 
z
" clip-path="url(#pbcb7e228d2)" style="fill: #bd2e1f"/>
   </g>
   <g id="patch_60">
    <path d="M 249.65 53.7342 
L 268.774615 53.7342 
L 268.774615 111.691199 
L 302.35 111.691199 
L 302.35 125.7138 
L 249.65 125.7138 
L 249.65 53.7342 
z
" clip-path="url(#pbcb7e228d2)" style="fill: #21599c"/>
   </g>
   <g id="patch_61">
    <path d="M 311.65 382.6782 
L 330.774615 382.6782 
L 330.774615 384.091785 
L 364.35 384.091785 
L 364.35 384.4338 
L 311.65 384.4338 
L 311.65 382.6782 
z
" clip-path="url(#pbcb7e228d2)" style="fill: #21599c"/>
   </g>
   <g id="patch_62">
    <path d="M 348.155336 381.899969 
L 327.887763 381.899969 
L 324.68762 382.5396 
L 311.65 382.5396 
L 330.269015 379.0284 
L 345.730985 379.0284 
L 364.35 382.5396 
L 351.323155 382.5396 
L 348.155336 381.899969 
z
M 331.120231 381.248297 
L 344.890544 381.248297 
L 338.016162 379.851643 
L 331.120231 381.248297 
z
" clip-path="url(#pbcb7e228d2)" style="fill: #21599c"/>
   </g>
   <g id="patch_63">
    <path d="M 311.65 60.0174 
L 363.253077 60.0174 
L 363.253077 120.620592 
L 330.774615 120.620592 
L 330.774615 178.426713 
L 361.329487 178.426713 
L 361.329487 239.029904 
L 330.774615 239.029904 
L 330.774615 310.222005 
L 364.35 310.222005 
L 364.35 370.7586 
L 311.65 370.7586 
L 311.65 60.0174 
z
" clip-path="url(#pbcb7e228d2)" style="fill: #6b296b"/>
   </g>
   <g id="patch_64">
    <path d="M 373.65 380.8764 
L 390.578032 380.8764 
L 411.968106 383.284424 
L 411.968106 380.8764 
L 426.35 380.8764 
L 426.35 384.3876 
L 409.409364 384.3876 
L 388.01929 381.979576 
L 388.01929 384.3876 
L 373.65 384.3876 
L 373.65 380.8764 
z
" clip-path="url(#pbcb7e228d2)" style="fill: #40ba47"/>
   </g>
   <g id="patch_65">
    <path d="M 401.405333 380.166526 
L 400.373292 380.166526 
Q 387.714313 380.166526 380.676667 379.77303 
Q 373.65 379.378915 373.65 378.676552 
Q 373.65 377.975424 380.665687 377.578221 
Q 387.681375 377.1804 400 377.1804 
Q 412.450375 377.1804 419.400188 377.574514 
Q 426.35 377.968011 426.35 378.676552 
Q 426.35 379.162708 422.661 379.514199 
Q 418.972 379.86569 412.044146 380.042979 
L 422.364563 380.6916 
L 409.771458 380.6916 
L 401.405333 380.166526 
z
M 400 377.719064 
Q 393.961458 377.719064 390.634771 377.969864 
Q 387.308083 378.220664 387.308083 378.676552 
Q 387.308083 379.139852 390.557917 379.386328 
Q 393.818729 379.632186 400 379.632186 
Q 406.071479 379.632186 409.398167 379.381386 
Q 412.724854 379.129968 412.724854 378.676552 
Q 412.724854 378.220664 409.398167 377.969864 
Q 406.071479 377.719064 400 377.719064 
z
" clip-path="url(#pbcb7e228d2)" style="fill: #40ba47"/>
   </g>
   <g id="patch_66">
    <path d="M 395.032787 374.018007 
Q 399.762274 374.018007 401.814221 373.85998 
Q 403.866168 373.700825 403.866168 373.337364 
Q 403.866168 372.977289 401.814221 372.822649 
Q 399.762274 372.66688 395.032787 372.66688 
L 388.701781 372.66688 
L 388.701781 374.018007 
L 395.032787 374.018007 
z
M 388.701781 374.956008 
L 388.701781 376.9494 
L 373.65 376.9494 
L 373.65 371.6826 
L 396.634307 371.6826 
Q 408.170252 371.6826 413.537844 372.032516 
Q 418.917949 372.381303 418.917949 373.136444 
Q 418.917949 373.657932 416.11529 373.993174 
Q 413.325142 374.328416 407.694801 374.487572 
Q 410.785233 374.550782 413.225047 374.775406 
Q 415.677374 374.998901 418.179748 375.453791 
L 426.35 376.9494 
L 410.322293 376.9494 
L 403.203039 375.641166 
Q 401.050997 375.246099 398.836396 375.101618 
Q 396.634307 374.956008 392.955817 374.956008 
L 388.701781 374.956008 
z
" clip-path="url(#pbcb7e228d2)" style="fill: #bd2e1f"/>
   </g>
   <g id="patch_67">
    <path d="M 373.65 364.3368 
L 388.22 364.3368 
L 399.988929 366.83964 
L 411.746786 364.3368 
L 426.35 364.3368 
L 406.665 368.400341 
L 406.665 371.3592 
L 393.346071 371.3592 
L 393.346071 368.400341 
L 373.65 364.3368 
z
" clip-path="url(#pbcb7e228d2)" style="fill: #177875"/>
   </g>
   <g id="patch_68">
    <path d="M 388.091481 358.314364 
L 388.091481 362.599141 
L 393.265444 362.599141 
Q 402.112802 362.599141 406.782574 362.048306 
Q 411.464351 361.49747 411.464351 360.448475 
Q 411.464351 359.4055 406.806583 358.860684 
Q 402.16082 358.314364 393.265444 358.314364 
L 388.091481 358.314364 
z
M 373.65 356.9448 
L 388.871777 356.9448 
Q 401.63262 356.9448 407.874989 357.173562 
Q 414.117358 357.40082 418.583052 357.94714 
Q 422.520547 358.422725 424.429271 359.044296 
Q 426.35 359.664362 426.35 360.448475 
Q 426.35 361.244628 424.429271 361.867704 
Q 422.520547 362.49078 418.583052 362.96486 
Q 414.081344 363.51118 407.778952 363.739943 
Q 401.47656 363.9672 388.871777 363.9672 
L 373.65 363.9672 
L 373.65 356.9448 
z
" clip-path="url(#pbcb7e228d2)" style="fill: #6b296b"/>
   </g>
   <g id="patch_69">
    <path d="M 373.65 347.751 
L 387.537864 347.751 
L 387.537864 350.954801 
L 407.555783 347.751 
L 423.683253 347.751 
L 397.743078 351.908604 
L 426.35 356.529 
L 408.964195 356.529 
L 387.537864 353.071228 
L 387.537864 356.529 
L 373.65 356.529 
L 373.65 347.751 
z
" clip-path="url(#pbcb7e228d2)" style="fill: #bd2e1f"/>
   </g>
   <g id="patch_70">
    <path d="M 373.65 334.9074 
L 389.195992 334.9074 
L 399.979692 341.483939 
L 410.83447 334.9074 
L 426.35 334.9074 
L 426.35 347.1966 
L 414.80474 347.1966 
L 414.80474 338.207522 
L 403.889037 344.834103 
L 396.141426 344.834103 
L 385.225723 338.207522 
L 385.225723 347.1966 
L 373.65 347.1966 
L 373.65 334.9074 
z
" clip-path="url(#pbcb7e228d2)" style="fill: #21599c"/>
   </g>
   <g id="patch_71">
    <path d="M 374.198462 318.3678 
L 425.801538 318.3678 
L 425.801538 321.449318 
L 393.323077 321.449318 
L 393.323077 324.388613 
L 423.877949 324.388613 
L 423.877949 327.470131 
L 393.323077 327.470131 
L 393.323077 334.1682 
L 374.198462 334.1682 
L 374.198462 318.3678 
z
" clip-path="url(#pbcb7e228d2)" style="fill: #21599c"/>
   </g>
   <g id="patch_72">
    <path d="M 426.35 315.901583 
Q 421.035119 316.695791 415.318669 317.094709 
Q 409.602219 317.49 403.507822 317.49 
Q 389.736374 317.49 381.693187 315.125507 
Q 373.65 312.761013 373.65 308.71744 
Q 373.65 304.626721 381.834917 302.280361 
Q 390.031645 299.934 404.287338 299.934 
Q 409.779381 299.934 414.810802 300.253134 
Q 419.854034 300.568642 424.318534 301.192404 
L 424.318534 304.691999 
Q 419.712304 303.890537 415.153317 303.495246 
Q 410.59433 303.096328 406.011721 303.096328 
Q 397.531533 303.096328 392.937113 304.554191 
Q 388.342694 306.008427 388.342694 308.71744 
Q 388.342694 311.401067 392.771762 312.866183 
Q 397.200829 314.327672 405.350314 314.327672 
Q 407.570753 314.327672 409.472299 314.244262 
Q 411.373846 314.157225 412.885634 313.975899 
L 412.885634 310.690269 
L 404.204662 310.690269 
L 404.204662 307.763664 
L 426.35 307.763664 
L 426.35 315.901583 
z
" clip-path="url(#pbcb7e228d2)" style="fill: #787800"/>
   </g>
   <g id="patch_73">
    <path d="M 373.65 279.6522 
L 426.35 279.6522 
L 426.35 283.4185 
L 407.390256 283.4185 
L 407.390256 298.9638 
L 392.646512 298.9638 
L 392.646512 283.4185 
L 373.65 283.4185 
L 373.65 279.6522 
z
" clip-path="url(#pbcb7e228d2)" style="fill: #40ba47"/>
   </g>
   <g id="patch_74">
    <path d="M 421.955948 260.2457 
L 421.955948 264.187005 
Q 416.459804 263.500867 411.221293 263.153809 
Q 405.997094 262.802761 401.34541 262.802761 
Q 395.176562 262.802761 392.213797 263.277473 
Q 389.265345 263.748196 389.265345 264.74549 
Q 389.265345 265.495455 391.254834 265.914318 
Q 393.244324 266.329193 398.482835 266.628381 
L 405.811027 267.039266 
Q 416.946442 267.665567 421.641065 268.938114 
Q 426.35 270.206672 426.35 272.552307 
Q 426.35 275.627961 419.794704 277.131881 
Q 413.239408 278.6358 399.770994 278.6358 
Q 393.430391 278.6358 387.032537 278.29672 
Q 380.634682 277.961629 374.236828 277.299426 
L 374.236828 273.250413 
Q 380.634682 274.195847 386.60315 274.678538 
Q 392.571619 275.157239 398.125014 275.157239 
Q 403.764286 275.157239 406.755676 274.634657 
Q 409.747067 274.108085 409.747067 273.134727 
Q 409.747067 272.265086 407.714639 271.790374 
Q 405.682211 271.315662 399.59924 270.94068 
L 392.929441 270.529795 
Q 382.910429 269.931418 378.273058 268.622969 
Q 373.65 267.314519 373.65 265.096537 
Q 373.65 262.316082 380.090793 260.820141 
Q 386.531586 259.3242 398.611651 259.3242 
Q 404.122108 259.3242 409.933134 259.555572 
Q 415.744161 259.786944 421.955948 260.2457 
z
" clip-path="url(#pbcb7e228d2)" style="fill: #40ba47"/>
   </g>
   <g id="patch_75">
    <path d="M 410.155336 252.227718 
L 389.887763 252.227718 
L 386.68762 257.9844 
L 373.65 257.9844 
L 392.269015 226.3836 
L 407.730985 226.3836 
L 426.35 257.9844 
L 413.323155 257.9844 
L 410.155336 252.227718 
z
M 393.120231 246.362674 
L 406.890544 246.362674 
L 400.016162 233.792789 
L 393.120231 246.362674 
z
" clip-path="url(#pbcb7e228d2)" style="fill: #21599c"/>
   </g>
   <g id="patch_76">
    <path d="M 373.65 182.3088 
L 386.68762 182.3088 
L 400.016162 213.40843 
L 413.323155 182.3088 
L 426.35 182.3088 
L 407.730985 224.4432 
L 392.269015 224.4432 
L 373.65 182.3088 
z
" clip-path="url(#pbcb7e228d2)" style="fill: #21599c"/>
   </g>
   <g id="patch_77">
    <path d="M 390.437692 136.155 
L 409.562308 136.155 
L 409.562308 180.045 
L 390.437692 180.045 
L 390.437692 136.155 
z
" clip-path="url(#pbcb7e228d2)" style="fill: #21599c"/>
   </g>
   <g id="patch_78">
    <path d="M 373.65 53.919 
L 392.774615 53.919 
L 392.774615 117.53034 
L 426.35 117.53034 
L 426.35 132.921 
L 373.65 132.921 
L 373.65 53.919 
z
" clip-path="url(#pbcb7e228d2)" style="fill: #21599c"/>
   </g>
   <g id="patch_79">
    <path d="M 457.032787 382.433338 
Q 461.762274 382.433338 463.814221 382.327987 
Q 465.866168 382.221883 465.866168 381.979576 
Q 465.866168 381.739526 463.814221 381.636433 
Q 461.762274 381.532587 457.032787 381.532587 
L 450.701781 381.532587 
L 450.701781 382.433338 
L 457.032787 382.433338 
z
M 450.701781 383.058672 
L 450.701781 384.3876 
L 435.65 384.3876 
L 435.65 380.8764 
L 458.634307 380.8764 
Q 470.170252 380.8764 475.537844 381.109677 
Q 480.917949 381.342202 480.917949 381.84563 
Q 480.917949 382.193288 478.11529 382.416783 
Q 475.325142 382.640278 469.694801 382.746381 
Q 472.785233 382.788522 475.225047 382.938271 
Q 477.677374 383.087267 480.179748 383.390528 
L 488.35 384.3876 
L 472.322293 384.3876 
L 465.203039 383.515444 
Q 463.050997 383.252066 460.836396 383.155745 
Q 458.634307 383.058672 454.955817 383.058672 
L 450.701781 383.058672 
z
" clip-path="url(#pbcb7e228d2)" style="fill: #bd2e1f"/>
   </g>
   <g id="patch_80">
    <path d="M 435.65 377.1804 
L 450.813382 377.1804 
L 450.813382 378.518358 
L 473.186618 378.518358 
L 473.186618 377.1804 
L 488.35 377.1804 
L 488.35 380.6916 
L 473.186618 380.6916 
L 473.186618 379.20314 
L 450.813382 379.20314 
L 450.813382 380.6916 
L 435.65 380.6916 
L 435.65 377.1804 
z
" clip-path="url(#pbcb7e228d2)" style="fill: #177875"/>
   </g>
   <g id="patch_81">
    <path d="M 435.65 373.4844 
L 451.195992 373.4844 
L 461.979692 375.363411 
L 472.83447 373.4844 
L 488.35 373.4844 
L 488.35 376.9956 
L 476.80474 376.9956 
L 476.80474 374.427292 
L 465.889037 376.320601 
L 458.141426 376.320601 
L 447.225723 374.427292 
L 447.225723 376.9956 
L 435.65 376.9956 
L 435.65 373.4844 
z
" clip-path="url(#pbcb7e228d2)" style="fill: #21599c"/>
   </g>
   <g id="patch_82">
    <path d="M 435.65 369.7884 
L 452.578032 369.7884 
L 473.968106 372.196424 
L 473.968106 369.7884 
L 488.35 369.7884 
L 488.35 373.2996 
L 471.409364 373.2996 
L 450.01929 370.891576 
L 450.01929 373.2996 
L 435.65 373.2996 
L 435.65 369.7884 
z
" clip-path="url(#pbcb7e228d2)" style="fill: #40ba47"/>
   </g>
   <g id="patch_83">
    <path d="M 435.65 358.8852 
L 450.22 358.8852 
L 461.988929 362.63946 
L 473.746786 358.8852 
L 488.35 358.8852 
L 468.665 364.980511 
L 468.665 369.4188 
L 455.346071 369.4188 
L 455.346071 364.980511 
L 435.65 358.8852 
z
" clip-path="url(#pbcb7e228d2)" style="fill: #177875"/>
   </g>
   <g id="patch_84">
    <path d="M 450.091481 349.851545 
L 450.091481 356.278712 
L 455.265444 356.278712 
Q 464.112802 356.278712 468.782574 355.452459 
Q 473.464351 354.626206 473.464351 353.052712 
Q 473.464351 351.488249 468.806583 350.671026 
Q 464.16082 349.851545 455.265444 349.851545 
L 450.091481 349.851545 
z
M 435.65 347.7972 
L 450.871777 347.7972 
Q 463.63262 347.7972 469.874989 348.140343 
Q 476.117358 348.481229 480.583052 349.30071 
Q 484.520547 350.014087 486.429271 350.946444 
Q 488.35 351.876543 488.35 353.052712 
Q 488.35 354.246942 486.429271 355.181556 
Q 484.520547 356.11617 480.583052 356.82729 
Q 476.081344 357.646771 469.778952 357.989914 
Q 463.47656 358.3308 450.871777 358.3308 
L 435.65 358.3308 
L 435.65 347.7972 
z
" clip-path="url(#pbcb7e228d2)" style="fill: #6b296b"/>
   </g>
   <g id="patch_85">
    <path d="M 488.35 345.674624 
Q 483.035119 346.389412 477.318669 346.748438 
Q 471.602219 347.1042 465.507822 347.1042 
Q 451.736374 347.1042 443.693187 344.976156 
Q 435.65 342.848112 435.65 339.208896 
Q 435.65 335.527249 443.834917 333.415525 
Q 452.031645 331.3038 466.287338 331.3038 
Q 471.779381 331.3038 476.810802 331.591021 
Q 481.854034 331.874977 486.318534 332.436363 
L 486.318534 335.585999 
Q 481.712304 334.864683 477.153317 334.508921 
Q 472.59433 334.149896 468.011721 334.149896 
Q 459.531533 334.149896 454.937113 335.461972 
Q 450.342694 336.770784 450.342694 339.208896 
Q 450.342694 341.62416 454.771762 342.942764 
Q 459.200829 344.258104 467.350314 344.258104 
Q 469.570753 344.258104 471.472299 344.183035 
Q 473.373846 344.104702 474.885634 343.941509 
L 474.885634 340.984442 
L 466.204662 340.984442 
L 466.204662 338.350498 
L 488.35 338.350498 
L 488.35 345.674624 
z
" clip-path="url(#pbcb7e228d2)" style="fill: #787800"/>
   </g>
   <g id="patch_86">
    <path d="M 463.405333 328.109367 
L 462.373292 328.109367 
Q 449.714313 328.109367 442.676667 326.338633 
Q 435.65 324.565119 435.65 321.404483 
Q 435.65 318.249406 442.665687 316.461993 
Q 449.681375 314.6718 462 314.6718 
Q 474.450375 314.6718 481.400187 316.445314 
Q 488.35 318.216049 488.35 321.404483 
Q 488.35 323.592188 484.661 325.173896 
Q 480.972 326.755603 474.044146 327.553407 
L 484.364562 330.4722 
L 471.771458 330.4722 
L 463.405333 328.109367 
z
M 462 317.095788 
Q 455.961458 317.095788 452.634771 318.224388 
Q 449.308083 319.352988 449.308083 321.404483 
Q 449.308083 323.489335 452.557917 324.598476 
Q 455.818729 325.704838 462 325.704838 
Q 468.071479 325.704838 471.398167 324.576238 
Q 474.724854 323.444858 474.724854 321.404483 
Q 474.724854 319.352988 471.398167 318.224388 
Q 468.071479 317.095788 462 317.095788 
z
" clip-path="url(#pbcb7e228d2)" style="fill: #40ba47"/>
   </g>
   <g id="patch_87">
    <path d="M 435.65 296.238 
L 488.35 296.238 
L 488.35 299.661909 
L 469.390256 299.661909 
L 469.390256 313.794 
L 454.646512 313.794 
L 454.646512 299.661909 
L 435.65 299.661909 
L 435.65 296.238 
z
" clip-path="url(#pbcb7e228d2)" style="fill: #40ba47"/>
   </g>
   <g id="patch_88">
    <path d="M 436.198462 275.9562 
L 487.801538 275.9562 
L 487.801538 279.7225 
L 455.323077 279.7225 
L 455.323077 283.314971 
L 485.877949 283.314971 
L 485.877949 287.081271 
L 455.323077 287.081271 
L 455.323077 295.2678 
L 436.198462 295.2678 
L 436.198462 275.9562 
z
" clip-path="url(#pbcb7e228d2)" style="fill: #21599c"/>
   </g>
   <g id="patch_89">
    <path d="M 435.65 253.8264 
L 448.68762 253.8264 
L 462.016162 269.376215 
L 475.323155 253.8264 
L 488.35 253.8264 
L 469.730985 274.8936 
L 454.269015 274.8936 
L 435.65 253.8264 
z
" clip-path="url(#pbcb7e228d2)" style="fill: #21599c"/>
   </g>
   <g id="patch_90">
    <path d="M 483.955948 230.937645 
L 483.955948 235.595552 
Q 478.459804 234.784661 473.221293 234.374501 
Q 467.997094 233.959627 463.34541 233.959627 
Q 457.176562 233.959627 454.213797 234.52065 
Q 451.265345 235.076959 451.265345 236.255579 
Q 451.265345 237.141901 453.254834 237.636922 
Q 455.244324 238.127228 460.482835 238.480814 
L 467.811027 238.966405 
Q 478.946442 239.706579 483.641065 241.210498 
Q 488.35 242.709703 488.35 245.481817 
Q 488.35 249.116682 481.794704 250.894041 
Q 475.239408 252.6714 461.770994 252.6714 
Q 455.430391 252.6714 449.032537 252.270669 
Q 442.634682 251.874653 436.236828 251.092049 
L 436.236828 246.306851 
Q 442.634682 247.424183 448.60315 247.994635 
Q 454.571619 248.560373 460.125014 248.560373 
Q 465.764286 248.560373 468.755676 247.942776 
Q 471.747067 247.320465 471.747067 246.170131 
Q 471.747067 245.142375 469.714639 244.581351 
Q 467.682211 244.020328 461.59924 243.577167 
L 454.929441 243.091576 
Q 444.910429 242.384404 440.273058 240.838054 
Q 435.65 239.291704 435.65 236.670453 
Q 435.65 233.38446 442.090793 231.61653 
Q 448.531586 229.8486 460.611651 229.8486 
Q 466.122108 229.8486 471.933134 230.12204 
Q 477.744161 230.39548 483.955948 230.937645 
z
" clip-path="url(#pbcb7e228d2)" style="fill: #40ba47"/>
   </g>
   <g id="patch_91">
    <path d="M 435.65 202.221 
L 487.253077 202.221 
L 487.253077 207.356864 
L 454.774615 207.356864 
L 454.774615 212.255688 
L 485.329487 212.255688 
L 485.329487 217.391551 
L 454.774615 217.391551 
L 454.774615 223.42478 
L 488.35 223.42478 
L 488.35 228.555 
L 435.65 228.555 
L 435.65 202.221 
z
" clip-path="url(#pbcb7e228d2)" style="fill: #6b296b"/>
   </g>
   <g id="patch_92">
    <path d="M 452.437692 174.501 
L 471.562308 174.501 
L 471.562308 200.835 
L 452.437692 200.835 
L 452.437692 174.501 
z
" clip-path="url(#pbcb7e228d2)" style="fill: #21599c"/>
   </g>
   <g id="patch_93">
    <path d="M 435.65 144.9792 
L 449.537864 144.9792 
L 449.537864 155.231362 
L 469.555783 144.9792 
L 485.683253 144.9792 
L 459.743078 158.283533 
L 488.35 173.0688 
L 470.964195 173.0688 
L 449.537864 162.00393 
L 449.537864 173.0688 
L 435.65 173.0688 
L 435.65 144.9792 
z
" clip-path="url(#pbcb7e228d2)" style="fill: #bd2e1f"/>
   </g>
   <g id="patch_94">
    <path d="M 435.65 111.8076 
L 454.774615 111.8076 
L 454.774615 137.252136 
L 488.35 137.252136 
L 488.35 143.4084 
L 435.65 143.4084 
L 435.65 111.8076 
z
" clip-path="url(#pbcb7e228d2)" style="fill: #21599c"/>
   </g>
   <g id="patch_95">
    <path d="M 472.155336 99.263498 
L 451.887763 99.263498 
L 448.68762 109.4976 
L 435.65 109.4976 
L 454.269015 53.3184 
L 469.730985 53.3184 
L 488.35 109.4976 
L 475.323155 109.4976 
L 472.155336 99.263498 
z
M 455.120231 88.836754 
L 468.890544 88.836754 
L 462.016162 66.490291 
L 455.120231 88.836754 
z
" clip-path="url(#pbcb7e228d2)" style="fill: #21599c"/>
   </g>
   <g id="patch_96">
    <path d="M 497.65 380.8764 
L 513.195992 380.8764 
L 523.979692 382.755411 
L 534.83447 380.8764 
L 550.35 380.8764 
L 550.35 384.3876 
L 538.80474 384.3876 
L 538.80474 381.819292 
L 527.889037 383.712601 
L 520.141426 383.712601 
L 509.225723 381.819292 
L 509.225723 384.3876 
L 497.65 384.3876 
L 497.65 380.8764 
z
" clip-path="url(#pbcb7e228d2)" style="fill: #21599c"/>
   </g>
   <g id="patch_97">
    <path d="M 497.65 375.3786 
L 525.043021 375.3786 
Q 537.271068 375.3786 543.803672 375.825589 
Q 550.35 376.27145 550.35 377.096575 
Q 550.35 377.926214 543.803672 378.372075 
Q 537.271068 378.817936 525.043021 378.817936 
L 514.159922 378.817936 
L 514.159922 380.6454 
L 497.65 380.6454 
L 497.65 375.3786 
z
M 514.159922 376.36288 
L 514.159922 377.833656 
L 523.286354 377.833656 
Q 528.08974 377.833656 530.711016 377.641766 
Q 533.332292 377.449877 533.332292 377.096575 
Q 533.332292 376.744401 530.711016 376.55364 
Q 528.08974 376.36288 523.286354 376.36288 
L 514.159922 376.36288 
z
" clip-path="url(#pbcb7e228d2)" style="fill: #787800"/>
   </g>
   <g id="patch_98">
    <path d="M 519.032787 372.170007 
Q 523.762274 372.170007 525.814221 372.01198 
Q 527.866168 371.852825 527.866168 371.489364 
Q 527.866168 371.129289 525.814221 370.974649 
Q 523.762274 370.81888 519.032787 370.81888 
L 512.701781 370.81888 
L 512.701781 372.170007 
L 519.032787 372.170007 
z
M 512.701781 373.108008 
L 512.701781 375.1014 
L 497.65 375.1014 
L 497.65 369.8346 
L 520.634307 369.8346 
Q 532.170252 369.8346 537.537844 370.184516 
Q 542.917949 370.533303 542.917949 371.288444 
Q 542.917949 371.809932 540.11529 372.145174 
Q 537.325142 372.480416 531.694801 372.639572 
Q 534.785233 372.702782 537.225047 372.927406 
Q 539.677374 373.150901 542.179748 373.605791 
L 550.35 375.1014 
L 534.322293 375.1014 
L 527.203039 373.793166 
Q 525.050997 373.398099 522.836396 373.253618 
Q 520.634307 373.108008 516.955817 373.108008 
L 512.701781 373.108008 
z
" clip-path="url(#pbcb7e228d2)" style="fill: #bd2e1f"/>
   </g>
   <g id="patch_99">
    <path d="M 497.65 362.4888 
L 512.813382 362.4888 
L 512.813382 365.164717 
L 535.186618 365.164717 
L 535.186618 362.4888 
L 550.35 362.4888 
L 550.35 369.5112 
L 535.186618 369.5112 
L 535.186618 366.53428 
L 512.813382 366.53428 
L 512.813382 369.5112 
L 497.65 369.5112 
L 497.65 362.4888 
z
" clip-path="url(#pbcb7e228d2)" style="fill: #177875"/>
   </g>
   <g id="patch_100">
    <path d="M 514.437692 353.295 
L 533.562308 353.295 
L 533.562308 362.073 
L 514.437692 362.073 
L 514.437692 353.295 
z
" clip-path="url(#pbcb7e228d2)" style="fill: #21599c"/>
   </g>
   <g id="patch_101">
    <path d="M 497.65 342.2532 
L 510.68762 342.2532 
L 524.016162 350.028108 
L 537.323155 342.2532 
L 550.35 342.2532 
L 531.730985 352.7868 
L 516.269015 352.7868 
L 497.65 342.2532 
z
" clip-path="url(#pbcb7e228d2)" style="fill: #21599c"/>
   </g>
   <g id="patch_102">
    <path d="M 497.65 331.1652 
L 550.35 331.1652 
L 550.35 333.219545 
L 531.390256 333.219545 
L 531.390256 341.6988 
L 516.646512 341.6988 
L 516.646512 333.219545 
L 497.65 333.219545 
L 497.65 331.1652 
z
" clip-path="url(#pbcb7e228d2)" style="fill: #40ba47"/>
   </g>
   <g id="patch_103">
    <path d="M 497.65 320.0772 
L 514.578032 320.0772 
L 535.968106 327.301272 
L 535.968106 320.0772 
L 550.35 320.0772 
L 550.35 330.6108 
L 533.409364 330.6108 
L 512.01929 323.386728 
L 512.01929 330.6108 
L 497.65 330.6108 
L 497.65 320.0772 
z
" clip-path="url(#pbcb7e228d2)" style="fill: #40ba47"/>
   </g>
   <g id="patch_104">
    <path d="M 550.35 318.364708 
Q 545.035119 318.920654 539.318669 319.199896 
Q 533.602219 319.4766 527.507822 319.4766 
Q 513.736374 319.4766 505.693187 317.821455 
Q 497.65 316.166309 497.65 313.335808 
Q 497.65 310.472305 505.834917 308.829852 
Q 514.031645 307.1874 528.287338 307.1874 
Q 533.779381 307.1874 538.810802 307.410794 
Q 543.854034 307.631649 548.318534 308.068283 
L 548.318534 310.517999 
Q 543.712304 309.956976 539.153317 309.680272 
Q 534.59433 309.40103 530.011721 309.40103 
Q 521.531533 309.40103 516.937113 310.421534 
Q 512.342694 311.439499 512.342694 313.335808 
Q 512.342694 315.214347 516.771762 316.239928 
Q 521.200829 317.26297 529.350314 317.26297 
Q 531.570753 317.26297 533.472299 317.204583 
Q 535.373846 317.143657 536.885634 317.016729 
L 536.885634 314.716788 
L 528.204662 314.716788 
L 528.204662 312.668165 
L 550.35 312.668165 
L 550.35 318.364708 
z
" clip-path="url(#pbcb7e228d2)" style="fill: #787800"/>
   </g>
   <g id="patch_105">
    <path d="M 525.405333 304.394104 
L 524.373292 304.394104 
Q 511.714313 304.394104 504.676667 302.820118 
Q 497.65 301.243661 497.65 298.434207 
Q 497.65 295.629695 504.665687 294.040883 
Q 511.681375 292.4496 524 292.4496 
Q 536.450375 292.4496 543.400187 294.026057 
Q 550.35 295.600043 550.35 298.434207 
Q 550.35 300.378833 546.661 301.784796 
Q 542.972 303.190759 536.044146 303.899917 
L 546.364562 306.4944 
L 533.771458 306.4944 
L 525.405333 304.394104 
z
M 524 294.604256 
Q 517.961458 294.604256 514.634771 295.607456 
Q 511.308083 296.610656 511.308083 298.434207 
Q 511.308083 300.287409 514.557917 301.273312 
Q 517.818729 302.256745 524 302.256745 
Q 530.071479 302.256745 533.398167 301.253545 
Q 536.724854 300.247874 536.724854 298.434207 
Q 536.724854 296.610656 533.398167 295.607456 
Q 530.071479 294.604256 524 294.604256 
z
" clip-path="url(#pbcb7e228d2)" style="fill: #40ba47"/>
   </g>
   <g id="patch_106">
    <path d="M 497.65 275.8638 
L 512.22 275.8638 
L 523.988929 281.49519 
L 535.746786 275.8638 
L 550.35 275.8638 
L 530.665 285.006766 
L 530.665 291.6642 
L 517.346071 291.6642 
L 517.346071 285.006766 
L 497.65 275.8638 
z
" clip-path="url(#pbcb7e228d2)" style="fill: #177875"/>
   </g>
   <g id="patch_107">
    <path d="M 512.091481 262.313318 
L 512.091481 271.954068 
L 517.265444 271.954068 
Q 526.112802 271.954068 530.782574 270.714688 
Q 535.464351 269.475308 535.464351 267.115069 
Q 535.464351 264.768374 530.806583 263.542539 
Q 526.16082 262.313318 517.265444 262.313318 
L 512.091481 262.313318 
z
M 497.65 259.2318 
L 512.871777 259.2318 
Q 525.63262 259.2318 531.874989 259.746515 
Q 538.117358 260.257844 542.583052 261.487065 
Q 546.520547 262.557131 548.429271 263.955666 
Q 550.35 265.350815 550.35 267.115069 
Q 550.35 268.906413 548.429271 270.308334 
Q 546.520547 271.710256 542.583052 272.776935 
Q 538.081344 274.006156 531.778952 274.520871 
Q 525.47656 275.0322 512.871777 275.0322 
L 497.65 275.0322 
L 497.65 259.2318 
z
" clip-path="url(#pbcb7e228d2)" style="fill: #6b296b"/>
   </g>
   <g id="patch_108">
    <path d="M 498.198462 240.798 
L 549.801538 240.798 
L 549.801538 244.221909 
L 517.323077 244.221909 
L 517.323077 247.487792 
L 547.877949 247.487792 
L 547.877949 250.911701 
L 517.323077 250.911701 
L 517.323077 258.354 
L 498.198462 258.354 
L 498.198462 240.798 
z
" clip-path="url(#pbcb7e228d2)" style="fill: #21599c"/>
   </g>
   <g id="patch_109">
    <path d="M 534.155336 235.577796 
L 513.887763 235.577796 
L 510.68762 239.7354 
L 497.65 239.7354 
L 516.269015 216.9126 
L 531.730985 216.9126 
L 550.35 239.7354 
L 537.323155 239.7354 
L 534.155336 235.577796 
z
M 517.120231 231.341931 
L 530.890544 231.341931 
L 524.016162 222.263681 
L 517.120231 231.341931 
z
" clip-path="url(#pbcb7e228d2)" style="fill: #21599c"/>
   </g>
   <g id="patch_110">
    <path d="M 545.955948 188.823563 
L 545.955948 194.556371 
Q 540.459804 193.558352 535.221293 193.05354 
Q 529.997094 192.542926 525.34541 192.542926 
Q 519.176562 192.542926 516.213797 193.233416 
Q 513.265345 193.918103 513.265345 195.368713 
Q 513.265345 196.459571 515.254834 197.068827 
Q 517.244324 197.67228 522.482835 198.107463 
L 529.811027 198.705114 
Q 540.946442 199.616097 545.641065 201.467074 
Q 550.35 203.31225 550.35 206.724083 
Q 550.35 211.197762 543.794704 213.385281 
Q 537.239408 215.5728 523.770994 215.5728 
Q 517.430391 215.5728 511.032537 215.079593 
Q 504.634682 214.592188 498.236828 213.628983 
L 498.236828 207.739509 
Q 504.634682 209.114687 510.60315 209.816782 
Q 516.571619 210.513074 522.125014 210.513074 
Q 527.764286 210.513074 530.755676 209.752955 
Q 533.747067 208.987033 533.747067 207.571239 
Q 533.747067 206.306307 531.714639 205.615817 
Q 529.682211 204.925327 523.59924 204.379898 
L 516.929441 203.782247 
Q 506.910429 202.911881 502.273058 201.008682 
Q 497.65 199.105482 497.65 195.879327 
Q 497.65 191.835028 504.090793 189.659114 
Q 510.531586 187.4832 522.611651 187.4832 
Q 528.122108 187.4832 533.933134 187.819741 
Q 539.744161 188.156283 545.955948 188.823563 
z
" clip-path="url(#pbcb7e228d2)" style="fill: #40ba47"/>
   </g>
   <g id="patch_111">
    <path d="M 497.65 145.3026 
L 516.774615 145.3026 
L 516.774615 177.815063 
L 550.35 177.815063 
L 550.35 185.6814 
L 497.65 185.6814 
L 497.65 145.3026 
z
" clip-path="url(#pbcb7e228d2)" style="fill: #21599c"/>
   </g>
   <g id="patch_112">
    <path d="M 497.65 99.195 
L 511.537864 99.195 
L 511.537864 115.214003 
L 531.555783 99.195 
L 547.683253 99.195 
L 521.743078 119.98302 
L 550.35 143.085 
L 532.964195 143.085 
L 511.537864 125.79614 
L 511.537864 143.085 
L 497.65 143.085 
L 497.65 99.195 
z
" clip-path="url(#pbcb7e228d2)" style="fill: #bd2e1f"/>
   </g>
   <g id="patch_113">
    <path d="M 497.65 52.995 
L 549.253077 52.995 
L 549.253077 61.554773 
L 516.774615 61.554773 
L 516.774615 69.719479 
L 547.329487 69.719479 
L 547.329487 78.279252 
L 516.774615 78.279252 
L 516.774615 88.334634 
L 550.35 88.334634 
L 550.35 96.885 
L 497.65 96.885 
L 497.65 52.995 
z
" clip-path="url(#pbcb7e228d2)" style="fill: #6b296b"/>
   </g>
   <g id="patch_114">
    <path d="M 559.65 380.8764 
L 587.043021 380.8764 
Q 599.271068 380.8764 605.803672 381.174393 
Q 612.35 381.471633 612.35 382.021716 
Q 612.35 382.574809 605.803672 382.87205 
Q 599.271068 383.16929 587.043021 383.16929 
L 576.159922 383.16929 
L 576.159922 384.3876 
L 559.65 384.3876 
L 559.65 380.8764 
z
M 576.159922 381.532587 
L 576.159922 382.513104 
L 585.286354 382.513104 
Q 590.08974 382.513104 592.711016 382.385178 
Q 595.332292 382.257251 595.332292 382.021716 
Q 595.332292 381.786934 592.711016 381.65976 
Q 590.08974 381.532587 585.286354 381.532587 
L 576.159922 381.532587 
z
" clip-path="url(#pbcb7e228d2)" style="fill: #787800"/>
   </g>
   <g id="patch_115">
    <path d="M 581.032787 378.737338 
Q 585.762274 378.737338 587.814221 378.631987 
Q 589.866168 378.525883 589.866168 378.283576 
Q 589.866168 378.043526 587.814221 377.940433 
Q 585.762274 377.836587 581.032787 377.836587 
L 574.701781 377.836587 
L 574.701781 378.737338 
L 581.032787 378.737338 
z
M 574.701781 379.362672 
L 574.701781 380.6916 
L 559.65 380.6916 
L 559.65 377.1804 
L 582.634307 377.1804 
Q 594.170252 377.1804 599.537844 377.413677 
Q 604.917949 377.646202 604.917949 378.14963 
Q 604.917949 378.497288 602.11529 378.720783 
Q 599.325142 378.944278 593.694801 379.050381 
Q 596.785233 379.092522 599.225047 379.242271 
Q 601.677374 379.391267 604.179748 379.694528 
L 612.35 380.6916 
L 596.322293 380.6916 
L 589.203039 379.819444 
Q 587.050997 379.556066 584.836396 379.459745 
Q 582.634307 379.362672 578.955817 379.362672 
L 574.701781 379.362672 
z
" clip-path="url(#pbcb7e228d2)" style="fill: #bd2e1f"/>
   </g>
   <g id="patch_116">
    <path d="M 607.955948 373.651945 
L 607.955948 374.368546 
Q 602.459804 374.243794 597.221293 374.180693 
Q 591.997094 374.116866 587.34541 374.116866 
Q 581.176562 374.116866 578.213797 374.203177 
Q 575.265345 374.288763 575.265345 374.470089 
Q 575.265345 374.606446 577.254834 374.682603 
Q 579.244324 374.758035 584.482835 374.812433 
L 591.811027 374.887139 
Q 602.946442 375.001012 607.641065 375.232384 
Q 612.35 375.463031 612.35 375.88951 
Q 612.35 376.44872 605.794704 376.72216 
Q 599.239408 376.9956 585.770994 376.9956 
Q 579.430391 376.9956 573.032537 376.933949 
Q 566.634682 376.873024 560.236828 376.752623 
L 560.236828 376.016439 
Q 566.634682 376.188336 572.60315 376.276098 
Q 578.571619 376.363134 584.125014 376.363134 
Q 589.764286 376.363134 592.755676 376.268119 
Q 595.747067 376.172379 595.747067 375.995405 
Q 595.747067 375.837288 593.714639 375.750977 
Q 591.682211 375.664666 585.59924 375.596487 
L 578.929441 375.521781 
Q 568.910429 375.412985 564.273058 375.175085 
Q 559.65 374.937185 559.65 374.533916 
Q 559.65 374.028379 566.090793 373.756389 
Q 572.531586 373.4844 584.611651 373.4844 
Q 590.122108 373.4844 595.933134 373.526468 
Q 601.744161 373.568535 607.955948 373.651945 
z
" clip-path="url(#pbcb7e228d2)" style="fill: #40ba47"/>
   </g>
   <g id="patch_117">
    <path d="M 574.091481 367.554364 
L 574.091481 371.839141 
L 579.265444 371.839141 
Q 588.112802 371.839141 592.782574 371.288306 
Q 597.464351 370.73747 597.464351 369.688475 
Q 597.464351 368.6455 592.806583 368.100684 
Q 588.16082 367.554364 579.265444 367.554364 
L 574.091481 367.554364 
z
M 559.65 366.1848 
L 574.871777 366.1848 
Q 587.63262 366.1848 593.874989 366.413562 
Q 600.117358 366.64082 604.583052 367.18714 
Q 608.520547 367.662725 610.429271 368.284296 
Q 612.35 368.904362 612.35 369.688475 
Q 612.35 370.484628 610.429271 371.107704 
Q 608.520547 371.73078 604.583052 372.20486 
Q 600.081344 372.75118 593.778952 372.979943 
Q 587.47656 373.2072 574.871777 373.2072 
L 559.65 373.2072 
L 559.65 366.1848 
z
" clip-path="url(#pbcb7e228d2)" style="fill: #6b296b"/>
   </g>
   <g id="patch_118">
    <path d="M 559.65 358.7928 
L 574.813382 358.7928 
L 574.813382 361.468717 
L 597.186618 361.468717 
L 597.186618 358.7928 
L 612.35 358.7928 
L 612.35 365.8152 
L 597.186618 365.8152 
L 597.186618 362.83828 
L 574.813382 362.83828 
L 574.813382 365.8152 
L 559.65 365.8152 
L 559.65 358.7928 
z
" clip-path="url(#pbcb7e228d2)" style="fill: #177875"/>
   </g>
   <g id="patch_119">
    <path d="M 559.65 349.599 
L 612.35 349.599 
L 612.35 351.310955 
L 593.390256 351.310955 
L 593.390256 358.377 
L 578.646512 358.377 
L 578.646512 351.310955 
L 559.65 351.310955 
L 559.65 349.599 
z
" clip-path="url(#pbcb7e228d2)" style="fill: #40ba47"/>
   </g>
   <g id="patch_120">
    <path d="M 559.65 340.359 
L 575.195992 340.359 
L 585.979692 345.056528 
L 596.83447 340.359 
L 612.35 340.359 
L 612.35 349.137 
L 600.80474 349.137 
L 600.80474 342.71623 
L 589.889037 347.449502 
L 582.141426 347.449502 
L 571.225723 342.71623 
L 571.225723 349.137 
L 559.65 349.137 
L 559.65 340.359 
z
" clip-path="url(#pbcb7e228d2)" style="fill: #21599c"/>
   </g>
   <g id="patch_121">
    <path d="M 559.65 329.3172 
L 574.22 329.3172 
L 585.988929 333.07146 
L 597.746786 329.3172 
L 612.35 329.3172 
L 592.665 335.412511 
L 592.665 339.8508 
L 579.346071 339.8508 
L 579.346071 335.412511 
L 559.65 329.3172 
z
" clip-path="url(#pbcb7e228d2)" style="fill: #177875"/>
   </g>
   <g id="patch_122">
    <path d="M 560.198462 318.2292 
L 611.801538 318.2292 
L 611.801538 320.283545 
L 579.323077 320.283545 
L 579.323077 322.243075 
L 609.877949 322.243075 
L 609.877949 324.29742 
L 579.323077 324.29742 
L 579.323077 328.7628 
L 560.198462 328.7628 
L 560.198462 318.2292 
z
" clip-path="url(#pbcb7e228d2)" style="fill: #21599c"/>
   </g>
   <g id="patch_123">
    <path d="M 612.35 316.516708 
Q 607.035119 317.072654 601.318669 317.351896 
Q 595.602219 317.6286 589.507822 317.6286 
Q 575.736374 317.6286 567.693187 315.973455 
Q 559.65 314.318309 559.65 311.487808 
Q 559.65 308.624305 567.834917 306.981852 
Q 576.031645 305.3394 590.287338 305.3394 
Q 595.779381 305.3394 600.810802 305.562794 
Q 605.854034 305.783649 610.318534 306.220283 
L 610.318534 308.669999 
Q 605.712304 308.108976 601.153317 307.832272 
Q 596.59433 307.55303 592.011721 307.55303 
Q 583.531533 307.55303 578.937113 308.573534 
Q 574.342694 309.591499 574.342694 311.487808 
Q 574.342694 313.366347 578.771762 314.391928 
Q 583.200829 315.41497 591.350314 315.41497 
Q 593.570753 315.41497 595.472299 315.356583 
Q 597.373846 315.295657 598.885634 315.168729 
L 598.885634 312.868788 
L 590.204662 312.868788 
L 590.204662 310.820165 
L 612.35 310.820165 
L 612.35 316.516708 
z
" clip-path="url(#pbcb7e228d2)" style="fill: #787800"/>
   </g>
   <g id="patch_124">
    <path d="M 559.65 292.4034 
L 576.578032 292.4034 
L 597.968106 300.831484 
L 597.968106 292.4034 
L 612.35 292.4034 
L 612.35 304.6926 
L 595.409364 304.6926 
L 574.01929 296.264516 
L 574.01929 304.6926 
L 559.65 304.6926 
L 559.65 292.4034 
z
" clip-path="url(#pbcb7e228d2)" style="fill: #40ba47"/>
   </g>
   <g id="patch_125">
    <path d="M 559.65 277.6656 
L 611.253077 277.6656 
L 611.253077 280.404727 
L 578.774615 280.404727 
L 578.774615 283.017433 
L 609.329487 283.017433 
L 609.329487 285.756561 
L 578.774615 285.756561 
L 578.774615 288.974283 
L 612.35 288.974283 
L 612.35 291.7104 
L 559.65 291.7104 
L 559.65 277.6656 
z
" clip-path="url(#pbcb7e228d2)" style="fill: #6b296b"/>
   </g>
   <g id="patch_126">
    <path d="M 587.405333 274.826104 
L 586.373292 274.826104 
Q 573.714313 274.826104 566.676667 273.252118 
Q 559.65 271.675661 559.65 268.866207 
Q 559.65 266.061695 566.665687 264.472883 
Q 573.681375 262.8816 586 262.8816 
Q 598.450375 262.8816 605.400187 264.458057 
Q 612.35 266.032043 612.35 268.866207 
Q 612.35 270.810833 608.661 272.216796 
Q 604.972 273.622759 598.044146 274.331917 
L 608.364562 276.9264 
L 595.771458 276.9264 
L 587.405333 274.826104 
z
M 586 265.036256 
Q 579.961458 265.036256 576.634771 266.039456 
Q 573.308083 267.042656 573.308083 268.866207 
Q 573.308083 270.719409 576.557917 271.705312 
Q 579.818729 272.688745 586 272.688745 
Q 592.071479 272.688745 595.398167 271.685545 
Q 598.724854 270.679874 598.724854 268.866207 
Q 598.724854 267.042656 595.398167 266.039456 
Q 592.071479 265.036256 586 265.036256 
z
" clip-path="url(#pbcb7e228d2)" style="fill: #40ba47"/>
   </g>
   <g id="patch_127">
    <path d="M 559.65 239.0886 
L 572.68762 239.0886 
L 586.016162 255.934233 
L 599.323155 239.0886 
L 612.35 239.0886 
L 593.730985 261.9114 
L 578.269015 261.9114 
L 559.65 239.0886 
z
" clip-path="url(#pbcb7e228d2)" style="fill: #21599c"/>
   </g>
   <g id="patch_128">
    <path d="M 596.155336 232.631749 
L 575.887763 232.631749 
L 572.68762 237.7488 
L 559.65 237.7488 
L 578.269015 209.6592 
L 593.730985 209.6592 
L 612.35 237.7488 
L 599.323155 237.7488 
L 596.155336 232.631749 
z
M 579.120231 227.418377 
L 592.890544 227.418377 
L 586.016162 216.245146 
L 579.120231 227.418377 
z
" clip-path="url(#pbcb7e228d2)" style="fill: #21599c"/>
   </g>
   <g id="patch_129">
    <path d="M 559.65 180.0912 
L 573.537864 180.0912 
L 573.537864 190.343362 
L 593.555783 180.0912 
L 609.683253 180.0912 
L 583.743078 193.395533 
L 612.35 208.1808 
L 594.964195 208.1808 
L 573.537864 197.11593 
L 573.537864 208.1808 
L 559.65 208.1808 
L 559.65 180.0912 
z
" clip-path="url(#pbcb7e228d2)" style="fill: #bd2e1f"/>
   </g>
   <g id="patch_130">
    <path d="M 576.437692 139.7124 
L 595.562308 139.7124 
L 595.562308 178.3356 
L 576.437692 178.3356 
L 576.437692 139.7124 
z
" clip-path="url(#pbcb7e228d2)" style="fill: #21599c"/>
   </g>
   <g id="patch_131">
    <path d="M 559.65 54.0114 
L 578.774615 54.0114 
L 578.774615 120.449911 
L 612.35 120.449911 
L 612.35 136.5246 
L 559.65 136.5246 
L 559.65 54.0114 
z
" clip-path="url(#pbcb7e228d2)" style="fill: #21599c"/>
   </g>
   <g id="matplotlib.axis_1">
    <g id="xtick_1">
     <g id="line2d_2">
      <defs>
       <path id="mbc76936b72" d="M 0 0 
L 0 4.8 
" style="stroke: #262626"/>
      </defs>
      <g>
       <use xlink:href="#mbc76936b72" x="152" y="384.48" style="fill: #262626; stroke: #262626"/>
      </g>
     </g>
     <g id="text_1">
      <!-- P4 -->
      <g style="fill: #262626" transform="translate(146.61825 399.078875) scale(0.088 -0.088)">
       <defs>
        <path id="ArialMT-50" d="M 494 0 
L 494 4581 
L 2222 4581 
Q 2678 4581 2919 4538 
Q 3256 4481 3484 4323 
Q 3713 4166 3852 3881 
Q 3991 3597 3991 3256 
Q 3991 2672 3619 2267 
Q 3247 1863 2275 1863 
L 1100 1863 
L 1100 0 
L 494 0 
z
M 1100 2403 
L 2284 2403 
Q 2872 2403 3119 2622 
Q 3366 2841 3366 3238 
Q 3366 3525 3220 3729 
Q 3075 3934 2838 4000 
Q 2684 4041 2272 4041 
L 1100 4041 
L 1100 2403 
z
" transform="scale(0.015625)"/>
        <path id="ArialMT-34" d="M 2069 0 
L 2069 1097 
L 81 1097 
L 81 1613 
L 2172 4581 
L 2631 4581 
L 2631 1613 
L 3250 1613 
L 3250 1097 
L 2631 1097 
L 2631 0 
L 2069 0 
z
M 2069 1613 
L 2069 3678 
L 634 1613 
L 2069 1613 
z
" transform="scale(0.015625)"/>
       </defs>
       <use xlink:href="#ArialMT-50"/>
       <use xlink:href="#ArialMT-34" x="66.699219"/>
      </g>
     </g>
    </g>
    <g id="xtick_2">
     <g id="line2d_3">
      <g>
       <use xlink:href="#mbc76936b72" x="214" y="384.48" style="fill: #262626; stroke: #262626"/>
      </g>
     </g>
     <g id="text_2">
      <!-- P3 -->
      <g style="fill: #262626" transform="translate(208.61825 399.078875) scale(0.088 -0.088)">
       <defs>
        <path id="ArialMT-33" d="M 269 1209 
L 831 1284 
Q 928 806 1161 595 
Q 1394 384 1728 384 
Q 2125 384 2398 659 
Q 2672 934 2672 1341 
Q 2672 1728 2419 1979 
Q 2166 2231 1775 2231 
Q 1616 2231 1378 2169 
L 1441 2663 
Q 1497 2656 1531 2656 
Q 1891 2656 2178 2843 
Q 2466 3031 2466 3422 
Q 2466 3731 2256 3934 
Q 2047 4138 1716 4138 
Q 1388 4138 1169 3931 
Q 950 3725 888 3313 
L 325 3413 
Q 428 3978 793 4289 
Q 1159 4600 1703 4600 
Q 2078 4600 2393 4439 
Q 2709 4278 2876 4000 
Q 3044 3722 3044 3409 
Q 3044 3113 2884 2869 
Q 2725 2625 2413 2481 
Q 2819 2388 3044 2092 
Q 3269 1797 3269 1353 
Q 3269 753 2831 336 
Q 2394 -81 1725 -81 
Q 1122 -81 723 278 
Q 325 638 269 1209 
z
" transform="scale(0.015625)"/>
       </defs>
       <use xlink:href="#ArialMT-50"/>
       <use xlink:href="#ArialMT-33" x="66.699219"/>
      </g>
     </g>
    </g>
    <g id="xtick_3">
     <g id="line2d_4">
      <g>
       <use xlink:href="#mbc76936b72" x="276" y="384.48" style="fill: #262626; stroke: #262626"/>
      </g>
     </g>
     <g id="text_3">
      <!-- P2 -->
      <g style="fill: #262626" transform="translate(270.61825 399.078875) scale(0.088 -0.088)">
       <defs>
        <path id="ArialMT-32" d="M 3222 541 
L 3222 0 
L 194 0 
Q 188 203 259 391 
Q 375 700 629 1000 
Q 884 1300 1366 1694 
Q 2113 2306 2375 2664 
Q 2638 3022 2638 3341 
Q 2638 3675 2398 3904 
Q 2159 4134 1775 4134 
Q 1369 4134 1125 3890 
Q 881 3647 878 3216 
L 300 3275 
Q 359 3922 746 4261 
Q 1134 4600 1788 4600 
Q 2447 4600 2831 4234 
Q 3216 3869 3216 3328 
Q 3216 3053 3103 2787 
Q 2991 2522 2730 2228 
Q 2469 1934 1863 1422 
Q 1356 997 1212 845 
Q 1069 694 975 541 
L 3222 541 
z
" transform="scale(0.015625)"/>
       </defs>
       <use xlink:href="#ArialMT-50"/>
       <use xlink:href="#ArialMT-32" x="66.699219"/>
      </g>
     </g>
    </g>
    <g id="xtick_4">
     <g id="line2d_5">
      <g>
       <use xlink:href="#mbc76936b72" x="338" y="384.48" style="fill: #262626; stroke: #262626"/>
      </g>
     </g>
     <g id="text_4">
      <!-- P1 -->
      <g style="fill: #262626" transform="translate(332.61825 399.078875) scale(0.088 -0.088)">
       <defs>
        <path id="ArialMT-31" d="M 2384 0 
L 1822 0 
L 1822 3584 
Q 1619 3391 1289 3197 
Q 959 3003 697 2906 
L 697 3450 
Q 1169 3672 1522 3987 
Q 1875 4303 2022 4600 
L 2384 4600 
L 2384 0 
z
" transform="scale(0.015625)"/>
       </defs>
       <use xlink:href="#ArialMT-50"/>
       <use xlink:href="#ArialMT-31" x="66.699219"/>
      </g>
     </g>
    </g>
    <g id="xtick_5">
     <g id="line2d_6">
      <g>
       <use xlink:href="#mbc76936b72" x="400" y="384.48" style="fill: #262626; stroke: #262626"/>
      </g>
     </g>
     <g id="text_5">
      <!-- P1' -->
      <g style="fill: #262626" transform="translate(393.778125 399.078875) scale(0.088 -0.088)">
       <defs>
        <path id="ArialMT-27" d="M 425 2959 
L 281 3816 
L 281 4581 
L 922 4581 
L 922 3816 
L 772 2959 
L 425 2959 
z
" transform="scale(0.015625)"/>
       </defs>
       <use xlink:href="#ArialMT-50"/>
       <use xlink:href="#ArialMT-31" x="66.699219"/>
       <use xlink:href="#ArialMT-27" x="122.314453"/>
      </g>
     </g>
    </g>
    <g id="xtick_6">
     <g id="line2d_7">
      <g>
       <use xlink:href="#mbc76936b72" x="462" y="384.48" style="fill: #262626; stroke: #262626"/>
      </g>
     </g>
     <g id="text_6">
      <!-- P2' -->
      <g style="fill: #262626" transform="translate(455.778125 399.078875) scale(0.088 -0.088)">
       <use xlink:href="#ArialMT-50"/>
       <use xlink:href="#ArialMT-32" x="66.699219"/>
       <use xlink:href="#ArialMT-27" x="122.314453"/>
      </g>
     </g>
    </g>
    <g id="xtick_7">
     <g id="line2d_8">
      <g>
       <use xlink:href="#mbc76936b72" x="524" y="384.48" style="fill: #262626; stroke: #262626"/>
      </g>
     </g>
     <g id="text_7">
      <!-- P3' -->
      <g style="fill: #262626" transform="translate(517.778125 399.078875) scale(0.088 -0.088)">
       <use xlink:href="#ArialMT-50"/>
       <use xlink:href="#ArialMT-33" x="66.699219"/>
       <use xlink:href="#ArialMT-27" x="122.314453"/>
      </g>
     </g>
    </g>
    <g id="xtick_8">
     <g id="line2d_9">
      <g>
       <use xlink:href="#mbc76936b72" x="586" y="384.48" style="fill: #262626; stroke: #262626"/>
      </g>
     </g>
     <g id="text_8">
      <!-- P4' -->
      <g style="fill: #262626" transform="translate(579.778125 399.078875) scale(0.088 -0.088)">
       <use xlink:href="#ArialMT-50"/>
       <use xlink:href="#ArialMT-34" x="66.699219"/>
       <use xlink:href="#ArialMT-27" x="122.314453"/>
      </g>
     </g>
    </g>
   </g>
   <g id="matplotlib.axis_2">
    <g id="ytick_1">
     <g id="line2d_10">
      <defs>
       <path id="me763abc523" d="M 0 0 
L -4.8 0 
" style="stroke: #262626"/>
      </defs>
      <g>
       <use xlink:href="#me763abc523" x="90" y="384.48" style="fill: #262626; stroke: #262626"/>
      </g>
     </g>
     <g id="text_9">
      <!-- 0.0 -->
      <g style="fill: #262626" transform="translate(69.468 387.629437) scale(0.088 -0.088)">
       <defs>
        <path id="ArialMT-30" d="M 266 2259 
Q 266 3072 433 3567 
Q 600 4063 929 4331 
Q 1259 4600 1759 4600 
Q 2128 4600 2406 4451 
Q 2684 4303 2865 4023 
Q 3047 3744 3150 3342 
Q 3253 2941 3253 2259 
Q 3253 1453 3087 958 
Q 2922 463 2592 192 
Q 2263 -78 1759 -78 
Q 1097 -78 719 397 
Q 266 969 266 2259 
z
M 844 2259 
Q 844 1131 1108 757 
Q 1372 384 1759 384 
Q 2147 384 2411 759 
Q 2675 1134 2675 2259 
Q 2675 3391 2411 3762 
Q 2147 4134 1753 4134 
Q 1366 4134 1134 3806 
Q 844 3388 844 2259 
z
" transform="scale(0.015625)"/>
        <path id="ArialMT-2e" d="M 581 0 
L 581 641 
L 1222 641 
L 1222 0 
L 581 0 
z
" transform="scale(0.015625)"/>
       </defs>
       <use xlink:href="#ArialMT-30"/>
       <use xlink:href="#ArialMT-2e" x="55.615234"/>
       <use xlink:href="#ArialMT-30" x="83.398438"/>
      </g>
     </g>
    </g>
    <g id="ytick_2">
     <g id="line2d_11">
      <g>
       <use xlink:href="#me763abc523" x="90" y="317.952" style="fill: #262626; stroke: #262626"/>
      </g>
     </g>
     <g id="text_10">
      <!-- 0.2 -->
      <g style="fill: #262626" transform="translate(69.468 321.101437) scale(0.088 -0.088)">
       <use xlink:href="#ArialMT-30"/>
       <use xlink:href="#ArialMT-2e" x="55.615234"/>
       <use xlink:href="#ArialMT-32" x="83.398438"/>
      </g>
     </g>
    </g>
    <g id="ytick_3">
     <g id="line2d_12">
      <g>
       <use xlink:href="#me763abc523" x="90" y="251.424" style="fill: #262626; stroke: #262626"/>
      </g>
     </g>
     <g id="text_11">
      <!-- 0.4 -->
      <g style="fill: #262626" transform="translate(69.468 254.573437) scale(0.088 -0.088)">
       <use xlink:href="#ArialMT-30"/>
       <use xlink:href="#ArialMT-2e" x="55.615234"/>
       <use xlink:href="#ArialMT-34" x="83.398438"/>
      </g>
     </g>
    </g>
    <g id="ytick_4">
     <g id="line2d_13">
      <g>
       <use xlink:href="#me763abc523" x="90" y="184.896" style="fill: #262626; stroke: #262626"/>
      </g>
     </g>
     <g id="text_12">
      <!-- 0.6 -->
      <g style="fill: #262626" transform="translate(69.468 188.045437) scale(0.088 -0.088)">
       <defs>
        <path id="ArialMT-36" d="M 3184 3459 
L 2625 3416 
Q 2550 3747 2413 3897 
Q 2184 4138 1850 4138 
Q 1581 4138 1378 3988 
Q 1113 3794 959 3422 
Q 806 3050 800 2363 
Q 1003 2672 1297 2822 
Q 1591 2972 1913 2972 
Q 2475 2972 2870 2558 
Q 3266 2144 3266 1488 
Q 3266 1056 3080 686 
Q 2894 316 2569 119 
Q 2244 -78 1831 -78 
Q 1128 -78 684 439 
Q 241 956 241 2144 
Q 241 3472 731 4075 
Q 1159 4600 1884 4600 
Q 2425 4600 2770 4297 
Q 3116 3994 3184 3459 
z
M 888 1484 
Q 888 1194 1011 928 
Q 1134 663 1356 523 
Q 1578 384 1822 384 
Q 2178 384 2434 671 
Q 2691 959 2691 1453 
Q 2691 1928 2437 2201 
Q 2184 2475 1800 2475 
Q 1419 2475 1153 2201 
Q 888 1928 888 1484 
z
" transform="scale(0.015625)"/>
       </defs>
       <use xlink:href="#ArialMT-30"/>
       <use xlink:href="#ArialMT-2e" x="55.615234"/>
       <use xlink:href="#ArialMT-36" x="83.398438"/>
      </g>
     </g>
    </g>
    <g id="ytick_5">
     <g id="line2d_14">
      <g>
       <use xlink:href="#me763abc523" x="90" y="118.368" style="fill: #262626; stroke: #262626"/>
      </g>
     </g>
     <g id="text_13">
      <!-- 0.8 -->
      <g style="fill: #262626" transform="translate(69.468 121.517437) scale(0.088 -0.088)">
       <defs>
        <path id="ArialMT-38" d="M 1131 2484 
Q 781 2613 612 2850 
Q 444 3088 444 3419 
Q 444 3919 803 4259 
Q 1163 4600 1759 4600 
Q 2359 4600 2725 4251 
Q 3091 3903 3091 3403 
Q 3091 3084 2923 2848 
Q 2756 2613 2416 2484 
Q 2838 2347 3058 2040 
Q 3278 1734 3278 1309 
Q 3278 722 2862 322 
Q 2447 -78 1769 -78 
Q 1091 -78 675 323 
Q 259 725 259 1325 
Q 259 1772 486 2073 
Q 713 2375 1131 2484 
z
M 1019 3438 
Q 1019 3113 1228 2906 
Q 1438 2700 1772 2700 
Q 2097 2700 2305 2904 
Q 2513 3109 2513 3406 
Q 2513 3716 2298 3927 
Q 2084 4138 1766 4138 
Q 1444 4138 1231 3931 
Q 1019 3725 1019 3438 
z
M 838 1322 
Q 838 1081 952 856 
Q 1066 631 1291 507 
Q 1516 384 1775 384 
Q 2178 384 2440 643 
Q 2703 903 2703 1303 
Q 2703 1709 2433 1975 
Q 2163 2241 1756 2241 
Q 1359 2241 1098 1978 
Q 838 1716 838 1322 
z
" transform="scale(0.015625)"/>
       </defs>
       <use xlink:href="#ArialMT-30"/>
       <use xlink:href="#ArialMT-2e" x="55.615234"/>
       <use xlink:href="#ArialMT-38" x="83.398438"/>
      </g>
     </g>
    </g>
    <g id="ytick_6">
     <g id="line2d_15">
      <g>
       <use xlink:href="#me763abc523" x="90" y="51.84" style="fill: #262626; stroke: #262626"/>
      </g>
     </g>
     <g id="text_14">
      <!-- 1.0 -->
      <g style="fill: #262626" transform="translate(69.468 54.989437) scale(0.088 -0.088)">
       <use xlink:href="#ArialMT-31"/>
       <use xlink:href="#ArialMT-2e" x="55.615234"/>
       <use xlink:href="#ArialMT-30" x="83.398438"/>
      </g>
     </g>
    </g>
    <g id="text_15">
     <!-- percentage -->
     <g style="fill: #262626" transform="translate(63.4475 242.1765) rotate(-90) scale(0.096 -0.096)">
      <defs>
       <path id="ArialMT-70" d="M 422 -1272 
L 422 3319 
L 934 3319 
L 934 2888 
Q 1116 3141 1344 3267 
Q 1572 3394 1897 3394 
Q 2322 3394 2647 3175 
Q 2972 2956 3137 2557 
Q 3303 2159 3303 1684 
Q 3303 1175 3120 767 
Q 2938 359 2589 142 
Q 2241 -75 1856 -75 
Q 1575 -75 1351 44 
Q 1128 163 984 344 
L 984 -1272 
L 422 -1272 
z
M 931 1641 
Q 931 1000 1190 694 
Q 1450 388 1819 388 
Q 2194 388 2461 705 
Q 2728 1022 2728 1688 
Q 2728 2322 2467 2637 
Q 2206 2953 1844 2953 
Q 1484 2953 1207 2617 
Q 931 2281 931 1641 
z
" transform="scale(0.015625)"/>
       <path id="ArialMT-65" d="M 2694 1069 
L 3275 997 
Q 3138 488 2766 206 
Q 2394 -75 1816 -75 
Q 1088 -75 661 373 
Q 234 822 234 1631 
Q 234 2469 665 2931 
Q 1097 3394 1784 3394 
Q 2450 3394 2872 2941 
Q 3294 2488 3294 1666 
Q 3294 1616 3291 1516 
L 816 1516 
Q 847 969 1125 678 
Q 1403 388 1819 388 
Q 2128 388 2347 550 
Q 2566 713 2694 1069 
z
M 847 1978 
L 2700 1978 
Q 2663 2397 2488 2606 
Q 2219 2931 1791 2931 
Q 1403 2931 1139 2672 
Q 875 2413 847 1978 
z
" transform="scale(0.015625)"/>
       <path id="ArialMT-72" d="M 416 0 
L 416 3319 
L 922 3319 
L 922 2816 
Q 1116 3169 1280 3281 
Q 1444 3394 1641 3394 
Q 1925 3394 2219 3213 
L 2025 2691 
Q 1819 2813 1613 2813 
Q 1428 2813 1281 2702 
Q 1134 2591 1072 2394 
Q 978 2094 978 1738 
L 978 0 
L 416 0 
z
" transform="scale(0.015625)"/>
       <path id="ArialMT-63" d="M 2588 1216 
L 3141 1144 
Q 3050 572 2676 248 
Q 2303 -75 1759 -75 
Q 1078 -75 664 370 
Q 250 816 250 1647 
Q 250 2184 428 2587 
Q 606 2991 970 3192 
Q 1334 3394 1763 3394 
Q 2303 3394 2647 3120 
Q 2991 2847 3088 2344 
L 2541 2259 
Q 2463 2594 2264 2762 
Q 2066 2931 1784 2931 
Q 1359 2931 1093 2626 
Q 828 2322 828 1663 
Q 828 994 1084 691 
Q 1341 388 1753 388 
Q 2084 388 2306 591 
Q 2528 794 2588 1216 
z
" transform="scale(0.015625)"/>
       <path id="ArialMT-6e" d="M 422 0 
L 422 3319 
L 928 3319 
L 928 2847 
Q 1294 3394 1984 3394 
Q 2284 3394 2536 3286 
Q 2788 3178 2913 3003 
Q 3038 2828 3088 2588 
Q 3119 2431 3119 2041 
L 3119 0 
L 2556 0 
L 2556 2019 
Q 2556 2363 2490 2533 
Q 2425 2703 2258 2804 
Q 2091 2906 1866 2906 
Q 1506 2906 1245 2678 
Q 984 2450 984 1813 
L 984 0 
L 422 0 
z
" transform="scale(0.015625)"/>
       <path id="ArialMT-74" d="M 1650 503 
L 1731 6 
Q 1494 -44 1306 -44 
Q 1000 -44 831 53 
Q 663 150 594 308 
Q 525 466 525 972 
L 525 2881 
L 113 2881 
L 113 3319 
L 525 3319 
L 525 4141 
L 1084 4478 
L 1084 3319 
L 1650 3319 
L 1650 2881 
L 1084 2881 
L 1084 941 
Q 1084 700 1114 631 
Q 1144 563 1211 522 
Q 1278 481 1403 481 
Q 1497 481 1650 503 
z
" transform="scale(0.015625)"/>
       <path id="ArialMT-61" d="M 2588 409 
Q 2275 144 1986 34 
Q 1697 -75 1366 -75 
Q 819 -75 525 192 
Q 231 459 231 875 
Q 231 1119 342 1320 
Q 453 1522 633 1644 
Q 813 1766 1038 1828 
Q 1203 1872 1538 1913 
Q 2219 1994 2541 2106 
Q 2544 2222 2544 2253 
Q 2544 2597 2384 2738 
Q 2169 2928 1744 2928 
Q 1347 2928 1158 2789 
Q 969 2650 878 2297 
L 328 2372 
Q 403 2725 575 2942 
Q 747 3159 1072 3276 
Q 1397 3394 1825 3394 
Q 2250 3394 2515 3294 
Q 2781 3194 2906 3042 
Q 3031 2891 3081 2659 
Q 3109 2516 3109 2141 
L 3109 1391 
Q 3109 606 3145 398 
Q 3181 191 3288 0 
L 2700 0 
Q 2613 175 2588 409 
z
M 2541 1666 
Q 2234 1541 1622 1453 
Q 1275 1403 1131 1340 
Q 988 1278 909 1158 
Q 831 1038 831 891 
Q 831 666 1001 516 
Q 1172 366 1500 366 
Q 1825 366 2078 508 
Q 2331 650 2450 897 
Q 2541 1088 2541 1459 
L 2541 1666 
z
" transform="scale(0.015625)"/>
       <path id="ArialMT-67" d="M 319 -275 
L 866 -356 
Q 900 -609 1056 -725 
Q 1266 -881 1628 -881 
Q 2019 -881 2231 -725 
Q 2444 -569 2519 -288 
Q 2563 -116 2559 434 
Q 2191 0 1641 0 
Q 956 0 581 494 
Q 206 988 206 1678 
Q 206 2153 378 2554 
Q 550 2956 876 3175 
Q 1203 3394 1644 3394 
Q 2231 3394 2613 2919 
L 2613 3319 
L 3131 3319 
L 3131 450 
Q 3131 -325 2973 -648 
Q 2816 -972 2473 -1159 
Q 2131 -1347 1631 -1347 
Q 1038 -1347 672 -1080 
Q 306 -813 319 -275 
z
M 784 1719 
Q 784 1066 1043 766 
Q 1303 466 1694 466 
Q 2081 466 2343 764 
Q 2606 1063 2606 1700 
Q 2606 2309 2336 2618 
Q 2066 2928 1684 2928 
Q 1309 2928 1046 2623 
Q 784 2319 784 1719 
z
" transform="scale(0.015625)"/>
      </defs>
      <use xlink:href="#ArialMT-70"/>
      <use xlink:href="#ArialMT-65" x="55.615234"/>
      <use xlink:href="#ArialMT-72" x="111.230469"/>
      <use xlink:href="#ArialMT-63" x="144.53125"/>
      <use xlink:href="#ArialMT-65" x="194.53125"/>
      <use xlink:href="#ArialMT-6e" x="250.146484"/>
      <use xlink:href="#ArialMT-74" x="305.761719"/>
      <use xlink:href="#ArialMT-61" x="333.544922"/>
      <use xlink:href="#ArialMT-67" x="389.160156"/>
      <use xlink:href="#ArialMT-65" x="444.775391"/>
     </g>
    </g>
   </g>
   <g id="line2d_16">
    <path d="M 369 384.48 
L 369 51.84 
" clip-path="url(#pbcb7e228d2)" style="fill: none; stroke: #daa520; stroke-width: 2; stroke-linecap: round"/>
   </g>
   <g id="patch_132">
    <path d="M 90 384.48 
L 648 384.48 
" style="fill: none; stroke: #262626; stroke-linejoin: miter; stroke-linecap: square"/>
   </g>
   <g id="patch_133">
    <path d="M 90 51.84 
L 648 51.84 
" style="fill: none; stroke: #262626; stroke-linejoin: miter; stroke-linecap: square"/>
   </g>
   <g id="text_16">
    <!-- Ctrl vs. GluC probability PPSM n=180 -->
    <g style="fill: #262626" transform="translate(288.837 45.84) scale(0.096 -0.096)">
     <defs>
      <path id="ArialMT-43" d="M 3763 1606 
L 4369 1453 
Q 4178 706 3683 314 
Q 3188 -78 2472 -78 
Q 1731 -78 1267 223 
Q 803 525 561 1097 
Q 319 1669 319 2325 
Q 319 3041 592 3573 
Q 866 4106 1370 4382 
Q 1875 4659 2481 4659 
Q 3169 4659 3637 4309 
Q 4106 3959 4291 3325 
L 3694 3184 
Q 3534 3684 3231 3912 
Q 2928 4141 2469 4141 
Q 1941 4141 1586 3887 
Q 1231 3634 1087 3207 
Q 944 2781 944 2328 
Q 944 1744 1114 1308 
Q 1284 872 1643 656 
Q 2003 441 2422 441 
Q 2931 441 3284 734 
Q 3638 1028 3763 1606 
z
" transform="scale(0.015625)"/>
      <path id="ArialMT-6c" d="M 409 0 
L 409 4581 
L 972 4581 
L 972 0 
L 409 0 
z
" transform="scale(0.015625)"/>
      <path id="ArialMT-20" transform="scale(0.015625)"/>
      <path id="ArialMT-76" d="M 1344 0 
L 81 3319 
L 675 3319 
L 1388 1331 
Q 1503 1009 1600 663 
Q 1675 925 1809 1294 
L 2547 3319 
L 3125 3319 
L 1869 0 
L 1344 0 
z
" transform="scale(0.015625)"/>
      <path id="ArialMT-73" d="M 197 991 
L 753 1078 
Q 800 744 1014 566 
Q 1228 388 1613 388 
Q 2000 388 2187 545 
Q 2375 703 2375 916 
Q 2375 1106 2209 1216 
Q 2094 1291 1634 1406 
Q 1016 1563 777 1677 
Q 538 1791 414 1992 
Q 291 2194 291 2438 
Q 291 2659 392 2848 
Q 494 3038 669 3163 
Q 800 3259 1026 3326 
Q 1253 3394 1513 3394 
Q 1903 3394 2198 3281 
Q 2494 3169 2634 2976 
Q 2775 2784 2828 2463 
L 2278 2388 
Q 2241 2644 2061 2787 
Q 1881 2931 1553 2931 
Q 1166 2931 1000 2803 
Q 834 2675 834 2503 
Q 834 2394 903 2306 
Q 972 2216 1119 2156 
Q 1203 2125 1616 2013 
Q 2213 1853 2448 1751 
Q 2684 1650 2818 1456 
Q 2953 1263 2953 975 
Q 2953 694 2789 445 
Q 2625 197 2315 61 
Q 2006 -75 1616 -75 
Q 969 -75 630 194 
Q 291 463 197 991 
z
" transform="scale(0.015625)"/>
      <path id="ArialMT-47" d="M 2638 1797 
L 2638 2334 
L 4578 2338 
L 4578 638 
Q 4131 281 3656 101 
Q 3181 -78 2681 -78 
Q 2006 -78 1454 211 
Q 903 500 622 1047 
Q 341 1594 341 2269 
Q 341 2938 620 3517 
Q 900 4097 1425 4378 
Q 1950 4659 2634 4659 
Q 3131 4659 3532 4498 
Q 3934 4338 4162 4050 
Q 4391 3763 4509 3300 
L 3963 3150 
Q 3859 3500 3706 3700 
Q 3553 3900 3268 4020 
Q 2984 4141 2638 4141 
Q 2222 4141 1919 4014 
Q 1616 3888 1430 3681 
Q 1244 3475 1141 3228 
Q 966 2803 966 2306 
Q 966 1694 1177 1281 
Q 1388 869 1791 669 
Q 2194 469 2647 469 
Q 3041 469 3416 620 
Q 3791 772 3984 944 
L 3984 1797 
L 2638 1797 
z
" transform="scale(0.015625)"/>
      <path id="ArialMT-75" d="M 2597 0 
L 2597 488 
Q 2209 -75 1544 -75 
Q 1250 -75 995 37 
Q 741 150 617 320 
Q 494 491 444 738 
Q 409 903 409 1263 
L 409 3319 
L 972 3319 
L 972 1478 
Q 972 1038 1006 884 
Q 1059 663 1231 536 
Q 1403 409 1656 409 
Q 1909 409 2131 539 
Q 2353 669 2445 892 
Q 2538 1116 2538 1541 
L 2538 3319 
L 3100 3319 
L 3100 0 
L 2597 0 
z
" transform="scale(0.015625)"/>
      <path id="ArialMT-6f" d="M 213 1659 
Q 213 2581 725 3025 
Q 1153 3394 1769 3394 
Q 2453 3394 2887 2945 
Q 3322 2497 3322 1706 
Q 3322 1066 3130 698 
Q 2938 331 2570 128 
Q 2203 -75 1769 -75 
Q 1072 -75 642 372 
Q 213 819 213 1659 
z
M 791 1659 
Q 791 1022 1069 705 
Q 1347 388 1769 388 
Q 2188 388 2466 706 
Q 2744 1025 2744 1678 
Q 2744 2294 2464 2611 
Q 2184 2928 1769 2928 
Q 1347 2928 1069 2612 
Q 791 2297 791 1659 
z
" transform="scale(0.015625)"/>
      <path id="ArialMT-62" d="M 941 0 
L 419 0 
L 419 4581 
L 981 4581 
L 981 2947 
Q 1338 3394 1891 3394 
Q 2197 3394 2470 3270 
Q 2744 3147 2920 2923 
Q 3097 2700 3197 2384 
Q 3297 2069 3297 1709 
Q 3297 856 2875 390 
Q 2453 -75 1863 -75 
Q 1275 -75 941 416 
L 941 0 
z
M 934 1684 
Q 934 1088 1097 822 
Q 1363 388 1816 388 
Q 2184 388 2453 708 
Q 2722 1028 2722 1663 
Q 2722 2313 2464 2622 
Q 2206 2931 1841 2931 
Q 1472 2931 1203 2611 
Q 934 2291 934 1684 
z
" transform="scale(0.015625)"/>
      <path id="ArialMT-69" d="M 425 3934 
L 425 4581 
L 988 4581 
L 988 3934 
L 425 3934 
z
M 425 0 
L 425 3319 
L 988 3319 
L 988 0 
L 425 0 
z
" transform="scale(0.015625)"/>
      <path id="ArialMT-79" d="M 397 -1278 
L 334 -750 
Q 519 -800 656 -800 
Q 844 -800 956 -737 
Q 1069 -675 1141 -563 
Q 1194 -478 1313 -144 
Q 1328 -97 1363 -6 
L 103 3319 
L 709 3319 
L 1400 1397 
Q 1534 1031 1641 628 
Q 1738 1016 1872 1384 
L 2581 3319 
L 3144 3319 
L 1881 -56 
Q 1678 -603 1566 -809 
Q 1416 -1088 1222 -1217 
Q 1028 -1347 759 -1347 
Q 597 -1347 397 -1278 
z
" transform="scale(0.015625)"/>
      <path id="ArialMT-53" d="M 288 1472 
L 859 1522 
Q 900 1178 1048 958 
Q 1197 738 1509 602 
Q 1822 466 2213 466 
Q 2559 466 2825 569 
Q 3091 672 3220 851 
Q 3350 1031 3350 1244 
Q 3350 1459 3225 1620 
Q 3100 1781 2813 1891 
Q 2628 1963 1997 2114 
Q 1366 2266 1113 2400 
Q 784 2572 623 2826 
Q 463 3081 463 3397 
Q 463 3744 659 4045 
Q 856 4347 1234 4503 
Q 1613 4659 2075 4659 
Q 2584 4659 2973 4495 
Q 3363 4331 3572 4012 
Q 3781 3694 3797 3291 
L 3216 3247 
Q 3169 3681 2898 3903 
Q 2628 4125 2100 4125 
Q 1550 4125 1298 3923 
Q 1047 3722 1047 3438 
Q 1047 3191 1225 3031 
Q 1400 2872 2139 2705 
Q 2878 2538 3153 2413 
Q 3553 2228 3743 1945 
Q 3934 1663 3934 1294 
Q 3934 928 3725 604 
Q 3516 281 3123 101 
Q 2731 -78 2241 -78 
Q 1619 -78 1198 103 
Q 778 284 539 648 
Q 300 1013 288 1472 
z
" transform="scale(0.015625)"/>
      <path id="ArialMT-4d" d="M 475 0 
L 475 4581 
L 1388 4581 
L 2472 1338 
Q 2622 884 2691 659 
Q 2769 909 2934 1394 
L 4031 4581 
L 4847 4581 
L 4847 0 
L 4263 0 
L 4263 3834 
L 2931 0 
L 2384 0 
L 1059 3900 
L 1059 0 
L 475 0 
z
" transform="scale(0.015625)"/>
      <path id="ArialMT-3d" d="M 3381 2694 
L 356 2694 
L 356 3219 
L 3381 3219 
L 3381 2694 
z
M 3381 1303 
L 356 1303 
L 356 1828 
L 3381 1828 
L 3381 1303 
z
" transform="scale(0.015625)"/>
     </defs>
     <use xlink:href="#ArialMT-43"/>
     <use xlink:href="#ArialMT-74" x="72.216797"/>
     <use xlink:href="#ArialMT-72" x="100"/>
     <use xlink:href="#ArialMT-6c" x="133.300781"/>
     <use xlink:href="#ArialMT-20" x="155.517578"/>
     <use xlink:href="#ArialMT-76" x="183.300781"/>
     <use xlink:href="#ArialMT-73" x="233.300781"/>
     <use xlink:href="#ArialMT-2e" x="283.300781"/>
     <use xlink:href="#ArialMT-20" x="311.083984"/>
     <use xlink:href="#ArialMT-47" x="338.867188"/>
     <use xlink:href="#ArialMT-6c" x="416.650391"/>
     <use xlink:href="#ArialMT-75" x="438.867188"/>
     <use xlink:href="#ArialMT-43" x="494.482422"/>
     <use xlink:href="#ArialMT-20" x="566.699219"/>
     <use xlink:href="#ArialMT-70" x="594.482422"/>
     <use xlink:href="#ArialMT-72" x="650.097656"/>
     <use xlink:href="#ArialMT-6f" x="683.398438"/>
     <use xlink:href="#ArialMT-62" x="739.013672"/>
     <use xlink:href="#ArialMT-61" x="794.628906"/>
     <use xlink:href="#ArialMT-62" x="850.244141"/>
     <use xlink:href="#ArialMT-69" x="905.859375"/>
     <use xlink:href="#ArialMT-6c" x="928.076172"/>
     <use xlink:href="#ArialMT-69" x="950.292969"/>
     <use xlink:href="#ArialMT-74" x="972.509766"/>
     <use xlink:href="#ArialMT-79" x="1000.292969"/>
     <use xlink:href="#ArialMT-20" x="1050.292969"/>
     <use xlink:href="#ArialMT-50" x="1078.076172"/>
     <use xlink:href="#ArialMT-50" x="1144.775391"/>
     <use xlink:href="#ArialMT-53" x="1211.474609"/>
     <use xlink:href="#ArialMT-4d" x="1278.173828"/>
     <use xlink:href="#ArialMT-20" x="1361.474609"/>
     <use xlink:href="#ArialMT-6e" x="1389.257812"/>
     <use xlink:href="#ArialMT-3d" x="1444.873047"/>
     <use xlink:href="#ArialMT-31" x="1503.271484"/>
     <use xlink:href="#ArialMT-38" x="1558.886719"/>
     <use xlink:href="#ArialMT-30" x="1614.501953"/>
    </g>
   </g>
  </g>
 </g>
 <defs>
  <clipPath id="pbcb7e228d2">
   <rect x="90" y="51.84" width="558" height="332.64"/>
  </clipPath>
 </defs>
</svg>
