<?xml version="1.0" encoding="utf-8" standalone="no"?>
<!DOCTYPE svg PUBLIC "-//W3C//DTD SVG 1.1//EN"
  "http://www.w3.org/Graphics/SVG/1.1/DTD/svg11.dtd">
<svg xmlns:xlink="http://www.w3.org/1999/xlink" width="720pt" height="432pt" viewBox="0 0 720 432" xmlns="http://www.w3.org/2000/svg" version="1.1">
 <metadata>
  <rdf:RDF xmlns:dc="http://purl.org/dc/elements/1.1/" xmlns:cc="http://creativecommons.org/ns#" xmlns:rdf="http://www.w3.org/1999/02/22-rdf-syntax-ns#">
   <cc:Work>
    <dc:type rdf:resource="http://purl.org/dc/dcmitype/StillImage"/>
    <dc:date>2023-11-21T15:48:21.345745</dc:date>
    <dc:format>image/svg+xml</dc:format>
    <dc:creator>
     <cc:Agent>
      <dc:title>Matplotlib v3.7.1, https://matplotlib.org/</dc:title>
     </cc:Agent>
    </dc:creator>
   </cc:Work>
  </rdf:RDF>
 </metadata>
 <defs>
  <style type="text/css">*{stroke-linejoin: round; stroke-linecap: butt}</style>
 </defs>
 <g id="figure_1">
  <g id="patch_1">
   <path d="M 0 432 
L 720 432 
L 720 0 
L 0 0 
z
" style="fill: #ffffff"/>
  </g>
  <g id="axes_1">
   <g id="patch_2">
    <path d="M 90 384.48 
L 648 384.48 
L 648 51.84 
L 90 51.84 
z
" style="fill: #ffffff"/>
   </g>
   <g id="patch_3">
    <path d="M 307 384.48 
L 369 384.48 
L 369 51.84 
L 307 51.84 
z
" clip-path="url(#pd996620705)" style="fill: #ffd700; opacity: 0.35; stroke: #ffffff; stroke-width: 0.8; stroke-linejoin: miter"/>
   </g>
   <g id="line2d_1">
    <path d="M 90 384.48 
L 648 384.48 
" clip-path="url(#pd996620705)" style="fill: none; stroke: #000000; stroke-width: 0.5; stroke-linecap: round"/>
   </g>
   <g id="patch_4">
    <path d="M 153.405333 384.341137 
L 152.373292 384.341137 
Q 139.714313 384.341137 132.676667 384.252645 
Q 125.65 384.164013 125.65 384.00606 
Q 125.65 383.848384 132.665687 383.759058 
Q 139.681375 383.669593 152 383.669593 
Q 164.450375 383.669593 171.400188 383.758225 
Q 178.35 383.846717 178.35 384.00606 
Q 178.35 384.115391 174.661 384.194437 
Q 170.972 384.273483 164.044146 384.313353 
L 174.364563 384.45922 
L 161.771458 384.45922 
L 153.405333 384.341137 
z
M 152 383.790732 
Q 145.961458 383.790732 142.634771 383.847134 
Q 139.308083 383.903536 139.308083 384.00606 
Q 139.308083 384.110251 142.557917 384.16568 
Q 145.818729 384.220971 152 384.220971 
Q 158.071479 384.220971 161.398167 384.164569 
Q 164.724854 384.108028 164.724854 384.00606 
Q 164.724854 383.903536 161.398167 383.847134 
Q 158.071479 383.790732 152 383.790732 
z
" clip-path="url(#pd996620705)" style="fill: #40ba47"/>
   </g>
   <g id="patch_5">
    <path d="M 178.35 383.49529 
Q 173.035119 383.554756 167.318669 383.584624 
Q 161.602219 383.614221 155.507822 383.614221 
Q 141.736374 383.614221 133.693187 383.437182 
Q 125.65 383.260142 125.65 382.957382 
Q 125.65 382.651092 133.834917 382.47541 
Q 142.031645 382.299728 156.287338 382.299728 
Q 161.779381 382.299728 166.810802 382.323623 
Q 171.854034 382.347246 176.318534 382.39395 
L 176.318534 382.65598 
Q 171.712304 382.595971 167.153317 382.566374 
Q 162.59433 382.536505 158.011721 382.536505 
Q 149.531533 382.536505 144.937113 382.645661 
Q 140.342694 382.754546 140.342694 382.957382 
Q 140.342694 383.158317 144.771762 383.268016 
Q 149.200829 383.377444 157.350314 383.377444 
Q 159.570753 383.377444 161.472299 383.371199 
Q 163.373846 383.364682 164.885634 383.351105 
L 164.885634 383.105096 
L 156.204662 383.105096 
L 156.204662 382.885968 
L 178.35 382.885968 
L 178.35 383.49529 
z
" clip-path="url(#pd996620705)" style="fill: #787800"/>
   </g>
   <g id="patch_6">
    <path d="M 125.65 380.498729 
L 138.68762 380.498729 
L 152.016162 381.769093 
L 165.323155 380.498729 
L 178.35 380.498729 
L 159.730985 382.219843 
L 144.269015 382.219843 
L 125.65 380.498729 
z
" clip-path="url(#pd996620705)" style="fill: #21599c"/>
   </g>
   <g id="patch_7">
    <path d="M 125.65 375.753075 
L 139.537864 375.753075 
L 139.537864 377.424628 
L 159.555783 375.753075 
L 175.683253 375.753075 
L 149.743078 377.922266 
L 178.35 380.332914 
L 160.964195 380.332914 
L 139.537864 378.528854 
L 139.537864 380.332914 
L 125.65 380.332914 
L 125.65 375.753075 
z
" clip-path="url(#pd996620705)" style="fill: #bd2e1f"/>
   </g>
   <g id="patch_8">
    <path d="M 147.032787 372.886371 
Q 151.762274 372.886371 153.814221 372.745013 
Q 155.866168 372.602644 155.866168 372.27752 
Q 155.866168 371.955424 153.814221 371.817095 
Q 151.762274 371.677756 147.032787 371.677756 
L 140.701781 371.677756 
L 140.701781 372.886371 
L 147.032787 372.886371 
z
M 140.701781 373.725435 
L 140.701781 375.508572 
L 125.65 375.508572 
L 125.65 370.797294 
L 148.634307 370.797294 
Q 160.170252 370.797294 165.537844 371.110302 
Q 170.917949 371.422301 170.917949 372.097792 
Q 170.917949 372.564276 168.11529 372.864158 
Q 165.325142 373.16404 159.694801 373.306408 
Q 162.785233 373.362951 165.225047 373.563882 
Q 167.677374 373.763804 170.179748 374.170714 
L 178.35 375.508572 
L 162.322293 375.508572 
L 155.203039 374.338325 
Q 153.050997 373.984929 150.836396 373.855687 
Q 148.634307 373.725435 144.955817 373.725435 
L 140.701781 373.725435 
z
" clip-path="url(#pd996620705)" style="fill: #bd2e1f"/>
   </g>
   <g id="patch_9">
    <path d="M 162.155336 368.195753 
L 141.887763 368.195753 
L 138.68762 370.360585 
L 125.65 370.360585 
L 144.269015 358.476929 
L 159.730985 358.476929 
L 178.35 370.360585 
L 165.323155 370.360585 
L 162.155336 368.195753 
z
M 145.120231 365.990171 
L 158.890544 365.990171 
L 152.016162 361.263196 
L 145.120231 365.990171 
z
" clip-path="url(#pd996620705)" style="fill: #21599c"/>
   </g>
   <g id="patch_10">
    <path d="M 125.65 343.032543 
L 177.253077 343.032543 
L 177.253077 345.907969 
L 144.774615 345.907969 
L 144.774615 348.650682 
L 175.329487 348.650682 
L 175.329487 351.526108 
L 144.774615 351.526108 
L 144.774615 354.903944 
L 178.35 354.903944 
L 178.35 357.77621 
L 125.65 357.77621 
L 125.65 343.032543 
z
" clip-path="url(#pd996620705)" style="fill: #6b296b"/>
   </g>
   <g id="patch_11">
    <path d="M 187.65 384.305654 
L 202.813382 384.305654 
L 202.813382 384.370386 
L 225.186618 384.370386 
L 225.186618 384.305654 
L 240.35 384.305654 
L 240.35 384.47553 
L 225.186618 384.47553 
L 225.186618 384.403516 
L 202.813382 384.403516 
L 202.813382 384.47553 
L 187.65 384.47553 
L 187.65 384.305654 
z
" clip-path="url(#pd996620705)" style="fill: #177875"/>
   </g>
   <g id="patch_12">
    <path d="M 188.198462 383.115995 
L 239.801538 383.115995 
L 239.801538 383.341213 
L 207.323077 383.341213 
L 207.323077 383.556037 
L 237.877949 383.556037 
L 237.877949 383.781255 
L 207.323077 383.781255 
L 207.323077 384.270795 
L 188.198462 384.270795 
L 188.198462 383.115995 
z
" clip-path="url(#pd996620705)" style="fill: #21599c"/>
   </g>
   <g id="patch_13">
    <path d="M 187.65 381.021859 
L 240.35 381.021859 
L 240.35 381.414027 
L 221.390256 381.414027 
L 221.390256 383.032689 
L 206.646512 383.032689 
L 206.646512 381.414027 
L 187.65 381.414027 
L 187.65 381.021859 
z
" clip-path="url(#pd996620705)" style="fill: #40ba47"/>
   </g>
   <g id="patch_14">
    <path d="M 215.405333 380.587361 
L 214.373292 380.587361 
Q 201.714313 380.587361 194.676667 380.344191 
Q 187.65 380.100639 187.65 379.666597 
Q 187.65 379.233319 194.665687 378.987859 
Q 201.681375 378.742016 214 378.742016 
Q 226.450375 378.742016 233.400187 378.985568 
Q 240.35 379.228738 240.35 379.666597 
Q 240.35 379.967029 236.661 380.18424 
Q 232.972 380.401452 226.044146 380.511012 
L 236.364562 380.911842 
L 223.771458 380.911842 
L 215.405333 380.587361 
z
M 214 379.074896 
Q 207.961458 379.074896 204.634771 379.229884 
Q 201.308083 379.384871 201.308083 379.666597 
Q 201.308083 379.952904 204.557917 380.10522 
Q 207.818729 380.257153 214 380.257153 
Q 220.071479 380.257153 223.398167 380.102166 
Q 226.724854 379.946796 226.724854 379.666597 
Q 226.724854 379.384871 223.398167 379.229884 
Q 220.071479 379.074896 214 379.074896 
z
" clip-path="url(#pd996620705)" style="fill: #40ba47"/>
   </g>
   <g id="patch_15">
    <path d="M 187.65 375.722688 
L 206.774615 375.722688 
L 206.774615 378.046676 
L 240.35 378.046676 
L 240.35 378.608961 
L 187.65 378.608961 
L 187.65 375.722688 
z
" clip-path="url(#pd996620705)" style="fill: #21599c"/>
   </g>
   <g id="patch_16">
    <path d="M 187.65 372.183378 
L 201.537864 372.183378 
L 201.537864 373.415024 
L 221.555783 372.183378 
L 237.683253 372.183378 
L 211.743078 373.781698 
L 240.35 375.55793 
L 222.964195 375.55793 
L 201.537864 374.228649 
L 201.537864 375.55793 
L 187.65 375.55793 
L 187.65 372.183378 
z
" clip-path="url(#pd996620705)" style="fill: #bd2e1f"/>
   </g>
   <g id="patch_17">
    <path d="M 187.65 365.127157 
L 239.253077 365.127157 
L 239.253077 366.451155 
L 206.774615 366.451155 
L 206.774615 367.714046 
L 237.329487 367.714046 
L 237.329487 369.038044 
L 206.774615 369.038044 
L 206.774615 370.593379 
L 240.35 370.593379 
L 240.35 371.915923 
L 187.65 371.915923 
L 187.65 365.127157 
z
" clip-path="url(#pd996620705)" style="fill: #6b296b"/>
   </g>
   <g id="patch_18">
    <path d="M 204.437692 349.549791 
L 223.562308 349.549791 
L 223.562308 364.553666 
L 204.437692 364.553666 
L 204.437692 349.549791 
z
" clip-path="url(#pd996620705)" style="fill: #21599c"/>
   </g>
   <g id="patch_19">
    <path d="M 187.65 332.843221 
L 200.68762 332.843221 
L 214.016162 344.574286 
L 227.323155 332.843221 
L 240.35 332.843221 
L 221.730985 348.736702 
L 206.269015 348.736702 
L 187.65 332.843221 
z
" clip-path="url(#pd996620705)" style="fill: #21599c"/>
   </g>
   <g id="patch_20">
    <path d="M 271.032787 384.462615 
Q 275.762274 384.462615 277.814221 384.46172 
Q 279.866168 384.460819 279.866168 384.458761 
Q 279.866168 384.456722 277.814221 384.455846 
Q 275.762274 384.454964 271.032787 384.454964 
L 264.701781 384.454964 
L 264.701781 384.462615 
L 271.032787 384.462615 
z
M 264.701781 384.467927 
L 264.701781 384.479215 
L 249.65 384.479215 
L 249.65 384.44939 
L 272.634307 384.44939 
Q 284.170252 384.44939 289.537844 384.451371 
Q 294.917949 384.453347 294.917949 384.457623 
Q 294.917949 384.460576 292.11529 384.462474 
Q 289.325142 384.464373 283.694801 384.465274 
Q 286.785233 384.465632 289.225047 384.466904 
Q 291.677374 384.46817 294.179748 384.470746 
L 302.35 384.479215 
L 286.322293 384.479215 
L 279.203039 384.471807 
Q 277.050997 384.46957 274.836396 384.468751 
Q 272.634307 384.467927 268.955817 384.467927 
L 264.701781 384.467927 
z
" clip-path="url(#pd996620705)" style="fill: #bd2e1f"/>
   </g>
   <g id="patch_21">
    <path d="M 249.65 383.978349 
L 265.195992 383.978349 
L 275.979692 384.223553 
L 286.83447 383.978349 
L 302.35 383.978349 
L 302.35 384.436547 
L 290.80474 384.436547 
L 290.80474 384.101393 
L 279.889037 384.348462 
L 272.141426 384.348462 
L 261.225723 384.101393 
L 261.225723 384.436547 
L 249.65 384.436547 
L 249.65 383.978349 
z
" clip-path="url(#pd996620705)" style="fill: #21599c"/>
   </g>
   <g id="patch_22">
    <path d="M 286.155336 383.760557 
L 265.887763 383.760557 
L 262.68762 383.940323 
L 249.65 383.940323 
L 268.269015 382.953517 
L 283.730985 382.953517 
L 302.35 383.940323 
L 289.323155 383.940323 
L 286.155336 383.760557 
z
M 269.120231 383.577408 
L 282.890544 383.577408 
L 276.016162 383.184886 
L 269.120231 383.577408 
z
" clip-path="url(#pd996620705)" style="fill: #21599c"/>
   </g>
   <g id="patch_23">
    <path d="M 249.65 381.443778 
L 258.762642 381.443778 
L 265.132798 382.494454 
L 271.455534 381.443778 
L 280.615597 381.443778 
L 286.938332 382.494454 
L 293.316392 381.443778 
L 302.35 381.443778 
L 293.656239 382.889503 
L 282.694196 382.889503 
L 276 381.790492 
L 269.384838 382.889503 
L 258.414892 382.889503 
L 249.65 381.443778 
z
" clip-path="url(#pd996620705)" style="fill: #21599c"/>
   </g>
   <g id="patch_24">
    <path d="M 277.405333 380.677351 
L 276.373292 380.677351 
Q 263.714313 380.677351 256.676667 380.213177 
Q 249.65 379.748274 249.65 378.919755 
Q 249.65 378.092694 256.665687 377.624147 
Q 263.681375 377.154872 276 377.154872 
Q 288.450375 377.154872 295.400188 377.619775 
Q 302.35 378.08395 302.35 378.919755 
Q 302.35 379.493233 298.661 379.907856 
Q 294.972 380.32248 288.044146 380.531614 
L 298.364562 381.296736 
L 285.771458 381.296736 
L 277.405333 380.677351 
z
M 276 377.790288 
Q 269.961458 377.790288 266.634771 378.086136 
Q 263.308083 378.381983 263.308083 378.919755 
Q 263.308083 379.466271 266.557917 379.757018 
Q 269.818729 380.047036 276 380.047036 
Q 282.071479 380.047036 285.398167 379.751188 
Q 288.724854 379.454612 288.724854 378.919755 
Q 288.724854 378.381983 285.398167 378.086136 
Q 282.071479 377.790288 276 377.790288 
z
" clip-path="url(#pd996620705)" style="fill: #40ba47"/>
   </g>
   <g id="patch_25">
    <path d="M 249.65 367.732679 
L 301.253077 367.732679 
L 301.253077 369.502439 
L 268.774615 369.502439 
L 268.774615 371.190518 
L 299.329487 371.190518 
L 299.329487 372.960278 
L 268.774615 372.960278 
L 268.774615 375.03926 
L 302.35 375.03926 
L 302.35 376.807076 
L 249.65 376.807076 
L 249.65 367.732679 
z
" clip-path="url(#pd996620705)" style="fill: #6b296b"/>
   </g>
   <g id="patch_26">
    <path d="M 249.65 352.400553 
L 263.537864 352.400553 
L 263.537864 357.768075 
L 283.555783 352.400553 
L 299.683253 352.400553 
L 273.743078 359.36604 
L 302.35 367.106871 
L 284.964195 367.106871 
L 263.537864 361.313855 
L 263.537864 367.106871 
L 249.65 367.106871 
L 249.65 352.400553 
z
" clip-path="url(#pd996620705)" style="fill: #bd2e1f"/>
   </g>
   <g id="patch_27">
    <path d="M 249.65 330.057263 
L 268.774615 330.057263 
L 268.774615 347.282858 
L 302.35 347.282858 
L 302.35 351.450563 
L 249.65 351.450563 
L 249.65 330.057263 
z
" clip-path="url(#pd996620705)" style="fill: #21599c"/>
   </g>
   <g id="patch_28">
    <path d="M 311.65 60.156 
L 363.253077 60.156 
L 363.253077 121.786364 
L 330.774615 121.786364 
L 330.774615 180.57225 
L 361.329487 180.57225 
L 361.329487 242.202615 
L 330.774615 242.202615 
L 330.774615 314.601361 
L 364.35 314.601361 
L 364.35 376.164 
L 311.65 376.164 
L 311.65 60.156 
z
" clip-path="url(#pd996620705)" style="fill: #6b296b"/>
   </g>
   <g id="patch_29">
    <path d="M 421.955948 384.169932 
L 421.955948 384.234598 
Q 416.459804 384.22334 411.221293 384.217646 
Q 405.997094 384.211886 401.34541 384.211886 
Q 395.176562 384.211886 392.213797 384.219675 
Q 389.265345 384.227398 389.265345 384.243761 
Q 389.265345 384.256066 391.254834 384.262938 
Q 393.244324 384.269745 398.482835 384.274654 
L 405.811027 384.281395 
Q 416.946442 384.291671 421.641065 384.31255 
Q 426.35 384.333363 426.35 384.371849 
Q 426.35 384.422312 419.794704 384.446987 
Q 413.239408 384.471662 399.770994 384.471662 
Q 393.430391 384.471662 387.032537 384.466099 
Q 380.634682 384.460601 374.236828 384.449736 
L 374.236828 384.383303 
Q 380.634682 384.398815 386.60315 384.406734 
Q 392.571619 384.414588 398.125014 384.414588 
Q 403.764286 384.414588 406.755676 384.406014 
Q 409.747067 384.397375 409.747067 384.381405 
Q 409.747067 384.367136 407.714639 384.359348 
Q 405.682211 384.351559 399.59924 384.345406 
L 392.929441 384.338665 
Q 382.910429 384.328847 378.273058 384.307379 
Q 373.65 384.285911 373.65 384.24952 
Q 373.65 384.203901 380.090793 384.179357 
Q 386.531586 384.154813 398.611651 384.154813 
Q 404.122108 384.154813 409.933134 384.158609 
Q 415.744161 384.162405 421.955948 384.169932 
z
" clip-path="url(#pd996620705)" style="fill: #40ba47"/>
   </g>
   <g id="patch_30">
    <path d="M 374.198462 383.508595 
L 425.801538 383.508595 
L 425.801538 383.62981 
L 393.323077 383.62981 
L 393.323077 383.745429 
L 423.877949 383.745429 
L 423.877949 383.866644 
L 393.323077 383.866644 
L 393.323077 384.130119 
L 374.198462 384.130119 
L 374.198462 383.508595 
z
" clip-path="url(#pd996620705)" style="fill: #21599c"/>
   </g>
   <g id="patch_31">
    <path d="M 373.65 382.172129 
L 426.35 382.172129 
L 426.35 382.422986 
L 407.390256 382.422986 
L 407.390256 383.45839 
L 392.646512 383.45839 
L 392.646512 382.422986 
L 373.65 382.422986 
L 373.65 382.172129 
z
" clip-path="url(#pd996620705)" style="fill: #40ba47"/>
   </g>
   <g id="patch_32">
    <path d="M 373.65 379.848874 
L 389.195992 379.848874 
L 399.979692 381.04263 
L 410.83447 379.848874 
L 426.35 379.848874 
L 426.35 382.079577 
L 414.80474 382.079577 
L 414.80474 380.447903 
L 403.889037 381.650743 
L 396.141426 381.650743 
L 385.225723 380.447903 
L 385.225723 382.079577 
L 373.65 382.079577 
L 373.65 379.848874 
z
" clip-path="url(#pd996620705)" style="fill: #21599c"/>
   </g>
   <g id="patch_33">
    <path d="M 410.155336 379.076632 
L 389.887763 379.076632 
L 386.68762 379.700105 
L 373.65 379.700105 
L 392.269015 376.277602 
L 407.730985 376.277602 
L 426.35 379.700105 
L 413.323155 379.700105 
L 410.155336 379.076632 
z
M 393.120231 378.441422 
L 406.890544 378.441422 
L 400.016162 377.080049 
L 393.120231 378.441422 
z
" clip-path="url(#pd996620705)" style="fill: #21599c"/>
   </g>
   <g id="patch_34">
    <path d="M 373.65 365.914454 
L 386.68762 365.914454 
L 400.016162 373.302646 
L 413.323155 365.914454 
L 426.35 365.914454 
L 407.730985 375.924124 
L 392.269015 375.924124 
L 373.65 365.914454 
z
" clip-path="url(#pd996620705)" style="fill: #21599c"/>
   </g>
   <g id="patch_35">
    <path d="M 390.437692 353.087663 
L 409.562308 353.087663 
L 409.562308 365.328904 
L 390.437692 365.328904 
L 390.437692 353.087663 
z
" clip-path="url(#pd996620705)" style="fill: #21599c"/>
   </g>
   <g id="patch_36">
    <path d="M 373.65 324.656856 
L 392.774615 324.656856 
L 392.774615 346.70925 
L 426.35 346.70925 
L 426.35 352.04479 
L 373.65 352.04479 
L 373.65 324.656856 
z
" clip-path="url(#pd996620705)" style="fill: #21599c"/>
   </g>
   <g id="patch_37">
    <path d="M 435.65 384.302105 
L 450.22 384.302105 
L 461.988929 384.363883 
L 473.746786 384.302105 
L 488.35 384.302105 
L 468.665 384.402405 
L 468.665 384.475439 
L 455.346071 384.475439 
L 455.346071 384.402405 
L 435.65 384.302105 
z
" clip-path="url(#pd996620705)" style="fill: #177875"/>
   </g>
   <g id="patch_38">
    <path d="M 435.65 384.098331 
L 454.774615 384.098331 
L 454.774615 384.254622 
L 488.35 384.254622 
L 488.35 384.292436 
L 435.65 384.292436 
L 435.65 384.098331 
z
" clip-path="url(#pd996620705)" style="fill: #21599c"/>
   </g>
   <g id="patch_39">
    <path d="M 435.65 383.471105 
L 488.35 383.471105 
L 488.35 383.589325 
L 469.390256 383.589325 
L 469.390256 384.077271 
L 454.646512 384.077271 
L 454.646512 383.589325 
L 435.65 383.589325 
L 435.65 383.471105 
z
" clip-path="url(#pd996620705)" style="fill: #40ba47"/>
   </g>
   <g id="patch_40">
    <path d="M 436.198462 381.512411 
L 487.801538 381.512411 
L 487.801538 381.881584 
L 455.323077 381.881584 
L 455.323077 382.23372 
L 485.877949 382.23372 
L 485.877949 382.602893 
L 455.323077 382.602893 
L 455.323077 383.40534 
L 436.198462 383.40534 
L 436.198462 381.512411 
z
" clip-path="url(#pd996620705)" style="fill: #21599c"/>
   </g>
   <g id="patch_41">
    <path d="M 452.437692 379.453175 
L 471.562308 379.453175 
L 471.562308 381.411073 
L 452.437692 381.411073 
L 452.437692 379.453175 
z
" clip-path="url(#pd996620705)" style="fill: #21599c"/>
   </g>
   <g id="patch_42">
    <path d="M 483.955948 377.377131 
L 483.955948 377.799351 
Q 478.459804 377.725847 473.221293 377.688668 
Q 467.997094 377.651061 463.34541 377.651061 
Q 457.176562 377.651061 454.213797 377.701916 
Q 451.265345 377.752343 451.265345 377.85918 
Q 451.265345 377.939522 453.254834 377.984394 
Q 455.244324 378.028838 460.482835 378.060889 
L 467.811027 378.104906 
Q 478.946442 378.172 483.641065 378.308324 
Q 488.35 378.444221 488.35 378.695502 
Q 488.35 379.024988 481.794704 379.186099 
Q 475.239408 379.347209 461.770994 379.347209 
Q 455.430391 379.347209 449.032537 379.310884 
Q 442.634682 379.274987 436.236828 379.204047 
L 436.236828 378.770288 
Q 442.634682 378.87157 448.60315 378.923279 
Q 454.571619 378.974561 460.125014 378.974561 
Q 465.764286 378.974561 468.755676 378.918578 
Q 471.747067 378.862168 471.747067 378.757895 
Q 471.747067 378.664733 469.714639 378.613878 
Q 467.682211 378.563024 461.59924 378.522853 
L 454.929441 378.478836 
Q 444.910429 378.414734 440.273058 378.274563 
Q 435.65 378.134393 435.65 377.896787 
Q 435.65 377.598925 442.090793 377.438669 
Q 448.531586 377.278413 460.611651 377.278413 
Q 466.122108 377.278413 471.933134 377.303199 
Q 477.744161 377.327986 483.955948 377.377131 
z
" clip-path="url(#pd996620705)" style="fill: #40ba47"/>
   </g>
   <g id="patch_43">
    <path d="M 463.405333 376.839236 
L 462.373292 376.839236 
Q 449.714313 376.839236 442.676667 376.594056 
Q 435.65 376.348491 435.65 375.910863 
Q 435.65 375.474004 442.665687 375.226515 
Q 449.681375 374.978641 462 374.978641 
Q 474.450375 374.978641 481.400187 375.224206 
Q 488.35 375.469385 488.35 375.910863 
Q 488.35 376.213777 484.661 376.432784 
Q 480.972 376.651791 474.044146 376.762256 
L 484.364562 377.166399 
L 471.771458 377.166399 
L 463.405333 376.839236 
z
M 462 375.314272 
Q 455.961458 375.314272 452.634771 375.47054 
Q 449.308083 375.626808 449.308083 375.910863 
Q 449.308083 376.199536 452.557917 376.35311 
Q 455.818729 376.506299 462 376.506299 
Q 468.071479 376.506299 471.398167 376.350031 
Q 474.724854 376.193378 474.724854 375.910863 
Q 474.724854 375.626808 471.398167 375.47054 
Q 468.071479 375.314272 462 375.314272 
z
" clip-path="url(#pd996620705)" style="fill: #40ba47"/>
   </g>
   <g id="patch_44">
    <path d="M 435.65 370.66823 
L 487.253077 370.66823 
L 487.253077 371.476384 
L 454.774615 371.476384 
L 454.774615 372.24724 
L 485.329487 372.24724 
L 485.329487 373.055395 
L 454.774615 373.055395 
L 454.774615 374.004754 
L 488.35 374.004754 
L 488.35 374.812021 
L 435.65 374.812021 
L 435.65 370.66823 
z
" clip-path="url(#pd996620705)" style="fill: #6b296b"/>
   </g>
   <g id="patch_45">
    <path d="M 435.65 366.218099 
L 449.537864 366.218099 
L 449.537864 367.761885 
L 469.555783 366.218099 
L 485.683253 366.218099 
L 459.743078 368.221485 
L 488.35 370.447873 
L 470.964195 370.447873 
L 449.537864 368.781708 
L 449.537864 370.447873 
L 435.65 370.447873 
L 435.65 366.218099 
z
" clip-path="url(#pd996620705)" style="fill: #bd2e1f"/>
   </g>
   <g id="patch_46">
    <path d="M 472.155336 362.498481 
L 451.887763 362.498481 
L 448.68762 365.651334 
L 435.65 365.651334 
L 454.269015 348.344025 
L 469.730985 348.344025 
L 488.35 365.651334 
L 475.323155 365.651334 
L 472.155336 362.498481 
z
M 455.120231 359.28628 
L 468.890544 359.28628 
L 462.016162 352.401932 
L 455.120231 359.28628 
z
" clip-path="url(#pd996620705)" style="fill: #21599c"/>
   </g>
   <g id="patch_47">
    <path d="M 498.198462 383.340195 
L 549.801538 383.340195 
L 549.801538 383.556789 
L 517.323077 383.556789 
L 517.323077 383.763386 
L 547.877949 383.763386 
L 547.877949 383.97998 
L 517.323077 383.97998 
L 517.323077 384.450774 
L 498.198462 384.450774 
L 498.198462 383.340195 
z
" clip-path="url(#pd996620705)" style="fill: #21599c"/>
   </g>
   <g id="patch_48">
    <path d="M 525.405333 383.036922 
L 524.373292 383.036922 
Q 511.714313 383.036922 504.676667 382.862281 
Q 497.65 382.687366 497.65 382.375643 
Q 497.65 382.064469 504.665687 381.888183 
Q 511.681375 381.711623 524 381.711623 
Q 536.450375 381.711623 543.400187 381.886538 
Q 550.35 382.061179 550.35 382.375643 
Q 550.35 382.591409 546.661 382.747407 
Q 542.972 382.903405 536.044146 382.98209 
L 546.364562 383.26996 
L 533.771458 383.26996 
L 525.405333 383.036922 
z
M 524 381.950692 
Q 517.961458 381.950692 514.634771 382.062002 
Q 511.308083 382.173312 511.308083 382.375643 
Q 511.308083 382.581265 514.557917 382.690655 
Q 517.818729 382.799772 524 382.799772 
Q 530.071479 382.799772 533.398167 382.688462 
Q 536.724854 382.576878 536.724854 382.375643 
Q 536.724854 382.173312 533.398167 382.062002 
Q 530.071479 381.950692 524 381.950692 
z
" clip-path="url(#pd996620705)" style="fill: #40ba47"/>
   </g>
   <g id="patch_49">
    <path d="M 497.65 379.042857 
L 512.22 379.042857 
L 523.988929 379.955397 
L 535.746786 379.042857 
L 550.35 379.042857 
L 530.665 380.524431 
L 530.665 381.603236 
L 517.346071 381.603236 
L 517.346071 380.524431 
L 497.65 379.042857 
z
" clip-path="url(#pd996620705)" style="fill: #177875"/>
   </g>
   <g id="patch_50">
    <path d="M 497.65 375.465507 
L 516.774615 375.465507 
L 516.774615 378.219222 
L 550.35 378.219222 
L 550.35 378.885479 
L 497.65 378.885479 
L 497.65 375.465507 
z
" clip-path="url(#pd996620705)" style="fill: #21599c"/>
   </g>
   <g id="patch_51">
    <path d="M 545.955948 371.055762 
L 545.955948 371.95666 
Q 540.459804 371.799823 535.221293 371.720493 
Q 529.997094 371.640251 525.34541 371.640251 
Q 519.176562 371.640251 516.213797 371.74876 
Q 513.265345 371.856357 513.265345 372.084317 
Q 513.265345 372.255743 515.254834 372.351486 
Q 517.244324 372.446318 522.482835 372.514706 
L 529.811027 372.608625 
Q 540.946442 372.751784 545.641065 373.042661 
Q 550.35 373.332626 550.35 373.868788 
Q 550.35 374.571817 543.794704 374.915581 
Q 537.239408 375.259344 523.770994 375.259344 
Q 517.430391 375.259344 511.032537 375.181838 
Q 504.634682 375.105243 498.236828 374.953878 
L 498.236828 374.02836 
Q 504.634682 374.244466 510.60315 374.354799 
Q 516.571619 374.46422 522.125014 374.46422 
Q 527.764286 374.46422 530.755676 374.344769 
Q 533.747067 374.224406 533.747067 374.001917 
Q 533.747067 373.803136 531.714639 373.694627 
Q 529.682211 373.586118 523.59924 373.500405 
L 516.929441 373.406485 
Q 506.910429 373.269709 502.273058 372.970626 
Q 497.65 372.671542 497.65 372.164559 
Q 497.65 371.529007 504.090793 371.187067 
Q 510.531586 370.845127 522.611651 370.845127 
Q 528.122108 370.845127 533.933134 370.898013 
Q 539.744161 370.9509 545.955948 371.055762 
z
" clip-path="url(#pd996620705)" style="fill: #40ba47"/>
   </g>
   <g id="patch_52">
    <path d="M 497.65 356.822751 
L 511.537864 356.822751 
L 511.537864 361.768109 
L 531.555783 356.822751 
L 547.683253 356.822751 
L 521.743078 363.240392 
L 550.35 370.372393 
L 532.964195 370.372393 
L 511.537864 365.035008 
L 511.537864 370.372393 
L 497.65 370.372393 
L 497.65 356.822751 
z
" clip-path="url(#pd996620705)" style="fill: #bd2e1f"/>
   </g>
   <g id="patch_53">
    <path d="M 497.65 341.195312 
L 549.253077 341.195312 
L 549.253077 344.097192 
L 516.774615 344.097192 
L 516.774615 346.865139 
L 547.329487 346.865139 
L 547.329487 349.767019 
L 516.774615 349.767019 
L 516.774615 353.17593 
L 550.35 353.17593 
L 550.35 356.074621 
L 497.65 356.074621 
L 497.65 341.195312 
z
" clip-path="url(#pd996620705)" style="fill: #6b296b"/>
   </g>
   <g id="patch_54">
    <path d="M 559.65 384.317071 
L 574.22 384.317071 
L 585.988929 384.373651 
L 597.746786 384.317071 
L 612.35 384.317071 
L 592.665 384.408933 
L 592.665 384.475822 
L 579.346071 384.475822 
L 579.346071 384.408933 
L 559.65 384.317071 
z
" clip-path="url(#pd996620705)" style="fill: #177875"/>
   </g>
   <g id="patch_55">
    <path d="M 559.65 383.853273 
L 572.68762 383.853273 
L 586.016162 384.183822 
L 599.323155 383.853273 
L 612.35 383.853273 
L 593.730985 384.301108 
L 578.269015 384.301108 
L 559.65 383.853273 
z
" clip-path="url(#pd996620705)" style="fill: #21599c"/>
   </g>
   <g id="patch_56">
    <path d="M 559.65 383.261698 
L 575.195992 383.261698 
L 585.979692 383.564016 
L 596.83447 383.261698 
L 612.35 383.261698 
L 612.35 383.826622 
L 600.80474 383.826622 
L 600.80474 383.413402 
L 589.889037 383.71802 
L 582.141426 383.71802 
L 571.225723 383.413402 
L 571.225723 383.826622 
L 559.65 383.826622 
L 559.65 383.261698 
z
" clip-path="url(#pd996620705)" style="fill: #21599c"/>
   </g>
   <g id="patch_57">
    <path d="M 587.405333 383.026596 
L 586.373292 383.026596 
Q 573.714313 383.026596 566.676667 382.886247 
Q 559.65 382.745677 559.65 382.495164 
Q 559.65 382.245091 566.665687 382.10342 
Q 573.681375 381.961528 586 381.961528 
Q 598.450375 381.961528 605.400187 382.102098 
Q 612.35 382.242447 612.35 382.495164 
Q 612.35 382.668562 608.661 382.793929 
Q 604.972 382.919296 598.044146 382.98253 
L 608.364562 383.213875 
L 595.771458 383.213875 
L 587.405333 383.026596 
z
M 586 382.153654 
Q 579.961458 382.153654 576.634771 382.243108 
Q 573.308083 382.332561 573.308083 382.495164 
Q 573.308083 382.66041 576.557917 382.748321 
Q 579.818729 382.836012 586 382.836012 
Q 592.071479 382.836012 595.398167 382.746559 
Q 598.724854 382.656885 598.724854 382.495164 
Q 598.724854 382.332561 595.398167 382.243108 
Q 592.071479 382.153654 586 382.153654 
z
" clip-path="url(#pd996620705)" style="fill: #40ba47"/>
   </g>
   <g id="patch_58">
    <path d="M 596.155336 381.573326 
L 575.887763 381.573326 
L 572.68762 381.883731 
L 559.65 381.883731 
L 578.269015 380.179788 
L 593.730985 380.179788 
L 612.35 381.883731 
L 599.323155 381.883731 
L 596.155336 381.573326 
z
M 579.120231 381.257077 
L 592.890544 381.257077 
L 586.016162 380.579298 
L 579.120231 381.257077 
z
" clip-path="url(#pd996620705)" style="fill: #21599c"/>
   </g>
   <g id="patch_59">
    <path d="M 559.65 376.011802 
L 573.537864 376.011802 
L 573.537864 377.478084 
L 593.555783 376.011802 
L 609.683253 376.011802 
L 583.743078 377.914611 
L 612.35 380.029226 
L 594.964195 380.029226 
L 573.537864 378.446709 
L 573.537864 380.029226 
L 559.65 380.029226 
L 559.65 376.011802 
z
" clip-path="url(#pd996620705)" style="fill: #bd2e1f"/>
   </g>
   <g id="patch_60">
    <path d="M 576.437692 367.024231 
L 595.562308 367.024231 
L 595.562308 375.67834 
L 576.437692 375.67834 
L 576.437692 367.024231 
z
" clip-path="url(#pd996620705)" style="fill: #21599c"/>
   </g>
   <g id="patch_61">
    <path d="M 559.65 336.820452 
L 578.774615 336.820452 
L 578.774615 360.337873 
L 612.35 360.337873 
L 612.35 366.027874 
L 559.65 366.027874 
L 559.65 336.820452 
z
" clip-path="url(#pd996620705)" style="fill: #21599c"/>
   </g>
   <g id="matplotlib.axis_1">
    <g id="xtick_1">
     <g id="line2d_2">
      <defs>
       <path id="me94e54b80e" d="M 0 0 
L 0 4.8 
" style="stroke: #262626"/>
      </defs>
      <g>
       <use xlink:href="#me94e54b80e" x="152" y="384.48" style="fill: #262626; stroke: #262626"/>
      </g>
     </g>
     <g id="text_1">
      <!-- P4 -->
      <g style="fill: #262626" transform="translate(146.61825 399.078875) scale(0.088 -0.088)">
       <defs>
        <path id="ArialMT-50" d="M 494 0 
L 494 4581 
L 2222 4581 
Q 2678 4581 2919 4538 
Q 3256 4481 3484 4323 
Q 3713 4166 3852 3881 
Q 3991 3597 3991 3256 
Q 3991 2672 3619 2267 
Q 3247 1863 2275 1863 
L 1100 1863 
L 1100 0 
L 494 0 
z
M 1100 2403 
L 2284 2403 
Q 2872 2403 3119 2622 
Q 3366 2841 3366 3238 
Q 3366 3525 3220 3729 
Q 3075 3934 2838 4000 
Q 2684 4041 2272 4041 
L 1100 4041 
L 1100 2403 
z
" transform="scale(0.015625)"/>
        <path id="ArialMT-34" d="M 2069 0 
L 2069 1097 
L 81 1097 
L 81 1613 
L 2172 4581 
L 2631 4581 
L 2631 1613 
L 3250 1613 
L 3250 1097 
L 2631 1097 
L 2631 0 
L 2069 0 
z
M 2069 1613 
L 2069 3678 
L 634 1613 
L 2069 1613 
z
" transform="scale(0.015625)"/>
       </defs>
       <use xlink:href="#ArialMT-50"/>
       <use xlink:href="#ArialMT-34" x="66.699219"/>
      </g>
     </g>
    </g>
    <g id="xtick_2">
     <g id="line2d_3">
      <g>
       <use xlink:href="#me94e54b80e" x="214" y="384.48" style="fill: #262626; stroke: #262626"/>
      </g>
     </g>
     <g id="text_2">
      <!-- P3 -->
      <g style="fill: #262626" transform="translate(208.61825 399.078875) scale(0.088 -0.088)">
       <defs>
        <path id="ArialMT-33" d="M 269 1209 
L 831 1284 
Q 928 806 1161 595 
Q 1394 384 1728 384 
Q 2125 384 2398 659 
Q 2672 934 2672 1341 
Q 2672 1728 2419 1979 
Q 2166 2231 1775 2231 
Q 1616 2231 1378 2169 
L 1441 2663 
Q 1497 2656 1531 2656 
Q 1891 2656 2178 2843 
Q 2466 3031 2466 3422 
Q 2466 3731 2256 3934 
Q 2047 4138 1716 4138 
Q 1388 4138 1169 3931 
Q 950 3725 888 3313 
L 325 3413 
Q 428 3978 793 4289 
Q 1159 4600 1703 4600 
Q 2078 4600 2393 4439 
Q 2709 4278 2876 4000 
Q 3044 3722 3044 3409 
Q 3044 3113 2884 2869 
Q 2725 2625 2413 2481 
Q 2819 2388 3044 2092 
Q 3269 1797 3269 1353 
Q 3269 753 2831 336 
Q 2394 -81 1725 -81 
Q 1122 -81 723 278 
Q 325 638 269 1209 
z
" transform="scale(0.015625)"/>
       </defs>
       <use xlink:href="#ArialMT-50"/>
       <use xlink:href="#ArialMT-33" x="66.699219"/>
      </g>
     </g>
    </g>
    <g id="xtick_3">
     <g id="line2d_4">
      <g>
       <use xlink:href="#me94e54b80e" x="276" y="384.48" style="fill: #262626; stroke: #262626"/>
      </g>
     </g>
     <g id="text_3">
      <!-- P2 -->
      <g style="fill: #262626" transform="translate(270.61825 399.078875) scale(0.088 -0.088)">
       <defs>
        <path id="ArialMT-32" d="M 3222 541 
L 3222 0 
L 194 0 
Q 188 203 259 391 
Q 375 700 629 1000 
Q 884 1300 1366 1694 
Q 2113 2306 2375 2664 
Q 2638 3022 2638 3341 
Q 2638 3675 2398 3904 
Q 2159 4134 1775 4134 
Q 1369 4134 1125 3890 
Q 881 3647 878 3216 
L 300 3275 
Q 359 3922 746 4261 
Q 1134 4600 1788 4600 
Q 2447 4600 2831 4234 
Q 3216 3869 3216 3328 
Q 3216 3053 3103 2787 
Q 2991 2522 2730 2228 
Q 2469 1934 1863 1422 
Q 1356 997 1212 845 
Q 1069 694 975 541 
L 3222 541 
z
" transform="scale(0.015625)"/>
       </defs>
       <use xlink:href="#ArialMT-50"/>
       <use xlink:href="#ArialMT-32" x="66.699219"/>
      </g>
     </g>
    </g>
    <g id="xtick_4">
     <g id="line2d_5">
      <g>
       <use xlink:href="#me94e54b80e" x="338" y="384.48" style="fill: #262626; stroke: #262626"/>
      </g>
     </g>
     <g id="text_4">
      <!-- P1 -->
      <g style="fill: #262626" transform="translate(332.61825 399.078875) scale(0.088 -0.088)">
       <defs>
        <path id="ArialMT-31" d="M 2384 0 
L 1822 0 
L 1822 3584 
Q 1619 3391 1289 3197 
Q 959 3003 697 2906 
L 697 3450 
Q 1169 3672 1522 3987 
Q 1875 4303 2022 4600 
L 2384 4600 
L 2384 0 
z
" transform="scale(0.015625)"/>
       </defs>
       <use xlink:href="#ArialMT-50"/>
       <use xlink:href="#ArialMT-31" x="66.699219"/>
      </g>
     </g>
    </g>
    <g id="xtick_5">
     <g id="line2d_6">
      <g>
       <use xlink:href="#me94e54b80e" x="400" y="384.48" style="fill: #262626; stroke: #262626"/>
      </g>
     </g>
     <g id="text_5">
      <!-- P1' -->
      <g style="fill: #262626" transform="translate(393.778125 399.078875) scale(0.088 -0.088)">
       <defs>
        <path id="ArialMT-27" d="M 425 2959 
L 281 3816 
L 281 4581 
L 922 4581 
L 922 3816 
L 772 2959 
L 425 2959 
z
" transform="scale(0.015625)"/>
       </defs>
       <use xlink:href="#ArialMT-50"/>
       <use xlink:href="#ArialMT-31" x="66.699219"/>
       <use xlink:href="#ArialMT-27" x="122.314453"/>
      </g>
     </g>
    </g>
    <g id="xtick_6">
     <g id="line2d_7">
      <g>
       <use xlink:href="#me94e54b80e" x="462" y="384.48" style="fill: #262626; stroke: #262626"/>
      </g>
     </g>
     <g id="text_6">
      <!-- P2' -->
      <g style="fill: #262626" transform="translate(455.778125 399.078875) scale(0.088 -0.088)">
       <use xlink:href="#ArialMT-50"/>
       <use xlink:href="#ArialMT-32" x="66.699219"/>
       <use xlink:href="#ArialMT-27" x="122.314453"/>
      </g>
     </g>
    </g>
    <g id="xtick_7">
     <g id="line2d_8">
      <g>
       <use xlink:href="#me94e54b80e" x="524" y="384.48" style="fill: #262626; stroke: #262626"/>
      </g>
     </g>
     <g id="text_7">
      <!-- P3' -->
      <g style="fill: #262626" transform="translate(517.778125 399.078875) scale(0.088 -0.088)">
       <use xlink:href="#ArialMT-50"/>
       <use xlink:href="#ArialMT-33" x="66.699219"/>
       <use xlink:href="#ArialMT-27" x="122.314453"/>
      </g>
     </g>
    </g>
    <g id="xtick_8">
     <g id="line2d_9">
      <g>
       <use xlink:href="#me94e54b80e" x="586" y="384.48" style="fill: #262626; stroke: #262626"/>
      </g>
     </g>
     <g id="text_8">
      <!-- P4' -->
      <g style="fill: #262626" transform="translate(579.778125 399.078875) scale(0.088 -0.088)">
       <use xlink:href="#ArialMT-50"/>
       <use xlink:href="#ArialMT-34" x="66.699219"/>
       <use xlink:href="#ArialMT-27" x="122.314453"/>
      </g>
     </g>
    </g>
   </g>
   <g id="matplotlib.axis_2">
    <g id="ytick_1">
     <g id="line2d_10">
      <defs>
       <path id="m2dec860d26" d="M 0 0 
L -4.8 0 
" style="stroke: #262626"/>
      </defs>
      <g>
       <use xlink:href="#m2dec860d26" x="90" y="384.48" style="fill: #262626; stroke: #262626"/>
      </g>
     </g>
     <g id="text_9">
      <!-- 0.0 -->
      <g style="fill: #262626" transform="translate(69.468 387.629437) scale(0.088 -0.088)">
       <defs>
        <path id="ArialMT-30" d="M 266 2259 
Q 266 3072 433 3567 
Q 600 4063 929 4331 
Q 1259 4600 1759 4600 
Q 2128 4600 2406 4451 
Q 2684 4303 2865 4023 
Q 3047 3744 3150 3342 
Q 3253 2941 3253 2259 
Q 3253 1453 3087 958 
Q 2922 463 2592 192 
Q 2263 -78 1759 -78 
Q 1097 -78 719 397 
Q 266 969 266 2259 
z
M 844 2259 
Q 844 1131 1108 757 
Q 1372 384 1759 384 
Q 2147 384 2411 759 
Q 2675 1134 2675 2259 
Q 2675 3391 2411 3762 
Q 2147 4134 1753 4134 
Q 1366 4134 1134 3806 
Q 844 3388 844 2259 
z
" transform="scale(0.015625)"/>
        <path id="ArialMT-2e" d="M 581 0 
L 581 641 
L 1222 641 
L 1222 0 
L 581 0 
z
" transform="scale(0.015625)"/>
       </defs>
       <use xlink:href="#ArialMT-30"/>
       <use xlink:href="#ArialMT-2e" x="55.615234"/>
       <use xlink:href="#ArialMT-30" x="83.398438"/>
      </g>
     </g>
    </g>
    <g id="ytick_2">
     <g id="line2d_11">
      <g>
       <use xlink:href="#m2dec860d26" x="90" y="333.848749" style="fill: #262626; stroke: #262626"/>
      </g>
     </g>
     <g id="text_10">
      <!-- 0.5 -->
      <g style="fill: #262626" transform="translate(69.468 336.998186) scale(0.088 -0.088)">
       <defs>
        <path id="ArialMT-35" d="M 266 1200 
L 856 1250 
Q 922 819 1161 601 
Q 1400 384 1738 384 
Q 2144 384 2425 690 
Q 2706 997 2706 1503 
Q 2706 1984 2436 2262 
Q 2166 2541 1728 2541 
Q 1456 2541 1237 2417 
Q 1019 2294 894 2097 
L 366 2166 
L 809 4519 
L 3088 4519 
L 3088 3981 
L 1259 3981 
L 1013 2750 
Q 1425 3038 1878 3038 
Q 2478 3038 2890 2622 
Q 3303 2206 3303 1553 
Q 3303 931 2941 478 
Q 2500 -78 1738 -78 
Q 1113 -78 717 272 
Q 322 622 266 1200 
z
" transform="scale(0.015625)"/>
       </defs>
       <use xlink:href="#ArialMT-30"/>
       <use xlink:href="#ArialMT-2e" x="55.615234"/>
       <use xlink:href="#ArialMT-35" x="83.398438"/>
      </g>
     </g>
    </g>
    <g id="ytick_3">
     <g id="line2d_12">
      <g>
       <use xlink:href="#m2dec860d26" x="90" y="283.217497" style="fill: #262626; stroke: #262626"/>
      </g>
     </g>
     <g id="text_11">
      <!-- 1.0 -->
      <g style="fill: #262626" transform="translate(69.468 286.366935) scale(0.088 -0.088)">
       <use xlink:href="#ArialMT-31"/>
       <use xlink:href="#ArialMT-2e" x="55.615234"/>
       <use xlink:href="#ArialMT-30" x="83.398438"/>
      </g>
     </g>
    </g>
    <g id="ytick_4">
     <g id="line2d_13">
      <g>
       <use xlink:href="#m2dec860d26" x="90" y="232.586246" style="fill: #262626; stroke: #262626"/>
      </g>
     </g>
     <g id="text_12">
      <!-- 1.5 -->
      <g style="fill: #262626" transform="translate(69.468 235.735684) scale(0.088 -0.088)">
       <use xlink:href="#ArialMT-31"/>
       <use xlink:href="#ArialMT-2e" x="55.615234"/>
       <use xlink:href="#ArialMT-35" x="83.398438"/>
      </g>
     </g>
    </g>
    <g id="ytick_5">
     <g id="line2d_14">
      <g>
       <use xlink:href="#m2dec860d26" x="90" y="181.954995" style="fill: #262626; stroke: #262626"/>
      </g>
     </g>
     <g id="text_13">
      <!-- 2.0 -->
      <g style="fill: #262626" transform="translate(69.468 185.104432) scale(0.088 -0.088)">
       <use xlink:href="#ArialMT-32"/>
       <use xlink:href="#ArialMT-2e" x="55.615234"/>
       <use xlink:href="#ArialMT-30" x="83.398438"/>
      </g>
     </g>
    </g>
    <g id="ytick_6">
     <g id="line2d_15">
      <g>
       <use xlink:href="#m2dec860d26" x="90" y="131.323743" style="fill: #262626; stroke: #262626"/>
      </g>
     </g>
     <g id="text_14">
      <!-- 2.5 -->
      <g style="fill: #262626" transform="translate(69.468 134.473181) scale(0.088 -0.088)">
       <use xlink:href="#ArialMT-32"/>
       <use xlink:href="#ArialMT-2e" x="55.615234"/>
       <use xlink:href="#ArialMT-35" x="83.398438"/>
      </g>
     </g>
    </g>
    <g id="ytick_7">
     <g id="line2d_16">
      <g>
       <use xlink:href="#m2dec860d26" x="90" y="80.692492" style="fill: #262626; stroke: #262626"/>
      </g>
     </g>
     <g id="text_15">
      <!-- 3.0 -->
      <g style="fill: #262626" transform="translate(69.468 83.84193) scale(0.088 -0.088)">
       <use xlink:href="#ArialMT-33"/>
       <use xlink:href="#ArialMT-2e" x="55.615234"/>
       <use xlink:href="#ArialMT-30" x="83.398438"/>
      </g>
     </g>
    </g>
    <g id="text_16">
     <!-- information (bits) -->
     <g style="fill: #262626" transform="translate(63.4475 253.902) rotate(-90) scale(0.096 -0.096)">
      <defs>
       <path id="ArialMT-69" d="M 425 3934 
L 425 4581 
L 988 4581 
L 988 3934 
L 425 3934 
z
M 425 0 
L 425 3319 
L 988 3319 
L 988 0 
L 425 0 
z
" transform="scale(0.015625)"/>
       <path id="ArialMT-6e" d="M 422 0 
L 422 3319 
L 928 3319 
L 928 2847 
Q 1294 3394 1984 3394 
Q 2284 3394 2536 3286 
Q 2788 3178 2913 3003 
Q 3038 2828 3088 2588 
Q 3119 2431 3119 2041 
L 3119 0 
L 2556 0 
L 2556 2019 
Q 2556 2363 2490 2533 
Q 2425 2703 2258 2804 
Q 2091 2906 1866 2906 
Q 1506 2906 1245 2678 
Q 984 2450 984 1813 
L 984 0 
L 422 0 
z
" transform="scale(0.015625)"/>
       <path id="ArialMT-66" d="M 556 0 
L 556 2881 
L 59 2881 
L 59 3319 
L 556 3319 
L 556 3672 
Q 556 4006 616 4169 
Q 697 4388 901 4523 
Q 1106 4659 1475 4659 
Q 1713 4659 2000 4603 
L 1916 4113 
Q 1741 4144 1584 4144 
Q 1328 4144 1222 4034 
Q 1116 3925 1116 3625 
L 1116 3319 
L 1763 3319 
L 1763 2881 
L 1116 2881 
L 1116 0 
L 556 0 
z
" transform="scale(0.015625)"/>
       <path id="ArialMT-6f" d="M 213 1659 
Q 213 2581 725 3025 
Q 1153 3394 1769 3394 
Q 2453 3394 2887 2945 
Q 3322 2497 3322 1706 
Q 3322 1066 3130 698 
Q 2938 331 2570 128 
Q 2203 -75 1769 -75 
Q 1072 -75 642 372 
Q 213 819 213 1659 
z
M 791 1659 
Q 791 1022 1069 705 
Q 1347 388 1769 388 
Q 2188 388 2466 706 
Q 2744 1025 2744 1678 
Q 2744 2294 2464 2611 
Q 2184 2928 1769 2928 
Q 1347 2928 1069 2612 
Q 791 2297 791 1659 
z
" transform="scale(0.015625)"/>
       <path id="ArialMT-72" d="M 416 0 
L 416 3319 
L 922 3319 
L 922 2816 
Q 1116 3169 1280 3281 
Q 1444 3394 1641 3394 
Q 1925 3394 2219 3213 
L 2025 2691 
Q 1819 2813 1613 2813 
Q 1428 2813 1281 2702 
Q 1134 2591 1072 2394 
Q 978 2094 978 1738 
L 978 0 
L 416 0 
z
" transform="scale(0.015625)"/>
       <path id="ArialMT-6d" d="M 422 0 
L 422 3319 
L 925 3319 
L 925 2853 
Q 1081 3097 1340 3245 
Q 1600 3394 1931 3394 
Q 2300 3394 2536 3241 
Q 2772 3088 2869 2813 
Q 3263 3394 3894 3394 
Q 4388 3394 4653 3120 
Q 4919 2847 4919 2278 
L 4919 0 
L 4359 0 
L 4359 2091 
Q 4359 2428 4304 2576 
Q 4250 2725 4106 2815 
Q 3963 2906 3769 2906 
Q 3419 2906 3187 2673 
Q 2956 2441 2956 1928 
L 2956 0 
L 2394 0 
L 2394 2156 
Q 2394 2531 2256 2718 
Q 2119 2906 1806 2906 
Q 1569 2906 1367 2781 
Q 1166 2656 1075 2415 
Q 984 2175 984 1722 
L 984 0 
L 422 0 
z
" transform="scale(0.015625)"/>
       <path id="ArialMT-61" d="M 2588 409 
Q 2275 144 1986 34 
Q 1697 -75 1366 -75 
Q 819 -75 525 192 
Q 231 459 231 875 
Q 231 1119 342 1320 
Q 453 1522 633 1644 
Q 813 1766 1038 1828 
Q 1203 1872 1538 1913 
Q 2219 1994 2541 2106 
Q 2544 2222 2544 2253 
Q 2544 2597 2384 2738 
Q 2169 2928 1744 2928 
Q 1347 2928 1158 2789 
Q 969 2650 878 2297 
L 328 2372 
Q 403 2725 575 2942 
Q 747 3159 1072 3276 
Q 1397 3394 1825 3394 
Q 2250 3394 2515 3294 
Q 2781 3194 2906 3042 
Q 3031 2891 3081 2659 
Q 3109 2516 3109 2141 
L 3109 1391 
Q 3109 606 3145 398 
Q 3181 191 3288 0 
L 2700 0 
Q 2613 175 2588 409 
z
M 2541 1666 
Q 2234 1541 1622 1453 
Q 1275 1403 1131 1340 
Q 988 1278 909 1158 
Q 831 1038 831 891 
Q 831 666 1001 516 
Q 1172 366 1500 366 
Q 1825 366 2078 508 
Q 2331 650 2450 897 
Q 2541 1088 2541 1459 
L 2541 1666 
z
" transform="scale(0.015625)"/>
       <path id="ArialMT-74" d="M 1650 503 
L 1731 6 
Q 1494 -44 1306 -44 
Q 1000 -44 831 53 
Q 663 150 594 308 
Q 525 466 525 972 
L 525 2881 
L 113 2881 
L 113 3319 
L 525 3319 
L 525 4141 
L 1084 4478 
L 1084 3319 
L 1650 3319 
L 1650 2881 
L 1084 2881 
L 1084 941 
Q 1084 700 1114 631 
Q 1144 563 1211 522 
Q 1278 481 1403 481 
Q 1497 481 1650 503 
z
" transform="scale(0.015625)"/>
       <path id="ArialMT-20" transform="scale(0.015625)"/>
       <path id="ArialMT-28" d="M 1497 -1347 
Q 1031 -759 709 28 
Q 388 816 388 1659 
Q 388 2403 628 3084 
Q 909 3875 1497 4659 
L 1900 4659 
Q 1522 4009 1400 3731 
Q 1209 3300 1100 2831 
Q 966 2247 966 1656 
Q 966 153 1900 -1347 
L 1497 -1347 
z
" transform="scale(0.015625)"/>
       <path id="ArialMT-62" d="M 941 0 
L 419 0 
L 419 4581 
L 981 4581 
L 981 2947 
Q 1338 3394 1891 3394 
Q 2197 3394 2470 3270 
Q 2744 3147 2920 2923 
Q 3097 2700 3197 2384 
Q 3297 2069 3297 1709 
Q 3297 856 2875 390 
Q 2453 -75 1863 -75 
Q 1275 -75 941 416 
L 941 0 
z
M 934 1684 
Q 934 1088 1097 822 
Q 1363 388 1816 388 
Q 2184 388 2453 708 
Q 2722 1028 2722 1663 
Q 2722 2313 2464 2622 
Q 2206 2931 1841 2931 
Q 1472 2931 1203 2611 
Q 934 2291 934 1684 
z
" transform="scale(0.015625)"/>
       <path id="ArialMT-73" d="M 197 991 
L 753 1078 
Q 800 744 1014 566 
Q 1228 388 1613 388 
Q 2000 388 2187 545 
Q 2375 703 2375 916 
Q 2375 1106 2209 1216 
Q 2094 1291 1634 1406 
Q 1016 1563 777 1677 
Q 538 1791 414 1992 
Q 291 2194 291 2438 
Q 291 2659 392 2848 
Q 494 3038 669 3163 
Q 800 3259 1026 3326 
Q 1253 3394 1513 3394 
Q 1903 3394 2198 3281 
Q 2494 3169 2634 2976 
Q 2775 2784 2828 2463 
L 2278 2388 
Q 2241 2644 2061 2787 
Q 1881 2931 1553 2931 
Q 1166 2931 1000 2803 
Q 834 2675 834 2503 
Q 834 2394 903 2306 
Q 972 2216 1119 2156 
Q 1203 2125 1616 2013 
Q 2213 1853 2448 1751 
Q 2684 1650 2818 1456 
Q 2953 1263 2953 975 
Q 2953 694 2789 445 
Q 2625 197 2315 61 
Q 2006 -75 1616 -75 
Q 969 -75 630 194 
Q 291 463 197 991 
z
" transform="scale(0.015625)"/>
       <path id="ArialMT-29" d="M 791 -1347 
L 388 -1347 
Q 1322 153 1322 1656 
Q 1322 2244 1188 2822 
Q 1081 3291 891 3722 
Q 769 4003 388 4659 
L 791 4659 
Q 1378 3875 1659 3084 
Q 1900 2403 1900 1659 
Q 1900 816 1576 28 
Q 1253 -759 791 -1347 
z
" transform="scale(0.015625)"/>
      </defs>
      <use xlink:href="#ArialMT-69"/>
      <use xlink:href="#ArialMT-6e" x="22.216797"/>
      <use xlink:href="#ArialMT-66" x="77.832031"/>
      <use xlink:href="#ArialMT-6f" x="105.615234"/>
      <use xlink:href="#ArialMT-72" x="161.230469"/>
      <use xlink:href="#ArialMT-6d" x="194.53125"/>
      <use xlink:href="#ArialMT-61" x="277.832031"/>
      <use xlink:href="#ArialMT-74" x="333.447266"/>
      <use xlink:href="#ArialMT-69" x="361.230469"/>
      <use xlink:href="#ArialMT-6f" x="383.447266"/>
      <use xlink:href="#ArialMT-6e" x="439.0625"/>
      <use xlink:href="#ArialMT-20" x="494.677734"/>
      <use xlink:href="#ArialMT-28" x="522.460938"/>
      <use xlink:href="#ArialMT-62" x="555.761719"/>
      <use xlink:href="#ArialMT-69" x="611.376953"/>
      <use xlink:href="#ArialMT-74" x="633.59375"/>
      <use xlink:href="#ArialMT-73" x="661.376953"/>
      <use xlink:href="#ArialMT-29" x="711.376953"/>
     </g>
    </g>
   </g>
   <g id="line2d_17">
    <path d="M 369 384.48 
L 369 51.84 
" clip-path="url(#pd996620705)" style="fill: none; stroke: #daa520; stroke-width: 2; stroke-linecap: round"/>
   </g>
   <g id="patch_62">
    <path d="M 90 384.48 
L 648 384.48 
" style="fill: none; stroke: #262626; stroke-linejoin: miter; stroke-linecap: square"/>
   </g>
   <g id="patch_63">
    <path d="M 90 51.84 
L 648 51.84 
" style="fill: none; stroke: #262626; stroke-linejoin: miter; stroke-linecap: square"/>
   </g>
   <g id="text_17">
    <!-- Ctrl vs. GluC information content, Kullback n=180 -->
    <g style="fill: #262626" transform="translate(264.02175 45.84) scale(0.096 -0.096)">
     <defs>
      <path id="ArialMT-43" d="M 3763 1606 
L 4369 1453 
Q 4178 706 3683 314 
Q 3188 -78 2472 -78 
Q 1731 -78 1267 223 
Q 803 525 561 1097 
Q 319 1669 319 2325 
Q 319 3041 592 3573 
Q 866 4106 1370 4382 
Q 1875 4659 2481 4659 
Q 3169 4659 3637 4309 
Q 4106 3959 4291 3325 
L 3694 3184 
Q 3534 3684 3231 3912 
Q 2928 4141 2469 4141 
Q 1941 4141 1586 3887 
Q 1231 3634 1087 3207 
Q 944 2781 944 2328 
Q 944 1744 1114 1308 
Q 1284 872 1643 656 
Q 2003 441 2422 441 
Q 2931 441 3284 734 
Q 3638 1028 3763 1606 
z
" transform="scale(0.015625)"/>
      <path id="ArialMT-6c" d="M 409 0 
L 409 4581 
L 972 4581 
L 972 0 
L 409 0 
z
" transform="scale(0.015625)"/>
      <path id="ArialMT-76" d="M 1344 0 
L 81 3319 
L 675 3319 
L 1388 1331 
Q 1503 1009 1600 663 
Q 1675 925 1809 1294 
L 2547 3319 
L 3125 3319 
L 1869 0 
L 1344 0 
z
" transform="scale(0.015625)"/>
      <path id="ArialMT-47" d="M 2638 1797 
L 2638 2334 
L 4578 2338 
L 4578 638 
Q 4131 281 3656 101 
Q 3181 -78 2681 -78 
Q 2006 -78 1454 211 
Q 903 500 622 1047 
Q 341 1594 341 2269 
Q 341 2938 620 3517 
Q 900 4097 1425 4378 
Q 1950 4659 2634 4659 
Q 3131 4659 3532 4498 
Q 3934 4338 4162 4050 
Q 4391 3763 4509 3300 
L 3963 3150 
Q 3859 3500 3706 3700 
Q 3553 3900 3268 4020 
Q 2984 4141 2638 4141 
Q 2222 4141 1919 4014 
Q 1616 3888 1430 3681 
Q 1244 3475 1141 3228 
Q 966 2803 966 2306 
Q 966 1694 1177 1281 
Q 1388 869 1791 669 
Q 2194 469 2647 469 
Q 3041 469 3416 620 
Q 3791 772 3984 944 
L 3984 1797 
L 2638 1797 
z
" transform="scale(0.015625)"/>
      <path id="ArialMT-75" d="M 2597 0 
L 2597 488 
Q 2209 -75 1544 -75 
Q 1250 -75 995 37 
Q 741 150 617 320 
Q 494 491 444 738 
Q 409 903 409 1263 
L 409 3319 
L 972 3319 
L 972 1478 
Q 972 1038 1006 884 
Q 1059 663 1231 536 
Q 1403 409 1656 409 
Q 1909 409 2131 539 
Q 2353 669 2445 892 
Q 2538 1116 2538 1541 
L 2538 3319 
L 3100 3319 
L 3100 0 
L 2597 0 
z
" transform="scale(0.015625)"/>
      <path id="ArialMT-63" d="M 2588 1216 
L 3141 1144 
Q 3050 572 2676 248 
Q 2303 -75 1759 -75 
Q 1078 -75 664 370 
Q 250 816 250 1647 
Q 250 2184 428 2587 
Q 606 2991 970 3192 
Q 1334 3394 1763 3394 
Q 2303 3394 2647 3120 
Q 2991 2847 3088 2344 
L 2541 2259 
Q 2463 2594 2264 2762 
Q 2066 2931 1784 2931 
Q 1359 2931 1093 2626 
Q 828 2322 828 1663 
Q 828 994 1084 691 
Q 1341 388 1753 388 
Q 2084 388 2306 591 
Q 2528 794 2588 1216 
z
" transform="scale(0.015625)"/>
      <path id="ArialMT-65" d="M 2694 1069 
L 3275 997 
Q 3138 488 2766 206 
Q 2394 -75 1816 -75 
Q 1088 -75 661 373 
Q 234 822 234 1631 
Q 234 2469 665 2931 
Q 1097 3394 1784 3394 
Q 2450 3394 2872 2941 
Q 3294 2488 3294 1666 
Q 3294 1616 3291 1516 
L 816 1516 
Q 847 969 1125 678 
Q 1403 388 1819 388 
Q 2128 388 2347 550 
Q 2566 713 2694 1069 
z
M 847 1978 
L 2700 1978 
Q 2663 2397 2488 2606 
Q 2219 2931 1791 2931 
Q 1403 2931 1139 2672 
Q 875 2413 847 1978 
z
" transform="scale(0.015625)"/>
      <path id="ArialMT-2c" d="M 569 0 
L 569 641 
L 1209 641 
L 1209 0 
Q 1209 -353 1084 -570 
Q 959 -788 688 -906 
L 531 -666 
Q 709 -588 793 -436 
Q 878 -284 888 0 
L 569 0 
z
" transform="scale(0.015625)"/>
      <path id="ArialMT-4b" d="M 469 0 
L 469 4581 
L 1075 4581 
L 1075 2309 
L 3350 4581 
L 4172 4581 
L 2250 2725 
L 4256 0 
L 3456 0 
L 1825 2319 
L 1075 1588 
L 1075 0 
L 469 0 
z
" transform="scale(0.015625)"/>
      <path id="ArialMT-6b" d="M 425 0 
L 425 4581 
L 988 4581 
L 988 1969 
L 2319 3319 
L 3047 3319 
L 1778 2088 
L 3175 0 
L 2481 0 
L 1384 1697 
L 988 1316 
L 988 0 
L 425 0 
z
" transform="scale(0.015625)"/>
      <path id="ArialMT-3d" d="M 3381 2694 
L 356 2694 
L 356 3219 
L 3381 3219 
L 3381 2694 
z
M 3381 1303 
L 356 1303 
L 356 1828 
L 3381 1828 
L 3381 1303 
z
" transform="scale(0.015625)"/>
      <path id="ArialMT-38" d="M 1131 2484 
Q 781 2613 612 2850 
Q 444 3088 444 3419 
Q 444 3919 803 4259 
Q 1163 4600 1759 4600 
Q 2359 4600 2725 4251 
Q 3091 3903 3091 3403 
Q 3091 3084 2923 2848 
Q 2756 2613 2416 2484 
Q 2838 2347 3058 2040 
Q 3278 1734 3278 1309 
Q 3278 722 2862 322 
Q 2447 -78 1769 -78 
Q 1091 -78 675 323 
Q 259 725 259 1325 
Q 259 1772 486 2073 
Q 713 2375 1131 2484 
z
M 1019 3438 
Q 1019 3113 1228 2906 
Q 1438 2700 1772 2700 
Q 2097 2700 2305 2904 
Q 2513 3109 2513 3406 
Q 2513 3716 2298 3927 
Q 2084 4138 1766 4138 
Q 1444 4138 1231 3931 
Q 1019 3725 1019 3438 
z
M 838 1322 
Q 838 1081 952 856 
Q 1066 631 1291 507 
Q 1516 384 1775 384 
Q 2178 384 2440 643 
Q 2703 903 2703 1303 
Q 2703 1709 2433 1975 
Q 2163 2241 1756 2241 
Q 1359 2241 1098 1978 
Q 838 1716 838 1322 
z
" transform="scale(0.015625)"/>
     </defs>
     <use xlink:href="#ArialMT-43"/>
     <use xlink:href="#ArialMT-74" x="72.216797"/>
     <use xlink:href="#ArialMT-72" x="100"/>
     <use xlink:href="#ArialMT-6c" x="133.300781"/>
     <use xlink:href="#ArialMT-20" x="155.517578"/>
     <use xlink:href="#ArialMT-76" x="183.300781"/>
     <use xlink:href="#ArialMT-73" x="233.300781"/>
     <use xlink:href="#ArialMT-2e" x="283.300781"/>
     <use xlink:href="#ArialMT-20" x="311.083984"/>
     <use xlink:href="#ArialMT-47" x="338.867188"/>
     <use xlink:href="#ArialMT-6c" x="416.650391"/>
     <use xlink:href="#ArialMT-75" x="438.867188"/>
     <use xlink:href="#ArialMT-43" x="494.482422"/>
     <use xlink:href="#ArialMT-20" x="566.699219"/>
     <use xlink:href="#ArialMT-69" x="594.482422"/>
     <use xlink:href="#ArialMT-6e" x="616.699219"/>
     <use xlink:href="#ArialMT-66" x="672.314453"/>
     <use xlink:href="#ArialMT-6f" x="700.097656"/>
     <use xlink:href="#ArialMT-72" x="755.712891"/>
     <use xlink:href="#ArialMT-6d" x="789.013672"/>
     <use xlink:href="#ArialMT-61" x="872.314453"/>
     <use xlink:href="#ArialMT-74" x="927.929688"/>
     <use xlink:href="#ArialMT-69" x="955.712891"/>
     <use xlink:href="#ArialMT-6f" x="977.929688"/>
     <use xlink:href="#ArialMT-6e" x="1033.544922"/>
     <use xlink:href="#ArialMT-20" x="1089.160156"/>
     <use xlink:href="#ArialMT-63" x="1116.943359"/>
     <use xlink:href="#ArialMT-6f" x="1166.943359"/>
     <use xlink:href="#ArialMT-6e" x="1222.558594"/>
     <use xlink:href="#ArialMT-74" x="1278.173828"/>
     <use xlink:href="#ArialMT-65" x="1305.957031"/>
     <use xlink:href="#ArialMT-6e" x="1361.572266"/>
     <use xlink:href="#ArialMT-74" x="1417.1875"/>
     <use xlink:href="#ArialMT-2c" x="1444.970703"/>
     <use xlink:href="#ArialMT-20" x="1472.753906"/>
     <use xlink:href="#ArialMT-4b" x="1500.537109"/>
     <use xlink:href="#ArialMT-75" x="1567.236328"/>
     <use xlink:href="#ArialMT-6c" x="1622.851562"/>
     <use xlink:href="#ArialMT-6c" x="1645.068359"/>
     <use xlink:href="#ArialMT-62" x="1667.285156"/>
     <use xlink:href="#ArialMT-61" x="1722.900391"/>
     <use xlink:href="#ArialMT-63" x="1778.515625"/>
     <use xlink:href="#ArialMT-6b" x="1828.515625"/>
     <use xlink:href="#ArialMT-20" x="1878.515625"/>
     <use xlink:href="#ArialMT-6e" x="1906.298828"/>
     <use xlink:href="#ArialMT-3d" x="1961.914062"/>
     <use xlink:href="#ArialMT-31" x="2020.3125"/>
     <use xlink:href="#ArialMT-38" x="2075.927734"/>
     <use xlink:href="#ArialMT-30" x="2131.542969"/>
    </g>
   </g>
  </g>
 </g>
 <defs>
  <clipPath id="pd996620705">
   <rect x="90" y="51.84" width="558" height="332.64"/>
  </clipPath>
 </defs>
</svg>
