<?xml version="1.0" encoding="utf-8" standalone="no"?>
<!DOCTYPE svg PUBLIC "-//W3C//DTD SVG 1.1//EN"
  "http://www.w3.org/Graphics/SVG/1.1/DTD/svg11.dtd">
<svg xmlns:xlink="http://www.w3.org/1999/xlink" width="720pt" height="432pt" viewBox="0 0 720 432" xmlns="http://www.w3.org/2000/svg" version="1.1">
 <metadata>
  <rdf:RDF xmlns:dc="http://purl.org/dc/elements/1.1/" xmlns:cc="http://creativecommons.org/ns#" xmlns:rdf="http://www.w3.org/1999/02/22-rdf-syntax-ns#">
   <cc:Work>
    <dc:type rdf:resource="http://purl.org/dc/dcmitype/StillImage"/>
    <dc:date>2023-11-09T21:09:34.619113</dc:date>
    <dc:format>image/svg+xml</dc:format>
    <dc:creator>
     <cc:Agent>
      <dc:title>Matplotlib v3.7.1, https://matplotlib.org/</dc:title>
     </cc:Agent>
    </dc:creator>
   </cc:Work>
  </rdf:RDF>
 </metadata>
 <defs>
  <style type="text/css">*{stroke-linejoin: round; stroke-linecap: butt}</style>
 </defs>
 <g id="figure_1">
  <g id="patch_1">
   <path d="M 0 432 
L 720 432 
L 720 0 
L 0 0 
z
" style="fill: #ffffff"/>
  </g>
  <g id="axes_1">
   <g id="patch_2">
    <path d="M 90 384.48 
L 648 384.48 
L 648 51.84 
L 90 51.84 
z
" style="fill: #ffffff"/>
   </g>
   <g id="line2d_1">
    <path d="M 90 384.48 
L 648 384.48 
" clip-path="url(#p07077ef2ea)" style="fill: none; stroke: #000000; stroke-width: 0.5; stroke-linecap: round"/>
   </g>
   <g id="patch_3">
    <path d="M 126.198462 378.5832 
L 177.801538 378.5832 
L 177.801538 379.703752 
L 145.323077 379.703752 
L 145.323077 380.772586 
L 175.877949 380.772586 
L 175.877949 381.893138 
L 145.323077 381.893138 
L 145.323077 384.3288 
L 126.198462 384.3288 
L 126.198462 378.5832 
z
" clip-path="url(#p07077ef2ea)" style="fill: #21599c"/>
   </g>
   <g id="patch_4">
    <path d="M 142.437692 372.5352 
L 161.562308 372.5352 
L 161.562308 378.2808 
L 142.437692 378.2808 
L 142.437692 372.5352 
z
" clip-path="url(#p07077ef2ea)" style="fill: #21599c"/>
   </g>
   <g id="patch_5">
    <path d="M 125.65 360.5904 
L 140.813382 360.5904 
L 140.813382 364.969173 
L 163.186618 364.969173 
L 163.186618 360.5904 
L 178.35 360.5904 
L 178.35 372.0816 
L 163.186618 372.0816 
L 163.186618 367.210277 
L 140.813382 367.210277 
L 140.813382 372.0816 
L 125.65 372.0816 
L 125.65 360.5904 
z
" clip-path="url(#p07077ef2ea)" style="fill: #177875"/>
   </g>
   <g id="patch_6">
    <path d="M 153.405333 358.267176 
L 152.373292 358.267176 
Q 139.714313 358.267176 132.676667 356.979369 
Q 125.65 355.689541 125.65 353.390897 
Q 125.65 351.096296 132.665687 349.796359 
Q 139.681375 348.4944 152 348.4944 
Q 164.450375 348.4944 171.400188 349.784229 
Q 178.35 351.072035 178.35 353.390897 
Q 178.35 354.981955 174.661 356.132288 
Q 170.972 357.282621 164.044146 357.862841 
L 174.364563 359.9856 
L 161.771458 359.9856 
L 153.405333 358.267176 
z
M 152 350.2573 
Q 145.961458 350.2573 142.634771 351.0781 
Q 139.308083 351.8989 139.308083 353.390897 
Q 139.308083 354.907153 142.557917 355.713801 
Q 145.818729 356.518428 152 356.518428 
Q 158.071479 356.518428 161.398167 355.697628 
Q 164.724854 354.874806 164.724854 353.390897 
Q 164.724854 351.8989 161.398167 351.0781 
Q 158.071479 350.2573 152 350.2573 
z
" clip-path="url(#p07077ef2ea)" style="fill: #40ba47"/>
   </g>
   <g id="patch_7">
    <path d="M 125.65 336.3984 
L 141.195992 336.3984 
L 151.979692 342.547891 
L 162.83447 336.3984 
L 178.35 336.3984 
L 178.35 347.8896 
L 166.80474 347.8896 
L 166.80474 339.484228 
L 155.889037 345.680512 
L 148.141426 345.680512 
L 137.225723 339.484228 
L 137.225723 347.8896 
L 125.65 347.8896 
L 125.65 336.3984 
z
" clip-path="url(#p07077ef2ea)" style="fill: #21599c"/>
   </g>
   <g id="patch_8">
    <path d="M 140.091481 321.767256 
L 140.091481 332.284438 
L 145.265444 332.284438 
Q 154.112802 332.284438 158.782574 330.932387 
Q 163.464351 329.580336 163.464351 327.005529 
Q 163.464351 324.445499 158.806583 323.108225 
Q 154.16082 321.767256 145.265444 321.767256 
L 140.091481 321.767256 
z
M 125.65 318.4056 
L 140.871777 318.4056 
Q 153.63262 318.4056 159.874989 318.967107 
Q 166.117358 319.524921 170.583052 320.865889 
Q 174.520547 322.033233 176.429271 323.558908 
Q 178.35 325.080889 178.35 327.005529 
Q 178.35 328.959723 176.429271 330.489092 
Q 174.520547 332.018461 170.583052 333.182111 
Q 166.081344 334.523079 159.778952 335.084587 
Q 153.47656 335.6424 140.871777 335.6424 
L 125.65 335.6424 
L 125.65 318.4056 
z
" clip-path="url(#p07077ef2ea)" style="fill: #6b296b"/>
   </g>
   <g id="patch_9">
    <path d="M 125.65 300.2616 
L 138.68762 300.2616 
L 152.016162 312.984176 
L 165.323155 300.2616 
L 178.35 300.2616 
L 159.730985 317.4984 
L 144.269015 317.4984 
L 125.65 300.2616 
z
" clip-path="url(#p07077ef2ea)" style="fill: #21599c"/>
   </g>
   <g id="patch_10">
    <path d="M 125.65 282.1176 
L 153.043021 282.1176 
Q 165.271068 282.1176 171.803672 283.580475 
Q 178.35 285.039655 178.35 287.740062 
Q 178.35 290.455246 171.803672 291.914427 
Q 165.271068 293.373607 153.043021 293.373607 
L 142.159922 293.373607 
L 142.159922 299.3544 
L 125.65 299.3544 
L 125.65 282.1176 
z
M 142.159922 285.338879 
L 142.159922 290.152328 
L 151.286354 290.152328 
Q 156.08974 290.152328 158.711016 289.524326 
Q 161.332292 288.896324 161.332292 287.740062 
Q 161.332292 286.587495 158.711016 285.963187 
Q 156.08974 285.338879 151.286354 285.338879 
L 142.159922 285.338879 
z
" clip-path="url(#p07077ef2ea)" style="fill: #787800"/>
   </g>
   <g id="patch_11">
    <path d="M 173.955948 259.173461 
L 173.955948 263.86394 
Q 168.459804 263.047379 163.221293 262.634351 
Q 157.997094 262.216575 153.34541 262.216575 
Q 147.176562 262.216575 144.213797 262.781522 
Q 141.265345 263.341721 141.265345 264.528583 
Q 141.265345 265.421103 143.254834 265.919586 
Q 145.244324 266.41332 150.482835 266.769379 
L 157.811027 267.258366 
Q 168.946442 268.003716 173.641065 269.518152 
Q 178.35 271.027841 178.35 273.81934 
Q 178.35 277.479624 171.794704 279.269412 
Q 165.239408 281.0592 151.770994 281.0592 
Q 145.430391 281.0592 139.032537 280.655667 
Q 132.634682 280.256881 126.236828 279.468805 
L 126.236828 274.650144 
Q 132.634682 275.775289 138.60315 276.349731 
Q 144.571619 276.919425 150.125014 276.919425 
Q 155.764286 276.919425 158.755676 276.297509 
Q 161.747067 275.670846 161.747067 274.512468 
Q 161.747067 273.477524 159.714639 272.912578 
Q 157.682211 272.347631 151.59924 271.901371 
L 144.929441 271.412384 
Q 134.910429 270.700267 130.273058 269.143103 
Q 125.65 267.58594 125.65 264.946359 
Q 125.65 261.637387 132.090793 259.857093 
Q 138.531586 258.0768 150.611651 258.0768 
Q 156.122108 258.0768 161.933134 258.352152 
Q 167.744161 258.627504 173.955948 259.173461 
z
" clip-path="url(#p07077ef2ea)" style="fill: #40ba47"/>
   </g>
   <g id="patch_12">
    <path d="M 125.65 233.8848 
L 144.774615 233.8848 
L 144.774615 252.389917 
L 178.35 252.389917 
L 178.35 256.8672 
L 125.65 256.8672 
L 125.65 233.8848 
z
" clip-path="url(#p07077ef2ea)" style="fill: #21599c"/>
   </g>
   <g id="patch_13">
    <path d="M 178.35 230.595817 
Q 173.035119 231.635509 167.318669 232.157728 
Q 161.602219 232.6752 155.507822 232.6752 
Q 141.736374 232.6752 133.693187 229.579863 
Q 125.65 226.484527 125.65 221.191121 
Q 125.65 215.835999 133.834917 212.764399 
Q 142.031645 209.6928 156.287338 209.6928 
Q 161.779381 209.6928 166.810802 210.110576 
Q 171.854034 210.523604 176.318534 211.340165 
L 176.318534 215.921453 
Q 171.712304 214.872267 167.153317 214.354795 
Q 162.59433 213.832575 158.011721 213.832575 
Q 149.531533 213.832575 144.937113 215.74105 
Q 140.342694 217.644777 140.342694 221.191121 
Q 140.342694 224.704233 144.771762 226.622203 
Q 149.200829 228.535425 157.350314 228.535425 
Q 159.570753 228.535425 161.472299 228.426233 
Q 163.373846 228.312294 164.885634 228.074922 
L 164.885634 223.773733 
L 156.204662 223.773733 
L 156.204662 219.942542 
L 178.35 219.942542 
L 178.35 230.595817 
z
" clip-path="url(#p07077ef2ea)" style="fill: #787800"/>
   </g>
   <g id="patch_14">
    <path d="M 147.032787 192.342584 
Q 151.762274 192.342584 153.814221 191.480621 
Q 155.866168 190.612501 155.866168 188.629985 
Q 155.866168 186.665941 153.814221 185.822448 
Q 151.762274 184.972799 147.032787 184.972799 
L 140.701781 184.972799 
L 140.701781 192.342584 
L 147.032787 192.342584 
z
M 140.701781 197.458951 
L 140.701781 208.332 
L 125.65 208.332 
L 125.65 179.604 
L 148.634307 179.604 
Q 160.170252 179.604 165.537844 181.512633 
Q 170.917949 183.415108 170.917949 187.534061 
Q 170.917949 190.378539 168.11529 192.207132 
Q 165.325142 194.035726 159.694801 194.903846 
Q 162.785233 195.248631 165.225047 196.47385 
Q 167.677374 197.692912 170.179748 200.174135 
L 178.35 208.332 
L 162.322293 208.332 
L 155.203039 201.196177 
Q 153.050997 199.041269 150.836396 198.253188 
Q 148.634307 197.458951 144.955817 197.458951 
L 140.701781 197.458951 
z
" clip-path="url(#p07077ef2ea)" style="fill: #bd2e1f"/>
   </g>
   <g id="patch_15">
    <path d="M 125.65 149.364 
L 178.35 149.364 
L 178.35 154.96676 
L 159.390256 154.96676 
L 159.390256 178.092 
L 144.646512 178.092 
L 144.646512 154.96676 
L 125.65 154.96676 
L 125.65 149.364 
z
" clip-path="url(#p07077ef2ea)" style="fill: #40ba47"/>
   </g>
   <g id="patch_16">
    <path d="M 125.65 119.124 
L 177.253077 119.124 
L 177.253077 124.72676 
L 144.774615 124.72676 
L 144.774615 130.070932 
L 175.329487 130.070932 
L 175.329487 135.673692 
L 144.774615 135.673692 
L 144.774615 142.255396 
L 178.35 142.255396 
L 178.35 147.852 
L 125.65 147.852 
L 125.65 119.124 
z
" clip-path="url(#p07077ef2ea)" style="fill: #6b296b"/>
   </g>
   <g id="patch_17">
    <path d="M 125.65 88.884 
L 139.537864 88.884 
L 139.537864 99.369166 
L 159.555783 88.884 
L 175.683253 88.884 
L 149.743078 102.490704 
L 178.35 117.612 
L 160.964195 117.612 
L 139.537864 106.295655 
L 139.537864 117.612 
L 125.65 117.612 
L 125.65 88.884 
z
" clip-path="url(#p07077ef2ea)" style="fill: #bd2e1f"/>
   </g>
   <g id="patch_18">
    <path d="M 162.155336 80.940783 
L 141.887763 80.940783 
L 138.68762 87.2208 
L 125.65 87.2208 
L 144.269015 52.7472 
L 159.730985 52.7472 
L 178.35 87.2208 
L 165.323155 87.2208 
L 162.155336 80.940783 
z
M 145.120231 74.542554 
L 158.890544 74.542554 
L 152.016162 60.829951 
L 145.120231 74.542554 
z
" clip-path="url(#p07077ef2ea)" style="fill: #21599c"/>
   </g>
   <g id="patch_19">
    <path d="M 187.65 378.5832 
L 240.35 378.5832 
L 240.35 379.703752 
L 221.390256 379.703752 
L 221.390256 384.3288 
L 206.646512 384.3288 
L 206.646512 379.703752 
L 187.65 379.703752 
L 187.65 378.5832 
z
" clip-path="url(#p07077ef2ea)" style="fill: #40ba47"/>
   </g>
   <g id="patch_20">
    <path d="M 187.65 372.5352 
L 206.774615 372.5352 
L 206.774615 377.161479 
L 240.35 377.161479 
L 240.35 378.2808 
L 187.65 378.2808 
L 187.65 372.5352 
z
" clip-path="url(#p07077ef2ea)" style="fill: #21599c"/>
   </g>
   <g id="patch_21">
    <path d="M 204.437692 366.4872 
L 223.562308 366.4872 
L 223.562308 372.2328 
L 204.437692 372.2328 
L 204.437692 366.4872 
z
" clip-path="url(#p07077ef2ea)" style="fill: #21599c"/>
   </g>
   <g id="patch_22">
    <path d="M 202.091481 361.559752 
L 202.091481 365.065479 
L 207.265444 365.065479 
Q 216.112802 365.065479 220.782574 364.614796 
Q 225.464351 364.164112 225.464351 363.305843 
Q 225.464351 362.4525 220.806583 362.006742 
Q 216.16082 361.559752 207.265444 361.559752 
L 202.091481 361.559752 
z
M 187.65 360.4392 
L 202.871777 360.4392 
Q 215.63262 360.4392 221.874989 360.626369 
Q 228.117358 360.812307 232.583052 361.259296 
Q 236.520547 361.648411 238.429271 362.156969 
Q 240.35 362.664296 240.35 363.305843 
Q 240.35 363.957241 238.429271 364.467031 
Q 236.520547 364.97682 232.583052 365.364704 
Q 228.081344 365.811693 221.778952 365.998862 
Q 215.47656 366.1848 202.871777 366.1848 
L 187.65 366.1848 
L 187.65 360.4392 
z
" clip-path="url(#p07077ef2ea)" style="fill: #6b296b"/>
   </g>
   <g id="patch_23">
    <path d="M 240.35 358.945909 
Q 235.035119 359.465754 229.318669 359.726864 
Q 223.602219 359.9856 217.507822 359.9856 
Q 203.736374 359.9856 195.693187 358.437932 
Q 187.65 356.890263 187.65 354.243561 
Q 187.65 351.565999 195.834917 350.0302 
Q 204.031645 348.4944 218.287338 348.4944 
Q 223.779381 348.4944 228.810802 348.703288 
Q 233.854034 348.909802 238.318534 349.318082 
L 238.318534 351.608726 
Q 233.712304 351.084133 229.153317 350.825397 
Q 224.59433 350.564288 220.011721 350.564288 
Q 211.531533 350.564288 206.937113 351.518525 
Q 202.342694 352.470388 202.342694 354.243561 
Q 202.342694 356.000117 206.771762 356.959101 
Q 211.200829 357.915712 219.350314 357.915712 
Q 221.570753 357.915712 223.472299 357.861117 
Q 225.373846 357.804147 226.885634 357.685461 
L 226.885634 355.534867 
L 218.204662 355.534867 
L 218.204662 353.619271 
L 240.35 353.619271 
L 240.35 358.945909 
z
" clip-path="url(#p07077ef2ea)" style="fill: #787800"/>
   </g>
   <g id="patch_24">
    <path d="M 235.955948 336.94673 
L 235.955948 339.29197 
Q 230.459804 338.883689 225.221293 338.677175 
Q 219.997094 338.468288 215.34541 338.468288 
Q 209.176562 338.468288 206.213797 338.750761 
Q 203.265345 339.03086 203.265345 339.624292 
Q 203.265345 340.070552 205.254834 340.319793 
Q 207.244324 340.56666 212.482835 340.744689 
L 219.811027 340.989183 
Q 230.946442 341.361858 235.641065 342.119076 
Q 240.35 342.87392 240.35 344.26967 
Q 240.35 346.099812 233.794704 346.994706 
Q 227.239408 347.8896 213.770994 347.8896 
Q 207.430391 347.8896 201.032537 347.687833 
Q 194.634682 347.488441 188.236828 347.094402 
L 188.236828 344.685072 
Q 194.634682 345.247645 200.60315 345.534865 
Q 206.571619 345.819712 212.125014 345.819712 
Q 217.764286 345.819712 220.755676 345.508754 
Q 223.747067 345.195423 223.747067 344.616234 
Q 223.747067 344.098762 221.714639 343.816289 
Q 219.682211 343.533816 213.59924 343.310686 
L 206.929441 343.066192 
Q 196.910429 342.710133 192.273058 341.931552 
Q 187.65 341.15297 187.65 339.833179 
Q 187.65 338.178693 194.090793 337.288547 
Q 200.531586 336.3984 212.611651 336.3984 
Q 218.122108 336.3984 223.933134 336.536076 
Q 229.744161 336.673752 235.955948 336.94673 
z
" clip-path="url(#p07077ef2ea)" style="fill: #40ba47"/>
   </g>
   <g id="patch_25">
    <path d="M 187.65 312.5088 
L 200.68762 312.5088 
L 214.016162 329.472235 
L 227.323155 312.5088 
L 240.35 312.5088 
L 221.730985 335.4912 
L 206.269015 335.4912 
L 187.65 312.5088 
z
" clip-path="url(#p07077ef2ea)" style="fill: #21599c"/>
   </g>
   <g id="patch_26">
    <path d="M 224.155336 297.529566 
L 203.887763 297.529566 
L 200.68762 310.0896 
L 187.65 310.0896 
L 206.269015 241.1424 
L 221.730985 241.1424 
L 240.35 310.0896 
L 227.323155 310.0896 
L 224.155336 297.529566 
z
M 207.120231 284.733107 
L 220.890544 284.733107 
L 214.016162 257.307903 
L 207.120231 284.733107 
z
" clip-path="url(#p07077ef2ea)" style="fill: #21599c"/>
   </g>
   <g id="patch_27">
    <path d="M 187.65 56.5272 
L 215.043021 56.5272 
Q 227.271068 56.5272 233.803672 71.643571 
Q 240.35 86.721769 240.35 114.625978 
Q 240.35 142.682878 233.803672 157.761076 
Q 227.271068 172.839274 215.043021 172.839274 
L 204.159922 172.839274 
L 204.159922 234.6408 
L 187.65 234.6408 
L 187.65 56.5272 
z
M 204.159922 89.813754 
L 204.159922 139.552721 
L 213.286354 139.552721 
Q 218.08974 139.552721 220.711016 133.06337 
Q 223.332292 126.574019 223.332292 114.625978 
Q 223.332292 102.71611 220.711016 96.264932 
Q 218.08974 89.813754 213.286354 89.813754 
L 204.159922 89.813754 
z
" clip-path="url(#p07077ef2ea)" style="fill: #787800"/>
   </g>
   <g id="patch_28">
    <path d="M 249.65 378.5832 
L 268.774615 378.5832 
L 268.774615 383.209479 
L 302.35 383.209479 
L 302.35 384.3288 
L 249.65 384.3288 
L 249.65 378.5832 
z
" clip-path="url(#p07077ef2ea)" style="fill: #21599c"/>
   </g>
   <g id="patch_29">
    <path d="M 249.65 372.5352 
L 277.043021 372.5352 
Q 289.271068 372.5352 295.803672 373.022825 
Q 302.35 373.509218 302.35 374.409354 
Q 302.35 375.314415 295.803672 375.800809 
Q 289.271068 376.287202 277.043021 376.287202 
L 266.159922 376.287202 
L 266.159922 378.2808 
L 249.65 378.2808 
L 249.65 372.5352 
z
M 266.159922 373.60896 
L 266.159922 375.213443 
L 275.286354 375.213443 
Q 280.08974 375.213443 282.711016 375.004109 
Q 285.332292 374.794775 285.332292 374.409354 
Q 285.332292 374.025165 282.711016 373.817062 
Q 280.08974 373.60896 275.286354 373.60896 
L 266.159922 373.60896 
z
" clip-path="url(#p07077ef2ea)" style="fill: #787800"/>
   </g>
   <g id="patch_30">
    <path d="M 249.65 366.4872 
L 266.578032 366.4872 
L 287.968106 370.427603 
L 287.968106 366.4872 
L 302.35 366.4872 
L 302.35 372.2328 
L 285.409364 372.2328 
L 264.01929 368.292397 
L 264.01929 372.2328 
L 249.65 372.2328 
L 249.65 366.4872 
z
" clip-path="url(#p07077ef2ea)" style="fill: #40ba47"/>
   </g>
   <g id="patch_31">
    <path d="M 266.437692 360.4392 
L 285.562308 360.4392 
L 285.562308 366.1848 
L 266.437692 366.1848 
L 266.437692 360.4392 
z
" clip-path="url(#p07077ef2ea)" style="fill: #21599c"/>
   </g>
   <g id="patch_32">
    <path d="M 249.65 354.3912 
L 264.22 354.3912 
L 275.988929 356.438978 
L 287.746786 354.3912 
L 302.35 354.3912 
L 282.665 357.715915 
L 282.665 360.1368 
L 269.346071 360.1368 
L 269.346071 357.715915 
L 249.65 354.3912 
z
" clip-path="url(#p07077ef2ea)" style="fill: #177875"/>
   </g>
   <g id="patch_33">
    <path d="M 302.35 353.568954 
Q 297.035119 353.828877 291.318669 353.959432 
Q 285.602219 354.0888 279.507822 354.0888 
Q 265.736374 354.0888 257.693187 353.314966 
Q 249.65 352.541132 249.65 351.21778 
Q 249.65 349.879 257.834917 349.1111 
Q 266.031645 348.3432 280.287338 348.3432 
Q 285.779381 348.3432 290.810802 348.447644 
Q 295.854034 348.550901 300.318534 348.755041 
L 300.318534 349.900363 
Q 295.712304 349.638067 291.153317 349.508699 
Q 286.59433 349.378144 282.011721 349.378144 
Q 273.531533 349.378144 268.937113 349.855262 
Q 264.342694 350.331194 264.342694 351.21778 
Q 264.342694 352.096058 268.771762 352.575551 
Q 273.200829 353.053856 281.350314 353.053856 
Q 283.570753 353.053856 285.472299 353.026558 
Q 287.373846 352.998074 288.885634 352.938731 
L 288.885634 351.863433 
L 280.204662 351.863433 
L 280.204662 350.905636 
L 302.35 350.905636 
L 302.35 353.568954 
z
" clip-path="url(#p07077ef2ea)" style="fill: #787800"/>
   </g>
   <g id="patch_34">
    <path d="M 250.198462 342.2952 
L 301.801538 342.2952 
L 301.801538 343.415752 
L 269.323077 343.415752 
L 269.323077 344.484586 
L 299.877949 344.484586 
L 299.877949 345.605138 
L 269.323077 345.605138 
L 269.323077 348.0408 
L 250.198462 348.0408 
L 250.198462 342.2952 
z
" clip-path="url(#p07077ef2ea)" style="fill: #21599c"/>
   </g>
   <g id="patch_35">
    <path d="M 249.65 336.2472 
L 301.253077 336.2472 
L 301.253077 337.367752 
L 268.774615 337.367752 
L 268.774615 338.436586 
L 299.329487 338.436586 
L 299.329487 339.557138 
L 268.774615 339.557138 
L 268.774615 340.873479 
L 302.35 340.873479 
L 302.35 341.9928 
L 249.65 341.9928 
L 249.65 336.2472 
z
" clip-path="url(#p07077ef2ea)" style="fill: #6b296b"/>
   </g>
   <g id="patch_36">
    <path d="M 277.405333 334.075176 
L 276.373292 334.075176 
Q 263.714313 334.075176 256.676667 332.787369 
Q 249.65 331.497541 249.65 329.198897 
Q 249.65 326.904296 256.665687 325.604359 
Q 263.681375 324.3024 276 324.3024 
Q 288.450375 324.3024 295.400188 325.592229 
Q 302.35 326.880035 302.35 329.198897 
Q 302.35 330.789955 298.661 331.940288 
Q 294.972 333.090621 288.044146 333.670841 
L 298.364562 335.7936 
L 285.771458 335.7936 
L 277.405333 334.075176 
z
M 276 326.0653 
Q 269.961458 326.0653 266.634771 326.8861 
Q 263.308083 327.7069 263.308083 329.198897 
Q 263.308083 330.715153 266.557917 331.521801 
Q 269.818729 332.326428 276 332.326428 
Q 282.071479 332.326428 285.398167 331.505628 
Q 288.724854 330.682806 288.724854 329.198897 
Q 288.724854 327.7069 285.398167 326.8861 
Q 282.071479 326.0653 276 326.0653 
z
" clip-path="url(#p07077ef2ea)" style="fill: #40ba47"/>
   </g>
   <g id="patch_37">
    <path d="M 249.65 312.2064 
L 302.35 312.2064 
L 302.35 314.447504 
L 283.390256 314.447504 
L 283.390256 323.6976 
L 268.646512 323.6976 
L 268.646512 314.447504 
L 249.65 314.447504 
L 249.65 312.2064 
z
" clip-path="url(#p07077ef2ea)" style="fill: #40ba47"/>
   </g>
   <g id="patch_38">
    <path d="M 249.65 300.1104 
L 264.813382 300.1104 
L 264.813382 304.489173 
L 287.186618 304.489173 
L 287.186618 300.1104 
L 302.35 300.1104 
L 302.35 311.6016 
L 287.186618 311.6016 
L 287.186618 306.730277 
L 264.813382 306.730277 
L 264.813382 311.6016 
L 249.65 311.6016 
L 249.65 300.1104 
z
" clip-path="url(#p07077ef2ea)" style="fill: #177875"/>
   </g>
   <g id="patch_39">
    <path d="M 249.65 282.1176 
L 265.195992 282.1176 
L 275.979692 291.341837 
L 286.83447 282.1176 
L 302.35 282.1176 
L 302.35 299.3544 
L 290.80474 299.3544 
L 290.80474 286.746342 
L 279.889037 296.040767 
L 272.141426 296.040767 
L 261.225723 286.746342 
L 261.225723 299.3544 
L 249.65 299.3544 
L 249.65 282.1176 
z
" clip-path="url(#p07077ef2ea)" style="fill: #21599c"/>
   </g>
   <g id="patch_40">
    <path d="M 249.65 258.0768 
L 262.68762 258.0768 
L 276.016162 275.040235 
L 289.323155 258.0768 
L 302.35 258.0768 
L 283.730985 281.0592 
L 268.269015 281.0592 
L 249.65 258.0768 
z
" clip-path="url(#p07077ef2ea)" style="fill: #21599c"/>
   </g>
   <g id="patch_41">
    <path d="M 249.65 216.1944 
L 263.537864 216.1944 
L 263.537864 230.873632 
L 283.555783 216.1944 
L 299.683253 216.1944 
L 273.743078 235.243785 
L 302.35 256.4136 
L 284.964195 256.4136 
L 263.537864 240.570718 
L 263.537864 256.4136 
L 249.65 256.4136 
L 249.65 216.1944 
z
" clip-path="url(#p07077ef2ea)" style="fill: #bd2e1f"/>
   </g>
   <g id="patch_42">
    <path d="M 286.155336 206.750913 
L 265.887763 206.750913 
L 262.68762 214.0776 
L 249.65 214.0776 
L 268.269015 173.8584 
L 283.730985 173.8584 
L 302.35 214.0776 
L 289.323155 214.0776 
L 286.155336 206.750913 
z
M 269.120231 199.286313 
L 282.890544 199.286313 
L 276.016162 183.288277 
L 269.120231 199.286313 
z
" clip-path="url(#p07077ef2ea)" style="fill: #21599c"/>
   </g>
   <g id="patch_43">
    <path d="M 271.032787 139.309168 
Q 275.762274 139.309168 277.814221 137.585241 
Q 279.866168 135.849001 279.866168 131.883971 
Q 279.866168 127.955882 277.814221 126.268897 
Q 275.762274 124.569598 271.032787 124.569598 
L 264.701781 124.569598 
L 264.701781 139.309168 
L 271.032787 139.309168 
z
M 264.701781 149.541901 
L 264.701781 171.288 
L 249.65 171.288 
L 249.65 113.832 
L 272.634307 113.832 
Q 284.170252 113.832 289.537844 117.649265 
Q 294.917949 121.454217 294.917949 129.692122 
Q 294.917949 135.381078 292.11529 139.038265 
Q 289.325142 142.695451 283.694801 144.431691 
Q 286.785233 145.121262 289.225047 147.5717 
Q 291.677374 150.009824 294.179748 154.972269 
L 302.35 171.288 
L 286.322293 171.288 
L 279.203039 157.016353 
Q 277.050997 152.706538 274.836396 151.130376 
Q 272.634307 149.541901 268.955817 149.541901 
L 264.701781 149.541901 
z
" clip-path="url(#p07077ef2ea)" style="fill: #bd2e1f"/>
   </g>
   <g id="patch_44">
    <path d="M 297.955948 56.093652 
L 297.955948 67.81985 
Q 292.459804 65.778447 287.221293 64.745877 
Q 281.997094 63.701439 277.34541 63.701439 
Q 271.176562 63.701439 268.213797 65.113805 
Q 265.265345 66.514302 265.265345 69.481458 
Q 265.265345 71.712759 267.254834 72.958964 
Q 269.244324 74.193301 274.482835 75.083447 
L 281.811027 76.305915 
Q 292.946442 78.169289 297.641065 81.955379 
Q 302.35 85.729601 302.35 92.708351 
Q 302.35 101.859059 295.794704 106.333529 
Q 289.239408 110.808 275.770994 110.808 
Q 269.430391 110.808 263.032537 109.799167 
Q 256.634682 108.802203 250.236828 106.832012 
L 250.236828 94.78536 
Q 256.634682 97.598224 262.60315 99.034327 
Q 268.571619 100.458561 274.125014 100.458561 
Q 279.764286 100.458561 282.755676 98.903772 
Q 285.747067 97.337114 285.747067 94.44117 
Q 285.747067 91.85381 283.714639 90.441444 
Q 281.682211 89.029078 275.59924 87.913428 
L 268.929441 86.69096 
Q 258.910429 84.910666 254.273058 81.017758 
Q 249.65 77.12485 249.65 70.525896 
Q 249.65 62.253467 256.090793 57.802733 
Q 262.531586 53.352 274.611651 53.352 
Q 280.122108 53.352 285.933134 54.04038 
Q 291.744161 54.72876 297.955948 56.093652 
z
" clip-path="url(#p07077ef2ea)" style="fill: #40ba47"/>
   </g>
   <g id="patch_45">
    <path d="M 311.65 378.5832 
L 330.774615 378.5832 
L 330.774615 383.209479 
L 364.35 383.209479 
L 364.35 384.3288 
L 311.65 384.3288 
L 311.65 378.5832 
z
" clip-path="url(#p07077ef2ea)" style="fill: #21599c"/>
   </g>
   <g id="patch_46">
    <path d="M 311.65 372.5352 
L 364.35 372.5352 
L 364.35 373.655752 
L 345.390256 373.655752 
L 345.390256 378.2808 
L 330.646512 378.2808 
L 330.646512 373.655752 
L 311.65 373.655752 
L 311.65 372.5352 
z
" clip-path="url(#p07077ef2ea)" style="fill: #40ba47"/>
   </g>
   <g id="patch_47">
    <path d="M 311.65 366.4872 
L 326.22 366.4872 
L 337.988929 368.534978 
L 349.746786 366.4872 
L 364.35 366.4872 
L 344.665 369.811915 
L 344.665 372.2328 
L 331.346071 372.2328 
L 331.346071 369.811915 
L 311.65 366.4872 
z
" clip-path="url(#p07077ef2ea)" style="fill: #177875"/>
   </g>
   <g id="patch_48">
    <path d="M 312.198462 360.4392 
L 363.801538 360.4392 
L 363.801538 361.559752 
L 331.323077 361.559752 
L 331.323077 362.628586 
L 361.877949 362.628586 
L 361.877949 363.749138 
L 331.323077 363.749138 
L 331.323077 366.1848 
L 312.198462 366.1848 
L 312.198462 360.4392 
z
" clip-path="url(#p07077ef2ea)" style="fill: #21599c"/>
   </g>
   <g id="patch_49">
    <path d="M 311.65 348.4944 
L 327.195992 348.4944 
L 337.979692 354.643891 
L 348.83447 348.4944 
L 364.35 348.4944 
L 364.35 359.9856 
L 352.80474 359.9856 
L 352.80474 351.580228 
L 341.889037 357.776512 
L 334.141426 357.776512 
L 323.225723 351.580228 
L 323.225723 359.9856 
L 311.65 359.9856 
L 311.65 348.4944 
z
" clip-path="url(#p07077ef2ea)" style="fill: #21599c"/>
   </g>
   <g id="patch_50">
    <path d="M 339.405333 346.171176 
L 338.373292 346.171176 
Q 325.714313 346.171176 318.676667 344.883369 
Q 311.65 343.593541 311.65 341.294897 
Q 311.65 339.000296 318.665687 337.700359 
Q 325.681375 336.3984 338 336.3984 
Q 350.450375 336.3984 357.400188 337.688229 
Q 364.35 338.976035 364.35 341.294897 
Q 364.35 342.885955 360.661 344.036288 
Q 356.972 345.186621 350.044146 345.766841 
L 360.364563 347.8896 
L 347.771458 347.8896 
L 339.405333 346.171176 
z
M 338 338.1613 
Q 331.961458 338.1613 328.634771 338.9821 
Q 325.308083 339.8029 325.308083 341.294897 
Q 325.308083 342.811153 328.557917 343.617801 
Q 331.818729 344.422428 338 344.422428 
Q 344.071479 344.422428 347.398167 343.601628 
Q 350.724854 342.778806 350.724854 341.294897 
Q 350.724854 339.8029 347.398167 338.9821 
Q 344.071479 338.1613 338 338.1613 
z
" clip-path="url(#p07077ef2ea)" style="fill: #40ba47"/>
   </g>
   <g id="patch_51">
    <path d="M 311.65 318.4056 
L 326.813382 318.4056 
L 326.813382 324.973759 
L 349.186618 324.973759 
L 349.186618 318.4056 
L 364.35 318.4056 
L 364.35 335.6424 
L 349.186618 335.6424 
L 349.186618 328.335415 
L 326.813382 328.335415 
L 326.813382 335.6424 
L 311.65 335.6424 
L 311.65 318.4056 
z
" clip-path="url(#p07077ef2ea)" style="fill: #177875"/>
   </g>
   <g id="patch_52">
    <path d="M 311.65 300.2616 
L 363.253077 300.2616 
L 363.253077 303.623256 
L 330.774615 303.623256 
L 330.774615 306.829759 
L 361.329487 306.829759 
L 361.329487 310.191415 
L 330.774615 310.191415 
L 330.774615 314.140438 
L 364.35 314.140438 
L 364.35 317.4984 
L 311.65 317.4984 
L 311.65 300.2616 
z
" clip-path="url(#p07077ef2ea)" style="fill: #6b296b"/>
   </g>
   <g id="patch_53">
    <path d="M 364.35 298.118876 
Q 359.941736 298.731297 355.174969 299.041068 
Q 350.408201 299.3544 345.216541 299.3544 
Q 329.734505 299.3544 320.692252 297.032898 
Q 311.65 294.711395 311.65 290.741341 
Q 311.65 286.757044 320.692252 284.439102 
Q 329.734505 282.1176 345.216541 282.1176 
Q 350.408201 282.1176 355.174969 282.430932 
Q 359.941736 282.740703 364.35 283.353124 
L 364.35 286.78909 
Q 359.901902 285.977276 355.586584 285.599854 
Q 351.271265 285.222432 346.504497 285.222432 
Q 337.953527 285.222432 333.053981 286.692954 
Q 328.167712 288.159916 328.167712 290.741341 
Q 328.167712 293.312084 333.053981 294.782607 
Q 337.953527 296.249568 346.504497 296.249568 
Q 351.271265 296.249568 355.586584 295.872146 
Q 359.901902 295.491163 364.35 294.67935 
L 364.35 298.118876 
z
" clip-path="url(#p07077ef2ea)" style="fill: #6b296b"/>
   </g>
   <g id="patch_54">
    <path d="M 364.35 279.650863 
Q 359.035119 280.430632 353.318669 280.822296 
Q 347.602219 281.2104 341.507822 281.2104 
Q 327.736374 281.2104 319.693187 278.888898 
Q 311.65 276.567395 311.65 272.597341 
Q 311.65 268.580999 319.834917 266.2773 
Q 328.031645 263.9736 342.287338 263.9736 
Q 347.779381 263.9736 352.810802 264.286932 
Q 357.854034 264.596703 362.318534 265.209124 
L 362.318534 268.64509 
Q 357.712304 267.8582 353.153317 267.470096 
Q 348.59433 267.078432 344.011721 267.078432 
Q 335.531533 267.078432 330.937113 268.509787 
Q 326.342694 269.937583 326.342694 272.597341 
Q 326.342694 275.232175 330.771762 276.670652 
Q 335.200829 278.105568 343.350314 278.105568 
Q 345.570753 278.105568 347.472299 278.023675 
Q 349.373846 277.938221 350.885634 277.760192 
L 350.885634 274.5343 
L 342.204662 274.5343 
L 342.204662 271.660907 
L 364.35 271.660907 
L 364.35 279.650863 
z
" clip-path="url(#p07077ef2ea)" style="fill: #787800"/>
   </g>
   <g id="patch_55">
    <path d="M 359.955948 241.029461 
L 359.955948 245.71994 
Q 354.459804 244.903379 349.221293 244.490351 
Q 343.997094 244.072575 339.34541 244.072575 
Q 333.176562 244.072575 330.213797 244.637522 
Q 327.265345 245.197721 327.265345 246.384583 
Q 327.265345 247.277103 329.254834 247.775586 
Q 331.244324 248.26932 336.482835 248.625379 
L 343.811027 249.114366 
Q 354.946442 249.859716 359.641065 251.374152 
Q 364.35 252.883841 364.35 255.67534 
Q 364.35 259.335624 357.794704 261.125412 
Q 351.239408 262.9152 337.770994 262.9152 
Q 331.430391 262.9152 325.032537 262.511667 
Q 318.634682 262.112881 312.236828 261.324805 
L 312.236828 256.506144 
Q 318.634682 257.631289 324.60315 258.205731 
Q 330.571619 258.775425 336.125014 258.775425 
Q 341.764286 258.775425 344.755676 258.153509 
Q 347.747067 257.526846 347.747067 256.368468 
Q 347.747067 255.333524 345.714639 254.768578 
Q 343.682211 254.203631 337.59924 253.757371 
L 330.929441 253.268384 
Q 320.910429 252.556267 316.273058 250.999103 
Q 311.65 249.44194 311.65 246.802359 
Q 311.65 243.493387 318.090793 241.713093 
Q 324.531586 239.9328 336.611651 239.9328 
Q 342.122108 239.9328 347.933134 240.208152 
Q 353.744161 240.483504 359.955948 241.029461 
z
" clip-path="url(#p07077ef2ea)" style="fill: #40ba47"/>
   </g>
   <g id="patch_56">
    <path d="M 326.091481 220.223008 
L 326.091481 234.245917 
L 331.265444 234.245917 
Q 340.112802 234.245917 344.782574 232.443183 
Q 349.464351 230.640449 349.464351 227.207372 
Q 349.464351 223.793998 344.806583 222.010966 
Q 340.16082 220.223008 331.265444 220.223008 
L 326.091481 220.223008 
z
M 311.65 215.7408 
L 326.871777 215.7408 
Q 339.63262 215.7408 345.874989 216.489477 
Q 352.117358 217.233228 356.583052 219.021185 
Q 360.520547 220.577645 362.429271 222.611878 
Q 364.35 224.641185 364.35 227.207372 
Q 364.35 229.812964 362.429271 231.852122 
Q 360.520547 233.891281 356.583052 235.442815 
Q 352.081344 237.230772 345.778952 237.979449 
Q 339.47656 238.7232 326.871777 238.7232 
L 311.65 238.7232 
L 311.65 215.7408 
z
" clip-path="url(#p07077ef2ea)" style="fill: #6b296b"/>
   </g>
   <g id="patch_57">
    <path d="M 311.65 185.652 
L 325.537864 185.652 
L 325.537864 196.137166 
L 345.555783 185.652 
L 361.683253 185.652 
L 335.743078 199.258704 
L 364.35 214.38 
L 346.964195 214.38 
L 325.537864 203.063655 
L 325.537864 214.38 
L 311.65 214.38 
L 311.65 185.652 
z
" clip-path="url(#p07077ef2ea)" style="fill: #bd2e1f"/>
   </g>
   <g id="patch_58">
    <path d="M 311.65 155.412 
L 328.578032 155.412 
L 349.968106 175.114015 
L 349.968106 155.412 
L 364.35 155.412 
L 364.35 184.14 
L 347.409364 184.14 
L 326.01929 164.437985 
L 326.01929 184.14 
L 311.65 184.14 
L 311.65 155.412 
z
" clip-path="url(#p07077ef2ea)" style="fill: #40ba47"/>
   </g>
   <g id="patch_59">
    <path d="M 311.65 125.172 
L 339.043021 125.172 
Q 351.271068 125.172 357.803672 127.610124 
Q 364.35 130.042092 364.35 134.542771 
Q 364.35 139.068077 357.803672 141.500045 
Q 351.271068 143.932012 339.043021 143.932012 
L 328.159922 143.932012 
L 328.159922 153.9 
L 311.65 153.9 
L 311.65 125.172 
z
M 328.159922 130.540799 
L 328.159922 138.563213 
L 337.286354 138.563213 
Q 342.08974 138.563213 344.711016 137.516544 
Q 347.332292 136.469874 347.332292 134.542771 
Q 347.332292 132.621824 344.711016 131.581312 
Q 342.08974 130.540799 337.286354 130.540799 
L 328.159922 130.540799 
z
" clip-path="url(#p07077ef2ea)" style="fill: #787800"/>
   </g>
   <g id="patch_60">
    <path d="M 333.032787 104.321501 
Q 337.762274 104.321501 339.814221 103.287145 
Q 341.866168 102.245401 341.866168 99.866383 
Q 341.866168 97.509529 339.814221 96.497338 
Q 337.762274 95.477759 333.032787 95.477759 
L 326.701781 95.477759 
L 326.701781 104.321501 
L 333.032787 104.321501 
z
M 326.701781 110.461141 
L 326.701781 123.5088 
L 311.65 123.5088 
L 311.65 89.0352 
L 334.634307 89.0352 
Q 346.170252 89.0352 351.537844 91.325559 
Q 356.917949 93.60853 356.917949 98.551273 
Q 356.917949 101.964647 354.11529 104.158959 
Q 351.325142 106.353271 345.694801 107.395015 
Q 348.785233 107.808757 351.225047 109.27902 
Q 353.677374 110.741895 356.179748 113.719362 
L 364.35 123.5088 
L 348.322293 123.5088 
L 341.203039 114.945812 
Q 339.050997 112.359923 336.836396 111.414226 
Q 334.634307 110.461141 330.955817 110.461141 
L 326.701781 110.461141 
z
" clip-path="url(#p07077ef2ea)" style="fill: #bd2e1f"/>
   </g>
   <g id="patch_61">
    <path d="M 348.155336 80.940783 
L 327.887763 80.940783 
L 324.68762 87.2208 
L 311.65 87.2208 
L 330.269015 52.7472 
L 345.730985 52.7472 
L 364.35 87.2208 
L 351.323155 87.2208 
L 348.155336 80.940783 
z
M 331.120231 74.542554 
L 344.890544 74.542554 
L 338.016162 60.829951 
L 331.120231 74.542554 
z
" clip-path="url(#p07077ef2ea)" style="fill: #21599c"/>
   </g>
   <g id="patch_62">
    <path d="M 388.091481 379.703752 
L 388.091481 383.209479 
L 393.265444 383.209479 
Q 402.112802 383.209479 406.782574 382.758796 
Q 411.464351 382.308112 411.464351 381.449843 
Q 411.464351 380.5965 406.806583 380.150742 
Q 402.16082 379.703752 393.265444 379.703752 
L 388.091481 379.703752 
z
M 373.65 378.5832 
L 388.871777 378.5832 
Q 401.63262 378.5832 407.874989 378.770369 
Q 414.117358 378.956307 418.583052 379.403296 
Q 422.520547 379.792411 424.429271 380.300969 
Q 426.35 380.808296 426.35 381.449843 
Q 426.35 382.101241 424.429271 382.611031 
Q 422.520547 383.12082 418.583052 383.508704 
Q 414.081344 383.955693 407.778952 384.142862 
Q 401.47656 384.3288 388.871777 384.3288 
L 373.65 384.3288 
L 373.65 378.5832 
z
" clip-path="url(#p07077ef2ea)" style="fill: #6b296b"/>
   </g>
   <g id="patch_63">
    <path d="M 373.65 372.5352 
L 388.813382 372.5352 
L 388.813382 374.724586 
L 411.186618 374.724586 
L 411.186618 372.5352 
L 426.35 372.5352 
L 426.35 378.2808 
L 411.186618 378.2808 
L 411.186618 375.845138 
L 388.813382 375.845138 
L 388.813382 378.2808 
L 373.65 378.2808 
L 373.65 372.5352 
z
" clip-path="url(#p07077ef2ea)" style="fill: #177875"/>
   </g>
   <g id="patch_64">
    <path d="M 373.65 366.4872 
L 426.35 366.4872 
L 426.35 367.607752 
L 407.390256 367.607752 
L 407.390256 372.2328 
L 392.646512 372.2328 
L 392.646512 367.607752 
L 373.65 367.607752 
L 373.65 366.4872 
z
" clip-path="url(#p07077ef2ea)" style="fill: #40ba47"/>
   </g>
   <g id="patch_65">
    <path d="M 373.65 360.4392 
L 387.537864 360.4392 
L 387.537864 362.536233 
L 407.555783 360.4392 
L 423.683253 360.4392 
L 397.743078 363.160541 
L 426.35 366.1848 
L 408.964195 366.1848 
L 387.537864 363.921531 
L 387.537864 366.1848 
L 373.65 366.1848 
L 373.65 360.4392 
z
" clip-path="url(#p07077ef2ea)" style="fill: #bd2e1f"/>
   </g>
   <g id="patch_66">
    <path d="M 373.65 354.3912 
L 389.195992 354.3912 
L 399.979692 357.465946 
L 410.83447 354.3912 
L 426.35 354.3912 
L 426.35 360.1368 
L 414.80474 360.1368 
L 414.80474 355.934114 
L 403.889037 359.032256 
L 396.141426 359.032256 
L 385.225723 355.934114 
L 385.225723 360.1368 
L 373.65 360.1368 
L 373.65 354.3912 
z
" clip-path="url(#p07077ef2ea)" style="fill: #21599c"/>
   </g>
   <g id="patch_67">
    <path d="M 373.65 342.4464 
L 388.22 342.4464 
L 399.988929 346.541956 
L 411.746786 342.4464 
L 426.35 342.4464 
L 406.665 349.09583 
L 406.665 353.9376 
L 393.346071 353.9376 
L 393.346071 349.09583 
L 373.65 342.4464 
z
" clip-path="url(#p07077ef2ea)" style="fill: #177875"/>
   </g>
   <g id="patch_68">
    <path d="M 374.198462 330.3504 
L 425.801538 330.3504 
L 425.801538 332.591504 
L 393.323077 332.591504 
L 393.323077 334.729173 
L 423.877949 334.729173 
L 423.877949 336.970277 
L 393.323077 336.970277 
L 393.323077 341.8416 
L 374.198462 341.8416 
L 374.198462 330.3504 
z
" clip-path="url(#p07077ef2ea)" style="fill: #21599c"/>
   </g>
   <g id="patch_69">
    <path d="M 410.155336 326.454391 
L 389.887763 326.454391 
L 386.68762 329.5944 
L 373.65 329.5944 
L 392.269015 312.3576 
L 407.730985 312.3576 
L 426.35 329.5944 
L 413.323155 329.5944 
L 410.155336 326.454391 
z
M 393.120231 323.255277 
L 406.890544 323.255277 
L 400.016162 316.398976 
L 393.120231 323.255277 
z
" clip-path="url(#p07077ef2ea)" style="fill: #21599c"/>
   </g>
   <g id="patch_70">
    <path d="M 421.955948 289.413461 
L 421.955948 294.10394 
Q 416.459804 293.287379 411.221293 292.874351 
Q 405.997094 292.456575 401.34541 292.456575 
Q 395.176562 292.456575 392.213797 293.021522 
Q 389.265345 293.581721 389.265345 294.768583 
Q 389.265345 295.661103 391.254834 296.159586 
Q 393.244324 296.65332 398.482835 297.009379 
L 405.811027 297.498366 
Q 416.946442 298.243716 421.641065 299.758152 
Q 426.35 301.267841 426.35 304.05934 
Q 426.35 307.719624 419.794704 309.509412 
Q 413.239408 311.2992 399.770994 311.2992 
Q 393.430391 311.2992 387.032537 310.895667 
Q 380.634682 310.496881 374.236828 309.708805 
L 374.236828 304.890144 
Q 380.634682 306.015289 386.60315 306.589731 
Q 392.571619 307.159425 398.125014 307.159425 
Q 403.764286 307.159425 406.755676 306.537509 
Q 409.747067 305.910846 409.747067 304.752468 
Q 409.747067 303.717524 407.714639 303.152578 
Q 405.682211 302.587631 399.59924 302.141371 
L 392.929441 301.652384 
Q 382.910429 300.940267 378.273058 299.383103 
Q 373.65 297.82594 373.65 295.186359 
Q 373.65 291.877387 380.090793 290.097093 
Q 386.531586 288.3168 398.611651 288.3168 
Q 404.122108 288.3168 409.933134 288.592152 
Q 415.744161 288.867504 421.955948 289.413461 
z
" clip-path="url(#p07077ef2ea)" style="fill: #40ba47"/>
   </g>
   <g id="patch_71">
    <path d="M 390.437692 258.228 
L 409.562308 258.228 
L 409.562308 286.956 
L 390.437692 286.956 
L 390.437692 258.228 
z
" clip-path="url(#p07077ef2ea)" style="fill: #21599c"/>
   </g>
   <g id="patch_72">
    <path d="M 401.405333 252.419941 
L 400.373292 252.419941 
Q 387.714313 252.419941 380.676667 249.200424 
Q 373.65 245.975852 373.65 240.229241 
Q 373.65 234.492739 380.665687 231.242897 
Q 387.681375 227.988 400 227.988 
Q 412.450375 227.988 419.400188 231.212571 
Q 426.35 234.432089 426.35 240.229241 
Q 426.35 244.206887 422.661 247.082719 
Q 418.972 249.958552 412.044146 251.409103 
L 422.364563 256.716 
L 409.771458 256.716 
L 401.405333 252.419941 
z
M 400 232.395251 
Q 393.961458 232.395251 390.634771 234.447251 
Q 387.308083 236.499251 387.308083 240.229241 
Q 387.308083 244.019882 390.557917 246.036502 
Q 393.818729 248.048069 400 248.048069 
Q 406.071479 248.048069 409.398167 245.996069 
Q 412.724854 243.939015 412.724854 240.229241 
Q 412.724854 236.499251 409.398167 234.447251 
Q 406.071479 232.395251 400 232.395251 
z
" clip-path="url(#p07077ef2ea)" style="fill: #40ba47"/>
   </g>
   <g id="patch_73">
    <path d="M 373.65 191.8512 
L 386.68762 191.8512 
L 400.016162 217.296352 
L 413.323155 191.8512 
L 426.35 191.8512 
L 407.730985 226.3248 
L 392.269015 226.3248 
L 373.65 191.8512 
z
" clip-path="url(#p07077ef2ea)" style="fill: #21599c"/>
   </g>
   <g id="patch_74">
    <path d="M 373.65 55.3176 
L 392.774615 55.3176 
L 392.774615 161.722024 
L 426.35 161.722024 
L 426.35 187.4664 
L 373.65 187.4664 
L 373.65 55.3176 
z
" clip-path="url(#p07077ef2ea)" style="fill: #21599c"/>
   </g>
   <g id="patch_75">
    <path d="M 450.091481 374.927504 
L 450.091481 381.938959 
L 455.265444 381.938959 
Q 464.112802 381.938959 468.782574 381.037591 
Q 473.464351 380.136224 473.464351 378.419686 
Q 473.464351 376.712999 468.806583 375.821483 
Q 464.16082 374.927504 455.265444 374.927504 
L 450.091481 374.927504 
z
M 435.65 372.6864 
L 450.871777 372.6864 
Q 463.63262 372.6864 469.874989 373.060738 
Q 476.117358 373.432614 480.583052 374.326593 
Q 484.520547 375.104822 486.429271 376.121939 
Q 488.35 377.136593 488.35 378.419686 
Q 488.35 379.722482 486.429271 380.742061 
Q 484.520547 381.76164 480.583052 382.537407 
Q 476.081344 383.431386 469.778952 383.805724 
Q 463.47656 384.1776 450.871777 384.1776 
L 435.65 384.1776 
L 435.65 372.6864 
z
" clip-path="url(#p07077ef2ea)" style="fill: #6b296b"/>
   </g>
   <g id="patch_76">
    <path d="M 457.032787 365.685834 
Q 461.762274 365.685834 463.814221 365.341048 
Q 465.866168 364.9938 465.866168 364.200794 
Q 465.866168 363.415176 463.814221 363.077779 
Q 461.762274 362.73792 457.032787 362.73792 
L 450.701781 362.73792 
L 450.701781 365.685834 
L 457.032787 365.685834 
z
M 450.701781 367.73238 
L 450.701781 372.0816 
L 435.65 372.0816 
L 435.65 360.5904 
L 458.634307 360.5904 
Q 470.170252 360.5904 475.537844 361.353853 
Q 480.917949 362.114843 480.917949 363.762424 
Q 480.917949 364.900216 478.11529 365.631653 
Q 475.325142 366.36309 469.694801 366.710338 
Q 472.785233 366.848252 475.225047 367.33834 
Q 477.677374 367.825965 480.179748 368.818454 
L 488.35 372.0816 
L 472.322293 372.0816 
L 465.203039 369.227271 
Q 463.050997 368.365308 460.836396 368.050075 
Q 458.634307 367.73238 454.955817 367.73238 
L 450.701781 367.73238 
z
" clip-path="url(#p07077ef2ea)" style="fill: #bd2e1f"/>
   </g>
   <g id="patch_77">
    <path d="M 463.405333 358.267176 
L 462.373292 358.267176 
Q 449.714313 358.267176 442.676667 356.979369 
Q 435.65 355.689541 435.65 353.390897 
Q 435.65 351.096296 442.665687 349.796359 
Q 449.681375 348.4944 462 348.4944 
Q 474.450375 348.4944 481.400187 349.784229 
Q 488.35 351.072035 488.35 353.390897 
Q 488.35 354.981955 484.661 356.132288 
Q 480.972 357.282621 474.044146 357.862841 
L 484.364562 359.9856 
L 471.771458 359.9856 
L 463.405333 358.267176 
z
M 462 350.2573 
Q 455.961458 350.2573 452.634771 351.0781 
Q 449.308083 351.8989 449.308083 353.390897 
Q 449.308083 354.907153 452.557917 355.713801 
Q 455.818729 356.518428 462 356.518428 
Q 468.071479 356.518428 471.398167 355.697628 
Q 474.724854 354.874806 474.724854 353.390897 
Q 474.724854 351.8989 471.398167 351.0781 
Q 468.071479 350.2573 462 350.2573 
z
" clip-path="url(#p07077ef2ea)" style="fill: #40ba47"/>
   </g>
   <g id="patch_78">
    <path d="M 435.65 336.3984 
L 451.195992 336.3984 
L 461.979692 342.547891 
L 472.83447 336.3984 
L 488.35 336.3984 
L 488.35 347.8896 
L 476.80474 347.8896 
L 476.80474 339.484228 
L 465.889037 345.680512 
L 458.141426 345.680512 
L 447.225723 339.484228 
L 447.225723 347.8896 
L 435.65 347.8896 
L 435.65 336.3984 
z
" clip-path="url(#p07077ef2ea)" style="fill: #21599c"/>
   </g>
   <g id="patch_79">
    <path d="M 435.65 318.4056 
L 454.774615 318.4056 
L 454.774615 332.284438 
L 488.35 332.284438 
L 488.35 335.6424 
L 435.65 335.6424 
L 435.65 318.4056 
z
" clip-path="url(#p07077ef2ea)" style="fill: #21599c"/>
   </g>
   <g id="patch_80">
    <path d="M 435.65 300.2616 
L 488.35 300.2616 
L 488.35 303.623256 
L 469.390256 303.623256 
L 469.390256 317.4984 
L 454.646512 317.4984 
L 454.646512 303.623256 
L 435.65 303.623256 
L 435.65 300.2616 
z
" clip-path="url(#p07077ef2ea)" style="fill: #40ba47"/>
   </g>
   <g id="patch_81">
    <path d="M 435.65 282.1176 
L 450.22 282.1176 
L 461.988929 288.260934 
L 473.746786 282.1176 
L 488.35 282.1176 
L 468.665 292.091745 
L 468.665 299.3544 
L 455.346071 299.3544 
L 455.346071 292.091745 
L 435.65 282.1176 
z
" clip-path="url(#p07077ef2ea)" style="fill: #177875"/>
   </g>
   <g id="patch_82">
    <path d="M 436.198462 263.9736 
L 487.801538 263.9736 
L 487.801538 267.335256 
L 455.323077 267.335256 
L 455.323077 270.541759 
L 485.877949 270.541759 
L 485.877949 273.903415 
L 455.323077 273.903415 
L 455.323077 281.2104 
L 436.198462 281.2104 
L 436.198462 263.9736 
z
" clip-path="url(#p07077ef2ea)" style="fill: #21599c"/>
   </g>
   <g id="patch_83">
    <path d="M 435.65 245.8296 
L 487.253077 245.8296 
L 487.253077 249.191256 
L 454.774615 249.191256 
L 454.774615 252.397759 
L 485.329487 252.397759 
L 485.329487 255.759415 
L 454.774615 255.759415 
L 454.774615 259.708438 
L 488.35 259.708438 
L 488.35 263.0664 
L 435.65 263.0664 
L 435.65 245.8296 
z
" clip-path="url(#p07077ef2ea)" style="fill: #6b296b"/>
   </g>
   <g id="patch_84">
    <path d="M 435.65 227.6856 
L 449.537864 227.6856 
L 449.537864 233.9767 
L 469.555783 227.6856 
L 485.683253 227.6856 
L 459.743078 235.849622 
L 488.35 244.9224 
L 470.964195 244.9224 
L 449.537864 238.132593 
L 449.537864 244.9224 
L 435.65 244.9224 
L 435.65 227.6856 
z
" clip-path="url(#p07077ef2ea)" style="fill: #bd2e1f"/>
   </g>
   <g id="patch_85">
    <path d="M 488.35 224.547817 
Q 483.035119 225.587509 477.318669 226.109728 
Q 471.602219 226.6272 465.507822 226.6272 
Q 451.736374 226.6272 443.693187 223.531863 
Q 435.65 220.436527 435.65 215.143121 
Q 435.65 209.787999 443.834917 206.716399 
Q 452.031645 203.6448 466.287338 203.6448 
Q 471.779381 203.6448 476.810802 204.062576 
Q 481.854034 204.475604 486.318534 205.292165 
L 486.318534 209.873453 
Q 481.712304 208.824267 477.153317 208.306795 
Q 472.59433 207.784575 468.011721 207.784575 
Q 459.531533 207.784575 454.937113 209.69305 
Q 450.342694 211.596777 450.342694 215.143121 
Q 450.342694 218.656233 454.771762 220.574203 
Q 459.200829 222.487425 467.350314 222.487425 
Q 469.570753 222.487425 471.472299 222.378233 
Q 473.373846 222.264294 474.885634 222.026922 
L 474.885634 217.725733 
L 466.204662 217.725733 
L 466.204662 213.894542 
L 488.35 213.894542 
L 488.35 224.547817 
z
" clip-path="url(#p07077ef2ea)" style="fill: #787800"/>
   </g>
   <g id="patch_86">
    <path d="M 472.155336 197.050652 
L 451.887763 197.050652 
L 448.68762 202.284 
L 435.65 202.284 
L 454.269015 173.556 
L 469.730985 173.556 
L 488.35 202.284 
L 475.323155 202.284 
L 472.155336 197.050652 
z
M 455.120231 191.718795 
L 468.890544 191.718795 
L 462.016162 180.291626 
L 455.120231 191.718795 
z
" clip-path="url(#p07077ef2ea)" style="fill: #21599c"/>
   </g>
   <g id="patch_87">
    <path d="M 452.437692 137.4192 
L 471.562308 137.4192 
L 471.562308 171.8928 
L 452.437692 171.8928 
L 452.437692 137.4192 
z
" clip-path="url(#p07077ef2ea)" style="fill: #21599c"/>
   </g>
   <g id="patch_88">
    <path d="M 435.65 101.1312 
L 448.68762 101.1312 
L 462.016162 126.576352 
L 475.323155 101.1312 
L 488.35 101.1312 
L 469.730985 135.6048 
L 454.269015 135.6048 
L 435.65 101.1312 
z
" clip-path="url(#p07077ef2ea)" style="fill: #21599c"/>
   </g>
   <g id="patch_89">
    <path d="M 483.955948 55.242921 
L 483.955948 64.62388 
Q 478.459804 62.990758 473.221293 62.164702 
Q 467.997094 61.329151 463.34541 61.329151 
Q 457.176562 61.329151 454.213797 62.459044 
Q 451.265345 63.579442 451.265345 65.953166 
Q 451.265345 67.738207 453.254834 68.735171 
Q 455.244324 69.72264 460.482835 70.434758 
L 467.811027 71.412732 
Q 478.946442 72.903431 483.641065 75.932304 
Q 488.35 78.951681 488.35 84.534681 
Q 488.35 91.855247 481.794704 95.434824 
Q 475.239408 99.0144 461.770994 99.0144 
Q 455.430391 99.0144 449.032537 98.207334 
Q 442.634682 97.409762 436.236828 95.833609 
L 436.236828 86.196288 
Q 442.634682 88.446579 448.60315 89.595461 
Q 454.571619 90.734849 460.125014 90.734849 
Q 465.764286 90.734849 468.755676 89.491018 
Q 471.747067 88.237691 471.747067 85.920936 
Q 471.747067 83.851048 469.714639 82.721155 
Q 467.682211 81.591263 461.59924 80.698742 
L 454.929441 79.720768 
Q 444.910429 78.296533 440.273058 75.182207 
Q 435.65 72.06788 435.65 66.788717 
Q 435.65 60.170773 442.090793 56.610187 
Q 448.531586 53.0496 460.611651 53.0496 
Q 466.122108 53.0496 471.933134 53.600304 
Q 477.744161 54.151008 483.955948 55.242921 
z
" clip-path="url(#p07077ef2ea)" style="fill: #40ba47"/>
   </g>
   <g id="patch_90">
    <path d="M 497.65 378.5832 
L 512.22 378.5832 
L 523.988929 380.630978 
L 535.746786 378.5832 
L 550.35 378.5832 
L 530.665 381.907915 
L 530.665 384.3288 
L 517.346071 384.3288 
L 517.346071 381.907915 
L 497.65 378.5832 
z
" clip-path="url(#p07077ef2ea)" style="fill: #177875"/>
   </g>
   <g id="patch_91">
    <path d="M 525.405333 377.421588 
L 524.373292 377.421588 
Q 511.714313 377.421588 504.676667 376.777685 
Q 497.65 376.13277 497.65 374.983448 
Q 497.65 373.836148 504.665687 373.186179 
Q 511.681375 372.5352 524 372.5352 
Q 536.450375 372.5352 543.400187 373.180114 
Q 550.35 373.824018 550.35 374.983448 
Q 550.35 375.778977 546.661 376.354144 
Q 542.972 376.92931 536.044146 377.219421 
L 546.364562 378.2808 
L 533.771458 378.2808 
L 525.405333 377.421588 
z
M 524 373.41665 
Q 517.961458 373.41665 514.634771 373.82705 
Q 511.308083 374.23745 511.308083 374.983448 
Q 511.308083 375.741576 514.557917 376.1449 
Q 517.818729 376.547214 524 376.547214 
Q 530.071479 376.547214 533.398167 376.136814 
Q 536.724854 375.725403 536.724854 374.983448 
Q 536.724854 374.23745 533.398167 373.82705 
Q 530.071479 373.41665 524 373.41665 
z
" clip-path="url(#p07077ef2ea)" style="fill: #40ba47"/>
   </g>
   <g id="patch_92">
    <path d="M 497.65 366.4872 
L 512.813382 366.4872 
L 512.813382 368.676586 
L 535.186618 368.676586 
L 535.186618 366.4872 
L 550.35 366.4872 
L 550.35 372.2328 
L 535.186618 372.2328 
L 535.186618 369.797138 
L 512.813382 369.797138 
L 512.813382 372.2328 
L 497.65 372.2328 
L 497.65 366.4872 
z
" clip-path="url(#p07077ef2ea)" style="fill: #177875"/>
   </g>
   <g id="patch_93">
    <path d="M 497.65 360.4392 
L 511.537864 360.4392 
L 511.537864 362.536233 
L 531.555783 360.4392 
L 547.683253 360.4392 
L 521.743078 363.160541 
L 550.35 366.1848 
L 532.964195 366.1848 
L 511.537864 363.921531 
L 511.537864 366.1848 
L 497.65 366.1848 
L 497.65 360.4392 
z
" clip-path="url(#p07077ef2ea)" style="fill: #bd2e1f"/>
   </g>
   <g id="patch_94">
    <path d="M 497.65 354.3912 
L 514.578032 354.3912 
L 535.968106 358.331603 
L 535.968106 354.3912 
L 550.35 354.3912 
L 550.35 360.1368 
L 533.409364 360.1368 
L 512.01929 356.196397 
L 512.01929 360.1368 
L 497.65 360.1368 
L 497.65 354.3912 
z
" clip-path="url(#p07077ef2ea)" style="fill: #40ba47"/>
   </g>
   <g id="patch_95">
    <path d="M 497.65 342.4464 
L 516.774615 342.4464 
L 516.774615 351.698959 
L 550.35 351.698959 
L 550.35 353.9376 
L 497.65 353.9376 
L 497.65 342.4464 
z
" clip-path="url(#p07077ef2ea)" style="fill: #21599c"/>
   </g>
   <g id="patch_96">
    <path d="M 497.65 330.3504 
L 549.253077 330.3504 
L 549.253077 332.591504 
L 516.774615 332.591504 
L 516.774615 334.729173 
L 547.329487 334.729173 
L 547.329487 336.970277 
L 516.774615 336.970277 
L 516.774615 339.602959 
L 550.35 339.602959 
L 550.35 341.8416 
L 497.65 341.8416 
L 497.65 330.3504 
z
" clip-path="url(#p07077ef2ea)" style="fill: #6b296b"/>
   </g>
   <g id="patch_97">
    <path d="M 512.091481 315.719256 
L 512.091481 326.236438 
L 517.265444 326.236438 
Q 526.112802 326.236438 530.782574 324.884387 
Q 535.464351 323.532336 535.464351 320.957529 
Q 535.464351 318.397499 530.806583 317.060225 
Q 526.16082 315.719256 517.265444 315.719256 
L 512.091481 315.719256 
z
M 497.65 312.3576 
L 512.871777 312.3576 
Q 525.63262 312.3576 531.874989 312.919107 
Q 538.117358 313.476921 542.583052 314.817889 
Q 546.520547 315.985233 548.429271 317.510908 
Q 550.35 319.032889 550.35 320.957529 
Q 550.35 322.911723 548.429271 324.441092 
Q 546.520547 325.970461 542.583052 327.134111 
Q 538.081344 328.475079 531.778952 329.036587 
Q 525.47656 329.5944 512.871777 329.5944 
L 497.65 329.5944 
L 497.65 312.3576 
z
" clip-path="url(#p07077ef2ea)" style="fill: #6b296b"/>
   </g>
   <g id="patch_98">
    <path d="M 497.65 294.2136 
L 550.35 294.2136 
L 550.35 297.575256 
L 531.390256 297.575256 
L 531.390256 311.4504 
L 516.646512 311.4504 
L 516.646512 297.575256 
L 497.65 297.575256 
L 497.65 294.2136 
z
" clip-path="url(#p07077ef2ea)" style="fill: #40ba47"/>
   </g>
   <g id="patch_99">
    <path d="M 497.65 258.3792 
L 510.68762 258.3792 
L 524.016162 283.824352 
L 537.323155 258.3792 
L 550.35 258.3792 
L 531.730985 292.8528 
L 516.269015 292.8528 
L 497.65 258.3792 
z
" clip-path="url(#p07077ef2ea)" style="fill: #21599c"/>
   </g>
   <g id="patch_100">
    <path d="M 545.955948 201.245652 
L 545.955948 212.97185 
Q 540.459804 210.930447 535.221293 209.897877 
Q 529.997094 208.853439 525.34541 208.853439 
Q 519.176562 208.853439 516.213797 210.265805 
Q 513.265345 211.666302 513.265345 214.633458 
Q 513.265345 216.864759 515.254834 218.110964 
Q 517.244324 219.345301 522.482835 220.235447 
L 529.811027 221.457915 
Q 540.946442 223.321289 545.641065 227.107379 
Q 550.35 230.881601 550.35 237.860351 
Q 550.35 247.011059 543.794704 251.485529 
Q 537.239408 255.96 523.770994 255.96 
Q 517.430391 255.96 511.032537 254.951167 
Q 504.634682 253.954203 498.236828 251.984012 
L 498.236828 239.93736 
Q 504.634682 242.750224 510.60315 244.186327 
Q 516.571619 245.610561 522.125014 245.610561 
Q 527.764286 245.610561 530.755676 244.055772 
Q 533.747067 242.489114 533.747067 239.59317 
Q 533.747067 237.00581 531.714639 235.593444 
Q 529.682211 234.181078 523.59924 233.065428 
L 516.929441 231.84296 
Q 506.910429 230.062666 502.273058 226.169758 
Q 497.65 222.27685 497.65 215.677896 
Q 497.65 207.405467 504.090793 202.954733 
Q 510.531586 198.504 522.611651 198.504 
Q 528.122108 198.504 533.933134 199.19238 
Q 539.744161 199.88076 545.955948 201.245652 
z
" clip-path="url(#p07077ef2ea)" style="fill: #40ba47"/>
   </g>
   <g id="patch_101">
    <path d="M 550.35 189.610498 
Q 545.035119 192.469649 539.318669 193.905752 
Q 533.602219 195.3288 527.507822 195.3288 
Q 513.736374 195.3288 505.693187 186.816624 
Q 497.65 178.304448 497.65 163.747583 
Q 497.65 149.020997 505.834917 140.574098 
Q 514.031645 132.1272 528.287338 132.1272 
Q 533.779381 132.1272 538.810802 133.276083 
Q 543.854034 134.41191 548.318534 136.657453 
L 548.318534 149.255996 
Q 543.712304 146.370733 539.153317 144.947686 
Q 534.59433 143.511582 530.011721 143.511582 
Q 521.531533 143.511582 516.937113 148.759887 
Q 512.342694 153.995136 512.342694 163.747583 
Q 512.342694 173.408642 516.771762 178.683057 
Q 521.200829 183.944418 529.350314 183.944418 
Q 531.570753 183.944418 533.472299 183.644141 
Q 535.373846 183.33081 536.885634 182.678036 
L 536.885634 170.849767 
L 528.204662 170.849767 
L 528.204662 160.313991 
L 550.35 160.313991 
L 550.35 189.610498 
z
" clip-path="url(#p07077ef2ea)" style="fill: #787800"/>
   </g>
   <g id="patch_102">
    <path d="M 534.155336 114.891696 
L 513.887763 114.891696 
L 510.68762 128.4984 
L 497.65 128.4984 
L 516.269015 53.8056 
L 531.730985 53.8056 
L 550.35 128.4984 
L 537.323155 128.4984 
L 534.155336 114.891696 
z
M 517.120231 101.028866 
L 530.890544 101.028866 
L 524.016162 71.318228 
L 517.120231 101.028866 
z
" clip-path="url(#p07077ef2ea)" style="fill: #21599c"/>
   </g>
   <g id="patch_103">
    <path d="M 559.65 378.5832 
L 574.813382 378.5832 
L 574.813382 380.772586 
L 597.186618 380.772586 
L 597.186618 378.5832 
L 612.35 378.5832 
L 612.35 384.3288 
L 597.186618 384.3288 
L 597.186618 381.893138 
L 574.813382 381.893138 
L 574.813382 384.3288 
L 559.65 384.3288 
L 559.65 378.5832 
z
" clip-path="url(#p07077ef2ea)" style="fill: #177875"/>
   </g>
   <g id="patch_104">
    <path d="M 559.65 372.5352 
L 576.578032 372.5352 
L 597.968106 376.475603 
L 597.968106 372.5352 
L 612.35 372.5352 
L 612.35 378.2808 
L 595.409364 378.2808 
L 574.01929 374.340397 
L 574.01929 378.2808 
L 559.65 378.2808 
L 559.65 372.5352 
z
" clip-path="url(#p07077ef2ea)" style="fill: #40ba47"/>
   </g>
   <g id="patch_105">
    <path d="M 587.405333 371.373588 
L 586.373292 371.373588 
Q 573.714313 371.373588 566.676667 370.729685 
Q 559.65 370.08477 559.65 368.935448 
Q 559.65 367.788148 566.665687 367.138179 
Q 573.681375 366.4872 586 366.4872 
Q 598.450375 366.4872 605.400187 367.132114 
Q 612.35 367.776018 612.35 368.935448 
Q 612.35 369.730977 608.661 370.306144 
Q 604.972 370.88131 598.044146 371.171421 
L 608.364562 372.2328 
L 595.771458 372.2328 
L 587.405333 371.373588 
z
M 586 367.36865 
Q 579.961458 367.36865 576.634771 367.77905 
Q 573.308083 368.18945 573.308083 368.935448 
Q 573.308083 369.693576 576.557917 370.0969 
Q 579.818729 370.499214 586 370.499214 
Q 592.071479 370.499214 595.398167 370.088814 
Q 598.724854 369.677403 598.724854 368.935448 
Q 598.724854 368.18945 595.398167 367.77905 
Q 592.071479 367.36865 586 367.36865 
z
" clip-path="url(#p07077ef2ea)" style="fill: #40ba47"/>
   </g>
   <g id="patch_106">
    <path d="M 559.65 354.5424 
L 574.22 354.5424 
L 585.988929 358.637956 
L 597.746786 354.5424 
L 612.35 354.5424 
L 592.665 361.19183 
L 592.665 366.0336 
L 579.346071 366.0336 
L 579.346071 361.19183 
L 559.65 354.5424 
z
" clip-path="url(#p07077ef2ea)" style="fill: #177875"/>
   </g>
   <g id="patch_107">
    <path d="M 559.65 342.4464 
L 572.68762 342.4464 
L 586.016162 350.928117 
L 599.323155 342.4464 
L 612.35 342.4464 
L 593.730985 353.9376 
L 578.269015 353.9376 
L 559.65 342.4464 
z
" clip-path="url(#p07077ef2ea)" style="fill: #21599c"/>
   </g>
   <g id="patch_108">
    <path d="M 612.35 340.130863 
Q 607.035119 340.910632 601.318669 341.302296 
Q 595.602219 341.6904 589.507822 341.6904 
Q 575.736374 341.6904 567.693187 339.368898 
Q 559.65 337.047395 559.65 333.077341 
Q 559.65 329.060999 567.834917 326.7573 
Q 576.031645 324.4536 590.287338 324.4536 
Q 595.779381 324.4536 600.810802 324.766932 
Q 605.854034 325.076703 610.318534 325.689124 
L 610.318534 329.12509 
Q 605.712304 328.3382 601.153317 327.950096 
Q 596.59433 327.558432 592.011721 327.558432 
Q 583.531533 327.558432 578.937113 328.989787 
Q 574.342694 330.417583 574.342694 333.077341 
Q 574.342694 335.712175 578.771762 337.150652 
Q 583.200829 338.585568 591.350314 338.585568 
Q 593.570753 338.585568 595.472299 338.503675 
Q 597.373846 338.418221 598.885634 338.240192 
L 598.885634 335.0143 
L 590.204662 335.0143 
L 590.204662 332.140907 
L 612.35 332.140907 
L 612.35 340.130863 
z
" clip-path="url(#p07077ef2ea)" style="fill: #787800"/>
   </g>
   <g id="patch_109">
    <path d="M 559.65 306.3096 
L 575.195992 306.3096 
L 585.979692 315.533837 
L 596.83447 306.3096 
L 612.35 306.3096 
L 612.35 323.5464 
L 600.80474 323.5464 
L 600.80474 310.938342 
L 589.889037 320.232767 
L 582.141426 320.232767 
L 571.225723 310.938342 
L 571.225723 323.5464 
L 559.65 323.5464 
L 559.65 306.3096 
z
" clip-path="url(#p07077ef2ea)" style="fill: #21599c"/>
   </g>
   <g id="patch_110">
    <path d="M 559.65 288.1656 
L 612.35 288.1656 
L 612.35 291.527256 
L 593.390256 291.527256 
L 593.390256 305.4024 
L 578.646512 305.4024 
L 578.646512 291.527256 
L 559.65 291.527256 
L 559.65 288.1656 
z
" clip-path="url(#p07077ef2ea)" style="fill: #40ba47"/>
   </g>
   <g id="patch_111">
    <path d="M 574.091481 268.607008 
L 574.091481 282.629917 
L 579.265444 282.629917 
Q 588.112802 282.629917 592.782574 280.827183 
Q 597.464351 279.024449 597.464351 275.591372 
Q 597.464351 272.177998 592.806583 270.394966 
Q 588.16082 268.607008 579.265444 268.607008 
L 574.091481 268.607008 
z
M 559.65 264.1248 
L 574.871777 264.1248 
Q 587.63262 264.1248 593.874989 264.873477 
Q 600.117358 265.617228 604.583052 267.405185 
Q 608.520547 268.961645 610.429271 270.995878 
Q 612.35 273.025185 612.35 275.591372 
Q 612.35 278.196964 610.429271 280.236122 
Q 608.520547 282.275281 604.583052 283.826815 
Q 600.081344 285.614772 593.778952 286.363449 
Q 587.47656 287.1072 574.871777 287.1072 
L 559.65 287.1072 
L 559.65 264.1248 
z
" clip-path="url(#p07077ef2ea)" style="fill: #6b296b"/>
   </g>
   <g id="patch_112">
    <path d="M 559.65 239.9328 
L 611.253077 239.9328 
L 611.253077 244.415008 
L 578.774615 244.415008 
L 578.774615 248.690345 
L 609.329487 248.690345 
L 609.329487 253.172554 
L 578.774615 253.172554 
L 578.774615 258.437917 
L 612.35 258.437917 
L 612.35 262.9152 
L 559.65 262.9152 
L 559.65 239.9328 
z
" clip-path="url(#p07077ef2ea)" style="fill: #6b296b"/>
   </g>
   <g id="patch_113">
    <path d="M 559.65 215.7408 
L 573.537864 215.7408 
L 573.537864 224.128933 
L 593.555783 215.7408 
L 609.683253 215.7408 
L 583.743078 226.626163 
L 612.35 238.7232 
L 594.964195 238.7232 
L 573.537864 229.670124 
L 573.537864 238.7232 
L 559.65 238.7232 
L 559.65 215.7408 
z
" clip-path="url(#p07077ef2ea)" style="fill: #bd2e1f"/>
   </g>
   <g id="patch_114">
    <path d="M 559.65 185.652 
L 578.774615 185.652 
L 578.774615 208.783396 
L 612.35 208.783396 
L 612.35 214.38 
L 559.65 214.38 
L 559.65 185.652 
z
" clip-path="url(#p07077ef2ea)" style="fill: #21599c"/>
   </g>
   <g id="patch_115">
    <path d="M 607.955948 151.160191 
L 607.955948 158.19591 
Q 602.459804 156.971068 597.221293 156.351526 
Q 591.997094 155.724863 587.34541 155.724863 
Q 581.176562 155.724863 578.213797 156.572283 
Q 575.265345 157.412581 575.265345 159.192875 
Q 575.265345 160.531655 577.254834 161.279378 
Q 579.244324 162.01998 584.482835 162.554068 
L 591.811027 163.287549 
Q 602.946442 164.405573 607.641065 166.677228 
Q 612.35 168.941761 612.35 173.129011 
Q 612.35 178.619435 605.794704 181.304118 
Q 599.239408 183.9888 585.770994 183.9888 
Q 579.430391 183.9888 573.032537 183.3835 
Q 566.634682 182.785322 560.236828 181.603207 
L 560.236828 174.375216 
Q 566.634682 176.062934 572.60315 176.924596 
Q 578.571619 177.779137 584.125014 177.779137 
Q 589.764286 177.779137 592.755676 176.846263 
Q 595.747067 175.906268 595.747067 174.168702 
Q 595.747067 172.616286 593.714639 171.768867 
Q 591.682211 170.921447 585.59924 170.252057 
L 578.929441 169.518576 
Q 568.910429 168.4504 564.273058 166.114655 
Q 559.65 163.77891 559.65 159.819538 
Q 559.65 154.85608 566.090793 152.18564 
Q 572.531586 149.5152 584.611651 149.5152 
Q 590.122108 149.5152 595.933134 149.928228 
Q 601.744161 150.341256 607.955948 151.160191 
z
" clip-path="url(#p07077ef2ea)" style="fill: #40ba47"/>
   </g>
   <g id="patch_116">
    <path d="M 559.65 101.4336 
L 587.043021 101.4336 
Q 599.271068 101.4336 605.803672 105.334599 
Q 612.35 109.225747 612.35 116.426833 
Q 612.35 123.667323 605.803672 127.558471 
Q 599.271068 131.449619 587.043021 131.449619 
L 576.159922 131.449619 
L 576.159922 147.3984 
L 559.65 147.3984 
L 559.65 101.4336 
z
M 576.159922 110.023678 
L 576.159922 122.859541 
L 585.286354 122.859541 
Q 590.08974 122.859541 592.711016 121.18487 
Q 595.332292 119.510198 595.332292 116.426833 
Q 595.332292 113.353319 592.711016 111.688499 
Q 590.08974 110.023678 585.286354 110.023678 
L 576.159922 110.023678 
z
" clip-path="url(#p07077ef2ea)" style="fill: #787800"/>
   </g>
   <g id="patch_117">
    <path d="M 596.155336 90.641044 
L 575.887763 90.641044 
L 572.68762 99.0144 
L 559.65 99.0144 
L 578.269015 53.0496 
L 593.730985 53.0496 
L 612.35 99.0144 
L 599.323155 99.0144 
L 596.155336 90.641044 
z
M 579.120231 82.110071 
L 592.890544 82.110071 
L 586.016162 63.826602 
L 579.120231 82.110071 
z
" clip-path="url(#p07077ef2ea)" style="fill: #21599c"/>
   </g>
   <g id="matplotlib.axis_1">
    <g id="xtick_1">
     <g id="line2d_2">
      <defs>
       <path id="mbba656c3cf" d="M 0 0 
L 0 4.8 
" style="stroke: #262626"/>
      </defs>
      <g>
       <use xlink:href="#mbba656c3cf" x="152" y="384.48" style="fill: #262626; stroke: #262626"/>
      </g>
     </g>
     <g id="text_1">
      <!-- P4 -->
      <g style="fill: #262626" transform="translate(146.61825 399.078875) scale(0.088 -0.088)">
       <defs>
        <path id="ArialMT-50" d="M 494 0 
L 494 4581 
L 2222 4581 
Q 2678 4581 2919 4538 
Q 3256 4481 3484 4323 
Q 3713 4166 3852 3881 
Q 3991 3597 3991 3256 
Q 3991 2672 3619 2267 
Q 3247 1863 2275 1863 
L 1100 1863 
L 1100 0 
L 494 0 
z
M 1100 2403 
L 2284 2403 
Q 2872 2403 3119 2622 
Q 3366 2841 3366 3238 
Q 3366 3525 3220 3729 
Q 3075 3934 2838 4000 
Q 2684 4041 2272 4041 
L 1100 4041 
L 1100 2403 
z
" transform="scale(0.015625)"/>
        <path id="ArialMT-34" d="M 2069 0 
L 2069 1097 
L 81 1097 
L 81 1613 
L 2172 4581 
L 2631 4581 
L 2631 1613 
L 3250 1613 
L 3250 1097 
L 2631 1097 
L 2631 0 
L 2069 0 
z
M 2069 1613 
L 2069 3678 
L 634 1613 
L 2069 1613 
z
" transform="scale(0.015625)"/>
       </defs>
       <use xlink:href="#ArialMT-50"/>
       <use xlink:href="#ArialMT-34" x="66.699219"/>
      </g>
     </g>
    </g>
    <g id="xtick_2">
     <g id="line2d_3">
      <g>
       <use xlink:href="#mbba656c3cf" x="214" y="384.48" style="fill: #262626; stroke: #262626"/>
      </g>
     </g>
     <g id="text_2">
      <!-- P3 -->
      <g style="fill: #262626" transform="translate(208.61825 399.078875) scale(0.088 -0.088)">
       <defs>
        <path id="ArialMT-33" d="M 269 1209 
L 831 1284 
Q 928 806 1161 595 
Q 1394 384 1728 384 
Q 2125 384 2398 659 
Q 2672 934 2672 1341 
Q 2672 1728 2419 1979 
Q 2166 2231 1775 2231 
Q 1616 2231 1378 2169 
L 1441 2663 
Q 1497 2656 1531 2656 
Q 1891 2656 2178 2843 
Q 2466 3031 2466 3422 
Q 2466 3731 2256 3934 
Q 2047 4138 1716 4138 
Q 1388 4138 1169 3931 
Q 950 3725 888 3313 
L 325 3413 
Q 428 3978 793 4289 
Q 1159 4600 1703 4600 
Q 2078 4600 2393 4439 
Q 2709 4278 2876 4000 
Q 3044 3722 3044 3409 
Q 3044 3113 2884 2869 
Q 2725 2625 2413 2481 
Q 2819 2388 3044 2092 
Q 3269 1797 3269 1353 
Q 3269 753 2831 336 
Q 2394 -81 1725 -81 
Q 1122 -81 723 278 
Q 325 638 269 1209 
z
" transform="scale(0.015625)"/>
       </defs>
       <use xlink:href="#ArialMT-50"/>
       <use xlink:href="#ArialMT-33" x="66.699219"/>
      </g>
     </g>
    </g>
    <g id="xtick_3">
     <g id="line2d_4">
      <g>
       <use xlink:href="#mbba656c3cf" x="276" y="384.48" style="fill: #262626; stroke: #262626"/>
      </g>
     </g>
     <g id="text_3">
      <!-- P2 -->
      <g style="fill: #262626" transform="translate(270.61825 399.078875) scale(0.088 -0.088)">
       <defs>
        <path id="ArialMT-32" d="M 3222 541 
L 3222 0 
L 194 0 
Q 188 203 259 391 
Q 375 700 629 1000 
Q 884 1300 1366 1694 
Q 2113 2306 2375 2664 
Q 2638 3022 2638 3341 
Q 2638 3675 2398 3904 
Q 2159 4134 1775 4134 
Q 1369 4134 1125 3890 
Q 881 3647 878 3216 
L 300 3275 
Q 359 3922 746 4261 
Q 1134 4600 1788 4600 
Q 2447 4600 2831 4234 
Q 3216 3869 3216 3328 
Q 3216 3053 3103 2787 
Q 2991 2522 2730 2228 
Q 2469 1934 1863 1422 
Q 1356 997 1212 845 
Q 1069 694 975 541 
L 3222 541 
z
" transform="scale(0.015625)"/>
       </defs>
       <use xlink:href="#ArialMT-50"/>
       <use xlink:href="#ArialMT-32" x="66.699219"/>
      </g>
     </g>
    </g>
    <g id="xtick_4">
     <g id="line2d_5">
      <g>
       <use xlink:href="#mbba656c3cf" x="338" y="384.48" style="fill: #262626; stroke: #262626"/>
      </g>
     </g>
     <g id="text_4">
      <!-- P1 -->
      <g style="fill: #262626" transform="translate(332.61825 399.078875) scale(0.088 -0.088)">
       <defs>
        <path id="ArialMT-31" d="M 2384 0 
L 1822 0 
L 1822 3584 
Q 1619 3391 1289 3197 
Q 959 3003 697 2906 
L 697 3450 
Q 1169 3672 1522 3987 
Q 1875 4303 2022 4600 
L 2384 4600 
L 2384 0 
z
" transform="scale(0.015625)"/>
       </defs>
       <use xlink:href="#ArialMT-50"/>
       <use xlink:href="#ArialMT-31" x="66.699219"/>
      </g>
     </g>
    </g>
    <g id="xtick_5">
     <g id="line2d_6">
      <g>
       <use xlink:href="#mbba656c3cf" x="400" y="384.48" style="fill: #262626; stroke: #262626"/>
      </g>
     </g>
     <g id="text_5">
      <!-- P1' -->
      <g style="fill: #262626" transform="translate(393.778125 399.078875) scale(0.088 -0.088)">
       <defs>
        <path id="ArialMT-27" d="M 425 2959 
L 281 3816 
L 281 4581 
L 922 4581 
L 922 3816 
L 772 2959 
L 425 2959 
z
" transform="scale(0.015625)"/>
       </defs>
       <use xlink:href="#ArialMT-50"/>
       <use xlink:href="#ArialMT-31" x="66.699219"/>
       <use xlink:href="#ArialMT-27" x="122.314453"/>
      </g>
     </g>
    </g>
    <g id="xtick_6">
     <g id="line2d_7">
      <g>
       <use xlink:href="#mbba656c3cf" x="462" y="384.48" style="fill: #262626; stroke: #262626"/>
      </g>
     </g>
     <g id="text_6">
      <!-- P2' -->
      <g style="fill: #262626" transform="translate(455.778125 399.078875) scale(0.088 -0.088)">
       <use xlink:href="#ArialMT-50"/>
       <use xlink:href="#ArialMT-32" x="66.699219"/>
       <use xlink:href="#ArialMT-27" x="122.314453"/>
      </g>
     </g>
    </g>
    <g id="xtick_7">
     <g id="line2d_8">
      <g>
       <use xlink:href="#mbba656c3cf" x="524" y="384.48" style="fill: #262626; stroke: #262626"/>
      </g>
     </g>
     <g id="text_7">
      <!-- P3' -->
      <g style="fill: #262626" transform="translate(517.778125 399.078875) scale(0.088 -0.088)">
       <use xlink:href="#ArialMT-50"/>
       <use xlink:href="#ArialMT-33" x="66.699219"/>
       <use xlink:href="#ArialMT-27" x="122.314453"/>
      </g>
     </g>
    </g>
    <g id="xtick_8">
     <g id="line2d_9">
      <g>
       <use xlink:href="#mbba656c3cf" x="586" y="384.48" style="fill: #262626; stroke: #262626"/>
      </g>
     </g>
     <g id="text_8">
      <!-- P4' -->
      <g style="fill: #262626" transform="translate(579.778125 399.078875) scale(0.088 -0.088)">
       <use xlink:href="#ArialMT-50"/>
       <use xlink:href="#ArialMT-34" x="66.699219"/>
       <use xlink:href="#ArialMT-27" x="122.314453"/>
      </g>
     </g>
    </g>
   </g>
   <g id="matplotlib.axis_2">
    <g id="ytick_1">
     <g id="line2d_10">
      <defs>
       <path id="m6a06164b44" d="M 0 0 
L -4.8 0 
" style="stroke: #262626"/>
      </defs>
      <g>
       <use xlink:href="#m6a06164b44" x="90" y="384.48" style="fill: #262626; stroke: #262626"/>
      </g>
     </g>
     <g id="text_9">
      <!-- 0.0 -->
      <g style="fill: #262626" transform="translate(69.468 387.629437) scale(0.088 -0.088)">
       <defs>
        <path id="ArialMT-30" d="M 266 2259 
Q 266 3072 433 3567 
Q 600 4063 929 4331 
Q 1259 4600 1759 4600 
Q 2128 4600 2406 4451 
Q 2684 4303 2865 4023 
Q 3047 3744 3150 3342 
Q 3253 2941 3253 2259 
Q 3253 1453 3087 958 
Q 2922 463 2592 192 
Q 2263 -78 1759 -78 
Q 1097 -78 719 397 
Q 266 969 266 2259 
z
M 844 2259 
Q 844 1131 1108 757 
Q 1372 384 1759 384 
Q 2147 384 2411 759 
Q 2675 1134 2675 2259 
Q 2675 3391 2411 3762 
Q 2147 4134 1753 4134 
Q 1366 4134 1134 3806 
Q 844 3388 844 2259 
z
" transform="scale(0.015625)"/>
        <path id="ArialMT-2e" d="M 581 0 
L 581 641 
L 1222 641 
L 1222 0 
L 581 0 
z
" transform="scale(0.015625)"/>
       </defs>
       <use xlink:href="#ArialMT-30"/>
       <use xlink:href="#ArialMT-2e" x="55.615234"/>
       <use xlink:href="#ArialMT-30" x="83.398438"/>
      </g>
     </g>
    </g>
    <g id="ytick_2">
     <g id="line2d_11">
      <g>
       <use xlink:href="#m6a06164b44" x="90" y="317.952" style="fill: #262626; stroke: #262626"/>
      </g>
     </g>
     <g id="text_10">
      <!-- 0.2 -->
      <g style="fill: #262626" transform="translate(69.468 321.101437) scale(0.088 -0.088)">
       <use xlink:href="#ArialMT-30"/>
       <use xlink:href="#ArialMT-2e" x="55.615234"/>
       <use xlink:href="#ArialMT-32" x="83.398438"/>
      </g>
     </g>
    </g>
    <g id="ytick_3">
     <g id="line2d_12">
      <g>
       <use xlink:href="#m6a06164b44" x="90" y="251.424" style="fill: #262626; stroke: #262626"/>
      </g>
     </g>
     <g id="text_11">
      <!-- 0.4 -->
      <g style="fill: #262626" transform="translate(69.468 254.573437) scale(0.088 -0.088)">
       <use xlink:href="#ArialMT-30"/>
       <use xlink:href="#ArialMT-2e" x="55.615234"/>
       <use xlink:href="#ArialMT-34" x="83.398438"/>
      </g>
     </g>
    </g>
    <g id="ytick_4">
     <g id="line2d_13">
      <g>
       <use xlink:href="#m6a06164b44" x="90" y="184.896" style="fill: #262626; stroke: #262626"/>
      </g>
     </g>
     <g id="text_12">
      <!-- 0.6 -->
      <g style="fill: #262626" transform="translate(69.468 188.045437) scale(0.088 -0.088)">
       <defs>
        <path id="ArialMT-36" d="M 3184 3459 
L 2625 3416 
Q 2550 3747 2413 3897 
Q 2184 4138 1850 4138 
Q 1581 4138 1378 3988 
Q 1113 3794 959 3422 
Q 806 3050 800 2363 
Q 1003 2672 1297 2822 
Q 1591 2972 1913 2972 
Q 2475 2972 2870 2558 
Q 3266 2144 3266 1488 
Q 3266 1056 3080 686 
Q 2894 316 2569 119 
Q 2244 -78 1831 -78 
Q 1128 -78 684 439 
Q 241 956 241 2144 
Q 241 3472 731 4075 
Q 1159 4600 1884 4600 
Q 2425 4600 2770 4297 
Q 3116 3994 3184 3459 
z
M 888 1484 
Q 888 1194 1011 928 
Q 1134 663 1356 523 
Q 1578 384 1822 384 
Q 2178 384 2434 671 
Q 2691 959 2691 1453 
Q 2691 1928 2437 2201 
Q 2184 2475 1800 2475 
Q 1419 2475 1153 2201 
Q 888 1928 888 1484 
z
" transform="scale(0.015625)"/>
       </defs>
       <use xlink:href="#ArialMT-30"/>
       <use xlink:href="#ArialMT-2e" x="55.615234"/>
       <use xlink:href="#ArialMT-36" x="83.398438"/>
      </g>
     </g>
    </g>
    <g id="ytick_5">
     <g id="line2d_14">
      <g>
       <use xlink:href="#m6a06164b44" x="90" y="118.368" style="fill: #262626; stroke: #262626"/>
      </g>
     </g>
     <g id="text_13">
      <!-- 0.8 -->
      <g style="fill: #262626" transform="translate(69.468 121.517437) scale(0.088 -0.088)">
       <defs>
        <path id="ArialMT-38" d="M 1131 2484 
Q 781 2613 612 2850 
Q 444 3088 444 3419 
Q 444 3919 803 4259 
Q 1163 4600 1759 4600 
Q 2359 4600 2725 4251 
Q 3091 3903 3091 3403 
Q 3091 3084 2923 2848 
Q 2756 2613 2416 2484 
Q 2838 2347 3058 2040 
Q 3278 1734 3278 1309 
Q 3278 722 2862 322 
Q 2447 -78 1769 -78 
Q 1091 -78 675 323 
Q 259 725 259 1325 
Q 259 1772 486 2073 
Q 713 2375 1131 2484 
z
M 1019 3438 
Q 1019 3113 1228 2906 
Q 1438 2700 1772 2700 
Q 2097 2700 2305 2904 
Q 2513 3109 2513 3406 
Q 2513 3716 2298 3927 
Q 2084 4138 1766 4138 
Q 1444 4138 1231 3931 
Q 1019 3725 1019 3438 
z
M 838 1322 
Q 838 1081 952 856 
Q 1066 631 1291 507 
Q 1516 384 1775 384 
Q 2178 384 2440 643 
Q 2703 903 2703 1303 
Q 2703 1709 2433 1975 
Q 2163 2241 1756 2241 
Q 1359 2241 1098 1978 
Q 838 1716 838 1322 
z
" transform="scale(0.015625)"/>
       </defs>
       <use xlink:href="#ArialMT-30"/>
       <use xlink:href="#ArialMT-2e" x="55.615234"/>
       <use xlink:href="#ArialMT-38" x="83.398438"/>
      </g>
     </g>
    </g>
    <g id="ytick_6">
     <g id="line2d_15">
      <g>
       <use xlink:href="#m6a06164b44" x="90" y="51.84" style="fill: #262626; stroke: #262626"/>
      </g>
     </g>
     <g id="text_14">
      <!-- 1.0 -->
      <g style="fill: #262626" transform="translate(69.468 54.989438) scale(0.088 -0.088)">
       <use xlink:href="#ArialMT-31"/>
       <use xlink:href="#ArialMT-2e" x="55.615234"/>
       <use xlink:href="#ArialMT-30" x="83.398438"/>
      </g>
     </g>
    </g>
    <g id="text_15">
     <!-- percentage -->
     <g style="fill: #262626" transform="translate(63.4475 242.1765) rotate(-90) scale(0.096 -0.096)">
      <defs>
       <path id="ArialMT-70" d="M 422 -1272 
L 422 3319 
L 934 3319 
L 934 2888 
Q 1116 3141 1344 3267 
Q 1572 3394 1897 3394 
Q 2322 3394 2647 3175 
Q 2972 2956 3137 2557 
Q 3303 2159 3303 1684 
Q 3303 1175 3120 767 
Q 2938 359 2589 142 
Q 2241 -75 1856 -75 
Q 1575 -75 1351 44 
Q 1128 163 984 344 
L 984 -1272 
L 422 -1272 
z
M 931 1641 
Q 931 1000 1190 694 
Q 1450 388 1819 388 
Q 2194 388 2461 705 
Q 2728 1022 2728 1688 
Q 2728 2322 2467 2637 
Q 2206 2953 1844 2953 
Q 1484 2953 1207 2617 
Q 931 2281 931 1641 
z
" transform="scale(0.015625)"/>
       <path id="ArialMT-65" d="M 2694 1069 
L 3275 997 
Q 3138 488 2766 206 
Q 2394 -75 1816 -75 
Q 1088 -75 661 373 
Q 234 822 234 1631 
Q 234 2469 665 2931 
Q 1097 3394 1784 3394 
Q 2450 3394 2872 2941 
Q 3294 2488 3294 1666 
Q 3294 1616 3291 1516 
L 816 1516 
Q 847 969 1125 678 
Q 1403 388 1819 388 
Q 2128 388 2347 550 
Q 2566 713 2694 1069 
z
M 847 1978 
L 2700 1978 
Q 2663 2397 2488 2606 
Q 2219 2931 1791 2931 
Q 1403 2931 1139 2672 
Q 875 2413 847 1978 
z
" transform="scale(0.015625)"/>
       <path id="ArialMT-72" d="M 416 0 
L 416 3319 
L 922 3319 
L 922 2816 
Q 1116 3169 1280 3281 
Q 1444 3394 1641 3394 
Q 1925 3394 2219 3213 
L 2025 2691 
Q 1819 2813 1613 2813 
Q 1428 2813 1281 2702 
Q 1134 2591 1072 2394 
Q 978 2094 978 1738 
L 978 0 
L 416 0 
z
" transform="scale(0.015625)"/>
       <path id="ArialMT-63" d="M 2588 1216 
L 3141 1144 
Q 3050 572 2676 248 
Q 2303 -75 1759 -75 
Q 1078 -75 664 370 
Q 250 816 250 1647 
Q 250 2184 428 2587 
Q 606 2991 970 3192 
Q 1334 3394 1763 3394 
Q 2303 3394 2647 3120 
Q 2991 2847 3088 2344 
L 2541 2259 
Q 2463 2594 2264 2762 
Q 2066 2931 1784 2931 
Q 1359 2931 1093 2626 
Q 828 2322 828 1663 
Q 828 994 1084 691 
Q 1341 388 1753 388 
Q 2084 388 2306 591 
Q 2528 794 2588 1216 
z
" transform="scale(0.015625)"/>
       <path id="ArialMT-6e" d="M 422 0 
L 422 3319 
L 928 3319 
L 928 2847 
Q 1294 3394 1984 3394 
Q 2284 3394 2536 3286 
Q 2788 3178 2913 3003 
Q 3038 2828 3088 2588 
Q 3119 2431 3119 2041 
L 3119 0 
L 2556 0 
L 2556 2019 
Q 2556 2363 2490 2533 
Q 2425 2703 2258 2804 
Q 2091 2906 1866 2906 
Q 1506 2906 1245 2678 
Q 984 2450 984 1813 
L 984 0 
L 422 0 
z
" transform="scale(0.015625)"/>
       <path id="ArialMT-74" d="M 1650 503 
L 1731 6 
Q 1494 -44 1306 -44 
Q 1000 -44 831 53 
Q 663 150 594 308 
Q 525 466 525 972 
L 525 2881 
L 113 2881 
L 113 3319 
L 525 3319 
L 525 4141 
L 1084 4478 
L 1084 3319 
L 1650 3319 
L 1650 2881 
L 1084 2881 
L 1084 941 
Q 1084 700 1114 631 
Q 1144 563 1211 522 
Q 1278 481 1403 481 
Q 1497 481 1650 503 
z
" transform="scale(0.015625)"/>
       <path id="ArialMT-61" d="M 2588 409 
Q 2275 144 1986 34 
Q 1697 -75 1366 -75 
Q 819 -75 525 192 
Q 231 459 231 875 
Q 231 1119 342 1320 
Q 453 1522 633 1644 
Q 813 1766 1038 1828 
Q 1203 1872 1538 1913 
Q 2219 1994 2541 2106 
Q 2544 2222 2544 2253 
Q 2544 2597 2384 2738 
Q 2169 2928 1744 2928 
Q 1347 2928 1158 2789 
Q 969 2650 878 2297 
L 328 2372 
Q 403 2725 575 2942 
Q 747 3159 1072 3276 
Q 1397 3394 1825 3394 
Q 2250 3394 2515 3294 
Q 2781 3194 2906 3042 
Q 3031 2891 3081 2659 
Q 3109 2516 3109 2141 
L 3109 1391 
Q 3109 606 3145 398 
Q 3181 191 3288 0 
L 2700 0 
Q 2613 175 2588 409 
z
M 2541 1666 
Q 2234 1541 1622 1453 
Q 1275 1403 1131 1340 
Q 988 1278 909 1158 
Q 831 1038 831 891 
Q 831 666 1001 516 
Q 1172 366 1500 366 
Q 1825 366 2078 508 
Q 2331 650 2450 897 
Q 2541 1088 2541 1459 
L 2541 1666 
z
" transform="scale(0.015625)"/>
       <path id="ArialMT-67" d="M 319 -275 
L 866 -356 
Q 900 -609 1056 -725 
Q 1266 -881 1628 -881 
Q 2019 -881 2231 -725 
Q 2444 -569 2519 -288 
Q 2563 -116 2559 434 
Q 2191 0 1641 0 
Q 956 0 581 494 
Q 206 988 206 1678 
Q 206 2153 378 2554 
Q 550 2956 876 3175 
Q 1203 3394 1644 3394 
Q 2231 3394 2613 2919 
L 2613 3319 
L 3131 3319 
L 3131 450 
Q 3131 -325 2973 -648 
Q 2816 -972 2473 -1159 
Q 2131 -1347 1631 -1347 
Q 1038 -1347 672 -1080 
Q 306 -813 319 -275 
z
M 784 1719 
Q 784 1066 1043 766 
Q 1303 466 1694 466 
Q 2081 466 2343 764 
Q 2606 1063 2606 1700 
Q 2606 2309 2336 2618 
Q 2066 2928 1684 2928 
Q 1309 2928 1046 2623 
Q 784 2319 784 1719 
z
" transform="scale(0.015625)"/>
      </defs>
      <use xlink:href="#ArialMT-70"/>
      <use xlink:href="#ArialMT-65" x="55.615234"/>
      <use xlink:href="#ArialMT-72" x="111.230469"/>
      <use xlink:href="#ArialMT-63" x="144.53125"/>
      <use xlink:href="#ArialMT-65" x="194.53125"/>
      <use xlink:href="#ArialMT-6e" x="250.146484"/>
      <use xlink:href="#ArialMT-74" x="305.761719"/>
      <use xlink:href="#ArialMT-61" x="333.544922"/>
      <use xlink:href="#ArialMT-67" x="389.160156"/>
      <use xlink:href="#ArialMT-65" x="444.775391"/>
     </g>
    </g>
   </g>
   <g id="line2d_16">
    <path d="M 369 384.48 
L 369 51.84 
" clip-path="url(#p07077ef2ea)" style="fill: none; stroke: #daa520; stroke-width: 2; stroke-linecap: round"/>
   </g>
   <g id="patch_118">
    <path d="M 90 384.48 
L 648 384.48 
" style="fill: none; stroke: #262626; stroke-linejoin: miter; stroke-linecap: square"/>
   </g>
   <g id="patch_119">
    <path d="M 90 51.84 
L 648 51.84 
" style="fill: none; stroke: #262626; stroke-linejoin: miter; stroke-linecap: square"/>
   </g>
   <g id="text_16">
    <!-- Ctrl vs. MMP9 probability PPSM n=55 -->
    <g style="fill: #262626" transform="translate(288.5745 45.84) scale(0.096 -0.096)">
     <defs>
      <path id="ArialMT-43" d="M 3763 1606 
L 4369 1453 
Q 4178 706 3683 314 
Q 3188 -78 2472 -78 
Q 1731 -78 1267 223 
Q 803 525 561 1097 
Q 319 1669 319 2325 
Q 319 3041 592 3573 
Q 866 4106 1370 4382 
Q 1875 4659 2481 4659 
Q 3169 4659 3637 4309 
Q 4106 3959 4291 3325 
L 3694 3184 
Q 3534 3684 3231 3912 
Q 2928 4141 2469 4141 
Q 1941 4141 1586 3887 
Q 1231 3634 1087 3207 
Q 944 2781 944 2328 
Q 944 1744 1114 1308 
Q 1284 872 1643 656 
Q 2003 441 2422 441 
Q 2931 441 3284 734 
Q 3638 1028 3763 1606 
z
" transform="scale(0.015625)"/>
      <path id="ArialMT-6c" d="M 409 0 
L 409 4581 
L 972 4581 
L 972 0 
L 409 0 
z
" transform="scale(0.015625)"/>
      <path id="ArialMT-20" transform="scale(0.015625)"/>
      <path id="ArialMT-76" d="M 1344 0 
L 81 3319 
L 675 3319 
L 1388 1331 
Q 1503 1009 1600 663 
Q 1675 925 1809 1294 
L 2547 3319 
L 3125 3319 
L 1869 0 
L 1344 0 
z
" transform="scale(0.015625)"/>
      <path id="ArialMT-73" d="M 197 991 
L 753 1078 
Q 800 744 1014 566 
Q 1228 388 1613 388 
Q 2000 388 2187 545 
Q 2375 703 2375 916 
Q 2375 1106 2209 1216 
Q 2094 1291 1634 1406 
Q 1016 1563 777 1677 
Q 538 1791 414 1992 
Q 291 2194 291 2438 
Q 291 2659 392 2848 
Q 494 3038 669 3163 
Q 800 3259 1026 3326 
Q 1253 3394 1513 3394 
Q 1903 3394 2198 3281 
Q 2494 3169 2634 2976 
Q 2775 2784 2828 2463 
L 2278 2388 
Q 2241 2644 2061 2787 
Q 1881 2931 1553 2931 
Q 1166 2931 1000 2803 
Q 834 2675 834 2503 
Q 834 2394 903 2306 
Q 972 2216 1119 2156 
Q 1203 2125 1616 2013 
Q 2213 1853 2448 1751 
Q 2684 1650 2818 1456 
Q 2953 1263 2953 975 
Q 2953 694 2789 445 
Q 2625 197 2315 61 
Q 2006 -75 1616 -75 
Q 969 -75 630 194 
Q 291 463 197 991 
z
" transform="scale(0.015625)"/>
      <path id="ArialMT-4d" d="M 475 0 
L 475 4581 
L 1388 4581 
L 2472 1338 
Q 2622 884 2691 659 
Q 2769 909 2934 1394 
L 4031 4581 
L 4847 4581 
L 4847 0 
L 4263 0 
L 4263 3834 
L 2931 0 
L 2384 0 
L 1059 3900 
L 1059 0 
L 475 0 
z
" transform="scale(0.015625)"/>
      <path id="ArialMT-39" d="M 350 1059 
L 891 1109 
Q 959 728 1153 556 
Q 1347 384 1650 384 
Q 1909 384 2104 503 
Q 2300 622 2425 820 
Q 2550 1019 2634 1356 
Q 2719 1694 2719 2044 
Q 2719 2081 2716 2156 
Q 2547 1888 2255 1720 
Q 1963 1553 1622 1553 
Q 1053 1553 659 1965 
Q 266 2378 266 3053 
Q 266 3750 677 4175 
Q 1088 4600 1706 4600 
Q 2153 4600 2523 4359 
Q 2894 4119 3086 3673 
Q 3278 3228 3278 2384 
Q 3278 1506 3087 986 
Q 2897 466 2520 194 
Q 2144 -78 1638 -78 
Q 1100 -78 759 220 
Q 419 519 350 1059 
z
M 2653 3081 
Q 2653 3566 2395 3850 
Q 2138 4134 1775 4134 
Q 1400 4134 1122 3828 
Q 844 3522 844 3034 
Q 844 2597 1108 2323 
Q 1372 2050 1759 2050 
Q 2150 2050 2401 2323 
Q 2653 2597 2653 3081 
z
" transform="scale(0.015625)"/>
      <path id="ArialMT-6f" d="M 213 1659 
Q 213 2581 725 3025 
Q 1153 3394 1769 3394 
Q 2453 3394 2887 2945 
Q 3322 2497 3322 1706 
Q 3322 1066 3130 698 
Q 2938 331 2570 128 
Q 2203 -75 1769 -75 
Q 1072 -75 642 372 
Q 213 819 213 1659 
z
M 791 1659 
Q 791 1022 1069 705 
Q 1347 388 1769 388 
Q 2188 388 2466 706 
Q 2744 1025 2744 1678 
Q 2744 2294 2464 2611 
Q 2184 2928 1769 2928 
Q 1347 2928 1069 2612 
Q 791 2297 791 1659 
z
" transform="scale(0.015625)"/>
      <path id="ArialMT-62" d="M 941 0 
L 419 0 
L 419 4581 
L 981 4581 
L 981 2947 
Q 1338 3394 1891 3394 
Q 2197 3394 2470 3270 
Q 2744 3147 2920 2923 
Q 3097 2700 3197 2384 
Q 3297 2069 3297 1709 
Q 3297 856 2875 390 
Q 2453 -75 1863 -75 
Q 1275 -75 941 416 
L 941 0 
z
M 934 1684 
Q 934 1088 1097 822 
Q 1363 388 1816 388 
Q 2184 388 2453 708 
Q 2722 1028 2722 1663 
Q 2722 2313 2464 2622 
Q 2206 2931 1841 2931 
Q 1472 2931 1203 2611 
Q 934 2291 934 1684 
z
" transform="scale(0.015625)"/>
      <path id="ArialMT-69" d="M 425 3934 
L 425 4581 
L 988 4581 
L 988 3934 
L 425 3934 
z
M 425 0 
L 425 3319 
L 988 3319 
L 988 0 
L 425 0 
z
" transform="scale(0.015625)"/>
      <path id="ArialMT-79" d="M 397 -1278 
L 334 -750 
Q 519 -800 656 -800 
Q 844 -800 956 -737 
Q 1069 -675 1141 -563 
Q 1194 -478 1313 -144 
Q 1328 -97 1363 -6 
L 103 3319 
L 709 3319 
L 1400 1397 
Q 1534 1031 1641 628 
Q 1738 1016 1872 1384 
L 2581 3319 
L 3144 3319 
L 1881 -56 
Q 1678 -603 1566 -809 
Q 1416 -1088 1222 -1217 
Q 1028 -1347 759 -1347 
Q 597 -1347 397 -1278 
z
" transform="scale(0.015625)"/>
      <path id="ArialMT-53" d="M 288 1472 
L 859 1522 
Q 900 1178 1048 958 
Q 1197 738 1509 602 
Q 1822 466 2213 466 
Q 2559 466 2825 569 
Q 3091 672 3220 851 
Q 3350 1031 3350 1244 
Q 3350 1459 3225 1620 
Q 3100 1781 2813 1891 
Q 2628 1963 1997 2114 
Q 1366 2266 1113 2400 
Q 784 2572 623 2826 
Q 463 3081 463 3397 
Q 463 3744 659 4045 
Q 856 4347 1234 4503 
Q 1613 4659 2075 4659 
Q 2584 4659 2973 4495 
Q 3363 4331 3572 4012 
Q 3781 3694 3797 3291 
L 3216 3247 
Q 3169 3681 2898 3903 
Q 2628 4125 2100 4125 
Q 1550 4125 1298 3923 
Q 1047 3722 1047 3438 
Q 1047 3191 1225 3031 
Q 1400 2872 2139 2705 
Q 2878 2538 3153 2413 
Q 3553 2228 3743 1945 
Q 3934 1663 3934 1294 
Q 3934 928 3725 604 
Q 3516 281 3123 101 
Q 2731 -78 2241 -78 
Q 1619 -78 1198 103 
Q 778 284 539 648 
Q 300 1013 288 1472 
z
" transform="scale(0.015625)"/>
      <path id="ArialMT-3d" d="M 3381 2694 
L 356 2694 
L 356 3219 
L 3381 3219 
L 3381 2694 
z
M 3381 1303 
L 356 1303 
L 356 1828 
L 3381 1828 
L 3381 1303 
z
" transform="scale(0.015625)"/>
      <path id="ArialMT-35" d="M 266 1200 
L 856 1250 
Q 922 819 1161 601 
Q 1400 384 1738 384 
Q 2144 384 2425 690 
Q 2706 997 2706 1503 
Q 2706 1984 2436 2262 
Q 2166 2541 1728 2541 
Q 1456 2541 1237 2417 
Q 1019 2294 894 2097 
L 366 2166 
L 809 4519 
L 3088 4519 
L 3088 3981 
L 1259 3981 
L 1013 2750 
Q 1425 3038 1878 3038 
Q 2478 3038 2890 2622 
Q 3303 2206 3303 1553 
Q 3303 931 2941 478 
Q 2500 -78 1738 -78 
Q 1113 -78 717 272 
Q 322 622 266 1200 
z
" transform="scale(0.015625)"/>
     </defs>
     <use xlink:href="#ArialMT-43"/>
     <use xlink:href="#ArialMT-74" x="72.216797"/>
     <use xlink:href="#ArialMT-72" x="100"/>
     <use xlink:href="#ArialMT-6c" x="133.300781"/>
     <use xlink:href="#ArialMT-20" x="155.517578"/>
     <use xlink:href="#ArialMT-76" x="183.300781"/>
     <use xlink:href="#ArialMT-73" x="233.300781"/>
     <use xlink:href="#ArialMT-2e" x="283.300781"/>
     <use xlink:href="#ArialMT-20" x="311.083984"/>
     <use xlink:href="#ArialMT-4d" x="338.867188"/>
     <use xlink:href="#ArialMT-4d" x="422.167969"/>
     <use xlink:href="#ArialMT-50" x="505.46875"/>
     <use xlink:href="#ArialMT-39" x="572.167969"/>
     <use xlink:href="#ArialMT-20" x="627.783203"/>
     <use xlink:href="#ArialMT-70" x="655.566406"/>
     <use xlink:href="#ArialMT-72" x="711.181641"/>
     <use xlink:href="#ArialMT-6f" x="744.482422"/>
     <use xlink:href="#ArialMT-62" x="800.097656"/>
     <use xlink:href="#ArialMT-61" x="855.712891"/>
     <use xlink:href="#ArialMT-62" x="911.328125"/>
     <use xlink:href="#ArialMT-69" x="966.943359"/>
     <use xlink:href="#ArialMT-6c" x="989.160156"/>
     <use xlink:href="#ArialMT-69" x="1011.376953"/>
     <use xlink:href="#ArialMT-74" x="1033.59375"/>
     <use xlink:href="#ArialMT-79" x="1061.376953"/>
     <use xlink:href="#ArialMT-20" x="1111.376953"/>
     <use xlink:href="#ArialMT-50" x="1139.160156"/>
     <use xlink:href="#ArialMT-50" x="1205.859375"/>
     <use xlink:href="#ArialMT-53" x="1272.558594"/>
     <use xlink:href="#ArialMT-4d" x="1339.257812"/>
     <use xlink:href="#ArialMT-20" x="1422.558594"/>
     <use xlink:href="#ArialMT-6e" x="1450.341797"/>
     <use xlink:href="#ArialMT-3d" x="1505.957031"/>
     <use xlink:href="#ArialMT-35" x="1564.355469"/>
     <use xlink:href="#ArialMT-35" x="1619.970703"/>
    </g>
   </g>
  </g>
 </g>
 <defs>
  <clipPath id="p07077ef2ea">
   <rect x="90" y="51.84" width="558" height="332.64"/>
  </clipPath>
 </defs>
</svg>
