<?xml version="1.0" encoding="utf-8" standalone="no"?>
<!DOCTYPE svg PUBLIC "-//W3C//DTD SVG 1.1//EN"
  "http://www.w3.org/Graphics/SVG/1.1/DTD/svg11.dtd">
<svg xmlns:xlink="http://www.w3.org/1999/xlink" width="460.8pt" height="345.6pt" viewBox="0 0 460.8 345.6" xmlns="http://www.w3.org/2000/svg" version="1.1">
 <metadata>
  <rdf:RDF xmlns:dc="http://purl.org/dc/elements/1.1/" xmlns:cc="http://creativecommons.org/ns#" xmlns:rdf="http://www.w3.org/1999/02/22-rdf-syntax-ns#">
   <cc:Work>
    <dc:type rdf:resource="http://purl.org/dc/dcmitype/StillImage"/>
    <dc:date>2023-07-04T11:23:33.643927</dc:date>
    <dc:format>image/svg+xml</dc:format>
    <dc:creator>
     <cc:Agent>
      <dc:title>Matplotlib v3.7.1, https://matplotlib.org/</dc:title>
     </cc:Agent>
    </dc:creator>
   </cc:Work>
  </rdf:RDF>
 </metadata>
 <defs>
  <style type="text/css">*{stroke-linejoin: round; stroke-linecap: butt}</style>
 </defs>
 <g id="figure_1">
  <g id="patch_1">
   <path d="M 0 345.6 
L 460.8 345.6 
L 460.8 0 
L 0 0 
z
" style="fill: #ffffff"/>
  </g>
  <g id="axes_1">
   <g id="patch_2">
    <path d="M 299.52 82.368 
C 281.294656 82.368 263.472467 87.774302 248.318647 97.899761 
C 233.164827 108.025219 221.3498 122.421872 214.375262 139.259895 
C 207.400725 156.097918 205.57524 174.632375 209.130829 192.507524 
C 212.686417 210.382674 221.465774 226.807696 234.353039 239.694961 
L 299.52 174.528 
z
" style="fill: #4682b4"/>
   </g>
   <g id="patch_3">
    <path d="M 227.836343 246.211657 
C 227.836343 246.211657 227.836343 246.211657 227.836343 246.211657 
L 293.003304 181.044696 
z
" style="fill: #daa520"/>
   </g>
   <g id="patch_4">
    <path d="M 234.353039 239.694961 
C 234.353039 239.694961 234.353039 239.694961 234.353039 239.694961 
L 299.52 174.528 
z
" style="fill: #708090"/>
   </g>
   <g id="patch_5">
    <path d="M 227.836343 246.211657 
C 227.836343 246.211657 227.836343 246.211657 227.836343 246.211657 
L 293.003304 181.044696 
z
" style="fill: #228b22"/>
   </g>
   <g id="patch_6">
    <path d="M 234.353039 239.694961 
C 251.629763 256.971685 275.087022 266.688 299.52 266.688 
C 323.952978 266.688 347.410237 256.971685 364.686961 239.694961 
L 299.52 174.528 
z
" style="fill: #ee82ee"/>
   </g>
   <g id="patch_7">
    <path d="M 364.686961 239.694961 
C 377.574226 226.807696 386.353583 210.382674 389.909171 192.507524 
C 393.46476 174.632375 391.639275 156.097918 384.664738 139.259895 
C 377.6902 122.421872 365.875173 108.025219 350.721353 97.899761 
C 335.567533 87.774302 317.745344 82.368 299.52 82.368 
L 299.52 174.528 
z
" style="fill: #ff6347"/>
   </g>
   <g id="matplotlib.axis_1"/>
   <g id="matplotlib.axis_2"/>
   <g id="legend_1">
    <g id="patch_8">
     <path d="M 74.72 210.01425 
L 209.7075 210.01425 
Q 211.3075 210.01425 211.3075 208.41425 
L 211.3075 140.64175 
Q 211.3075 139.04175 209.7075 139.04175 
L 74.72 139.04175 
Q 73.12 139.04175 73.12 140.64175 
L 73.12 208.41425 
Q 73.12 210.01425 74.72 210.01425 
z
" style="fill: #ffffff; opacity: 0.8; stroke: #cccccc; stroke-linejoin: miter"/>
    </g>
    <g id="patch_9">
     <path d="M 76.32 148.0655 
L 92.32 148.0655 
L 92.32 142.4655 
L 76.32 142.4655 
z
" style="fill: #4682b4"/>
    </g>
    <g id="text_1">
     <!-- signal removed - 37.50 % -->
     <g transform="translate(98.72 148.0655) scale(0.08 -0.08)">
      <defs>
       <path id="ArialMT-73" d="M 197 991 
L 753 1078 
Q 800 744 1014 566 
Q 1228 388 1613 388 
Q 2000 388 2187 545 
Q 2375 703 2375 916 
Q 2375 1106 2209 1216 
Q 2094 1291 1634 1406 
Q 1016 1563 777 1677 
Q 538 1791 414 1992 
Q 291 2194 291 2438 
Q 291 2659 392 2848 
Q 494 3038 669 3163 
Q 800 3259 1026 3326 
Q 1253 3394 1513 3394 
Q 1903 3394 2198 3281 
Q 2494 3169 2634 2976 
Q 2775 2784 2828 2463 
L 2278 2388 
Q 2241 2644 2061 2787 
Q 1881 2931 1553 2931 
Q 1166 2931 1000 2803 
Q 834 2675 834 2503 
Q 834 2394 903 2306 
Q 972 2216 1119 2156 
Q 1203 2125 1616 2013 
Q 2213 1853 2448 1751 
Q 2684 1650 2818 1456 
Q 2953 1263 2953 975 
Q 2953 694 2789 445 
Q 2625 197 2315 61 
Q 2006 -75 1616 -75 
Q 969 -75 630 194 
Q 291 463 197 991 
z
" transform="scale(0.015625)"/>
       <path id="ArialMT-69" d="M 425 3934 
L 425 4581 
L 988 4581 
L 988 3934 
L 425 3934 
z
M 425 0 
L 425 3319 
L 988 3319 
L 988 0 
L 425 0 
z
" transform="scale(0.015625)"/>
       <path id="ArialMT-67" d="M 319 -275 
L 866 -356 
Q 900 -609 1056 -725 
Q 1266 -881 1628 -881 
Q 2019 -881 2231 -725 
Q 2444 -569 2519 -288 
Q 2563 -116 2559 434 
Q 2191 0 1641 0 
Q 956 0 581 494 
Q 206 988 206 1678 
Q 206 2153 378 2554 
Q 550 2956 876 3175 
Q 1203 3394 1644 3394 
Q 2231 3394 2613 2919 
L 2613 3319 
L 3131 3319 
L 3131 450 
Q 3131 -325 2973 -648 
Q 2816 -972 2473 -1159 
Q 2131 -1347 1631 -1347 
Q 1038 -1347 672 -1080 
Q 306 -813 319 -275 
z
M 784 1719 
Q 784 1066 1043 766 
Q 1303 466 1694 466 
Q 2081 466 2343 764 
Q 2606 1063 2606 1700 
Q 2606 2309 2336 2618 
Q 2066 2928 1684 2928 
Q 1309 2928 1046 2623 
Q 784 2319 784 1719 
z
" transform="scale(0.015625)"/>
       <path id="ArialMT-6e" d="M 422 0 
L 422 3319 
L 928 3319 
L 928 2847 
Q 1294 3394 1984 3394 
Q 2284 3394 2536 3286 
Q 2788 3178 2913 3003 
Q 3038 2828 3088 2588 
Q 3119 2431 3119 2041 
L 3119 0 
L 2556 0 
L 2556 2019 
Q 2556 2363 2490 2533 
Q 2425 2703 2258 2804 
Q 2091 2906 1866 2906 
Q 1506 2906 1245 2678 
Q 984 2450 984 1813 
L 984 0 
L 422 0 
z
" transform="scale(0.015625)"/>
       <path id="ArialMT-61" d="M 2588 409 
Q 2275 144 1986 34 
Q 1697 -75 1366 -75 
Q 819 -75 525 192 
Q 231 459 231 875 
Q 231 1119 342 1320 
Q 453 1522 633 1644 
Q 813 1766 1038 1828 
Q 1203 1872 1538 1913 
Q 2219 1994 2541 2106 
Q 2544 2222 2544 2253 
Q 2544 2597 2384 2738 
Q 2169 2928 1744 2928 
Q 1347 2928 1158 2789 
Q 969 2650 878 2297 
L 328 2372 
Q 403 2725 575 2942 
Q 747 3159 1072 3276 
Q 1397 3394 1825 3394 
Q 2250 3394 2515 3294 
Q 2781 3194 2906 3042 
Q 3031 2891 3081 2659 
Q 3109 2516 3109 2141 
L 3109 1391 
Q 3109 606 3145 398 
Q 3181 191 3288 0 
L 2700 0 
Q 2613 175 2588 409 
z
M 2541 1666 
Q 2234 1541 1622 1453 
Q 1275 1403 1131 1340 
Q 988 1278 909 1158 
Q 831 1038 831 891 
Q 831 666 1001 516 
Q 1172 366 1500 366 
Q 1825 366 2078 508 
Q 2331 650 2450 897 
Q 2541 1088 2541 1459 
L 2541 1666 
z
" transform="scale(0.015625)"/>
       <path id="ArialMT-6c" d="M 409 0 
L 409 4581 
L 972 4581 
L 972 0 
L 409 0 
z
" transform="scale(0.015625)"/>
       <path id="ArialMT-20" transform="scale(0.015625)"/>
       <path id="ArialMT-72" d="M 416 0 
L 416 3319 
L 922 3319 
L 922 2816 
Q 1116 3169 1280 3281 
Q 1444 3394 1641 3394 
Q 1925 3394 2219 3213 
L 2025 2691 
Q 1819 2813 1613 2813 
Q 1428 2813 1281 2702 
Q 1134 2591 1072 2394 
Q 978 2094 978 1738 
L 978 0 
L 416 0 
z
" transform="scale(0.015625)"/>
       <path id="ArialMT-65" d="M 2694 1069 
L 3275 997 
Q 3138 488 2766 206 
Q 2394 -75 1816 -75 
Q 1088 -75 661 373 
Q 234 822 234 1631 
Q 234 2469 665 2931 
Q 1097 3394 1784 3394 
Q 2450 3394 2872 2941 
Q 3294 2488 3294 1666 
Q 3294 1616 3291 1516 
L 816 1516 
Q 847 969 1125 678 
Q 1403 388 1819 388 
Q 2128 388 2347 550 
Q 2566 713 2694 1069 
z
M 847 1978 
L 2700 1978 
Q 2663 2397 2488 2606 
Q 2219 2931 1791 2931 
Q 1403 2931 1139 2672 
Q 875 2413 847 1978 
z
" transform="scale(0.015625)"/>
       <path id="ArialMT-6d" d="M 422 0 
L 422 3319 
L 925 3319 
L 925 2853 
Q 1081 3097 1340 3245 
Q 1600 3394 1931 3394 
Q 2300 3394 2536 3241 
Q 2772 3088 2869 2813 
Q 3263 3394 3894 3394 
Q 4388 3394 4653 3120 
Q 4919 2847 4919 2278 
L 4919 0 
L 4359 0 
L 4359 2091 
Q 4359 2428 4304 2576 
Q 4250 2725 4106 2815 
Q 3963 2906 3769 2906 
Q 3419 2906 3187 2673 
Q 2956 2441 2956 1928 
L 2956 0 
L 2394 0 
L 2394 2156 
Q 2394 2531 2256 2718 
Q 2119 2906 1806 2906 
Q 1569 2906 1367 2781 
Q 1166 2656 1075 2415 
Q 984 2175 984 1722 
L 984 0 
L 422 0 
z
" transform="scale(0.015625)"/>
       <path id="ArialMT-6f" d="M 213 1659 
Q 213 2581 725 3025 
Q 1153 3394 1769 3394 
Q 2453 3394 2887 2945 
Q 3322 2497 3322 1706 
Q 3322 1066 3130 698 
Q 2938 331 2570 128 
Q 2203 -75 1769 -75 
Q 1072 -75 642 372 
Q 213 819 213 1659 
z
M 791 1659 
Q 791 1022 1069 705 
Q 1347 388 1769 388 
Q 2188 388 2466 706 
Q 2744 1025 2744 1678 
Q 2744 2294 2464 2611 
Q 2184 2928 1769 2928 
Q 1347 2928 1069 2612 
Q 791 2297 791 1659 
z
" transform="scale(0.015625)"/>
       <path id="ArialMT-76" d="M 1344 0 
L 81 3319 
L 675 3319 
L 1388 1331 
Q 1503 1009 1600 663 
Q 1675 925 1809 1294 
L 2547 3319 
L 3125 3319 
L 1869 0 
L 1344 0 
z
" transform="scale(0.015625)"/>
       <path id="ArialMT-64" d="M 2575 0 
L 2575 419 
Q 2259 -75 1647 -75 
Q 1250 -75 917 144 
Q 584 363 401 755 
Q 219 1147 219 1656 
Q 219 2153 384 2558 
Q 550 2963 881 3178 
Q 1213 3394 1622 3394 
Q 1922 3394 2156 3267 
Q 2391 3141 2538 2938 
L 2538 4581 
L 3097 4581 
L 3097 0 
L 2575 0 
z
M 797 1656 
Q 797 1019 1065 703 
Q 1334 388 1700 388 
Q 2069 388 2326 689 
Q 2584 991 2584 1609 
Q 2584 2291 2321 2609 
Q 2059 2928 1675 2928 
Q 1300 2928 1048 2622 
Q 797 2316 797 1656 
z
" transform="scale(0.015625)"/>
       <path id="ArialMT-2d" d="M 203 1375 
L 203 1941 
L 1931 1941 
L 1931 1375 
L 203 1375 
z
" transform="scale(0.015625)"/>
       <path id="ArialMT-33" d="M 269 1209 
L 831 1284 
Q 928 806 1161 595 
Q 1394 384 1728 384 
Q 2125 384 2398 659 
Q 2672 934 2672 1341 
Q 2672 1728 2419 1979 
Q 2166 2231 1775 2231 
Q 1616 2231 1378 2169 
L 1441 2663 
Q 1497 2656 1531 2656 
Q 1891 2656 2178 2843 
Q 2466 3031 2466 3422 
Q 2466 3731 2256 3934 
Q 2047 4138 1716 4138 
Q 1388 4138 1169 3931 
Q 950 3725 888 3313 
L 325 3413 
Q 428 3978 793 4289 
Q 1159 4600 1703 4600 
Q 2078 4600 2393 4439 
Q 2709 4278 2876 4000 
Q 3044 3722 3044 3409 
Q 3044 3113 2884 2869 
Q 2725 2625 2413 2481 
Q 2819 2388 3044 2092 
Q 3269 1797 3269 1353 
Q 3269 753 2831 336 
Q 2394 -81 1725 -81 
Q 1122 -81 723 278 
Q 325 638 269 1209 
z
" transform="scale(0.015625)"/>
       <path id="ArialMT-37" d="M 303 3981 
L 303 4522 
L 3269 4522 
L 3269 4084 
Q 2831 3619 2401 2847 
Q 1972 2075 1738 1259 
Q 1569 684 1522 0 
L 944 0 
Q 953 541 1156 1306 
Q 1359 2072 1739 2783 
Q 2119 3494 2547 3981 
L 303 3981 
z
" transform="scale(0.015625)"/>
       <path id="ArialMT-2e" d="M 581 0 
L 581 641 
L 1222 641 
L 1222 0 
L 581 0 
z
" transform="scale(0.015625)"/>
       <path id="ArialMT-35" d="M 266 1200 
L 856 1250 
Q 922 819 1161 601 
Q 1400 384 1738 384 
Q 2144 384 2425 690 
Q 2706 997 2706 1503 
Q 2706 1984 2436 2262 
Q 2166 2541 1728 2541 
Q 1456 2541 1237 2417 
Q 1019 2294 894 2097 
L 366 2166 
L 809 4519 
L 3088 4519 
L 3088 3981 
L 1259 3981 
L 1013 2750 
Q 1425 3038 1878 3038 
Q 2478 3038 2890 2622 
Q 3303 2206 3303 1553 
Q 3303 931 2941 478 
Q 2500 -78 1738 -78 
Q 1113 -78 717 272 
Q 322 622 266 1200 
z
" transform="scale(0.015625)"/>
       <path id="ArialMT-30" d="M 266 2259 
Q 266 3072 433 3567 
Q 600 4063 929 4331 
Q 1259 4600 1759 4600 
Q 2128 4600 2406 4451 
Q 2684 4303 2865 4023 
Q 3047 3744 3150 3342 
Q 3253 2941 3253 2259 
Q 3253 1453 3087 958 
Q 2922 463 2592 192 
Q 2263 -78 1759 -78 
Q 1097 -78 719 397 
Q 266 969 266 2259 
z
M 844 2259 
Q 844 1131 1108 757 
Q 1372 384 1759 384 
Q 2147 384 2411 759 
Q 2675 1134 2675 2259 
Q 2675 3391 2411 3762 
Q 2147 4134 1753 4134 
Q 1366 4134 1134 3806 
Q 844 3388 844 2259 
z
" transform="scale(0.015625)"/>
       <path id="ArialMT-25" d="M 372 3481 
Q 372 3972 619 4315 
Q 866 4659 1334 4659 
Q 1766 4659 2048 4351 
Q 2331 4044 2331 3447 
Q 2331 2866 2045 2552 
Q 1759 2238 1341 2238 
Q 925 2238 648 2547 
Q 372 2856 372 3481 
z
M 1350 4272 
Q 1141 4272 1002 4090 
Q 863 3909 863 3425 
Q 863 2984 1003 2804 
Q 1144 2625 1350 2625 
Q 1563 2625 1702 2806 
Q 1841 2988 1841 3469 
Q 1841 3913 1700 4092 
Q 1559 4272 1350 4272 
z
M 1353 -169 
L 3859 4659 
L 4316 4659 
L 1819 -169 
L 1353 -169 
z
M 3334 1075 
Q 3334 1569 3581 1911 
Q 3828 2253 4300 2253 
Q 4731 2253 5014 1945 
Q 5297 1638 5297 1041 
Q 5297 459 5011 145 
Q 4725 -169 4303 -169 
Q 3888 -169 3611 142 
Q 3334 453 3334 1075 
z
M 4316 1866 
Q 4103 1866 3964 1684 
Q 3825 1503 3825 1019 
Q 3825 581 3965 400 
Q 4106 219 4313 219 
Q 4528 219 4667 400 
Q 4806 581 4806 1063 
Q 4806 1506 4665 1686 
Q 4525 1866 4316 1866 
z
" transform="scale(0.015625)"/>
      </defs>
      <use xlink:href="#ArialMT-73"/>
      <use xlink:href="#ArialMT-69" x="50"/>
      <use xlink:href="#ArialMT-67" x="72.216797"/>
      <use xlink:href="#ArialMT-6e" x="127.832031"/>
      <use xlink:href="#ArialMT-61" x="183.447266"/>
      <use xlink:href="#ArialMT-6c" x="239.0625"/>
      <use xlink:href="#ArialMT-20" x="261.279297"/>
      <use xlink:href="#ArialMT-72" x="289.0625"/>
      <use xlink:href="#ArialMT-65" x="322.363281"/>
      <use xlink:href="#ArialMT-6d" x="377.978516"/>
      <use xlink:href="#ArialMT-6f" x="461.279297"/>
      <use xlink:href="#ArialMT-76" x="516.894531"/>
      <use xlink:href="#ArialMT-65" x="566.894531"/>
      <use xlink:href="#ArialMT-64" x="622.509766"/>
      <use xlink:href="#ArialMT-20" x="678.125"/>
      <use xlink:href="#ArialMT-2d" x="705.908203"/>
      <use xlink:href="#ArialMT-20" x="739.208984"/>
      <use xlink:href="#ArialMT-33" x="766.992188"/>
      <use xlink:href="#ArialMT-37" x="822.607422"/>
      <use xlink:href="#ArialMT-2e" x="878.222656"/>
      <use xlink:href="#ArialMT-35" x="906.005859"/>
      <use xlink:href="#ArialMT-30" x="961.621094"/>
      <use xlink:href="#ArialMT-20" x="1017.236328"/>
      <use xlink:href="#ArialMT-25" x="1045.019531"/>
     </g>
    </g>
    <g id="patch_10">
     <path d="M 76.32 159.573 
L 92.32 159.573 
L 92.32 153.973 
L 76.32 153.973 
z
" style="fill: #ff6347"/>
    </g>
    <g id="text_2">
     <!-- within transit peptide - 37.50 % -->
     <g transform="translate(98.72 159.573) scale(0.08 -0.08)">
      <defs>
       <path id="ArialMT-77" d="M 1034 0 
L 19 3319 
L 600 3319 
L 1128 1403 
L 1325 691 
Q 1338 744 1497 1375 
L 2025 3319 
L 2603 3319 
L 3100 1394 
L 3266 759 
L 3456 1400 
L 4025 3319 
L 4572 3319 
L 3534 0 
L 2950 0 
L 2422 1988 
L 2294 2553 
L 1622 0 
L 1034 0 
z
" transform="scale(0.015625)"/>
       <path id="ArialMT-74" d="M 1650 503 
L 1731 6 
Q 1494 -44 1306 -44 
Q 1000 -44 831 53 
Q 663 150 594 308 
Q 525 466 525 972 
L 525 2881 
L 113 2881 
L 113 3319 
L 525 3319 
L 525 4141 
L 1084 4478 
L 1084 3319 
L 1650 3319 
L 1650 2881 
L 1084 2881 
L 1084 941 
Q 1084 700 1114 631 
Q 1144 563 1211 522 
Q 1278 481 1403 481 
Q 1497 481 1650 503 
z
" transform="scale(0.015625)"/>
       <path id="ArialMT-68" d="M 422 0 
L 422 4581 
L 984 4581 
L 984 2938 
Q 1378 3394 1978 3394 
Q 2347 3394 2619 3248 
Q 2891 3103 3008 2847 
Q 3125 2591 3125 2103 
L 3125 0 
L 2563 0 
L 2563 2103 
Q 2563 2525 2380 2717 
Q 2197 2909 1863 2909 
Q 1613 2909 1392 2779 
Q 1172 2650 1078 2428 
Q 984 2206 984 1816 
L 984 0 
L 422 0 
z
" transform="scale(0.015625)"/>
       <path id="ArialMT-70" d="M 422 -1272 
L 422 3319 
L 934 3319 
L 934 2888 
Q 1116 3141 1344 3267 
Q 1572 3394 1897 3394 
Q 2322 3394 2647 3175 
Q 2972 2956 3137 2557 
Q 3303 2159 3303 1684 
Q 3303 1175 3120 767 
Q 2938 359 2589 142 
Q 2241 -75 1856 -75 
Q 1575 -75 1351 44 
Q 1128 163 984 344 
L 984 -1272 
L 422 -1272 
z
M 931 1641 
Q 931 1000 1190 694 
Q 1450 388 1819 388 
Q 2194 388 2461 705 
Q 2728 1022 2728 1688 
Q 2728 2322 2467 2637 
Q 2206 2953 1844 2953 
Q 1484 2953 1207 2617 
Q 931 2281 931 1641 
z
" transform="scale(0.015625)"/>
      </defs>
      <use xlink:href="#ArialMT-77"/>
      <use xlink:href="#ArialMT-69" x="72.216797"/>
      <use xlink:href="#ArialMT-74" x="94.433594"/>
      <use xlink:href="#ArialMT-68" x="122.216797"/>
      <use xlink:href="#ArialMT-69" x="177.832031"/>
      <use xlink:href="#ArialMT-6e" x="200.048828"/>
      <use xlink:href="#ArialMT-20" x="255.664062"/>
      <use xlink:href="#ArialMT-74" x="283.447266"/>
      <use xlink:href="#ArialMT-72" x="311.230469"/>
      <use xlink:href="#ArialMT-61" x="344.53125"/>
      <use xlink:href="#ArialMT-6e" x="400.146484"/>
      <use xlink:href="#ArialMT-73" x="455.761719"/>
      <use xlink:href="#ArialMT-69" x="505.761719"/>
      <use xlink:href="#ArialMT-74" x="527.978516"/>
      <use xlink:href="#ArialMT-20" x="555.761719"/>
      <use xlink:href="#ArialMT-70" x="583.544922"/>
      <use xlink:href="#ArialMT-65" x="639.160156"/>
      <use xlink:href="#ArialMT-70" x="694.775391"/>
      <use xlink:href="#ArialMT-74" x="750.390625"/>
      <use xlink:href="#ArialMT-69" x="778.173828"/>
      <use xlink:href="#ArialMT-64" x="800.390625"/>
      <use xlink:href="#ArialMT-65" x="856.005859"/>
      <use xlink:href="#ArialMT-20" x="911.621094"/>
      <use xlink:href="#ArialMT-2d" x="939.404297"/>
      <use xlink:href="#ArialMT-20" x="972.705078"/>
      <use xlink:href="#ArialMT-33" x="1000.488281"/>
      <use xlink:href="#ArialMT-37" x="1056.103516"/>
      <use xlink:href="#ArialMT-2e" x="1111.71875"/>
      <use xlink:href="#ArialMT-35" x="1139.501953"/>
      <use xlink:href="#ArialMT-30" x="1195.117188"/>
      <use xlink:href="#ArialMT-20" x="1250.732422"/>
      <use xlink:href="#ArialMT-25" x="1278.515625"/>
     </g>
    </g>
    <g id="patch_11">
     <path d="M 76.32 170.88925 
L 92.32 170.88925 
L 92.32 165.28925 
L 76.32 165.28925 
z
" style="fill: #ee82ee"/>
    </g>
    <g id="text_3">
     <!-- transit removed - 25.00 % -->
     <g transform="translate(98.72 170.88925) scale(0.08 -0.08)">
      <defs>
       <path id="ArialMT-32" d="M 3222 541 
L 3222 0 
L 194 0 
Q 188 203 259 391 
Q 375 700 629 1000 
Q 884 1300 1366 1694 
Q 2113 2306 2375 2664 
Q 2638 3022 2638 3341 
Q 2638 3675 2398 3904 
Q 2159 4134 1775 4134 
Q 1369 4134 1125 3890 
Q 881 3647 878 3216 
L 300 3275 
Q 359 3922 746 4261 
Q 1134 4600 1788 4600 
Q 2447 4600 2831 4234 
Q 3216 3869 3216 3328 
Q 3216 3053 3103 2787 
Q 2991 2522 2730 2228 
Q 2469 1934 1863 1422 
Q 1356 997 1212 845 
Q 1069 694 975 541 
L 3222 541 
z
" transform="scale(0.015625)"/>
      </defs>
      <use xlink:href="#ArialMT-74"/>
      <use xlink:href="#ArialMT-72" x="27.783203"/>
      <use xlink:href="#ArialMT-61" x="61.083984"/>
      <use xlink:href="#ArialMT-6e" x="116.699219"/>
      <use xlink:href="#ArialMT-73" x="172.314453"/>
      <use xlink:href="#ArialMT-69" x="222.314453"/>
      <use xlink:href="#ArialMT-74" x="244.53125"/>
      <use xlink:href="#ArialMT-20" x="272.314453"/>
      <use xlink:href="#ArialMT-72" x="300.097656"/>
      <use xlink:href="#ArialMT-65" x="333.398438"/>
      <use xlink:href="#ArialMT-6d" x="389.013672"/>
      <use xlink:href="#ArialMT-6f" x="472.314453"/>
      <use xlink:href="#ArialMT-76" x="527.929688"/>
      <use xlink:href="#ArialMT-65" x="577.929688"/>
      <use xlink:href="#ArialMT-64" x="633.544922"/>
      <use xlink:href="#ArialMT-20" x="689.160156"/>
      <use xlink:href="#ArialMT-2d" x="716.943359"/>
      <use xlink:href="#ArialMT-20" x="750.244141"/>
      <use xlink:href="#ArialMT-32" x="778.027344"/>
      <use xlink:href="#ArialMT-35" x="833.642578"/>
      <use xlink:href="#ArialMT-2e" x="889.257812"/>
      <use xlink:href="#ArialMT-30" x="917.041016"/>
      <use xlink:href="#ArialMT-30" x="972.65625"/>
      <use xlink:href="#ArialMT-20" x="1028.271484"/>
      <use xlink:href="#ArialMT-25" x="1056.054688"/>
     </g>
    </g>
    <g id="patch_12">
     <path d="M 76.32 182.303 
L 92.32 182.303 
L 92.32 176.703 
L 76.32 176.703 
z
" style="fill: #daa520"/>
    </g>
    <g id="text_4">
     <!-- propeptide removed - 0.00 % -->
     <g transform="translate(98.72 182.303) scale(0.08 -0.08)">
      <use xlink:href="#ArialMT-70"/>
      <use xlink:href="#ArialMT-72" x="55.615234"/>
      <use xlink:href="#ArialMT-6f" x="88.916016"/>
      <use xlink:href="#ArialMT-70" x="144.53125"/>
      <use xlink:href="#ArialMT-65" x="200.146484"/>
      <use xlink:href="#ArialMT-70" x="255.761719"/>
      <use xlink:href="#ArialMT-74" x="311.376953"/>
      <use xlink:href="#ArialMT-69" x="339.160156"/>
      <use xlink:href="#ArialMT-64" x="361.376953"/>
      <use xlink:href="#ArialMT-65" x="416.992188"/>
      <use xlink:href="#ArialMT-20" x="472.607422"/>
      <use xlink:href="#ArialMT-72" x="500.390625"/>
      <use xlink:href="#ArialMT-65" x="533.691406"/>
      <use xlink:href="#ArialMT-6d" x="589.306641"/>
      <use xlink:href="#ArialMT-6f" x="672.607422"/>
      <use xlink:href="#ArialMT-76" x="728.222656"/>
      <use xlink:href="#ArialMT-65" x="778.222656"/>
      <use xlink:href="#ArialMT-64" x="833.837891"/>
      <use xlink:href="#ArialMT-20" x="889.453125"/>
      <use xlink:href="#ArialMT-2d" x="917.236328"/>
      <use xlink:href="#ArialMT-20" x="950.537109"/>
      <use xlink:href="#ArialMT-30" x="978.320312"/>
      <use xlink:href="#ArialMT-2e" x="1033.935547"/>
      <use xlink:href="#ArialMT-30" x="1061.71875"/>
      <use xlink:href="#ArialMT-30" x="1117.333984"/>
      <use xlink:href="#ArialMT-20" x="1172.949219"/>
      <use xlink:href="#ArialMT-25" x="1200.732422"/>
     </g>
    </g>
    <g id="patch_13">
     <path d="M 76.32 193.71675 
L 92.32 193.71675 
L 92.32 188.11675 
L 76.32 188.11675 
z
" style="fill: #708090"/>
    </g>
    <g id="text_5">
     <!-- within signal - 0.00 % -->
     <g transform="translate(98.72 193.71675) scale(0.08 -0.08)">
      <use xlink:href="#ArialMT-77"/>
      <use xlink:href="#ArialMT-69" x="72.216797"/>
      <use xlink:href="#ArialMT-74" x="94.433594"/>
      <use xlink:href="#ArialMT-68" x="122.216797"/>
      <use xlink:href="#ArialMT-69" x="177.832031"/>
      <use xlink:href="#ArialMT-6e" x="200.048828"/>
      <use xlink:href="#ArialMT-20" x="255.664062"/>
      <use xlink:href="#ArialMT-73" x="283.447266"/>
      <use xlink:href="#ArialMT-69" x="333.447266"/>
      <use xlink:href="#ArialMT-67" x="355.664062"/>
      <use xlink:href="#ArialMT-6e" x="411.279297"/>
      <use xlink:href="#ArialMT-61" x="466.894531"/>
      <use xlink:href="#ArialMT-6c" x="522.509766"/>
      <use xlink:href="#ArialMT-20" x="544.726562"/>
      <use xlink:href="#ArialMT-2d" x="572.509766"/>
      <use xlink:href="#ArialMT-20" x="605.810547"/>
      <use xlink:href="#ArialMT-30" x="633.59375"/>
      <use xlink:href="#ArialMT-2e" x="689.208984"/>
      <use xlink:href="#ArialMT-30" x="716.992188"/>
      <use xlink:href="#ArialMT-30" x="772.607422"/>
      <use xlink:href="#ArialMT-20" x="828.222656"/>
      <use xlink:href="#ArialMT-25" x="856.005859"/>
     </g>
    </g>
    <g id="patch_14">
     <path d="M 76.32 205.22425 
L 92.32 205.22425 
L 92.32 199.62425 
L 76.32 199.62425 
z
" style="fill: #228b22"/>
    </g>
    <g id="text_6">
     <!-- within propeptide - 0.00 % -->
     <g transform="translate(98.72 205.22425) scale(0.08 -0.08)">
      <use xlink:href="#ArialMT-77"/>
      <use xlink:href="#ArialMT-69" x="72.216797"/>
      <use xlink:href="#ArialMT-74" x="94.433594"/>
      <use xlink:href="#ArialMT-68" x="122.216797"/>
      <use xlink:href="#ArialMT-69" x="177.832031"/>
      <use xlink:href="#ArialMT-6e" x="200.048828"/>
      <use xlink:href="#ArialMT-20" x="255.664062"/>
      <use xlink:href="#ArialMT-70" x="283.447266"/>
      <use xlink:href="#ArialMT-72" x="339.0625"/>
      <use xlink:href="#ArialMT-6f" x="372.363281"/>
      <use xlink:href="#ArialMT-70" x="427.978516"/>
      <use xlink:href="#ArialMT-65" x="483.59375"/>
      <use xlink:href="#ArialMT-70" x="539.208984"/>
      <use xlink:href="#ArialMT-74" x="594.824219"/>
      <use xlink:href="#ArialMT-69" x="622.607422"/>
      <use xlink:href="#ArialMT-64" x="644.824219"/>
      <use xlink:href="#ArialMT-65" x="700.439453"/>
      <use xlink:href="#ArialMT-20" x="756.054688"/>
      <use xlink:href="#ArialMT-2d" x="783.837891"/>
      <use xlink:href="#ArialMT-20" x="817.138672"/>
      <use xlink:href="#ArialMT-30" x="844.921875"/>
      <use xlink:href="#ArialMT-2e" x="900.537109"/>
      <use xlink:href="#ArialMT-30" x="928.320312"/>
      <use xlink:href="#ArialMT-30" x="983.935547"/>
      <use xlink:href="#ArialMT-20" x="1039.550781"/>
      <use xlink:href="#ArialMT-25" x="1067.333984"/>
     </g>
    </g>
   </g>
  </g>
 </g>
</svg>
