<?xml version="1.0" encoding="utf-8" standalone="no"?>
<!DOCTYPE svg PUBLIC "-//W3C//DTD SVG 1.1//EN"
  "http://www.w3.org/Graphics/SVG/1.1/DTD/svg11.dtd">
<svg xmlns:xlink="http://www.w3.org/1999/xlink" width="720pt" height="432pt" viewBox="0 0 720 432" xmlns="http://www.w3.org/2000/svg" version="1.1">
 <metadata>
  <rdf:RDF xmlns:dc="http://purl.org/dc/elements/1.1/" xmlns:cc="http://creativecommons.org/ns#" xmlns:rdf="http://www.w3.org/1999/02/22-rdf-syntax-ns#">
   <cc:Work>
    <dc:type rdf:resource="http://purl.org/dc/dcmitype/StillImage"/>
    <dc:date>2023-05-02T14:09:32.554207</dc:date>
    <dc:format>image/svg+xml</dc:format>
    <dc:creator>
     <cc:Agent>
      <dc:title>Matplotlib v3.7.1, https://matplotlib.org/</dc:title>
     </cc:Agent>
    </dc:creator>
   </cc:Work>
  </rdf:RDF>
 </metadata>
 <defs>
  <style type="text/css">*{stroke-linejoin: round; stroke-linecap: butt}</style>
 </defs>
 <g id="figure_1">
  <g id="patch_1">
   <path d="M 0 432 
L 720 432 
L 720 0 
L 0 0 
z
" style="fill: #ffffff"/>
  </g>
  <g id="axes_1">
   <g id="patch_2">
    <path d="M 90 384.48 
L 648 384.48 
L 648 51.84 
L 90 51.84 
z
" style="fill: #ffffff"/>
   </g>
   <g id="patch_3">
    <path d="M 307 384.48 
L 369 384.48 
L 369 51.84 
L 307 51.84 
z
" clip-path="url(#pb35c66b369)" style="fill: #ffd700; opacity: 0.35"/>
   </g>
   <g id="line2d_1">
    <path d="M 90 384.48 
L 648 384.48 
" clip-path="url(#pb35c66b369)" style="fill: none; stroke: #000000; stroke-width: 0.5; stroke-linecap: square"/>
   </g>
   <g id="patch_4">
    <path d="M 125.65 222.318 
L 134.762642 222.318 
L 141.132798 337.146882 
L 147.455534 222.318 
L 156.615597 222.318 
L 162.938332 337.146882 
L 169.316392 222.318 
L 178.35 222.318 
L 169.656239 380.322 
L 158.694196 380.322 
L 152 260.210515 
L 145.384838 380.322 
L 134.414892 380.322 
L 125.65 222.318 
z
" clip-path="url(#pb35c66b369)" style="fill: #21599c"/>
   </g>
   <g id="patch_5">
    <path d="M 125.65 55.998 
L 178.35 55.998 
L 178.35 86.813182 
L 159.390256 86.813182 
L 159.390256 214.002 
L 144.646512 214.002 
L 144.646512 86.813182 
L 125.65 86.813182 
L 125.65 55.998 
z
" clip-path="url(#pb35c66b369)" style="fill: #40ba47"/>
   </g>
   <g id="patch_6">
    <path d="M 235.955948 229.857542 
L 235.955948 262.104589 
Q 230.459804 256.49073 225.221293 253.651163 
Q 219.997094 250.778956 215.34541 250.778956 
Q 209.176562 250.778956 206.213797 254.662963 
Q 203.265345 258.514331 203.265345 266.674008 
Q 203.265345 272.810086 205.254834 276.237151 
Q 207.244324 279.631577 212.482835 282.07948 
L 219.811027 285.441267 
Q 230.946442 290.565545 235.641065 300.977294 
Q 240.35 311.356404 240.35 330.547966 
Q 240.35 355.712412 233.794704 368.017206 
Q 227.239408 380.322 213.770994 380.322 
Q 207.430391 380.322 201.032537 377.54771 
Q 194.634682 374.806058 188.236828 369.388032 
L 188.236828 336.25974 
Q 194.634682 343.995115 200.60315 347.944399 
Q 206.571619 351.861044 212.125014 351.861044 
Q 217.764286 351.861044 220.755676 347.585373 
Q 223.747067 343.277063 223.747067 335.313218 
Q 223.747067 328.197979 221.714639 324.313972 
Q 219.682211 320.429965 213.59924 317.361926 
L 206.929441 314.000139 
Q 196.910429 309.104333 192.273058 298.398835 
Q 187.65 287.693338 187.65 269.546215 
Q 187.65 246.797033 194.090793 234.557517 
Q 200.531586 222.318 212.611651 222.318 
Q 218.122108 222.318 223.933134 224.211045 
Q 229.744161 226.10409 235.955948 229.857542 
z
" clip-path="url(#pb35c66b369)" style="fill: #40ba47"/>
   </g>
   <g id="patch_7">
    <path d="M 224.155336 185.218588 
L 203.887763 185.218588 
L 200.68762 214.002 
L 187.65 214.002 
L 206.269015 55.998 
L 221.730985 55.998 
L 240.35 214.002 
L 227.323155 214.002 
L 224.155336 185.218588 
z
M 207.120231 155.893371 
L 220.890544 155.893371 
L 214.016162 93.043944 
L 207.120231 155.893371 
z
" clip-path="url(#pb35c66b369)" style="fill: #21599c"/>
   </g>
   <g id="patch_8">
    <path d="M 297.955948 229.857542 
L 297.955948 262.104589 
Q 292.459804 256.49073 287.221293 253.651163 
Q 281.997094 250.778956 277.34541 250.778956 
Q 271.176562 250.778956 268.213797 254.662963 
Q 265.265345 258.514331 265.265345 266.674008 
Q 265.265345 272.810086 267.254834 276.237151 
Q 269.244324 279.631577 274.482835 282.07948 
L 281.811027 285.441267 
Q 292.946442 290.565545 297.641065 300.977294 
Q 302.35 311.356404 302.35 330.547966 
Q 302.35 355.712412 295.794704 368.017206 
Q 289.239408 380.322 275.770994 380.322 
Q 269.430391 380.322 263.032537 377.54771 
Q 256.634682 374.806058 250.236828 369.388032 
L 250.236828 336.25974 
Q 256.634682 343.995115 262.60315 347.944399 
Q 268.571619 351.861044 274.125014 351.861044 
Q 279.764286 351.861044 282.755676 347.585373 
Q 285.747067 343.277063 285.747067 335.313218 
Q 285.747067 328.197979 283.714639 324.313972 
Q 281.682211 320.429965 275.59924 317.361926 
L 268.929441 314.000139 
Q 258.910429 309.104333 254.273058 298.398835 
Q 249.65 287.693338 249.65 269.546215 
Q 249.65 246.797033 256.090793 234.557517 
Q 262.531586 222.318 274.611651 222.318 
Q 280.122108 222.318 285.933134 224.211045 
Q 291.744161 226.10409 297.955948 229.857542 
z
" clip-path="url(#pb35c66b369)" style="fill: #40ba47"/>
   </g>
   <g id="patch_9">
    <path d="M 249.65 55.998 
L 302.35 55.998 
L 302.35 86.813182 
L 283.390256 86.813182 
L 283.390256 214.002 
L 268.646512 214.002 
L 268.646512 86.813182 
L 249.65 86.813182 
L 249.65 55.998 
z
" clip-path="url(#pb35c66b369)" style="fill: #40ba47"/>
   </g>
   <g id="patch_10">
    <path d="M 311.65 60.156 
L 326.22 60.156 
L 337.988929 172.783798 
L 349.746786 60.156 
L 364.35 60.156 
L 344.665 243.015323 
L 344.665 376.164 
L 331.346071 376.164 
L 331.346071 243.015323 
L 311.65 60.156 
z
" clip-path="url(#pb35c66b369)" style="fill: #177875"/>
   </g>
   <g id="patch_11">
    <path d="M 426.35 366.026245 
Q 421.035119 373.174122 415.318669 376.76438 
Q 409.602219 380.322 403.507822 380.322 
Q 389.736374 380.322 381.693187 359.04156 
Q 373.65 337.761121 373.65 301.368958 
Q 373.65 264.552492 381.834917 243.435246 
Q 390.031645 222.318 404.287338 222.318 
Q 409.779381 222.318 414.810802 225.190207 
Q 419.854034 228.029774 424.318534 233.643633 
L 424.318534 265.139989 
Q 419.712304 257.926834 415.153317 254.369214 
Q 410.59433 250.778956 406.011721 250.778956 
Q 397.531533 250.778956 392.937113 263.899718 
Q 388.342694 276.987841 388.342694 301.368958 
Q 388.342694 325.521604 392.771762 338.707643 
Q 397.200829 351.861044 405.350314 351.861044 
Q 407.570753 351.861044 409.472299 351.110354 
Q 411.373846 350.327025 412.885634 348.695089 
L 412.885634 319.124417 
L 404.204662 319.124417 
L 404.204662 292.784977 
L 426.35 292.784977 
L 426.35 366.026245 
z
" clip-path="url(#pb35c66b369)" style="fill: #787800"/>
   </g>
   <g id="patch_12">
    <path d="M 421.955948 63.537542 
L 421.955948 95.784589 
Q 416.459804 90.17073 411.221293 87.331163 
Q 405.997094 84.458956 401.34541 84.458956 
Q 395.176562 84.458956 392.213797 88.342963 
Q 389.265345 92.194331 389.265345 100.354008 
Q 389.265345 106.490086 391.254834 109.917151 
Q 393.244324 113.311577 398.482835 115.75948 
L 405.811027 119.121267 
Q 416.946442 124.245545 421.641065 134.657294 
Q 426.35 145.036404 426.35 164.227966 
Q 426.35 189.392412 419.794704 201.697206 
Q 413.239408 214.002 399.770994 214.002 
Q 393.430391 214.002 387.032537 211.22771 
Q 380.634682 208.486058 374.236828 203.068032 
L 374.236828 169.93974 
Q 380.634682 177.675115 386.60315 181.624399 
Q 392.571619 185.541044 398.125014 185.541044 
Q 403.764286 185.541044 406.755676 181.265373 
Q 409.747067 176.957063 409.747067 168.993218 
Q 409.747067 161.877979 407.714639 157.993972 
Q 405.682211 154.109965 399.59924 151.041926 
L 392.929441 147.680139 
Q 382.910429 142.784333 378.273058 132.078835 
Q 373.65 121.373338 373.65 103.226215 
Q 373.65 80.477033 380.090793 68.237517 
Q 386.531586 55.998 398.611651 55.998 
Q 404.122108 55.998 409.933134 57.891045 
Q 415.744161 59.78409 421.955948 63.537542 
z
" clip-path="url(#pb35c66b369)" style="fill: #40ba47"/>
   </g>
   <g id="patch_13">
    <path d="M 435.65 222.318 
L 444.762642 222.318 
L 451.132798 337.146882 
L 457.455534 222.318 
L 466.615597 222.318 
L 472.938332 337.146882 
L 479.316392 222.318 
L 488.35 222.318 
L 479.656239 380.322 
L 468.694196 380.322 
L 462 260.210515 
L 455.384838 380.322 
L 444.414892 380.322 
L 435.65 222.318 
z
" clip-path="url(#pb35c66b369)" style="fill: #21599c"/>
   </g>
   <g id="patch_14">
    <path d="M 435.65 55.998 
L 454.774615 55.998 
L 454.774615 183.220681 
L 488.35 183.220681 
L 488.35 214.002 
L 435.65 214.002 
L 435.65 55.998 
z
" clip-path="url(#pb35c66b369)" style="fill: #21599c"/>
   </g>
   <g id="patch_15">
    <path d="M 497.65 222.318 
L 549.253077 222.318 
L 549.253077 253.133182 
L 516.774615 253.133182 
L 516.774615 282.526125 
L 547.329487 282.526125 
L 547.329487 313.341307 
L 516.774615 313.341307 
L 516.774615 349.540681 
L 550.35 349.540681 
L 550.35 380.322 
L 497.65 380.322 
L 497.65 222.318 
z
" clip-path="url(#pb35c66b369)" style="fill: #6b296b"/>
   </g>
   <g id="patch_16">
    <path d="M 497.65 55.998 
L 550.35 55.998 
L 550.35 86.813182 
L 531.390256 86.813182 
L 531.390256 214.002 
L 516.646512 214.002 
L 516.646512 86.813182 
L 497.65 86.813182 
L 497.65 55.998 
z
" clip-path="url(#pb35c66b369)" style="fill: #40ba47"/>
   </g>
   <g id="patch_17">
    <path d="M 596.155336 351.538588 
L 575.887763 351.538588 
L 572.68762 380.322 
L 559.65 380.322 
L 578.269015 222.318 
L 593.730985 222.318 
L 612.35 380.322 
L 599.323155 380.322 
L 596.155336 351.538588 
z
M 579.120231 322.213371 
L 592.890544 322.213371 
L 586.016162 259.363944 
L 579.120231 322.213371 
z
" clip-path="url(#pb35c66b369)" style="fill: #21599c"/>
   </g>
   <g id="patch_18">
    <path d="M 559.65 55.998 
L 574.22 55.998 
L 585.988929 112.311899 
L 597.746786 55.998 
L 612.35 55.998 
L 592.665 147.427661 
L 592.665 214.002 
L 579.346071 214.002 
L 579.346071 147.427661 
L 559.65 55.998 
z
" clip-path="url(#pb35c66b369)" style="fill: #177875"/>
   </g>
   <g id="matplotlib.axis_1">
    <g id="xtick_1">
     <g id="line2d_2">
      <defs>
       <path id="m3626bd67f7" d="M 0 0 
L 0 3.5 
" style="stroke: #000000; stroke-width: 0.8"/>
      </defs>
      <g>
       <use xlink:href="#m3626bd67f7" x="152" y="384.48" style="stroke: #000000; stroke-width: 0.8"/>
      </g>
     </g>
     <g id="text_1">
      <!-- P4 -->
      <g transform="translate(145.803906 399.078438) scale(0.1 -0.1)">
       <defs>
        <path id="DejaVuSans-50" d="M 1259 4147 
L 1259 2394 
L 2053 2394 
Q 2494 2394 2734 2622 
Q 2975 2850 2975 3272 
Q 2975 3691 2734 3919 
Q 2494 4147 2053 4147 
L 1259 4147 
z
M 628 4666 
L 2053 4666 
Q 2838 4666 3239 4311 
Q 3641 3956 3641 3272 
Q 3641 2581 3239 2228 
Q 2838 1875 2053 1875 
L 1259 1875 
L 1259 0 
L 628 0 
L 628 4666 
z
" transform="scale(0.015625)"/>
        <path id="DejaVuSans-34" d="M 2419 4116 
L 825 1625 
L 2419 1625 
L 2419 4116 
z
M 2253 4666 
L 3047 4666 
L 3047 1625 
L 3713 1625 
L 3713 1100 
L 3047 1100 
L 3047 0 
L 2419 0 
L 2419 1100 
L 313 1100 
L 313 1709 
L 2253 4666 
z
" transform="scale(0.015625)"/>
       </defs>
       <use xlink:href="#DejaVuSans-50"/>
       <use xlink:href="#DejaVuSans-34" x="60.302734"/>
      </g>
     </g>
    </g>
    <g id="xtick_2">
     <g id="line2d_3">
      <g>
       <use xlink:href="#m3626bd67f7" x="214" y="384.48" style="stroke: #000000; stroke-width: 0.8"/>
      </g>
     </g>
     <g id="text_2">
      <!-- P3 -->
      <g transform="translate(207.803906 399.078438) scale(0.1 -0.1)">
       <defs>
        <path id="DejaVuSans-33" d="M 2597 2516 
Q 3050 2419 3304 2112 
Q 3559 1806 3559 1356 
Q 3559 666 3084 287 
Q 2609 -91 1734 -91 
Q 1441 -91 1130 -33 
Q 819 25 488 141 
L 488 750 
Q 750 597 1062 519 
Q 1375 441 1716 441 
Q 2309 441 2620 675 
Q 2931 909 2931 1356 
Q 2931 1769 2642 2001 
Q 2353 2234 1838 2234 
L 1294 2234 
L 1294 2753 
L 1863 2753 
Q 2328 2753 2575 2939 
Q 2822 3125 2822 3475 
Q 2822 3834 2567 4026 
Q 2313 4219 1838 4219 
Q 1578 4219 1281 4162 
Q 984 4106 628 3988 
L 628 4550 
Q 988 4650 1302 4700 
Q 1616 4750 1894 4750 
Q 2613 4750 3031 4423 
Q 3450 4097 3450 3541 
Q 3450 3153 3228 2886 
Q 3006 2619 2597 2516 
z
" transform="scale(0.015625)"/>
       </defs>
       <use xlink:href="#DejaVuSans-50"/>
       <use xlink:href="#DejaVuSans-33" x="60.302734"/>
      </g>
     </g>
    </g>
    <g id="xtick_3">
     <g id="line2d_4">
      <g>
       <use xlink:href="#m3626bd67f7" x="276" y="384.48" style="stroke: #000000; stroke-width: 0.8"/>
      </g>
     </g>
     <g id="text_3">
      <!-- P2 -->
      <g transform="translate(269.803906 399.078438) scale(0.1 -0.1)">
       <defs>
        <path id="DejaVuSans-32" d="M 1228 531 
L 3431 531 
L 3431 0 
L 469 0 
L 469 531 
Q 828 903 1448 1529 
Q 2069 2156 2228 2338 
Q 2531 2678 2651 2914 
Q 2772 3150 2772 3378 
Q 2772 3750 2511 3984 
Q 2250 4219 1831 4219 
Q 1534 4219 1204 4116 
Q 875 4013 500 3803 
L 500 4441 
Q 881 4594 1212 4672 
Q 1544 4750 1819 4750 
Q 2544 4750 2975 4387 
Q 3406 4025 3406 3419 
Q 3406 3131 3298 2873 
Q 3191 2616 2906 2266 
Q 2828 2175 2409 1742 
Q 1991 1309 1228 531 
z
" transform="scale(0.015625)"/>
       </defs>
       <use xlink:href="#DejaVuSans-50"/>
       <use xlink:href="#DejaVuSans-32" x="60.302734"/>
      </g>
     </g>
    </g>
    <g id="xtick_4">
     <g id="line2d_5">
      <g>
       <use xlink:href="#m3626bd67f7" x="338" y="384.48" style="stroke: #000000; stroke-width: 0.8"/>
      </g>
     </g>
     <g id="text_4">
      <!-- P1 -->
      <g transform="translate(331.803906 399.078438) scale(0.1 -0.1)">
       <defs>
        <path id="DejaVuSans-31" d="M 794 531 
L 1825 531 
L 1825 4091 
L 703 3866 
L 703 4441 
L 1819 4666 
L 2450 4666 
L 2450 531 
L 3481 531 
L 3481 0 
L 794 0 
L 794 531 
z
" transform="scale(0.015625)"/>
       </defs>
       <use xlink:href="#DejaVuSans-50"/>
       <use xlink:href="#DejaVuSans-31" x="60.302734"/>
      </g>
     </g>
    </g>
    <g id="xtick_5">
     <g id="line2d_6">
      <g>
       <use xlink:href="#m3626bd67f7" x="400" y="384.48" style="stroke: #000000; stroke-width: 0.8"/>
      </g>
     </g>
     <g id="text_5">
      <!-- P1' -->
      <g transform="translate(392.429688 399.078438) scale(0.1 -0.1)">
       <defs>
        <path id="DejaVuSans-27" d="M 1147 4666 
L 1147 2931 
L 616 2931 
L 616 4666 
L 1147 4666 
z
" transform="scale(0.015625)"/>
       </defs>
       <use xlink:href="#DejaVuSans-50"/>
       <use xlink:href="#DejaVuSans-31" x="60.302734"/>
       <use xlink:href="#DejaVuSans-27" x="123.925781"/>
      </g>
     </g>
    </g>
    <g id="xtick_6">
     <g id="line2d_7">
      <g>
       <use xlink:href="#m3626bd67f7" x="462" y="384.48" style="stroke: #000000; stroke-width: 0.8"/>
      </g>
     </g>
     <g id="text_6">
      <!-- P2' -->
      <g transform="translate(454.429688 399.078438) scale(0.1 -0.1)">
       <use xlink:href="#DejaVuSans-50"/>
       <use xlink:href="#DejaVuSans-32" x="60.302734"/>
       <use xlink:href="#DejaVuSans-27" x="123.925781"/>
      </g>
     </g>
    </g>
    <g id="xtick_7">
     <g id="line2d_8">
      <g>
       <use xlink:href="#m3626bd67f7" x="524" y="384.48" style="stroke: #000000; stroke-width: 0.8"/>
      </g>
     </g>
     <g id="text_7">
      <!-- P3' -->
      <g transform="translate(516.429688 399.078438) scale(0.1 -0.1)">
       <use xlink:href="#DejaVuSans-50"/>
       <use xlink:href="#DejaVuSans-33" x="60.302734"/>
       <use xlink:href="#DejaVuSans-27" x="123.925781"/>
      </g>
     </g>
    </g>
    <g id="xtick_8">
     <g id="line2d_9">
      <g>
       <use xlink:href="#m3626bd67f7" x="586" y="384.48" style="stroke: #000000; stroke-width: 0.8"/>
      </g>
     </g>
     <g id="text_8">
      <!-- P4' -->
      <g transform="translate(578.429688 399.078438) scale(0.1 -0.1)">
       <use xlink:href="#DejaVuSans-50"/>
       <use xlink:href="#DejaVuSans-34" x="60.302734"/>
       <use xlink:href="#DejaVuSans-27" x="123.925781"/>
      </g>
     </g>
    </g>
   </g>
   <g id="matplotlib.axis_2">
    <g id="ytick_1">
     <g id="line2d_10">
      <defs>
       <path id="mf744cf484d" d="M 0 0 
L -3.5 0 
" style="stroke: #000000; stroke-width: 0.8"/>
      </defs>
      <g>
       <use xlink:href="#mf744cf484d" x="90" y="384.48" style="stroke: #000000; stroke-width: 0.8"/>
      </g>
     </g>
     <g id="text_9">
      <!-- 0.0 -->
      <g transform="translate(67.096875 388.279219) scale(0.1 -0.1)">
       <defs>
        <path id="DejaVuSans-30" d="M 2034 4250 
Q 1547 4250 1301 3770 
Q 1056 3291 1056 2328 
Q 1056 1369 1301 889 
Q 1547 409 2034 409 
Q 2525 409 2770 889 
Q 3016 1369 3016 2328 
Q 3016 3291 2770 3770 
Q 2525 4250 2034 4250 
z
M 2034 4750 
Q 2819 4750 3233 4129 
Q 3647 3509 3647 2328 
Q 3647 1150 3233 529 
Q 2819 -91 2034 -91 
Q 1250 -91 836 529 
Q 422 1150 422 2328 
Q 422 3509 836 4129 
Q 1250 4750 2034 4750 
z
" transform="scale(0.015625)"/>
        <path id="DejaVuSans-2e" d="M 684 794 
L 1344 794 
L 1344 0 
L 684 0 
L 684 794 
z
" transform="scale(0.015625)"/>
       </defs>
       <use xlink:href="#DejaVuSans-30"/>
       <use xlink:href="#DejaVuSans-2e" x="63.623047"/>
       <use xlink:href="#DejaVuSans-30" x="95.410156"/>
      </g>
     </g>
    </g>
    <g id="ytick_2">
     <g id="line2d_11">
      <g>
       <use xlink:href="#mf744cf484d" x="90" y="317.952" style="stroke: #000000; stroke-width: 0.8"/>
      </g>
     </g>
     <g id="text_10">
      <!-- 0.2 -->
      <g transform="translate(67.096875 321.751219) scale(0.1 -0.1)">
       <use xlink:href="#DejaVuSans-30"/>
       <use xlink:href="#DejaVuSans-2e" x="63.623047"/>
       <use xlink:href="#DejaVuSans-32" x="95.410156"/>
      </g>
     </g>
    </g>
    <g id="ytick_3">
     <g id="line2d_12">
      <g>
       <use xlink:href="#mf744cf484d" x="90" y="251.424" style="stroke: #000000; stroke-width: 0.8"/>
      </g>
     </g>
     <g id="text_11">
      <!-- 0.4 -->
      <g transform="translate(67.096875 255.223219) scale(0.1 -0.1)">
       <use xlink:href="#DejaVuSans-30"/>
       <use xlink:href="#DejaVuSans-2e" x="63.623047"/>
       <use xlink:href="#DejaVuSans-34" x="95.410156"/>
      </g>
     </g>
    </g>
    <g id="ytick_4">
     <g id="line2d_13">
      <g>
       <use xlink:href="#mf744cf484d" x="90" y="184.896" style="stroke: #000000; stroke-width: 0.8"/>
      </g>
     </g>
     <g id="text_12">
      <!-- 0.6 -->
      <g transform="translate(67.096875 188.695219) scale(0.1 -0.1)">
       <defs>
        <path id="DejaVuSans-36" d="M 2113 2584 
Q 1688 2584 1439 2293 
Q 1191 2003 1191 1497 
Q 1191 994 1439 701 
Q 1688 409 2113 409 
Q 2538 409 2786 701 
Q 3034 994 3034 1497 
Q 3034 2003 2786 2293 
Q 2538 2584 2113 2584 
z
M 3366 4563 
L 3366 3988 
Q 3128 4100 2886 4159 
Q 2644 4219 2406 4219 
Q 1781 4219 1451 3797 
Q 1122 3375 1075 2522 
Q 1259 2794 1537 2939 
Q 1816 3084 2150 3084 
Q 2853 3084 3261 2657 
Q 3669 2231 3669 1497 
Q 3669 778 3244 343 
Q 2819 -91 2113 -91 
Q 1303 -91 875 529 
Q 447 1150 447 2328 
Q 447 3434 972 4092 
Q 1497 4750 2381 4750 
Q 2619 4750 2861 4703 
Q 3103 4656 3366 4563 
z
" transform="scale(0.015625)"/>
       </defs>
       <use xlink:href="#DejaVuSans-30"/>
       <use xlink:href="#DejaVuSans-2e" x="63.623047"/>
       <use xlink:href="#DejaVuSans-36" x="95.410156"/>
      </g>
     </g>
    </g>
    <g id="ytick_5">
     <g id="line2d_14">
      <g>
       <use xlink:href="#mf744cf484d" x="90" y="118.368" style="stroke: #000000; stroke-width: 0.8"/>
      </g>
     </g>
     <g id="text_13">
      <!-- 0.8 -->
      <g transform="translate(67.096875 122.167219) scale(0.1 -0.1)">
       <defs>
        <path id="DejaVuSans-38" d="M 2034 2216 
Q 1584 2216 1326 1975 
Q 1069 1734 1069 1313 
Q 1069 891 1326 650 
Q 1584 409 2034 409 
Q 2484 409 2743 651 
Q 3003 894 3003 1313 
Q 3003 1734 2745 1975 
Q 2488 2216 2034 2216 
z
M 1403 2484 
Q 997 2584 770 2862 
Q 544 3141 544 3541 
Q 544 4100 942 4425 
Q 1341 4750 2034 4750 
Q 2731 4750 3128 4425 
Q 3525 4100 3525 3541 
Q 3525 3141 3298 2862 
Q 3072 2584 2669 2484 
Q 3125 2378 3379 2068 
Q 3634 1759 3634 1313 
Q 3634 634 3220 271 
Q 2806 -91 2034 -91 
Q 1263 -91 848 271 
Q 434 634 434 1313 
Q 434 1759 690 2068 
Q 947 2378 1403 2484 
z
M 1172 3481 
Q 1172 3119 1398 2916 
Q 1625 2713 2034 2713 
Q 2441 2713 2670 2916 
Q 2900 3119 2900 3481 
Q 2900 3844 2670 4047 
Q 2441 4250 2034 4250 
Q 1625 4250 1398 4047 
Q 1172 3844 1172 3481 
z
" transform="scale(0.015625)"/>
       </defs>
       <use xlink:href="#DejaVuSans-30"/>
       <use xlink:href="#DejaVuSans-2e" x="63.623047"/>
       <use xlink:href="#DejaVuSans-38" x="95.410156"/>
      </g>
     </g>
    </g>
    <g id="ytick_6">
     <g id="line2d_15">
      <g>
       <use xlink:href="#mf744cf484d" x="90" y="51.84" style="stroke: #000000; stroke-width: 0.8"/>
      </g>
     </g>
     <g id="text_14">
      <!-- 1.0 -->
      <g transform="translate(67.096875 55.639219) scale(0.1 -0.1)">
       <use xlink:href="#DejaVuSans-31"/>
       <use xlink:href="#DejaVuSans-2e" x="63.623047"/>
       <use xlink:href="#DejaVuSans-30" x="95.410156"/>
      </g>
     </g>
    </g>
    <g id="text_15">
     <!-- percentage -->
     <g transform="translate(61.017187 246.623281) rotate(-90) scale(0.1 -0.1)">
      <defs>
       <path id="DejaVuSans-70" d="M 1159 525 
L 1159 -1331 
L 581 -1331 
L 581 3500 
L 1159 3500 
L 1159 2969 
Q 1341 3281 1617 3432 
Q 1894 3584 2278 3584 
Q 2916 3584 3314 3078 
Q 3713 2572 3713 1747 
Q 3713 922 3314 415 
Q 2916 -91 2278 -91 
Q 1894 -91 1617 61 
Q 1341 213 1159 525 
z
M 3116 1747 
Q 3116 2381 2855 2742 
Q 2594 3103 2138 3103 
Q 1681 3103 1420 2742 
Q 1159 2381 1159 1747 
Q 1159 1113 1420 752 
Q 1681 391 2138 391 
Q 2594 391 2855 752 
Q 3116 1113 3116 1747 
z
" transform="scale(0.015625)"/>
       <path id="DejaVuSans-65" d="M 3597 1894 
L 3597 1613 
L 953 1613 
Q 991 1019 1311 708 
Q 1631 397 2203 397 
Q 2534 397 2845 478 
Q 3156 559 3463 722 
L 3463 178 
Q 3153 47 2828 -22 
Q 2503 -91 2169 -91 
Q 1331 -91 842 396 
Q 353 884 353 1716 
Q 353 2575 817 3079 
Q 1281 3584 2069 3584 
Q 2775 3584 3186 3129 
Q 3597 2675 3597 1894 
z
M 3022 2063 
Q 3016 2534 2758 2815 
Q 2500 3097 2075 3097 
Q 1594 3097 1305 2825 
Q 1016 2553 972 2059 
L 3022 2063 
z
" transform="scale(0.015625)"/>
       <path id="DejaVuSans-72" d="M 2631 2963 
Q 2534 3019 2420 3045 
Q 2306 3072 2169 3072 
Q 1681 3072 1420 2755 
Q 1159 2438 1159 1844 
L 1159 0 
L 581 0 
L 581 3500 
L 1159 3500 
L 1159 2956 
Q 1341 3275 1631 3429 
Q 1922 3584 2338 3584 
Q 2397 3584 2469 3576 
Q 2541 3569 2628 3553 
L 2631 2963 
z
" transform="scale(0.015625)"/>
       <path id="DejaVuSans-63" d="M 3122 3366 
L 3122 2828 
Q 2878 2963 2633 3030 
Q 2388 3097 2138 3097 
Q 1578 3097 1268 2742 
Q 959 2388 959 1747 
Q 959 1106 1268 751 
Q 1578 397 2138 397 
Q 2388 397 2633 464 
Q 2878 531 3122 666 
L 3122 134 
Q 2881 22 2623 -34 
Q 2366 -91 2075 -91 
Q 1284 -91 818 406 
Q 353 903 353 1747 
Q 353 2603 823 3093 
Q 1294 3584 2113 3584 
Q 2378 3584 2631 3529 
Q 2884 3475 3122 3366 
z
" transform="scale(0.015625)"/>
       <path id="DejaVuSans-6e" d="M 3513 2113 
L 3513 0 
L 2938 0 
L 2938 2094 
Q 2938 2591 2744 2837 
Q 2550 3084 2163 3084 
Q 1697 3084 1428 2787 
Q 1159 2491 1159 1978 
L 1159 0 
L 581 0 
L 581 3500 
L 1159 3500 
L 1159 2956 
Q 1366 3272 1645 3428 
Q 1925 3584 2291 3584 
Q 2894 3584 3203 3211 
Q 3513 2838 3513 2113 
z
" transform="scale(0.015625)"/>
       <path id="DejaVuSans-74" d="M 1172 4494 
L 1172 3500 
L 2356 3500 
L 2356 3053 
L 1172 3053 
L 1172 1153 
Q 1172 725 1289 603 
Q 1406 481 1766 481 
L 2356 481 
L 2356 0 
L 1766 0 
Q 1100 0 847 248 
Q 594 497 594 1153 
L 594 3053 
L 172 3053 
L 172 3500 
L 594 3500 
L 594 4494 
L 1172 4494 
z
" transform="scale(0.015625)"/>
       <path id="DejaVuSans-61" d="M 2194 1759 
Q 1497 1759 1228 1600 
Q 959 1441 959 1056 
Q 959 750 1161 570 
Q 1363 391 1709 391 
Q 2188 391 2477 730 
Q 2766 1069 2766 1631 
L 2766 1759 
L 2194 1759 
z
M 3341 1997 
L 3341 0 
L 2766 0 
L 2766 531 
Q 2569 213 2275 61 
Q 1981 -91 1556 -91 
Q 1019 -91 701 211 
Q 384 513 384 1019 
Q 384 1609 779 1909 
Q 1175 2209 1959 2209 
L 2766 2209 
L 2766 2266 
Q 2766 2663 2505 2880 
Q 2244 3097 1772 3097 
Q 1472 3097 1187 3025 
Q 903 2953 641 2809 
L 641 3341 
Q 956 3463 1253 3523 
Q 1550 3584 1831 3584 
Q 2591 3584 2966 3190 
Q 3341 2797 3341 1997 
z
" transform="scale(0.015625)"/>
       <path id="DejaVuSans-67" d="M 2906 1791 
Q 2906 2416 2648 2759 
Q 2391 3103 1925 3103 
Q 1463 3103 1205 2759 
Q 947 2416 947 1791 
Q 947 1169 1205 825 
Q 1463 481 1925 481 
Q 2391 481 2648 825 
Q 2906 1169 2906 1791 
z
M 3481 434 
Q 3481 -459 3084 -895 
Q 2688 -1331 1869 -1331 
Q 1566 -1331 1297 -1286 
Q 1028 -1241 775 -1147 
L 775 -588 
Q 1028 -725 1275 -790 
Q 1522 -856 1778 -856 
Q 2344 -856 2625 -561 
Q 2906 -266 2906 331 
L 2906 616 
Q 2728 306 2450 153 
Q 2172 0 1784 0 
Q 1141 0 747 490 
Q 353 981 353 1791 
Q 353 2603 747 3093 
Q 1141 3584 1784 3584 
Q 2172 3584 2450 3431 
Q 2728 3278 2906 2969 
L 2906 3500 
L 3481 3500 
L 3481 434 
z
" transform="scale(0.015625)"/>
      </defs>
      <use xlink:href="#DejaVuSans-70"/>
      <use xlink:href="#DejaVuSans-65" x="63.476562"/>
      <use xlink:href="#DejaVuSans-72" x="125"/>
      <use xlink:href="#DejaVuSans-63" x="163.863281"/>
      <use xlink:href="#DejaVuSans-65" x="218.84375"/>
      <use xlink:href="#DejaVuSans-6e" x="280.367188"/>
      <use xlink:href="#DejaVuSans-74" x="343.746094"/>
      <use xlink:href="#DejaVuSans-61" x="382.955078"/>
      <use xlink:href="#DejaVuSans-67" x="444.234375"/>
      <use xlink:href="#DejaVuSans-65" x="507.710938"/>
     </g>
    </g>
   </g>
   <g id="line2d_16">
    <path d="M 369 384.48 
L 369 51.84 
" clip-path="url(#pb35c66b369)" style="fill: none; stroke: #daa520; stroke-width: 2; stroke-linecap: square"/>
   </g>
   <g id="patch_19">
    <path d="M 90 384.48 
L 648 384.48 
" style="fill: none; stroke: #000000; stroke-width: 0.8; stroke-linejoin: miter; stroke-linecap: square"/>
   </g>
   <g id="patch_20">
    <path d="M 90 51.84 
L 648 51.84 
" style="fill: none; stroke: #000000; stroke-width: 0.8; stroke-linejoin: miter; stroke-linecap: square"/>
   </g>
   <g id="text_16">
    <!-- gluc_control probability PPSM n=2 -->
    <g transform="translate(266.026875 45.84) scale(0.12 -0.12)">
     <defs>
      <path id="DejaVuSans-6c" d="M 603 4863 
L 1178 4863 
L 1178 0 
L 603 0 
L 603 4863 
z
" transform="scale(0.015625)"/>
      <path id="DejaVuSans-75" d="M 544 1381 
L 544 3500 
L 1119 3500 
L 1119 1403 
Q 1119 906 1312 657 
Q 1506 409 1894 409 
Q 2359 409 2629 706 
Q 2900 1003 2900 1516 
L 2900 3500 
L 3475 3500 
L 3475 0 
L 2900 0 
L 2900 538 
Q 2691 219 2414 64 
Q 2138 -91 1772 -91 
Q 1169 -91 856 284 
Q 544 659 544 1381 
z
M 1991 3584 
L 1991 3584 
z
" transform="scale(0.015625)"/>
      <path id="DejaVuSans-5f" d="M 3263 -1063 
L 3263 -1509 
L -63 -1509 
L -63 -1063 
L 3263 -1063 
z
" transform="scale(0.015625)"/>
      <path id="DejaVuSans-6f" d="M 1959 3097 
Q 1497 3097 1228 2736 
Q 959 2375 959 1747 
Q 959 1119 1226 758 
Q 1494 397 1959 397 
Q 2419 397 2687 759 
Q 2956 1122 2956 1747 
Q 2956 2369 2687 2733 
Q 2419 3097 1959 3097 
z
M 1959 3584 
Q 2709 3584 3137 3096 
Q 3566 2609 3566 1747 
Q 3566 888 3137 398 
Q 2709 -91 1959 -91 
Q 1206 -91 779 398 
Q 353 888 353 1747 
Q 353 2609 779 3096 
Q 1206 3584 1959 3584 
z
" transform="scale(0.015625)"/>
      <path id="DejaVuSans-20" transform="scale(0.015625)"/>
      <path id="DejaVuSans-62" d="M 3116 1747 
Q 3116 2381 2855 2742 
Q 2594 3103 2138 3103 
Q 1681 3103 1420 2742 
Q 1159 2381 1159 1747 
Q 1159 1113 1420 752 
Q 1681 391 2138 391 
Q 2594 391 2855 752 
Q 3116 1113 3116 1747 
z
M 1159 2969 
Q 1341 3281 1617 3432 
Q 1894 3584 2278 3584 
Q 2916 3584 3314 3078 
Q 3713 2572 3713 1747 
Q 3713 922 3314 415 
Q 2916 -91 2278 -91 
Q 1894 -91 1617 61 
Q 1341 213 1159 525 
L 1159 0 
L 581 0 
L 581 4863 
L 1159 4863 
L 1159 2969 
z
" transform="scale(0.015625)"/>
      <path id="DejaVuSans-69" d="M 603 3500 
L 1178 3500 
L 1178 0 
L 603 0 
L 603 3500 
z
M 603 4863 
L 1178 4863 
L 1178 4134 
L 603 4134 
L 603 4863 
z
" transform="scale(0.015625)"/>
      <path id="DejaVuSans-79" d="M 2059 -325 
Q 1816 -950 1584 -1140 
Q 1353 -1331 966 -1331 
L 506 -1331 
L 506 -850 
L 844 -850 
Q 1081 -850 1212 -737 
Q 1344 -625 1503 -206 
L 1606 56 
L 191 3500 
L 800 3500 
L 1894 763 
L 2988 3500 
L 3597 3500 
L 2059 -325 
z
" transform="scale(0.015625)"/>
      <path id="DejaVuSans-53" d="M 3425 4513 
L 3425 3897 
Q 3066 4069 2747 4153 
Q 2428 4238 2131 4238 
Q 1616 4238 1336 4038 
Q 1056 3838 1056 3469 
Q 1056 3159 1242 3001 
Q 1428 2844 1947 2747 
L 2328 2669 
Q 3034 2534 3370 2195 
Q 3706 1856 3706 1288 
Q 3706 609 3251 259 
Q 2797 -91 1919 -91 
Q 1588 -91 1214 -16 
Q 841 59 441 206 
L 441 856 
Q 825 641 1194 531 
Q 1563 422 1919 422 
Q 2459 422 2753 634 
Q 3047 847 3047 1241 
Q 3047 1584 2836 1778 
Q 2625 1972 2144 2069 
L 1759 2144 
Q 1053 2284 737 2584 
Q 422 2884 422 3419 
Q 422 4038 858 4394 
Q 1294 4750 2059 4750 
Q 2388 4750 2728 4690 
Q 3069 4631 3425 4513 
z
" transform="scale(0.015625)"/>
      <path id="DejaVuSans-4d" d="M 628 4666 
L 1569 4666 
L 2759 1491 
L 3956 4666 
L 4897 4666 
L 4897 0 
L 4281 0 
L 4281 4097 
L 3078 897 
L 2444 897 
L 1241 4097 
L 1241 0 
L 628 0 
L 628 4666 
z
" transform="scale(0.015625)"/>
      <path id="DejaVuSans-3d" d="M 678 2906 
L 4684 2906 
L 4684 2381 
L 678 2381 
L 678 2906 
z
M 678 1631 
L 4684 1631 
L 4684 1100 
L 678 1100 
L 678 1631 
z
" transform="scale(0.015625)"/>
     </defs>
     <use xlink:href="#DejaVuSans-67"/>
     <use xlink:href="#DejaVuSans-6c" x="63.476562"/>
     <use xlink:href="#DejaVuSans-75" x="91.259766"/>
     <use xlink:href="#DejaVuSans-63" x="154.638672"/>
     <use xlink:href="#DejaVuSans-5f" x="209.619141"/>
     <use xlink:href="#DejaVuSans-63" x="259.619141"/>
     <use xlink:href="#DejaVuSans-6f" x="314.599609"/>
     <use xlink:href="#DejaVuSans-6e" x="375.78125"/>
     <use xlink:href="#DejaVuSans-74" x="439.160156"/>
     <use xlink:href="#DejaVuSans-72" x="478.369141"/>
     <use xlink:href="#DejaVuSans-6f" x="517.232422"/>
     <use xlink:href="#DejaVuSans-6c" x="578.414062"/>
     <use xlink:href="#DejaVuSans-20" x="606.197266"/>
     <use xlink:href="#DejaVuSans-70" x="637.984375"/>
     <use xlink:href="#DejaVuSans-72" x="701.460938"/>
     <use xlink:href="#DejaVuSans-6f" x="740.324219"/>
     <use xlink:href="#DejaVuSans-62" x="801.505859"/>
     <use xlink:href="#DejaVuSans-61" x="864.982422"/>
     <use xlink:href="#DejaVuSans-62" x="926.261719"/>
     <use xlink:href="#DejaVuSans-69" x="989.738281"/>
     <use xlink:href="#DejaVuSans-6c" x="1017.521484"/>
     <use xlink:href="#DejaVuSans-69" x="1045.304688"/>
     <use xlink:href="#DejaVuSans-74" x="1073.087891"/>
     <use xlink:href="#DejaVuSans-79" x="1112.296875"/>
     <use xlink:href="#DejaVuSans-20" x="1171.476562"/>
     <use xlink:href="#DejaVuSans-50" x="1203.263672"/>
     <use xlink:href="#DejaVuSans-50" x="1263.566406"/>
     <use xlink:href="#DejaVuSans-53" x="1323.869141"/>
     <use xlink:href="#DejaVuSans-4d" x="1387.345703"/>
     <use xlink:href="#DejaVuSans-20" x="1473.625"/>
     <use xlink:href="#DejaVuSans-6e" x="1505.412109"/>
     <use xlink:href="#DejaVuSans-3d" x="1568.791016"/>
     <use xlink:href="#DejaVuSans-32" x="1652.580078"/>
    </g>
   </g>
  </g>
 </g>
 <defs>
  <clipPath id="pb35c66b369">
   <rect x="90" y="51.84" width="558" height="332.64"/>
  </clipPath>
 </defs>
</svg>
