<?xml version="1.0" encoding="utf-8" standalone="no"?>
<!DOCTYPE svg PUBLIC "-//W3C//DTD SVG 1.1//EN"
  "http://www.w3.org/Graphics/SVG/1.1/DTD/svg11.dtd">
<svg xmlns:xlink="http://www.w3.org/1999/xlink" width="720pt" height="432pt" viewBox="0 0 720 432" xmlns="http://www.w3.org/2000/svg" version="1.1">
 <metadata>
  <rdf:RDF xmlns:dc="http://purl.org/dc/elements/1.1/" xmlns:cc="http://creativecommons.org/ns#" xmlns:rdf="http://www.w3.org/1999/02/22-rdf-syntax-ns#">
   <cc:Work>
    <dc:type rdf:resource="http://purl.org/dc/dcmitype/StillImage"/>
    <dc:date>2023-05-02T14:09:34.075881</dc:date>
    <dc:format>image/svg+xml</dc:format>
    <dc:creator>
     <cc:Agent>
      <dc:title>Matplotlib v3.7.1, https://matplotlib.org/</dc:title>
     </cc:Agent>
    </dc:creator>
   </cc:Work>
  </rdf:RDF>
 </metadata>
 <defs>
  <style type="text/css">*{stroke-linejoin: round; stroke-linecap: butt}</style>
 </defs>
 <g id="figure_1">
  <g id="patch_1">
   <path d="M 0 432 
L 720 432 
L 720 0 
L 0 0 
z
" style="fill: #ffffff"/>
  </g>
  <g id="axes_1">
   <g id="patch_2">
    <path d="M 90 384.48 
L 648 384.48 
L 648 51.84 
L 90 51.84 
z
" style="fill: #ffffff"/>
   </g>
   <g id="patch_3">
    <path d="M 121 384.48 
L 183 384.48 
L 183 51.84 
L 121 51.84 
z
" clip-path="url(#pe50e10fa13)" style="fill: #ffd700; opacity: 0.35"/>
   </g>
   <g id="patch_4">
    <path d="M 307 384.48 
L 369 384.48 
L 369 51.84 
L 307 51.84 
z
" clip-path="url(#pe50e10fa13)" style="fill: #ffd700; opacity: 0.35"/>
   </g>
   <g id="patch_5">
    <path d="M 431 384.48 
L 493 384.48 
L 493 51.84 
L 431 51.84 
z
" clip-path="url(#pe50e10fa13)" style="fill: #ffd700; opacity: 0.35"/>
   </g>
   <g id="line2d_1">
    <path d="M 90 384.48 
L 648 384.48 
" clip-path="url(#pe50e10fa13)" style="fill: none; stroke: #000000; stroke-width: 0.5; stroke-linecap: square"/>
   </g>
   <g id="patch_6">
    <path d="M 125.65 380.590577 
L 140.22 380.590577 
L 151.988929 381.941254 
L 163.746786 380.590577 
L 178.35 380.590577 
L 158.665 382.783499 
L 158.665 384.380271 
L 145.346071 384.380271 
L 145.346071 382.783499 
L 125.65 380.590577 
z
" clip-path="url(#pe50e10fa13)" style="fill: #177875"/>
   </g>
   <g id="patch_7">
    <path d="M 125.65 331.983732 
L 178.35 331.983732 
L 178.35 341.201401 
L 159.390256 341.201401 
L 159.390256 379.247076 
L 144.646512 379.247076 
L 144.646512 341.201401 
L 125.65 341.201401 
L 125.65 331.983732 
z
" clip-path="url(#pe50e10fa13)" style="fill: #40ba47"/>
   </g>
   <g id="patch_8">
    <path d="M 125.65 77.963722 
L 134.762642 77.963722 
L 141.132798 256.957646 
L 147.455534 77.963722 
L 156.615597 77.963722 
L 162.938332 256.957646 
L 169.316392 77.963722 
L 178.35 77.963722 
L 169.656239 324.258517 
L 158.694196 324.258517 
L 152 137.030134 
L 145.384838 324.258517 
L 134.414892 324.258517 
L 125.65 77.963722 
z
" clip-path="url(#pe50e10fa13)" style="fill: #21599c"/>
   </g>
   <g id="patch_9">
    <path d="M 187.65 379.34553 
L 240.35 379.34553 
L 240.35 380.321219 
L 221.390256 380.321219 
L 221.390256 384.348347 
L 206.646512 384.348347 
L 206.646512 380.321219 
L 187.65 380.321219 
L 187.65 379.34553 
z
" clip-path="url(#pe50e10fa13)" style="fill: #40ba47"/>
   </g>
   <g id="patch_10">
    <path d="M 235.955948 326.989597 
L 235.955948 337.881151 
Q 230.459804 335.98505 225.221293 335.025976 
Q 219.997094 334.055878 215.34541 334.055878 
Q 209.176562 334.055878 206.213797 335.367715 
Q 203.265345 336.668528 203.265345 339.424488 
Q 203.265345 341.49697 205.254834 342.654473 
Q 207.244324 343.800953 212.482835 344.627741 
L 219.811027 345.763196 
Q 230.946442 347.493939 235.641065 351.010544 
Q 240.35 354.516125 240.35 360.998142 
Q 240.35 369.497523 233.794704 373.65351 
Q 227.239408 377.809498 213.770994 377.809498 
Q 207.430391 377.809498 201.032537 376.872471 
Q 194.634682 375.946469 188.236828 374.116512 
L 188.236828 362.927314 
Q 194.634682 365.539964 200.60315 366.873849 
Q 206.571619 368.19671 212.125014 368.19671 
Q 217.764286 368.19671 220.755676 366.752587 
Q 223.747067 365.29744 223.747067 362.607623 
Q 223.747067 360.204426 221.714639 358.892589 
Q 219.682211 357.580752 213.59924 356.544511 
L 206.929441 355.409056 
Q 196.910429 353.75548 192.273058 350.13966 
Q 187.65 346.523841 187.65 340.394586 
Q 187.65 332.71097 194.090793 328.57703 
Q 200.531586 324.44309 212.611651 324.44309 
Q 218.122108 324.44309 223.933134 325.082473 
Q 229.744161 325.721856 235.955948 326.989597 
z
" clip-path="url(#pe50e10fa13)" style="fill: #40ba47"/>
   </g>
   <g id="patch_11">
    <path d="M 224.155336 308.715831 
L 203.887763 308.715831 
L 200.68762 321.230819 
L 187.65 321.230819 
L 206.269015 252.530899 
L 221.730985 252.530899 
L 240.35 321.230819 
L 227.323155 321.230819 
L 224.155336 308.715831 
z
M 207.120231 295.965268 
L 220.890544 295.965268 
L 214.016162 268.638424 
L 207.120231 295.965268 
z
" clip-path="url(#pe50e10fa13)" style="fill: #21599c"/>
   </g>
   <g id="patch_12">
    <path d="M 249.65 383.516391 
L 266.578032 383.516391 
L 287.968106 384.160301 
L 287.968106 383.516391 
L 302.35 383.516391 
L 302.35 384.455292 
L 285.409364 384.455292 
L 264.01929 383.811382 
L 264.01929 384.455292 
L 249.65 384.455292 
L 249.65 383.516391 
z
" clip-path="url(#pe50e10fa13)" style="fill: #40ba47"/>
   </g>
   <g id="patch_13">
    <path d="M 286.155336 382.321785 
L 265.887763 382.321785 
L 262.68762 383.344014 
L 249.65 383.344014 
L 268.269015 377.732579 
L 283.730985 377.732579 
L 302.35 383.344014 
L 289.323155 383.344014 
L 286.155336 382.321785 
z
M 269.120231 381.280314 
L 282.890544 381.280314 
L 276.016162 379.048247 
L 269.120231 381.280314 
z
" clip-path="url(#pe50e10fa13)" style="fill: #21599c"/>
   </g>
   <g id="patch_14">
    <path d="M 297.955948 322.904223 
L 297.955948 334.308069 
Q 292.459804 332.322784 287.221293 331.318599 
Q 281.997094 330.302872 277.34541 330.302872 
Q 271.176562 330.302872 268.213797 331.676412 
Q 265.265345 333.03841 265.265345 335.923998 
Q 265.265345 338.093961 267.254834 339.305908 
Q 269.244324 340.506313 274.482835 341.371989 
L 281.811027 342.560852 
Q 292.946442 344.373001 297.641065 348.055012 
Q 302.35 351.72548 302.35 358.512385 
Q 302.35 367.411539 295.794704 371.763007 
Q 289.239408 376.114474 275.770994 376.114474 
Q 269.430391 376.114474 263.032537 375.133374 
Q 256.634682 374.163816 250.236828 372.247786 
L 250.236828 360.532296 
Q 256.634682 363.267834 262.60315 364.664459 
Q 268.571619 366.049542 274.125014 366.049542 
Q 279.764286 366.049542 282.755676 364.537493 
Q 285.747067 363.013903 285.747067 360.197568 
Q 285.747067 357.681335 283.714639 356.307795 
Q 281.682211 354.934255 275.59924 353.849274 
L 268.929441 352.660411 
Q 258.910429 350.929058 254.273058 347.143166 
Q 249.65 343.357274 249.65 336.939725 
Q 249.65 328.894705 256.090793 324.566322 
Q 262.531586 320.237939 274.611651 320.237939 
Q 280.122108 320.237939 285.933134 320.907396 
Q 291.744161 321.576852 297.955948 322.904223 
z
" clip-path="url(#pe50e10fa13)" style="fill: #40ba47"/>
   </g>
   <g id="patch_15">
    <path d="M 249.65 249.64964 
L 302.35 249.64964 
L 302.35 262.78391 
L 283.390256 262.78391 
L 283.390256 316.995251 
L 268.646512 316.995251 
L 268.646512 262.78391 
L 249.65 262.78391 
L 249.65 249.64964 
z
" clip-path="url(#pe50e10fa13)" style="fill: #40ba47"/>
   </g>
   <g id="patch_16">
    <path d="M 311.65 377.612761 
L 320.762642 377.612761 
L 327.132798 382.475536 
L 333.455534 377.612761 
L 342.615597 377.612761 
L 348.938332 382.475536 
L 355.316392 377.612761 
L 364.35 377.612761 
L 355.656239 384.303917 
L 344.694196 384.303917 
L 338 379.217434 
L 331.384838 384.303917 
L 320.414892 384.303917 
L 311.65 377.612761 
z
" clip-path="url(#pe50e10fa13)" style="fill: #21599c"/>
   </g>
   <g id="patch_17">
    <path d="M 311.65 368.765964 
L 326.813382 368.765964 
L 326.813382 371.98526 
L 349.186618 371.98526 
L 349.186618 368.765964 
L 364.35 368.765964 
L 364.35 377.214352 
L 349.186618 377.214352 
L 349.186618 373.632931 
L 326.813382 373.632931 
L 326.813382 377.214352 
L 311.65 377.214352 
L 311.65 368.765964 
z
" clip-path="url(#pe50e10fa13)" style="fill: #177875"/>
   </g>
   <g id="patch_18">
    <path d="M 312.198462 325.465145 
L 363.801538 325.465145 
L 363.801538 333.651228 
L 331.323077 333.651228 
L 331.323077 341.459492 
L 361.877949 341.459492 
L 361.877949 349.645575 
L 331.323077 349.645575 
L 331.323077 367.439061 
L 312.198462 367.439061 
L 312.198462 325.465145 
z
" clip-path="url(#pe50e10fa13)" style="fill: #21599c"/>
   </g>
   <g id="patch_19">
    <path d="M 311.65 65.334685 
L 326.22 65.334685 
L 337.988929 155.286446 
L 349.746786 65.334685 
L 364.35 65.334685 
L 344.665 211.377832 
L 344.665 317.718879 
L 331.346071 317.718879 
L 331.346071 211.377832 
L 311.65 65.334685 
z
" clip-path="url(#pe50e10fa13)" style="fill: #177875"/>
   </g>
   <g id="patch_20">
    <path d="M 373.65 384.248569 
L 390.578032 384.248569 
L 411.968106 384.403218 
L 411.968106 384.248569 
L 426.35 384.248569 
L 426.35 384.474066 
L 409.409364 384.474066 
L 388.01929 384.319418 
L 388.01929 384.474066 
L 373.65 384.474066 
L 373.65 384.248569 
z
" clip-path="url(#pe50e10fa13)" style="fill: #40ba47"/>
   </g>
   <g id="patch_21">
    <path d="M 373.65 382.940745 
L 426.35 382.940745 
L 426.35 383.188139 
L 407.390256 383.188139 
L 407.390256 384.209253 
L 392.646512 384.209253 
L 392.646512 383.188139 
L 373.65 383.188139 
L 373.65 382.940745 
z
" clip-path="url(#pe50e10fa13)" style="fill: #40ba47"/>
   </g>
   <g id="patch_22">
    <path d="M 410.155336 381.524393 
L 389.887763 381.524393 
L 386.68762 382.732799 
L 373.65 382.732799 
L 392.269015 376.099361 
L 407.730985 376.099361 
L 426.35 382.732799 
L 413.323155 382.732799 
L 410.155336 381.524393 
z
M 393.120231 380.293241 
L 406.890544 380.293241 
L 400.016162 377.654651 
L 393.120231 380.293241 
z
" clip-path="url(#pe50e10fa13)" style="fill: #21599c"/>
   </g>
   <g id="patch_23">
    <path d="M 421.955948 334.105914 
L 421.955948 342.827387 
Q 416.459804 341.309074 411.221293 340.54109 
Q 405.997094 339.764278 401.34541 339.764278 
Q 395.176562 339.764278 392.213797 340.814739 
Q 389.265345 341.856372 389.265345 344.063223 
Q 389.265345 345.722774 391.254834 346.649651 
Q 393.244324 347.567701 398.482835 348.229756 
L 405.811027 349.138978 
Q 416.946442 350.52488 421.641065 353.340821 
Q 426.35 356.147934 426.35 361.338446 
Q 426.35 368.144372 419.794704 371.472302 
Q 413.239408 374.800232 399.770994 374.800232 
Q 393.430391 374.800232 387.032537 374.049903 
Q 380.634682 373.308402 374.236828 371.843053 
L 374.236828 362.883241 
Q 380.634682 364.975335 386.60315 366.043451 
Q 392.571619 367.102739 398.125014 367.102739 
Q 403.764286 367.102739 406.755676 365.946349 
Q 409.747067 364.781132 409.747067 362.627247 
Q 409.747067 360.702873 407.714639 359.652413 
Q 405.682211 358.601952 399.59924 357.772176 
L 392.929441 356.862954 
Q 382.910429 355.538844 378.273058 352.643456 
Q 373.65 349.748069 373.65 344.840034 
Q 373.65 338.687336 380.090793 335.37706 
Q 386.531586 332.066785 398.611651 332.066785 
Q 404.122108 332.066785 409.933134 332.578774 
Q 415.744161 333.090763 421.955948 334.105914 
z
" clip-path="url(#pe50e10fa13)" style="fill: #40ba47"/>
   </g>
   <g id="patch_24">
    <path d="M 426.35 315.644106 
Q 421.035119 321.569678 415.318669 324.545992 
Q 409.602219 327.49525 403.507822 327.49525 
Q 389.736374 327.49525 381.693187 309.853822 
Q 373.65 292.212394 373.65 262.043388 
Q 373.65 231.522636 381.834917 214.016495 
Q 390.031645 196.510354 404.287338 196.510354 
Q 409.779381 196.510354 414.810802 198.891406 
Q 419.854034 201.2454 424.318534 205.899274 
L 424.318534 232.009669 
Q 419.712304 226.029983 415.153317 223.080725 
Q 410.59433 220.104411 406.011721 220.104411 
Q 397.531533 220.104411 392.937113 230.981488 
Q 388.342694 241.831507 388.342694 262.043388 
Q 388.342694 282.065867 392.771762 292.997059 
Q 397.200829 303.901193 405.350314 303.901193 
Q 407.570753 303.901193 409.472299 303.278873 
Q 411.373846 302.629495 412.885634 301.276625 
L 412.885634 276.762616 
L 404.204662 276.762616 
L 404.204662 254.927291 
L 426.35 254.927291 
L 426.35 315.644106 
z
" clip-path="url(#pe50e10fa13)" style="fill: #787800"/>
   </g>
   <g id="patch_25">
    <path d="M 452.437692 383.306501 
L 471.562308 383.306501 
L 471.562308 384.44991 
L 452.437692 384.44991 
L 452.437692 383.306501 
z
" clip-path="url(#pe50e10fa13)" style="fill: #21599c"/>
   </g>
   <g id="patch_26">
    <path d="M 435.65 380.730433 
L 451.195992 380.730433 
L 461.979692 382.057973 
L 472.83447 380.730433 
L 488.35 380.730433 
L 488.35 383.21113 
L 476.80474 383.21113 
L 476.80474 381.396596 
L 465.889037 382.734237 
L 458.141426 382.734237 
L 447.225723 381.396596 
L 447.225723 383.21113 
L 435.65 383.21113 
L 435.65 380.730433 
z
" clip-path="url(#pe50e10fa13)" style="fill: #21599c"/>
   </g>
   <g id="patch_27">
    <path d="M 436.198462 377.1762 
L 487.801538 377.1762 
L 487.801538 377.839195 
L 455.323077 377.839195 
L 455.323077 378.471591 
L 485.877949 378.471591 
L 485.877949 379.134587 
L 455.323077 379.134587 
L 455.323077 380.575691 
L 436.198462 380.575691 
L 436.198462 377.1762 
z
" clip-path="url(#pe50e10fa13)" style="fill: #21599c"/>
   </g>
   <g id="patch_28">
    <path d="M 435.65 372.236529 
L 450.22 372.236529 
L 461.988929 373.920859 
L 473.746786 372.236529 
L 488.35 372.236529 
L 468.665 374.971159 
L 468.665 376.962375 
L 455.346071 376.962375 
L 455.346071 374.971159 
L 435.65 372.236529 
z
" clip-path="url(#pe50e10fa13)" style="fill: #177875"/>
   </g>
   <g id="patch_29">
    <path d="M 435.65 313.405388 
L 454.774615 313.405388 
L 454.774615 359.463241 
L 488.35 359.463241 
L 488.35 370.606863 
L 435.65 370.606863 
L 435.65 313.405388 
z
" clip-path="url(#pe50e10fa13)" style="fill: #21599c"/>
   </g>
   <g id="patch_30">
    <path d="M 435.65 58.341502 
L 444.762642 58.341502 
L 451.132798 237.889415 
L 457.455534 58.341502 
L 466.615597 58.341502 
L 472.938332 237.889415 
L 479.316392 58.341502 
L 488.35 58.341502 
L 479.656239 305.398584 
L 468.694196 305.398584 
L 462 117.590725 
L 455.384838 305.398584 
L 444.414892 305.398584 
L 435.65 58.341502 
z
" clip-path="url(#pe50e10fa13)" style="fill: #21599c"/>
   </g>
   <g id="patch_31">
    <path d="M 497.65 384.052136 
L 511.537864 384.052136 
L 511.537864 384.204294 
L 531.555783 384.052136 
L 547.683253 384.052136 
L 521.743078 384.249593 
L 550.35 384.469029 
L 532.964195 384.469029 
L 511.537864 384.304809 
L 511.537864 384.469029 
L 497.65 384.469029 
L 497.65 384.052136 
z
" clip-path="url(#pe50e10fa13)" style="fill: #bd2e1f"/>
   </g>
   <g id="patch_32">
    <path d="M 512.091481 381.533907 
L 512.091481 383.374214 
L 517.265444 383.374214 
Q 526.112802 383.374214 530.782574 383.137631 
Q 535.464351 382.901047 535.464351 382.450505 
Q 535.464351 382.002548 530.806583 381.768551 
Q 526.16082 381.533907 517.265444 381.533907 
L 512.091481 381.533907 
z
M 497.65 380.94568 
L 512.871777 380.94568 
Q 525.63262 380.94568 531.874989 381.043934 
Q 538.117358 381.14154 542.583052 381.376184 
Q 546.520547 381.580448 548.429271 381.847412 
Q 550.35 382.113729 550.35 382.450505 
Q 550.35 382.792452 548.429271 383.060062 
Q 546.520547 383.327673 542.583052 383.53129 
Q 538.081344 383.765934 531.778952 383.864187 
Q 525.47656 383.961794 512.871777 383.961794 
L 497.65 383.961794 
L 497.65 380.94568 
z
" clip-path="url(#pe50e10fa13)" style="fill: #6b296b"/>
   </g>
   <g id="patch_33">
    <path d="M 525.405333 380.132126 
L 524.373292 380.132126 
Q 511.714313 380.132126 504.676667 379.664255 
Q 497.65 379.195649 497.65 378.360531 
Q 497.65 377.526883 504.665687 377.054605 
Q 511.681375 376.581592 524 376.581592 
Q 536.450375 376.581592 543.400187 377.050198 
Q 550.35 377.518069 550.35 378.360531 
Q 550.35 378.938577 546.661 379.356503 
Q 542.972 379.774429 536.044146 379.985228 
L 546.364562 380.756445 
L 533.771458 380.756445 
L 525.405333 380.132126 
z
M 524 377.222069 
Q 517.961458 377.222069 514.634771 377.520273 
Q 511.308083 377.818476 511.308083 378.360531 
Q 511.308083 378.911401 514.557917 379.204463 
Q 517.818729 379.496791 524 379.496791 
Q 530.071479 379.496791 533.398167 379.198587 
Q 536.724854 378.899649 536.724854 378.360531 
Q 536.724854 377.818476 533.398167 377.520273 
Q 530.071479 377.222069 524 377.222069 
z
" clip-path="url(#pe50e10fa13)" style="fill: #40ba47"/>
   </g>
   <g id="patch_34">
    <path d="M 545.955948 370.906525 
L 545.955948 372.067167 
Q 540.459804 371.865112 535.221293 371.762909 
Q 529.997094 371.659532 525.34541 371.659532 
Q 519.176562 371.659532 516.213797 371.799326 
Q 513.265345 371.937945 513.265345 372.23163 
Q 513.265345 372.452481 515.254834 372.575829 
Q 517.244324 372.698002 522.482835 372.786107 
L 529.811027 372.907105 
Q 540.946442 373.091539 545.641065 373.466281 
Q 550.35 373.839848 550.35 374.530595 
Q 550.35 375.436318 543.794704 375.879195 
Q 537.239408 376.322072 523.770994 376.322072 
Q 517.430391 376.322072 511.032537 376.222219 
Q 504.634682 376.123541 498.236828 375.928534 
L 498.236828 374.736174 
Q 504.634682 375.014587 510.60315 375.15673 
Q 516.571619 375.297699 522.125014 375.297699 
Q 527.764286 375.297699 530.755676 375.143808 
Q 533.747067 374.988743 533.747067 374.702106 
Q 533.747067 374.446013 531.714639 374.306219 
Q 529.682211 374.166425 523.59924 374.056 
L 516.929441 373.935002 
Q 506.910429 373.758791 502.273058 373.373477 
Q 497.65 372.988162 497.65 372.335007 
Q 497.65 371.516214 504.090793 371.075687 
Q 510.531586 370.63516 522.611651 370.63516 
Q 528.122108 370.63516 533.933134 370.703295 
Q 539.744161 370.77143 545.955948 370.906525 
z
" clip-path="url(#pe50e10fa13)" style="fill: #40ba47"/>
   </g>
   <g id="patch_35">
    <path d="M 497.65 317.244629 
L 550.35 317.244629 
L 550.35 327.361841 
L 531.390256 327.361841 
L 531.390256 369.120354 
L 516.646512 369.120354 
L 516.646512 327.361841 
L 497.65 327.361841 
L 497.65 317.244629 
z
" clip-path="url(#pe50e10fa13)" style="fill: #40ba47"/>
   </g>
   <g id="patch_36">
    <path d="M 497.65 247.40459 
L 549.253077 247.40459 
L 549.253077 260.416678 
L 516.774615 260.416678 
L 516.774615 272.828208 
L 547.329487 272.828208 
L 547.329487 285.840295 
L 516.774615 285.840295 
L 516.774615 301.125924 
L 550.35 301.125924 
L 550.35 314.123712 
L 497.65 314.123712 
L 497.65 247.40459 
z
" clip-path="url(#pe50e10fa13)" style="fill: #6b296b"/>
   </g>
   <g id="patch_37">
    <path d="M 559.65 383.21607 
L 568.762642 383.21607 
L 575.132798 384.111074 
L 581.455534 383.21607 
L 590.615597 383.21607 
L 596.938332 384.111074 
L 603.316392 383.21607 
L 612.35 383.21607 
L 603.656239 384.447592 
L 592.694196 384.447592 
L 586 383.511413 
L 579.384838 384.447592 
L 568.414892 384.447592 
L 559.65 383.21607 
z
" clip-path="url(#pe50e10fa13)" style="fill: #21599c"/>
   </g>
   <g id="patch_38">
    <path d="M 559.65 381.690453 
L 574.813382 381.690453 
L 574.813382 382.244857 
L 597.186618 382.244857 
L 597.186618 381.690453 
L 612.35 381.690453 
L 612.35 383.145374 
L 597.186618 383.145374 
L 597.186618 382.528607 
L 574.813382 382.528607 
L 574.813382 383.145374 
L 559.65 383.145374 
L 559.65 381.690453 
z
" clip-path="url(#pe50e10fa13)" style="fill: #177875"/>
   </g>
   <g id="patch_39">
    <path d="M 560.198462 370.065405 
L 611.801538 370.065405 
L 611.801538 372.267204 
L 579.323077 372.267204 
L 579.323077 374.367381 
L 609.877949 374.367381 
L 609.877949 376.56918 
L 579.323077 376.56918 
L 579.323077 381.355069 
L 560.198462 381.355069 
L 560.198462 370.065405 
z
" clip-path="url(#pe50e10fa13)" style="fill: #21599c"/>
   </g>
   <g id="patch_40">
    <path d="M 596.155336 359.922463 
L 575.887763 359.922463 
L 572.68762 368.525525 
L 559.65 368.525525 
L 578.269015 321.299772 
L 593.730985 321.299772 
L 612.35 368.525525 
L 599.323155 368.525525 
L 596.155336 359.922463 
z
M 579.120231 351.15746 
L 592.890544 351.15746 
L 586.016162 332.37242 
L 579.120231 351.15746 
z
" clip-path="url(#pe50e10fa13)" style="fill: #21599c"/>
   </g>
   <g id="patch_41">
    <path d="M 559.65 221.294941 
L 574.22 221.294941 
L 585.988929 255.591977 
L 597.746786 221.294941 
L 612.35 221.294941 
L 592.665 276.978644 
L 592.665 317.524629 
L 579.346071 317.524629 
L 579.346071 276.978644 
L 559.65 221.294941 
z
" clip-path="url(#pe50e10fa13)" style="fill: #177875"/>
   </g>
   <g id="matplotlib.axis_1">
    <g id="xtick_1">
     <g id="line2d_2">
      <defs>
       <path id="m074e5c538a" d="M 0 0 
L 0 3.5 
" style="stroke: #000000; stroke-width: 0.8"/>
      </defs>
      <g>
       <use xlink:href="#m074e5c538a" x="152" y="384.48" style="stroke: #000000; stroke-width: 0.8"/>
      </g>
     </g>
     <g id="text_1">
      <!-- P4 -->
      <g transform="translate(145.803906 399.078438) scale(0.1 -0.1)">
       <defs>
        <path id="DejaVuSans-50" d="M 1259 4147 
L 1259 2394 
L 2053 2394 
Q 2494 2394 2734 2622 
Q 2975 2850 2975 3272 
Q 2975 3691 2734 3919 
Q 2494 4147 2053 4147 
L 1259 4147 
z
M 628 4666 
L 2053 4666 
Q 2838 4666 3239 4311 
Q 3641 3956 3641 3272 
Q 3641 2581 3239 2228 
Q 2838 1875 2053 1875 
L 1259 1875 
L 1259 0 
L 628 0 
L 628 4666 
z
" transform="scale(0.015625)"/>
        <path id="DejaVuSans-34" d="M 2419 4116 
L 825 1625 
L 2419 1625 
L 2419 4116 
z
M 2253 4666 
L 3047 4666 
L 3047 1625 
L 3713 1625 
L 3713 1100 
L 3047 1100 
L 3047 0 
L 2419 0 
L 2419 1100 
L 313 1100 
L 313 1709 
L 2253 4666 
z
" transform="scale(0.015625)"/>
       </defs>
       <use xlink:href="#DejaVuSans-50"/>
       <use xlink:href="#DejaVuSans-34" x="60.302734"/>
      </g>
     </g>
    </g>
    <g id="xtick_2">
     <g id="line2d_3">
      <g>
       <use xlink:href="#m074e5c538a" x="214" y="384.48" style="stroke: #000000; stroke-width: 0.8"/>
      </g>
     </g>
     <g id="text_2">
      <!-- P3 -->
      <g transform="translate(207.803906 399.078438) scale(0.1 -0.1)">
       <defs>
        <path id="DejaVuSans-33" d="M 2597 2516 
Q 3050 2419 3304 2112 
Q 3559 1806 3559 1356 
Q 3559 666 3084 287 
Q 2609 -91 1734 -91 
Q 1441 -91 1130 -33 
Q 819 25 488 141 
L 488 750 
Q 750 597 1062 519 
Q 1375 441 1716 441 
Q 2309 441 2620 675 
Q 2931 909 2931 1356 
Q 2931 1769 2642 2001 
Q 2353 2234 1838 2234 
L 1294 2234 
L 1294 2753 
L 1863 2753 
Q 2328 2753 2575 2939 
Q 2822 3125 2822 3475 
Q 2822 3834 2567 4026 
Q 2313 4219 1838 4219 
Q 1578 4219 1281 4162 
Q 984 4106 628 3988 
L 628 4550 
Q 988 4650 1302 4700 
Q 1616 4750 1894 4750 
Q 2613 4750 3031 4423 
Q 3450 4097 3450 3541 
Q 3450 3153 3228 2886 
Q 3006 2619 2597 2516 
z
" transform="scale(0.015625)"/>
       </defs>
       <use xlink:href="#DejaVuSans-50"/>
       <use xlink:href="#DejaVuSans-33" x="60.302734"/>
      </g>
     </g>
    </g>
    <g id="xtick_3">
     <g id="line2d_4">
      <g>
       <use xlink:href="#m074e5c538a" x="276" y="384.48" style="stroke: #000000; stroke-width: 0.8"/>
      </g>
     </g>
     <g id="text_3">
      <!-- P2 -->
      <g transform="translate(269.803906 399.078438) scale(0.1 -0.1)">
       <defs>
        <path id="DejaVuSans-32" d="M 1228 531 
L 3431 531 
L 3431 0 
L 469 0 
L 469 531 
Q 828 903 1448 1529 
Q 2069 2156 2228 2338 
Q 2531 2678 2651 2914 
Q 2772 3150 2772 3378 
Q 2772 3750 2511 3984 
Q 2250 4219 1831 4219 
Q 1534 4219 1204 4116 
Q 875 4013 500 3803 
L 500 4441 
Q 881 4594 1212 4672 
Q 1544 4750 1819 4750 
Q 2544 4750 2975 4387 
Q 3406 4025 3406 3419 
Q 3406 3131 3298 2873 
Q 3191 2616 2906 2266 
Q 2828 2175 2409 1742 
Q 1991 1309 1228 531 
z
" transform="scale(0.015625)"/>
       </defs>
       <use xlink:href="#DejaVuSans-50"/>
       <use xlink:href="#DejaVuSans-32" x="60.302734"/>
      </g>
     </g>
    </g>
    <g id="xtick_4">
     <g id="line2d_5">
      <g>
       <use xlink:href="#m074e5c538a" x="338" y="384.48" style="stroke: #000000; stroke-width: 0.8"/>
      </g>
     </g>
     <g id="text_4">
      <!-- P1 -->
      <g transform="translate(331.803906 399.078438) scale(0.1 -0.1)">
       <defs>
        <path id="DejaVuSans-31" d="M 794 531 
L 1825 531 
L 1825 4091 
L 703 3866 
L 703 4441 
L 1819 4666 
L 2450 4666 
L 2450 531 
L 3481 531 
L 3481 0 
L 794 0 
L 794 531 
z
" transform="scale(0.015625)"/>
       </defs>
       <use xlink:href="#DejaVuSans-50"/>
       <use xlink:href="#DejaVuSans-31" x="60.302734"/>
      </g>
     </g>
    </g>
    <g id="xtick_5">
     <g id="line2d_6">
      <g>
       <use xlink:href="#m074e5c538a" x="400" y="384.48" style="stroke: #000000; stroke-width: 0.8"/>
      </g>
     </g>
     <g id="text_5">
      <!-- P1' -->
      <g transform="translate(392.429688 399.078438) scale(0.1 -0.1)">
       <defs>
        <path id="DejaVuSans-27" d="M 1147 4666 
L 1147 2931 
L 616 2931 
L 616 4666 
L 1147 4666 
z
" transform="scale(0.015625)"/>
       </defs>
       <use xlink:href="#DejaVuSans-50"/>
       <use xlink:href="#DejaVuSans-31" x="60.302734"/>
       <use xlink:href="#DejaVuSans-27" x="123.925781"/>
      </g>
     </g>
    </g>
    <g id="xtick_6">
     <g id="line2d_7">
      <g>
       <use xlink:href="#m074e5c538a" x="462" y="384.48" style="stroke: #000000; stroke-width: 0.8"/>
      </g>
     </g>
     <g id="text_6">
      <!-- P2' -->
      <g transform="translate(454.429688 399.078438) scale(0.1 -0.1)">
       <use xlink:href="#DejaVuSans-50"/>
       <use xlink:href="#DejaVuSans-32" x="60.302734"/>
       <use xlink:href="#DejaVuSans-27" x="123.925781"/>
      </g>
     </g>
    </g>
    <g id="xtick_7">
     <g id="line2d_8">
      <g>
       <use xlink:href="#m074e5c538a" x="524" y="384.48" style="stroke: #000000; stroke-width: 0.8"/>
      </g>
     </g>
     <g id="text_7">
      <!-- P3' -->
      <g transform="translate(516.429688 399.078438) scale(0.1 -0.1)">
       <use xlink:href="#DejaVuSans-50"/>
       <use xlink:href="#DejaVuSans-33" x="60.302734"/>
       <use xlink:href="#DejaVuSans-27" x="123.925781"/>
      </g>
     </g>
    </g>
    <g id="xtick_8">
     <g id="line2d_9">
      <g>
       <use xlink:href="#m074e5c538a" x="586" y="384.48" style="stroke: #000000; stroke-width: 0.8"/>
      </g>
     </g>
     <g id="text_8">
      <!-- P4' -->
      <g transform="translate(578.429688 399.078438) scale(0.1 -0.1)">
       <use xlink:href="#DejaVuSans-50"/>
       <use xlink:href="#DejaVuSans-34" x="60.302734"/>
       <use xlink:href="#DejaVuSans-27" x="123.925781"/>
      </g>
     </g>
    </g>
   </g>
   <g id="matplotlib.axis_2">
    <g id="ytick_1">
     <g id="line2d_10">
      <defs>
       <path id="m7108228d35" d="M 0 0 
L -3.5 0 
" style="stroke: #000000; stroke-width: 0.8"/>
      </defs>
      <g>
       <use xlink:href="#m7108228d35" x="90" y="384.48" style="stroke: #000000; stroke-width: 0.8"/>
      </g>
     </g>
     <g id="text_9">
      <!-- 0.0 -->
      <g transform="translate(67.096875 388.279219) scale(0.1 -0.1)">
       <defs>
        <path id="DejaVuSans-30" d="M 2034 4250 
Q 1547 4250 1301 3770 
Q 1056 3291 1056 2328 
Q 1056 1369 1301 889 
Q 1547 409 2034 409 
Q 2525 409 2770 889 
Q 3016 1369 3016 2328 
Q 3016 3291 2770 3770 
Q 2525 4250 2034 4250 
z
M 2034 4750 
Q 2819 4750 3233 4129 
Q 3647 3509 3647 2328 
Q 3647 1150 3233 529 
Q 2819 -91 2034 -91 
Q 1250 -91 836 529 
Q 422 1150 422 2328 
Q 422 3509 836 4129 
Q 1250 4750 2034 4750 
z
" transform="scale(0.015625)"/>
        <path id="DejaVuSans-2e" d="M 684 794 
L 1344 794 
L 1344 0 
L 684 0 
L 684 794 
z
" transform="scale(0.015625)"/>
       </defs>
       <use xlink:href="#DejaVuSans-30"/>
       <use xlink:href="#DejaVuSans-2e" x="63.623047"/>
       <use xlink:href="#DejaVuSans-30" x="95.410156"/>
      </g>
     </g>
    </g>
    <g id="ytick_2">
     <g id="line2d_11">
      <g>
       <use xlink:href="#m7108228d35" x="90" y="336.892649" style="stroke: #000000; stroke-width: 0.8"/>
      </g>
     </g>
     <g id="text_10">
      <!-- 0.2 -->
      <g transform="translate(67.096875 340.691868) scale(0.1 -0.1)">
       <use xlink:href="#DejaVuSans-30"/>
       <use xlink:href="#DejaVuSans-2e" x="63.623047"/>
       <use xlink:href="#DejaVuSans-32" x="95.410156"/>
      </g>
     </g>
    </g>
    <g id="ytick_3">
     <g id="line2d_12">
      <g>
       <use xlink:href="#m7108228d35" x="90" y="289.305299" style="stroke: #000000; stroke-width: 0.8"/>
      </g>
     </g>
     <g id="text_11">
      <!-- 0.4 -->
      <g transform="translate(67.096875 293.104517) scale(0.1 -0.1)">
       <use xlink:href="#DejaVuSans-30"/>
       <use xlink:href="#DejaVuSans-2e" x="63.623047"/>
       <use xlink:href="#DejaVuSans-34" x="95.410156"/>
      </g>
     </g>
    </g>
    <g id="ytick_4">
     <g id="line2d_13">
      <g>
       <use xlink:href="#m7108228d35" x="90" y="241.717948" style="stroke: #000000; stroke-width: 0.8"/>
      </g>
     </g>
     <g id="text_12">
      <!-- 0.6 -->
      <g transform="translate(67.096875 245.517167) scale(0.1 -0.1)">
       <defs>
        <path id="DejaVuSans-36" d="M 2113 2584 
Q 1688 2584 1439 2293 
Q 1191 2003 1191 1497 
Q 1191 994 1439 701 
Q 1688 409 2113 409 
Q 2538 409 2786 701 
Q 3034 994 3034 1497 
Q 3034 2003 2786 2293 
Q 2538 2584 2113 2584 
z
M 3366 4563 
L 3366 3988 
Q 3128 4100 2886 4159 
Q 2644 4219 2406 4219 
Q 1781 4219 1451 3797 
Q 1122 3375 1075 2522 
Q 1259 2794 1537 2939 
Q 1816 3084 2150 3084 
Q 2853 3084 3261 2657 
Q 3669 2231 3669 1497 
Q 3669 778 3244 343 
Q 2819 -91 2113 -91 
Q 1303 -91 875 529 
Q 447 1150 447 2328 
Q 447 3434 972 4092 
Q 1497 4750 2381 4750 
Q 2619 4750 2861 4703 
Q 3103 4656 3366 4563 
z
" transform="scale(0.015625)"/>
       </defs>
       <use xlink:href="#DejaVuSans-30"/>
       <use xlink:href="#DejaVuSans-2e" x="63.623047"/>
       <use xlink:href="#DejaVuSans-36" x="95.410156"/>
      </g>
     </g>
    </g>
    <g id="ytick_5">
     <g id="line2d_14">
      <g>
       <use xlink:href="#m7108228d35" x="90" y="194.130597" style="stroke: #000000; stroke-width: 0.8"/>
      </g>
     </g>
     <g id="text_13">
      <!-- 0.8 -->
      <g transform="translate(67.096875 197.929816) scale(0.1 -0.1)">
       <defs>
        <path id="DejaVuSans-38" d="M 2034 2216 
Q 1584 2216 1326 1975 
Q 1069 1734 1069 1313 
Q 1069 891 1326 650 
Q 1584 409 2034 409 
Q 2484 409 2743 651 
Q 3003 894 3003 1313 
Q 3003 1734 2745 1975 
Q 2488 2216 2034 2216 
z
M 1403 2484 
Q 997 2584 770 2862 
Q 544 3141 544 3541 
Q 544 4100 942 4425 
Q 1341 4750 2034 4750 
Q 2731 4750 3128 4425 
Q 3525 4100 3525 3541 
Q 3525 3141 3298 2862 
Q 3072 2584 2669 2484 
Q 3125 2378 3379 2068 
Q 3634 1759 3634 1313 
Q 3634 634 3220 271 
Q 2806 -91 2034 -91 
Q 1263 -91 848 271 
Q 434 634 434 1313 
Q 434 1759 690 2068 
Q 947 2378 1403 2484 
z
M 1172 3481 
Q 1172 3119 1398 2916 
Q 1625 2713 2034 2713 
Q 2441 2713 2670 2916 
Q 2900 3119 2900 3481 
Q 2900 3844 2670 4047 
Q 2441 4250 2034 4250 
Q 1625 4250 1398 4047 
Q 1172 3844 1172 3481 
z
" transform="scale(0.015625)"/>
       </defs>
       <use xlink:href="#DejaVuSans-30"/>
       <use xlink:href="#DejaVuSans-2e" x="63.623047"/>
       <use xlink:href="#DejaVuSans-38" x="95.410156"/>
      </g>
     </g>
    </g>
    <g id="ytick_6">
     <g id="line2d_15">
      <g>
       <use xlink:href="#m7108228d35" x="90" y="146.543247" style="stroke: #000000; stroke-width: 0.8"/>
      </g>
     </g>
     <g id="text_14">
      <!-- 1.0 -->
      <g transform="translate(67.096875 150.342465) scale(0.1 -0.1)">
       <use xlink:href="#DejaVuSans-31"/>
       <use xlink:href="#DejaVuSans-2e" x="63.623047"/>
       <use xlink:href="#DejaVuSans-30" x="95.410156"/>
      </g>
     </g>
    </g>
    <g id="ytick_7">
     <g id="line2d_16">
      <g>
       <use xlink:href="#m7108228d35" x="90" y="98.955896" style="stroke: #000000; stroke-width: 0.8"/>
      </g>
     </g>
     <g id="text_15">
      <!-- 1.2 -->
      <g transform="translate(67.096875 102.755115) scale(0.1 -0.1)">
       <use xlink:href="#DejaVuSans-31"/>
       <use xlink:href="#DejaVuSans-2e" x="63.623047"/>
       <use xlink:href="#DejaVuSans-32" x="95.410156"/>
      </g>
     </g>
    </g>
    <g id="text_16">
     <!-- information (bits) -->
     <g transform="translate(61.017187 261.635781) rotate(-90) scale(0.1 -0.1)">
      <defs>
       <path id="DejaVuSans-69" d="M 603 3500 
L 1178 3500 
L 1178 0 
L 603 0 
L 603 3500 
z
M 603 4863 
L 1178 4863 
L 1178 4134 
L 603 4134 
L 603 4863 
z
" transform="scale(0.015625)"/>
       <path id="DejaVuSans-6e" d="M 3513 2113 
L 3513 0 
L 2938 0 
L 2938 2094 
Q 2938 2591 2744 2837 
Q 2550 3084 2163 3084 
Q 1697 3084 1428 2787 
Q 1159 2491 1159 1978 
L 1159 0 
L 581 0 
L 581 3500 
L 1159 3500 
L 1159 2956 
Q 1366 3272 1645 3428 
Q 1925 3584 2291 3584 
Q 2894 3584 3203 3211 
Q 3513 2838 3513 2113 
z
" transform="scale(0.015625)"/>
       <path id="DejaVuSans-66" d="M 2375 4863 
L 2375 4384 
L 1825 4384 
Q 1516 4384 1395 4259 
Q 1275 4134 1275 3809 
L 1275 3500 
L 2222 3500 
L 2222 3053 
L 1275 3053 
L 1275 0 
L 697 0 
L 697 3053 
L 147 3053 
L 147 3500 
L 697 3500 
L 697 3744 
Q 697 4328 969 4595 
Q 1241 4863 1831 4863 
L 2375 4863 
z
" transform="scale(0.015625)"/>
       <path id="DejaVuSans-6f" d="M 1959 3097 
Q 1497 3097 1228 2736 
Q 959 2375 959 1747 
Q 959 1119 1226 758 
Q 1494 397 1959 397 
Q 2419 397 2687 759 
Q 2956 1122 2956 1747 
Q 2956 2369 2687 2733 
Q 2419 3097 1959 3097 
z
M 1959 3584 
Q 2709 3584 3137 3096 
Q 3566 2609 3566 1747 
Q 3566 888 3137 398 
Q 2709 -91 1959 -91 
Q 1206 -91 779 398 
Q 353 888 353 1747 
Q 353 2609 779 3096 
Q 1206 3584 1959 3584 
z
" transform="scale(0.015625)"/>
       <path id="DejaVuSans-72" d="M 2631 2963 
Q 2534 3019 2420 3045 
Q 2306 3072 2169 3072 
Q 1681 3072 1420 2755 
Q 1159 2438 1159 1844 
L 1159 0 
L 581 0 
L 581 3500 
L 1159 3500 
L 1159 2956 
Q 1341 3275 1631 3429 
Q 1922 3584 2338 3584 
Q 2397 3584 2469 3576 
Q 2541 3569 2628 3553 
L 2631 2963 
z
" transform="scale(0.015625)"/>
       <path id="DejaVuSans-6d" d="M 3328 2828 
Q 3544 3216 3844 3400 
Q 4144 3584 4550 3584 
Q 5097 3584 5394 3201 
Q 5691 2819 5691 2113 
L 5691 0 
L 5113 0 
L 5113 2094 
Q 5113 2597 4934 2840 
Q 4756 3084 4391 3084 
Q 3944 3084 3684 2787 
Q 3425 2491 3425 1978 
L 3425 0 
L 2847 0 
L 2847 2094 
Q 2847 2600 2669 2842 
Q 2491 3084 2119 3084 
Q 1678 3084 1418 2786 
Q 1159 2488 1159 1978 
L 1159 0 
L 581 0 
L 581 3500 
L 1159 3500 
L 1159 2956 
Q 1356 3278 1631 3431 
Q 1906 3584 2284 3584 
Q 2666 3584 2933 3390 
Q 3200 3197 3328 2828 
z
" transform="scale(0.015625)"/>
       <path id="DejaVuSans-61" d="M 2194 1759 
Q 1497 1759 1228 1600 
Q 959 1441 959 1056 
Q 959 750 1161 570 
Q 1363 391 1709 391 
Q 2188 391 2477 730 
Q 2766 1069 2766 1631 
L 2766 1759 
L 2194 1759 
z
M 3341 1997 
L 3341 0 
L 2766 0 
L 2766 531 
Q 2569 213 2275 61 
Q 1981 -91 1556 -91 
Q 1019 -91 701 211 
Q 384 513 384 1019 
Q 384 1609 779 1909 
Q 1175 2209 1959 2209 
L 2766 2209 
L 2766 2266 
Q 2766 2663 2505 2880 
Q 2244 3097 1772 3097 
Q 1472 3097 1187 3025 
Q 903 2953 641 2809 
L 641 3341 
Q 956 3463 1253 3523 
Q 1550 3584 1831 3584 
Q 2591 3584 2966 3190 
Q 3341 2797 3341 1997 
z
" transform="scale(0.015625)"/>
       <path id="DejaVuSans-74" d="M 1172 4494 
L 1172 3500 
L 2356 3500 
L 2356 3053 
L 1172 3053 
L 1172 1153 
Q 1172 725 1289 603 
Q 1406 481 1766 481 
L 2356 481 
L 2356 0 
L 1766 0 
Q 1100 0 847 248 
Q 594 497 594 1153 
L 594 3053 
L 172 3053 
L 172 3500 
L 594 3500 
L 594 4494 
L 1172 4494 
z
" transform="scale(0.015625)"/>
       <path id="DejaVuSans-20" transform="scale(0.015625)"/>
       <path id="DejaVuSans-28" d="M 1984 4856 
Q 1566 4138 1362 3434 
Q 1159 2731 1159 2009 
Q 1159 1288 1364 580 
Q 1569 -128 1984 -844 
L 1484 -844 
Q 1016 -109 783 600 
Q 550 1309 550 2009 
Q 550 2706 781 3412 
Q 1013 4119 1484 4856 
L 1984 4856 
z
" transform="scale(0.015625)"/>
       <path id="DejaVuSans-62" d="M 3116 1747 
Q 3116 2381 2855 2742 
Q 2594 3103 2138 3103 
Q 1681 3103 1420 2742 
Q 1159 2381 1159 1747 
Q 1159 1113 1420 752 
Q 1681 391 2138 391 
Q 2594 391 2855 752 
Q 3116 1113 3116 1747 
z
M 1159 2969 
Q 1341 3281 1617 3432 
Q 1894 3584 2278 3584 
Q 2916 3584 3314 3078 
Q 3713 2572 3713 1747 
Q 3713 922 3314 415 
Q 2916 -91 2278 -91 
Q 1894 -91 1617 61 
Q 1341 213 1159 525 
L 1159 0 
L 581 0 
L 581 4863 
L 1159 4863 
L 1159 2969 
z
" transform="scale(0.015625)"/>
       <path id="DejaVuSans-73" d="M 2834 3397 
L 2834 2853 
Q 2591 2978 2328 3040 
Q 2066 3103 1784 3103 
Q 1356 3103 1142 2972 
Q 928 2841 928 2578 
Q 928 2378 1081 2264 
Q 1234 2150 1697 2047 
L 1894 2003 
Q 2506 1872 2764 1633 
Q 3022 1394 3022 966 
Q 3022 478 2636 193 
Q 2250 -91 1575 -91 
Q 1294 -91 989 -36 
Q 684 19 347 128 
L 347 722 
Q 666 556 975 473 
Q 1284 391 1588 391 
Q 1994 391 2212 530 
Q 2431 669 2431 922 
Q 2431 1156 2273 1281 
Q 2116 1406 1581 1522 
L 1381 1569 
Q 847 1681 609 1914 
Q 372 2147 372 2553 
Q 372 3047 722 3315 
Q 1072 3584 1716 3584 
Q 2034 3584 2315 3537 
Q 2597 3491 2834 3397 
z
" transform="scale(0.015625)"/>
       <path id="DejaVuSans-29" d="M 513 4856 
L 1013 4856 
Q 1481 4119 1714 3412 
Q 1947 2706 1947 2009 
Q 1947 1309 1714 600 
Q 1481 -109 1013 -844 
L 513 -844 
Q 928 -128 1133 580 
Q 1338 1288 1338 2009 
Q 1338 2731 1133 3434 
Q 928 4138 513 4856 
z
" transform="scale(0.015625)"/>
      </defs>
      <use xlink:href="#DejaVuSans-69"/>
      <use xlink:href="#DejaVuSans-6e" x="27.783203"/>
      <use xlink:href="#DejaVuSans-66" x="91.162109"/>
      <use xlink:href="#DejaVuSans-6f" x="126.367188"/>
      <use xlink:href="#DejaVuSans-72" x="187.548828"/>
      <use xlink:href="#DejaVuSans-6d" x="226.912109"/>
      <use xlink:href="#DejaVuSans-61" x="324.324219"/>
      <use xlink:href="#DejaVuSans-74" x="385.603516"/>
      <use xlink:href="#DejaVuSans-69" x="424.8125"/>
      <use xlink:href="#DejaVuSans-6f" x="452.595703"/>
      <use xlink:href="#DejaVuSans-6e" x="513.777344"/>
      <use xlink:href="#DejaVuSans-20" x="577.15625"/>
      <use xlink:href="#DejaVuSans-28" x="608.943359"/>
      <use xlink:href="#DejaVuSans-62" x="647.957031"/>
      <use xlink:href="#DejaVuSans-69" x="711.433594"/>
      <use xlink:href="#DejaVuSans-74" x="739.216797"/>
      <use xlink:href="#DejaVuSans-73" x="778.425781"/>
      <use xlink:href="#DejaVuSans-29" x="830.525391"/>
     </g>
    </g>
   </g>
   <g id="line2d_17">
    <path d="M 369 384.48 
L 369 51.84 
" clip-path="url(#pe50e10fa13)" style="fill: none; stroke: #daa520; stroke-width: 2; stroke-linecap: square"/>
   </g>
   <g id="patch_42">
    <path d="M 90 384.48 
L 648 384.48 
" style="fill: none; stroke: #000000; stroke-width: 0.8; stroke-linejoin: miter; stroke-linecap: square"/>
   </g>
   <g id="patch_43">
    <path d="M 90 51.84 
L 648 51.84 
" style="fill: none; stroke: #000000; stroke-width: 0.8; stroke-linejoin: miter; stroke-linecap: square"/>
   </g>
   <g id="text_17">
    <!-- gluc_control information content, Kullback n=2 -->
    <g transform="translate(227.815313 45.84) scale(0.12 -0.12)">
     <defs>
      <path id="DejaVuSans-67" d="M 2906 1791 
Q 2906 2416 2648 2759 
Q 2391 3103 1925 3103 
Q 1463 3103 1205 2759 
Q 947 2416 947 1791 
Q 947 1169 1205 825 
Q 1463 481 1925 481 
Q 2391 481 2648 825 
Q 2906 1169 2906 1791 
z
M 3481 434 
Q 3481 -459 3084 -895 
Q 2688 -1331 1869 -1331 
Q 1566 -1331 1297 -1286 
Q 1028 -1241 775 -1147 
L 775 -588 
Q 1028 -725 1275 -790 
Q 1522 -856 1778 -856 
Q 2344 -856 2625 -561 
Q 2906 -266 2906 331 
L 2906 616 
Q 2728 306 2450 153 
Q 2172 0 1784 0 
Q 1141 0 747 490 
Q 353 981 353 1791 
Q 353 2603 747 3093 
Q 1141 3584 1784 3584 
Q 2172 3584 2450 3431 
Q 2728 3278 2906 2969 
L 2906 3500 
L 3481 3500 
L 3481 434 
z
" transform="scale(0.015625)"/>
      <path id="DejaVuSans-6c" d="M 603 4863 
L 1178 4863 
L 1178 0 
L 603 0 
L 603 4863 
z
" transform="scale(0.015625)"/>
      <path id="DejaVuSans-75" d="M 544 1381 
L 544 3500 
L 1119 3500 
L 1119 1403 
Q 1119 906 1312 657 
Q 1506 409 1894 409 
Q 2359 409 2629 706 
Q 2900 1003 2900 1516 
L 2900 3500 
L 3475 3500 
L 3475 0 
L 2900 0 
L 2900 538 
Q 2691 219 2414 64 
Q 2138 -91 1772 -91 
Q 1169 -91 856 284 
Q 544 659 544 1381 
z
M 1991 3584 
L 1991 3584 
z
" transform="scale(0.015625)"/>
      <path id="DejaVuSans-63" d="M 3122 3366 
L 3122 2828 
Q 2878 2963 2633 3030 
Q 2388 3097 2138 3097 
Q 1578 3097 1268 2742 
Q 959 2388 959 1747 
Q 959 1106 1268 751 
Q 1578 397 2138 397 
Q 2388 397 2633 464 
Q 2878 531 3122 666 
L 3122 134 
Q 2881 22 2623 -34 
Q 2366 -91 2075 -91 
Q 1284 -91 818 406 
Q 353 903 353 1747 
Q 353 2603 823 3093 
Q 1294 3584 2113 3584 
Q 2378 3584 2631 3529 
Q 2884 3475 3122 3366 
z
" transform="scale(0.015625)"/>
      <path id="DejaVuSans-5f" d="M 3263 -1063 
L 3263 -1509 
L -63 -1509 
L -63 -1063 
L 3263 -1063 
z
" transform="scale(0.015625)"/>
      <path id="DejaVuSans-65" d="M 3597 1894 
L 3597 1613 
L 953 1613 
Q 991 1019 1311 708 
Q 1631 397 2203 397 
Q 2534 397 2845 478 
Q 3156 559 3463 722 
L 3463 178 
Q 3153 47 2828 -22 
Q 2503 -91 2169 -91 
Q 1331 -91 842 396 
Q 353 884 353 1716 
Q 353 2575 817 3079 
Q 1281 3584 2069 3584 
Q 2775 3584 3186 3129 
Q 3597 2675 3597 1894 
z
M 3022 2063 
Q 3016 2534 2758 2815 
Q 2500 3097 2075 3097 
Q 1594 3097 1305 2825 
Q 1016 2553 972 2059 
L 3022 2063 
z
" transform="scale(0.015625)"/>
      <path id="DejaVuSans-2c" d="M 750 794 
L 1409 794 
L 1409 256 
L 897 -744 
L 494 -744 
L 750 256 
L 750 794 
z
" transform="scale(0.015625)"/>
      <path id="DejaVuSans-4b" d="M 628 4666 
L 1259 4666 
L 1259 2694 
L 3353 4666 
L 4166 4666 
L 1850 2491 
L 4331 0 
L 3500 0 
L 1259 2247 
L 1259 0 
L 628 0 
L 628 4666 
z
" transform="scale(0.015625)"/>
      <path id="DejaVuSans-6b" d="M 581 4863 
L 1159 4863 
L 1159 1991 
L 2875 3500 
L 3609 3500 
L 1753 1863 
L 3688 0 
L 2938 0 
L 1159 1709 
L 1159 0 
L 581 0 
L 581 4863 
z
" transform="scale(0.015625)"/>
      <path id="DejaVuSans-3d" d="M 678 2906 
L 4684 2906 
L 4684 2381 
L 678 2381 
L 678 2906 
z
M 678 1631 
L 4684 1631 
L 4684 1100 
L 678 1100 
L 678 1631 
z
" transform="scale(0.015625)"/>
     </defs>
     <use xlink:href="#DejaVuSans-67"/>
     <use xlink:href="#DejaVuSans-6c" x="63.476562"/>
     <use xlink:href="#DejaVuSans-75" x="91.259766"/>
     <use xlink:href="#DejaVuSans-63" x="154.638672"/>
     <use xlink:href="#DejaVuSans-5f" x="209.619141"/>
     <use xlink:href="#DejaVuSans-63" x="259.619141"/>
     <use xlink:href="#DejaVuSans-6f" x="314.599609"/>
     <use xlink:href="#DejaVuSans-6e" x="375.78125"/>
     <use xlink:href="#DejaVuSans-74" x="439.160156"/>
     <use xlink:href="#DejaVuSans-72" x="478.369141"/>
     <use xlink:href="#DejaVuSans-6f" x="517.232422"/>
     <use xlink:href="#DejaVuSans-6c" x="578.414062"/>
     <use xlink:href="#DejaVuSans-20" x="606.197266"/>
     <use xlink:href="#DejaVuSans-69" x="637.984375"/>
     <use xlink:href="#DejaVuSans-6e" x="665.767578"/>
     <use xlink:href="#DejaVuSans-66" x="729.146484"/>
     <use xlink:href="#DejaVuSans-6f" x="764.351562"/>
     <use xlink:href="#DejaVuSans-72" x="825.533203"/>
     <use xlink:href="#DejaVuSans-6d" x="864.896484"/>
     <use xlink:href="#DejaVuSans-61" x="962.308594"/>
     <use xlink:href="#DejaVuSans-74" x="1023.587891"/>
     <use xlink:href="#DejaVuSans-69" x="1062.796875"/>
     <use xlink:href="#DejaVuSans-6f" x="1090.580078"/>
     <use xlink:href="#DejaVuSans-6e" x="1151.761719"/>
     <use xlink:href="#DejaVuSans-20" x="1215.140625"/>
     <use xlink:href="#DejaVuSans-63" x="1246.927734"/>
     <use xlink:href="#DejaVuSans-6f" x="1301.908203"/>
     <use xlink:href="#DejaVuSans-6e" x="1363.089844"/>
     <use xlink:href="#DejaVuSans-74" x="1426.46875"/>
     <use xlink:href="#DejaVuSans-65" x="1465.677734"/>
     <use xlink:href="#DejaVuSans-6e" x="1527.201172"/>
     <use xlink:href="#DejaVuSans-74" x="1590.580078"/>
     <use xlink:href="#DejaVuSans-2c" x="1629.789062"/>
     <use xlink:href="#DejaVuSans-20" x="1661.576172"/>
     <use xlink:href="#DejaVuSans-4b" x="1693.363281"/>
     <use xlink:href="#DejaVuSans-75" x="1753.939453"/>
     <use xlink:href="#DejaVuSans-6c" x="1817.318359"/>
     <use xlink:href="#DejaVuSans-6c" x="1845.101562"/>
     <use xlink:href="#DejaVuSans-62" x="1872.884766"/>
     <use xlink:href="#DejaVuSans-61" x="1936.361328"/>
     <use xlink:href="#DejaVuSans-63" x="1997.640625"/>
     <use xlink:href="#DejaVuSans-6b" x="2052.621094"/>
     <use xlink:href="#DejaVuSans-20" x="2110.53125"/>
     <use xlink:href="#DejaVuSans-6e" x="2142.318359"/>
     <use xlink:href="#DejaVuSans-3d" x="2205.697266"/>
     <use xlink:href="#DejaVuSans-32" x="2289.486328"/>
    </g>
   </g>
  </g>
 </g>
 <defs>
  <clipPath id="pe50e10fa13">
   <rect x="90" y="51.84" width="558" height="332.64"/>
  </clipPath>
 </defs>
</svg>
