<?xml version="1.0" encoding="utf-8" standalone="no"?>
<!DOCTYPE svg PUBLIC "-//W3C//DTD SVG 1.1//EN"
  "http://www.w3.org/Graphics/SVG/1.1/DTD/svg11.dtd">
<svg xmlns:xlink="http://www.w3.org/1999/xlink" width="720pt" height="432pt" viewBox="0 0 720 432" xmlns="http://www.w3.org/2000/svg" version="1.1">
 <metadata>
  <rdf:RDF xmlns:dc="http://purl.org/dc/elements/1.1/" xmlns:cc="http://creativecommons.org/ns#" xmlns:rdf="http://www.w3.org/1999/02/22-rdf-syntax-ns#">
   <cc:Work>
    <dc:type rdf:resource="http://purl.org/dc/dcmitype/StillImage"/>
    <dc:date>2023-06-23T18:26:25.757622</dc:date>
    <dc:format>image/svg+xml</dc:format>
    <dc:creator>
     <cc:Agent>
      <dc:title>Matplotlib v3.7.1, https://matplotlib.org/</dc:title>
     </cc:Agent>
    </dc:creator>
   </cc:Work>
  </rdf:RDF>
 </metadata>
 <defs>
  <style type="text/css">*{stroke-linejoin: round; stroke-linecap: butt}</style>
 </defs>
 <g id="figure_1">
  <g id="patch_1">
   <path d="M 0 432 
L 720 432 
L 720 0 
L 0 0 
z
" style="fill: #ffffff"/>
  </g>
  <g id="axes_1">
   <g id="patch_2">
    <path d="M 90 384.48 
L 648 384.48 
L 648 51.84 
L 90 51.84 
z
" style="fill: #ffffff"/>
   </g>
   <g id="patch_3">
    <path d="M 121 384.48 
L 183 384.48 
L 183 51.84 
L 121 51.84 
z
" clip-path="url(#p2ecba17675)" style="fill: #ffd700; opacity: 0.35; stroke: #ffffff; stroke-width: 0.8; stroke-linejoin: miter"/>
   </g>
   <g id="patch_4">
    <path d="M 307 384.48 
L 369 384.48 
L 369 51.84 
L 307 51.84 
z
" clip-path="url(#p2ecba17675)" style="fill: #ffd700; opacity: 0.35; stroke: #ffffff; stroke-width: 0.8; stroke-linejoin: miter"/>
   </g>
   <g id="patch_5">
    <path d="M 431 384.48 
L 493 384.48 
L 493 51.84 
L 431 51.84 
z
" clip-path="url(#p2ecba17675)" style="fill: #ffd700; opacity: 0.35; stroke: #ffffff; stroke-width: 0.8; stroke-linejoin: miter"/>
   </g>
   <g id="line2d_1">
    <path d="M 90 384.48 
L 648 384.48 
" clip-path="url(#p2ecba17675)" style="fill: none; stroke: #000000; stroke-width: 0.5; stroke-linecap: round"/>
   </g>
   <g id="patch_6">
    <path d="M 125.65 380.590577 
L 140.22 380.590577 
L 151.988929 381.941254 
L 163.746786 380.590577 
L 178.35 380.590577 
L 158.665 382.783499 
L 158.665 384.380271 
L 145.346071 384.380271 
L 145.346071 382.783499 
L 125.65 380.590577 
z
" clip-path="url(#p2ecba17675)" style="fill: #177875"/>
   </g>
   <g id="patch_7">
    <path d="M 125.65 331.983732 
L 178.35 331.983732 
L 178.35 341.201401 
L 159.390256 341.201401 
L 159.390256 379.247076 
L 144.646512 379.247076 
L 144.646512 341.201401 
L 125.65 341.201401 
L 125.65 331.983732 
z
" clip-path="url(#p2ecba17675)" style="fill: #40ba47"/>
   </g>
   <g id="patch_8">
    <path d="M 125.65 77.963722 
L 134.762642 77.963722 
L 141.132798 256.957646 
L 147.455534 77.963722 
L 156.615597 77.963722 
L 162.938332 256.957646 
L 169.316392 77.963722 
L 178.35 77.963722 
L 169.656239 324.258517 
L 158.694196 324.258517 
L 152 137.030134 
L 145.384838 324.258517 
L 134.414892 324.258517 
L 125.65 77.963722 
z
" clip-path="url(#p2ecba17675)" style="fill: #21599c"/>
   </g>
   <g id="patch_9">
    <path d="M 187.65 379.34553 
L 240.35 379.34553 
L 240.35 380.321219 
L 221.390256 380.321219 
L 221.390256 384.348347 
L 206.646512 384.348347 
L 206.646512 380.321219 
L 187.65 380.321219 
L 187.65 379.34553 
z
" clip-path="url(#p2ecba17675)" style="fill: #40ba47"/>
   </g>
   <g id="patch_10">
    <path d="M 235.955948 326.989597 
L 235.955948 337.881151 
Q 230.459804 335.98505 225.221293 335.025976 
Q 219.997094 334.055878 215.34541 334.055878 
Q 209.176562 334.055878 206.213797 335.367715 
Q 203.265345 336.668528 203.265345 339.424488 
Q 203.265345 341.49697 205.254834 342.654473 
Q 207.244324 343.800953 212.482835 344.627741 
L 219.811027 345.763196 
Q 230.946442 347.493939 235.641065 351.010544 
Q 240.35 354.516125 240.35 360.998142 
Q 240.35 369.497523 233.794704 373.65351 
Q 227.239408 377.809498 213.770994 377.809498 
Q 207.430391 377.809498 201.032537 376.872471 
Q 194.634682 375.946469 188.236828 374.116512 
L 188.236828 362.927314 
Q 194.634682 365.539964 200.60315 366.873849 
Q 206.571619 368.19671 212.125014 368.19671 
Q 217.764286 368.19671 220.755676 366.752587 
Q 223.747067 365.29744 223.747067 362.607623 
Q 223.747067 360.204426 221.714639 358.892589 
Q 219.682211 357.580752 213.59924 356.544511 
L 206.929441 355.409056 
Q 196.910429 353.75548 192.273058 350.13966 
Q 187.65 346.523841 187.65 340.394586 
Q 187.65 332.71097 194.090793 328.57703 
Q 200.531586 324.44309 212.611651 324.44309 
Q 218.122108 324.44309 223.933134 325.082473 
Q 229.744161 325.721856 235.955948 326.989597 
z
" clip-path="url(#p2ecba17675)" style="fill: #40ba47"/>
   </g>
   <g id="patch_11">
    <path d="M 224.155336 308.715831 
L 203.887763 308.715831 
L 200.68762 321.230819 
L 187.65 321.230819 
L 206.269015 252.530899 
L 221.730985 252.530899 
L 240.35 321.230819 
L 227.323155 321.230819 
L 224.155336 308.715831 
z
M 207.120231 295.965268 
L 220.890544 295.965268 
L 214.016162 268.638424 
L 207.120231 295.965268 
z
" clip-path="url(#p2ecba17675)" style="fill: #21599c"/>
   </g>
   <g id="patch_12">
    <path d="M 249.65 383.516391 
L 266.578032 383.516391 
L 287.968106 384.160301 
L 287.968106 383.516391 
L 302.35 383.516391 
L 302.35 384.455292 
L 285.409364 384.455292 
L 264.01929 383.811382 
L 264.01929 384.455292 
L 249.65 384.455292 
L 249.65 383.516391 
z
" clip-path="url(#p2ecba17675)" style="fill: #40ba47"/>
   </g>
   <g id="patch_13">
    <path d="M 286.155336 382.321785 
L 265.887763 382.321785 
L 262.68762 383.344014 
L 249.65 383.344014 
L 268.269015 377.732579 
L 283.730985 377.732579 
L 302.35 383.344014 
L 289.323155 383.344014 
L 286.155336 382.321785 
z
M 269.120231 381.280314 
L 282.890544 381.280314 
L 276.016162 379.048247 
L 269.120231 381.280314 
z
" clip-path="url(#p2ecba17675)" style="fill: #21599c"/>
   </g>
   <g id="patch_14">
    <path d="M 297.955948 322.904223 
L 297.955948 334.308069 
Q 292.459804 332.322784 287.221293 331.318599 
Q 281.997094 330.302872 277.34541 330.302872 
Q 271.176562 330.302872 268.213797 331.676412 
Q 265.265345 333.03841 265.265345 335.923998 
Q 265.265345 338.093961 267.254834 339.305908 
Q 269.244324 340.506313 274.482835 341.371989 
L 281.811027 342.560852 
Q 292.946442 344.373001 297.641065 348.055012 
Q 302.35 351.72548 302.35 358.512385 
Q 302.35 367.411539 295.794704 371.763007 
Q 289.239408 376.114474 275.770994 376.114474 
Q 269.430391 376.114474 263.032537 375.133374 
Q 256.634682 374.163816 250.236828 372.247786 
L 250.236828 360.532296 
Q 256.634682 363.267834 262.60315 364.664459 
Q 268.571619 366.049542 274.125014 366.049542 
Q 279.764286 366.049542 282.755676 364.537493 
Q 285.747067 363.013903 285.747067 360.197568 
Q 285.747067 357.681335 283.714639 356.307795 
Q 281.682211 354.934255 275.59924 353.849274 
L 268.929441 352.660411 
Q 258.910429 350.929058 254.273058 347.143166 
Q 249.65 343.357274 249.65 336.939725 
Q 249.65 328.894705 256.090793 324.566322 
Q 262.531586 320.237939 274.611651 320.237939 
Q 280.122108 320.237939 285.933134 320.907396 
Q 291.744161 321.576852 297.955948 322.904223 
z
" clip-path="url(#p2ecba17675)" style="fill: #40ba47"/>
   </g>
   <g id="patch_15">
    <path d="M 249.65 249.64964 
L 302.35 249.64964 
L 302.35 262.78391 
L 283.390256 262.78391 
L 283.390256 316.995251 
L 268.646512 316.995251 
L 268.646512 262.78391 
L 249.65 262.78391 
L 249.65 249.64964 
z
" clip-path="url(#p2ecba17675)" style="fill: #40ba47"/>
   </g>
   <g id="patch_16">
    <path d="M 311.65 377.612761 
L 320.762642 377.612761 
L 327.132798 382.475536 
L 333.455534 377.612761 
L 342.615597 377.612761 
L 348.938332 382.475536 
L 355.316392 377.612761 
L 364.35 377.612761 
L 355.656239 384.303917 
L 344.694196 384.303917 
L 338 379.217434 
L 331.384838 384.303917 
L 320.414892 384.303917 
L 311.65 377.612761 
z
" clip-path="url(#p2ecba17675)" style="fill: #21599c"/>
   </g>
   <g id="patch_17">
    <path d="M 311.65 368.765964 
L 326.813382 368.765964 
L 326.813382 371.98526 
L 349.186618 371.98526 
L 349.186618 368.765964 
L 364.35 368.765964 
L 364.35 377.214352 
L 349.186618 377.214352 
L 349.186618 373.632931 
L 326.813382 373.632931 
L 326.813382 377.214352 
L 311.65 377.214352 
L 311.65 368.765964 
z
" clip-path="url(#p2ecba17675)" style="fill: #177875"/>
   </g>
   <g id="patch_18">
    <path d="M 312.198462 325.465145 
L 363.801538 325.465145 
L 363.801538 333.651228 
L 331.323077 333.651228 
L 331.323077 341.459492 
L 361.877949 341.459492 
L 361.877949 349.645575 
L 331.323077 349.645575 
L 331.323077 367.439061 
L 312.198462 367.439061 
L 312.198462 325.465145 
z
" clip-path="url(#p2ecba17675)" style="fill: #21599c"/>
   </g>
   <g id="patch_19">
    <path d="M 311.65 65.334685 
L 326.22 65.334685 
L 337.988929 155.286446 
L 349.746786 65.334685 
L 364.35 65.334685 
L 344.665 211.377832 
L 344.665 317.718879 
L 331.346071 317.718879 
L 331.346071 211.377832 
L 311.65 65.334685 
z
" clip-path="url(#p2ecba17675)" style="fill: #177875"/>
   </g>
   <g id="patch_20">
    <path d="M 373.65 384.248569 
L 390.578032 384.248569 
L 411.968106 384.403218 
L 411.968106 384.248569 
L 426.35 384.248569 
L 426.35 384.474066 
L 409.409364 384.474066 
L 388.01929 384.319418 
L 388.01929 384.474066 
L 373.65 384.474066 
L 373.65 384.248569 
z
" clip-path="url(#p2ecba17675)" style="fill: #40ba47"/>
   </g>
   <g id="patch_21">
    <path d="M 373.65 382.940745 
L 426.35 382.940745 
L 426.35 383.188139 
L 407.390256 383.188139 
L 407.390256 384.209253 
L 392.646512 384.209253 
L 392.646512 383.188139 
L 373.65 383.188139 
L 373.65 382.940745 
z
" clip-path="url(#p2ecba17675)" style="fill: #40ba47"/>
   </g>
   <g id="patch_22">
    <path d="M 410.155336 381.524393 
L 389.887763 381.524393 
L 386.68762 382.732799 
L 373.65 382.732799 
L 392.269015 376.099361 
L 407.730985 376.099361 
L 426.35 382.732799 
L 413.323155 382.732799 
L 410.155336 381.524393 
z
M 393.120231 380.293241 
L 406.890544 380.293241 
L 400.016162 377.654651 
L 393.120231 380.293241 
z
" clip-path="url(#p2ecba17675)" style="fill: #21599c"/>
   </g>
   <g id="patch_23">
    <path d="M 421.955948 334.105914 
L 421.955948 342.827387 
Q 416.459804 341.309074 411.221293 340.54109 
Q 405.997094 339.764278 401.34541 339.764278 
Q 395.176562 339.764278 392.213797 340.814739 
Q 389.265345 341.856372 389.265345 344.063223 
Q 389.265345 345.722774 391.254834 346.649651 
Q 393.244324 347.567701 398.482835 348.229756 
L 405.811027 349.138978 
Q 416.946442 350.52488 421.641065 353.340821 
Q 426.35 356.147934 426.35 361.338446 
Q 426.35 368.144372 419.794704 371.472302 
Q 413.239408 374.800232 399.770994 374.800232 
Q 393.430391 374.800232 387.032537 374.049903 
Q 380.634682 373.308402 374.236828 371.843053 
L 374.236828 362.883241 
Q 380.634682 364.975335 386.60315 366.043451 
Q 392.571619 367.102739 398.125014 367.102739 
Q 403.764286 367.102739 406.755676 365.946349 
Q 409.747067 364.781132 409.747067 362.627247 
Q 409.747067 360.702873 407.714639 359.652413 
Q 405.682211 358.601952 399.59924 357.772176 
L 392.929441 356.862954 
Q 382.910429 355.538844 378.273058 352.643456 
Q 373.65 349.748069 373.65 344.840034 
Q 373.65 338.687336 380.090793 335.37706 
Q 386.531586 332.066785 398.611651 332.066785 
Q 404.122108 332.066785 409.933134 332.578774 
Q 415.744161 333.090763 421.955948 334.105914 
z
" clip-path="url(#p2ecba17675)" style="fill: #40ba47"/>
   </g>
   <g id="patch_24">
    <path d="M 426.35 315.644106 
Q 421.035119 321.569678 415.318669 324.545992 
Q 409.602219 327.49525 403.507822 327.49525 
Q 389.736374 327.49525 381.693187 309.853822 
Q 373.65 292.212394 373.65 262.043388 
Q 373.65 231.522636 381.834917 214.016495 
Q 390.031645 196.510354 404.287338 196.510354 
Q 409.779381 196.510354 414.810802 198.891406 
Q 419.854034 201.2454 424.318534 205.899274 
L 424.318534 232.009669 
Q 419.712304 226.029983 415.153317 223.080725 
Q 410.59433 220.104411 406.011721 220.104411 
Q 397.531533 220.104411 392.937113 230.981488 
Q 388.342694 241.831507 388.342694 262.043388 
Q 388.342694 282.065867 392.771762 292.997059 
Q 397.200829 303.901193 405.350314 303.901193 
Q 407.570753 303.901193 409.472299 303.278873 
Q 411.373846 302.629495 412.885634 301.276625 
L 412.885634 276.762616 
L 404.204662 276.762616 
L 404.204662 254.927291 
L 426.35 254.927291 
L 426.35 315.644106 
z
" clip-path="url(#p2ecba17675)" style="fill: #787800"/>
   </g>
   <g id="patch_25">
    <path d="M 452.437692 383.306501 
L 471.562308 383.306501 
L 471.562308 384.44991 
L 452.437692 384.44991 
L 452.437692 383.306501 
z
" clip-path="url(#p2ecba17675)" style="fill: #21599c"/>
   </g>
   <g id="patch_26">
    <path d="M 435.65 380.730433 
L 451.195992 380.730433 
L 461.979692 382.057973 
L 472.83447 380.730433 
L 488.35 380.730433 
L 488.35 383.21113 
L 476.80474 383.21113 
L 476.80474 381.396596 
L 465.889037 382.734237 
L 458.141426 382.734237 
L 447.225723 381.396596 
L 447.225723 383.21113 
L 435.65 383.21113 
L 435.65 380.730433 
z
" clip-path="url(#p2ecba17675)" style="fill: #21599c"/>
   </g>
   <g id="patch_27">
    <path d="M 436.198462 377.1762 
L 487.801538 377.1762 
L 487.801538 377.839195 
L 455.323077 377.839195 
L 455.323077 378.471591 
L 485.877949 378.471591 
L 485.877949 379.134587 
L 455.323077 379.134587 
L 455.323077 380.575691 
L 436.198462 380.575691 
L 436.198462 377.1762 
z
" clip-path="url(#p2ecba17675)" style="fill: #21599c"/>
   </g>
   <g id="patch_28">
    <path d="M 435.65 372.236529 
L 450.22 372.236529 
L 461.988929 373.920859 
L 473.746786 372.236529 
L 488.35 372.236529 
L 468.665 374.971159 
L 468.665 376.962375 
L 455.346071 376.962375 
L 455.346071 374.971159 
L 435.65 372.236529 
z
" clip-path="url(#p2ecba17675)" style="fill: #177875"/>
   </g>
   <g id="patch_29">
    <path d="M 435.65 313.405388 
L 454.774615 313.405388 
L 454.774615 359.463241 
L 488.35 359.463241 
L 488.35 370.606863 
L 435.65 370.606863 
L 435.65 313.405388 
z
" clip-path="url(#p2ecba17675)" style="fill: #21599c"/>
   </g>
   <g id="patch_30">
    <path d="M 435.65 58.341502 
L 444.762642 58.341502 
L 451.132798 237.889415 
L 457.455534 58.341502 
L 466.615597 58.341502 
L 472.938332 237.889415 
L 479.316392 58.341502 
L 488.35 58.341502 
L 479.656239 305.398584 
L 468.694196 305.398584 
L 462 117.590725 
L 455.384838 305.398584 
L 444.414892 305.398584 
L 435.65 58.341502 
z
" clip-path="url(#p2ecba17675)" style="fill: #21599c"/>
   </g>
   <g id="patch_31">
    <path d="M 497.65 384.052136 
L 511.537864 384.052136 
L 511.537864 384.204294 
L 531.555783 384.052136 
L 547.683253 384.052136 
L 521.743078 384.249593 
L 550.35 384.469029 
L 532.964195 384.469029 
L 511.537864 384.304809 
L 511.537864 384.469029 
L 497.65 384.469029 
L 497.65 384.052136 
z
" clip-path="url(#p2ecba17675)" style="fill: #bd2e1f"/>
   </g>
   <g id="patch_32">
    <path d="M 512.091481 381.533907 
L 512.091481 383.374214 
L 517.265444 383.374214 
Q 526.112802 383.374214 530.782574 383.137631 
Q 535.464351 382.901047 535.464351 382.450505 
Q 535.464351 382.002548 530.806583 381.768551 
Q 526.16082 381.533907 517.265444 381.533907 
L 512.091481 381.533907 
z
M 497.65 380.94568 
L 512.871777 380.94568 
Q 525.63262 380.94568 531.874989 381.043934 
Q 538.117358 381.14154 542.583052 381.376184 
Q 546.520547 381.580448 548.429271 381.847412 
Q 550.35 382.113729 550.35 382.450505 
Q 550.35 382.792452 548.429271 383.060062 
Q 546.520547 383.327673 542.583052 383.53129 
Q 538.081344 383.765934 531.778952 383.864187 
Q 525.47656 383.961794 512.871777 383.961794 
L 497.65 383.961794 
L 497.65 380.94568 
z
" clip-path="url(#p2ecba17675)" style="fill: #6b296b"/>
   </g>
   <g id="patch_33">
    <path d="M 525.405333 380.132126 
L 524.373292 380.132126 
Q 511.714313 380.132126 504.676667 379.664255 
Q 497.65 379.195649 497.65 378.360531 
Q 497.65 377.526883 504.665687 377.054605 
Q 511.681375 376.581592 524 376.581592 
Q 536.450375 376.581592 543.400187 377.050198 
Q 550.35 377.518069 550.35 378.360531 
Q 550.35 378.938577 546.661 379.356503 
Q 542.972 379.774429 536.044146 379.985228 
L 546.364562 380.756445 
L 533.771458 380.756445 
L 525.405333 380.132126 
z
M 524 377.222069 
Q 517.961458 377.222069 514.634771 377.520273 
Q 511.308083 377.818476 511.308083 378.360531 
Q 511.308083 378.911401 514.557917 379.204463 
Q 517.818729 379.496791 524 379.496791 
Q 530.071479 379.496791 533.398167 379.198587 
Q 536.724854 378.899649 536.724854 378.360531 
Q 536.724854 377.818476 533.398167 377.520273 
Q 530.071479 377.222069 524 377.222069 
z
" clip-path="url(#p2ecba17675)" style="fill: #40ba47"/>
   </g>
   <g id="patch_34">
    <path d="M 545.955948 370.906525 
L 545.955948 372.067167 
Q 540.459804 371.865112 535.221293 371.762909 
Q 529.997094 371.659532 525.34541 371.659532 
Q 519.176562 371.659532 516.213797 371.799326 
Q 513.265345 371.937945 513.265345 372.23163 
Q 513.265345 372.452481 515.254834 372.575829 
Q 517.244324 372.698002 522.482835 372.786107 
L 529.811027 372.907105 
Q 540.946442 373.091539 545.641065 373.466281 
Q 550.35 373.839848 550.35 374.530595 
Q 550.35 375.436318 543.794704 375.879195 
Q 537.239408 376.322072 523.770994 376.322072 
Q 517.430391 376.322072 511.032537 376.222219 
Q 504.634682 376.123541 498.236828 375.928534 
L 498.236828 374.736174 
Q 504.634682 375.014587 510.60315 375.15673 
Q 516.571619 375.297699 522.125014 375.297699 
Q 527.764286 375.297699 530.755676 375.143808 
Q 533.747067 374.988743 533.747067 374.702106 
Q 533.747067 374.446013 531.714639 374.306219 
Q 529.682211 374.166425 523.59924 374.056 
L 516.929441 373.935002 
Q 506.910429 373.758791 502.273058 373.373477 
Q 497.65 372.988162 497.65 372.335007 
Q 497.65 371.516214 504.090793 371.075687 
Q 510.531586 370.63516 522.611651 370.63516 
Q 528.122108 370.63516 533.933134 370.703295 
Q 539.744161 370.77143 545.955948 370.906525 
z
" clip-path="url(#p2ecba17675)" style="fill: #40ba47"/>
   </g>
   <g id="patch_35">
    <path d="M 497.65 317.244629 
L 550.35 317.244629 
L 550.35 327.361841 
L 531.390256 327.361841 
L 531.390256 369.120354 
L 516.646512 369.120354 
L 516.646512 327.361841 
L 497.65 327.361841 
L 497.65 317.244629 
z
" clip-path="url(#p2ecba17675)" style="fill: #40ba47"/>
   </g>
   <g id="patch_36">
    <path d="M 497.65 247.40459 
L 549.253077 247.40459 
L 549.253077 260.416678 
L 516.774615 260.416678 
L 516.774615 272.828208 
L 547.329487 272.828208 
L 547.329487 285.840295 
L 516.774615 285.840295 
L 516.774615 301.125924 
L 550.35 301.125924 
L 550.35 314.123712 
L 497.65 314.123712 
L 497.65 247.40459 
z
" clip-path="url(#p2ecba17675)" style="fill: #6b296b"/>
   </g>
   <g id="patch_37">
    <path d="M 559.65 383.21607 
L 568.762642 383.21607 
L 575.132798 384.111074 
L 581.455534 383.21607 
L 590.615597 383.21607 
L 596.938332 384.111074 
L 603.316392 383.21607 
L 612.35 383.21607 
L 603.656239 384.447592 
L 592.694196 384.447592 
L 586 383.511413 
L 579.384838 384.447592 
L 568.414892 384.447592 
L 559.65 383.21607 
z
" clip-path="url(#p2ecba17675)" style="fill: #21599c"/>
   </g>
   <g id="patch_38">
    <path d="M 559.65 381.690453 
L 574.813382 381.690453 
L 574.813382 382.244857 
L 597.186618 382.244857 
L 597.186618 381.690453 
L 612.35 381.690453 
L 612.35 383.145374 
L 597.186618 383.145374 
L 597.186618 382.528607 
L 574.813382 382.528607 
L 574.813382 383.145374 
L 559.65 383.145374 
L 559.65 381.690453 
z
" clip-path="url(#p2ecba17675)" style="fill: #177875"/>
   </g>
   <g id="patch_39">
    <path d="M 560.198462 370.065405 
L 611.801538 370.065405 
L 611.801538 372.267204 
L 579.323077 372.267204 
L 579.323077 374.367381 
L 609.877949 374.367381 
L 609.877949 376.56918 
L 579.323077 376.56918 
L 579.323077 381.355069 
L 560.198462 381.355069 
L 560.198462 370.065405 
z
" clip-path="url(#p2ecba17675)" style="fill: #21599c"/>
   </g>
   <g id="patch_40">
    <path d="M 596.155336 359.922463 
L 575.887763 359.922463 
L 572.68762 368.525525 
L 559.65 368.525525 
L 578.269015 321.299772 
L 593.730985 321.299772 
L 612.35 368.525525 
L 599.323155 368.525525 
L 596.155336 359.922463 
z
M 579.120231 351.15746 
L 592.890544 351.15746 
L 586.016162 332.37242 
L 579.120231 351.15746 
z
" clip-path="url(#p2ecba17675)" style="fill: #21599c"/>
   </g>
   <g id="patch_41">
    <path d="M 559.65 221.294941 
L 574.22 221.294941 
L 585.988929 255.591977 
L 597.746786 221.294941 
L 612.35 221.294941 
L 592.665 276.978644 
L 592.665 317.524629 
L 579.346071 317.524629 
L 579.346071 276.978644 
L 559.65 221.294941 
z
" clip-path="url(#p2ecba17675)" style="fill: #177875"/>
   </g>
   <g id="matplotlib.axis_1">
    <g id="xtick_1">
     <g id="line2d_2">
      <defs>
       <path id="m1991ee5f96" d="M 0 0 
L 0 4.8 
" style="stroke: #262626"/>
      </defs>
      <g>
       <use xlink:href="#m1991ee5f96" x="152" y="384.48" style="fill: #262626; stroke: #262626"/>
      </g>
     </g>
     <g id="text_1">
      <!-- P4 -->
      <g style="fill: #262626" transform="translate(146.61825 399.078875) scale(0.088 -0.088)">
       <defs>
        <path id="ArialMT-50" d="M 494 0 
L 494 4581 
L 2222 4581 
Q 2678 4581 2919 4538 
Q 3256 4481 3484 4323 
Q 3713 4166 3852 3881 
Q 3991 3597 3991 3256 
Q 3991 2672 3619 2267 
Q 3247 1863 2275 1863 
L 1100 1863 
L 1100 0 
L 494 0 
z
M 1100 2403 
L 2284 2403 
Q 2872 2403 3119 2622 
Q 3366 2841 3366 3238 
Q 3366 3525 3220 3729 
Q 3075 3934 2838 4000 
Q 2684 4041 2272 4041 
L 1100 4041 
L 1100 2403 
z
" transform="scale(0.015625)"/>
        <path id="ArialMT-34" d="M 2069 0 
L 2069 1097 
L 81 1097 
L 81 1613 
L 2172 4581 
L 2631 4581 
L 2631 1613 
L 3250 1613 
L 3250 1097 
L 2631 1097 
L 2631 0 
L 2069 0 
z
M 2069 1613 
L 2069 3678 
L 634 1613 
L 2069 1613 
z
" transform="scale(0.015625)"/>
       </defs>
       <use xlink:href="#ArialMT-50"/>
       <use xlink:href="#ArialMT-34" x="66.699219"/>
      </g>
     </g>
    </g>
    <g id="xtick_2">
     <g id="line2d_3">
      <g>
       <use xlink:href="#m1991ee5f96" x="214" y="384.48" style="fill: #262626; stroke: #262626"/>
      </g>
     </g>
     <g id="text_2">
      <!-- P3 -->
      <g style="fill: #262626" transform="translate(208.61825 399.078875) scale(0.088 -0.088)">
       <defs>
        <path id="ArialMT-33" d="M 269 1209 
L 831 1284 
Q 928 806 1161 595 
Q 1394 384 1728 384 
Q 2125 384 2398 659 
Q 2672 934 2672 1341 
Q 2672 1728 2419 1979 
Q 2166 2231 1775 2231 
Q 1616 2231 1378 2169 
L 1441 2663 
Q 1497 2656 1531 2656 
Q 1891 2656 2178 2843 
Q 2466 3031 2466 3422 
Q 2466 3731 2256 3934 
Q 2047 4138 1716 4138 
Q 1388 4138 1169 3931 
Q 950 3725 888 3313 
L 325 3413 
Q 428 3978 793 4289 
Q 1159 4600 1703 4600 
Q 2078 4600 2393 4439 
Q 2709 4278 2876 4000 
Q 3044 3722 3044 3409 
Q 3044 3113 2884 2869 
Q 2725 2625 2413 2481 
Q 2819 2388 3044 2092 
Q 3269 1797 3269 1353 
Q 3269 753 2831 336 
Q 2394 -81 1725 -81 
Q 1122 -81 723 278 
Q 325 638 269 1209 
z
" transform="scale(0.015625)"/>
       </defs>
       <use xlink:href="#ArialMT-50"/>
       <use xlink:href="#ArialMT-33" x="66.699219"/>
      </g>
     </g>
    </g>
    <g id="xtick_3">
     <g id="line2d_4">
      <g>
       <use xlink:href="#m1991ee5f96" x="276" y="384.48" style="fill: #262626; stroke: #262626"/>
      </g>
     </g>
     <g id="text_3">
      <!-- P2 -->
      <g style="fill: #262626" transform="translate(270.61825 399.078875) scale(0.088 -0.088)">
       <defs>
        <path id="ArialMT-32" d="M 3222 541 
L 3222 0 
L 194 0 
Q 188 203 259 391 
Q 375 700 629 1000 
Q 884 1300 1366 1694 
Q 2113 2306 2375 2664 
Q 2638 3022 2638 3341 
Q 2638 3675 2398 3904 
Q 2159 4134 1775 4134 
Q 1369 4134 1125 3890 
Q 881 3647 878 3216 
L 300 3275 
Q 359 3922 746 4261 
Q 1134 4600 1788 4600 
Q 2447 4600 2831 4234 
Q 3216 3869 3216 3328 
Q 3216 3053 3103 2787 
Q 2991 2522 2730 2228 
Q 2469 1934 1863 1422 
Q 1356 997 1212 845 
Q 1069 694 975 541 
L 3222 541 
z
" transform="scale(0.015625)"/>
       </defs>
       <use xlink:href="#ArialMT-50"/>
       <use xlink:href="#ArialMT-32" x="66.699219"/>
      </g>
     </g>
    </g>
    <g id="xtick_4">
     <g id="line2d_5">
      <g>
       <use xlink:href="#m1991ee5f96" x="338" y="384.48" style="fill: #262626; stroke: #262626"/>
      </g>
     </g>
     <g id="text_4">
      <!-- P1 -->
      <g style="fill: #262626" transform="translate(332.61825 399.078875) scale(0.088 -0.088)">
       <defs>
        <path id="ArialMT-31" d="M 2384 0 
L 1822 0 
L 1822 3584 
Q 1619 3391 1289 3197 
Q 959 3003 697 2906 
L 697 3450 
Q 1169 3672 1522 3987 
Q 1875 4303 2022 4600 
L 2384 4600 
L 2384 0 
z
" transform="scale(0.015625)"/>
       </defs>
       <use xlink:href="#ArialMT-50"/>
       <use xlink:href="#ArialMT-31" x="66.699219"/>
      </g>
     </g>
    </g>
    <g id="xtick_5">
     <g id="line2d_6">
      <g>
       <use xlink:href="#m1991ee5f96" x="400" y="384.48" style="fill: #262626; stroke: #262626"/>
      </g>
     </g>
     <g id="text_5">
      <!-- P1' -->
      <g style="fill: #262626" transform="translate(393.778125 399.078875) scale(0.088 -0.088)">
       <defs>
        <path id="ArialMT-27" d="M 425 2959 
L 281 3816 
L 281 4581 
L 922 4581 
L 922 3816 
L 772 2959 
L 425 2959 
z
" transform="scale(0.015625)"/>
       </defs>
       <use xlink:href="#ArialMT-50"/>
       <use xlink:href="#ArialMT-31" x="66.699219"/>
       <use xlink:href="#ArialMT-27" x="122.314453"/>
      </g>
     </g>
    </g>
    <g id="xtick_6">
     <g id="line2d_7">
      <g>
       <use xlink:href="#m1991ee5f96" x="462" y="384.48" style="fill: #262626; stroke: #262626"/>
      </g>
     </g>
     <g id="text_6">
      <!-- P2' -->
      <g style="fill: #262626" transform="translate(455.778125 399.078875) scale(0.088 -0.088)">
       <use xlink:href="#ArialMT-50"/>
       <use xlink:href="#ArialMT-32" x="66.699219"/>
       <use xlink:href="#ArialMT-27" x="122.314453"/>
      </g>
     </g>
    </g>
    <g id="xtick_7">
     <g id="line2d_8">
      <g>
       <use xlink:href="#m1991ee5f96" x="524" y="384.48" style="fill: #262626; stroke: #262626"/>
      </g>
     </g>
     <g id="text_7">
      <!-- P3' -->
      <g style="fill: #262626" transform="translate(517.778125 399.078875) scale(0.088 -0.088)">
       <use xlink:href="#ArialMT-50"/>
       <use xlink:href="#ArialMT-33" x="66.699219"/>
       <use xlink:href="#ArialMT-27" x="122.314453"/>
      </g>
     </g>
    </g>
    <g id="xtick_8">
     <g id="line2d_9">
      <g>
       <use xlink:href="#m1991ee5f96" x="586" y="384.48" style="fill: #262626; stroke: #262626"/>
      </g>
     </g>
     <g id="text_8">
      <!-- P4' -->
      <g style="fill: #262626" transform="translate(579.778125 399.078875) scale(0.088 -0.088)">
       <use xlink:href="#ArialMT-50"/>
       <use xlink:href="#ArialMT-34" x="66.699219"/>
       <use xlink:href="#ArialMT-27" x="122.314453"/>
      </g>
     </g>
    </g>
   </g>
   <g id="matplotlib.axis_2">
    <g id="ytick_1">
     <g id="line2d_10">
      <defs>
       <path id="m96d8f7c2b6" d="M 0 0 
L -4.8 0 
" style="stroke: #262626"/>
      </defs>
      <g>
       <use xlink:href="#m96d8f7c2b6" x="90" y="384.48" style="fill: #262626; stroke: #262626"/>
      </g>
     </g>
     <g id="text_9">
      <!-- 0.0 -->
      <g style="fill: #262626" transform="translate(69.468 387.629437) scale(0.088 -0.088)">
       <defs>
        <path id="ArialMT-30" d="M 266 2259 
Q 266 3072 433 3567 
Q 600 4063 929 4331 
Q 1259 4600 1759 4600 
Q 2128 4600 2406 4451 
Q 2684 4303 2865 4023 
Q 3047 3744 3150 3342 
Q 3253 2941 3253 2259 
Q 3253 1453 3087 958 
Q 2922 463 2592 192 
Q 2263 -78 1759 -78 
Q 1097 -78 719 397 
Q 266 969 266 2259 
z
M 844 2259 
Q 844 1131 1108 757 
Q 1372 384 1759 384 
Q 2147 384 2411 759 
Q 2675 1134 2675 2259 
Q 2675 3391 2411 3762 
Q 2147 4134 1753 4134 
Q 1366 4134 1134 3806 
Q 844 3388 844 2259 
z
" transform="scale(0.015625)"/>
        <path id="ArialMT-2e" d="M 581 0 
L 581 641 
L 1222 641 
L 1222 0 
L 581 0 
z
" transform="scale(0.015625)"/>
       </defs>
       <use xlink:href="#ArialMT-30"/>
       <use xlink:href="#ArialMT-2e" x="55.615234"/>
       <use xlink:href="#ArialMT-30" x="83.398438"/>
      </g>
     </g>
    </g>
    <g id="ytick_2">
     <g id="line2d_11">
      <g>
       <use xlink:href="#m96d8f7c2b6" x="90" y="336.892649" style="fill: #262626; stroke: #262626"/>
      </g>
     </g>
     <g id="text_10">
      <!-- 0.2 -->
      <g style="fill: #262626" transform="translate(69.468 340.042087) scale(0.088 -0.088)">
       <use xlink:href="#ArialMT-30"/>
       <use xlink:href="#ArialMT-2e" x="55.615234"/>
       <use xlink:href="#ArialMT-32" x="83.398438"/>
      </g>
     </g>
    </g>
    <g id="ytick_3">
     <g id="line2d_12">
      <g>
       <use xlink:href="#m96d8f7c2b6" x="90" y="289.305299" style="fill: #262626; stroke: #262626"/>
      </g>
     </g>
     <g id="text_11">
      <!-- 0.4 -->
      <g style="fill: #262626" transform="translate(69.468 292.454736) scale(0.088 -0.088)">
       <use xlink:href="#ArialMT-30"/>
       <use xlink:href="#ArialMT-2e" x="55.615234"/>
       <use xlink:href="#ArialMT-34" x="83.398438"/>
      </g>
     </g>
    </g>
    <g id="ytick_4">
     <g id="line2d_13">
      <g>
       <use xlink:href="#m96d8f7c2b6" x="90" y="241.717948" style="fill: #262626; stroke: #262626"/>
      </g>
     </g>
     <g id="text_12">
      <!-- 0.6 -->
      <g style="fill: #262626" transform="translate(69.468 244.867386) scale(0.088 -0.088)">
       <defs>
        <path id="ArialMT-36" d="M 3184 3459 
L 2625 3416 
Q 2550 3747 2413 3897 
Q 2184 4138 1850 4138 
Q 1581 4138 1378 3988 
Q 1113 3794 959 3422 
Q 806 3050 800 2363 
Q 1003 2672 1297 2822 
Q 1591 2972 1913 2972 
Q 2475 2972 2870 2558 
Q 3266 2144 3266 1488 
Q 3266 1056 3080 686 
Q 2894 316 2569 119 
Q 2244 -78 1831 -78 
Q 1128 -78 684 439 
Q 241 956 241 2144 
Q 241 3472 731 4075 
Q 1159 4600 1884 4600 
Q 2425 4600 2770 4297 
Q 3116 3994 3184 3459 
z
M 888 1484 
Q 888 1194 1011 928 
Q 1134 663 1356 523 
Q 1578 384 1822 384 
Q 2178 384 2434 671 
Q 2691 959 2691 1453 
Q 2691 1928 2437 2201 
Q 2184 2475 1800 2475 
Q 1419 2475 1153 2201 
Q 888 1928 888 1484 
z
" transform="scale(0.015625)"/>
       </defs>
       <use xlink:href="#ArialMT-30"/>
       <use xlink:href="#ArialMT-2e" x="55.615234"/>
       <use xlink:href="#ArialMT-36" x="83.398438"/>
      </g>
     </g>
    </g>
    <g id="ytick_5">
     <g id="line2d_14">
      <g>
       <use xlink:href="#m96d8f7c2b6" x="90" y="194.130597" style="fill: #262626; stroke: #262626"/>
      </g>
     </g>
     <g id="text_13">
      <!-- 0.8 -->
      <g style="fill: #262626" transform="translate(69.468 197.280035) scale(0.088 -0.088)">
       <defs>
        <path id="ArialMT-38" d="M 1131 2484 
Q 781 2613 612 2850 
Q 444 3088 444 3419 
Q 444 3919 803 4259 
Q 1163 4600 1759 4600 
Q 2359 4600 2725 4251 
Q 3091 3903 3091 3403 
Q 3091 3084 2923 2848 
Q 2756 2613 2416 2484 
Q 2838 2347 3058 2040 
Q 3278 1734 3278 1309 
Q 3278 722 2862 322 
Q 2447 -78 1769 -78 
Q 1091 -78 675 323 
Q 259 725 259 1325 
Q 259 1772 486 2073 
Q 713 2375 1131 2484 
z
M 1019 3438 
Q 1019 3113 1228 2906 
Q 1438 2700 1772 2700 
Q 2097 2700 2305 2904 
Q 2513 3109 2513 3406 
Q 2513 3716 2298 3927 
Q 2084 4138 1766 4138 
Q 1444 4138 1231 3931 
Q 1019 3725 1019 3438 
z
M 838 1322 
Q 838 1081 952 856 
Q 1066 631 1291 507 
Q 1516 384 1775 384 
Q 2178 384 2440 643 
Q 2703 903 2703 1303 
Q 2703 1709 2433 1975 
Q 2163 2241 1756 2241 
Q 1359 2241 1098 1978 
Q 838 1716 838 1322 
z
" transform="scale(0.015625)"/>
       </defs>
       <use xlink:href="#ArialMT-30"/>
       <use xlink:href="#ArialMT-2e" x="55.615234"/>
       <use xlink:href="#ArialMT-38" x="83.398438"/>
      </g>
     </g>
    </g>
    <g id="ytick_6">
     <g id="line2d_15">
      <g>
       <use xlink:href="#m96d8f7c2b6" x="90" y="146.543247" style="fill: #262626; stroke: #262626"/>
      </g>
     </g>
     <g id="text_14">
      <!-- 1.0 -->
      <g style="fill: #262626" transform="translate(69.468 149.692684) scale(0.088 -0.088)">
       <use xlink:href="#ArialMT-31"/>
       <use xlink:href="#ArialMT-2e" x="55.615234"/>
       <use xlink:href="#ArialMT-30" x="83.398438"/>
      </g>
     </g>
    </g>
    <g id="ytick_7">
     <g id="line2d_16">
      <g>
       <use xlink:href="#m96d8f7c2b6" x="90" y="98.955896" style="fill: #262626; stroke: #262626"/>
      </g>
     </g>
     <g id="text_15">
      <!-- 1.2 -->
      <g style="fill: #262626" transform="translate(69.468 102.105334) scale(0.088 -0.088)">
       <use xlink:href="#ArialMT-31"/>
       <use xlink:href="#ArialMT-2e" x="55.615234"/>
       <use xlink:href="#ArialMT-32" x="83.398438"/>
      </g>
     </g>
    </g>
    <g id="text_16">
     <!-- information (bits) -->
     <g style="fill: #262626" transform="translate(63.4475 253.902) rotate(-90) scale(0.096 -0.096)">
      <defs>
       <path id="ArialMT-69" d="M 425 3934 
L 425 4581 
L 988 4581 
L 988 3934 
L 425 3934 
z
M 425 0 
L 425 3319 
L 988 3319 
L 988 0 
L 425 0 
z
" transform="scale(0.015625)"/>
       <path id="ArialMT-6e" d="M 422 0 
L 422 3319 
L 928 3319 
L 928 2847 
Q 1294 3394 1984 3394 
Q 2284 3394 2536 3286 
Q 2788 3178 2913 3003 
Q 3038 2828 3088 2588 
Q 3119 2431 3119 2041 
L 3119 0 
L 2556 0 
L 2556 2019 
Q 2556 2363 2490 2533 
Q 2425 2703 2258 2804 
Q 2091 2906 1866 2906 
Q 1506 2906 1245 2678 
Q 984 2450 984 1813 
L 984 0 
L 422 0 
z
" transform="scale(0.015625)"/>
       <path id="ArialMT-66" d="M 556 0 
L 556 2881 
L 59 2881 
L 59 3319 
L 556 3319 
L 556 3672 
Q 556 4006 616 4169 
Q 697 4388 901 4523 
Q 1106 4659 1475 4659 
Q 1713 4659 2000 4603 
L 1916 4113 
Q 1741 4144 1584 4144 
Q 1328 4144 1222 4034 
Q 1116 3925 1116 3625 
L 1116 3319 
L 1763 3319 
L 1763 2881 
L 1116 2881 
L 1116 0 
L 556 0 
z
" transform="scale(0.015625)"/>
       <path id="ArialMT-6f" d="M 213 1659 
Q 213 2581 725 3025 
Q 1153 3394 1769 3394 
Q 2453 3394 2887 2945 
Q 3322 2497 3322 1706 
Q 3322 1066 3130 698 
Q 2938 331 2570 128 
Q 2203 -75 1769 -75 
Q 1072 -75 642 372 
Q 213 819 213 1659 
z
M 791 1659 
Q 791 1022 1069 705 
Q 1347 388 1769 388 
Q 2188 388 2466 706 
Q 2744 1025 2744 1678 
Q 2744 2294 2464 2611 
Q 2184 2928 1769 2928 
Q 1347 2928 1069 2612 
Q 791 2297 791 1659 
z
" transform="scale(0.015625)"/>
       <path id="ArialMT-72" d="M 416 0 
L 416 3319 
L 922 3319 
L 922 2816 
Q 1116 3169 1280 3281 
Q 1444 3394 1641 3394 
Q 1925 3394 2219 3213 
L 2025 2691 
Q 1819 2813 1613 2813 
Q 1428 2813 1281 2702 
Q 1134 2591 1072 2394 
Q 978 2094 978 1738 
L 978 0 
L 416 0 
z
" transform="scale(0.015625)"/>
       <path id="ArialMT-6d" d="M 422 0 
L 422 3319 
L 925 3319 
L 925 2853 
Q 1081 3097 1340 3245 
Q 1600 3394 1931 3394 
Q 2300 3394 2536 3241 
Q 2772 3088 2869 2813 
Q 3263 3394 3894 3394 
Q 4388 3394 4653 3120 
Q 4919 2847 4919 2278 
L 4919 0 
L 4359 0 
L 4359 2091 
Q 4359 2428 4304 2576 
Q 4250 2725 4106 2815 
Q 3963 2906 3769 2906 
Q 3419 2906 3187 2673 
Q 2956 2441 2956 1928 
L 2956 0 
L 2394 0 
L 2394 2156 
Q 2394 2531 2256 2718 
Q 2119 2906 1806 2906 
Q 1569 2906 1367 2781 
Q 1166 2656 1075 2415 
Q 984 2175 984 1722 
L 984 0 
L 422 0 
z
" transform="scale(0.015625)"/>
       <path id="ArialMT-61" d="M 2588 409 
Q 2275 144 1986 34 
Q 1697 -75 1366 -75 
Q 819 -75 525 192 
Q 231 459 231 875 
Q 231 1119 342 1320 
Q 453 1522 633 1644 
Q 813 1766 1038 1828 
Q 1203 1872 1538 1913 
Q 2219 1994 2541 2106 
Q 2544 2222 2544 2253 
Q 2544 2597 2384 2738 
Q 2169 2928 1744 2928 
Q 1347 2928 1158 2789 
Q 969 2650 878 2297 
L 328 2372 
Q 403 2725 575 2942 
Q 747 3159 1072 3276 
Q 1397 3394 1825 3394 
Q 2250 3394 2515 3294 
Q 2781 3194 2906 3042 
Q 3031 2891 3081 2659 
Q 3109 2516 3109 2141 
L 3109 1391 
Q 3109 606 3145 398 
Q 3181 191 3288 0 
L 2700 0 
Q 2613 175 2588 409 
z
M 2541 1666 
Q 2234 1541 1622 1453 
Q 1275 1403 1131 1340 
Q 988 1278 909 1158 
Q 831 1038 831 891 
Q 831 666 1001 516 
Q 1172 366 1500 366 
Q 1825 366 2078 508 
Q 2331 650 2450 897 
Q 2541 1088 2541 1459 
L 2541 1666 
z
" transform="scale(0.015625)"/>
       <path id="ArialMT-74" d="M 1650 503 
L 1731 6 
Q 1494 -44 1306 -44 
Q 1000 -44 831 53 
Q 663 150 594 308 
Q 525 466 525 972 
L 525 2881 
L 113 2881 
L 113 3319 
L 525 3319 
L 525 4141 
L 1084 4478 
L 1084 3319 
L 1650 3319 
L 1650 2881 
L 1084 2881 
L 1084 941 
Q 1084 700 1114 631 
Q 1144 563 1211 522 
Q 1278 481 1403 481 
Q 1497 481 1650 503 
z
" transform="scale(0.015625)"/>
       <path id="ArialMT-20" transform="scale(0.015625)"/>
       <path id="ArialMT-28" d="M 1497 -1347 
Q 1031 -759 709 28 
Q 388 816 388 1659 
Q 388 2403 628 3084 
Q 909 3875 1497 4659 
L 1900 4659 
Q 1522 4009 1400 3731 
Q 1209 3300 1100 2831 
Q 966 2247 966 1656 
Q 966 153 1900 -1347 
L 1497 -1347 
z
" transform="scale(0.015625)"/>
       <path id="ArialMT-62" d="M 941 0 
L 419 0 
L 419 4581 
L 981 4581 
L 981 2947 
Q 1338 3394 1891 3394 
Q 2197 3394 2470 3270 
Q 2744 3147 2920 2923 
Q 3097 2700 3197 2384 
Q 3297 2069 3297 1709 
Q 3297 856 2875 390 
Q 2453 -75 1863 -75 
Q 1275 -75 941 416 
L 941 0 
z
M 934 1684 
Q 934 1088 1097 822 
Q 1363 388 1816 388 
Q 2184 388 2453 708 
Q 2722 1028 2722 1663 
Q 2722 2313 2464 2622 
Q 2206 2931 1841 2931 
Q 1472 2931 1203 2611 
Q 934 2291 934 1684 
z
" transform="scale(0.015625)"/>
       <path id="ArialMT-73" d="M 197 991 
L 753 1078 
Q 800 744 1014 566 
Q 1228 388 1613 388 
Q 2000 388 2187 545 
Q 2375 703 2375 916 
Q 2375 1106 2209 1216 
Q 2094 1291 1634 1406 
Q 1016 1563 777 1677 
Q 538 1791 414 1992 
Q 291 2194 291 2438 
Q 291 2659 392 2848 
Q 494 3038 669 3163 
Q 800 3259 1026 3326 
Q 1253 3394 1513 3394 
Q 1903 3394 2198 3281 
Q 2494 3169 2634 2976 
Q 2775 2784 2828 2463 
L 2278 2388 
Q 2241 2644 2061 2787 
Q 1881 2931 1553 2931 
Q 1166 2931 1000 2803 
Q 834 2675 834 2503 
Q 834 2394 903 2306 
Q 972 2216 1119 2156 
Q 1203 2125 1616 2013 
Q 2213 1853 2448 1751 
Q 2684 1650 2818 1456 
Q 2953 1263 2953 975 
Q 2953 694 2789 445 
Q 2625 197 2315 61 
Q 2006 -75 1616 -75 
Q 969 -75 630 194 
Q 291 463 197 991 
z
" transform="scale(0.015625)"/>
       <path id="ArialMT-29" d="M 791 -1347 
L 388 -1347 
Q 1322 153 1322 1656 
Q 1322 2244 1188 2822 
Q 1081 3291 891 3722 
Q 769 4003 388 4659 
L 791 4659 
Q 1378 3875 1659 3084 
Q 1900 2403 1900 1659 
Q 1900 816 1576 28 
Q 1253 -759 791 -1347 
z
" transform="scale(0.015625)"/>
      </defs>
      <use xlink:href="#ArialMT-69"/>
      <use xlink:href="#ArialMT-6e" x="22.216797"/>
      <use xlink:href="#ArialMT-66" x="77.832031"/>
      <use xlink:href="#ArialMT-6f" x="105.615234"/>
      <use xlink:href="#ArialMT-72" x="161.230469"/>
      <use xlink:href="#ArialMT-6d" x="194.53125"/>
      <use xlink:href="#ArialMT-61" x="277.832031"/>
      <use xlink:href="#ArialMT-74" x="333.447266"/>
      <use xlink:href="#ArialMT-69" x="361.230469"/>
      <use xlink:href="#ArialMT-6f" x="383.447266"/>
      <use xlink:href="#ArialMT-6e" x="439.0625"/>
      <use xlink:href="#ArialMT-20" x="494.677734"/>
      <use xlink:href="#ArialMT-28" x="522.460938"/>
      <use xlink:href="#ArialMT-62" x="555.761719"/>
      <use xlink:href="#ArialMT-69" x="611.376953"/>
      <use xlink:href="#ArialMT-74" x="633.59375"/>
      <use xlink:href="#ArialMT-73" x="661.376953"/>
      <use xlink:href="#ArialMT-29" x="711.376953"/>
     </g>
    </g>
   </g>
   <g id="line2d_17">
    <path d="M 369 384.48 
L 369 51.84 
" clip-path="url(#p2ecba17675)" style="fill: none; stroke: #daa520; stroke-width: 2; stroke-linecap: round"/>
   </g>
   <g id="patch_42">
    <path d="M 90 384.48 
L 648 384.48 
" style="fill: none; stroke: #262626; stroke-linejoin: miter; stroke-linecap: square"/>
   </g>
   <g id="patch_43">
    <path d="M 90 51.84 
L 648 51.84 
" style="fill: none; stroke: #262626; stroke-linejoin: miter; stroke-linecap: square"/>
   </g>
   <g id="text_17">
    <!-- gluc vs. control information content, Kullback n=2 -->
    <g style="fill: #262626" transform="translate(264.54975 45.84) scale(0.096 -0.096)">
     <defs>
      <path id="ArialMT-67" d="M 319 -275 
L 866 -356 
Q 900 -609 1056 -725 
Q 1266 -881 1628 -881 
Q 2019 -881 2231 -725 
Q 2444 -569 2519 -288 
Q 2563 -116 2559 434 
Q 2191 0 1641 0 
Q 956 0 581 494 
Q 206 988 206 1678 
Q 206 2153 378 2554 
Q 550 2956 876 3175 
Q 1203 3394 1644 3394 
Q 2231 3394 2613 2919 
L 2613 3319 
L 3131 3319 
L 3131 450 
Q 3131 -325 2973 -648 
Q 2816 -972 2473 -1159 
Q 2131 -1347 1631 -1347 
Q 1038 -1347 672 -1080 
Q 306 -813 319 -275 
z
M 784 1719 
Q 784 1066 1043 766 
Q 1303 466 1694 466 
Q 2081 466 2343 764 
Q 2606 1063 2606 1700 
Q 2606 2309 2336 2618 
Q 2066 2928 1684 2928 
Q 1309 2928 1046 2623 
Q 784 2319 784 1719 
z
" transform="scale(0.015625)"/>
      <path id="ArialMT-6c" d="M 409 0 
L 409 4581 
L 972 4581 
L 972 0 
L 409 0 
z
" transform="scale(0.015625)"/>
      <path id="ArialMT-75" d="M 2597 0 
L 2597 488 
Q 2209 -75 1544 -75 
Q 1250 -75 995 37 
Q 741 150 617 320 
Q 494 491 444 738 
Q 409 903 409 1263 
L 409 3319 
L 972 3319 
L 972 1478 
Q 972 1038 1006 884 
Q 1059 663 1231 536 
Q 1403 409 1656 409 
Q 1909 409 2131 539 
Q 2353 669 2445 892 
Q 2538 1116 2538 1541 
L 2538 3319 
L 3100 3319 
L 3100 0 
L 2597 0 
z
" transform="scale(0.015625)"/>
      <path id="ArialMT-63" d="M 2588 1216 
L 3141 1144 
Q 3050 572 2676 248 
Q 2303 -75 1759 -75 
Q 1078 -75 664 370 
Q 250 816 250 1647 
Q 250 2184 428 2587 
Q 606 2991 970 3192 
Q 1334 3394 1763 3394 
Q 2303 3394 2647 3120 
Q 2991 2847 3088 2344 
L 2541 2259 
Q 2463 2594 2264 2762 
Q 2066 2931 1784 2931 
Q 1359 2931 1093 2626 
Q 828 2322 828 1663 
Q 828 994 1084 691 
Q 1341 388 1753 388 
Q 2084 388 2306 591 
Q 2528 794 2588 1216 
z
" transform="scale(0.015625)"/>
      <path id="ArialMT-76" d="M 1344 0 
L 81 3319 
L 675 3319 
L 1388 1331 
Q 1503 1009 1600 663 
Q 1675 925 1809 1294 
L 2547 3319 
L 3125 3319 
L 1869 0 
L 1344 0 
z
" transform="scale(0.015625)"/>
      <path id="ArialMT-65" d="M 2694 1069 
L 3275 997 
Q 3138 488 2766 206 
Q 2394 -75 1816 -75 
Q 1088 -75 661 373 
Q 234 822 234 1631 
Q 234 2469 665 2931 
Q 1097 3394 1784 3394 
Q 2450 3394 2872 2941 
Q 3294 2488 3294 1666 
Q 3294 1616 3291 1516 
L 816 1516 
Q 847 969 1125 678 
Q 1403 388 1819 388 
Q 2128 388 2347 550 
Q 2566 713 2694 1069 
z
M 847 1978 
L 2700 1978 
Q 2663 2397 2488 2606 
Q 2219 2931 1791 2931 
Q 1403 2931 1139 2672 
Q 875 2413 847 1978 
z
" transform="scale(0.015625)"/>
      <path id="ArialMT-2c" d="M 569 0 
L 569 641 
L 1209 641 
L 1209 0 
Q 1209 -353 1084 -570 
Q 959 -788 688 -906 
L 531 -666 
Q 709 -588 793 -436 
Q 878 -284 888 0 
L 569 0 
z
" transform="scale(0.015625)"/>
      <path id="ArialMT-4b" d="M 469 0 
L 469 4581 
L 1075 4581 
L 1075 2309 
L 3350 4581 
L 4172 4581 
L 2250 2725 
L 4256 0 
L 3456 0 
L 1825 2319 
L 1075 1588 
L 1075 0 
L 469 0 
z
" transform="scale(0.015625)"/>
      <path id="ArialMT-6b" d="M 425 0 
L 425 4581 
L 988 4581 
L 988 1969 
L 2319 3319 
L 3047 3319 
L 1778 2088 
L 3175 0 
L 2481 0 
L 1384 1697 
L 988 1316 
L 988 0 
L 425 0 
z
" transform="scale(0.015625)"/>
      <path id="ArialMT-3d" d="M 3381 2694 
L 356 2694 
L 356 3219 
L 3381 3219 
L 3381 2694 
z
M 3381 1303 
L 356 1303 
L 356 1828 
L 3381 1828 
L 3381 1303 
z
" transform="scale(0.015625)"/>
     </defs>
     <use xlink:href="#ArialMT-67"/>
     <use xlink:href="#ArialMT-6c" x="55.615234"/>
     <use xlink:href="#ArialMT-75" x="77.832031"/>
     <use xlink:href="#ArialMT-63" x="133.447266"/>
     <use xlink:href="#ArialMT-20" x="183.447266"/>
     <use xlink:href="#ArialMT-76" x="211.230469"/>
     <use xlink:href="#ArialMT-73" x="261.230469"/>
     <use xlink:href="#ArialMT-2e" x="311.230469"/>
     <use xlink:href="#ArialMT-20" x="339.013672"/>
     <use xlink:href="#ArialMT-63" x="366.796875"/>
     <use xlink:href="#ArialMT-6f" x="416.796875"/>
     <use xlink:href="#ArialMT-6e" x="472.412109"/>
     <use xlink:href="#ArialMT-74" x="528.027344"/>
     <use xlink:href="#ArialMT-72" x="555.810547"/>
     <use xlink:href="#ArialMT-6f" x="589.111328"/>
     <use xlink:href="#ArialMT-6c" x="644.726562"/>
     <use xlink:href="#ArialMT-20" x="666.943359"/>
     <use xlink:href="#ArialMT-69" x="694.726562"/>
     <use xlink:href="#ArialMT-6e" x="716.943359"/>
     <use xlink:href="#ArialMT-66" x="772.558594"/>
     <use xlink:href="#ArialMT-6f" x="800.341797"/>
     <use xlink:href="#ArialMT-72" x="855.957031"/>
     <use xlink:href="#ArialMT-6d" x="889.257812"/>
     <use xlink:href="#ArialMT-61" x="972.558594"/>
     <use xlink:href="#ArialMT-74" x="1028.173828"/>
     <use xlink:href="#ArialMT-69" x="1055.957031"/>
     <use xlink:href="#ArialMT-6f" x="1078.173828"/>
     <use xlink:href="#ArialMT-6e" x="1133.789062"/>
     <use xlink:href="#ArialMT-20" x="1189.404297"/>
     <use xlink:href="#ArialMT-63" x="1217.1875"/>
     <use xlink:href="#ArialMT-6f" x="1267.1875"/>
     <use xlink:href="#ArialMT-6e" x="1322.802734"/>
     <use xlink:href="#ArialMT-74" x="1378.417969"/>
     <use xlink:href="#ArialMT-65" x="1406.201172"/>
     <use xlink:href="#ArialMT-6e" x="1461.816406"/>
     <use xlink:href="#ArialMT-74" x="1517.431641"/>
     <use xlink:href="#ArialMT-2c" x="1545.214844"/>
     <use xlink:href="#ArialMT-20" x="1572.998047"/>
     <use xlink:href="#ArialMT-4b" x="1600.78125"/>
     <use xlink:href="#ArialMT-75" x="1667.480469"/>
     <use xlink:href="#ArialMT-6c" x="1723.095703"/>
     <use xlink:href="#ArialMT-6c" x="1745.3125"/>
     <use xlink:href="#ArialMT-62" x="1767.529297"/>
     <use xlink:href="#ArialMT-61" x="1823.144531"/>
     <use xlink:href="#ArialMT-63" x="1878.759766"/>
     <use xlink:href="#ArialMT-6b" x="1928.759766"/>
     <use xlink:href="#ArialMT-20" x="1978.759766"/>
     <use xlink:href="#ArialMT-6e" x="2006.542969"/>
     <use xlink:href="#ArialMT-3d" x="2062.158203"/>
     <use xlink:href="#ArialMT-32" x="2120.556641"/>
    </g>
   </g>
  </g>
 </g>
 <defs>
  <clipPath id="p2ecba17675">
   <rect x="90" y="51.84" width="558" height="332.64"/>
  </clipPath>
 </defs>
</svg>
