<?xml version="1.0" encoding="utf-8" standalone="no"?>
<!DOCTYPE svg PUBLIC "-//W3C//DTD SVG 1.1//EN"
  "http://www.w3.org/Graphics/SVG/1.1/DTD/svg11.dtd">
<svg xmlns:xlink="http://www.w3.org/1999/xlink" width="720pt" height="432pt" viewBox="0 0 720 432" xmlns="http://www.w3.org/2000/svg" version="1.1">
 <metadata>
  <rdf:RDF xmlns:dc="http://purl.org/dc/elements/1.1/" xmlns:cc="http://creativecommons.org/ns#" xmlns:rdf="http://www.w3.org/1999/02/22-rdf-syntax-ns#">
   <cc:Work>
    <dc:type rdf:resource="http://purl.org/dc/dcmitype/StillImage"/>
    <dc:date>2023-11-26T14:33:20.084837</dc:date>
    <dc:format>image/svg+xml</dc:format>
    <dc:creator>
     <cc:Agent>
      <dc:title>Matplotlib v3.7.1, https://matplotlib.org/</dc:title>
     </cc:Agent>
    </dc:creator>
   </cc:Work>
  </rdf:RDF>
 </metadata>
 <defs>
  <style type="text/css">*{stroke-linejoin: round; stroke-linecap: butt}</style>
 </defs>
 <g id="figure_1">
  <g id="patch_1">
   <path d="M 0 432 
L 720 432 
L 720 0 
L 0 0 
z
" style="fill: #ffffff"/>
  </g>
  <g id="axes_1">
   <g id="patch_2">
    <path d="M 90 384.48 
L 648 384.48 
L 648 51.84 
L 90 51.84 
z
" style="fill: #ffffff"/>
   </g>
   <g id="patch_3">
    <path d="M 307 384.48 
L 369 384.48 
L 369 51.84 
L 307 51.84 
z
" clip-path="url(#p5e6c925ecf)" style="fill: #ffd700; opacity: 0.35; stroke: #ffffff; stroke-width: 0.8; stroke-linejoin: miter"/>
   </g>
   <g id="line2d_1">
    <path d="M 90 384.48 
L 648 384.48 
" clip-path="url(#p5e6c925ecf)" style="fill: none; stroke: #000000; stroke-width: 0.5; stroke-linecap: round"/>
   </g>
   <g id="patch_4">
    <path d="M 125.65 379.395292 
L 142.578032 379.395292 
L 163.968106 382.793033 
L 163.968106 379.395292 
L 178.35 379.395292 
L 178.35 384.349623 
L 161.409364 384.349623 
L 140.01929 380.951882 
L 140.01929 384.349623 
L 125.65 384.349623 
L 125.65 379.395292 
z
" clip-path="url(#p5e6c925ecf)" style="fill: #40ba47"/>
   </g>
   <g id="patch_5">
    <path d="M 125.65 373.436164 
L 139.537864 373.436164 
L 139.537864 375.508998 
L 159.555783 373.436164 
L 175.683253 373.436164 
L 149.743078 376.126101 
L 178.35 379.11546 
L 160.964195 379.11546 
L 139.537864 376.878309 
L 139.537864 379.11546 
L 125.65 379.11546 
L 125.65 373.436164 
z
" clip-path="url(#p5e6c925ecf)" style="fill: #bd2e1f"/>
   </g>
   <g id="patch_6">
    <path d="M 142.437692 365.819132 
L 161.562308 365.819132 
L 161.562308 373.095233 
L 142.437692 373.095233 
L 142.437692 365.819132 
z
" clip-path="url(#p5e6c925ecf)" style="fill: #21599c"/>
   </g>
   <g id="patch_7">
    <path d="M 125.65 352.754038 
L 153.043021 352.754038 
Q 165.271068 352.754038 171.803672 353.818597 
Q 178.35 354.880469 178.35 356.845603 
Q 178.35 358.821491 171.803672 359.883362 
Q 165.271068 360.945234 153.043021 360.945234 
L 142.159922 360.945234 
L 142.159922 365.297563 
L 125.65 365.297563 
L 125.65 352.754038 
z
M 142.159922 355.09822 
L 142.159922 358.601052 
L 151.286354 358.601052 
Q 156.08974 358.601052 158.711016 358.144044 
Q 161.332292 357.687036 161.332292 356.845603 
Q 161.332292 356.006859 158.711016 355.55254 
Q 156.08974 355.09822 151.286354 355.09822 
L 142.159922 355.09822 
z
" clip-path="url(#p5e6c925ecf)" style="fill: #787800"/>
   </g>
   <g id="patch_8">
    <path d="M 140.091481 340.981588 
L 140.091481 349.380185 
L 145.265444 349.380185 
Q 154.112802 349.380185 158.782574 348.300492 
Q 163.464351 347.220799 163.464351 345.164661 
Q 163.464351 343.120324 158.806583 342.052431 
Q 154.16082 340.981588 145.265444 340.981588 
L 140.091481 340.981588 
z
M 125.65 338.297104 
L 140.871777 338.297104 
Q 153.63262 338.297104 159.874989 338.745502 
Q 166.117358 339.190949 170.583052 340.261792 
Q 174.520547 341.193986 176.429271 342.412329 
Q 178.35 343.627721 178.35 345.164661 
Q 178.35 346.725202 176.429271 347.946494 
Q 174.520547 349.167786 170.583052 350.097031 
Q 166.081344 351.167874 159.778952 351.616271 
Q 153.47656 352.061718 140.871777 352.061718 
L 125.65 352.061718 
L 125.65 338.297104 
z
" clip-path="url(#p5e6c925ecf)" style="fill: #6b296b"/>
   </g>
   <g id="patch_9">
    <path d="M 125.65 316.108765 
L 177.253077 316.108765 
L 177.253077 320.256319 
L 144.774615 320.256319 
L 144.774615 324.212448 
L 175.329487 324.212448 
L 175.329487 328.360001 
L 144.774615 328.360001 
L 144.774615 333.232238 
L 178.35 333.232238 
L 178.35 337.375234 
L 125.65 337.375234 
L 125.65 316.108765 
z
" clip-path="url(#p5e6c925ecf)" style="fill: #6b296b"/>
   </g>
   <g id="patch_10">
    <path d="M 153.405333 311.168591 
L 152.373292 311.168591 
Q 139.714313 311.168591 132.676667 308.377018 
Q 125.65 305.581063 125.65 300.598302 
Q 125.65 295.624306 132.665687 292.806438 
Q 139.681375 289.984188 152 289.984188 
Q 164.450375 289.984188 171.400188 292.780144 
Q 178.35 295.571717 178.35 300.598302 
Q 178.35 304.047231 174.661 306.540803 
Q 170.972 309.034374 164.044146 310.292116 
L 174.364563 314.89361 
L 161.771458 314.89361 
L 153.405333 311.168591 
z
M 152 293.80562 
Q 145.961458 293.80562 142.634771 295.584864 
Q 139.308083 297.364109 139.308083 300.598302 
Q 139.308083 303.885083 142.557917 305.633651 
Q 145.818729 307.377837 152 307.377837 
Q 158.071479 307.377837 161.398167 305.598592 
Q 164.724854 303.814965 164.724854 300.598302 
Q 164.724854 297.364109 161.398167 295.584864 
Q 158.071479 293.80562 152 293.80562 
z
" clip-path="url(#p5e6c925ecf)" style="fill: #40ba47"/>
   </g>
   <g id="patch_11">
    <path d="M 188.198462 383.205929 
L 239.801538 383.205929 
L 239.801538 383.448037 
L 207.323077 383.448037 
L 207.323077 383.678971 
L 237.877949 383.678971 
L 237.877949 383.921079 
L 207.323077 383.921079 
L 207.323077 384.447332 
L 188.198462 384.447332 
L 188.198462 383.205929 
z
" clip-path="url(#p5e6c925ecf)" style="fill: #21599c"/>
   </g>
   <g id="patch_12">
    <path d="M 215.405333 382.628291 
L 214.373292 382.628291 
Q 201.714313 382.628291 194.676667 382.280999 
Q 187.65 381.933161 187.65 381.313269 
Q 187.65 380.694468 194.665687 380.343905 
Q 201.681375 379.992796 214 379.992796 
Q 226.450375 379.992796 233.400187 380.340633 
Q 240.35 380.687925 240.35 381.313269 
Q 240.35 381.742341 236.661 382.05256 
Q 232.972 382.362778 226.044146 382.519251 
L 236.364562 383.09171 
L 223.771458 383.09171 
L 215.405333 382.628291 
z
M 214 380.46821 
Q 207.961458 380.46821 204.634771 380.689561 
Q 201.308083 380.910912 201.308083 381.313269 
Q 201.308083 381.722169 204.557917 381.939704 
Q 207.818729 382.156693 214 382.156693 
Q 220.071479 382.156693 223.398167 381.935342 
Q 226.724854 381.713446 226.724854 381.313269 
Q 226.724854 380.910912 223.398167 380.689561 
Q 220.071479 380.46821 214 380.46821 
z
" clip-path="url(#p5e6c925ecf)" style="fill: #40ba47"/>
   </g>
   <g id="patch_13">
    <path d="M 187.65 370.854525 
L 202.813382 370.854525 
L 202.813382 374.217139 
L 225.186618 374.217139 
L 225.186618 370.854525 
L 240.35 370.854525 
L 240.35 379.679022 
L 225.186618 379.679022 
L 225.186618 375.938161 
L 202.813382 375.938161 
L 202.813382 379.679022 
L 187.65 379.679022 
L 187.65 370.854525 
z
" clip-path="url(#p5e6c925ecf)" style="fill: #177875"/>
   </g>
   <g id="patch_14">
    <path d="M 187.65 358.207489 
L 215.043021 358.207489 
Q 227.271068 358.207489 233.803672 359.234109 
Q 240.35 360.258136 240.35 362.153234 
Q 240.35 364.058703 233.803672 365.08273 
Q 227.271068 366.106757 215.043021 366.106757 
L 204.159922 366.106757 
L 204.159922 370.303972 
L 187.65 370.303972 
L 187.65 358.207489 
z
M 204.159922 360.468126 
L 204.159922 363.84612 
L 213.286354 363.84612 
Q 218.08974 363.84612 220.711016 363.405399 
Q 223.332292 362.964679 223.332292 362.153234 
Q 223.332292 361.344382 220.711016 360.906254 
Q 218.08974 360.468126 213.286354 360.468126 
L 204.159922 360.468126 
z
" clip-path="url(#p5e6c925ecf)" style="fill: #787800"/>
   </g>
   <g id="patch_15">
    <path d="M 202.091481 347.488804 
L 202.091481 355.122581 
L 207.265444 355.122581 
Q 216.112802 355.122581 220.782574 354.14121 
Q 225.464351 353.15984 225.464351 351.290945 
Q 225.464351 349.432776 220.806583 348.462131 
Q 216.16082 347.488804 207.265444 347.488804 
L 202.091481 347.488804 
z
M 187.65 345.048784 
L 202.871777 345.048784 
Q 215.63262 345.048784 221.874989 345.456348 
Q 228.117358 345.86123 232.583052 346.834557 
Q 236.520547 347.68186 238.429271 348.789254 
Q 240.35 349.893967 240.35 351.290945 
Q 240.35 352.709374 238.429271 353.81945 
Q 236.520547 354.929525 232.583052 355.774147 
Q 228.081344 356.747474 221.778952 357.155038 
Q 215.47656 357.55992 202.871777 357.55992 
L 187.65 357.55992 
L 187.65 345.048784 
z
" clip-path="url(#p5e6c925ecf)" style="fill: #6b296b"/>
   </g>
   <g id="patch_16">
    <path d="M 187.65 325.659952 
L 204.578032 325.659952 
L 225.968106 338.396092 
L 225.968106 325.659952 
L 240.35 325.659952 
L 240.35 344.230836 
L 223.409364 344.230836 
L 202.01929 331.494696 
L 202.01929 344.230836 
L 187.65 344.230836 
L 187.65 325.659952 
z
" clip-path="url(#p5e6c925ecf)" style="fill: #40ba47"/>
   </g>
   <g id="patch_17">
    <path d="M 187.65 305.76374 
L 201.537864 305.76374 
L 201.537864 312.66548 
L 221.555783 305.76374 
L 237.683253 305.76374 
L 211.743078 314.720196 
L 240.35 324.673616 
L 222.964195 324.673616 
L 201.537864 317.224762 
L 201.537864 324.673616 
L 187.65 324.673616 
L 187.65 305.76374 
z
" clip-path="url(#p5e6c925ecf)" style="fill: #bd2e1f"/>
   </g>
   <g id="patch_18">
    <path d="M 209.032787 283.055296 
Q 213.762274 283.055296 215.814221 281.912004 
Q 217.866168 280.760545 217.866168 278.130973 
Q 217.866168 275.5259 215.814221 274.407107 
Q 213.762274 273.280148 209.032787 273.280148 
L 202.701781 273.280148 
L 202.701781 283.055296 
L 209.032787 283.055296 
z
M 202.701781 289.841552 
L 202.701781 304.263367 
L 187.65 304.263367 
L 187.65 266.159071 
L 210.634307 266.159071 
Q 222.170252 266.159071 227.537844 268.690646 
Q 232.917949 271.214055 232.917949 276.677359 
Q 232.917949 280.450223 230.11529 282.875636 
Q 227.325142 285.301049 221.694801 286.452507 
Q 224.785233 286.909824 227.225047 288.534932 
Q 229.677374 290.151874 232.179748 293.442923 
L 240.35 304.263367 
L 224.322293 304.263367 
L 217.203039 294.79854 
Q 215.050997 291.94031 212.836396 290.895014 
Q 210.634307 289.841552 206.955817 289.841552 
L 202.701781 289.841552 
z
" clip-path="url(#p5e6c925ecf)" style="fill: #bd2e1f"/>
   </g>
   <g id="patch_19">
    <path d="M 250.198462 382.936144 
L 301.801538 382.936144 
L 301.801538 383.229518 
L 269.323077 383.229518 
L 269.323077 383.509353 
L 299.877949 383.509353 
L 299.877949 383.802727 
L 269.323077 383.802727 
L 269.323077 384.440414 
L 250.198462 384.440414 
L 250.198462 382.936144 
z
" clip-path="url(#p5e6c925ecf)" style="fill: #21599c"/>
   </g>
   <g id="patch_20">
    <path d="M 297.955948 378.970369 
L 297.955948 379.789189 
Q 292.459804 379.646641 287.221293 379.574539 
Q 281.997094 379.501607 277.34541 379.501607 
Q 271.176562 379.501607 268.213797 379.60023 
Q 265.265345 379.698025 265.265345 379.905216 
Q 265.265345 380.061024 267.254834 380.148044 
Q 269.244324 380.234236 274.482835 380.296393 
L 281.811027 380.381756 
Q 292.946442 380.511872 297.641065 380.776249 
Q 302.35 381.039796 302.35 381.52711 
Q 302.35 382.166088 295.794704 382.478533 
Q 289.239408 382.790977 275.770994 382.790977 
Q 269.430391 382.790977 263.032537 382.720532 
Q 256.634682 382.650916 250.236828 382.513341 
L 250.236828 381.672144 
Q 256.634682 381.868562 262.60315 381.968842 
Q 268.571619 382.068294 274.125014 382.068294 
Q 279.764286 382.068294 282.755676 381.959726 
Q 285.747067 381.850329 285.747067 381.64811 
Q 285.747067 381.467439 283.714639 381.368816 
Q 281.682211 381.270193 275.59924 381.192289 
L 268.929441 381.106926 
Q 258.910429 380.982611 254.273058 380.710776 
Q 249.65 380.438941 249.65 379.978147 
Q 249.65 379.400498 256.090793 379.089711 
Q 262.531586 378.778924 274.611651 378.778924 
Q 280.122108 378.778924 285.933134 378.826992 
Q 291.744161 378.875061 297.955948 378.970369 
z
" clip-path="url(#p5e6c925ecf)" style="fill: #40ba47"/>
   </g>
   <g id="patch_21">
    <path d="M 249.65 373.16252 
L 263.537864 373.16252 
L 263.537864 375.122291 
L 283.555783 373.16252 
L 299.683253 373.16252 
L 273.743078 375.705735 
L 302.35 378.53204 
L 284.964195 378.53204 
L 263.537864 376.416914 
L 263.537864 378.53204 
L 249.65 378.53204 
L 249.65 373.16252 
z
" clip-path="url(#p5e6c925ecf)" style="fill: #bd2e1f"/>
   </g>
   <g id="patch_22">
    <path d="M 286.155336 371.391662 
L 265.887763 371.391662 
L 262.68762 372.815528 
L 249.65 372.815528 
L 268.269015 364.999345 
L 283.730985 364.999345 
L 302.35 372.815528 
L 289.323155 372.815528 
L 286.155336 371.391662 
z
M 269.120231 369.940995 
L 282.890544 369.940995 
L 276.016162 366.831944 
L 269.120231 369.940995 
z
" clip-path="url(#p5e6c925ecf)" style="fill: #21599c"/>
   </g>
   <g id="patch_23">
    <path d="M 249.65 351.683487 
L 277.043021 351.683487 
Q 289.271068 351.683487 295.803672 352.767608 
Q 302.35 353.848991 302.35 355.850235 
Q 302.35 357.862429 295.803672 358.943812 
Q 289.271068 360.025196 277.043021 360.025196 
L 266.159922 360.025196 
L 266.159922 364.457498 
L 249.65 364.457498 
L 249.65 351.683487 
z
M 266.159922 354.070743 
L 266.159922 357.637939 
L 275.286354 357.637939 
Q 280.08974 357.637939 282.711016 357.172534 
Q 285.332292 356.707128 285.332292 355.850235 
Q 285.332292 354.996079 282.711016 354.533411 
Q 280.08974 354.070743 275.286354 354.070743 
L 266.159922 354.070743 
z
" clip-path="url(#p5e6c925ecf)" style="fill: #787800"/>
   </g>
   <g id="patch_24">
    <path d="M 277.405333 344.842929 
L 276.373292 344.842929 
Q 263.714313 344.842929 256.676667 340.69788 
Q 249.65 336.546325 249.65 329.147707 
Q 249.65 321.762103 256.665687 317.578012 
Q 263.681375 313.387413 276 313.387413 
Q 288.450375 313.387413 295.400188 317.538969 
Q 302.35 321.684017 302.35 329.147707 
Q 302.35 334.268826 298.661 337.971389 
Q 294.972 341.673951 288.044146 343.541501 
L 298.364562 350.373998 
L 285.771458 350.373998 
L 277.405333 344.842929 
z
M 276 319.06164 
Q 269.961458 319.06164 266.634771 321.703539 
Q 263.308083 324.345437 263.308083 329.147707 
Q 263.308083 334.028062 266.557917 336.624411 
Q 269.818729 339.214252 276 339.214252 
Q 282.071479 339.214252 285.398167 336.572354 
Q 288.724854 333.923948 288.724854 329.147707 
Q 288.724854 324.345437 285.398167 321.703539 
Q 282.071479 319.06164 276 319.06164 
z
" clip-path="url(#p5e6c925ecf)" style="fill: #40ba47"/>
   </g>
   <g id="patch_25">
    <path d="M 311.65 380.168887 
L 326.22 380.168887 
L 337.988929 381.666005 
L 349.746786 380.168887 
L 364.35 380.168887 
L 344.665 382.599565 
L 344.665 384.369459 
L 331.346071 384.369459 
L 331.346071 382.599565 
L 311.65 380.168887 
z
" clip-path="url(#p5e6c925ecf)" style="fill: #177875"/>
   </g>
   <g id="patch_26">
    <path d="M 311.65 369.781366 
L 326.813382 369.781366 
L 326.813382 373.597042 
L 349.186618 373.597042 
L 349.186618 369.781366 
L 364.35 369.781366 
L 364.35 379.794833 
L 349.186618 379.794833 
L 349.186618 375.549947 
L 326.813382 375.549947 
L 326.813382 379.794833 
L 311.65 379.794833 
L 311.65 369.781366 
z
" clip-path="url(#p5e6c925ecf)" style="fill: #177875"/>
   </g>
   <g id="patch_27">
    <path d="M 311.65 346.815868 
L 325.537864 346.815868 
L 325.537864 354.889199 
L 345.555783 346.815868 
L 361.683253 346.815868 
L 335.743078 357.292709 
L 364.35 368.935752 
L 346.964195 368.935752 
L 325.537864 360.222433 
L 325.537864 368.935752 
L 311.65 368.935752 
L 311.65 346.815868 
z
" clip-path="url(#p5e6c925ecf)" style="fill: #bd2e1f"/>
   </g>
   <g id="patch_28">
    <path d="M 333.032787 183.21306 
Q 337.762274 183.21306 339.814221 174.821639 
Q 341.866168 166.370279 341.866168 147.070011 
Q 341.866168 127.949558 339.814221 119.737953 
Q 337.762274 111.46641 333.032787 111.46641 
L 326.701781 111.46641 
L 326.701781 183.21306 
L 333.032787 183.21306 
z
M 326.701781 233.022138 
L 326.701781 338.873921 
L 311.65 338.873921 
L 311.65 59.199844 
L 334.634307 59.199844 
Q 346.170252 59.199844 351.537844 77.780848 
Q 356.917949 96.301913 356.917949 136.400918 
Q 356.917949 164.092608 354.11529 181.894408 
Q 351.325142 199.696209 345.694801 208.147568 
Q 348.785233 211.504137 351.225047 223.431943 
Q 353.677374 235.29981 356.179748 259.455115 
L 364.35 338.873921 
L 348.322293 338.873921 
L 341.203039 269.404942 
Q 339.050997 248.42639 336.836396 240.754233 
Q 334.634307 233.022138 330.955817 233.022138 
L 326.701781 233.022138 
z
" clip-path="url(#p5e6c925ecf)" style="fill: #bd2e1f"/>
   </g>
   <g id="patch_29">
    <path d="M 401.405333 384.051766 
L 400.373292 384.051766 
Q 387.714313 384.051766 380.676667 383.778865 
Q 373.65 383.505537 373.65 383.018429 
Q 373.65 382.532178 380.665687 382.256707 
Q 387.681375 381.980808 400 381.980808 
Q 412.450375 381.980808 419.400188 382.254137 
Q 426.35 382.527037 426.35 383.018429 
Q 426.35 383.355591 422.661 383.599359 
Q 418.972 383.843128 412.044146 383.966083 
L 422.364563 384.415918 
L 409.771458 384.415918 
L 401.405333 384.051766 
z
M 400 382.354386 
Q 393.961458 382.354386 390.634771 382.528322 
Q 387.308083 382.702259 387.308083 383.018429 
Q 387.308083 383.33974 390.557917 383.510678 
Q 393.818729 383.681187 400 383.681187 
Q 406.071479 383.681187 409.398167 383.50725 
Q 412.724854 383.332885 412.724854 383.018429 
Q 412.724854 382.702259 409.398167 382.528322 
Q 406.071479 382.354386 400 382.354386 
z
" clip-path="url(#p5e6c925ecf)" style="fill: #40ba47"/>
   </g>
   <g id="patch_30">
    <path d="M 421.955948 376.67419 
L 421.955948 377.767539 
Q 416.459804 377.577199 411.221293 377.480922 
Q 405.997094 377.383539 401.34541 377.383539 
Q 395.176562 377.383539 392.213797 377.515227 
Q 389.265345 377.64581 389.265345 377.922467 
Q 389.265345 378.130513 391.254834 378.246709 
Q 393.244324 378.361798 398.482835 378.444796 
L 405.811027 378.558778 
Q 416.946442 378.732519 421.641065 379.085533 
Q 426.35 379.437441 426.35 380.088139 
Q 426.35 380.94135 419.794704 381.358549 
Q 413.239408 381.775748 399.770994 381.775748 
Q 393.430391 381.775748 387.032537 381.681684 
Q 380.634682 381.588727 374.236828 381.405027 
L 374.236828 380.281799 
Q 380.634682 380.54407 386.60315 380.677972 
Q 392.571619 380.810768 398.125014 380.810768 
Q 403.764286 380.810768 406.755676 380.665799 
Q 409.747067 380.519724 409.747067 380.249707 
Q 409.747067 380.008462 407.714639 379.876773 
Q 405.682211 379.745084 399.59924 379.641061 
L 392.929441 379.527078 
Q 382.910429 379.361084 378.273058 378.99811 
Q 373.65 378.635136 373.65 378.01985 
Q 373.65 377.24853 380.090793 376.833544 
Q 386.531586 376.418558 398.611651 376.418558 
Q 404.122108 376.418558 409.933134 376.482743 
Q 415.744161 376.546927 421.955948 376.67419 
z
" clip-path="url(#p5e6c925ecf)" style="fill: #40ba47"/>
   </g>
   <g id="patch_31">
    <path d="M 388.091481 363.895528 
L 388.091481 372.983854 
L 393.265444 372.983854 
Q 402.112802 372.983854 406.782574 371.815491 
Q 411.464351 370.647129 411.464351 368.422134 
Q 411.464351 366.209907 406.806583 365.054314 
Q 402.16082 363.895528 393.265444 363.895528 
L 388.091481 363.895528 
z
M 373.65 360.990584 
L 388.871777 360.990584 
Q 401.63262 360.990584 407.874989 361.475805 
Q 414.117358 361.957835 418.583052 363.11662 
Q 422.520547 364.12537 424.429271 365.443768 
Q 426.35 366.758973 426.35 368.422134 
Q 426.35 370.110832 424.429271 371.432422 
Q 422.520547 372.754012 418.583052 373.759569 
Q 414.081344 374.918355 407.778952 375.403576 
Q 401.47656 375.885606 388.871777 375.885606 
L 373.65 375.885606 
L 373.65 360.990584 
z
" clip-path="url(#p5e6c925ecf)" style="fill: #6b296b"/>
   </g>
   <g id="patch_32">
    <path d="M 373.65 341.321557 
L 425.253077 341.321557 
L 425.253077 344.98472 
L 392.774615 344.98472 
L 392.774615 348.478815 
L 423.329487 348.478815 
L 423.329487 352.141978 
L 392.774615 352.141978 
L 392.774615 356.445188 
L 426.35 356.445188 
L 426.35 360.104326 
L 373.65 360.104326 
L 373.65 341.321557 
z
" clip-path="url(#p5e6c925ecf)" style="fill: #6b296b"/>
   </g>
   <g id="patch_33">
    <path d="M 410.155336 336.906188 
L 389.887763 336.906188 
L 386.68762 340.332338 
L 373.65 340.332338 
L 392.269015 321.524789 
L 407.730985 321.524789 
L 426.35 340.332338 
L 413.323155 340.332338 
L 410.155336 336.906188 
z
M 393.120231 333.415546 
L 406.890544 333.415546 
L 400.016162 325.934446 
L 393.120231 333.415546 
z
" clip-path="url(#p5e6c925ecf)" style="fill: #21599c"/>
   </g>
   <g id="patch_34">
    <path d="M 373.65 301.638176 
L 390.578032 301.638176 
L 411.968106 314.596225 
L 411.968106 301.638176 
L 426.35 301.638176 
L 426.35 320.532631 
L 409.409364 320.532631 
L 388.01929 307.574583 
L 388.01929 320.532631 
L 373.65 320.532631 
L 373.65 301.638176 
z
" clip-path="url(#p5e6c925ecf)" style="fill: #40ba47"/>
   </g>
   <g id="patch_35">
    <path d="M 426.35 298.013862 
Q 421.035119 299.22511 415.318669 299.833499 
Q 409.602219 300.436358 403.507822 300.436358 
Q 389.736374 300.436358 381.693187 296.830268 
Q 373.65 293.224179 373.65 287.057324 
Q 373.65 280.818569 381.834917 277.240134 
Q 390.031645 273.661699 404.287338 273.661699 
Q 409.779381 273.661699 414.810802 274.14841 
Q 419.854034 274.629591 424.318534 275.58089 
L 424.318534 280.918123 
Q 419.712304 279.695814 415.153317 279.092956 
Q 410.59433 278.484566 406.011721 278.484566 
Q 397.531533 278.484566 392.937113 280.707953 
Q 388.342694 282.925808 388.342694 287.057324 
Q 388.342694 291.150125 392.771762 293.384573 
Q 397.200829 295.61349 405.350314 295.61349 
Q 407.570753 295.61349 409.472299 295.486281 
Q 411.373846 295.353542 412.885634 295.077001 
L 412.885634 290.066086 
L 404.204662 290.066086 
L 404.204662 285.602721 
L 426.35 285.602721 
L 426.35 298.013862 
z
" clip-path="url(#p5e6c925ecf)" style="fill: #787800"/>
   </g>
   <g id="patch_36">
    <path d="M 483.955948 381.914915 
L 483.955948 382.449872 
Q 478.459804 382.356742 473.221293 382.309635 
Q 467.997094 382.261987 463.34541 382.261987 
Q 457.176562 382.261987 454.213797 382.32642 
Q 451.265345 382.390312 451.265345 382.525676 
Q 451.265345 382.627469 453.254834 382.684322 
Q 455.244324 382.740633 460.482835 382.781242 
L 467.811027 382.837012 
Q 478.946442 382.922021 483.641065 383.094745 
Q 488.35 383.266927 488.35 383.585303 
Q 488.35 384.002765 481.794704 384.206893 
Q 475.239408 384.411022 461.770994 384.411022 
Q 455.430391 384.411022 449.032537 384.364998 
Q 442.634682 384.319516 436.236828 384.229634 
L 436.236828 383.680057 
Q 442.634682 383.808382 448.60315 383.873898 
Q 454.571619 383.938873 460.125014 383.938873 
Q 465.764286 383.938873 468.755676 383.867942 
Q 471.747067 383.79647 471.747067 383.664355 
Q 471.747067 383.546318 469.714639 383.481885 
Q 467.682211 383.417452 461.59924 383.366555 
L 454.929441 383.310785 
Q 444.910429 383.229567 440.273058 383.05197 
Q 435.65 382.874373 435.65 382.573324 
Q 435.65 382.19593 442.090793 381.992884 
Q 448.531586 381.789839 460.611651 381.789839 
Q 466.122108 381.789839 471.933134 381.821243 
Q 477.744161 381.852647 483.955948 381.914915 
z
" clip-path="url(#p5e6c925ecf)" style="fill: #40ba47"/>
   </g>
   <g id="patch_37">
    <path d="M 435.65 373.459994 
L 450.22 373.459994 
L 461.988929 376.32874 
L 473.746786 373.459994 
L 488.35 373.459994 
L 468.665 378.117609 
L 468.665 381.509043 
L 455.346071 381.509043 
L 455.346071 378.117609 
L 435.65 373.459994 
z
" clip-path="url(#p5e6c925ecf)" style="fill: #177875"/>
   </g>
   <g id="patch_38">
    <path d="M 463.405333 371.395496 
L 462.373292 371.395496 
Q 449.714313 371.395496 442.676667 370.214841 
Q 435.65 369.032332 435.65 366.924947 
Q 435.65 364.821268 442.665687 363.629492 
Q 449.681375 362.435863 462 362.435863 
Q 474.450375 362.435863 481.400187 363.618371 
Q 488.35 364.799026 488.35 366.924947 
Q 488.35 368.383621 484.661 369.43824 
Q 480.972 370.49286 474.044146 371.024803 
L 484.364562 372.970938 
L 471.771458 372.970938 
L 463.405333 371.395496 
z
M 462 364.052081 
Q 455.961458 364.052081 452.634771 364.804587 
Q 449.308083 365.557092 449.308083 366.924947 
Q 449.308083 368.315043 452.557917 369.054574 
Q 455.818729 369.792252 462 369.792252 
Q 468.071479 369.792252 471.398167 369.039746 
Q 474.724854 368.285387 474.724854 366.924947 
Q 474.724854 365.557092 471.398167 364.804587 
Q 468.071479 364.052081 462 364.052081 
z
" clip-path="url(#p5e6c925ecf)" style="fill: #40ba47"/>
   </g>
   <g id="patch_39">
    <path d="M 435.65 349.93553 
L 463.043021 349.93553 
Q 475.271068 349.93553 481.803672 350.946296 
Q 488.35 351.954509 488.35 353.820342 
Q 488.35 355.696385 481.803672 356.704599 
Q 475.271068 357.712812 463.043021 357.712812 
L 452.159922 357.712812 
L 452.159922 361.845212 
L 435.65 361.845212 
L 435.65 349.93553 
z
M 452.159922 352.161257 
L 452.159922 355.487085 
L 461.286354 355.487085 
Q 466.08974 355.487085 468.711016 355.05317 
Q 471.332292 354.619256 471.332292 353.820342 
Q 471.332292 353.023981 468.711016 352.592619 
Q 466.08974 352.161257 461.286354 352.161257 
L 452.159922 352.161257 
z
" clip-path="url(#p5e6c925ecf)" style="fill: #787800"/>
   </g>
   <g id="patch_40">
    <path d="M 435.65 336.818606 
L 449.537864 336.818606 
L 449.537864 341.371819 
L 469.555783 336.818606 
L 485.683253 336.818606 
L 459.743078 342.727356 
L 488.35 349.293822 
L 470.964195 349.293822 
L 449.537864 344.379667 
L 449.537864 349.293822 
L 435.65 349.293822 
L 435.65 336.818606 
z
" clip-path="url(#p5e6c925ecf)" style="fill: #bd2e1f"/>
   </g>
   <g id="patch_41">
    <path d="M 435.65 322.046832 
L 444.762642 322.046832 
L 451.132798 332.274435 
L 457.455534 322.046832 
L 466.615597 322.046832 
L 472.938332 332.274435 
L 479.316392 322.046832 
L 488.35 322.046832 
L 479.656239 336.119965 
L 468.694196 336.119965 
L 462 325.421851 
L 455.384838 336.119965 
L 444.414892 336.119965 
L 435.65 322.046832 
z
" clip-path="url(#p5e6c925ecf)" style="fill: #21599c"/>
   </g>
   <g id="patch_42">
    <path d="M 435.65 305.44 
L 452.578032 305.44 
L 473.968106 316.289664 
L 473.968106 305.44 
L 488.35 305.44 
L 488.35 321.260167 
L 471.409364 321.260167 
L 450.01929 310.410502 
L 450.01929 321.260167 
L 435.65 321.260167 
L 435.65 305.44 
z
" clip-path="url(#p5e6c925ecf)" style="fill: #40ba47"/>
   </g>
   <g id="patch_43">
    <path d="M 436.198462 269.359153 
L 487.801538 269.359153 
L 487.801538 276.136381 
L 455.323077 276.136381 
L 455.323077 282.600814 
L 485.877949 282.600814 
L 485.877949 289.378043 
L 455.323077 289.378043 
L 455.323077 304.109205 
L 436.198462 304.109205 
L 436.198462 269.359153 
z
" clip-path="url(#p5e6c925ecf)" style="fill: #21599c"/>
   </g>
   <g id="patch_44">
    <path d="M 512.091481 383.889107 
L 512.091481 384.322818 
L 517.265444 384.322818 
Q 526.112802 384.322818 530.782574 384.267061 
Q 535.464351 384.211305 535.464351 384.105124 
Q 535.464351 383.999553 530.806583 383.944406 
Q 526.16082 383.889107 517.265444 383.889107 
L 512.091481 383.889107 
z
M 497.65 383.750477 
L 512.871777 383.750477 
Q 525.63262 383.750477 531.874989 383.773633 
Q 538.117358 383.796636 542.583052 383.851936 
Q 546.520547 383.900075 548.429271 383.962991 
Q 550.35 384.025755 550.35 384.105124 
Q 550.35 384.185712 548.429271 384.24878 
Q 546.520547 384.311849 542.583052 384.359836 
Q 538.081344 384.415135 531.778952 384.438291 
Q 525.47656 384.461294 512.871777 384.461294 
L 497.65 384.461294 
L 497.65 383.750477 
z
" clip-path="url(#p5e6c925ecf)" style="fill: #6b296b"/>
   </g>
   <g id="patch_45">
    <path d="M 534.155336 383.328442 
L 513.887763 383.328442 
L 510.68762 383.680862 
L 497.65 383.680862 
L 516.269015 381.746283 
L 531.730985 381.746283 
L 550.35 383.680862 
L 537.323155 383.680862 
L 534.155336 383.328442 
z
M 517.120231 382.969388 
L 530.890544 382.969388 
L 524.016162 382.199869 
L 517.120231 382.969388 
z
" clip-path="url(#p5e6c925ecf)" style="fill: #21599c"/>
   </g>
   <g id="patch_46">
    <path d="M 497.65 377.401652 
L 512.22 377.401652 
L 523.988929 378.89273 
L 535.746786 377.401652 
L 550.35 377.401652 
L 530.665 379.822524 
L 530.665 381.585278 
L 517.346071 381.585278 
L 517.346071 379.822524 
L 497.65 377.401652 
z
" clip-path="url(#p5e6c925ecf)" style="fill: #177875"/>
   </g>
   <g id="patch_47">
    <path d="M 497.65 372.14707 
L 514.578032 372.14707 
L 535.968106 375.584757 
L 535.968106 372.14707 
L 550.35 372.14707 
L 550.35 377.159647 
L 533.409364 377.159647 
L 512.01929 373.72196 
L 512.01929 377.159647 
L 497.65 377.159647 
L 497.65 372.14707 
z
" clip-path="url(#p5e6c925ecf)" style="fill: #40ba47"/>
   </g>
   <g id="patch_48">
    <path d="M 497.65 366.703143 
L 549.253077 366.703143 
L 549.253077 367.712571 
L 516.774615 367.712571 
L 516.774615 368.675409 
L 547.329487 368.675409 
L 547.329487 369.684836 
L 516.774615 369.684836 
L 516.774615 370.870636 
L 550.35 370.870636 
L 550.35 371.878955 
L 497.65 371.878955 
L 497.65 366.703143 
z
" clip-path="url(#p5e6c925ecf)" style="fill: #6b296b"/>
   </g>
   <g id="patch_49">
    <path d="M 497.65 360.796115 
L 510.68762 360.796115 
L 524.016162 364.946373 
L 537.323155 360.796115 
L 550.35 360.796115 
L 531.730985 366.418968 
L 516.269015 366.418968 
L 497.65 360.796115 
z
" clip-path="url(#p5e6c925ecf)" style="fill: #21599c"/>
   </g>
   <g id="patch_50">
    <path d="M 514.437692 351.619548 
L 533.562308 351.619548 
L 533.562308 360.416643 
L 514.437692 360.416643 
L 514.437692 351.619548 
z
" clip-path="url(#p5e6c925ecf)" style="fill: #21599c"/>
   </g>
   <g id="patch_51">
    <path d="M 497.65 337.878306 
L 506.762642 337.878306 
L 513.132798 347.444717 
L 519.455534 337.878306 
L 528.615597 337.878306 
L 534.938332 347.444717 
L 541.316392 337.878306 
L 550.35 337.878306 
L 541.656239 351.041642 
L 530.694196 351.041642 
L 524 341.035137 
L 517.384838 351.041642 
L 506.414892 351.041642 
L 497.65 337.878306 
z
" clip-path="url(#p5e6c925ecf)" style="fill: #21599c"/>
   </g>
   <g id="patch_52">
    <path d="M 545.955948 293.065581 
L 545.955948 302.339185 
Q 540.459804 300.724752 535.221293 299.908149 
Q 529.997094 299.08216 525.34541 299.08216 
Q 519.176562 299.08216 516.213797 300.199123 
Q 513.265345 301.306699 513.265345 303.653259 
Q 513.265345 305.417872 515.254834 306.403427 
Q 517.244324 307.379596 522.482835 308.083564 
L 529.811027 309.050347 
Q 540.946442 310.523986 545.641065 313.518197 
Q 550.35 316.503021 550.35 322.02213 
Q 550.35 329.25892 543.794704 332.797533 
Q 537.239408 336.336145 523.770994 336.336145 
Q 517.430391 336.336145 511.032537 335.538315 
Q 504.634682 334.749871 498.236828 333.191755 
L 498.236828 323.664722 
Q 504.634682 325.88926 510.60315 327.024995 
Q 516.571619 328.151344 522.125014 328.151344 
Q 527.764286 328.151344 530.755676 326.921747 
Q 533.747067 325.682763 533.747067 323.392521 
Q 533.747067 321.346321 531.714639 320.229358 
Q 529.682211 319.112395 523.59924 318.230089 
L 516.929441 317.263306 
Q 506.910429 315.85537 502.273058 312.776684 
Q 497.65 309.697997 497.65 304.479248 
Q 497.65 297.937039 504.090793 294.417199 
Q 510.531586 290.897359 522.611651 290.897359 
Q 528.122108 290.897359 533.933134 291.441761 
Q 539.744161 291.986163 545.955948 293.065581 
z
" clip-path="url(#p5e6c925ecf)" style="fill: #40ba47"/>
   </g>
   <g id="patch_53">
    <path d="M 559.65 383.935415 
L 578.774615 383.935415 
L 578.774615 384.362664 
L 612.35 384.362664 
L 612.35 384.466036 
L 559.65 384.466036 
L 559.65 383.935415 
z
" clip-path="url(#p5e6c925ecf)" style="fill: #21599c"/>
   </g>
   <g id="patch_54">
    <path d="M 607.955948 382.31665 
L 607.955948 382.651337 
Q 602.459804 382.593072 597.221293 382.5636 
Q 591.997094 382.53379 587.34541 382.53379 
Q 581.176562 382.53379 578.213797 382.574101 
Q 575.265345 382.614074 575.265345 382.698762 
Q 575.265345 382.762447 577.254834 382.798016 
Q 579.244324 382.833247 584.482835 382.858653 
L 591.811027 382.893544 
Q 602.946442 382.946728 607.641065 383.05479 
Q 612.35 383.162513 612.35 383.361699 
Q 612.35 383.622877 605.794704 383.750587 
Q 599.239408 383.878296 585.770994 383.878296 
Q 579.430391 383.878296 573.032537 383.849502 
Q 566.634682 383.821047 560.236828 383.764814 
L 560.236828 383.420981 
Q 566.634682 383.501265 572.60315 383.542254 
Q 578.571619 383.582904 584.125014 383.582904 
Q 589.764286 383.582904 592.755676 383.538528 
Q 595.747067 383.493813 595.747067 383.411157 
Q 595.747067 383.337309 593.714639 383.296998 
Q 591.682211 383.256686 585.59924 383.224844 
L 578.929441 383.189952 
Q 568.910429 383.13914 564.273058 383.028029 
Q 559.65 382.916918 559.65 382.728572 
Q 559.65 382.492462 566.090793 382.36543 
Q 572.531586 382.238398 584.611651 382.238398 
Q 590.122108 382.238398 595.933134 382.258046 
Q 601.744161 382.277694 607.955948 382.31665 
z
" clip-path="url(#p5e6c925ecf)" style="fill: #40ba47"/>
   </g>
   <g id="patch_55">
    <path d="M 559.65 378.751375 
L 573.537864 378.751375 
L 573.537864 379.976091 
L 593.555783 378.751375 
L 609.683253 378.751375 
L 583.743078 380.340701 
L 612.35 382.106939 
L 594.964195 382.106939 
L 573.537864 380.785137 
L 573.537864 382.106939 
L 559.65 382.106939 
L 559.65 378.751375 
z
" clip-path="url(#p5e6c925ecf)" style="fill: #bd2e1f"/>
   </g>
   <g id="patch_56">
    <path d="M 559.65 373.54999 
L 575.195992 373.54999 
L 585.979692 376.216084 
L 596.83447 373.54999 
L 612.35 373.54999 
L 612.35 378.531966 
L 600.80474 378.531966 
L 600.80474 374.887842 
L 589.889037 377.574223 
L 582.141426 377.574223 
L 571.225723 374.887842 
L 571.225723 378.531966 
L 559.65 378.531966 
L 559.65 373.54999 
z
" clip-path="url(#p5e6c925ecf)" style="fill: #21599c"/>
   </g>
   <g id="patch_57">
    <path d="M 576.437692 363.094274 
L 595.562308 363.094274 
L 595.562308 373.154152 
L 576.437692 373.154152 
L 576.437692 363.094274 
z
" clip-path="url(#p5e6c925ecf)" style="fill: #21599c"/>
   </g>
   <g id="patch_58">
    <path d="M 574.091481 354.059885 
L 574.091481 360.496741 
L 579.265444 360.496741 
Q 588.112802 360.496741 592.782574 359.669242 
Q 597.464351 358.841743 597.464351 357.265878 
Q 597.464351 355.699056 592.806583 354.880601 
Q 588.16082 354.059885 579.265444 354.059885 
L 574.091481 354.059885 
z
M 559.65 352.002443 
L 574.871777 352.002443 
Q 587.63262 352.002443 593.874989 352.346104 
Q 600.117358 352.687503 604.583052 353.508219 
Q 608.520547 354.222672 610.429271 355.156434 
Q 612.35 356.087936 612.35 357.265878 
Q 612.35 358.461908 610.429271 359.397931 
Q 608.520547 360.333954 604.583052 361.046146 
Q 600.081344 361.866862 593.778952 362.210522 
Q 587.47656 362.551922 574.871777 362.551922 
L 559.65 362.551922 
L 559.65 352.002443 
z
" clip-path="url(#p5e6c925ecf)" style="fill: #6b296b"/>
   </g>
   <g id="patch_59">
    <path d="M 559.65 338.618472 
L 568.762642 338.618472 
L 575.132798 347.89924 
L 581.455534 338.618472 
L 590.615597 338.618472 
L 596.938332 347.89924 
L 603.316392 338.618472 
L 612.35 338.618472 
L 603.656239 351.388765 
L 592.694196 351.388765 
L 586 341.681044 
L 579.384838 351.388765 
L 568.414892 351.388765 
L 559.65 338.618472 
z
" clip-path="url(#p5e6c925ecf)" style="fill: #21599c"/>
   </g>
   <g id="patch_60">
    <path d="M 587.405333 331.946461 
L 586.373292 331.946461 
Q 573.714313 331.946461 566.676667 327.908759 
Q 559.65 323.86472 559.65 316.657708 
Q 559.65 309.463374 566.665687 305.387641 
Q 573.681375 301.30557 586 301.30557 
Q 598.450375 301.30557 605.400187 305.349609 
Q 612.35 309.387311 612.35 316.657708 
Q 612.35 321.646202 608.661 325.252877 
Q 604.972 328.859552 598.044146 330.678736 
L 608.364562 337.334288 
L 595.771458 337.334288 
L 587.405333 331.946461 
z
M 586 306.832847 
Q 579.961458 306.832847 576.634771 309.406326 
Q 573.308083 311.979806 573.308083 316.657708 
Q 573.308083 321.411673 576.557917 323.940783 
Q 579.818729 326.463554 586 326.463554 
Q 592.071479 326.463554 595.398167 323.890074 
Q 598.724854 321.310256 598.724854 316.657708 
Q 598.724854 311.979806 595.398167 309.406326 
Q 592.071479 306.832847 586 306.832847 
z
" clip-path="url(#p5e6c925ecf)" style="fill: #40ba47"/>
   </g>
   <g id="matplotlib.axis_1">
    <g id="xtick_1">
     <g id="line2d_2">
      <defs>
       <path id="mecda575b0f" d="M 0 0 
L 0 4.8 
" style="stroke: #262626"/>
      </defs>
      <g>
       <use xlink:href="#mecda575b0f" x="152" y="384.48" style="fill: #262626; stroke: #262626"/>
      </g>
     </g>
     <g id="text_1">
      <!-- P4 -->
      <g style="fill: #262626" transform="translate(146.61825 399.078875) scale(0.088 -0.088)">
       <defs>
        <path id="ArialMT-50" d="M 494 0 
L 494 4581 
L 2222 4581 
Q 2678 4581 2919 4538 
Q 3256 4481 3484 4323 
Q 3713 4166 3852 3881 
Q 3991 3597 3991 3256 
Q 3991 2672 3619 2267 
Q 3247 1863 2275 1863 
L 1100 1863 
L 1100 0 
L 494 0 
z
M 1100 2403 
L 2284 2403 
Q 2872 2403 3119 2622 
Q 3366 2841 3366 3238 
Q 3366 3525 3220 3729 
Q 3075 3934 2838 4000 
Q 2684 4041 2272 4041 
L 1100 4041 
L 1100 2403 
z
" transform="scale(0.015625)"/>
        <path id="ArialMT-34" d="M 2069 0 
L 2069 1097 
L 81 1097 
L 81 1613 
L 2172 4581 
L 2631 4581 
L 2631 1613 
L 3250 1613 
L 3250 1097 
L 2631 1097 
L 2631 0 
L 2069 0 
z
M 2069 1613 
L 2069 3678 
L 634 1613 
L 2069 1613 
z
" transform="scale(0.015625)"/>
       </defs>
       <use xlink:href="#ArialMT-50"/>
       <use xlink:href="#ArialMT-34" x="66.699219"/>
      </g>
     </g>
    </g>
    <g id="xtick_2">
     <g id="line2d_3">
      <g>
       <use xlink:href="#mecda575b0f" x="214" y="384.48" style="fill: #262626; stroke: #262626"/>
      </g>
     </g>
     <g id="text_2">
      <!-- P3 -->
      <g style="fill: #262626" transform="translate(208.61825 399.078875) scale(0.088 -0.088)">
       <defs>
        <path id="ArialMT-33" d="M 269 1209 
L 831 1284 
Q 928 806 1161 595 
Q 1394 384 1728 384 
Q 2125 384 2398 659 
Q 2672 934 2672 1341 
Q 2672 1728 2419 1979 
Q 2166 2231 1775 2231 
Q 1616 2231 1378 2169 
L 1441 2663 
Q 1497 2656 1531 2656 
Q 1891 2656 2178 2843 
Q 2466 3031 2466 3422 
Q 2466 3731 2256 3934 
Q 2047 4138 1716 4138 
Q 1388 4138 1169 3931 
Q 950 3725 888 3313 
L 325 3413 
Q 428 3978 793 4289 
Q 1159 4600 1703 4600 
Q 2078 4600 2393 4439 
Q 2709 4278 2876 4000 
Q 3044 3722 3044 3409 
Q 3044 3113 2884 2869 
Q 2725 2625 2413 2481 
Q 2819 2388 3044 2092 
Q 3269 1797 3269 1353 
Q 3269 753 2831 336 
Q 2394 -81 1725 -81 
Q 1122 -81 723 278 
Q 325 638 269 1209 
z
" transform="scale(0.015625)"/>
       </defs>
       <use xlink:href="#ArialMT-50"/>
       <use xlink:href="#ArialMT-33" x="66.699219"/>
      </g>
     </g>
    </g>
    <g id="xtick_3">
     <g id="line2d_4">
      <g>
       <use xlink:href="#mecda575b0f" x="276" y="384.48" style="fill: #262626; stroke: #262626"/>
      </g>
     </g>
     <g id="text_3">
      <!-- P2 -->
      <g style="fill: #262626" transform="translate(270.61825 399.078875) scale(0.088 -0.088)">
       <defs>
        <path id="ArialMT-32" d="M 3222 541 
L 3222 0 
L 194 0 
Q 188 203 259 391 
Q 375 700 629 1000 
Q 884 1300 1366 1694 
Q 2113 2306 2375 2664 
Q 2638 3022 2638 3341 
Q 2638 3675 2398 3904 
Q 2159 4134 1775 4134 
Q 1369 4134 1125 3890 
Q 881 3647 878 3216 
L 300 3275 
Q 359 3922 746 4261 
Q 1134 4600 1788 4600 
Q 2447 4600 2831 4234 
Q 3216 3869 3216 3328 
Q 3216 3053 3103 2787 
Q 2991 2522 2730 2228 
Q 2469 1934 1863 1422 
Q 1356 997 1212 845 
Q 1069 694 975 541 
L 3222 541 
z
" transform="scale(0.015625)"/>
       </defs>
       <use xlink:href="#ArialMT-50"/>
       <use xlink:href="#ArialMT-32" x="66.699219"/>
      </g>
     </g>
    </g>
    <g id="xtick_4">
     <g id="line2d_5">
      <g>
       <use xlink:href="#mecda575b0f" x="338" y="384.48" style="fill: #262626; stroke: #262626"/>
      </g>
     </g>
     <g id="text_4">
      <!-- P1 -->
      <g style="fill: #262626" transform="translate(332.61825 399.078875) scale(0.088 -0.088)">
       <defs>
        <path id="ArialMT-31" d="M 2384 0 
L 1822 0 
L 1822 3584 
Q 1619 3391 1289 3197 
Q 959 3003 697 2906 
L 697 3450 
Q 1169 3672 1522 3987 
Q 1875 4303 2022 4600 
L 2384 4600 
L 2384 0 
z
" transform="scale(0.015625)"/>
       </defs>
       <use xlink:href="#ArialMT-50"/>
       <use xlink:href="#ArialMT-31" x="66.699219"/>
      </g>
     </g>
    </g>
    <g id="xtick_5">
     <g id="line2d_6">
      <g>
       <use xlink:href="#mecda575b0f" x="400" y="384.48" style="fill: #262626; stroke: #262626"/>
      </g>
     </g>
     <g id="text_5">
      <!-- P1' -->
      <g style="fill: #262626" transform="translate(393.778125 399.078875) scale(0.088 -0.088)">
       <defs>
        <path id="ArialMT-27" d="M 425 2959 
L 281 3816 
L 281 4581 
L 922 4581 
L 922 3816 
L 772 2959 
L 425 2959 
z
" transform="scale(0.015625)"/>
       </defs>
       <use xlink:href="#ArialMT-50"/>
       <use xlink:href="#ArialMT-31" x="66.699219"/>
       <use xlink:href="#ArialMT-27" x="122.314453"/>
      </g>
     </g>
    </g>
    <g id="xtick_6">
     <g id="line2d_7">
      <g>
       <use xlink:href="#mecda575b0f" x="462" y="384.48" style="fill: #262626; stroke: #262626"/>
      </g>
     </g>
     <g id="text_6">
      <!-- P2' -->
      <g style="fill: #262626" transform="translate(455.778125 399.078875) scale(0.088 -0.088)">
       <use xlink:href="#ArialMT-50"/>
       <use xlink:href="#ArialMT-32" x="66.699219"/>
       <use xlink:href="#ArialMT-27" x="122.314453"/>
      </g>
     </g>
    </g>
    <g id="xtick_7">
     <g id="line2d_8">
      <g>
       <use xlink:href="#mecda575b0f" x="524" y="384.48" style="fill: #262626; stroke: #262626"/>
      </g>
     </g>
     <g id="text_7">
      <!-- P3' -->
      <g style="fill: #262626" transform="translate(517.778125 399.078875) scale(0.088 -0.088)">
       <use xlink:href="#ArialMT-50"/>
       <use xlink:href="#ArialMT-33" x="66.699219"/>
       <use xlink:href="#ArialMT-27" x="122.314453"/>
      </g>
     </g>
    </g>
    <g id="xtick_8">
     <g id="line2d_9">
      <g>
       <use xlink:href="#mecda575b0f" x="586" y="384.48" style="fill: #262626; stroke: #262626"/>
      </g>
     </g>
     <g id="text_8">
      <!-- P4' -->
      <g style="fill: #262626" transform="translate(579.778125 399.078875) scale(0.088 -0.088)">
       <use xlink:href="#ArialMT-50"/>
       <use xlink:href="#ArialMT-34" x="66.699219"/>
       <use xlink:href="#ArialMT-27" x="122.314453"/>
      </g>
     </g>
    </g>
   </g>
   <g id="matplotlib.axis_2">
    <g id="ytick_1">
     <g id="line2d_10">
      <defs>
       <path id="m1aee6fac35" d="M 0 0 
L -4.8 0 
" style="stroke: #262626"/>
      </defs>
      <g>
       <use xlink:href="#m1aee6fac35" x="90" y="384.48" style="fill: #262626; stroke: #262626"/>
      </g>
     </g>
     <g id="text_9">
      <!-- 0.0 -->
      <g style="fill: #262626" transform="translate(69.468 387.629437) scale(0.088 -0.088)">
       <defs>
        <path id="ArialMT-30" d="M 266 2259 
Q 266 3072 433 3567 
Q 600 4063 929 4331 
Q 1259 4600 1759 4600 
Q 2128 4600 2406 4451 
Q 2684 4303 2865 4023 
Q 3047 3744 3150 3342 
Q 3253 2941 3253 2259 
Q 3253 1453 3087 958 
Q 2922 463 2592 192 
Q 2263 -78 1759 -78 
Q 1097 -78 719 397 
Q 266 969 266 2259 
z
M 844 2259 
Q 844 1131 1108 757 
Q 1372 384 1759 384 
Q 2147 384 2411 759 
Q 2675 1134 2675 2259 
Q 2675 3391 2411 3762 
Q 2147 4134 1753 4134 
Q 1366 4134 1134 3806 
Q 844 3388 844 2259 
z
" transform="scale(0.015625)"/>
        <path id="ArialMT-2e" d="M 581 0 
L 581 641 
L 1222 641 
L 1222 0 
L 581 0 
z
" transform="scale(0.015625)"/>
       </defs>
       <use xlink:href="#ArialMT-30"/>
       <use xlink:href="#ArialMT-2e" x="55.615234"/>
       <use xlink:href="#ArialMT-30" x="83.398438"/>
      </g>
     </g>
    </g>
    <g id="ytick_2">
     <g id="line2d_11">
      <g>
       <use xlink:href="#m1aee6fac35" x="90" y="331.969639" style="fill: #262626; stroke: #262626"/>
      </g>
     </g>
     <g id="text_10">
      <!-- 0.2 -->
      <g style="fill: #262626" transform="translate(69.468 335.119077) scale(0.088 -0.088)">
       <use xlink:href="#ArialMT-30"/>
       <use xlink:href="#ArialMT-2e" x="55.615234"/>
       <use xlink:href="#ArialMT-32" x="83.398438"/>
      </g>
     </g>
    </g>
    <g id="ytick_3">
     <g id="line2d_12">
      <g>
       <use xlink:href="#m1aee6fac35" x="90" y="279.459278" style="fill: #262626; stroke: #262626"/>
      </g>
     </g>
     <g id="text_11">
      <!-- 0.4 -->
      <g style="fill: #262626" transform="translate(69.468 282.608716) scale(0.088 -0.088)">
       <use xlink:href="#ArialMT-30"/>
       <use xlink:href="#ArialMT-2e" x="55.615234"/>
       <use xlink:href="#ArialMT-34" x="83.398438"/>
      </g>
     </g>
    </g>
    <g id="ytick_4">
     <g id="line2d_13">
      <g>
       <use xlink:href="#m1aee6fac35" x="90" y="226.948917" style="fill: #262626; stroke: #262626"/>
      </g>
     </g>
     <g id="text_12">
      <!-- 0.6 -->
      <g style="fill: #262626" transform="translate(69.468 230.098355) scale(0.088 -0.088)">
       <defs>
        <path id="ArialMT-36" d="M 3184 3459 
L 2625 3416 
Q 2550 3747 2413 3897 
Q 2184 4138 1850 4138 
Q 1581 4138 1378 3988 
Q 1113 3794 959 3422 
Q 806 3050 800 2363 
Q 1003 2672 1297 2822 
Q 1591 2972 1913 2972 
Q 2475 2972 2870 2558 
Q 3266 2144 3266 1488 
Q 3266 1056 3080 686 
Q 2894 316 2569 119 
Q 2244 -78 1831 -78 
Q 1128 -78 684 439 
Q 241 956 241 2144 
Q 241 3472 731 4075 
Q 1159 4600 1884 4600 
Q 2425 4600 2770 4297 
Q 3116 3994 3184 3459 
z
M 888 1484 
Q 888 1194 1011 928 
Q 1134 663 1356 523 
Q 1578 384 1822 384 
Q 2178 384 2434 671 
Q 2691 959 2691 1453 
Q 2691 1928 2437 2201 
Q 2184 2475 1800 2475 
Q 1419 2475 1153 2201 
Q 888 1928 888 1484 
z
" transform="scale(0.015625)"/>
       </defs>
       <use xlink:href="#ArialMT-30"/>
       <use xlink:href="#ArialMT-2e" x="55.615234"/>
       <use xlink:href="#ArialMT-36" x="83.398438"/>
      </g>
     </g>
    </g>
    <g id="ytick_5">
     <g id="line2d_14">
      <g>
       <use xlink:href="#m1aee6fac35" x="90" y="174.438556" style="fill: #262626; stroke: #262626"/>
      </g>
     </g>
     <g id="text_13">
      <!-- 0.8 -->
      <g style="fill: #262626" transform="translate(69.468 177.587994) scale(0.088 -0.088)">
       <defs>
        <path id="ArialMT-38" d="M 1131 2484 
Q 781 2613 612 2850 
Q 444 3088 444 3419 
Q 444 3919 803 4259 
Q 1163 4600 1759 4600 
Q 2359 4600 2725 4251 
Q 3091 3903 3091 3403 
Q 3091 3084 2923 2848 
Q 2756 2613 2416 2484 
Q 2838 2347 3058 2040 
Q 3278 1734 3278 1309 
Q 3278 722 2862 322 
Q 2447 -78 1769 -78 
Q 1091 -78 675 323 
Q 259 725 259 1325 
Q 259 1772 486 2073 
Q 713 2375 1131 2484 
z
M 1019 3438 
Q 1019 3113 1228 2906 
Q 1438 2700 1772 2700 
Q 2097 2700 2305 2904 
Q 2513 3109 2513 3406 
Q 2513 3716 2298 3927 
Q 2084 4138 1766 4138 
Q 1444 4138 1231 3931 
Q 1019 3725 1019 3438 
z
M 838 1322 
Q 838 1081 952 856 
Q 1066 631 1291 507 
Q 1516 384 1775 384 
Q 2178 384 2440 643 
Q 2703 903 2703 1303 
Q 2703 1709 2433 1975 
Q 2163 2241 1756 2241 
Q 1359 2241 1098 1978 
Q 838 1716 838 1322 
z
" transform="scale(0.015625)"/>
       </defs>
       <use xlink:href="#ArialMT-30"/>
       <use xlink:href="#ArialMT-2e" x="55.615234"/>
       <use xlink:href="#ArialMT-38" x="83.398438"/>
      </g>
     </g>
    </g>
    <g id="ytick_6">
     <g id="line2d_15">
      <g>
       <use xlink:href="#m1aee6fac35" x="90" y="121.928195" style="fill: #262626; stroke: #262626"/>
      </g>
     </g>
     <g id="text_14">
      <!-- 1.0 -->
      <g style="fill: #262626" transform="translate(69.468 125.077633) scale(0.088 -0.088)">
       <use xlink:href="#ArialMT-31"/>
       <use xlink:href="#ArialMT-2e" x="55.615234"/>
       <use xlink:href="#ArialMT-30" x="83.398438"/>
      </g>
     </g>
    </g>
    <g id="ytick_7">
     <g id="line2d_16">
      <g>
       <use xlink:href="#m1aee6fac35" x="90" y="69.417834" style="fill: #262626; stroke: #262626"/>
      </g>
     </g>
     <g id="text_15">
      <!-- 1.2 -->
      <g style="fill: #262626" transform="translate(69.468 72.567272) scale(0.088 -0.088)">
       <use xlink:href="#ArialMT-31"/>
       <use xlink:href="#ArialMT-2e" x="55.615234"/>
       <use xlink:href="#ArialMT-32" x="83.398438"/>
      </g>
     </g>
    </g>
    <g id="text_16">
     <!-- information (bits) -->
     <g style="fill: #262626" transform="translate(63.4475 253.902) rotate(-90) scale(0.096 -0.096)">
      <defs>
       <path id="ArialMT-69" d="M 425 3934 
L 425 4581 
L 988 4581 
L 988 3934 
L 425 3934 
z
M 425 0 
L 425 3319 
L 988 3319 
L 988 0 
L 425 0 
z
" transform="scale(0.015625)"/>
       <path id="ArialMT-6e" d="M 422 0 
L 422 3319 
L 928 3319 
L 928 2847 
Q 1294 3394 1984 3394 
Q 2284 3394 2536 3286 
Q 2788 3178 2913 3003 
Q 3038 2828 3088 2588 
Q 3119 2431 3119 2041 
L 3119 0 
L 2556 0 
L 2556 2019 
Q 2556 2363 2490 2533 
Q 2425 2703 2258 2804 
Q 2091 2906 1866 2906 
Q 1506 2906 1245 2678 
Q 984 2450 984 1813 
L 984 0 
L 422 0 
z
" transform="scale(0.015625)"/>
       <path id="ArialMT-66" d="M 556 0 
L 556 2881 
L 59 2881 
L 59 3319 
L 556 3319 
L 556 3672 
Q 556 4006 616 4169 
Q 697 4388 901 4523 
Q 1106 4659 1475 4659 
Q 1713 4659 2000 4603 
L 1916 4113 
Q 1741 4144 1584 4144 
Q 1328 4144 1222 4034 
Q 1116 3925 1116 3625 
L 1116 3319 
L 1763 3319 
L 1763 2881 
L 1116 2881 
L 1116 0 
L 556 0 
z
" transform="scale(0.015625)"/>
       <path id="ArialMT-6f" d="M 213 1659 
Q 213 2581 725 3025 
Q 1153 3394 1769 3394 
Q 2453 3394 2887 2945 
Q 3322 2497 3322 1706 
Q 3322 1066 3130 698 
Q 2938 331 2570 128 
Q 2203 -75 1769 -75 
Q 1072 -75 642 372 
Q 213 819 213 1659 
z
M 791 1659 
Q 791 1022 1069 705 
Q 1347 388 1769 388 
Q 2188 388 2466 706 
Q 2744 1025 2744 1678 
Q 2744 2294 2464 2611 
Q 2184 2928 1769 2928 
Q 1347 2928 1069 2612 
Q 791 2297 791 1659 
z
" transform="scale(0.015625)"/>
       <path id="ArialMT-72" d="M 416 0 
L 416 3319 
L 922 3319 
L 922 2816 
Q 1116 3169 1280 3281 
Q 1444 3394 1641 3394 
Q 1925 3394 2219 3213 
L 2025 2691 
Q 1819 2813 1613 2813 
Q 1428 2813 1281 2702 
Q 1134 2591 1072 2394 
Q 978 2094 978 1738 
L 978 0 
L 416 0 
z
" transform="scale(0.015625)"/>
       <path id="ArialMT-6d" d="M 422 0 
L 422 3319 
L 925 3319 
L 925 2853 
Q 1081 3097 1340 3245 
Q 1600 3394 1931 3394 
Q 2300 3394 2536 3241 
Q 2772 3088 2869 2813 
Q 3263 3394 3894 3394 
Q 4388 3394 4653 3120 
Q 4919 2847 4919 2278 
L 4919 0 
L 4359 0 
L 4359 2091 
Q 4359 2428 4304 2576 
Q 4250 2725 4106 2815 
Q 3963 2906 3769 2906 
Q 3419 2906 3187 2673 
Q 2956 2441 2956 1928 
L 2956 0 
L 2394 0 
L 2394 2156 
Q 2394 2531 2256 2718 
Q 2119 2906 1806 2906 
Q 1569 2906 1367 2781 
Q 1166 2656 1075 2415 
Q 984 2175 984 1722 
L 984 0 
L 422 0 
z
" transform="scale(0.015625)"/>
       <path id="ArialMT-61" d="M 2588 409 
Q 2275 144 1986 34 
Q 1697 -75 1366 -75 
Q 819 -75 525 192 
Q 231 459 231 875 
Q 231 1119 342 1320 
Q 453 1522 633 1644 
Q 813 1766 1038 1828 
Q 1203 1872 1538 1913 
Q 2219 1994 2541 2106 
Q 2544 2222 2544 2253 
Q 2544 2597 2384 2738 
Q 2169 2928 1744 2928 
Q 1347 2928 1158 2789 
Q 969 2650 878 2297 
L 328 2372 
Q 403 2725 575 2942 
Q 747 3159 1072 3276 
Q 1397 3394 1825 3394 
Q 2250 3394 2515 3294 
Q 2781 3194 2906 3042 
Q 3031 2891 3081 2659 
Q 3109 2516 3109 2141 
L 3109 1391 
Q 3109 606 3145 398 
Q 3181 191 3288 0 
L 2700 0 
Q 2613 175 2588 409 
z
M 2541 1666 
Q 2234 1541 1622 1453 
Q 1275 1403 1131 1340 
Q 988 1278 909 1158 
Q 831 1038 831 891 
Q 831 666 1001 516 
Q 1172 366 1500 366 
Q 1825 366 2078 508 
Q 2331 650 2450 897 
Q 2541 1088 2541 1459 
L 2541 1666 
z
" transform="scale(0.015625)"/>
       <path id="ArialMT-74" d="M 1650 503 
L 1731 6 
Q 1494 -44 1306 -44 
Q 1000 -44 831 53 
Q 663 150 594 308 
Q 525 466 525 972 
L 525 2881 
L 113 2881 
L 113 3319 
L 525 3319 
L 525 4141 
L 1084 4478 
L 1084 3319 
L 1650 3319 
L 1650 2881 
L 1084 2881 
L 1084 941 
Q 1084 700 1114 631 
Q 1144 563 1211 522 
Q 1278 481 1403 481 
Q 1497 481 1650 503 
z
" transform="scale(0.015625)"/>
       <path id="ArialMT-20" transform="scale(0.015625)"/>
       <path id="ArialMT-28" d="M 1497 -1347 
Q 1031 -759 709 28 
Q 388 816 388 1659 
Q 388 2403 628 3084 
Q 909 3875 1497 4659 
L 1900 4659 
Q 1522 4009 1400 3731 
Q 1209 3300 1100 2831 
Q 966 2247 966 1656 
Q 966 153 1900 -1347 
L 1497 -1347 
z
" transform="scale(0.015625)"/>
       <path id="ArialMT-62" d="M 941 0 
L 419 0 
L 419 4581 
L 981 4581 
L 981 2947 
Q 1338 3394 1891 3394 
Q 2197 3394 2470 3270 
Q 2744 3147 2920 2923 
Q 3097 2700 3197 2384 
Q 3297 2069 3297 1709 
Q 3297 856 2875 390 
Q 2453 -75 1863 -75 
Q 1275 -75 941 416 
L 941 0 
z
M 934 1684 
Q 934 1088 1097 822 
Q 1363 388 1816 388 
Q 2184 388 2453 708 
Q 2722 1028 2722 1663 
Q 2722 2313 2464 2622 
Q 2206 2931 1841 2931 
Q 1472 2931 1203 2611 
Q 934 2291 934 1684 
z
" transform="scale(0.015625)"/>
       <path id="ArialMT-73" d="M 197 991 
L 753 1078 
Q 800 744 1014 566 
Q 1228 388 1613 388 
Q 2000 388 2187 545 
Q 2375 703 2375 916 
Q 2375 1106 2209 1216 
Q 2094 1291 1634 1406 
Q 1016 1563 777 1677 
Q 538 1791 414 1992 
Q 291 2194 291 2438 
Q 291 2659 392 2848 
Q 494 3038 669 3163 
Q 800 3259 1026 3326 
Q 1253 3394 1513 3394 
Q 1903 3394 2198 3281 
Q 2494 3169 2634 2976 
Q 2775 2784 2828 2463 
L 2278 2388 
Q 2241 2644 2061 2787 
Q 1881 2931 1553 2931 
Q 1166 2931 1000 2803 
Q 834 2675 834 2503 
Q 834 2394 903 2306 
Q 972 2216 1119 2156 
Q 1203 2125 1616 2013 
Q 2213 1853 2448 1751 
Q 2684 1650 2818 1456 
Q 2953 1263 2953 975 
Q 2953 694 2789 445 
Q 2625 197 2315 61 
Q 2006 -75 1616 -75 
Q 969 -75 630 194 
Q 291 463 197 991 
z
" transform="scale(0.015625)"/>
       <path id="ArialMT-29" d="M 791 -1347 
L 388 -1347 
Q 1322 153 1322 1656 
Q 1322 2244 1188 2822 
Q 1081 3291 891 3722 
Q 769 4003 388 4659 
L 791 4659 
Q 1378 3875 1659 3084 
Q 1900 2403 1900 1659 
Q 1900 816 1576 28 
Q 1253 -759 791 -1347 
z
" transform="scale(0.015625)"/>
      </defs>
      <use xlink:href="#ArialMT-69"/>
      <use xlink:href="#ArialMT-6e" x="22.216797"/>
      <use xlink:href="#ArialMT-66" x="77.832031"/>
      <use xlink:href="#ArialMT-6f" x="105.615234"/>
      <use xlink:href="#ArialMT-72" x="161.230469"/>
      <use xlink:href="#ArialMT-6d" x="194.53125"/>
      <use xlink:href="#ArialMT-61" x="277.832031"/>
      <use xlink:href="#ArialMT-74" x="333.447266"/>
      <use xlink:href="#ArialMT-69" x="361.230469"/>
      <use xlink:href="#ArialMT-6f" x="383.447266"/>
      <use xlink:href="#ArialMT-6e" x="439.0625"/>
      <use xlink:href="#ArialMT-20" x="494.677734"/>
      <use xlink:href="#ArialMT-28" x="522.460938"/>
      <use xlink:href="#ArialMT-62" x="555.761719"/>
      <use xlink:href="#ArialMT-69" x="611.376953"/>
      <use xlink:href="#ArialMT-74" x="633.59375"/>
      <use xlink:href="#ArialMT-73" x="661.376953"/>
      <use xlink:href="#ArialMT-29" x="711.376953"/>
     </g>
    </g>
   </g>
   <g id="line2d_17">
    <path d="M 369 384.48 
L 369 51.84 
" clip-path="url(#p5e6c925ecf)" style="fill: none; stroke: #daa520; stroke-width: 2; stroke-linecap: round"/>
   </g>
   <g id="patch_61">
    <path d="M 90 384.48 
L 648 384.48 
" style="fill: none; stroke: #262626; stroke-linejoin: miter; stroke-linecap: square"/>
   </g>
   <g id="patch_62">
    <path d="M 90 51.84 
L 648 51.84 
" style="fill: none; stroke: #262626; stroke-linejoin: miter; stroke-linecap: square"/>
   </g>
   <g id="text_17">
    <!-- Ctrl vs. MMP9 information content, Kullback n=20 -->
    <g style="fill: #262626" transform="translate(263.75925 45.84) scale(0.096 -0.096)">
     <defs>
      <path id="ArialMT-43" d="M 3763 1606 
L 4369 1453 
Q 4178 706 3683 314 
Q 3188 -78 2472 -78 
Q 1731 -78 1267 223 
Q 803 525 561 1097 
Q 319 1669 319 2325 
Q 319 3041 592 3573 
Q 866 4106 1370 4382 
Q 1875 4659 2481 4659 
Q 3169 4659 3637 4309 
Q 4106 3959 4291 3325 
L 3694 3184 
Q 3534 3684 3231 3912 
Q 2928 4141 2469 4141 
Q 1941 4141 1586 3887 
Q 1231 3634 1087 3207 
Q 944 2781 944 2328 
Q 944 1744 1114 1308 
Q 1284 872 1643 656 
Q 2003 441 2422 441 
Q 2931 441 3284 734 
Q 3638 1028 3763 1606 
z
" transform="scale(0.015625)"/>
      <path id="ArialMT-6c" d="M 409 0 
L 409 4581 
L 972 4581 
L 972 0 
L 409 0 
z
" transform="scale(0.015625)"/>
      <path id="ArialMT-76" d="M 1344 0 
L 81 3319 
L 675 3319 
L 1388 1331 
Q 1503 1009 1600 663 
Q 1675 925 1809 1294 
L 2547 3319 
L 3125 3319 
L 1869 0 
L 1344 0 
z
" transform="scale(0.015625)"/>
      <path id="ArialMT-4d" d="M 475 0 
L 475 4581 
L 1388 4581 
L 2472 1338 
Q 2622 884 2691 659 
Q 2769 909 2934 1394 
L 4031 4581 
L 4847 4581 
L 4847 0 
L 4263 0 
L 4263 3834 
L 2931 0 
L 2384 0 
L 1059 3900 
L 1059 0 
L 475 0 
z
" transform="scale(0.015625)"/>
      <path id="ArialMT-39" d="M 350 1059 
L 891 1109 
Q 959 728 1153 556 
Q 1347 384 1650 384 
Q 1909 384 2104 503 
Q 2300 622 2425 820 
Q 2550 1019 2634 1356 
Q 2719 1694 2719 2044 
Q 2719 2081 2716 2156 
Q 2547 1888 2255 1720 
Q 1963 1553 1622 1553 
Q 1053 1553 659 1965 
Q 266 2378 266 3053 
Q 266 3750 677 4175 
Q 1088 4600 1706 4600 
Q 2153 4600 2523 4359 
Q 2894 4119 3086 3673 
Q 3278 3228 3278 2384 
Q 3278 1506 3087 986 
Q 2897 466 2520 194 
Q 2144 -78 1638 -78 
Q 1100 -78 759 220 
Q 419 519 350 1059 
z
M 2653 3081 
Q 2653 3566 2395 3850 
Q 2138 4134 1775 4134 
Q 1400 4134 1122 3828 
Q 844 3522 844 3034 
Q 844 2597 1108 2323 
Q 1372 2050 1759 2050 
Q 2150 2050 2401 2323 
Q 2653 2597 2653 3081 
z
" transform="scale(0.015625)"/>
      <path id="ArialMT-63" d="M 2588 1216 
L 3141 1144 
Q 3050 572 2676 248 
Q 2303 -75 1759 -75 
Q 1078 -75 664 370 
Q 250 816 250 1647 
Q 250 2184 428 2587 
Q 606 2991 970 3192 
Q 1334 3394 1763 3394 
Q 2303 3394 2647 3120 
Q 2991 2847 3088 2344 
L 2541 2259 
Q 2463 2594 2264 2762 
Q 2066 2931 1784 2931 
Q 1359 2931 1093 2626 
Q 828 2322 828 1663 
Q 828 994 1084 691 
Q 1341 388 1753 388 
Q 2084 388 2306 591 
Q 2528 794 2588 1216 
z
" transform="scale(0.015625)"/>
      <path id="ArialMT-65" d="M 2694 1069 
L 3275 997 
Q 3138 488 2766 206 
Q 2394 -75 1816 -75 
Q 1088 -75 661 373 
Q 234 822 234 1631 
Q 234 2469 665 2931 
Q 1097 3394 1784 3394 
Q 2450 3394 2872 2941 
Q 3294 2488 3294 1666 
Q 3294 1616 3291 1516 
L 816 1516 
Q 847 969 1125 678 
Q 1403 388 1819 388 
Q 2128 388 2347 550 
Q 2566 713 2694 1069 
z
M 847 1978 
L 2700 1978 
Q 2663 2397 2488 2606 
Q 2219 2931 1791 2931 
Q 1403 2931 1139 2672 
Q 875 2413 847 1978 
z
" transform="scale(0.015625)"/>
      <path id="ArialMT-2c" d="M 569 0 
L 569 641 
L 1209 641 
L 1209 0 
Q 1209 -353 1084 -570 
Q 959 -788 688 -906 
L 531 -666 
Q 709 -588 793 -436 
Q 878 -284 888 0 
L 569 0 
z
" transform="scale(0.015625)"/>
      <path id="ArialMT-4b" d="M 469 0 
L 469 4581 
L 1075 4581 
L 1075 2309 
L 3350 4581 
L 4172 4581 
L 2250 2725 
L 4256 0 
L 3456 0 
L 1825 2319 
L 1075 1588 
L 1075 0 
L 469 0 
z
" transform="scale(0.015625)"/>
      <path id="ArialMT-75" d="M 2597 0 
L 2597 488 
Q 2209 -75 1544 -75 
Q 1250 -75 995 37 
Q 741 150 617 320 
Q 494 491 444 738 
Q 409 903 409 1263 
L 409 3319 
L 972 3319 
L 972 1478 
Q 972 1038 1006 884 
Q 1059 663 1231 536 
Q 1403 409 1656 409 
Q 1909 409 2131 539 
Q 2353 669 2445 892 
Q 2538 1116 2538 1541 
L 2538 3319 
L 3100 3319 
L 3100 0 
L 2597 0 
z
" transform="scale(0.015625)"/>
      <path id="ArialMT-6b" d="M 425 0 
L 425 4581 
L 988 4581 
L 988 1969 
L 2319 3319 
L 3047 3319 
L 1778 2088 
L 3175 0 
L 2481 0 
L 1384 1697 
L 988 1316 
L 988 0 
L 425 0 
z
" transform="scale(0.015625)"/>
      <path id="ArialMT-3d" d="M 3381 2694 
L 356 2694 
L 356 3219 
L 3381 3219 
L 3381 2694 
z
M 3381 1303 
L 356 1303 
L 356 1828 
L 3381 1828 
L 3381 1303 
z
" transform="scale(0.015625)"/>
     </defs>
     <use xlink:href="#ArialMT-43"/>
     <use xlink:href="#ArialMT-74" x="72.216797"/>
     <use xlink:href="#ArialMT-72" x="100"/>
     <use xlink:href="#ArialMT-6c" x="133.300781"/>
     <use xlink:href="#ArialMT-20" x="155.517578"/>
     <use xlink:href="#ArialMT-76" x="183.300781"/>
     <use xlink:href="#ArialMT-73" x="233.300781"/>
     <use xlink:href="#ArialMT-2e" x="283.300781"/>
     <use xlink:href="#ArialMT-20" x="311.083984"/>
     <use xlink:href="#ArialMT-4d" x="338.867188"/>
     <use xlink:href="#ArialMT-4d" x="422.167969"/>
     <use xlink:href="#ArialMT-50" x="505.46875"/>
     <use xlink:href="#ArialMT-39" x="572.167969"/>
     <use xlink:href="#ArialMT-20" x="627.783203"/>
     <use xlink:href="#ArialMT-69" x="655.566406"/>
     <use xlink:href="#ArialMT-6e" x="677.783203"/>
     <use xlink:href="#ArialMT-66" x="733.398438"/>
     <use xlink:href="#ArialMT-6f" x="761.181641"/>
     <use xlink:href="#ArialMT-72" x="816.796875"/>
     <use xlink:href="#ArialMT-6d" x="850.097656"/>
     <use xlink:href="#ArialMT-61" x="933.398438"/>
     <use xlink:href="#ArialMT-74" x="989.013672"/>
     <use xlink:href="#ArialMT-69" x="1016.796875"/>
     <use xlink:href="#ArialMT-6f" x="1039.013672"/>
     <use xlink:href="#ArialMT-6e" x="1094.628906"/>
     <use xlink:href="#ArialMT-20" x="1150.244141"/>
     <use xlink:href="#ArialMT-63" x="1178.027344"/>
     <use xlink:href="#ArialMT-6f" x="1228.027344"/>
     <use xlink:href="#ArialMT-6e" x="1283.642578"/>
     <use xlink:href="#ArialMT-74" x="1339.257812"/>
     <use xlink:href="#ArialMT-65" x="1367.041016"/>
     <use xlink:href="#ArialMT-6e" x="1422.65625"/>
     <use xlink:href="#ArialMT-74" x="1478.271484"/>
     <use xlink:href="#ArialMT-2c" x="1506.054688"/>
     <use xlink:href="#ArialMT-20" x="1533.837891"/>
     <use xlink:href="#ArialMT-4b" x="1561.621094"/>
     <use xlink:href="#ArialMT-75" x="1628.320312"/>
     <use xlink:href="#ArialMT-6c" x="1683.935547"/>
     <use xlink:href="#ArialMT-6c" x="1706.152344"/>
     <use xlink:href="#ArialMT-62" x="1728.369141"/>
     <use xlink:href="#ArialMT-61" x="1783.984375"/>
     <use xlink:href="#ArialMT-63" x="1839.599609"/>
     <use xlink:href="#ArialMT-6b" x="1889.599609"/>
     <use xlink:href="#ArialMT-20" x="1939.599609"/>
     <use xlink:href="#ArialMT-6e" x="1967.382812"/>
     <use xlink:href="#ArialMT-3d" x="2022.998047"/>
     <use xlink:href="#ArialMT-32" x="2081.396484"/>
     <use xlink:href="#ArialMT-30" x="2137.011719"/>
    </g>
   </g>
  </g>
 </g>
 <defs>
  <clipPath id="p5e6c925ecf">
   <rect x="90" y="51.84" width="558" height="332.64"/>
  </clipPath>
 </defs>
</svg>
