<?xml version="1.0" encoding="utf-8" standalone="no"?>
<!DOCTYPE svg PUBLIC "-//W3C//DTD SVG 1.1//EN"
  "http://www.w3.org/Graphics/SVG/1.1/DTD/svg11.dtd">
<svg xmlns:xlink="http://www.w3.org/1999/xlink" width="720pt" height="432pt" viewBox="0 0 720 432" xmlns="http://www.w3.org/2000/svg" version="1.1">
 <metadata>
  <rdf:RDF xmlns:dc="http://purl.org/dc/elements/1.1/" xmlns:cc="http://creativecommons.org/ns#" xmlns:rdf="http://www.w3.org/1999/02/22-rdf-syntax-ns#">
   <cc:Work>
    <dc:type rdf:resource="http://purl.org/dc/dcmitype/StillImage"/>
    <dc:date>2023-11-26T14:33:21.589433</dc:date>
    <dc:format>image/svg+xml</dc:format>
    <dc:creator>
     <cc:Agent>
      <dc:title>Matplotlib v3.7.1, https://matplotlib.org/</dc:title>
     </cc:Agent>
    </dc:creator>
   </cc:Work>
  </rdf:RDF>
 </metadata>
 <defs>
  <style type="text/css">*{stroke-linejoin: round; stroke-linecap: butt}</style>
 </defs>
 <g id="figure_1">
  <g id="patch_1">
   <path d="M 0 432 
L 720 432 
L 720 0 
L 0 0 
z
" style="fill: #ffffff"/>
  </g>
  <g id="axes_1">
   <g id="patch_2">
    <path d="M 90 384.48 
L 648 384.48 
L 648 51.84 
L 90 51.84 
z
" style="fill: #ffffff"/>
   </g>
   <g id="patch_3">
    <path d="M 183 384.48 
L 245 384.48 
L 245 51.84 
L 183 51.84 
z
" clip-path="url(#p800b2d706a)" style="fill: #ffd700; opacity: 0.35; stroke: #ffffff; stroke-width: 0.8; stroke-linejoin: miter"/>
   </g>
   <g id="line2d_1">
    <path d="M 90 384.48 
L 648 384.48 
" clip-path="url(#p800b2d706a)" style="fill: none; stroke: #000000; stroke-width: 0.5; stroke-linecap: round"/>
   </g>
   <g id="patch_4">
    <path d="M 173.955948 384.126553 
L 173.955948 384.200266 
Q 168.459804 384.187433 163.221293 384.180942 
Q 157.997094 384.174377 153.34541 384.174377 
Q 147.176562 384.174377 144.213797 384.183255 
Q 141.265345 384.192059 141.265345 384.210711 
Q 141.265345 384.224737 143.254834 384.232571 
Q 145.244324 384.24033 150.482835 384.245926 
L 157.811027 384.25361 
Q 168.946442 384.265324 173.641065 384.289124 
Q 178.35 384.312849 178.35 384.356718 
Q 178.35 384.414241 171.794704 384.442368 
Q 165.239408 384.470495 151.770994 384.470495 
Q 145.430391 384.470495 139.032537 384.464154 
Q 132.634682 384.457887 126.236828 384.445502 
L 126.236828 384.369775 
Q 132.634682 384.387457 138.60315 384.396484 
Q 144.571619 384.405437 150.125014 384.405437 
Q 155.764286 384.405437 158.755676 384.395664 
Q 161.747067 384.385815 161.747067 384.367611 
Q 161.747067 384.351347 159.714639 384.342468 
Q 157.682211 384.33359 151.59924 384.326577 
L 144.929441 384.318892 
Q 134.910429 384.307701 130.273058 384.28323 
Q 125.65 384.258758 125.65 384.217276 
Q 125.65 384.165275 132.090793 384.137297 
Q 138.531586 384.109319 150.611651 384.109319 
Q 156.122108 384.109319 161.933134 384.113646 
Q 167.744161 384.117973 173.955948 384.126553 
z
" clip-path="url(#p800b2d706a)" style="fill: #40ba47"/>
   </g>
   <g id="patch_5">
    <path d="M 140.091481 383.792496 
L 140.091481 384.018065 
L 145.265444 384.018065 
Q 154.112802 384.018065 158.782574 383.989067 
Q 163.464351 383.960068 163.464351 383.904845 
Q 163.464351 383.849938 158.806583 383.821257 
Q 154.16082 383.792496 145.265444 383.792496 
L 140.091481 383.792496 
z
M 125.65 383.720396 
L 140.871777 383.720396 
Q 153.63262 383.720396 159.874989 383.732439 
Q 166.117358 383.744403 170.583052 383.773164 
Q 174.520547 383.798201 176.429271 383.830923 
Q 178.35 383.863566 178.35 383.904845 
Q 178.35 383.946758 176.429271 383.979559 
Q 174.520547 384.01236 170.583052 384.037318 
Q 166.081344 384.066079 159.778952 384.078122 
Q 153.47656 384.090086 140.871777 384.090086 
L 125.65 384.090086 
L 125.65 383.720396 
z
" clip-path="url(#p800b2d706a)" style="fill: #6b296b"/>
   </g>
   <g id="patch_6">
    <path d="M 125.65 383.176793 
L 153.043021 383.176793 
Q 165.271068 383.176793 171.803672 383.22094 
Q 178.35 383.264977 178.35 383.346472 
Q 178.35 383.428413 171.803672 383.472449 
Q 165.271068 383.516485 153.043021 383.516485 
L 142.159922 383.516485 
L 142.159922 383.696979 
L 125.65 383.696979 
L 125.65 383.176793 
z
M 142.159922 383.274007 
L 142.159922 383.419271 
L 151.286354 383.419271 
Q 156.08974 383.419271 158.711016 383.400319 
Q 161.332292 383.381366 161.332292 383.346472 
Q 161.332292 383.311689 158.711016 383.292848 
Q 156.08974 383.274007 151.286354 383.274007 
L 142.159922 383.274007 
z
" clip-path="url(#p800b2d706a)" style="fill: #787800"/>
   </g>
   <g id="patch_7">
    <path d="M 178.35 383.089889 
Q 173.035119 383.118248 167.318669 383.132492 
Q 161.602219 383.146607 155.507822 383.146607 
Q 141.736374 383.146607 133.693187 383.062178 
Q 125.65 382.977748 125.65 382.833364 
Q 125.65 382.687296 133.834917 382.603515 
Q 142.031645 382.519733 156.287338 382.519733 
Q 161.779381 382.519733 166.810802 382.531128 
Q 171.854034 382.542394 176.318534 382.564667 
L 176.318534 382.689627 
Q 171.712304 382.661009 167.153317 382.646895 
Q 162.59433 382.632651 158.011721 382.632651 
Q 149.531533 382.632651 144.937113 382.684707 
Q 140.342694 382.736633 140.342694 382.833364 
Q 140.342694 382.929189 144.771762 382.981504 
Q 149.200829 383.033689 157.350314 383.033689 
Q 159.570753 383.033689 161.472299 383.030711 
Q 163.373846 383.027603 164.885634 383.021128 
L 164.885634 382.903808 
L 156.204662 382.903808 
L 156.204662 382.799308 
L 178.35 382.799308 
L 178.35 383.089889 
z
" clip-path="url(#p800b2d706a)" style="fill: #787800"/>
   </g>
   <g id="patch_8">
    <path d="M 162.155336 382.000542 
L 141.887763 382.000542 
L 138.68762 382.439784 
L 125.65 382.439784 
L 144.269015 380.028602 
L 159.730985 380.028602 
L 178.35 382.439784 
L 165.323155 382.439784 
L 162.155336 382.000542 
z
M 145.120231 381.553031 
L 158.890544 381.553031 
L 152.016162 380.593933 
L 145.120231 381.553031 
z
" clip-path="url(#p800b2d706a)" style="fill: #21599c"/>
   </g>
   <g id="patch_9">
    <path d="M 125.65 377.380862 
L 141.195992 377.380862 
L 151.979692 378.728377 
L 162.83447 377.380862 
L 178.35 377.380862 
L 178.35 379.898886 
L 166.80474 379.898886 
L 166.80474 378.057048 
L 155.889037 379.414817 
L 148.141426 379.414817 
L 137.225723 378.057048 
L 137.225723 379.898886 
L 125.65 379.898886 
L 125.65 377.380862 
z
" clip-path="url(#p800b2d706a)" style="fill: #21599c"/>
   </g>
   <g id="patch_10">
    <path d="M 125.65 373.171875 
L 140.813382 373.171875 
L 140.813382 374.710001 
L 163.186618 374.710001 
L 163.186618 373.171875 
L 178.35 373.171875 
L 178.35 377.208375 
L 163.186618 377.208375 
L 163.186618 375.497231 
L 140.813382 375.497231 
L 140.813382 377.208375 
L 125.65 377.208375 
L 125.65 373.171875 
z
" clip-path="url(#p800b2d706a)" style="fill: #177875"/>
   </g>
   <g id="patch_11">
    <path d="M 125.65 366.695882 
L 177.253077 366.695882 
L 177.253077 367.906311 
L 144.774615 367.906311 
L 144.774615 369.060874 
L 175.329487 369.060874 
L 175.329487 370.271303 
L 144.774615 370.271303 
L 144.774615 371.693225 
L 178.35 371.693225 
L 178.35 372.902324 
L 125.65 372.902324 
L 125.65 366.695882 
z
" clip-path="url(#p800b2d706a)" style="fill: #6b296b"/>
   </g>
   <g id="patch_12">
    <path d="M 125.65 358.959518 
L 178.35 358.959518 
L 178.35 360.398601 
L 159.390256 360.398601 
L 159.390256 366.338374 
L 144.646512 366.338374 
L 144.646512 360.398601 
L 125.65 360.398601 
L 125.65 358.959518 
z
" clip-path="url(#p800b2d706a)" style="fill: #40ba47"/>
   </g>
   <g id="patch_13">
    <path d="M 147.032787 354.188143 
Q 151.762274 354.188143 153.814221 353.952533 
Q 155.866168 353.715241 155.866168 353.17334 
Q 155.866168 352.636488 153.814221 352.405928 
Q 151.762274 352.173684 147.032787 352.173684 
L 140.701781 352.173684 
L 140.701781 354.188143 
L 147.032787 354.188143 
z
M 140.701781 355.586651 
L 140.701781 358.558693 
L 125.65 358.558693 
L 125.65 350.706176 
L 148.634307 350.706176 
Q 160.170252 350.706176 165.537844 351.227882 
Q 170.917949 351.747905 170.917949 352.87378 
Q 170.917949 353.65129 168.11529 354.151118 
Q 165.325142 354.650946 159.694801 354.888238 
Q 162.785233 354.982482 165.225047 355.317384 
Q 167.677374 355.650602 170.179748 356.32882 
L 178.35 358.558693 
L 162.322293 358.558693 
L 155.203039 356.608185 
Q 153.050997 356.019162 150.836396 355.803748 
Q 148.634307 355.586651 144.955817 355.586651 
L 140.701781 355.586651 
z
" clip-path="url(#p800b2d706a)" style="fill: #bd2e1f"/>
   </g>
   <g id="patch_14">
    <path d="M 125.65 337.147081 
L 139.537864 337.147081 
L 139.537864 341.895509 
L 159.555783 337.147081 
L 175.683253 337.147081 
L 149.743078 343.309163 
L 178.35 350.15716 
L 160.964195 350.15716 
L 139.537864 345.032315 
L 139.537864 350.15716 
L 125.65 350.15716 
L 125.65 337.147081 
z
" clip-path="url(#p800b2d706a)" style="fill: #bd2e1f"/>
   </g>
   <g id="patch_15">
    <path d="M 224.155336 377.953901 
L 203.887763 377.953901 
L 200.68762 383.656249 
L 187.65 383.656249 
L 206.269015 352.353712 
L 221.730985 352.353712 
L 240.35 383.656249 
L 227.323155 383.656249 
L 224.155336 377.953901 
z
M 207.120231 372.144214 
L 220.890544 372.144214 
L 214.016162 359.69297 
L 207.120231 372.144214 
z
" clip-path="url(#p800b2d706a)" style="fill: #21599c"/>
   </g>
   <g id="patch_16">
    <path d="M 187.65 59.332249 
L 215.043021 59.332249 
Q 227.271068 59.332249 233.803672 83.494993 
Q 240.35 107.59672 240.35 152.200169 
Q 240.35 197.047686 233.803672 221.149413 
Q 227.271068 245.25114 215.043021 245.25114 
L 204.159922 245.25114 
L 204.159922 344.037712 
L 187.65 344.037712 
L 187.65 59.332249 
z
M 204.159922 112.539099 
L 204.159922 192.04429 
L 213.286354 192.04429 
Q 218.08974 192.04429 220.711016 181.671395 
Q 223.332292 171.298499 223.332292 152.200169 
Q 223.332292 133.162856 220.711016 122.850977 
Q 218.08974 112.539099 213.286354 112.539099 
L 204.159922 112.539099 
z
" clip-path="url(#p800b2d706a)" style="fill: #787800"/>
   </g>
   <g id="patch_17">
    <path d="M 249.65 384.44769 
L 262.68762 384.44769 
L 276.016162 384.470927 
L 289.323155 384.44769 
L 302.35 384.44769 
L 283.730985 384.479172 
L 268.269015 384.479172 
L 249.65 384.44769 
z
" clip-path="url(#p800b2d706a)" style="fill: #21599c"/>
   </g>
   <g id="patch_18">
    <path d="M 277.405333 384.402408 
L 276.373292 384.402408 
Q 263.714313 384.402408 256.676667 384.374079 
Q 249.65 384.345706 249.65 384.295141 
Q 249.65 384.244665 256.665687 384.216069 
Q 263.681375 384.187429 276 384.187429 
Q 288.450375 384.187429 295.400188 384.215802 
Q 302.35 384.244131 302.35 384.295141 
Q 302.35 384.330141 298.661 384.355445 
Q 294.972 384.38075 288.044146 384.393514 
L 298.364562 384.44021 
L 285.771458 384.44021 
L 277.405333 384.402408 
z
M 276 384.226209 
Q 269.961458 384.226209 266.634771 384.244264 
Q 263.308083 384.26232 263.308083 384.295141 
Q 263.308083 384.328495 266.557917 384.34624 
Q 269.818729 384.36394 276 384.36394 
Q 282.071479 384.36394 285.398167 384.345884 
Q 288.724854 384.327784 288.724854 384.295141 
Q 288.724854 384.26232 285.398167 384.244264 
Q 282.071479 384.226209 276 384.226209 
z
" clip-path="url(#p800b2d706a)" style="fill: #40ba47"/>
   </g>
   <g id="patch_19">
    <path d="M 249.65 379.677417 
L 264.813382 379.677417 
L 264.813382 381.349442 
L 287.186618 381.349442 
L 287.186618 379.677417 
L 302.35 379.677417 
L 302.35 384.065306 
L 287.186618 384.065306 
L 287.186618 382.205202 
L 264.813382 382.205202 
L 264.813382 384.065306 
L 249.65 384.065306 
L 249.65 379.677417 
z
" clip-path="url(#p800b2d706a)" style="fill: #177875"/>
   </g>
   <g id="patch_20">
    <path d="M 249.65 372.343791 
L 265.195992 372.343791 
L 275.979692 376.107526 
L 286.83447 372.343791 
L 302.35 372.343791 
L 302.35 379.376866 
L 290.80474 379.376866 
L 290.80474 374.232441 
L 279.889037 378.024815 
L 272.141426 378.024815 
L 261.225723 374.232441 
L 261.225723 379.376866 
L 249.65 379.376866 
L 249.65 372.343791 
z
" clip-path="url(#p800b2d706a)" style="fill: #21599c"/>
   </g>
   <g id="patch_21">
    <path d="M 286.155336 370.68007 
L 265.887763 370.68007 
L 262.68762 371.97207 
L 249.65 371.97207 
L 268.269015 364.879754 
L 283.730985 364.879754 
L 302.35 371.97207 
L 289.323155 371.97207 
L 286.155336 370.68007 
z
M 269.120231 369.363751 
L 282.890544 369.363751 
L 276.016162 366.542633 
L 269.120231 369.363751 
z
" clip-path="url(#p800b2d706a)" style="fill: #21599c"/>
   </g>
   <g id="patch_22">
    <path d="M 249.65 337.666133 
L 263.537864 337.666133 
L 263.537864 347.277528 
L 283.555783 337.666133 
L 299.683253 337.666133 
L 273.743078 350.138936 
L 302.35 364.000114 
L 284.964195 364.000114 
L 263.537864 353.626806 
L 263.537864 364.000114 
L 249.65 364.000114 
L 249.65 337.666133 
z
" clip-path="url(#p800b2d706a)" style="fill: #bd2e1f"/>
   </g>
   <g id="patch_23">
    <path d="M 297.955948 309.788884 
L 297.955948 315.458253 
Q 292.459804 314.471278 287.221293 313.972052 
Q 281.997094 313.467088 277.34541 313.467088 
Q 271.176562 313.467088 268.213797 314.149937 
Q 265.265345 314.827048 265.265345 316.261605 
Q 265.265345 317.340392 267.254834 317.942906 
Q 269.244324 318.539681 274.482835 318.970048 
L 281.811027 319.561086 
Q 292.946442 320.461988 297.641065 322.292482 
Q 302.35 324.117239 302.35 327.491316 
Q 302.35 331.91549 295.794704 334.078802 
Q 289.239408 336.242114 275.770994 336.242114 
Q 269.430391 336.242114 263.032537 335.754364 
Q 256.634682 335.272353 250.236828 334.319807 
L 250.236828 328.495506 
Q 256.634682 329.855466 262.60315 330.549792 
Q 268.571619 331.238379 274.125014 331.238379 
Q 279.764286 331.238379 282.755676 330.486671 
Q 285.747067 329.729225 285.747067 328.329098 
Q 285.747067 327.078164 283.714639 326.395315 
Q 281.682211 325.712466 275.59924 325.173073 
L 268.929441 324.582035 
Q 258.910429 323.721301 254.273058 321.839162 
Q 249.65 319.957024 249.65 316.766569 
Q 249.65 312.767024 256.090793 310.615189 
Q 262.531586 308.463354 274.611651 308.463354 
Q 280.122108 308.463354 285.933134 308.796171 
Q 291.744161 309.128988 297.955948 309.788884 
z
" clip-path="url(#p800b2d706a)" style="fill: #40ba47"/>
   </g>
   <g id="patch_24">
    <path d="M 271.032787 284.935784 
Q 275.762274 284.935784 277.814221 283.762341 
Q 279.866168 282.580517 279.866168 279.881599 
Q 279.866168 277.207826 277.814221 276.059528 
Q 275.762274 274.902849 271.032787 274.902849 
L 264.701781 274.902849 
L 264.701781 284.935784 
L 271.032787 284.935784 
z
M 264.701781 291.901004 
L 264.701781 306.703145 
L 249.65 306.703145 
L 249.65 267.593978 
L 272.634307 267.593978 
Q 284.170252 267.593978 289.537844 270.192315 
Q 294.917949 272.78227 294.917949 278.38965 
Q 294.917949 282.262011 292.11529 284.751386 
Q 289.325142 287.24076 283.694801 288.422585 
Q 286.785233 288.891962 289.225047 290.559927 
Q 291.677374 292.21951 294.179748 295.597348 
L 302.35 306.703145 
L 286.322293 306.703145 
L 279.203039 296.988716 
Q 277.050997 294.055109 274.836396 292.982248 
Q 272.634307 291.901004 268.955817 291.901004 
L 264.701781 291.901004 
z
" clip-path="url(#p800b2d706a)" style="fill: #bd2e1f"/>
   </g>
   <g id="patch_25">
    <path d="M 339.405333 384.474394 
L 338.373292 384.474394 
Q 325.714313 384.474394 318.676667 384.470822 
Q 311.65 384.467244 311.65 384.460868 
Q 311.65 384.454503 318.665687 384.450897 
Q 325.681375 384.447285 338 384.447285 
Q 350.450375 384.447285 357.400188 384.450863 
Q 364.35 384.454436 364.35 384.460868 
Q 364.35 384.465281 360.661 384.468472 
Q 356.972 384.471663 350.044146 384.473273 
L 360.364563 384.479161 
L 347.771458 384.479161 
L 339.405333 384.474394 
z
M 338 384.452176 
Q 331.961458 384.452176 328.634771 384.454452 
Q 325.308083 384.456729 325.308083 384.460868 
Q 325.308083 384.465074 328.557917 384.467312 
Q 331.818729 384.469543 338 384.469543 
Q 344.071479 384.469543 347.398167 384.467267 
Q 350.724854 384.464984 350.724854 384.460868 
Q 350.724854 384.456729 347.398167 384.454452 
Q 344.071479 384.452176 338 384.452176 
z
" clip-path="url(#p800b2d706a)" style="fill: #40ba47"/>
   </g>
   <g id="patch_26">
    <path d="M 359.955948 384.094863 
L 359.955948 384.168187 
Q 354.459804 384.155422 349.221293 384.148966 
Q 343.997094 384.142435 339.34541 384.142435 
Q 333.176562 384.142435 330.213797 384.151266 
Q 327.265345 384.160024 327.265345 384.178577 
Q 327.265345 384.19253 329.254834 384.200322 
Q 331.244324 384.20804 336.482835 384.213606 
L 343.811027 384.221251 
Q 354.946442 384.232902 359.641065 384.256577 
Q 364.35 384.280177 364.35 384.323815 
Q 364.35 384.381034 357.794704 384.409013 
Q 351.239408 384.436992 337.770994 384.436992 
Q 331.430391 384.436992 325.032537 384.430684 
Q 318.634682 384.42445 312.236828 384.41213 
L 312.236828 384.336803 
Q 318.634682 384.354391 324.60315 384.363371 
Q 330.571619 384.372277 336.125014 384.372277 
Q 341.764286 384.372277 344.755676 384.362555 
Q 347.747067 384.352759 347.747067 384.33465 
Q 347.747067 384.318472 345.714639 384.30964 
Q 343.682211 384.300808 337.59924 384.293832 
L 330.929441 384.286188 
Q 320.910429 384.275056 316.273058 384.250714 
Q 311.65 384.226371 311.65 384.185108 
Q 311.65 384.133381 318.090793 384.10555 
Q 324.531586 384.07772 336.611651 384.07772 
Q 342.122108 384.07772 347.933134 384.082024 
Q 353.744161 384.086329 359.955948 384.094863 
z
" clip-path="url(#p800b2d706a)" style="fill: #40ba47"/>
   </g>
   <g id="patch_27">
    <path d="M 311.65 382.198611 
L 327.195992 382.198611 
L 337.979692 383.173497 
L 348.83447 382.198611 
L 364.35 382.198611 
L 364.35 384.020325 
L 352.80474 384.020325 
L 352.80474 382.687811 
L 341.889037 383.670116 
L 334.141426 383.670116 
L 323.225723 382.687811 
L 323.225723 384.020325 
L 311.65 384.020325 
L 311.65 382.198611 
z
" clip-path="url(#p800b2d706a)" style="fill: #21599c"/>
   </g>
   <g id="patch_28">
    <path d="M 348.155336 381.756292 
L 327.887763 381.756292 
L 324.68762 382.100891 
L 311.65 382.100891 
L 330.269015 380.209244 
L 345.730985 380.209244 
L 364.35 382.100891 
L 351.323155 382.100891 
L 348.155336 381.756292 
z
M 331.120231 381.405206 
L 344.890544 381.405206 
L 338.016162 380.652763 
L 331.120231 381.405206 
z
" clip-path="url(#p800b2d706a)" style="fill: #21599c"/>
   </g>
   <g id="patch_29">
    <path d="M 326.091481 375.775133 
L 326.091481 378.993196 
L 331.265444 378.993196 
Q 340.112802 378.993196 344.782574 378.579494 
Q 349.464351 378.165791 349.464351 377.377948 
Q 349.464351 376.594626 344.806583 376.185444 
Q 340.16082 375.775133 331.265444 375.775133 
L 326.091481 375.775133 
z
M 311.65 374.746528 
L 326.871777 374.746528 
Q 339.63262 374.746528 345.874989 374.918339 
Q 352.117358 375.08902 356.583052 375.499331 
Q 360.520547 375.856517 362.429271 376.323345 
Q 364.35 376.789043 364.35 377.377948 
Q 364.35 377.975895 362.429271 378.443853 
Q 360.520547 378.911812 356.583052 379.267868 
Q 352.081344 379.678179 345.778952 379.84999 
Q 339.47656 380.020671 326.871777 380.020671 
L 311.65 380.020671 
L 311.65 374.746528 
z
" clip-path="url(#p800b2d706a)" style="fill: #6b296b"/>
   </g>
   <g id="patch_30">
    <path d="M 311.65 363.753538 
L 326.813382 363.753538 
L 326.813382 367.783526 
L 349.186618 367.783526 
L 349.186618 363.753538 
L 364.35 363.753538 
L 364.35 374.329422 
L 349.186618 374.329422 
L 349.186618 369.846118 
L 326.813382 369.846118 
L 326.813382 374.329422 
L 311.65 374.329422 
L 311.65 363.753538 
z
" clip-path="url(#p800b2d706a)" style="fill: #177875"/>
   </g>
   <g id="patch_31">
    <path d="M 311.65 352.288 
L 339.043021 352.288 
Q 351.271068 352.288 357.803672 353.213107 
Q 364.35 354.135878 364.35 355.843587 
Q 364.35 357.560641 357.803672 358.483412 
Q 351.271068 359.406182 339.043021 359.406182 
L 328.159922 359.406182 
L 328.159922 363.188374 
L 311.65 363.188374 
L 311.65 352.288 
z
M 328.159922 354.325104 
L 328.159922 357.369079 
L 337.286354 357.369079 
Q 342.08974 357.369079 344.711016 356.971937 
Q 347.332292 356.574795 347.332292 355.843587 
Q 347.332292 355.114715 344.711016 354.71991 
Q 342.08974 354.325104 337.286354 354.325104 
L 328.159922 354.325104 
z
" clip-path="url(#p800b2d706a)" style="fill: #787800"/>
   </g>
   <g id="patch_32">
    <path d="M 333.032787 344.310208 
Q 337.762274 344.310208 339.814221 343.91432 
Q 341.866168 343.515604 341.866168 342.605062 
Q 341.866168 341.703003 339.814221 341.315598 
Q 337.762274 340.925366 333.032787 340.925366 
L 326.701781 340.925366 
L 326.701781 344.310208 
L 333.032787 344.310208 
z
M 326.701781 346.660085 
L 326.701781 351.653928 
L 311.65 351.653928 
L 311.65 338.45955 
L 334.634307 338.45955 
Q 346.170252 338.45955 351.537844 339.336159 
Q 356.917949 340.20994 356.917949 342.101719 
Q 356.917949 343.408149 354.11529 344.247997 
Q 351.325142 345.087845 345.694801 345.48656 
Q 348.785233 345.644915 351.225047 346.207642 
Q 353.677374 346.76754 356.179748 347.907132 
L 364.35 351.653928 
L 348.322293 351.653928 
L 341.203039 348.376542 
Q 339.050997 347.386822 336.836396 347.024867 
Q 334.634307 346.660085 330.955817 346.660085 
L 326.701781 346.660085 
z
" clip-path="url(#p800b2d706a)" style="fill: #bd2e1f"/>
   </g>
   <g id="patch_33">
    <path d="M 311.65 324.296788 
L 325.537864 324.296788 
L 325.537864 329.209901 
L 345.555783 324.296788 
L 361.683253 324.296788 
L 335.743078 330.672584 
L 364.35 337.758085 
L 346.964195 337.758085 
L 325.537864 332.455499 
L 325.537864 337.758085 
L 311.65 337.758085 
L 311.65 324.296788 
z
" clip-path="url(#p800b2d706a)" style="fill: #bd2e1f"/>
   </g>
   <g id="patch_34">
    <path d="M 311.65 306.623981 
L 328.578032 306.623981 
L 349.968106 318.196717 
L 349.968106 306.623981 
L 364.35 306.623981 
L 364.35 323.498477 
L 347.409364 323.498477 
L 326.01929 311.925741 
L 326.01929 323.498477 
L 311.65 323.498477 
L 311.65 306.623981 
z
" clip-path="url(#p800b2d706a)" style="fill: #40ba47"/>
   </g>
   <g id="patch_35">
    <path d="M 364.35 304.410734 
Q 359.941736 305.052181 355.174969 305.376634 
Q 350.408201 305.704816 345.216541 305.704816 
Q 329.734505 305.704816 320.692252 303.273284 
Q 311.65 300.841752 311.65 296.683534 
Q 311.65 292.510398 320.692252 290.082595 
Q 329.734505 287.651063 345.216541 287.651063 
Q 350.408201 287.651063 355.174969 287.979245 
Q 359.941736 288.303698 364.35 288.945145 
L 364.35 292.543962 
Q 359.901902 291.693672 355.586584 291.298361 
Q 351.271265 290.903051 346.504497 290.903051 
Q 337.953527 290.903051 333.053981 292.44327 
Q 328.167712 293.979759 328.167712 296.683534 
Q 328.167712 299.37612 333.053981 300.916339 
Q 337.953527 302.452828 346.504497 302.452828 
Q 351.271265 302.452828 355.586584 302.057518 
Q 359.901902 301.658478 364.35 300.808188 
L 364.35 304.410734 
z
" clip-path="url(#p800b2d706a)" style="fill: #6b296b"/>
   </g>
   <g id="patch_36">
    <path d="M 373.65 383.12736 
L 389.195992 383.12736 
L 399.979692 383.832662 
L 410.83447 383.12736 
L 426.35 383.12736 
L 426.35 384.445317 
L 414.80474 384.445317 
L 414.80474 383.481282 
L 403.889037 384.191951 
L 396.141426 384.191951 
L 385.225723 383.481282 
L 385.225723 384.445317 
L 373.65 384.445317 
L 373.65 383.12736 
z
" clip-path="url(#p800b2d706a)" style="fill: #21599c"/>
   </g>
   <g id="patch_37">
    <path d="M 373.65 380.745069 
L 388.22 380.745069 
L 399.988929 381.560321 
L 411.746786 380.745069 
L 426.35 380.745069 
L 406.665 382.06869 
L 406.665 383.032482 
L 393.346071 383.032482 
L 393.346071 382.06869 
L 373.65 380.745069 
z
" clip-path="url(#p800b2d706a)" style="fill: #177875"/>
   </g>
   <g id="patch_38">
    <path d="M 374.198462 378.286596 
L 425.801538 378.286596 
L 425.801538 378.742334 
L 393.323077 378.742334 
L 393.323077 379.177038 
L 423.877949 379.177038 
L 423.877949 379.632776 
L 393.323077 379.632776 
L 393.323077 380.62338 
L 374.198462 380.62338 
L 374.198462 378.286596 
z
" clip-path="url(#p800b2d706a)" style="fill: #21599c"/>
   </g>
   <g id="patch_39">
    <path d="M 401.405333 376.327601 
L 400.373292 376.327601 
Q 387.714313 376.327601 380.676667 375.118384 
Q 373.65 373.907268 373.65 371.748901 
Q 373.65 369.594331 380.665687 368.373724 
Q 387.681375 367.151219 400 367.151219 
Q 412.450375 367.151219 419.400188 368.362334 
Q 426.35 369.571551 426.35 371.748901 
Q 426.35 373.242863 422.661 374.322996 
Q 418.972 375.403129 412.044146 375.947941 
L 422.364563 377.941156 
L 409.771458 377.941156 
L 401.405333 376.327601 
z
M 400 368.806536 
Q 393.961458 368.806536 390.634771 369.577246 
Q 387.308083 370.347956 387.308083 371.748901 
Q 387.308083 373.172626 390.557917 373.930048 
Q 393.818729 374.685571 400 374.685571 
Q 406.071479 374.685571 409.398167 373.914862 
Q 412.724854 373.142253 412.724854 371.748901 
Q 412.724854 370.347956 409.398167 369.577246 
Q 406.071479 368.806536 400 368.806536 
z
" clip-path="url(#p800b2d706a)" style="fill: #40ba47"/>
   </g>
   <g id="patch_40">
    <path d="M 373.65 352.142222 
L 386.68762 352.142222 
L 400.016162 362.732179 
L 413.323155 352.142222 
L 426.35 352.142222 
L 407.730985 366.489708 
L 392.269015 366.489708 
L 373.65 352.142222 
z
" clip-path="url(#p800b2d706a)" style="fill: #21599c"/>
   </g>
   <g id="patch_41">
    <path d="M 390.437692 334.122491 
L 409.562308 334.122491 
L 409.562308 351.312294 
L 390.437692 351.312294 
L 390.437692 334.122491 
z
" clip-path="url(#p800b2d706a)" style="fill: #21599c"/>
   </g>
   <g id="patch_42">
    <path d="M 373.65 216.399597 
L 392.774615 216.399597 
L 392.774615 308.403095 
L 426.35 308.403095 
L 426.35 330.663191 
L 373.65 330.663191 
L 373.65 216.399597 
z
" clip-path="url(#p800b2d706a)" style="fill: #21599c"/>
   </g>
   <g id="patch_43">
    <path d="M 488.35 384.440383 
Q 483.035119 384.455728 477.318669 384.463436 
Q 471.602219 384.471073 465.507822 384.471073 
Q 451.736374 384.471073 443.693187 384.425388 
Q 435.65 384.379702 435.65 384.301573 
Q 435.65 384.222534 443.834917 384.177198 
Q 452.031645 384.131863 466.287338 384.131863 
Q 471.779381 384.131863 476.810802 384.138029 
Q 481.854034 384.144125 486.318534 384.156177 
L 486.318534 384.223795 
Q 481.712304 384.20831 477.153317 384.200672 
Q 472.59433 384.192964 468.011721 384.192964 
Q 459.531533 384.192964 454.937113 384.221132 
Q 450.342694 384.249231 450.342694 384.301573 
Q 450.342694 384.353425 454.771762 384.381734 
Q 459.200829 384.409972 467.350314 384.409972 
Q 469.570753 384.409972 471.472299 384.40836 
Q 473.373846 384.406679 474.885634 384.403175 
L 474.885634 384.339691 
L 466.204662 384.339691 
L 466.204662 384.283145 
L 488.35 384.283145 
L 488.35 384.440383 
z
" clip-path="url(#p800b2d706a)" style="fill: #787800"/>
   </g>
   <g id="patch_44">
    <path d="M 435.65 382.097358 
L 449.537864 382.097358 
L 449.537864 382.817699 
L 469.555783 382.097358 
L 485.683253 382.097358 
L 459.743078 383.032151 
L 488.35 384.070998 
L 470.964195 384.070998 
L 449.537864 383.293555 
L 449.537864 384.070998 
L 435.65 384.070998 
L 435.65 382.097358 
z
" clip-path="url(#p800b2d706a)" style="fill: #bd2e1f"/>
   </g>
   <g id="patch_45">
    <path d="M 435.65 378.864967 
L 451.195992 378.864967 
L 461.979692 380.523338 
L 472.83447 378.864967 
L 488.35 378.864967 
L 488.35 381.96387 
L 476.80474 381.96387 
L 476.80474 379.697141 
L 465.889037 381.368131 
L 458.141426 381.368131 
L 447.225723 379.697141 
L 447.225723 381.96387 
L 435.65 381.96387 
L 435.65 378.864967 
z
" clip-path="url(#p800b2d706a)" style="fill: #21599c"/>
   </g>
   <g id="patch_46">
    <path d="M 436.198462 373.334511 
L 487.801538 373.334511 
L 487.801538 374.369951 
L 455.323077 374.369951 
L 455.323077 375.357601 
L 485.877949 375.357601 
L 485.877949 376.393041 
L 455.323077 376.393041 
L 455.323077 378.643701 
L 436.198462 378.643701 
L 436.198462 373.334511 
z
" clip-path="url(#p800b2d706a)" style="fill: #21599c"/>
   </g>
   <g id="patch_47">
    <path d="M 435.65 366.089625 
L 450.22 366.089625 
L 461.988929 368.557033 
L 473.746786 366.089625 
L 488.35 366.089625 
L 468.665 370.095639 
L 468.665 373.012611 
L 455.346071 373.012611 
L 455.346071 370.095639 
L 435.65 366.089625 
z
" clip-path="url(#p800b2d706a)" style="fill: #177875"/>
   </g>
   <g id="patch_48">
    <path d="M 435.65 354.616404 
L 448.68762 354.616404 
L 462.016162 362.736688 
L 475.323155 354.616404 
L 488.35 354.616404 
L 469.730985 365.617927 
L 454.269015 365.617927 
L 435.65 354.616404 
z
" clip-path="url(#p800b2d706a)" style="fill: #21599c"/>
   </g>
   <g id="patch_49">
    <path d="M 452.437692 337.859017 
L 471.562308 337.859017 
L 471.562308 353.904637 
L 452.437692 353.904637 
L 452.437692 337.859017 
z
" clip-path="url(#p800b2d706a)" style="fill: #21599c"/>
   </g>
   <g id="patch_50">
    <path d="M 483.955948 321.670925 
L 483.955948 324.958945 
Q 478.459804 324.386537 473.221293 324.097005 
Q 467.997094 323.804144 463.34541 323.804144 
Q 457.176562 323.804144 454.213797 324.200171 
Q 451.265345 324.59287 451.265345 325.424859 
Q 451.265345 326.050514 453.254834 326.39995 
Q 455.244324 326.746057 460.482835 326.995654 
L 467.811027 327.338433 
Q 478.946442 327.860922 483.641065 328.92254 
Q 488.35 329.98083 488.35 331.937668 
Q 488.35 334.503522 481.794704 335.758161 
Q 475.239408 337.0128 461.770994 337.0128 
Q 455.430391 337.0128 449.032537 336.729924 
Q 442.634682 336.450376 436.236828 335.897935 
L 436.236828 332.52006 
Q 442.634682 333.308786 448.60315 333.711468 
Q 454.571619 334.110823 460.125014 334.110823 
Q 465.764286 334.110823 468.755676 333.674861 
Q 471.747067 333.235571 471.747067 332.423549 
Q 471.747067 331.698055 469.714639 331.302028 
Q 467.682211 330.906002 461.59924 330.593174 
L 454.929441 330.250394 
Q 444.910429 329.751201 440.273058 328.659632 
Q 435.65 327.568062 435.65 325.717719 
Q 435.65 323.398134 442.090793 322.15015 
Q 448.531586 320.902167 460.611651 320.902167 
Q 466.122108 320.902167 471.933134 321.095189 
Q 477.744161 321.28821 483.955948 321.670925 
z
" clip-path="url(#p800b2d706a)" style="fill: #40ba47"/>
   </g>
   <g id="patch_51">
    <path d="M 512.091481 384.30318 
L 512.091481 384.432965 
L 517.265444 384.432965 
Q 526.112802 384.432965 530.782574 384.41628 
Q 535.464351 384.399595 535.464351 384.367822 
Q 535.464351 384.33623 530.806583 384.319728 
Q 526.16082 384.30318 517.265444 384.30318 
L 512.091481 384.30318 
z
M 497.65 384.261697 
L 512.871777 384.261697 
Q 525.63262 384.261697 531.874989 384.268626 
Q 538.117358 384.27551 542.583052 384.292057 
Q 546.520547 384.306463 548.429271 384.32529 
Q 550.35 384.344071 550.35 384.367822 
Q 550.35 384.391937 548.429271 384.41081 
Q 546.520547 384.429682 542.583052 384.444042 
Q 538.081344 384.46059 531.778952 384.467519 
Q 525.47656 384.474402 512.871777 384.474402 
L 497.65 384.474402 
L 497.65 384.261697 
z
" clip-path="url(#p800b2d706a)" style="fill: #6b296b"/>
   </g>
   <g id="patch_52">
    <path d="M 497.65 383.829069 
L 550.35 383.829069 
L 550.35 383.910217 
L 531.390256 383.910217 
L 531.390256 384.24515 
L 516.646512 384.24515 
L 516.646512 383.910217 
L 497.65 383.910217 
L 497.65 383.829069 
z
" clip-path="url(#p800b2d706a)" style="fill: #40ba47"/>
   </g>
   <g id="patch_53">
    <path d="M 497.65 375.850217 
L 510.68762 375.850217 
L 524.016162 381.580571 
L 537.323155 375.850217 
L 550.35 375.850217 
L 531.730985 383.613815 
L 516.269015 383.613815 
L 497.65 375.850217 
z
" clip-path="url(#p800b2d706a)" style="fill: #21599c"/>
   </g>
   <g id="patch_54">
    <path d="M 545.955948 346.915286 
L 545.955948 352.907157 
Q 540.459804 351.864038 535.221293 351.336413 
Q 529.997094 350.802724 525.34541 350.802724 
Q 519.176562 350.802724 516.213797 351.524417 
Q 513.265345 352.240046 513.265345 353.756207 
Q 513.265345 354.896361 515.254834 355.533149 
Q 517.244324 356.163872 522.482835 356.618721 
L 529.811027 357.243379 
Q 540.946442 358.195529 545.641065 360.130151 
Q 550.35 362.058709 550.35 365.624721 
Q 550.35 370.300564 543.794704 372.586936 
Q 537.239408 374.873308 523.770994 374.873308 
Q 517.430391 374.873308 511.032537 374.357813 
Q 504.634682 373.848382 498.236828 372.841651 
L 498.236828 366.686034 
Q 504.634682 368.123356 510.60315 368.857178 
Q 516.571619 369.584936 522.125014 369.584936 
Q 527.764286 369.584936 530.755676 368.790467 
Q 533.747067 367.989934 533.747067 366.51016 
Q 533.747067 365.188067 531.714639 364.466374 
Q 529.682211 363.744681 523.59924 363.174604 
L 516.929441 362.549945 
Q 506.910429 361.640248 502.273058 359.651044 
Q 497.65 357.66184 497.65 354.289896 
Q 497.65 350.062838 504.090793 347.788595 
Q 510.531586 345.514352 522.611651 345.514352 
Q 528.122108 345.514352 533.933134 345.866102 
Q 539.744161 346.217851 545.955948 346.915286 
z
" clip-path="url(#p800b2d706a)" style="fill: #40ba47"/>
   </g>
   <g id="patch_55">
    <path d="M 534.155336 336.447718 
L 513.887763 336.447718 
L 510.68762 343.694842 
L 497.65 343.694842 
L 516.269015 303.912396 
L 531.730985 303.912396 
L 550.35 343.694842 
L 537.323155 343.694842 
L 534.155336 336.447718 
z
M 517.120231 329.064178 
L 530.890544 329.064178 
L 524.016162 313.239871 
L 517.120231 329.064178 
z
" clip-path="url(#p800b2d706a)" style="fill: #21599c"/>
   </g>
   <g id="patch_56">
    <path d="M 550.35 297.423834 
Q 545.035119 299.531605 539.318669 300.590303 
Q 533.602219 301.639376 527.507822 301.639376 
Q 513.736374 301.639376 505.693187 295.364186 
Q 497.65 289.088995 497.65 278.35765 
Q 497.65 267.501185 505.834917 261.274117 
Q 514.031645 255.04705 528.287338 255.04705 
Q 533.779381 255.04705 538.810802 255.894008 
Q 543.854034 256.731342 548.318534 258.38676 
L 548.318534 267.674427 
Q 543.712304 265.547407 539.153317 264.498333 
Q 534.59433 263.439636 530.011721 263.439636 
Q 521.531533 263.439636 516.937113 267.308695 
Q 512.342694 271.168129 512.342694 278.35765 
Q 512.342694 285.479798 516.771762 289.368106 
Q 521.200829 293.24679 529.350314 293.24679 
Q 531.570753 293.24679 533.472299 293.025426 
Q 535.373846 292.794437 536.885634 292.313211 
L 536.885634 283.593391 
L 528.204662 283.593391 
L 528.204662 275.8264 
L 550.35 275.8264 
L 550.35 297.423834 
z
" clip-path="url(#p800b2d706a)" style="fill: #787800"/>
   </g>
   <g id="patch_57">
    <path d="M 559.65 383.21364 
L 574.22 383.21364 
L 585.988929 383.653408 
L 597.746786 383.21364 
L 612.35 383.21364 
L 592.665 383.927635 
L 592.665 384.447529 
L 579.346071 384.447529 
L 579.346071 383.927635 
L 559.65 383.21364 
z
" clip-path="url(#p800b2d706a)" style="fill: #177875"/>
   </g>
   <g id="patch_58">
    <path d="M 559.65 381.368959 
L 611.253077 381.368959 
L 611.253077 381.713328 
L 578.774615 381.713328 
L 578.774615 382.041803 
L 609.329487 382.041803 
L 609.329487 382.386172 
L 578.774615 382.386172 
L 578.774615 382.790711 
L 612.35 382.790711 
L 612.35 383.134702 
L 559.65 383.134702 
L 559.65 381.368959 
z
" clip-path="url(#p800b2d706a)" style="fill: #6b296b"/>
   </g>
   <g id="patch_59">
    <path d="M 574.091481 377.483028 
L 574.091481 380.301163 
L 579.265444 380.301163 
Q 588.112802 380.301163 592.782574 379.938874 
Q 597.464351 379.576585 597.464351 378.886651 
Q 597.464351 378.200677 592.806583 377.842348 
Q 588.16082 377.483028 579.265444 377.483028 
L 574.091481 377.483028 
z
M 559.65 376.582254 
L 574.871777 376.582254 
Q 587.63262 376.582254 593.874989 376.732713 
Q 600.117358 376.882182 604.583052 377.241502 
Q 608.520547 377.554298 610.429271 377.963111 
Q 612.35 378.370934 612.35 378.886651 
Q 612.35 379.410288 610.429271 379.820091 
Q 608.520547 380.229893 604.583052 380.5417 
Q 600.081344 380.901019 593.778952 381.051478 
Q 587.47656 381.200947 574.871777 381.200947 
L 559.65 381.200947 
L 559.65 376.582254 
z
" clip-path="url(#p800b2d706a)" style="fill: #6b296b"/>
   </g>
   <g id="patch_60">
    <path d="M 559.65 369.871043 
L 573.537864 369.871043 
L 573.537864 372.214475 
L 593.555783 369.871043 
L 609.683253 369.871043 
L 583.743078 372.912138 
L 612.35 376.291744 
L 594.964195 376.291744 
L 573.537864 373.762543 
L 573.537864 376.291744 
L 559.65 376.291744 
L 559.65 369.871043 
z
" clip-path="url(#p800b2d706a)" style="fill: #bd2e1f"/>
   </g>
   <g id="patch_61">
    <path d="M 559.65 362.503214 
L 575.195992 362.503214 
L 585.979692 366.256889 
L 596.83447 362.503214 
L 612.35 362.503214 
L 612.35 369.517491 
L 600.80474 369.517491 
L 600.80474 364.386817 
L 589.889037 368.169054 
L 582.141426 368.169054 
L 571.225723 364.386817 
L 571.225723 369.517491 
L 559.65 369.517491 
L 559.65 362.503214 
z
" clip-path="url(#p800b2d706a)" style="fill: #21599c"/>
   </g>
   <g id="patch_62">
    <path d="M 607.955948 354.426641 
L 607.955948 356.072542 
Q 602.459804 355.786009 597.221293 355.641076 
Q 591.997094 355.494478 587.34541 355.494478 
Q 581.176562 355.494478 578.213797 355.692719 
Q 575.265345 355.889294 575.265345 356.305767 
Q 575.265345 356.618955 577.254834 356.793873 
Q 579.244324 356.967126 584.482835 357.092068 
L 591.811027 357.263655 
Q 602.946442 357.5252 607.641065 358.056619 
Q 612.35 358.586373 612.35 359.565917 
Q 612.35 360.85032 605.794704 361.478361 
Q 599.239408 362.106402 585.770994 362.106402 
Q 579.430391 362.106402 573.032537 361.964802 
Q 566.634682 361.824867 560.236828 361.548329 
L 560.236828 359.857448 
Q 566.634682 360.252265 572.60315 360.453838 
Q 578.571619 360.653745 584.125014 360.653745 
Q 589.764286 360.653745 592.755676 360.435513 
Q 595.747067 360.215615 595.747067 359.809138 
Q 595.747067 359.445973 593.714639 359.247732 
Q 591.682211 359.049491 585.59924 358.892897 
L 578.929441 358.72131 
Q 568.910429 358.471427 564.273058 357.925014 
Q 559.65 357.378601 559.65 356.452366 
Q 559.65 355.291239 566.090793 354.66653 
Q 572.531586 354.04182 584.611651 354.04182 
Q 590.122108 354.04182 595.933134 354.138442 
Q 601.744161 354.235064 607.955948 354.426641 
z
" clip-path="url(#p800b2d706a)" style="fill: #40ba47"/>
   </g>
   <g id="patch_63">
    <path d="M 596.155336 351.533217 
L 575.887763 351.533217 
L 572.68762 353.539736 
L 559.65 353.539736 
L 578.269015 342.525126 
L 593.730985 342.525126 
L 612.35 353.539736 
L 599.323155 353.539736 
L 596.155336 351.533217 
z
M 579.120231 349.488928 
L 592.890544 349.488928 
L 586.016162 345.107634 
L 579.120231 349.488928 
z
" clip-path="url(#p800b2d706a)" style="fill: #21599c"/>
   </g>
   <g id="patch_64">
    <path d="M 559.65 309.421334 
L 587.043021 309.421334 
Q 599.271068 309.421334 605.803672 312.134821 
Q 612.35 314.841456 612.35 319.850443 
Q 612.35 324.886839 605.803672 327.593474 
Q 599.271068 330.300109 587.043021 330.300109 
L 576.159922 330.300109 
L 576.159922 341.393885 
L 559.65 341.393885 
L 559.65 309.421334 
z
M 576.159922 315.396487 
L 576.159922 324.324956 
L 585.286354 324.324956 
Q 590.08974 324.324956 592.711016 323.160075 
Q 595.332292 321.995194 595.332292 319.850443 
Q 595.332292 317.712544 592.711016 316.554516 
Q 590.08974 315.396487 585.286354 315.396487 
L 576.159922 315.396487 
z
" clip-path="url(#p800b2d706a)" style="fill: #787800"/>
   </g>
   <g id="matplotlib.axis_1">
    <g id="xtick_1">
     <g id="line2d_2">
      <defs>
       <path id="mf809142968" d="M 0 0 
L 0 4.8 
" style="stroke: #262626"/>
      </defs>
      <g>
       <use xlink:href="#mf809142968" x="152" y="384.48" style="fill: #262626; stroke: #262626"/>
      </g>
     </g>
     <g id="text_1">
      <!-- P4 -->
      <g style="fill: #262626" transform="translate(146.61825 399.078875) scale(0.088 -0.088)">
       <defs>
        <path id="ArialMT-50" d="M 494 0 
L 494 4581 
L 2222 4581 
Q 2678 4581 2919 4538 
Q 3256 4481 3484 4323 
Q 3713 4166 3852 3881 
Q 3991 3597 3991 3256 
Q 3991 2672 3619 2267 
Q 3247 1863 2275 1863 
L 1100 1863 
L 1100 0 
L 494 0 
z
M 1100 2403 
L 2284 2403 
Q 2872 2403 3119 2622 
Q 3366 2841 3366 3238 
Q 3366 3525 3220 3729 
Q 3075 3934 2838 4000 
Q 2684 4041 2272 4041 
L 1100 4041 
L 1100 2403 
z
" transform="scale(0.015625)"/>
        <path id="ArialMT-34" d="M 2069 0 
L 2069 1097 
L 81 1097 
L 81 1613 
L 2172 4581 
L 2631 4581 
L 2631 1613 
L 3250 1613 
L 3250 1097 
L 2631 1097 
L 2631 0 
L 2069 0 
z
M 2069 1613 
L 2069 3678 
L 634 1613 
L 2069 1613 
z
" transform="scale(0.015625)"/>
       </defs>
       <use xlink:href="#ArialMT-50"/>
       <use xlink:href="#ArialMT-34" x="66.699219"/>
      </g>
     </g>
    </g>
    <g id="xtick_2">
     <g id="line2d_3">
      <g>
       <use xlink:href="#mf809142968" x="214" y="384.48" style="fill: #262626; stroke: #262626"/>
      </g>
     </g>
     <g id="text_2">
      <!-- P3 -->
      <g style="fill: #262626" transform="translate(208.61825 399.078875) scale(0.088 -0.088)">
       <defs>
        <path id="ArialMT-33" d="M 269 1209 
L 831 1284 
Q 928 806 1161 595 
Q 1394 384 1728 384 
Q 2125 384 2398 659 
Q 2672 934 2672 1341 
Q 2672 1728 2419 1979 
Q 2166 2231 1775 2231 
Q 1616 2231 1378 2169 
L 1441 2663 
Q 1497 2656 1531 2656 
Q 1891 2656 2178 2843 
Q 2466 3031 2466 3422 
Q 2466 3731 2256 3934 
Q 2047 4138 1716 4138 
Q 1388 4138 1169 3931 
Q 950 3725 888 3313 
L 325 3413 
Q 428 3978 793 4289 
Q 1159 4600 1703 4600 
Q 2078 4600 2393 4439 
Q 2709 4278 2876 4000 
Q 3044 3722 3044 3409 
Q 3044 3113 2884 2869 
Q 2725 2625 2413 2481 
Q 2819 2388 3044 2092 
Q 3269 1797 3269 1353 
Q 3269 753 2831 336 
Q 2394 -81 1725 -81 
Q 1122 -81 723 278 
Q 325 638 269 1209 
z
" transform="scale(0.015625)"/>
       </defs>
       <use xlink:href="#ArialMT-50"/>
       <use xlink:href="#ArialMT-33" x="66.699219"/>
      </g>
     </g>
    </g>
    <g id="xtick_3">
     <g id="line2d_4">
      <g>
       <use xlink:href="#mf809142968" x="276" y="384.48" style="fill: #262626; stroke: #262626"/>
      </g>
     </g>
     <g id="text_3">
      <!-- P2 -->
      <g style="fill: #262626" transform="translate(270.61825 399.078875) scale(0.088 -0.088)">
       <defs>
        <path id="ArialMT-32" d="M 3222 541 
L 3222 0 
L 194 0 
Q 188 203 259 391 
Q 375 700 629 1000 
Q 884 1300 1366 1694 
Q 2113 2306 2375 2664 
Q 2638 3022 2638 3341 
Q 2638 3675 2398 3904 
Q 2159 4134 1775 4134 
Q 1369 4134 1125 3890 
Q 881 3647 878 3216 
L 300 3275 
Q 359 3922 746 4261 
Q 1134 4600 1788 4600 
Q 2447 4600 2831 4234 
Q 3216 3869 3216 3328 
Q 3216 3053 3103 2787 
Q 2991 2522 2730 2228 
Q 2469 1934 1863 1422 
Q 1356 997 1212 845 
Q 1069 694 975 541 
L 3222 541 
z
" transform="scale(0.015625)"/>
       </defs>
       <use xlink:href="#ArialMT-50"/>
       <use xlink:href="#ArialMT-32" x="66.699219"/>
      </g>
     </g>
    </g>
    <g id="xtick_4">
     <g id="line2d_5">
      <g>
       <use xlink:href="#mf809142968" x="338" y="384.48" style="fill: #262626; stroke: #262626"/>
      </g>
     </g>
     <g id="text_4">
      <!-- P1 -->
      <g style="fill: #262626" transform="translate(332.61825 399.078875) scale(0.088 -0.088)">
       <defs>
        <path id="ArialMT-31" d="M 2384 0 
L 1822 0 
L 1822 3584 
Q 1619 3391 1289 3197 
Q 959 3003 697 2906 
L 697 3450 
Q 1169 3672 1522 3987 
Q 1875 4303 2022 4600 
L 2384 4600 
L 2384 0 
z
" transform="scale(0.015625)"/>
       </defs>
       <use xlink:href="#ArialMT-50"/>
       <use xlink:href="#ArialMT-31" x="66.699219"/>
      </g>
     </g>
    </g>
    <g id="xtick_5">
     <g id="line2d_6">
      <g>
       <use xlink:href="#mf809142968" x="400" y="384.48" style="fill: #262626; stroke: #262626"/>
      </g>
     </g>
     <g id="text_5">
      <!-- P1' -->
      <g style="fill: #262626" transform="translate(393.778125 399.078875) scale(0.088 -0.088)">
       <defs>
        <path id="ArialMT-27" d="M 425 2959 
L 281 3816 
L 281 4581 
L 922 4581 
L 922 3816 
L 772 2959 
L 425 2959 
z
" transform="scale(0.015625)"/>
       </defs>
       <use xlink:href="#ArialMT-50"/>
       <use xlink:href="#ArialMT-31" x="66.699219"/>
       <use xlink:href="#ArialMT-27" x="122.314453"/>
      </g>
     </g>
    </g>
    <g id="xtick_6">
     <g id="line2d_7">
      <g>
       <use xlink:href="#mf809142968" x="462" y="384.48" style="fill: #262626; stroke: #262626"/>
      </g>
     </g>
     <g id="text_6">
      <!-- P2' -->
      <g style="fill: #262626" transform="translate(455.778125 399.078875) scale(0.088 -0.088)">
       <use xlink:href="#ArialMT-50"/>
       <use xlink:href="#ArialMT-32" x="66.699219"/>
       <use xlink:href="#ArialMT-27" x="122.314453"/>
      </g>
     </g>
    </g>
    <g id="xtick_7">
     <g id="line2d_8">
      <g>
       <use xlink:href="#mf809142968" x="524" y="384.48" style="fill: #262626; stroke: #262626"/>
      </g>
     </g>
     <g id="text_7">
      <!-- P3' -->
      <g style="fill: #262626" transform="translate(517.778125 399.078875) scale(0.088 -0.088)">
       <use xlink:href="#ArialMT-50"/>
       <use xlink:href="#ArialMT-33" x="66.699219"/>
       <use xlink:href="#ArialMT-27" x="122.314453"/>
      </g>
     </g>
    </g>
    <g id="xtick_8">
     <g id="line2d_9">
      <g>
       <use xlink:href="#mf809142968" x="586" y="384.48" style="fill: #262626; stroke: #262626"/>
      </g>
     </g>
     <g id="text_8">
      <!-- P4' -->
      <g style="fill: #262626" transform="translate(579.778125 399.078875) scale(0.088 -0.088)">
       <use xlink:href="#ArialMT-50"/>
       <use xlink:href="#ArialMT-34" x="66.699219"/>
       <use xlink:href="#ArialMT-27" x="122.314453"/>
      </g>
     </g>
    </g>
   </g>
   <g id="matplotlib.axis_2">
    <g id="ytick_1">
     <g id="line2d_10">
      <defs>
       <path id="mb40c835057" d="M 0 0 
L -4.8 0 
" style="stroke: #262626"/>
      </defs>
      <g>
       <use xlink:href="#mb40c835057" x="90" y="384.48" style="fill: #262626; stroke: #262626"/>
      </g>
     </g>
     <g id="text_9">
      <!-- 0.0 -->
      <g style="fill: #262626" transform="translate(69.468 387.629437) scale(0.088 -0.088)">
       <defs>
        <path id="ArialMT-30" d="M 266 2259 
Q 266 3072 433 3567 
Q 600 4063 929 4331 
Q 1259 4600 1759 4600 
Q 2128 4600 2406 4451 
Q 2684 4303 2865 4023 
Q 3047 3744 3150 3342 
Q 3253 2941 3253 2259 
Q 3253 1453 3087 958 
Q 2922 463 2592 192 
Q 2263 -78 1759 -78 
Q 1097 -78 719 397 
Q 266 969 266 2259 
z
M 844 2259 
Q 844 1131 1108 757 
Q 1372 384 1759 384 
Q 2147 384 2411 759 
Q 2675 1134 2675 2259 
Q 2675 3391 2411 3762 
Q 2147 4134 1753 4134 
Q 1366 4134 1134 3806 
Q 844 3388 844 2259 
z
" transform="scale(0.015625)"/>
        <path id="ArialMT-2e" d="M 581 0 
L 581 641 
L 1222 641 
L 1222 0 
L 581 0 
z
" transform="scale(0.015625)"/>
       </defs>
       <use xlink:href="#ArialMT-30"/>
       <use xlink:href="#ArialMT-2e" x="55.615234"/>
       <use xlink:href="#ArialMT-30" x="83.398438"/>
      </g>
     </g>
    </g>
    <g id="ytick_2">
     <g id="line2d_11">
      <g>
       <use xlink:href="#mb40c835057" x="90" y="339.824214" style="fill: #262626; stroke: #262626"/>
      </g>
     </g>
     <g id="text_10">
      <!-- 0.2 -->
      <g style="fill: #262626" transform="translate(69.468 342.973651) scale(0.088 -0.088)">
       <use xlink:href="#ArialMT-30"/>
       <use xlink:href="#ArialMT-2e" x="55.615234"/>
       <use xlink:href="#ArialMT-32" x="83.398438"/>
      </g>
     </g>
    </g>
    <g id="ytick_3">
     <g id="line2d_12">
      <g>
       <use xlink:href="#mb40c835057" x="90" y="295.168427" style="fill: #262626; stroke: #262626"/>
      </g>
     </g>
     <g id="text_11">
      <!-- 0.4 -->
      <g style="fill: #262626" transform="translate(69.468 298.317865) scale(0.088 -0.088)">
       <use xlink:href="#ArialMT-30"/>
       <use xlink:href="#ArialMT-2e" x="55.615234"/>
       <use xlink:href="#ArialMT-34" x="83.398438"/>
      </g>
     </g>
    </g>
    <g id="ytick_4">
     <g id="line2d_13">
      <g>
       <use xlink:href="#mb40c835057" x="90" y="250.512641" style="fill: #262626; stroke: #262626"/>
      </g>
     </g>
     <g id="text_12">
      <!-- 0.6 -->
      <g style="fill: #262626" transform="translate(69.468 253.662079) scale(0.088 -0.088)">
       <defs>
        <path id="ArialMT-36" d="M 3184 3459 
L 2625 3416 
Q 2550 3747 2413 3897 
Q 2184 4138 1850 4138 
Q 1581 4138 1378 3988 
Q 1113 3794 959 3422 
Q 806 3050 800 2363 
Q 1003 2672 1297 2822 
Q 1591 2972 1913 2972 
Q 2475 2972 2870 2558 
Q 3266 2144 3266 1488 
Q 3266 1056 3080 686 
Q 2894 316 2569 119 
Q 2244 -78 1831 -78 
Q 1128 -78 684 439 
Q 241 956 241 2144 
Q 241 3472 731 4075 
Q 1159 4600 1884 4600 
Q 2425 4600 2770 4297 
Q 3116 3994 3184 3459 
z
M 888 1484 
Q 888 1194 1011 928 
Q 1134 663 1356 523 
Q 1578 384 1822 384 
Q 2178 384 2434 671 
Q 2691 959 2691 1453 
Q 2691 1928 2437 2201 
Q 2184 2475 1800 2475 
Q 1419 2475 1153 2201 
Q 888 1928 888 1484 
z
" transform="scale(0.015625)"/>
       </defs>
       <use xlink:href="#ArialMT-30"/>
       <use xlink:href="#ArialMT-2e" x="55.615234"/>
       <use xlink:href="#ArialMT-36" x="83.398438"/>
      </g>
     </g>
    </g>
    <g id="ytick_5">
     <g id="line2d_14">
      <g>
       <use xlink:href="#mb40c835057" x="90" y="205.856855" style="fill: #262626; stroke: #262626"/>
      </g>
     </g>
     <g id="text_13">
      <!-- 0.8 -->
      <g style="fill: #262626" transform="translate(69.468 209.006292) scale(0.088 -0.088)">
       <defs>
        <path id="ArialMT-38" d="M 1131 2484 
Q 781 2613 612 2850 
Q 444 3088 444 3419 
Q 444 3919 803 4259 
Q 1163 4600 1759 4600 
Q 2359 4600 2725 4251 
Q 3091 3903 3091 3403 
Q 3091 3084 2923 2848 
Q 2756 2613 2416 2484 
Q 2838 2347 3058 2040 
Q 3278 1734 3278 1309 
Q 3278 722 2862 322 
Q 2447 -78 1769 -78 
Q 1091 -78 675 323 
Q 259 725 259 1325 
Q 259 1772 486 2073 
Q 713 2375 1131 2484 
z
M 1019 3438 
Q 1019 3113 1228 2906 
Q 1438 2700 1772 2700 
Q 2097 2700 2305 2904 
Q 2513 3109 2513 3406 
Q 2513 3716 2298 3927 
Q 2084 4138 1766 4138 
Q 1444 4138 1231 3931 
Q 1019 3725 1019 3438 
z
M 838 1322 
Q 838 1081 952 856 
Q 1066 631 1291 507 
Q 1516 384 1775 384 
Q 2178 384 2440 643 
Q 2703 903 2703 1303 
Q 2703 1709 2433 1975 
Q 2163 2241 1756 2241 
Q 1359 2241 1098 1978 
Q 838 1716 838 1322 
z
" transform="scale(0.015625)"/>
       </defs>
       <use xlink:href="#ArialMT-30"/>
       <use xlink:href="#ArialMT-2e" x="55.615234"/>
       <use xlink:href="#ArialMT-38" x="83.398438"/>
      </g>
     </g>
    </g>
    <g id="ytick_6">
     <g id="line2d_15">
      <g>
       <use xlink:href="#mb40c835057" x="90" y="161.201068" style="fill: #262626; stroke: #262626"/>
      </g>
     </g>
     <g id="text_14">
      <!-- 1.0 -->
      <g style="fill: #262626" transform="translate(69.468 164.350506) scale(0.088 -0.088)">
       <use xlink:href="#ArialMT-31"/>
       <use xlink:href="#ArialMT-2e" x="55.615234"/>
       <use xlink:href="#ArialMT-30" x="83.398438"/>
      </g>
     </g>
    </g>
    <g id="ytick_7">
     <g id="line2d_16">
      <g>
       <use xlink:href="#mb40c835057" x="90" y="116.545282" style="fill: #262626; stroke: #262626"/>
      </g>
     </g>
     <g id="text_15">
      <!-- 1.2 -->
      <g style="fill: #262626" transform="translate(69.468 119.69472) scale(0.088 -0.088)">
       <use xlink:href="#ArialMT-31"/>
       <use xlink:href="#ArialMT-2e" x="55.615234"/>
       <use xlink:href="#ArialMT-32" x="83.398438"/>
      </g>
     </g>
    </g>
    <g id="ytick_8">
     <g id="line2d_17">
      <g>
       <use xlink:href="#mb40c835057" x="90" y="71.889496" style="fill: #262626; stroke: #262626"/>
      </g>
     </g>
     <g id="text_16">
      <!-- 1.4 -->
      <g style="fill: #262626" transform="translate(69.468 75.038933) scale(0.088 -0.088)">
       <use xlink:href="#ArialMT-31"/>
       <use xlink:href="#ArialMT-2e" x="55.615234"/>
       <use xlink:href="#ArialMT-34" x="83.398438"/>
      </g>
     </g>
    </g>
    <g id="text_17">
     <!-- information (bits) -->
     <g style="fill: #262626" transform="translate(63.4475 253.902) rotate(-90) scale(0.096 -0.096)">
      <defs>
       <path id="ArialMT-69" d="M 425 3934 
L 425 4581 
L 988 4581 
L 988 3934 
L 425 3934 
z
M 425 0 
L 425 3319 
L 988 3319 
L 988 0 
L 425 0 
z
" transform="scale(0.015625)"/>
       <path id="ArialMT-6e" d="M 422 0 
L 422 3319 
L 928 3319 
L 928 2847 
Q 1294 3394 1984 3394 
Q 2284 3394 2536 3286 
Q 2788 3178 2913 3003 
Q 3038 2828 3088 2588 
Q 3119 2431 3119 2041 
L 3119 0 
L 2556 0 
L 2556 2019 
Q 2556 2363 2490 2533 
Q 2425 2703 2258 2804 
Q 2091 2906 1866 2906 
Q 1506 2906 1245 2678 
Q 984 2450 984 1813 
L 984 0 
L 422 0 
z
" transform="scale(0.015625)"/>
       <path id="ArialMT-66" d="M 556 0 
L 556 2881 
L 59 2881 
L 59 3319 
L 556 3319 
L 556 3672 
Q 556 4006 616 4169 
Q 697 4388 901 4523 
Q 1106 4659 1475 4659 
Q 1713 4659 2000 4603 
L 1916 4113 
Q 1741 4144 1584 4144 
Q 1328 4144 1222 4034 
Q 1116 3925 1116 3625 
L 1116 3319 
L 1763 3319 
L 1763 2881 
L 1116 2881 
L 1116 0 
L 556 0 
z
" transform="scale(0.015625)"/>
       <path id="ArialMT-6f" d="M 213 1659 
Q 213 2581 725 3025 
Q 1153 3394 1769 3394 
Q 2453 3394 2887 2945 
Q 3322 2497 3322 1706 
Q 3322 1066 3130 698 
Q 2938 331 2570 128 
Q 2203 -75 1769 -75 
Q 1072 -75 642 372 
Q 213 819 213 1659 
z
M 791 1659 
Q 791 1022 1069 705 
Q 1347 388 1769 388 
Q 2188 388 2466 706 
Q 2744 1025 2744 1678 
Q 2744 2294 2464 2611 
Q 2184 2928 1769 2928 
Q 1347 2928 1069 2612 
Q 791 2297 791 1659 
z
" transform="scale(0.015625)"/>
       <path id="ArialMT-72" d="M 416 0 
L 416 3319 
L 922 3319 
L 922 2816 
Q 1116 3169 1280 3281 
Q 1444 3394 1641 3394 
Q 1925 3394 2219 3213 
L 2025 2691 
Q 1819 2813 1613 2813 
Q 1428 2813 1281 2702 
Q 1134 2591 1072 2394 
Q 978 2094 978 1738 
L 978 0 
L 416 0 
z
" transform="scale(0.015625)"/>
       <path id="ArialMT-6d" d="M 422 0 
L 422 3319 
L 925 3319 
L 925 2853 
Q 1081 3097 1340 3245 
Q 1600 3394 1931 3394 
Q 2300 3394 2536 3241 
Q 2772 3088 2869 2813 
Q 3263 3394 3894 3394 
Q 4388 3394 4653 3120 
Q 4919 2847 4919 2278 
L 4919 0 
L 4359 0 
L 4359 2091 
Q 4359 2428 4304 2576 
Q 4250 2725 4106 2815 
Q 3963 2906 3769 2906 
Q 3419 2906 3187 2673 
Q 2956 2441 2956 1928 
L 2956 0 
L 2394 0 
L 2394 2156 
Q 2394 2531 2256 2718 
Q 2119 2906 1806 2906 
Q 1569 2906 1367 2781 
Q 1166 2656 1075 2415 
Q 984 2175 984 1722 
L 984 0 
L 422 0 
z
" transform="scale(0.015625)"/>
       <path id="ArialMT-61" d="M 2588 409 
Q 2275 144 1986 34 
Q 1697 -75 1366 -75 
Q 819 -75 525 192 
Q 231 459 231 875 
Q 231 1119 342 1320 
Q 453 1522 633 1644 
Q 813 1766 1038 1828 
Q 1203 1872 1538 1913 
Q 2219 1994 2541 2106 
Q 2544 2222 2544 2253 
Q 2544 2597 2384 2738 
Q 2169 2928 1744 2928 
Q 1347 2928 1158 2789 
Q 969 2650 878 2297 
L 328 2372 
Q 403 2725 575 2942 
Q 747 3159 1072 3276 
Q 1397 3394 1825 3394 
Q 2250 3394 2515 3294 
Q 2781 3194 2906 3042 
Q 3031 2891 3081 2659 
Q 3109 2516 3109 2141 
L 3109 1391 
Q 3109 606 3145 398 
Q 3181 191 3288 0 
L 2700 0 
Q 2613 175 2588 409 
z
M 2541 1666 
Q 2234 1541 1622 1453 
Q 1275 1403 1131 1340 
Q 988 1278 909 1158 
Q 831 1038 831 891 
Q 831 666 1001 516 
Q 1172 366 1500 366 
Q 1825 366 2078 508 
Q 2331 650 2450 897 
Q 2541 1088 2541 1459 
L 2541 1666 
z
" transform="scale(0.015625)"/>
       <path id="ArialMT-74" d="M 1650 503 
L 1731 6 
Q 1494 -44 1306 -44 
Q 1000 -44 831 53 
Q 663 150 594 308 
Q 525 466 525 972 
L 525 2881 
L 113 2881 
L 113 3319 
L 525 3319 
L 525 4141 
L 1084 4478 
L 1084 3319 
L 1650 3319 
L 1650 2881 
L 1084 2881 
L 1084 941 
Q 1084 700 1114 631 
Q 1144 563 1211 522 
Q 1278 481 1403 481 
Q 1497 481 1650 503 
z
" transform="scale(0.015625)"/>
       <path id="ArialMT-20" transform="scale(0.015625)"/>
       <path id="ArialMT-28" d="M 1497 -1347 
Q 1031 -759 709 28 
Q 388 816 388 1659 
Q 388 2403 628 3084 
Q 909 3875 1497 4659 
L 1900 4659 
Q 1522 4009 1400 3731 
Q 1209 3300 1100 2831 
Q 966 2247 966 1656 
Q 966 153 1900 -1347 
L 1497 -1347 
z
" transform="scale(0.015625)"/>
       <path id="ArialMT-62" d="M 941 0 
L 419 0 
L 419 4581 
L 981 4581 
L 981 2947 
Q 1338 3394 1891 3394 
Q 2197 3394 2470 3270 
Q 2744 3147 2920 2923 
Q 3097 2700 3197 2384 
Q 3297 2069 3297 1709 
Q 3297 856 2875 390 
Q 2453 -75 1863 -75 
Q 1275 -75 941 416 
L 941 0 
z
M 934 1684 
Q 934 1088 1097 822 
Q 1363 388 1816 388 
Q 2184 388 2453 708 
Q 2722 1028 2722 1663 
Q 2722 2313 2464 2622 
Q 2206 2931 1841 2931 
Q 1472 2931 1203 2611 
Q 934 2291 934 1684 
z
" transform="scale(0.015625)"/>
       <path id="ArialMT-73" d="M 197 991 
L 753 1078 
Q 800 744 1014 566 
Q 1228 388 1613 388 
Q 2000 388 2187 545 
Q 2375 703 2375 916 
Q 2375 1106 2209 1216 
Q 2094 1291 1634 1406 
Q 1016 1563 777 1677 
Q 538 1791 414 1992 
Q 291 2194 291 2438 
Q 291 2659 392 2848 
Q 494 3038 669 3163 
Q 800 3259 1026 3326 
Q 1253 3394 1513 3394 
Q 1903 3394 2198 3281 
Q 2494 3169 2634 2976 
Q 2775 2784 2828 2463 
L 2278 2388 
Q 2241 2644 2061 2787 
Q 1881 2931 1553 2931 
Q 1166 2931 1000 2803 
Q 834 2675 834 2503 
Q 834 2394 903 2306 
Q 972 2216 1119 2156 
Q 1203 2125 1616 2013 
Q 2213 1853 2448 1751 
Q 2684 1650 2818 1456 
Q 2953 1263 2953 975 
Q 2953 694 2789 445 
Q 2625 197 2315 61 
Q 2006 -75 1616 -75 
Q 969 -75 630 194 
Q 291 463 197 991 
z
" transform="scale(0.015625)"/>
       <path id="ArialMT-29" d="M 791 -1347 
L 388 -1347 
Q 1322 153 1322 1656 
Q 1322 2244 1188 2822 
Q 1081 3291 891 3722 
Q 769 4003 388 4659 
L 791 4659 
Q 1378 3875 1659 3084 
Q 1900 2403 1900 1659 
Q 1900 816 1576 28 
Q 1253 -759 791 -1347 
z
" transform="scale(0.015625)"/>
      </defs>
      <use xlink:href="#ArialMT-69"/>
      <use xlink:href="#ArialMT-6e" x="22.216797"/>
      <use xlink:href="#ArialMT-66" x="77.832031"/>
      <use xlink:href="#ArialMT-6f" x="105.615234"/>
      <use xlink:href="#ArialMT-72" x="161.230469"/>
      <use xlink:href="#ArialMT-6d" x="194.53125"/>
      <use xlink:href="#ArialMT-61" x="277.832031"/>
      <use xlink:href="#ArialMT-74" x="333.447266"/>
      <use xlink:href="#ArialMT-69" x="361.230469"/>
      <use xlink:href="#ArialMT-6f" x="383.447266"/>
      <use xlink:href="#ArialMT-6e" x="439.0625"/>
      <use xlink:href="#ArialMT-20" x="494.677734"/>
      <use xlink:href="#ArialMT-28" x="522.460938"/>
      <use xlink:href="#ArialMT-62" x="555.761719"/>
      <use xlink:href="#ArialMT-69" x="611.376953"/>
      <use xlink:href="#ArialMT-74" x="633.59375"/>
      <use xlink:href="#ArialMT-73" x="661.376953"/>
      <use xlink:href="#ArialMT-29" x="711.376953"/>
     </g>
    </g>
   </g>
   <g id="line2d_18">
    <path d="M 369 384.48 
L 369 51.84 
" clip-path="url(#p800b2d706a)" style="fill: none; stroke: #daa520; stroke-width: 2; stroke-linecap: round"/>
   </g>
   <g id="patch_65">
    <path d="M 90 384.48 
L 648 384.48 
" style="fill: none; stroke: #262626; stroke-linejoin: miter; stroke-linecap: square"/>
   </g>
   <g id="patch_66">
    <path d="M 90 51.84 
L 648 51.84 
" style="fill: none; stroke: #262626; stroke-linejoin: miter; stroke-linecap: square"/>
   </g>
   <g id="text_18">
    <!-- Ctrl vs. MMP9 information content, Kullback n=55 -->
    <g style="fill: #262626" transform="translate(263.75925 45.84) scale(0.096 -0.096)">
     <defs>
      <path id="ArialMT-43" d="M 3763 1606 
L 4369 1453 
Q 4178 706 3683 314 
Q 3188 -78 2472 -78 
Q 1731 -78 1267 223 
Q 803 525 561 1097 
Q 319 1669 319 2325 
Q 319 3041 592 3573 
Q 866 4106 1370 4382 
Q 1875 4659 2481 4659 
Q 3169 4659 3637 4309 
Q 4106 3959 4291 3325 
L 3694 3184 
Q 3534 3684 3231 3912 
Q 2928 4141 2469 4141 
Q 1941 4141 1586 3887 
Q 1231 3634 1087 3207 
Q 944 2781 944 2328 
Q 944 1744 1114 1308 
Q 1284 872 1643 656 
Q 2003 441 2422 441 
Q 2931 441 3284 734 
Q 3638 1028 3763 1606 
z
" transform="scale(0.015625)"/>
      <path id="ArialMT-6c" d="M 409 0 
L 409 4581 
L 972 4581 
L 972 0 
L 409 0 
z
" transform="scale(0.015625)"/>
      <path id="ArialMT-76" d="M 1344 0 
L 81 3319 
L 675 3319 
L 1388 1331 
Q 1503 1009 1600 663 
Q 1675 925 1809 1294 
L 2547 3319 
L 3125 3319 
L 1869 0 
L 1344 0 
z
" transform="scale(0.015625)"/>
      <path id="ArialMT-4d" d="M 475 0 
L 475 4581 
L 1388 4581 
L 2472 1338 
Q 2622 884 2691 659 
Q 2769 909 2934 1394 
L 4031 4581 
L 4847 4581 
L 4847 0 
L 4263 0 
L 4263 3834 
L 2931 0 
L 2384 0 
L 1059 3900 
L 1059 0 
L 475 0 
z
" transform="scale(0.015625)"/>
      <path id="ArialMT-39" d="M 350 1059 
L 891 1109 
Q 959 728 1153 556 
Q 1347 384 1650 384 
Q 1909 384 2104 503 
Q 2300 622 2425 820 
Q 2550 1019 2634 1356 
Q 2719 1694 2719 2044 
Q 2719 2081 2716 2156 
Q 2547 1888 2255 1720 
Q 1963 1553 1622 1553 
Q 1053 1553 659 1965 
Q 266 2378 266 3053 
Q 266 3750 677 4175 
Q 1088 4600 1706 4600 
Q 2153 4600 2523 4359 
Q 2894 4119 3086 3673 
Q 3278 3228 3278 2384 
Q 3278 1506 3087 986 
Q 2897 466 2520 194 
Q 2144 -78 1638 -78 
Q 1100 -78 759 220 
Q 419 519 350 1059 
z
M 2653 3081 
Q 2653 3566 2395 3850 
Q 2138 4134 1775 4134 
Q 1400 4134 1122 3828 
Q 844 3522 844 3034 
Q 844 2597 1108 2323 
Q 1372 2050 1759 2050 
Q 2150 2050 2401 2323 
Q 2653 2597 2653 3081 
z
" transform="scale(0.015625)"/>
      <path id="ArialMT-63" d="M 2588 1216 
L 3141 1144 
Q 3050 572 2676 248 
Q 2303 -75 1759 -75 
Q 1078 -75 664 370 
Q 250 816 250 1647 
Q 250 2184 428 2587 
Q 606 2991 970 3192 
Q 1334 3394 1763 3394 
Q 2303 3394 2647 3120 
Q 2991 2847 3088 2344 
L 2541 2259 
Q 2463 2594 2264 2762 
Q 2066 2931 1784 2931 
Q 1359 2931 1093 2626 
Q 828 2322 828 1663 
Q 828 994 1084 691 
Q 1341 388 1753 388 
Q 2084 388 2306 591 
Q 2528 794 2588 1216 
z
" transform="scale(0.015625)"/>
      <path id="ArialMT-65" d="M 2694 1069 
L 3275 997 
Q 3138 488 2766 206 
Q 2394 -75 1816 -75 
Q 1088 -75 661 373 
Q 234 822 234 1631 
Q 234 2469 665 2931 
Q 1097 3394 1784 3394 
Q 2450 3394 2872 2941 
Q 3294 2488 3294 1666 
Q 3294 1616 3291 1516 
L 816 1516 
Q 847 969 1125 678 
Q 1403 388 1819 388 
Q 2128 388 2347 550 
Q 2566 713 2694 1069 
z
M 847 1978 
L 2700 1978 
Q 2663 2397 2488 2606 
Q 2219 2931 1791 2931 
Q 1403 2931 1139 2672 
Q 875 2413 847 1978 
z
" transform="scale(0.015625)"/>
      <path id="ArialMT-2c" d="M 569 0 
L 569 641 
L 1209 641 
L 1209 0 
Q 1209 -353 1084 -570 
Q 959 -788 688 -906 
L 531 -666 
Q 709 -588 793 -436 
Q 878 -284 888 0 
L 569 0 
z
" transform="scale(0.015625)"/>
      <path id="ArialMT-4b" d="M 469 0 
L 469 4581 
L 1075 4581 
L 1075 2309 
L 3350 4581 
L 4172 4581 
L 2250 2725 
L 4256 0 
L 3456 0 
L 1825 2319 
L 1075 1588 
L 1075 0 
L 469 0 
z
" transform="scale(0.015625)"/>
      <path id="ArialMT-75" d="M 2597 0 
L 2597 488 
Q 2209 -75 1544 -75 
Q 1250 -75 995 37 
Q 741 150 617 320 
Q 494 491 444 738 
Q 409 903 409 1263 
L 409 3319 
L 972 3319 
L 972 1478 
Q 972 1038 1006 884 
Q 1059 663 1231 536 
Q 1403 409 1656 409 
Q 1909 409 2131 539 
Q 2353 669 2445 892 
Q 2538 1116 2538 1541 
L 2538 3319 
L 3100 3319 
L 3100 0 
L 2597 0 
z
" transform="scale(0.015625)"/>
      <path id="ArialMT-6b" d="M 425 0 
L 425 4581 
L 988 4581 
L 988 1969 
L 2319 3319 
L 3047 3319 
L 1778 2088 
L 3175 0 
L 2481 0 
L 1384 1697 
L 988 1316 
L 988 0 
L 425 0 
z
" transform="scale(0.015625)"/>
      <path id="ArialMT-3d" d="M 3381 2694 
L 356 2694 
L 356 3219 
L 3381 3219 
L 3381 2694 
z
M 3381 1303 
L 356 1303 
L 356 1828 
L 3381 1828 
L 3381 1303 
z
" transform="scale(0.015625)"/>
      <path id="ArialMT-35" d="M 266 1200 
L 856 1250 
Q 922 819 1161 601 
Q 1400 384 1738 384 
Q 2144 384 2425 690 
Q 2706 997 2706 1503 
Q 2706 1984 2436 2262 
Q 2166 2541 1728 2541 
Q 1456 2541 1237 2417 
Q 1019 2294 894 2097 
L 366 2166 
L 809 4519 
L 3088 4519 
L 3088 3981 
L 1259 3981 
L 1013 2750 
Q 1425 3038 1878 3038 
Q 2478 3038 2890 2622 
Q 3303 2206 3303 1553 
Q 3303 931 2941 478 
Q 2500 -78 1738 -78 
Q 1113 -78 717 272 
Q 322 622 266 1200 
z
" transform="scale(0.015625)"/>
     </defs>
     <use xlink:href="#ArialMT-43"/>
     <use xlink:href="#ArialMT-74" x="72.216797"/>
     <use xlink:href="#ArialMT-72" x="100"/>
     <use xlink:href="#ArialMT-6c" x="133.300781"/>
     <use xlink:href="#ArialMT-20" x="155.517578"/>
     <use xlink:href="#ArialMT-76" x="183.300781"/>
     <use xlink:href="#ArialMT-73" x="233.300781"/>
     <use xlink:href="#ArialMT-2e" x="283.300781"/>
     <use xlink:href="#ArialMT-20" x="311.083984"/>
     <use xlink:href="#ArialMT-4d" x="338.867188"/>
     <use xlink:href="#ArialMT-4d" x="422.167969"/>
     <use xlink:href="#ArialMT-50" x="505.46875"/>
     <use xlink:href="#ArialMT-39" x="572.167969"/>
     <use xlink:href="#ArialMT-20" x="627.783203"/>
     <use xlink:href="#ArialMT-69" x="655.566406"/>
     <use xlink:href="#ArialMT-6e" x="677.783203"/>
     <use xlink:href="#ArialMT-66" x="733.398438"/>
     <use xlink:href="#ArialMT-6f" x="761.181641"/>
     <use xlink:href="#ArialMT-72" x="816.796875"/>
     <use xlink:href="#ArialMT-6d" x="850.097656"/>
     <use xlink:href="#ArialMT-61" x="933.398438"/>
     <use xlink:href="#ArialMT-74" x="989.013672"/>
     <use xlink:href="#ArialMT-69" x="1016.796875"/>
     <use xlink:href="#ArialMT-6f" x="1039.013672"/>
     <use xlink:href="#ArialMT-6e" x="1094.628906"/>
     <use xlink:href="#ArialMT-20" x="1150.244141"/>
     <use xlink:href="#ArialMT-63" x="1178.027344"/>
     <use xlink:href="#ArialMT-6f" x="1228.027344"/>
     <use xlink:href="#ArialMT-6e" x="1283.642578"/>
     <use xlink:href="#ArialMT-74" x="1339.257812"/>
     <use xlink:href="#ArialMT-65" x="1367.041016"/>
     <use xlink:href="#ArialMT-6e" x="1422.65625"/>
     <use xlink:href="#ArialMT-74" x="1478.271484"/>
     <use xlink:href="#ArialMT-2c" x="1506.054688"/>
     <use xlink:href="#ArialMT-20" x="1533.837891"/>
     <use xlink:href="#ArialMT-4b" x="1561.621094"/>
     <use xlink:href="#ArialMT-75" x="1628.320312"/>
     <use xlink:href="#ArialMT-6c" x="1683.935547"/>
     <use xlink:href="#ArialMT-6c" x="1706.152344"/>
     <use xlink:href="#ArialMT-62" x="1728.369141"/>
     <use xlink:href="#ArialMT-61" x="1783.984375"/>
     <use xlink:href="#ArialMT-63" x="1839.599609"/>
     <use xlink:href="#ArialMT-6b" x="1889.599609"/>
     <use xlink:href="#ArialMT-20" x="1939.599609"/>
     <use xlink:href="#ArialMT-6e" x="1967.382812"/>
     <use xlink:href="#ArialMT-3d" x="2022.998047"/>
     <use xlink:href="#ArialMT-35" x="2081.396484"/>
     <use xlink:href="#ArialMT-35" x="2137.011719"/>
    </g>
   </g>
  </g>
 </g>
 <defs>
  <clipPath id="p800b2d706a">
   <rect x="90" y="51.84" width="558" height="332.64"/>
  </clipPath>
 </defs>
</svg>
