<?xml version="1.0" encoding="utf-8" standalone="no"?>
<!DOCTYPE svg PUBLIC "-//W3C//DTD SVG 1.1//EN"
  "http://www.w3.org/Graphics/SVG/1.1/DTD/svg11.dtd">
<svg xmlns:xlink="http://www.w3.org/1999/xlink" width="720pt" height="432pt" viewBox="0 0 720 432" xmlns="http://www.w3.org/2000/svg" version="1.1">
 <metadata>
  <rdf:RDF xmlns:dc="http://purl.org/dc/elements/1.1/" xmlns:cc="http://creativecommons.org/ns#" xmlns:rdf="http://www.w3.org/1999/02/22-rdf-syntax-ns#">
   <cc:Work>
    <dc:type rdf:resource="http://purl.org/dc/dcmitype/StillImage"/>
    <dc:date>2023-11-26T14:33:21.228819</dc:date>
    <dc:format>image/svg+xml</dc:format>
    <dc:creator>
     <cc:Agent>
      <dc:title>Matplotlib v3.7.1, https://matplotlib.org/</dc:title>
     </cc:Agent>
    </dc:creator>
   </cc:Work>
  </rdf:RDF>
 </metadata>
 <defs>
  <style type="text/css">*{stroke-linejoin: round; stroke-linecap: butt}</style>
 </defs>
 <g id="figure_1">
  <g id="patch_1">
   <path d="M 0 432 
L 720 432 
L 720 0 
L 0 0 
z
" style="fill: #ffffff"/>
  </g>
  <g id="axes_1">
   <g id="patch_2">
    <path d="M 90 384.48 
L 648 384.48 
L 648 51.84 
L 90 51.84 
z
" style="fill: #ffffff"/>
   </g>
   <g id="patch_3">
    <path d="M 183 384.48 
L 245 384.48 
L 245 51.84 
L 183 51.84 
z
" clip-path="url(#p402b46eabb)" style="fill: #ffd700; opacity: 0.35; stroke: #ffffff; stroke-width: 0.8; stroke-linejoin: miter"/>
   </g>
   <g id="patch_4">
    <path d="M 369 384.48 
L 431 384.48 
L 431 51.84 
L 369 51.84 
z
" clip-path="url(#p402b46eabb)" style="fill: #ffd700; opacity: 0.35; stroke: #ffffff; stroke-width: 0.8; stroke-linejoin: miter"/>
   </g>
   <g id="line2d_1">
    <path d="M 90 384.48 
L 648 384.48 
" clip-path="url(#p402b46eabb)" style="fill: none; stroke: #000000; stroke-width: 0.5; stroke-linecap: round"/>
   </g>
   <g id="patch_5">
    <path d="M 125.65 384.00093 
L 153.043021 384.00093 
Q 165.271068 384.00093 171.803672 384.040545 
Q 178.35 384.080061 178.35 384.15319 
Q 178.35 384.22672 171.803672 384.266236 
Q 165.271068 384.305751 153.043021 384.305751 
L 142.159922 384.305751 
L 142.159922 384.467716 
L 125.65 384.467716 
L 125.65 384.00093 
z
M 142.159922 384.088164 
L 142.159922 384.218517 
L 151.286354 384.218517 
Q 156.08974 384.218517 158.711016 384.20151 
Q 161.332292 384.184503 161.332292 384.15319 
Q 161.332292 384.121978 158.711016 384.105071 
Q 156.08974 384.088164 151.286354 384.088164 
L 142.159922 384.088164 
z
" clip-path="url(#p402b46eabb)" style="fill: #787800"/>
   </g>
   <g id="patch_6">
    <path d="M 140.091481 382.566561 
L 140.091481 383.61036 
L 145.265444 383.61036 
Q 154.112802 383.61036 158.782574 383.476173 
Q 163.464351 383.341986 163.464351 383.086444 
Q 163.464351 382.832368 158.806583 382.699648 
Q 154.16082 382.566561 145.265444 382.566561 
L 140.091481 382.566561 
z
M 125.65 382.232926 
L 140.871777 382.232926 
Q 153.63262 382.232926 159.874989 382.288654 
Q 166.117358 382.344015 170.583052 382.477103 
Q 174.520547 382.592958 176.429271 382.744377 
Q 178.35 382.895429 178.35 383.086444 
Q 178.35 383.280392 176.429271 383.432177 
Q 174.520547 383.583962 170.583052 383.699451 
Q 166.081344 383.832538 159.778952 383.888266 
Q 153.47656 383.943627 140.871777 383.943627 
L 125.65 383.943627 
L 125.65 382.232926 
z
" clip-path="url(#p402b46eabb)" style="fill: #6b296b"/>
   </g>
   <g id="patch_7">
    <path d="M 125.65 379.752762 
L 138.68762 379.752762 
L 152.016162 381.504069 
L 165.323155 379.752762 
L 178.35 379.752762 
L 159.730985 382.125468 
L 144.269015 382.125468 
L 125.65 379.752762 
z
" clip-path="url(#p402b46eabb)" style="fill: #21599c"/>
   </g>
   <g id="patch_8">
    <path d="M 173.955948 373.550707 
L 173.955948 374.831145 
Q 168.459804 374.608234 163.221293 374.495483 
Q 157.997094 374.381436 153.34541 374.381436 
Q 147.176562 374.381436 144.213797 374.535659 
Q 141.265345 374.688586 141.265345 375.012583 
Q 141.265345 375.256229 143.254834 375.392308 
Q 145.244324 375.527091 150.482835 375.624291 
L 157.811027 375.757778 
Q 168.946442 375.961248 173.641065 376.374669 
Q 178.35 376.786794 178.35 377.548836 
Q 178.35 378.548044 171.794704 379.036632 
Q 165.239408 379.525221 151.770994 379.525221 
Q 145.430391 379.525221 139.032537 379.415061 
Q 132.634682 379.306198 126.236828 379.091064 
L 126.236828 377.775634 
Q 132.634682 378.082784 138.60315 378.239598 
Q 144.571619 378.395117 150.125014 378.395117 
Q 155.764286 378.395117 158.755676 378.225343 
Q 161.747067 378.054272 161.747067 377.73805 
Q 161.747067 377.455524 159.714639 377.301302 
Q 157.682211 377.147079 151.59924 377.025256 
L 144.929441 376.891769 
Q 134.910429 376.69737 130.273058 376.272286 
Q 125.65 375.847201 125.65 375.12663 
Q 125.65 374.223325 132.090793 373.737329 
Q 138.531586 373.251333 150.611651 373.251333 
Q 156.122108 373.251333 161.933134 373.3265 
Q 167.744161 373.401668 173.955948 373.550707 
z
" clip-path="url(#p402b46eabb)" style="fill: #40ba47"/>
   </g>
   <g id="patch_9">
    <path d="M 178.35 372.128003 
Q 173.035119 372.499163 167.318669 372.68559 
Q 161.602219 372.870323 155.507822 372.870323 
Q 141.736374 372.870323 133.693187 371.765317 
Q 125.65 370.660312 125.65 368.770617 
Q 125.65 366.858889 133.834917 365.762358 
Q 142.031645 364.665826 156.287338 364.665826 
Q 161.779381 364.665826 166.810802 364.814968 
Q 171.854034 364.962415 176.318534 365.25392 
L 176.318534 366.889396 
Q 171.712304 366.514846 167.153317 366.330114 
Q 162.59433 366.143686 158.011721 366.143686 
Q 149.531533 366.143686 144.937113 366.824994 
Q 140.342694 367.504606 140.342694 368.770617 
Q 140.342694 370.024764 144.771762 370.709461 
Q 149.200829 371.392463 157.350314 371.392463 
Q 159.570753 371.392463 161.472299 371.353482 
Q 163.373846 371.312807 164.885634 371.228068 
L 164.885634 369.692585 
L 156.204662 369.692585 
L 156.204662 368.324886 
L 178.35 368.324886 
L 178.35 372.128003 
z
" clip-path="url(#p402b46eabb)" style="fill: #787800"/>
   </g>
   <g id="patch_10">
    <path d="M 125.65 355.414036 
L 178.35 355.414036 
L 178.35 357.131099 
L 159.390256 357.131099 
L 159.390256 364.218229 
L 144.646512 364.218229 
L 144.646512 357.131099 
L 125.65 357.131099 
L 125.65 355.414036 
z
" clip-path="url(#p402b46eabb)" style="fill: #40ba47"/>
   </g>
   <g id="patch_11">
    <path d="M 125.65 345.677347 
L 144.774615 345.677347 
L 144.774615 353.134406 
L 178.35 353.134406 
L 178.35 354.938629 
L 125.65 354.938629 
L 125.65 345.677347 
z
" clip-path="url(#p402b46eabb)" style="fill: #21599c"/>
   </g>
   <g id="patch_12">
    <path d="M 125.65 334.70258 
L 177.253077 334.70258 
L 177.253077 336.741771 
L 144.774615 336.741771 
L 144.774615 338.686845 
L 175.329487 338.686845 
L 175.329487 340.726035 
L 144.774615 340.726035 
L 144.774615 343.121524 
L 178.35 343.121524 
L 178.35 345.158474 
L 125.65 345.158474 
L 125.65 334.70258 
z
" clip-path="url(#p402b46eabb)" style="fill: #6b296b"/>
   </g>
   <g id="patch_13">
    <path d="M 147.032787 328.32242 
Q 151.762274 328.32242 153.814221 328.008168 
Q 155.866168 327.691671 155.866168 326.96889 
Q 155.866168 326.252843 153.814221 325.945324 
Q 151.762274 325.635561 147.032787 325.635561 
L 140.701781 325.635561 
L 140.701781 328.32242 
L 147.032787 328.32242 
z
M 140.701781 330.187734 
L 140.701781 334.151805 
L 125.65 334.151805 
L 125.65 323.678217 
L 148.634307 323.678217 
Q 160.170252 323.678217 165.537844 324.374062 
Q 170.917949 325.067662 170.917949 326.56934 
Q 170.917949 327.606374 168.11529 328.273038 
Q 165.325142 328.939702 159.694801 329.256199 
Q 162.785233 329.3819 165.225047 329.828588 
Q 167.677374 330.273031 170.179748 331.177629 
L 178.35 334.151805 
L 162.322293 334.151805 
L 155.203039 331.550243 
Q 153.050997 330.764611 150.836396 330.477295 
Q 148.634307 330.187734 144.955817 330.187734 
L 140.701781 330.187734 
z
" clip-path="url(#p402b46eabb)" style="fill: #bd2e1f"/>
   </g>
   <g id="patch_14">
    <path d="M 125.65 311.748749 
L 139.537864 311.748749 
L 139.537864 315.893116 
L 159.555783 311.748749 
L 175.683253 311.748749 
L 149.743078 317.126935 
L 178.35 323.10378 
L 160.964195 323.10378 
L 139.537864 318.630881 
L 139.537864 323.10378 
L 125.65 323.10378 
L 125.65 311.748749 
z
" clip-path="url(#p402b46eabb)" style="fill: #bd2e1f"/>
   </g>
   <g id="patch_15">
    <path d="M 162.155336 307.696345 
L 141.887763 307.696345 
L 138.68762 310.976139 
L 125.65 310.976139 
L 144.269015 292.971998 
L 159.730985 292.971998 
L 178.35 310.976139 
L 165.323155 310.976139 
L 162.155336 307.696345 
z
M 145.120231 304.354814 
L 158.890544 304.354814 
L 152.016162 297.193286 
L 145.120231 304.354814 
z
" clip-path="url(#p402b46eabb)" style="fill: #21599c"/>
   </g>
   <g id="patch_16">
    <path d="M 187.65 378.896269 
L 200.68762 378.896269 
L 214.016162 382.911975 
L 227.323155 378.896269 
L 240.35 378.896269 
L 221.730985 384.336827 
L 206.269015 384.336827 
L 187.65 378.896269 
z
" clip-path="url(#p402b46eabb)" style="fill: #21599c"/>
   </g>
   <g id="patch_17">
    <path d="M 224.155336 367.268022 
L 203.887763 367.268022 
L 200.68762 377.303404 
L 187.65 377.303404 
L 206.269015 322.215063 
L 221.730985 322.215063 
L 240.35 377.303404 
L 227.323155 377.303404 
L 224.155336 367.268022 
z
M 207.120231 357.043739 
L 220.890544 357.043739 
L 214.016162 335.131189 
L 207.120231 357.043739 
z
" clip-path="url(#p402b46eabb)" style="fill: #21599c"/>
   </g>
   <g id="patch_18">
    <path d="M 187.65 58.563134 
L 215.043021 58.563134 
Q 227.271068 58.563134 233.803672 80.245458 
Q 240.35 101.873029 240.35 141.897723 
Q 240.35 182.141431 233.803672 203.769001 
Q 227.271068 225.396572 215.043021 225.396572 
L 204.159922 225.396572 
L 204.159922 314.042235 
L 187.65 314.042235 
L 187.65 58.563134 
z
M 204.159922 106.30805 
L 204.159922 177.651656 
L 213.286354 177.651656 
Q 218.08974 177.651656 220.711016 168.343588 
Q 223.332292 159.03552 223.332292 141.897723 
Q 223.332292 124.81468 220.711016 115.561365 
Q 218.08974 106.30805 213.286354 106.30805 
L 204.159922 106.30805 
z
" clip-path="url(#p402b46eabb)" style="fill: #787800"/>
   </g>
   <g id="patch_19">
    <path d="M 249.65 378.327246 
L 262.68762 378.327246 
L 276.016162 382.752181 
L 289.323155 378.327246 
L 302.35 378.327246 
L 283.730985 384.322237 
L 268.269015 384.322237 
L 249.65 378.327246 
z
" clip-path="url(#p402b46eabb)" style="fill: #21599c"/>
   </g>
   <g id="patch_20">
    <path d="M 249.65 354.349109 
L 263.537864 354.349109 
L 263.537864 362.820163 
L 283.555783 354.349109 
L 299.683253 354.349109 
L 273.743078 365.34208 
L 302.35 377.558704 
L 284.964195 377.558704 
L 263.537864 368.416133 
L 263.537864 377.558704 
L 249.65 377.558704 
L 249.65 354.349109 
z
" clip-path="url(#p402b46eabb)" style="fill: #bd2e1f"/>
   </g>
   <g id="patch_21">
    <path d="M 286.155336 348.658086 
L 265.887763 348.658086 
L 262.68762 353.097081 
L 249.65 353.097081 
L 268.269015 328.729609 
L 283.730985 328.729609 
L 302.35 353.097081 
L 289.323155 353.097081 
L 286.155336 348.658086 
z
M 269.120231 344.135533 
L 282.890544 344.135533 
L 276.016162 334.442857 
L 269.120231 344.135533 
z
" clip-path="url(#p402b46eabb)" style="fill: #21599c"/>
   </g>
   <g id="patch_22">
    <path d="M 297.955948 292.440432 
L 297.955948 299.874931 
Q 292.459804 298.580666 287.221293 297.926008 
Q 281.997094 297.263826 277.34541 297.263826 
Q 271.176562 297.263826 268.213797 298.159277 
Q 265.265345 299.047203 265.265345 300.928402 
Q 265.265345 302.343064 267.254834 303.133167 
Q 269.244324 303.915746 274.482835 304.480106 
L 281.811027 305.25516 
Q 292.946442 306.436552 297.641065 308.836962 
Q 302.35 311.229847 302.35 315.654427 
Q 302.35 321.456045 295.794704 324.292893 
Q 289.239408 327.129741 275.770994 327.129741 
Q 269.430391 327.129741 263.032537 326.490133 
Q 256.634682 325.85805 250.236828 324.608934 
L 250.236828 316.971266 
Q 256.634682 318.754643 262.60315 319.665143 
Q 268.571619 320.568119 274.125014 320.568119 
Q 279.764286 320.568119 282.755676 319.582371 
Q 285.747067 318.589098 285.747067 316.753047 
Q 285.747067 315.112642 283.714639 314.217191 
Q 281.682211 313.321741 275.59924 312.61441 
L 268.929441 311.839356 
Q 258.910429 310.710636 254.273058 308.242503 
Q 249.65 305.77437 249.65 301.590584 
Q 249.65 296.345801 256.090793 293.524003 
Q 262.531586 290.702205 274.611651 290.702205 
Q 280.122108 290.702205 285.933134 291.138643 
Q 291.744161 291.575081 297.955948 292.440432 
z
" clip-path="url(#p402b46eabb)" style="fill: #40ba47"/>
   </g>
   <g id="patch_23">
    <path d="M 271.032787 265.736079 
Q 275.762274 265.736079 277.814221 264.500302 
Q 279.866168 263.255699 279.866168 260.413414 
Q 279.866168 257.59761 277.814221 256.388315 
Q 275.762274 255.170193 271.032787 255.170193 
L 264.701781 255.170193 
L 264.701781 265.736079 
L 271.032787 265.736079 
z
M 264.701781 273.071293 
L 264.701781 288.659726 
L 249.65 288.659726 
L 249.65 247.473073 
L 272.634307 247.473073 
Q 284.170252 247.473073 289.537844 250.209434 
Q 294.917949 252.936969 294.917949 258.842213 
Q 294.917949 262.920274 292.11529 265.541885 
Q 289.325142 268.163496 283.694801 269.408099 
Q 286.785233 269.90241 289.225047 271.658977 
Q 291.677374 273.406718 294.179748 276.963987 
L 302.35 288.659726 
L 286.322293 288.659726 
L 279.203039 278.429265 
Q 277.050997 275.339825 274.836396 274.209972 
Q 272.634307 273.071293 268.955817 273.071293 
L 264.701781 273.071293 
z
" clip-path="url(#p402b46eabb)" style="fill: #bd2e1f"/>
   </g>
   <g id="patch_24">
    <path d="M 311.65 381.875507 
L 363.253077 381.875507 
L 363.253077 382.370432 
L 330.774615 382.370432 
L 330.774615 382.842513 
L 361.329487 382.842513 
L 361.329487 383.337438 
L 330.774615 383.337438 
L 330.774615 383.918838 
L 364.35 383.918838 
L 364.35 384.413218 
L 311.65 384.413218 
L 311.65 381.875507 
z
" clip-path="url(#p402b46eabb)" style="fill: #6b296b"/>
   </g>
   <g id="patch_25">
    <path d="M 364.35 381.35017 
Q 359.035119 381.527787 353.318669 381.617001 
Q 347.602219 381.705404 341.507822 381.705404 
Q 327.736374 381.705404 319.693187 381.176608 
Q 311.65 380.647813 311.65 379.743507 
Q 311.65 378.828659 319.834917 378.303918 
Q 328.031645 377.779178 342.287338 377.779178 
Q 347.779381 377.779178 352.810802 377.850549 
Q 357.854034 377.921109 362.318534 378.060607 
L 362.318534 378.843257 
Q 357.712304 378.664018 353.153317 378.575615 
Q 348.59433 378.486401 344.011721 378.486401 
Q 335.531533 378.486401 330.937113 378.812438 
Q 326.342694 379.137663 326.342694 379.743507 
Q 326.342694 380.343674 330.771762 380.671333 
Q 335.200829 380.99818 343.350314 380.99818 
Q 345.570753 380.99818 347.472299 380.979526 
Q 349.373846 380.960062 350.885634 380.91951 
L 350.885634 380.184711 
L 342.204662 380.184711 
L 342.204662 379.530205 
L 364.35 379.530205 
L 364.35 381.35017 
z
" clip-path="url(#p402b46eabb)" style="fill: #787800"/>
   </g>
   <g id="patch_26">
    <path d="M 359.955948 371.538425 
L 359.955948 372.818407 
Q 354.459804 372.595576 349.221293 372.482865 
Q 343.997094 372.368859 339.34541 372.368859 
Q 333.176562 372.368859 330.213797 372.523027 
Q 327.265345 372.675899 327.265345 372.999781 
Q 327.265345 373.243341 329.254834 373.379371 
Q 331.244324 373.514106 336.482835 373.611271 
L 343.811027 373.74471 
Q 354.946442 373.948108 359.641065 374.361382 
Q 364.35 374.77336 364.35 375.535131 
Q 364.35 376.533984 357.794704 377.022398 
Q 351.239408 377.510812 337.770994 377.510812 
Q 331.430391 377.510812 325.032537 377.400693 
Q 318.634682 377.291868 312.236828 377.07681 
L 312.236828 375.761849 
Q 318.634682 376.068889 324.60315 376.225648 
Q 330.571619 376.381111 336.125014 376.381111 
Q 341.764286 376.381111 344.755676 376.211397 
Q 347.747067 376.040387 347.747067 375.724278 
Q 347.747067 375.441853 345.714639 375.287685 
Q 343.682211 375.133517 337.59924 375.011737 
L 330.929441 374.878298 
Q 320.910429 374.683969 316.273058 374.259035 
Q 311.65 373.834102 311.65 373.113788 
Q 311.65 372.210804 318.090793 371.724981 
Q 324.531586 371.239158 336.611651 371.239158 
Q 342.122108 371.239158 347.933134 371.314298 
Q 353.744161 371.389439 359.955948 371.538425 
z
" clip-path="url(#p402b46eabb)" style="fill: #40ba47"/>
   </g>
   <g id="patch_27">
    <path d="M 326.091481 365.704757 
L 326.091481 369.645822 
L 331.265444 369.645822 
Q 340.112802 369.645822 344.782574 369.139173 
Q 349.464351 368.632524 349.464351 367.667676 
Q 349.464351 366.708365 344.806583 366.207253 
Q 340.16082 365.704757 331.265444 365.704757 
L 326.091481 365.704757 
z
M 311.65 364.445056 
L 326.871777 364.445056 
Q 339.63262 364.445056 345.874989 364.655468 
Q 352.117358 364.864495 356.583052 365.366991 
Q 360.520547 365.804426 362.429271 366.376136 
Q 364.35 366.946462 364.35 367.667676 
Q 364.35 368.399963 362.429271 368.973058 
Q 360.520547 369.546153 356.583052 369.982203 
Q 352.081344 370.484699 345.778952 370.695111 
Q 339.47656 370.904138 326.871777 370.904138 
L 311.65 370.904138 
L 311.65 364.445056 
z
" clip-path="url(#p402b46eabb)" style="fill: #6b296b"/>
   </g>
   <g id="patch_28">
    <path d="M 311.65 354.724417 
L 328.578032 354.724417 
L 349.968106 361.106431 
L 349.968106 354.724417 
L 364.35 354.724417 
L 364.35 364.030191 
L 347.409364 364.030191 
L 326.01929 357.648178 
L 326.01929 364.030191 
L 311.65 364.030191 
L 311.65 354.724417 
z
" clip-path="url(#p402b46eabb)" style="fill: #40ba47"/>
   </g>
   <g id="patch_29">
    <path d="M 311.65 344.440725 
L 339.043021 344.440725 
Q 351.271068 344.440725 357.803672 345.270865 
Q 364.35 346.098909 364.35 347.631314 
Q 364.35 349.172104 357.803672 350.000148 
Q 351.271068 350.828192 339.043021 350.828192 
L 328.159922 350.828192 
L 328.159922 354.222123 
L 311.65 354.222123 
L 311.65 344.440725 
z
M 328.159922 346.26871 
L 328.159922 349.000207 
L 337.286354 349.000207 
Q 342.08974 349.000207 344.711016 348.643833 
Q 347.332292 348.28746 347.332292 347.631314 
Q 347.332292 346.977264 344.711016 346.622987 
Q 342.08974 346.26871 337.286354 346.26871 
L 328.159922 346.26871 
z
" clip-path="url(#p402b46eabb)" style="fill: #787800"/>
   </g>
   <g id="patch_30">
    <path d="M 311.65 332.117771 
L 325.537864 332.117771 
L 325.537864 336.408548 
L 345.555783 332.117771 
L 361.683253 332.117771 
L 335.743078 337.685955 
L 364.35 343.873947 
L 346.964195 343.873947 
L 325.537864 339.243031 
L 325.537864 343.873947 
L 311.65 343.873947 
L 311.65 332.117771 
z
" clip-path="url(#p402b46eabb)" style="fill: #bd2e1f"/>
   </g>
   <g id="patch_31">
    <path d="M 333.032787 322.597902 
Q 337.762274 322.597902 339.814221 322.123796 
Q 341.866168 321.646303 341.866168 320.555859 
Q 341.866168 319.475574 339.814221 319.011627 
Q 337.762274 318.544294 333.032787 318.544294 
L 326.701781 318.544294 
L 326.701781 322.597902 
L 333.032787 322.597902 
z
M 326.701781 325.412062 
L 326.701781 331.392574 
L 311.65 331.392574 
L 311.65 315.591289 
L 334.634307 315.591289 
Q 346.170252 315.591289 351.537844 316.641095 
Q 356.917949 317.687516 356.917949 319.953067 
Q 356.917949 321.517617 354.11529 322.5234 
Q 351.325142 323.529183 345.694801 324.006675 
Q 348.785233 324.196318 351.225047 324.870226 
Q 353.677374 325.540748 356.179748 326.905497 
L 364.35 331.392574 
L 348.322293 331.392574 
L 341.203039 327.467652 
Q 339.050997 326.282386 336.836396 325.848917 
Q 334.634307 325.412062 330.955817 325.412062 
L 326.701781 325.412062 
z
" clip-path="url(#p402b46eabb)" style="fill: #bd2e1f"/>
   </g>
   <g id="patch_32">
    <path d="M 348.155336 311.572546 
L 327.887763 311.572546 
L 324.68762 314.72069 
L 311.65 314.72069 
L 330.269015 297.439232 
L 345.730985 297.439232 
L 364.35 314.72069 
L 351.323155 314.72069 
L 348.155336 311.572546 
z
M 331.120231 308.365143 
L 344.890544 308.365143 
L 338.016162 301.491079 
L 331.120231 308.365143 
z
" clip-path="url(#p402b46eabb)" style="fill: #21599c"/>
   </g>
   <g id="patch_33">
    <path d="M 410.155336 383.81916 
L 389.887763 383.81916 
L 386.68762 384.396586 
L 373.65 384.396586 
L 392.269015 381.226859 
L 407.730985 381.226859 
L 426.35 384.396586 
L 413.323155 384.396586 
L 410.155336 383.81916 
z
M 393.120231 383.230866 
L 406.890544 383.230866 
L 400.016162 381.97004 
L 393.120231 383.230866 
z
" clip-path="url(#p402b46eabb)" style="fill: #21599c"/>
   </g>
   <g id="patch_34">
    <path d="M 421.955948 377.808513 
L 421.955948 378.504024 
Q 416.459804 378.382943 411.221293 378.321699 
Q 405.997094 378.259751 401.34541 378.259751 
Q 395.176562 378.259751 392.213797 378.343522 
Q 389.265345 378.426589 389.265345 378.602579 
Q 389.265345 378.734923 391.254834 378.808839 
Q 393.244324 378.88205 398.482835 378.934847 
L 405.811027 379.007355 
Q 416.946442 379.117877 421.641065 379.34244 
Q 426.35 379.566299 426.35 379.980227 
Q 426.35 380.522979 419.794704 380.788372 
Q 413.239408 381.053764 399.770994 381.053764 
Q 393.430391 381.053764 387.032537 380.993928 
Q 380.634682 380.934795 374.236828 380.817938 
L 374.236828 380.103419 
Q 380.634682 380.270258 386.60315 380.355437 
Q 392.571619 380.439912 398.125014 380.439912 
Q 403.764286 380.439912 406.755676 380.347693 
Q 409.747067 380.254771 409.747067 380.083005 
Q 409.747067 379.929542 407.714639 379.84577 
Q 405.682211 379.761999 399.59924 379.695827 
L 392.929441 379.623319 
Q 382.910429 379.517726 378.273058 379.286827 
Q 373.65 379.055928 373.65 378.664527 
Q 373.65 378.173868 380.090793 377.909883 
Q 386.531586 377.645898 398.611651 377.645898 
Q 404.122108 377.645898 409.933134 377.686728 
Q 415.744161 377.727558 421.955948 377.808513 
z
" clip-path="url(#p402b46eabb)" style="fill: #40ba47"/>
   </g>
   <g id="patch_35">
    <path d="M 401.405333 376.718105 
L 400.373292 376.718105 
Q 387.714313 376.718105 380.676667 376.184003 
Q 373.65 375.649062 373.65 374.695727 
Q 373.65 373.744069 380.665687 373.204936 
Q 387.681375 372.664965 400 372.664965 
Q 412.450375 372.664965 419.400188 373.199905 
Q 426.35 373.734008 426.35 374.695727 
Q 426.35 375.3556 422.661 375.832686 
Q 418.972 376.309773 412.044146 376.550412 
L 422.364563 377.430801 
L 409.771458 377.430801 
L 401.405333 376.718105 
z
M 400 373.396106 
Q 393.961458 373.396106 390.634771 373.736523 
Q 387.308083 374.07694 387.308083 374.695727 
Q 387.308083 375.324576 390.557917 375.659124 
Q 393.818729 375.992833 400 375.992833 
Q 406.071479 375.992833 409.398167 375.652416 
Q 412.724854 375.311161 412.724854 374.695727 
Q 412.724854 374.07694 409.398167 373.736523 
Q 406.071479 373.396106 400 373.396106 
z
" clip-path="url(#p402b46eabb)" style="fill: #40ba47"/>
   </g>
   <g id="patch_36">
    <path d="M 390.437692 353.92403 
L 409.562308 353.92403 
L 409.562308 372.062227 
L 390.437692 372.062227 
L 390.437692 353.92403 
z
" clip-path="url(#p402b46eabb)" style="fill: #21599c"/>
   </g>
   <g id="patch_37">
    <path d="M 373.65 330.737981 
L 386.68762 330.737981 
L 400.016162 347.069637 
L 413.323155 330.737981 
L 426.35 330.737981 
L 407.730985 352.864434 
L 392.269015 352.864434 
L 373.65 330.737981 
z
" clip-path="url(#p402b46eabb)" style="fill: #21599c"/>
   </g>
   <g id="patch_38">
    <path d="M 373.65 164.095837 
L 392.774615 164.095837 
L 392.774615 294.376554 
L 426.35 294.376554 
L 426.35 325.897761 
L 373.65 325.897761 
L 373.65 164.095837 
z
" clip-path="url(#p402b46eabb)" style="fill: #21599c"/>
   </g>
   <g id="patch_39">
    <path d="M 436.198462 383.422989 
L 487.801538 383.422989 
L 487.801538 383.623849 
L 455.323077 383.623849 
L 455.323077 383.81544 
L 485.877949 383.81544 
L 485.877949 384.016301 
L 455.323077 384.016301 
L 455.323077 384.452897 
L 436.198462 384.452897 
L 436.198462 383.422989 
z
" clip-path="url(#p402b46eabb)" style="fill: #21599c"/>
   </g>
   <g id="patch_40">
    <path d="M 435.65 382.215078 
L 487.253077 382.215078 
L 487.253077 382.439463 
L 454.774615 382.439463 
L 454.774615 382.653492 
L 485.329487 382.653492 
L 485.329487 382.877878 
L 454.774615 382.877878 
L 454.774615 383.141469 
L 488.35 383.141469 
L 488.35 383.365609 
L 435.65 383.365609 
L 435.65 382.215078 
z
" clip-path="url(#p402b46eabb)" style="fill: #6b296b"/>
   </g>
   <g id="patch_41">
    <path d="M 435.65 380.598373 
L 488.35 380.598373 
L 488.35 380.899837 
L 469.390256 380.899837 
L 469.390256 382.144123 
L 454.646512 382.144123 
L 454.646512 380.899837 
L 435.65 380.899837 
L 435.65 380.598373 
z
" clip-path="url(#p402b46eabb)" style="fill: #40ba47"/>
   </g>
   <g id="patch_42">
    <path d="M 435.65 378.960136 
L 449.537864 378.960136 
L 449.537864 379.528264 
L 469.555783 378.960136 
L 485.683253 378.960136 
L 459.743078 379.697401 
L 488.35 380.516732 
L 470.964195 380.516732 
L 449.537864 379.903568 
L 449.537864 380.516732 
L 435.65 380.516732 
L 435.65 378.960136 
z
" clip-path="url(#p402b46eabb)" style="fill: #bd2e1f"/>
   </g>
   <g id="patch_43">
    <path d="M 488.35 378.002103 
Q 483.035119 378.357321 477.318669 378.535741 
Q 471.602219 378.712539 465.507822 378.712539 
Q 451.736374 378.712539 443.693187 377.654995 
Q 435.65 376.597452 435.65 374.788923 
Q 435.65 372.959307 443.834917 371.909874 
Q 452.031645 370.86044 466.287338 370.86044 
Q 471.779381 370.86044 476.810802 371.003176 
Q 481.854034 371.14429 486.318534 371.423274 
L 486.318534 372.988503 
Q 481.712304 372.630041 477.153317 372.453244 
Q 472.59433 372.274824 468.011721 372.274824 
Q 459.531533 372.274824 454.937113 372.926867 
Q 450.342694 373.577289 450.342694 374.788923 
Q 450.342694 375.989202 454.771762 376.64449 
Q 459.200829 377.298156 467.350314 377.298156 
Q 469.570753 377.298156 471.472299 377.26085 
Q 473.373846 377.221922 474.885634 377.140822 
L 474.885634 375.67129 
L 466.204662 375.67129 
L 466.204662 374.362337 
L 488.35 374.362337 
L 488.35 378.002103 
z
" clip-path="url(#p402b46eabb)" style="fill: #787800"/>
   </g>
   <g id="patch_44">
    <path d="M 435.65 362.286152 
L 454.774615 362.286152 
L 454.774615 368.850917 
L 488.35 368.850917 
L 488.35 370.439251 
L 435.65 370.439251 
L 435.65 362.286152 
z
" clip-path="url(#p402b46eabb)" style="fill: #21599c"/>
   </g>
   <g id="patch_45">
    <path d="M 472.155336 359.240975 
L 451.887763 359.240975 
L 448.68762 361.714304 
L 435.65 361.714304 
L 454.269015 348.137183 
L 469.730985 348.137183 
L 488.35 361.714304 
L 475.323155 361.714304 
L 472.155336 359.240975 
z
M 455.120231 356.721089 
L 468.890544 356.721089 
L 462.016162 351.320503 
L 455.120231 356.721089 
z
" clip-path="url(#p402b46eabb)" style="fill: #21599c"/>
   </g>
   <g id="patch_46">
    <path d="M 452.437692 330.286151 
L 471.562308 330.286151 
L 471.562308 347.331333 
L 452.437692 347.331333 
L 452.437692 330.286151 
z
" clip-path="url(#p402b46eabb)" style="fill: #21599c"/>
   </g>
   <g id="patch_47">
    <path d="M 435.65 310.905203 
L 448.68762 310.905203 
L 462.016162 324.520993 
L 475.323155 310.905203 
L 488.35 310.905203 
L 469.730985 329.352148 
L 454.269015 329.352148 
L 435.65 310.905203 
z
" clip-path="url(#p402b46eabb)" style="fill: #21599c"/>
   </g>
   <g id="patch_48">
    <path d="M 483.955948 287.040346 
L 483.955948 291.916203 
Q 478.459804 291.067369 473.221293 290.638018 
Q 467.997094 290.203731 463.34541 290.203731 
Q 457.176562 290.203731 454.213797 290.791005 
Q 451.265345 291.373344 451.265345 292.607114 
Q 451.265345 293.534908 453.254834 294.053091 
Q 455.244324 294.56634 460.482835 294.93647 
L 467.811027 295.444783 
Q 478.946442 296.21959 483.641065 297.79388 
Q 488.35 299.363235 488.35 302.265061 
Q 488.35 306.070005 481.794704 307.93053 
Q 475.239408 309.791054 461.770994 309.791054 
Q 455.430391 309.791054 449.032537 309.371572 
Q 442.634682 308.957026 436.236828 308.137803 
L 436.236828 303.128699 
Q 442.634682 304.298313 448.60315 304.895457 
Q 454.571619 305.487666 460.125014 305.487666 
Q 465.764286 305.487666 468.755676 304.841171 
Q 471.747067 304.189741 471.747067 302.985582 
Q 471.747067 301.909735 469.714639 301.322461 
Q 467.682211 300.735186 461.59924 300.271289 
L 454.929441 299.762976 
Q 444.910429 299.022715 440.273058 297.404009 
Q 435.65 295.785304 435.65 293.041401 
Q 435.65 289.601651 442.090793 287.750997 
Q 448.531586 285.900343 460.611651 285.900343 
Q 466.122108 285.900343 471.933134 286.186578 
Q 477.744161 286.472812 483.955948 287.040346 
z
" clip-path="url(#p402b46eabb)" style="fill: #40ba47"/>
   </g>
   <g id="patch_49">
    <path d="M 497.65 384.339627 
L 516.774615 384.339627 
L 516.774615 384.449755 
L 550.35 384.449755 
L 550.35 384.476401 
L 497.65 384.476401 
L 497.65 384.339627 
z
" clip-path="url(#p402b46eabb)" style="fill: #21599c"/>
   </g>
   <g id="patch_50">
    <path d="M 512.091481 383.041389 
L 512.091481 383.991643 
L 517.265444 383.991643 
Q 526.112802 383.991643 530.782574 383.869482 
Q 535.464351 383.747321 535.464351 383.51468 
Q 535.464351 383.283375 530.806583 383.162548 
Q 526.16082 383.041389 517.265444 383.041389 
L 512.091481 383.041389 
z
M 497.65 382.737654 
L 512.871777 382.737654 
Q 525.63262 382.737654 531.874989 382.788388 
Q 538.117358 382.838788 542.583052 382.959948 
Q 546.520547 383.06542 548.429271 383.203269 
Q 550.35 383.340784 550.35 383.51468 
Q 550.35 383.691247 548.429271 383.829429 
Q 546.520547 383.967611 542.583052 384.07275 
Q 538.081344 384.19391 531.778952 384.244644 
Q 525.47656 384.295044 512.871777 384.295044 
L 497.65 384.295044 
L 497.65 382.737654 
z
" clip-path="url(#p402b46eabb)" style="fill: #6b296b"/>
   </g>
   <g id="patch_51">
    <path d="M 497.65 380.64161 
L 550.35 380.64161 
L 550.35 381.032127 
L 531.390256 381.032127 
L 531.390256 382.643976 
L 516.646512 382.643976 
L 516.646512 381.032127 
L 497.65 381.032127 
L 497.65 380.64161 
z
" clip-path="url(#p402b46eabb)" style="fill: #40ba47"/>
   </g>
   <g id="patch_52">
    <path d="M 497.65 365.351674 
L 510.68762 365.351674 
L 524.016162 376.309989 
L 537.323155 365.351674 
L 550.35 365.351674 
L 531.730985 380.198218 
L 516.269015 380.198218 
L 497.65 365.351674 
z
" clip-path="url(#p402b46eabb)" style="fill: #21599c"/>
   </g>
   <g id="patch_53">
    <path d="M 545.955948 327.668923 
L 545.955948 335.446309 
Q 540.459804 334.092351 535.221293 333.4075 
Q 529.997094 332.714777 525.34541 332.714777 
Q 519.176562 332.714777 516.213797 333.651527 
Q 513.265345 334.580405 513.265345 336.548368 
Q 513.265345 338.028275 515.254834 338.854819 
Q 517.244324 339.673491 522.482835 340.26388 
L 529.811027 341.07468 
Q 540.946442 342.31056 545.641065 344.82168 
Q 550.35 347.324928 550.35 351.953575 
Q 550.35 358.02277 543.794704 360.990457 
Q 537.239408 363.958143 523.770994 363.958143 
Q 517.430391 363.958143 511.032537 363.289036 
Q 504.634682 362.627801 498.236828 361.321074 
L 498.236828 353.331148 
Q 504.634682 355.196776 510.60315 356.14927 
Q 516.571619 357.093892 522.125014 357.093892 
Q 527.764286 357.093892 530.755676 356.062679 
Q 533.747067 355.023595 533.747067 353.102865 
Q 533.747067 351.386802 531.714639 350.450052 
Q 529.682211 349.513302 523.59924 348.773348 
L 516.929441 347.962548 
Q 506.910429 346.78177 502.273058 344.199804 
Q 497.65 341.617838 497.65 337.24109 
Q 497.65 331.754412 504.090793 328.802469 
Q 510.531586 325.850526 522.611651 325.850526 
Q 528.122108 325.850526 533.933134 326.307093 
Q 539.744161 326.76366 545.955948 327.668923 
z
" clip-path="url(#p402b46eabb)" style="fill: #40ba47"/>
   </g>
   <g id="patch_54">
    <path d="M 550.35 317.88242 
Q 545.035119 320.580349 539.318669 321.935473 
Q 533.602219 323.278278 527.507822 323.278278 
Q 513.736374 323.278278 505.693187 315.246088 
Q 497.65 307.213897 497.65 293.477866 
Q 497.65 279.581684 505.834917 271.61109 
Q 514.031645 263.640496 528.287338 263.640496 
Q 533.779381 263.640496 538.810802 264.724595 
Q 543.854034 265.796375 548.318534 267.915296 
L 548.318534 279.803431 
Q 543.712304 277.080863 539.153317 275.738059 
Q 534.59433 274.382934 530.011721 274.382934 
Q 521.531533 274.382934 516.937113 279.335297 
Q 512.342694 284.275341 512.342694 293.477866 
Q 512.342694 302.594156 516.771762 307.571157 
Q 521.200829 312.535839 529.350314 312.535839 
Q 531.570753 312.535839 533.472299 312.252495 
Q 535.373846 311.956832 536.885634 311.340866 
L 536.885634 300.179571 
L 528.204662 300.179571 
L 528.204662 290.237887 
L 550.35 290.237887 
L 550.35 317.88242 
z
" clip-path="url(#p402b46eabb)" style="fill: #787800"/>
   </g>
   <g id="patch_55">
    <path d="M 534.155336 248.436463 
L 513.887763 248.436463 
L 510.68762 260.350063 
L 497.65 260.350063 
L 516.269015 194.951409 
L 531.730985 194.951409 
L 550.35 260.350063 
L 537.323155 260.350063 
L 534.155336 248.436463 
z
M 517.120231 236.298608 
L 530.890544 236.298608 
L 524.016162 210.284913 
L 517.120231 236.298608 
z
" clip-path="url(#p402b46eabb)" style="fill: #21599c"/>
   </g>
   <g id="patch_56">
    <path d="M 559.65 383.09764 
L 612.35 383.09764 
L 612.35 383.360326 
L 593.390256 383.360326 
L 593.390256 384.444555 
L 578.646512 384.444555 
L 578.646512 383.360326 
L 559.65 383.360326 
L 559.65 383.09764 
z
" clip-path="url(#p402b46eabb)" style="fill: #40ba47"/>
   </g>
   <g id="patch_57">
    <path d="M 612.35 382.615559 
Q 607.035119 382.788559 601.318669 382.875454 
Q 595.602219 382.961559 589.507822 382.961559 
Q 575.736374 382.961559 567.693187 382.446509 
Q 559.65 381.931459 559.65 381.05066 
Q 559.65 380.159592 567.834917 379.648492 
Q 576.031645 379.137392 590.287338 379.137392 
Q 595.779381 379.137392 600.810802 379.206908 
Q 605.854034 379.275634 610.318534 379.411506 
L 610.318534 380.173812 
Q 605.712304 379.999232 601.153317 379.913127 
Q 596.59433 379.826232 592.011721 379.826232 
Q 583.531533 379.826232 578.937113 380.143793 
Q 574.342694 380.460565 574.342694 381.05066 
Q 574.342694 381.635226 578.771762 381.954368 
Q 583.200829 382.272719 591.350314 382.272719 
Q 593.570753 382.272719 595.472299 382.25455 
Q 597.373846 382.235591 598.885634 382.196094 
L 598.885634 381.480395 
L 590.204662 381.480395 
L 590.204662 380.842902 
L 612.35 380.842902 
L 612.35 382.615559 
z
" clip-path="url(#p402b46eabb)" style="fill: #787800"/>
   </g>
   <g id="patch_58">
    <path d="M 559.65 373.391073 
L 573.537864 373.391073 
L 573.537864 375.398803 
L 593.555783 373.391073 
L 609.683253 373.391073 
L 583.743078 375.996524 
L 612.35 378.891995 
L 594.964195 378.891995 
L 573.537864 376.725108 
L 573.537864 378.891995 
L 559.65 378.891995 
L 559.65 373.391073 
z
" clip-path="url(#p402b46eabb)" style="fill: #bd2e1f"/>
   </g>
   <g id="patch_59">
    <path d="M 559.65 367.378664 
L 611.253077 367.378664 
L 611.253077 368.493676 
L 578.774615 368.493676 
L 578.774615 369.557227 
L 609.329487 369.557227 
L 609.329487 370.672239 
L 578.774615 370.672239 
L 578.774615 371.982072 
L 612.35 371.982072 
L 612.35 373.095859 
L 559.65 373.095859 
L 559.65 367.378664 
z
" clip-path="url(#p402b46eabb)" style="fill: #6b296b"/>
   </g>
   <g id="patch_60">
    <path d="M 574.091481 362.383391 
L 574.091481 365.93945 
L 579.265444 365.93945 
Q 588.112802 365.93945 592.782574 365.482296 
Q 597.464351 365.025142 597.464351 364.154551 
Q 597.464351 363.288956 592.806583 362.836798 
Q 588.16082 362.383391 579.265444 362.383391 
L 574.091481 362.383391 
z
M 559.65 361.246751 
L 574.871777 361.246751 
Q 587.63262 361.246751 593.874989 361.436608 
Q 600.117358 361.625215 604.583052 362.078622 
Q 608.520547 362.473323 610.429271 362.989183 
Q 612.35 363.503793 612.35 364.154551 
Q 612.35 364.815301 610.429271 365.332409 
Q 608.520547 365.849518 604.583052 366.24297 
Q 600.081344 366.696377 593.778952 366.886234 
Q 587.47656 367.074841 574.871777 367.074841 
L 559.65 367.074841 
L 559.65 361.246751 
z
" clip-path="url(#p402b46eabb)" style="fill: #6b296b"/>
   </g>
   <g id="patch_61">
    <path d="M 559.65 346.905057 
L 578.774615 346.905057 
L 578.774615 358.036373 
L 612.35 358.036373 
L 612.35 360.729577 
L 559.65 360.729577 
L 559.65 346.905057 
z
" clip-path="url(#p402b46eabb)" style="fill: #21599c"/>
   </g>
   <g id="patch_62">
    <path d="M 607.955948 331.816834 
L 607.955948 334.887663 
Q 602.459804 334.353065 597.221293 334.082658 
Q 591.997094 333.809143 587.34541 333.809143 
Q 581.176562 333.809143 578.213797 334.17901 
Q 575.265345 334.545769 575.265345 335.322801 
Q 575.265345 335.907128 577.254834 336.233481 
Q 579.244324 336.556727 584.482835 336.789836 
L 591.811027 337.109973 
Q 602.946442 337.597949 607.641065 338.589441 
Q 612.35 339.577825 612.35 341.405403 
Q 612.35 343.801768 605.794704 344.973532 
Q 599.239408 346.145295 585.770994 346.145295 
Q 579.430391 346.145295 573.032537 345.881104 
Q 566.634682 345.620022 560.236828 345.104073 
L 560.236828 341.949325 
Q 566.634682 342.685951 572.60315 343.062034 
Q 578.571619 343.435009 584.125014 343.435009 
Q 589.764286 343.435009 592.755676 343.027845 
Q 595.747067 342.617572 595.747067 341.859189 
Q 595.747067 341.181618 593.714639 340.811751 
Q 591.682211 340.441884 585.59924 340.14972 
L 578.929441 339.829583 
Q 568.910429 339.363364 564.273058 338.343899 
Q 559.65 337.324434 559.65 335.596316 
Q 559.65 333.429952 566.090793 332.264405 
Q 572.531586 331.098857 584.611651 331.098857 
Q 590.122108 331.098857 595.933134 331.279129 
Q 601.744161 331.4594 607.955948 331.816834 
z
" clip-path="url(#p402b46eabb)" style="fill: #40ba47"/>
   </g>
   <g id="patch_63">
    <path d="M 559.65 301.25747 
L 587.043021 301.25747 
Q 599.271068 301.25747 605.803672 303.692405 
Q 612.35 306.121191 612.35 310.615982 
Q 612.35 315.135368 605.803672 317.564154 
Q 599.271068 319.99294 587.043021 319.99294 
L 576.159922 319.99294 
L 576.159922 329.947888 
L 559.65 329.947888 
L 559.65 301.25747 
z
M 576.159922 306.619245 
L 576.159922 314.631164 
L 585.286354 314.631164 
Q 590.08974 314.631164 592.711016 313.585864 
Q 595.332292 312.540564 595.332292 310.615982 
Q 595.332292 308.697548 592.711016 307.658397 
Q 590.08974 306.619245 585.286354 306.619245 
L 576.159922 306.619245 
z
" clip-path="url(#p402b46eabb)" style="fill: #787800"/>
   </g>
   <g id="patch_64">
    <path d="M 596.155336 294.342962 
L 575.887763 294.342962 
L 572.68762 299.724982 
L 559.65 299.724982 
L 578.269015 270.180861 
L 593.730985 270.180861 
L 612.35 299.724982 
L 599.323155 299.724982 
L 596.155336 294.342962 
z
M 579.120231 288.859634 
L 592.890544 288.859634 
L 586.016162 277.107836 
L 579.120231 288.859634 
z
" clip-path="url(#p402b46eabb)" style="fill: #21599c"/>
   </g>
   <g id="matplotlib.axis_1">
    <g id="xtick_1">
     <g id="line2d_2">
      <defs>
       <path id="md4658e6008" d="M 0 0 
L 0 4.8 
" style="stroke: #262626"/>
      </defs>
      <g>
       <use xlink:href="#md4658e6008" x="152" y="384.48" style="fill: #262626; stroke: #262626"/>
      </g>
     </g>
     <g id="text_1">
      <!-- P4 -->
      <g style="fill: #262626" transform="translate(146.61825 399.078875) scale(0.088 -0.088)">
       <defs>
        <path id="ArialMT-50" d="M 494 0 
L 494 4581 
L 2222 4581 
Q 2678 4581 2919 4538 
Q 3256 4481 3484 4323 
Q 3713 4166 3852 3881 
Q 3991 3597 3991 3256 
Q 3991 2672 3619 2267 
Q 3247 1863 2275 1863 
L 1100 1863 
L 1100 0 
L 494 0 
z
M 1100 2403 
L 2284 2403 
Q 2872 2403 3119 2622 
Q 3366 2841 3366 3238 
Q 3366 3525 3220 3729 
Q 3075 3934 2838 4000 
Q 2684 4041 2272 4041 
L 1100 4041 
L 1100 2403 
z
" transform="scale(0.015625)"/>
        <path id="ArialMT-34" d="M 2069 0 
L 2069 1097 
L 81 1097 
L 81 1613 
L 2172 4581 
L 2631 4581 
L 2631 1613 
L 3250 1613 
L 3250 1097 
L 2631 1097 
L 2631 0 
L 2069 0 
z
M 2069 1613 
L 2069 3678 
L 634 1613 
L 2069 1613 
z
" transform="scale(0.015625)"/>
       </defs>
       <use xlink:href="#ArialMT-50"/>
       <use xlink:href="#ArialMT-34" x="66.699219"/>
      </g>
     </g>
    </g>
    <g id="xtick_2">
     <g id="line2d_3">
      <g>
       <use xlink:href="#md4658e6008" x="214" y="384.48" style="fill: #262626; stroke: #262626"/>
      </g>
     </g>
     <g id="text_2">
      <!-- P3 -->
      <g style="fill: #262626" transform="translate(208.61825 399.078875) scale(0.088 -0.088)">
       <defs>
        <path id="ArialMT-33" d="M 269 1209 
L 831 1284 
Q 928 806 1161 595 
Q 1394 384 1728 384 
Q 2125 384 2398 659 
Q 2672 934 2672 1341 
Q 2672 1728 2419 1979 
Q 2166 2231 1775 2231 
Q 1616 2231 1378 2169 
L 1441 2663 
Q 1497 2656 1531 2656 
Q 1891 2656 2178 2843 
Q 2466 3031 2466 3422 
Q 2466 3731 2256 3934 
Q 2047 4138 1716 4138 
Q 1388 4138 1169 3931 
Q 950 3725 888 3313 
L 325 3413 
Q 428 3978 793 4289 
Q 1159 4600 1703 4600 
Q 2078 4600 2393 4439 
Q 2709 4278 2876 4000 
Q 3044 3722 3044 3409 
Q 3044 3113 2884 2869 
Q 2725 2625 2413 2481 
Q 2819 2388 3044 2092 
Q 3269 1797 3269 1353 
Q 3269 753 2831 336 
Q 2394 -81 1725 -81 
Q 1122 -81 723 278 
Q 325 638 269 1209 
z
" transform="scale(0.015625)"/>
       </defs>
       <use xlink:href="#ArialMT-50"/>
       <use xlink:href="#ArialMT-33" x="66.699219"/>
      </g>
     </g>
    </g>
    <g id="xtick_3">
     <g id="line2d_4">
      <g>
       <use xlink:href="#md4658e6008" x="276" y="384.48" style="fill: #262626; stroke: #262626"/>
      </g>
     </g>
     <g id="text_3">
      <!-- P2 -->
      <g style="fill: #262626" transform="translate(270.61825 399.078875) scale(0.088 -0.088)">
       <defs>
        <path id="ArialMT-32" d="M 3222 541 
L 3222 0 
L 194 0 
Q 188 203 259 391 
Q 375 700 629 1000 
Q 884 1300 1366 1694 
Q 2113 2306 2375 2664 
Q 2638 3022 2638 3341 
Q 2638 3675 2398 3904 
Q 2159 4134 1775 4134 
Q 1369 4134 1125 3890 
Q 881 3647 878 3216 
L 300 3275 
Q 359 3922 746 4261 
Q 1134 4600 1788 4600 
Q 2447 4600 2831 4234 
Q 3216 3869 3216 3328 
Q 3216 3053 3103 2787 
Q 2991 2522 2730 2228 
Q 2469 1934 1863 1422 
Q 1356 997 1212 845 
Q 1069 694 975 541 
L 3222 541 
z
" transform="scale(0.015625)"/>
       </defs>
       <use xlink:href="#ArialMT-50"/>
       <use xlink:href="#ArialMT-32" x="66.699219"/>
      </g>
     </g>
    </g>
    <g id="xtick_4">
     <g id="line2d_5">
      <g>
       <use xlink:href="#md4658e6008" x="338" y="384.48" style="fill: #262626; stroke: #262626"/>
      </g>
     </g>
     <g id="text_4">
      <!-- P1 -->
      <g style="fill: #262626" transform="translate(332.61825 399.078875) scale(0.088 -0.088)">
       <defs>
        <path id="ArialMT-31" d="M 2384 0 
L 1822 0 
L 1822 3584 
Q 1619 3391 1289 3197 
Q 959 3003 697 2906 
L 697 3450 
Q 1169 3672 1522 3987 
Q 1875 4303 2022 4600 
L 2384 4600 
L 2384 0 
z
" transform="scale(0.015625)"/>
       </defs>
       <use xlink:href="#ArialMT-50"/>
       <use xlink:href="#ArialMT-31" x="66.699219"/>
      </g>
     </g>
    </g>
    <g id="xtick_5">
     <g id="line2d_6">
      <g>
       <use xlink:href="#md4658e6008" x="400" y="384.48" style="fill: #262626; stroke: #262626"/>
      </g>
     </g>
     <g id="text_5">
      <!-- P1' -->
      <g style="fill: #262626" transform="translate(393.778125 399.078875) scale(0.088 -0.088)">
       <defs>
        <path id="ArialMT-27" d="M 425 2959 
L 281 3816 
L 281 4581 
L 922 4581 
L 922 3816 
L 772 2959 
L 425 2959 
z
" transform="scale(0.015625)"/>
       </defs>
       <use xlink:href="#ArialMT-50"/>
       <use xlink:href="#ArialMT-31" x="66.699219"/>
       <use xlink:href="#ArialMT-27" x="122.314453"/>
      </g>
     </g>
    </g>
    <g id="xtick_6">
     <g id="line2d_7">
      <g>
       <use xlink:href="#md4658e6008" x="462" y="384.48" style="fill: #262626; stroke: #262626"/>
      </g>
     </g>
     <g id="text_6">
      <!-- P2' -->
      <g style="fill: #262626" transform="translate(455.778125 399.078875) scale(0.088 -0.088)">
       <use xlink:href="#ArialMT-50"/>
       <use xlink:href="#ArialMT-32" x="66.699219"/>
       <use xlink:href="#ArialMT-27" x="122.314453"/>
      </g>
     </g>
    </g>
    <g id="xtick_7">
     <g id="line2d_8">
      <g>
       <use xlink:href="#md4658e6008" x="524" y="384.48" style="fill: #262626; stroke: #262626"/>
      </g>
     </g>
     <g id="text_7">
      <!-- P3' -->
      <g style="fill: #262626" transform="translate(517.778125 399.078875) scale(0.088 -0.088)">
       <use xlink:href="#ArialMT-50"/>
       <use xlink:href="#ArialMT-33" x="66.699219"/>
       <use xlink:href="#ArialMT-27" x="122.314453"/>
      </g>
     </g>
    </g>
    <g id="xtick_8">
     <g id="line2d_9">
      <g>
       <use xlink:href="#md4658e6008" x="586" y="384.48" style="fill: #262626; stroke: #262626"/>
      </g>
     </g>
     <g id="text_8">
      <!-- P4' -->
      <g style="fill: #262626" transform="translate(579.778125 399.078875) scale(0.088 -0.088)">
       <use xlink:href="#ArialMT-50"/>
       <use xlink:href="#ArialMT-34" x="66.699219"/>
       <use xlink:href="#ArialMT-27" x="122.314453"/>
      </g>
     </g>
    </g>
   </g>
   <g id="matplotlib.axis_2">
    <g id="ytick_1">
     <g id="line2d_10">
      <defs>
       <path id="m7656ae7c80" d="M 0 0 
L -4.8 0 
" style="stroke: #262626"/>
      </defs>
      <g>
       <use xlink:href="#m7656ae7c80" x="90" y="384.48" style="fill: #262626; stroke: #262626"/>
      </g>
     </g>
     <g id="text_9">
      <!-- 0.0 -->
      <g style="fill: #262626" transform="translate(69.468 387.629437) scale(0.088 -0.088)">
       <defs>
        <path id="ArialMT-30" d="M 266 2259 
Q 266 3072 433 3567 
Q 600 4063 929 4331 
Q 1259 4600 1759 4600 
Q 2128 4600 2406 4451 
Q 2684 4303 2865 4023 
Q 3047 3744 3150 3342 
Q 3253 2941 3253 2259 
Q 3253 1453 3087 958 
Q 2922 463 2592 192 
Q 2263 -78 1759 -78 
Q 1097 -78 719 397 
Q 266 969 266 2259 
z
M 844 2259 
Q 844 1131 1108 757 
Q 1372 384 1759 384 
Q 2147 384 2411 759 
Q 2675 1134 2675 2259 
Q 2675 3391 2411 3762 
Q 2147 4134 1753 4134 
Q 1366 4134 1134 3806 
Q 844 3388 844 2259 
z
" transform="scale(0.015625)"/>
        <path id="ArialMT-2e" d="M 581 0 
L 581 641 
L 1222 641 
L 1222 0 
L 581 0 
z
" transform="scale(0.015625)"/>
       </defs>
       <use xlink:href="#ArialMT-30"/>
       <use xlink:href="#ArialMT-2e" x="55.615234"/>
       <use xlink:href="#ArialMT-30" x="83.398438"/>
      </g>
     </g>
    </g>
    <g id="ytick_2">
     <g id="line2d_11">
      <g>
       <use xlink:href="#m7656ae7c80" x="90" y="344.408341" style="fill: #262626; stroke: #262626"/>
      </g>
     </g>
     <g id="text_10">
      <!-- 0.2 -->
      <g style="fill: #262626" transform="translate(69.468 347.557779) scale(0.088 -0.088)">
       <use xlink:href="#ArialMT-30"/>
       <use xlink:href="#ArialMT-2e" x="55.615234"/>
       <use xlink:href="#ArialMT-32" x="83.398438"/>
      </g>
     </g>
    </g>
    <g id="ytick_3">
     <g id="line2d_12">
      <g>
       <use xlink:href="#m7656ae7c80" x="90" y="304.336683" style="fill: #262626; stroke: #262626"/>
      </g>
     </g>
     <g id="text_11">
      <!-- 0.4 -->
      <g style="fill: #262626" transform="translate(69.468 307.48612) scale(0.088 -0.088)">
       <use xlink:href="#ArialMT-30"/>
       <use xlink:href="#ArialMT-2e" x="55.615234"/>
       <use xlink:href="#ArialMT-34" x="83.398438"/>
      </g>
     </g>
    </g>
    <g id="ytick_4">
     <g id="line2d_13">
      <g>
       <use xlink:href="#m7656ae7c80" x="90" y="264.265024" style="fill: #262626; stroke: #262626"/>
      </g>
     </g>
     <g id="text_12">
      <!-- 0.6 -->
      <g style="fill: #262626" transform="translate(69.468 267.414461) scale(0.088 -0.088)">
       <defs>
        <path id="ArialMT-36" d="M 3184 3459 
L 2625 3416 
Q 2550 3747 2413 3897 
Q 2184 4138 1850 4138 
Q 1581 4138 1378 3988 
Q 1113 3794 959 3422 
Q 806 3050 800 2363 
Q 1003 2672 1297 2822 
Q 1591 2972 1913 2972 
Q 2475 2972 2870 2558 
Q 3266 2144 3266 1488 
Q 3266 1056 3080 686 
Q 2894 316 2569 119 
Q 2244 -78 1831 -78 
Q 1128 -78 684 439 
Q 241 956 241 2144 
Q 241 3472 731 4075 
Q 1159 4600 1884 4600 
Q 2425 4600 2770 4297 
Q 3116 3994 3184 3459 
z
M 888 1484 
Q 888 1194 1011 928 
Q 1134 663 1356 523 
Q 1578 384 1822 384 
Q 2178 384 2434 671 
Q 2691 959 2691 1453 
Q 2691 1928 2437 2201 
Q 2184 2475 1800 2475 
Q 1419 2475 1153 2201 
Q 888 1928 888 1484 
z
" transform="scale(0.015625)"/>
       </defs>
       <use xlink:href="#ArialMT-30"/>
       <use xlink:href="#ArialMT-2e" x="55.615234"/>
       <use xlink:href="#ArialMT-36" x="83.398438"/>
      </g>
     </g>
    </g>
    <g id="ytick_5">
     <g id="line2d_14">
      <g>
       <use xlink:href="#m7656ae7c80" x="90" y="224.193365" style="fill: #262626; stroke: #262626"/>
      </g>
     </g>
     <g id="text_13">
      <!-- 0.8 -->
      <g style="fill: #262626" transform="translate(69.468 227.342803) scale(0.088 -0.088)">
       <defs>
        <path id="ArialMT-38" d="M 1131 2484 
Q 781 2613 612 2850 
Q 444 3088 444 3419 
Q 444 3919 803 4259 
Q 1163 4600 1759 4600 
Q 2359 4600 2725 4251 
Q 3091 3903 3091 3403 
Q 3091 3084 2923 2848 
Q 2756 2613 2416 2484 
Q 2838 2347 3058 2040 
Q 3278 1734 3278 1309 
Q 3278 722 2862 322 
Q 2447 -78 1769 -78 
Q 1091 -78 675 323 
Q 259 725 259 1325 
Q 259 1772 486 2073 
Q 713 2375 1131 2484 
z
M 1019 3438 
Q 1019 3113 1228 2906 
Q 1438 2700 1772 2700 
Q 2097 2700 2305 2904 
Q 2513 3109 2513 3406 
Q 2513 3716 2298 3927 
Q 2084 4138 1766 4138 
Q 1444 4138 1231 3931 
Q 1019 3725 1019 3438 
z
M 838 1322 
Q 838 1081 952 856 
Q 1066 631 1291 507 
Q 1516 384 1775 384 
Q 2178 384 2440 643 
Q 2703 903 2703 1303 
Q 2703 1709 2433 1975 
Q 2163 2241 1756 2241 
Q 1359 2241 1098 1978 
Q 838 1716 838 1322 
z
" transform="scale(0.015625)"/>
       </defs>
       <use xlink:href="#ArialMT-30"/>
       <use xlink:href="#ArialMT-2e" x="55.615234"/>
       <use xlink:href="#ArialMT-38" x="83.398438"/>
      </g>
     </g>
    </g>
    <g id="ytick_6">
     <g id="line2d_15">
      <g>
       <use xlink:href="#m7656ae7c80" x="90" y="184.121707" style="fill: #262626; stroke: #262626"/>
      </g>
     </g>
     <g id="text_14">
      <!-- 1.0 -->
      <g style="fill: #262626" transform="translate(69.468 187.271144) scale(0.088 -0.088)">
       <use xlink:href="#ArialMT-31"/>
       <use xlink:href="#ArialMT-2e" x="55.615234"/>
       <use xlink:href="#ArialMT-30" x="83.398438"/>
      </g>
     </g>
    </g>
    <g id="ytick_7">
     <g id="line2d_16">
      <g>
       <use xlink:href="#m7656ae7c80" x="90" y="144.050048" style="fill: #262626; stroke: #262626"/>
      </g>
     </g>
     <g id="text_15">
      <!-- 1.2 -->
      <g style="fill: #262626" transform="translate(69.468 147.199485) scale(0.088 -0.088)">
       <use xlink:href="#ArialMT-31"/>
       <use xlink:href="#ArialMT-2e" x="55.615234"/>
       <use xlink:href="#ArialMT-32" x="83.398438"/>
      </g>
     </g>
    </g>
    <g id="ytick_8">
     <g id="line2d_17">
      <g>
       <use xlink:href="#m7656ae7c80" x="90" y="103.978389" style="fill: #262626; stroke: #262626"/>
      </g>
     </g>
     <g id="text_16">
      <!-- 1.4 -->
      <g style="fill: #262626" transform="translate(69.468 107.127827) scale(0.088 -0.088)">
       <use xlink:href="#ArialMT-31"/>
       <use xlink:href="#ArialMT-2e" x="55.615234"/>
       <use xlink:href="#ArialMT-34" x="83.398438"/>
      </g>
     </g>
    </g>
    <g id="ytick_9">
     <g id="line2d_18">
      <g>
       <use xlink:href="#m7656ae7c80" x="90" y="63.90673" style="fill: #262626; stroke: #262626"/>
      </g>
     </g>
     <g id="text_17">
      <!-- 1.6 -->
      <g style="fill: #262626" transform="translate(69.468 67.056168) scale(0.088 -0.088)">
       <use xlink:href="#ArialMT-31"/>
       <use xlink:href="#ArialMT-2e" x="55.615234"/>
       <use xlink:href="#ArialMT-36" x="83.398438"/>
      </g>
     </g>
    </g>
    <g id="text_18">
     <!-- information (bits) -->
     <g style="fill: #262626" transform="translate(63.4475 253.902) rotate(-90) scale(0.096 -0.096)">
      <defs>
       <path id="ArialMT-69" d="M 425 3934 
L 425 4581 
L 988 4581 
L 988 3934 
L 425 3934 
z
M 425 0 
L 425 3319 
L 988 3319 
L 988 0 
L 425 0 
z
" transform="scale(0.015625)"/>
       <path id="ArialMT-6e" d="M 422 0 
L 422 3319 
L 928 3319 
L 928 2847 
Q 1294 3394 1984 3394 
Q 2284 3394 2536 3286 
Q 2788 3178 2913 3003 
Q 3038 2828 3088 2588 
Q 3119 2431 3119 2041 
L 3119 0 
L 2556 0 
L 2556 2019 
Q 2556 2363 2490 2533 
Q 2425 2703 2258 2804 
Q 2091 2906 1866 2906 
Q 1506 2906 1245 2678 
Q 984 2450 984 1813 
L 984 0 
L 422 0 
z
" transform="scale(0.015625)"/>
       <path id="ArialMT-66" d="M 556 0 
L 556 2881 
L 59 2881 
L 59 3319 
L 556 3319 
L 556 3672 
Q 556 4006 616 4169 
Q 697 4388 901 4523 
Q 1106 4659 1475 4659 
Q 1713 4659 2000 4603 
L 1916 4113 
Q 1741 4144 1584 4144 
Q 1328 4144 1222 4034 
Q 1116 3925 1116 3625 
L 1116 3319 
L 1763 3319 
L 1763 2881 
L 1116 2881 
L 1116 0 
L 556 0 
z
" transform="scale(0.015625)"/>
       <path id="ArialMT-6f" d="M 213 1659 
Q 213 2581 725 3025 
Q 1153 3394 1769 3394 
Q 2453 3394 2887 2945 
Q 3322 2497 3322 1706 
Q 3322 1066 3130 698 
Q 2938 331 2570 128 
Q 2203 -75 1769 -75 
Q 1072 -75 642 372 
Q 213 819 213 1659 
z
M 791 1659 
Q 791 1022 1069 705 
Q 1347 388 1769 388 
Q 2188 388 2466 706 
Q 2744 1025 2744 1678 
Q 2744 2294 2464 2611 
Q 2184 2928 1769 2928 
Q 1347 2928 1069 2612 
Q 791 2297 791 1659 
z
" transform="scale(0.015625)"/>
       <path id="ArialMT-72" d="M 416 0 
L 416 3319 
L 922 3319 
L 922 2816 
Q 1116 3169 1280 3281 
Q 1444 3394 1641 3394 
Q 1925 3394 2219 3213 
L 2025 2691 
Q 1819 2813 1613 2813 
Q 1428 2813 1281 2702 
Q 1134 2591 1072 2394 
Q 978 2094 978 1738 
L 978 0 
L 416 0 
z
" transform="scale(0.015625)"/>
       <path id="ArialMT-6d" d="M 422 0 
L 422 3319 
L 925 3319 
L 925 2853 
Q 1081 3097 1340 3245 
Q 1600 3394 1931 3394 
Q 2300 3394 2536 3241 
Q 2772 3088 2869 2813 
Q 3263 3394 3894 3394 
Q 4388 3394 4653 3120 
Q 4919 2847 4919 2278 
L 4919 0 
L 4359 0 
L 4359 2091 
Q 4359 2428 4304 2576 
Q 4250 2725 4106 2815 
Q 3963 2906 3769 2906 
Q 3419 2906 3187 2673 
Q 2956 2441 2956 1928 
L 2956 0 
L 2394 0 
L 2394 2156 
Q 2394 2531 2256 2718 
Q 2119 2906 1806 2906 
Q 1569 2906 1367 2781 
Q 1166 2656 1075 2415 
Q 984 2175 984 1722 
L 984 0 
L 422 0 
z
" transform="scale(0.015625)"/>
       <path id="ArialMT-61" d="M 2588 409 
Q 2275 144 1986 34 
Q 1697 -75 1366 -75 
Q 819 -75 525 192 
Q 231 459 231 875 
Q 231 1119 342 1320 
Q 453 1522 633 1644 
Q 813 1766 1038 1828 
Q 1203 1872 1538 1913 
Q 2219 1994 2541 2106 
Q 2544 2222 2544 2253 
Q 2544 2597 2384 2738 
Q 2169 2928 1744 2928 
Q 1347 2928 1158 2789 
Q 969 2650 878 2297 
L 328 2372 
Q 403 2725 575 2942 
Q 747 3159 1072 3276 
Q 1397 3394 1825 3394 
Q 2250 3394 2515 3294 
Q 2781 3194 2906 3042 
Q 3031 2891 3081 2659 
Q 3109 2516 3109 2141 
L 3109 1391 
Q 3109 606 3145 398 
Q 3181 191 3288 0 
L 2700 0 
Q 2613 175 2588 409 
z
M 2541 1666 
Q 2234 1541 1622 1453 
Q 1275 1403 1131 1340 
Q 988 1278 909 1158 
Q 831 1038 831 891 
Q 831 666 1001 516 
Q 1172 366 1500 366 
Q 1825 366 2078 508 
Q 2331 650 2450 897 
Q 2541 1088 2541 1459 
L 2541 1666 
z
" transform="scale(0.015625)"/>
       <path id="ArialMT-74" d="M 1650 503 
L 1731 6 
Q 1494 -44 1306 -44 
Q 1000 -44 831 53 
Q 663 150 594 308 
Q 525 466 525 972 
L 525 2881 
L 113 2881 
L 113 3319 
L 525 3319 
L 525 4141 
L 1084 4478 
L 1084 3319 
L 1650 3319 
L 1650 2881 
L 1084 2881 
L 1084 941 
Q 1084 700 1114 631 
Q 1144 563 1211 522 
Q 1278 481 1403 481 
Q 1497 481 1650 503 
z
" transform="scale(0.015625)"/>
       <path id="ArialMT-20" transform="scale(0.015625)"/>
       <path id="ArialMT-28" d="M 1497 -1347 
Q 1031 -759 709 28 
Q 388 816 388 1659 
Q 388 2403 628 3084 
Q 909 3875 1497 4659 
L 1900 4659 
Q 1522 4009 1400 3731 
Q 1209 3300 1100 2831 
Q 966 2247 966 1656 
Q 966 153 1900 -1347 
L 1497 -1347 
z
" transform="scale(0.015625)"/>
       <path id="ArialMT-62" d="M 941 0 
L 419 0 
L 419 4581 
L 981 4581 
L 981 2947 
Q 1338 3394 1891 3394 
Q 2197 3394 2470 3270 
Q 2744 3147 2920 2923 
Q 3097 2700 3197 2384 
Q 3297 2069 3297 1709 
Q 3297 856 2875 390 
Q 2453 -75 1863 -75 
Q 1275 -75 941 416 
L 941 0 
z
M 934 1684 
Q 934 1088 1097 822 
Q 1363 388 1816 388 
Q 2184 388 2453 708 
Q 2722 1028 2722 1663 
Q 2722 2313 2464 2622 
Q 2206 2931 1841 2931 
Q 1472 2931 1203 2611 
Q 934 2291 934 1684 
z
" transform="scale(0.015625)"/>
       <path id="ArialMT-73" d="M 197 991 
L 753 1078 
Q 800 744 1014 566 
Q 1228 388 1613 388 
Q 2000 388 2187 545 
Q 2375 703 2375 916 
Q 2375 1106 2209 1216 
Q 2094 1291 1634 1406 
Q 1016 1563 777 1677 
Q 538 1791 414 1992 
Q 291 2194 291 2438 
Q 291 2659 392 2848 
Q 494 3038 669 3163 
Q 800 3259 1026 3326 
Q 1253 3394 1513 3394 
Q 1903 3394 2198 3281 
Q 2494 3169 2634 2976 
Q 2775 2784 2828 2463 
L 2278 2388 
Q 2241 2644 2061 2787 
Q 1881 2931 1553 2931 
Q 1166 2931 1000 2803 
Q 834 2675 834 2503 
Q 834 2394 903 2306 
Q 972 2216 1119 2156 
Q 1203 2125 1616 2013 
Q 2213 1853 2448 1751 
Q 2684 1650 2818 1456 
Q 2953 1263 2953 975 
Q 2953 694 2789 445 
Q 2625 197 2315 61 
Q 2006 -75 1616 -75 
Q 969 -75 630 194 
Q 291 463 197 991 
z
" transform="scale(0.015625)"/>
       <path id="ArialMT-29" d="M 791 -1347 
L 388 -1347 
Q 1322 153 1322 1656 
Q 1322 2244 1188 2822 
Q 1081 3291 891 3722 
Q 769 4003 388 4659 
L 791 4659 
Q 1378 3875 1659 3084 
Q 1900 2403 1900 1659 
Q 1900 816 1576 28 
Q 1253 -759 791 -1347 
z
" transform="scale(0.015625)"/>
      </defs>
      <use xlink:href="#ArialMT-69"/>
      <use xlink:href="#ArialMT-6e" x="22.216797"/>
      <use xlink:href="#ArialMT-66" x="77.832031"/>
      <use xlink:href="#ArialMT-6f" x="105.615234"/>
      <use xlink:href="#ArialMT-72" x="161.230469"/>
      <use xlink:href="#ArialMT-6d" x="194.53125"/>
      <use xlink:href="#ArialMT-61" x="277.832031"/>
      <use xlink:href="#ArialMT-74" x="333.447266"/>
      <use xlink:href="#ArialMT-69" x="361.230469"/>
      <use xlink:href="#ArialMT-6f" x="383.447266"/>
      <use xlink:href="#ArialMT-6e" x="439.0625"/>
      <use xlink:href="#ArialMT-20" x="494.677734"/>
      <use xlink:href="#ArialMT-28" x="522.460938"/>
      <use xlink:href="#ArialMT-62" x="555.761719"/>
      <use xlink:href="#ArialMT-69" x="611.376953"/>
      <use xlink:href="#ArialMT-74" x="633.59375"/>
      <use xlink:href="#ArialMT-73" x="661.376953"/>
      <use xlink:href="#ArialMT-29" x="711.376953"/>
     </g>
    </g>
   </g>
   <g id="line2d_19">
    <path d="M 369 384.48 
L 369 51.84 
" clip-path="url(#p402b46eabb)" style="fill: none; stroke: #daa520; stroke-width: 2; stroke-linecap: round"/>
   </g>
   <g id="patch_65">
    <path d="M 90 384.48 
L 648 384.48 
" style="fill: none; stroke: #262626; stroke-linejoin: miter; stroke-linecap: square"/>
   </g>
   <g id="patch_66">
    <path d="M 90 51.84 
L 648 51.84 
" style="fill: none; stroke: #262626; stroke-linejoin: miter; stroke-linecap: square"/>
   </g>
   <g id="text_19">
    <!-- Ctrl vs. MMP9 information content, Shannon n=55 -->
    <g style="fill: #262626" transform="translate(262.6845 45.84) scale(0.096 -0.096)">
     <defs>
      <path id="ArialMT-43" d="M 3763 1606 
L 4369 1453 
Q 4178 706 3683 314 
Q 3188 -78 2472 -78 
Q 1731 -78 1267 223 
Q 803 525 561 1097 
Q 319 1669 319 2325 
Q 319 3041 592 3573 
Q 866 4106 1370 4382 
Q 1875 4659 2481 4659 
Q 3169 4659 3637 4309 
Q 4106 3959 4291 3325 
L 3694 3184 
Q 3534 3684 3231 3912 
Q 2928 4141 2469 4141 
Q 1941 4141 1586 3887 
Q 1231 3634 1087 3207 
Q 944 2781 944 2328 
Q 944 1744 1114 1308 
Q 1284 872 1643 656 
Q 2003 441 2422 441 
Q 2931 441 3284 734 
Q 3638 1028 3763 1606 
z
" transform="scale(0.015625)"/>
      <path id="ArialMT-6c" d="M 409 0 
L 409 4581 
L 972 4581 
L 972 0 
L 409 0 
z
" transform="scale(0.015625)"/>
      <path id="ArialMT-76" d="M 1344 0 
L 81 3319 
L 675 3319 
L 1388 1331 
Q 1503 1009 1600 663 
Q 1675 925 1809 1294 
L 2547 3319 
L 3125 3319 
L 1869 0 
L 1344 0 
z
" transform="scale(0.015625)"/>
      <path id="ArialMT-4d" d="M 475 0 
L 475 4581 
L 1388 4581 
L 2472 1338 
Q 2622 884 2691 659 
Q 2769 909 2934 1394 
L 4031 4581 
L 4847 4581 
L 4847 0 
L 4263 0 
L 4263 3834 
L 2931 0 
L 2384 0 
L 1059 3900 
L 1059 0 
L 475 0 
z
" transform="scale(0.015625)"/>
      <path id="ArialMT-39" d="M 350 1059 
L 891 1109 
Q 959 728 1153 556 
Q 1347 384 1650 384 
Q 1909 384 2104 503 
Q 2300 622 2425 820 
Q 2550 1019 2634 1356 
Q 2719 1694 2719 2044 
Q 2719 2081 2716 2156 
Q 2547 1888 2255 1720 
Q 1963 1553 1622 1553 
Q 1053 1553 659 1965 
Q 266 2378 266 3053 
Q 266 3750 677 4175 
Q 1088 4600 1706 4600 
Q 2153 4600 2523 4359 
Q 2894 4119 3086 3673 
Q 3278 3228 3278 2384 
Q 3278 1506 3087 986 
Q 2897 466 2520 194 
Q 2144 -78 1638 -78 
Q 1100 -78 759 220 
Q 419 519 350 1059 
z
M 2653 3081 
Q 2653 3566 2395 3850 
Q 2138 4134 1775 4134 
Q 1400 4134 1122 3828 
Q 844 3522 844 3034 
Q 844 2597 1108 2323 
Q 1372 2050 1759 2050 
Q 2150 2050 2401 2323 
Q 2653 2597 2653 3081 
z
" transform="scale(0.015625)"/>
      <path id="ArialMT-63" d="M 2588 1216 
L 3141 1144 
Q 3050 572 2676 248 
Q 2303 -75 1759 -75 
Q 1078 -75 664 370 
Q 250 816 250 1647 
Q 250 2184 428 2587 
Q 606 2991 970 3192 
Q 1334 3394 1763 3394 
Q 2303 3394 2647 3120 
Q 2991 2847 3088 2344 
L 2541 2259 
Q 2463 2594 2264 2762 
Q 2066 2931 1784 2931 
Q 1359 2931 1093 2626 
Q 828 2322 828 1663 
Q 828 994 1084 691 
Q 1341 388 1753 388 
Q 2084 388 2306 591 
Q 2528 794 2588 1216 
z
" transform="scale(0.015625)"/>
      <path id="ArialMT-65" d="M 2694 1069 
L 3275 997 
Q 3138 488 2766 206 
Q 2394 -75 1816 -75 
Q 1088 -75 661 373 
Q 234 822 234 1631 
Q 234 2469 665 2931 
Q 1097 3394 1784 3394 
Q 2450 3394 2872 2941 
Q 3294 2488 3294 1666 
Q 3294 1616 3291 1516 
L 816 1516 
Q 847 969 1125 678 
Q 1403 388 1819 388 
Q 2128 388 2347 550 
Q 2566 713 2694 1069 
z
M 847 1978 
L 2700 1978 
Q 2663 2397 2488 2606 
Q 2219 2931 1791 2931 
Q 1403 2931 1139 2672 
Q 875 2413 847 1978 
z
" transform="scale(0.015625)"/>
      <path id="ArialMT-2c" d="M 569 0 
L 569 641 
L 1209 641 
L 1209 0 
Q 1209 -353 1084 -570 
Q 959 -788 688 -906 
L 531 -666 
Q 709 -588 793 -436 
Q 878 -284 888 0 
L 569 0 
z
" transform="scale(0.015625)"/>
      <path id="ArialMT-53" d="M 288 1472 
L 859 1522 
Q 900 1178 1048 958 
Q 1197 738 1509 602 
Q 1822 466 2213 466 
Q 2559 466 2825 569 
Q 3091 672 3220 851 
Q 3350 1031 3350 1244 
Q 3350 1459 3225 1620 
Q 3100 1781 2813 1891 
Q 2628 1963 1997 2114 
Q 1366 2266 1113 2400 
Q 784 2572 623 2826 
Q 463 3081 463 3397 
Q 463 3744 659 4045 
Q 856 4347 1234 4503 
Q 1613 4659 2075 4659 
Q 2584 4659 2973 4495 
Q 3363 4331 3572 4012 
Q 3781 3694 3797 3291 
L 3216 3247 
Q 3169 3681 2898 3903 
Q 2628 4125 2100 4125 
Q 1550 4125 1298 3923 
Q 1047 3722 1047 3438 
Q 1047 3191 1225 3031 
Q 1400 2872 2139 2705 
Q 2878 2538 3153 2413 
Q 3553 2228 3743 1945 
Q 3934 1663 3934 1294 
Q 3934 928 3725 604 
Q 3516 281 3123 101 
Q 2731 -78 2241 -78 
Q 1619 -78 1198 103 
Q 778 284 539 648 
Q 300 1013 288 1472 
z
" transform="scale(0.015625)"/>
      <path id="ArialMT-68" d="M 422 0 
L 422 4581 
L 984 4581 
L 984 2938 
Q 1378 3394 1978 3394 
Q 2347 3394 2619 3248 
Q 2891 3103 3008 2847 
Q 3125 2591 3125 2103 
L 3125 0 
L 2563 0 
L 2563 2103 
Q 2563 2525 2380 2717 
Q 2197 2909 1863 2909 
Q 1613 2909 1392 2779 
Q 1172 2650 1078 2428 
Q 984 2206 984 1816 
L 984 0 
L 422 0 
z
" transform="scale(0.015625)"/>
      <path id="ArialMT-3d" d="M 3381 2694 
L 356 2694 
L 356 3219 
L 3381 3219 
L 3381 2694 
z
M 3381 1303 
L 356 1303 
L 356 1828 
L 3381 1828 
L 3381 1303 
z
" transform="scale(0.015625)"/>
      <path id="ArialMT-35" d="M 266 1200 
L 856 1250 
Q 922 819 1161 601 
Q 1400 384 1738 384 
Q 2144 384 2425 690 
Q 2706 997 2706 1503 
Q 2706 1984 2436 2262 
Q 2166 2541 1728 2541 
Q 1456 2541 1237 2417 
Q 1019 2294 894 2097 
L 366 2166 
L 809 4519 
L 3088 4519 
L 3088 3981 
L 1259 3981 
L 1013 2750 
Q 1425 3038 1878 3038 
Q 2478 3038 2890 2622 
Q 3303 2206 3303 1553 
Q 3303 931 2941 478 
Q 2500 -78 1738 -78 
Q 1113 -78 717 272 
Q 322 622 266 1200 
z
" transform="scale(0.015625)"/>
     </defs>
     <use xlink:href="#ArialMT-43"/>
     <use xlink:href="#ArialMT-74" x="72.216797"/>
     <use xlink:href="#ArialMT-72" x="100"/>
     <use xlink:href="#ArialMT-6c" x="133.300781"/>
     <use xlink:href="#ArialMT-20" x="155.517578"/>
     <use xlink:href="#ArialMT-76" x="183.300781"/>
     <use xlink:href="#ArialMT-73" x="233.300781"/>
     <use xlink:href="#ArialMT-2e" x="283.300781"/>
     <use xlink:href="#ArialMT-20" x="311.083984"/>
     <use xlink:href="#ArialMT-4d" x="338.867188"/>
     <use xlink:href="#ArialMT-4d" x="422.167969"/>
     <use xlink:href="#ArialMT-50" x="505.46875"/>
     <use xlink:href="#ArialMT-39" x="572.167969"/>
     <use xlink:href="#ArialMT-20" x="627.783203"/>
     <use xlink:href="#ArialMT-69" x="655.566406"/>
     <use xlink:href="#ArialMT-6e" x="677.783203"/>
     <use xlink:href="#ArialMT-66" x="733.398438"/>
     <use xlink:href="#ArialMT-6f" x="761.181641"/>
     <use xlink:href="#ArialMT-72" x="816.796875"/>
     <use xlink:href="#ArialMT-6d" x="850.097656"/>
     <use xlink:href="#ArialMT-61" x="933.398438"/>
     <use xlink:href="#ArialMT-74" x="989.013672"/>
     <use xlink:href="#ArialMT-69" x="1016.796875"/>
     <use xlink:href="#ArialMT-6f" x="1039.013672"/>
     <use xlink:href="#ArialMT-6e" x="1094.628906"/>
     <use xlink:href="#ArialMT-20" x="1150.244141"/>
     <use xlink:href="#ArialMT-63" x="1178.027344"/>
     <use xlink:href="#ArialMT-6f" x="1228.027344"/>
     <use xlink:href="#ArialMT-6e" x="1283.642578"/>
     <use xlink:href="#ArialMT-74" x="1339.257812"/>
     <use xlink:href="#ArialMT-65" x="1367.041016"/>
     <use xlink:href="#ArialMT-6e" x="1422.65625"/>
     <use xlink:href="#ArialMT-74" x="1478.271484"/>
     <use xlink:href="#ArialMT-2c" x="1506.054688"/>
     <use xlink:href="#ArialMT-20" x="1533.837891"/>
     <use xlink:href="#ArialMT-53" x="1561.621094"/>
     <use xlink:href="#ArialMT-68" x="1628.320312"/>
     <use xlink:href="#ArialMT-61" x="1683.935547"/>
     <use xlink:href="#ArialMT-6e" x="1739.550781"/>
     <use xlink:href="#ArialMT-6e" x="1795.166016"/>
     <use xlink:href="#ArialMT-6f" x="1850.78125"/>
     <use xlink:href="#ArialMT-6e" x="1906.396484"/>
     <use xlink:href="#ArialMT-20" x="1962.011719"/>
     <use xlink:href="#ArialMT-6e" x="1989.794922"/>
     <use xlink:href="#ArialMT-3d" x="2045.410156"/>
     <use xlink:href="#ArialMT-35" x="2103.808594"/>
     <use xlink:href="#ArialMT-35" x="2159.423828"/>
    </g>
   </g>
  </g>
 </g>
 <defs>
  <clipPath id="p402b46eabb">
   <rect x="90" y="51.84" width="558" height="332.64"/>
  </clipPath>
 </defs>
</svg>
