<?xml version="1.0" encoding="utf-8" standalone="no"?>
<!DOCTYPE svg PUBLIC "-//W3C//DTD SVG 1.1//EN"
  "http://www.w3.org/Graphics/SVG/1.1/DTD/svg11.dtd">
<svg xmlns:xlink="http://www.w3.org/1999/xlink" width="720pt" height="432pt" viewBox="0 0 720 432" xmlns="http://www.w3.org/2000/svg" version="1.1">
 <metadata>
  <rdf:RDF xmlns:dc="http://purl.org/dc/elements/1.1/" xmlns:cc="http://creativecommons.org/ns#" xmlns:rdf="http://www.w3.org/1999/02/22-rdf-syntax-ns#">
   <cc:Work>
    <dc:type rdf:resource="http://purl.org/dc/dcmitype/StillImage"/>
    <dc:date>2023-11-11T10:27:32.096665</dc:date>
    <dc:format>image/svg+xml</dc:format>
    <dc:creator>
     <cc:Agent>
      <dc:title>Matplotlib v3.7.1, https://matplotlib.org/</dc:title>
     </cc:Agent>
    </dc:creator>
   </cc:Work>
  </rdf:RDF>
 </metadata>
 <defs>
  <style type="text/css">*{stroke-linejoin: round; stroke-linecap: butt}</style>
 </defs>
 <g id="figure_1">
  <g id="patch_1">
   <path d="M 0 432 
L 720 432 
L 720 0 
L 0 0 
z
" style="fill: #ffffff"/>
  </g>
  <g id="axes_1">
   <g id="patch_2">
    <path d="M 90 384.48 
L 648 384.48 
L 648 51.84 
L 90 51.84 
z
" style="fill: #ffffff"/>
   </g>
   <g id="patch_3">
    <path d="M 307 384.48 
L 369 384.48 
L 369 51.84 
L 307 51.84 
z
" clip-path="url(#p570413d08f)" style="fill: #ffd700; opacity: 0.35; stroke: #ffffff; stroke-width: 0.8; stroke-linejoin: miter"/>
   </g>
   <g id="line2d_1">
    <path d="M 90 384.48 
L 648 384.48 
" clip-path="url(#p570413d08f)" style="fill: none; stroke: #000000; stroke-width: 0.5; stroke-linecap: round"/>
   </g>
   <g id="patch_4">
    <path d="M 125.65 384.252578 
L 140.813382 384.252578 
L 140.813382 384.337016 
L 163.186618 384.337016 
L 163.186618 384.252578 
L 178.35 384.252578 
L 178.35 384.474169 
L 163.186618 384.474169 
L 163.186618 384.380232 
L 140.813382 384.380232 
L 140.813382 384.474169 
L 125.65 384.474169 
L 125.65 384.252578 
z
" clip-path="url(#p570413d08f)" style="fill: #177875"/>
   </g>
   <g id="patch_5">
    <path d="M 125.65 383.987069 
L 141.195992 383.987069 
L 151.979692 384.122472 
L 162.83447 383.987069 
L 178.35 383.987069 
L 178.35 384.240088 
L 166.80474 384.240088 
L 166.80474 384.055014 
L 155.889037 384.191447 
L 148.141426 384.191447 
L 137.225723 384.055014 
L 137.225723 384.240088 
L 125.65 384.240088 
L 125.65 383.987069 
z
" clip-path="url(#p570413d08f)" style="fill: #21599c"/>
   </g>
   <g id="patch_6">
    <path d="M 125.65 382.797329 
L 138.68762 382.797329 
L 152.016162 383.648177 
L 165.323155 382.797329 
L 178.35 382.797329 
L 159.730985 383.950075 
L 144.269015 383.950075 
L 125.65 382.797329 
z
" clip-path="url(#p570413d08f)" style="fill: #21599c"/>
   </g>
   <g id="patch_7">
    <path d="M 125.65 380.802577 
L 177.253077 380.802577 
L 177.253077 381.175869 
L 144.774615 381.175869 
L 144.774615 381.531933 
L 175.329487 381.531933 
L 175.329487 381.905225 
L 144.774615 381.905225 
L 144.774615 382.343741 
L 178.35 382.343741 
L 178.35 382.716624 
L 125.65 382.716624 
L 125.65 380.802577 
z
" clip-path="url(#p570413d08f)" style="fill: #6b296b"/>
   </g>
   <g id="patch_8">
    <path d="M 125.65 378.070785 
L 153.043021 378.070785 
Q 165.271068 378.070785 171.803672 378.29252 
Q 178.35 378.513696 178.35 378.92301 
Q 178.35 379.334564 171.803672 379.555739 
Q 165.271068 379.776914 153.043021 379.776914 
L 142.159922 379.776914 
L 142.159922 380.683453 
L 125.65 380.683453 
L 125.65 378.070785 
z
M 142.159922 378.559051 
L 142.159922 379.288649 
L 151.286354 379.288649 
Q 156.08974 379.288649 158.711016 379.19346 
Q 161.332292 379.09827 161.332292 378.92301 
Q 161.332292 378.748309 158.711016 378.65368 
Q 156.08974 378.559051 151.286354 378.559051 
L 142.159922 378.559051 
z
" clip-path="url(#p570413d08f)" style="fill: #787800"/>
   </g>
   <g id="patch_9">
    <path d="M 125.65 373.395287 
L 178.35 373.395287 
L 178.35 374.270693 
L 159.390256 374.270693 
L 159.390256 377.883909 
L 144.646512 377.883909 
L 144.646512 374.270693 
L 125.65 374.270693 
L 125.65 373.395287 
z
" clip-path="url(#p570413d08f)" style="fill: #40ba47"/>
   </g>
   <g id="patch_10">
    <path d="M 147.032787 370.402487 
Q 151.762274 370.402487 153.814221 370.254514 
Q 155.866168 370.105485 155.866168 369.765147 
Q 155.866168 369.427981 153.814221 369.283179 
Q 151.762274 369.13732 147.032787 369.13732 
L 140.701781 369.13732 
L 140.701781 370.402487 
L 147.032787 370.402487 
z
M 140.701781 371.280812 
L 140.701781 373.147383 
L 125.65 373.147383 
L 125.65 368.21566 
L 148.634307 368.21566 
Q 160.170252 368.21566 165.537844 368.543314 
Q 170.917949 368.869912 170.917949 369.57701 
Q 170.917949 370.065321 168.11529 370.379234 
Q 165.325142 370.693148 159.694801 370.842178 
Q 162.785233 370.901367 165.225047 371.1117 
Q 167.677374 371.320976 170.179748 371.746926 
L 178.35 373.147383 
L 162.322293 373.147383 
L 155.203039 371.92238 
Q 153.050997 371.552448 150.836396 371.417158 
Q 148.634307 371.280812 144.955817 371.280812 
L 140.701781 371.280812 
z
" clip-path="url(#p570413d08f)" style="fill: #bd2e1f"/>
   </g>
   <g id="patch_11">
    <path d="M 125.65 361.75729 
L 140.22 361.75729 
L 151.988929 363.955015 
L 163.746786 361.75729 
L 178.35 361.75729 
L 158.665 365.325454 
L 158.665 367.923607 
L 145.346071 367.923607 
L 145.346071 365.325454 
L 125.65 361.75729 
z
" clip-path="url(#p570413d08f)" style="fill: #177875"/>
   </g>
   <g id="patch_12">
    <path d="M 125.65 353.080108 
L 139.537864 353.080108 
L 139.537864 356.108199 
L 159.555783 353.080108 
L 175.683253 353.080108 
L 149.743078 357.009692 
L 178.35 361.376687 
L 160.964195 361.376687 
L 139.537864 358.108553 
L 139.537864 361.376687 
L 125.65 361.376687 
L 125.65 353.080108 
z
" clip-path="url(#p570413d08f)" style="fill: #bd2e1f"/>
   </g>
   <g id="patch_13">
    <path d="M 162.155336 350.84326 
L 141.887763 350.84326 
L 138.68762 352.606991 
L 125.65 352.606991 
L 144.269015 342.925146 
L 159.730985 342.925146 
L 178.35 352.606991 
L 165.323155 352.606991 
L 162.155336 350.84326 
z
M 145.120231 349.04633 
L 158.890544 349.04633 
L 152.016162 345.195172 
L 145.120231 349.04633 
z
" clip-path="url(#p570413d08f)" style="fill: #21599c"/>
   </g>
   <g id="patch_14">
    <path d="M 187.65 383.06175 
L 201.537864 383.06175 
L 201.537864 383.566111 
L 221.555783 383.06175 
L 237.683253 383.06175 
L 211.743078 383.716265 
L 240.35 384.443635 
L 222.964195 384.443635 
L 201.537864 383.899292 
L 201.537864 384.443635 
L 187.65 384.443635 
L 187.65 383.06175 
z
" clip-path="url(#p570413d08f)" style="fill: #bd2e1f"/>
   </g>
   <g id="patch_15">
    <path d="M 187.65 381.300867 
L 239.253077 381.300867 
L 239.253077 381.628572 
L 206.774615 381.628572 
L 206.774615 381.941153 
L 237.329487 381.941153 
L 237.329487 382.268858 
L 206.774615 382.268858 
L 206.774615 382.653821 
L 240.35 382.653821 
L 240.35 382.981166 
L 187.65 382.981166 
L 187.65 381.300867 
z
" clip-path="url(#p570413d08f)" style="fill: #6b296b"/>
   </g>
   <g id="patch_16">
    <path d="M 187.65 378.383126 
L 203.195992 378.383126 
L 213.979692 379.881456 
L 224.83447 378.383126 
L 240.35 378.383126 
L 240.35 381.182969 
L 228.80474 381.182969 
L 228.80474 379.134991 
L 217.889037 380.644722 
L 210.141426 380.644722 
L 199.225723 379.134991 
L 199.225723 381.182969 
L 187.65 381.182969 
L 187.65 378.383126 
z
" clip-path="url(#p570413d08f)" style="fill: #21599c"/>
   </g>
   <g id="patch_17">
    <path d="M 215.405333 377.799413 
L 214.373292 377.799413 
Q 201.714313 377.799413 194.676667 377.474386 
Q 187.65 377.148848 187.65 376.568697 
Q 187.65 375.989566 194.665687 375.661477 
Q 201.681375 375.332878 214 375.332878 
Q 226.450375 375.332878 233.400187 375.658416 
Q 240.35 375.983443 240.35 376.568697 
Q 240.35 376.970261 236.661 377.260592 
Q 232.972 377.550923 226.044146 377.697364 
L 236.364562 378.233123 
L 223.771458 378.233123 
L 215.405333 377.799413 
z
M 214 375.777814 
Q 207.961458 375.777814 204.634771 375.984974 
Q 201.308083 376.192134 201.308083 376.568697 
Q 201.308083 376.951382 204.557917 377.154971 
Q 207.818729 377.358049 214 377.358049 
Q 220.071479 377.358049 223.398167 377.150889 
Q 226.724854 376.943218 226.724854 376.568697 
Q 226.724854 376.192134 223.398167 375.984974 
Q 220.071479 375.777814 214 375.777814 
z
" clip-path="url(#p570413d08f)" style="fill: #40ba47"/>
   </g>
   <g id="patch_18">
    <path d="M 209.032787 371.14932 
Q 213.762274 371.14932 215.814221 370.937902 
Q 217.866168 370.724974 217.866168 370.238712 
Q 217.866168 369.756981 215.814221 369.550093 
Q 213.762274 369.341695 209.032787 369.341695 
L 202.701781 369.341695 
L 202.701781 371.14932 
L 209.032787 371.14932 
z
M 202.701781 372.404238 
L 202.701781 375.071128 
L 187.65 375.071128 
L 187.65 368.024862 
L 210.634307 368.024862 
Q 222.170252 368.024862 227.537844 368.493002 
Q 232.917949 368.959632 232.917949 369.969909 
Q 232.917949 370.667589 230.11529 371.116098 
Q 227.325142 371.564606 221.694801 371.777534 
Q 224.785233 371.862102 227.225047 372.162618 
Q 229.677374 372.461623 232.179748 373.070206 
L 240.35 375.071128 
L 224.322293 375.071128 
L 217.203039 373.320887 
Q 215.050997 372.792342 212.836396 372.599045 
Q 210.634307 372.404238 206.955817 372.404238 
L 202.701781 372.404238 
z
" clip-path="url(#p570413d08f)" style="fill: #bd2e1f"/>
   </g>
   <g id="patch_19">
    <path d="M 187.65 357.68371 
L 206.774615 357.68371 
L 206.774615 365.651288 
L 240.35 365.651288 
L 240.35 367.57903 
L 187.65 367.57903 
L 187.65 357.68371 
z
" clip-path="url(#p570413d08f)" style="fill: #21599c"/>
   </g>
   <g id="patch_20">
    <path d="M 204.437692 346.04579 
L 223.562308 346.04579 
L 223.562308 357.131575 
L 204.437692 357.131575 
L 204.437692 346.04579 
z
" clip-path="url(#p570413d08f)" style="fill: #21599c"/>
   </g>
   <g id="patch_21">
    <path d="M 187.65 316.591727 
L 200.68762 316.591727 
L 214.016162 337.564683 
L 227.323155 316.591727 
L 240.35 316.591727 
L 221.730985 345.006307 
L 206.269015 345.006307 
L 187.65 316.591727 
z
" clip-path="url(#p570413d08f)" style="fill: #21599c"/>
   </g>
   <g id="patch_22">
    <path d="M 249.65 384.433973 
L 258.762642 384.433973 
L 265.132798 384.466565 
L 271.455534 384.433973 
L 280.615597 384.433973 
L 286.938332 384.466565 
L 293.316392 384.433973 
L 302.35 384.433973 
L 293.656239 384.47882 
L 282.694196 384.47882 
L 276 384.444728 
L 269.384838 384.47882 
L 258.414892 384.47882 
L 249.65 384.433973 
z
" clip-path="url(#p570413d08f)" style="fill: #21599c"/>
   </g>
   <g id="patch_23">
    <path d="M 302.35 384.40969 
Q 297.941736 384.418066 293.174969 384.422303 
Q 288.408201 384.426589 283.216541 384.426589 
Q 267.734505 384.426589 258.692252 384.394837 
Q 249.65 384.363086 249.65 384.308788 
Q 249.65 384.254294 258.692252 384.222592 
Q 267.734505 384.19084 283.216541 384.19084 
Q 288.408201 384.19084 293.174969 384.195126 
Q 297.941736 384.199363 302.35 384.207739 
L 302.35 384.254733 
Q 297.901902 384.243629 293.586584 384.238467 
Q 289.271265 384.233305 284.504497 384.233305 
Q 275.953527 384.233305 271.053981 384.253418 
Q 266.167712 384.273481 266.167712 384.308788 
Q 266.167712 384.343948 271.053981 384.36406 
Q 275.953527 384.384124 284.504497 384.384124 
Q 289.271265 384.384124 293.586584 384.378962 
Q 297.901902 384.373751 302.35 384.362648 
L 302.35 384.40969 
z
" clip-path="url(#p570413d08f)" style="fill: #6b296b"/>
   </g>
   <g id="patch_24">
    <path d="M 249.65 383.935021 
L 277.043021 383.935021 
Q 289.271068 383.935021 295.803672 383.955662 
Q 302.35 383.976252 302.35 384.014355 
Q 302.35 384.052667 295.803672 384.073256 
Q 289.271068 384.093846 277.043021 384.093846 
L 266.159922 384.093846 
L 266.159922 384.178236 
L 249.65 384.178236 
L 249.65 383.935021 
z
M 266.159922 383.980474 
L 266.159922 384.048393 
L 275.286354 384.048393 
Q 280.08974 384.048393 282.711016 384.039531 
Q 285.332292 384.03067 285.332292 384.014355 
Q 285.332292 383.998092 282.711016 383.989283 
Q 280.08974 383.980474 275.286354 383.980474 
L 266.159922 383.980474 
z
" clip-path="url(#p570413d08f)" style="fill: #787800"/>
   </g>
   <g id="patch_25">
    <path d="M 286.155336 383.821059 
L 265.887763 383.821059 
L 262.68762 383.915044 
L 249.65 383.915044 
L 268.269015 383.399123 
L 283.730985 383.399123 
L 302.35 383.915044 
L 289.323155 383.915044 
L 286.155336 383.821059 
z
M 269.120231 383.725305 
L 282.890544 383.725305 
L 276.016162 383.520087 
L 269.120231 383.725305 
z
" clip-path="url(#p570413d08f)" style="fill: #21599c"/>
   </g>
   <g id="patch_26">
    <path d="M 271.032787 382.860302 
Q 275.762274 382.860302 277.814221 382.833266 
Q 279.866168 382.806036 279.866168 382.743851 
Q 279.866168 382.682246 277.814221 382.655789 
Q 275.762274 382.629138 271.032787 382.629138 
L 264.701781 382.629138 
L 264.701781 382.860302 
L 271.032787 382.860302 
z
M 264.701781 383.020784 
L 264.701781 383.361833 
L 249.65 383.361833 
L 249.65 382.460738 
L 272.634307 382.460738 
Q 284.170252 382.460738 289.537844 382.520605 
Q 294.917949 382.580279 294.917949 382.709476 
Q 294.917949 382.798697 292.11529 382.856054 
Q 289.325142 382.91341 283.694801 382.94064 
Q 286.785233 382.951455 289.225047 382.989885 
Q 291.677374 383.028123 294.179748 383.10595 
L 302.35 383.361833 
L 286.322293 383.361833 
L 279.203039 383.138008 
Q 277.050997 383.070416 274.836396 383.045697 
Q 272.634307 383.020784 268.955817 383.020784 
L 264.701781 383.020784 
z
" clip-path="url(#p570413d08f)" style="fill: #bd2e1f"/>
   </g>
   <g id="patch_27">
    <path d="M 249.65 380.039751 
L 264.813382 380.039751 
L 264.813382 380.92982 
L 287.186618 380.92982 
L 287.186618 380.039751 
L 302.35 380.039751 
L 302.35 382.375557 
L 287.186618 382.375557 
L 287.186618 381.385367 
L 264.813382 381.385367 
L 264.813382 382.375557 
L 249.65 382.375557 
L 249.65 380.039751 
z
" clip-path="url(#p570413d08f)" style="fill: #177875"/>
   </g>
   <g id="patch_28">
    <path d="M 249.65 377.458296 
L 265.195992 377.458296 
L 275.979692 378.772283 
L 286.83447 377.458296 
L 302.35 377.458296 
L 302.35 379.913667 
L 290.80474 379.913667 
L 290.80474 378.117657 
L 279.889037 379.441642 
L 272.141426 379.441642 
L 261.225723 378.117657 
L 261.225723 379.913667 
L 249.65 379.913667 
L 249.65 377.458296 
z
" clip-path="url(#p570413d08f)" style="fill: #21599c"/>
   </g>
   <g id="patch_29">
    <path d="M 277.405333 375.905629 
L 276.373292 375.905629 
Q 263.714313 375.905629 256.676667 374.957341 
Q 249.65 374.007564 249.65 372.314936 
Q 249.65 370.625286 256.665687 369.668066 
Q 263.681375 368.709357 276 368.709357 
Q 288.450375 368.709357 295.400188 369.659134 
Q 302.35 370.607422 302.35 372.314936 
Q 302.35 373.486526 298.661 374.333584 
Q 294.972 375.180642 288.044146 375.607893 
L 298.364562 377.171006 
L 285.771458 377.171006 
L 277.405333 375.905629 
z
M 276 370.007485 
Q 269.961458 370.007485 266.634771 370.611888 
Q 263.308083 371.216292 263.308083 372.314936 
Q 263.308083 373.431445 266.557917 374.025428 
Q 269.818729 374.617922 276 374.617922 
Q 282.071479 374.617922 285.398167 374.013518 
Q 288.724854 373.407626 288.724854 372.314936 
Q 288.724854 371.216292 285.398167 370.611888 
Q 282.071479 370.007485 276 370.007485 
z
" clip-path="url(#p570413d08f)" style="fill: #40ba47"/>
   </g>
   <g id="patch_30">
    <path d="M 249.65 358.703684 
L 301.253077 358.703684 
L 301.253077 360.562719 
L 268.774615 360.562719 
L 268.774615 362.335953 
L 299.329487 362.335953 
L 299.329487 364.194988 
L 268.774615 364.194988 
L 268.774615 366.378844 
L 302.35 366.378844 
L 302.35 368.235836 
L 249.65 368.235836 
L 249.65 358.703684 
z
" clip-path="url(#p570413d08f)" style="fill: #6b296b"/>
   </g>
   <g id="patch_31">
    <path d="M 249.65 347.09558 
L 263.537864 347.09558 
L 263.537864 351.134474 
L 283.555783 347.09558 
L 299.683253 347.09558 
L 273.743078 352.336892 
L 302.35 358.161626 
L 284.964195 358.161626 
L 263.537864 353.802562 
L 263.537864 358.161626 
L 249.65 358.161626 
L 249.65 347.09558 
z
" clip-path="url(#p570413d08f)" style="fill: #bd2e1f"/>
   </g>
   <g id="patch_32">
    <path d="M 249.65 328.825349 
L 268.774615 328.825349 
L 268.774615 342.930621 
L 302.35 342.930621 
L 302.35 346.343368 
L 249.65 346.343368 
L 249.65 328.825349 
z
" clip-path="url(#p570413d08f)" style="fill: #21599c"/>
   </g>
   <g id="patch_33">
    <path d="M 311.65 60.156 
L 363.253077 60.156 
L 363.253077 121.786364 
L 330.774615 121.786364 
L 330.774615 180.57225 
L 361.329487 180.57225 
L 361.329487 242.202615 
L 330.774615 242.202615 
L 330.774615 314.601361 
L 364.35 314.601361 
L 364.35 376.164 
L 311.65 376.164 
L 311.65 60.156 
z
" clip-path="url(#p570413d08f)" style="fill: #6b296b"/>
   </g>
   <g id="patch_34">
    <path d="M 410.155336 384.2897 
L 389.887763 384.2897 
L 386.68762 384.45598 
L 373.65 384.45598 
L 392.269015 383.543203 
L 407.730985 383.543203 
L 426.35 384.45598 
L 413.323155 384.45598 
L 410.155336 384.2897 
z
M 393.120231 384.120291 
L 406.890544 384.120291 
L 400.016162 383.757215 
L 393.120231 384.120291 
z
" clip-path="url(#p570413d08f)" style="fill: #21599c"/>
   </g>
   <g id="patch_35">
    <path d="M 390.437692 380.629057 
L 409.562308 380.629057 
L 409.562308 383.445077 
L 390.437692 383.445077 
L 390.437692 380.629057 
z
" clip-path="url(#p570413d08f)" style="fill: #21599c"/>
   </g>
   <g id="patch_36">
    <path d="M 373.65 376.891782 
L 388.22 376.891782 
L 399.988929 378.163888 
L 411.746786 376.891782 
L 426.35 376.891782 
L 406.665 378.957138 
L 406.665 380.461023 
L 393.346071 380.461023 
L 393.346071 378.957138 
L 373.65 376.891782 
z
" clip-path="url(#p570413d08f)" style="fill: #177875"/>
   </g>
   <g id="patch_37">
    <path d="M 373.65 367.252725 
L 426.35 367.252725 
L 426.35 369.066559 
L 407.390256 369.066559 
L 407.390256 376.553108 
L 392.646512 376.553108 
L 392.646512 369.066559 
L 373.65 369.066559 
L 373.65 367.252725 
z
" clip-path="url(#p570413d08f)" style="fill: #40ba47"/>
   </g>
   <g id="patch_38">
    <path d="M 373.65 352.014217 
L 389.195992 352.014217 
L 399.979692 359.832356 
L 410.83447 352.014217 
L 426.35 352.014217 
L 426.35 366.623523 
L 414.80474 366.623523 
L 414.80474 355.937376 
L 403.889037 363.815005 
L 396.141426 363.815005 
L 385.225723 355.937376 
L 385.225723 366.623523 
L 373.65 366.623523 
L 373.65 352.014217 
z
" clip-path="url(#p570413d08f)" style="fill: #21599c"/>
   </g>
   <g id="patch_39">
    <path d="M 373.65 328.039622 
L 386.68762 328.039622 
L 400.016162 345.00517 
L 413.323155 328.039622 
L 426.35 328.039622 
L 407.730985 351.024886 
L 392.269015 351.024886 
L 373.65 328.039622 
z
" clip-path="url(#p570413d08f)" style="fill: #21599c"/>
   </g>
   <g id="patch_40">
    <path d="M 373.65 299.504562 
L 392.774615 299.504562 
L 392.774615 321.416927 
L 426.35 321.416927 
L 426.35 326.718588 
L 373.65 326.718588 
L 373.65 299.504562 
z
" clip-path="url(#p570413d08f)" style="fill: #21599c"/>
   </g>
   <g id="patch_41">
    <path d="M 488.35 384.448402 
Q 483.941736 384.459859 479.174969 384.465653 
Q 474.408201 384.471515 469.216541 384.471515 
Q 453.734505 384.471515 444.692252 384.428088 
Q 435.65 384.38466 435.65 384.310395 
Q 435.65 384.235862 444.692252 384.192502 
Q 453.734505 384.149075 469.216541 384.149075 
Q 474.408201 384.149075 479.174969 384.154936 
Q 483.941736 384.160731 488.35 384.172187 
L 488.35 384.236462 
Q 483.901902 384.221276 479.586584 384.214215 
Q 475.271265 384.207155 470.504497 384.207155 
Q 461.953527 384.207155 457.053981 384.234663 
Q 452.167712 384.262105 452.167712 384.310395 
Q 452.167712 384.358484 457.053981 384.385992 
Q 461.953527 384.413434 470.504497 384.413434 
Q 475.271265 384.413434 479.586584 384.406374 
Q 483.901902 384.399247 488.35 384.384061 
L 488.35 384.448402 
z
" clip-path="url(#p570413d08f)" style="fill: #6b296b"/>
   </g>
   <g id="patch_42">
    <path d="M 463.405333 383.958404 
L 462.373292 383.958404 
Q 449.714313 383.958404 442.676667 383.842302 
Q 435.65 383.726019 435.65 383.518787 
Q 435.65 383.311919 442.665687 383.194724 
Q 449.681375 383.077347 462 383.077347 
Q 474.450375 383.077347 481.400187 383.19363 
Q 488.35 383.309732 488.35 383.518787 
Q 488.35 383.662227 484.661 383.765934 
Q 480.972 383.869642 474.044146 383.921951 
L 484.364562 384.113327 
L 471.771458 384.113327 
L 463.405333 383.958404 
z
M 462 383.23628 
Q 455.961458 383.23628 452.634771 383.310278 
Q 449.308083 383.384277 449.308083 383.518787 
Q 449.308083 383.655483 452.557917 383.728206 
Q 455.818729 383.800747 462 383.800747 
Q 468.071479 383.800747 471.398167 383.726748 
Q 474.724854 383.652567 474.724854 383.518787 
Q 474.724854 383.384277 471.398167 383.310278 
Q 468.071479 383.23628 462 383.23628 
z
" clip-path="url(#p570413d08f)" style="fill: #40ba47"/>
   </g>
   <g id="patch_43">
    <path d="M 435.65 381.828528 
L 450.22 381.828528 
L 461.988929 382.252737 
L 473.746786 381.828528 
L 488.35 381.828528 
L 468.665 382.517262 
L 468.665 383.018762 
L 455.346071 383.018762 
L 455.346071 382.517262 
L 435.65 381.828528 
z
" clip-path="url(#p570413d08f)" style="fill: #177875"/>
   </g>
   <g id="patch_44">
    <path d="M 435.65 379.370204 
L 450.813382 379.370204 
L 450.813382 380.271311 
L 473.186618 380.271311 
L 473.186618 379.370204 
L 488.35 379.370204 
L 488.35 381.734976 
L 473.186618 381.734976 
L 473.186618 380.732507 
L 450.813382 380.732507 
L 450.813382 381.734976 
L 435.65 381.734976 
L 435.65 379.370204 
z
" clip-path="url(#p570413d08f)" style="fill: #177875"/>
   </g>
   <g id="patch_45">
    <path d="M 488.35 378.896166 
Q 483.035119 379.055675 477.318669 379.135794 
Q 471.602219 379.215185 465.507822 379.215185 
Q 451.736374 379.215185 443.693187 378.740298 
Q 435.65 378.265411 435.65 377.453297 
Q 435.65 376.631713 443.834917 376.160469 
Q 452.031645 375.689224 466.287338 375.689224 
Q 471.779381 375.689224 476.810802 375.753319 
Q 481.854034 375.816686 486.318534 375.941962 
L 486.318534 376.644824 
Q 481.712304 376.483858 477.153317 376.404467 
Q 472.59433 376.324348 468.011721 376.324348 
Q 459.531533 376.324348 454.937113 376.617146 
Q 450.342694 376.909216 450.342694 377.453297 
Q 450.342694 377.992278 454.771762 378.286533 
Q 459.200829 378.58006 467.350314 378.58006 
Q 469.570753 378.58006 471.472299 378.563308 
Q 473.373846 378.545827 474.885634 378.50941 
L 474.885634 377.849521 
L 466.204662 377.849521 
L 466.204662 377.26174 
L 488.35 377.26174 
L 488.35 378.896166 
z
" clip-path="url(#p570413d08f)" style="fill: #787800"/>
   </g>
   <g id="patch_46">
    <path d="M 435.65 371.189214 
L 488.35 371.189214 
L 488.35 372.026705 
L 469.390256 372.026705 
L 469.390256 375.483429 
L 454.646512 375.483429 
L 454.646512 372.026705 
L 435.65 372.026705 
L 435.65 371.189214 
z
" clip-path="url(#p570413d08f)" style="fill: #40ba47"/>
   </g>
   <g id="patch_47">
    <path d="M 435.65 364.423671 
L 487.253077 364.423671 
L 487.253077 365.687833 
L 454.774615 365.687833 
L 454.774615 366.89365 
L 485.329487 366.89365 
L 485.329487 368.157813 
L 454.774615 368.157813 
L 454.774615 369.642857 
L 488.35 369.642857 
L 488.35 370.90563 
L 435.65 370.90563 
L 435.65 364.423671 
z
" clip-path="url(#p570413d08f)" style="fill: #6b296b"/>
   </g>
   <g id="patch_48">
    <path d="M 435.65 356.281399 
L 449.537864 356.281399 
L 449.537864 359.116311 
L 469.555783 356.281399 
L 485.683253 356.281399 
L 459.743078 359.960292 
L 488.35 364.04869 
L 470.964195 364.04869 
L 449.537864 360.98905 
L 449.537864 364.04869 
L 435.65 364.04869 
L 435.65 356.281399 
z
" clip-path="url(#p570413d08f)" style="fill: #bd2e1f"/>
   </g>
   <g id="patch_49">
    <path d="M 472.155336 353.526488 
L 451.887763 353.526488 
L 448.68762 355.755061 
L 435.65 355.755061 
L 454.269015 343.521504 
L 469.730985 343.521504 
L 488.35 355.755061 
L 475.323155 355.755061 
L 472.155336 353.526488 
z
M 455.120231 351.255965 
L 468.890544 351.255965 
L 462.016162 346.389809 
L 455.120231 351.255965 
z
" clip-path="url(#p570413d08f)" style="fill: #21599c"/>
   </g>
   <g id="patch_50">
    <path d="M 497.65 384.28146 
L 513.195992 384.28146 
L 523.979692 384.384984 
L 534.83447 384.28146 
L 550.35 384.28146 
L 550.35 384.474909 
L 538.80474 384.474909 
L 538.80474 384.333409 
L 527.889037 384.43772 
L 520.141426 384.43772 
L 509.225723 384.333409 
L 509.225723 384.474909 
L 497.65 384.474909 
L 497.65 384.28146 
z
" clip-path="url(#p570413d08f)" style="fill: #21599c"/>
   </g>
   <g id="patch_51">
    <path d="M 497.65 383.915269 
L 550.35 383.915269 
L 550.35 383.983888 
L 531.390256 383.983888 
L 531.390256 384.267111 
L 516.646512 384.267111 
L 516.646512 383.983888 
L 497.65 383.983888 
L 497.65 383.915269 
z
" clip-path="url(#p570413d08f)" style="fill: #40ba47"/>
   </g>
   <g id="patch_52">
    <path d="M 497.65 383.432593 
L 549.253077 383.432593 
L 549.253077 383.522555 
L 516.774615 383.522555 
L 516.774615 383.608365 
L 547.329487 383.608365 
L 547.329487 383.698327 
L 516.774615 383.698327 
L 516.774615 383.804008 
L 550.35 383.804008 
L 550.35 383.893871 
L 497.65 383.893871 
L 497.65 383.432593 
z
" clip-path="url(#p570413d08f)" style="fill: #6b296b"/>
   </g>
   <g id="patch_53">
    <path d="M 497.65 380.916282 
L 512.813382 380.916282 
L 512.813382 381.84604 
L 535.186618 381.84604 
L 535.186618 380.916282 
L 550.35 380.916282 
L 550.35 383.356244 
L 535.186618 383.356244 
L 535.186618 382.321901 
L 512.813382 382.321901 
L 512.813382 383.356244 
L 497.65 383.356244 
L 497.65 380.916282 
z
" clip-path="url(#p570413d08f)" style="fill: #177875"/>
   </g>
   <g id="patch_54">
    <path d="M 498.198462 377.754545 
L 549.801538 377.754545 
L 549.801538 378.34316 
L 517.323077 378.34316 
L 517.323077 378.904607 
L 547.877949 378.904607 
L 547.877949 379.493221 
L 517.323077 379.493221 
L 517.323077 380.772649 
L 498.198462 380.772649 
L 498.198462 377.754545 
z
" clip-path="url(#p570413d08f)" style="fill: #21599c"/>
   </g>
   <g id="patch_55">
    <path d="M 534.155336 376.651501 
L 513.887763 376.651501 
L 510.68762 377.545916 
L 497.65 377.545916 
L 516.269015 372.636102 
L 531.730985 372.636102 
L 550.35 377.545916 
L 537.323155 377.545916 
L 534.155336 376.651501 
z
M 517.120231 375.740249 
L 530.890544 375.740249 
L 524.016162 373.787267 
L 517.120231 375.740249 
z
" clip-path="url(#p570413d08f)" style="fill: #21599c"/>
   </g>
   <g id="patch_56">
    <path d="M 525.405333 371.061972 
L 524.373292 371.061972 
Q 511.714313 371.061972 504.676667 370.141167 
Q 497.65 369.218917 497.65 367.575346 
Q 497.65 365.934666 504.665687 365.005188 
Q 511.681375 364.074265 524 364.074265 
Q 536.450375 364.074265 543.400187 364.996515 
Q 550.35 365.917319 550.35 367.575346 
Q 550.35 368.71298 546.661 369.535489 
Q 542.972 370.357997 536.044146 370.772865 
L 546.364562 372.290675 
L 533.771458 372.290675 
L 525.405333 371.061972 
z
M 524 365.334769 
Q 517.961458 365.334769 514.634771 365.921656 
Q 511.308083 366.508542 511.308083 367.575346 
Q 511.308083 368.659496 514.557917 369.236263 
Q 517.818729 369.811586 524 369.811586 
Q 530.071479 369.811586 533.398167 369.224699 
Q 536.724854 368.636367 536.724854 367.575346 
Q 536.724854 366.508542 533.398167 365.921656 
Q 530.071479 365.334769 524 365.334769 
z
" clip-path="url(#p570413d08f)" style="fill: #40ba47"/>
   </g>
   <g id="patch_57">
    <path d="M 497.65 350.088827 
L 511.537864 350.088827 
L 511.537864 354.985466 
L 531.555783 350.088827 
L 547.683253 350.088827 
L 521.743078 356.443244 
L 550.35 363.504986 
L 532.964195 363.504986 
L 511.537864 358.220181 
L 511.537864 363.504986 
L 497.65 363.504986 
L 497.65 350.088827 
z
" clip-path="url(#p570413d08f)" style="fill: #bd2e1f"/>
   </g>
   <g id="patch_58">
    <path d="M 559.65 380.847213 
L 574.22 380.847213 
L 585.988929 382.108768 
L 597.746786 380.847213 
L 612.35 380.847213 
L 592.665 382.895439 
L 592.665 384.386852 
L 579.346071 384.386852 
L 579.346071 382.895439 
L 559.65 380.847213 
z
" clip-path="url(#p570413d08f)" style="fill: #177875"/>
   </g>
   <g id="patch_59">
    <path d="M 559.65 375.588034 
L 578.774615 375.588034 
L 578.774615 379.640995 
L 612.35 379.640995 
L 612.35 380.621602 
L 559.65 380.621602 
L 559.65 375.588034 
z
" clip-path="url(#p570413d08f)" style="fill: #21599c"/>
   </g>
   <g id="patch_60">
    <path d="M 559.65 370.264623 
L 575.195992 370.264623 
L 585.979692 372.971319 
L 596.83447 370.264623 
L 612.35 370.264623 
L 612.35 375.322471 
L 600.80474 375.322471 
L 600.80474 371.622849 
L 589.889037 374.350141 
L 582.141426 374.350141 
L 571.225723 371.622849 
L 571.225723 375.322471 
L 559.65 375.322471 
L 559.65 370.264623 
z
" clip-path="url(#p570413d08f)" style="fill: #21599c"/>
   </g>
   <g id="patch_61">
    <path d="M 587.405333 369.22429 
L 586.373292 369.22429 
Q 573.714313 369.22429 566.676667 368.64614 
Q 559.65 368.067082 559.65 367.035126 
Q 559.65 366.004984 566.665687 365.421389 
Q 573.681375 364.836886 586 364.836886 
Q 598.450375 364.836886 605.400187 365.415943 
Q 612.35 365.994093 612.35 367.035126 
Q 612.35 367.749418 608.661 368.26585 
Q 604.972 368.782282 598.044146 369.042767 
L 608.364562 369.995761 
L 595.771458 369.995761 
L 587.405333 369.22429 
z
M 586 365.628325 
Q 579.961458 365.628325 576.634771 365.996816 
Q 573.308083 366.365307 573.308083 367.035126 
Q 573.308083 367.715836 576.557917 368.077974 
Q 579.818729 368.439204 586 368.439204 
Q 592.071479 368.439204 595.398167 368.070713 
Q 598.724854 367.701314 598.724854 367.035126 
Q 598.724854 366.365307 595.398167 365.996816 
Q 592.071479 365.628325 586 365.628325 
z
" clip-path="url(#p570413d08f)" style="fill: #40ba47"/>
   </g>
   <g id="patch_62">
    <path d="M 559.65 357.814002 
L 572.68762 357.814002 
L 586.016162 362.767081 
L 599.323155 357.814002 
L 612.35 357.814002 
L 593.730985 364.524533 
L 578.269015 364.524533 
L 559.65 357.814002 
z
" clip-path="url(#p570413d08f)" style="fill: #21599c"/>
   </g>
   <g id="patch_63">
    <path d="M 559.65 344.63711 
L 573.537864 344.63711 
L 573.537864 349.260305 
L 593.555783 344.63711 
L 609.683253 344.63711 
L 583.743078 350.636676 
L 612.35 357.304068 
L 594.964195 357.304068 
L 573.537864 352.314383 
L 573.537864 357.304068 
L 559.65 357.304068 
L 559.65 344.63711 
z
" clip-path="url(#p570413d08f)" style="fill: #bd2e1f"/>
   </g>
   <g id="patch_64">
    <path d="M 576.437692 326.173242 
L 595.562308 326.173242 
L 595.562308 343.838883 
L 576.437692 343.838883 
L 576.437692 326.173242 
z
" clip-path="url(#p570413d08f)" style="fill: #21599c"/>
   </g>
   <g id="matplotlib.axis_1">
    <g id="xtick_1">
     <g id="line2d_2">
      <defs>
       <path id="m8d55c8c1a2" d="M 0 0 
L 0 4.8 
" style="stroke: #262626"/>
      </defs>
      <g>
       <use xlink:href="#m8d55c8c1a2" x="152" y="384.48" style="fill: #262626; stroke: #262626"/>
      </g>
     </g>
     <g id="text_1">
      <!-- P4 -->
      <g style="fill: #262626" transform="translate(146.61825 399.078875) scale(0.088 -0.088)">
       <defs>
        <path id="ArialMT-50" d="M 494 0 
L 494 4581 
L 2222 4581 
Q 2678 4581 2919 4538 
Q 3256 4481 3484 4323 
Q 3713 4166 3852 3881 
Q 3991 3597 3991 3256 
Q 3991 2672 3619 2267 
Q 3247 1863 2275 1863 
L 1100 1863 
L 1100 0 
L 494 0 
z
M 1100 2403 
L 2284 2403 
Q 2872 2403 3119 2622 
Q 3366 2841 3366 3238 
Q 3366 3525 3220 3729 
Q 3075 3934 2838 4000 
Q 2684 4041 2272 4041 
L 1100 4041 
L 1100 2403 
z
" transform="scale(0.015625)"/>
        <path id="ArialMT-34" d="M 2069 0 
L 2069 1097 
L 81 1097 
L 81 1613 
L 2172 4581 
L 2631 4581 
L 2631 1613 
L 3250 1613 
L 3250 1097 
L 2631 1097 
L 2631 0 
L 2069 0 
z
M 2069 1613 
L 2069 3678 
L 634 1613 
L 2069 1613 
z
" transform="scale(0.015625)"/>
       </defs>
       <use xlink:href="#ArialMT-50"/>
       <use xlink:href="#ArialMT-34" x="66.699219"/>
      </g>
     </g>
    </g>
    <g id="xtick_2">
     <g id="line2d_3">
      <g>
       <use xlink:href="#m8d55c8c1a2" x="214" y="384.48" style="fill: #262626; stroke: #262626"/>
      </g>
     </g>
     <g id="text_2">
      <!-- P3 -->
      <g style="fill: #262626" transform="translate(208.61825 399.078875) scale(0.088 -0.088)">
       <defs>
        <path id="ArialMT-33" d="M 269 1209 
L 831 1284 
Q 928 806 1161 595 
Q 1394 384 1728 384 
Q 2125 384 2398 659 
Q 2672 934 2672 1341 
Q 2672 1728 2419 1979 
Q 2166 2231 1775 2231 
Q 1616 2231 1378 2169 
L 1441 2663 
Q 1497 2656 1531 2656 
Q 1891 2656 2178 2843 
Q 2466 3031 2466 3422 
Q 2466 3731 2256 3934 
Q 2047 4138 1716 4138 
Q 1388 4138 1169 3931 
Q 950 3725 888 3313 
L 325 3413 
Q 428 3978 793 4289 
Q 1159 4600 1703 4600 
Q 2078 4600 2393 4439 
Q 2709 4278 2876 4000 
Q 3044 3722 3044 3409 
Q 3044 3113 2884 2869 
Q 2725 2625 2413 2481 
Q 2819 2388 3044 2092 
Q 3269 1797 3269 1353 
Q 3269 753 2831 336 
Q 2394 -81 1725 -81 
Q 1122 -81 723 278 
Q 325 638 269 1209 
z
" transform="scale(0.015625)"/>
       </defs>
       <use xlink:href="#ArialMT-50"/>
       <use xlink:href="#ArialMT-33" x="66.699219"/>
      </g>
     </g>
    </g>
    <g id="xtick_3">
     <g id="line2d_4">
      <g>
       <use xlink:href="#m8d55c8c1a2" x="276" y="384.48" style="fill: #262626; stroke: #262626"/>
      </g>
     </g>
     <g id="text_3">
      <!-- P2 -->
      <g style="fill: #262626" transform="translate(270.61825 399.078875) scale(0.088 -0.088)">
       <defs>
        <path id="ArialMT-32" d="M 3222 541 
L 3222 0 
L 194 0 
Q 188 203 259 391 
Q 375 700 629 1000 
Q 884 1300 1366 1694 
Q 2113 2306 2375 2664 
Q 2638 3022 2638 3341 
Q 2638 3675 2398 3904 
Q 2159 4134 1775 4134 
Q 1369 4134 1125 3890 
Q 881 3647 878 3216 
L 300 3275 
Q 359 3922 746 4261 
Q 1134 4600 1788 4600 
Q 2447 4600 2831 4234 
Q 3216 3869 3216 3328 
Q 3216 3053 3103 2787 
Q 2991 2522 2730 2228 
Q 2469 1934 1863 1422 
Q 1356 997 1212 845 
Q 1069 694 975 541 
L 3222 541 
z
" transform="scale(0.015625)"/>
       </defs>
       <use xlink:href="#ArialMT-50"/>
       <use xlink:href="#ArialMT-32" x="66.699219"/>
      </g>
     </g>
    </g>
    <g id="xtick_4">
     <g id="line2d_5">
      <g>
       <use xlink:href="#m8d55c8c1a2" x="338" y="384.48" style="fill: #262626; stroke: #262626"/>
      </g>
     </g>
     <g id="text_4">
      <!-- P1 -->
      <g style="fill: #262626" transform="translate(332.61825 399.078875) scale(0.088 -0.088)">
       <defs>
        <path id="ArialMT-31" d="M 2384 0 
L 1822 0 
L 1822 3584 
Q 1619 3391 1289 3197 
Q 959 3003 697 2906 
L 697 3450 
Q 1169 3672 1522 3987 
Q 1875 4303 2022 4600 
L 2384 4600 
L 2384 0 
z
" transform="scale(0.015625)"/>
       </defs>
       <use xlink:href="#ArialMT-50"/>
       <use xlink:href="#ArialMT-31" x="66.699219"/>
      </g>
     </g>
    </g>
    <g id="xtick_5">
     <g id="line2d_6">
      <g>
       <use xlink:href="#m8d55c8c1a2" x="400" y="384.48" style="fill: #262626; stroke: #262626"/>
      </g>
     </g>
     <g id="text_5">
      <!-- P1' -->
      <g style="fill: #262626" transform="translate(393.778125 399.078875) scale(0.088 -0.088)">
       <defs>
        <path id="ArialMT-27" d="M 425 2959 
L 281 3816 
L 281 4581 
L 922 4581 
L 922 3816 
L 772 2959 
L 425 2959 
z
" transform="scale(0.015625)"/>
       </defs>
       <use xlink:href="#ArialMT-50"/>
       <use xlink:href="#ArialMT-31" x="66.699219"/>
       <use xlink:href="#ArialMT-27" x="122.314453"/>
      </g>
     </g>
    </g>
    <g id="xtick_6">
     <g id="line2d_7">
      <g>
       <use xlink:href="#m8d55c8c1a2" x="462" y="384.48" style="fill: #262626; stroke: #262626"/>
      </g>
     </g>
     <g id="text_6">
      <!-- P2' -->
      <g style="fill: #262626" transform="translate(455.778125 399.078875) scale(0.088 -0.088)">
       <use xlink:href="#ArialMT-50"/>
       <use xlink:href="#ArialMT-32" x="66.699219"/>
       <use xlink:href="#ArialMT-27" x="122.314453"/>
      </g>
     </g>
    </g>
    <g id="xtick_7">
     <g id="line2d_8">
      <g>
       <use xlink:href="#m8d55c8c1a2" x="524" y="384.48" style="fill: #262626; stroke: #262626"/>
      </g>
     </g>
     <g id="text_7">
      <!-- P3' -->
      <g style="fill: #262626" transform="translate(517.778125 399.078875) scale(0.088 -0.088)">
       <use xlink:href="#ArialMT-50"/>
       <use xlink:href="#ArialMT-33" x="66.699219"/>
       <use xlink:href="#ArialMT-27" x="122.314453"/>
      </g>
     </g>
    </g>
    <g id="xtick_8">
     <g id="line2d_9">
      <g>
       <use xlink:href="#m8d55c8c1a2" x="586" y="384.48" style="fill: #262626; stroke: #262626"/>
      </g>
     </g>
     <g id="text_8">
      <!-- P4' -->
      <g style="fill: #262626" transform="translate(579.778125 399.078875) scale(0.088 -0.088)">
       <use xlink:href="#ArialMT-50"/>
       <use xlink:href="#ArialMT-34" x="66.699219"/>
       <use xlink:href="#ArialMT-27" x="122.314453"/>
      </g>
     </g>
    </g>
   </g>
   <g id="matplotlib.axis_2">
    <g id="ytick_1">
     <g id="line2d_10">
      <defs>
       <path id="mab1ba4d1be" d="M 0 0 
L -4.8 0 
" style="stroke: #262626"/>
      </defs>
      <g>
       <use xlink:href="#mab1ba4d1be" x="90" y="384.48" style="fill: #262626; stroke: #262626"/>
      </g>
     </g>
     <g id="text_9">
      <!-- 0.0 -->
      <g style="fill: #262626" transform="translate(69.468 387.629437) scale(0.088 -0.088)">
       <defs>
        <path id="ArialMT-30" d="M 266 2259 
Q 266 3072 433 3567 
Q 600 4063 929 4331 
Q 1259 4600 1759 4600 
Q 2128 4600 2406 4451 
Q 2684 4303 2865 4023 
Q 3047 3744 3150 3342 
Q 3253 2941 3253 2259 
Q 3253 1453 3087 958 
Q 2922 463 2592 192 
Q 2263 -78 1759 -78 
Q 1097 -78 719 397 
Q 266 969 266 2259 
z
M 844 2259 
Q 844 1131 1108 757 
Q 1372 384 1759 384 
Q 2147 384 2411 759 
Q 2675 1134 2675 2259 
Q 2675 3391 2411 3762 
Q 2147 4134 1753 4134 
Q 1366 4134 1134 3806 
Q 844 3388 844 2259 
z
" transform="scale(0.015625)"/>
        <path id="ArialMT-2e" d="M 581 0 
L 581 641 
L 1222 641 
L 1222 0 
L 581 0 
z
" transform="scale(0.015625)"/>
       </defs>
       <use xlink:href="#ArialMT-30"/>
       <use xlink:href="#ArialMT-2e" x="55.615234"/>
       <use xlink:href="#ArialMT-30" x="83.398438"/>
      </g>
     </g>
    </g>
    <g id="ytick_2">
     <g id="line2d_11">
      <g>
       <use xlink:href="#mab1ba4d1be" x="90" y="317.070297" style="fill: #262626; stroke: #262626"/>
      </g>
     </g>
     <g id="text_10">
      <!-- 0.5 -->
      <g style="fill: #262626" transform="translate(69.468 320.219734) scale(0.088 -0.088)">
       <defs>
        <path id="ArialMT-35" d="M 266 1200 
L 856 1250 
Q 922 819 1161 601 
Q 1400 384 1738 384 
Q 2144 384 2425 690 
Q 2706 997 2706 1503 
Q 2706 1984 2436 2262 
Q 2166 2541 1728 2541 
Q 1456 2541 1237 2417 
Q 1019 2294 894 2097 
L 366 2166 
L 809 4519 
L 3088 4519 
L 3088 3981 
L 1259 3981 
L 1013 2750 
Q 1425 3038 1878 3038 
Q 2478 3038 2890 2622 
Q 3303 2206 3303 1553 
Q 3303 931 2941 478 
Q 2500 -78 1738 -78 
Q 1113 -78 717 272 
Q 322 622 266 1200 
z
" transform="scale(0.015625)"/>
       </defs>
       <use xlink:href="#ArialMT-30"/>
       <use xlink:href="#ArialMT-2e" x="55.615234"/>
       <use xlink:href="#ArialMT-35" x="83.398438"/>
      </g>
     </g>
    </g>
    <g id="ytick_3">
     <g id="line2d_12">
      <g>
       <use xlink:href="#mab1ba4d1be" x="90" y="249.660594" style="fill: #262626; stroke: #262626"/>
      </g>
     </g>
     <g id="text_11">
      <!-- 1.0 -->
      <g style="fill: #262626" transform="translate(69.468 252.810031) scale(0.088 -0.088)">
       <use xlink:href="#ArialMT-31"/>
       <use xlink:href="#ArialMT-2e" x="55.615234"/>
       <use xlink:href="#ArialMT-30" x="83.398438"/>
      </g>
     </g>
    </g>
    <g id="ytick_4">
     <g id="line2d_13">
      <g>
       <use xlink:href="#mab1ba4d1be" x="90" y="182.25089" style="fill: #262626; stroke: #262626"/>
      </g>
     </g>
     <g id="text_12">
      <!-- 1.5 -->
      <g style="fill: #262626" transform="translate(69.468 185.400328) scale(0.088 -0.088)">
       <use xlink:href="#ArialMT-31"/>
       <use xlink:href="#ArialMT-2e" x="55.615234"/>
       <use xlink:href="#ArialMT-35" x="83.398438"/>
      </g>
     </g>
    </g>
    <g id="ytick_5">
     <g id="line2d_14">
      <g>
       <use xlink:href="#mab1ba4d1be" x="90" y="114.841187" style="fill: #262626; stroke: #262626"/>
      </g>
     </g>
     <g id="text_13">
      <!-- 2.0 -->
      <g style="fill: #262626" transform="translate(69.468 117.990625) scale(0.088 -0.088)">
       <use xlink:href="#ArialMT-32"/>
       <use xlink:href="#ArialMT-2e" x="55.615234"/>
       <use xlink:href="#ArialMT-30" x="83.398438"/>
      </g>
     </g>
    </g>
    <g id="text_14">
     <!-- information (bits) -->
     <g style="fill: #262626" transform="translate(63.4475 253.902) rotate(-90) scale(0.096 -0.096)">
      <defs>
       <path id="ArialMT-69" d="M 425 3934 
L 425 4581 
L 988 4581 
L 988 3934 
L 425 3934 
z
M 425 0 
L 425 3319 
L 988 3319 
L 988 0 
L 425 0 
z
" transform="scale(0.015625)"/>
       <path id="ArialMT-6e" d="M 422 0 
L 422 3319 
L 928 3319 
L 928 2847 
Q 1294 3394 1984 3394 
Q 2284 3394 2536 3286 
Q 2788 3178 2913 3003 
Q 3038 2828 3088 2588 
Q 3119 2431 3119 2041 
L 3119 0 
L 2556 0 
L 2556 2019 
Q 2556 2363 2490 2533 
Q 2425 2703 2258 2804 
Q 2091 2906 1866 2906 
Q 1506 2906 1245 2678 
Q 984 2450 984 1813 
L 984 0 
L 422 0 
z
" transform="scale(0.015625)"/>
       <path id="ArialMT-66" d="M 556 0 
L 556 2881 
L 59 2881 
L 59 3319 
L 556 3319 
L 556 3672 
Q 556 4006 616 4169 
Q 697 4388 901 4523 
Q 1106 4659 1475 4659 
Q 1713 4659 2000 4603 
L 1916 4113 
Q 1741 4144 1584 4144 
Q 1328 4144 1222 4034 
Q 1116 3925 1116 3625 
L 1116 3319 
L 1763 3319 
L 1763 2881 
L 1116 2881 
L 1116 0 
L 556 0 
z
" transform="scale(0.015625)"/>
       <path id="ArialMT-6f" d="M 213 1659 
Q 213 2581 725 3025 
Q 1153 3394 1769 3394 
Q 2453 3394 2887 2945 
Q 3322 2497 3322 1706 
Q 3322 1066 3130 698 
Q 2938 331 2570 128 
Q 2203 -75 1769 -75 
Q 1072 -75 642 372 
Q 213 819 213 1659 
z
M 791 1659 
Q 791 1022 1069 705 
Q 1347 388 1769 388 
Q 2188 388 2466 706 
Q 2744 1025 2744 1678 
Q 2744 2294 2464 2611 
Q 2184 2928 1769 2928 
Q 1347 2928 1069 2612 
Q 791 2297 791 1659 
z
" transform="scale(0.015625)"/>
       <path id="ArialMT-72" d="M 416 0 
L 416 3319 
L 922 3319 
L 922 2816 
Q 1116 3169 1280 3281 
Q 1444 3394 1641 3394 
Q 1925 3394 2219 3213 
L 2025 2691 
Q 1819 2813 1613 2813 
Q 1428 2813 1281 2702 
Q 1134 2591 1072 2394 
Q 978 2094 978 1738 
L 978 0 
L 416 0 
z
" transform="scale(0.015625)"/>
       <path id="ArialMT-6d" d="M 422 0 
L 422 3319 
L 925 3319 
L 925 2853 
Q 1081 3097 1340 3245 
Q 1600 3394 1931 3394 
Q 2300 3394 2536 3241 
Q 2772 3088 2869 2813 
Q 3263 3394 3894 3394 
Q 4388 3394 4653 3120 
Q 4919 2847 4919 2278 
L 4919 0 
L 4359 0 
L 4359 2091 
Q 4359 2428 4304 2576 
Q 4250 2725 4106 2815 
Q 3963 2906 3769 2906 
Q 3419 2906 3187 2673 
Q 2956 2441 2956 1928 
L 2956 0 
L 2394 0 
L 2394 2156 
Q 2394 2531 2256 2718 
Q 2119 2906 1806 2906 
Q 1569 2906 1367 2781 
Q 1166 2656 1075 2415 
Q 984 2175 984 1722 
L 984 0 
L 422 0 
z
" transform="scale(0.015625)"/>
       <path id="ArialMT-61" d="M 2588 409 
Q 2275 144 1986 34 
Q 1697 -75 1366 -75 
Q 819 -75 525 192 
Q 231 459 231 875 
Q 231 1119 342 1320 
Q 453 1522 633 1644 
Q 813 1766 1038 1828 
Q 1203 1872 1538 1913 
Q 2219 1994 2541 2106 
Q 2544 2222 2544 2253 
Q 2544 2597 2384 2738 
Q 2169 2928 1744 2928 
Q 1347 2928 1158 2789 
Q 969 2650 878 2297 
L 328 2372 
Q 403 2725 575 2942 
Q 747 3159 1072 3276 
Q 1397 3394 1825 3394 
Q 2250 3394 2515 3294 
Q 2781 3194 2906 3042 
Q 3031 2891 3081 2659 
Q 3109 2516 3109 2141 
L 3109 1391 
Q 3109 606 3145 398 
Q 3181 191 3288 0 
L 2700 0 
Q 2613 175 2588 409 
z
M 2541 1666 
Q 2234 1541 1622 1453 
Q 1275 1403 1131 1340 
Q 988 1278 909 1158 
Q 831 1038 831 891 
Q 831 666 1001 516 
Q 1172 366 1500 366 
Q 1825 366 2078 508 
Q 2331 650 2450 897 
Q 2541 1088 2541 1459 
L 2541 1666 
z
" transform="scale(0.015625)"/>
       <path id="ArialMT-74" d="M 1650 503 
L 1731 6 
Q 1494 -44 1306 -44 
Q 1000 -44 831 53 
Q 663 150 594 308 
Q 525 466 525 972 
L 525 2881 
L 113 2881 
L 113 3319 
L 525 3319 
L 525 4141 
L 1084 4478 
L 1084 3319 
L 1650 3319 
L 1650 2881 
L 1084 2881 
L 1084 941 
Q 1084 700 1114 631 
Q 1144 563 1211 522 
Q 1278 481 1403 481 
Q 1497 481 1650 503 
z
" transform="scale(0.015625)"/>
       <path id="ArialMT-20" transform="scale(0.015625)"/>
       <path id="ArialMT-28" d="M 1497 -1347 
Q 1031 -759 709 28 
Q 388 816 388 1659 
Q 388 2403 628 3084 
Q 909 3875 1497 4659 
L 1900 4659 
Q 1522 4009 1400 3731 
Q 1209 3300 1100 2831 
Q 966 2247 966 1656 
Q 966 153 1900 -1347 
L 1497 -1347 
z
" transform="scale(0.015625)"/>
       <path id="ArialMT-62" d="M 941 0 
L 419 0 
L 419 4581 
L 981 4581 
L 981 2947 
Q 1338 3394 1891 3394 
Q 2197 3394 2470 3270 
Q 2744 3147 2920 2923 
Q 3097 2700 3197 2384 
Q 3297 2069 3297 1709 
Q 3297 856 2875 390 
Q 2453 -75 1863 -75 
Q 1275 -75 941 416 
L 941 0 
z
M 934 1684 
Q 934 1088 1097 822 
Q 1363 388 1816 388 
Q 2184 388 2453 708 
Q 2722 1028 2722 1663 
Q 2722 2313 2464 2622 
Q 2206 2931 1841 2931 
Q 1472 2931 1203 2611 
Q 934 2291 934 1684 
z
" transform="scale(0.015625)"/>
       <path id="ArialMT-73" d="M 197 991 
L 753 1078 
Q 800 744 1014 566 
Q 1228 388 1613 388 
Q 2000 388 2187 545 
Q 2375 703 2375 916 
Q 2375 1106 2209 1216 
Q 2094 1291 1634 1406 
Q 1016 1563 777 1677 
Q 538 1791 414 1992 
Q 291 2194 291 2438 
Q 291 2659 392 2848 
Q 494 3038 669 3163 
Q 800 3259 1026 3326 
Q 1253 3394 1513 3394 
Q 1903 3394 2198 3281 
Q 2494 3169 2634 2976 
Q 2775 2784 2828 2463 
L 2278 2388 
Q 2241 2644 2061 2787 
Q 1881 2931 1553 2931 
Q 1166 2931 1000 2803 
Q 834 2675 834 2503 
Q 834 2394 903 2306 
Q 972 2216 1119 2156 
Q 1203 2125 1616 2013 
Q 2213 1853 2448 1751 
Q 2684 1650 2818 1456 
Q 2953 1263 2953 975 
Q 2953 694 2789 445 
Q 2625 197 2315 61 
Q 2006 -75 1616 -75 
Q 969 -75 630 194 
Q 291 463 197 991 
z
" transform="scale(0.015625)"/>
       <path id="ArialMT-29" d="M 791 -1347 
L 388 -1347 
Q 1322 153 1322 1656 
Q 1322 2244 1188 2822 
Q 1081 3291 891 3722 
Q 769 4003 388 4659 
L 791 4659 
Q 1378 3875 1659 3084 
Q 1900 2403 1900 1659 
Q 1900 816 1576 28 
Q 1253 -759 791 -1347 
z
" transform="scale(0.015625)"/>
      </defs>
      <use xlink:href="#ArialMT-69"/>
      <use xlink:href="#ArialMT-6e" x="22.216797"/>
      <use xlink:href="#ArialMT-66" x="77.832031"/>
      <use xlink:href="#ArialMT-6f" x="105.615234"/>
      <use xlink:href="#ArialMT-72" x="161.230469"/>
      <use xlink:href="#ArialMT-6d" x="194.53125"/>
      <use xlink:href="#ArialMT-61" x="277.832031"/>
      <use xlink:href="#ArialMT-74" x="333.447266"/>
      <use xlink:href="#ArialMT-69" x="361.230469"/>
      <use xlink:href="#ArialMT-6f" x="383.447266"/>
      <use xlink:href="#ArialMT-6e" x="439.0625"/>
      <use xlink:href="#ArialMT-20" x="494.677734"/>
      <use xlink:href="#ArialMT-28" x="522.460938"/>
      <use xlink:href="#ArialMT-62" x="555.761719"/>
      <use xlink:href="#ArialMT-69" x="611.376953"/>
      <use xlink:href="#ArialMT-74" x="633.59375"/>
      <use xlink:href="#ArialMT-73" x="661.376953"/>
      <use xlink:href="#ArialMT-29" x="711.376953"/>
     </g>
    </g>
   </g>
   <g id="line2d_15">
    <path d="M 369 384.48 
L 369 51.84 
" clip-path="url(#p570413d08f)" style="fill: none; stroke: #daa520; stroke-width: 2; stroke-linecap: round"/>
   </g>
   <g id="patch_65">
    <path d="M 90 384.48 
L 648 384.48 
" style="fill: none; stroke: #262626; stroke-linejoin: miter; stroke-linecap: square"/>
   </g>
   <g id="patch_66">
    <path d="M 90 51.84 
L 648 51.84 
" style="fill: none; stroke: #262626; stroke-linejoin: miter; stroke-linecap: square"/>
   </g>
   <g id="text_15">
    <!-- GluC vs. Ctrl information content, Kullback n=74 -->
    <g style="fill: #262626" transform="translate(266.691 45.84) scale(0.096 -0.096)">
     <defs>
      <path id="ArialMT-47" d="M 2638 1797 
L 2638 2334 
L 4578 2338 
L 4578 638 
Q 4131 281 3656 101 
Q 3181 -78 2681 -78 
Q 2006 -78 1454 211 
Q 903 500 622 1047 
Q 341 1594 341 2269 
Q 341 2938 620 3517 
Q 900 4097 1425 4378 
Q 1950 4659 2634 4659 
Q 3131 4659 3532 4498 
Q 3934 4338 4162 4050 
Q 4391 3763 4509 3300 
L 3963 3150 
Q 3859 3500 3706 3700 
Q 3553 3900 3268 4020 
Q 2984 4141 2638 4141 
Q 2222 4141 1919 4014 
Q 1616 3888 1430 3681 
Q 1244 3475 1141 3228 
Q 966 2803 966 2306 
Q 966 1694 1177 1281 
Q 1388 869 1791 669 
Q 2194 469 2647 469 
Q 3041 469 3416 620 
Q 3791 772 3984 944 
L 3984 1797 
L 2638 1797 
z
" transform="scale(0.015625)"/>
      <path id="ArialMT-6c" d="M 409 0 
L 409 4581 
L 972 4581 
L 972 0 
L 409 0 
z
" transform="scale(0.015625)"/>
      <path id="ArialMT-75" d="M 2597 0 
L 2597 488 
Q 2209 -75 1544 -75 
Q 1250 -75 995 37 
Q 741 150 617 320 
Q 494 491 444 738 
Q 409 903 409 1263 
L 409 3319 
L 972 3319 
L 972 1478 
Q 972 1038 1006 884 
Q 1059 663 1231 536 
Q 1403 409 1656 409 
Q 1909 409 2131 539 
Q 2353 669 2445 892 
Q 2538 1116 2538 1541 
L 2538 3319 
L 3100 3319 
L 3100 0 
L 2597 0 
z
" transform="scale(0.015625)"/>
      <path id="ArialMT-43" d="M 3763 1606 
L 4369 1453 
Q 4178 706 3683 314 
Q 3188 -78 2472 -78 
Q 1731 -78 1267 223 
Q 803 525 561 1097 
Q 319 1669 319 2325 
Q 319 3041 592 3573 
Q 866 4106 1370 4382 
Q 1875 4659 2481 4659 
Q 3169 4659 3637 4309 
Q 4106 3959 4291 3325 
L 3694 3184 
Q 3534 3684 3231 3912 
Q 2928 4141 2469 4141 
Q 1941 4141 1586 3887 
Q 1231 3634 1087 3207 
Q 944 2781 944 2328 
Q 944 1744 1114 1308 
Q 1284 872 1643 656 
Q 2003 441 2422 441 
Q 2931 441 3284 734 
Q 3638 1028 3763 1606 
z
" transform="scale(0.015625)"/>
      <path id="ArialMT-76" d="M 1344 0 
L 81 3319 
L 675 3319 
L 1388 1331 
Q 1503 1009 1600 663 
Q 1675 925 1809 1294 
L 2547 3319 
L 3125 3319 
L 1869 0 
L 1344 0 
z
" transform="scale(0.015625)"/>
      <path id="ArialMT-63" d="M 2588 1216 
L 3141 1144 
Q 3050 572 2676 248 
Q 2303 -75 1759 -75 
Q 1078 -75 664 370 
Q 250 816 250 1647 
Q 250 2184 428 2587 
Q 606 2991 970 3192 
Q 1334 3394 1763 3394 
Q 2303 3394 2647 3120 
Q 2991 2847 3088 2344 
L 2541 2259 
Q 2463 2594 2264 2762 
Q 2066 2931 1784 2931 
Q 1359 2931 1093 2626 
Q 828 2322 828 1663 
Q 828 994 1084 691 
Q 1341 388 1753 388 
Q 2084 388 2306 591 
Q 2528 794 2588 1216 
z
" transform="scale(0.015625)"/>
      <path id="ArialMT-65" d="M 2694 1069 
L 3275 997 
Q 3138 488 2766 206 
Q 2394 -75 1816 -75 
Q 1088 -75 661 373 
Q 234 822 234 1631 
Q 234 2469 665 2931 
Q 1097 3394 1784 3394 
Q 2450 3394 2872 2941 
Q 3294 2488 3294 1666 
Q 3294 1616 3291 1516 
L 816 1516 
Q 847 969 1125 678 
Q 1403 388 1819 388 
Q 2128 388 2347 550 
Q 2566 713 2694 1069 
z
M 847 1978 
L 2700 1978 
Q 2663 2397 2488 2606 
Q 2219 2931 1791 2931 
Q 1403 2931 1139 2672 
Q 875 2413 847 1978 
z
" transform="scale(0.015625)"/>
      <path id="ArialMT-2c" d="M 569 0 
L 569 641 
L 1209 641 
L 1209 0 
Q 1209 -353 1084 -570 
Q 959 -788 688 -906 
L 531 -666 
Q 709 -588 793 -436 
Q 878 -284 888 0 
L 569 0 
z
" transform="scale(0.015625)"/>
      <path id="ArialMT-4b" d="M 469 0 
L 469 4581 
L 1075 4581 
L 1075 2309 
L 3350 4581 
L 4172 4581 
L 2250 2725 
L 4256 0 
L 3456 0 
L 1825 2319 
L 1075 1588 
L 1075 0 
L 469 0 
z
" transform="scale(0.015625)"/>
      <path id="ArialMT-6b" d="M 425 0 
L 425 4581 
L 988 4581 
L 988 1969 
L 2319 3319 
L 3047 3319 
L 1778 2088 
L 3175 0 
L 2481 0 
L 1384 1697 
L 988 1316 
L 988 0 
L 425 0 
z
" transform="scale(0.015625)"/>
      <path id="ArialMT-3d" d="M 3381 2694 
L 356 2694 
L 356 3219 
L 3381 3219 
L 3381 2694 
z
M 3381 1303 
L 356 1303 
L 356 1828 
L 3381 1828 
L 3381 1303 
z
" transform="scale(0.015625)"/>
      <path id="ArialMT-37" d="M 303 3981 
L 303 4522 
L 3269 4522 
L 3269 4084 
Q 2831 3619 2401 2847 
Q 1972 2075 1738 1259 
Q 1569 684 1522 0 
L 944 0 
Q 953 541 1156 1306 
Q 1359 2072 1739 2783 
Q 2119 3494 2547 3981 
L 303 3981 
z
" transform="scale(0.015625)"/>
     </defs>
     <use xlink:href="#ArialMT-47"/>
     <use xlink:href="#ArialMT-6c" x="77.783203"/>
     <use xlink:href="#ArialMT-75" x="100"/>
     <use xlink:href="#ArialMT-43" x="155.615234"/>
     <use xlink:href="#ArialMT-20" x="227.832031"/>
     <use xlink:href="#ArialMT-76" x="255.615234"/>
     <use xlink:href="#ArialMT-73" x="305.615234"/>
     <use xlink:href="#ArialMT-2e" x="355.615234"/>
     <use xlink:href="#ArialMT-20" x="383.398438"/>
     <use xlink:href="#ArialMT-43" x="411.181641"/>
     <use xlink:href="#ArialMT-74" x="483.398438"/>
     <use xlink:href="#ArialMT-72" x="511.181641"/>
     <use xlink:href="#ArialMT-6c" x="544.482422"/>
     <use xlink:href="#ArialMT-20" x="566.699219"/>
     <use xlink:href="#ArialMT-69" x="594.482422"/>
     <use xlink:href="#ArialMT-6e" x="616.699219"/>
     <use xlink:href="#ArialMT-66" x="672.314453"/>
     <use xlink:href="#ArialMT-6f" x="700.097656"/>
     <use xlink:href="#ArialMT-72" x="755.712891"/>
     <use xlink:href="#ArialMT-6d" x="789.013672"/>
     <use xlink:href="#ArialMT-61" x="872.314453"/>
     <use xlink:href="#ArialMT-74" x="927.929688"/>
     <use xlink:href="#ArialMT-69" x="955.712891"/>
     <use xlink:href="#ArialMT-6f" x="977.929688"/>
     <use xlink:href="#ArialMT-6e" x="1033.544922"/>
     <use xlink:href="#ArialMT-20" x="1089.160156"/>
     <use xlink:href="#ArialMT-63" x="1116.943359"/>
     <use xlink:href="#ArialMT-6f" x="1166.943359"/>
     <use xlink:href="#ArialMT-6e" x="1222.558594"/>
     <use xlink:href="#ArialMT-74" x="1278.173828"/>
     <use xlink:href="#ArialMT-65" x="1305.957031"/>
     <use xlink:href="#ArialMT-6e" x="1361.572266"/>
     <use xlink:href="#ArialMT-74" x="1417.1875"/>
     <use xlink:href="#ArialMT-2c" x="1444.970703"/>
     <use xlink:href="#ArialMT-20" x="1472.753906"/>
     <use xlink:href="#ArialMT-4b" x="1500.537109"/>
     <use xlink:href="#ArialMT-75" x="1567.236328"/>
     <use xlink:href="#ArialMT-6c" x="1622.851562"/>
     <use xlink:href="#ArialMT-6c" x="1645.068359"/>
     <use xlink:href="#ArialMT-62" x="1667.285156"/>
     <use xlink:href="#ArialMT-61" x="1722.900391"/>
     <use xlink:href="#ArialMT-63" x="1778.515625"/>
     <use xlink:href="#ArialMT-6b" x="1828.515625"/>
     <use xlink:href="#ArialMT-20" x="1878.515625"/>
     <use xlink:href="#ArialMT-6e" x="1906.298828"/>
     <use xlink:href="#ArialMT-3d" x="1961.914062"/>
     <use xlink:href="#ArialMT-37" x="2020.3125"/>
     <use xlink:href="#ArialMT-34" x="2075.927734"/>
    </g>
   </g>
  </g>
 </g>
 <defs>
  <clipPath id="p570413d08f">
   <rect x="90" y="51.84" width="558" height="332.64"/>
  </clipPath>
 </defs>
</svg>
