<?xml version="1.0" encoding="utf-8" standalone="no"?>
<!DOCTYPE svg PUBLIC "-//W3C//DTD SVG 1.1//EN"
  "http://www.w3.org/Graphics/SVG/1.1/DTD/svg11.dtd">
<svg xmlns:xlink="http://www.w3.org/1999/xlink" width="720pt" height="432pt" viewBox="0 0 720 432" xmlns="http://www.w3.org/2000/svg" version="1.1">
 <metadata>
  <rdf:RDF xmlns:dc="http://purl.org/dc/elements/1.1/" xmlns:cc="http://creativecommons.org/ns#" xmlns:rdf="http://www.w3.org/1999/02/22-rdf-syntax-ns#">
   <cc:Work>
    <dc:type rdf:resource="http://purl.org/dc/dcmitype/StillImage"/>
    <dc:date>2023-11-11T10:27:31.073732</dc:date>
    <dc:format>image/svg+xml</dc:format>
    <dc:creator>
     <cc:Agent>
      <dc:title>Matplotlib v3.7.1, https://matplotlib.org/</dc:title>
     </cc:Agent>
    </dc:creator>
   </cc:Work>
  </rdf:RDF>
 </metadata>
 <defs>
  <style type="text/css">*{stroke-linejoin: round; stroke-linecap: butt}</style>
 </defs>
 <g id="figure_1">
  <g id="patch_1">
   <path d="M 0 432 
L 720 432 
L 720 0 
L 0 0 
z
" style="fill: #ffffff"/>
  </g>
  <g id="axes_1">
   <g id="patch_2">
    <path d="M 90 384.48 
L 648 384.48 
L 648 51.84 
L 90 51.84 
z
" style="fill: #ffffff"/>
   </g>
   <g id="patch_3">
    <path d="M 307 384.48 
L 369 384.48 
L 369 51.84 
L 307 51.84 
z
" clip-path="url(#pa871d7eadf)" style="fill: #ffd700; opacity: 0.35; stroke: #ffffff; stroke-width: 0.8; stroke-linejoin: miter"/>
   </g>
   <g id="line2d_1">
    <path d="M 90 384.48 
L 648 384.48 
" clip-path="url(#pa871d7eadf)" style="fill: none; stroke: #000000; stroke-width: 0.5; stroke-linecap: round"/>
   </g>
   <g id="patch_4">
    <path d="M 140.091481 380.930086 
L 140.091481 383.535694 
L 145.265444 383.535694 
Q 154.112802 383.535694 158.782574 383.200727 
Q 163.464351 382.865759 163.464351 382.227856 
Q 163.464351 381.593615 158.806583 381.262308 
Q 154.16082 380.930086 145.265444 380.930086 
L 140.091481 380.930086 
z
M 125.65 380.097243 
L 140.871777 380.097243 
Q 153.63262 380.097243 159.874989 380.236355 
Q 166.117358 380.374552 170.583052 380.706774 
Q 174.520547 380.995981 176.429271 381.373964 
Q 178.35 381.751031 178.35 382.227856 
Q 178.35 382.712003 176.429271 383.090901 
Q 174.520547 383.469799 170.583052 383.758091 
Q 166.081344 384.090312 159.778952 384.229425 
Q 153.47656 384.367622 140.871777 384.367622 
L 125.65 384.367622 
L 125.65 380.097243 
z
" clip-path="url(#pa871d7eadf)" style="fill: #6b296b"/>
   </g>
   <g id="patch_5">
    <path d="M 178.35 379.486115 
Q 173.035119 379.679301 167.318669 379.776335 
Q 161.602219 379.872486 155.507822 379.872486 
Q 141.736374 379.872486 133.693187 379.297339 
Q 125.65 378.722192 125.65 377.73862 
Q 125.65 376.743581 133.834917 376.172844 
Q 142.031645 375.602108 156.287338 375.602108 
Q 161.779381 375.602108 166.810802 375.679735 
Q 171.854034 375.75648 176.318534 375.908206 
L 176.318534 376.759459 
Q 171.712304 376.564509 167.153317 376.468357 
Q 162.59433 376.371323 158.011721 376.371323 
Q 149.531533 376.371323 144.937113 376.725938 
Q 140.342694 377.079671 140.342694 377.73862 
Q 140.342694 378.391395 144.771762 378.747774 
Q 149.200829 379.103271 157.350314 379.103271 
Q 159.570753 379.103271 161.472299 379.082983 
Q 163.373846 379.061811 164.885634 379.017705 
L 164.885634 378.218498 
L 156.204662 378.218498 
L 156.204662 377.506621 
L 178.35 377.506621 
L 178.35 379.486115 
z
" clip-path="url(#pa871d7eadf)" style="fill: #787800"/>
   </g>
   <g id="patch_6">
    <path d="M 153.405333 374.738748 
L 152.373292 374.738748 
Q 139.714313 374.738748 132.676667 374.260171 
Q 125.65 373.780843 125.65 372.926617 
Q 125.65 372.073894 132.665687 371.590809 
Q 139.681375 371.106973 152 371.106973 
Q 164.450375 371.106973 171.400188 371.586301 
Q 178.35 372.064878 178.35 372.926617 
Q 178.35 373.517889 174.661 373.945377 
Q 170.972 374.372866 164.044146 374.588488 
L 174.364563 375.377351 
L 161.771458 375.377351 
L 153.405333 374.738748 
z
M 152 371.762105 
Q 145.961458 371.762105 142.634771 372.067132 
Q 139.308083 372.372159 139.308083 372.926617 
Q 139.308083 373.490091 142.557917 373.789858 
Q 145.818729 374.088875 152 374.088875 
Q 158.071479 374.088875 161.398167 373.783848 
Q 164.724854 373.47807 164.724854 372.926617 
Q 164.724854 372.372159 161.398167 372.067132 
Q 158.071479 371.762105 152 371.762105 
z
" clip-path="url(#pa871d7eadf)" style="fill: #40ba47"/>
   </g>
   <g id="patch_7">
    <path d="M 125.65 362.229081 
L 140.813382 362.229081 
L 140.813382 365.483574 
L 163.186618 365.483574 
L 163.186618 362.229081 
L 178.35 362.229081 
L 178.35 370.769838 
L 163.186618 370.769838 
L 163.186618 367.14926 
L 140.813382 367.14926 
L 140.813382 370.769838 
L 125.65 370.769838 
L 125.65 362.229081 
z
" clip-path="url(#pa871d7eadf)" style="fill: #177875"/>
   </g>
   <g id="patch_8">
    <path d="M 125.65 353.238811 
L 141.195992 353.238811 
L 151.979692 357.809379 
L 162.83447 353.238811 
L 178.35 353.238811 
L 178.35 361.779568 
L 166.80474 361.779568 
L 166.80474 355.532332 
L 155.889037 360.137678 
L 148.141426 360.137678 
L 137.225723 355.532332 
L 137.225723 361.779568 
L 125.65 361.779568 
L 125.65 353.238811 
z
" clip-path="url(#pa871d7eadf)" style="fill: #21599c"/>
   </g>
   <g id="patch_9">
    <path d="M 126.198462 339.865784 
L 177.801538 339.865784 
L 177.801538 342.364312 
L 145.323077 342.364312 
L 145.323077 344.747524 
L 175.877949 344.747524 
L 175.877949 347.246052 
L 145.323077 347.246052 
L 145.323077 352.676919 
L 126.198462 352.676919 
L 126.198462 339.865784 
z
" clip-path="url(#pa871d7eadf)" style="fill: #21599c"/>
   </g>
   <g id="patch_10">
    <path d="M 142.437692 321.997622 
L 161.562308 321.997622 
L 161.562308 339.079135 
L 142.437692 339.079135 
L 142.437692 321.997622 
z
" clip-path="url(#pa871d7eadf)" style="fill: #21599c"/>
   </g>
   <g id="patch_11">
    <path d="M 125.65 304.017081 
L 153.043021 304.017081 
Q 165.271068 304.017081 171.803672 305.466777 
Q 178.35 306.912811 178.35 309.588891 
Q 178.35 312.279613 171.803672 313.725648 
Q 165.271068 315.171683 153.043021 315.171683 
L 142.159922 315.171683 
L 142.159922 321.098595 
L 125.65 321.098595 
L 125.65 304.017081 
z
M 142.159922 307.20934 
L 142.159922 311.979424 
L 151.286354 311.979424 
Q 156.08974 311.979424 158.711016 311.35708 
Q 161.332292 310.734736 161.332292 309.588891 
Q 161.332292 308.446706 158.711016 307.828023 
Q 156.08974 307.20934 151.286354 307.20934 
L 142.159922 307.20934 
z
" clip-path="url(#pa871d7eadf)" style="fill: #787800"/>
   </g>
   <g id="patch_12">
    <path d="M 173.955948 286.851626 
L 173.955948 290.337793 
Q 168.459804 289.73089 163.221293 289.423909 
Q 157.997094 289.113401 153.34541 289.113401 
Q 147.176562 289.113401 144.213797 289.533293 
Q 141.265345 289.949657 141.265345 290.831785 
Q 141.265345 291.495144 143.254834 291.865638 
Q 145.244324 292.232603 150.482835 292.497241 
L 157.811027 292.860678 
Q 168.946442 293.414653 173.641065 294.540248 
Q 178.35 295.662314 178.35 297.737077 
Q 178.35 300.457558 171.794704 301.787806 
Q 165.239408 303.118054 151.770994 303.118054 
Q 145.430391 303.118054 139.032537 302.818131 
Q 132.634682 302.521736 126.236828 301.936003 
L 126.236828 298.354567 
Q 132.634682 299.190823 138.60315 299.617773 
Q 144.571619 300.041194 150.125014 300.041194 
Q 155.764286 300.041194 158.755676 299.578959 
Q 161.747067 299.113196 161.747067 298.25224 
Q 161.747067 297.483025 159.714639 297.063132 
Q 157.682211 296.643239 151.59924 296.31156 
L 144.929441 295.948123 
Q 134.910429 295.418847 130.273058 294.261496 
Q 125.65 293.104145 125.65 291.142293 
Q 125.65 288.682923 132.090793 287.359732 
Q 138.531586 286.036541 150.611651 286.036541 
Q 156.122108 286.036541 161.933134 286.241194 
Q 167.744161 286.445848 173.955948 286.851626 
z
" clip-path="url(#pa871d7eadf)" style="fill: #40ba47"/>
   </g>
   <g id="patch_13">
    <path d="M 125.65 263.673243 
L 140.22 263.673243 
L 151.988929 271.28323 
L 163.746786 263.673243 
L 178.35 263.673243 
L 158.665 276.028603 
L 158.665 285.025135 
L 145.346071 285.025135 
L 145.346071 276.028603 
L 125.65 263.673243 
z
" clip-path="url(#pa871d7eadf)" style="fill: #177875"/>
   </g>
   <g id="patch_14">
    <path d="M 125.65 241.197568 
L 177.253077 241.197568 
L 177.253077 245.361781 
L 144.774615 245.361781 
L 144.774615 249.333801 
L 175.329487 249.333801 
L 175.329487 253.498015 
L 144.774615 253.498015 
L 144.774615 258.389822 
L 178.35 258.389822 
L 178.35 262.549459 
L 125.65 262.549459 
L 125.65 241.197568 
z
" clip-path="url(#pa871d7eadf)" style="fill: #6b296b"/>
   </g>
   <g id="patch_15">
    <path d="M 125.65 214.339135 
L 138.68762 214.339135 
L 152.016162 233.251072 
L 165.323155 214.339135 
L 178.35 214.339135 
L 159.730985 239.961405 
L 144.269015 239.961405 
L 125.65 214.339135 
z
" clip-path="url(#pa871d7eadf)" style="fill: #21599c"/>
   </g>
   <g id="patch_16">
    <path d="M 125.65 187.368324 
L 178.35 187.368324 
L 178.35 192.365381 
L 159.390256 192.365381 
L 159.390256 212.990595 
L 144.646512 212.990595 
L 144.646512 192.365381 
L 125.65 192.365381 
L 125.65 187.368324 
z
" clip-path="url(#pa871d7eadf)" style="fill: #40ba47"/>
   </g>
   <g id="patch_17">
    <path d="M 125.65 160.397514 
L 144.774615 160.397514 
L 144.774615 181.028218 
L 178.35 181.028218 
L 178.35 186.019784 
L 125.65 186.019784 
L 125.65 160.397514 
z
" clip-path="url(#pa871d7eadf)" style="fill: #21599c"/>
   </g>
   <g id="patch_18">
    <path d="M 147.032787 144.788142 
Q 151.762274 144.788142 153.814221 144.019364 
Q 155.866168 143.245095 155.866168 141.476906 
Q 155.866168 139.72519 153.814221 138.972886 
Q 151.762274 138.215091 147.032787 138.215091 
L 140.701781 138.215091 
L 140.701781 144.788142 
L 147.032787 144.788142 
z
M 140.701781 149.351388 
L 140.701781 159.048973 
L 125.65 159.048973 
L 125.65 133.426703 
L 148.634307 133.426703 
Q 160.170252 133.426703 165.537844 135.128997 
Q 170.917949 136.825799 170.917949 140.49946 
Q 170.917949 143.036427 168.11529 144.667334 
Q 165.325142 146.298242 159.694801 147.072511 
Q 162.785233 147.380022 165.225047 148.472785 
Q 167.677374 149.560057 170.179748 151.773039 
L 178.35 159.048973 
L 162.322293 159.048973 
L 155.203039 152.68459 
Q 153.050997 150.762645 150.836396 150.059762 
Q 148.634307 149.351388 144.955817 149.351388 
L 140.701781 149.351388 
z
" clip-path="url(#pa871d7eadf)" style="fill: #bd2e1f"/>
   </g>
   <g id="patch_19">
    <path d="M 125.65 97.690378 
L 139.537864 97.690378 
L 139.537864 110.159224 
L 159.555783 97.690378 
L 175.683253 97.690378 
L 149.743078 113.871323 
L 178.35 131.853405 
L 160.964195 131.853405 
L 139.537864 118.396131 
L 139.537864 131.853405 
L 125.65 131.853405 
L 125.65 97.690378 
z
" clip-path="url(#pa871d7eadf)" style="fill: #bd2e1f"/>
   </g>
   <g id="patch_20">
    <path d="M 162.155336 87.888267 
L 141.887763 87.888267 
L 138.68762 95.667568 
L 125.65 95.667568 
L 144.269015 52.963784 
L 159.730985 52.963784 
L 178.35 95.667568 
L 165.323155 95.667568 
L 162.155336 87.888267 
z
M 145.120231 79.962533 
L 158.890544 79.962533 
L 152.016162 62.976201 
L 145.120231 79.962533 
z
" clip-path="url(#pa871d7eadf)" style="fill: #21599c"/>
   </g>
   <g id="patch_21">
    <path d="M 224.155336 383.589692 
L 203.887763 383.589692 
L 200.68762 384.367622 
L 187.65 384.367622 
L 206.269015 380.097243 
L 221.730985 380.097243 
L 240.35 384.367622 
L 227.323155 384.367622 
L 224.155336 383.589692 
z
M 207.120231 382.797118 
L 220.890544 382.797118 
L 214.016162 381.098485 
L 207.120231 382.797118 
z
" clip-path="url(#pa871d7eadf)" style="fill: #21599c"/>
   </g>
   <g id="patch_22">
    <path d="M 235.955948 375.80588 
L 235.955948 376.677421 
Q 230.459804 376.525695 225.221293 376.44895 
Q 219.997094 376.371323 215.34541 376.371323 
Q 209.176562 376.371323 206.213797 376.476296 
Q 203.265345 376.580387 203.265345 376.800919 
Q 203.265345 376.966759 205.254834 377.059382 
Q 207.244324 377.151124 212.482835 377.217283 
L 219.811027 377.308142 
Q 230.946442 377.446636 235.641065 377.728035 
Q 240.35 378.008551 240.35 378.527242 
Q 240.35 379.207362 233.794704 379.539924 
Q 227.239408 379.872486 213.770994 379.872486 
Q 207.430391 379.872486 201.032537 379.797506 
Q 194.634682 379.723407 188.236828 379.576974 
L 188.236828 378.681615 
Q 194.634682 378.890679 200.60315 378.997416 
Q 206.571619 379.103271 212.125014 379.103271 
Q 217.764286 379.103271 220.755676 378.987713 
Q 223.747067 378.871272 223.747067 378.656033 
Q 223.747067 378.463729 221.714639 378.358756 
Q 219.682211 378.253783 213.59924 378.170863 
L 206.929441 378.080004 
Q 196.910429 377.947685 192.273058 377.658347 
Q 187.65 377.369009 187.65 376.878546 
Q 187.65 376.263704 194.090793 375.932906 
Q 200.531586 375.602108 212.611651 375.602108 
Q 218.122108 375.602108 223.933134 375.653271 
Q 229.744161 375.704435 235.955948 375.80588 
z
" clip-path="url(#pa871d7eadf)" style="fill: #40ba47"/>
   </g>
   <g id="patch_23">
    <path d="M 187.65 371.106973 
L 215.043021 371.106973 
Q 227.271068 371.106973 233.803672 371.469397 
Q 240.35 371.830906 240.35 372.499925 
Q 240.35 373.172606 233.803672 373.534115 
Q 227.271068 373.895623 215.043021 373.895623 
L 204.159922 373.895623 
L 204.159922 375.377351 
L 187.65 375.377351 
L 187.65 371.106973 
z
M 204.159922 371.905038 
L 204.159922 373.097559 
L 213.286354 373.097559 
Q 218.08974 373.097559 220.711016 372.941973 
Q 223.332292 372.786387 223.332292 372.499925 
Q 223.332292 372.214379 220.711016 372.059708 
Q 218.08974 371.905038 213.286354 371.905038 
L 204.159922 371.905038 
z
" clip-path="url(#pa871d7eadf)" style="fill: #787800"/>
   </g>
   <g id="patch_24">
    <path d="M 187.65 366.611838 
L 204.578032 366.611838 
L 225.968106 369.540516 
L 225.968106 366.611838 
L 240.35 366.611838 
L 240.35 370.882216 
L 223.409364 370.882216 
L 202.01929 367.953538 
L 202.01929 370.882216 
L 187.65 370.882216 
L 187.65 366.611838 
z
" clip-path="url(#pa871d7eadf)" style="fill: #40ba47"/>
   </g>
   <g id="patch_25">
    <path d="M 187.65 362.116703 
L 202.22 362.116703 
L 213.988929 363.6387 
L 225.746786 362.116703 
L 240.35 362.116703 
L 220.665 364.587775 
L 220.665 366.387081 
L 207.346071 366.387081 
L 207.346071 364.587775 
L 187.65 362.116703 
z
" clip-path="url(#pa871d7eadf)" style="fill: #177875"/>
   </g>
   <g id="patch_26">
    <path d="M 187.65 357.621568 
L 202.813382 357.621568 
L 202.813382 359.248814 
L 225.186618 359.248814 
L 225.186618 357.621568 
L 240.35 357.621568 
L 240.35 361.891946 
L 225.186618 361.891946 
L 225.186618 360.081657 
L 202.813382 360.081657 
L 202.813382 361.891946 
L 187.65 361.891946 
L 187.65 357.621568 
z
" clip-path="url(#pa871d7eadf)" style="fill: #177875"/>
   </g>
   <g id="patch_27">
    <path d="M 202.091481 350.409361 
L 202.091481 355.620577 
L 207.265444 355.620577 
Q 216.112802 355.620577 220.782574 354.950642 
Q 225.464351 354.280707 225.464351 353.004902 
Q 225.464351 351.736418 220.806583 351.073805 
Q 216.16082 350.409361 207.265444 350.409361 
L 202.091481 350.409361 
z
M 187.65 348.743676 
L 202.871777 348.743676 
Q 215.63262 348.743676 221.874989 349.0219 
Q 228.117358 349.298294 232.583052 349.962738 
Q 236.520547 350.541152 238.429271 351.297117 
Q 240.35 352.051251 240.35 353.004902 
Q 240.35 353.973196 238.429271 354.730991 
Q 236.520547 355.488787 232.583052 356.06537 
Q 228.081344 356.729814 221.778952 357.008038 
Q 215.47656 357.284432 202.871777 357.284432 
L 187.65 357.284432 
L 187.65 348.743676 
z
" clip-path="url(#pa871d7eadf)" style="fill: #6b296b"/>
   </g>
   <g id="patch_28">
    <path d="M 187.65 335.370649 
L 203.195992 335.370649 
L 213.979692 342.2265 
L 224.83447 335.370649 
L 240.35 335.370649 
L 240.35 348.181784 
L 228.80474 348.181784 
L 228.80474 338.81093 
L 217.889037 345.718949 
L 210.141426 345.718949 
L 199.225723 338.81093 
L 199.225723 348.181784 
L 187.65 348.181784 
L 187.65 335.370649 
z
" clip-path="url(#pa871d7eadf)" style="fill: #21599c"/>
   </g>
   <g id="patch_29">
    <path d="M 188.198462 321.885243 
L 239.801538 321.885243 
L 239.801538 324.383772 
L 207.323077 324.383772 
L 207.323077 326.766983 
L 237.877949 326.766983 
L 237.877949 329.265511 
L 207.323077 329.265511 
L 207.323077 334.696378 
L 188.198462 334.696378 
L 188.198462 321.885243 
z
" clip-path="url(#pa871d7eadf)" style="fill: #21599c"/>
   </g>
   <g id="patch_30">
    <path d="M 187.65 308.399838 
L 240.35 308.399838 
L 240.35 310.898366 
L 221.390256 310.898366 
L 221.390256 321.210973 
L 206.646512 321.210973 
L 206.646512 310.898366 
L 187.65 310.898366 
L 187.65 308.399838 
z
" clip-path="url(#pa871d7eadf)" style="fill: #40ba47"/>
   </g>
   <g id="patch_31">
    <path d="M 215.405333 305.058776 
L 214.373292 305.058776 
Q 201.714313 305.058776 194.676667 303.144468 
Q 187.65 301.227155 187.65 297.810252 
Q 187.65 294.399358 194.665687 292.46702 
Q 201.681375 290.531676 214 290.531676 
Q 226.450375 290.531676 233.400187 292.448988 
Q 240.35 294.363296 240.35 297.810252 
Q 240.35 300.175338 236.661 301.885293 
Q 232.972 303.595247 226.044146 304.457737 
L 236.364562 307.613189 
L 223.771458 307.613189 
L 215.405333 305.058776 
z
M 214 293.152203 
Q 207.961458 293.152203 204.634771 294.372312 
Q 201.308083 295.59242 201.308083 297.810252 
Q 201.308083 300.064146 204.557917 301.263218 
Q 207.818729 302.459284 214 302.459284 
Q 220.071479 302.459284 223.398167 301.239176 
Q 226.724854 300.016063 226.724854 297.810252 
Q 226.724854 295.59242 223.398167 294.372312 
Q 220.071479 293.152203 214 293.152203 
z
" clip-path="url(#pa871d7eadf)" style="fill: #40ba47"/>
   </g>
   <g id="patch_32">
    <path d="M 187.65 268.168378 
L 201.537864 268.168378 
L 201.537864 275.961407 
L 221.555783 268.168378 
L 237.683253 268.168378 
L 211.743078 278.281469 
L 240.35 289.52027 
L 222.964195 289.52027 
L 201.537864 281.109474 
L 201.537864 289.52027 
L 187.65 289.52027 
L 187.65 268.168378 
z
" clip-path="url(#pa871d7eadf)" style="fill: #bd2e1f"/>
   </g>
   <g id="patch_33">
    <path d="M 187.65 245.692703 
L 239.253077 245.692703 
L 239.253077 249.856917 
L 206.774615 249.856917 
L 206.774615 253.828936 
L 237.329487 253.828936 
L 237.329487 257.99315 
L 206.774615 257.99315 
L 206.774615 262.884957 
L 240.35 262.884957 
L 240.35 267.044595 
L 187.65 267.044595 
L 187.65 245.692703 
z
" clip-path="url(#pa871d7eadf)" style="fill: #6b296b"/>
   </g>
   <g id="patch_34">
    <path d="M 209.032787 227.706526 
Q 213.762274 227.706526 215.814221 226.809619 
Q 217.866168 225.906305 217.866168 223.843417 
Q 217.866168 221.799749 215.814221 220.922061 
Q 213.762274 220.037966 209.032787 220.037966 
L 202.701781 220.037966 
L 202.701781 227.706526 
L 209.032787 227.706526 
z
M 202.701781 233.030314 
L 202.701781 244.344162 
L 187.65 244.344162 
L 187.65 214.451514 
L 210.634307 214.451514 
Q 222.170252 214.451514 227.537844 216.437523 
Q 232.917949 218.417126 232.917949 222.703063 
Q 232.917949 225.662858 230.11529 227.565584 
Q 227.325142 229.468309 221.694801 230.371623 
Q 224.785233 230.730386 227.225047 232.005276 
Q 229.677374 233.27376 232.179748 235.855572 
L 240.35 244.344162 
L 224.322293 244.344162 
L 217.203039 236.919049 
Q 215.050997 234.67678 212.836396 233.85675 
Q 210.634307 233.030314 206.955817 233.030314 
L 202.701781 233.030314 
z
" clip-path="url(#pa871d7eadf)" style="fill: #bd2e1f"/>
   </g>
   <g id="patch_35">
    <path d="M 204.437692 174.220054 
L 223.562308 174.220054 
L 223.562308 212.653459 
L 204.437692 212.653459 
L 204.437692 174.220054 
z
" clip-path="url(#pa871d7eadf)" style="fill: #21599c"/>
   </g>
   <g id="patch_36">
    <path d="M 187.65 124.998324 
L 206.774615 124.998324 
L 206.774615 162.821283 
L 240.35 162.821283 
L 240.35 171.972486 
L 187.65 171.972486 
L 187.65 124.998324 
z
" clip-path="url(#pa871d7eadf)" style="fill: #21599c"/>
   </g>
   <g id="patch_37">
    <path d="M 187.65 53.638054 
L 200.68762 53.638054 
L 214.016162 104.069886 
L 227.323155 53.638054 
L 240.35 53.638054 
L 221.730985 121.964108 
L 206.269015 121.964108 
L 187.65 53.638054 
z
" clip-path="url(#pa871d7eadf)" style="fill: #21599c"/>
   </g>
   <g id="patch_38">
    <path d="M 249.65 380.097243 
L 258.762642 380.097243 
L 265.132798 383.200727 
L 271.455534 380.097243 
L 280.615597 380.097243 
L 286.938332 383.200727 
L 293.316392 380.097243 
L 302.35 380.097243 
L 293.656239 384.367622 
L 282.694196 384.367622 
L 276 381.121365 
L 269.384838 384.367622 
L 258.414892 384.367622 
L 249.65 380.097243 
z
" clip-path="url(#pa871d7eadf)" style="fill: #21599c"/>
   </g>
   <g id="patch_39">
    <path d="M 249.65 375.602108 
L 266.578032 375.602108 
L 287.968106 378.530786 
L 287.968106 375.602108 
L 302.35 375.602108 
L 302.35 379.872486 
L 285.409364 379.872486 
L 264.01929 376.943809 
L 264.01929 379.872486 
L 249.65 379.872486 
L 249.65 375.602108 
z
" clip-path="url(#pa871d7eadf)" style="fill: #40ba47"/>
   </g>
   <g id="patch_40">
    <path d="M 302.35 374.652777 
Q 297.941736 374.956228 293.174969 375.109719 
Q 288.408201 375.264973 283.216541 375.264973 
Q 267.734505 375.264973 258.692252 374.114679 
Q 249.65 372.964385 249.65 370.997241 
Q 249.65 369.02304 258.692252 367.87451 
Q 267.734505 366.724216 283.216541 366.724216 
Q 288.408201 366.724216 293.174969 366.879471 
Q 297.941736 367.032961 302.35 367.336413 
L 302.35 369.038918 
Q 297.901902 368.636668 293.586584 368.449657 
Q 289.271265 368.262646 284.504497 368.262646 
Q 275.953527 368.262646 271.053981 368.991283 
Q 266.167712 369.718156 266.167712 370.997241 
Q 266.167712 372.271033 271.053981 372.99967 
Q 275.953527 373.726543 284.504497 373.726543 
Q 289.271265 373.726543 293.586584 373.539532 
Q 297.901902 373.350757 302.35 372.948507 
L 302.35 374.652777 
z
" clip-path="url(#pa871d7eadf)" style="fill: #6b296b"/>
   </g>
   <g id="patch_41">
    <path d="M 249.65 357.733946 
L 262.68762 357.733946 
L 276.016162 364.037925 
L 289.323155 357.733946 
L 302.35 357.733946 
L 283.730985 366.274703 
L 268.269015 366.274703 
L 249.65 357.733946 
z
" clip-path="url(#pa871d7eadf)" style="fill: #21599c"/>
   </g>
   <g id="patch_42">
    <path d="M 266.437692 348.743676 
L 285.562308 348.743676 
L 285.562308 357.284432 
L 266.437692 357.284432 
L 266.437692 348.743676 
z
" clip-path="url(#pa871d7eadf)" style="fill: #21599c"/>
   </g>
   <g id="patch_43">
    <path d="M 264.091481 337.869177 
L 264.091481 345.686001 
L 269.265444 345.686001 
Q 278.112802 345.686001 282.782574 344.681099 
Q 287.464351 343.676196 287.464351 341.762488 
Q 287.464351 339.859763 282.806583 338.865843 
Q 278.16082 337.869177 269.265444 337.869177 
L 264.091481 337.869177 
z
M 249.65 335.370649 
L 264.871777 335.370649 
Q 277.63262 335.370649 283.874989 335.787985 
Q 290.117358 336.202576 294.583052 337.199242 
Q 298.520547 338.066863 300.429271 339.20081 
Q 302.35 340.332012 302.35 341.762488 
Q 302.35 343.214929 300.429271 344.351622 
Q 298.520547 345.488315 294.583052 346.353191 
Q 290.081344 347.349856 283.778952 347.767193 
Q 277.47656 348.181784 264.871777 348.181784 
L 249.65 348.181784 
L 249.65 335.370649 
z
" clip-path="url(#pa871d7eadf)" style="fill: #6b296b"/>
   </g>
   <g id="patch_44">
    <path d="M 250.198462 321.885243 
L 301.801538 321.885243 
L 301.801538 324.383772 
L 269.323077 324.383772 
L 269.323077 326.766983 
L 299.877949 326.766983 
L 299.877949 329.265511 
L 269.323077 329.265511 
L 269.323077 334.696378 
L 250.198462 334.696378 
L 250.198462 321.885243 
z
" clip-path="url(#pa871d7eadf)" style="fill: #21599c"/>
   </g>
   <g id="patch_45">
    <path d="M 249.65 308.399838 
L 264.813382 308.399838 
L 264.813382 313.281578 
L 287.186618 313.281578 
L 287.186618 308.399838 
L 302.35 308.399838 
L 302.35 321.210973 
L 287.186618 321.210973 
L 287.186618 315.780106 
L 264.813382 315.780106 
L 264.813382 321.210973 
L 249.65 321.210973 
L 249.65 308.399838 
z
" clip-path="url(#pa871d7eadf)" style="fill: #177875"/>
   </g>
   <g id="patch_46">
    <path d="M 249.65 294.914432 
L 302.35 294.914432 
L 302.35 297.412961 
L 283.390256 297.412961 
L 283.390256 307.725568 
L 268.646512 307.725568 
L 268.646512 297.412961 
L 249.65 297.412961 
L 249.65 294.914432 
z
" clip-path="url(#pa871d7eadf)" style="fill: #40ba47"/>
   </g>
   <g id="patch_47">
    <path d="M 249.65 281.429027 
L 265.195992 281.429027 
L 275.979692 288.284879 
L 286.83447 281.429027 
L 302.35 281.429027 
L 302.35 294.240162 
L 290.80474 294.240162 
L 290.80474 284.869308 
L 279.889037 291.777327 
L 272.141426 291.777327 
L 261.225723 284.869308 
L 261.225723 294.240162 
L 249.65 294.240162 
L 249.65 281.429027 
z
" clip-path="url(#pa871d7eadf)" style="fill: #21599c"/>
   </g>
   <g id="patch_48">
    <path d="M 249.65 267.943622 
L 277.043021 267.943622 
Q 289.271068 267.943622 295.803672 269.030893 
Q 302.35 270.115419 302.35 272.122479 
Q 302.35 274.140521 295.803672 275.225047 
Q 289.271068 276.309573 277.043021 276.309573 
L 266.159922 276.309573 
L 266.159922 280.754757 
L 249.65 280.754757 
L 249.65 267.943622 
z
M 266.159922 270.337816 
L 266.159922 273.915379 
L 275.286354 273.915379 
Q 280.08974 273.915379 282.711016 273.448621 
Q 285.332292 272.981863 285.332292 272.122479 
Q 285.332292 271.265841 282.711016 270.801828 
Q 280.08974 270.337816 275.286354 270.337816 
L 266.159922 270.337816 
z
" clip-path="url(#pa871d7eadf)" style="fill: #787800"/>
   </g>
   <g id="patch_49">
    <path d="M 271.032787 257.649753 
Q 275.762274 257.649753 277.814221 257.137234 
Q 279.866168 256.621054 279.866168 255.442262 
Q 279.866168 254.274451 277.814221 253.772915 
Q 275.762274 253.267718 271.032787 253.267718 
L 264.701781 253.267718 
L 264.701781 257.649753 
L 271.032787 257.649753 
z
M 264.701781 260.691917 
L 264.701781 267.156973 
L 249.65 267.156973 
L 249.65 250.075459 
L 272.634307 250.075459 
Q 284.170252 250.075459 289.537844 251.210322 
Q 294.917949 252.341524 294.917949 254.790631 
Q 294.917949 256.481942 292.11529 257.569214 
Q 289.325142 258.656486 283.694801 259.172665 
Q 286.785233 259.377672 289.225047 260.106181 
Q 291.677374 260.831029 294.179748 262.30635 
L 302.35 267.156973 
L 286.322293 267.156973 
L 279.203039 262.914051 
Q 277.050997 261.632754 274.836396 261.164166 
Q 272.634307 260.691917 268.955817 260.691917 
L 264.701781 260.691917 
z
" clip-path="url(#pa871d7eadf)" style="fill: #bd2e1f"/>
   </g>
   <g id="patch_50">
    <path d="M 286.155336 244.284095 
L 265.887763 244.284095 
L 262.68762 248.951676 
L 249.65 248.951676 
L 268.269015 223.329405 
L 283.730985 223.329405 
L 302.35 248.951676 
L 289.323155 248.951676 
L 286.155336 244.284095 
z
M 269.120231 239.528655 
L 282.890544 239.528655 
L 276.016162 229.336856 
L 269.120231 239.528655 
z
" clip-path="url(#pa871d7eadf)" style="fill: #21599c"/>
   </g>
   <g id="patch_51">
    <path d="M 277.405333 218.149245 
L 276.373292 218.149245 
Q 263.714313 218.149245 256.676667 215.277783 
Q 249.65 212.401814 249.65 207.276459 
Q 249.65 202.160118 256.665687 199.26161 
Q 263.681375 196.358595 276 196.358595 
Q 288.450375 196.358595 295.400188 199.234564 
Q 302.35 202.106025 302.35 207.276459 
Q 302.35 210.824088 298.661 213.38902 
Q 294.972 215.953952 288.044146 217.247687 
L 298.364562 221.980865 
L 285.771458 221.980865 
L 277.405333 218.149245 
z
M 276 200.289386 
Q 269.961458 200.289386 266.634771 202.119548 
Q 263.308083 203.949711 263.308083 207.276459 
Q 263.308083 210.6573 266.557917 212.455908 
Q 269.818729 214.250007 276 214.250007 
Q 282.071479 214.250007 285.398167 212.419845 
Q 288.724854 210.585175 288.724854 207.276459 
Q 288.724854 203.949711 285.398167 202.119548 
Q 282.071479 200.289386 276 200.289386 
z
" clip-path="url(#pa871d7eadf)" style="fill: #40ba47"/>
   </g>
   <g id="patch_52">
    <path d="M 249.65 160.62227 
L 301.253077 160.62227 
L 301.253077 167.285012 
L 268.774615 167.285012 
L 268.774615 173.640243 
L 299.329487 173.640243 
L 299.329487 180.302985 
L 268.774615 180.302985 
L 268.774615 188.129877 
L 302.35 188.129877 
L 302.35 194.785297 
L 249.65 194.785297 
L 249.65 160.62227 
z
" clip-path="url(#pa871d7eadf)" style="fill: #6b296b"/>
   </g>
   <g id="patch_53">
    <path d="M 249.65 120.278432 
L 263.537864 120.278432 
L 263.537864 134.305884 
L 283.555783 120.278432 
L 299.683253 120.278432 
L 273.743078 138.481996 
L 302.35 158.711838 
L 284.964195 158.711838 
L 263.537864 143.572404 
L 263.537864 158.711838 
L 249.65 158.711838 
L 249.65 120.278432 
z
" clip-path="url(#pa871d7eadf)" style="fill: #bd2e1f"/>
   </g>
   <g id="patch_54">
    <path d="M 249.65 53.525676 
L 268.774615 53.525676 
L 268.774615 105.102438 
L 302.35 105.102438 
L 302.35 117.581351 
L 249.65 117.581351 
L 249.65 53.525676 
z
" clip-path="url(#pa871d7eadf)" style="fill: #21599c"/>
   </g>
   <g id="patch_55">
    <path d="M 348.155336 383.589692 
L 327.887763 383.589692 
L 324.68762 384.367622 
L 311.65 384.367622 
L 330.269015 380.097243 
L 345.730985 380.097243 
L 364.35 384.367622 
L 351.323155 384.367622 
L 348.155336 383.589692 
z
M 331.120231 382.797118 
L 344.890544 382.797118 
L 338.016162 381.098485 
L 331.120231 382.797118 
z
" clip-path="url(#pa871d7eadf)" style="fill: #21599c"/>
   </g>
   <g id="patch_56">
    <path d="M 333.032787 372.517314 
Q 337.762274 372.517314 339.814221 372.132925 
Q 341.866168 371.745791 341.866168 370.861696 
Q 341.866168 369.985838 339.814221 369.609686 
Q 337.762274 369.230789 333.032787 369.230789 
L 326.701781 369.230789 
L 326.701781 372.517314 
L 333.032787 372.517314 
z
M 326.701781 374.798937 
L 326.701781 379.64773 
L 311.65 379.64773 
L 311.65 366.836595 
L 334.634307 366.836595 
Q 346.170252 366.836595 351.537844 367.687742 
Q 356.917949 368.536143 356.917949 370.372973 
Q 356.917949 371.641457 354.11529 372.45691 
Q 351.325142 373.272364 345.694801 373.659499 
Q 348.785233 373.813254 351.225047 374.359636 
Q 353.677374 374.903272 356.179748 376.009763 
L 364.35 379.64773 
L 348.322293 379.64773 
L 341.203039 376.465538 
Q 339.050997 375.504566 336.836396 375.153124 
Q 334.634307 374.798937 330.955817 374.798937 
L 326.701781 374.798937 
z
" clip-path="url(#pa871d7eadf)" style="fill: #bd2e1f"/>
   </g>
   <g id="patch_57">
    <path d="M 311.65 59.706486 
L 363.253077 59.706486 
L 363.253077 118.00548 
L 330.774615 118.00548 
L 330.774615 173.61375 
L 361.329487 173.61375 
L 361.329487 231.912744 
L 330.774615 231.912744 
L 330.774615 300.398045 
L 364.35 300.398045 
L 364.35 358.632973 
L 311.65 358.632973 
L 311.65 59.706486 
z
" clip-path="url(#pa871d7eadf)" style="fill: #6b296b"/>
   </g>
   <g id="patch_58">
    <path d="M 373.65 380.097243 
L 425.253077 380.097243 
L 425.253077 380.930086 
L 392.774615 380.930086 
L 392.774615 381.72449 
L 423.329487 381.72449 
L 423.329487 382.557333 
L 392.774615 382.557333 
L 392.774615 383.535694 
L 426.35 383.535694 
L 426.35 384.367622 
L 373.65 384.367622 
L 373.65 380.097243 
z
" clip-path="url(#pa871d7eadf)" style="fill: #6b296b"/>
   </g>
   <g id="patch_59">
    <path d="M 421.955948 375.80588 
L 421.955948 376.677421 
Q 416.459804 376.525695 411.221293 376.44895 
Q 405.997094 376.371323 401.34541 376.371323 
Q 395.176562 376.371323 392.213797 376.476296 
Q 389.265345 376.580387 389.265345 376.800919 
Q 389.265345 376.966759 391.254834 377.059382 
Q 393.244324 377.151124 398.482835 377.217283 
L 405.811027 377.308142 
Q 416.946442 377.446636 421.641065 377.728035 
Q 426.35 378.008551 426.35 378.527242 
Q 426.35 379.207362 419.794704 379.539924 
Q 413.239408 379.872486 399.770994 379.872486 
Q 393.430391 379.872486 387.032537 379.797506 
Q 380.634682 379.723407 374.236828 379.576974 
L 374.236828 378.681615 
Q 380.634682 378.890679 386.60315 378.997416 
Q 392.571619 379.103271 398.125014 379.103271 
Q 403.764286 379.103271 406.755676 378.987713 
Q 409.747067 378.871272 409.747067 378.656033 
Q 409.747067 378.463729 407.714639 378.358756 
Q 405.682211 378.253783 399.59924 378.170863 
L 392.929441 378.080004 
Q 382.910429 377.947685 378.273058 377.658347 
Q 373.65 377.369009 373.65 376.878546 
Q 373.65 376.263704 380.090793 375.932906 
Q 386.531586 375.602108 398.611651 375.602108 
Q 404.122108 375.602108 409.933134 375.653271 
Q 415.744161 375.704435 421.955948 375.80588 
z
" clip-path="url(#pa871d7eadf)" style="fill: #40ba47"/>
   </g>
   <g id="patch_60">
    <path d="M 373.65 371.106973 
L 390.578032 371.106973 
L 411.968106 374.035651 
L 411.968106 371.106973 
L 426.35 371.106973 
L 426.35 375.377351 
L 409.409364 375.377351 
L 388.01929 372.448674 
L 388.01929 375.377351 
L 373.65 375.377351 
L 373.65 371.106973 
z
" clip-path="url(#pa871d7eadf)" style="fill: #40ba47"/>
   </g>
   <g id="patch_61">
    <path d="M 401.405333 370.243613 
L 400.373292 370.243613 
Q 387.714313 370.243613 380.676667 369.765036 
Q 373.65 369.285708 373.65 368.431482 
Q 373.65 367.578758 380.665687 367.095674 
Q 387.681375 366.611838 400 366.611838 
Q 412.450375 366.611838 419.400188 367.091166 
Q 426.35 367.569743 426.35 368.431482 
Q 426.35 369.022753 422.661 369.450242 
Q 418.972 369.877731 412.044146 370.093353 
L 422.364563 370.882216 
L 409.771458 370.882216 
L 401.405333 370.243613 
z
M 400 367.26697 
Q 393.961458 367.26697 390.634771 367.571997 
Q 387.308083 367.877024 387.308083 368.431482 
Q 387.308083 368.994955 390.557917 369.294723 
Q 393.818729 369.59374 400 369.59374 
Q 406.071479 369.59374 409.398167 369.288713 
Q 412.724854 368.982935 412.724854 368.431482 
Q 412.724854 367.877024 409.398167 367.571997 
Q 406.071479 367.26697 400 367.26697 
z
" clip-path="url(#pa871d7eadf)" style="fill: #40ba47"/>
   </g>
   <g id="patch_62">
    <path d="M 395.032787 364.010276 
Q 399.762274 364.010276 401.814221 363.882146 
Q 403.866168 363.753101 403.866168 363.458403 
Q 403.866168 363.166451 401.814221 363.041067 
Q 399.762274 362.914767 395.032787 362.914767 
L 388.701781 362.914767 
L 388.701781 364.010276 
L 395.032787 364.010276 
z
M 388.701781 364.770817 
L 388.701781 366.387081 
L 373.65 366.387081 
L 373.65 362.116703 
L 396.634307 362.116703 
Q 408.170252 362.116703 413.537844 362.400418 
Q 418.917949 362.683219 418.917949 363.295496 
Q 418.917949 363.718323 416.11529 363.990141 
Q 413.325142 364.261959 407.694801 364.391004 
Q 410.785233 364.442256 413.225047 364.624383 
Q 415.677374 364.805595 418.179748 365.174425 
L 426.35 366.387081 
L 410.322293 366.387081 
L 403.203039 365.326351 
Q 401.050997 365.006026 398.836396 364.888879 
Q 396.634307 364.770817 392.955817 364.770817 
L 388.701781 364.770817 
z
" clip-path="url(#pa871d7eadf)" style="fill: #bd2e1f"/>
   </g>
   <g id="patch_63">
    <path d="M 373.65 353.238811 
L 387.537864 353.238811 
L 387.537864 356.356022 
L 407.555783 353.238811 
L 423.683253 353.238811 
L 397.743078 357.284047 
L 426.35 361.779568 
L 408.964195 361.779568 
L 387.537864 358.415249 
L 387.537864 361.779568 
L 373.65 361.779568 
L 373.65 353.238811 
z
" clip-path="url(#pa871d7eadf)" style="fill: #bd2e1f"/>
   </g>
   <g id="patch_64">
    <path d="M 374.198462 339.865784 
L 425.801538 339.865784 
L 425.801538 342.364312 
L 393.323077 342.364312 
L 393.323077 344.747524 
L 423.877949 344.747524 
L 423.877949 347.246052 
L 393.323077 347.246052 
L 393.323077 352.676919 
L 374.198462 352.676919 
L 374.198462 339.865784 
z
" clip-path="url(#pa871d7eadf)" style="fill: #21599c"/>
   </g>
   <g id="patch_65">
    <path d="M 426.35 338.032398 
Q 421.035119 338.611956 415.318669 338.903058 
Q 409.602219 339.191514 403.507822 339.191514 
Q 389.736374 339.191514 381.693187 337.466072 
Q 373.65 335.740631 373.65 332.789916 
Q 373.65 329.804797 381.834917 328.092588 
Q 390.031645 326.380378 404.287338 326.380378 
Q 409.779381 326.380378 414.810802 326.61326 
Q 419.854034 326.843495 424.318534 327.298673 
L 424.318534 329.852432 
Q 419.712304 329.267581 415.153317 328.979125 
Q 410.59433 328.688023 406.011721 328.688023 
Q 397.531533 328.688023 392.937113 329.751869 
Q 388.342694 330.813068 388.342694 332.789916 
Q 388.342694 334.748238 392.771762 335.817376 
Q 397.200829 336.883868 405.350314 336.883868 
Q 407.570753 336.883868 409.472299 336.823002 
Q 411.373846 336.759488 412.885634 336.627169 
L 412.885634 334.229547 
L 404.204662 334.229547 
L 404.204662 332.093917 
L 426.35 332.093917 
L 426.35 338.032398 
z
" clip-path="url(#pa871d7eadf)" style="fill: #787800"/>
   </g>
   <g id="patch_66">
    <path d="M 373.65 308.512216 
L 388.22 308.512216 
L 399.988929 314.600205 
L 411.746786 308.512216 
L 426.35 308.512216 
L 406.665 318.396504 
L 406.665 325.59373 
L 393.346071 325.59373 
L 393.346071 318.396504 
L 373.65 308.512216 
z
" clip-path="url(#pa871d7eadf)" style="fill: #177875"/>
   </g>
   <g id="patch_67">
    <path d="M 390.437692 286.148919 
L 409.562308 286.148919 
L 409.562308 307.500811 
L 390.437692 307.500811 
L 390.437692 286.148919 
z
" clip-path="url(#pa871d7eadf)" style="fill: #21599c"/>
   </g>
   <g id="patch_68">
    <path d="M 410.155336 280.245176 
L 389.887763 280.245176 
L 386.68762 284.912757 
L 373.65 284.912757 
L 392.269015 259.290486 
L 407.730985 259.290486 
L 426.35 284.912757 
L 413.323155 284.912757 
L 410.155336 280.245176 
z
M 393.120231 275.489736 
L 406.890544 275.489736 
L 400.016162 265.297937 
L 393.120231 275.489736 
z
" clip-path="url(#pa871d7eadf)" style="fill: #21599c"/>
   </g>
   <g id="patch_69">
    <path d="M 373.65 227.936919 
L 389.195992 227.936919 
L 399.979692 243.933906 
L 410.83447 227.936919 
L 426.35 227.936919 
L 426.35 257.829568 
L 414.80474 257.829568 
L 414.80474 235.964242 
L 403.889037 252.082953 
L 396.141426 252.082953 
L 385.225723 235.964242 
L 385.225723 257.829568 
L 373.65 257.829568 
L 373.65 227.936919 
z
" clip-path="url(#pa871d7eadf)" style="fill: #21599c"/>
   </g>
   <g id="patch_70">
    <path d="M 373.65 192.088216 
L 426.35 192.088216 
L 426.35 198.750958 
L 407.390256 198.750958 
L 407.390256 226.251243 
L 392.646512 226.251243 
L 392.646512 198.750958 
L 373.65 198.750958 
L 373.65 192.088216 
z
" clip-path="url(#pa871d7eadf)" style="fill: #40ba47"/>
   </g>
   <g id="patch_71">
    <path d="M 373.65 129.830595 
L 386.68762 129.830595 
L 400.016162 173.958448 
L 413.323155 129.830595 
L 426.35 129.830595 
L 407.730985 189.615892 
L 392.269015 189.615892 
L 373.65 129.830595 
z
" clip-path="url(#pa871d7eadf)" style="fill: #21599c"/>
   </g>
   <g id="patch_72">
    <path d="M 373.65 53.750432 
L 392.774615 53.750432 
L 392.774615 112.204097 
L 426.35 112.204097 
L 426.35 126.346865 
L 373.65 126.346865 
L 373.65 53.750432 
z
" clip-path="url(#pa871d7eadf)" style="fill: #21599c"/>
   </g>
   <g id="patch_73">
    <path d="M 483.955948 380.301015 
L 483.955948 381.172556 
Q 478.459804 381.020831 473.221293 380.944085 
Q 467.997094 380.866458 463.34541 380.866458 
Q 457.176562 380.866458 454.213797 380.971431 
Q 451.265345 381.075522 451.265345 381.296054 
Q 451.265345 381.461894 453.254834 381.554518 
Q 455.244324 381.646259 460.482835 381.712418 
L 467.811027 381.803277 
Q 478.946442 381.941771 483.641065 382.22317 
Q 488.35 382.503687 488.35 383.022377 
Q 488.35 383.702498 481.794704 384.03506 
Q 475.239408 384.367622 461.770994 384.367622 
Q 455.430391 384.367622 449.032537 384.292641 
Q 442.634682 384.218542 436.236828 384.072109 
L 436.236828 383.17675 
Q 442.634682 383.385814 448.60315 383.492551 
Q 454.571619 383.598407 460.125014 383.598407 
Q 465.764286 383.598407 468.755676 383.482848 
Q 471.747067 383.366407 471.747067 383.151168 
Q 471.747067 382.958864 469.714639 382.853891 
Q 467.682211 382.748918 461.59924 382.665998 
L 454.929441 382.575139 
Q 444.910429 382.44282 440.273058 382.153482 
Q 435.65 381.864144 435.65 381.373681 
Q 435.65 380.758839 442.090793 380.428041 
Q 448.531586 380.097243 460.611651 380.097243 
Q 466.122108 380.097243 471.933134 380.148407 
Q 477.744161 380.19957 483.955948 380.301015 
z
" clip-path="url(#pa871d7eadf)" style="fill: #40ba47"/>
   </g>
   <g id="patch_74">
    <path d="M 435.65 375.602108 
L 451.195992 375.602108 
L 461.979692 377.887392 
L 472.83447 375.602108 
L 488.35 375.602108 
L 488.35 379.872486 
L 476.80474 379.872486 
L 476.80474 376.748869 
L 465.889037 379.051541 
L 458.141426 379.051541 
L 447.225723 376.748869 
L 447.225723 379.872486 
L 435.65 379.872486 
L 435.65 375.602108 
z
" clip-path="url(#pa871d7eadf)" style="fill: #21599c"/>
   </g>
   <g id="patch_75">
    <path d="M 488.35 374.652777 
Q 483.941736 374.956228 479.174969 375.109719 
Q 474.408201 375.264973 469.216541 375.264973 
Q 453.734505 375.264973 444.692252 374.114679 
Q 435.65 372.964385 435.65 370.997241 
Q 435.65 369.02304 444.692252 367.87451 
Q 453.734505 366.724216 469.216541 366.724216 
Q 474.408201 366.724216 479.174969 366.879471 
Q 483.941736 367.032961 488.35 367.336413 
L 488.35 369.038918 
Q 483.901902 368.636668 479.586584 368.449657 
Q 475.271265 368.262646 470.504497 368.262646 
Q 461.953527 368.262646 457.053981 368.991283 
Q 452.167712 369.718156 452.167712 370.997241 
Q 452.167712 372.271033 457.053981 372.99967 
Q 461.953527 373.726543 470.504497 373.726543 
Q 475.271265 373.726543 479.586584 373.539532 
Q 483.901902 373.350757 488.35 372.948507 
L 488.35 374.652777 
z
" clip-path="url(#pa871d7eadf)" style="fill: #6b296b"/>
   </g>
   <g id="patch_76">
    <path d="M 450.091481 359.399631 
L 450.091481 364.610848 
L 455.265444 364.610848 
Q 464.112802 364.610848 468.782574 363.940913 
Q 473.464351 363.270977 473.464351 361.995172 
Q 473.464351 360.726689 468.806583 360.064075 
Q 464.16082 359.399631 455.265444 359.399631 
L 450.091481 359.399631 
z
M 435.65 357.733946 
L 450.871777 357.733946 
Q 463.63262 357.733946 469.874989 358.01217 
Q 476.117358 358.288564 480.583052 358.953008 
Q 484.520547 359.531422 486.429271 360.287387 
Q 488.35 361.041521 488.35 361.995172 
Q 488.35 362.963466 486.429271 363.721262 
Q 484.520547 364.479057 480.583052 365.055641 
Q 476.081344 365.720084 469.778952 365.998309 
Q 463.47656 366.274703 450.871777 366.274703 
L 435.65 366.274703 
L 435.65 357.733946 
z
" clip-path="url(#pa871d7eadf)" style="fill: #6b296b"/>
   </g>
   <g id="patch_77">
    <path d="M 435.65 348.743676 
L 452.578032 348.743676 
L 473.968106 354.601031 
L 473.968106 348.743676 
L 488.35 348.743676 
L 488.35 357.284432 
L 471.409364 357.284432 
L 450.01929 351.427077 
L 450.01929 357.284432 
L 435.65 357.284432 
L 435.65 348.743676 
z
" clip-path="url(#pa871d7eadf)" style="fill: #40ba47"/>
   </g>
   <g id="patch_78">
    <path d="M 435.65 335.370649 
L 450.22 335.370649 
L 461.988929 339.93664 
L 473.746786 335.370649 
L 488.35 335.370649 
L 468.665 342.783864 
L 468.665 348.181784 
L 455.346071 348.181784 
L 455.346071 342.783864 
L 435.65 335.370649 
z
" clip-path="url(#pa871d7eadf)" style="fill: #177875"/>
   </g>
   <g id="patch_79">
    <path d="M 436.198462 321.885243 
L 487.801538 321.885243 
L 487.801538 324.383772 
L 455.323077 324.383772 
L 455.323077 326.766983 
L 485.877949 326.766983 
L 485.877949 329.265511 
L 455.323077 329.265511 
L 455.323077 334.696378 
L 436.198462 334.696378 
L 436.198462 321.885243 
z
" clip-path="url(#pa871d7eadf)" style="fill: #21599c"/>
   </g>
   <g id="patch_80">
    <path d="M 435.65 308.399838 
L 450.813382 308.399838 
L 450.813382 313.281578 
L 473.186618 313.281578 
L 473.186618 308.399838 
L 488.35 308.399838 
L 488.35 321.210973 
L 473.186618 321.210973 
L 473.186618 315.780106 
L 450.813382 315.780106 
L 450.813382 321.210973 
L 435.65 321.210973 
L 435.65 308.399838 
z
" clip-path="url(#pa871d7eadf)" style="fill: #177875"/>
   </g>
   <g id="patch_81">
    <path d="M 463.405333 305.809757 
L 462.373292 305.809757 
Q 449.714313 305.809757 442.676667 304.374027 
Q 435.65 302.936042 435.65 300.373364 
Q 435.65 297.815194 442.665687 296.36594 
Q 449.681375 294.914432 462 294.914432 
Q 474.450375 294.914432 481.400187 296.352417 
Q 488.35 297.788148 488.35 300.373364 
Q 488.35 302.147179 484.661 303.429645 
Q 480.972 304.712111 474.044146 305.358979 
L 484.364562 307.725568 
L 471.771458 307.725568 
L 463.405333 305.809757 
z
M 462 296.879828 
Q 455.961458 296.879828 452.634771 297.794909 
Q 449.308083 298.70999 449.308083 300.373364 
Q 449.308083 302.063785 452.557917 302.963089 
Q 455.818729 303.860139 462 303.860139 
Q 468.071479 303.860139 471.398167 302.945058 
Q 474.724854 302.027723 474.724854 300.373364 
Q 474.724854 298.70999 471.398167 297.794909 
Q 468.071479 296.879828 462 296.879828 
z
" clip-path="url(#pa871d7eadf)" style="fill: #40ba47"/>
   </g>
   <g id="patch_82">
    <path d="M 435.65 277.04627 
L 448.68762 277.04627 
L 462.016162 289.654228 
L 475.323155 277.04627 
L 488.35 277.04627 
L 469.730985 294.127784 
L 454.269015 294.127784 
L 435.65 277.04627 
z
" clip-path="url(#pa871d7eadf)" style="fill: #21599c"/>
   </g>
   <g id="patch_83">
    <path d="M 452.437692 259.06573 
L 471.562308 259.06573 
L 471.562308 276.147243 
L 452.437692 276.147243 
L 452.437692 259.06573 
z
" clip-path="url(#pa871d7eadf)" style="fill: #21599c"/>
   </g>
   <g id="patch_84">
    <path d="M 435.65 232.319676 
L 488.35 232.319676 
L 488.35 237.316732 
L 469.390256 237.316732 
L 469.390256 257.941946 
L 454.646512 257.941946 
L 454.646512 237.316732 
L 435.65 237.316732 
L 435.65 232.319676 
z
" clip-path="url(#pa871d7eadf)" style="fill: #40ba47"/>
   </g>
   <g id="patch_85">
    <path d="M 435.65 200.966108 
L 454.774615 200.966108 
L 454.774615 225.035264 
L 488.35 225.035264 
L 488.35 230.858757 
L 435.65 230.858757 
L 435.65 200.966108 
z
" clip-path="url(#pa871d7eadf)" style="fill: #21599c"/>
   </g>
   <g id="patch_86">
    <path d="M 488.35 196.688208 
Q 483.035119 198.04051 477.318669 198.719748 
Q 471.602219 199.392811 465.507822 199.392811 
Q 451.736374 199.392811 443.693187 195.366782 
Q 435.65 191.340753 435.65 184.455749 
Q 435.65 177.490471 443.834917 173.495317 
Q 452.031645 169.500162 466.287338 169.500162 
Q 471.779381 169.500162 476.810802 170.043553 
Q 481.854034 170.580768 486.318534 171.642849 
L 486.318534 177.60162 
Q 481.712304 176.236969 477.153317 175.563905 
Q 472.59433 174.884667 468.011721 174.884667 
Q 459.531533 174.884667 454.937113 177.366974 
Q 450.342694 179.843105 450.342694 184.455749 
Q 450.342694 189.025168 454.771762 191.519824 
Q 459.200829 194.008306 467.350314 194.008306 
Q 469.570753 194.008306 471.472299 193.866283 
Q 473.373846 193.718086 474.885634 193.409341 
L 474.885634 187.81489 
L 466.204662 187.81489 
L 466.204662 182.831752 
L 488.35 182.831752 
L 488.35 196.688208 
z
" clip-path="url(#pa871d7eadf)" style="fill: #787800"/>
   </g>
   <g id="patch_87">
    <path d="M 435.65 138.034216 
L 487.253077 138.034216 
L 487.253077 143.864116 
L 454.774615 143.864116 
L 454.774615 149.424943 
L 485.329487 149.424943 
L 485.329487 155.254842 
L 454.774615 155.254842 
L 454.774615 162.103372 
L 488.35 162.103372 
L 488.35 167.926865 
L 435.65 167.926865 
L 435.65 138.034216 
z
" clip-path="url(#pa871d7eadf)" style="fill: #6b296b"/>
   </g>
   <g id="patch_88">
    <path d="M 435.65 102.185514 
L 449.537864 102.185514 
L 449.537864 114.654359 
L 469.555783 102.185514 
L 485.683253 102.185514 
L 459.743078 118.366459 
L 488.35 136.348541 
L 470.964195 136.348541 
L 449.537864 122.891266 
L 449.537864 136.348541 
L 435.65 136.348541 
L 435.65 102.185514 
z
" clip-path="url(#pa871d7eadf)" style="fill: #bd2e1f"/>
   </g>
   <g id="patch_89">
    <path d="M 472.155336 91.493094 
L 451.887763 91.493094 
L 448.68762 100.050324 
L 435.65 100.050324 
L 454.269015 53.076162 
L 469.730985 53.076162 
L 488.35 100.050324 
L 475.323155 100.050324 
L 472.155336 91.493094 
z
M 455.120231 82.774786 
L 468.890544 82.774786 
L 462.016162 64.089821 
L 455.120231 82.774786 
z
" clip-path="url(#pa871d7eadf)" style="fill: #21599c"/>
   </g>
   <g id="patch_90">
    <path d="M 550.35 384.061523 
Q 545.941736 384.213249 541.174969 384.289994 
Q 536.408201 384.367622 531.216541 384.367622 
Q 515.734505 384.367622 506.692252 383.792475 
Q 497.65 383.217328 497.65 382.233756 
Q 497.65 381.246655 506.692252 380.67239 
Q 515.734505 380.097243 531.216541 380.097243 
Q 536.408201 380.097243 541.174969 380.17487 
Q 545.941736 380.251616 550.35 380.403341 
L 550.35 381.254594 
Q 545.901902 381.053469 541.586584 380.959964 
Q 537.271265 380.866458 532.504497 380.866458 
Q 523.953527 380.866458 519.053981 381.230777 
Q 514.167712 381.594213 514.167712 382.233756 
Q 514.167712 382.870652 519.053981 383.23497 
Q 523.953527 383.598407 532.504497 383.598407 
Q 537.271265 383.598407 541.586584 383.504901 
Q 545.901902 383.410513 550.35 383.209388 
L 550.35 384.061523 
z
" clip-path="url(#pa871d7eadf)" style="fill: #6b296b"/>
   </g>
   <g id="patch_91">
    <path d="M 497.65 375.602108 
L 525.043021 375.602108 
Q 537.271068 375.602108 543.803672 375.964532 
Q 550.35 376.326041 550.35 376.995061 
Q 550.35 377.667741 543.803672 378.02925 
Q 537.271068 378.390759 525.043021 378.390759 
L 514.159922 378.390759 
L 514.159922 379.872486 
L 497.65 379.872486 
L 497.65 375.602108 
z
M 514.159922 376.400173 
L 514.159922 377.592694 
L 523.286354 377.592694 
Q 528.08974 377.592694 530.711016 377.437108 
Q 533.332292 377.281522 533.332292 376.995061 
Q 533.332292 376.709514 530.711016 376.554844 
Q 528.08974 376.400173 523.286354 376.400173 
L 514.159922 376.400173 
z
" clip-path="url(#pa871d7eadf)" style="fill: #787800"/>
   </g>
   <g id="patch_92">
    <path d="M 519.032787 373.000546 
Q 523.762274 373.000546 525.814221 372.872417 
Q 527.866168 372.743372 527.866168 372.448674 
Q 527.866168 372.156721 525.814221 372.031337 
Q 523.762274 371.905038 519.032787 371.905038 
L 512.701781 371.905038 
L 512.701781 373.000546 
L 519.032787 373.000546 
z
M 512.701781 373.761087 
L 512.701781 375.377351 
L 497.65 375.377351 
L 497.65 371.106973 
L 520.634307 371.106973 
Q 532.170252 371.106973 537.537844 371.390689 
Q 542.917949 371.673489 542.917949 372.285766 
Q 542.917949 372.708594 540.11529 372.980412 
Q 537.325142 373.252229 531.694801 373.381274 
Q 534.785233 373.432526 537.225047 373.614653 
Q 539.677374 373.795865 542.179748 374.164696 
L 550.35 375.377351 
L 534.322293 375.377351 
L 527.203039 374.316621 
Q 525.050997 373.996297 522.836396 373.87915 
Q 520.634307 373.761087 516.955817 373.761087 
L 512.701781 373.761087 
z
" clip-path="url(#pa871d7eadf)" style="fill: #bd2e1f"/>
   </g>
   <g id="patch_93">
    <path d="M 497.65 362.229081 
L 512.22 362.229081 
L 523.988929 365.273076 
L 535.746786 362.229081 
L 550.35 362.229081 
L 530.665 367.171225 
L 530.665 370.769838 
L 517.346071 370.769838 
L 517.346071 367.171225 
L 497.65 362.229081 
z
" clip-path="url(#pa871d7eadf)" style="fill: #177875"/>
   </g>
   <g id="patch_94">
    <path d="M 497.65 353.238811 
L 513.195992 353.238811 
L 523.979692 357.809379 
L 534.83447 353.238811 
L 550.35 353.238811 
L 550.35 361.779568 
L 538.80474 361.779568 
L 538.80474 355.532332 
L 527.889037 360.137678 
L 520.141426 360.137678 
L 509.225723 355.532332 
L 509.225723 361.779568 
L 497.65 361.779568 
L 497.65 353.238811 
z
" clip-path="url(#pa871d7eadf)" style="fill: #21599c"/>
   </g>
   <g id="patch_95">
    <path d="M 512.091481 342.364312 
L 512.091481 350.181136 
L 517.265444 350.181136 
Q 526.112802 350.181136 530.782574 349.176234 
Q 535.464351 348.171331 535.464351 346.257623 
Q 535.464351 344.354898 530.806583 343.360978 
Q 526.16082 342.364312 517.265444 342.364312 
L 512.091481 342.364312 
z
M 497.65 339.865784 
L 512.871777 339.865784 
Q 525.63262 339.865784 531.874989 340.28312 
Q 538.117358 340.697711 542.583052 341.694377 
Q 546.520547 342.561998 548.429271 343.695945 
Q 550.35 344.827147 550.35 346.257623 
Q 550.35 347.710064 548.429271 348.846757 
Q 546.520547 349.983451 542.583052 350.848326 
Q 538.081344 351.844991 531.778952 352.262328 
Q 525.47656 352.676919 512.871777 352.676919 
L 497.65 352.676919 
L 497.65 339.865784 
z
" clip-path="url(#pa871d7eadf)" style="fill: #6b296b"/>
   </g>
   <g id="patch_96">
    <path d="M 497.65 326.380378 
L 512.813382 326.380378 
L 512.813382 331.262118 
L 535.186618 331.262118 
L 535.186618 326.380378 
L 550.35 326.380378 
L 550.35 339.191514 
L 535.186618 339.191514 
L 535.186618 333.760647 
L 512.813382 333.760647 
L 512.813382 339.191514 
L 497.65 339.191514 
L 497.65 326.380378 
z
" clip-path="url(#pa871d7eadf)" style="fill: #177875"/>
   </g>
   <g id="patch_97">
    <path d="M 497.65 312.894973 
L 510.68762 312.894973 
L 524.016162 322.350942 
L 537.323155 312.894973 
L 550.35 312.894973 
L 531.730985 325.706108 
L 516.269015 325.706108 
L 497.65 312.894973 
z
" clip-path="url(#pa871d7eadf)" style="fill: #21599c"/>
   </g>
   <g id="patch_98">
    <path d="M 497.65 299.409568 
L 514.578032 299.409568 
L 535.968106 308.195601 
L 535.968106 299.409568 
L 550.35 299.409568 
L 550.35 312.220703 
L 533.409364 312.220703 
L 512.01929 303.434669 
L 512.01929 312.220703 
L 497.65 312.220703 
L 497.65 299.409568 
z
" clip-path="url(#pa871d7eadf)" style="fill: #40ba47"/>
   </g>
   <g id="patch_99">
    <path d="M 545.955948 286.535476 
L 545.955948 289.150102 
Q 540.459804 288.694924 535.221293 288.464689 
Q 529.997094 288.231807 525.34541 288.231807 
Q 519.176562 288.231807 516.213797 288.546727 
Q 513.265345 288.859 513.265345 289.520595 
Q 513.265345 290.018115 515.254834 290.295985 
Q 517.244324 290.571209 522.482835 290.769688 
L 529.811027 291.042265 
Q 540.946442 291.457747 545.641065 292.301943 
Q 550.35 293.143492 550.35 294.699565 
Q 550.35 296.739925 543.794704 297.737611 
Q 537.239408 298.735297 523.770994 298.735297 
Q 517.430391 298.735297 511.032537 298.510355 
Q 504.634682 298.288059 498.236828 297.848759 
L 498.236828 295.162682 
Q 504.634682 295.789874 510.60315 296.110086 
Q 516.571619 296.427652 522.125014 296.427652 
Q 527.764286 296.427652 530.755676 296.080976 
Q 533.747067 295.731654 533.747067 295.085937 
Q 533.747067 294.509025 531.714639 294.194106 
Q 529.682211 293.879186 523.59924 293.630426 
L 516.929441 293.357849 
Q 506.910429 292.960892 502.273058 292.092879 
Q 497.65 291.224865 497.65 289.753477 
Q 497.65 287.908949 504.090793 286.916555 
Q 510.531586 285.924162 522.611651 285.924162 
Q 528.122108 285.924162 533.933134 286.077652 
Q 539.744161 286.231142 545.955948 286.535476 
z
" clip-path="url(#pa871d7eadf)" style="fill: #40ba47"/>
   </g>
   <g id="patch_100">
    <path d="M 497.65 268.056 
L 549.253077 268.056 
L 549.253077 271.387371 
L 516.774615 271.387371 
L 516.774615 274.564987 
L 547.329487 274.564987 
L 547.329487 277.896358 
L 516.774615 277.896358 
L 516.774615 281.809803 
L 550.35 281.809803 
L 550.35 285.137514 
L 497.65 285.137514 
L 497.65 268.056 
z
" clip-path="url(#pa871d7eadf)" style="fill: #6b296b"/>
   </g>
   <g id="patch_101">
    <path d="M 514.437692 250.075459 
L 533.562308 250.075459 
L 533.562308 267.156973 
L 514.437692 267.156973 
L 514.437692 250.075459 
z
" clip-path="url(#pa871d7eadf)" style="fill: #21599c"/>
   </g>
   <g id="patch_102">
    <path d="M 497.65 232.094919 
L 550.35 232.094919 
L 550.35 235.42629 
L 531.390256 235.42629 
L 531.390256 249.176432 
L 516.646512 249.176432 
L 516.646512 235.42629 
L 497.65 235.42629 
L 497.65 232.094919 
z
" clip-path="url(#pa871d7eadf)" style="fill: #40ba47"/>
   </g>
   <g id="patch_103">
    <path d="M 498.198462 209.731622 
L 549.801538 209.731622 
L 549.801538 213.895835 
L 517.323077 213.895835 
L 517.323077 217.867855 
L 547.877949 217.867855 
L 547.877949 222.032069 
L 517.323077 222.032069 
L 517.323077 231.083514 
L 498.198462 231.083514 
L 498.198462 209.731622 
z
" clip-path="url(#pa871d7eadf)" style="fill: #21599c"/>
   </g>
   <g id="patch_104">
    <path d="M 550.35 206.675979 
Q 545.035119 207.641908 539.318669 208.127078 
Q 533.602219 208.607838 527.507822 208.607838 
Q 513.736374 208.607838 505.693187 205.732103 
Q 497.65 202.856368 497.65 197.938508 
Q 497.65 192.96331 505.834917 190.109628 
Q 514.031645 187.255946 528.287338 187.255946 
Q 533.779381 187.255946 538.810802 187.644082 
Q 543.854034 188.027807 548.318534 188.786437 
L 548.318534 193.042701 
Q 543.712304 192.067951 539.153317 191.587191 
Q 534.59433 191.102021 530.011721 191.102021 
Q 521.531533 191.102021 516.937113 192.875097 
Q 512.342694 194.643762 512.342694 197.938508 
Q 512.342694 201.202379 516.771762 202.984276 
Q 521.200829 204.761763 529.350314 204.761763 
Q 531.570753 204.761763 533.472299 204.660318 
Q 535.373846 204.554463 536.885634 204.333931 
L 536.885634 200.337894 
L 528.204662 200.337894 
L 528.204662 196.77851 
L 550.35 196.77851 
L 550.35 206.675979 
z
" clip-path="url(#pa871d7eadf)" style="fill: #787800"/>
   </g>
   <g id="patch_105">
    <path d="M 497.65 160.397514 
L 516.774615 160.397514 
L 516.774615 181.028218 
L 550.35 181.028218 
L 550.35 186.019784 
L 497.65 186.019784 
L 497.65 160.397514 
z
" clip-path="url(#pa871d7eadf)" style="fill: #21599c"/>
   </g>
   <g id="patch_106">
    <path d="M 525.405333 155.217353 
L 524.373292 155.217353 
Q 511.714313 155.217353 504.676667 152.345891 
Q 497.65 149.469922 497.65 144.344567 
Q 497.65 139.228227 504.665687 136.329719 
Q 511.681375 133.426703 524 133.426703 
Q 536.450375 133.426703 543.400187 136.302672 
Q 550.35 139.174133 550.35 144.344567 
Q 550.35 147.892196 546.661 150.457128 
Q 542.972 153.02206 536.044146 154.315795 
L 546.364562 159.048973 
L 533.771458 159.048973 
L 525.405333 155.217353 
z
M 524 137.357494 
Q 517.961458 137.357494 514.634771 139.187657 
Q 511.308083 141.017819 511.308083 144.344567 
Q 511.308083 147.725408 514.557917 149.524016 
Q 517.818729 151.318116 524 151.318116 
Q 530.071479 151.318116 533.398167 149.487953 
Q 536.724854 147.653283 536.724854 144.344567 
Q 536.724854 141.017819 533.398167 139.187657 
Q 530.071479 137.357494 524 137.357494 
z
" clip-path="url(#pa871d7eadf)" style="fill: #40ba47"/>
   </g>
   <g id="patch_107">
    <path d="M 534.155336 125.629965 
L 513.887763 125.629965 
L 510.68762 131.853405 
L 497.65 131.853405 
L 516.269015 97.690378 
L 531.730985 97.690378 
L 550.35 131.853405 
L 537.323155 131.853405 
L 534.155336 125.629965 
z
M 517.120231 119.289377 
L 530.890544 119.289377 
L 524.016162 105.700312 
L 517.120231 119.289377 
z
" clip-path="url(#pa871d7eadf)" style="fill: #21599c"/>
   </g>
   <g id="patch_108">
    <path d="M 497.65 52.963784 
L 511.537864 52.963784 
L 511.537864 68.549841 
L 531.555783 52.963784 
L 547.683253 52.963784 
L 521.743078 73.189965 
L 550.35 95.667568 
L 532.964195 95.667568 
L 511.537864 78.845974 
L 511.537864 95.667568 
L 497.65 95.667568 
L 497.65 52.963784 
z
" clip-path="url(#pa871d7eadf)" style="fill: #bd2e1f"/>
   </g>
   <g id="patch_109">
    <path d="M 612.35 383.98125 
Q 607.035119 384.174436 601.318669 384.27147 
Q 595.602219 384.367622 589.507822 384.367622 
Q 575.736374 384.367622 567.693187 383.792475 
Q 559.65 383.217328 559.65 382.233756 
Q 559.65 381.238716 567.834917 380.66798 
Q 576.031645 380.097243 590.287338 380.097243 
Q 595.779381 380.097243 600.810802 380.17487 
Q 605.854034 380.251616 610.318534 380.403341 
L 610.318534 381.254594 
Q 605.712304 381.059644 601.153317 380.963492 
Q 596.59433 380.866458 592.011721 380.866458 
Q 583.531533 380.866458 578.937113 381.221073 
Q 574.342694 381.574807 574.342694 382.233756 
Q 574.342694 382.88653 578.771762 383.242909 
Q 583.200829 383.598407 591.350314 383.598407 
Q 593.570753 383.598407 595.472299 383.578118 
Q 597.373846 383.556947 598.885634 383.51284 
L 598.885634 382.713633 
L 590.204662 382.713633 
L 590.204662 382.001756 
L 612.35 382.001756 
L 612.35 383.98125 
z
" clip-path="url(#pa871d7eadf)" style="fill: #787800"/>
   </g>
   <g id="patch_110">
    <path d="M 559.65 375.602108 
L 574.813382 375.602108 
L 574.813382 377.229355 
L 597.186618 377.229355 
L 597.186618 375.602108 
L 612.35 375.602108 
L 612.35 379.872486 
L 597.186618 379.872486 
L 597.186618 378.062197 
L 574.813382 378.062197 
L 574.813382 379.872486 
L 559.65 379.872486 
L 559.65 375.602108 
z
" clip-path="url(#pa871d7eadf)" style="fill: #177875"/>
   </g>
   <g id="patch_111">
    <path d="M 607.955948 371.310744 
L 607.955948 372.182286 
Q 602.459804 372.03056 597.221293 371.953815 
Q 591.997094 371.876188 587.34541 371.876188 
Q 581.176562 371.876188 578.213797 371.981161 
Q 575.265345 372.085252 575.265345 372.305784 
Q 575.265345 372.471624 577.254834 372.564247 
Q 579.244324 372.655989 584.482835 372.722148 
L 591.811027 372.813007 
Q 602.946442 372.951501 607.641065 373.2329 
Q 612.35 373.513416 612.35 374.032107 
Q 612.35 374.712227 605.794704 375.044789 
Q 599.239408 375.377351 585.770994 375.377351 
Q 579.430391 375.377351 573.032537 375.302371 
Q 566.634682 375.228272 560.236828 375.081839 
L 560.236828 374.186479 
Q 566.634682 374.395544 572.60315 374.502281 
Q 578.571619 374.608136 584.125014 374.608136 
Q 589.764286 374.608136 592.755676 374.492578 
Q 595.747067 374.376137 595.747067 374.160898 
Q 595.747067 373.968594 593.714639 373.863621 
Q 591.682211 373.758648 585.59924 373.675728 
L 578.929441 373.584869 
Q 568.910429 373.45255 564.273058 373.163212 
Q 559.65 372.873874 559.65 372.383411 
Q 559.65 371.768568 566.090793 371.437771 
Q 572.531586 371.106973 584.611651 371.106973 
Q 590.122108 371.106973 595.933134 371.158136 
Q 601.744161 371.2093 607.955948 371.310744 
z
" clip-path="url(#pa871d7eadf)" style="fill: #40ba47"/>
   </g>
   <g id="patch_112">
    <path d="M 559.65 366.611838 
L 587.043021 366.611838 
Q 599.271068 366.611838 605.803672 366.974262 
Q 612.35 367.33577 612.35 368.00479 
Q 612.35 368.677471 605.803672 369.03898 
Q 599.271068 369.400488 587.043021 369.400488 
L 576.159922 369.400488 
L 576.159922 370.882216 
L 559.65 370.882216 
L 559.65 366.611838 
z
M 576.159922 367.409903 
L 576.159922 368.602424 
L 585.286354 368.602424 
Q 590.08974 368.602424 592.711016 368.446838 
Q 595.332292 368.291252 595.332292 368.00479 
Q 595.332292 367.719244 592.711016 367.564573 
Q 590.08974 367.409903 585.286354 367.409903 
L 576.159922 367.409903 
z
" clip-path="url(#pa871d7eadf)" style="fill: #787800"/>
   </g>
   <g id="patch_113">
    <path d="M 559.65 357.733946 
L 611.253077 357.733946 
L 611.253077 359.399631 
L 578.774615 359.399631 
L 578.774615 360.988439 
L 609.329487 360.988439 
L 609.329487 362.654125 
L 578.774615 362.654125 
L 578.774615 364.610848 
L 612.35 364.610848 
L 612.35 366.274703 
L 559.65 366.274703 
L 559.65 357.733946 
z
" clip-path="url(#pa871d7eadf)" style="fill: #6b296b"/>
   </g>
   <g id="patch_114">
    <path d="M 559.65 348.743676 
L 612.35 348.743676 
L 612.35 350.409361 
L 593.390256 350.409361 
L 593.390256 357.284432 
L 578.646512 357.284432 
L 578.646512 350.409361 
L 559.65 350.409361 
L 559.65 348.743676 
z
" clip-path="url(#pa871d7eadf)" style="fill: #40ba47"/>
   </g>
   <g id="patch_115">
    <path d="M 574.091481 337.869177 
L 574.091481 345.686001 
L 579.265444 345.686001 
Q 588.112802 345.686001 592.782574 344.681099 
Q 597.464351 343.676196 597.464351 341.762488 
Q 597.464351 339.859763 592.806583 338.865843 
Q 588.16082 337.869177 579.265444 337.869177 
L 574.091481 337.869177 
z
M 559.65 335.370649 
L 574.871777 335.370649 
Q 587.63262 335.370649 593.874989 335.787985 
Q 600.117358 336.202576 604.583052 337.199242 
Q 608.520547 338.066863 610.429271 339.20081 
Q 612.35 340.332012 612.35 341.762488 
Q 612.35 343.214929 610.429271 344.351622 
Q 608.520547 345.488315 604.583052 346.353191 
Q 600.081344 347.349856 593.778952 347.767193 
Q 587.47656 348.181784 574.871777 348.181784 
L 559.65 348.181784 
L 559.65 335.370649 
z
" clip-path="url(#pa871d7eadf)" style="fill: #6b296b"/>
   </g>
   <g id="patch_116">
    <path d="M 560.198462 321.885243 
L 611.801538 321.885243 
L 611.801538 324.383772 
L 579.323077 324.383772 
L 579.323077 326.766983 
L 609.877949 326.766983 
L 609.877949 329.265511 
L 579.323077 329.265511 
L 579.323077 334.696378 
L 560.198462 334.696378 
L 560.198462 321.885243 
z
" clip-path="url(#pa871d7eadf)" style="fill: #21599c"/>
   </g>
   <g id="patch_117">
    <path d="M 559.65 308.399838 
L 576.578032 308.399838 
L 597.968106 317.185871 
L 597.968106 308.399838 
L 612.35 308.399838 
L 612.35 321.210973 
L 595.409364 321.210973 
L 574.01929 312.424939 
L 574.01929 321.210973 
L 559.65 321.210973 
L 559.65 308.399838 
z
" clip-path="url(#pa871d7eadf)" style="fill: #40ba47"/>
   </g>
   <g id="patch_118">
    <path d="M 559.65 290.531676 
L 574.22 290.531676 
L 585.988929 296.619665 
L 597.746786 290.531676 
L 612.35 290.531676 
L 592.665 300.415963 
L 592.665 307.613189 
L 579.346071 307.613189 
L 579.346071 300.415963 
L 559.65 290.531676 
z
" clip-path="url(#pa871d7eadf)" style="fill: #177875"/>
   </g>
   <g id="patch_119">
    <path d="M 559.65 272.551135 
L 575.195992 272.551135 
L 585.979692 281.692271 
L 596.83447 272.551135 
L 612.35 272.551135 
L 612.35 289.632649 
L 600.80474 289.632649 
L 600.80474 277.138177 
L 589.889037 286.348869 
L 582.141426 286.348869 
L 571.225723 277.138177 
L 571.225723 289.632649 
L 559.65 289.632649 
L 559.65 272.551135 
z
" clip-path="url(#pa871d7eadf)" style="fill: #21599c"/>
   </g>
   <g id="patch_120">
    <path d="M 596.155336 267.650079 
L 575.887763 267.650079 
L 572.68762 271.53973 
L 559.65 271.53973 
L 578.269015 250.187838 
L 593.730985 250.187838 
L 612.35 271.53973 
L 599.323155 271.53973 
L 596.155336 267.650079 
z
M 579.120231 263.687212 
L 592.890544 263.687212 
L 586.016162 255.194047 
L 579.120231 263.687212 
z
" clip-path="url(#pa871d7eadf)" style="fill: #21599c"/>
   </g>
   <g id="patch_121">
    <path d="M 587.405333 245.871037 
L 586.373292 245.871037 
Q 573.714313 245.871037 566.676667 243.478153 
Q 559.65 241.081512 559.65 236.810382 
Q 559.65 232.546765 566.665687 230.131342 
Q 573.681375 227.712162 586 227.712162 
Q 598.450375 227.712162 605.400187 230.108803 
Q 612.35 232.501688 612.35 236.810382 
Q 612.35 239.76674 608.661 241.904183 
Q 604.972 244.041626 598.044146 245.119739 
L 608.364562 249.064054 
L 595.771458 249.064054 
L 587.405333 245.871037 
z
M 586 230.987822 
Q 579.961458 230.987822 576.634771 232.512957 
Q 573.308083 234.038092 573.308083 236.810382 
Q 573.308083 239.62775 576.557917 241.12659 
Q 579.818729 242.621673 586 242.621673 
Q 592.071479 242.621673 595.398167 241.096538 
Q 598.724854 239.567646 598.724854 236.810382 
Q 598.724854 234.038092 595.398167 232.512957 
Q 592.071479 230.987822 586 230.987822 
z
" clip-path="url(#pa871d7eadf)" style="fill: #40ba47"/>
   </g>
   <g id="patch_122">
    <path d="M 559.65 192.088216 
L 572.68762 192.088216 
L 586.016162 217.304132 
L 599.323155 192.088216 
L 612.35 192.088216 
L 593.730985 226.251243 
L 578.269015 226.251243 
L 559.65 192.088216 
z
" clip-path="url(#pa871d7eadf)" style="fill: #21599c"/>
   </g>
   <g id="patch_123">
    <path d="M 559.65 151.744378 
L 578.774615 151.744378 
L 578.774615 182.690436 
L 612.35 182.690436 
L 612.35 190.177784 
L 559.65 190.177784 
L 559.65 151.744378 
z
" clip-path="url(#pa871d7eadf)" style="fill: #21599c"/>
   </g>
   <g id="patch_124">
    <path d="M 559.65 106.905405 
L 573.537864 106.905405 
L 573.537864 122.491463 
L 593.555783 106.905405 
L 609.683253 106.905405 
L 583.743078 127.131587 
L 612.35 149.609189 
L 594.964195 149.609189 
L 573.537864 132.787596 
L 573.537864 149.609189 
L 559.65 149.609189 
L 559.65 106.905405 
z
" clip-path="url(#pa871d7eadf)" style="fill: #bd2e1f"/>
   </g>
   <g id="patch_125">
    <path d="M 576.437692 53.188541 
L 595.562308 53.188541 
L 595.562308 104.433081 
L 576.437692 104.433081 
L 576.437692 53.188541 
z
" clip-path="url(#pa871d7eadf)" style="fill: #21599c"/>
   </g>
   <g id="matplotlib.axis_1">
    <g id="xtick_1">
     <g id="line2d_2">
      <defs>
       <path id="m53102dd98e" d="M 0 0 
L 0 4.8 
" style="stroke: #262626"/>
      </defs>
      <g>
       <use xlink:href="#m53102dd98e" x="152" y="384.48" style="fill: #262626; stroke: #262626"/>
      </g>
     </g>
     <g id="text_1">
      <!-- P4 -->
      <g style="fill: #262626" transform="translate(146.61825 399.078875) scale(0.088 -0.088)">
       <defs>
        <path id="ArialMT-50" d="M 494 0 
L 494 4581 
L 2222 4581 
Q 2678 4581 2919 4538 
Q 3256 4481 3484 4323 
Q 3713 4166 3852 3881 
Q 3991 3597 3991 3256 
Q 3991 2672 3619 2267 
Q 3247 1863 2275 1863 
L 1100 1863 
L 1100 0 
L 494 0 
z
M 1100 2403 
L 2284 2403 
Q 2872 2403 3119 2622 
Q 3366 2841 3366 3238 
Q 3366 3525 3220 3729 
Q 3075 3934 2838 4000 
Q 2684 4041 2272 4041 
L 1100 4041 
L 1100 2403 
z
" transform="scale(0.015625)"/>
        <path id="ArialMT-34" d="M 2069 0 
L 2069 1097 
L 81 1097 
L 81 1613 
L 2172 4581 
L 2631 4581 
L 2631 1613 
L 3250 1613 
L 3250 1097 
L 2631 1097 
L 2631 0 
L 2069 0 
z
M 2069 1613 
L 2069 3678 
L 634 1613 
L 2069 1613 
z
" transform="scale(0.015625)"/>
       </defs>
       <use xlink:href="#ArialMT-50"/>
       <use xlink:href="#ArialMT-34" x="66.699219"/>
      </g>
     </g>
    </g>
    <g id="xtick_2">
     <g id="line2d_3">
      <g>
       <use xlink:href="#m53102dd98e" x="214" y="384.48" style="fill: #262626; stroke: #262626"/>
      </g>
     </g>
     <g id="text_2">
      <!-- P3 -->
      <g style="fill: #262626" transform="translate(208.61825 399.078875) scale(0.088 -0.088)">
       <defs>
        <path id="ArialMT-33" d="M 269 1209 
L 831 1284 
Q 928 806 1161 595 
Q 1394 384 1728 384 
Q 2125 384 2398 659 
Q 2672 934 2672 1341 
Q 2672 1728 2419 1979 
Q 2166 2231 1775 2231 
Q 1616 2231 1378 2169 
L 1441 2663 
Q 1497 2656 1531 2656 
Q 1891 2656 2178 2843 
Q 2466 3031 2466 3422 
Q 2466 3731 2256 3934 
Q 2047 4138 1716 4138 
Q 1388 4138 1169 3931 
Q 950 3725 888 3313 
L 325 3413 
Q 428 3978 793 4289 
Q 1159 4600 1703 4600 
Q 2078 4600 2393 4439 
Q 2709 4278 2876 4000 
Q 3044 3722 3044 3409 
Q 3044 3113 2884 2869 
Q 2725 2625 2413 2481 
Q 2819 2388 3044 2092 
Q 3269 1797 3269 1353 
Q 3269 753 2831 336 
Q 2394 -81 1725 -81 
Q 1122 -81 723 278 
Q 325 638 269 1209 
z
" transform="scale(0.015625)"/>
       </defs>
       <use xlink:href="#ArialMT-50"/>
       <use xlink:href="#ArialMT-33" x="66.699219"/>
      </g>
     </g>
    </g>
    <g id="xtick_3">
     <g id="line2d_4">
      <g>
       <use xlink:href="#m53102dd98e" x="276" y="384.48" style="fill: #262626; stroke: #262626"/>
      </g>
     </g>
     <g id="text_3">
      <!-- P2 -->
      <g style="fill: #262626" transform="translate(270.61825 399.078875) scale(0.088 -0.088)">
       <defs>
        <path id="ArialMT-32" d="M 3222 541 
L 3222 0 
L 194 0 
Q 188 203 259 391 
Q 375 700 629 1000 
Q 884 1300 1366 1694 
Q 2113 2306 2375 2664 
Q 2638 3022 2638 3341 
Q 2638 3675 2398 3904 
Q 2159 4134 1775 4134 
Q 1369 4134 1125 3890 
Q 881 3647 878 3216 
L 300 3275 
Q 359 3922 746 4261 
Q 1134 4600 1788 4600 
Q 2447 4600 2831 4234 
Q 3216 3869 3216 3328 
Q 3216 3053 3103 2787 
Q 2991 2522 2730 2228 
Q 2469 1934 1863 1422 
Q 1356 997 1212 845 
Q 1069 694 975 541 
L 3222 541 
z
" transform="scale(0.015625)"/>
       </defs>
       <use xlink:href="#ArialMT-50"/>
       <use xlink:href="#ArialMT-32" x="66.699219"/>
      </g>
     </g>
    </g>
    <g id="xtick_4">
     <g id="line2d_5">
      <g>
       <use xlink:href="#m53102dd98e" x="338" y="384.48" style="fill: #262626; stroke: #262626"/>
      </g>
     </g>
     <g id="text_4">
      <!-- P1 -->
      <g style="fill: #262626" transform="translate(332.61825 399.078875) scale(0.088 -0.088)">
       <defs>
        <path id="ArialMT-31" d="M 2384 0 
L 1822 0 
L 1822 3584 
Q 1619 3391 1289 3197 
Q 959 3003 697 2906 
L 697 3450 
Q 1169 3672 1522 3987 
Q 1875 4303 2022 4600 
L 2384 4600 
L 2384 0 
z
" transform="scale(0.015625)"/>
       </defs>
       <use xlink:href="#ArialMT-50"/>
       <use xlink:href="#ArialMT-31" x="66.699219"/>
      </g>
     </g>
    </g>
    <g id="xtick_5">
     <g id="line2d_6">
      <g>
       <use xlink:href="#m53102dd98e" x="400" y="384.48" style="fill: #262626; stroke: #262626"/>
      </g>
     </g>
     <g id="text_5">
      <!-- P1' -->
      <g style="fill: #262626" transform="translate(393.778125 399.078875) scale(0.088 -0.088)">
       <defs>
        <path id="ArialMT-27" d="M 425 2959 
L 281 3816 
L 281 4581 
L 922 4581 
L 922 3816 
L 772 2959 
L 425 2959 
z
" transform="scale(0.015625)"/>
       </defs>
       <use xlink:href="#ArialMT-50"/>
       <use xlink:href="#ArialMT-31" x="66.699219"/>
       <use xlink:href="#ArialMT-27" x="122.314453"/>
      </g>
     </g>
    </g>
    <g id="xtick_6">
     <g id="line2d_7">
      <g>
       <use xlink:href="#m53102dd98e" x="462" y="384.48" style="fill: #262626; stroke: #262626"/>
      </g>
     </g>
     <g id="text_6">
      <!-- P2' -->
      <g style="fill: #262626" transform="translate(455.778125 399.078875) scale(0.088 -0.088)">
       <use xlink:href="#ArialMT-50"/>
       <use xlink:href="#ArialMT-32" x="66.699219"/>
       <use xlink:href="#ArialMT-27" x="122.314453"/>
      </g>
     </g>
    </g>
    <g id="xtick_7">
     <g id="line2d_8">
      <g>
       <use xlink:href="#m53102dd98e" x="524" y="384.48" style="fill: #262626; stroke: #262626"/>
      </g>
     </g>
     <g id="text_7">
      <!-- P3' -->
      <g style="fill: #262626" transform="translate(517.778125 399.078875) scale(0.088 -0.088)">
       <use xlink:href="#ArialMT-50"/>
       <use xlink:href="#ArialMT-33" x="66.699219"/>
       <use xlink:href="#ArialMT-27" x="122.314453"/>
      </g>
     </g>
    </g>
    <g id="xtick_8">
     <g id="line2d_9">
      <g>
       <use xlink:href="#m53102dd98e" x="586" y="384.48" style="fill: #262626; stroke: #262626"/>
      </g>
     </g>
     <g id="text_8">
      <!-- P4' -->
      <g style="fill: #262626" transform="translate(579.778125 399.078875) scale(0.088 -0.088)">
       <use xlink:href="#ArialMT-50"/>
       <use xlink:href="#ArialMT-34" x="66.699219"/>
       <use xlink:href="#ArialMT-27" x="122.314453"/>
      </g>
     </g>
    </g>
   </g>
   <g id="matplotlib.axis_2">
    <g id="ytick_1">
     <g id="line2d_10">
      <defs>
       <path id="mbbc1c2ed44" d="M 0 0 
L -4.8 0 
" style="stroke: #262626"/>
      </defs>
      <g>
       <use xlink:href="#mbbc1c2ed44" x="90" y="384.48" style="fill: #262626; stroke: #262626"/>
      </g>
     </g>
     <g id="text_9">
      <!-- 0.0 -->
      <g style="fill: #262626" transform="translate(69.468 387.629437) scale(0.088 -0.088)">
       <defs>
        <path id="ArialMT-30" d="M 266 2259 
Q 266 3072 433 3567 
Q 600 4063 929 4331 
Q 1259 4600 1759 4600 
Q 2128 4600 2406 4451 
Q 2684 4303 2865 4023 
Q 3047 3744 3150 3342 
Q 3253 2941 3253 2259 
Q 3253 1453 3087 958 
Q 2922 463 2592 192 
Q 2263 -78 1759 -78 
Q 1097 -78 719 397 
Q 266 969 266 2259 
z
M 844 2259 
Q 844 1131 1108 757 
Q 1372 384 1759 384 
Q 2147 384 2411 759 
Q 2675 1134 2675 2259 
Q 2675 3391 2411 3762 
Q 2147 4134 1753 4134 
Q 1366 4134 1134 3806 
Q 844 3388 844 2259 
z
" transform="scale(0.015625)"/>
        <path id="ArialMT-2e" d="M 581 0 
L 581 641 
L 1222 641 
L 1222 0 
L 581 0 
z
" transform="scale(0.015625)"/>
       </defs>
       <use xlink:href="#ArialMT-30"/>
       <use xlink:href="#ArialMT-2e" x="55.615234"/>
       <use xlink:href="#ArialMT-30" x="83.398438"/>
      </g>
     </g>
    </g>
    <g id="ytick_2">
     <g id="line2d_11">
      <g>
       <use xlink:href="#mbbc1c2ed44" x="90" y="317.952" style="fill: #262626; stroke: #262626"/>
      </g>
     </g>
     <g id="text_10">
      <!-- 0.2 -->
      <g style="fill: #262626" transform="translate(69.468 321.101437) scale(0.088 -0.088)">
       <use xlink:href="#ArialMT-30"/>
       <use xlink:href="#ArialMT-2e" x="55.615234"/>
       <use xlink:href="#ArialMT-32" x="83.398438"/>
      </g>
     </g>
    </g>
    <g id="ytick_3">
     <g id="line2d_12">
      <g>
       <use xlink:href="#mbbc1c2ed44" x="90" y="251.424" style="fill: #262626; stroke: #262626"/>
      </g>
     </g>
     <g id="text_11">
      <!-- 0.4 -->
      <g style="fill: #262626" transform="translate(69.468 254.573437) scale(0.088 -0.088)">
       <use xlink:href="#ArialMT-30"/>
       <use xlink:href="#ArialMT-2e" x="55.615234"/>
       <use xlink:href="#ArialMT-34" x="83.398438"/>
      </g>
     </g>
    </g>
    <g id="ytick_4">
     <g id="line2d_13">
      <g>
       <use xlink:href="#mbbc1c2ed44" x="90" y="184.896" style="fill: #262626; stroke: #262626"/>
      </g>
     </g>
     <g id="text_12">
      <!-- 0.6 -->
      <g style="fill: #262626" transform="translate(69.468 188.045437) scale(0.088 -0.088)">
       <defs>
        <path id="ArialMT-36" d="M 3184 3459 
L 2625 3416 
Q 2550 3747 2413 3897 
Q 2184 4138 1850 4138 
Q 1581 4138 1378 3988 
Q 1113 3794 959 3422 
Q 806 3050 800 2363 
Q 1003 2672 1297 2822 
Q 1591 2972 1913 2972 
Q 2475 2972 2870 2558 
Q 3266 2144 3266 1488 
Q 3266 1056 3080 686 
Q 2894 316 2569 119 
Q 2244 -78 1831 -78 
Q 1128 -78 684 439 
Q 241 956 241 2144 
Q 241 3472 731 4075 
Q 1159 4600 1884 4600 
Q 2425 4600 2770 4297 
Q 3116 3994 3184 3459 
z
M 888 1484 
Q 888 1194 1011 928 
Q 1134 663 1356 523 
Q 1578 384 1822 384 
Q 2178 384 2434 671 
Q 2691 959 2691 1453 
Q 2691 1928 2437 2201 
Q 2184 2475 1800 2475 
Q 1419 2475 1153 2201 
Q 888 1928 888 1484 
z
" transform="scale(0.015625)"/>
       </defs>
       <use xlink:href="#ArialMT-30"/>
       <use xlink:href="#ArialMT-2e" x="55.615234"/>
       <use xlink:href="#ArialMT-36" x="83.398438"/>
      </g>
     </g>
    </g>
    <g id="ytick_5">
     <g id="line2d_14">
      <g>
       <use xlink:href="#mbbc1c2ed44" x="90" y="118.368" style="fill: #262626; stroke: #262626"/>
      </g>
     </g>
     <g id="text_13">
      <!-- 0.8 -->
      <g style="fill: #262626" transform="translate(69.468 121.517437) scale(0.088 -0.088)">
       <defs>
        <path id="ArialMT-38" d="M 1131 2484 
Q 781 2613 612 2850 
Q 444 3088 444 3419 
Q 444 3919 803 4259 
Q 1163 4600 1759 4600 
Q 2359 4600 2725 4251 
Q 3091 3903 3091 3403 
Q 3091 3084 2923 2848 
Q 2756 2613 2416 2484 
Q 2838 2347 3058 2040 
Q 3278 1734 3278 1309 
Q 3278 722 2862 322 
Q 2447 -78 1769 -78 
Q 1091 -78 675 323 
Q 259 725 259 1325 
Q 259 1772 486 2073 
Q 713 2375 1131 2484 
z
M 1019 3438 
Q 1019 3113 1228 2906 
Q 1438 2700 1772 2700 
Q 2097 2700 2305 2904 
Q 2513 3109 2513 3406 
Q 2513 3716 2298 3927 
Q 2084 4138 1766 4138 
Q 1444 4138 1231 3931 
Q 1019 3725 1019 3438 
z
M 838 1322 
Q 838 1081 952 856 
Q 1066 631 1291 507 
Q 1516 384 1775 384 
Q 2178 384 2440 643 
Q 2703 903 2703 1303 
Q 2703 1709 2433 1975 
Q 2163 2241 1756 2241 
Q 1359 2241 1098 1978 
Q 838 1716 838 1322 
z
" transform="scale(0.015625)"/>
       </defs>
       <use xlink:href="#ArialMT-30"/>
       <use xlink:href="#ArialMT-2e" x="55.615234"/>
       <use xlink:href="#ArialMT-38" x="83.398438"/>
      </g>
     </g>
    </g>
    <g id="ytick_6">
     <g id="line2d_15">
      <g>
       <use xlink:href="#mbbc1c2ed44" x="90" y="51.84" style="fill: #262626; stroke: #262626"/>
      </g>
     </g>
     <g id="text_14">
      <!-- 1.0 -->
      <g style="fill: #262626" transform="translate(69.468 54.989438) scale(0.088 -0.088)">
       <use xlink:href="#ArialMT-31"/>
       <use xlink:href="#ArialMT-2e" x="55.615234"/>
       <use xlink:href="#ArialMT-30" x="83.398438"/>
      </g>
     </g>
    </g>
    <g id="text_15">
     <!-- percentage -->
     <g style="fill: #262626" transform="translate(63.4475 242.1765) rotate(-90) scale(0.096 -0.096)">
      <defs>
       <path id="ArialMT-70" d="M 422 -1272 
L 422 3319 
L 934 3319 
L 934 2888 
Q 1116 3141 1344 3267 
Q 1572 3394 1897 3394 
Q 2322 3394 2647 3175 
Q 2972 2956 3137 2557 
Q 3303 2159 3303 1684 
Q 3303 1175 3120 767 
Q 2938 359 2589 142 
Q 2241 -75 1856 -75 
Q 1575 -75 1351 44 
Q 1128 163 984 344 
L 984 -1272 
L 422 -1272 
z
M 931 1641 
Q 931 1000 1190 694 
Q 1450 388 1819 388 
Q 2194 388 2461 705 
Q 2728 1022 2728 1688 
Q 2728 2322 2467 2637 
Q 2206 2953 1844 2953 
Q 1484 2953 1207 2617 
Q 931 2281 931 1641 
z
" transform="scale(0.015625)"/>
       <path id="ArialMT-65" d="M 2694 1069 
L 3275 997 
Q 3138 488 2766 206 
Q 2394 -75 1816 -75 
Q 1088 -75 661 373 
Q 234 822 234 1631 
Q 234 2469 665 2931 
Q 1097 3394 1784 3394 
Q 2450 3394 2872 2941 
Q 3294 2488 3294 1666 
Q 3294 1616 3291 1516 
L 816 1516 
Q 847 969 1125 678 
Q 1403 388 1819 388 
Q 2128 388 2347 550 
Q 2566 713 2694 1069 
z
M 847 1978 
L 2700 1978 
Q 2663 2397 2488 2606 
Q 2219 2931 1791 2931 
Q 1403 2931 1139 2672 
Q 875 2413 847 1978 
z
" transform="scale(0.015625)"/>
       <path id="ArialMT-72" d="M 416 0 
L 416 3319 
L 922 3319 
L 922 2816 
Q 1116 3169 1280 3281 
Q 1444 3394 1641 3394 
Q 1925 3394 2219 3213 
L 2025 2691 
Q 1819 2813 1613 2813 
Q 1428 2813 1281 2702 
Q 1134 2591 1072 2394 
Q 978 2094 978 1738 
L 978 0 
L 416 0 
z
" transform="scale(0.015625)"/>
       <path id="ArialMT-63" d="M 2588 1216 
L 3141 1144 
Q 3050 572 2676 248 
Q 2303 -75 1759 -75 
Q 1078 -75 664 370 
Q 250 816 250 1647 
Q 250 2184 428 2587 
Q 606 2991 970 3192 
Q 1334 3394 1763 3394 
Q 2303 3394 2647 3120 
Q 2991 2847 3088 2344 
L 2541 2259 
Q 2463 2594 2264 2762 
Q 2066 2931 1784 2931 
Q 1359 2931 1093 2626 
Q 828 2322 828 1663 
Q 828 994 1084 691 
Q 1341 388 1753 388 
Q 2084 388 2306 591 
Q 2528 794 2588 1216 
z
" transform="scale(0.015625)"/>
       <path id="ArialMT-6e" d="M 422 0 
L 422 3319 
L 928 3319 
L 928 2847 
Q 1294 3394 1984 3394 
Q 2284 3394 2536 3286 
Q 2788 3178 2913 3003 
Q 3038 2828 3088 2588 
Q 3119 2431 3119 2041 
L 3119 0 
L 2556 0 
L 2556 2019 
Q 2556 2363 2490 2533 
Q 2425 2703 2258 2804 
Q 2091 2906 1866 2906 
Q 1506 2906 1245 2678 
Q 984 2450 984 1813 
L 984 0 
L 422 0 
z
" transform="scale(0.015625)"/>
       <path id="ArialMT-74" d="M 1650 503 
L 1731 6 
Q 1494 -44 1306 -44 
Q 1000 -44 831 53 
Q 663 150 594 308 
Q 525 466 525 972 
L 525 2881 
L 113 2881 
L 113 3319 
L 525 3319 
L 525 4141 
L 1084 4478 
L 1084 3319 
L 1650 3319 
L 1650 2881 
L 1084 2881 
L 1084 941 
Q 1084 700 1114 631 
Q 1144 563 1211 522 
Q 1278 481 1403 481 
Q 1497 481 1650 503 
z
" transform="scale(0.015625)"/>
       <path id="ArialMT-61" d="M 2588 409 
Q 2275 144 1986 34 
Q 1697 -75 1366 -75 
Q 819 -75 525 192 
Q 231 459 231 875 
Q 231 1119 342 1320 
Q 453 1522 633 1644 
Q 813 1766 1038 1828 
Q 1203 1872 1538 1913 
Q 2219 1994 2541 2106 
Q 2544 2222 2544 2253 
Q 2544 2597 2384 2738 
Q 2169 2928 1744 2928 
Q 1347 2928 1158 2789 
Q 969 2650 878 2297 
L 328 2372 
Q 403 2725 575 2942 
Q 747 3159 1072 3276 
Q 1397 3394 1825 3394 
Q 2250 3394 2515 3294 
Q 2781 3194 2906 3042 
Q 3031 2891 3081 2659 
Q 3109 2516 3109 2141 
L 3109 1391 
Q 3109 606 3145 398 
Q 3181 191 3288 0 
L 2700 0 
Q 2613 175 2588 409 
z
M 2541 1666 
Q 2234 1541 1622 1453 
Q 1275 1403 1131 1340 
Q 988 1278 909 1158 
Q 831 1038 831 891 
Q 831 666 1001 516 
Q 1172 366 1500 366 
Q 1825 366 2078 508 
Q 2331 650 2450 897 
Q 2541 1088 2541 1459 
L 2541 1666 
z
" transform="scale(0.015625)"/>
       <path id="ArialMT-67" d="M 319 -275 
L 866 -356 
Q 900 -609 1056 -725 
Q 1266 -881 1628 -881 
Q 2019 -881 2231 -725 
Q 2444 -569 2519 -288 
Q 2563 -116 2559 434 
Q 2191 0 1641 0 
Q 956 0 581 494 
Q 206 988 206 1678 
Q 206 2153 378 2554 
Q 550 2956 876 3175 
Q 1203 3394 1644 3394 
Q 2231 3394 2613 2919 
L 2613 3319 
L 3131 3319 
L 3131 450 
Q 3131 -325 2973 -648 
Q 2816 -972 2473 -1159 
Q 2131 -1347 1631 -1347 
Q 1038 -1347 672 -1080 
Q 306 -813 319 -275 
z
M 784 1719 
Q 784 1066 1043 766 
Q 1303 466 1694 466 
Q 2081 466 2343 764 
Q 2606 1063 2606 1700 
Q 2606 2309 2336 2618 
Q 2066 2928 1684 2928 
Q 1309 2928 1046 2623 
Q 784 2319 784 1719 
z
" transform="scale(0.015625)"/>
      </defs>
      <use xlink:href="#ArialMT-70"/>
      <use xlink:href="#ArialMT-65" x="55.615234"/>
      <use xlink:href="#ArialMT-72" x="111.230469"/>
      <use xlink:href="#ArialMT-63" x="144.53125"/>
      <use xlink:href="#ArialMT-65" x="194.53125"/>
      <use xlink:href="#ArialMT-6e" x="250.146484"/>
      <use xlink:href="#ArialMT-74" x="305.761719"/>
      <use xlink:href="#ArialMT-61" x="333.544922"/>
      <use xlink:href="#ArialMT-67" x="389.160156"/>
      <use xlink:href="#ArialMT-65" x="444.775391"/>
     </g>
    </g>
   </g>
   <g id="line2d_16">
    <path d="M 369 384.48 
L 369 51.84 
" clip-path="url(#pa871d7eadf)" style="fill: none; stroke: #daa520; stroke-width: 2; stroke-linecap: round"/>
   </g>
   <g id="patch_126">
    <path d="M 90 384.48 
L 648 384.48 
" style="fill: none; stroke: #262626; stroke-linejoin: miter; stroke-linecap: square"/>
   </g>
   <g id="patch_127">
    <path d="M 90 51.84 
L 648 51.84 
" style="fill: none; stroke: #262626; stroke-linejoin: miter; stroke-linecap: square"/>
   </g>
   <g id="text_16">
    <!-- GluC vs. Ctrl probability PPSM n=74 -->
    <g style="fill: #262626" transform="translate(291.50625 45.84) scale(0.096 -0.096)">
     <defs>
      <path id="ArialMT-47" d="M 2638 1797 
L 2638 2334 
L 4578 2338 
L 4578 638 
Q 4131 281 3656 101 
Q 3181 -78 2681 -78 
Q 2006 -78 1454 211 
Q 903 500 622 1047 
Q 341 1594 341 2269 
Q 341 2938 620 3517 
Q 900 4097 1425 4378 
Q 1950 4659 2634 4659 
Q 3131 4659 3532 4498 
Q 3934 4338 4162 4050 
Q 4391 3763 4509 3300 
L 3963 3150 
Q 3859 3500 3706 3700 
Q 3553 3900 3268 4020 
Q 2984 4141 2638 4141 
Q 2222 4141 1919 4014 
Q 1616 3888 1430 3681 
Q 1244 3475 1141 3228 
Q 966 2803 966 2306 
Q 966 1694 1177 1281 
Q 1388 869 1791 669 
Q 2194 469 2647 469 
Q 3041 469 3416 620 
Q 3791 772 3984 944 
L 3984 1797 
L 2638 1797 
z
" transform="scale(0.015625)"/>
      <path id="ArialMT-6c" d="M 409 0 
L 409 4581 
L 972 4581 
L 972 0 
L 409 0 
z
" transform="scale(0.015625)"/>
      <path id="ArialMT-75" d="M 2597 0 
L 2597 488 
Q 2209 -75 1544 -75 
Q 1250 -75 995 37 
Q 741 150 617 320 
Q 494 491 444 738 
Q 409 903 409 1263 
L 409 3319 
L 972 3319 
L 972 1478 
Q 972 1038 1006 884 
Q 1059 663 1231 536 
Q 1403 409 1656 409 
Q 1909 409 2131 539 
Q 2353 669 2445 892 
Q 2538 1116 2538 1541 
L 2538 3319 
L 3100 3319 
L 3100 0 
L 2597 0 
z
" transform="scale(0.015625)"/>
      <path id="ArialMT-43" d="M 3763 1606 
L 4369 1453 
Q 4178 706 3683 314 
Q 3188 -78 2472 -78 
Q 1731 -78 1267 223 
Q 803 525 561 1097 
Q 319 1669 319 2325 
Q 319 3041 592 3573 
Q 866 4106 1370 4382 
Q 1875 4659 2481 4659 
Q 3169 4659 3637 4309 
Q 4106 3959 4291 3325 
L 3694 3184 
Q 3534 3684 3231 3912 
Q 2928 4141 2469 4141 
Q 1941 4141 1586 3887 
Q 1231 3634 1087 3207 
Q 944 2781 944 2328 
Q 944 1744 1114 1308 
Q 1284 872 1643 656 
Q 2003 441 2422 441 
Q 2931 441 3284 734 
Q 3638 1028 3763 1606 
z
" transform="scale(0.015625)"/>
      <path id="ArialMT-20" transform="scale(0.015625)"/>
      <path id="ArialMT-76" d="M 1344 0 
L 81 3319 
L 675 3319 
L 1388 1331 
Q 1503 1009 1600 663 
Q 1675 925 1809 1294 
L 2547 3319 
L 3125 3319 
L 1869 0 
L 1344 0 
z
" transform="scale(0.015625)"/>
      <path id="ArialMT-73" d="M 197 991 
L 753 1078 
Q 800 744 1014 566 
Q 1228 388 1613 388 
Q 2000 388 2187 545 
Q 2375 703 2375 916 
Q 2375 1106 2209 1216 
Q 2094 1291 1634 1406 
Q 1016 1563 777 1677 
Q 538 1791 414 1992 
Q 291 2194 291 2438 
Q 291 2659 392 2848 
Q 494 3038 669 3163 
Q 800 3259 1026 3326 
Q 1253 3394 1513 3394 
Q 1903 3394 2198 3281 
Q 2494 3169 2634 2976 
Q 2775 2784 2828 2463 
L 2278 2388 
Q 2241 2644 2061 2787 
Q 1881 2931 1553 2931 
Q 1166 2931 1000 2803 
Q 834 2675 834 2503 
Q 834 2394 903 2306 
Q 972 2216 1119 2156 
Q 1203 2125 1616 2013 
Q 2213 1853 2448 1751 
Q 2684 1650 2818 1456 
Q 2953 1263 2953 975 
Q 2953 694 2789 445 
Q 2625 197 2315 61 
Q 2006 -75 1616 -75 
Q 969 -75 630 194 
Q 291 463 197 991 
z
" transform="scale(0.015625)"/>
      <path id="ArialMT-6f" d="M 213 1659 
Q 213 2581 725 3025 
Q 1153 3394 1769 3394 
Q 2453 3394 2887 2945 
Q 3322 2497 3322 1706 
Q 3322 1066 3130 698 
Q 2938 331 2570 128 
Q 2203 -75 1769 -75 
Q 1072 -75 642 372 
Q 213 819 213 1659 
z
M 791 1659 
Q 791 1022 1069 705 
Q 1347 388 1769 388 
Q 2188 388 2466 706 
Q 2744 1025 2744 1678 
Q 2744 2294 2464 2611 
Q 2184 2928 1769 2928 
Q 1347 2928 1069 2612 
Q 791 2297 791 1659 
z
" transform="scale(0.015625)"/>
      <path id="ArialMT-62" d="M 941 0 
L 419 0 
L 419 4581 
L 981 4581 
L 981 2947 
Q 1338 3394 1891 3394 
Q 2197 3394 2470 3270 
Q 2744 3147 2920 2923 
Q 3097 2700 3197 2384 
Q 3297 2069 3297 1709 
Q 3297 856 2875 390 
Q 2453 -75 1863 -75 
Q 1275 -75 941 416 
L 941 0 
z
M 934 1684 
Q 934 1088 1097 822 
Q 1363 388 1816 388 
Q 2184 388 2453 708 
Q 2722 1028 2722 1663 
Q 2722 2313 2464 2622 
Q 2206 2931 1841 2931 
Q 1472 2931 1203 2611 
Q 934 2291 934 1684 
z
" transform="scale(0.015625)"/>
      <path id="ArialMT-69" d="M 425 3934 
L 425 4581 
L 988 4581 
L 988 3934 
L 425 3934 
z
M 425 0 
L 425 3319 
L 988 3319 
L 988 0 
L 425 0 
z
" transform="scale(0.015625)"/>
      <path id="ArialMT-79" d="M 397 -1278 
L 334 -750 
Q 519 -800 656 -800 
Q 844 -800 956 -737 
Q 1069 -675 1141 -563 
Q 1194 -478 1313 -144 
Q 1328 -97 1363 -6 
L 103 3319 
L 709 3319 
L 1400 1397 
Q 1534 1031 1641 628 
Q 1738 1016 1872 1384 
L 2581 3319 
L 3144 3319 
L 1881 -56 
Q 1678 -603 1566 -809 
Q 1416 -1088 1222 -1217 
Q 1028 -1347 759 -1347 
Q 597 -1347 397 -1278 
z
" transform="scale(0.015625)"/>
      <path id="ArialMT-53" d="M 288 1472 
L 859 1522 
Q 900 1178 1048 958 
Q 1197 738 1509 602 
Q 1822 466 2213 466 
Q 2559 466 2825 569 
Q 3091 672 3220 851 
Q 3350 1031 3350 1244 
Q 3350 1459 3225 1620 
Q 3100 1781 2813 1891 
Q 2628 1963 1997 2114 
Q 1366 2266 1113 2400 
Q 784 2572 623 2826 
Q 463 3081 463 3397 
Q 463 3744 659 4045 
Q 856 4347 1234 4503 
Q 1613 4659 2075 4659 
Q 2584 4659 2973 4495 
Q 3363 4331 3572 4012 
Q 3781 3694 3797 3291 
L 3216 3247 
Q 3169 3681 2898 3903 
Q 2628 4125 2100 4125 
Q 1550 4125 1298 3923 
Q 1047 3722 1047 3438 
Q 1047 3191 1225 3031 
Q 1400 2872 2139 2705 
Q 2878 2538 3153 2413 
Q 3553 2228 3743 1945 
Q 3934 1663 3934 1294 
Q 3934 928 3725 604 
Q 3516 281 3123 101 
Q 2731 -78 2241 -78 
Q 1619 -78 1198 103 
Q 778 284 539 648 
Q 300 1013 288 1472 
z
" transform="scale(0.015625)"/>
      <path id="ArialMT-4d" d="M 475 0 
L 475 4581 
L 1388 4581 
L 2472 1338 
Q 2622 884 2691 659 
Q 2769 909 2934 1394 
L 4031 4581 
L 4847 4581 
L 4847 0 
L 4263 0 
L 4263 3834 
L 2931 0 
L 2384 0 
L 1059 3900 
L 1059 0 
L 475 0 
z
" transform="scale(0.015625)"/>
      <path id="ArialMT-3d" d="M 3381 2694 
L 356 2694 
L 356 3219 
L 3381 3219 
L 3381 2694 
z
M 3381 1303 
L 356 1303 
L 356 1828 
L 3381 1828 
L 3381 1303 
z
" transform="scale(0.015625)"/>
      <path id="ArialMT-37" d="M 303 3981 
L 303 4522 
L 3269 4522 
L 3269 4084 
Q 2831 3619 2401 2847 
Q 1972 2075 1738 1259 
Q 1569 684 1522 0 
L 944 0 
Q 953 541 1156 1306 
Q 1359 2072 1739 2783 
Q 2119 3494 2547 3981 
L 303 3981 
z
" transform="scale(0.015625)"/>
     </defs>
     <use xlink:href="#ArialMT-47"/>
     <use xlink:href="#ArialMT-6c" x="77.783203"/>
     <use xlink:href="#ArialMT-75" x="100"/>
     <use xlink:href="#ArialMT-43" x="155.615234"/>
     <use xlink:href="#ArialMT-20" x="227.832031"/>
     <use xlink:href="#ArialMT-76" x="255.615234"/>
     <use xlink:href="#ArialMT-73" x="305.615234"/>
     <use xlink:href="#ArialMT-2e" x="355.615234"/>
     <use xlink:href="#ArialMT-20" x="383.398438"/>
     <use xlink:href="#ArialMT-43" x="411.181641"/>
     <use xlink:href="#ArialMT-74" x="483.398438"/>
     <use xlink:href="#ArialMT-72" x="511.181641"/>
     <use xlink:href="#ArialMT-6c" x="544.482422"/>
     <use xlink:href="#ArialMT-20" x="566.699219"/>
     <use xlink:href="#ArialMT-70" x="594.482422"/>
     <use xlink:href="#ArialMT-72" x="650.097656"/>
     <use xlink:href="#ArialMT-6f" x="683.398438"/>
     <use xlink:href="#ArialMT-62" x="739.013672"/>
     <use xlink:href="#ArialMT-61" x="794.628906"/>
     <use xlink:href="#ArialMT-62" x="850.244141"/>
     <use xlink:href="#ArialMT-69" x="905.859375"/>
     <use xlink:href="#ArialMT-6c" x="928.076172"/>
     <use xlink:href="#ArialMT-69" x="950.292969"/>
     <use xlink:href="#ArialMT-74" x="972.509766"/>
     <use xlink:href="#ArialMT-79" x="1000.292969"/>
     <use xlink:href="#ArialMT-20" x="1050.292969"/>
     <use xlink:href="#ArialMT-50" x="1078.076172"/>
     <use xlink:href="#ArialMT-50" x="1144.775391"/>
     <use xlink:href="#ArialMT-53" x="1211.474609"/>
     <use xlink:href="#ArialMT-4d" x="1278.173828"/>
     <use xlink:href="#ArialMT-20" x="1361.474609"/>
     <use xlink:href="#ArialMT-6e" x="1389.257812"/>
     <use xlink:href="#ArialMT-3d" x="1444.873047"/>
     <use xlink:href="#ArialMT-37" x="1503.271484"/>
     <use xlink:href="#ArialMT-34" x="1558.886719"/>
    </g>
   </g>
  </g>
 </g>
 <defs>
  <clipPath id="pa871d7eadf">
   <rect x="90" y="51.84" width="558" height="332.64"/>
  </clipPath>
 </defs>
</svg>
