<?xml version="1.0" encoding="utf-8" standalone="no"?>
<!DOCTYPE svg PUBLIC "-//W3C//DTD SVG 1.1//EN"
  "http://www.w3.org/Graphics/SVG/1.1/DTD/svg11.dtd">
<svg xmlns:xlink="http://www.w3.org/1999/xlink" width="720pt" height="432pt" viewBox="0 0 720 432" xmlns="http://www.w3.org/2000/svg" version="1.1">
 <metadata>
  <rdf:RDF xmlns:dc="http://purl.org/dc/elements/1.1/" xmlns:cc="http://creativecommons.org/ns#" xmlns:rdf="http://www.w3.org/1999/02/22-rdf-syntax-ns#">
   <cc:Work>
    <dc:type rdf:resource="http://purl.org/dc/dcmitype/StillImage"/>
    <dc:date>2023-11-26T14:31:07.462253</dc:date>
    <dc:format>image/svg+xml</dc:format>
    <dc:creator>
     <cc:Agent>
      <dc:title>Matplotlib v3.7.1, https://matplotlib.org/</dc:title>
     </cc:Agent>
    </dc:creator>
   </cc:Work>
  </rdf:RDF>
 </metadata>
 <defs>
  <style type="text/css">*{stroke-linejoin: round; stroke-linecap: butt}</style>
 </defs>
 <g id="figure_1">
  <g id="patch_1">
   <path d="M 0 432 
L 720 432 
L 720 0 
L 0 0 
z
" style="fill: #ffffff"/>
  </g>
  <g id="axes_1">
   <g id="patch_2">
    <path d="M 90 384.48 
L 648 384.48 
L 648 51.84 
L 90 51.84 
z
" style="fill: #ffffff"/>
   </g>
   <g id="patch_3">
    <path d="M 307 384.48 
L 369 384.48 
L 369 51.84 
L 307 51.84 
z
" clip-path="url(#p1c0e067d07)" style="fill: #ffd700; opacity: 0.35; stroke: #ffffff; stroke-width: 0.8; stroke-linejoin: miter"/>
   </g>
   <g id="line2d_1">
    <path d="M 90 384.48 
L 648 384.48 
" clip-path="url(#p1c0e067d07)" style="fill: none; stroke: #000000; stroke-width: 0.5; stroke-linecap: round"/>
   </g>
   <g id="patch_4">
    <path d="M 125.65 384.226308 
L 153.043021 384.226308 
Q 165.271068 384.226308 171.803672 384.247287 
Q 178.35 384.268213 178.35 384.306938 
Q 178.35 384.345876 171.803672 384.366801 
Q 165.271068 384.387727 153.043021 384.387727 
L 142.159922 384.387727 
L 142.159922 384.473495 
L 125.65 384.473495 
L 125.65 384.226308 
z
M 142.159922 384.272504 
L 142.159922 384.341532 
L 151.286354 384.341532 
Q 156.08974 384.341532 158.711016 384.332526 
Q 161.332292 384.32352 161.332292 384.306938 
Q 161.332292 384.29041 158.711016 384.281457 
Q 156.08974 384.272504 151.286354 384.272504 
L 142.159922 384.272504 
z
" clip-path="url(#p1c0e067d07)" style="fill: #787800"/>
   </g>
   <g id="patch_5">
    <path d="M 173.955948 383.031031 
L 173.955948 383.278954 
Q 168.459804 383.235793 163.221293 383.213962 
Q 157.997094 383.19188 153.34541 383.19188 
Q 147.176562 383.19188 144.213797 383.221741 
Q 141.265345 383.251351 141.265345 383.314084 
Q 141.265345 383.36126 143.254834 383.387608 
Q 145.244324 383.413705 150.482835 383.432525 
L 157.811027 383.458371 
Q 168.946442 383.497768 173.641065 383.577816 
Q 178.35 383.657613 178.35 383.805162 
Q 178.35 383.998632 171.794704 384.093234 
Q 165.239408 384.187836 151.770994 384.187836 
Q 145.430391 384.187836 139.032537 384.166506 
Q 132.634682 384.145428 126.236828 384.103773 
L 126.236828 383.849075 
Q 132.634682 383.908547 138.60315 383.938909 
Q 144.571619 383.969022 150.125014 383.969022 
Q 155.764286 383.969022 158.755676 383.936149 
Q 161.747067 383.903026 161.747067 383.841798 
Q 161.747067 383.787095 159.714639 383.757233 
Q 157.682211 383.727372 151.59924 383.703785 
L 144.929441 383.677938 
Q 134.910429 383.640298 130.273058 383.557992 
Q 125.65 383.475686 125.65 383.336167 
Q 125.65 383.161266 132.090793 383.067165 
Q 138.531586 382.973065 150.611651 382.973065 
Q 156.122108 382.973065 161.933134 382.987619 
Q 167.744161 383.002174 173.955948 383.031031 
z
" clip-path="url(#p1c0e067d07)" style="fill: #40ba47"/>
   </g>
   <g id="patch_6">
    <path d="M 125.65 381.505254 
L 140.22 381.505254 
L 151.988929 382.003879 
L 163.746786 381.505254 
L 178.35 381.505254 
L 158.665 382.314807 
L 158.665 382.904281 
L 145.346071 382.904281 
L 145.346071 382.314807 
L 125.65 381.505254 
z
" clip-path="url(#p1c0e067d07)" style="fill: #177875"/>
   </g>
   <g id="patch_7">
    <path d="M 142.437692 379.634505 
L 161.562308 379.634505 
L 161.562308 381.421414 
L 142.437692 381.421414 
L 142.437692 379.634505 
z
" clip-path="url(#p1c0e067d07)" style="fill: #21599c"/>
   </g>
   <g id="patch_8">
    <path d="M 125.65 376.780874 
L 177.253077 376.780874 
L 177.253077 377.314206 
L 144.774615 377.314206 
L 144.774615 377.822922 
L 175.329487 377.822922 
L 175.329487 378.356253 
L 144.774615 378.356253 
L 144.774615 378.982771 
L 178.35 378.982771 
L 178.35 379.515517 
L 125.65 379.515517 
L 125.65 376.780874 
z
" clip-path="url(#p1c0e067d07)" style="fill: #6b296b"/>
   </g>
   <g id="patch_9">
    <path d="M 125.65 371.977328 
L 178.35 371.977328 
L 178.35 372.876457 
L 159.390256 372.876457 
L 159.390256 376.587588 
L 144.646512 376.587588 
L 144.646512 372.876457 
L 125.65 372.876457 
L 125.65 371.977328 
z
" clip-path="url(#p1c0e067d07)" style="fill: #40ba47"/>
   </g>
   <g id="patch_10">
    <path d="M 147.032787 368.761136 
Q 151.762274 368.761136 153.814221 368.601829 
Q 155.866168 368.441384 155.866168 368.074978 
Q 155.866168 367.711985 153.814221 367.556092 
Q 151.762274 367.399061 147.032787 367.399061 
L 140.701781 367.399061 
L 140.701781 368.761136 
L 147.032787 368.761136 
z
M 140.701781 369.706737 
L 140.701781 371.716282 
L 125.65 371.716282 
L 125.65 366.406806 
L 148.634307 366.406806 
Q 160.170252 366.406806 165.537844 366.759557 
Q 170.917949 367.11117 170.917949 367.87243 
Q 170.917949 368.398144 168.11529 368.736102 
Q 165.325142 369.074061 159.694801 369.234506 
Q 162.785233 369.298229 165.225047 369.524672 
Q 167.677374 369.749978 170.179748 370.208555 
L 178.35 371.716282 
L 162.322293 371.716282 
L 155.203039 370.397447 
Q 153.050997 369.99918 150.836396 369.853527 
Q 148.634307 369.706737 144.955817 369.706737 
L 140.701781 369.706737 
z
" clip-path="url(#p1c0e067d07)" style="fill: #bd2e1f"/>
   </g>
   <g id="patch_11">
    <path d="M 125.65 359.616969 
L 138.68762 359.616969 
L 152.016162 364.399595 
L 165.323155 359.616969 
L 178.35 359.616969 
L 159.730985 366.096567 
L 144.269015 366.096567 
L 125.65 359.616969 
z
" clip-path="url(#p1c0e067d07)" style="fill: #21599c"/>
   </g>
   <g id="patch_12">
    <path d="M 125.65 350.588998 
L 144.774615 350.588998 
L 144.774615 357.538032 
L 178.35 357.538032 
L 178.35 359.219339 
L 125.65 359.219339 
L 125.65 350.588998 
z
" clip-path="url(#p1c0e067d07)" style="fill: #21599c"/>
   </g>
   <g id="patch_13">
    <path d="M 125.65 339.539937 
L 139.537864 339.539937 
L 139.537864 343.388462 
L 159.555783 339.539937 
L 175.683253 339.539937 
L 149.743078 344.534206 
L 178.35 350.084398 
L 160.964195 350.084398 
L 139.537864 345.930794 
L 139.537864 350.084398 
L 125.65 350.084398 
L 125.65 339.539937 
z
" clip-path="url(#p1c0e067d07)" style="fill: #bd2e1f"/>
   </g>
   <g id="patch_14">
    <path d="M 162.155336 335.600857 
L 141.887763 335.600857 
L 138.68762 338.80027 
L 125.65 338.80027 
L 144.269015 321.237375 
L 159.730985 321.237375 
L 178.35 338.80027 
L 165.323155 338.80027 
L 162.155336 335.600857 
z
M 145.120231 332.34122 
L 158.890544 332.34122 
L 152.016162 325.355208 
L 145.120231 332.34122 
z
" clip-path="url(#p1c0e067d07)" style="fill: #21599c"/>
   </g>
   <g id="patch_15">
    <path d="M 187.65 381.921727 
L 239.253077 381.921727 
L 239.253077 382.407869 
L 206.774615 382.407869 
L 206.774615 382.871573 
L 237.329487 382.871573 
L 237.329487 383.357714 
L 206.774615 383.357714 
L 206.774615 383.928796 
L 240.35 383.928796 
L 240.35 384.414403 
L 187.65 384.414403 
L 187.65 381.921727 
z
" clip-path="url(#p1c0e067d07)" style="fill: #6b296b"/>
   </g>
   <g id="patch_16">
    <path d="M 187.65 378.702543 
L 201.537864 378.702543 
L 201.537864 379.824029 
L 221.555783 378.702543 
L 237.683253 378.702543 
L 211.743078 380.157906 
L 240.35 381.775269 
L 222.964195 381.775269 
L 201.537864 380.564881 
L 201.537864 381.775269 
L 187.65 381.775269 
L 187.65 378.702543 
z
" clip-path="url(#p1c0e067d07)" style="fill: #bd2e1f"/>
   </g>
   <g id="patch_17">
    <path d="M 209.032787 374.297427 
Q 213.762274 374.297427 215.814221 374.074837 
Q 217.866168 373.850658 217.866168 373.338703 
Q 217.866168 372.831518 215.814221 372.613699 
Q 213.762274 372.394289 209.032787 372.394289 
L 202.701781 372.394289 
L 202.701781 374.297427 
L 209.032787 374.297427 
z
M 202.701781 375.618652 
L 202.701781 378.426456 
L 187.65 378.426456 
L 187.65 371.007877 
L 210.634307 371.007877 
Q 222.170252 371.007877 227.537844 371.500753 
Q 232.917949 371.992039 232.917949 373.055697 
Q 232.917949 373.790241 230.11529 374.262448 
Q 227.325142 374.734655 221.694801 374.958834 
Q 224.785233 375.04787 227.225047 375.364265 
Q 229.677374 375.679069 232.179748 376.319808 
L 240.35 378.426456 
L 224.322293 378.426456 
L 217.203039 376.583735 
Q 215.050997 376.027262 212.836396 375.823752 
Q 210.634307 375.618652 206.955817 375.618652 
L 202.701781 375.618652 
z
" clip-path="url(#p1c0e067d07)" style="fill: #bd2e1f"/>
   </g>
   <g id="patch_18">
    <path d="M 204.437692 353.279476 
L 223.562308 353.279476 
L 223.562308 370.363082 
L 204.437692 370.363082 
L 204.437692 353.279476 
z
" clip-path="url(#p1c0e067d07)" style="fill: #21599c"/>
   </g>
   <g id="patch_19">
    <path d="M 187.65 324.908087 
L 206.774615 324.908087 
L 206.774615 346.81389 
L 240.35 346.81389 
L 240.35 352.113964 
L 187.65 352.113964 
L 187.65 324.908087 
z
" clip-path="url(#p1c0e067d07)" style="fill: #21599c"/>
   </g>
   <g id="patch_20">
    <path d="M 187.65 283.674653 
L 200.68762 283.674653 
L 214.016162 312.814008 
L 227.323155 283.674653 
L 240.35 283.674653 
L 221.730985 323.153233 
L 206.269015 323.153233 
L 187.65 283.674653 
z
" clip-path="url(#p1c0e067d07)" style="fill: #21599c"/>
   </g>
   <g id="patch_21">
    <path d="M 271.032787 383.737943 
Q 275.762274 383.737943 277.814221 383.699746 
Q 279.866168 383.661276 279.866168 383.573423 
Q 279.866168 383.486389 277.814221 383.44901 
Q 275.762274 383.411359 271.032787 383.411359 
L 264.701781 383.411359 
L 264.701781 383.737943 
L 271.032787 383.737943 
z
M 264.701781 383.96467 
L 264.701781 384.446499 
L 249.65 384.446499 
L 249.65 383.173446 
L 272.634307 383.173446 
Q 284.170252 383.173446 289.537844 383.258025 
Q 294.917949 383.342331 294.917949 383.524858 
Q 294.917949 383.650909 292.11529 383.731941 
Q 289.325142 383.812973 283.694801 383.851443 
Q 286.785233 383.866722 289.225047 383.921016 
Q 291.677374 383.975038 294.179748 384.084991 
L 302.35 384.446499 
L 286.322293 384.446499 
L 279.203039 384.130282 
Q 277.050997 384.034789 274.836396 383.999866 
Q 272.634307 383.96467 268.955817 383.96467 
L 264.701781 383.96467 
z
" clip-path="url(#p1c0e067d07)" style="fill: #bd2e1f"/>
   </g>
   <g id="patch_22">
    <path d="M 277.405333 382.513194 
L 276.373292 382.513194 
Q 263.714313 382.513194 256.676667 382.113787 
Q 249.65 381.713752 249.65 381.000837 
Q 249.65 380.289176 256.665687 379.886007 
Q 263.681375 379.48221 276 379.48221 
Q 288.450375 379.48221 295.400188 379.882245 
Q 302.35 380.281652 302.35 381.000837 
Q 302.35 381.494297 298.661 381.851068 
Q 294.972 382.207839 288.044146 382.387792 
L 298.364562 383.046156 
L 285.771458 383.046156 
L 277.405333 382.513194 
z
M 276 380.028966 
Q 269.961458 380.028966 266.634771 380.283533 
Q 263.308083 380.538101 263.308083 381.000837 
Q 263.308083 381.471097 266.557917 381.721276 
Q 269.818729 381.970827 276 381.970827 
Q 282.071479 381.970827 285.398167 381.71626 
Q 288.724854 381.461065 288.724854 381.000837 
Q 288.724854 380.538101 285.398167 380.283533 
Q 282.071479 380.028966 276 380.028966 
z
" clip-path="url(#p1c0e067d07)" style="fill: #40ba47"/>
   </g>
   <g id="patch_23">
    <path d="M 286.155336 378.159263 
L 265.887763 378.159263 
L 262.68762 379.233272 
L 249.65 379.233272 
L 268.269015 373.337592 
L 283.730985 373.337592 
L 302.35 379.233272 
L 289.323155 379.233272 
L 286.155336 378.159263 
z
M 269.120231 377.065037 
L 282.890544 377.065037 
L 276.016162 374.719906 
L 269.120231 377.065037 
z
" clip-path="url(#p1c0e067d07)" style="fill: #21599c"/>
   </g>
   <g id="patch_24">
    <path d="M 249.65 362.361813 
L 301.253077 362.361813 
L 301.253077 364.418026 
L 268.774615 364.418026 
L 268.774615 366.379338 
L 299.329487 366.379338 
L 299.329487 368.435551 
L 268.774615 368.435551 
L 268.774615 370.851037 
L 302.35 370.851037 
L 302.35 372.904991 
L 249.65 372.904991 
L 249.65 362.361813 
z
" clip-path="url(#p1c0e067d07)" style="fill: #6b296b"/>
   </g>
   <g id="patch_25">
    <path d="M 249.65 348.236446 
L 263.537864 348.236446 
L 263.537864 353.161072 
L 283.555783 348.236446 
L 299.683253 348.236446 
L 273.743078 354.627182 
L 302.35 361.729286 
L 284.964195 361.729286 
L 263.537864 356.414275 
L 263.537864 361.729286 
L 249.65 361.729286 
L 249.65 348.236446 
z
" clip-path="url(#p1c0e067d07)" style="fill: #bd2e1f"/>
   </g>
   <g id="patch_26">
    <path d="M 249.65 308.826853 
L 268.774615 308.826853 
L 268.774615 339.46671 
L 302.35 339.46671 
L 302.35 346.879973 
L 249.65 346.879973 
L 249.65 308.826853 
z
" clip-path="url(#p1c0e067d07)" style="fill: #21599c"/>
   </g>
   <g id="patch_27">
    <path d="M 311.65 60.156 
L 363.253077 60.156 
L 363.253077 121.786364 
L 330.774615 121.786364 
L 330.774615 180.57225 
L 361.329487 180.57225 
L 361.329487 242.202615 
L 330.774615 242.202615 
L 330.774615 314.601361 
L 364.35 314.601361 
L 364.35 376.164 
L 311.65 376.164 
L 311.65 60.156 
z
" clip-path="url(#p1c0e067d07)" style="fill: #6b296b"/>
   </g>
   <g id="patch_28">
    <path d="M 373.65 379.293051 
L 389.195992 379.293051 
L 399.979692 381.997662 
L 410.83447 379.293051 
L 426.35 379.293051 
L 426.35 384.347001 
L 414.80474 384.347001 
L 414.80474 380.650231 
L 403.889037 383.375421 
L 396.141426 383.375421 
L 385.225723 380.650231 
L 385.225723 384.347001 
L 373.65 384.347001 
L 373.65 379.293051 
z
" clip-path="url(#p1c0e067d07)" style="fill: #21599c"/>
   </g>
   <g id="patch_29">
    <path d="M 410.155336 377.820608 
L 389.887763 377.820608 
L 386.68762 378.990982 
L 373.65 378.990982 
L 392.269015 372.566319 
L 407.730985 372.566319 
L 426.35 378.990982 
L 413.323155 378.990982 
L 410.155336 377.820608 
z
M 393.120231 376.628204 
L 406.890544 376.628204 
L 400.016162 374.072658 
L 393.120231 376.628204 
z
" clip-path="url(#p1c0e067d07)" style="fill: #21599c"/>
   </g>
   <g id="patch_30">
    <path d="M 390.437692 364.957534 
L 409.562308 364.957534 
L 409.562308 372.206487 
L 390.437692 372.206487 
L 390.437692 364.957534 
z
" clip-path="url(#p1c0e067d07)" style="fill: #21599c"/>
   </g>
   <g id="patch_31">
    <path d="M 373.65 355.177479 
L 426.35 355.177479 
L 426.35 356.999705 
L 407.390256 356.999705 
L 407.390256 364.520893 
L 392.646512 364.520893 
L 392.646512 356.999705 
L 373.65 356.999705 
L 373.65 355.177479 
z
" clip-path="url(#p1c0e067d07)" style="fill: #40ba47"/>
   </g>
   <g id="patch_32">
    <path d="M 373.65 320.940292 
L 386.68762 320.940292 
L 400.016162 345.386149 
L 413.323155 320.940292 
L 426.35 320.940292 
L 407.730985 354.060028 
L 392.269015 354.060028 
L 373.65 320.940292 
z
" clip-path="url(#p1c0e067d07)" style="fill: #21599c"/>
   </g>
   <g id="patch_33">
    <path d="M 373.65 267.333223 
L 392.774615 267.333223 
L 392.774615 308.706364 
L 426.35 308.706364 
L 426.35 318.716528 
L 373.65 318.716528 
L 373.65 267.333223 
z
" clip-path="url(#p1c0e067d07)" style="fill: #21599c"/>
   </g>
   <g id="patch_34">
    <path d="M 452.437692 382.996174 
L 471.562308 382.996174 
L 471.562308 384.441953 
L 452.437692 384.441953 
L 452.437692 382.996174 
z
" clip-path="url(#p1c0e067d07)" style="fill: #21599c"/>
   </g>
   <g id="patch_35">
    <path d="M 435.65 380.899155 
L 448.68762 380.899155 
L 462.016162 382.379926 
L 475.323155 380.899155 
L 488.35 380.899155 
L 469.730985 382.905333 
L 454.269015 382.905333 
L 435.65 380.899155 
z
" clip-path="url(#p1c0e067d07)" style="fill: #21599c"/>
   </g>
   <g id="patch_36">
    <path d="M 435.65 376.31128 
L 488.35 376.31128 
L 488.35 377.173069 
L 469.390256 377.173069 
L 469.390256 380.730076 
L 454.646512 380.730076 
L 454.646512 377.173069 
L 435.65 377.173069 
L 435.65 376.31128 
z
" clip-path="url(#p1c0e067d07)" style="fill: #40ba47"/>
   </g>
   <g id="patch_37">
    <path d="M 435.65 368.569351 
L 487.253077 368.569351 
L 487.253077 370.018431 
L 454.774615 370.018431 
L 454.774615 371.40063 
L 485.329487 371.40063 
L 485.329487 372.849709 
L 454.774615 372.849709 
L 454.774615 374.55198 
L 488.35 374.55198 
L 488.35 375.999467 
L 435.65 375.999467 
L 435.65 368.569351 
z
" clip-path="url(#p1c0e067d07)" style="fill: #6b296b"/>
   </g>
   <g id="patch_38">
    <path d="M 488.35 367.225222 
Q 483.035119 367.670121 477.318669 367.893586 
Q 471.602219 368.115019 465.507822 368.115019 
Q 451.736374 368.115019 443.693187 366.790481 
Q 435.65 365.465942 435.65 363.200819 
Q 435.65 360.909286 443.834917 359.594905 
Q 452.031645 358.280523 466.287338 358.280523 
Q 471.779381 358.280523 476.810802 358.459296 
Q 481.854034 358.636036 486.318534 358.985454 
L 486.318534 360.945853 
Q 481.712304 360.496891 477.153317 360.275457 
Q 472.59433 360.051992 468.011721 360.051992 
Q 459.531533 360.051992 454.937113 360.868656 
Q 450.342694 361.683288 450.342694 363.200819 
Q 450.342694 364.704129 454.771762 365.524856 
Q 459.200829 366.343551 467.350314 366.343551 
Q 469.570753 366.343551 471.472299 366.296826 
Q 473.373846 366.24807 474.885634 366.146495 
L 474.885634 364.305955 
L 466.204662 364.305955 
L 466.204662 362.666534 
L 488.35 362.666534 
L 488.35 367.225222 
z
" clip-path="url(#p1c0e067d07)" style="fill: #787800"/>
   </g>
   <g id="patch_39">
    <path d="M 435.65 347.78021 
L 449.537864 347.78021 
L 449.537864 351.422319 
L 469.555783 347.78021 
L 485.683253 347.78021 
L 459.743078 352.506611 
L 488.35 357.759118 
L 470.964195 357.759118 
L 449.537864 353.828292 
L 449.537864 357.759118 
L 435.65 357.759118 
L 435.65 347.78021 
z
" clip-path="url(#p1c0e067d07)" style="fill: #bd2e1f"/>
   </g>
   <g id="patch_40">
    <path d="M 435.65 336.487015 
L 454.774615 336.487015 
L 454.774615 345.140963 
L 488.35 345.140963 
L 488.35 347.234771 
L 435.65 347.234771 
L 435.65 336.487015 
z
" clip-path="url(#p1c0e067d07)" style="fill: #21599c"/>
   </g>
   <g id="patch_41">
    <path d="M 472.155336 331.89046 
L 451.887763 331.89046 
L 448.68762 335.659684 
L 435.65 335.659684 
L 454.269015 314.968861 
L 469.730985 314.968861 
L 488.35 335.659684 
L 475.323155 335.659684 
L 472.155336 331.89046 
z
M 455.120231 328.050286 
L 468.890544 328.050286 
L 462.016162 319.820074 
L 455.120231 328.050286 
z
" clip-path="url(#p1c0e067d07)" style="fill: #21599c"/>
   </g>
   <g id="patch_42">
    <path d="M 497.65 384.469885 
L 510.68762 384.469885 
L 524.016162 384.477159 
L 537.323155 384.469885 
L 550.35 384.469885 
L 531.730985 384.479741 
L 516.269015 384.479741 
L 497.65 384.469885 
z
" clip-path="url(#p1c0e067d07)" style="fill: #21599c"/>
   </g>
   <g id="patch_43">
    <path d="M 497.65 383.926511 
L 550.35 383.926511 
L 550.35 384.029718 
L 531.390256 384.029718 
L 531.390256 384.455699 
L 516.646512 384.455699 
L 516.646512 384.029718 
L 497.65 384.029718 
L 497.65 383.926511 
z
" clip-path="url(#p1c0e067d07)" style="fill: #40ba47"/>
   </g>
   <g id="patch_44">
    <path d="M 497.65 382.653724 
L 549.253077 382.653724 
L 549.253077 382.892942 
L 516.774615 382.892942 
L 516.774615 383.121119 
L 547.329487 383.121119 
L 547.329487 383.360337 
L 516.774615 383.360337 
L 516.774615 383.641352 
L 550.35 383.641352 
L 550.35 383.880307 
L 497.65 383.880307 
L 497.65 382.653724 
z
" clip-path="url(#p1c0e067d07)" style="fill: #6b296b"/>
   </g>
   <g id="patch_45">
    <path d="M 514.437692 381.358617 
L 533.562308 381.358617 
L 533.562308 382.589066 
L 514.437692 382.589066 
L 514.437692 381.358617 
z
" clip-path="url(#p1c0e067d07)" style="fill: #21599c"/>
   </g>
   <g id="patch_46">
    <path d="M 498.198462 379.018727 
L 549.801538 379.018727 
L 549.801538 379.457216 
L 517.323077 379.457216 
L 517.323077 379.875468 
L 547.877949 379.875468 
L 547.877949 380.313957 
L 517.323077 380.313957 
L 517.323077 381.26707 
L 498.198462 381.26707 
L 498.198462 379.018727 
z
" clip-path="url(#p1c0e067d07)" style="fill: #21599c"/>
   </g>
   <g id="patch_47">
    <path d="M 525.405333 378.365029 
L 524.373292 378.365029 
Q 511.714313 378.365029 504.676667 377.986154 
Q 497.65 377.606683 497.65 376.930417 
Q 497.65 376.255341 504.665687 375.872897 
Q 511.681375 375.489858 524 375.489858 
Q 536.450375 375.489858 543.400187 375.869328 
Q 550.35 376.248204 550.35 376.930417 
Q 550.35 377.39851 546.661 377.73694 
Q 542.972 378.075371 536.044146 378.246073 
L 546.364562 378.870593 
L 533.771458 378.870593 
L 525.405333 378.365029 
z
M 524 376.008507 
Q 517.961458 376.008507 514.634771 376.249988 
Q 511.308083 376.491469 511.308083 376.930417 
Q 511.308083 377.376503 514.557917 377.613821 
Q 517.818729 377.850544 524 377.850544 
Q 530.071479 377.850544 533.398167 377.609063 
Q 536.724854 377.366987 536.724854 376.930417 
Q 536.724854 376.491469 533.398167 376.249988 
Q 530.071479 376.008507 524 376.008507 
z
" clip-path="url(#p1c0e067d07)" style="fill: #40ba47"/>
   </g>
   <g id="patch_48">
    <path d="M 550.35 374.90843 
Q 545.035119 375.09918 539.318669 375.19499 
Q 533.602219 375.28993 527.507822 375.28993 
Q 513.736374 375.28993 505.693187 374.722035 
Q 497.65 374.15414 497.65 373.18297 
Q 497.65 372.200476 505.834917 371.636936 
Q 514.031645 371.073396 528.287338 371.073396 
Q 533.779381 371.073396 538.810802 371.150045 
Q 543.854034 371.225822 548.318534 371.375635 
L 548.318534 372.216155 
Q 543.712304 372.023663 539.153317 371.928723 
Q 534.59433 371.832913 530.011721 371.832913 
Q 521.531533 371.832913 516.937113 372.183056 
Q 512.342694 372.532329 512.342694 373.18297 
Q 512.342694 373.827513 516.771762 374.179399 
Q 521.200829 374.530414 529.350314 374.530414 
Q 531.570753 374.530414 533.472299 374.510381 
Q 535.373846 374.489477 536.885634 374.445926 
L 536.885634 373.656796 
L 528.204662 373.656796 
L 528.204662 372.953895 
L 550.35 372.953895 
L 550.35 374.90843 
z
" clip-path="url(#p1c0e067d07)" style="fill: #787800"/>
   </g>
   <g id="patch_49">
    <path d="M 497.65 362.647616 
L 516.774615 362.647616 
L 516.774615 369.17093 
L 550.35 369.17093 
L 550.35 370.749235 
L 497.65 370.749235 
L 497.65 362.647616 
z
" clip-path="url(#p1c0e067d07)" style="fill: #21599c"/>
   </g>
   <g id="patch_50">
    <path d="M 534.155336 360.015674 
L 513.887763 360.015674 
L 510.68762 362.129112 
L 497.65 362.129112 
L 516.269015 350.527582 
L 531.730985 350.527582 
L 550.35 362.129112 
L 537.323155 362.129112 
L 534.155336 360.015674 
z
M 517.120231 357.862454 
L 530.890544 357.862454 
L 524.016162 353.2477 
L 517.120231 357.862454 
z
" clip-path="url(#p1c0e067d07)" style="fill: #21599c"/>
   </g>
   <g id="patch_51">
    <path d="M 497.65 333.818674 
L 511.537864 333.818674 
L 511.537864 339.65216 
L 531.555783 333.818674 
L 547.683253 333.818674 
L 521.743078 341.388847 
L 550.35 349.801673 
L 532.964195 349.801673 
L 511.537864 343.505755 
L 511.537864 349.801673 
L 497.65 349.801673 
L 497.65 333.818674 
z
" clip-path="url(#p1c0e067d07)" style="fill: #bd2e1f"/>
   </g>
   <g id="patch_52">
    <path d="M 587.405333 384.280435 
L 586.373292 384.280435 
Q 573.714313 384.280435 566.676667 384.153258 
Q 559.65 384.025882 559.65 383.79888 
Q 559.65 383.572278 566.665687 383.443904 
Q 573.681375 383.315329 586 383.315329 
Q 598.450375 383.315329 605.400187 383.442706 
Q 612.35 383.569882 612.35 383.79888 
Q 612.35 383.956004 608.661 384.069605 
Q 604.972 384.183205 598.044146 384.240505 
L 608.364562 384.450137 
L 595.771458 384.450137 
L 587.405333 384.280435 
z
M 586 383.489424 
Q 579.961458 383.489424 576.634771 383.570481 
Q 573.308083 383.651539 573.308083 383.79888 
Q 573.308083 383.948617 576.557917 384.028277 
Q 579.818729 384.107738 586 384.107738 
Q 592.071479 384.107738 595.398167 384.02668 
Q 598.724854 383.945423 598.724854 383.79888 
Q 598.724854 383.651539 595.398167 383.570481 
Q 592.071479 383.489424 586 383.489424 
z
" clip-path="url(#p1c0e067d07)" style="fill: #40ba47"/>
   </g>
   <g id="patch_53">
    <path d="M 596.155336 382.500104 
L 575.887763 382.500104 
L 572.68762 383.186335 
L 559.65 383.186335 
L 578.269015 379.419335 
L 593.730985 379.419335 
L 612.35 383.186335 
L 599.323155 383.186335 
L 596.155336 382.500104 
z
M 579.120231 381.800957 
L 592.890544 381.800957 
L 586.016162 380.302554 
L 579.120231 381.800957 
z
" clip-path="url(#p1c0e067d07)" style="fill: #21599c"/>
   </g>
   <g id="patch_54">
    <path d="M 559.65 365.418655 
L 572.68762 365.418655 
L 586.016162 375.416366 
L 599.323155 365.418655 
L 612.35 365.418655 
L 593.730985 378.963754 
L 578.269015 378.963754 
L 559.65 365.418655 
z
" clip-path="url(#p1c0e067d07)" style="fill: #21599c"/>
   </g>
   <g id="patch_55">
    <path d="M 559.65 349.472292 
L 573.537864 349.472292 
L 573.537864 355.016412 
L 593.555783 349.472292 
L 609.683253 349.472292 
L 583.743078 356.666951 
L 612.35 364.662464 
L 594.964195 364.662464 
L 573.537864 358.678851 
L 573.537864 364.662464 
L 559.65 364.662464 
L 559.65 349.472292 
z
" clip-path="url(#p1c0e067d07)" style="fill: #bd2e1f"/>
   </g>
   <g id="patch_56">
    <path d="M 559.65 328.540193 
L 578.774615 328.540193 
L 578.774615 344.648662 
L 612.35 344.648662 
L 612.35 348.54608 
L 559.65 348.54608 
L 559.65 328.540193 
z
" clip-path="url(#p1c0e067d07)" style="fill: #21599c"/>
   </g>
   <g id="patch_57">
    <path d="M 576.437692 302.678174 
L 595.562308 302.678174 
L 595.562308 327.364093 
L 576.437692 327.364093 
L 576.437692 302.678174 
z
" clip-path="url(#p1c0e067d07)" style="fill: #21599c"/>
   </g>
   <g id="matplotlib.axis_1">
    <g id="xtick_1">
     <g id="line2d_2">
      <defs>
       <path id="m143b007aa3" d="M 0 0 
L 0 4.8 
" style="stroke: #262626"/>
      </defs>
      <g>
       <use xlink:href="#m143b007aa3" x="152" y="384.48" style="fill: #262626; stroke: #262626"/>
      </g>
     </g>
     <g id="text_1">
      <!-- P4 -->
      <g style="fill: #262626" transform="translate(146.61825 399.078875) scale(0.088 -0.088)">
       <defs>
        <path id="ArialMT-50" d="M 494 0 
L 494 4581 
L 2222 4581 
Q 2678 4581 2919 4538 
Q 3256 4481 3484 4323 
Q 3713 4166 3852 3881 
Q 3991 3597 3991 3256 
Q 3991 2672 3619 2267 
Q 3247 1863 2275 1863 
L 1100 1863 
L 1100 0 
L 494 0 
z
M 1100 2403 
L 2284 2403 
Q 2872 2403 3119 2622 
Q 3366 2841 3366 3238 
Q 3366 3525 3220 3729 
Q 3075 3934 2838 4000 
Q 2684 4041 2272 4041 
L 1100 4041 
L 1100 2403 
z
" transform="scale(0.015625)"/>
        <path id="ArialMT-34" d="M 2069 0 
L 2069 1097 
L 81 1097 
L 81 1613 
L 2172 4581 
L 2631 4581 
L 2631 1613 
L 3250 1613 
L 3250 1097 
L 2631 1097 
L 2631 0 
L 2069 0 
z
M 2069 1613 
L 2069 3678 
L 634 1613 
L 2069 1613 
z
" transform="scale(0.015625)"/>
       </defs>
       <use xlink:href="#ArialMT-50"/>
       <use xlink:href="#ArialMT-34" x="66.699219"/>
      </g>
     </g>
    </g>
    <g id="xtick_2">
     <g id="line2d_3">
      <g>
       <use xlink:href="#m143b007aa3" x="214" y="384.48" style="fill: #262626; stroke: #262626"/>
      </g>
     </g>
     <g id="text_2">
      <!-- P3 -->
      <g style="fill: #262626" transform="translate(208.61825 399.078875) scale(0.088 -0.088)">
       <defs>
        <path id="ArialMT-33" d="M 269 1209 
L 831 1284 
Q 928 806 1161 595 
Q 1394 384 1728 384 
Q 2125 384 2398 659 
Q 2672 934 2672 1341 
Q 2672 1728 2419 1979 
Q 2166 2231 1775 2231 
Q 1616 2231 1378 2169 
L 1441 2663 
Q 1497 2656 1531 2656 
Q 1891 2656 2178 2843 
Q 2466 3031 2466 3422 
Q 2466 3731 2256 3934 
Q 2047 4138 1716 4138 
Q 1388 4138 1169 3931 
Q 950 3725 888 3313 
L 325 3413 
Q 428 3978 793 4289 
Q 1159 4600 1703 4600 
Q 2078 4600 2393 4439 
Q 2709 4278 2876 4000 
Q 3044 3722 3044 3409 
Q 3044 3113 2884 2869 
Q 2725 2625 2413 2481 
Q 2819 2388 3044 2092 
Q 3269 1797 3269 1353 
Q 3269 753 2831 336 
Q 2394 -81 1725 -81 
Q 1122 -81 723 278 
Q 325 638 269 1209 
z
" transform="scale(0.015625)"/>
       </defs>
       <use xlink:href="#ArialMT-50"/>
       <use xlink:href="#ArialMT-33" x="66.699219"/>
      </g>
     </g>
    </g>
    <g id="xtick_3">
     <g id="line2d_4">
      <g>
       <use xlink:href="#m143b007aa3" x="276" y="384.48" style="fill: #262626; stroke: #262626"/>
      </g>
     </g>
     <g id="text_3">
      <!-- P2 -->
      <g style="fill: #262626" transform="translate(270.61825 399.078875) scale(0.088 -0.088)">
       <defs>
        <path id="ArialMT-32" d="M 3222 541 
L 3222 0 
L 194 0 
Q 188 203 259 391 
Q 375 700 629 1000 
Q 884 1300 1366 1694 
Q 2113 2306 2375 2664 
Q 2638 3022 2638 3341 
Q 2638 3675 2398 3904 
Q 2159 4134 1775 4134 
Q 1369 4134 1125 3890 
Q 881 3647 878 3216 
L 300 3275 
Q 359 3922 746 4261 
Q 1134 4600 1788 4600 
Q 2447 4600 2831 4234 
Q 3216 3869 3216 3328 
Q 3216 3053 3103 2787 
Q 2991 2522 2730 2228 
Q 2469 1934 1863 1422 
Q 1356 997 1212 845 
Q 1069 694 975 541 
L 3222 541 
z
" transform="scale(0.015625)"/>
       </defs>
       <use xlink:href="#ArialMT-50"/>
       <use xlink:href="#ArialMT-32" x="66.699219"/>
      </g>
     </g>
    </g>
    <g id="xtick_4">
     <g id="line2d_5">
      <g>
       <use xlink:href="#m143b007aa3" x="338" y="384.48" style="fill: #262626; stroke: #262626"/>
      </g>
     </g>
     <g id="text_4">
      <!-- P1 -->
      <g style="fill: #262626" transform="translate(332.61825 399.078875) scale(0.088 -0.088)">
       <defs>
        <path id="ArialMT-31" d="M 2384 0 
L 1822 0 
L 1822 3584 
Q 1619 3391 1289 3197 
Q 959 3003 697 2906 
L 697 3450 
Q 1169 3672 1522 3987 
Q 1875 4303 2022 4600 
L 2384 4600 
L 2384 0 
z
" transform="scale(0.015625)"/>
       </defs>
       <use xlink:href="#ArialMT-50"/>
       <use xlink:href="#ArialMT-31" x="66.699219"/>
      </g>
     </g>
    </g>
    <g id="xtick_5">
     <g id="line2d_6">
      <g>
       <use xlink:href="#m143b007aa3" x="400" y="384.48" style="fill: #262626; stroke: #262626"/>
      </g>
     </g>
     <g id="text_5">
      <!-- P1' -->
      <g style="fill: #262626" transform="translate(393.778125 399.078875) scale(0.088 -0.088)">
       <defs>
        <path id="ArialMT-27" d="M 425 2959 
L 281 3816 
L 281 4581 
L 922 4581 
L 922 3816 
L 772 2959 
L 425 2959 
z
" transform="scale(0.015625)"/>
       </defs>
       <use xlink:href="#ArialMT-50"/>
       <use xlink:href="#ArialMT-31" x="66.699219"/>
       <use xlink:href="#ArialMT-27" x="122.314453"/>
      </g>
     </g>
    </g>
    <g id="xtick_6">
     <g id="line2d_7">
      <g>
       <use xlink:href="#m143b007aa3" x="462" y="384.48" style="fill: #262626; stroke: #262626"/>
      </g>
     </g>
     <g id="text_6">
      <!-- P2' -->
      <g style="fill: #262626" transform="translate(455.778125 399.078875) scale(0.088 -0.088)">
       <use xlink:href="#ArialMT-50"/>
       <use xlink:href="#ArialMT-32" x="66.699219"/>
       <use xlink:href="#ArialMT-27" x="122.314453"/>
      </g>
     </g>
    </g>
    <g id="xtick_7">
     <g id="line2d_8">
      <g>
       <use xlink:href="#m143b007aa3" x="524" y="384.48" style="fill: #262626; stroke: #262626"/>
      </g>
     </g>
     <g id="text_7">
      <!-- P3' -->
      <g style="fill: #262626" transform="translate(517.778125 399.078875) scale(0.088 -0.088)">
       <use xlink:href="#ArialMT-50"/>
       <use xlink:href="#ArialMT-33" x="66.699219"/>
       <use xlink:href="#ArialMT-27" x="122.314453"/>
      </g>
     </g>
    </g>
    <g id="xtick_8">
     <g id="line2d_9">
      <g>
       <use xlink:href="#m143b007aa3" x="586" y="384.48" style="fill: #262626; stroke: #262626"/>
      </g>
     </g>
     <g id="text_8">
      <!-- P4' -->
      <g style="fill: #262626" transform="translate(579.778125 399.078875) scale(0.088 -0.088)">
       <use xlink:href="#ArialMT-50"/>
       <use xlink:href="#ArialMT-34" x="66.699219"/>
       <use xlink:href="#ArialMT-27" x="122.314453"/>
      </g>
     </g>
    </g>
   </g>
   <g id="matplotlib.axis_2">
    <g id="ytick_1">
     <g id="line2d_10">
      <defs>
       <path id="mb9b8b0e873" d="M 0 0 
L -4.8 0 
" style="stroke: #262626"/>
      </defs>
      <g>
       <use xlink:href="#mb9b8b0e873" x="90" y="384.48" style="fill: #262626; stroke: #262626"/>
      </g>
     </g>
     <g id="text_9">
      <!-- 0.0 -->
      <g style="fill: #262626" transform="translate(69.468 387.629437) scale(0.088 -0.088)">
       <defs>
        <path id="ArialMT-30" d="M 266 2259 
Q 266 3072 433 3567 
Q 600 4063 929 4331 
Q 1259 4600 1759 4600 
Q 2128 4600 2406 4451 
Q 2684 4303 2865 4023 
Q 3047 3744 3150 3342 
Q 3253 2941 3253 2259 
Q 3253 1453 3087 958 
Q 2922 463 2592 192 
Q 2263 -78 1759 -78 
Q 1097 -78 719 397 
Q 266 969 266 2259 
z
M 844 2259 
Q 844 1131 1108 757 
Q 1372 384 1759 384 
Q 2147 384 2411 759 
Q 2675 1134 2675 2259 
Q 2675 3391 2411 3762 
Q 2147 4134 1753 4134 
Q 1366 4134 1134 3806 
Q 844 3388 844 2259 
z
" transform="scale(0.015625)"/>
        <path id="ArialMT-2e" d="M 581 0 
L 581 641 
L 1222 641 
L 1222 0 
L 581 0 
z
" transform="scale(0.015625)"/>
       </defs>
       <use xlink:href="#ArialMT-30"/>
       <use xlink:href="#ArialMT-2e" x="55.615234"/>
       <use xlink:href="#ArialMT-30" x="83.398438"/>
      </g>
     </g>
    </g>
    <g id="ytick_2">
     <g id="line2d_11">
      <g>
       <use xlink:href="#mb9b8b0e873" x="90" y="319.061876" style="fill: #262626; stroke: #262626"/>
      </g>
     </g>
     <g id="text_10">
      <!-- 0.5 -->
      <g style="fill: #262626" transform="translate(69.468 322.211313) scale(0.088 -0.088)">
       <defs>
        <path id="ArialMT-35" d="M 266 1200 
L 856 1250 
Q 922 819 1161 601 
Q 1400 384 1738 384 
Q 2144 384 2425 690 
Q 2706 997 2706 1503 
Q 2706 1984 2436 2262 
Q 2166 2541 1728 2541 
Q 1456 2541 1237 2417 
Q 1019 2294 894 2097 
L 366 2166 
L 809 4519 
L 3088 4519 
L 3088 3981 
L 1259 3981 
L 1013 2750 
Q 1425 3038 1878 3038 
Q 2478 3038 2890 2622 
Q 3303 2206 3303 1553 
Q 3303 931 2941 478 
Q 2500 -78 1738 -78 
Q 1113 -78 717 272 
Q 322 622 266 1200 
z
" transform="scale(0.015625)"/>
       </defs>
       <use xlink:href="#ArialMT-30"/>
       <use xlink:href="#ArialMT-2e" x="55.615234"/>
       <use xlink:href="#ArialMT-35" x="83.398438"/>
      </g>
     </g>
    </g>
    <g id="ytick_3">
     <g id="line2d_12">
      <g>
       <use xlink:href="#mb9b8b0e873" x="90" y="253.643752" style="fill: #262626; stroke: #262626"/>
      </g>
     </g>
     <g id="text_11">
      <!-- 1.0 -->
      <g style="fill: #262626" transform="translate(69.468 256.793189) scale(0.088 -0.088)">
       <use xlink:href="#ArialMT-31"/>
       <use xlink:href="#ArialMT-2e" x="55.615234"/>
       <use xlink:href="#ArialMT-30" x="83.398438"/>
      </g>
     </g>
    </g>
    <g id="ytick_4">
     <g id="line2d_13">
      <g>
       <use xlink:href="#mb9b8b0e873" x="90" y="188.225628" style="fill: #262626; stroke: #262626"/>
      </g>
     </g>
     <g id="text_12">
      <!-- 1.5 -->
      <g style="fill: #262626" transform="translate(69.468 191.375065) scale(0.088 -0.088)">
       <use xlink:href="#ArialMT-31"/>
       <use xlink:href="#ArialMT-2e" x="55.615234"/>
       <use xlink:href="#ArialMT-35" x="83.398438"/>
      </g>
     </g>
    </g>
    <g id="ytick_5">
     <g id="line2d_14">
      <g>
       <use xlink:href="#mb9b8b0e873" x="90" y="122.807503" style="fill: #262626; stroke: #262626"/>
      </g>
     </g>
     <g id="text_13">
      <!-- 2.0 -->
      <g style="fill: #262626" transform="translate(69.468 125.956941) scale(0.088 -0.088)">
       <use xlink:href="#ArialMT-32"/>
       <use xlink:href="#ArialMT-2e" x="55.615234"/>
       <use xlink:href="#ArialMT-30" x="83.398438"/>
      </g>
     </g>
    </g>
    <g id="ytick_6">
     <g id="line2d_15">
      <g>
       <use xlink:href="#mb9b8b0e873" x="90" y="57.389379" style="fill: #262626; stroke: #262626"/>
      </g>
     </g>
     <g id="text_14">
      <!-- 2.5 -->
      <g style="fill: #262626" transform="translate(69.468 60.538817) scale(0.088 -0.088)">
       <use xlink:href="#ArialMT-32"/>
       <use xlink:href="#ArialMT-2e" x="55.615234"/>
       <use xlink:href="#ArialMT-35" x="83.398438"/>
      </g>
     </g>
    </g>
    <g id="text_15">
     <!-- information (bits) -->
     <g style="fill: #262626" transform="translate(63.4475 253.902) rotate(-90) scale(0.096 -0.096)">
      <defs>
       <path id="ArialMT-69" d="M 425 3934 
L 425 4581 
L 988 4581 
L 988 3934 
L 425 3934 
z
M 425 0 
L 425 3319 
L 988 3319 
L 988 0 
L 425 0 
z
" transform="scale(0.015625)"/>
       <path id="ArialMT-6e" d="M 422 0 
L 422 3319 
L 928 3319 
L 928 2847 
Q 1294 3394 1984 3394 
Q 2284 3394 2536 3286 
Q 2788 3178 2913 3003 
Q 3038 2828 3088 2588 
Q 3119 2431 3119 2041 
L 3119 0 
L 2556 0 
L 2556 2019 
Q 2556 2363 2490 2533 
Q 2425 2703 2258 2804 
Q 2091 2906 1866 2906 
Q 1506 2906 1245 2678 
Q 984 2450 984 1813 
L 984 0 
L 422 0 
z
" transform="scale(0.015625)"/>
       <path id="ArialMT-66" d="M 556 0 
L 556 2881 
L 59 2881 
L 59 3319 
L 556 3319 
L 556 3672 
Q 556 4006 616 4169 
Q 697 4388 901 4523 
Q 1106 4659 1475 4659 
Q 1713 4659 2000 4603 
L 1916 4113 
Q 1741 4144 1584 4144 
Q 1328 4144 1222 4034 
Q 1116 3925 1116 3625 
L 1116 3319 
L 1763 3319 
L 1763 2881 
L 1116 2881 
L 1116 0 
L 556 0 
z
" transform="scale(0.015625)"/>
       <path id="ArialMT-6f" d="M 213 1659 
Q 213 2581 725 3025 
Q 1153 3394 1769 3394 
Q 2453 3394 2887 2945 
Q 3322 2497 3322 1706 
Q 3322 1066 3130 698 
Q 2938 331 2570 128 
Q 2203 -75 1769 -75 
Q 1072 -75 642 372 
Q 213 819 213 1659 
z
M 791 1659 
Q 791 1022 1069 705 
Q 1347 388 1769 388 
Q 2188 388 2466 706 
Q 2744 1025 2744 1678 
Q 2744 2294 2464 2611 
Q 2184 2928 1769 2928 
Q 1347 2928 1069 2612 
Q 791 2297 791 1659 
z
" transform="scale(0.015625)"/>
       <path id="ArialMT-72" d="M 416 0 
L 416 3319 
L 922 3319 
L 922 2816 
Q 1116 3169 1280 3281 
Q 1444 3394 1641 3394 
Q 1925 3394 2219 3213 
L 2025 2691 
Q 1819 2813 1613 2813 
Q 1428 2813 1281 2702 
Q 1134 2591 1072 2394 
Q 978 2094 978 1738 
L 978 0 
L 416 0 
z
" transform="scale(0.015625)"/>
       <path id="ArialMT-6d" d="M 422 0 
L 422 3319 
L 925 3319 
L 925 2853 
Q 1081 3097 1340 3245 
Q 1600 3394 1931 3394 
Q 2300 3394 2536 3241 
Q 2772 3088 2869 2813 
Q 3263 3394 3894 3394 
Q 4388 3394 4653 3120 
Q 4919 2847 4919 2278 
L 4919 0 
L 4359 0 
L 4359 2091 
Q 4359 2428 4304 2576 
Q 4250 2725 4106 2815 
Q 3963 2906 3769 2906 
Q 3419 2906 3187 2673 
Q 2956 2441 2956 1928 
L 2956 0 
L 2394 0 
L 2394 2156 
Q 2394 2531 2256 2718 
Q 2119 2906 1806 2906 
Q 1569 2906 1367 2781 
Q 1166 2656 1075 2415 
Q 984 2175 984 1722 
L 984 0 
L 422 0 
z
" transform="scale(0.015625)"/>
       <path id="ArialMT-61" d="M 2588 409 
Q 2275 144 1986 34 
Q 1697 -75 1366 -75 
Q 819 -75 525 192 
Q 231 459 231 875 
Q 231 1119 342 1320 
Q 453 1522 633 1644 
Q 813 1766 1038 1828 
Q 1203 1872 1538 1913 
Q 2219 1994 2541 2106 
Q 2544 2222 2544 2253 
Q 2544 2597 2384 2738 
Q 2169 2928 1744 2928 
Q 1347 2928 1158 2789 
Q 969 2650 878 2297 
L 328 2372 
Q 403 2725 575 2942 
Q 747 3159 1072 3276 
Q 1397 3394 1825 3394 
Q 2250 3394 2515 3294 
Q 2781 3194 2906 3042 
Q 3031 2891 3081 2659 
Q 3109 2516 3109 2141 
L 3109 1391 
Q 3109 606 3145 398 
Q 3181 191 3288 0 
L 2700 0 
Q 2613 175 2588 409 
z
M 2541 1666 
Q 2234 1541 1622 1453 
Q 1275 1403 1131 1340 
Q 988 1278 909 1158 
Q 831 1038 831 891 
Q 831 666 1001 516 
Q 1172 366 1500 366 
Q 1825 366 2078 508 
Q 2331 650 2450 897 
Q 2541 1088 2541 1459 
L 2541 1666 
z
" transform="scale(0.015625)"/>
       <path id="ArialMT-74" d="M 1650 503 
L 1731 6 
Q 1494 -44 1306 -44 
Q 1000 -44 831 53 
Q 663 150 594 308 
Q 525 466 525 972 
L 525 2881 
L 113 2881 
L 113 3319 
L 525 3319 
L 525 4141 
L 1084 4478 
L 1084 3319 
L 1650 3319 
L 1650 2881 
L 1084 2881 
L 1084 941 
Q 1084 700 1114 631 
Q 1144 563 1211 522 
Q 1278 481 1403 481 
Q 1497 481 1650 503 
z
" transform="scale(0.015625)"/>
       <path id="ArialMT-20" transform="scale(0.015625)"/>
       <path id="ArialMT-28" d="M 1497 -1347 
Q 1031 -759 709 28 
Q 388 816 388 1659 
Q 388 2403 628 3084 
Q 909 3875 1497 4659 
L 1900 4659 
Q 1522 4009 1400 3731 
Q 1209 3300 1100 2831 
Q 966 2247 966 1656 
Q 966 153 1900 -1347 
L 1497 -1347 
z
" transform="scale(0.015625)"/>
       <path id="ArialMT-62" d="M 941 0 
L 419 0 
L 419 4581 
L 981 4581 
L 981 2947 
Q 1338 3394 1891 3394 
Q 2197 3394 2470 3270 
Q 2744 3147 2920 2923 
Q 3097 2700 3197 2384 
Q 3297 2069 3297 1709 
Q 3297 856 2875 390 
Q 2453 -75 1863 -75 
Q 1275 -75 941 416 
L 941 0 
z
M 934 1684 
Q 934 1088 1097 822 
Q 1363 388 1816 388 
Q 2184 388 2453 708 
Q 2722 1028 2722 1663 
Q 2722 2313 2464 2622 
Q 2206 2931 1841 2931 
Q 1472 2931 1203 2611 
Q 934 2291 934 1684 
z
" transform="scale(0.015625)"/>
       <path id="ArialMT-73" d="M 197 991 
L 753 1078 
Q 800 744 1014 566 
Q 1228 388 1613 388 
Q 2000 388 2187 545 
Q 2375 703 2375 916 
Q 2375 1106 2209 1216 
Q 2094 1291 1634 1406 
Q 1016 1563 777 1677 
Q 538 1791 414 1992 
Q 291 2194 291 2438 
Q 291 2659 392 2848 
Q 494 3038 669 3163 
Q 800 3259 1026 3326 
Q 1253 3394 1513 3394 
Q 1903 3394 2198 3281 
Q 2494 3169 2634 2976 
Q 2775 2784 2828 2463 
L 2278 2388 
Q 2241 2644 2061 2787 
Q 1881 2931 1553 2931 
Q 1166 2931 1000 2803 
Q 834 2675 834 2503 
Q 834 2394 903 2306 
Q 972 2216 1119 2156 
Q 1203 2125 1616 2013 
Q 2213 1853 2448 1751 
Q 2684 1650 2818 1456 
Q 2953 1263 2953 975 
Q 2953 694 2789 445 
Q 2625 197 2315 61 
Q 2006 -75 1616 -75 
Q 969 -75 630 194 
Q 291 463 197 991 
z
" transform="scale(0.015625)"/>
       <path id="ArialMT-29" d="M 791 -1347 
L 388 -1347 
Q 1322 153 1322 1656 
Q 1322 2244 1188 2822 
Q 1081 3291 891 3722 
Q 769 4003 388 4659 
L 791 4659 
Q 1378 3875 1659 3084 
Q 1900 2403 1900 1659 
Q 1900 816 1576 28 
Q 1253 -759 791 -1347 
z
" transform="scale(0.015625)"/>
      </defs>
      <use xlink:href="#ArialMT-69"/>
      <use xlink:href="#ArialMT-6e" x="22.216797"/>
      <use xlink:href="#ArialMT-66" x="77.832031"/>
      <use xlink:href="#ArialMT-6f" x="105.615234"/>
      <use xlink:href="#ArialMT-72" x="161.230469"/>
      <use xlink:href="#ArialMT-6d" x="194.53125"/>
      <use xlink:href="#ArialMT-61" x="277.832031"/>
      <use xlink:href="#ArialMT-74" x="333.447266"/>
      <use xlink:href="#ArialMT-69" x="361.230469"/>
      <use xlink:href="#ArialMT-6f" x="383.447266"/>
      <use xlink:href="#ArialMT-6e" x="439.0625"/>
      <use xlink:href="#ArialMT-20" x="494.677734"/>
      <use xlink:href="#ArialMT-28" x="522.460938"/>
      <use xlink:href="#ArialMT-62" x="555.761719"/>
      <use xlink:href="#ArialMT-69" x="611.376953"/>
      <use xlink:href="#ArialMT-74" x="633.59375"/>
      <use xlink:href="#ArialMT-73" x="661.376953"/>
      <use xlink:href="#ArialMT-29" x="711.376953"/>
     </g>
    </g>
   </g>
   <g id="line2d_16">
    <path d="M 369 384.48 
L 369 51.84 
" clip-path="url(#p1c0e067d07)" style="fill: none; stroke: #daa520; stroke-width: 2; stroke-linecap: round"/>
   </g>
   <g id="patch_58">
    <path d="M 90 384.48 
L 648 384.48 
" style="fill: none; stroke: #262626; stroke-linejoin: miter; stroke-linecap: square"/>
   </g>
   <g id="patch_59">
    <path d="M 90 51.84 
L 648 51.84 
" style="fill: none; stroke: #262626; stroke-linejoin: miter; stroke-linecap: square"/>
   </g>
   <g id="text_16">
    <!-- GluC vs. Ctrl information content, Shannon n=74 -->
    <g style="fill: #262626" transform="translate(265.61625 45.84) scale(0.096 -0.096)">
     <defs>
      <path id="ArialMT-47" d="M 2638 1797 
L 2638 2334 
L 4578 2338 
L 4578 638 
Q 4131 281 3656 101 
Q 3181 -78 2681 -78 
Q 2006 -78 1454 211 
Q 903 500 622 1047 
Q 341 1594 341 2269 
Q 341 2938 620 3517 
Q 900 4097 1425 4378 
Q 1950 4659 2634 4659 
Q 3131 4659 3532 4498 
Q 3934 4338 4162 4050 
Q 4391 3763 4509 3300 
L 3963 3150 
Q 3859 3500 3706 3700 
Q 3553 3900 3268 4020 
Q 2984 4141 2638 4141 
Q 2222 4141 1919 4014 
Q 1616 3888 1430 3681 
Q 1244 3475 1141 3228 
Q 966 2803 966 2306 
Q 966 1694 1177 1281 
Q 1388 869 1791 669 
Q 2194 469 2647 469 
Q 3041 469 3416 620 
Q 3791 772 3984 944 
L 3984 1797 
L 2638 1797 
z
" transform="scale(0.015625)"/>
      <path id="ArialMT-6c" d="M 409 0 
L 409 4581 
L 972 4581 
L 972 0 
L 409 0 
z
" transform="scale(0.015625)"/>
      <path id="ArialMT-75" d="M 2597 0 
L 2597 488 
Q 2209 -75 1544 -75 
Q 1250 -75 995 37 
Q 741 150 617 320 
Q 494 491 444 738 
Q 409 903 409 1263 
L 409 3319 
L 972 3319 
L 972 1478 
Q 972 1038 1006 884 
Q 1059 663 1231 536 
Q 1403 409 1656 409 
Q 1909 409 2131 539 
Q 2353 669 2445 892 
Q 2538 1116 2538 1541 
L 2538 3319 
L 3100 3319 
L 3100 0 
L 2597 0 
z
" transform="scale(0.015625)"/>
      <path id="ArialMT-43" d="M 3763 1606 
L 4369 1453 
Q 4178 706 3683 314 
Q 3188 -78 2472 -78 
Q 1731 -78 1267 223 
Q 803 525 561 1097 
Q 319 1669 319 2325 
Q 319 3041 592 3573 
Q 866 4106 1370 4382 
Q 1875 4659 2481 4659 
Q 3169 4659 3637 4309 
Q 4106 3959 4291 3325 
L 3694 3184 
Q 3534 3684 3231 3912 
Q 2928 4141 2469 4141 
Q 1941 4141 1586 3887 
Q 1231 3634 1087 3207 
Q 944 2781 944 2328 
Q 944 1744 1114 1308 
Q 1284 872 1643 656 
Q 2003 441 2422 441 
Q 2931 441 3284 734 
Q 3638 1028 3763 1606 
z
" transform="scale(0.015625)"/>
      <path id="ArialMT-76" d="M 1344 0 
L 81 3319 
L 675 3319 
L 1388 1331 
Q 1503 1009 1600 663 
Q 1675 925 1809 1294 
L 2547 3319 
L 3125 3319 
L 1869 0 
L 1344 0 
z
" transform="scale(0.015625)"/>
      <path id="ArialMT-63" d="M 2588 1216 
L 3141 1144 
Q 3050 572 2676 248 
Q 2303 -75 1759 -75 
Q 1078 -75 664 370 
Q 250 816 250 1647 
Q 250 2184 428 2587 
Q 606 2991 970 3192 
Q 1334 3394 1763 3394 
Q 2303 3394 2647 3120 
Q 2991 2847 3088 2344 
L 2541 2259 
Q 2463 2594 2264 2762 
Q 2066 2931 1784 2931 
Q 1359 2931 1093 2626 
Q 828 2322 828 1663 
Q 828 994 1084 691 
Q 1341 388 1753 388 
Q 2084 388 2306 591 
Q 2528 794 2588 1216 
z
" transform="scale(0.015625)"/>
      <path id="ArialMT-65" d="M 2694 1069 
L 3275 997 
Q 3138 488 2766 206 
Q 2394 -75 1816 -75 
Q 1088 -75 661 373 
Q 234 822 234 1631 
Q 234 2469 665 2931 
Q 1097 3394 1784 3394 
Q 2450 3394 2872 2941 
Q 3294 2488 3294 1666 
Q 3294 1616 3291 1516 
L 816 1516 
Q 847 969 1125 678 
Q 1403 388 1819 388 
Q 2128 388 2347 550 
Q 2566 713 2694 1069 
z
M 847 1978 
L 2700 1978 
Q 2663 2397 2488 2606 
Q 2219 2931 1791 2931 
Q 1403 2931 1139 2672 
Q 875 2413 847 1978 
z
" transform="scale(0.015625)"/>
      <path id="ArialMT-2c" d="M 569 0 
L 569 641 
L 1209 641 
L 1209 0 
Q 1209 -353 1084 -570 
Q 959 -788 688 -906 
L 531 -666 
Q 709 -588 793 -436 
Q 878 -284 888 0 
L 569 0 
z
" transform="scale(0.015625)"/>
      <path id="ArialMT-53" d="M 288 1472 
L 859 1522 
Q 900 1178 1048 958 
Q 1197 738 1509 602 
Q 1822 466 2213 466 
Q 2559 466 2825 569 
Q 3091 672 3220 851 
Q 3350 1031 3350 1244 
Q 3350 1459 3225 1620 
Q 3100 1781 2813 1891 
Q 2628 1963 1997 2114 
Q 1366 2266 1113 2400 
Q 784 2572 623 2826 
Q 463 3081 463 3397 
Q 463 3744 659 4045 
Q 856 4347 1234 4503 
Q 1613 4659 2075 4659 
Q 2584 4659 2973 4495 
Q 3363 4331 3572 4012 
Q 3781 3694 3797 3291 
L 3216 3247 
Q 3169 3681 2898 3903 
Q 2628 4125 2100 4125 
Q 1550 4125 1298 3923 
Q 1047 3722 1047 3438 
Q 1047 3191 1225 3031 
Q 1400 2872 2139 2705 
Q 2878 2538 3153 2413 
Q 3553 2228 3743 1945 
Q 3934 1663 3934 1294 
Q 3934 928 3725 604 
Q 3516 281 3123 101 
Q 2731 -78 2241 -78 
Q 1619 -78 1198 103 
Q 778 284 539 648 
Q 300 1013 288 1472 
z
" transform="scale(0.015625)"/>
      <path id="ArialMT-68" d="M 422 0 
L 422 4581 
L 984 4581 
L 984 2938 
Q 1378 3394 1978 3394 
Q 2347 3394 2619 3248 
Q 2891 3103 3008 2847 
Q 3125 2591 3125 2103 
L 3125 0 
L 2563 0 
L 2563 2103 
Q 2563 2525 2380 2717 
Q 2197 2909 1863 2909 
Q 1613 2909 1392 2779 
Q 1172 2650 1078 2428 
Q 984 2206 984 1816 
L 984 0 
L 422 0 
z
" transform="scale(0.015625)"/>
      <path id="ArialMT-3d" d="M 3381 2694 
L 356 2694 
L 356 3219 
L 3381 3219 
L 3381 2694 
z
M 3381 1303 
L 356 1303 
L 356 1828 
L 3381 1828 
L 3381 1303 
z
" transform="scale(0.015625)"/>
      <path id="ArialMT-37" d="M 303 3981 
L 303 4522 
L 3269 4522 
L 3269 4084 
Q 2831 3619 2401 2847 
Q 1972 2075 1738 1259 
Q 1569 684 1522 0 
L 944 0 
Q 953 541 1156 1306 
Q 1359 2072 1739 2783 
Q 2119 3494 2547 3981 
L 303 3981 
z
" transform="scale(0.015625)"/>
     </defs>
     <use xlink:href="#ArialMT-47"/>
     <use xlink:href="#ArialMT-6c" x="77.783203"/>
     <use xlink:href="#ArialMT-75" x="100"/>
     <use xlink:href="#ArialMT-43" x="155.615234"/>
     <use xlink:href="#ArialMT-20" x="227.832031"/>
     <use xlink:href="#ArialMT-76" x="255.615234"/>
     <use xlink:href="#ArialMT-73" x="305.615234"/>
     <use xlink:href="#ArialMT-2e" x="355.615234"/>
     <use xlink:href="#ArialMT-20" x="383.398438"/>
     <use xlink:href="#ArialMT-43" x="411.181641"/>
     <use xlink:href="#ArialMT-74" x="483.398438"/>
     <use xlink:href="#ArialMT-72" x="511.181641"/>
     <use xlink:href="#ArialMT-6c" x="544.482422"/>
     <use xlink:href="#ArialMT-20" x="566.699219"/>
     <use xlink:href="#ArialMT-69" x="594.482422"/>
     <use xlink:href="#ArialMT-6e" x="616.699219"/>
     <use xlink:href="#ArialMT-66" x="672.314453"/>
     <use xlink:href="#ArialMT-6f" x="700.097656"/>
     <use xlink:href="#ArialMT-72" x="755.712891"/>
     <use xlink:href="#ArialMT-6d" x="789.013672"/>
     <use xlink:href="#ArialMT-61" x="872.314453"/>
     <use xlink:href="#ArialMT-74" x="927.929688"/>
     <use xlink:href="#ArialMT-69" x="955.712891"/>
     <use xlink:href="#ArialMT-6f" x="977.929688"/>
     <use xlink:href="#ArialMT-6e" x="1033.544922"/>
     <use xlink:href="#ArialMT-20" x="1089.160156"/>
     <use xlink:href="#ArialMT-63" x="1116.943359"/>
     <use xlink:href="#ArialMT-6f" x="1166.943359"/>
     <use xlink:href="#ArialMT-6e" x="1222.558594"/>
     <use xlink:href="#ArialMT-74" x="1278.173828"/>
     <use xlink:href="#ArialMT-65" x="1305.957031"/>
     <use xlink:href="#ArialMT-6e" x="1361.572266"/>
     <use xlink:href="#ArialMT-74" x="1417.1875"/>
     <use xlink:href="#ArialMT-2c" x="1444.970703"/>
     <use xlink:href="#ArialMT-20" x="1472.753906"/>
     <use xlink:href="#ArialMT-53" x="1500.537109"/>
     <use xlink:href="#ArialMT-68" x="1567.236328"/>
     <use xlink:href="#ArialMT-61" x="1622.851562"/>
     <use xlink:href="#ArialMT-6e" x="1678.466797"/>
     <use xlink:href="#ArialMT-6e" x="1734.082031"/>
     <use xlink:href="#ArialMT-6f" x="1789.697266"/>
     <use xlink:href="#ArialMT-6e" x="1845.3125"/>
     <use xlink:href="#ArialMT-20" x="1900.927734"/>
     <use xlink:href="#ArialMT-6e" x="1928.710938"/>
     <use xlink:href="#ArialMT-3d" x="1984.326172"/>
     <use xlink:href="#ArialMT-37" x="2042.724609"/>
     <use xlink:href="#ArialMT-34" x="2098.339844"/>
    </g>
   </g>
  </g>
 </g>
 <defs>
  <clipPath id="p1c0e067d07">
   <rect x="90" y="51.84" width="558" height="332.64"/>
  </clipPath>
 </defs>
</svg>
